<?xml version="1.0" encoding="UTF-8" standalone="no"?>
<!DOCTYPE svg PUBLIC "-//W3C//DTD SVG 1.1//EN"
 "http://www.w3.org/Graphics/SVG/1.1/DTD/svg11.dtd">
<!-- Generated by graphviz version 10.0.1 (20240210.2158)
 -->
<!-- Title: Plugin.Main.StartFile Pages: 1 -->
<!--zoomable 482 -->

<svg id="main" version="1.1" xmlns="http://www.w3.org/2000/svg" xmlns:xlink="http://www.w3.org/1999/xlink" xml:space="preserve" onload="init(evt)">
<style type="text/css"><![CDATA[
.node, .edge {opacity: 0.7;}
.node.selected, .edge.selected {opacity: 1;}
.edge:hover path { stroke: red; }
.edge:hover polygon { stroke: red; fill: red; }
]]></style>

<defs>
  <circle id="rim" cx="0" cy="0" r="7"/>
  <circle id="rim2" cx="0" cy="0" r="3.5"/>
  <g id="zoomPlus">
    <use xlink:href="#rim" fill="#404040"><set attributeName="fill" to="#808080" begin="zoomplus.mouseover" end="zoomplus.mouseout"/></use>
    <path d="M-4,0h8M0,-4v8" fill="none" stroke="white" stroke-width="1.5" pointer-events="none"/>
  </g>
  <g id="zoomMin">
    <use xlink:href="#rim" fill="#404040"><set attributeName="fill" to="#808080" begin="zoomminus.mouseover" end="zoomminus.mouseout"/></use>
    <path d="M-4,0h8" fill="none" stroke="white" stroke-width="1.5" pointer-events="none"/>
  </g>
  <g id="arrowUp" transform="translate(30 24)">
    <use xlink:href="#rim"/>
    <path pointer-events="none" fill="none" stroke="white" stroke-width="1.5" d="M0,-3.0v7 M-2.5,-0.5L0,-3.0L2.5,-0.5"/>
  </g>
  <g id="arrowRight" transform="rotate(90) translate(36 -43)">
    <use xlink:href="#rim"/>
    <path pointer-events="none" fill="none" stroke="white" stroke-width="1.5" d="M0,-3.0v7 M-2.5,-0.5L0,-3.0L2.5,-0.5"/>
  </g>
  <g id="arrowDown" transform="rotate(180) translate(-30 -48)">
    <use xlink:href="#rim"/>
    <path pointer-events="none" fill="none" stroke="white" stroke-width="1.5" d="M0,-3.0v7 M-2.5,-0.5L0,-3.0L2.5,-0.5"/>
  </g>
  <g id="arrowLeft" transform="rotate(270) translate(-36 17)">
    <use xlink:href="#rim"/>
    <path pointer-events="none" fill="none" stroke="white" stroke-width="1.5" d="M0,-3.0v7 M-2.5,-0.5L0,-3.0L2.5,-0.5"/>
  </g>
  <g id="resetDef">
    <use xlink:href="#rim2" fill="#404040"><set attributeName="fill" to="#808080" begin="reset.mouseover" end="reset.mouseout"/></use>
  </g>
</defs>
<script type="application/ecmascript">
var viewWidth = 891;
var viewHeight = 482;
var sectionId = 'dynsection-134';
</script>
<script type="application/ecmascript" xlink:href="svg.min.js"/>
<svg id="graph" class="graph">
<g id="viewport">
<title>Plugin.Main.StartFile</title>
<!-- Node1 -->
<g id="Node000001" class="node">
<title>Node1</title>
<g id="a_Node000001"><a xlink:title="Asynchronously starts a file specified by the path received from the node and sends a success signal ...">
<polygon fill="#999999" stroke="#666666" points="106.75,-219.88 0,-219.88 0,-200.62 106.75,-200.62 106.75,-219.88"/>
<text text-anchor="middle" x="53.38" y="-206.38" font-family="Helvetica,sans-Serif" font-size="10.00">Plugin.Main.StartFile</text>
</a>
</g>
</g>
<!-- Node2 -->
<g id="Node000002" class="node">
<title>Node2</title>
<g id="a_Node000002"><a xlink:href="classxeno__rat__client_1_1_node.html#aed8a6b3de6ee0efa48945c8b1e6c763e" target="_top" xlink:title="Disconnects the current socket and clears the subNodes list, and invokes the OnDisconnect event if it...">
<polygon fill="white" stroke="#666666" points="486.75,-219.88 326,-219.88 326,-200.62 486.75,-200.62 486.75,-219.88"/>
<text text-anchor="middle" x="406.38" y="-206.38" font-family="Helvetica,sans-Serif" font-size="10.00">xeno_rat_client.Node.Disconnect</text>
</a>
</g>
</g>
<!-- Node1&#45;&gt;Node2 -->
<g id="edge1_Node000001_Node000002" class="edge">
<title>Node1&#45;&gt;Node2</title>
<g id="a_edge1_Node000001_Node000002"><a xlink:title=" ">
<path fill="none" stroke="#63b8ff" d="M106.92,-210.25C161.7,-210.25 248.6,-210.25 314.53,-210.25"/>
<polygon fill="#63b8ff" stroke="#63b8ff" points="314.24,-213.75 324.24,-210.25 314.24,-206.75 314.24,-213.75"/>
</a>
</g>
</g>
<!-- Node3 -->
<g id="Node000003" class="node">
<title>Node3</title>
<g id="a_Node000003"><a xlink:href="classxeno__rat__client_1_1_node.html#a5e2f1397fe3500c1f49ae17e4b91cde4" target="_top" xlink:title="Asynchronously receives data from the socket and returns the received data as a byte array.">
<polygon fill="white" stroke="#666666" points="290,-268.5 142.75,-268.5 142.75,-238 290,-238 290,-268.5"/>
<text text-anchor="start" x="150.75" y="-255" font-family="Helvetica,sans-Serif" font-size="10.00">xeno_rat_client.Node.Receive</text>
<text text-anchor="middle" x="216.38" y="-243.75" font-family="Helvetica,sans-Serif" font-size="10.00">Async</text>
</a>
</g>
</g>
<!-- Node1&#45;&gt;Node3 -->
<g id="edge3_Node000001_Node000003" class="edge">
<title>Node1&#45;&gt;Node3</title>
<g id="a_edge3_Node000001_Node000003"><a xlink:title=" ">
<path fill="none" stroke="#63b8ff" d="M92.12,-220.33C108.05,-224.59 127.13,-229.68 145.46,-234.58"/>
<polygon fill="#63b8ff" stroke="#63b8ff" points="144.41,-237.92 154.98,-237.12 146.22,-231.16 144.41,-237.92"/>
</a>
</g>
</g>
<!-- Node12 -->
<g id="Node000012" class="node">
<title>Node12</title>
<g id="a_Node000012"><a xlink:href="classxeno__rat__client_1_1_node.html#afe8db11f190f0a3b146e16a7b14ef490" target="_top" xlink:title="Asynchronously sends the specified data over the socket connection.">
<polygon fill="white" stroke="#666666" points="283.25,-182.5 149.5,-182.5 149.5,-152 283.25,-152 283.25,-182.5"/>
<text text-anchor="start" x="157.5" y="-169" font-family="Helvetica,sans-Serif" font-size="10.00">xeno_rat_client.Node.Send</text>
<text text-anchor="middle" x="216.38" y="-157.75" font-family="Helvetica,sans-Serif" font-size="10.00">Async</text>
</a>
</g>
</g>
<!-- Node1&#45;&gt;Node12 -->
<g id="edge14_Node000001_Node000012" class="edge">
<title>Node1&#45;&gt;Node12</title>
<g id="a_edge14_Node000001_Node000012"><a xlink:title=" ">
<path fill="none" stroke="#63b8ff" d="M92.12,-200.17C108.05,-195.91 127.13,-190.82 145.46,-185.92"/>
<polygon fill="#63b8ff" stroke="#63b8ff" points="146.22,-189.34 154.98,-183.38 144.41,-182.58 146.22,-189.34"/>
</a>
</g>
</g>
<!-- Node2&#45;&gt;Node2 -->
<g id="edge2_Node000002_Node000002" class="edge">
<title>Node2&#45;&gt;Node2</title>
<g id="a_edge2_Node000002_Node000002"><a xlink:title=" ">
<path fill="none" stroke="#63b8ff" d="M376.63,-220.16C363.06,-228.77 372.98,-237.88 406.38,-237.88 425.68,-237.88 437.14,-234.83 440.75,-230.6"/>
<polygon fill="#63b8ff" stroke="#63b8ff" points="443.99,-229.27 436.73,-221.55 437.59,-232.11 443.99,-229.27"/>
</a>
</g>
</g>
<!-- Node3&#45;&gt;Node2 -->
<g id="edge4_Node000003_Node000002" class="edge">
<title>Node3&#45;&gt;Node2</title>
<g id="a_edge4_Node000003_Node000002"><a xlink:title=" ">
<path fill="none" stroke="#63b8ff" d="M286.05,-237.54C307.1,-232.73 329.99,-227.49 350.03,-222.91"/>
<polygon fill="#63b8ff" stroke="#63b8ff" points="350.71,-226.34 359.68,-220.7 349.15,-219.52 350.71,-226.34"/>
</a>
</g>
</g>
<!-- Node4 -->
<g id="Node000004" class="node">
<title>Node4</title>
<g id="a_Node000004"><a xlink:href="classxeno__rat__client_1_1_socket_handler.html#ac05e4943d4ffdb6a72fa80e8f4bbede6" target="_top" xlink:title="Asynchronously receives data and performs various operations on it, such as decryption,...">
<polygon fill="white" stroke="#666666" points="482.25,-326.5 330.5,-326.5 330.5,-296 482.25,-296 482.25,-326.5"/>
<text text-anchor="start" x="338.5" y="-313" font-family="Helvetica,sans-Serif" font-size="10.00">xeno_rat_client.SocketHandler.</text>
<text text-anchor="middle" x="406.38" y="-301.75" font-family="Helvetica,sans-Serif" font-size="10.00">ReceiveAsync</text>
</a>
</g>
</g>
<!-- Node3&#45;&gt;Node4 -->
<g id="edge5_Node000003_Node000004" class="edge">
<title>Node3&#45;&gt;Node4</title>
<g id="a_edge5_Node000003_Node000004"><a xlink:title=" ">
<path fill="none" stroke="#63b8ff" d="M268.25,-268.95C291.45,-276.1 319.12,-284.64 343.51,-292.16"/>
<polygon fill="#63b8ff" stroke="#63b8ff" points="342.43,-295.49 353.01,-295.1 344.49,-288.8 342.43,-295.49"/>
</a>
</g>
</g>
<!-- Node5 -->
<g id="Node000005" class="node">
<title>Node5</title>
<g id="a_Node000005"><a xlink:href="classxeno__rat__client_1_1_socket_handler.html#a08263821429a6c263085688a2b716f44" target="_top" xlink:title="Truncates the input byte array from the specified offset and returns the truncated byte array.">
<polygon fill="white" stroke="#666666" points="674.5,-277.5 522.75,-277.5 522.75,-247 674.5,-247 674.5,-277.5"/>
<text text-anchor="start" x="530.75" y="-264" font-family="Helvetica,sans-Serif" font-size="10.00">xeno_rat_client.SocketHandler.</text>
<text text-anchor="middle" x="598.62" y="-252.75" font-family="Helvetica,sans-Serif" font-size="10.00">BTruncate</text>
</a>
</g>
</g>
<!-- Node4&#45;&gt;Node5 -->
<g id="edge6_Node000004_Node000005" class="edge">
<title>Node4&#45;&gt;Node5</title>
<g id="a_edge6_Node000004_Node000005"><a xlink:title=" ">
<path fill="none" stroke="#63b8ff" d="M468.36,-295.54C486.62,-290.84 506.82,-285.64 525.71,-280.77"/>
<polygon fill="#63b8ff" stroke="#63b8ff" points="526.39,-284.21 535.2,-278.33 524.64,-277.43 526.39,-284.21"/>
</a>
</g>
</g>
<!-- Node6 -->
<g id="Node000006" class="node">
<title>Node6</title>
<g id="a_Node000006"><a xlink:href="classxeno__rat__client_1_1_socket_handler.html#a14771b2d7d9b62c512e15fbd3f7eed2d" target="_top" xlink:title="Converts the specified byte array to an integer.">
<polygon fill="white" stroke="#666666" points="872.38,-247.5 720.62,-247.5 720.62,-217 872.38,-217 872.38,-247.5"/>
<text text-anchor="start" x="728.62" y="-234" font-family="Helvetica,sans-Serif" font-size="10.00">xeno_rat_client.SocketHandler.</text>
<text text-anchor="middle" x="796.5" y="-222.75" font-family="Helvetica,sans-Serif" font-size="10.00">BytesToInt</text>
</a>
</g>
</g>
<!-- Node4&#45;&gt;Node6 -->
<g id="edge7_Node000004_Node000006" class="edge">
<title>Node4&#45;&gt;Node6</title>
<g id="a_edge7_Node000004_Node000006"><a xlink:title=" ">
<path fill="none" stroke="#63b8ff" d="M425.01,-295.7C446.4,-277.93 484.4,-249.82 522.75,-238.25 583.07,-220.05 654.36,-219.14 708.92,-222.47"/>
<polygon fill="#63b8ff" stroke="#63b8ff" points="708.58,-225.96 718.79,-223.14 709.05,-218.97 708.58,-225.96"/>
</a>
</g>
</g>
<!-- Node7 -->
<g id="Node000007" class="node">
<title>Node7</title>
<g id="a_Node000007"><a xlink:href="classxeno__rat__client_1_1_compression.html#a77db1a3658cab9e1ded20775b02584ad" target="_top" xlink:title="Decompresses the input buffer using the LZNT1 compression format and returns the decompressed data.">
<polygon fill="white" stroke="#666666" points="671.5,-473.5 525.75,-473.5 525.75,-443 671.5,-443 671.5,-473.5"/>
<text text-anchor="start" x="533.75" y="-460" font-family="Helvetica,sans-Serif" font-size="10.00">xeno_rat_client.Compression.</text>
<text text-anchor="middle" x="598.62" y="-448.75" font-family="Helvetica,sans-Serif" font-size="10.00">Decompress</text>
</a>
</g>
</g>
<!-- Node4&#45;&gt;Node7 -->
<g id="edge8_Node000004_Node000007" class="edge">
<title>Node4&#45;&gt;Node7</title>
<g id="a_edge8_Node000004_Node000007"><a xlink:title=" ">
<path fill="none" stroke="#63b8ff" d="M417.98,-326.67C436.41,-352.35 476.79,-403.93 522.75,-433.25 525.18,-434.8 527.71,-436.26 530.31,-437.64"/>
<polygon fill="#63b8ff" stroke="#63b8ff" points="528.74,-440.77 539.28,-441.91 531.76,-434.45 528.74,-440.77"/>
</a>
</g>
</g>
<!-- Node9 -->
<g id="Node000009" class="node">
<title>Node9</title>
<g id="a_Node000009"><a xlink:href="classxeno__rat__client_1_1_encryption.html#ae86cb9fa23f767be0a3c99e369ecbd30" target="_top" xlink:title="Decrypts the input data using the provided key and returns the decrypted result.">
<polygon fill="white" stroke="#666666" points="665.88,-424.5 531.38,-424.5 531.38,-394 665.88,-394 665.88,-424.5"/>
<text text-anchor="start" x="539.38" y="-411" font-family="Helvetica,sans-Serif" font-size="10.00">xeno_rat_client.Encryption.</text>
<text text-anchor="middle" x="598.62" y="-399.75" font-family="Helvetica,sans-Serif" font-size="10.00">Decrypt</text>
</a>
</g>
</g>
<!-- Node4&#45;&gt;Node9 -->
<g id="edge10_Node000004_Node000009" class="edge">
<title>Node4&#45;&gt;Node9</title>
<g id="a_edge10_Node000004_Node000009"><a xlink:title=" ">
<path fill="none" stroke="#63b8ff" d="M428.59,-326.89C451.07,-342.92 488.06,-367.78 522.75,-384.25 526.68,-386.11 530.78,-387.9 534.96,-389.6"/>
<polygon fill="#63b8ff" stroke="#63b8ff" points="533.42,-392.76 544.01,-393.09 535.94,-386.23 533.42,-392.76"/>
</a>
</g>
</g>
<!-- Node10 -->
<g id="Node000010" class="node">
<title>Node10</title>
<g id="a_Node000010"><a xlink:href="classxeno__rat__client_1_1_socket_handler.html#a77529cf89708fc6f487cd2aaac7e9bac" target="_top" xlink:title="Parses the header from the given byte array and returns the header information.">
<polygon fill="white" stroke="#666666" points="674.5,-375.5 522.75,-375.5 522.75,-345 674.5,-345 674.5,-375.5"/>
<text text-anchor="start" x="530.75" y="-362" font-family="Helvetica,sans-Serif" font-size="10.00">xeno_rat_client.SocketHandler.</text>
<text text-anchor="middle" x="598.62" y="-350.75" font-family="Helvetica,sans-Serif" font-size="10.00">ParseHeader</text>
</a>
</g>
</g>
<!-- Node4&#45;&gt;Node10 -->
<g id="edge11_Node000004_Node000010" class="edge">
<title>Node4&#45;&gt;Node10</title>
<g id="a_edge11_Node000004_Node000010"><a xlink:title=" ">
<path fill="none" stroke="#63b8ff" d="M468.36,-326.96C486.62,-331.66 506.82,-336.86 525.71,-341.73"/>
<polygon fill="#63b8ff" stroke="#63b8ff" points="524.64,-345.07 535.2,-344.17 526.39,-338.29 524.64,-345.07"/>
</a>
</g>
</g>
<!-- Node11 -->
<g id="Node000011" class="node">
<title>Node11</title>
<g id="a_Node000011"><a xlink:href="classxeno__rat__client_1_1_socket_handler.html#a8be64178ac717030dea4dbcea7937a83" target="_top" xlink:title="Asynchronously receives all the data of the specified size from the connected socket and returns it a...">
<polygon fill="white" stroke="#666666" points="674.5,-326.5 522.75,-326.5 522.75,-296 674.5,-296 674.5,-326.5"/>
<text text-anchor="start" x="530.75" y="-313" font-family="Helvetica,sans-Serif" font-size="10.00">xeno_rat_client.SocketHandler.</text>
<text text-anchor="middle" x="598.62" y="-301.75" font-family="Helvetica,sans-Serif" font-size="10.00">RecvAllAsync_ddos_unsafer</text>
</a>
</g>
</g>
<!-- Node4&#45;&gt;Node11 -->
<g id="edge13_Node000004_Node000011" class="edge">
<title>Node4&#45;&gt;Node11</title>
<g id="a_edge13_Node000004_Node000011"><a xlink:title=" ">
<path fill="none" stroke="#63b8ff" d="M482.57,-311.25C491.87,-311.25 501.44,-311.25 510.9,-311.25"/>
<polygon fill="#63b8ff" stroke="#63b8ff" points="510.84,-314.75 520.84,-311.25 510.84,-307.75 510.84,-314.75"/>
</a>
</g>
</g>
<!-- Node8 -->
<g id="Node000008" class="node">
<title>Node8</title>
<g id="a_Node000008"><a xlink:href="classxeno__rat__client_1_1_compression.html#a9fe0a6ed3a221d799c7e1a7ba004d5fd" target="_top" xlink:title="Decompresses a buffer using the specified compression format and returns the decompressed data.">
<polygon fill="white" stroke="#666666" points="869.38,-473.5 723.62,-473.5 723.62,-443 869.38,-443 869.38,-473.5"/>
<text text-anchor="start" x="731.62" y="-460" font-family="Helvetica,sans-Serif" font-size="10.00">xeno_rat_client.Compression.</text>
<text text-anchor="middle" x="796.5" y="-448.75" font-family="Helvetica,sans-Serif" font-size="10.00">RtlDecompressBuffer</text>
</a>
</g>
</g>
<!-- Node7&#45;&gt;Node8 -->
<g id="edge9_Node000007_Node000008" class="edge">
<title>Node7&#45;&gt;Node8</title>
<g id="a_edge9_Node000007_Node000008"><a xlink:title=" ">
<path fill="none" stroke="#63b8ff" d="M671.73,-458.25C684.85,-458.25 698.64,-458.25 712.06,-458.25"/>
<polygon fill="#63b8ff" stroke="#63b8ff" points="711.71,-461.75 721.71,-458.25 711.71,-454.75 711.71,-461.75"/>
</a>
</g>
</g>
<!-- Node10&#45;&gt;Node6 -->
<g id="edge12_Node000010_Node000006" class="edge">
<title>Node10&#45;&gt;Node6</title>
<g id="a_edge12_Node000010_Node000006"><a xlink:title=" ">
<path fill="none" stroke="#63b8ff" d="M654.66,-344.6C661.52,-341.86 668.29,-338.75 674.5,-335.25 712.85,-313.61 750.41,-278.92 773.26,-255.86"/>
<polygon fill="#63b8ff" stroke="#63b8ff" points="775.74,-258.33 780.22,-248.73 770.73,-253.44 775.74,-258.33"/>
</a>
</g>
</g>
<!-- Node12&#45;&gt;Node2 -->
<g id="edge15_Node000012_Node000002" class="edge">
<title>Node12&#45;&gt;Node2</title>
<g id="a_edge15_Node000012_Node000002"><a xlink:title=" ">
<path fill="none" stroke="#63b8ff" d="M283.66,-182.41C305.33,-187.37 329.17,-192.82 349.95,-197.57"/>
<polygon fill="#63b8ff" stroke="#63b8ff" points="349.15,-200.98 359.68,-199.8 350.71,-194.16 349.15,-200.98"/>
</a>
</g>
</g>
<!-- Node13 -->
<g id="Node000013" class="node">
<title>Node13</title>
<g id="a_Node000013"><a xlink:href="classxeno__rat__client_1_1_socket_handler.html#a4970cfbc960dd288436a9fe80814531d" target="_top" xlink:title="Asynchronously sends the specified data over the socket after compressing, encrypting,...">
<polygon fill="white" stroke="#666666" points="482.25,-142.5 330.5,-142.5 330.5,-112 482.25,-112 482.25,-142.5"/>
<text text-anchor="start" x="338.5" y="-129" font-family="Helvetica,sans-Serif" font-size="10.00">xeno_rat_client.SocketHandler.</text>
<text text-anchor="middle" x="406.38" y="-117.75" font-family="Helvetica,sans-Serif" font-size="10.00">SendAsync</text>
</a>
</g>
</g>
<!-- Node12&#45;&gt;Node13 -->
<g id="edge16_Node000012_Node000013" class="edge">
<title>Node12&#45;&gt;Node13</title>
<g id="a_edge16_Node000012_Node000013"><a xlink:title=" ">
<path fill="none" stroke="#63b8ff" d="M283.66,-153.15C295.47,-150.63 307.93,-147.98 320.19,-145.37"/>
<polygon fill="#63b8ff" stroke="#63b8ff" points="320.83,-148.82 329.89,-143.31 319.38,-141.97 320.83,-148.82"/>
</a>
</g>
</g>
<!-- Node14 -->
<g id="Node000014" class="node">
<title>Node14</title>
<g id="a_Node000014"><a xlink:href="classxeno__rat__client_1_1_compression.html#ab25c4ae61c5c162bdb353676a7d01ca6" target="_top" xlink:title="Compresses the input buffer using the LZNT1 compression format and returns the compressed data.">
<polygon fill="white" stroke="#666666" points="671.5,-93.5 525.75,-93.5 525.75,-63 671.5,-63 671.5,-93.5"/>
<text text-anchor="start" x="533.75" y="-80" font-family="Helvetica,sans-Serif" font-size="10.00">xeno_rat_client.Compression.</text>
<text text-anchor="middle" x="598.62" y="-68.75" font-family="Helvetica,sans-Serif" font-size="10.00">Compress</text>
</a>
</g>
</g>
<!-- Node13&#45;&gt;Node14 -->
<g id="edge17_Node000013_Node000014" class="edge">
<title>Node13&#45;&gt;Node14</title>
<g id="a_edge17_Node000013_Node000014"><a xlink:title=" ">
<path fill="none" stroke="#63b8ff" d="M468.36,-111.54C486.62,-106.84 506.82,-101.64 525.71,-96.77"/>
<polygon fill="#63b8ff" stroke="#63b8ff" points="526.39,-100.21 535.2,-94.33 524.64,-93.43 526.39,-100.21"/>
</a>
</g>
</g>
<!-- Node19 -->
<g id="Node000019" class="node">
<title>Node19</title>
<g id="a_Node000019"><a xlink:href="classxeno__rat__client_1_1_socket_handler.html#aff56eb3e00bf2bb85e2d7696318b4468" target="_top" xlink:title="Concatenates two byte arrays and returns the result.">
<polygon fill="white" stroke="#666666" points="674.5,-44.5 522.75,-44.5 522.75,-14 674.5,-14 674.5,-44.5"/>
<text text-anchor="start" x="530.75" y="-31" font-family="Helvetica,sans-Serif" font-size="10.00">xeno_rat_client.SocketHandler.</text>
<text text-anchor="middle" x="598.62" y="-19.75" font-family="Helvetica,sans-Serif" font-size="10.00">Concat</text>
</a>
</g>
</g>
<!-- Node13&#45;&gt;Node19 -->
<g id="edge22_Node000013_Node000019" class="edge">
<title>Node13&#45;&gt;Node19</title>
<g id="a_edge22_Node000013_Node000019"><a xlink:title=" ">
<path fill="none" stroke="#63b8ff" d="M428.59,-111.61C451.07,-95.58 488.06,-70.72 522.75,-54.25 526.68,-52.39 530.78,-50.6 534.96,-48.9"/>
<polygon fill="#63b8ff" stroke="#63b8ff" points="535.94,-52.27 544.01,-45.41 533.42,-45.74 535.94,-52.27"/>
</a>
</g>
</g>
<!-- Node20 -->
<g id="Node000020" class="node">
<title>Node20</title>
<g id="a_Node000020"><a xlink:href="classxeno__rat__client_1_1_encryption.html#a807a6407c09f993138a2684be0899cb3" target="_top" xlink:title="Encrypts the input data using the provided key and returns the encrypted result.">
<polygon fill="white" stroke="#666666" points="665.88,-191.5 531.38,-191.5 531.38,-161 665.88,-161 665.88,-191.5"/>
<text text-anchor="start" x="539.38" y="-178" font-family="Helvetica,sans-Serif" font-size="10.00">xeno_rat_client.Encryption.</text>
<text text-anchor="middle" x="598.62" y="-166.75" font-family="Helvetica,sans-Serif" font-size="10.00">Encrypt</text>
</a>
</g>
</g>
<!-- Node13&#45;&gt;Node20 -->
<g id="edge23_Node000013_Node000020" class="edge">
<title>Node13&#45;&gt;Node20</title>
<g id="a_edge23_Node000013_Node000020"><a xlink:title=" ">
<path fill="none" stroke="#63b8ff" d="M468.36,-142.96C486.62,-147.66 506.82,-152.86 525.71,-157.73"/>
<polygon fill="#63b8ff" stroke="#63b8ff" points="524.64,-161.07 535.2,-160.17 526.39,-154.29 524.64,-161.07"/>
</a>
</g>
</g>
<!-- Node21 -->
<g id="Node000021" class="node">
<title>Node21</title>
<g id="a_Node000021"><a xlink:href="classxeno__rat__client_1_1_socket_handler.html#a9b4df15d86fe97e366771e3c0568761d" target="_top" xlink:title="Converts an integer to a byte array.">
<polygon fill="white" stroke="#666666" points="674.5,-142.5 522.75,-142.5 522.75,-112 674.5,-112 674.5,-142.5"/>
<text text-anchor="start" x="530.75" y="-129" font-family="Helvetica,sans-Serif" font-size="10.00">xeno_rat_client.SocketHandler.</text>
<text text-anchor="middle" x="598.62" y="-117.75" font-family="Helvetica,sans-Serif" font-size="10.00">IntToBytes</text>
</a>
</g>
</g>
<!-- Node13&#45;&gt;Node21 -->
<g id="edge24_Node000013_Node000021" class="edge">
<title>Node13&#45;&gt;Node21</title>
<g id="a_edge24_Node000013_Node000021"><a xlink:title=" ">
<path fill="none" stroke="#63b8ff" d="M482.57,-127.25C491.87,-127.25 501.44,-127.25 510.9,-127.25"/>
<polygon fill="#63b8ff" stroke="#63b8ff" points="510.84,-130.75 520.84,-127.25 510.84,-123.75 510.84,-130.75"/>
</a>
</g>
</g>
<!-- Node15 -->
<g id="Node000015" class="node">
<title>Node15</title>
<g id="a_Node000015"><a xlink:href="classxeno__rat__client_1_1_compression.html#abc065f053d0258dd1a7acae93f8332d0" target="_top" xlink:title="Allocates memory in the local heap.">
<polygon fill="white" stroke="#666666" points="869.38,-79.5 723.62,-79.5 723.62,-49 869.38,-49 869.38,-79.5"/>
<text text-anchor="start" x="731.62" y="-66" font-family="Helvetica,sans-Serif" font-size="10.00">xeno_rat_client.Compression.</text>
<text text-anchor="middle" x="796.5" y="-54.75" font-family="Helvetica,sans-Serif" font-size="10.00">LocalAlloc</text>
</a>
</g>
</g>
<!-- Node14&#45;&gt;Node15 -->
<g id="edge18_Node000014_Node000015" class="edge">
<title>Node14&#45;&gt;Node15</title>
<g id="a_edge18_Node000014_Node000015"><a xlink:title=" ">
<path fill="none" stroke="#63b8ff" d="M671.73,-73.1C684.85,-72.16 698.64,-71.17 712.06,-70.21"/>
<polygon fill="#63b8ff" stroke="#63b8ff" points="711.99,-73.73 721.71,-69.52 711.49,-66.75 711.99,-73.73"/>
</a>
</g>
</g>
<!-- Node16 -->
<g id="Node000016" class="node">
<title>Node16</title>
<g id="a_Node000016"><a xlink:href="classxeno__rat__client_1_1_compression.html#a0d2aafc746f145f698a8f1d310ccfbb2" target="_top" xlink:title="Frees the memory block allocated by the LocalAlloc or LocalReAlloc function.">
<polygon fill="white" stroke="#666666" points="869.38,-30.5 723.62,-30.5 723.62,0 869.38,0 869.38,-30.5"/>
<text text-anchor="start" x="731.62" y="-17" font-family="Helvetica,sans-Serif" font-size="10.00">xeno_rat_client.Compression.</text>
<text text-anchor="middle" x="796.5" y="-5.75" font-family="Helvetica,sans-Serif" font-size="10.00">LocalFree</text>
</a>
</g>
</g>
<!-- Node14&#45;&gt;Node16 -->
<g id="edge19_Node000014_Node000016" class="edge">
<title>Node14&#45;&gt;Node16</title>
<g id="a_edge19_Node000014_Node000016"><a xlink:title=" ">
<path fill="none" stroke="#63b8ff" d="M647.22,-62.55C656.29,-59.51 665.7,-56.31 674.5,-53.25 690.57,-47.67 694.33,-45.54 710.5,-40.25 716.68,-38.23 723.14,-36.19 729.61,-34.2"/>
<polygon fill="#63b8ff" stroke="#63b8ff" points="730.48,-37.59 739.03,-31.34 728.45,-30.9 730.48,-37.59"/>
</a>
</g>
</g>
<!-- Node17 -->
<g id="Node000017" class="node">
<title>Node17</title>
<g id="a_Node000017"><a xlink:href="classxeno__rat__client_1_1_compression.html#a9f7d50afed4c3c988eb3e7691cb94581" target="_top" xlink:title="Compresses the input buffer using the specified compression format and returns the compressed data in...">
<polygon fill="white" stroke="#666666" points="869.38,-177.5 723.62,-177.5 723.62,-147 869.38,-147 869.38,-177.5"/>
<text text-anchor="start" x="731.62" y="-164" font-family="Helvetica,sans-Serif" font-size="10.00">xeno_rat_client.Compression.</text>
<text text-anchor="middle" x="796.5" y="-152.75" font-family="Helvetica,sans-Serif" font-size="10.00">RtlCompressBuffer</text>
</a>
</g>
</g>
<!-- Node14&#45;&gt;Node17 -->
<g id="edge20_Node000014_Node000017" class="edge">
<title>Node14&#45;&gt;Node17</title>
<g id="a_edge20_Node000014_Node000017"><a xlink:title=" ">
<path fill="none" stroke="#63b8ff" d="M655.63,-93.92C662.18,-96.63 668.62,-99.73 674.5,-103.25 693.38,-114.56 691.42,-126.29 710.5,-137.25 713.63,-139.05 716.91,-140.73 720.27,-142.3"/>
<polygon fill="#63b8ff" stroke="#63b8ff" points="718.61,-145.4 729.18,-146.08 721.34,-138.95 718.61,-145.4"/>
</a>
</g>
</g>
<!-- Node18 -->
<g id="Node000018" class="node">
<title>Node18</title>
<g id="a_Node000018"><a xlink:href="classxeno__rat__client_1_1_compression.html#ae6d3ee0c8538f67cd80635e6bc1bad03" target="_top" xlink:title="Retrieves the size of the workspace required for compression.">
<polygon fill="white" stroke="#666666" points="882.5,-128.5 710.5,-128.5 710.5,-98 882.5,-98 882.5,-128.5"/>
<text text-anchor="start" x="718.5" y="-115" font-family="Helvetica,sans-Serif" font-size="10.00">xeno_rat_client.Compression.</text>
<text text-anchor="middle" x="796.5" y="-103.75" font-family="Helvetica,sans-Serif" font-size="10.00">RtlGetCompressionWorkSpaceSize</text>
</a>
</g>
</g>
<!-- Node14&#45;&gt;Node18 -->
<g id="edge21_Node000014_Node000018" class="edge">
<title>Node14&#45;&gt;Node18</title>
<g id="a_edge21_Node000014_Node000018"><a xlink:title=" ">
<path fill="none" stroke="#63b8ff" d="M671.73,-91.13C680.65,-92.73 689.87,-94.38 699.08,-96.02"/>
<polygon fill="#63b8ff" stroke="#63b8ff" points="698.33,-99.44 708.79,-97.76 699.56,-92.55 698.33,-99.44"/>
</a>
</g>
</g>
</g>
</svg>

<g id="navigator" transform="translate(0 0)" fill="#404254">
  <rect fill="#f2f5e9" fill-opacity="0.5" stroke="#606060" stroke-width=".5" x="0" y="0" width="60" height="60"/>
  <use id="zoomplus" xlink:href="#zoomPlus" x="17" y="9" onmousedown="handleZoom(evt,'in')"/>
  <use id="zoomminus" xlink:href="#zoomMin" x="42" y="9" onmousedown="handleZoom(evt,'out')"/>
  <use id="reset" xlink:href="#resetDef" x="30" y="36" onmousedown="handleReset()"/>
   <use id="arrowup" xlink:href="#arrowUp" x="0" y="0" onmousedown="handlePan(0,-1)"/>
  <use id="arrowright" xlink:href="#arrowRight" x="0" y="0" onmousedown="handlePan(1,0)"/>
  <use id="arrowdown" xlink:href="#arrowDown" x="0" y="0" onmousedown="handlePan(0,1)"/>
  <use id="arrowleft" xlink:href="#arrowLeft" x="0" y="0" onmousedown="handlePan(-1,0)"/>
</g>
<svg viewBox="0 0 15 15" width="100%" height="30px" preserveAspectRatio="xMaxYMin meet">
 <g id="arrow_out" transform="scale(0.3 0.3)">
  <a xlink:href="class_plugin_1_1_main_a3b39782a6964bd214686773f154a5bb9_cgraph_org.svg" target="_base">
   <rect id="button" ry="5" rx="5" y="6" x="6" height="38" width="38"
        fill="#f2f5e9" fill-opacity="0.5" stroke="#606060" stroke-width="1.0"/>
   <path id="arrow"
     d="M 11.500037,31.436501 C 11.940474,20.09759 22.043105,11.32322 32.158766,21.979434 L 37.068811,17.246167 C 37.068811,17.246167 37.088388,32 37.088388,32 L 22.160133,31.978069 C 22.160133,31.978069 26.997745,27.140456 26.997745,27.140456 C 18.528582,18.264221 13.291696,25.230495 11.500037,31.436501 z"
     style="fill:#404040;"/>
  </a>
 </g>
</svg>

<style type='text/css'>
<![CDATA[
[data-mouse-over-selected='false'] { opacity: 0.7; }
[data-mouse-over-selected='true']  { opacity: 1.0; }
]]>
</style>
<script type="application/ecmascript"><![CDATA[
document.addEventListener('DOMContentLoaded', (event) => {
  highlightEdges();
  highlightAdjacentNodes();
});
]]></script>
</svg>
