<?xml version="1.0" encoding="UTF-8" standalone="no"?>
<!DOCTYPE svg PUBLIC "-//W3C//DTD SVG 1.1//EN"
 "http://www.w3.org/Graphics/SVG/1.1/DTD/svg11.dtd">
<!-- Generated by graphviz version 10.0.1 (20240210.2158)
 -->
<!-- Title: NAudio.Wave.SampleProviders.StereoFloatSampleChunkConverter Pages: 1 -->
<svg width="172pt" height="258pt"
 viewBox="0.00 0.00 172.00 258.00" xmlns="http://www.w3.org/2000/svg" xmlns:xlink="http://www.w3.org/1999/xlink">
<g id="graph0" class="graph" transform="scale(1 1) rotate(0) translate(4 254)">
<title>NAudio.Wave.SampleProviders.StereoFloatSampleChunkConverter</title>
<!-- Node1 -->
<g id="Node000001" class="node">
<title>Node1</title>
<g id="a_Node000001"><a xlink:title=" ">
<polygon fill="#999999" stroke="none" points="164,-135 0,-135 0,0 164,0 164,-135"/>
<text text-anchor="start" x="4.75" y="-121.5" font-family="Helvetica,sans-Serif" font-size="10.00">NAudio.Wave.SampleProviders.</text>
<text text-anchor="start" x="4.75" y="-110.25" font-family="Helvetica,sans-Serif" font-size="10.00">StereoFloatSampleChunkConverter</text>
<text text-anchor="start" x="22" y="-95.5" font-family="Helvetica,sans-Serif" font-size="10.00">&#45;</text>
<text text-anchor="start" x="47" y="-95.5" font-family="Helvetica,sans-Serif" font-size="10.00">sourceSample</text>
<text text-anchor="start" x="22" y="-80.5" font-family="Helvetica,sans-Serif" font-size="10.00">&#45;</text>
<text text-anchor="start" x="47" y="-80.5" font-family="Helvetica,sans-Serif" font-size="10.00">sourceBuffer</text>
<text text-anchor="start" x="22" y="-65.5" font-family="Helvetica,sans-Serif" font-size="10.00">&#45;</text>
<text text-anchor="start" x="47" y="-65.5" font-family="Helvetica,sans-Serif" font-size="10.00">sourceWaveBuffer</text>
<text text-anchor="start" x="22" y="-50.5" font-family="Helvetica,sans-Serif" font-size="10.00">&#45;</text>
<text text-anchor="start" x="47" y="-50.5" font-family="Helvetica,sans-Serif" font-size="10.00">sourceSamples</text>
<text text-anchor="start" x="20.5" y="-35.5" font-family="Helvetica,sans-Serif" font-size="10.00">+</text>
<text text-anchor="start" x="47" y="-35.5" font-family="Helvetica,sans-Serif" font-size="10.00">Supports()</text>
<text text-anchor="start" x="20.5" y="-20.5" font-family="Helvetica,sans-Serif" font-size="10.00">+</text>
<text text-anchor="start" x="47" y="-20.5" font-family="Helvetica,sans-Serif" font-size="10.00">LoadNextChunk()</text>
<text text-anchor="start" x="20.5" y="-5.5" font-family="Helvetica,sans-Serif" font-size="10.00">+</text>
<text text-anchor="start" x="47" y="-5.5" font-family="Helvetica,sans-Serif" font-size="10.00">GetNextSample()</text>
<polygon fill="#666666" stroke="#666666" points="0,-107 0,-107 164,-107 164,-107 0,-107"/>
<polygon fill="#666666" stroke="#666666" points="0,-47 0,-47 45,-47 45,-47 0,-47"/>
<polygon fill="#666666" stroke="#666666" points="45,-47 45,-47 164,-47 164,-47 45,-47"/>
<polygon fill="none" stroke="#666666" points="0,0 0,-135 164,-135 164,0 0,0"/>
</a>
</g>
</g>
<!-- Node2 -->
<g id="Node000002" class="node">
<title>Node2</title>
<g id="a_Node000002"><a xlink:href="interface_n_audio_1_1_wave_1_1_sample_providers_1_1_i_sample_chunk_converter.html" target="_top" xlink:title="Sample provider interface to make WaveChannel32 extensible Still a bit ugly, hence internal at the mo...">
<polygon fill="white" stroke="none" points="140.5,-250 23.5,-250 23.5,-171 140.5,-171 140.5,-250"/>
<text text-anchor="start" x="28.38" y="-236.5" font-family="Helvetica,sans-Serif" font-size="10.00">ISampleChunkConverter</text>
<text text-anchor="start" x="80.5" y="-221.5" font-family="Helvetica,sans-Serif" font-size="10.00"> </text>
<text text-anchor="start" x="33" y="-206.5" font-family="Helvetica,sans-Serif" font-size="10.00">+</text>
<text text-anchor="start" x="48.5" y="-206.5" font-family="Helvetica,sans-Serif" font-size="10.00">Supports()</text>
<text text-anchor="start" x="33" y="-191.5" font-family="Helvetica,sans-Serif" font-size="10.00">+</text>
<text text-anchor="start" x="48.5" y="-191.5" font-family="Helvetica,sans-Serif" font-size="10.00">LoadNextChunk()</text>
<text text-anchor="start" x="33" y="-176.5" font-family="Helvetica,sans-Serif" font-size="10.00">+</text>
<text text-anchor="start" x="48.5" y="-176.5" font-family="Helvetica,sans-Serif" font-size="10.00">GetNextSample()</text>
<polygon fill="#666666" stroke="#666666" points="23.5,-233 23.5,-233 140.5,-233 140.5,-233 23.5,-233"/>
<polygon fill="#666666" stroke="#666666" points="23.5,-218 23.5,-218 140.5,-218 140.5,-218 23.5,-218"/>
<polygon fill="none" stroke="#666666" points="23.5,-171 23.5,-250 140.5,-250 140.5,-171 23.5,-171"/>
</a>
</g>
</g>
<!-- Node2&#45;&gt;Node1 -->
<g id="edge1_Node000001_Node000002" class="edge">
<title>Node2&#45;&gt;Node1</title>
<g id="a_edge1_Node000001_Node000002"><a xlink:title=" ">
<path fill="none" stroke="#63b8ff" d="M82,-159.87C82,-151.8 82,-143.33 82,-134.94"/>
<polygon fill="none" stroke="#63b8ff" points="78.5,-159.83 82,-169.83 85.5,-159.83 78.5,-159.83"/>
</a>
</g>
</g>
</g>
</svg>
