<?xml version="1.0" encoding="UTF-8" standalone="no"?>
<!DOCTYPE svg PUBLIC "-//W3C//DTD SVG 1.1//EN"
 "http://www.w3.org/Graphics/SVG/1.1/DTD/svg11.dtd">
<!-- Generated by graphviz version 10.0.1 (20240210.2158)
 -->
<!-- Title: NAudio.Dmo.DmoInterop.MoFreeMediaType Pages: 1 -->
<svg width="591pt" height="333pt"
 viewBox="0.00 0.00 590.75 332.50" xmlns="http://www.w3.org/2000/svg" xmlns:xlink="http://www.w3.org/1999/xlink">
<g id="graph0" class="graph" transform="scale(1 1) rotate(0) translate(4 328.5)">
<title>NAudio.Dmo.DmoInterop.MoFreeMediaType</title>
<!-- Node1 -->
<g id="Node000001" class="node">
<title>Node1</title>
<g id="a_Node000001"><a xlink:title="Frees the memory associated with the specified Direct Media Object (DMO) media type.">
<polygon fill="#999999" stroke="#666666" points="582.75,-177.5 440,-177.5 440,-147 582.75,-147 582.75,-177.5"/>
<text text-anchor="start" x="448" y="-164" font-family="Helvetica,sans-Serif" font-size="10.00">NAudio.Dmo.DmoInterop.Mo</text>
<text text-anchor="middle" x="511.38" y="-152.75" font-family="Helvetica,sans-Serif" font-size="10.00">FreeMediaType</text>
</a>
</g>
</g>
<!-- Node2 -->
<g id="Node000002" class="node">
<title>Node2</title>
<g id="a_Node000002"><a xlink:href="class_n_audio_1_1_dmo_1_1_media_object.html#a0052d4f89e4070fdcd0fd76661b2d40e" target="_top" xlink:title="Retrieves the input type for a specified input stream and input type index.">
<polygon fill="white" stroke="#666666" points="392.38,-324.5 243.62,-324.5 243.62,-294 392.38,-294 392.38,-324.5"/>
<text text-anchor="start" x="251.62" y="-311" font-family="Helvetica,sans-Serif" font-size="10.00">NAudio.Dmo.MediaObject.Get</text>
<text text-anchor="middle" x="318" y="-299.75" font-family="Helvetica,sans-Serif" font-size="10.00">InputType</text>
</a>
</g>
</g>
<!-- Node1&#45;&gt;Node2 -->
<g id="edge1_Node000001_Node000002" class="edge">
<title>Node1&#45;&gt;Node2</title>
<g id="a_edge1_Node000001_Node000002"><a xlink:title=" ">
<path fill="none" stroke="#63b8ff" d="M494.92,-187.28C476.56,-214.97 443.41,-259 404,-284.25 398.43,-287.82 392.33,-290.89 386.05,-293.54"/>
<polygon fill="#63b8ff" stroke="#63b8ff" points="497.68,-189.45 500.18,-179.15 491.81,-185.65 497.68,-189.45"/>
</a>
</g>
</g>
<!-- Node4 -->
<g id="Node000004" class="node">
<title>Node4</title>
<g id="a_Node000004"><a xlink:href="class_n_audio_1_1_dmo_1_1_media_object.html#a5e56a057a857d271de1dc9876f256c67" target="_top" xlink:title="Retrieves the current output media type for the specified output stream index.">
<polygon fill="white" stroke="#666666" points="392.38,-275.5 243.62,-275.5 243.62,-245 392.38,-245 392.38,-275.5"/>
<text text-anchor="start" x="251.62" y="-262" font-family="Helvetica,sans-Serif" font-size="10.00">NAudio.Dmo.MediaObject.Get</text>
<text text-anchor="middle" x="318" y="-250.75" font-family="Helvetica,sans-Serif" font-size="10.00">OutputCurrentType</text>
</a>
</g>
</g>
<!-- Node1&#45;&gt;Node4 -->
<g id="edge3_Node000001_Node000004" class="edge">
<title>Node1&#45;&gt;Node4</title>
<g id="a_edge3_Node000001_Node000004"><a xlink:title=" ">
<path fill="none" stroke="#63b8ff" d="M482.68,-184.88C462.04,-200.82 432.59,-221.66 404,-235.25 396.64,-238.75 388.68,-241.87 380.69,-244.62"/>
<polygon fill="#63b8ff" stroke="#63b8ff" points="484.62,-187.81 490.32,-178.88 480.3,-182.31 484.62,-187.81"/>
</a>
</g>
</g>
<!-- Node5 -->
<g id="Node000005" class="node">
<title>Node5</title>
<g id="a_Node000005"><a xlink:href="class_n_audio_1_1_dmo_1_1_media_object.html#a9b82a46d9790b22c08cf6f575ef79952" target="_top" xlink:title="Retrieves the output type for a specified output stream and output type index.">
<polygon fill="white" stroke="#666666" points="392.38,-226.5 243.62,-226.5 243.62,-196 392.38,-196 392.38,-226.5"/>
<text text-anchor="start" x="251.62" y="-213" font-family="Helvetica,sans-Serif" font-size="10.00">NAudio.Dmo.MediaObject.Get</text>
<text text-anchor="middle" x="318" y="-201.75" font-family="Helvetica,sans-Serif" font-size="10.00">OutputType</text>
</a>
</g>
</g>
<!-- Node1&#45;&gt;Node5 -->
<g id="edge4_Node000001_Node000005" class="edge">
<title>Node1&#45;&gt;Node5</title>
<g id="a_edge4_Node000001_Node000005"><a xlink:title=" ">
<path fill="none" stroke="#63b8ff" d="M438.02,-180.78C419.01,-185.64 398.69,-190.85 380.32,-195.55"/>
<polygon fill="#63b8ff" stroke="#63b8ff" points="438.75,-184.2 447.57,-178.33 437.01,-177.42 438.75,-184.2"/>
</a>
</g>
</g>
<!-- Node7 -->
<g id="Node000007" class="node">
<title>Node7</title>
<g id="a_Node000007"><a xlink:href="class_n_audio_1_1_dmo_1_1_media_object.html#a69f1819c0ea9aec354950e91d10a2c39" target="_top" xlink:title="Sets the input wave format for the specified input stream.">
<polygon fill="white" stroke="#666666" points="392,-30.5 244,-30.5 244,0 392,0 392,-30.5"/>
<text text-anchor="start" x="252" y="-17" font-family="Helvetica,sans-Serif" font-size="10.00">NAudio.Dmo.MediaObject.Set</text>
<text text-anchor="middle" x="318" y="-5.75" font-family="Helvetica,sans-Serif" font-size="10.00">InputWaveFormat</text>
</a>
</g>
</g>
<!-- Node1&#45;&gt;Node7 -->
<g id="edge6_Node000001_Node000007" class="edge">
<title>Node1&#45;&gt;Node7</title>
<g id="a_edge6_Node000001_Node000007"><a xlink:title=" ">
<path fill="none" stroke="#63b8ff" d="M494.92,-137.22C476.56,-109.53 443.41,-65.5 404,-40.25 398.43,-36.68 392.33,-33.61 386.05,-30.96"/>
<polygon fill="#63b8ff" stroke="#63b8ff" points="491.81,-138.85 500.18,-145.35 497.68,-135.05 491.81,-138.85"/>
</a>
</g>
</g>
<!-- Node10 -->
<g id="Node000010" class="node">
<title>Node10</title>
<g id="a_Node000010"><a xlink:href="class_n_audio_1_1_dmo_1_1_media_object.html#aeedd463b32c463e9f0a25d901d0ec615" target="_top" xlink:title="Sets the output wave format for the specified output stream.">
<polygon fill="white" stroke="#666666" points="392,-177.5 244,-177.5 244,-147 392,-147 392,-177.5"/>
<text text-anchor="start" x="252" y="-164" font-family="Helvetica,sans-Serif" font-size="10.00">NAudio.Dmo.MediaObject.Set</text>
<text text-anchor="middle" x="318" y="-152.75" font-family="Helvetica,sans-Serif" font-size="10.00">OutputWaveFormat</text>
</a>
</g>
</g>
<!-- Node1&#45;&gt;Node10 -->
<g id="edge9_Node000001_Node000010" class="edge">
<title>Node1&#45;&gt;Node10</title>
<g id="a_edge9_Node000001_Node000010"><a xlink:title=" ">
<path fill="none" stroke="#63b8ff" d="M428.3,-162.25C416.34,-162.25 404.08,-162.25 392.31,-162.25"/>
<polygon fill="#63b8ff" stroke="#63b8ff" points="428.14,-165.75 438.14,-162.25 428.14,-158.75 428.14,-165.75"/>
</a>
</g>
</g>
<!-- Node11 -->
<g id="Node000011" class="node">
<title>Node11</title>
<g id="a_Node000011"><a xlink:href="class_n_audio_1_1_dmo_1_1_media_object.html#a2d155802fe47a0bb1be75f99a2ed8027" target="_top" xlink:title="Checks if the specified input stream supports the given wave format.">
<polygon fill="white" stroke="#666666" points="404,-128.5 232,-128.5 232,-98 404,-98 404,-128.5"/>
<text text-anchor="start" x="240" y="-115" font-family="Helvetica,sans-Serif" font-size="10.00">NAudio.Dmo.MediaObject.Supports</text>
<text text-anchor="middle" x="318" y="-103.75" font-family="Helvetica,sans-Serif" font-size="10.00">InputWaveFormat</text>
</a>
</g>
</g>
<!-- Node1&#45;&gt;Node11 -->
<g id="edge12_Node000001_Node000011" class="edge">
<title>Node1&#45;&gt;Node11</title>
<g id="a_edge12_Node000001_Node000011"><a xlink:title=" ">
<path fill="none" stroke="#63b8ff" d="M438.02,-143.72C419.01,-138.86 398.69,-133.65 380.32,-128.95"/>
<polygon fill="#63b8ff" stroke="#63b8ff" points="437.01,-147.08 447.57,-146.17 438.75,-140.3 437.01,-147.08"/>
</a>
</g>
</g>
<!-- Node12 -->
<g id="Node000012" class="node">
<title>Node12</title>
<g id="a_Node000012"><a xlink:href="class_n_audio_1_1_dmo_1_1_media_object.html#a979aa06634413b6949e1d7a61ff7f356" target="_top" xlink:title="Checks if the specified output stream supports the given wave format.">
<polygon fill="white" stroke="#666666" points="404,-79.5 232,-79.5 232,-49 404,-49 404,-79.5"/>
<text text-anchor="start" x="240" y="-66" font-family="Helvetica,sans-Serif" font-size="10.00">NAudio.Dmo.MediaObject.Supports</text>
<text text-anchor="middle" x="318" y="-54.75" font-family="Helvetica,sans-Serif" font-size="10.00">OutputWaveFormat</text>
</a>
</g>
</g>
<!-- Node1&#45;&gt;Node12 -->
<g id="edge15_Node000001_Node000012" class="edge">
<title>Node1&#45;&gt;Node12</title>
<g id="a_edge15_Node000001_Node000012"><a xlink:title=" ">
<path fill="none" stroke="#63b8ff" d="M482.68,-139.62C462.04,-123.68 432.59,-102.84 404,-89.25 396.64,-85.75 388.68,-82.63 380.69,-79.88"/>
<polygon fill="#63b8ff" stroke="#63b8ff" points="480.3,-142.19 490.32,-145.62 484.62,-136.69 480.3,-142.19"/>
</a>
</g>
</g>
<!-- Node3 -->
<g id="Node000003" class="node">
<title>Node3</title>
<g id="a_Node000003"><a xlink:href="class_n_audio_1_1_dmo_1_1_media_object.html#a8d5af2afea48386df25d3da209fb8be3" target="_top" xlink:title="Retrieves the input types for the specified input stream index.">
<polygon fill="white" stroke="#666666" points="172.38,-324.5 23.62,-324.5 23.62,-294 172.38,-294 172.38,-324.5"/>
<text text-anchor="start" x="31.62" y="-311" font-family="Helvetica,sans-Serif" font-size="10.00">NAudio.Dmo.MediaObject.Get</text>
<text text-anchor="middle" x="98" y="-299.75" font-family="Helvetica,sans-Serif" font-size="10.00">InputTypes</text>
</a>
</g>
</g>
<!-- Node2&#45;&gt;Node3 -->
<g id="edge2_Node000002_Node000003" class="edge">
<title>Node2&#45;&gt;Node3</title>
<g id="a_edge2_Node000002_Node000003"><a xlink:title=" ">
<path fill="none" stroke="#63b8ff" d="M231.84,-309.25C212.32,-309.25 191.72,-309.25 172.73,-309.25"/>
<polygon fill="#63b8ff" stroke="#63b8ff" points="231.68,-312.75 241.68,-309.25 231.68,-305.75 231.68,-312.75"/>
</a>
</g>
</g>
<!-- Node6 -->
<g id="Node000006" class="node">
<title>Node6</title>
<g id="a_Node000006"><a xlink:href="class_n_audio_1_1_dmo_1_1_media_object.html#a6332cad86abfe1672632903640d036fd" target="_top" xlink:title="Retrieves the output types for the specified output stream index.">
<polygon fill="white" stroke="#666666" points="172.38,-226.5 23.62,-226.5 23.62,-196 172.38,-196 172.38,-226.5"/>
<text text-anchor="start" x="31.62" y="-213" font-family="Helvetica,sans-Serif" font-size="10.00">NAudio.Dmo.MediaObject.Get</text>
<text text-anchor="middle" x="98" y="-201.75" font-family="Helvetica,sans-Serif" font-size="10.00">OutputTypes</text>
</a>
</g>
</g>
<!-- Node5&#45;&gt;Node6 -->
<g id="edge5_Node000005_Node000006" class="edge">
<title>Node5&#45;&gt;Node6</title>
<g id="a_edge5_Node000005_Node000006"><a xlink:title=" ">
<path fill="none" stroke="#63b8ff" d="M231.84,-211.25C212.32,-211.25 191.72,-211.25 172.73,-211.25"/>
<polygon fill="#63b8ff" stroke="#63b8ff" points="231.68,-214.75 241.68,-211.25 231.68,-207.75 231.68,-214.75"/>
</a>
</g>
</g>
<!-- Node8 -->
<g id="Node000008" class="node">
<title>Node8</title>
<g id="a_Node000008"><a xlink:href="class_n_audio_1_1_file_formats_1_1_mp3_1_1_dmo_mp3_frame_decompressor.html#a8d70da9499d742480e80d300af3dbcf2" target="_top" xlink:title="Initializes a new instance of the DMO MP3 Frame decompressor.">
<polygon fill="white" stroke="#666666" points="196,-136.12 0,-136.12 0,-94.38 196,-94.38 196,-136.12"/>
<text text-anchor="start" x="8" y="-122.62" font-family="Helvetica,sans-Serif" font-size="10.00">NAudio.FileFormats.Mp3.Dmo</text>
<text text-anchor="start" x="8" y="-111.38" font-family="Helvetica,sans-Serif" font-size="10.00">Mp3FrameDecompressor.DmoMp3Frame</text>
<text text-anchor="middle" x="98" y="-100.12" font-family="Helvetica,sans-Serif" font-size="10.00">Decompressor</text>
</a>
</g>
</g>
<!-- Node7&#45;&gt;Node8 -->
<g id="edge7_Node000007_Node000008" class="edge">
<title>Node7&#45;&gt;Node8</title>
<g id="a_edge7_Node000007_Node000008"><a xlink:title=" ">
<path fill="none" stroke="#63b8ff" d="M239.05,-35.96C236.62,-37.3 234.26,-38.73 232,-40.25 210.73,-54.52 217.17,-70.83 196,-85.25 191.19,-88.52 186.01,-91.45 180.64,-94.07"/>
<polygon fill="#63b8ff" stroke="#63b8ff" points="240.56,-39.12 248,-31.57 237.48,-32.83 240.56,-39.12"/>
</a>
</g>
</g>
<!-- Node9 -->
<g id="Node000009" class="node">
<title>Node9</title>
<g id="a_Node000009"><a xlink:href="class_n_audio_1_1_wave_1_1_resampler_dmo_stream.html#a79fd72de1823c37903441f8625dca05b" target="_top" xlink:title="WaveStream to resample using the DMO Resampler.">
<polygon fill="white" stroke="#666666" points="173.12,-76.5 22.88,-76.5 22.88,-46 173.12,-46 173.12,-76.5"/>
<text text-anchor="start" x="30.88" y="-63" font-family="Helvetica,sans-Serif" font-size="10.00">NAudio.Wave.ResamplerDmo</text>
<text text-anchor="middle" x="98" y="-51.75" font-family="Helvetica,sans-Serif" font-size="10.00">Stream.ResamplerDmoStream</text>
</a>
</g>
</g>
<!-- Node7&#45;&gt;Node9 -->
<g id="edge8_Node000007_Node000009" class="edge">
<title>Node7&#45;&gt;Node9</title>
<g id="a_edge8_Node000007_Node000009"><a xlink:title=" ">
<path fill="none" stroke="#63b8ff" d="M232.77,-33.02C213.23,-37.15 192.57,-41.5 173.49,-45.53"/>
<polygon fill="#63b8ff" stroke="#63b8ff" points="233.26,-36.5 242.32,-31.01 231.81,-29.65 233.26,-36.5"/>
</a>
</g>
</g>
<!-- Node10&#45;&gt;Node8 -->
<g id="edge10_Node000010_Node000008" class="edge">
<title>Node10&#45;&gt;Node8</title>
<g id="a_edge10_Node000010_Node000008"><a xlink:title=" ">
<path fill="none" stroke="#63b8ff" d="M233.16,-144.17C221.08,-141.57 208.56,-138.87 196.25,-136.22"/>
<polygon fill="#63b8ff" stroke="#63b8ff" points="232.11,-147.53 242.63,-146.22 233.59,-140.69 232.11,-147.53"/>
</a>
</g>
</g>
<!-- Node10&#45;&gt;Node9 -->
<g id="edge11_Node000010_Node000009" class="edge">
<title>Node10&#45;&gt;Node9</title>
<g id="a_edge11_Node000010_Node000009"><a xlink:title=" ">
<path fill="none" stroke="#63b8ff" d="M238.06,-141.24C235.98,-139.99 233.95,-138.66 232,-137.25 209.22,-120.79 219.14,-101.21 196,-85.25 189.15,-80.52 181.45,-76.72 173.47,-73.67"/>
<polygon fill="#63b8ff" stroke="#63b8ff" points="236.41,-144.32 246.89,-145.88 239.67,-138.13 236.41,-144.32"/>
</a>
</g>
</g>
<!-- Node11&#45;&gt;Node8 -->
<g id="edge13_Node000011_Node000008" class="edge">
<title>Node11&#45;&gt;Node8</title>
<g id="a_edge13_Node000011_Node000008"><a xlink:title=" ">
<path fill="none" stroke="#63b8ff" d="M220.27,-114.14C212.37,-114.21 204.37,-114.28 196.46,-114.36"/>
<polygon fill="#63b8ff" stroke="#63b8ff" points="220.3,-117.64 230.27,-114.05 220.23,-110.64 220.3,-117.64"/>
</a>
</g>
</g>
<!-- Node11&#45;&gt;Node9 -->
<g id="edge14_Node000011_Node000009" class="edge">
<title>Node11&#45;&gt;Node9</title>
<g id="a_edge14_Node000011_Node000009"><a xlink:title=" ">
<path fill="none" stroke="#63b8ff" d="M239.91,-94.86C215.36,-89.01 188.45,-82.59 164.77,-76.94"/>
<polygon fill="#63b8ff" stroke="#63b8ff" points="238.99,-98.24 249.53,-97.16 240.61,-91.43 238.99,-98.24"/>
</a>
</g>
</g>
<!-- Node12&#45;&gt;Node8 -->
<g id="edge16_Node000012_Node000008" class="edge">
<title>Node12&#45;&gt;Node8</title>
<g id="a_edge16_Node000012_Node000008"><a xlink:title=" ">
<path fill="none" stroke="#63b8ff" d="M239,-82.5C223.13,-86.21 206.3,-90.15 190.02,-93.96"/>
<polygon fill="#63b8ff" stroke="#63b8ff" points="239.4,-86 248.34,-80.31 237.81,-79.18 239.4,-86"/>
</a>
</g>
</g>
<!-- Node12&#45;&gt;Node9 -->
<g id="edge17_Node000012_Node000009" class="edge">
<title>Node12&#45;&gt;Node9</title>
<g id="a_edge17_Node000012_Node000009"><a xlink:title=" ">
<path fill="none" stroke="#63b8ff" d="M220.41,-62.92C204.69,-62.7 188.63,-62.48 173.54,-62.28"/>
<polygon fill="#63b8ff" stroke="#63b8ff" points="220.22,-66.42 230.27,-63.06 220.31,-59.42 220.22,-66.42"/>
</a>
</g>
</g>
</g>
</svg>
