<?xml version="1.0" encoding="UTF-8" standalone="no"?>
<!DOCTYPE svg PUBLIC "-//W3C//DTD SVG 1.1//EN"
 "http://www.w3.org/Graphics/SVG/1.1/DTD/svg11.dtd">
<!-- Generated by graphviz version 10.0.1 (20240210.2158)
 -->
<!-- Title: NAudio.Wave.WaveInterop.waveOutPause Pages: 1 -->
<svg width="354pt" height="76pt"
 viewBox="0.00 0.00 354.25 75.88" xmlns="http://www.w3.org/2000/svg" xmlns:xlink="http://www.w3.org/1999/xlink">
<g id="graph0" class="graph" transform="scale(1 1) rotate(0) translate(4 71.88)">
<title>NAudio.Wave.WaveInterop.waveOutPause</title>
<!-- Node1 -->
<g id="Node000001" class="node">
<title>Node1</title>
<g id="a_Node000001"><a xlink:title="Pauses playback on the specified waveform&#45;audio output device.">
<polygon fill="#999999" stroke="#666666" points="346.25,-51.5 186.25,-51.5 186.25,-21 346.25,-21 346.25,-51.5"/>
<text text-anchor="start" x="194.25" y="-38" font-family="Helvetica,sans-Serif" font-size="10.00">NAudio.Wave.WaveInterop.wave</text>
<text text-anchor="middle" x="266.25" y="-26.75" font-family="Helvetica,sans-Serif" font-size="10.00">OutPause</text>
</a>
</g>
</g>
<!-- Node2 -->
<g id="Node000002" class="node">
<title>Node2</title>
<g id="a_Node000002"><a xlink:href="class_n_audio_1_1_wave_1_1_wave_out.html#adb887d620e1bccdfd3bab5124dc0a446" target="_top" xlink:title="Pauses the playback if the current state is playing.">
<polygon fill="white" stroke="#666666" points="150.25,-67.88 0,-67.88 0,-48.62 150.25,-48.62 150.25,-67.88"/>
<text text-anchor="middle" x="75.12" y="-54.38" font-family="Helvetica,sans-Serif" font-size="10.00">NAudio.Wave.WaveOut.Pause</text>
</a>
</g>
</g>
<!-- Node1&#45;&gt;Node2 -->
<g id="edge1_Node000001_Node000002" class="edge">
<title>Node1&#45;&gt;Node2</title>
<g id="a_edge1_Node000001_Node000002"><a xlink:title=" ">
<path fill="none" stroke="#63b8ff" d="M174.52,-46.8C166.47,-47.74 158.37,-48.68 150.48,-49.6"/>
<polygon fill="#63b8ff" stroke="#63b8ff" points="174.83,-50.29 184.36,-45.66 174.03,-43.34 174.83,-50.29"/>
</a>
</g>
</g>
<!-- Node3 -->
<g id="Node000003" class="node">
<title>Node3</title>
<g id="a_Node000003"><a xlink:href="class_n_audio_1_1_wave_1_1_wave_out_event.html#a0061881beb9c2adce280eaa5ae66501b" target="_top" xlink:title="Pauses the audio playback if the current state is playing.">
<polygon fill="white" stroke="#666666" points="149.12,-30.5 1.12,-30.5 1.12,0 149.12,0 149.12,-30.5"/>
<text text-anchor="start" x="9.12" y="-17" font-family="Helvetica,sans-Serif" font-size="10.00">NAudio.Wave.WaveOutEvent.</text>
<text text-anchor="middle" x="75.12" y="-5.75" font-family="Helvetica,sans-Serif" font-size="10.00">Pause</text>
</a>
</g>
</g>
<!-- Node1&#45;&gt;Node3 -->
<g id="edge2_Node000001_Node000003" class="edge">
<title>Node1&#45;&gt;Node3</title>
<g id="a_edge2_Node000001_Node000003"><a xlink:title=" ">
<path fill="none" stroke="#63b8ff" d="M174.51,-26.17C166.15,-25.25 157.75,-24.31 149.58,-23.41"/>
<polygon fill="#63b8ff" stroke="#63b8ff" points="174.04,-29.64 184.36,-27.27 174.81,-22.69 174.04,-29.64"/>
</a>
</g>
</g>
</g>
</svg>
