<?xml version="1.0" encoding="UTF-8" standalone="no"?>
<!DOCTYPE svg PUBLIC "-//W3C//DTD SVG 1.1//EN"
 "http://www.w3.org/Graphics/SVG/1.1/DTD/svg11.dtd">
<!-- Generated by graphviz version 10.0.1 (20240210.2158)
 -->
<!-- Title: xeno_rat_server.Forms.ProcessManager.RecvThread Pages: 1 -->
<svg width="942pt" height="348pt"
 viewBox="0.00 0.00 941.50 347.88" xmlns="http://www.w3.org/2000/svg" xmlns:xlink="http://www.w3.org/1999/xlink">
<g id="graph0" class="graph" transform="scale(1 1) rotate(0) translate(4 343.88)">
<title>xeno_rat_server.Forms.ProcessManager.RecvThread</title>
<!-- Node1 -->
<g id="Node000001" class="node">
<title>Node1</title>
<g id="a_Node000001"><a xlink:title="Asynchronously receives data from the client and processes it.">
<polygon fill="#999999" stroke="#666666" points="154.75,-277.5 0,-277.5 0,-247 154.75,-247 154.75,-277.5"/>
<text text-anchor="start" x="8" y="-264" font-family="Helvetica,sans-Serif" font-size="10.00">xeno_rat_server.Forms.Process</text>
<text text-anchor="middle" x="77.38" y="-252.75" font-family="Helvetica,sans-Serif" font-size="10.00">Manager.RecvThread</text>
</a>
</g>
</g>
<!-- Node2 -->
<g id="Node000002" class="node">
<title>Node2</title>
<g id="a_Node000002"><a xlink:href="classxeno__rat__server_1_1_node.html#a18e3b7528d2c6e45bb38ce24e319484e" target="_top" xlink:title="Checks if the socket is connected and returns a boolean value indicating the connection status.">
<polygon fill="white" stroke="#666666" points="352.25,-339.88 190.75,-339.88 190.75,-320.62 352.25,-320.62 352.25,-339.88"/>
<text text-anchor="middle" x="271.5" y="-326.38" font-family="Helvetica,sans-Serif" font-size="10.00">xeno_rat_server.Node.Connected</text>
</a>
</g>
</g>
<!-- Node1&#45;&gt;Node2 -->
<g id="edge1_Node000001_Node000002" class="edge">
<title>Node1&#45;&gt;Node2</title>
<g id="a_edge1_Node000001_Node000002"><a xlink:title=" ">
<path fill="none" stroke="#63b8ff" d="M110.24,-277.95C132.41,-288.43 162.89,-301.94 190.75,-311.25 197.31,-313.44 204.24,-315.48 211.18,-317.36"/>
<polygon fill="#63b8ff" stroke="#63b8ff" points="210.01,-320.67 220.57,-319.78 211.76,-313.89 210.01,-320.67"/>
</a>
</g>
</g>
<!-- Node3 -->
<g id="Node000003" class="node">
<title>Node3</title>
<g id="a_Node000003"><a xlink:href="classxeno__rat__server_1_1_forms_1_1_process_manager.html#a00a913e171fdbb8502e121f8567fd2fa" target="_top" xlink:title="Deserializes the byte array into a list of ProcessNode objects.">
<polygon fill="white" stroke="#666666" points="349.62,-302.5 193.38,-302.5 193.38,-272 349.62,-272 349.62,-302.5"/>
<text text-anchor="start" x="201.38" y="-289" font-family="Helvetica,sans-Serif" font-size="10.00">xeno_rat_server.Forms.Process</text>
<text text-anchor="middle" x="271.5" y="-277.75" font-family="Helvetica,sans-Serif" font-size="10.00">Manager.DeserializeProcessList</text>
</a>
</g>
</g>
<!-- Node1&#45;&gt;Node3 -->
<g id="edge2_Node000001_Node000003" class="edge">
<title>Node1&#45;&gt;Node3</title>
<g id="a_edge2_Node000001_Node000003"><a xlink:title=" ">
<path fill="none" stroke="#63b8ff" d="M155.14,-272.24C163.88,-273.38 172.85,-274.54 181.73,-275.7"/>
<polygon fill="#63b8ff" stroke="#63b8ff" points="181.05,-279.14 191.42,-276.96 181.95,-272.2 181.05,-279.14"/>
</a>
</g>
</g>
<!-- Node5 -->
<g id="Node000005" class="node">
<title>Node5</title>
<g id="a_Node000005"><a xlink:href="classxeno__rat__server_1_1_forms_1_1_process_manager.html#ac3a673176bac824283611e0dada335ef" target="_top" xlink:title="Displays the process tree in a tree view control.">
<polygon fill="white" stroke="#666666" points="348.88,-253.5 194.12,-253.5 194.12,-223 348.88,-223 348.88,-253.5"/>
<text text-anchor="start" x="202.12" y="-240" font-family="Helvetica,sans-Serif" font-size="10.00">xeno_rat_server.Forms.Process</text>
<text text-anchor="middle" x="271.5" y="-228.75" font-family="Helvetica,sans-Serif" font-size="10.00">Manager.DisplayProcessTree</text>
</a>
</g>
</g>
<!-- Node1&#45;&gt;Node5 -->
<g id="edge5_Node000001_Node000005" class="edge">
<title>Node1&#45;&gt;Node5</title>
<g id="a_edge5_Node000001_Node000005"><a xlink:title=" ">
<path fill="none" stroke="#63b8ff" d="M155.14,-252.66C164.2,-251.53 173.51,-250.37 182.71,-249.22"/>
<polygon fill="#63b8ff" stroke="#63b8ff" points="182.87,-252.72 192.36,-248.01 182,-245.78 182.87,-252.72"/>
</a>
</g>
</g>
<!-- Node7 -->
<g id="Node000007" class="node">
<title>Node7</title>
<g id="a_Node000007"><a xlink:href="classxeno__rat__server_1_1_node.html#a3dcb832502d4cd1dd580897265b2da7b" target="_top" xlink:title="Asynchronously receives data from the socket and returns the received data as a byte array.">
<polygon fill="white" stroke="#666666" points="346.62,-192.5 196.38,-192.5 196.38,-162 346.62,-162 346.62,-192.5"/>
<text text-anchor="start" x="204.38" y="-179" font-family="Helvetica,sans-Serif" font-size="10.00">xeno_rat_server.Node.Receive</text>
<text text-anchor="middle" x="271.5" y="-167.75" font-family="Helvetica,sans-Serif" font-size="10.00">Async</text>
</a>
</g>
</g>
<!-- Node1&#45;&gt;Node7 -->
<g id="edge8_Node000001_Node000007" class="edge">
<title>Node1&#45;&gt;Node7</title>
<g id="a_edge8_Node000001_Node000007"><a xlink:title=" ">
<path fill="none" stroke="#63b8ff" d="M113.61,-246.66C144.93,-232.8 190.9,-212.47 224.99,-197.38"/>
<polygon fill="#63b8ff" stroke="#63b8ff" points="226.05,-200.74 233.78,-193.5 223.21,-194.34 226.05,-200.74"/>
</a>
</g>
</g>
<!-- Node4 -->
<g id="Node000004" class="node">
<title>Node4</title>
<g id="a_Node000004"><a xlink:href="classxeno__rat__server_1_1_forms_1_1_process_manager.html#ab367519cf68b5d8814c80910d6322a2e" target="_top" xlink:title="Deserializes a ProcessNode from the provided BinaryReader and returns the deserialized ProcessNode.">
<polygon fill="white" stroke="#666666" points="552,-320.5 388.25,-320.5 388.25,-290 552,-290 552,-320.5"/>
<text text-anchor="start" x="396.25" y="-307" font-family="Helvetica,sans-Serif" font-size="10.00">xeno_rat_server.Forms.Process</text>
<text text-anchor="middle" x="470.12" y="-295.75" font-family="Helvetica,sans-Serif" font-size="10.00">Manager.DeserializeProcessNode</text>
</a>
</g>
</g>
<!-- Node3&#45;&gt;Node4 -->
<g id="edge3_Node000003_Node000004" class="edge">
<title>Node3&#45;&gt;Node4</title>
<g id="a_edge3_Node000003_Node000004"><a xlink:title=" ">
<path fill="none" stroke="#63b8ff" d="M349.93,-294.34C358.69,-295.14 367.69,-295.96 376.63,-296.78"/>
<polygon fill="#63b8ff" stroke="#63b8ff" points="376.1,-300.25 386.38,-297.67 376.74,-293.28 376.1,-300.25"/>
</a>
</g>
</g>
<!-- Node4&#45;&gt;Node4 -->
<g id="edge4_Node000004_Node000004" class="edge">
<title>Node4&#45;&gt;Node4</title>
<g id="a_edge4_Node000004_Node000004"><a xlink:title=" ">
<path fill="none" stroke="#63b8ff" d="M435.53,-320.99C428.47,-330.06 440,-338.5 470.12,-338.5 486.6,-338.5 497.51,-335.97 502.87,-332.2"/>
<polygon fill="#63b8ff" stroke="#63b8ff" points="506.3,-332.92 504.48,-322.48 499.39,-331.77 506.3,-332.92"/>
</a>
</g>
</g>
<!-- Node6 -->
<g id="Node000006" class="node">
<title>Node6</title>
<g id="a_Node000006"><a xlink:href="classxeno__rat__server_1_1_forms_1_1_process_manager.html#a3989448770abfd8e7e46f321d9cf331c" target="_top" xlink:title="Populates the tree view with the process node and its children.">
<polygon fill="white" stroke="#666666" points="547.5,-253.5 392.75,-253.5 392.75,-223 547.5,-223 547.5,-253.5"/>
<text text-anchor="start" x="400.75" y="-240" font-family="Helvetica,sans-Serif" font-size="10.00">xeno_rat_server.Forms.Process</text>
<text text-anchor="middle" x="470.12" y="-228.75" font-family="Helvetica,sans-Serif" font-size="10.00">Manager.PopulateTreeView</text>
</a>
</g>
</g>
<!-- Node5&#45;&gt;Node6 -->
<g id="edge6_Node000005_Node000006" class="edge">
<title>Node5&#45;&gt;Node6</title>
<g id="a_edge6_Node000005_Node000006"><a xlink:title=" ">
<path fill="none" stroke="#63b8ff" d="M349.37,-238.25C359.73,-238.25 370.42,-238.25 380.96,-238.25"/>
<polygon fill="#63b8ff" stroke="#63b8ff" points="380.8,-241.75 390.8,-238.25 380.8,-234.75 380.8,-241.75"/>
</a>
</g>
</g>
<!-- Node6&#45;&gt;Node6 -->
<g id="edge7_Node000006_Node000006" class="edge">
<title>Node6&#45;&gt;Node6</title>
<g id="a_edge7_Node000006_Node000006"><a xlink:title=" ">
<path fill="none" stroke="#63b8ff" d="M435.53,-253.99C428.47,-263.06 440,-271.5 470.12,-271.5 486.6,-271.5 497.51,-268.97 502.87,-265.2"/>
<polygon fill="#63b8ff" stroke="#63b8ff" points="506.3,-265.92 504.48,-255.48 499.39,-264.77 506.3,-265.92"/>
</a>
</g>
</g>
<!-- Node8 -->
<g id="Node000008" class="node">
<title>Node8</title>
<g id="a_Node000008"><a xlink:href="classxeno__rat__server_1_1_node.html#a8814edd98b6463f49812be32d5928763" target="_top" xlink:title="Sets the isDisposed flag to true and disconnects the socket, disposes resources, and triggers the OnD...">
<polygon fill="white" stroke="#666666" points="552,-186.88 388.25,-186.88 388.25,-167.62 552,-167.62 552,-186.88"/>
<text text-anchor="middle" x="470.12" y="-173.38" font-family="Helvetica,sans-Serif" font-size="10.00">xeno_rat_server.Node.Disconnect</text>
</a>
</g>
</g>
<!-- Node7&#45;&gt;Node8 -->
<g id="edge9_Node000007_Node000008" class="edge">
<title>Node7&#45;&gt;Node8</title>
<g id="a_edge9_Node000007_Node000008"><a xlink:title=" ">
<path fill="none" stroke="#63b8ff" d="M347.12,-177.25C356.72,-177.25 366.65,-177.25 376.49,-177.25"/>
<polygon fill="#63b8ff" stroke="#63b8ff" points="376.48,-180.75 386.48,-177.25 376.48,-173.75 376.48,-180.75"/>
</a>
</g>
</g>
<!-- Node9 -->
<g id="Node000009" class="node">
<title>Node9</title>
<g id="a_Node000009"><a xlink:href="classxeno__rat__server_1_1_socket_handler.html#a40a6f3b7eb555e8d688ea5c0074ffa2c" target="_top" xlink:title="Asynchronously receives data and processes it according to the protocol, then returns the processed d...">
<polygon fill="white" stroke="#666666" points="547.5,-149.5 392.75,-149.5 392.75,-119 547.5,-119 547.5,-149.5"/>
<text text-anchor="start" x="400.75" y="-136" font-family="Helvetica,sans-Serif" font-size="10.00">xeno_rat_server.SocketHandler.</text>
<text text-anchor="middle" x="470.12" y="-124.75" font-family="Helvetica,sans-Serif" font-size="10.00">ReceiveAsync</text>
</a>
</g>
</g>
<!-- Node7&#45;&gt;Node9 -->
<g id="edge11_Node000007_Node000009" class="edge">
<title>Node7&#45;&gt;Node9</title>
<g id="a_edge11_Node000007_Node000009"><a xlink:title=" ">
<path fill="none" stroke="#63b8ff" d="M344.32,-161.54C357.91,-158.57 372.23,-155.44 386.13,-152.4"/>
<polygon fill="#63b8ff" stroke="#63b8ff" points="386.67,-155.86 395.69,-150.31 385.17,-149.03 386.67,-155.86"/>
</a>
</g>
</g>
<!-- Node8&#45;&gt;Node8 -->
<g id="edge10_Node000008_Node000008" class="edge">
<title>Node8&#45;&gt;Node8</title>
<g id="a_edge10_Node000008_Node000008"><a xlink:title=" ">
<path fill="none" stroke="#63b8ff" d="M439.56,-187.16C425.61,-195.77 435.8,-204.88 470.12,-204.88 489.97,-204.88 501.74,-201.83 505.45,-197.6"/>
<polygon fill="#63b8ff" stroke="#63b8ff" points="508.66,-196.19 501.32,-188.54 502.29,-199.09 508.66,-196.19"/>
</a>
</g>
</g>
<!-- Node10 -->
<g id="Node000010" class="node">
<title>Node10</title>
<g id="a_Node000010"><a xlink:href="classxeno__rat__server_1_1_socket_handler.html#a53169a2098514698865b69c8fab12f77" target="_top" xlink:title="Truncates the input byte array starting from the specified offset and returns the truncated byte arra...">
<polygon fill="white" stroke="#666666" points="742.75,-263.5 588,-263.5 588,-233 742.75,-233 742.75,-263.5"/>
<text text-anchor="start" x="596" y="-250" font-family="Helvetica,sans-Serif" font-size="10.00">xeno_rat_server.SocketHandler.</text>
<text text-anchor="middle" x="665.38" y="-238.75" font-family="Helvetica,sans-Serif" font-size="10.00">BTruncate</text>
</a>
</g>
</g>
<!-- Node9&#45;&gt;Node10 -->
<g id="edge12_Node000009_Node000010" class="edge">
<title>Node9&#45;&gt;Node10</title>
<g id="a_edge12_Node000009_Node000010"><a xlink:title=" ">
<path fill="none" stroke="#63b8ff" d="M538.94,-149.85C543.59,-152.26 548,-155.04 552,-158.25 577.75,-178.93 562.54,-202.21 588,-223.25 589.52,-224.5 591.1,-225.69 592.73,-226.82"/>
<polygon fill="#63b8ff" stroke="#63b8ff" points="590.89,-229.81 601.28,-231.91 594.47,-223.79 590.89,-229.81"/>
</a>
</g>
</g>
<!-- Node11 -->
<g id="Node000011" class="node">
<title>Node11</title>
<g id="a_Node000011"><a xlink:href="classxeno__rat__server_1_1_socket_handler.html#a68836e871124cbda8a644223a73421d0" target="_top" xlink:title="Converts the specified byte array to an integer value.">
<polygon fill="white" stroke="#666666" points="933.5,-122.5 778.75,-122.5 778.75,-92 933.5,-92 933.5,-122.5"/>
<text text-anchor="start" x="786.75" y="-109" font-family="Helvetica,sans-Serif" font-size="10.00">xeno_rat_server.SocketHandler.</text>
<text text-anchor="middle" x="856.12" y="-97.75" font-family="Helvetica,sans-Serif" font-size="10.00">BytesToInt</text>
</a>
</g>
</g>
<!-- Node9&#45;&gt;Node11 -->
<g id="edge13_Node000009_Node000011" class="edge">
<title>Node9&#45;&gt;Node11</title>
<g id="a_edge13_Node000009_Node000011"><a xlink:title=" ">
<path fill="none" stroke="#63b8ff" d="M547.86,-140.85C602.46,-144.14 677.4,-145.82 742.75,-137.25 760.41,-134.93 779.23,-130.65 796.33,-126.04"/>
<polygon fill="#63b8ff" stroke="#63b8ff" points="797.14,-129.45 805.82,-123.38 795.25,-122.7 797.14,-129.45"/>
</a>
</g>
</g>
<!-- Node12 -->
<g id="Node000012" class="node">
<title>Node12</title>
<g id="a_Node000012"><a xlink:href="classxeno__rat__server_1_1_compression.html#ad992bb75126d7c346fe7884dbbcf8ad8" target="_top" xlink:title="Decompresses the input buffer using the LZNT1 compression format and returns the decompressed data.">
<polygon fill="white" stroke="#666666" points="739.75,-214.5 591,-214.5 591,-184 739.75,-184 739.75,-214.5"/>
<text text-anchor="start" x="599" y="-201" font-family="Helvetica,sans-Serif" font-size="10.00">xeno_rat_server.Compression.</text>
<text text-anchor="middle" x="665.38" y="-189.75" font-family="Helvetica,sans-Serif" font-size="10.00">Decompress</text>
</a>
</g>
</g>
<!-- Node9&#45;&gt;Node12 -->
<g id="edge14_Node000009_Node000012" class="edge">
<title>Node9&#45;&gt;Node12</title>
<g id="a_edge14_Node000009_Node000012"><a xlink:title=" ">
<path fill="none" stroke="#63b8ff" d="M525.65,-149.93C534.48,-152.62 543.52,-155.45 552,-158.25 571.96,-164.84 593.7,-172.63 612.69,-179.64"/>
<polygon fill="#63b8ff" stroke="#63b8ff" points="611.21,-182.83 621.81,-183.02 613.65,-176.26 611.21,-182.83"/>
</a>
</g>
</g>
<!-- Node14 -->
<g id="Node000014" class="node">
<title>Node14</title>
<g id="a_Node000014"><a xlink:href="classxeno__rat__server_1_1_encryption.html#ae2a6537578e2140511afe92f8ad5e964" target="_top" xlink:title="Decrypts the input data using the provided key and returns the decrypted result.">
<polygon fill="white" stroke="#666666" points="734.12,-128.5 596.62,-128.5 596.62,-98 734.12,-98 734.12,-128.5"/>
<text text-anchor="start" x="604.62" y="-115" font-family="Helvetica,sans-Serif" font-size="10.00">xeno_rat_server.Encryption.</text>
<text text-anchor="middle" x="665.38" y="-103.75" font-family="Helvetica,sans-Serif" font-size="10.00">Decrypt</text>
</a>
</g>
</g>
<!-- Node9&#45;&gt;Node14 -->
<g id="edge16_Node000009_Node000014" class="edge">
<title>Node9&#45;&gt;Node14</title>
<g id="a_edge16_Node000009_Node000014"><a xlink:title=" ">
<path fill="none" stroke="#63b8ff" d="M547.78,-125.92C560.04,-124.59 572.76,-123.21 585.08,-121.87"/>
<polygon fill="#63b8ff" stroke="#63b8ff" points="585.2,-125.37 594.76,-120.82 584.44,-118.42 585.2,-125.37"/>
</a>
</g>
</g>
<!-- Node15 -->
<g id="Node000015" class="node">
<title>Node15</title>
<g id="a_Node000015"><a xlink:href="classxeno__rat__server_1_1_socket_handler.html#aeefcafd750efab21954bd772b8ae565d" target="_top" xlink:title="Parses the header from the provided byte array and returns the parsed header object.">
<polygon fill="white" stroke="#666666" points="742.75,-79.5 588,-79.5 588,-49 742.75,-49 742.75,-79.5"/>
<text text-anchor="start" x="596" y="-66" font-family="Helvetica,sans-Serif" font-size="10.00">xeno_rat_server.SocketHandler.</text>
<text text-anchor="middle" x="665.38" y="-54.75" font-family="Helvetica,sans-Serif" font-size="10.00">ParseHeader</text>
</a>
</g>
</g>
<!-- Node9&#45;&gt;Node15 -->
<g id="edge17_Node000009_Node000015" class="edge">
<title>Node9&#45;&gt;Node15</title>
<g id="a_edge17_Node000009_Node000015"><a xlink:title=" ">
<path fill="none" stroke="#63b8ff" d="M510.43,-118.54C533.02,-109.66 561.99,-98.51 588,-89.25 593.37,-87.34 598.96,-85.4 604.58,-83.5"/>
<polygon fill="#63b8ff" stroke="#63b8ff" points="605.55,-86.86 613.92,-80.37 603.33,-80.23 605.55,-86.86"/>
</a>
</g>
</g>
<!-- Node16 -->
<g id="Node000016" class="node">
<title>Node16</title>
<g id="a_Node000016"><a xlink:href="classxeno__rat__server_1_1_socket_handler.html#acc7e34649fee5060867a2321dd15d854" target="_top" xlink:title="Asynchronously receives all the data of the specified size from the connected socket and returns the ...">
<polygon fill="white" stroke="#666666" points="742.75,-30.5 588,-30.5 588,0 742.75,0 742.75,-30.5"/>
<text text-anchor="start" x="596" y="-17" font-family="Helvetica,sans-Serif" font-size="10.00">xeno_rat_server.SocketHandler.</text>
<text text-anchor="middle" x="665.38" y="-5.75" font-family="Helvetica,sans-Serif" font-size="10.00">RecvAllAsync_ddos_unsafer</text>
</a>
</g>
</g>
<!-- Node9&#45;&gt;Node16 -->
<g id="edge19_Node000009_Node000016" class="edge">
<title>Node9&#45;&gt;Node16</title>
<g id="a_edge19_Node000009_Node000016"><a xlink:title=" ">
<path fill="none" stroke="#63b8ff" d="M486.43,-118.85C507.58,-98.33 547.71,-62.09 588,-40.25 591.19,-38.52 594.52,-36.89 597.93,-35.34"/>
<polygon fill="#63b8ff" stroke="#63b8ff" points="599.06,-38.66 606.93,-31.57 596.35,-32.21 599.06,-38.66"/>
</a>
</g>
</g>
<!-- Node13 -->
<g id="Node000013" class="node">
<title>Node13</title>
<g id="a_Node000013"><a xlink:href="classxeno__rat__server_1_1_compression.html#a1c901d319793d3855012549e6a18fe53" target="_top" xlink:title="Decompresses a buffer using the specified compression format and returns the decompressed data.">
<polygon fill="white" stroke="#666666" points="930.5,-214.5 781.75,-214.5 781.75,-184 930.5,-184 930.5,-214.5"/>
<text text-anchor="start" x="789.75" y="-201" font-family="Helvetica,sans-Serif" font-size="10.00">xeno_rat_server.Compression.</text>
<text text-anchor="middle" x="856.12" y="-189.75" font-family="Helvetica,sans-Serif" font-size="10.00">RtlDecompressBuffer</text>
</a>
</g>
</g>
<!-- Node12&#45;&gt;Node13 -->
<g id="edge15_Node000012_Node000013" class="edge">
<title>Node12&#45;&gt;Node13</title>
<g id="a_edge15_Node000012_Node000013"><a xlink:title=" ">
<path fill="none" stroke="#63b8ff" d="M740.16,-199.25C750,-199.25 760.16,-199.25 770.17,-199.25"/>
<polygon fill="#63b8ff" stroke="#63b8ff" points="769.88,-202.75 779.88,-199.25 769.88,-195.75 769.88,-202.75"/>
</a>
</g>
</g>
<!-- Node15&#45;&gt;Node11 -->
<g id="edge18_Node000015_Node000011" class="edge">
<title>Node15&#45;&gt;Node11</title>
<g id="a_edge18_Node000015_Node000011"><a xlink:title=" ">
<path fill="none" stroke="#63b8ff" d="M735.32,-79.96C748.24,-82.9 761.84,-86 775.06,-89.01"/>
<polygon fill="#63b8ff" stroke="#63b8ff" points="774.05,-92.37 784.58,-91.18 775.6,-85.54 774.05,-92.37"/>
</a>
</g>
</g>
</g>
</svg>
