<?xml version="1.0" encoding="UTF-8" standalone="no"?>
<!DOCTYPE svg PUBLIC "-//W3C//DTD SVG 1.1//EN"
 "http://www.w3.org/Graphics/SVG/1.1/DTD/svg11.dtd">
<!-- Generated by graphviz version 10.0.1 (20240210.2158)
 -->
<!-- Title: NAudio.Wave.AiffFileReader.AiffFileReader Pages: 1 -->
<svg width="690pt" height="206pt"
 viewBox="0.00 0.00 690.00 205.84" xmlns="http://www.w3.org/2000/svg" xmlns:xlink="http://www.w3.org/1999/xlink">
<g id="graph0" class="graph" transform="scale(1 1) rotate(0) translate(4 201.84)">
<title>NAudio.Wave.AiffFileReader.AiffFileReader</title>
<!-- Node1 -->
<g id="Node000001" class="node">
<title>Node1</title>
<g id="a_Node000001"><a xlink:title="Creates an Aiff File Reader based on an input stream.">
<polygon fill="#999999" stroke="#666666" points="143.5,-101.47 0,-101.47 0,-70.97 143.5,-70.97 143.5,-101.47"/>
<text text-anchor="start" x="8" y="-87.97" font-family="Helvetica,sans-Serif" font-size="10.00">NAudio.Wave.AiffFileReader.</text>
<text text-anchor="middle" x="71.75" y="-76.72" font-family="Helvetica,sans-Serif" font-size="10.00">AiffFileReader</text>
</a>
</g>
</g>
<!-- Node2 -->
<g id="Node000002" class="node">
<title>Node2</title>
<g id="a_Node000002"><a xlink:href="class_n_audio_1_1_wave_1_1_aiff_file_reader.html#a5eb16b178b9d6e031efe3fe424b77601" target="_top" xlink:title="Reads the AIFF header from the provided stream and extracts the wave format, data chunk position,...">
<polygon fill="white" stroke="#666666" points="323,-101.47 179.5,-101.47 179.5,-70.97 323,-70.97 323,-101.47"/>
<text text-anchor="start" x="187.5" y="-87.97" font-family="Helvetica,sans-Serif" font-size="10.00">NAudio.Wave.AiffFileReader.</text>
<text text-anchor="middle" x="251.25" y="-76.72" font-family="Helvetica,sans-Serif" font-size="10.00">ReadAiffHeader</text>
</a>
</g>
</g>
<!-- Node1&#45;&gt;Node2 -->
<g id="edge1_Node000001_Node000002" class="edge">
<title>Node1&#45;&gt;Node2</title>
<g id="a_edge1_Node000001_Node000002"><a xlink:title=" ">
<path fill="none" stroke="#63b8ff" d="M143.92,-86.22C151.7,-86.22 159.66,-86.22 167.56,-86.22"/>
<polygon fill="#63b8ff" stroke="#63b8ff" points="167.55,-89.72 177.55,-86.22 167.55,-82.72 167.55,-89.72"/>
</a>
</g>
</g>
<!-- Node3 -->
<g id="Node000003" class="node">
<title>Node3</title>
<g id="a_Node000003"><a xlink:href="class_n_audio_1_1_utils_1_1_i_e_e_e.html#a177755932531d390e066ca1046d76e53" target="_top" xlink:title="Converts the given IEEE extended byte array to a double value.">
<polygon fill="white" stroke="#666666" points="498.38,-187.47 363.12,-187.47 363.12,-156.97 498.38,-156.97 498.38,-187.47"/>
<text text-anchor="start" x="371.12" y="-173.97" font-family="Helvetica,sans-Serif" font-size="10.00">NAudio.Utils.IEEE.Convert</text>
<text text-anchor="middle" x="430.75" y="-162.72" font-family="Helvetica,sans-Serif" font-size="10.00">FromIeeeExtended</text>
</a>
</g>
</g>
<!-- Node2&#45;&gt;Node3 -->
<g id="edge2_Node000002_Node000003" class="edge">
<title>Node2&#45;&gt;Node3</title>
<g id="a_edge2_Node000002_Node000003"><a xlink:title=" ">
<path fill="none" stroke="#63b8ff" d="M279.51,-101.76C300.85,-113.69 331.43,-130.25 359,-143.22 365.39,-146.22 372.17,-149.23 378.91,-152.11"/>
<polygon fill="#63b8ff" stroke="#63b8ff" points="377.44,-155.28 388.01,-155.92 380.14,-148.83 377.44,-155.28"/>
</a>
</g>
</g>
<!-- Node6 -->
<g id="Node000006" class="node">
<title>Node6</title>
<g id="a_Node000006"><a xlink:href="class_n_audio_1_1_wave_1_1_aiff_file_reader.html#a5eb0fd162292cfaa76e03872ca5d6085" target="_top" xlink:title="Converts a byte array to an unsigned integer.">
<polygon fill="white" stroke="#666666" points="682,-102.47 538.5,-102.47 538.5,-71.97 682,-71.97 682,-102.47"/>
<text text-anchor="start" x="546.5" y="-88.97" font-family="Helvetica,sans-Serif" font-size="10.00">NAudio.Wave.AiffFileReader.</text>
<text text-anchor="middle" x="610.25" y="-77.72" font-family="Helvetica,sans-Serif" font-size="10.00">ConvertInt</text>
</a>
</g>
</g>
<!-- Node2&#45;&gt;Node6 -->
<g id="edge5_Node000002_Node000006" class="edge">
<title>Node2&#45;&gt;Node6</title>
<g id="a_edge5_Node000002_Node000006"><a xlink:title=" ">
<path fill="none" stroke="#63b8ff" d="M311.42,-101.96C326.8,-105.38 343.42,-108.49 359,-110.22 422.39,-117.26 439.08,-116.97 502.5,-110.22 513.39,-109.06 524.79,-107.25 535.93,-105.15"/>
<polygon fill="#63b8ff" stroke="#63b8ff" points="536.34,-108.64 545.47,-103.25 534.98,-101.77 536.34,-108.64"/>
</a>
</g>
</g>
<!-- Node7 -->
<g id="Node000007" class="node">
<title>Node7</title>
<g id="a_Node000007"><a xlink:href="class_n_audio_1_1_wave_1_1_aiff_file_reader.html#acfe8b3bfb938935c8cb20ef90d7ece52" target="_top" xlink:title="Converts a byte array to a short integer and returns the result.">
<polygon fill="white" stroke="#666666" points="502.5,-101.47 359,-101.47 359,-70.97 502.5,-70.97 502.5,-101.47"/>
<text text-anchor="start" x="367" y="-87.97" font-family="Helvetica,sans-Serif" font-size="10.00">NAudio.Wave.AiffFileReader.</text>
<text text-anchor="middle" x="430.75" y="-76.72" font-family="Helvetica,sans-Serif" font-size="10.00">ConvertShort</text>
</a>
</g>
</g>
<!-- Node2&#45;&gt;Node7 -->
<g id="edge6_Node000002_Node000007" class="edge">
<title>Node2&#45;&gt;Node7</title>
<g id="a_edge6_Node000002_Node000007"><a xlink:title=" ">
<path fill="none" stroke="#63b8ff" d="M323.42,-86.22C331.2,-86.22 339.16,-86.22 347.06,-86.22"/>
<polygon fill="#63b8ff" stroke="#63b8ff" points="347.05,-89.72 357.05,-86.22 347.05,-82.72 347.05,-89.72"/>
</a>
</g>
</g>
<!-- Node8 -->
<g id="Node000008" class="node">
<title>Node8</title>
<g id="a_Node000008"><a xlink:href="class_n_audio_1_1_wave_1_1_aiff_file_reader.html#a0538ac3cf78a3c787cf8570842a79df2" target="_top" xlink:title="Reads the header of a chunk from the provided BinaryReader and returns an AiffChunk object.">
<polygon fill="white" stroke="#666666" points="502.5,-52.47 359,-52.47 359,-21.97 502.5,-21.97 502.5,-52.47"/>
<text text-anchor="start" x="367" y="-38.97" font-family="Helvetica,sans-Serif" font-size="10.00">NAudio.Wave.AiffFileReader.</text>
<text text-anchor="middle" x="430.75" y="-27.72" font-family="Helvetica,sans-Serif" font-size="10.00">ReadChunkHeader</text>
</a>
</g>
</g>
<!-- Node2&#45;&gt;Node8 -->
<g id="edge7_Node000002_Node000008" class="edge">
<title>Node2&#45;&gt;Node8</title>
<g id="a_edge7_Node000002_Node000008"><a xlink:title=" ">
<path fill="none" stroke="#63b8ff" d="M308.9,-70.58C325.79,-65.92 344.47,-60.76 361.99,-55.92"/>
<polygon fill="#63b8ff" stroke="#63b8ff" points="362.56,-59.4 371.27,-53.36 360.69,-52.65 362.56,-59.4"/>
</a>
</g>
</g>
<!-- Node9 -->
<g id="Node000009" class="node">
<title>Node9</title>
<g id="a_Node000009"><a xlink:href="class_n_audio_1_1_wave_1_1_aiff_file_reader.html#ad88d715be0f8fdfae98df6e51b01c67e" target="_top" xlink:title="Reads a chunk name from the provided BinaryReader and returns it as a string.">
<polygon fill="white" stroke="#666666" points="682,-35.47 538.5,-35.47 538.5,-4.97 682,-4.97 682,-35.47"/>
<text text-anchor="start" x="546.5" y="-21.97" font-family="Helvetica,sans-Serif" font-size="10.00">NAudio.Wave.AiffFileReader.</text>
<text text-anchor="middle" x="610.25" y="-10.72" font-family="Helvetica,sans-Serif" font-size="10.00">ReadChunkName</text>
</a>
</g>
</g>
<!-- Node2&#45;&gt;Node9 -->
<g id="edge10_Node000002_Node000009" class="edge">
<title>Node2&#45;&gt;Node9</title>
<g id="a_edge10_Node000002_Node000009"><a xlink:title=" ">
<path fill="none" stroke="#63b8ff" d="M268.3,-70.54C287.84,-52.65 322.75,-24.43 359,-13.22 413.12,3.52 477.01,1.4 526.68,-4.72"/>
<polygon fill="#63b8ff" stroke="#63b8ff" points="526.15,-8.18 536.52,-6.01 527.06,-1.24 526.15,-8.18"/>
</a>
</g>
</g>
<!-- Node4 -->
<g id="Node000004" class="node">
<title>Node4</title>
<g id="a_Node000004"><a xlink:href="class_n_audio_1_1_utils_1_1_i_e_e_e.html#a581705619f4fe799b9005f0a91e2cb6c" target="_top" xlink:title="Returns x multiplied by 2 raised to the power of exp.">
<polygon fill="white" stroke="#666666" points="672.25,-197.84 548.25,-197.84 548.25,-178.59 672.25,-178.59 672.25,-197.84"/>
<text text-anchor="middle" x="610.25" y="-184.34" font-family="Helvetica,sans-Serif" font-size="10.00">NAudio.Utils.IEEE.ldexp</text>
</a>
</g>
</g>
<!-- Node3&#45;&gt;Node4 -->
<g id="edge3_Node000003_Node000004" class="edge">
<title>Node3&#45;&gt;Node4</title>
<g id="a_edge3_Node000003_Node000004"><a xlink:title=" ">
<path fill="none" stroke="#63b8ff" d="M498.86,-178.27C511.18,-179.38 524.1,-180.54 536.58,-181.67"/>
<polygon fill="#63b8ff" stroke="#63b8ff" points="536.11,-185.14 546.39,-182.55 536.74,-178.17 536.11,-185.14"/>
</a>
</g>
</g>
<!-- Node5 -->
<g id="Node000005" class="node">
<title>Node5</title>
<g id="a_Node000005"><a xlink:href="class_n_audio_1_1_utils_1_1_i_e_e_e.html#a925c5a402f093983bbb3178d7050cf9c" target="_top" xlink:title="Converts the unsigned 64&#45;bit integer to a floating&#45;point number.">
<polygon fill="white" stroke="#666666" points="681.25,-160.47 539.25,-160.47 539.25,-129.97 681.25,-129.97 681.25,-160.47"/>
<text text-anchor="start" x="547.25" y="-146.97" font-family="Helvetica,sans-Serif" font-size="10.00">NAudio.Utils.IEEE.Unsigned</text>
<text text-anchor="middle" x="610.25" y="-135.72" font-family="Helvetica,sans-Serif" font-size="10.00">ToFloat</text>
</a>
</g>
</g>
<!-- Node3&#45;&gt;Node5 -->
<g id="edge4_Node000003_Node000005" class="edge">
<title>Node3&#45;&gt;Node5</title>
<g id="a_edge4_Node000003_Node000005"><a xlink:title=" ">
<path fill="none" stroke="#63b8ff" d="M498.86,-162.01C508.24,-160.58 517.97,-159.1 527.59,-157.64"/>
<polygon fill="#63b8ff" stroke="#63b8ff" points="527.94,-161.13 537.3,-156.16 526.89,-154.21 527.94,-161.13"/>
</a>
</g>
</g>
<!-- Node8&#45;&gt;Node6 -->
<g id="edge8_Node000008_Node000006" class="edge">
<title>Node8&#45;&gt;Node6</title>
<g id="a_edge8_Node000008_Node000006"><a xlink:title=" ">
<path fill="none" stroke="#63b8ff" d="M487.43,-52.9C504.94,-57.83 524.45,-63.33 542.64,-68.45"/>
<polygon fill="#63b8ff" stroke="#63b8ff" points="541.44,-71.75 552.01,-71.09 543.33,-65.01 541.44,-71.75"/>
</a>
</g>
</g>
<!-- Node8&#45;&gt;Node9 -->
<g id="edge9_Node000008_Node000009" class="edge">
<title>Node8&#45;&gt;Node9</title>
<g id="a_edge9_Node000008_Node000009"><a xlink:title=" ">
<path fill="none" stroke="#63b8ff" d="M502.92,-30.4C510.79,-29.65 518.85,-28.88 526.84,-28.11"/>
<polygon fill="#63b8ff" stroke="#63b8ff" points="526.93,-31.62 536.55,-27.18 526.27,-24.65 526.93,-31.62"/>
</a>
</g>
</g>
</g>
</svg>
