<?xml version="1.0" encoding="UTF-8" standalone="no"?>
<!DOCTYPE svg PUBLIC "-//W3C//DTD SVG 1.1//EN"
 "http://www.w3.org/Graphics/SVG/1.1/DTD/svg11.dtd">
<!-- Generated by graphviz version 10.0.1 (20240210.2158)
 -->
<!-- Title: xeno_rat_server.Forms.WebCam.GetCamera Pages: 1 -->
<svg width="843pt" height="88pt"
 viewBox="0.00 0.00 843.25 87.50" xmlns="http://www.w3.org/2000/svg" xmlns:xlink="http://www.w3.org/1999/xlink">
<g id="graph0" class="graph" transform="scale(1 1) rotate(0) translate(4 83.5)">
<title>xeno_rat_server.Forms.WebCam.GetCamera</title>
<!-- Node1 -->
<g id="Node000001" class="node">
<title>Node1</title>
<g id="a_Node000001"><a xlink:title="Asynchronously retrieves the list of cameras from the client and returns the result.">
<polygon fill="#999999" stroke="#666666" points="835.25,-54.5 697,-54.5 697,-24 835.25,-24 835.25,-54.5"/>
<text text-anchor="start" x="705" y="-41" font-family="Helvetica,sans-Serif" font-size="10.00">xeno_rat_server.Forms.Web</text>
<text text-anchor="middle" x="766.12" y="-29.75" font-family="Helvetica,sans-Serif" font-size="10.00">Cam.GetCamera</text>
</a>
</g>
</g>
<!-- Node2 -->
<g id="Node000002" class="node">
<title>Node2</title>
<g id="a_Node000002"><a xlink:href="classxeno__rat__server_1_1_forms_1_1_web_cam.html#a1cda680d78ad1f76278e091fffb8bd37" target="_top" xlink:title="Refreshes the list of cameras and updates the UI accordingly.">
<polygon fill="white" stroke="#666666" points="661,-54.5 522.75,-54.5 522.75,-24 661,-24 661,-54.5"/>
<text text-anchor="start" x="530.75" y="-41" font-family="Helvetica,sans-Serif" font-size="10.00">xeno_rat_server.Forms.Web</text>
<text text-anchor="middle" x="591.88" y="-29.75" font-family="Helvetica,sans-Serif" font-size="10.00">Cam.RefreshCams</text>
</a>
</g>
</g>
<!-- Node1&#45;&gt;Node2 -->
<g id="edge1_Node000001_Node000002" class="edge">
<title>Node1&#45;&gt;Node2</title>
<g id="a_edge1_Node000001_Node000002"><a xlink:title=" ">
<path fill="none" stroke="#63b8ff" d="M685.08,-39.25C677.2,-39.25 669.25,-39.25 661.49,-39.25"/>
<polygon fill="#63b8ff" stroke="#63b8ff" points="685.04,-42.75 695.04,-39.25 685.04,-35.75 685.04,-42.75"/>
</a>
</g>
</g>
<!-- Node3 -->
<g id="Node000003" class="node">
<title>Node3</title>
<g id="a_Node000003"><a xlink:href="classxeno__rat__server_1_1_forms_1_1_web_cam.html#a1be47f34a00ba756b9851fdec1544655" target="_top" xlink:title="Asynchronously refreshes the cameras.">
<polygon fill="white" stroke="#666666" points="486.75,-77.5 348.5,-77.5 348.5,-47 486.75,-47 486.75,-77.5"/>
<text text-anchor="start" x="356.5" y="-64" font-family="Helvetica,sans-Serif" font-size="10.00">xeno_rat_server.Forms.Web</text>
<text text-anchor="middle" x="417.62" y="-52.75" font-family="Helvetica,sans-Serif" font-size="10.00">Cam.button1_Click</text>
</a>
</g>
</g>
<!-- Node2&#45;&gt;Node3 -->
<g id="edge2_Node000002_Node000003" class="edge">
<title>Node2&#45;&gt;Node3</title>
<g id="a_edge2_Node000002_Node000003"><a xlink:title=" ">
<path fill="none" stroke="#63b8ff" d="M511.11,-49.9C503.13,-50.97 495.09,-52.04 487.24,-53.09"/>
<polygon fill="#63b8ff" stroke="#63b8ff" points="511.35,-53.4 520.8,-48.61 510.43,-46.46 511.35,-53.4"/>
</a>
</g>
</g>
<!-- Node6 -->
<g id="Node000006" class="node">
<title>Node6</title>
<g id="a_Node000006"><a xlink:href="classxeno__rat__server_1_1_forms_1_1_web_cam.html#a1013bbf9dc79623d3922bd4df2c06f99" target="_top" xlink:title="Initializes the object asynchronously by creating an image node, adding temporary on disconnect,...">
<polygon fill="white" stroke="#666666" points="312.5,-30.5 174.25,-30.5 174.25,0 312.5,0 312.5,-30.5"/>
<text text-anchor="start" x="182.25" y="-17" font-family="Helvetica,sans-Serif" font-size="10.00">xeno_rat_server.Forms.Web</text>
<text text-anchor="middle" x="243.38" y="-5.75" font-family="Helvetica,sans-Serif" font-size="10.00">Cam.InitializeAsync</text>
</a>
</g>
</g>
<!-- Node2&#45;&gt;Node6 -->
<g id="edge5_Node000002_Node000006" class="edge">
<title>Node2&#45;&gt;Node6</title>
<g id="a_edge5_Node000002_Node000006"><a xlink:title=" ">
<path fill="none" stroke="#63b8ff" d="M511.11,-33.73C451.2,-29.58 370,-23.95 312.99,-20"/>
<polygon fill="#63b8ff" stroke="#63b8ff" points="510.69,-37.2 520.91,-34.4 511.17,-30.22 510.69,-37.2"/>
</a>
</g>
</g>
<!-- Node4 -->
<g id="Node000004" class="node">
<title>Node4</title>
<g id="a_Node000004"><a xlink:href="classxeno__rat__server_1_1_forms_1_1_web_cam.html#adb19c9700d4da2f0dee4995eba9df355" target="_top" xlink:title="Initializes the components of the WebCam form.">
<polygon fill="white" stroke="#666666" points="312.5,-79.5 174.25,-79.5 174.25,-49 312.5,-49 312.5,-79.5"/>
<text text-anchor="start" x="182.25" y="-66" font-family="Helvetica,sans-Serif" font-size="10.00">xeno_rat_server.Forms.Web</text>
<text text-anchor="middle" x="243.38" y="-54.75" font-family="Helvetica,sans-Serif" font-size="10.00">Cam.InitializeComponent</text>
</a>
</g>
</g>
<!-- Node3&#45;&gt;Node4 -->
<g id="edge3_Node000003_Node000004" class="edge">
<title>Node3&#45;&gt;Node4</title>
<g id="a_edge3_Node000003_Node000004"><a xlink:title=" ">
<path fill="none" stroke="#63b8ff" d="M336.58,-63.18C328.7,-63.27 320.75,-63.36 312.99,-63.45"/>
<polygon fill="#63b8ff" stroke="#63b8ff" points="336.58,-66.68 346.54,-63.06 336.5,-59.68 336.58,-66.68"/>
</a>
</g>
</g>
<!-- Node5 -->
<g id="Node000005" class="node">
<title>Node5</title>
<g id="a_Node000005"><a xlink:href="classxeno__rat__server_1_1_forms_1_1_web_cam.html#a04f45df1b3118b1e0f560db583e6ec09" target="_top" xlink:title=" ">
<polygon fill="white" stroke="#666666" points="138.25,-54.5 0,-54.5 0,-24 138.25,-24 138.25,-54.5"/>
<text text-anchor="start" x="8" y="-41" font-family="Helvetica,sans-Serif" font-size="10.00">xeno_rat_server.Forms.Web</text>
<text text-anchor="middle" x="69.12" y="-29.75" font-family="Helvetica,sans-Serif" font-size="10.00">Cam.WebCam</text>
</a>
</g>
</g>
<!-- Node4&#45;&gt;Node5 -->
<g id="edge4_Node000004_Node000005" class="edge">
<title>Node4&#45;&gt;Node5</title>
<g id="a_edge4_Node000004_Node000005"><a xlink:title=" ">
<path fill="none" stroke="#63b8ff" d="M162.61,-52.67C154.63,-51.52 146.59,-50.35 138.74,-49.21"/>
<polygon fill="#63b8ff" stroke="#63b8ff" points="161.91,-56.11 172.3,-54.08 162.91,-49.18 161.91,-56.11"/>
</a>
</g>
</g>
<!-- Node6&#45;&gt;Node5 -->
<g id="edge6_Node000006_Node000005" class="edge">
<title>Node6&#45;&gt;Node5</title>
<g id="a_edge6_Node000006_Node000005"><a xlink:title=" ">
<path fill="none" stroke="#63b8ff" d="M162.61,-26.36C154.63,-27.48 146.59,-28.6 138.74,-29.69"/>
<polygon fill="#63b8ff" stroke="#63b8ff" points="162.88,-29.86 172.3,-25.01 161.92,-22.93 162.88,-29.86"/>
</a>
</g>
</g>
</g>
</svg>
