<?xml version="1.0" encoding="UTF-8" standalone="no"?>
<!DOCTYPE svg PUBLIC "-//W3C//DTD SVG 1.1//EN"
 "http://www.w3.org/Graphics/SVG/1.1/DTD/svg11.dtd">
<!-- Generated by graphviz version 10.0.1 (20240210.2158)
 -->
<!-- Title: xeno_rat_server.Forms.Registry_Manager.DeleteRegKey Pages: 1 -->
<!--zoomable 492 -->

<svg id="main" version="1.1" xmlns="http://www.w3.org/2000/svg" xmlns:xlink="http://www.w3.org/1999/xlink" xml:space="preserve" onload="init(evt)">
<style type="text/css"><![CDATA[
.node, .edge {opacity: 0.7;}
.node.selected, .edge.selected {opacity: 1;}
.edge:hover path { stroke: red; }
.edge:hover polygon { stroke: red; fill: red; }
]]></style>

<defs>
  <circle id="rim" cx="0" cy="0" r="7"/>
  <circle id="rim2" cx="0" cy="0" r="3.5"/>
  <g id="zoomPlus">
    <use xlink:href="#rim" fill="#404040"><set attributeName="fill" to="#808080" begin="zoomplus.mouseover" end="zoomplus.mouseout"/></use>
    <path d="M-4,0h8M0,-4v8" fill="none" stroke="white" stroke-width="1.5" pointer-events="none"/>
  </g>
  <g id="zoomMin">
    <use xlink:href="#rim" fill="#404040"><set attributeName="fill" to="#808080" begin="zoomminus.mouseover" end="zoomminus.mouseout"/></use>
    <path d="M-4,0h8" fill="none" stroke="white" stroke-width="1.5" pointer-events="none"/>
  </g>
  <g id="arrowUp" transform="translate(30 24)">
    <use xlink:href="#rim"/>
    <path pointer-events="none" fill="none" stroke="white" stroke-width="1.5" d="M0,-3.0v7 M-2.5,-0.5L0,-3.0L2.5,-0.5"/>
  </g>
  <g id="arrowRight" transform="rotate(90) translate(36 -43)">
    <use xlink:href="#rim"/>
    <path pointer-events="none" fill="none" stroke="white" stroke-width="1.5" d="M0,-3.0v7 M-2.5,-0.5L0,-3.0L2.5,-0.5"/>
  </g>
  <g id="arrowDown" transform="rotate(180) translate(-30 -48)">
    <use xlink:href="#rim"/>
    <path pointer-events="none" fill="none" stroke="white" stroke-width="1.5" d="M0,-3.0v7 M-2.5,-0.5L0,-3.0L2.5,-0.5"/>
  </g>
  <g id="arrowLeft" transform="rotate(270) translate(-36 17)">
    <use xlink:href="#rim"/>
    <path pointer-events="none" fill="none" stroke="white" stroke-width="1.5" d="M0,-3.0v7 M-2.5,-0.5L0,-3.0L2.5,-0.5"/>
  </g>
  <g id="resetDef">
    <use xlink:href="#rim2" fill="#404040"><set attributeName="fill" to="#808080" begin="reset.mouseover" end="reset.mouseout"/></use>
  </g>
</defs>
<script type="application/ecmascript">
var viewWidth = 948;
var viewHeight = 492;
var sectionId = 'dynsection-4';
</script>
<script type="application/ecmascript" xlink:href="svg.min.js"/>
<svg id="graph" class="graph">
<g id="viewport">
<title>xeno_rat_server.Forms.Registry_Manager.DeleteRegKey</title>
<!-- Node1 -->
<g id="Node000001" class="node">
<title>Node1</title>
<g id="a_Node000001"><a xlink:title="Deletes a registry key at the specified path and key and returns a boolean indicating whether the ope...">
<polygon fill="#999999" stroke="#666666" points="155.5,-234.5 0,-234.5 0,-204 155.5,-204 155.5,-234.5"/>
<text text-anchor="start" x="8" y="-221" font-family="Helvetica,sans-Serif" font-size="10.00">xeno_rat_server.Forms.Registry</text>
<text text-anchor="middle" x="77.75" y="-209.75" font-family="Helvetica,sans-Serif" font-size="10.00">_Manager.DeleteRegKey</text>
</a>
</g>
</g>
<!-- Node2 -->
<g id="Node000002" class="node">
<title>Node2</title>
<g id="a_Node000002"><a xlink:href="classxeno__rat__server_1_1_node.html#a3dcb832502d4cd1dd580897265b2da7b" target="_top" xlink:title="Asynchronously receives data from the socket and returns the received data as a byte array.">
<polygon fill="white" stroke="#666666" points="341.75,-259.5 191.5,-259.5 191.5,-229 341.75,-229 341.75,-259.5"/>
<text text-anchor="start" x="199.5" y="-246" font-family="Helvetica,sans-Serif" font-size="10.00">xeno_rat_server.Node.Receive</text>
<text text-anchor="middle" x="266.62" y="-234.75" font-family="Helvetica,sans-Serif" font-size="10.00">Async</text>
</a>
</g>
</g>
<!-- Node1&#45;&gt;Node2 -->
<g id="edge1_Node000001_Node000002" class="edge">
<title>Node1&#45;&gt;Node2</title>
<g id="a_edge1_Node000001_Node000002"><a xlink:title=" ">
<path fill="none" stroke="#63b8ff" d="M155.84,-229.56C163.77,-230.62 171.85,-231.71 179.87,-232.78"/>
<polygon fill="#63b8ff" stroke="#63b8ff" points="179.24,-236.23 189.62,-234.08 180.17,-229.29 179.24,-236.23"/>
</a>
</g>
</g>
<!-- Node12 -->
<g id="Node000012" class="node">
<title>Node12</title>
<g id="a_Node000012"><a xlink:href="classxeno__rat__server_1_1_node.html#a816e267eb31862d38c21e5faaae3061d" target="_top" xlink:title="Sends the provided data asynchronously and returns a boolean indicating the success of the operation.">
<polygon fill="white" stroke="#666666" points="335,-210.5 198.25,-210.5 198.25,-180 335,-180 335,-210.5"/>
<text text-anchor="start" x="206.25" y="-197" font-family="Helvetica,sans-Serif" font-size="10.00">xeno_rat_server.Node.Send</text>
<text text-anchor="middle" x="266.62" y="-185.75" font-family="Helvetica,sans-Serif" font-size="10.00">Async</text>
</a>
</g>
</g>
<!-- Node1&#45;&gt;Node12 -->
<g id="edge13_Node000001_Node000012" class="edge">
<title>Node1&#45;&gt;Node12</title>
<g id="a_edge13_Node000001_Node000012"><a xlink:title=" ">
<path fill="none" stroke="#63b8ff" d="M155.84,-209.35C165.99,-208.05 176.41,-206.71 186.6,-205.4"/>
<polygon fill="#63b8ff" stroke="#63b8ff" points="187,-208.88 196.47,-204.13 186.11,-201.93 187,-208.88"/>
</a>
</g>
</g>
<!-- Node3 -->
<g id="Node000003" class="node">
<title>Node3</title>
<g id="a_Node000003"><a xlink:href="classxeno__rat__server_1_1_node.html#a8814edd98b6463f49812be32d5928763" target="_top" xlink:title="Sets the isDisposed flag to true and disconnects the socket, disposes resources, and triggers the OnD...">
<polygon fill="white" stroke="#666666" points="541.5,-229.88 377.75,-229.88 377.75,-210.62 541.5,-210.62 541.5,-229.88"/>
<text text-anchor="middle" x="459.62" y="-216.38" font-family="Helvetica,sans-Serif" font-size="10.00">xeno_rat_server.Node.Disconnect</text>
</a>
</g>
</g>
<!-- Node2&#45;&gt;Node3 -->
<g id="edge2_Node000002_Node000003" class="edge">
<title>Node2&#45;&gt;Node3</title>
<g id="a_edge2_Node000002_Node000003"><a xlink:title=" ">
<path fill="none" stroke="#63b8ff" d="M342.02,-234.9C350.15,-233.88 358.51,-232.83 366.82,-231.79"/>
<polygon fill="#63b8ff" stroke="#63b8ff" points="367.13,-235.27 376.61,-230.56 366.25,-228.33 367.13,-235.27"/>
</a>
</g>
</g>
<!-- Node4 -->
<g id="Node000004" class="node">
<title>Node4</title>
<g id="a_Node000004"><a xlink:href="classxeno__rat__server_1_1_socket_handler.html#a40a6f3b7eb555e8d688ea5c0074ffa2c" target="_top" xlink:title="Asynchronously receives data and processes it according to the protocol, then returns the processed d...">
<polygon fill="white" stroke="#666666" points="537,-336.5 382.25,-336.5 382.25,-306 537,-306 537,-336.5"/>
<text text-anchor="start" x="390.25" y="-323" font-family="Helvetica,sans-Serif" font-size="10.00">xeno_rat_server.SocketHandler.</text>
<text text-anchor="middle" x="459.62" y="-311.75" font-family="Helvetica,sans-Serif" font-size="10.00">ReceiveAsync</text>
</a>
</g>
</g>
<!-- Node2&#45;&gt;Node4 -->
<g id="edge4_Node000002_Node000004" class="edge">
<title>Node2&#45;&gt;Node4</title>
<g id="a_edge4_Node000002_Node000004"><a xlink:title=" ">
<path fill="none" stroke="#63b8ff" d="M306.28,-259.83C335.95,-271.79 377.14,-288.4 409.21,-301.33"/>
<polygon fill="#63b8ff" stroke="#63b8ff" points="407.72,-304.5 418.3,-304.99 410.33,-298.01 407.72,-304.5"/>
</a>
</g>
</g>
<!-- Node3&#45;&gt;Node3 -->
<g id="edge3_Node000003_Node000003" class="edge">
<title>Node3&#45;&gt;Node3</title>
<g id="a_edge3_Node000003_Node000003"><a xlink:title=" ">
<path fill="none" stroke="#63b8ff" d="M429.41,-230.16C415.63,-238.77 425.7,-247.88 459.62,-247.88 479.24,-247.88 490.88,-244.83 494.55,-240.6"/>
<polygon fill="#63b8ff" stroke="#63b8ff" points="497.76,-239.22 490.46,-231.54 491.38,-242.1 497.76,-239.22"/>
</a>
</g>
</g>
<!-- Node5 -->
<g id="Node000005" class="node">
<title>Node5</title>
<g id="a_Node000005"><a xlink:href="classxeno__rat__server_1_1_socket_handler.html#a53169a2098514698865b69c8fab12f77" target="_top" xlink:title="Truncates the input byte array starting from the specified offset and returns the truncated byte arra...">
<polygon fill="white" stroke="#666666" points="732.25,-287.5 577.5,-287.5 577.5,-257 732.25,-257 732.25,-287.5"/>
<text text-anchor="start" x="585.5" y="-274" font-family="Helvetica,sans-Serif" font-size="10.00">xeno_rat_server.SocketHandler.</text>
<text text-anchor="middle" x="654.88" y="-262.75" font-family="Helvetica,sans-Serif" font-size="10.00">BTruncate</text>
</a>
</g>
</g>
<!-- Node4&#45;&gt;Node5 -->
<g id="edge5_Node000004_Node000005" class="edge">
<title>Node4&#45;&gt;Node5</title>
<g id="a_edge5_Node000004_Node000005"><a xlink:title=" ">
<path fill="none" stroke="#63b8ff" d="M522.57,-305.54C541.12,-300.84 561.63,-295.64 580.83,-290.77"/>
<polygon fill="#63b8ff" stroke="#63b8ff" points="581.65,-294.17 590.48,-288.32 579.93,-287.39 581.65,-294.17"/>
</a>
</g>
</g>
<!-- Node6 -->
<g id="Node000006" class="node">
<title>Node6</title>
<g id="a_Node000006"><a xlink:href="classxeno__rat__server_1_1_socket_handler.html#a68836e871124cbda8a644223a73421d0" target="_top" xlink:title="Converts the specified byte array to an integer value.">
<polygon fill="white" stroke="#666666" points="931.62,-318.5 776.88,-318.5 776.88,-288 931.62,-288 931.62,-318.5"/>
<text text-anchor="start" x="784.88" y="-305" font-family="Helvetica,sans-Serif" font-size="10.00">xeno_rat_server.SocketHandler.</text>
<text text-anchor="middle" x="854.25" y="-293.75" font-family="Helvetica,sans-Serif" font-size="10.00">BytesToInt</text>
</a>
</g>
</g>
<!-- Node4&#45;&gt;Node6 -->
<g id="edge6_Node000004_Node000006" class="edge">
<title>Node4&#45;&gt;Node6</title>
<g id="a_edge6_Node000004_Node000006"><a xlink:title=" ">
<path fill="none" stroke="#63b8ff" d="M478.48,-305.55C500.15,-287.64 538.63,-259.39 577.5,-248.25 643.62,-229.3 665.03,-233.69 732.25,-248.25 762.5,-254.8 794.28,-269.59 817.67,-282.18"/>
<polygon fill="#63b8ff" stroke="#63b8ff" points="815.7,-285.1 826.15,-286.86 819.08,-278.97 815.7,-285.1"/>
</a>
</g>
</g>
<!-- Node7 -->
<g id="Node000007" class="node">
<title>Node7</title>
<g id="a_Node000007"><a xlink:href="classxeno__rat__server_1_1_compression.html#ad992bb75126d7c346fe7884dbbcf8ad8" target="_top" xlink:title="Decompresses the input buffer using the LZNT1 compression format and returns the decompressed data.">
<polygon fill="white" stroke="#666666" points="729.25,-483.5 580.5,-483.5 580.5,-453 729.25,-453 729.25,-483.5"/>
<text text-anchor="start" x="588.5" y="-470" font-family="Helvetica,sans-Serif" font-size="10.00">xeno_rat_server.Compression.</text>
<text text-anchor="middle" x="654.88" y="-458.75" font-family="Helvetica,sans-Serif" font-size="10.00">Decompress</text>
</a>
</g>
</g>
<!-- Node4&#45;&gt;Node7 -->
<g id="edge7_Node000004_Node000007" class="edge">
<title>Node4&#45;&gt;Node7</title>
<g id="a_edge7_Node000004_Node000007"><a xlink:title=" ">
<path fill="none" stroke="#63b8ff" d="M471.4,-336.7C490.11,-362.41 531.07,-414.04 577.5,-443.25 580.07,-444.87 582.75,-446.39 585.51,-447.82"/>
<polygon fill="#63b8ff" stroke="#63b8ff" points="583.86,-450.91 594.4,-451.98 586.83,-444.57 583.86,-450.91"/>
</a>
</g>
</g>
<!-- Node9 -->
<g id="Node000009" class="node">
<title>Node9</title>
<g id="a_Node000009"><a xlink:href="classxeno__rat__server_1_1_encryption.html#ae2a6537578e2140511afe92f8ad5e964" target="_top" xlink:title="Decrypts the input data using the provided key and returns the decrypted result.">
<polygon fill="white" stroke="#666666" points="723.62,-434.5 586.12,-434.5 586.12,-404 723.62,-404 723.62,-434.5"/>
<text text-anchor="start" x="594.12" y="-421" font-family="Helvetica,sans-Serif" font-size="10.00">xeno_rat_server.Encryption.</text>
<text text-anchor="middle" x="654.88" y="-409.75" font-family="Helvetica,sans-Serif" font-size="10.00">Decrypt</text>
</a>
</g>
</g>
<!-- Node4&#45;&gt;Node9 -->
<g id="edge9_Node000004_Node000009" class="edge">
<title>Node4&#45;&gt;Node9</title>
<g id="a_edge9_Node000004_Node000009"><a xlink:title=" ">
<path fill="none" stroke="#63b8ff" d="M482.13,-336.91C504.91,-352.96 542.39,-377.84 577.5,-394.25 581.44,-396.09 585.55,-397.86 589.74,-399.53"/>
<polygon fill="#63b8ff" stroke="#63b8ff" points="588.23,-402.7 598.82,-402.98 590.71,-396.16 588.23,-402.7"/>
</a>
</g>
</g>
<!-- Node10 -->
<g id="Node000010" class="node">
<title>Node10</title>
<g id="a_Node000010"><a xlink:href="classxeno__rat__server_1_1_socket_handler.html#aeefcafd750efab21954bd772b8ae565d" target="_top" xlink:title="Parses the header from the provided byte array and returns the parsed header object.">
<polygon fill="white" stroke="#666666" points="732.25,-385.5 577.5,-385.5 577.5,-355 732.25,-355 732.25,-385.5"/>
<text text-anchor="start" x="585.5" y="-372" font-family="Helvetica,sans-Serif" font-size="10.00">xeno_rat_server.SocketHandler.</text>
<text text-anchor="middle" x="654.88" y="-360.75" font-family="Helvetica,sans-Serif" font-size="10.00">ParseHeader</text>
</a>
</g>
</g>
<!-- Node4&#45;&gt;Node10 -->
<g id="edge10_Node000004_Node000010" class="edge">
<title>Node4&#45;&gt;Node10</title>
<g id="a_edge10_Node000004_Node000010"><a xlink:title=" ">
<path fill="none" stroke="#63b8ff" d="M522.57,-336.96C541.12,-341.66 561.63,-346.86 580.83,-351.73"/>
<polygon fill="#63b8ff" stroke="#63b8ff" points="579.93,-355.11 590.48,-354.18 581.65,-348.33 579.93,-355.11"/>
</a>
</g>
</g>
<!-- Node11 -->
<g id="Node000011" class="node">
<title>Node11</title>
<g id="a_Node000011"><a xlink:href="classxeno__rat__server_1_1_socket_handler.html#acc7e34649fee5060867a2321dd15d854" target="_top" xlink:title="Asynchronously receives all the data of the specified size from the connected socket and returns the ...">
<polygon fill="white" stroke="#666666" points="732.25,-336.5 577.5,-336.5 577.5,-306 732.25,-306 732.25,-336.5"/>
<text text-anchor="start" x="585.5" y="-323" font-family="Helvetica,sans-Serif" font-size="10.00">xeno_rat_server.SocketHandler.</text>
<text text-anchor="middle" x="654.88" y="-311.75" font-family="Helvetica,sans-Serif" font-size="10.00">RecvAllAsync_ddos_unsafer</text>
</a>
</g>
</g>
<!-- Node4&#45;&gt;Node11 -->
<g id="edge12_Node000004_Node000011" class="edge">
<title>Node4&#45;&gt;Node11</title>
<g id="a_edge12_Node000004_Node000011"><a xlink:title=" ">
<path fill="none" stroke="#63b8ff" d="M537.28,-321.25C546.75,-321.25 556.48,-321.25 566.1,-321.25"/>
<polygon fill="#63b8ff" stroke="#63b8ff" points="565.8,-324.75 575.8,-321.25 565.8,-317.75 565.8,-324.75"/>
</a>
</g>
</g>
<!-- Node8 -->
<g id="Node000008" class="node">
<title>Node8</title>
<g id="a_Node000008"><a xlink:href="classxeno__rat__server_1_1_compression.html#a1c901d319793d3855012549e6a18fe53" target="_top" xlink:title="Decompresses a buffer using the specified compression format and returns the decompressed data.">
<polygon fill="white" stroke="#666666" points="928.62,-483.5 779.88,-483.5 779.88,-453 928.62,-453 928.62,-483.5"/>
<text text-anchor="start" x="787.88" y="-470" font-family="Helvetica,sans-Serif" font-size="10.00">xeno_rat_server.Compression.</text>
<text text-anchor="middle" x="854.25" y="-458.75" font-family="Helvetica,sans-Serif" font-size="10.00">RtlDecompressBuffer</text>
</a>
</g>
</g>
<!-- Node7&#45;&gt;Node8 -->
<g id="edge8_Node000007_Node000008" class="edge">
<title>Node7&#45;&gt;Node8</title>
<g id="a_edge8_Node000007_Node000008"><a xlink:title=" ">
<path fill="none" stroke="#63b8ff" d="M729.65,-468.25C742.27,-468.25 755.47,-468.25 768.35,-468.25"/>
<polygon fill="#63b8ff" stroke="#63b8ff" points="768.05,-471.75 778.05,-468.25 768.05,-464.75 768.05,-471.75"/>
</a>
</g>
</g>
<!-- Node10&#45;&gt;Node6 -->
<g id="edge11_Node000010_Node000006" class="edge">
<title>Node10&#45;&gt;Node6</title>
<g id="a_edge11_Node000010_Node000006"><a xlink:title=" ">
<path fill="none" stroke="#63b8ff" d="M704.4,-354.51C713.66,-351.47 723.26,-348.28 732.25,-345.25 753.68,-338.02 777.19,-329.91 797.73,-322.75"/>
<polygon fill="#63b8ff" stroke="#63b8ff" points="798.78,-326.1 807.06,-319.5 796.47,-319.49 798.78,-326.1"/>
</a>
</g>
</g>
<!-- Node12&#45;&gt;Node3 -->
<g id="edge14_Node000012_Node000003" class="edge">
<title>Node12&#45;&gt;Node3</title>
<g id="a_edge14_Node000012_Node000003"><a xlink:title=" ">
<path fill="none" stroke="#63b8ff" d="M335.23,-204.1C346.54,-205.58 358.41,-207.13 370.15,-208.67"/>
<polygon fill="#63b8ff" stroke="#63b8ff" points="369.46,-212.11 379.83,-209.94 370.37,-205.17 369.46,-212.11"/>
</a>
</g>
</g>
<!-- Node13 -->
<g id="Node000013" class="node">
<title>Node13</title>
<g id="a_Node000013"><a xlink:href="classxeno__rat__server_1_1_socket_handler.html#a85ca8385d023521cdb86ff8ae688adee" target="_top" xlink:title="Sends the provided data asynchronously over the socket.">
<polygon fill="white" stroke="#666666" points="537,-152.5 382.25,-152.5 382.25,-122 537,-122 537,-152.5"/>
<text text-anchor="start" x="390.25" y="-139" font-family="Helvetica,sans-Serif" font-size="10.00">xeno_rat_server.SocketHandler.</text>
<text text-anchor="middle" x="459.62" y="-127.75" font-family="Helvetica,sans-Serif" font-size="10.00">SendAsync</text>
</a>
</g>
</g>
<!-- Node12&#45;&gt;Node13 -->
<g id="edge15_Node000012_Node000013" class="edge">
<title>Node12&#45;&gt;Node13</title>
<g id="a_edge15_Node000012_Node000013"><a xlink:title=" ">
<path fill="none" stroke="#63b8ff" d="M319.31,-179.55C342.99,-172.37 371.25,-163.78 396.11,-156.23"/>
<polygon fill="#63b8ff" stroke="#63b8ff" points="396.9,-159.65 405.45,-153.4 394.86,-152.95 396.9,-159.65"/>
</a>
</g>
</g>
<!-- Node14 -->
<g id="Node000014" class="node">
<title>Node14</title>
<g id="a_Node000014"><a xlink:href="classxeno__rat__server_1_1_compression.html#a0f3f31a2fe34d92bf04538b2fdf529e0" target="_top" xlink:title="Compresses the input buffer using the LZNT1 compression format and returns the compressed data.">
<polygon fill="white" stroke="#666666" points="729.25,-103.5 580.5,-103.5 580.5,-73 729.25,-73 729.25,-103.5"/>
<text text-anchor="start" x="588.5" y="-90" font-family="Helvetica,sans-Serif" font-size="10.00">xeno_rat_server.Compression.</text>
<text text-anchor="middle" x="654.88" y="-78.75" font-family="Helvetica,sans-Serif" font-size="10.00">Compress</text>
</a>
</g>
</g>
<!-- Node13&#45;&gt;Node14 -->
<g id="edge16_Node000013_Node000014" class="edge">
<title>Node13&#45;&gt;Node14</title>
<g id="a_edge16_Node000013_Node000014"><a xlink:title=" ">
<path fill="none" stroke="#63b8ff" d="M522.57,-121.54C541.12,-116.84 561.63,-111.64 580.83,-106.77"/>
<polygon fill="#63b8ff" stroke="#63b8ff" points="581.65,-110.17 590.48,-104.32 579.93,-103.39 581.65,-110.17"/>
</a>
</g>
</g>
<!-- Node19 -->
<g id="Node000019" class="node">
<title>Node19</title>
<g id="a_Node000019"><a xlink:href="classxeno__rat__server_1_1_socket_handler.html#a4f2e993b63cf1bba877781c9be2ed496" target="_top" xlink:title="Concatenates two byte arrays and returns the result.">
<polygon fill="white" stroke="#666666" points="732.25,-54.5 577.5,-54.5 577.5,-24 732.25,-24 732.25,-54.5"/>
<text text-anchor="start" x="585.5" y="-41" font-family="Helvetica,sans-Serif" font-size="10.00">xeno_rat_server.SocketHandler.</text>
<text text-anchor="middle" x="654.88" y="-29.75" font-family="Helvetica,sans-Serif" font-size="10.00">Concat</text>
</a>
</g>
</g>
<!-- Node13&#45;&gt;Node19 -->
<g id="edge21_Node000013_Node000019" class="edge">
<title>Node13&#45;&gt;Node19</title>
<g id="a_edge21_Node000013_Node000019"><a xlink:title=" ">
<path fill="none" stroke="#63b8ff" d="M482.13,-121.59C504.91,-105.54 542.39,-80.66 577.5,-64.25 581.44,-62.41 585.55,-60.64 589.74,-58.97"/>
<polygon fill="#63b8ff" stroke="#63b8ff" points="590.71,-62.34 598.82,-55.52 588.23,-55.8 590.71,-62.34"/>
</a>
</g>
</g>
<!-- Node20 -->
<g id="Node000020" class="node">
<title>Node20</title>
<g id="a_Node000020"><a xlink:href="classxeno__rat__server_1_1_encryption.html#a0fafecaba804cb57663bdbb4dcc4e93f" target="_top" xlink:title="Encrypts the input data using the provided key and returns the encrypted result.">
<polygon fill="white" stroke="#666666" points="723.62,-201.5 586.12,-201.5 586.12,-171 723.62,-171 723.62,-201.5"/>
<text text-anchor="start" x="594.12" y="-188" font-family="Helvetica,sans-Serif" font-size="10.00">xeno_rat_server.Encryption.</text>
<text text-anchor="middle" x="654.88" y="-176.75" font-family="Helvetica,sans-Serif" font-size="10.00">Encrypt</text>
</a>
</g>
</g>
<!-- Node13&#45;&gt;Node20 -->
<g id="edge22_Node000013_Node000020" class="edge">
<title>Node13&#45;&gt;Node20</title>
<g id="a_edge22_Node000013_Node000020"><a xlink:title=" ">
<path fill="none" stroke="#63b8ff" d="M522.57,-152.96C541.12,-157.66 561.63,-162.86 580.83,-167.73"/>
<polygon fill="#63b8ff" stroke="#63b8ff" points="579.93,-171.11 590.48,-170.18 581.65,-164.33 579.93,-171.11"/>
</a>
</g>
</g>
<!-- Node21 -->
<g id="Node000021" class="node">
<title>Node21</title>
<g id="a_Node000021"><a xlink:href="classxeno__rat__server_1_1_socket_handler.html#a7d019c5e4cbd0138d155156c7a7c5a8f" target="_top" xlink:title="Converts an integer to a byte array.">
<polygon fill="white" stroke="#666666" points="732.25,-152.5 577.5,-152.5 577.5,-122 732.25,-122 732.25,-152.5"/>
<text text-anchor="start" x="585.5" y="-139" font-family="Helvetica,sans-Serif" font-size="10.00">xeno_rat_server.SocketHandler.</text>
<text text-anchor="middle" x="654.88" y="-127.75" font-family="Helvetica,sans-Serif" font-size="10.00">IntToBytes</text>
</a>
</g>
</g>
<!-- Node13&#45;&gt;Node21 -->
<g id="edge23_Node000013_Node000021" class="edge">
<title>Node13&#45;&gt;Node21</title>
<g id="a_edge23_Node000013_Node000021"><a xlink:title=" ">
<path fill="none" stroke="#63b8ff" d="M537.28,-137.25C546.75,-137.25 556.48,-137.25 566.1,-137.25"/>
<polygon fill="#63b8ff" stroke="#63b8ff" points="565.8,-140.75 575.8,-137.25 565.8,-133.75 565.8,-140.75"/>
</a>
</g>
</g>
<!-- Node15 -->
<g id="Node000015" class="node">
<title>Node15</title>
<g id="a_Node000015"><a xlink:href="classxeno__rat__server_1_1_compression.html#ae86c8cb19fb340173e6b06816907c485" target="_top" xlink:title="Allocates the specified number of bytes in the local heap and returns a pointer to the allocated memo...">
<polygon fill="white" stroke="#666666" points="928.62,-79.5 779.88,-79.5 779.88,-49 928.62,-49 928.62,-79.5"/>
<text text-anchor="start" x="787.88" y="-66" font-family="Helvetica,sans-Serif" font-size="10.00">xeno_rat_server.Compression.</text>
<text text-anchor="middle" x="854.25" y="-54.75" font-family="Helvetica,sans-Serif" font-size="10.00">LocalAlloc</text>
</a>
</g>
</g>
<!-- Node14&#45;&gt;Node15 -->
<g id="edge17_Node000014_Node000015" class="edge">
<title>Node14&#45;&gt;Node15</title>
<g id="a_edge17_Node000014_Node000015"><a xlink:title=" ">
<path fill="none" stroke="#63b8ff" d="M729.65,-79.28C742.27,-77.74 755.47,-76.14 768.35,-74.57"/>
<polygon fill="#63b8ff" stroke="#63b8ff" points="768.56,-78.07 778.06,-73.39 767.71,-71.13 768.56,-78.07"/>
</a>
</g>
</g>
<!-- Node16 -->
<g id="Node000016" class="node">
<title>Node16</title>
<g id="a_Node000016"><a xlink:href="classxeno__rat__server_1_1_compression.html#ab527e0a594d96bbaa1a4b1541888aa74" target="_top" xlink:title="Frees the memory block allocated by LocalAlloc and LocalReAlloc and invalidates the handle.">
<polygon fill="white" stroke="#666666" points="928.62,-30.5 779.88,-30.5 779.88,0 928.62,0 928.62,-30.5"/>
<text text-anchor="start" x="787.88" y="-17" font-family="Helvetica,sans-Serif" font-size="10.00">xeno_rat_server.Compression.</text>
<text text-anchor="middle" x="854.25" y="-5.75" font-family="Helvetica,sans-Serif" font-size="10.00">LocalFree</text>
</a>
</g>
</g>
<!-- Node14&#45;&gt;Node16 -->
<g id="edge18_Node000014_Node000016" class="edge">
<title>Node14&#45;&gt;Node16</title>
<g id="a_edge18_Node000014_Node000016"><a xlink:title=" ">
<path fill="none" stroke="#63b8ff" d="M709.55,-72.59C717.29,-69.78 725.06,-66.65 732.25,-63.25 749.41,-55.12 750.97,-48.12 768.25,-40.25 772.5,-38.31 776.94,-36.49 781.47,-34.77"/>
<polygon fill="#63b8ff" stroke="#63b8ff" points="782.46,-38.13 790.7,-31.46 780.1,-31.54 782.46,-38.13"/>
</a>
</g>
</g>
<!-- Node17 -->
<g id="Node000017" class="node">
<title>Node17</title>
<g id="a_Node000017"><a xlink:href="classxeno__rat__server_1_1_compression.html#a1f9bb20d96d13bdc4d0f90e2b68d4343" target="_top" xlink:title="Compresses the input buffer using the specified compression format and returns the compressed data in...">
<polygon fill="white" stroke="#666666" points="928.62,-177.5 779.88,-177.5 779.88,-147 928.62,-147 928.62,-177.5"/>
<text text-anchor="start" x="787.88" y="-164" font-family="Helvetica,sans-Serif" font-size="10.00">xeno_rat_server.Compression.</text>
<text text-anchor="middle" x="854.25" y="-152.75" font-family="Helvetica,sans-Serif" font-size="10.00">RtlCompressBuffer</text>
</a>
</g>
</g>
<!-- Node14&#45;&gt;Node17 -->
<g id="edge19_Node000014_Node000017" class="edge">
<title>Node14&#45;&gt;Node17</title>
<g id="a_edge19_Node000014_Node000017"><a xlink:title=" ">
<path fill="none" stroke="#63b8ff" d="M710.02,-103.93C717.61,-106.72 725.22,-109.84 732.25,-113.25 749.55,-121.65 750.83,-129.11 768.25,-137.25 772.29,-139.14 776.5,-140.92 780.8,-142.59"/>
<polygon fill="#63b8ff" stroke="#63b8ff" points="779.59,-145.87 790.18,-146.01 781.99,-139.3 779.59,-145.87"/>
</a>
</g>
</g>
<!-- Node18 -->
<g id="Node000018" class="node">
<title>Node18</title>
<g id="a_Node000018"><a xlink:href="classxeno__rat__server_1_1_compression.html#a5ca090d7b0887e40753bad9800c321e7" target="_top" xlink:title="Retrieves the size of the workspace required for compression.">
<polygon fill="white" stroke="#666666" points="940.25,-128.5 768.25,-128.5 768.25,-98 940.25,-98 940.25,-128.5"/>
<text text-anchor="start" x="776.25" y="-115" font-family="Helvetica,sans-Serif" font-size="10.00">xeno_rat_server.Compression.</text>
<text text-anchor="middle" x="854.25" y="-103.75" font-family="Helvetica,sans-Serif" font-size="10.00">RtlGetCompressionWorkSpaceSize</text>
</a>
</g>
</g>
<!-- Node14&#45;&gt;Node18 -->
<g id="edge20_Node000014_Node000018" class="edge">
<title>Node14&#45;&gt;Node18</title>
<g id="a_edge20_Node000014_Node000018"><a xlink:title=" ">
<path fill="none" stroke="#63b8ff" d="M729.65,-97.59C738.43,-98.71 747.49,-99.85 756.52,-101"/>
<polygon fill="#63b8ff" stroke="#63b8ff" points="756.07,-104.47 766.43,-102.25 756.95,-97.52 756.07,-104.47"/>
</a>
</g>
</g>
</g>
</svg>

<g id="navigator" transform="translate(0 0)" fill="#404254">
  <rect fill="#f2f5e9" fill-opacity="0.5" stroke="#606060" stroke-width=".5" x="0" y="0" width="60" height="60"/>
  <use id="zoomplus" xlink:href="#zoomPlus" x="17" y="9" onmousedown="handleZoom(evt,'in')"/>
  <use id="zoomminus" xlink:href="#zoomMin" x="42" y="9" onmousedown="handleZoom(evt,'out')"/>
  <use id="reset" xlink:href="#resetDef" x="30" y="36" onmousedown="handleReset()"/>
   <use id="arrowup" xlink:href="#arrowUp" x="0" y="0" onmousedown="handlePan(0,-1)"/>
  <use id="arrowright" xlink:href="#arrowRight" x="0" y="0" onmousedown="handlePan(1,0)"/>
  <use id="arrowdown" xlink:href="#arrowDown" x="0" y="0" onmousedown="handlePan(0,1)"/>
  <use id="arrowleft" xlink:href="#arrowLeft" x="0" y="0" onmousedown="handlePan(-1,0)"/>
</g>
<svg viewBox="0 0 15 15" width="100%" height="30px" preserveAspectRatio="xMaxYMin meet">
 <g id="arrow_out" transform="scale(0.3 0.3)">
  <a xlink:href="classxeno__rat__server_1_1_forms_1_1_registry___manager_aa9ecfddf2c18aeb2336ede9f3b876843_cgraph_org.svg" target="_base">
   <rect id="button" ry="5" rx="5" y="6" x="6" height="38" width="38"
        fill="#f2f5e9" fill-opacity="0.5" stroke="#606060" stroke-width="1.0"/>
   <path id="arrow"
     d="M 11.500037,31.436501 C 11.940474,20.09759 22.043105,11.32322 32.158766,21.979434 L 37.068811,17.246167 C 37.068811,17.246167 37.088388,32 37.088388,32 L 22.160133,31.978069 C 22.160133,31.978069 26.997745,27.140456 26.997745,27.140456 C 18.528582,18.264221 13.291696,25.230495 11.500037,31.436501 z"
     style="fill:#404040;"/>
  </a>
 </g>
</svg>

<style type='text/css'>
<![CDATA[
[data-mouse-over-selected='false'] { opacity: 0.7; }
[data-mouse-over-selected='true']  { opacity: 1.0; }
]]>
</style>
<script type="application/ecmascript"><![CDATA[
document.addEventListener('DOMContentLoaded', (event) => {
  highlightEdges();
  highlightAdjacentNodes();
});
]]></script>
</svg>
