<?xml version="1.0" encoding="UTF-8" standalone="no"?>
<!DOCTYPE svg PUBLIC "-//W3C//DTD SVG 1.1//EN"
 "http://www.w3.org/Graphics/SVG/1.1/DTD/svg11.dtd">
<!-- Generated by graphviz version 10.0.1 (20240210.2158)
 -->
<!-- Title: xeno_rat_server.Forms.File_manager Pages: 1 -->
<!--zoomable 1391 -->

<svg id="main" version="1.1" xmlns="http://www.w3.org/2000/svg" xmlns:xlink="http://www.w3.org/1999/xlink" xml:space="preserve" onload="init(evt)">
<style type="text/css"><![CDATA[
.node, .edge {opacity: 0.7;}
.node.selected, .edge.selected {opacity: 1;}
.edge:hover path { stroke: red; }
.edge:hover polygon { stroke: red; fill: red; }
]]></style>

<defs>
  <circle id="rim" cx="0" cy="0" r="7"/>
  <circle id="rim2" cx="0" cy="0" r="3.5"/>
  <g id="zoomPlus">
    <use xlink:href="#rim" fill="#404040"><set attributeName="fill" to="#808080" begin="zoomplus.mouseover" end="zoomplus.mouseout"/></use>
    <path d="M-4,0h8M0,-4v8" fill="none" stroke="white" stroke-width="1.5" pointer-events="none"/>
  </g>
  <g id="zoomMin">
    <use xlink:href="#rim" fill="#404040"><set attributeName="fill" to="#808080" begin="zoomminus.mouseover" end="zoomminus.mouseout"/></use>
    <path d="M-4,0h8" fill="none" stroke="white" stroke-width="1.5" pointer-events="none"/>
  </g>
  <g id="arrowUp" transform="translate(30 24)">
    <use xlink:href="#rim"/>
    <path pointer-events="none" fill="none" stroke="white" stroke-width="1.5" d="M0,-3.0v7 M-2.5,-0.5L0,-3.0L2.5,-0.5"/>
  </g>
  <g id="arrowRight" transform="rotate(90) translate(36 -43)">
    <use xlink:href="#rim"/>
    <path pointer-events="none" fill="none" stroke="white" stroke-width="1.5" d="M0,-3.0v7 M-2.5,-0.5L0,-3.0L2.5,-0.5"/>
  </g>
  <g id="arrowDown" transform="rotate(180) translate(-30 -48)">
    <use xlink:href="#rim"/>
    <path pointer-events="none" fill="none" stroke="white" stroke-width="1.5" d="M0,-3.0v7 M-2.5,-0.5L0,-3.0L2.5,-0.5"/>
  </g>
  <g id="arrowLeft" transform="rotate(270) translate(-36 17)">
    <use xlink:href="#rim"/>
    <path pointer-events="none" fill="none" stroke="white" stroke-width="1.5" d="M0,-3.0v7 M-2.5,-0.5L0,-3.0L2.5,-0.5"/>
  </g>
  <g id="resetDef">
    <use xlink:href="#rim2" fill="#404040"><set attributeName="fill" to="#808080" begin="reset.mouseover" end="reset.mouseout"/></use>
  </g>
</defs>
<script type="application/ecmascript">
var viewWidth = 1144;
var viewHeight = 1391;
var sectionId = 'dynsection-1';
</script>
<script type="application/ecmascript" xlink:href="svg.min.js"/>
<svg id="graph" class="graph">
<g id="viewport">
<title>xeno_rat_server.Forms.File_manager</title>
<!-- Node1 -->
<g id="Node000001" class="node">
<title>Node1</title>
<g id="a_Node000001"><a xlink:title=" ">
<polygon fill="#999999" stroke="none" points="792.5,-435 622.5,-435 622.5,0 792.5,0 792.5,-435"/>
<text text-anchor="start" x="648.25" y="-421.5" font-family="Helvetica,sans-Serif" font-size="10.00">xeno_rat_server.Forms.File</text>
<text text-anchor="start" x="686.12" y="-410.25" font-family="Helvetica,sans-Serif" font-size="10.00">_manager</text>
<text text-anchor="start" x="628" y="-395.5" font-family="Helvetica,sans-Serif" font-size="10.00">&#45;</text>
<text text-anchor="start" x="636.5" y="-395.5" font-family="Helvetica,sans-Serif" font-size="10.00">tabControl1</text>
<text text-anchor="start" x="628" y="-380.5" font-family="Helvetica,sans-Serif" font-size="10.00">&#45;</text>
<text text-anchor="start" x="636.5" y="-380.5" font-family="Helvetica,sans-Serif" font-size="10.00">tabPage1</text>
<text text-anchor="start" x="628" y="-365.5" font-family="Helvetica,sans-Serif" font-size="10.00">&#45;</text>
<text text-anchor="start" x="636.5" y="-365.5" font-family="Helvetica,sans-Serif" font-size="10.00">listView1</text>
<text text-anchor="start" x="628" y="-350.5" font-family="Helvetica,sans-Serif" font-size="10.00">&#45;</text>
<text text-anchor="start" x="636.5" y="-350.5" font-family="Helvetica,sans-Serif" font-size="10.00">tabPage2</text>
<text text-anchor="start" x="628" y="-335.5" font-family="Helvetica,sans-Serif" font-size="10.00">&#45;</text>
<text text-anchor="start" x="636.5" y="-335.5" font-family="Helvetica,sans-Serif" font-size="10.00">textBox1</text>
<text text-anchor="start" x="628" y="-320.5" font-family="Helvetica,sans-Serif" font-size="10.00">&#45;</text>
<text text-anchor="start" x="636.5" y="-320.5" font-family="Helvetica,sans-Serif" font-size="10.00">listView2</text>
<text text-anchor="start" x="626.5" y="-305.5" font-family="Helvetica,sans-Serif" font-size="10.00">+</text>
<text text-anchor="start" x="636.5" y="-305.5" font-family="Helvetica,sans-Serif" font-size="10.00">File_manager()</text>
<text text-anchor="start" x="626.5" y="-290.5" font-family="Helvetica,sans-Serif" font-size="10.00">+</text>
<text text-anchor="start" x="636.5" y="-290.5" font-family="Helvetica,sans-Serif" font-size="10.00">InitializeAsync()</text>
<text text-anchor="start" x="626.5" y="-275.5" font-family="Helvetica,sans-Serif" font-size="10.00">+</text>
<text text-anchor="start" x="636.5" y="-275.5" font-family="Helvetica,sans-Serif" font-size="10.00">TempOnDisconnect()</text>
<text text-anchor="start" x="626.5" y="-260.5" font-family="Helvetica,sans-Serif" font-size="10.00">+</text>
<text text-anchor="start" x="636.5" y="-260.5" font-family="Helvetica,sans-Serif" font-size="10.00">FileUpload()</text>
<text text-anchor="start" x="626.5" y="-245.5" font-family="Helvetica,sans-Serif" font-size="10.00">+</text>
<text text-anchor="start" x="636.5" y="-245.5" font-family="Helvetica,sans-Serif" font-size="10.00">FileDownload()</text>
<text text-anchor="start" x="626.5" y="-230.5" font-family="Helvetica,sans-Serif" font-size="10.00">+</text>
<text text-anchor="start" x="636.5" y="-230.5" font-family="Helvetica,sans-Serif" font-size="10.00">StartFile()</text>
<text text-anchor="start" x="626.5" y="-215.5" font-family="Helvetica,sans-Serif" font-size="10.00">+</text>
<text text-anchor="start" x="636.5" y="-215.5" font-family="Helvetica,sans-Serif" font-size="10.00">DeleteFile()</text>
<text text-anchor="start" x="626.88" y="-200.5" font-family="Helvetica,sans-Serif" font-size="10.00">#</text>
<text text-anchor="start" x="636.5" y="-200.5" font-family="Helvetica,sans-Serif" font-size="10.00">Dispose()</text>
<text text-anchor="start" x="628" y="-185.5" font-family="Helvetica,sans-Serif" font-size="10.00">&#45;</text>
<text text-anchor="start" x="636.5" y="-185.5" font-family="Helvetica,sans-Serif" font-size="10.00">UpdateListViewNonInvoke()</text>
<text text-anchor="start" x="628" y="-170.5" font-family="Helvetica,sans-Serif" font-size="10.00">&#45;</text>
<text text-anchor="start" x="636.5" y="-170.5" font-family="Helvetica,sans-Serif" font-size="10.00">CreateSubSubNode()</text>
<text text-anchor="start" x="628" y="-155.5" font-family="Helvetica,sans-Serif" font-size="10.00">&#45;</text>
<text text-anchor="start" x="636.5" y="-155.5" font-family="Helvetica,sans-Serif" font-size="10.00">listView1_SelectedIndexChanged()</text>
<text text-anchor="start" x="628" y="-140.5" font-family="Helvetica,sans-Serif" font-size="10.00">&#45;</text>
<text text-anchor="start" x="636.5" y="-140.5" font-family="Helvetica,sans-Serif" font-size="10.00">listView1_MouseDoubleClick()</text>
<text text-anchor="start" x="628" y="-125.5" font-family="Helvetica,sans-Serif" font-size="10.00">&#45;</text>
<text text-anchor="start" x="636.5" y="-125.5" font-family="Helvetica,sans-Serif" font-size="10.00">textBox1_KeyDown()</text>
<text text-anchor="start" x="628" y="-110.5" font-family="Helvetica,sans-Serif" font-size="10.00">&#45;</text>
<text text-anchor="start" x="636.5" y="-110.5" font-family="Helvetica,sans-Serif" font-size="10.00">listView2_SelectedIndexChanged()</text>
<text text-anchor="start" x="628" y="-95.5" font-family="Helvetica,sans-Serif" font-size="10.00">&#45;</text>
<text text-anchor="start" x="636.5" y="-95.5" font-family="Helvetica,sans-Serif" font-size="10.00">DownloadMenuItem_Click()</text>
<text text-anchor="start" x="628" y="-80.5" font-family="Helvetica,sans-Serif" font-size="10.00">&#45;</text>
<text text-anchor="start" x="636.5" y="-80.5" font-family="Helvetica,sans-Serif" font-size="10.00">OpenMenuItem_Click()</text>
<text text-anchor="start" x="628" y="-65.5" font-family="Helvetica,sans-Serif" font-size="10.00">&#45;</text>
<text text-anchor="start" x="636.5" y="-65.5" font-family="Helvetica,sans-Serif" font-size="10.00">DeleteMenuItem_Click()</text>
<text text-anchor="start" x="628" y="-50.5" font-family="Helvetica,sans-Serif" font-size="10.00">&#45;</text>
<text text-anchor="start" x="636.5" y="-50.5" font-family="Helvetica,sans-Serif" font-size="10.00">listView1_MouseClick()</text>
<text text-anchor="start" x="628" y="-35.5" font-family="Helvetica,sans-Serif" font-size="10.00">&#45;</text>
<text text-anchor="start" x="636.5" y="-35.5" font-family="Helvetica,sans-Serif" font-size="10.00">button1_Click()</text>
<text text-anchor="start" x="628" y="-20.5" font-family="Helvetica,sans-Serif" font-size="10.00">&#45;</text>
<text text-anchor="start" x="636.5" y="-20.5" font-family="Helvetica,sans-Serif" font-size="10.00">button2_Click()</text>
<text text-anchor="start" x="628" y="-5.5" font-family="Helvetica,sans-Serif" font-size="10.00">&#45;</text>
<text text-anchor="start" x="636.5" y="-5.5" font-family="Helvetica,sans-Serif" font-size="10.00">InitializeComponent()</text>
<polygon fill="#666666" stroke="#666666" points="622.5,-407 622.5,-407 792.5,-407 792.5,-407 622.5,-407"/>
<polygon fill="#666666" stroke="#666666" points="622.5,-317 622.5,-317 634.5,-317 634.5,-317 622.5,-317"/>
<polygon fill="#666666" stroke="#666666" points="634.5,-317 634.5,-317 792.5,-317 792.5,-317 634.5,-317"/>
<polygon fill="none" stroke="#666666" points="622.5,0 622.5,-435 792.5,-435 792.5,0 622.5,0"/>
</a>
</g>
</g>
<!-- Node2 -->
<g id="Node000002" class="node">
<title>Node2</title>
<g id="a_Node000002"><a xlink:href="class_form.html" target="_top" xlink:title=" ">
<polygon fill="white" stroke="none" points="549.5,-658.75 517.5,-658.75 517.5,-609.75 549.5,-609.75 549.5,-658.75"/>
<text text-anchor="start" x="522.25" y="-645.25" font-family="Helvetica,sans-Serif" font-size="10.00">Form</text>
<text text-anchor="start" x="532" y="-630.25" font-family="Helvetica,sans-Serif" font-size="10.00"> </text>
<text text-anchor="start" x="532" y="-615.25" font-family="Helvetica,sans-Serif" font-size="10.00"> </text>
<polygon fill="#666666" stroke="#666666" points="517.5,-641.75 517.5,-641.75 549.5,-641.75 549.5,-641.75 517.5,-641.75"/>
<polygon fill="#666666" stroke="#666666" points="517.5,-626.75 517.5,-626.75 549.5,-626.75 549.5,-626.75 517.5,-626.75"/>
<polygon fill="none" stroke="#666666" points="517.5,-609.75 517.5,-658.75 549.5,-658.75 549.5,-609.75 517.5,-609.75"/>
</a>
</g>
</g>
<!-- Node2&#45;&gt;Node1 -->
<g id="edge1_Node000001_Node000002" class="edge">
<title>Node2&#45;&gt;Node1</title>
<g id="a_edge1_Node000001_Node000002"><a xlink:title=" ">
<path fill="none" stroke="#63b8ff" d="M537.47,-598.66C542.48,-561.67 552.77,-501.76 571.5,-453 585.08,-417.63 603.57,-381.32 622.54,-348.15"/>
<polygon fill="none" stroke="#63b8ff" points="534.03,-597.95 536.22,-608.32 540.98,-598.85 534.03,-597.95"/>
</a>
</g>
</g>
<!-- Node3 -->
<g id="Node000003" class="node">
<title>Node3</title>
<g id="a_Node000003"><a xlink:href="classxeno__rat__server_1_1_node.html" target="_top" xlink:title=" ">
<polygon fill="white" stroke="none" points="675,-1025 528,-1025 528,-721 675,-721 675,-1025"/>
<text text-anchor="start" x="553.88" y="-1011.5" font-family="Helvetica,sans-Serif" font-size="10.00">xeno_rat_server.Node</text>
<text text-anchor="start" x="600" y="-996.5" font-family="Helvetica,sans-Serif" font-size="10.00"> </text>
<text text-anchor="start" x="532" y="-981.5" font-family="Helvetica,sans-Serif" font-size="10.00">+</text>
<text text-anchor="start" x="542" y="-981.5" font-family="Helvetica,sans-Serif" font-size="10.00">Node()</text>
<text text-anchor="start" x="532" y="-966.5" font-family="Helvetica,sans-Serif" font-size="10.00">+</text>
<text text-anchor="start" x="542" y="-966.5" font-family="Helvetica,sans-Serif" font-size="10.00">SetID()</text>
<text text-anchor="start" x="532" y="-951.5" font-family="Helvetica,sans-Serif" font-size="10.00">+</text>
<text text-anchor="start" x="542" y="-951.5" font-family="Helvetica,sans-Serif" font-size="10.00">Disconnect()</text>
<text text-anchor="start" x="532" y="-936.5" font-family="Helvetica,sans-Serif" font-size="10.00">+</text>
<text text-anchor="start" x="542" y="-936.5" font-family="Helvetica,sans-Serif" font-size="10.00">SetRecvTimeout()</text>
<text text-anchor="start" x="532" y="-921.5" font-family="Helvetica,sans-Serif" font-size="10.00">+</text>
<text text-anchor="start" x="542" y="-921.5" font-family="Helvetica,sans-Serif" font-size="10.00">ResetRecvTimeout()</text>
<text text-anchor="start" x="532" y="-906.5" font-family="Helvetica,sans-Serif" font-size="10.00">+</text>
<text text-anchor="start" x="542" y="-906.5" font-family="Helvetica,sans-Serif" font-size="10.00">Connected()</text>
<text text-anchor="start" x="532" y="-891.5" font-family="Helvetica,sans-Serif" font-size="10.00">+</text>
<text text-anchor="start" x="542" y="-891.5" font-family="Helvetica,sans-Serif" font-size="10.00">ReceiveAsync()</text>
<text text-anchor="start" x="532" y="-876.5" font-family="Helvetica,sans-Serif" font-size="10.00">+</text>
<text text-anchor="start" x="542" y="-876.5" font-family="Helvetica,sans-Serif" font-size="10.00">SendAsync()</text>
<text text-anchor="start" x="532" y="-861.5" font-family="Helvetica,sans-Serif" font-size="10.00">+</text>
<text text-anchor="start" x="542" y="-861.5" font-family="Helvetica,sans-Serif" font-size="10.00">GetIp()</text>
<text text-anchor="start" x="532" y="-846.5" font-family="Helvetica,sans-Serif" font-size="10.00">+</text>
<text text-anchor="start" x="542" y="-846.5" font-family="Helvetica,sans-Serif" font-size="10.00">CreateSubNodeAsync()</text>
<text text-anchor="start" x="532" y="-831.5" font-family="Helvetica,sans-Serif" font-size="10.00">+</text>
<text text-anchor="start" x="542" y="-831.5" font-family="Helvetica,sans-Serif" font-size="10.00">AddTempOnDisconnect()</text>
<text text-anchor="start" x="532" y="-816.5" font-family="Helvetica,sans-Serif" font-size="10.00">+</text>
<text text-anchor="start" x="542" y="-816.5" font-family="Helvetica,sans-Serif" font-size="10.00">RemoveTempOnDisconnect()</text>
<text text-anchor="start" x="532" y="-801.5" font-family="Helvetica,sans-Serif" font-size="10.00">+</text>
<text text-anchor="start" x="542" y="-801.5" font-family="Helvetica,sans-Serif" font-size="10.00">AddSubNode()</text>
<text text-anchor="start" x="532" y="-786.5" font-family="Helvetica,sans-Serif" font-size="10.00">+</text>
<text text-anchor="start" x="542" y="-786.5" font-family="Helvetica,sans-Serif" font-size="10.00">AuthenticateAsync()</text>
<text text-anchor="start" x="533.5" y="-771.5" font-family="Helvetica,sans-Serif" font-size="10.00">&#45;</text>
<text text-anchor="start" x="542" y="-771.5" font-family="Helvetica,sans-Serif" font-size="10.00">memcmp()</text>
<text text-anchor="start" x="533.5" y="-756.5" font-family="Helvetica,sans-Serif" font-size="10.00">&#45;</text>
<text text-anchor="start" x="542" y="-756.5" font-family="Helvetica,sans-Serif" font-size="10.00">GetByteArray()</text>
<text text-anchor="start" x="533.5" y="-741.5" font-family="Helvetica,sans-Serif" font-size="10.00">&#45;</text>
<text text-anchor="start" x="542" y="-741.5" font-family="Helvetica,sans-Serif" font-size="10.00">ByteArrayCompare()</text>
<text text-anchor="start" x="533.5" y="-726.5" font-family="Helvetica,sans-Serif" font-size="10.00">&#45;</text>
<text text-anchor="start" x="542" y="-726.5" font-family="Helvetica,sans-Serif" font-size="10.00">GetSocketType()</text>
<polygon fill="#666666" stroke="#666666" points="528,-1008 528,-1008 675,-1008 675,-1008 528,-1008"/>
<polygon fill="#666666" stroke="#666666" points="528,-993 528,-993 675,-993 675,-993 528,-993"/>
<polygon fill="none" stroke="#666666" points="528,-721 528,-1025 675,-1025 675,-721 528,-721"/>
</a>
</g>
</g>
<!-- Node3&#45;&gt;Node1 -->
<g id="edge2_Node000001_Node000003" class="edge">
<title>Node3&#45;&gt;Node1</title>
<g id="a_edge2_Node000001_Node000003"><a xlink:title=" ">
<path fill="none" stroke="#63b8ff" d="M595.4,-721.02C594.93,-705.06 594.53,-689.07 594.25,-673.75 593.61,-638.64 589.14,-629.49 594.25,-594.75 601.38,-546.32 613.41,-495.49 627.03,-447.39"/>
<polygon fill="none" stroke="#63b8ff" points="627.06,-447.3 624.87,-440.43 630.38,-435.76 632.56,-442.64 627.06,-447.3"/>
</a>
</g>
<text text-anchor="middle" x="609.12" y="-630.38" font-family="Helvetica,sans-Serif" font-size="10.00" fill="grey"> &#45;client</text>
</g>
<!-- Node3&#45;&gt;Node3 -->
<g id="edge14_Node000003_Node000003" class="edge">
<title>Node3&#45;&gt;Node3</title>
<g id="a_edge14_Node000003_Node000003"><a xlink:title=" ">
<path fill="none" stroke="#63b8ff" d="M674.73,-902.87C685.63,-898.22 693,-888.26 693,-873 693,-863.46 690.12,-855.99 685.3,-850.6"/>
<polygon fill="none" stroke="#63b8ff" points="685.26,-850.57 678.05,-850.38 675.46,-843.65 682.67,-843.84 685.26,-850.57"/>
</a>
</g>
<text text-anchor="middle" x="711.75" y="-869.12" font-family="Helvetica,sans-Serif" font-size="10.00" fill="grey"> +Parent</text>
</g>
<!-- Node14 -->
<g id="Node000014" class="node">
<title>Node14</title>
<g id="a_Node000014"><a xlink:href="classxeno__rat__server_1_1_forms_1_1_file_view.html" target="_top" xlink:title=" ">
<polygon fill="white" stroke="none" points="782.5,-673.75 632.5,-673.75 632.5,-594.75 782.5,-594.75 782.5,-673.75"/>
<text text-anchor="start" x="637.38" y="-660.25" font-family="Helvetica,sans-Serif" font-size="10.00">xeno_rat_server.Forms.FileView</text>
<text text-anchor="start" x="706" y="-645.25" font-family="Helvetica,sans-Serif" font-size="10.00"> </text>
<text text-anchor="start" x="657" y="-630.25" font-family="Helvetica,sans-Serif" font-size="10.00">+</text>
<text text-anchor="start" x="687.5" y="-630.25" font-family="Helvetica,sans-Serif" font-size="10.00">FileView()</text>
<text text-anchor="start" x="657" y="-615.25" font-family="Helvetica,sans-Serif" font-size="10.00">+</text>
<text text-anchor="start" x="687.5" y="-615.25" font-family="Helvetica,sans-Serif" font-size="10.00">SendType()</text>
<text text-anchor="start" x="657" y="-600.25" font-family="Helvetica,sans-Serif" font-size="10.00">+</text>
<text text-anchor="start" x="687.5" y="-600.25" font-family="Helvetica,sans-Serif" font-size="10.00">GetInfo()</text>
<polygon fill="#666666" stroke="#666666" points="632.5,-656.75 632.5,-656.75 782.5,-656.75 782.5,-656.75 632.5,-656.75"/>
<polygon fill="#666666" stroke="#666666" points="632.5,-641.75 632.5,-641.75 782.5,-641.75 782.5,-641.75 632.5,-641.75"/>
<polygon fill="none" stroke="#666666" points="632.5,-594.75 632.5,-673.75 782.5,-673.75 782.5,-594.75 632.5,-594.75"/>
</a>
</g>
</g>
<!-- Node3&#45;&gt;Node14 -->
<g id="edge17_Node000014_Node000003" class="edge">
<title>Node3&#45;&gt;Node14</title>
<g id="a_edge17_Node000014_Node000003"><a xlink:title=" ">
<path fill="none" stroke="#63b8ff" d="M669.08,-721.06C674.76,-708.37 680.2,-696.23 685.1,-685.28"/>
<polygon fill="none" stroke="#63b8ff" points="685.12,-685.23 683.92,-678.12 690.03,-674.28 691.23,-681.39 685.12,-685.23"/>
</a>
</g>
<text text-anchor="middle" x="697.62" y="-693.5" font-family="Helvetica,sans-Serif" font-size="10.00" fill="grey"> +client</text>
</g>
<!-- Node4 -->
<g id="Node000004" class="node">
<title>Node4</title>
<g id="a_Node000004"><a xlink:title=" ">
<polygon fill="white" stroke="none" points="79,-1203.75 0,-1203.75 0,-1154.75 79,-1154.75 79,-1203.75"/>
<text text-anchor="start" x="5" y="-1190.25" font-family="Helvetica,sans-Serif" font-size="10.00">SemaphoreSlim</text>
<text text-anchor="start" x="38" y="-1175.25" font-family="Helvetica,sans-Serif" font-size="10.00"> </text>
<text text-anchor="start" x="38" y="-1160.25" font-family="Helvetica,sans-Serif" font-size="10.00"> </text>
<polygon fill="#666666" stroke="#666666" points="0,-1186.75 0,-1186.75 79,-1186.75 79,-1186.75 0,-1186.75"/>
<polygon fill="#666666" stroke="#666666" points="0,-1171.75 0,-1171.75 79,-1171.75 79,-1171.75 0,-1171.75"/>
<polygon fill="none" stroke="#666666" points="0,-1154.75 0,-1203.75 79,-1203.75 79,-1154.75 0,-1154.75"/>
</a>
</g>
</g>
<!-- Node4&#45;&gt;Node3 -->
<g id="edge3_Node000003_Node000004" class="edge">
<title>Node4&#45;&gt;Node3</title>
<g id="a_edge3_Node000003_Node000004"><a xlink:title=" ">
<path fill="none" stroke="#63b8ff" d="M32.05,-1154.81C24.32,-1125.55 16.44,-1075.4 40.75,-1043 98.06,-966.62 373.14,-911.34 515.58,-887.32"/>
<polygon fill="none" stroke="#63b8ff" points="515.38,-887.35 520.64,-882.42 527.22,-885.38 521.96,-890.31 515.38,-887.35"/>
</a>
</g>
<text text-anchor="middle" x="89.88" y="-1044.75" font-family="Helvetica,sans-Serif" font-size="10.00" fill="grey"> &#45;OneRecieveAtATime</text>
</g>
<!-- Node5 -->
<g id="Node000005" class="node">
<title>Node5</title>
<g id="a_Node000005"><a xlink:title=" ">
<polygon fill="white" stroke="none" points="182.5,-1382.5 154.5,-1382.5 154.5,-1333.5 182.5,-1333.5 182.5,-1382.5"/>
<text text-anchor="start" x="159.5" y="-1369" font-family="Helvetica,sans-Serif" font-size="10.00">bool</text>
<text text-anchor="start" x="167" y="-1354" font-family="Helvetica,sans-Serif" font-size="10.00"> </text>
<text text-anchor="start" x="167" y="-1339" font-family="Helvetica,sans-Serif" font-size="10.00"> </text>
<polygon fill="#666666" stroke="#666666" points="154.5,-1365.5 154.5,-1365.5 182.5,-1365.5 182.5,-1365.5 154.5,-1365.5"/>
<polygon fill="#666666" stroke="#666666" points="154.5,-1350.5 154.5,-1350.5 182.5,-1350.5 182.5,-1350.5 154.5,-1350.5"/>
<polygon fill="none" stroke="#666666" points="154.5,-1333.5 154.5,-1382.5 182.5,-1382.5 182.5,-1333.5 154.5,-1333.5"/>
</a>
</g>
</g>
<!-- Node5&#45;&gt;Node3 -->
<g id="edge4_Node000003_Node000005" class="edge">
<title>Node5&#45;&gt;Node3</title>
<g id="a_edge4_Node000003_Node000005"><a xlink:title=" ">
<path fill="none" stroke="#63b8ff" d="M164.98,-1333.74C158.4,-1281.57 149.7,-1153.44 207.75,-1072.25 281.19,-969.53 423.52,-916.86 515.43,-892.4"/>
<polygon fill="none" stroke="#63b8ff" points="515.57,-892.37 520.37,-886.99 527.18,-889.36 522.38,-894.74 515.57,-892.37"/>
</a>
</g>
<text text-anchor="middle" x="237.38" y="-1175.38" font-family="Helvetica,sans-Serif" font-size="10.00" fill="grey"> +isDisposed</text>
</g>
<!-- Node10 -->
<g id="Node000010" class="node">
<title>Node10</title>
<g id="a_Node000010"><a xlink:href="classxeno__rat__server_1_1_socket_handler.html" target="_top" xlink:title=" ">
<polygon fill="white" stroke="none" points="424.5,-1286.25 274.5,-1286.25 274.5,-1072.25 424.5,-1072.25 424.5,-1286.25"/>
<text text-anchor="start" x="281.25" y="-1272.75" font-family="Helvetica,sans-Serif" font-size="10.00">xeno_rat_server.SocketHandler</text>
<text text-anchor="start" x="348" y="-1257.75" font-family="Helvetica,sans-Serif" font-size="10.00"> </text>
<text text-anchor="start" x="278.5" y="-1242.75" font-family="Helvetica,sans-Serif" font-size="10.00">+</text>
<text text-anchor="start" x="288.5" y="-1242.75" font-family="Helvetica,sans-Serif" font-size="10.00">SocketHandler()</text>
<text text-anchor="start" x="278.5" y="-1227.75" font-family="Helvetica,sans-Serif" font-size="10.00">+</text>
<text text-anchor="start" x="288.5" y="-1227.75" font-family="Helvetica,sans-Serif" font-size="10.00">SendAsync()</text>
<text text-anchor="start" x="278.5" y="-1212.75" font-family="Helvetica,sans-Serif" font-size="10.00">+</text>
<text text-anchor="start" x="288.5" y="-1212.75" font-family="Helvetica,sans-Serif" font-size="10.00">ReceiveAsync()</text>
<text text-anchor="start" x="278.5" y="-1197.75" font-family="Helvetica,sans-Serif" font-size="10.00">+</text>
<text text-anchor="start" x="288.5" y="-1197.75" font-family="Helvetica,sans-Serif" font-size="10.00">Concat()</text>
<text text-anchor="start" x="278.5" y="-1182.75" font-family="Helvetica,sans-Serif" font-size="10.00">+</text>
<text text-anchor="start" x="288.5" y="-1182.75" font-family="Helvetica,sans-Serif" font-size="10.00">BTruncate()</text>
<text text-anchor="start" x="278.5" y="-1167.75" font-family="Helvetica,sans-Serif" font-size="10.00">+</text>
<text text-anchor="start" x="288.5" y="-1167.75" font-family="Helvetica,sans-Serif" font-size="10.00">BytesToInt()</text>
<text text-anchor="start" x="278.5" y="-1152.75" font-family="Helvetica,sans-Serif" font-size="10.00">+</text>
<text text-anchor="start" x="288.5" y="-1152.75" font-family="Helvetica,sans-Serif" font-size="10.00">IntToBytes()</text>
<text text-anchor="start" x="278.5" y="-1137.75" font-family="Helvetica,sans-Serif" font-size="10.00">+</text>
<text text-anchor="start" x="288.5" y="-1137.75" font-family="Helvetica,sans-Serif" font-size="10.00">SetRecvTimeout()</text>
<text text-anchor="start" x="278.5" y="-1122.75" font-family="Helvetica,sans-Serif" font-size="10.00">+</text>
<text text-anchor="start" x="288.5" y="-1122.75" font-family="Helvetica,sans-Serif" font-size="10.00">ResetRecvTimeout()</text>
<text text-anchor="start" x="280" y="-1107.75" font-family="Helvetica,sans-Serif" font-size="10.00">&#45;</text>
<text text-anchor="start" x="288.5" y="-1107.75" font-family="Helvetica,sans-Serif" font-size="10.00">RecvAllAsync_ddos_unsafer()</text>
<text text-anchor="start" x="280" y="-1092.75" font-family="Helvetica,sans-Serif" font-size="10.00">&#45;</text>
<text text-anchor="start" x="288.5" y="-1092.75" font-family="Helvetica,sans-Serif" font-size="10.00">RecvAllAsync_ddos_safer()</text>
<text text-anchor="start" x="280" y="-1077.75" font-family="Helvetica,sans-Serif" font-size="10.00">&#45;</text>
<text text-anchor="start" x="288.5" y="-1077.75" font-family="Helvetica,sans-Serif" font-size="10.00">ParseHeader()</text>
<polygon fill="#666666" stroke="#666666" points="274.5,-1269.25 274.5,-1269.25 424.5,-1269.25 424.5,-1269.25 274.5,-1269.25"/>
<polygon fill="#666666" stroke="#666666" points="274.5,-1254.25 274.5,-1254.25 424.5,-1254.25 424.5,-1254.25 274.5,-1254.25"/>
<polygon fill="none" stroke="#666666" points="274.5,-1072.25 274.5,-1286.25 424.5,-1286.25 424.5,-1072.25 274.5,-1072.25"/>
</a>
</g>
</g>
<!-- Node5&#45;&gt;Node10 -->
<g id="edge13_Node000010_Node000005" class="edge">
<title>Node5&#45;&gt;Node10</title>
<g id="a_edge13_Node000010_Node000005"><a xlink:title=" ">
<path fill="none" stroke="#63b8ff" d="M182.36,-1340.98C191.71,-1330.35 204.45,-1316.21 216.25,-1304.25 231.88,-1288.4 249.01,-1271.88 265.61,-1256.26"/>
<polygon fill="none" stroke="#63b8ff" points="265.35,-1256.51 267,-1249.49 274.11,-1248.31 272.47,-1255.33 265.35,-1256.51"/>
</a>
</g>
<text text-anchor="middle" x="261.12" y="-1306" font-family="Helvetica,sans-Serif" font-size="10.00" fill="grey"> &#45;doProtocolUpgrade</text>
</g>
<!-- Node6 -->
<g id="Node000006" class="node">
<title>Node6</title>
<g id="a_Node000006"><a xlink:title=" ">
<polygon fill="white" stroke="none" points="739.5,-1209.25 621.5,-1209.25 621.5,-1149.25 739.5,-1149.25 739.5,-1209.25"/>
<text text-anchor="start" x="626.12" y="-1195.75" font-family="Helvetica,sans-Serif" font-size="10.00">Action&lt; xeno_rat_server.</text>
<text text-anchor="start" x="664.38" y="-1184.5" font-family="Helvetica,sans-Serif" font-size="10.00">Node &gt;</text>
<text text-anchor="start" x="679" y="-1169.75" font-family="Helvetica,sans-Serif" font-size="10.00"> </text>
<text text-anchor="start" x="679" y="-1154.75" font-family="Helvetica,sans-Serif" font-size="10.00"> </text>
<polygon fill="#666666" stroke="#666666" points="621.5,-1181.25 621.5,-1181.25 739.5,-1181.25 739.5,-1181.25 621.5,-1181.25"/>
<polygon fill="#666666" stroke="#666666" points="621.5,-1166.25 621.5,-1166.25 739.5,-1166.25 739.5,-1166.25 621.5,-1166.25"/>
<polygon fill="none" stroke="#666666" points="621.5,-1149.25 621.5,-1209.25 739.5,-1209.25 739.5,-1149.25 621.5,-1149.25"/>
</a>
</g>
</g>
<!-- Node6&#45;&gt;Node3 -->
<g id="edge5_Node000003_Node000006" class="edge">
<title>Node6&#45;&gt;Node3</title>
<g id="a_edge5_Node000003_Node000006"><a xlink:title=" ">
<path fill="none" stroke="#63b8ff" d="M673,-1149.35C666.06,-1122.63 655.15,-1080.63 643.93,-1037.4"/>
<polygon fill="none" stroke="#63b8ff" points="643.92,-1037.37 638.54,-1032.57 640.9,-1025.76 646.28,-1030.56 643.92,-1037.37"/>
</a>
</g>
<text text-anchor="middle" x="682.62" y="-1044.75" font-family="Helvetica,sans-Serif" font-size="10.00" fill="grey"> &#45;OnDisconnect</text>
</g>
<!-- Node7 -->
<g id="Node000007" class="node">
<title>Node7</title>
<g id="a_Node000007"><a xlink:title=" ">
<polygon fill="white" stroke="none" points="859.5,-1209.25 757.5,-1209.25 757.5,-1149.25 859.5,-1149.25 859.5,-1209.25"/>
<text text-anchor="start" x="762.38" y="-1195.75" font-family="Helvetica,sans-Serif" font-size="10.00">List&lt; Action&lt; xeno</text>
<text text-anchor="start" x="762.38" y="-1184.5" font-family="Helvetica,sans-Serif" font-size="10.00">_rat_server.Node &gt; &gt;</text>
<text text-anchor="start" x="807" y="-1169.75" font-family="Helvetica,sans-Serif" font-size="10.00"> </text>
<text text-anchor="start" x="807" y="-1154.75" font-family="Helvetica,sans-Serif" font-size="10.00"> </text>
<polygon fill="#666666" stroke="#666666" points="757.5,-1181.25 757.5,-1181.25 859.5,-1181.25 859.5,-1181.25 757.5,-1181.25"/>
<polygon fill="#666666" stroke="#666666" points="757.5,-1166.25 757.5,-1166.25 859.5,-1166.25 859.5,-1166.25 757.5,-1166.25"/>
<polygon fill="none" stroke="#666666" points="757.5,-1149.25 757.5,-1209.25 859.5,-1209.25 859.5,-1149.25 757.5,-1149.25"/>
</a>
</g>
</g>
<!-- Node7&#45;&gt;Node3 -->
<g id="edge6_Node000003_Node000007" class="edge">
<title>Node7&#45;&gt;Node3</title>
<g id="a_edge6_Node000003_Node000007"><a xlink:title=" ">
<path fill="none" stroke="#63b8ff" d="M793.38,-1149.34C781.77,-1127.71 764.98,-1097.6 748.5,-1072.25 728.23,-1041.08 704.82,-1008.27 682.71,-978.5"/>
<polygon fill="none" stroke="#63b8ff" points="682.67,-978.45 675.88,-976.03 675.5,-968.83 682.29,-971.25 682.67,-978.45"/>
</a>
</g>
<text text-anchor="middle" x="782.25" y="-1044.75" font-family="Helvetica,sans-Serif" font-size="10.00" fill="grey"> &#45;TempOnDisconnects</text>
</g>
<!-- Node8 -->
<g id="Node000008" class="node">
<title>Node8</title>
<g id="a_Node000008"><a xlink:title=" ">
<polygon fill="white" stroke="none" points="1017,-1203.75 878,-1203.75 878,-1154.75 1017,-1154.75 1017,-1203.75"/>
<text text-anchor="start" x="883" y="-1190.25" font-family="Helvetica,sans-Serif" font-size="10.00">List&lt; xeno_rat_server.Node &gt;</text>
<text text-anchor="start" x="946" y="-1175.25" font-family="Helvetica,sans-Serif" font-size="10.00"> </text>
<text text-anchor="start" x="946" y="-1160.25" font-family="Helvetica,sans-Serif" font-size="10.00"> </text>
<polygon fill="#666666" stroke="#666666" points="878,-1186.75 878,-1186.75 1017,-1186.75 1017,-1186.75 878,-1186.75"/>
<polygon fill="#666666" stroke="#666666" points="878,-1171.75 878,-1171.75 1017,-1171.75 1017,-1171.75 878,-1171.75"/>
<polygon fill="none" stroke="#666666" points="878,-1154.75 878,-1203.75 1017,-1203.75 1017,-1154.75 878,-1154.75"/>
</a>
</g>
</g>
<!-- Node8&#45;&gt;Node3 -->
<g id="edge7_Node000003_Node000008" class="edge">
<title>Node8&#45;&gt;Node3</title>
<g id="a_edge7_Node000003_Node000008"><a xlink:title=" ">
<path fill="none" stroke="#63b8ff" d="M932.13,-1154.86C917.07,-1132.64 892.88,-1098.79 868.5,-1072.25 814.74,-1013.73 741.62,-960.83 685.48,-924.43"/>
<polygon fill="none" stroke="#63b8ff" points="685.71,-924.57 678.5,-924.69 675.61,-918.08 682.82,-917.96 685.71,-924.57"/>
</a>
</g>
<text text-anchor="middle" x="876.12" y="-1044.75" font-family="Helvetica,sans-Serif" font-size="10.00" fill="grey"> +subNodes</text>
</g>
<!-- Node9 -->
<g id="Node000009" class="node">
<title>Node9</title>
<g id="a_Node000009"><a xlink:title=" ">
<polygon fill="white" stroke="none" points="1135.5,-1209.25 1035.5,-1209.25 1035.5,-1149.25 1135.5,-1149.25 1135.5,-1209.25"/>
<text text-anchor="start" x="1040.12" y="-1195.75" font-family="Helvetica,sans-Serif" font-size="10.00">Dictionary&lt; int, xeno</text>
<text text-anchor="start" x="1043.88" y="-1184.5" font-family="Helvetica,sans-Serif" font-size="10.00">_rat_server.Node &gt;</text>
<text text-anchor="start" x="1084" y="-1169.75" font-family="Helvetica,sans-Serif" font-size="10.00"> </text>
<text text-anchor="start" x="1084" y="-1154.75" font-family="Helvetica,sans-Serif" font-size="10.00"> </text>
<polygon fill="#666666" stroke="#666666" points="1035.5,-1181.25 1035.5,-1181.25 1135.5,-1181.25 1135.5,-1181.25 1035.5,-1181.25"/>
<polygon fill="#666666" stroke="#666666" points="1035.5,-1166.25 1035.5,-1166.25 1135.5,-1166.25 1135.5,-1166.25 1035.5,-1166.25"/>
<polygon fill="none" stroke="#666666" points="1035.5,-1149.25 1035.5,-1209.25 1135.5,-1209.25 1135.5,-1149.25 1035.5,-1149.25"/>
</a>
</g>
</g>
<!-- Node9&#45;&gt;Node3 -->
<g id="edge8_Node000003_Node000009" class="edge">
<title>Node9&#45;&gt;Node3</title>
<g id="a_edge8_Node000003_Node000009"><a xlink:title=" ">
<path fill="none" stroke="#63b8ff" d="M1075.23,-1149.38C1065.69,-1126.03 1049.47,-1093.63 1026.5,-1072.25 928.22,-980.76 780.19,-924.87 687.29,-896.68"/>
<polygon fill="none" stroke="#63b8ff" points="687.21,-896.66 680.31,-898.78 675.71,-893.23 682.6,-891.11 687.21,-896.66"/>
</a>
</g>
<text text-anchor="middle" x="1029.75" y="-1044.75" font-family="Helvetica,sans-Serif" font-size="10.00" fill="grey"> &#45;subNodeWait</text>
</g>
<!-- Node10&#45;&gt;Node3 -->
<g id="edge9_Node000003_Node000010" class="edge">
<title>Node10&#45;&gt;Node3</title>
<g id="a_edge9_Node000003_Node000010"><a xlink:title=" ">
<path fill="none" stroke="#63b8ff" d="M424.43,-1087.79C454.53,-1051.45 489.3,-1009.46 520.03,-972.36"/>
<polygon fill="none" stroke="#63b8ff" points="519.93,-972.48 520.68,-965.3 527.59,-963.24 526.84,-970.41 519.93,-972.48"/>
</a>
</g>
<text text-anchor="middle" x="475.5" y="-1044.75" font-family="Helvetica,sans-Serif" font-size="10.00" fill="grey"> +sock</text>
</g>
<!-- Node11 -->
<g id="Node000011" class="node">
<title>Node11</title>
<g id="a_Node000011"><a xlink:title=" ">
<polygon fill="white" stroke="none" points="316.5,-1382.5 276.5,-1382.5 276.5,-1333.5 316.5,-1333.5 316.5,-1382.5"/>
<text text-anchor="start" x="281.12" y="-1369" font-family="Helvetica,sans-Serif" font-size="10.00">Socket</text>
<text text-anchor="start" x="295" y="-1354" font-family="Helvetica,sans-Serif" font-size="10.00"> </text>
<text text-anchor="start" x="295" y="-1339" font-family="Helvetica,sans-Serif" font-size="10.00"> </text>
<polygon fill="#666666" stroke="#666666" points="276.5,-1365.5 276.5,-1365.5 316.5,-1365.5 316.5,-1365.5 276.5,-1365.5"/>
<polygon fill="#666666" stroke="#666666" points="276.5,-1350.5 276.5,-1350.5 316.5,-1350.5 316.5,-1350.5 276.5,-1350.5"/>
<polygon fill="none" stroke="#666666" points="276.5,-1333.5 276.5,-1382.5 316.5,-1382.5 316.5,-1333.5 276.5,-1333.5"/>
</a>
</g>
</g>
<!-- Node11&#45;&gt;Node10 -->
<g id="edge10_Node000010_Node000011" class="edge">
<title>Node11&#45;&gt;Node10</title>
<g id="a_edge10_Node000010_Node000011"><a xlink:title=" ">
<path fill="none" stroke="#63b8ff" d="M303.54,-1333.53C306.47,-1323.75 310.11,-1311.61 314.05,-1298.47"/>
<polygon fill="none" stroke="#63b8ff" points="314.03,-1298.52 311.93,-1291.63 317.48,-1287.03 319.59,-1293.93 314.03,-1298.52"/>
</a>
</g>
<text text-anchor="middle" x="327.5" y="-1306" font-family="Helvetica,sans-Serif" font-size="10.00" fill="grey"> +sock</text>
</g>
<!-- Node12 -->
<g id="Node000012" class="node">
<title>Node12</title>
<g id="a_Node000012"><a xlink:title=" ">
<polygon fill="white" stroke="none" points="363.5,-1382.5 335.5,-1382.5 335.5,-1333.5 363.5,-1333.5 363.5,-1382.5"/>
<text text-anchor="start" x="340.12" y="-1369" font-family="Helvetica,sans-Serif" font-size="10.00">byte</text>
<text text-anchor="start" x="348" y="-1354" font-family="Helvetica,sans-Serif" font-size="10.00"> </text>
<text text-anchor="start" x="348" y="-1339" font-family="Helvetica,sans-Serif" font-size="10.00"> </text>
<polygon fill="#666666" stroke="#666666" points="335.5,-1365.5 335.5,-1365.5 363.5,-1365.5 363.5,-1365.5 335.5,-1365.5"/>
<polygon fill="#666666" stroke="#666666" points="335.5,-1350.5 335.5,-1350.5 363.5,-1350.5 363.5,-1350.5 335.5,-1350.5"/>
<polygon fill="none" stroke="#666666" points="335.5,-1333.5 335.5,-1382.5 363.5,-1382.5 363.5,-1333.5 335.5,-1333.5"/>
</a>
</g>
</g>
<!-- Node12&#45;&gt;Node10 -->
<g id="edge11_Node000010_Node000012" class="edge">
<title>Node12&#45;&gt;Node10</title>
<g id="a_edge11_Node000010_Node000012"><a xlink:title=" ">
<path fill="none" stroke="#63b8ff" d="M349.5,-1333.53C349.5,-1323.85 349.5,-1311.86 349.5,-1298.88"/>
<polygon fill="none" stroke="#63b8ff" points="349.5,-1299.07 345.5,-1293.07 349.5,-1287.07 353.5,-1293.07 349.5,-1299.07"/>
</a>
</g>
<text text-anchor="middle" x="385.88" y="-1306" font-family="Helvetica,sans-Serif" font-size="10.00" fill="grey"> +EncryptionKey</text>
</g>
<!-- Node13 -->
<g id="Node000013" class="node">
<title>Node13</title>
<g id="a_Node000013"><a xlink:title=" ">
<polygon fill="white" stroke="none" points="493.5,-1382.5 473.5,-1382.5 473.5,-1333.5 493.5,-1333.5 493.5,-1382.5"/>
<text text-anchor="start" x="478.25" y="-1369" font-family="Helvetica,sans-Serif" font-size="10.00">int</text>
<text text-anchor="start" x="482" y="-1354" font-family="Helvetica,sans-Serif" font-size="10.00"> </text>
<text text-anchor="start" x="482" y="-1339" font-family="Helvetica,sans-Serif" font-size="10.00"> </text>
<polygon fill="#666666" stroke="#666666" points="473.5,-1365.5 473.5,-1365.5 493.5,-1365.5 493.5,-1365.5 473.5,-1365.5"/>
<polygon fill="#666666" stroke="#666666" points="473.5,-1350.5 473.5,-1350.5 493.5,-1350.5 493.5,-1350.5 473.5,-1350.5"/>
<polygon fill="none" stroke="#666666" points="473.5,-1333.5 473.5,-1382.5 493.5,-1382.5 493.5,-1333.5 473.5,-1333.5"/>
</a>
</g>
</g>
<!-- Node13&#45;&gt;Node3 -->
<g id="edge15_Node000003_Node000013" class="edge">
<title>Node13&#45;&gt;Node3</title>
<g id="a_edge15_Node000003_Node000013"><a xlink:title=" ">
<path fill="none" stroke="#63b8ff" d="M493.47,-1343.92C498.88,-1336.1 505.13,-1325.73 508.5,-1315.5 542.48,-1212.36 508.14,-1178.3 531.5,-1072.25 534.04,-1060.74 537.04,-1048.98 540.37,-1037.22"/>
<polygon fill="none" stroke="#63b8ff" points="540.33,-1037.36 538.17,-1030.48 543.69,-1025.84 545.85,-1032.72 540.33,-1037.36"/>
</a>
</g>
<text text-anchor="middle" x="572" y="-1186.62" font-family="Helvetica,sans-Serif" font-size="10.00" fill="grey"> +ID</text>
<text text-anchor="middle" x="572" y="-1175.38" font-family="Helvetica,sans-Serif" font-size="10.00" fill="grey">+SockType</text>
<text text-anchor="middle" x="572" y="-1164.12" font-family="Helvetica,sans-Serif" font-size="10.00" fill="grey">+SubNodeIdCount</text>
</g>
<!-- Node13&#45;&gt;Node10 -->
<g id="edge12_Node000010_Node000013" class="edge">
<title>Node13&#45;&gt;Node10</title>
<g id="a_edge12_Node000010_Node000013"><a xlink:title=" ">
<path fill="none" stroke="#63b8ff" d="M473.68,-1346.7C465.97,-1338.47 455.1,-1326.52 446.25,-1315.5 441.27,-1309.29 436.24,-1302.86 431.23,-1296.31"/>
<polygon fill="none" stroke="#63b8ff" points="431.17,-1296.23 424.36,-1293.86 423.93,-1286.67 430.74,-1289.03 431.17,-1296.23"/>
</a>
</g>
<text text-anchor="middle" x="477.62" y="-1306" font-family="Helvetica,sans-Serif" font-size="10.00" fill="grey"> +socktimeout</text>
</g>
<!-- Node14&#45;&gt;Node1 -->
<g id="edge16_Node000001_Node000014" class="edge">
<title>Node14&#45;&gt;Node1</title>
<g id="a_edge16_Node000001_Node000014"><a xlink:title=" ">
<path fill="none" stroke="#63b8ff" d="M707.5,-594.97C707.5,-559.92 707.5,-504.93 707.5,-447.7"/>
<polygon fill="none" stroke="#63b8ff" points="707.5,-447.58 703.5,-441.58 707.5,-435.58 711.5,-441.58 707.5,-447.58"/>
</a>
</g>
<text text-anchor="middle" x="733.38" y="-511" font-family="Helvetica,sans-Serif" font-size="10.00" fill="grey"> &#45;FileViewer</text>
</g>
<!-- Node15 -->
<g id="Node000015" class="node">
<title>Node15</title>
<g id="a_Node000015"><a xlink:title=" ">
<polygon fill="white" stroke="none" points="834.5,-658.75 800.5,-658.75 800.5,-609.75 834.5,-609.75 834.5,-658.75"/>
<text text-anchor="start" x="805.5" y="-645.25" font-family="Helvetica,sans-Serif" font-size="10.00">string</text>
<text text-anchor="start" x="816" y="-630.25" font-family="Helvetica,sans-Serif" font-size="10.00"> </text>
<text text-anchor="start" x="816" y="-615.25" font-family="Helvetica,sans-Serif" font-size="10.00"> </text>
<polygon fill="#666666" stroke="#666666" points="800.5,-641.75 800.5,-641.75 834.5,-641.75 834.5,-641.75 800.5,-641.75"/>
<polygon fill="#666666" stroke="#666666" points="800.5,-626.75 800.5,-626.75 834.5,-626.75 834.5,-626.75 800.5,-626.75"/>
<polygon fill="none" stroke="#666666" points="800.5,-609.75 800.5,-658.75 834.5,-658.75 834.5,-609.75 800.5,-609.75"/>
</a>
</g>
</g>
<!-- Node15&#45;&gt;Node1 -->
<g id="edge18_Node000001_Node000015" class="edge">
<title>Node15&#45;&gt;Node1</title>
<g id="a_edge18_Node000001_Node000015"><a xlink:title=" ">
<path fill="none" stroke="#63b8ff" d="M810.4,-609.93C807.35,-599.77 803.79,-587.69 800.75,-576.75 789.12,-534.96 777.14,-490.3 765.8,-447.19"/>
<polygon fill="none" stroke="#63b8ff" points="765.82,-447.26 760.43,-442.47 762.77,-435.65 768.17,-440.44 765.82,-447.26"/>
</a>
</g>
<text text-anchor="middle" x="838.38" y="-511" font-family="Helvetica,sans-Serif" font-size="10.00" fill="grey"> &#45;currentDirectory</text>
</g>
<!-- Node16 -->
<g id="Node000016" class="node">
<title>Node16</title>
<g id="a_Node000016"><a xlink:title=" ">
<polygon fill="white" stroke="none" points="920,-658.75 877,-658.75 877,-609.75 920,-609.75 920,-658.75"/>
<text text-anchor="start" x="881.62" y="-645.25" font-family="Helvetica,sans-Serif" font-size="10.00">System</text>
<text text-anchor="start" x="897" y="-630.25" font-family="Helvetica,sans-Serif" font-size="10.00"> </text>
<text text-anchor="start" x="897" y="-615.25" font-family="Helvetica,sans-Serif" font-size="10.00"> </text>
<polygon fill="#666666" stroke="#666666" points="877,-641.75 877,-641.75 920,-641.75 920,-641.75 877,-641.75"/>
<polygon fill="#666666" stroke="#666666" points="877,-626.75 877,-626.75 920,-626.75 920,-626.75 877,-626.75"/>
<polygon fill="none" stroke="#666666" points="877,-609.75 877,-658.75 920,-658.75 920,-609.75 877,-609.75"/>
</a>
</g>
</g>
<!-- Node16&#45;&gt;Node1 -->
<g id="edge19_Node000001_Node000016" class="edge">
<title>Node16&#45;&gt;Node1</title>
<g id="a_edge19_Node000001_Node000016"><a xlink:title=" ">
<path fill="none" stroke="#63b8ff" d="M899.29,-609.88C899.69,-574.62 897.35,-506.29 876.5,-453 858.46,-406.88 829.21,-361.48 800.08,-323.08"/>
<polygon fill="none" stroke="#63b8ff" points="800.16,-323.18 793.33,-320.87 792.83,-313.68 799.66,-315.99 800.16,-323.18"/>
</a>
</g>
<text text-anchor="middle" x="934.12" y="-567.25" font-family="Helvetica,sans-Serif" font-size="10.00" fill="grey"> &#45;button1</text>
<text text-anchor="middle" x="934.12" y="-556" font-family="Helvetica,sans-Serif" font-size="10.00" fill="grey">&#45;button2</text>
<text text-anchor="middle" x="934.12" y="-544.75" font-family="Helvetica,sans-Serif" font-size="10.00" fill="grey">&#45;columnHeader1</text>
<text text-anchor="middle" x="934.12" y="-533.5" font-family="Helvetica,sans-Serif" font-size="10.00" fill="grey">&#45;columnHeader2</text>
<text text-anchor="middle" x="934.12" y="-522.25" font-family="Helvetica,sans-Serif" font-size="10.00" fill="grey">&#45;columnHeader3</text>
<text text-anchor="middle" x="934.12" y="-511" font-family="Helvetica,sans-Serif" font-size="10.00" fill="grey">&#45;columnHeader4</text>
<text text-anchor="middle" x="934.12" y="-499.75" font-family="Helvetica,sans-Serif" font-size="10.00" fill="grey">&#45;columnHeader5</text>
<text text-anchor="middle" x="934.12" y="-488.5" font-family="Helvetica,sans-Serif" font-size="10.00" fill="grey">&#45;columnHeader6</text>
<text text-anchor="middle" x="934.12" y="-477.25" font-family="Helvetica,sans-Serif" font-size="10.00" fill="grey">&#45;components</text>
<text text-anchor="middle" x="934.12" y="-466" font-family="Helvetica,sans-Serif" font-size="10.00" fill="grey">&#45;label1</text>
<text text-anchor="middle" x="934.12" y="-454.75" font-family="Helvetica,sans-Serif" font-size="10.00" fill="grey">...</text>
</g>
</g>
</svg>

<g id="navigator" transform="translate(0 0)" fill="#404254">
  <rect fill="#f2f5e9" fill-opacity="0.5" stroke="#606060" stroke-width=".5" x="0" y="0" width="60" height="60"/>
  <use id="zoomplus" xlink:href="#zoomPlus" x="17" y="9" onmousedown="handleZoom(evt,'in')"/>
  <use id="zoomminus" xlink:href="#zoomMin" x="42" y="9" onmousedown="handleZoom(evt,'out')"/>
  <use id="reset" xlink:href="#resetDef" x="30" y="36" onmousedown="handleReset()"/>
   <use id="arrowup" xlink:href="#arrowUp" x="0" y="0" onmousedown="handlePan(0,-1)"/>
  <use id="arrowright" xlink:href="#arrowRight" x="0" y="0" onmousedown="handlePan(1,0)"/>
  <use id="arrowdown" xlink:href="#arrowDown" x="0" y="0" onmousedown="handlePan(0,1)"/>
  <use id="arrowleft" xlink:href="#arrowLeft" x="0" y="0" onmousedown="handlePan(-1,0)"/>
</g>
<svg viewBox="0 0 15 15" width="100%" height="30px" preserveAspectRatio="xMaxYMin meet">
 <g id="arrow_out" transform="scale(0.3 0.3)">
  <a xlink:href="classxeno__rat__server_1_1_forms_1_1_file__manager__coll__graph_org.svg" target="_base">
   <rect id="button" ry="5" rx="5" y="6" x="6" height="38" width="38"
        fill="#f2f5e9" fill-opacity="0.5" stroke="#606060" stroke-width="1.0"/>
   <path id="arrow"
     d="M 11.500037,31.436501 C 11.940474,20.09759 22.043105,11.32322 32.158766,21.979434 L 37.068811,17.246167 C 37.068811,17.246167 37.088388,32 37.088388,32 L 22.160133,31.978069 C 22.160133,31.978069 26.997745,27.140456 26.997745,27.140456 C 18.528582,18.264221 13.291696,25.230495 11.500037,31.436501 z"
     style="fill:#404040;"/>
  </a>
 </g>
</svg>

<style type='text/css'>
<![CDATA[
[data-mouse-over-selected='false'] { opacity: 0.7; }
[data-mouse-over-selected='true']  { opacity: 1.0; }
]]>
</style>
<script type="application/ecmascript"><![CDATA[
document.addEventListener('DOMContentLoaded', (event) => {
  highlightEdges();
  highlightAdjacentNodes();
});
]]></script>
</svg>
