<?xml version="1.0" encoding="UTF-8" standalone="no"?>
<!DOCTYPE svg PUBLIC "-//W3C//DTD SVG 1.1//EN"
 "http://www.w3.org/Graphics/SVG/1.1/DTD/svg11.dtd">
<!-- Generated by graphviz version 10.0.1 (20240210.2158)
 -->
<!-- Title: xeno_rat_server.Forms.FunMenu Pages: 1 -->
<!--zoomable 968 -->

<svg id="main" version="1.1" xmlns="http://www.w3.org/2000/svg" xmlns:xlink="http://www.w3.org/1999/xlink" xml:space="preserve" onload="init(evt)">
<style type="text/css"><![CDATA[
.node, .edge {opacity: 0.7;}
.node.selected, .edge.selected {opacity: 1;}
.edge:hover path { stroke: red; }
.edge:hover polygon { stroke: red; fill: red; }
]]></style>

<defs>
  <circle id="rim" cx="0" cy="0" r="7"/>
  <circle id="rim2" cx="0" cy="0" r="3.5"/>
  <g id="zoomPlus">
    <use xlink:href="#rim" fill="#404040"><set attributeName="fill" to="#808080" begin="zoomplus.mouseover" end="zoomplus.mouseout"/></use>
    <path d="M-4,0h8M0,-4v8" fill="none" stroke="white" stroke-width="1.5" pointer-events="none"/>
  </g>
  <g id="zoomMin">
    <use xlink:href="#rim" fill="#404040"><set attributeName="fill" to="#808080" begin="zoomminus.mouseover" end="zoomminus.mouseout"/></use>
    <path d="M-4,0h8" fill="none" stroke="white" stroke-width="1.5" pointer-events="none"/>
  </g>
  <g id="arrowUp" transform="translate(30 24)">
    <use xlink:href="#rim"/>
    <path pointer-events="none" fill="none" stroke="white" stroke-width="1.5" d="M0,-3.0v7 M-2.5,-0.5L0,-3.0L2.5,-0.5"/>
  </g>
  <g id="arrowRight" transform="rotate(90) translate(36 -43)">
    <use xlink:href="#rim"/>
    <path pointer-events="none" fill="none" stroke="white" stroke-width="1.5" d="M0,-3.0v7 M-2.5,-0.5L0,-3.0L2.5,-0.5"/>
  </g>
  <g id="arrowDown" transform="rotate(180) translate(-30 -48)">
    <use xlink:href="#rim"/>
    <path pointer-events="none" fill="none" stroke="white" stroke-width="1.5" d="M0,-3.0v7 M-2.5,-0.5L0,-3.0L2.5,-0.5"/>
  </g>
  <g id="arrowLeft" transform="rotate(270) translate(-36 17)">
    <use xlink:href="#rim"/>
    <path pointer-events="none" fill="none" stroke="white" stroke-width="1.5" d="M0,-3.0v7 M-2.5,-0.5L0,-3.0L2.5,-0.5"/>
  </g>
  <g id="resetDef">
    <use xlink:href="#rim2" fill="#404040"><set attributeName="fill" to="#808080" begin="reset.mouseover" end="reset.mouseout"/></use>
  </g>
</defs>
<script type="application/ecmascript">
var viewWidth = 1144;
var viewHeight = 968;
var sectionId = 'dynsection-1';
</script>
<script type="application/ecmascript" xlink:href="svg.min.js"/>
<svg id="graph" class="graph">
<g id="viewport">
<title>xeno_rat_server.Forms.FunMenu</title>
<!-- Node1 -->
<g id="Node000001" class="node">
<title>Node1</title>
<g id="a_Node000001"><a xlink:title=" ">
<polygon fill="#999999" stroke="none" points="678,-184 525,-184 525,0 678,0 678,-184"/>
<text text-anchor="start" x="529.88" y="-170.5" font-family="Helvetica,sans-Serif" font-size="10.00">xeno_rat_server.Forms.FunMenu</text>
<text text-anchor="start" x="600" y="-155.5" font-family="Helvetica,sans-Serif" font-size="10.00"> </text>
<text text-anchor="start" x="539.5" y="-140.5" font-family="Helvetica,sans-Serif" font-size="10.00">+</text>
<text text-anchor="start" x="560" y="-140.5" font-family="Helvetica,sans-Serif" font-size="10.00">FunMenu()</text>
<text text-anchor="start" x="539.88" y="-125.5" font-family="Helvetica,sans-Serif" font-size="10.00">#</text>
<text text-anchor="start" x="560" y="-125.5" font-family="Helvetica,sans-Serif" font-size="10.00">Dispose()</text>
<text text-anchor="start" x="541" y="-110.5" font-family="Helvetica,sans-Serif" font-size="10.00">&#45;</text>
<text text-anchor="start" x="560" y="-110.5" font-family="Helvetica,sans-Serif" font-size="10.00">InitializeAsync()</text>
<text text-anchor="start" x="541" y="-95.5" font-family="Helvetica,sans-Serif" font-size="10.00">&#45;</text>
<text text-anchor="start" x="560" y="-95.5" font-family="Helvetica,sans-Serif" font-size="10.00">FunMenu_Load()</text>
<text text-anchor="start" x="541" y="-80.5" font-family="Helvetica,sans-Serif" font-size="10.00">&#45;</text>
<text text-anchor="start" x="560" y="-80.5" font-family="Helvetica,sans-Serif" font-size="10.00">button1_Click()</text>
<text text-anchor="start" x="541" y="-65.5" font-family="Helvetica,sans-Serif" font-size="10.00">&#45;</text>
<text text-anchor="start" x="560" y="-65.5" font-family="Helvetica,sans-Serif" font-size="10.00">button2_Click()</text>
<text text-anchor="start" x="541" y="-50.5" font-family="Helvetica,sans-Serif" font-size="10.00">&#45;</text>
<text text-anchor="start" x="560" y="-50.5" font-family="Helvetica,sans-Serif" font-size="10.00">button3_Click()</text>
<text text-anchor="start" x="541" y="-35.5" font-family="Helvetica,sans-Serif" font-size="10.00">&#45;</text>
<text text-anchor="start" x="560" y="-35.5" font-family="Helvetica,sans-Serif" font-size="10.00">button4_Click()</text>
<text text-anchor="start" x="541" y="-20.5" font-family="Helvetica,sans-Serif" font-size="10.00">&#45;</text>
<text text-anchor="start" x="560" y="-20.5" font-family="Helvetica,sans-Serif" font-size="10.00">trackBar1_Scroll()</text>
<text text-anchor="start" x="541" y="-5.5" font-family="Helvetica,sans-Serif" font-size="10.00">&#45;</text>
<text text-anchor="start" x="560" y="-5.5" font-family="Helvetica,sans-Serif" font-size="10.00">InitializeComponent()</text>
<polygon fill="#666666" stroke="#666666" points="525,-167 525,-167 678,-167 678,-167 525,-167"/>
<polygon fill="#666666" stroke="#666666" points="525,-152 525,-152 678,-152 678,-152 525,-152"/>
<polygon fill="none" stroke="#666666" points="525,0 525,-184 678,-184 678,0 525,0"/>
</a>
</g>
</g>
<!-- Node2 -->
<g id="Node000002" class="node">
<title>Node2</title>
<g id="a_Node000002"><a xlink:href="class_form.html" target="_top" xlink:title=" ">
<polygon fill="white" stroke="none" points="509.5,-475.25 477.5,-475.25 477.5,-426.25 509.5,-426.25 509.5,-475.25"/>
<text text-anchor="start" x="482.25" y="-461.75" font-family="Helvetica,sans-Serif" font-size="10.00">Form</text>
<text text-anchor="start" x="492" y="-446.75" font-family="Helvetica,sans-Serif" font-size="10.00"> </text>
<text text-anchor="start" x="492" y="-431.75" font-family="Helvetica,sans-Serif" font-size="10.00"> </text>
<polygon fill="#666666" stroke="#666666" points="477.5,-458.25 477.5,-458.25 509.5,-458.25 509.5,-458.25 477.5,-458.25"/>
<polygon fill="#666666" stroke="#666666" points="477.5,-443.25 477.5,-443.25 509.5,-443.25 509.5,-443.25 477.5,-443.25"/>
<polygon fill="none" stroke="#666666" points="477.5,-426.25 477.5,-475.25 509.5,-475.25 509.5,-426.25 477.5,-426.25"/>
</a>
</g>
</g>
<!-- Node2&#45;&gt;Node1 -->
<g id="edge1_Node000001_Node000002" class="edge">
<title>Node2&#45;&gt;Node1</title>
<g id="a_edge1_Node000001_Node000002"><a xlink:title=" ">
<path fill="none" stroke="#63b8ff" d="M497.02,-415.34C500.69,-384.43 507.48,-337.99 518.5,-298.75 529.3,-260.28 544.98,-219.19 559.81,-183.94"/>
<polygon fill="none" stroke="#63b8ff" points="493.59,-414.55 495.93,-424.88 500.54,-415.34 493.59,-414.55"/>
</a>
</g>
</g>
<!-- Node3 -->
<g id="Node000003" class="node">
<title>Node3</title>
<g id="a_Node000003"><a xlink:href="classxeno__rat__server_1_1_node.html" target="_top" xlink:title=" ">
<polygon fill="white" stroke="none" points="675,-602.75 528,-602.75 528,-298.75 675,-298.75 675,-602.75"/>
<text text-anchor="start" x="553.88" y="-589.25" font-family="Helvetica,sans-Serif" font-size="10.00">xeno_rat_server.Node</text>
<text text-anchor="start" x="600" y="-574.25" font-family="Helvetica,sans-Serif" font-size="10.00"> </text>
<text text-anchor="start" x="532" y="-559.25" font-family="Helvetica,sans-Serif" font-size="10.00">+</text>
<text text-anchor="start" x="542" y="-559.25" font-family="Helvetica,sans-Serif" font-size="10.00">Node()</text>
<text text-anchor="start" x="532" y="-544.25" font-family="Helvetica,sans-Serif" font-size="10.00">+</text>
<text text-anchor="start" x="542" y="-544.25" font-family="Helvetica,sans-Serif" font-size="10.00">SetID()</text>
<text text-anchor="start" x="532" y="-529.25" font-family="Helvetica,sans-Serif" font-size="10.00">+</text>
<text text-anchor="start" x="542" y="-529.25" font-family="Helvetica,sans-Serif" font-size="10.00">Disconnect()</text>
<text text-anchor="start" x="532" y="-514.25" font-family="Helvetica,sans-Serif" font-size="10.00">+</text>
<text text-anchor="start" x="542" y="-514.25" font-family="Helvetica,sans-Serif" font-size="10.00">SetRecvTimeout()</text>
<text text-anchor="start" x="532" y="-499.25" font-family="Helvetica,sans-Serif" font-size="10.00">+</text>
<text text-anchor="start" x="542" y="-499.25" font-family="Helvetica,sans-Serif" font-size="10.00">ResetRecvTimeout()</text>
<text text-anchor="start" x="532" y="-484.25" font-family="Helvetica,sans-Serif" font-size="10.00">+</text>
<text text-anchor="start" x="542" y="-484.25" font-family="Helvetica,sans-Serif" font-size="10.00">Connected()</text>
<text text-anchor="start" x="532" y="-469.25" font-family="Helvetica,sans-Serif" font-size="10.00">+</text>
<text text-anchor="start" x="542" y="-469.25" font-family="Helvetica,sans-Serif" font-size="10.00">ReceiveAsync()</text>
<text text-anchor="start" x="532" y="-454.25" font-family="Helvetica,sans-Serif" font-size="10.00">+</text>
<text text-anchor="start" x="542" y="-454.25" font-family="Helvetica,sans-Serif" font-size="10.00">SendAsync()</text>
<text text-anchor="start" x="532" y="-439.25" font-family="Helvetica,sans-Serif" font-size="10.00">+</text>
<text text-anchor="start" x="542" y="-439.25" font-family="Helvetica,sans-Serif" font-size="10.00">GetIp()</text>
<text text-anchor="start" x="532" y="-424.25" font-family="Helvetica,sans-Serif" font-size="10.00">+</text>
<text text-anchor="start" x="542" y="-424.25" font-family="Helvetica,sans-Serif" font-size="10.00">CreateSubNodeAsync()</text>
<text text-anchor="start" x="532" y="-409.25" font-family="Helvetica,sans-Serif" font-size="10.00">+</text>
<text text-anchor="start" x="542" y="-409.25" font-family="Helvetica,sans-Serif" font-size="10.00">AddTempOnDisconnect()</text>
<text text-anchor="start" x="532" y="-394.25" font-family="Helvetica,sans-Serif" font-size="10.00">+</text>
<text text-anchor="start" x="542" y="-394.25" font-family="Helvetica,sans-Serif" font-size="10.00">RemoveTempOnDisconnect()</text>
<text text-anchor="start" x="532" y="-379.25" font-family="Helvetica,sans-Serif" font-size="10.00">+</text>
<text text-anchor="start" x="542" y="-379.25" font-family="Helvetica,sans-Serif" font-size="10.00">AddSubNode()</text>
<text text-anchor="start" x="532" y="-364.25" font-family="Helvetica,sans-Serif" font-size="10.00">+</text>
<text text-anchor="start" x="542" y="-364.25" font-family="Helvetica,sans-Serif" font-size="10.00">AuthenticateAsync()</text>
<text text-anchor="start" x="533.5" y="-349.25" font-family="Helvetica,sans-Serif" font-size="10.00">&#45;</text>
<text text-anchor="start" x="542" y="-349.25" font-family="Helvetica,sans-Serif" font-size="10.00">memcmp()</text>
<text text-anchor="start" x="533.5" y="-334.25" font-family="Helvetica,sans-Serif" font-size="10.00">&#45;</text>
<text text-anchor="start" x="542" y="-334.25" font-family="Helvetica,sans-Serif" font-size="10.00">GetByteArray()</text>
<text text-anchor="start" x="533.5" y="-319.25" font-family="Helvetica,sans-Serif" font-size="10.00">&#45;</text>
<text text-anchor="start" x="542" y="-319.25" font-family="Helvetica,sans-Serif" font-size="10.00">ByteArrayCompare()</text>
<text text-anchor="start" x="533.5" y="-304.25" font-family="Helvetica,sans-Serif" font-size="10.00">&#45;</text>
<text text-anchor="start" x="542" y="-304.25" font-family="Helvetica,sans-Serif" font-size="10.00">GetSocketType()</text>
<polygon fill="#666666" stroke="#666666" points="528,-585.75 528,-585.75 675,-585.75 675,-585.75 528,-585.75"/>
<polygon fill="#666666" stroke="#666666" points="528,-570.75 528,-570.75 675,-570.75 675,-570.75 528,-570.75"/>
<polygon fill="none" stroke="#666666" points="528,-298.75 528,-602.75 675,-602.75 675,-298.75 528,-298.75"/>
</a>
</g>
</g>
<!-- Node3&#45;&gt;Node1 -->
<g id="edge2_Node000001_Node000003" class="edge">
<title>Node3&#45;&gt;Node1</title>
<g id="a_edge2_Node000001_Node000003"><a xlink:title=" ">
<path fill="none" stroke="#63b8ff" d="M601.5,-298.97C601.5,-264.54 601.5,-228.71 601.5,-196.76"/>
<polygon fill="none" stroke="#63b8ff" points="601.5,-196.7 597.5,-190.7 601.5,-184.7 605.5,-190.7 601.5,-196.7"/>
</a>
</g>
<text text-anchor="middle" x="616.12" y="-237.5" font-family="Helvetica,sans-Serif" font-size="10.00" fill="grey"> &#45;client</text>
</g>
<!-- Node3&#45;&gt;Node3 -->
<g id="edge14_Node000003_Node000003" class="edge">
<title>Node3&#45;&gt;Node3</title>
<g id="a_edge14_Node000003_Node000003"><a xlink:title=" ">
<path fill="none" stroke="#63b8ff" d="M674.73,-480.62C685.63,-475.97 693,-466.01 693,-450.75 693,-441.21 690.12,-433.74 685.3,-428.35"/>
<polygon fill="none" stroke="#63b8ff" points="685.26,-428.32 678.05,-428.13 675.46,-421.4 682.67,-421.59 685.26,-428.32"/>
</a>
</g>
<text text-anchor="middle" x="711.75" y="-446.88" font-family="Helvetica,sans-Serif" font-size="10.00" fill="grey"> +Parent</text>
</g>
<!-- Node4 -->
<g id="Node000004" class="node">
<title>Node4</title>
<g id="a_Node000004"><a xlink:title=" ">
<polygon fill="white" stroke="none" points="79,-781.5 0,-781.5 0,-732.5 79,-732.5 79,-781.5"/>
<text text-anchor="start" x="5" y="-768" font-family="Helvetica,sans-Serif" font-size="10.00">SemaphoreSlim</text>
<text text-anchor="start" x="38" y="-753" font-family="Helvetica,sans-Serif" font-size="10.00"> </text>
<text text-anchor="start" x="38" y="-738" font-family="Helvetica,sans-Serif" font-size="10.00"> </text>
<polygon fill="#666666" stroke="#666666" points="0,-764.5 0,-764.5 79,-764.5 79,-764.5 0,-764.5"/>
<polygon fill="#666666" stroke="#666666" points="0,-749.5 0,-749.5 79,-749.5 79,-749.5 0,-749.5"/>
<polygon fill="none" stroke="#666666" points="0,-732.5 0,-781.5 79,-781.5 79,-732.5 0,-732.5"/>
</a>
</g>
</g>
<!-- Node4&#45;&gt;Node3 -->
<g id="edge3_Node000003_Node000004" class="edge">
<title>Node4&#45;&gt;Node3</title>
<g id="a_edge3_Node000003_Node000004"><a xlink:title=" ">
<path fill="none" stroke="#63b8ff" d="M31.12,-732.54C21.98,-702.3 12.19,-650.13 40.75,-620.75 75.75,-584.74 431.11,-625.66 516.14,-601.06"/>
<polygon fill="none" stroke="#63b8ff" points="516.15,-601.05 520.16,-595.05 527.23,-596.45 523.23,-602.44 516.15,-601.05"/>
</a>
</g>
<text text-anchor="middle" x="89.88" y="-622.5" font-family="Helvetica,sans-Serif" font-size="10.00" fill="grey"> &#45;OneRecieveAtATime</text>
</g>
<!-- Node5 -->
<g id="Node000005" class="node">
<title>Node5</title>
<g id="a_Node000005"><a xlink:title=" ">
<polygon fill="white" stroke="none" points="182.5,-960.25 154.5,-960.25 154.5,-911.25 182.5,-911.25 182.5,-960.25"/>
<text text-anchor="start" x="159.5" y="-946.75" font-family="Helvetica,sans-Serif" font-size="10.00">bool</text>
<text text-anchor="start" x="167" y="-931.75" font-family="Helvetica,sans-Serif" font-size="10.00"> </text>
<text text-anchor="start" x="167" y="-916.75" font-family="Helvetica,sans-Serif" font-size="10.00"> </text>
<polygon fill="#666666" stroke="#666666" points="154.5,-943.25 154.5,-943.25 182.5,-943.25 182.5,-943.25 154.5,-943.25"/>
<polygon fill="#666666" stroke="#666666" points="154.5,-928.25 154.5,-928.25 182.5,-928.25 182.5,-928.25 154.5,-928.25"/>
<polygon fill="none" stroke="#666666" points="154.5,-911.25 154.5,-960.25 182.5,-960.25 182.5,-911.25 154.5,-911.25"/>
</a>
</g>
</g>
<!-- Node5&#45;&gt;Node3 -->
<g id="edge4_Node000003_Node000005" class="edge">
<title>Node5&#45;&gt;Node3</title>
<g id="a_edge4_Node000003_Node000005"><a xlink:title=" ">
<path fill="none" stroke="#63b8ff" d="M163.48,-911.26C153.37,-856.9 137.14,-721.6 207.75,-650 254.31,-602.79 440.87,-638.66 516.87,-601.86"/>
<polygon fill="none" stroke="#63b8ff" points="516.94,-601.82 520.1,-595.34 527.3,-595.77 524.14,-602.25 516.94,-601.82"/>
</a>
</g>
<text text-anchor="middle" x="237.38" y="-753.12" font-family="Helvetica,sans-Serif" font-size="10.00" fill="grey"> +isDisposed</text>
</g>
<!-- Node10 -->
<g id="Node000010" class="node">
<title>Node10</title>
<g id="a_Node000010"><a xlink:href="classxeno__rat__server_1_1_socket_handler.html" target="_top" xlink:title=" ">
<polygon fill="white" stroke="none" points="424.5,-864 274.5,-864 274.5,-650 424.5,-650 424.5,-864"/>
<text text-anchor="start" x="281.25" y="-850.5" font-family="Helvetica,sans-Serif" font-size="10.00">xeno_rat_server.SocketHandler</text>
<text text-anchor="start" x="348" y="-835.5" font-family="Helvetica,sans-Serif" font-size="10.00"> </text>
<text text-anchor="start" x="278.5" y="-820.5" font-family="Helvetica,sans-Serif" font-size="10.00">+</text>
<text text-anchor="start" x="288.5" y="-820.5" font-family="Helvetica,sans-Serif" font-size="10.00">SocketHandler()</text>
<text text-anchor="start" x="278.5" y="-805.5" font-family="Helvetica,sans-Serif" font-size="10.00">+</text>
<text text-anchor="start" x="288.5" y="-805.5" font-family="Helvetica,sans-Serif" font-size="10.00">SendAsync()</text>
<text text-anchor="start" x="278.5" y="-790.5" font-family="Helvetica,sans-Serif" font-size="10.00">+</text>
<text text-anchor="start" x="288.5" y="-790.5" font-family="Helvetica,sans-Serif" font-size="10.00">ReceiveAsync()</text>
<text text-anchor="start" x="278.5" y="-775.5" font-family="Helvetica,sans-Serif" font-size="10.00">+</text>
<text text-anchor="start" x="288.5" y="-775.5" font-family="Helvetica,sans-Serif" font-size="10.00">Concat()</text>
<text text-anchor="start" x="278.5" y="-760.5" font-family="Helvetica,sans-Serif" font-size="10.00">+</text>
<text text-anchor="start" x="288.5" y="-760.5" font-family="Helvetica,sans-Serif" font-size="10.00">BTruncate()</text>
<text text-anchor="start" x="278.5" y="-745.5" font-family="Helvetica,sans-Serif" font-size="10.00">+</text>
<text text-anchor="start" x="288.5" y="-745.5" font-family="Helvetica,sans-Serif" font-size="10.00">BytesToInt()</text>
<text text-anchor="start" x="278.5" y="-730.5" font-family="Helvetica,sans-Serif" font-size="10.00">+</text>
<text text-anchor="start" x="288.5" y="-730.5" font-family="Helvetica,sans-Serif" font-size="10.00">IntToBytes()</text>
<text text-anchor="start" x="278.5" y="-715.5" font-family="Helvetica,sans-Serif" font-size="10.00">+</text>
<text text-anchor="start" x="288.5" y="-715.5" font-family="Helvetica,sans-Serif" font-size="10.00">SetRecvTimeout()</text>
<text text-anchor="start" x="278.5" y="-700.5" font-family="Helvetica,sans-Serif" font-size="10.00">+</text>
<text text-anchor="start" x="288.5" y="-700.5" font-family="Helvetica,sans-Serif" font-size="10.00">ResetRecvTimeout()</text>
<text text-anchor="start" x="280" y="-685.5" font-family="Helvetica,sans-Serif" font-size="10.00">&#45;</text>
<text text-anchor="start" x="288.5" y="-685.5" font-family="Helvetica,sans-Serif" font-size="10.00">RecvAllAsync_ddos_unsafer()</text>
<text text-anchor="start" x="280" y="-670.5" font-family="Helvetica,sans-Serif" font-size="10.00">&#45;</text>
<text text-anchor="start" x="288.5" y="-670.5" font-family="Helvetica,sans-Serif" font-size="10.00">RecvAllAsync_ddos_safer()</text>
<text text-anchor="start" x="280" y="-655.5" font-family="Helvetica,sans-Serif" font-size="10.00">&#45;</text>
<text text-anchor="start" x="288.5" y="-655.5" font-family="Helvetica,sans-Serif" font-size="10.00">ParseHeader()</text>
<polygon fill="#666666" stroke="#666666" points="274.5,-847 274.5,-847 424.5,-847 424.5,-847 274.5,-847"/>
<polygon fill="#666666" stroke="#666666" points="274.5,-832 274.5,-832 424.5,-832 424.5,-832 274.5,-832"/>
<polygon fill="none" stroke="#666666" points="274.5,-650 274.5,-864 424.5,-864 424.5,-650 274.5,-650"/>
</a>
</g>
</g>
<!-- Node5&#45;&gt;Node10 -->
<g id="edge13_Node000010_Node000005" class="edge">
<title>Node5&#45;&gt;Node10</title>
<g id="a_edge13_Node000010_Node000005"><a xlink:title=" ">
<path fill="none" stroke="#63b8ff" d="M182.36,-918.73C191.71,-908.1 204.45,-893.96 216.25,-882 231.88,-866.15 249.01,-849.63 265.61,-834.01"/>
<polygon fill="none" stroke="#63b8ff" points="265.35,-834.26 267,-827.24 274.11,-826.06 272.47,-833.08 265.35,-834.26"/>
</a>
</g>
<text text-anchor="middle" x="261.12" y="-883.75" font-family="Helvetica,sans-Serif" font-size="10.00" fill="grey"> &#45;doProtocolUpgrade</text>
</g>
<!-- Node6 -->
<g id="Node000006" class="node">
<title>Node6</title>
<g id="a_Node000006"><a xlink:title=" ">
<polygon fill="white" stroke="none" points="739.5,-787 621.5,-787 621.5,-727 739.5,-727 739.5,-787"/>
<text text-anchor="start" x="626.12" y="-773.5" font-family="Helvetica,sans-Serif" font-size="10.00">Action&lt; xeno_rat_server.</text>
<text text-anchor="start" x="664.38" y="-762.25" font-family="Helvetica,sans-Serif" font-size="10.00">Node &gt;</text>
<text text-anchor="start" x="679" y="-747.5" font-family="Helvetica,sans-Serif" font-size="10.00"> </text>
<text text-anchor="start" x="679" y="-732.5" font-family="Helvetica,sans-Serif" font-size="10.00"> </text>
<polygon fill="#666666" stroke="#666666" points="621.5,-759 621.5,-759 739.5,-759 739.5,-759 621.5,-759"/>
<polygon fill="#666666" stroke="#666666" points="621.5,-744 621.5,-744 739.5,-744 739.5,-744 621.5,-744"/>
<polygon fill="none" stroke="#666666" points="621.5,-727 621.5,-787 739.5,-787 739.5,-727 621.5,-727"/>
</a>
</g>
</g>
<!-- Node6&#45;&gt;Node3 -->
<g id="edge5_Node000003_Node000006" class="edge">
<title>Node6&#45;&gt;Node3</title>
<g id="a_edge5_Node000003_Node000006"><a xlink:title=" ">
<path fill="none" stroke="#63b8ff" d="M673,-727.1C666.06,-700.38 655.15,-658.38 643.93,-615.15"/>
<polygon fill="none" stroke="#63b8ff" points="643.92,-615.12 638.54,-610.32 640.9,-603.51 646.28,-608.31 643.92,-615.12"/>
</a>
</g>
<text text-anchor="middle" x="682.62" y="-622.5" font-family="Helvetica,sans-Serif" font-size="10.00" fill="grey"> &#45;OnDisconnect</text>
</g>
<!-- Node7 -->
<g id="Node000007" class="node">
<title>Node7</title>
<g id="a_Node000007"><a xlink:title=" ">
<polygon fill="white" stroke="none" points="859.5,-787 757.5,-787 757.5,-727 859.5,-727 859.5,-787"/>
<text text-anchor="start" x="762.38" y="-773.5" font-family="Helvetica,sans-Serif" font-size="10.00">List&lt; Action&lt; xeno</text>
<text text-anchor="start" x="762.38" y="-762.25" font-family="Helvetica,sans-Serif" font-size="10.00">_rat_server.Node &gt; &gt;</text>
<text text-anchor="start" x="807" y="-747.5" font-family="Helvetica,sans-Serif" font-size="10.00"> </text>
<text text-anchor="start" x="807" y="-732.5" font-family="Helvetica,sans-Serif" font-size="10.00"> </text>
<polygon fill="#666666" stroke="#666666" points="757.5,-759 757.5,-759 859.5,-759 859.5,-759 757.5,-759"/>
<polygon fill="#666666" stroke="#666666" points="757.5,-744 757.5,-744 859.5,-744 859.5,-744 757.5,-744"/>
<polygon fill="none" stroke="#666666" points="757.5,-727 757.5,-787 859.5,-787 859.5,-727 757.5,-727"/>
</a>
</g>
</g>
<!-- Node7&#45;&gt;Node3 -->
<g id="edge6_Node000003_Node000007" class="edge">
<title>Node7&#45;&gt;Node3</title>
<g id="a_edge6_Node000003_Node000007"><a xlink:title=" ">
<path fill="none" stroke="#63b8ff" d="M793.38,-727.09C781.77,-705.46 764.98,-675.35 748.5,-650 728.23,-618.83 704.82,-586.02 682.71,-556.25"/>
<polygon fill="none" stroke="#63b8ff" points="682.67,-556.2 675.88,-553.78 675.5,-546.58 682.29,-549 682.67,-556.2"/>
</a>
</g>
<text text-anchor="middle" x="782.25" y="-622.5" font-family="Helvetica,sans-Serif" font-size="10.00" fill="grey"> &#45;TempOnDisconnects</text>
</g>
<!-- Node8 -->
<g id="Node000008" class="node">
<title>Node8</title>
<g id="a_Node000008"><a xlink:title=" ">
<polygon fill="white" stroke="none" points="1017,-781.5 878,-781.5 878,-732.5 1017,-732.5 1017,-781.5"/>
<text text-anchor="start" x="883" y="-768" font-family="Helvetica,sans-Serif" font-size="10.00">List&lt; xeno_rat_server.Node &gt;</text>
<text text-anchor="start" x="946" y="-753" font-family="Helvetica,sans-Serif" font-size="10.00"> </text>
<text text-anchor="start" x="946" y="-738" font-family="Helvetica,sans-Serif" font-size="10.00"> </text>
<polygon fill="#666666" stroke="#666666" points="878,-764.5 878,-764.5 1017,-764.5 1017,-764.5 878,-764.5"/>
<polygon fill="#666666" stroke="#666666" points="878,-749.5 878,-749.5 1017,-749.5 1017,-749.5 878,-749.5"/>
<polygon fill="none" stroke="#666666" points="878,-732.5 878,-781.5 1017,-781.5 1017,-732.5 878,-732.5"/>
</a>
</g>
</g>
<!-- Node8&#45;&gt;Node3 -->
<g id="edge7_Node000003_Node000008" class="edge">
<title>Node8&#45;&gt;Node3</title>
<g id="a_edge7_Node000003_Node000008"><a xlink:title=" ">
<path fill="none" stroke="#63b8ff" d="M932.13,-732.61C917.07,-710.39 892.88,-676.54 868.5,-650 855.24,-635.57 853.09,-629.38 835.5,-620.75 796.92,-601.82 778.07,-623.62 740.5,-602.75 719.94,-591.33 700.75,-575.77 683.58,-558.95"/>
<polygon fill="none" stroke="#63b8ff" points="683.86,-559.23 676.79,-557.78 675.42,-550.7 682.48,-552.15 683.86,-559.23"/>
</a>
</g>
<text text-anchor="middle" x="878.12" y="-622.5" font-family="Helvetica,sans-Serif" font-size="10.00" fill="grey"> +subNodes</text>
</g>
<!-- Node9 -->
<g id="Node000009" class="node">
<title>Node9</title>
<g id="a_Node000009"><a xlink:title=" ">
<polygon fill="white" stroke="none" points="1135.5,-787 1035.5,-787 1035.5,-727 1135.5,-727 1135.5,-787"/>
<text text-anchor="start" x="1040.12" y="-773.5" font-family="Helvetica,sans-Serif" font-size="10.00">Dictionary&lt; int, xeno</text>
<text text-anchor="start" x="1043.88" y="-762.25" font-family="Helvetica,sans-Serif" font-size="10.00">_rat_server.Node &gt;</text>
<text text-anchor="start" x="1084" y="-747.5" font-family="Helvetica,sans-Serif" font-size="10.00"> </text>
<text text-anchor="start" x="1084" y="-732.5" font-family="Helvetica,sans-Serif" font-size="10.00"> </text>
<polygon fill="#666666" stroke="#666666" points="1035.5,-759 1035.5,-759 1135.5,-759 1135.5,-759 1035.5,-759"/>
<polygon fill="#666666" stroke="#666666" points="1035.5,-744 1035.5,-744 1135.5,-744 1135.5,-744 1035.5,-744"/>
<polygon fill="none" stroke="#666666" points="1035.5,-727 1035.5,-787 1135.5,-787 1135.5,-727 1035.5,-727"/>
</a>
</g>
</g>
<!-- Node9&#45;&gt;Node3 -->
<g id="edge8_Node000003_Node000009" class="edge">
<title>Node9&#45;&gt;Node3</title>
<g id="a_edge8_Node000003_Node000009"><a xlink:title=" ">
<path fill="none" stroke="#63b8ff" d="M1076.79,-727.36C1067.96,-703.17 1051.93,-669.45 1026.5,-650 983.58,-617.17 961.71,-630.15 908.5,-620.75 834.55,-607.69 807.56,-636.54 740.5,-602.75 719.96,-592.4 700.94,-577.67 683.98,-561.43"/>
<polygon fill="none" stroke="#63b8ff" points="683.92,-561.37 676.85,-559.97 675.42,-552.9 682.49,-554.3 683.92,-561.37"/>
</a>
</g>
<text text-anchor="middle" x="1025.75" y="-622.5" font-family="Helvetica,sans-Serif" font-size="10.00" fill="grey"> &#45;subNodeWait</text>
</g>
<!-- Node10&#45;&gt;Node3 -->
<g id="edge9_Node000003_Node000010" class="edge">
<title>Node10&#45;&gt;Node3</title>
<g id="a_edge9_Node000003_Node000010"><a xlink:title=" ">
<path fill="none" stroke="#63b8ff" d="M424.42,-667.39C441.14,-650.62 459.56,-634.15 478.5,-620.75 494.41,-609.49 504.18,-615.97 518.5,-602.75 518.71,-602.56 518.91,-602.37 519.12,-602.18"/>
<polygon fill="none" stroke="#63b8ff" points="518.99,-602.31 520.38,-595.23 527.45,-593.8 526.05,-600.88 518.99,-602.31"/>
</a>
</g>
<text text-anchor="middle" x="493.5" y="-622.5" font-family="Helvetica,sans-Serif" font-size="10.00" fill="grey"> +sock</text>
</g>
<!-- Node11 -->
<g id="Node000011" class="node">
<title>Node11</title>
<g id="a_Node000011"><a xlink:title=" ">
<polygon fill="white" stroke="none" points="316.5,-960.25 276.5,-960.25 276.5,-911.25 316.5,-911.25 316.5,-960.25"/>
<text text-anchor="start" x="281.12" y="-946.75" font-family="Helvetica,sans-Serif" font-size="10.00">Socket</text>
<text text-anchor="start" x="295" y="-931.75" font-family="Helvetica,sans-Serif" font-size="10.00"> </text>
<text text-anchor="start" x="295" y="-916.75" font-family="Helvetica,sans-Serif" font-size="10.00"> </text>
<polygon fill="#666666" stroke="#666666" points="276.5,-943.25 276.5,-943.25 316.5,-943.25 316.5,-943.25 276.5,-943.25"/>
<polygon fill="#666666" stroke="#666666" points="276.5,-928.25 276.5,-928.25 316.5,-928.25 316.5,-928.25 276.5,-928.25"/>
<polygon fill="none" stroke="#666666" points="276.5,-911.25 276.5,-960.25 316.5,-960.25 316.5,-911.25 276.5,-911.25"/>
</a>
</g>
</g>
<!-- Node11&#45;&gt;Node10 -->
<g id="edge10_Node000010_Node000011" class="edge">
<title>Node11&#45;&gt;Node10</title>
<g id="a_edge10_Node000010_Node000011"><a xlink:title=" ">
<path fill="none" stroke="#63b8ff" d="M303.54,-911.28C306.47,-901.5 310.11,-889.36 314.05,-876.22"/>
<polygon fill="none" stroke="#63b8ff" points="314.03,-876.27 311.93,-869.38 317.48,-864.78 319.59,-871.68 314.03,-876.27"/>
</a>
</g>
<text text-anchor="middle" x="327.5" y="-883.75" font-family="Helvetica,sans-Serif" font-size="10.00" fill="grey"> +sock</text>
</g>
<!-- Node12 -->
<g id="Node000012" class="node">
<title>Node12</title>
<g id="a_Node000012"><a xlink:title=" ">
<polygon fill="white" stroke="none" points="363.5,-960.25 335.5,-960.25 335.5,-911.25 363.5,-911.25 363.5,-960.25"/>
<text text-anchor="start" x="340.12" y="-946.75" font-family="Helvetica,sans-Serif" font-size="10.00">byte</text>
<text text-anchor="start" x="348" y="-931.75" font-family="Helvetica,sans-Serif" font-size="10.00"> </text>
<text text-anchor="start" x="348" y="-916.75" font-family="Helvetica,sans-Serif" font-size="10.00"> </text>
<polygon fill="#666666" stroke="#666666" points="335.5,-943.25 335.5,-943.25 363.5,-943.25 363.5,-943.25 335.5,-943.25"/>
<polygon fill="#666666" stroke="#666666" points="335.5,-928.25 335.5,-928.25 363.5,-928.25 363.5,-928.25 335.5,-928.25"/>
<polygon fill="none" stroke="#666666" points="335.5,-911.25 335.5,-960.25 363.5,-960.25 363.5,-911.25 335.5,-911.25"/>
</a>
</g>
</g>
<!-- Node12&#45;&gt;Node10 -->
<g id="edge11_Node000010_Node000012" class="edge">
<title>Node12&#45;&gt;Node10</title>
<g id="a_edge11_Node000010_Node000012"><a xlink:title=" ">
<path fill="none" stroke="#63b8ff" d="M349.5,-911.28C349.5,-901.6 349.5,-889.61 349.5,-876.63"/>
<polygon fill="none" stroke="#63b8ff" points="349.5,-876.82 345.5,-870.82 349.5,-864.82 353.5,-870.82 349.5,-876.82"/>
</a>
</g>
<text text-anchor="middle" x="385.88" y="-883.75" font-family="Helvetica,sans-Serif" font-size="10.00" fill="grey"> +EncryptionKey</text>
</g>
<!-- Node13 -->
<g id="Node000013" class="node">
<title>Node13</title>
<g id="a_Node000013"><a xlink:title=" ">
<polygon fill="white" stroke="none" points="493.5,-960.25 473.5,-960.25 473.5,-911.25 493.5,-911.25 493.5,-960.25"/>
<text text-anchor="start" x="478.25" y="-946.75" font-family="Helvetica,sans-Serif" font-size="10.00">int</text>
<text text-anchor="start" x="482" y="-931.75" font-family="Helvetica,sans-Serif" font-size="10.00"> </text>
<text text-anchor="start" x="482" y="-916.75" font-family="Helvetica,sans-Serif" font-size="10.00"> </text>
<polygon fill="#666666" stroke="#666666" points="473.5,-943.25 473.5,-943.25 493.5,-943.25 493.5,-943.25 473.5,-943.25"/>
<polygon fill="#666666" stroke="#666666" points="473.5,-928.25 473.5,-928.25 493.5,-928.25 493.5,-928.25 473.5,-928.25"/>
<polygon fill="none" stroke="#666666" points="473.5,-911.25 473.5,-960.25 493.5,-960.25 493.5,-911.25 473.5,-911.25"/>
</a>
</g>
</g>
<!-- Node13&#45;&gt;Node3 -->
<g id="edge15_Node000003_Node000013" class="edge">
<title>Node13&#45;&gt;Node3</title>
<g id="a_edge15_Node000003_Node000013"><a xlink:title=" ">
<path fill="none" stroke="#63b8ff" d="M493.47,-921.67C498.88,-913.85 505.13,-903.48 508.5,-893.25 542.48,-790.11 508.14,-756.05 531.5,-650 534.04,-638.49 537.04,-626.73 540.37,-614.97"/>
<polygon fill="none" stroke="#63b8ff" points="540.33,-615.11 538.17,-608.23 543.69,-603.59 545.85,-610.47 540.33,-615.11"/>
</a>
</g>
<text text-anchor="middle" x="572" y="-764.38" font-family="Helvetica,sans-Serif" font-size="10.00" fill="grey"> +ID</text>
<text text-anchor="middle" x="572" y="-753.12" font-family="Helvetica,sans-Serif" font-size="10.00" fill="grey">+SockType</text>
<text text-anchor="middle" x="572" y="-741.88" font-family="Helvetica,sans-Serif" font-size="10.00" fill="grey">+SubNodeIdCount</text>
</g>
<!-- Node13&#45;&gt;Node10 -->
<g id="edge12_Node000010_Node000013" class="edge">
<title>Node13&#45;&gt;Node10</title>
<g id="a_edge12_Node000010_Node000013"><a xlink:title=" ">
<path fill="none" stroke="#63b8ff" d="M473.68,-924.45C465.97,-916.22 455.1,-904.27 446.25,-893.25 441.27,-887.04 436.24,-880.61 431.23,-874.06"/>
<polygon fill="none" stroke="#63b8ff" points="431.17,-873.98 424.36,-871.61 423.93,-864.42 430.74,-866.78 431.17,-873.98"/>
</a>
</g>
<text text-anchor="middle" x="477.62" y="-883.75" font-family="Helvetica,sans-Serif" font-size="10.00" fill="grey"> +socktimeout</text>
</g>
<!-- Node14 -->
<g id="Node000014" class="node">
<title>Node14</title>
<g id="a_Node000014"><a xlink:title=" ">
<polygon fill="white" stroke="none" points="792,-475.25 749,-475.25 749,-426.25 792,-426.25 792,-475.25"/>
<text text-anchor="start" x="753.62" y="-461.75" font-family="Helvetica,sans-Serif" font-size="10.00">System</text>
<text text-anchor="start" x="769" y="-446.75" font-family="Helvetica,sans-Serif" font-size="10.00"> </text>
<text text-anchor="start" x="769" y="-431.75" font-family="Helvetica,sans-Serif" font-size="10.00"> </text>
<polygon fill="#666666" stroke="#666666" points="749,-458.25 749,-458.25 792,-458.25 792,-458.25 749,-458.25"/>
<polygon fill="#666666" stroke="#666666" points="749,-443.25 749,-443.25 792,-443.25 792,-443.25 749,-443.25"/>
<polygon fill="none" stroke="#666666" points="749,-426.25 749,-475.25 792,-475.25 792,-426.25 749,-426.25"/>
</a>
</g>
</g>
<!-- Node14&#45;&gt;Node1 -->
<g id="edge16_Node000001_Node000014" class="edge">
<title>Node14&#45;&gt;Node1</title>
<g id="a_edge16_Node000001_Node000014"><a xlink:title=" ">
<path fill="none" stroke="#63b8ff" d="M768.53,-426.42C765.35,-396.02 757.49,-341.7 739.5,-298.75 724.42,-262.75 702.69,-226.42 680.93,-194.52"/>
<polygon fill="none" stroke="#63b8ff" points="680.9,-194.48 674.19,-191.83 674.06,-184.62 680.77,-187.27 680.9,-194.48"/>
</a>
</g>
<text text-anchor="middle" x="758.62" y="-271.25" font-family="Helvetica,sans-Serif" font-size="10.00" fill="grey"> &#45;button1</text>
<text text-anchor="middle" x="758.62" y="-260" font-family="Helvetica,sans-Serif" font-size="10.00" fill="grey">&#45;button2</text>
<text text-anchor="middle" x="758.62" y="-248.75" font-family="Helvetica,sans-Serif" font-size="10.00" fill="grey">&#45;button3</text>
<text text-anchor="middle" x="758.62" y="-237.5" font-family="Helvetica,sans-Serif" font-size="10.00" fill="grey">&#45;button4</text>
<text text-anchor="middle" x="758.62" y="-226.25" font-family="Helvetica,sans-Serif" font-size="10.00" fill="grey">&#45;components</text>
<text text-anchor="middle" x="758.62" y="-215" font-family="Helvetica,sans-Serif" font-size="10.00" fill="grey">&#45;label1</text>
<text text-anchor="middle" x="758.62" y="-203.75" font-family="Helvetica,sans-Serif" font-size="10.00" fill="grey">&#45;trackBar1</text>
</g>
</g>
</svg>

<g id="navigator" transform="translate(0 0)" fill="#404254">
  <rect fill="#f2f5e9" fill-opacity="0.5" stroke="#606060" stroke-width=".5" x="0" y="0" width="60" height="60"/>
  <use id="zoomplus" xlink:href="#zoomPlus" x="17" y="9" onmousedown="handleZoom(evt,'in')"/>
  <use id="zoomminus" xlink:href="#zoomMin" x="42" y="9" onmousedown="handleZoom(evt,'out')"/>
  <use id="reset" xlink:href="#resetDef" x="30" y="36" onmousedown="handleReset()"/>
   <use id="arrowup" xlink:href="#arrowUp" x="0" y="0" onmousedown="handlePan(0,-1)"/>
  <use id="arrowright" xlink:href="#arrowRight" x="0" y="0" onmousedown="handlePan(1,0)"/>
  <use id="arrowdown" xlink:href="#arrowDown" x="0" y="0" onmousedown="handlePan(0,1)"/>
  <use id="arrowleft" xlink:href="#arrowLeft" x="0" y="0" onmousedown="handlePan(-1,0)"/>
</g>
<svg viewBox="0 0 15 15" width="100%" height="30px" preserveAspectRatio="xMaxYMin meet">
 <g id="arrow_out" transform="scale(0.3 0.3)">
  <a xlink:href="classxeno__rat__server_1_1_forms_1_1_fun_menu__coll__graph_org.svg" target="_base">
   <rect id="button" ry="5" rx="5" y="6" x="6" height="38" width="38"
        fill="#f2f5e9" fill-opacity="0.5" stroke="#606060" stroke-width="1.0"/>
   <path id="arrow"
     d="M 11.500037,31.436501 C 11.940474,20.09759 22.043105,11.32322 32.158766,21.979434 L 37.068811,17.246167 C 37.068811,17.246167 37.088388,32 37.088388,32 L 22.160133,31.978069 C 22.160133,31.978069 26.997745,27.140456 26.997745,27.140456 C 18.528582,18.264221 13.291696,25.230495 11.500037,31.436501 z"
     style="fill:#404040;"/>
  </a>
 </g>
</svg>

<style type='text/css'>
<![CDATA[
[data-mouse-over-selected='false'] { opacity: 0.7; }
[data-mouse-over-selected='true']  { opacity: 1.0; }
]]>
</style>
<script type="application/ecmascript"><![CDATA[
document.addEventListener('DOMContentLoaded', (event) => {
  highlightEdges();
  highlightAdjacentNodes();
});
]]></script>
</svg>
