<?xml version="1.0" encoding="UTF-8" standalone="no"?>
<!DOCTYPE svg PUBLIC "-//W3C//DTD SVG 1.1//EN"
 "http://www.w3.org/Graphics/SVG/1.1/DTD/svg11.dtd">
<!-- Generated by graphviz version 10.0.1 (20240210.2158)
 -->
<!-- Title: InfoGrab.SQLiteHandler.ReadTableFromOffset Pages: 1 -->
<!--zoomable 187 -->

<svg id="main" version="1.1" xmlns="http://www.w3.org/2000/svg" xmlns:xlink="http://www.w3.org/1999/xlink" xml:space="preserve" onload="init(evt)">
<style type="text/css"><![CDATA[
.node, .edge {opacity: 0.7;}
.node.selected, .edge.selected {opacity: 1;}
.edge:hover path { stroke: red; }
.edge:hover polygon { stroke: red; fill: red; }
]]></style>

<defs>
  <circle id="rim" cx="0" cy="0" r="7"/>
  <circle id="rim2" cx="0" cy="0" r="3.5"/>
  <g id="zoomPlus">
    <use xlink:href="#rim" fill="#404040"><set attributeName="fill" to="#808080" begin="zoomplus.mouseover" end="zoomplus.mouseout"/></use>
    <path d="M-4,0h8M0,-4v8" fill="none" stroke="white" stroke-width="1.5" pointer-events="none"/>
  </g>
  <g id="zoomMin">
    <use xlink:href="#rim" fill="#404040"><set attributeName="fill" to="#808080" begin="zoomminus.mouseover" end="zoomminus.mouseout"/></use>
    <path d="M-4,0h8" fill="none" stroke="white" stroke-width="1.5" pointer-events="none"/>
  </g>
  <g id="arrowUp" transform="translate(30 24)">
    <use xlink:href="#rim"/>
    <path pointer-events="none" fill="none" stroke="white" stroke-width="1.5" d="M0,-3.0v7 M-2.5,-0.5L0,-3.0L2.5,-0.5"/>
  </g>
  <g id="arrowRight" transform="rotate(90) translate(36 -43)">
    <use xlink:href="#rim"/>
    <path pointer-events="none" fill="none" stroke="white" stroke-width="1.5" d="M0,-3.0v7 M-2.5,-0.5L0,-3.0L2.5,-0.5"/>
  </g>
  <g id="arrowDown" transform="rotate(180) translate(-30 -48)">
    <use xlink:href="#rim"/>
    <path pointer-events="none" fill="none" stroke="white" stroke-width="1.5" d="M0,-3.0v7 M-2.5,-0.5L0,-3.0L2.5,-0.5"/>
  </g>
  <g id="arrowLeft" transform="rotate(270) translate(-36 17)">
    <use xlink:href="#rim"/>
    <path pointer-events="none" fill="none" stroke="white" stroke-width="1.5" d="M0,-3.0v7 M-2.5,-0.5L0,-3.0L2.5,-0.5"/>
  </g>
  <g id="resetDef">
    <use xlink:href="#rim2" fill="#404040"><set attributeName="fill" to="#808080" begin="reset.mouseover" end="reset.mouseout"/></use>
  </g>
</defs>
<script type="application/ecmascript">
var viewWidth = 532;
var viewHeight = 187;
var sectionId = 'dynsection-14';
</script>
<script type="application/ecmascript" xlink:href="svg.min.js"/>
<svg id="graph" class="graph">
<g id="viewport">
<title>InfoGrab.SQLiteHandler.ReadTableFromOffset</title>
<!-- Node1 -->
<g id="Node000001" class="node">
<title>Node1</title>
<g id="a_Node000001"><a xlink:title="Reads a table from the specified offset and populates the table entries.">
<polygon fill="#999999" stroke="#666666" points="524.25,-98.88 378.5,-98.88 378.5,-68.38 524.25,-68.38 524.25,-98.88"/>
<text text-anchor="start" x="386.5" y="-85.38" font-family="Helvetica,sans-Serif" font-size="10.00">InfoGrab.SQLiteHandler.Read</text>
<text text-anchor="middle" x="451.38" y="-74.12" font-family="Helvetica,sans-Serif" font-size="10.00">TableFromOffset</text>
</a>
</g>
</g>
<!-- Node1&#45;&gt;Node1 -->
<g id="edge7_Node000001_Node000001" class="edge">
<title>Node1&#45;&gt;Node1</title>
<g id="a_edge7_Node000001_Node000001"><a xlink:title=" ">
<path fill="none" stroke="#63b8ff" d="M481.85,-110.58C476.87,-114.35 466.71,-116.88 451.38,-116.88 423.33,-116.88 412.6,-108.43 419.17,-99.36"/>
<polygon fill="#63b8ff" stroke="#63b8ff" points="485.29,-111.27 483.35,-100.86 478.37,-110.21 485.29,-111.27"/>
</a>
</g>
</g>
<!-- Node2 -->
<g id="Node000002" class="node">
<title>Node2</title>
<g id="a_Node000002"><a xlink:href="class_info_grab_1_1_s_q_lite_handler.html#a2ede45dfc58996a373e0159446a881e2" target="_top" xlink:title="Reads the specified table and returns a boolean indicating success or failure.">
<polygon fill="white" stroke="#666666" points="342.5,-98.88 196.75,-98.88 196.75,-68.38 342.5,-68.38 342.5,-98.88"/>
<text text-anchor="start" x="204.75" y="-85.38" font-family="Helvetica,sans-Serif" font-size="10.00">InfoGrab.SQLiteHandler.Read</text>
<text text-anchor="middle" x="269.62" y="-74.12" font-family="Helvetica,sans-Serif" font-size="10.00">Table</text>
</a>
</g>
</g>
<!-- Node1&#45;&gt;Node2 -->
<g id="edge1_Node000001_Node000002" class="edge">
<title>Node1&#45;&gt;Node2</title>
<g id="a_edge1_Node000001_Node000002"><a xlink:title=" ">
<path fill="none" stroke="#63b8ff" d="M366.79,-83.62C358.78,-83.62 350.7,-83.62 342.81,-83.62"/>
<polygon fill="#63b8ff" stroke="#63b8ff" points="366.53,-87.13 376.53,-83.63 366.53,-80.13 366.53,-87.13"/>
</a>
</g>
</g>
<!-- Node3 -->
<g id="Node000003" class="node">
<title>Node3</title>
<g id="a_Node000003"><a xlink:href="class_plugin_1_1_chromium.html#a4d1c5e452ea006c9af2e6f07698fc53f" target="_top" xlink:title=" ">
<polygon fill="white" stroke="#666666" points="153.25,-179.25 7.5,-179.25 7.5,-160 153.25,-160 153.25,-179.25"/>
<text text-anchor="middle" x="80.38" y="-165.75" font-family="Helvetica,sans-Serif" font-size="10.00">Plugin.Chromium.GetCookies</text>
</a>
</g>
</g>
<!-- Node2&#45;&gt;Node3 -->
<g id="edge2_Node000002_Node000003" class="edge">
<title>Node2&#45;&gt;Node3</title>
<g id="a_edge2_Node000002_Node000003"><a xlink:title=" ">
<path fill="none" stroke="#63b8ff" d="M238.95,-105.7C218.03,-120.32 188.85,-138.9 160.75,-150.62 152.25,-154.17 142.95,-157.14 133.8,-159.6"/>
<polygon fill="#63b8ff" stroke="#63b8ff" points="240.88,-108.62 246.99,-99.97 236.82,-102.92 240.88,-108.62"/>
</a>
</g>
</g>
<!-- Node4 -->
<g id="Node000004" class="node">
<title>Node4</title>
<g id="a_Node000004"><a xlink:href="class_plugin_1_1_chromium.html#a83d5541d95f12fe32767b63d8a0dbd63" target="_top" xlink:title=" ">
<polygon fill="white" stroke="#666666" points="148.38,-141.88 12.38,-141.88 12.38,-111.38 148.38,-111.38 148.38,-141.88"/>
<text text-anchor="start" x="20.38" y="-128.38" font-family="Helvetica,sans-Serif" font-size="10.00">Plugin.Chromium.GetCredit</text>
<text text-anchor="middle" x="80.38" y="-117.12" font-family="Helvetica,sans-Serif" font-size="10.00">Cards</text>
</a>
</g>
</g>
<!-- Node2&#45;&gt;Node4 -->
<g id="edge3_Node000002_Node000004" class="edge">
<title>Node2&#45;&gt;Node4</title>
<g id="a_edge3_Node000002_Node000004"><a xlink:title=" ">
<path fill="none" stroke="#63b8ff" d="M189.05,-101.9C175.59,-104.99 161.75,-108.17 148.65,-111.18"/>
<polygon fill="#63b8ff" stroke="#63b8ff" points="189.79,-105.32 198.75,-99.67 188.22,-98.5 189.79,-105.32"/>
</a>
</g>
</g>
<!-- Node5 -->
<g id="Node000005" class="node">
<title>Node5</title>
<g id="a_Node000005"><a xlink:href="class_plugin_1_1_chromium.html#a65cc1bbba4c38f823713af851ad80eb4" target="_top" xlink:title=" ">
<polygon fill="white" stroke="#666666" points="159.62,-93.25 1.12,-93.25 1.12,-74 159.62,-74 159.62,-93.25"/>
<text text-anchor="middle" x="80.38" y="-79.75" font-family="Helvetica,sans-Serif" font-size="10.00">Plugin.Chromium.GetDownloads</text>
</a>
</g>
</g>
<!-- Node2&#45;&gt;Node5 -->
<g id="edge4_Node000002_Node000005" class="edge">
<title>Node2&#45;&gt;Node5</title>
<g id="a_edge4_Node000002_Node000005"><a xlink:title=" ">
<path fill="none" stroke="#63b8ff" d="M185.17,-83.62C176.8,-83.62 168.32,-83.62 160,-83.62"/>
<polygon fill="#63b8ff" stroke="#63b8ff" points="184.98,-87.13 194.98,-83.63 184.98,-80.13 184.98,-87.13"/>
</a>
</g>
</g>
<!-- Node6 -->
<g id="Node000006" class="node">
<title>Node6</title>
<g id="a_Node000006"><a xlink:href="class_plugin_1_1_chromium.html#ac52e16e02ad95b11b537359fc964ed58" target="_top" xlink:title=" ">
<polygon fill="white" stroke="#666666" points="157.38,-56.25 3.38,-56.25 3.38,-37 157.38,-37 157.38,-56.25"/>
<text text-anchor="middle" x="80.38" y="-42.75" font-family="Helvetica,sans-Serif" font-size="10.00">Plugin.Chromium.GetLoginData</text>
</a>
</g>
</g>
<!-- Node2&#45;&gt;Node6 -->
<g id="edge5_Node000002_Node000006" class="edge">
<title>Node2&#45;&gt;Node6</title>
<g id="a_edge5_Node000002_Node000006"><a xlink:title=" ">
<path fill="none" stroke="#63b8ff" d="M185.39,-67.18C167.39,-63.62 148.88,-59.96 132.56,-56.74"/>
<polygon fill="#63b8ff" stroke="#63b8ff" points="184.52,-70.57 195.01,-69.08 185.88,-63.71 184.52,-70.57"/>
</a>
</g>
</g>
<!-- Node7 -->
<g id="Node000007" class="node">
<title>Node7</title>
<g id="a_Node000007"><a xlink:href="class_plugin_1_1_chromium.html#aae704fa742e5a23774102fb6ffb7d8f2" target="_top" xlink:title=" ">
<polygon fill="white" stroke="#666666" points="160.75,-19.25 0,-19.25 0,0 160.75,0 160.75,-19.25"/>
<text text-anchor="middle" x="80.38" y="-5.75" font-family="Helvetica,sans-Serif" font-size="10.00">Plugin.Chromium.GetWebHistory</text>
</a>
</g>
</g>
<!-- Node2&#45;&gt;Node7 -->
<g id="edge6_Node000002_Node000007" class="edge">
<title>Node2&#45;&gt;Node7</title>
<g id="a_edge6_Node000002_Node000007"><a xlink:title=" ">
<path fill="none" stroke="#63b8ff" d="M233.45,-62.44C212.86,-50.79 186.01,-36.87 160.75,-27.62 152.39,-24.56 143.34,-21.92 134.44,-19.67"/>
<polygon fill="#63b8ff" stroke="#63b8ff" points="231.59,-65.41 242,-67.36 235.08,-59.34 231.59,-65.41"/>
</a>
</g>
</g>
</g>
</svg>

<g id="navigator" transform="translate(0 0)" fill="#404254">
  <rect fill="#f2f5e9" fill-opacity="0.5" stroke="#606060" stroke-width=".5" x="0" y="0" width="60" height="60"/>
  <use id="zoomplus" xlink:href="#zoomPlus" x="17" y="9" onmousedown="handleZoom(evt,'in')"/>
  <use id="zoomminus" xlink:href="#zoomMin" x="42" y="9" onmousedown="handleZoom(evt,'out')"/>
  <use id="reset" xlink:href="#resetDef" x="30" y="36" onmousedown="handleReset()"/>
   <use id="arrowup" xlink:href="#arrowUp" x="0" y="0" onmousedown="handlePan(0,-1)"/>
  <use id="arrowright" xlink:href="#arrowRight" x="0" y="0" onmousedown="handlePan(1,0)"/>
  <use id="arrowdown" xlink:href="#arrowDown" x="0" y="0" onmousedown="handlePan(0,1)"/>
  <use id="arrowleft" xlink:href="#arrowLeft" x="0" y="0" onmousedown="handlePan(-1,0)"/>
</g>
<svg viewBox="0 0 15 15" width="100%" height="30px" preserveAspectRatio="xMaxYMin meet">
 <g id="arrow_out" transform="scale(0.3 0.3)">
  <a xlink:href="class_info_grab_1_1_s_q_lite_handler_a50ac748c0c8463acd55e8767c2abfaf6_icgraph_org.svg" target="_base">
   <rect id="button" ry="5" rx="5" y="6" x="6" height="38" width="38"
        fill="#f2f5e9" fill-opacity="0.5" stroke="#606060" stroke-width="1.0"/>
   <path id="arrow"
     d="M 11.500037,31.436501 C 11.940474,20.09759 22.043105,11.32322 32.158766,21.979434 L 37.068811,17.246167 C 37.068811,17.246167 37.088388,32 37.088388,32 L 22.160133,31.978069 C 22.160133,31.978069 26.997745,27.140456 26.997745,27.140456 C 18.528582,18.264221 13.291696,25.230495 11.500037,31.436501 z"
     style="fill:#404040;"/>
  </a>
 </g>
</svg>

<style type='text/css'>
<![CDATA[
[data-mouse-over-selected='false'] { opacity: 0.7; }
[data-mouse-over-selected='true']  { opacity: 1.0; }
]]>
</style>
<script type="application/ecmascript"><![CDATA[
document.addEventListener('DOMContentLoaded', (event) => {
  highlightEdges();
  highlightAdjacentNodes();
});
]]></script>
</svg>
