<?xml version="1.0" encoding="UTF-8" standalone="no"?>
<!DOCTYPE svg PUBLIC "-//W3C//DTD SVG 1.1//EN"
 "http://www.w3.org/Graphics/SVG/1.1/DTD/svg11.dtd">
<!-- Generated by graphviz version 10.0.1 (20240210.2158)
 -->
<!-- Title: NAudio.Wave.AsioOut.isSupported Pages: 1 -->
<svg width="558pt" height="39pt"
 viewBox="0.00 0.00 557.75 38.50" xmlns="http://www.w3.org/2000/svg" xmlns:xlink="http://www.w3.org/1999/xlink">
<g id="graph0" class="graph" transform="scale(1 1) rotate(0) translate(4 34.5)">
<title>NAudio.Wave.AsioOut.isSupported</title>
<!-- Node1 -->
<g id="Node000001" class="node">
<title>Node1</title>
<g id="a_Node000001"><a xlink:title="Checks if the system supports the operation.">
<polygon fill="#999999" stroke="#666666" points="169,-24.88 0,-24.88 0,-5.63 169,-5.63 169,-24.88"/>
<text text-anchor="middle" x="84.5" y="-11.38" font-family="Helvetica,sans-Serif" font-size="10.00">NAudio.Wave.AsioOut.isSupported</text>
</a>
</g>
</g>
<!-- Node2 -->
<g id="Node000002" class="node">
<title>Node2</title>
<g id="a_Node000002"><a xlink:href="class_n_audio_1_1_wave_1_1_asio_out.html#a39445d5b9ce4e9525f5a4b8b50d781a7" target="_top" xlink:title="Retrieves the names of the available ASIO drivers.">
<polygon fill="white" stroke="#666666" points="364.25,-30.5 205,-30.5 205,0 364.25,0 364.25,-30.5"/>
<text text-anchor="start" x="213" y="-17" font-family="Helvetica,sans-Serif" font-size="10.00">NAudio.Wave.AsioOut.GetDriver</text>
<text text-anchor="middle" x="284.62" y="-5.75" font-family="Helvetica,sans-Serif" font-size="10.00">Names</text>
</a>
</g>
</g>
<!-- Node1&#45;&gt;Node2 -->
<g id="edge1_Node000001_Node000002" class="edge">
<title>Node1&#45;&gt;Node2</title>
<g id="a_edge1_Node000001_Node000002"><a xlink:title=" ">
<path fill="none" stroke="#63b8ff" d="M169.24,-15.25C177.2,-15.25 185.31,-15.25 193.33,-15.25"/>
<polygon fill="#63b8ff" stroke="#63b8ff" points="193.09,-18.75 203.09,-15.25 193.09,-11.75 193.09,-18.75"/>
</a>
</g>
</g>
<!-- Node3 -->
<g id="Node000003" class="node">
<title>Node3</title>
<g id="a_Node000003"><a xlink:href="class_n_audio_1_1_wave_1_1_asio_1_1_asio_driver.html#ac19601334eaea8eea603f9c4bcbe6851" target="_top" xlink:title="Retrieves the names of ASIO drivers installed on the system.">
<polygon fill="white" stroke="#666666" points="549.75,-30.5 400.25,-30.5 400.25,0 549.75,0 549.75,-30.5"/>
<text text-anchor="start" x="408.25" y="-17" font-family="Helvetica,sans-Serif" font-size="10.00">NAudio.Wave.Asio.AsioDriver.</text>
<text text-anchor="middle" x="475" y="-5.75" font-family="Helvetica,sans-Serif" font-size="10.00">GetAsioDriverNames</text>
</a>
</g>
</g>
<!-- Node2&#45;&gt;Node3 -->
<g id="edge2_Node000002_Node000003" class="edge">
<title>Node2&#45;&gt;Node3</title>
<g id="a_edge2_Node000002_Node000003"><a xlink:title=" ">
<path fill="none" stroke="#63b8ff" d="M364.69,-15.25C372.54,-15.25 380.53,-15.25 388.44,-15.25"/>
<polygon fill="#63b8ff" stroke="#63b8ff" points="388.43,-18.75 398.43,-15.25 388.43,-11.75 388.43,-18.75"/>
</a>
</g>
</g>
</g>
</svg>
