<?xml version="1.0" encoding="UTF-8" standalone="no"?>
<!DOCTYPE svg PUBLIC "-//W3C//DTD SVG 1.1//EN"
 "http://www.w3.org/Graphics/SVG/1.1/DTD/svg11.dtd">
<!-- Generated by graphviz version 10.0.1 (20240210.2158)
 -->
<!-- Title: NAudio.CoreAudioApi.AudioClient.Dispose Pages: 1 -->
<svg width="349pt" height="113pt"
 viewBox="0.00 0.00 349.00 112.88" xmlns="http://www.w3.org/2000/svg" xmlns:xlink="http://www.w3.org/1999/xlink">
<g id="graph0" class="graph" transform="scale(1 1) rotate(0) translate(4 108.88)">
<title>NAudio.CoreAudioApi.AudioClient.Dispose</title>
<!-- Node1 -->
<g id="Node000001" class="node">
<title>Node1</title>
<g id="a_Node000001"><a xlink:title="Performs the disposal of resources used by the audio client.">
<polygon fill="#999999" stroke="#666666" points="341,-61.88 202,-61.88 202,-31.38 341,-31.38 341,-61.88"/>
<text text-anchor="start" x="210" y="-48.38" font-family="Helvetica,sans-Serif" font-size="10.00">NAudio.CoreAudioApi.Audio</text>
<text text-anchor="middle" x="271.5" y="-37.12" font-family="Helvetica,sans-Serif" font-size="10.00">Client.Dispose</text>
</a>
</g>
</g>
<!-- Node2 -->
<g id="Node000002" class="node">
<title>Node2</title>
<g id="a_Node000002"><a xlink:href="class_n_audio_1_1_core_audio_api_1_1_wasapi_capture.html#a08b9c5ce3eb56ae90d15953ec2523e25" target="_top" xlink:title="Disposes of the resources used for audio recording.">
<polygon fill="white" stroke="#666666" points="156.25,-104.88 9.75,-104.88 9.75,-74.38 156.25,-74.38 156.25,-104.88"/>
<text text-anchor="start" x="17.75" y="-91.38" font-family="Helvetica,sans-Serif" font-size="10.00">NAudio.CoreAudioApi.Wasapi</text>
<text text-anchor="middle" x="83" y="-80.12" font-family="Helvetica,sans-Serif" font-size="10.00">Capture.Dispose</text>
</a>
</g>
</g>
<!-- Node1&#45;&gt;Node2 -->
<g id="edge1_Node000001_Node000002" class="edge">
<title>Node1&#45;&gt;Node2</title>
<g id="a_edge1_Node000001_Node000002"><a xlink:title=" ">
<path fill="none" stroke="#63b8ff" d="M191.52,-64.83C178.46,-67.85 165.02,-70.95 152.25,-73.89"/>
<polygon fill="#63b8ff" stroke="#63b8ff" points="191.94,-68.33 200.9,-62.67 190.37,-61.51 191.94,-68.33"/>
</a>
</g>
</g>
<!-- Node3 -->
<g id="Node000003" class="node">
<title>Node3</title>
<g id="a_Node000003"><a xlink:href="class_n_audio_1_1_wave_1_1_wasapi_out.html#a5ffe1e0637f770a815133728107fd511" target="_top" xlink:title="Disposes the audio client and stops the rendering if it is currently running.">
<polygon fill="white" stroke="#666666" points="166,-56.25 0,-56.25 0,-37 166,-37 166,-56.25"/>
<text text-anchor="middle" x="83" y="-42.75" font-family="Helvetica,sans-Serif" font-size="10.00">NAudio.Wave.WasapiOut.Dispose</text>
</a>
</g>
</g>
<!-- Node1&#45;&gt;Node3 -->
<g id="edge2_Node000001_Node000003" class="edge">
<title>Node1&#45;&gt;Node3</title>
<g id="a_edge2_Node000001_Node000003"><a xlink:title=" ">
<path fill="none" stroke="#63b8ff" d="M190.1,-46.62C182.18,-46.62 174.14,-46.62 166.21,-46.62"/>
<polygon fill="#63b8ff" stroke="#63b8ff" points="190.07,-50.13 200.07,-46.63 190.07,-43.13 190.07,-50.13"/>
</a>
</g>
</g>
<!-- Node4 -->
<g id="Node000004" class="node">
<title>Node4</title>
<g id="a_Node000004"><a xlink:href="class_n_audio_1_1_wave_1_1_wasapi_out.html#a26a53294854cb94a54d0959b3c09c6f6" target="_top" xlink:title="Initializes the audio output with the specified waveProvider .">
<polygon fill="white" stroke="#666666" points="154.75,-19.25 11.25,-19.25 11.25,0 154.75,0 154.75,-19.25"/>
<text text-anchor="middle" x="83" y="-5.75" font-family="Helvetica,sans-Serif" font-size="10.00">NAudio.Wave.WasapiOut.Init</text>
</a>
</g>
</g>
<!-- Node1&#45;&gt;Node4 -->
<g id="edge3_Node000001_Node000004" class="edge">
<title>Node1&#45;&gt;Node4</title>
<g id="a_edge3_Node000001_Node000004"><a xlink:title=" ">
<path fill="none" stroke="#63b8ff" d="M190.31,-30.72C171.5,-26.98 151.97,-23.11 134.85,-19.71"/>
<polygon fill="#63b8ff" stroke="#63b8ff" points="189.61,-34.15 200.1,-32.66 190.97,-27.28 189.61,-34.15"/>
</a>
</g>
</g>
</g>
</svg>
