<?xml version="1.0" encoding="UTF-8" standalone="no"?>
<!DOCTYPE svg PUBLIC "-//W3C//DTD SVG 1.1//EN"
 "http://www.w3.org/Graphics/SVG/1.1/DTD/svg11.dtd">
<!-- Generated by graphviz version 10.0.1 (20240210.2158)
 -->
<!-- Title: NAudio.Wave.WaveFileWriter.HasFactChunk Pages: 1 -->
<svg width="888pt" height="186pt"
 viewBox="0.00 0.00 888.25 185.50" xmlns="http://www.w3.org/2000/svg" xmlns:xlink="http://www.w3.org/1999/xlink">
<g id="graph0" class="graph" transform="scale(1 1) rotate(0) translate(4 181.5)">
<title>NAudio.Wave.WaveFileWriter.HasFactChunk</title>
<!-- Node1 -->
<g id="Node000001" class="node">
<title>Node1</title>
<g id="a_Node000001"><a xlink:title="Checks if the wave format has a fact chunk.">
<polygon fill="#999999" stroke="#666666" points="880.25,-103.5 733,-103.5 733,-73 880.25,-73 880.25,-103.5"/>
<text text-anchor="start" x="741" y="-90" font-family="Helvetica,sans-Serif" font-size="10.00">NAudio.Wave.WaveFileWriter.</text>
<text text-anchor="middle" x="806.62" y="-78.75" font-family="Helvetica,sans-Serif" font-size="10.00">HasFactChunk</text>
</a>
</g>
</g>
<!-- Node2 -->
<g id="Node000002" class="node">
<title>Node2</title>
<g id="a_Node000002"><a xlink:href="class_n_audio_1_1_wave_1_1_wave_file_writer.html#a878304d9021095d970bced3f7a13b98d" target="_top" xlink:title="Creates a fact chunk in the output stream if it does not already exist.">
<polygon fill="white" stroke="#666666" points="697,-128.5 549.75,-128.5 549.75,-98 697,-98 697,-128.5"/>
<text text-anchor="start" x="557.75" y="-115" font-family="Helvetica,sans-Serif" font-size="10.00">NAudio.Wave.WaveFileWriter.</text>
<text text-anchor="middle" x="623.38" y="-103.75" font-family="Helvetica,sans-Serif" font-size="10.00">CreateFactChunk</text>
</a>
</g>
</g>
<!-- Node1&#45;&gt;Node2 -->
<g id="edge1_Node000001_Node000002" class="edge">
<title>Node1&#45;&gt;Node2</title>
<g id="a_edge1_Node000001_Node000002"><a xlink:title=" ">
<path fill="none" stroke="#63b8ff" d="M721.44,-99.86C713.43,-100.97 705.35,-102.08 697.46,-103.17"/>
<polygon fill="#63b8ff" stroke="#63b8ff" points="721.76,-103.35 731.19,-98.52 720.8,-96.42 721.76,-103.35"/>
</a>
</g>
</g>
<!-- Node7 -->
<g id="Node000007" class="node">
<title>Node7</title>
<g id="a_Node000007"><a xlink:href="class_n_audio_1_1_wave_1_1_wave_file_writer.html#ad95029cf35ce3067e0443e3442d88971" target="_top" xlink:title="Updates the &#39;fact&#39; chunk in the WAV file with the sample count information.">
<polygon fill="white" stroke="#666666" points="697,-79.5 549.75,-79.5 549.75,-49 697,-49 697,-79.5"/>
<text text-anchor="start" x="557.75" y="-66" font-family="Helvetica,sans-Serif" font-size="10.00">NAudio.Wave.WaveFileWriter.</text>
<text text-anchor="middle" x="623.38" y="-54.75" font-family="Helvetica,sans-Serif" font-size="10.00">UpdateFactChunk</text>
</a>
</g>
</g>
<!-- Node1&#45;&gt;Node7 -->
<g id="edge6_Node000001_Node000007" class="edge">
<title>Node1&#45;&gt;Node7</title>
<g id="a_edge6_Node000001_Node000007"><a xlink:title=" ">
<path fill="none" stroke="#63b8ff" d="M721.44,-77.1C713.43,-76.04 705.35,-74.97 697.46,-73.93"/>
<polygon fill="#63b8ff" stroke="#63b8ff" points="720.81,-80.55 731.19,-78.39 721.73,-73.61 720.81,-80.55"/>
</a>
</g>
</g>
<!-- Node3 -->
<g id="Node000003" class="node">
<title>Node3</title>
<g id="a_Node000003"><a xlink:href="class_n_audio_1_1_wave_1_1_wave_file_writer.html#a4c203fd25befc1c773f4a3818d3b968d" target="_top" xlink:title="WaveFileWriter that actually writes to a stream.">
<polygon fill="white" stroke="#666666" points="513.75,-128.5 366.5,-128.5 366.5,-98 513.75,-98 513.75,-128.5"/>
<text text-anchor="start" x="374.5" y="-115" font-family="Helvetica,sans-Serif" font-size="10.00">NAudio.Wave.WaveFileWriter.</text>
<text text-anchor="middle" x="440.12" y="-103.75" font-family="Helvetica,sans-Serif" font-size="10.00">WaveFileWriter</text>
</a>
</g>
</g>
<!-- Node2&#45;&gt;Node3 -->
<g id="edge2_Node000002_Node000003" class="edge">
<title>Node2&#45;&gt;Node3</title>
<g id="a_edge2_Node000002_Node000003"><a xlink:title=" ">
<path fill="none" stroke="#63b8ff" d="M538.19,-113.25C530.18,-113.25 522.1,-113.25 514.21,-113.25"/>
<polygon fill="#63b8ff" stroke="#63b8ff" points="537.92,-116.75 547.92,-113.25 537.92,-109.75 537.92,-116.75"/>
</a>
</g>
</g>
<!-- Node4 -->
<g id="Node000004" class="node">
<title>Node4</title>
<g id="a_Node000004"><a xlink:href="class_n_audio_1_1_wave_1_1_wave_file_writer.html#a564655abe5b5fb0f90e4b10bf5f83270" target="_top" xlink:title="Creates a wave file with the specified filename using the provided wave provider.">
<polygon fill="white" stroke="#666666" points="330.5,-177.5 183.25,-177.5 183.25,-147 330.5,-147 330.5,-177.5"/>
<text text-anchor="start" x="191.25" y="-164" font-family="Helvetica,sans-Serif" font-size="10.00">NAudio.Wave.WaveFileWriter.</text>
<text text-anchor="middle" x="256.88" y="-152.75" font-family="Helvetica,sans-Serif" font-size="10.00">CreateWaveFile</text>
</a>
</g>
</g>
<!-- Node3&#45;&gt;Node4 -->
<g id="edge3_Node000003_Node000004" class="edge">
<title>Node3&#45;&gt;Node4</title>
<g id="a_edge3_Node000003_Node000004"><a xlink:title=" ">
<path fill="none" stroke="#63b8ff" d="M370.33,-131.85C352.46,-136.68 333.38,-141.84 316.11,-146.51"/>
<polygon fill="#63b8ff" stroke="#63b8ff" points="371.08,-135.27 379.82,-129.28 369.25,-128.51 371.08,-135.27"/>
</a>
</g>
</g>
<!-- Node6 -->
<g id="Node000006" class="node">
<title>Node6</title>
<g id="a_Node000006"><a xlink:href="class_n_audio_1_1_wave_1_1_wave_file_writer.html#aa314b7eff712e1e522f2b481dbbad6e7" target="_top" xlink:title="Writes the audio data from the specified sourceProvider &#160;to the outStream &#160;in WAV format.">
<polygon fill="white" stroke="#666666" points="330.5,-128.5 183.25,-128.5 183.25,-98 330.5,-98 330.5,-128.5"/>
<text text-anchor="start" x="191.25" y="-115" font-family="Helvetica,sans-Serif" font-size="10.00">NAudio.Wave.WaveFileWriter.</text>
<text text-anchor="middle" x="256.88" y="-103.75" font-family="Helvetica,sans-Serif" font-size="10.00">WriteWavFileToStream</text>
</a>
</g>
</g>
<!-- Node3&#45;&gt;Node6 -->
<g id="edge5_Node000003_Node000006" class="edge">
<title>Node3&#45;&gt;Node6</title>
<g id="a_edge5_Node000003_Node000006"><a xlink:title=" ">
<path fill="none" stroke="#63b8ff" d="M354.94,-113.25C346.93,-113.25 338.85,-113.25 330.96,-113.25"/>
<polygon fill="#63b8ff" stroke="#63b8ff" points="354.67,-116.75 364.67,-113.25 354.67,-109.75 354.67,-116.75"/>
</a>
</g>
</g>
<!-- Node5 -->
<g id="Node000005" class="node">
<title>Node5</title>
<g id="a_Node000005"><a xlink:href="class_n_audio_1_1_wave_1_1_wave_file_writer.html#a2e82a51972b97bf9ca404259146c48b2" target="_top" xlink:title="Creates a 16&#45;bit wave file from the provided sourceProvider &#160;and saves it with the specified filename...">
<polygon fill="white" stroke="#666666" points="147.25,-177.5 0,-177.5 0,-147 147.25,-147 147.25,-177.5"/>
<text text-anchor="start" x="8" y="-164" font-family="Helvetica,sans-Serif" font-size="10.00">NAudio.Wave.WaveFileWriter.</text>
<text text-anchor="middle" x="73.62" y="-152.75" font-family="Helvetica,sans-Serif" font-size="10.00">CreateWaveFile16</text>
</a>
</g>
</g>
<!-- Node4&#45;&gt;Node5 -->
<g id="edge4_Node000004_Node000005" class="edge">
<title>Node4&#45;&gt;Node5</title>
<g id="a_edge4_Node000004_Node000005"><a xlink:title=" ">
<path fill="none" stroke="#63b8ff" d="M171.69,-162.25C163.68,-162.25 155.6,-162.25 147.71,-162.25"/>
<polygon fill="#63b8ff" stroke="#63b8ff" points="171.42,-165.75 181.42,-162.25 171.42,-158.75 171.42,-165.75"/>
</a>
</g>
</g>
<!-- Node8 -->
<g id="Node000008" class="node">
<title>Node8</title>
<g id="a_Node000008"><a xlink:href="class_n_audio_1_1_wave_1_1_wave_file_writer.html#ab50c1f10814b936065f8d7f5d3584fa2" target="_top" xlink:title="Updates the header of the audio file by flushing the writer and updating the RIFF,...">
<polygon fill="white" stroke="#666666" points="513.75,-79.5 366.5,-79.5 366.5,-49 513.75,-49 513.75,-79.5"/>
<text text-anchor="start" x="374.5" y="-66" font-family="Helvetica,sans-Serif" font-size="10.00">NAudio.Wave.WaveFileWriter.</text>
<text text-anchor="middle" x="440.12" y="-54.75" font-family="Helvetica,sans-Serif" font-size="10.00">UpdateHeader</text>
</a>
</g>
</g>
<!-- Node7&#45;&gt;Node8 -->
<g id="edge7_Node000007_Node000008" class="edge">
<title>Node7&#45;&gt;Node8</title>
<g id="a_edge7_Node000007_Node000008"><a xlink:title=" ">
<path fill="none" stroke="#63b8ff" d="M538.19,-64.25C530.18,-64.25 522.1,-64.25 514.21,-64.25"/>
<polygon fill="#63b8ff" stroke="#63b8ff" points="537.92,-67.75 547.92,-64.25 537.92,-60.75 537.92,-67.75"/>
</a>
</g>
</g>
<!-- Node9 -->
<g id="Node000009" class="node">
<title>Node9</title>
<g id="a_Node000009"><a xlink:href="class_n_audio_1_1_wave_1_1_wave_file_writer.html#aea4aae5af23f69630e9a4028555462b6" target="_top" xlink:title="Releases the unmanaged resources used by the ClassName and optionally releases the managed resources.">
<polygon fill="white" stroke="#666666" points="330.5,-79.5 183.25,-79.5 183.25,-49 330.5,-49 330.5,-79.5"/>
<text text-anchor="start" x="191.25" y="-66" font-family="Helvetica,sans-Serif" font-size="10.00">NAudio.Wave.WaveFileWriter.</text>
<text text-anchor="middle" x="256.88" y="-54.75" font-family="Helvetica,sans-Serif" font-size="10.00">Dispose</text>
</a>
</g>
</g>
<!-- Node8&#45;&gt;Node9 -->
<g id="edge8_Node000008_Node000009" class="edge">
<title>Node8&#45;&gt;Node9</title>
<g id="a_edge8_Node000008_Node000009"><a xlink:title=" ">
<path fill="none" stroke="#63b8ff" d="M354.94,-64.25C346.93,-64.25 338.85,-64.25 330.96,-64.25"/>
<polygon fill="#63b8ff" stroke="#63b8ff" points="354.67,-67.75 364.67,-64.25 354.67,-60.75 354.67,-67.75"/>
</a>
</g>
</g>
<!-- Node12 -->
<g id="Node000012" class="node">
<title>Node12</title>
<g id="a_Node000012"><a xlink:href="class_n_audio_1_1_wave_1_1_wave_file_writer.html#a36afa5daa41363d0303dd37a363f16d9" target="_top" xlink:title="Updates the header and flushes the underlying stream.">
<polygon fill="white" stroke="#666666" points="330.5,-30.5 183.25,-30.5 183.25,0 330.5,0 330.5,-30.5"/>
<text text-anchor="start" x="191.25" y="-17" font-family="Helvetica,sans-Serif" font-size="10.00">NAudio.Wave.WaveFileWriter.</text>
<text text-anchor="middle" x="256.88" y="-5.75" font-family="Helvetica,sans-Serif" font-size="10.00">Flush</text>
</a>
</g>
</g>
<!-- Node8&#45;&gt;Node12 -->
<g id="edge11_Node000008_Node000012" class="edge">
<title>Node8&#45;&gt;Node12</title>
<g id="a_edge11_Node000008_Node000012"><a xlink:title=" ">
<path fill="none" stroke="#63b8ff" d="M370.33,-45.65C352.46,-40.82 333.38,-35.66 316.11,-30.99"/>
<polygon fill="#63b8ff" stroke="#63b8ff" points="369.25,-48.99 379.82,-48.22 371.08,-42.23 369.25,-48.99"/>
</a>
</g>
</g>
<!-- Node10 -->
<g id="Node000010" class="node">
<title>Node10</title>
<g id="a_Node000010"><a xlink:href="class_n_audio_1_1_wave_1_1_wave_recorder.html#aed186a830758160c74ec883780dc79b8" target="_top" xlink:title="Performs application&#45;defined tasks associated with freeing, releasing, or resetting unmanaged resourc...">
<polygon fill="white" stroke="#666666" points="146.5,-128.5 0.75,-128.5 0.75,-98 146.5,-98 146.5,-128.5"/>
<text text-anchor="start" x="8.75" y="-115" font-family="Helvetica,sans-Serif" font-size="10.00">NAudio.Wave.WaveRecorder.</text>
<text text-anchor="middle" x="73.62" y="-103.75" font-family="Helvetica,sans-Serif" font-size="10.00">Dispose</text>
</a>
</g>
</g>
<!-- Node9&#45;&gt;Node10 -->
<g id="edge9_Node000009_Node000010" class="edge">
<title>Node9&#45;&gt;Node10</title>
<g id="a_edge9_Node000009_Node000010"><a xlink:title=" ">
<path fill="none" stroke="#63b8ff" d="M187.08,-82.85C169.21,-87.68 150.13,-92.84 132.86,-97.51"/>
<polygon fill="#63b8ff" stroke="#63b8ff" points="187.83,-86.27 196.57,-80.28 186,-79.51 187.83,-86.27"/>
</a>
</g>
</g>
<!-- Node11 -->
<g id="Node000011" class="node">
<title>Node11</title>
<g id="a_Node000011"><a xlink:href="class_n_audio_1_1_wave_1_1_wave_file_writer.html#a1fb5e2e471f0015a03c9b203900374d9" target="_top" xlink:title="Finaliser &#45; should only be called if the user forgot to close this WaveFileWriter.">
<polygon fill="white" stroke="#666666" points="147.25,-79.5 0,-79.5 0,-49 147.25,-49 147.25,-79.5"/>
<text text-anchor="start" x="8" y="-66" font-family="Helvetica,sans-Serif" font-size="10.00">NAudio.Wave.WaveFileWriter.</text>
<text text-anchor="middle" x="73.62" y="-54.75" font-family="Helvetica,sans-Serif" font-size="10.00">~WaveFileWriter</text>
</a>
</g>
</g>
<!-- Node9&#45;&gt;Node11 -->
<g id="edge10_Node000009_Node000011" class="edge">
<title>Node9&#45;&gt;Node11</title>
<g id="a_edge10_Node000009_Node000011"><a xlink:title=" ">
<path fill="none" stroke="#63b8ff" d="M171.69,-64.25C163.68,-64.25 155.6,-64.25 147.71,-64.25"/>
<polygon fill="#63b8ff" stroke="#63b8ff" points="171.42,-67.75 181.42,-64.25 171.42,-60.75 171.42,-67.75"/>
</a>
</g>
</g>
</g>
</svg>
