<?xml version="1.0" encoding="UTF-8" standalone="no"?>
<!DOCTYPE svg PUBLIC "-//W3C//DTD SVG 1.1//EN"
 "http://www.w3.org/Graphics/SVG/1.1/DTD/svg11.dtd">
<!-- Generated by graphviz version 10.0.1 (20240210.2158)
 -->
<!-- Title: Hidden_handler.input_handler.Input Pages: 1 -->
<!--zoomable 970 -->

<svg id="main" version="1.1" xmlns="http://www.w3.org/2000/svg" xmlns:xlink="http://www.w3.org/1999/xlink" xml:space="preserve" onload="init(evt)">
<style type="text/css"><![CDATA[
.node, .edge {opacity: 0.7;}
.node.selected, .edge.selected {opacity: 1;}
.edge:hover path { stroke: red; }
.edge:hover polygon { stroke: red; fill: red; }
]]></style>

<defs>
  <circle id="rim" cx="0" cy="0" r="7"/>
  <circle id="rim2" cx="0" cy="0" r="3.5"/>
  <g id="zoomPlus">
    <use xlink:href="#rim" fill="#404040"><set attributeName="fill" to="#808080" begin="zoomplus.mouseover" end="zoomplus.mouseout"/></use>
    <path d="M-4,0h8M0,-4v8" fill="none" stroke="white" stroke-width="1.5" pointer-events="none"/>
  </g>
  <g id="zoomMin">
    <use xlink:href="#rim" fill="#404040"><set attributeName="fill" to="#808080" begin="zoomminus.mouseover" end="zoomminus.mouseout"/></use>
    <path d="M-4,0h8" fill="none" stroke="white" stroke-width="1.5" pointer-events="none"/>
  </g>
  <g id="arrowUp" transform="translate(30 24)">
    <use xlink:href="#rim"/>
    <path pointer-events="none" fill="none" stroke="white" stroke-width="1.5" d="M0,-3.0v7 M-2.5,-0.5L0,-3.0L2.5,-0.5"/>
  </g>
  <g id="arrowRight" transform="rotate(90) translate(36 -43)">
    <use xlink:href="#rim"/>
    <path pointer-events="none" fill="none" stroke="white" stroke-width="1.5" d="M0,-3.0v7 M-2.5,-0.5L0,-3.0L2.5,-0.5"/>
  </g>
  <g id="arrowDown" transform="rotate(180) translate(-30 -48)">
    <use xlink:href="#rim"/>
    <path pointer-events="none" fill="none" stroke="white" stroke-width="1.5" d="M0,-3.0v7 M-2.5,-0.5L0,-3.0L2.5,-0.5"/>
  </g>
  <g id="arrowLeft" transform="rotate(270) translate(-36 17)">
    <use xlink:href="#rim"/>
    <path pointer-events="none" fill="none" stroke="white" stroke-width="1.5" d="M0,-3.0v7 M-2.5,-0.5L0,-3.0L2.5,-0.5"/>
  </g>
  <g id="resetDef">
    <use xlink:href="#rim2" fill="#404040"><set attributeName="fill" to="#808080" begin="reset.mouseover" end="reset.mouseout"/></use>
  </g>
</defs>
<script type="application/ecmascript">
var viewWidth = 309;
var viewHeight = 970;
var sectionId = 'dynsection-14';
</script>
<script type="application/ecmascript" xlink:href="svg.min.js"/>
<svg id="graph" class="graph">
<g id="viewport">
<title>Hidden_handler.input_handler.Input</title>
<!-- Node1 -->
<g id="Node000001" class="node">
<title>Node1</title>
<g id="a_Node000001"><a xlink:title="Handles input messages and performs corresponding actions based on the message type.">
<polygon fill="#999999" stroke="#666666" points="106.75,-495.5 0,-495.5 0,-465 106.75,-465 106.75,-495.5"/>
<text text-anchor="start" x="8" y="-482" font-family="Helvetica,sans-Serif" font-size="10.00">Hidden_handler.input</text>
<text text-anchor="middle" x="53.38" y="-470.75" font-family="Helvetica,sans-Serif" font-size="10.00">_handler.Input</text>
</a>
</g>
</g>
<!-- Node2 -->
<g id="Node000002" class="node">
<title>Node2</title>
<g id="a_Node000002"><a xlink:href="class_hidden__handler_1_1input__handler.html#a903692dc090dbf7c3e66d3b1c6766dc7" target="_top" xlink:title="Retrieves a handle to the child window at the specified point.">
<polygon fill="white" stroke="#666666" points="300.5,-961.5 142.75,-961.5 142.75,-931 300.5,-931 300.5,-961.5"/>
<text text-anchor="start" x="150.75" y="-948" font-family="Helvetica,sans-Serif" font-size="10.00">Hidden_handler.input</text>
<text text-anchor="middle" x="221.62" y="-936.75" font-family="Helvetica,sans-Serif" font-size="10.00">_handler.ChildWindowFromPoint</text>
</a>
</g>
</g>
<!-- Node1&#45;&gt;Node2 -->
<g id="edge1_Node000001_Node000002" class="edge">
<title>Node1&#45;&gt;Node2</title>
<g id="a_edge1_Node000001_Node000002"><a xlink:title=" ">
<path fill="none" stroke="#63b8ff" d="M55.41,-495.67C60.42,-566.01 84.37,-855.88 142.75,-921.25 143.45,-922.04 144.18,-922.8 144.93,-923.54"/>
<polygon fill="#63b8ff" stroke="#63b8ff" points="142.58,-926.14 152.58,-929.64 146.94,-920.66 142.58,-926.14"/>
</a>
</g>
</g>
<!-- Node3 -->
<g id="Node000003" class="node">
<title>Node3</title>
<g id="a_Node000003"><a xlink:href="class_hidden__handler_1_1input__handler.html#a43e433e26e6dba7aefe30ee9ceff44e7" target="_top" xlink:title="Finds a window with the specified class name and window name.">
<polygon fill="white" stroke="#666666" points="276.12,-912.5 167.12,-912.5 167.12,-882 276.12,-882 276.12,-912.5"/>
<text text-anchor="start" x="175.12" y="-899" font-family="Helvetica,sans-Serif" font-size="10.00">Hidden_handler.input</text>
<text text-anchor="middle" x="221.62" y="-887.75" font-family="Helvetica,sans-Serif" font-size="10.00">_handler.FindWindow</text>
</a>
</g>
</g>
<!-- Node1&#45;&gt;Node3 -->
<g id="edge2_Node000001_Node000003" class="edge">
<title>Node1&#45;&gt;Node3</title>
<g id="a_edge2_Node000001_Node000003"><a xlink:title=" ">
<path fill="none" stroke="#63b8ff" d="M55.83,-495.69C62.28,-561.14 90.36,-814.99 142.75,-872.25 146.72,-876.59 151.45,-880.18 156.58,-883.15"/>
<polygon fill="#63b8ff" stroke="#63b8ff" points="154.97,-886.26 165.5,-887.47 158.02,-879.96 154.97,-886.26"/>
</a>
</g>
</g>
<!-- Node4 -->
<g id="Node000004" class="node">
<title>Node4</title>
<g id="a_Node000004"><a xlink:href="class_hidden__handler_1_1input__handler.html#a9aad70cb102e3fa0c555d7d78343f5a4" target="_top" xlink:title="Extracts the x&#45;coordinate from the specified lParam .">
<polygon fill="white" stroke="#666666" points="287.75,-863.5 155.5,-863.5 155.5,-833 287.75,-833 287.75,-863.5"/>
<text text-anchor="start" x="163.5" y="-850" font-family="Helvetica,sans-Serif" font-size="10.00">Hidden_handler.input</text>
<text text-anchor="middle" x="221.62" y="-838.75" font-family="Helvetica,sans-Serif" font-size="10.00">_handler.GET_X_LPARAM</text>
</a>
</g>
</g>
<!-- Node1&#45;&gt;Node4 -->
<g id="edge3_Node000001_Node000004" class="edge">
<title>Node1&#45;&gt;Node4</title>
<g id="a_edge3_Node000001_Node000004"><a xlink:title=" ">
<path fill="none" stroke="#63b8ff" d="M56.37,-495.77C64.43,-556.1 96.34,-774.04 142.75,-823.25 143.76,-824.32 144.82,-825.35 145.92,-826.34"/>
<polygon fill="#63b8ff" stroke="#63b8ff" points="143.72,-829.06 153.85,-832.16 147.87,-823.42 143.72,-829.06"/>
</a>
</g>
</g>
<!-- Node5 -->
<g id="Node000005" class="node">
<title>Node5</title>
<g id="a_Node000005"><a xlink:href="class_hidden__handler_1_1input__handler.html#a296282fc95205398ebd9e45fe7bae026" target="_top" xlink:title="Extracts the Y coordinate from the given Windows message lParam .">
<polygon fill="white" stroke="#666666" points="287.75,-814.5 155.5,-814.5 155.5,-784 287.75,-784 287.75,-814.5"/>
<text text-anchor="start" x="163.5" y="-801" font-family="Helvetica,sans-Serif" font-size="10.00">Hidden_handler.input</text>
<text text-anchor="middle" x="221.62" y="-789.75" font-family="Helvetica,sans-Serif" font-size="10.00">_handler.GET_Y_LPARAM</text>
</a>
</g>
</g>
<!-- Node1&#45;&gt;Node5 -->
<g id="edge4_Node000001_Node000005" class="edge">
<title>Node1&#45;&gt;Node5</title>
<g id="a_edge4_Node000001_Node000005"><a xlink:title=" ">
<path fill="none" stroke="#63b8ff" d="M54.29,-495.83C54.9,-544.21 63.41,-693.42 142.75,-774.25 143.79,-775.3 144.86,-776.31 145.98,-777.28"/>
<polygon fill="#63b8ff" stroke="#63b8ff" points="143.84,-780.05 154.01,-783.02 147.91,-774.36 143.84,-780.05"/>
</a>
</g>
</g>
<!-- Node6 -->
<g id="Node000006" class="node">
<title>Node6</title>
<g id="a_Node000006"><a xlink:href="class_hidden__handler_1_1input__handler.html#a7f4cf9957884d21d9212fdab540394b7" target="_top" xlink:title="Retrieves the menu item identifier of a menu item located at the specified position in a menu.">
<polygon fill="white" stroke="#666666" points="284,-765.5 159.25,-765.5 159.25,-735 284,-735 284,-765.5"/>
<text text-anchor="start" x="167.25" y="-752" font-family="Helvetica,sans-Serif" font-size="10.00">Hidden_handler.input</text>
<text text-anchor="middle" x="221.62" y="-740.75" font-family="Helvetica,sans-Serif" font-size="10.00">_handler.GetMenuItemID</text>
</a>
</g>
</g>
<!-- Node1&#45;&gt;Node6 -->
<g id="edge5_Node000001_Node000006" class="edge">
<title>Node1&#45;&gt;Node6</title>
<g id="a_edge5_Node000001_Node000006"><a xlink:title=" ">
<path fill="none" stroke="#63b8ff" d="M55.39,-495.97C59.03,-539.02 75.07,-659.94 142.75,-725.25 144.81,-727.23 147.02,-729.06 149.36,-730.74"/>
<polygon fill="#63b8ff" stroke="#63b8ff" points="147.22,-733.54 157.58,-735.75 150.86,-727.56 147.22,-733.54"/>
</a>
</g>
</g>
<!-- Node7 -->
<g id="Node000007" class="node">
<title>Node7</title>
<g id="a_Node000007"><a xlink:href="class_hidden__handler_1_1input__handler.html#acdfcc76e387a49f6f2ffc1745d1a12a7" target="_top" xlink:title="Retrieves a handle to the drop&#45;down menu activated by the specified menu item.">
<polygon fill="white" stroke="#666666" points="277.62,-716.5 165.62,-716.5 165.62,-686 277.62,-686 277.62,-716.5"/>
<text text-anchor="start" x="173.62" y="-703" font-family="Helvetica,sans-Serif" font-size="10.00">Hidden_handler.input</text>
<text text-anchor="middle" x="221.62" y="-691.75" font-family="Helvetica,sans-Serif" font-size="10.00">_handler.GetSubMenu</text>
</a>
</g>
</g>
<!-- Node1&#45;&gt;Node7 -->
<g id="edge6_Node000001_Node000007" class="edge">
<title>Node1&#45;&gt;Node7</title>
<g id="a_edge6_Node000001_Node000007"><a xlink:title=" ">
<path fill="none" stroke="#63b8ff" d="M56.95,-495.76C63.89,-532.57 86.37,-625.9 142.75,-676.25 146.49,-679.59 150.67,-682.48 155.11,-684.98"/>
<polygon fill="#63b8ff" stroke="#63b8ff" points="153.27,-687.98 163.79,-689.21 156.33,-681.69 153.27,-687.98"/>
</a>
</g>
</g>
<!-- Node8 -->
<g id="Node000008" class="node">
<title>Node8</title>
<g id="a_Node000008"><a xlink:href="class_hidden__handler_1_1input__handler.html#ad51d7fc1ab066cd304c518f16cd602db" target="_top" xlink:title="Retrieves information about the specified window. The function also retrieves the value at a specifie...">
<polygon fill="white" stroke="#666666" points="285.12,-667.5 158.12,-667.5 158.12,-637 285.12,-637 285.12,-667.5"/>
<text text-anchor="start" x="166.12" y="-654" font-family="Helvetica,sans-Serif" font-size="10.00">Hidden_handler.input</text>
<text text-anchor="middle" x="221.62" y="-642.75" font-family="Helvetica,sans-Serif" font-size="10.00">_handler.GetWindowLong</text>
</a>
</g>
</g>
<!-- Node1&#45;&gt;Node8 -->
<g id="edge7_Node000001_Node000008" class="edge">
<title>Node1&#45;&gt;Node8</title>
<g id="a_edge7_Node000001_Node000008"><a xlink:title=" ">
<path fill="none" stroke="#63b8ff" d="M59.45,-495.63C70.07,-525.45 97.47,-591.37 142.75,-627.25 144.46,-628.61 146.25,-629.89 148.09,-631.1"/>
<polygon fill="#63b8ff" stroke="#63b8ff" points="146.02,-633.95 156.44,-635.87 149.49,-627.87 146.02,-633.95"/>
</a>
</g>
</g>
<!-- Node9 -->
<g id="Node000009" class="node">
<title>Node9</title>
<g id="a_Node000009"><a xlink:href="class_hidden__handler_1_1input__handler.html#a15c1b0fccf65ad33ab7ffd6a8b3c77a9" target="_top" xlink:title="Retrieves the show state and the restored, minimized, and maximized positions of the specified window...">
<polygon fill="white" stroke="#666666" points="297.88,-618.5 145.38,-618.5 145.38,-588 297.88,-588 297.88,-618.5"/>
<text text-anchor="start" x="153.38" y="-605" font-family="Helvetica,sans-Serif" font-size="10.00">Hidden_handler.input</text>
<text text-anchor="middle" x="221.62" y="-593.75" font-family="Helvetica,sans-Serif" font-size="10.00">_handler.GetWindowPlacement</text>
</a>
</g>
</g>
<!-- Node1&#45;&gt;Node9 -->
<g id="edge8_Node000001_Node000009" class="edge">
<title>Node1&#45;&gt;Node9</title>
<g id="a_edge8_Node000001_Node000009"><a xlink:title=" ">
<path fill="none" stroke="#63b8ff" d="M64.45,-495.83C79.15,-517.38 108.5,-556.11 142.75,-578.25 145.15,-579.8 147.65,-581.26 150.23,-582.64"/>
<polygon fill="#63b8ff" stroke="#63b8ff" points="148.57,-585.72 159.1,-586.89 151.59,-579.41 148.57,-585.72"/>
</a>
</g>
</g>
<!-- Node10 -->
<g id="Node000010" class="node">
<title>Node10</title>
<g id="a_Node000010"><a xlink:href="class_hidden__handler_1_1input__handler.html#a4735c94fa3b28fcd3efd4e046d918cae" target="_top" xlink:title="Retrieves the dimensions of the bounding rectangle of the specified window.">
<polygon fill="white" stroke="#666666" points="285.12,-569.5 158.12,-569.5 158.12,-539 285.12,-539 285.12,-569.5"/>
<text text-anchor="start" x="166.12" y="-556" font-family="Helvetica,sans-Serif" font-size="10.00">Hidden_handler.input</text>
<text text-anchor="middle" x="221.62" y="-544.75" font-family="Helvetica,sans-Serif" font-size="10.00">_handler.GetWindowRect</text>
</a>
</g>
</g>
<!-- Node1&#45;&gt;Node10 -->
<g id="edge9_Node000001_Node000010" class="edge">
<title>Node1&#45;&gt;Node10</title>
<g id="a_edge9_Node000001_Node000010"><a xlink:title=" ">
<path fill="none" stroke="#63b8ff" d="M79.61,-495.98C96.93,-506.34 120.69,-519.7 142.75,-529.25 147.07,-531.12 151.59,-532.93 156.17,-534.66"/>
<polygon fill="#63b8ff" stroke="#63b8ff" points="154.89,-537.92 165.49,-538.02 157.27,-531.33 154.89,-537.92"/>
</a>
</g>
</g>
<!-- Node11 -->
<g id="Node000011" class="node">
<title>Node11</title>
<g id="a_Node000011"><a xlink:href="class_hidden__handler_1_1input__handler.html#aea7911a2f0731289b2d7ce05ea85c27e" target="_top" xlink:title="Combines the specified low and high words into a single IntPtr value.">
<polygon fill="white" stroke="#666666" points="283.25,-520.5 160,-520.5 160,-490 283.25,-490 283.25,-520.5"/>
<text text-anchor="start" x="168" y="-507" font-family="Helvetica,sans-Serif" font-size="10.00">Hidden_handler.input</text>
<text text-anchor="middle" x="221.62" y="-495.75" font-family="Helvetica,sans-Serif" font-size="10.00">_handler.MAKELPARAM</text>
</a>
</g>
</g>
<!-- Node1&#45;&gt;Node11 -->
<g id="edge10_Node000001_Node000011" class="edge">
<title>Node1&#45;&gt;Node11</title>
<g id="a_edge10_Node000001_Node000011"><a xlink:title=" ">
<path fill="none" stroke="#63b8ff" d="M106.98,-488.16C120.19,-490.15 134.59,-492.31 148.57,-494.42"/>
<polygon fill="#63b8ff" stroke="#63b8ff" points="147.76,-497.83 158.17,-495.86 148.8,-490.91 147.76,-497.83"/>
</a>
</g>
</g>
<!-- Node12 -->
<g id="Node000012" class="node">
<title>Node12</title>
<g id="a_Node000012"><a xlink:href="class_hidden__handler_1_1input__handler.html#ad0d6c1393558fff69f22a5c0fb9a4180" target="_top" xlink:title="Retrieves the menu item that is at the specified location.">
<polygon fill="white" stroke="#666666" points="293.38,-471.5 149.88,-471.5 149.88,-441 293.38,-441 293.38,-471.5"/>
<text text-anchor="start" x="157.88" y="-458" font-family="Helvetica,sans-Serif" font-size="10.00">Hidden_handler.input</text>
<text text-anchor="middle" x="221.62" y="-446.75" font-family="Helvetica,sans-Serif" font-size="10.00">_handler.MenuItemFromPoint</text>
</a>
</g>
</g>
<!-- Node1&#45;&gt;Node12 -->
<g id="edge11_Node000001_Node000012" class="edge">
<title>Node1&#45;&gt;Node12</title>
<g id="a_edge11_Node000001_Node000012"><a xlink:title=" ">
<path fill="none" stroke="#63b8ff" d="M106.98,-472.66C117,-471.21 127.72,-469.66 138.41,-468.12"/>
<polygon fill="#63b8ff" stroke="#63b8ff" points="138.62,-471.62 148.02,-466.73 137.62,-464.7 138.62,-471.62"/>
</a>
</g>
</g>
<!-- Node13 -->
<g id="Node000013" class="node">
<title>Node13</title>
<g id="a_Node000013"><a xlink:href="class_hidden__handler_1_1input__handler.html#a9b41ef998427260279b7d386cb0ab14e" target="_top" xlink:title="Moves and resizes the specified window.">
<polygon fill="white" stroke="#666666" points="278.75,-422.5 164.5,-422.5 164.5,-392 278.75,-392 278.75,-422.5"/>
<text text-anchor="start" x="172.5" y="-409" font-family="Helvetica,sans-Serif" font-size="10.00">Hidden_handler.input</text>
<text text-anchor="middle" x="221.62" y="-397.75" font-family="Helvetica,sans-Serif" font-size="10.00">_handler.MoveWindow</text>
</a>
</g>
</g>
<!-- Node1&#45;&gt;Node13 -->
<g id="edge12_Node000001_Node000013" class="edge">
<title>Node1&#45;&gt;Node13</title>
<g id="a_edge12_Node000001_Node000013"><a xlink:title=" ">
<path fill="none" stroke="#63b8ff" d="M80.03,-464.65C97.34,-454.55 120.92,-441.59 142.75,-432.25 147.28,-430.31 152.01,-428.44 156.81,-426.66"/>
<polygon fill="#63b8ff" stroke="#63b8ff" points="157.69,-430.06 165.93,-423.39 155.33,-423.46 157.69,-430.06"/>
</a>
</g>
</g>
<!-- Node14 -->
<g id="Node000014" class="node">
<title>Node14</title>
<g id="a_Node000014"><a xlink:href="class_hidden__handler_1_1input__handler.html#a11155c641d1915d336ea9da00cff3d6e" target="_top" xlink:title="Sends the specified message to a window or windows. The function calls the window procedure for the s...">
<polygon fill="white" stroke="#666666" points="279.12,-373.5 164.12,-373.5 164.12,-343 279.12,-343 279.12,-373.5"/>
<text text-anchor="start" x="172.12" y="-360" font-family="Helvetica,sans-Serif" font-size="10.00">Hidden_handler.input</text>
<text text-anchor="middle" x="221.62" y="-348.75" font-family="Helvetica,sans-Serif" font-size="10.00">_handler.PostMessage</text>
</a>
</g>
</g>
<!-- Node1&#45;&gt;Node14 -->
<g id="edge13_Node000001_Node000014" class="edge">
<title>Node1&#45;&gt;Node14</title>
<g id="a_edge13_Node000001_Node000014"><a xlink:title=" ">
<path fill="none" stroke="#63b8ff" d="M64.49,-464.83C79.24,-443.51 108.64,-405.18 142.75,-383.25 146.08,-381.11 149.6,-379.14 153.24,-377.33"/>
<polygon fill="#63b8ff" stroke="#63b8ff" points="154.65,-380.54 162.35,-373.26 151.79,-374.15 154.65,-380.54"/>
</a>
</g>
</g>
<!-- Node15 -->
<g id="Node000015" class="node">
<title>Node15</title>
<g id="a_Node000015"><a xlink:href="class_hidden__handler_1_1input__handler.html#aaed5aa6a0035447efc8d97ca8a7c64ba" target="_top" xlink:title="Determines whether the specified point is within the specified rectangle.">
<polygon fill="white" stroke="#666666" points="275,-324.5 168.25,-324.5 168.25,-294 275,-294 275,-324.5"/>
<text text-anchor="start" x="176.25" y="-311" font-family="Helvetica,sans-Serif" font-size="10.00">Hidden_handler.input</text>
<text text-anchor="middle" x="221.62" y="-299.75" font-family="Helvetica,sans-Serif" font-size="10.00">_handler.PtInRect</text>
</a>
</g>
</g>
<!-- Node1&#45;&gt;Node15 -->
<g id="edge14_Node000001_Node000015" class="edge">
<title>Node1&#45;&gt;Node15</title>
<g id="a_edge14_Node000001_Node000015"><a xlink:title=" ">
<path fill="none" stroke="#63b8ff" d="M59.64,-464.52C70.43,-434.68 97.88,-369.7 142.75,-334.25 147.23,-330.71 152.23,-327.67 157.46,-325.05"/>
<polygon fill="#63b8ff" stroke="#63b8ff" points="158.63,-328.36 166.38,-321.13 155.81,-321.95 158.63,-328.36"/>
</a>
</g>
</g>
<!-- Node16 -->
<g id="Node000016" class="node">
<title>Node16</title>
<g id="a_Node000016"><a xlink:href="class_hidden__handler_1_1input__handler.html#ac83d06835b72f173e7684be7a41f645a" target="_top" xlink:title="Retrieves the name of the window class to which the specified window belongs.">
<polygon fill="white" stroke="#666666" points="297.5,-275.5 145.75,-275.5 145.75,-245 297.5,-245 297.5,-275.5"/>
<text text-anchor="start" x="153.75" y="-262" font-family="Helvetica,sans-Serif" font-size="10.00">Hidden_handler.input</text>
<text text-anchor="middle" x="221.62" y="-250.75" font-family="Helvetica,sans-Serif" font-size="10.00">_handler.RealGetWindowClass</text>
</a>
</g>
</g>
<!-- Node1&#45;&gt;Node16 -->
<g id="edge15_Node000001_Node000016" class="edge">
<title>Node1&#45;&gt;Node16</title>
<g id="a_edge15_Node000001_Node000016"><a xlink:title=" ">
<path fill="none" stroke="#63b8ff" d="M57.03,-464.55C64.08,-427.74 86.7,-335.2 142.75,-285.25 144.01,-284.13 145.32,-283.06 146.67,-282.03"/>
<polygon fill="#63b8ff" stroke="#63b8ff" points="148.35,-285.11 154.88,-276.77 144.57,-279.22 148.35,-285.11"/>
</a>
</g>
</g>
<!-- Node17 -->
<g id="Node000017" class="node">
<title>Node17</title>
<g id="a_Node000017"><a xlink:href="class_hidden__handler_1_1input__handler.html#a6004dc6f347a225b27eb2ce39cd25ce3" target="_top" xlink:title="Transforms screen coordinates into client&#45;area coordinates.">
<polygon fill="white" stroke="#666666" points="282.5,-226.5 160.75,-226.5 160.75,-196 282.5,-196 282.5,-226.5"/>
<text text-anchor="start" x="168.75" y="-213" font-family="Helvetica,sans-Serif" font-size="10.00">Hidden_handler.input</text>
<text text-anchor="middle" x="221.62" y="-201.75" font-family="Helvetica,sans-Serif" font-size="10.00">_handler.ScreenToClient</text>
</a>
</g>
</g>
<!-- Node1&#45;&gt;Node17 -->
<g id="edge16_Node000001_Node000017" class="edge">
<title>Node1&#45;&gt;Node17</title>
<g id="a_edge16_Node000001_Node000017"><a xlink:title=" ">
<path fill="none" stroke="#63b8ff" d="M55.41,-464.59C59.11,-421.72 75.28,-301.28 142.75,-236.25 145.15,-233.94 147.76,-231.84 150.52,-229.94"/>
<polygon fill="#63b8ff" stroke="#63b8ff" points="152.23,-233 159.12,-224.95 148.72,-226.94 152.23,-233"/>
</a>
</g>
</g>
<!-- Node18 -->
<g id="Node000018" class="node">
<title>Node18</title>
<g id="a_Node000018"><a xlink:href="class_hidden__handler_1_1input__handler.html#abb6a789d001fc464a4b7719cdd2770b6" target="_top" xlink:title="Sends the specified message to a window or windows. The SendMessage function calls the window procedu...">
<polygon fill="white" stroke="#666666" points="280.25,-177.5 163,-177.5 163,-147 280.25,-147 280.25,-177.5"/>
<text text-anchor="start" x="171" y="-164" font-family="Helvetica,sans-Serif" font-size="10.00">Hidden_handler.input</text>
<text text-anchor="middle" x="221.62" y="-152.75" font-family="Helvetica,sans-Serif" font-size="10.00">_handler.SendMessage</text>
</a>
</g>
</g>
<!-- Node1&#45;&gt;Node18 -->
<g id="edge17_Node000001_Node000018" class="edge">
<title>Node1&#45;&gt;Node18</title>
<g id="a_edge17_Node000001_Node000018"><a xlink:title=" ">
<path fill="none" stroke="#63b8ff" d="M54.31,-464.72C54.97,-416.51 63.62,-267.79 142.75,-187.25 145.71,-184.24 149.03,-181.59 152.6,-179.25"/>
<polygon fill="#63b8ff" stroke="#63b8ff" points="154.11,-182.42 161.18,-174.53 150.73,-176.29 154.11,-182.42"/>
</a>
</g>
</g>
<!-- Node19 -->
<g id="Node000019" class="node">
<title>Node19</title>
<g id="a_Node000019"><a xlink:href="class_hidden__handler_1_1input__handler.html#a666b8f335c939fe807945fb1bfdfed9e" target="_top" xlink:title="Sets the desktop for the current thread to the specified desktop.">
<polygon fill="white" stroke="#666666" points="290,-128.5 153.25,-128.5 153.25,-98 290,-98 290,-128.5"/>
<text text-anchor="start" x="161.25" y="-115" font-family="Helvetica,sans-Serif" font-size="10.00">Hidden_handler.input</text>
<text text-anchor="middle" x="221.62" y="-103.75" font-family="Helvetica,sans-Serif" font-size="10.00">_handler.SetThreadDesktop</text>
</a>
</g>
</g>
<!-- Node1&#45;&gt;Node19 -->
<g id="edge18_Node000001_Node000019" class="edge">
<title>Node1&#45;&gt;Node19</title>
<g id="a_edge18_Node000001_Node000019"><a xlink:title=" ">
<path fill="none" stroke="#63b8ff" d="M56.38,-464.77C64.46,-404.62 96.45,-187.31 142.75,-138.25 143.6,-137.35 144.49,-136.48 145.4,-135.64"/>
<polygon fill="#63b8ff" stroke="#63b8ff" points="147.26,-138.62 153.14,-129.81 143.04,-133.03 147.26,-138.62"/>
</a>
</g>
</g>
<!-- Node20 -->
<g id="Node000020" class="node">
<title>Node20</title>
<g id="a_Node000020"><a xlink:href="class_hidden__handler_1_1input__handler.html#a220f0fcf5be300d6133852cd382e804b" target="_top" xlink:title="Changes an attribute of the specified window. The function also sets a new value for the attribute,...">
<polygon fill="white" stroke="#666666" points="284.75,-79.5 158.5,-79.5 158.5,-49 284.75,-49 284.75,-79.5"/>
<text text-anchor="start" x="166.5" y="-66" font-family="Helvetica,sans-Serif" font-size="10.00">Hidden_handler.input</text>
<text text-anchor="middle" x="221.62" y="-54.75" font-family="Helvetica,sans-Serif" font-size="10.00">_handler.SetWindowLong</text>
</a>
</g>
</g>
<!-- Node1&#45;&gt;Node20 -->
<g id="edge19_Node000001_Node000020" class="edge">
<title>Node1&#45;&gt;Node20</title>
<g id="a_edge19_Node000001_Node000020"><a xlink:title=" ">
<path fill="none" stroke="#63b8ff" d="M55.83,-464.85C62.31,-399.56 90.47,-146.36 142.75,-89.25 144.68,-87.14 146.79,-85.21 149.03,-83.44"/>
<polygon fill="#63b8ff" stroke="#63b8ff" points="150.57,-86.62 157.03,-78.22 146.74,-80.76 150.57,-86.62"/>
</a>
</g>
</g>
<!-- Node21 -->
<g id="Node000021" class="node">
<title>Node21</title>
<g id="a_Node000021"><a xlink:href="class_hidden__handler_1_1input__handler.html#a1d09e69e816c0ad9506c78577818a604" target="_top" xlink:title="Retrieves a handle to the window that contains the specified point.">
<polygon fill="white" stroke="#666666" points="289.25,-30.5 154,-30.5 154,0 289.25,0 289.25,-30.5"/>
<text text-anchor="start" x="162" y="-17" font-family="Helvetica,sans-Serif" font-size="10.00">Hidden_handler.input</text>
<text text-anchor="middle" x="221.62" y="-5.75" font-family="Helvetica,sans-Serif" font-size="10.00">_handler.WindowFromPoint</text>
</a>
</g>
</g>
<!-- Node1&#45;&gt;Node21 -->
<g id="edge20_Node000001_Node000021" class="edge">
<title>Node1&#45;&gt;Node21</title>
<g id="a_edge20_Node000001_Node000021"><a xlink:title=" ">
<path fill="none" stroke="#63b8ff" d="M55.41,-464.87C60.45,-394.68 84.48,-105.47 142.75,-40.25 143.45,-39.46 144.18,-38.7 144.93,-37.96"/>
<polygon fill="#63b8ff" stroke="#63b8ff" points="146.94,-40.84 152.58,-31.87 142.58,-35.36 146.94,-40.84"/>
</a>
</g>
</g>
</g>
</svg>

<g id="navigator" transform="translate(0 0)" fill="#404254">
  <rect fill="#f2f5e9" fill-opacity="0.5" stroke="#606060" stroke-width=".5" x="0" y="0" width="60" height="60"/>
  <use id="zoomplus" xlink:href="#zoomPlus" x="17" y="9" onmousedown="handleZoom(evt,'in')"/>
  <use id="zoomminus" xlink:href="#zoomMin" x="42" y="9" onmousedown="handleZoom(evt,'out')"/>
  <use id="reset" xlink:href="#resetDef" x="30" y="36" onmousedown="handleReset()"/>
   <use id="arrowup" xlink:href="#arrowUp" x="0" y="0" onmousedown="handlePan(0,-1)"/>
  <use id="arrowright" xlink:href="#arrowRight" x="0" y="0" onmousedown="handlePan(1,0)"/>
  <use id="arrowdown" xlink:href="#arrowDown" x="0" y="0" onmousedown="handlePan(0,1)"/>
  <use id="arrowleft" xlink:href="#arrowLeft" x="0" y="0" onmousedown="handlePan(-1,0)"/>
</g>
<svg viewBox="0 0 15 15" width="100%" height="30px" preserveAspectRatio="xMaxYMin meet">
 <g id="arrow_out" transform="scale(0.3 0.3)">
  <a xlink:href="class_hidden__handler_1_1input__handler_a2f028842904918346257790cdb5cd536_cgraph_org.svg" target="_base">
   <rect id="button" ry="5" rx="5" y="6" x="6" height="38" width="38"
        fill="#f2f5e9" fill-opacity="0.5" stroke="#606060" stroke-width="1.0"/>
   <path id="arrow"
     d="M 11.500037,31.436501 C 11.940474,20.09759 22.043105,11.32322 32.158766,21.979434 L 37.068811,17.246167 C 37.068811,17.246167 37.088388,32 37.088388,32 L 22.160133,31.978069 C 22.160133,31.978069 26.997745,27.140456 26.997745,27.140456 C 18.528582,18.264221 13.291696,25.230495 11.500037,31.436501 z"
     style="fill:#404040;"/>
  </a>
 </g>
</svg>

<style type='text/css'>
<![CDATA[
[data-mouse-over-selected='false'] { opacity: 0.7; }
[data-mouse-over-selected='true']  { opacity: 1.0; }
]]>
</style>
<script type="application/ecmascript"><![CDATA[
document.addEventListener('DOMContentLoaded', (event) => {
  highlightEdges();
  highlightAdjacentNodes();
});
]]></script>
</svg>
