<?xml version="1.0" encoding="UTF-8" standalone="no"?>
<!DOCTYPE svg PUBLIC "-//W3C//DTD SVG 1.1//EN"
 "http://www.w3.org/Graphics/SVG/1.1/DTD/svg11.dtd">
<!-- Generated by graphviz version 10.0.1 (20240210.2158)
 -->
<!-- Title: NAudio.Wave.Id3v2Tag.Create Pages: 1 -->
<!--zoomable 149 -->

<svg id="main" version="1.1" xmlns="http://www.w3.org/2000/svg" xmlns:xlink="http://www.w3.org/1999/xlink" xml:space="preserve" onload="init(evt)">
<style type="text/css"><![CDATA[
.node, .edge {opacity: 0.7;}
.node.selected, .edge.selected {opacity: 1;}
.edge:hover path { stroke: red; }
.edge:hover polygon { stroke: red; fill: red; }
]]></style>

<defs>
  <circle id="rim" cx="0" cy="0" r="7"/>
  <circle id="rim2" cx="0" cy="0" r="3.5"/>
  <g id="zoomPlus">
    <use xlink:href="#rim" fill="#404040"><set attributeName="fill" to="#808080" begin="zoomplus.mouseover" end="zoomplus.mouseout"/></use>
    <path d="M-4,0h8M0,-4v8" fill="none" stroke="white" stroke-width="1.5" pointer-events="none"/>
  </g>
  <g id="zoomMin">
    <use xlink:href="#rim" fill="#404040"><set attributeName="fill" to="#808080" begin="zoomminus.mouseover" end="zoomminus.mouseout"/></use>
    <path d="M-4,0h8" fill="none" stroke="white" stroke-width="1.5" pointer-events="none"/>
  </g>
  <g id="arrowUp" transform="translate(30 24)">
    <use xlink:href="#rim"/>
    <path pointer-events="none" fill="none" stroke="white" stroke-width="1.5" d="M0,-3.0v7 M-2.5,-0.5L0,-3.0L2.5,-0.5"/>
  </g>
  <g id="arrowRight" transform="rotate(90) translate(36 -43)">
    <use xlink:href="#rim"/>
    <path pointer-events="none" fill="none" stroke="white" stroke-width="1.5" d="M0,-3.0v7 M-2.5,-0.5L0,-3.0L2.5,-0.5"/>
  </g>
  <g id="arrowDown" transform="rotate(180) translate(-30 -48)">
    <use xlink:href="#rim"/>
    <path pointer-events="none" fill="none" stroke="white" stroke-width="1.5" d="M0,-3.0v7 M-2.5,-0.5L0,-3.0L2.5,-0.5"/>
  </g>
  <g id="arrowLeft" transform="rotate(270) translate(-36 17)">
    <use xlink:href="#rim"/>
    <path pointer-events="none" fill="none" stroke="white" stroke-width="1.5" d="M0,-3.0v7 M-2.5,-0.5L0,-3.0L2.5,-0.5"/>
  </g>
  <g id="resetDef">
    <use xlink:href="#rim2" fill="#404040"><set attributeName="fill" to="#808080" begin="reset.mouseover" end="reset.mouseout"/></use>
  </g>
</defs>
<script type="application/ecmascript">
var viewWidth = 759;
var viewHeight = 149;
var sectionId = 'dynsection-2';
</script>
<script type="application/ecmascript" xlink:href="svg.min.js"/>
<svg id="graph" class="graph">
<g id="viewport">
<title>NAudio.Wave.Id3v2Tag.Create</title>
<!-- Node1 -->
<g id="Node000001" class="node">
<title>Node1</title>
<g id="a_Node000001"><a xlink:title="Creates an ID3v2 tag from the given collection of key&#45;value pairs and returns the created tag.">
<polygon fill="#999999" stroke="#666666" points="151,-40.25 0,-40.25 0,-21 151,-21 151,-40.25"/>
<text text-anchor="middle" x="75.5" y="-26.75" font-family="Helvetica,sans-Serif" font-size="10.00">NAudio.Wave.Id3v2Tag.Create</text>
</a>
</g>
</g>
<!-- Node2 -->
<g id="Node000002" class="node">
<title>Node2</title>
<g id="a_Node000002"><a xlink:href="class_n_audio_1_1_wave_1_1_id3v2_tag.html#aef524367b2998f7dd0f84d2f53a5bd20" target="_top" xlink:title="Creates an ID3v2 tag stream based on the provided tags.">
<polygon fill="white" stroke="#666666" points="342.88,-67.88 191.88,-67.88 191.88,-37.38 342.88,-37.38 342.88,-67.88"/>
<text text-anchor="start" x="199.88" y="-54.38" font-family="Helvetica,sans-Serif" font-size="10.00">NAudio.Wave.Id3v2Tag.Create</text>
<text text-anchor="middle" x="267.38" y="-43.12" font-family="Helvetica,sans-Serif" font-size="10.00">Id3v2TagStream</text>
</a>
</g>
</g>
<!-- Node1&#45;&gt;Node2 -->
<g id="edge1_Node000001_Node000002" class="edge">
<title>Node1&#45;&gt;Node2</title>
<g id="a_edge1_Node000001_Node000002"><a xlink:title=" ">
<path fill="none" stroke="#63b8ff" d="M151.27,-39.29C160.82,-40.39 170.65,-41.53 180.36,-42.66"/>
<polygon fill="#63b8ff" stroke="#63b8ff" points="179.83,-46.12 190.17,-43.8 180.64,-39.17 179.83,-46.12"/>
</a>
</g>
</g>
<!-- Node8 -->
<g id="Node000008" class="node">
<title>Node8</title>
<g id="a_Node000008"><a xlink:href="class_n_audio_1_1_wave_1_1_id3v2_tag.html#a402d29d71aa5d32148f5370e01714e7c" target="_top" xlink:title="Reads an ID3v2 tag from the input stream and returns the tag.">
<polygon fill="white" stroke="#666666" points="347.75,-19.25 187,-19.25 187,0 347.75,0 347.75,-19.25"/>
<text text-anchor="middle" x="267.38" y="-5.75" font-family="Helvetica,sans-Serif" font-size="10.00">NAudio.Wave.Id3v2Tag.ReadTag</text>
</a>
</g>
</g>
<!-- Node1&#45;&gt;Node8 -->
<g id="edge8_Node000001_Node000008" class="edge">
<title>Node1&#45;&gt;Node8</title>
<g id="a_edge8_Node000001_Node000008"><a xlink:title=" ">
<path fill="none" stroke="#63b8ff" d="M151.27,-22.36C159.17,-21.48 167.27,-20.59 175.32,-19.7"/>
<polygon fill="#63b8ff" stroke="#63b8ff" points="175.61,-23.19 185.16,-18.61 174.84,-16.23 175.61,-23.19"/>
</a>
</g>
</g>
<!-- Node3 -->
<g id="Node000003" class="node">
<title>Node3</title>
<g id="a_Node000003"><a xlink:href="class_n_audio_1_1_wave_1_1_id3v2_tag.html#ac5ca72f8e2fe3dc92b00c71cae78ac3d" target="_top" xlink:title="Creates an ID3v2 frame with the specified key and value.">
<polygon fill="white" stroke="#666666" points="540,-116.88 389,-116.88 389,-86.38 540,-86.38 540,-116.88"/>
<text text-anchor="start" x="397" y="-103.38" font-family="Helvetica,sans-Serif" font-size="10.00">NAudio.Wave.Id3v2Tag.Create</text>
<text text-anchor="middle" x="464.5" y="-92.12" font-family="Helvetica,sans-Serif" font-size="10.00">Id3v2Frame</text>
</a>
</g>
</g>
<!-- Node2&#45;&gt;Node3 -->
<g id="edge2_Node000002_Node000003" class="edge">
<title>Node2&#45;&gt;Node3</title>
<g id="a_edge2_Node000002_Node000003"><a xlink:title=" ">
<path fill="none" stroke="#63b8ff" d="M330.92,-68.33C349.74,-73.06 370.56,-78.29 390.02,-83.17"/>
<polygon fill="#63b8ff" stroke="#63b8ff" points="388.96,-86.51 399.51,-85.56 390.66,-79.72 388.96,-86.51"/>
</a>
</g>
</g>
<!-- Node6 -->
<g id="Node000006" class="node">
<title>Node6</title>
<g id="a_Node000006"><a xlink:href="class_n_audio_1_1_wave_1_1_id3v2_tag.html#a70fba60a8153bba2baf8e36e03073681" target="_top" xlink:title="Creates an ID3v2 tag header based on the provided frames and returns the resulting tag header.">
<polygon fill="white" stroke="#666666" points="540,-67.88 389,-67.88 389,-37.38 540,-37.38 540,-67.88"/>
<text text-anchor="start" x="397" y="-54.38" font-family="Helvetica,sans-Serif" font-size="10.00">NAudio.Wave.Id3v2Tag.Create</text>
<text text-anchor="middle" x="464.5" y="-43.12" font-family="Helvetica,sans-Serif" font-size="10.00">Id3v2TagHeader</text>
</a>
</g>
</g>
<!-- Node2&#45;&gt;Node6 -->
<g id="edge5_Node000002_Node000006" class="edge">
<title>Node2&#45;&gt;Node6</title>
<g id="a_edge5_Node000002_Node000006"><a xlink:title=" ">
<path fill="none" stroke="#63b8ff" d="M343.26,-52.62C354.46,-52.62 366.09,-52.62 377.5,-52.62"/>
<polygon fill="#63b8ff" stroke="#63b8ff" points="377.3,-56.13 387.3,-52.63 377.3,-49.13 377.3,-56.13"/>
</a>
</g>
</g>
<!-- Node4 -->
<g id="Node000004" class="node">
<title>Node4</title>
<g id="a_Node000004"><a xlink:href="class_n_audio_1_1_utils_1_1_byte_array_extensions.html#ada86231ea4a8f13d341729983194c53d" target="_top" xlink:title="Concatenates multiple byte arrays into a single byte array and returns the result.">
<polygon fill="white" stroke="#666666" points="751,-91.88 581.25,-91.88 581.25,-61.38 751,-61.38 751,-91.88"/>
<text text-anchor="start" x="589.25" y="-78.38" font-family="Helvetica,sans-Serif" font-size="10.00">NAudio.Utils.ByteArrayExtensions.</text>
<text text-anchor="middle" x="666.12" y="-67.12" font-family="Helvetica,sans-Serif" font-size="10.00">Concat</text>
</a>
</g>
</g>
<!-- Node3&#45;&gt;Node4 -->
<g id="edge3_Node000003_Node000004" class="edge">
<title>Node3&#45;&gt;Node4</title>
<g id="a_edge3_Node000003_Node000004"><a xlink:title=" ">
<path fill="none" stroke="#63b8ff" d="M540.4,-92.24C549.86,-91.06 559.65,-89.83 569.38,-88.62"/>
<polygon fill="#63b8ff" stroke="#63b8ff" points="569.76,-92.1 579.25,-87.38 568.89,-85.15 569.76,-92.1"/>
</a>
</g>
</g>
<!-- Node5 -->
<g id="Node000005" class="node">
<title>Node5</title>
<g id="a_Node000005"><a xlink:href="class_n_audio_1_1_wave_1_1_id3v2_tag.html#a00c0c1be309165eba8bb7560c0fa7dce" target="_top" xlink:title="Converts the frame size to a byte array and returns the result.">
<polygon fill="white" stroke="#666666" points="740.88,-140.88 591.38,-140.88 591.38,-110.38 740.88,-110.38 740.88,-140.88"/>
<text text-anchor="start" x="599.38" y="-127.38" font-family="Helvetica,sans-Serif" font-size="10.00">NAudio.Wave.Id3v2Tag.Frame</text>
<text text-anchor="middle" x="666.12" y="-116.12" font-family="Helvetica,sans-Serif" font-size="10.00">SizeToBytes</text>
</a>
</g>
</g>
<!-- Node3&#45;&gt;Node5 -->
<g id="edge4_Node000003_Node000005" class="edge">
<title>Node3&#45;&gt;Node5</title>
<g id="a_edge4_Node000003_Node000005"><a xlink:title=" ">
<path fill="none" stroke="#63b8ff" d="M540.4,-110.63C553.24,-112.17 566.66,-113.79 579.74,-115.36"/>
<polygon fill="#63b8ff" stroke="#63b8ff" points="579.28,-118.83 589.63,-116.55 580.12,-111.88 579.28,-118.83"/>
</a>
</g>
</g>
<!-- Node6&#45;&gt;Node4 -->
<g id="edge6_Node000006_Node000004" class="edge">
<title>Node6&#45;&gt;Node4</title>
<g id="a_edge6_Node000006_Node000004"><a xlink:title=" ">
<path fill="none" stroke="#63b8ff" d="M540.4,-61.63C549.86,-62.77 559.65,-63.94 569.38,-65.11"/>
<polygon fill="#63b8ff" stroke="#63b8ff" points="568.9,-68.58 579.25,-66.3 569.74,-61.63 568.9,-68.58"/>
</a>
</g>
</g>
<!-- Node7 -->
<g id="Node000007" class="node">
<title>Node7</title>
<g id="a_Node000007"><a xlink:href="class_n_audio_1_1_wave_1_1_id3v2_tag.html#afa57fd617f156553b8ed051eddc1c9cd" target="_top" xlink:title="Gets the ID3 tag header size as an array of bytes.">
<polygon fill="white" stroke="#666666" points="734.88,-42.88 597.38,-42.88 597.38,-12.37 734.88,-12.37 734.88,-42.88"/>
<text text-anchor="start" x="605.38" y="-29.38" font-family="Helvetica,sans-Serif" font-size="10.00">NAudio.Wave.Id3v2Tag.Get</text>
<text text-anchor="middle" x="666.12" y="-18.12" font-family="Helvetica,sans-Serif" font-size="10.00">Id3TagHeaderSize</text>
</a>
</g>
</g>
<!-- Node6&#45;&gt;Node7 -->
<g id="edge7_Node000006_Node000007" class="edge">
<title>Node6&#45;&gt;Node7</title>
<g id="a_edge7_Node000006_Node000007"><a xlink:title=" ">
<path fill="none" stroke="#63b8ff" d="M540.4,-43.24C555.21,-41.39 570.8,-39.44 585.76,-37.56"/>
<polygon fill="#63b8ff" stroke="#63b8ff" points="586.06,-41.05 595.54,-36.34 585.19,-34.11 586.06,-41.05"/>
</a>
</g>
</g>
<!-- Node9 -->
<g id="Node000009" class="node">
<title>Node9</title>
<g id="a_Node000009"><a xlink:href="class_n_audio_1_1_wave_1_1_id3v2_tag.html#a91dd0a39bebbb29b61a147d93cabf84c" target="_top" xlink:title=" ">
<polygon fill="white" stroke="#666666" points="545.25,-19.25 383.75,-19.25 383.75,0 545.25,0 545.25,-19.25"/>
<text text-anchor="middle" x="464.5" y="-5.75" font-family="Helvetica,sans-Serif" font-size="10.00">NAudio.Wave.Id3v2Tag.Id3v2Tag</text>
</a>
</g>
</g>
<!-- Node8&#45;&gt;Node9 -->
<g id="edge9_Node000008_Node000009" class="edge">
<title>Node8&#45;&gt;Node9</title>
<g id="a_edge9_Node000008_Node000009"><a xlink:title=" ">
<path fill="none" stroke="#63b8ff" d="M348.02,-9.62C355.97,-9.62 364.09,-9.62 372.14,-9.62"/>
<polygon fill="#63b8ff" stroke="#63b8ff" points="371.96,-13.13 381.96,-9.63 371.96,-6.13 371.96,-13.13"/>
</a>
</g>
</g>
</g>
</svg>

<g id="navigator" transform="translate(0 0)" fill="#404254">
  <rect fill="#f2f5e9" fill-opacity="0.5" stroke="#606060" stroke-width=".5" x="0" y="0" width="60" height="60"/>
  <use id="zoomplus" xlink:href="#zoomPlus" x="17" y="9" onmousedown="handleZoom(evt,'in')"/>
  <use id="zoomminus" xlink:href="#zoomMin" x="42" y="9" onmousedown="handleZoom(evt,'out')"/>
  <use id="reset" xlink:href="#resetDef" x="30" y="36" onmousedown="handleReset()"/>
   <use id="arrowup" xlink:href="#arrowUp" x="0" y="0" onmousedown="handlePan(0,-1)"/>
  <use id="arrowright" xlink:href="#arrowRight" x="0" y="0" onmousedown="handlePan(1,0)"/>
  <use id="arrowdown" xlink:href="#arrowDown" x="0" y="0" onmousedown="handlePan(0,1)"/>
  <use id="arrowleft" xlink:href="#arrowLeft" x="0" y="0" onmousedown="handlePan(-1,0)"/>
</g>
<svg viewBox="0 0 15 15" width="100%" height="30px" preserveAspectRatio="xMaxYMin meet">
 <g id="arrow_out" transform="scale(0.3 0.3)">
  <a xlink:href="class_n_audio_1_1_wave_1_1_id3v2_tag_a7b8a11cb9080c3cfc8d0c4a3e25d372b_cgraph_org.svg" target="_base">
   <rect id="button" ry="5" rx="5" y="6" x="6" height="38" width="38"
        fill="#f2f5e9" fill-opacity="0.5" stroke="#606060" stroke-width="1.0"/>
   <path id="arrow"
     d="M 11.500037,31.436501 C 11.940474,20.09759 22.043105,11.32322 32.158766,21.979434 L 37.068811,17.246167 C 37.068811,17.246167 37.088388,32 37.088388,32 L 22.160133,31.978069 C 22.160133,31.978069 26.997745,27.140456 26.997745,27.140456 C 18.528582,18.264221 13.291696,25.230495 11.500037,31.436501 z"
     style="fill:#404040;"/>
  </a>
 </g>
</svg>

<style type='text/css'>
<![CDATA[
[data-mouse-over-selected='false'] { opacity: 0.7; }
[data-mouse-over-selected='true']  { opacity: 1.0; }
]]>
</style>
<script type="application/ecmascript"><![CDATA[
document.addEventListener('DOMContentLoaded', (event) => {
  highlightEdges();
  highlightAdjacentNodes();
});
]]></script>
</svg>
