<?xml version="1.0" encoding="UTF-8" standalone="no"?>
<!DOCTYPE svg PUBLIC "-//W3C//DTD SVG 1.1//EN"
 "http://www.w3.org/Graphics/SVG/1.1/DTD/svg11.dtd">
<!-- Generated by graphviz version 10.0.1 (20240210.2158)
 -->
<!-- Title: xeno_rat_server.Forms.Shell.InitializeComponent Pages: 1 -->
<!--zoomable 361 -->

<svg id="main" version="1.1" xmlns="http://www.w3.org/2000/svg" xmlns:xlink="http://www.w3.org/1999/xlink" xml:space="preserve" onload="init(evt)">
<style type="text/css"><![CDATA[
.node, .edge {opacity: 0.7;}
.node.selected, .edge.selected {opacity: 1;}
.edge:hover path { stroke: red; }
.edge:hover polygon { stroke: red; fill: red; }
]]></style>

<defs>
  <circle id="rim" cx="0" cy="0" r="7"/>
  <circle id="rim2" cx="0" cy="0" r="3.5"/>
  <g id="zoomPlus">
    <use xlink:href="#rim" fill="#404040"><set attributeName="fill" to="#808080" begin="zoomplus.mouseover" end="zoomplus.mouseout"/></use>
    <path d="M-4,0h8M0,-4v8" fill="none" stroke="white" stroke-width="1.5" pointer-events="none"/>
  </g>
  <g id="zoomMin">
    <use xlink:href="#rim" fill="#404040"><set attributeName="fill" to="#808080" begin="zoomminus.mouseover" end="zoomminus.mouseout"/></use>
    <path d="M-4,0h8" fill="none" stroke="white" stroke-width="1.5" pointer-events="none"/>
  </g>
  <g id="arrowUp" transform="translate(30 24)">
    <use xlink:href="#rim"/>
    <path pointer-events="none" fill="none" stroke="white" stroke-width="1.5" d="M0,-3.0v7 M-2.5,-0.5L0,-3.0L2.5,-0.5"/>
  </g>
  <g id="arrowRight" transform="rotate(90) translate(36 -43)">
    <use xlink:href="#rim"/>
    <path pointer-events="none" fill="none" stroke="white" stroke-width="1.5" d="M0,-3.0v7 M-2.5,-0.5L0,-3.0L2.5,-0.5"/>
  </g>
  <g id="arrowDown" transform="rotate(180) translate(-30 -48)">
    <use xlink:href="#rim"/>
    <path pointer-events="none" fill="none" stroke="white" stroke-width="1.5" d="M0,-3.0v7 M-2.5,-0.5L0,-3.0L2.5,-0.5"/>
  </g>
  <g id="arrowLeft" transform="rotate(270) translate(-36 17)">
    <use xlink:href="#rim"/>
    <path pointer-events="none" fill="none" stroke="white" stroke-width="1.5" d="M0,-3.0v7 M-2.5,-0.5L0,-3.0L2.5,-0.5"/>
  </g>
  <g id="resetDef">
    <use xlink:href="#rim2" fill="#404040"><set attributeName="fill" to="#808080" begin="reset.mouseover" end="reset.mouseout"/></use>
  </g>
</defs>
<script type="application/ecmascript">
var viewWidth = 1135;
var viewHeight = 361;
var sectionId = 'dynsection-9';
</script>
<script type="application/ecmascript" xlink:href="svg.min.js"/>
<svg id="graph" class="graph">
<g id="viewport">
<title>xeno_rat_server.Forms.Shell.InitializeComponent</title>
<!-- Node1 -->
<g id="Node000001" class="node">
<title>Node1</title>
<g id="a_Node000001"><a xlink:title="Initializes the components of the form including buttons, text boxes, and event handlers.">
<polygon fill="#999999" stroke="#666666" points="143.5,-152.5 0,-152.5 0,-122 143.5,-122 143.5,-152.5"/>
<text text-anchor="start" x="8" y="-139" font-family="Helvetica,sans-Serif" font-size="10.00">xeno_rat_server.Forms.Shell.</text>
<text text-anchor="middle" x="71.75" y="-127.75" font-family="Helvetica,sans-Serif" font-size="10.00">InitializeComponent</text>
</a>
</g>
</g>
<!-- Node2 -->
<g id="Node000002" class="node">
<title>Node2</title>
<g id="a_Node000002"><a xlink:href="classxeno__rat__server_1_1_forms_1_1_shell.html#abaadf4cf7ab7ac14c9081937474bef27" target="_top" xlink:title="Clears the text in textBox1 and sends a byte array with value 1 using the client asynchronously.">
<polygon fill="white" stroke="#666666" points="355.25,-275.5 179.5,-275.5 179.5,-245 355.25,-245 355.25,-275.5"/>
<text text-anchor="start" x="187.5" y="-262" font-family="Helvetica,sans-Serif" font-size="10.00">xeno_rat_server.Forms.Shell.button1</text>
<text text-anchor="middle" x="267.38" y="-250.75" font-family="Helvetica,sans-Serif" font-size="10.00">_Click</text>
</a>
</g>
</g>
<!-- Node1&#45;&gt;Node2 -->
<g id="edge1_Node000001_Node000002" class="edge">
<title>Node1&#45;&gt;Node2</title>
<g id="a_edge1_Node000001_Node000002"><a xlink:title=" ">
<path fill="none" stroke="#63b8ff" d="M85.57,-152.9C104.09,-174.51 140.45,-213.33 179.5,-235.25 182.65,-237.02 185.93,-238.67 189.3,-240.21"/>
<polygon fill="#63b8ff" stroke="#63b8ff" points="187.64,-243.31 198.22,-243.93 190.34,-236.85 187.64,-243.31"/>
</a>
</g>
</g>
<!-- Node14 -->
<g id="Node000014" class="node">
<title>Node14</title>
<g id="a_Node000014"><a xlink:href="classxeno__rat__server_1_1_forms_1_1_shell.html#ace6b4e0e9d1bd9b3c550e4fbc3576f8b" target="_top" xlink:title="Clears the text in the textBox and sends an asynchronous message to the client with the byte value 2.">
<polygon fill="white" stroke="#666666" points="355.25,-226.5 179.5,-226.5 179.5,-196 355.25,-196 355.25,-226.5"/>
<text text-anchor="start" x="187.5" y="-213" font-family="Helvetica,sans-Serif" font-size="10.00">xeno_rat_server.Forms.Shell.button2</text>
<text text-anchor="middle" x="267.38" y="-201.75" font-family="Helvetica,sans-Serif" font-size="10.00">_Click</text>
</a>
</g>
</g>
<!-- Node1&#45;&gt;Node14 -->
<g id="edge14_Node000001_Node000014" class="edge">
<title>Node1&#45;&gt;Node14</title>
<g id="a_edge14_Node000001_Node000014"><a xlink:title=" ">
<path fill="none" stroke="#63b8ff" d="M103.53,-152.87C124.58,-163.18 153.31,-176.53 179.5,-186.25 185.11,-188.33 190.98,-190.35 196.9,-192.27"/>
<polygon fill="#63b8ff" stroke="#63b8ff" points="195.54,-195.51 206.13,-195.17 197.64,-188.83 195.54,-195.51"/>
</a>
</g>
</g>
<!-- Node15 -->
<g id="Node000015" class="node">
<title>Node15</title>
<g id="a_Node000015"><a xlink:href="classxeno__rat__server_1_1_forms_1_1_shell.html#ab54ed9ae9c0c743515968cadc139e664" target="_top" xlink:title="Sends a byte array with value 0 followed by the UTF&#45;8 encoded text from textBox2 &#160;using the client .">
<polygon fill="white" stroke="#666666" points="355.25,-177.5 179.5,-177.5 179.5,-147 355.25,-147 355.25,-177.5"/>
<text text-anchor="start" x="187.5" y="-164" font-family="Helvetica,sans-Serif" font-size="10.00">xeno_rat_server.Forms.Shell.button3</text>
<text text-anchor="middle" x="267.38" y="-152.75" font-family="Helvetica,sans-Serif" font-size="10.00">_Click</text>
</a>
</g>
</g>
<!-- Node1&#45;&gt;Node15 -->
<g id="edge16_Node000001_Node000015" class="edge">
<title>Node1&#45;&gt;Node15</title>
<g id="a_edge16_Node000001_Node000015"><a xlink:title=" ">
<path fill="none" stroke="#63b8ff" d="M143.75,-146.42C151.69,-147.44 159.88,-148.5 168.08,-149.56"/>
<polygon fill="#63b8ff" stroke="#63b8ff" points="167.39,-153 177.75,-150.81 168.29,-146.06 167.39,-153"/>
</a>
</g>
</g>
<!-- Node16 -->
<g id="Node000016" class="node">
<title>Node16</title>
<g id="a_Node000016"><a xlink:href="classxeno__rat__server_1_1_forms_1_1_shell.html#af0d552e023628965ff85eeebd73b2d60" target="_top" xlink:title="Event handler for the form load event.">
<polygon fill="white" stroke="#666666" points="339.12,-128.5 195.62,-128.5 195.62,-98 339.12,-98 339.12,-128.5"/>
<text text-anchor="start" x="203.62" y="-115" font-family="Helvetica,sans-Serif" font-size="10.00">xeno_rat_server.Forms.Shell.</text>
<text text-anchor="middle" x="267.38" y="-103.75" font-family="Helvetica,sans-Serif" font-size="10.00">Shell_Load</text>
</a>
</g>
</g>
<!-- Node1&#45;&gt;Node16 -->
<g id="edge18_Node000001_Node000016" class="edge">
<title>Node1&#45;&gt;Node16</title>
<g id="a_edge18_Node000001_Node000016"><a xlink:title=" ">
<path fill="none" stroke="#63b8ff" d="M143.75,-128.45C156.9,-126.82 170.74,-125.1 184.2,-123.44"/>
<polygon fill="#63b8ff" stroke="#63b8ff" points="184.39,-126.94 193.88,-122.24 183.53,-119.99 184.39,-126.94"/>
</a>
</g>
</g>
<!-- Node17 -->
<g id="Node000017" class="node">
<title>Node17</title>
<g id="a_Node000017"><a xlink:href="classxeno__rat__server_1_1_forms_1_1_shell.html#a720b409b6de821a61e6251e4cdff8e16" target="_top" xlink:title="Sets the cursor position to the end of the text and scrolls the text box to ensure the cursor is visi...">
<polygon fill="white" stroke="#666666" points="347.38,-79.5 187.38,-79.5 187.38,-49 347.38,-49 347.38,-79.5"/>
<text text-anchor="start" x="195.38" y="-66" font-family="Helvetica,sans-Serif" font-size="10.00">xeno_rat_server.Forms.Shell.text</text>
<text text-anchor="middle" x="267.38" y="-54.75" font-family="Helvetica,sans-Serif" font-size="10.00">Box1_VisibleChanged</text>
</a>
</g>
</g>
<!-- Node1&#45;&gt;Node17 -->
<g id="edge19_Node000001_Node000017" class="edge">
<title>Node1&#45;&gt;Node17</title>
<g id="a_edge19_Node000001_Node000017"><a xlink:title=" ">
<path fill="none" stroke="#63b8ff" d="M104.49,-121.54C125.47,-111.52 153.74,-98.69 179.5,-89.25 185.12,-87.19 190.99,-85.19 196.91,-83.28"/>
<polygon fill="#63b8ff" stroke="#63b8ff" points="197.65,-86.71 206.15,-80.38 195.56,-80.03 197.65,-86.71"/>
</a>
</g>
</g>
<!-- Node18 -->
<g id="Node000018" class="node">
<title>Node18</title>
<g id="a_Node000018"><a xlink:href="classxeno__rat__server_1_1_forms_1_1_shell.html#a92877d6c4ae2b1b596fd84a3abeced8b" target="_top" xlink:title="Handles the KeyDown event for textBox2. If the Enter key is pressed, it triggers the click event for ...">
<polygon fill="white" stroke="#666666" points="347.38,-30.5 187.38,-30.5 187.38,0 347.38,0 347.38,-30.5"/>
<text text-anchor="start" x="195.38" y="-17" font-family="Helvetica,sans-Serif" font-size="10.00">xeno_rat_server.Forms.Shell.text</text>
<text text-anchor="middle" x="267.38" y="-5.75" font-family="Helvetica,sans-Serif" font-size="10.00">Box2_KeyDown</text>
</a>
</g>
</g>
<!-- Node1&#45;&gt;Node18 -->
<g id="edge20_Node000001_Node000018" class="edge">
<title>Node1&#45;&gt;Node18</title>
<g id="a_edge20_Node000001_Node000018"><a xlink:title=" ">
<path fill="none" stroke="#63b8ff" d="M85.6,-121.77C104.17,-100.38 140.57,-61.97 179.5,-40.25 182.72,-38.45 186.08,-36.78 189.53,-35.21"/>
<polygon fill="#63b8ff" stroke="#63b8ff" points="190.79,-38.48 198.69,-31.42 188.11,-32.01 190.79,-38.48"/>
</a>
</g>
</g>
<!-- Node3 -->
<g id="Node000003" class="node">
<title>Node3</title>
<g id="a_Node000003"><a xlink:href="classxeno__rat__server_1_1_node.html#a816e267eb31862d38c21e5faaae3061d" target="_top" xlink:title="Sends the provided data asynchronously and returns a boolean indicating the success of the operation.">
<polygon fill="white" stroke="#666666" points="528,-226.5 391.25,-226.5 391.25,-196 528,-196 528,-226.5"/>
<text text-anchor="start" x="399.25" y="-213" font-family="Helvetica,sans-Serif" font-size="10.00">xeno_rat_server.Node.Send</text>
<text text-anchor="middle" x="459.62" y="-201.75" font-family="Helvetica,sans-Serif" font-size="10.00">Async</text>
</a>
</g>
</g>
<!-- Node2&#45;&gt;Node3 -->
<g id="edge2_Node000002_Node000003" class="edge">
<title>Node2&#45;&gt;Node3</title>
<g id="a_edge2_Node000002_Node000003"><a xlink:title=" ">
<path fill="none" stroke="#63b8ff" d="M329.36,-244.54C347.62,-239.84 367.82,-234.64 386.71,-229.77"/>
<polygon fill="#63b8ff" stroke="#63b8ff" points="387.39,-233.21 396.2,-227.33 385.64,-226.43 387.39,-233.21"/>
</a>
</g>
</g>
<!-- Node4 -->
<g id="Node000004" class="node">
<title>Node4</title>
<g id="a_Node000004"><a xlink:href="classxeno__rat__server_1_1_node.html#a8814edd98b6463f49812be32d5928763" target="_top" xlink:title="Sets the isDisposed flag to true and disconnects the socket, disposes resources, and triggers the OnD...">
<polygon fill="white" stroke="#666666" points="727.75,-242.88 564,-242.88 564,-223.62 727.75,-223.62 727.75,-242.88"/>
<text text-anchor="middle" x="645.88" y="-229.38" font-family="Helvetica,sans-Serif" font-size="10.00">xeno_rat_server.Node.Disconnect</text>
</a>
</g>
</g>
<!-- Node3&#45;&gt;Node4 -->
<g id="edge3_Node000003_Node000004" class="edge">
<title>Node3&#45;&gt;Node4</title>
<g id="a_edge3_Node000003_Node000004"><a xlink:title=" ">
<path fill="none" stroke="#63b8ff" d="M528.45,-219.35C536.26,-220.28 544.32,-221.24 552.39,-222.21"/>
<polygon fill="#63b8ff" stroke="#63b8ff" points="551.92,-225.68 562.26,-223.39 552.75,-218.73 551.92,-225.68"/>
</a>
</g>
</g>
<!-- Node5 -->
<g id="Node000005" class="node">
<title>Node5</title>
<g id="a_Node000005"><a xlink:href="classxeno__rat__server_1_1_socket_handler.html#a85ca8385d023521cdb86ff8ae688adee" target="_top" xlink:title="Sends the provided data asynchronously over the socket.">
<polygon fill="white" stroke="#666666" points="723.25,-205.5 568.5,-205.5 568.5,-175 723.25,-175 723.25,-205.5"/>
<text text-anchor="start" x="576.5" y="-192" font-family="Helvetica,sans-Serif" font-size="10.00">xeno_rat_server.SocketHandler.</text>
<text text-anchor="middle" x="645.88" y="-180.75" font-family="Helvetica,sans-Serif" font-size="10.00">SendAsync</text>
</a>
</g>
</g>
<!-- Node3&#45;&gt;Node5 -->
<g id="edge5_Node000003_Node000005" class="edge">
<title>Node3&#45;&gt;Node5</title>
<g id="a_edge5_Node000003_Node000005"><a xlink:title=" ">
<path fill="none" stroke="#63b8ff" d="M528.45,-203.52C537.74,-202.46 547.39,-201.36 556.97,-200.27"/>
<polygon fill="#63b8ff" stroke="#63b8ff" points="557.13,-203.77 566.67,-199.16 556.34,-196.82 557.13,-203.77"/>
</a>
</g>
</g>
<!-- Node4&#45;&gt;Node4 -->
<g id="edge4_Node000004_Node000004" class="edge">
<title>Node4&#45;&gt;Node4</title>
<g id="a_edge4_Node000004_Node000004"><a xlink:title=" ">
<path fill="none" stroke="#63b8ff" d="M616.72,-243.16C603.42,-251.77 613.14,-260.88 645.88,-260.88 664.8,-260.88 676.04,-257.83 679.58,-253.6"/>
<polygon fill="#63b8ff" stroke="#63b8ff" points="682.84,-252.32 675.64,-244.55 676.42,-255.12 682.84,-252.32"/>
</a>
</g>
</g>
<!-- Node6 -->
<g id="Node000006" class="node">
<title>Node6</title>
<g id="a_Node000006"><a xlink:href="classxeno__rat__server_1_1_compression.html#a0f3f31a2fe34d92bf04538b2fdf529e0" target="_top" xlink:title="Compresses the input buffer using the LZNT1 compression format and returns the compressed data.">
<polygon fill="white" stroke="#666666" points="915.5,-279.5 766.75,-279.5 766.75,-249 915.5,-249 915.5,-279.5"/>
<text text-anchor="start" x="774.75" y="-266" font-family="Helvetica,sans-Serif" font-size="10.00">xeno_rat_server.Compression.</text>
<text text-anchor="middle" x="841.12" y="-254.75" font-family="Helvetica,sans-Serif" font-size="10.00">Compress</text>
</a>
</g>
</g>
<!-- Node5&#45;&gt;Node6 -->
<g id="edge6_Node000005_Node000006" class="edge">
<title>Node5&#45;&gt;Node6</title>
<g id="a_edge6_Node000005_Node000006"><a xlink:title=" ">
<path fill="none" stroke="#63b8ff" d="M707.31,-205.85C714.33,-208.35 721.28,-211.14 727.75,-214.25 745.31,-222.68 746.31,-230.57 763.75,-239.25 767.4,-241.07 771.21,-242.79 775.1,-244.43"/>
<polygon fill="#63b8ff" stroke="#63b8ff" points="773.52,-247.57 784.11,-247.98 776.09,-241.06 773.52,-247.57"/>
</a>
</g>
</g>
<!-- Node11 -->
<g id="Node000011" class="node">
<title>Node11</title>
<g id="a_Node000011"><a xlink:href="classxeno__rat__server_1_1_socket_handler.html#a4f2e993b63cf1bba877781c9be2ed496" target="_top" xlink:title="Concatenates two byte arrays and returns the result.">
<polygon fill="white" stroke="#666666" points="918.5,-230.5 763.75,-230.5 763.75,-200 918.5,-200 918.5,-230.5"/>
<text text-anchor="start" x="771.75" y="-217" font-family="Helvetica,sans-Serif" font-size="10.00">xeno_rat_server.SocketHandler.</text>
<text text-anchor="middle" x="841.12" y="-205.75" font-family="Helvetica,sans-Serif" font-size="10.00">Concat</text>
</a>
</g>
</g>
<!-- Node5&#45;&gt;Node11 -->
<g id="edge11_Node000005_Node000011" class="edge">
<title>Node5&#45;&gt;Node11</title>
<g id="a_edge11_Node000005_Node000011"><a xlink:title=" ">
<path fill="none" stroke="#63b8ff" d="M723.53,-200.17C733,-201.39 742.73,-202.65 752.35,-203.89"/>
<polygon fill="#63b8ff" stroke="#63b8ff" points="751.7,-207.34 762.06,-205.15 752.59,-200.4 751.7,-207.34"/>
</a>
</g>
</g>
<!-- Node12 -->
<g id="Node000012" class="node">
<title>Node12</title>
<g id="a_Node000012"><a xlink:href="classxeno__rat__server_1_1_encryption.html#a0fafecaba804cb57663bdbb4dcc4e93f" target="_top" xlink:title="Encrypts the input data using the provided key and returns the encrypted result.">
<polygon fill="white" stroke="#666666" points="909.88,-181.5 772.38,-181.5 772.38,-151 909.88,-151 909.88,-181.5"/>
<text text-anchor="start" x="780.38" y="-168" font-family="Helvetica,sans-Serif" font-size="10.00">xeno_rat_server.Encryption.</text>
<text text-anchor="middle" x="841.12" y="-156.75" font-family="Helvetica,sans-Serif" font-size="10.00">Encrypt</text>
</a>
</g>
</g>
<!-- Node5&#45;&gt;Node12 -->
<g id="edge12_Node000005_Node000012" class="edge">
<title>Node5&#45;&gt;Node12</title>
<g id="a_edge12_Node000005_Node000012"><a xlink:title=" ">
<path fill="none" stroke="#63b8ff" d="M723.53,-180.73C735.79,-179.21 748.51,-177.63 760.83,-176.1"/>
<polygon fill="#63b8ff" stroke="#63b8ff" points="761.02,-179.6 770.51,-174.9 760.16,-172.65 761.02,-179.6"/>
</a>
</g>
</g>
<!-- Node13 -->
<g id="Node000013" class="node">
<title>Node13</title>
<g id="a_Node000013"><a xlink:href="classxeno__rat__server_1_1_socket_handler.html#a7d019c5e4cbd0138d155156c7a7c5a8f" target="_top" xlink:title="Converts an integer to a byte array.">
<polygon fill="white" stroke="#666666" points="918.5,-132.5 763.75,-132.5 763.75,-102 918.5,-102 918.5,-132.5"/>
<text text-anchor="start" x="771.75" y="-119" font-family="Helvetica,sans-Serif" font-size="10.00">xeno_rat_server.SocketHandler.</text>
<text text-anchor="middle" x="841.12" y="-107.75" font-family="Helvetica,sans-Serif" font-size="10.00">IntToBytes</text>
</a>
</g>
</g>
<!-- Node5&#45;&gt;Node13 -->
<g id="edge13_Node000005_Node000013" class="edge">
<title>Node5&#45;&gt;Node13</title>
<g id="a_edge13_Node000005_Node000013"><a xlink:title=" ">
<path fill="none" stroke="#63b8ff" d="M683.19,-174.53C706.13,-164.8 736.48,-152.3 763.75,-142.25 768.8,-140.39 774.07,-138.52 779.37,-136.69"/>
<polygon fill="#63b8ff" stroke="#63b8ff" points="780.46,-140.02 788.8,-133.48 778.2,-133.39 780.46,-140.02"/>
</a>
</g>
</g>
<!-- Node7 -->
<g id="Node000007" class="node">
<title>Node7</title>
<g id="a_Node000007"><a xlink:href="classxeno__rat__server_1_1_compression.html#ae86c8cb19fb340173e6b06816907c485" target="_top" xlink:title="Allocates the specified number of bytes in the local heap and returns a pointer to the allocated memo...">
<polygon fill="white" stroke="#666666" points="1114.88,-352.5 966.12,-352.5 966.12,-322 1114.88,-322 1114.88,-352.5"/>
<text text-anchor="start" x="974.12" y="-339" font-family="Helvetica,sans-Serif" font-size="10.00">xeno_rat_server.Compression.</text>
<text text-anchor="middle" x="1040.5" y="-327.75" font-family="Helvetica,sans-Serif" font-size="10.00">LocalAlloc</text>
</a>
</g>
</g>
<!-- Node6&#45;&gt;Node7 -->
<g id="edge7_Node000006_Node000007" class="edge">
<title>Node6&#45;&gt;Node7</title>
<g id="a_edge7_Node000006_Node000007"><a xlink:title=" ">
<path fill="none" stroke="#63b8ff" d="M875.64,-279.79C897.77,-289.75 927.55,-302.57 954.5,-312.25 960.2,-314.3 966.16,-316.31 972.16,-318.24"/>
<polygon fill="#63b8ff" stroke="#63b8ff" points="970.93,-321.52 981.52,-321.18 973.02,-314.84 970.93,-321.52"/>
</a>
</g>
</g>
<!-- Node8 -->
<g id="Node000008" class="node">
<title>Node8</title>
<g id="a_Node000008"><a xlink:href="classxeno__rat__server_1_1_compression.html#ab527e0a594d96bbaa1a4b1541888aa74" target="_top" xlink:title="Frees the memory block allocated by LocalAlloc and LocalReAlloc and invalidates the handle.">
<polygon fill="white" stroke="#666666" points="1114.88,-303.5 966.12,-303.5 966.12,-273 1114.88,-273 1114.88,-303.5"/>
<text text-anchor="start" x="974.12" y="-290" font-family="Helvetica,sans-Serif" font-size="10.00">xeno_rat_server.Compression.</text>
<text text-anchor="middle" x="1040.5" y="-278.75" font-family="Helvetica,sans-Serif" font-size="10.00">LocalFree</text>
</a>
</g>
</g>
<!-- Node6&#45;&gt;Node8 -->
<g id="edge8_Node000006_Node000008" class="edge">
<title>Node6&#45;&gt;Node8</title>
<g id="a_edge8_Node000006_Node000008"><a xlink:title=" ">
<path fill="none" stroke="#63b8ff" d="M915.9,-273.22C928.52,-274.76 941.72,-276.36 954.6,-277.93"/>
<polygon fill="#63b8ff" stroke="#63b8ff" points="953.96,-281.37 964.31,-279.11 954.81,-274.43 953.96,-281.37"/>
</a>
</g>
</g>
<!-- Node9 -->
<g id="Node000009" class="node">
<title>Node9</title>
<g id="a_Node000009"><a xlink:href="classxeno__rat__server_1_1_compression.html#a1f9bb20d96d13bdc4d0f90e2b68d4343" target="_top" xlink:title="Compresses the input buffer using the specified compression format and returns the compressed data in...">
<polygon fill="white" stroke="#666666" points="1114.88,-254.5 966.12,-254.5 966.12,-224 1114.88,-224 1114.88,-254.5"/>
<text text-anchor="start" x="974.12" y="-241" font-family="Helvetica,sans-Serif" font-size="10.00">xeno_rat_server.Compression.</text>
<text text-anchor="middle" x="1040.5" y="-229.75" font-family="Helvetica,sans-Serif" font-size="10.00">RtlCompressBuffer</text>
</a>
</g>
</g>
<!-- Node6&#45;&gt;Node9 -->
<g id="edge9_Node000006_Node000009" class="edge">
<title>Node6&#45;&gt;Node9</title>
<g id="a_edge9_Node000006_Node000009"><a xlink:title=" ">
<path fill="none" stroke="#63b8ff" d="M915.9,-254.91C928.52,-253.31 941.72,-251.64 954.6,-250"/>
<polygon fill="#63b8ff" stroke="#63b8ff" points="954.83,-253.5 964.31,-248.77 953.95,-246.56 954.83,-253.5"/>
</a>
</g>
</g>
<!-- Node10 -->
<g id="Node000010" class="node">
<title>Node10</title>
<g id="a_Node000010"><a xlink:href="classxeno__rat__server_1_1_compression.html#a5ca090d7b0887e40753bad9800c321e7" target="_top" xlink:title="Retrieves the size of the workspace required for compression.">
<polygon fill="white" stroke="#666666" points="1126.5,-205.5 954.5,-205.5 954.5,-175 1126.5,-175 1126.5,-205.5"/>
<text text-anchor="start" x="962.5" y="-192" font-family="Helvetica,sans-Serif" font-size="10.00">xeno_rat_server.Compression.</text>
<text text-anchor="middle" x="1040.5" y="-180.75" font-family="Helvetica,sans-Serif" font-size="10.00">RtlGetCompressionWorkSpaceSize</text>
</a>
</g>
</g>
<!-- Node6&#45;&gt;Node10 -->
<g id="edge10_Node000006_Node000010" class="edge">
<title>Node6&#45;&gt;Node10</title>
<g id="a_edge10_Node000006_Node000010"><a xlink:title=" ">
<path fill="none" stroke="#63b8ff" d="M896.27,-248.57C903.86,-245.78 911.47,-242.66 918.5,-239.25 935.8,-230.85 937.08,-223.39 954.5,-215.25 958.54,-213.36 962.75,-211.58 967.05,-209.91"/>
<polygon fill="#63b8ff" stroke="#63b8ff" points="968.24,-213.2 976.43,-206.49 965.84,-206.63 968.24,-213.2"/>
</a>
</g>
</g>
<!-- Node14&#45;&gt;Node3 -->
<g id="edge15_Node000014_Node000003" class="edge">
<title>Node14&#45;&gt;Node3</title>
<g id="a_edge15_Node000014_Node000003"><a xlink:title=" ">
<path fill="none" stroke="#63b8ff" d="M355.7,-211.25C363.65,-211.25 371.66,-211.25 379.52,-211.25"/>
<polygon fill="#63b8ff" stroke="#63b8ff" points="379.4,-214.75 389.4,-211.25 379.4,-207.75 379.4,-214.75"/>
</a>
</g>
</g>
<!-- Node15&#45;&gt;Node3 -->
<g id="edge17_Node000015_Node000003" class="edge">
<title>Node15&#45;&gt;Node3</title>
<g id="a_edge17_Node000015_Node000003"><a xlink:title=" ">
<path fill="none" stroke="#63b8ff" d="M329.36,-177.96C347.62,-182.66 367.82,-187.86 386.71,-192.73"/>
<polygon fill="#63b8ff" stroke="#63b8ff" points="385.64,-196.07 396.2,-195.17 387.39,-189.29 385.64,-196.07"/>
</a>
</g>
</g>
</g>
</svg>

<g id="navigator" transform="translate(0 0)" fill="#404254">
  <rect fill="#f2f5e9" fill-opacity="0.5" stroke="#606060" stroke-width=".5" x="0" y="0" width="60" height="60"/>
  <use id="zoomplus" xlink:href="#zoomPlus" x="17" y="9" onmousedown="handleZoom(evt,'in')"/>
  <use id="zoomminus" xlink:href="#zoomMin" x="42" y="9" onmousedown="handleZoom(evt,'out')"/>
  <use id="reset" xlink:href="#resetDef" x="30" y="36" onmousedown="handleReset()"/>
   <use id="arrowup" xlink:href="#arrowUp" x="0" y="0" onmousedown="handlePan(0,-1)"/>
  <use id="arrowright" xlink:href="#arrowRight" x="0" y="0" onmousedown="handlePan(1,0)"/>
  <use id="arrowdown" xlink:href="#arrowDown" x="0" y="0" onmousedown="handlePan(0,1)"/>
  <use id="arrowleft" xlink:href="#arrowLeft" x="0" y="0" onmousedown="handlePan(-1,0)"/>
</g>
<svg viewBox="0 0 15 15" width="100%" height="30px" preserveAspectRatio="xMaxYMin meet">
 <g id="arrow_out" transform="scale(0.3 0.3)">
  <a xlink:href="classxeno__rat__server_1_1_forms_1_1_shell_af10a3ac1a2f0d4c191277f4411f4cde3_cgraph_org.svg" target="_base">
   <rect id="button" ry="5" rx="5" y="6" x="6" height="38" width="38"
        fill="#f2f5e9" fill-opacity="0.5" stroke="#606060" stroke-width="1.0"/>
   <path id="arrow"
     d="M 11.500037,31.436501 C 11.940474,20.09759 22.043105,11.32322 32.158766,21.979434 L 37.068811,17.246167 C 37.068811,17.246167 37.088388,32 37.088388,32 L 22.160133,31.978069 C 22.160133,31.978069 26.997745,27.140456 26.997745,27.140456 C 18.528582,18.264221 13.291696,25.230495 11.500037,31.436501 z"
     style="fill:#404040;"/>
  </a>
 </g>
</svg>

<style type='text/css'>
<![CDATA[
[data-mouse-over-selected='false'] { opacity: 0.7; }
[data-mouse-over-selected='true']  { opacity: 1.0; }
]]>
</style>
<script type="application/ecmascript"><![CDATA[
document.addEventListener('DOMContentLoaded', (event) => {
  highlightEdges();
  highlightAdjacentNodes();
});
]]></script>
</svg>
