<?xml version="1.0" encoding="UTF-8" standalone="no"?>
<!DOCTYPE svg PUBLIC "-//W3C//DTD SVG 1.1//EN"
 "http://www.w3.org/Graphics/SVG/1.1/DTD/svg11.dtd">
<!-- Generated by graphviz version 10.0.1 (20240210.2158)
 -->
<!-- Title: NAudio.Wave.AsioOut.IsSampleRateSupported Pages: 1 -->
<svg width="721pt" height="39pt"
 viewBox="0.00 0.00 720.75 38.50" xmlns="http://www.w3.org/2000/svg" xmlns:xlink="http://www.w3.org/1999/xlink">
<g id="graph0" class="graph" transform="scale(1 1) rotate(0) translate(4 34.5)">
<title>NAudio.Wave.AsioOut.IsSampleRateSupported</title>
<!-- Node1 -->
<g id="Node000001" class="node">
<title>Node1</title>
<g id="a_Node000001"><a xlink:title="Checks if the specified sample rate is supported by the driver.">
<polygon fill="#999999" stroke="#666666" points="158.5,-30.5 0,-30.5 0,0 158.5,0 158.5,-30.5"/>
<text text-anchor="start" x="8" y="-17" font-family="Helvetica,sans-Serif" font-size="10.00">NAudio.Wave.AsioOut.IsSample</text>
<text text-anchor="middle" x="79.25" y="-5.75" font-family="Helvetica,sans-Serif" font-size="10.00">RateSupported</text>
</a>
</g>
</g>
<!-- Node2 -->
<g id="Node000002" class="node">
<title>Node2</title>
<g id="a_Node000002"><a xlink:href="class_n_audio_1_1_wave_1_1_asio_1_1_asio_driver_ext.html#a8980cdb3187038442842d10a3208c0d9" target="_top" xlink:title="Checks if the specified sample rate is supported by the driver.">
<polygon fill="white" stroke="#666666" points="341.75,-30.5 194.5,-30.5 194.5,0 341.75,0 341.75,-30.5"/>
<text text-anchor="start" x="202.5" y="-17" font-family="Helvetica,sans-Serif" font-size="10.00">NAudio.Wave.Asio.AsioDriver</text>
<text text-anchor="middle" x="268.12" y="-5.75" font-family="Helvetica,sans-Serif" font-size="10.00">Ext.IsSampleRateSupported</text>
</a>
</g>
</g>
<!-- Node1&#45;&gt;Node2 -->
<g id="edge1_Node000001_Node000002" class="edge">
<title>Node1&#45;&gt;Node2</title>
<g id="a_edge1_Node000001_Node000002"><a xlink:title=" ">
<path fill="none" stroke="#63b8ff" d="M158.96,-15.25C166.8,-15.25 174.78,-15.25 182.68,-15.25"/>
<polygon fill="#63b8ff" stroke="#63b8ff" points="182.65,-18.75 192.65,-15.25 182.65,-11.75 182.65,-18.75"/>
</a>
</g>
</g>
<!-- Node3 -->
<g id="Node000003" class="node">
<title>Node3</title>
<g id="a_Node000003"><a xlink:href="class_n_audio_1_1_wave_1_1_asio_1_1_asio_driver.html#ac57881085acb73e51c64a8df744984b9" target="_top" xlink:title="Checks if the specified sample rate is supported by the ASIO driver.">
<polygon fill="white" stroke="#666666" points="527.25,-30.5 377.75,-30.5 377.75,0 527.25,0 527.25,-30.5"/>
<text text-anchor="start" x="385.75" y="-17" font-family="Helvetica,sans-Serif" font-size="10.00">NAudio.Wave.Asio.AsioDriver.</text>
<text text-anchor="middle" x="452.5" y="-5.75" font-family="Helvetica,sans-Serif" font-size="10.00">CanSampleRate</text>
</a>
</g>
</g>
<!-- Node2&#45;&gt;Node3 -->
<g id="edge2_Node000002_Node000003" class="edge">
<title>Node2&#45;&gt;Node3</title>
<g id="a_edge2_Node000002_Node000003"><a xlink:title=" ">
<path fill="none" stroke="#63b8ff" d="M341.99,-15.25C349.88,-15.25 357.96,-15.25 365.98,-15.25"/>
<polygon fill="#63b8ff" stroke="#63b8ff" points="365.75,-18.75 375.75,-15.25 365.75,-11.75 365.75,-18.75"/>
</a>
</g>
</g>
<!-- Node4 -->
<g id="Node000004" class="node">
<title>Node4</title>
<g id="a_Node000004"><a xlink:href="class_n_audio_1_1_wave_1_1_asio_1_1_asio_driver.html#a76105cefc713c3dcc7e9bfd8dba74735" target="_top" xlink:title="Handles the exception for the ASIO method.">
<polygon fill="white" stroke="#666666" points="712.75,-30.5 563.25,-30.5 563.25,0 712.75,0 712.75,-30.5"/>
<text text-anchor="start" x="571.25" y="-17" font-family="Helvetica,sans-Serif" font-size="10.00">NAudio.Wave.Asio.AsioDriver.</text>
<text text-anchor="middle" x="638" y="-5.75" font-family="Helvetica,sans-Serif" font-size="10.00">HandleException</text>
</a>
</g>
</g>
<!-- Node3&#45;&gt;Node4 -->
<g id="edge3_Node000003_Node000004" class="edge">
<title>Node3&#45;&gt;Node4</title>
<g id="a_edge3_Node000003_Node000004"><a xlink:title=" ">
<path fill="none" stroke="#63b8ff" d="M527.61,-15.25C535.52,-15.25 543.61,-15.25 551.64,-15.25"/>
<polygon fill="#63b8ff" stroke="#63b8ff" points="551.4,-18.75 561.4,-15.25 551.4,-11.75 551.4,-18.75"/>
</a>
</g>
</g>
</g>
</svg>
