<?xml version="1.0" encoding="UTF-8" standalone="no"?>
<!DOCTYPE svg PUBLIC "-//W3C//DTD SVG 1.1//EN"
 "http://www.w3.org/Graphics/SVG/1.1/DTD/svg11.dtd">
<!-- Generated by graphviz version 10.0.1 (20240210.2158)
 -->
<!-- Title: xeno_rat_server.Forms.Live_Microphone.TempOnDisconnect Pages: 1 -->
<svg width="369pt" height="51pt"
 viewBox="0.00 0.00 368.50 50.88" xmlns="http://www.w3.org/2000/svg" xmlns:xlink="http://www.w3.org/1999/xlink">
<g id="graph0" class="graph" transform="scale(1 1) rotate(0) translate(4 46.88)">
<title>xeno_rat_server.Forms.Live_Microphone.TempOnDisconnect</title>
<!-- Node1 -->
<g id="Node000001" class="node">
<title>Node1</title>
<g id="a_Node000001"><a xlink:title="Disconnects the client and microphone node if they match the provided node, and closes the form if it...">
<polygon fill="#999999" stroke="#666666" points="160.75,-30.5 0,-30.5 0,0 160.75,0 160.75,-30.5"/>
<text text-anchor="start" x="8" y="-17" font-family="Helvetica,sans-Serif" font-size="10.00">xeno_rat_server.Forms.Live</text>
<text text-anchor="middle" x="80.38" y="-5.75" font-family="Helvetica,sans-Serif" font-size="10.00">_Microphone.TempOnDisconnect</text>
</a>
</g>
</g>
<!-- Node2 -->
<g id="Node000002" class="node">
<title>Node2</title>
<g id="a_Node000002"><a xlink:href="classxeno__rat__server_1_1_node.html#a8814edd98b6463f49812be32d5928763" target="_top" xlink:title="Sets the isDisposed flag to true and disconnects the socket, disposes resources, and triggers the OnD...">
<polygon fill="white" stroke="#666666" points="360.5,-24.88 196.75,-24.88 196.75,-5.63 360.5,-5.63 360.5,-24.88"/>
<text text-anchor="middle" x="278.62" y="-11.38" font-family="Helvetica,sans-Serif" font-size="10.00">xeno_rat_server.Node.Disconnect</text>
</a>
</g>
</g>
<!-- Node1&#45;&gt;Node2 -->
<g id="edge1_Node000001_Node000002" class="edge">
<title>Node1&#45;&gt;Node2</title>
<g id="a_edge1_Node000001_Node000002"><a xlink:title=" ">
<path fill="none" stroke="#63b8ff" d="M161.2,-15.25C168.97,-15.25 176.9,-15.25 184.78,-15.25"/>
<polygon fill="#63b8ff" stroke="#63b8ff" points="184.77,-18.75 194.77,-15.25 184.77,-11.75 184.77,-18.75"/>
</a>
</g>
</g>
<!-- Node2&#45;&gt;Node2 -->
<g id="edge2_Node000002_Node000002" class="edge">
<title>Node2&#45;&gt;Node2</title>
<g id="a_edge2_Node000002_Node000002"><a xlink:title=" ">
<path fill="none" stroke="#63b8ff" d="M247.59,-25.16C233.43,-33.77 243.78,-42.88 278.62,-42.88 298.77,-42.88 310.73,-39.83 314.5,-35.6"/>
<polygon fill="#63b8ff" stroke="#63b8ff" points="317.68,-34.14 310.3,-26.54 311.33,-37.08 317.68,-34.14"/>
</a>
</g>
</g>
</g>
</svg>
