<?xml version="1.0" encoding="UTF-8" standalone="no"?>
<!DOCTYPE svg PUBLIC "-//W3C//DTD SVG 1.1//EN"
 "http://www.w3.org/Graphics/SVG/1.1/DTD/svg11.dtd">
<!-- Generated by graphviz version 10.0.1 (20240210.2158)
 -->
<!-- Title: NAudio.Utils.HResult Pages: 1 -->
<svg width="232pt" height="431pt"
 viewBox="0.00 0.00 232.25 430.75" xmlns="http://www.w3.org/2000/svg" xmlns:xlink="http://www.w3.org/1999/xlink">
<g id="graph0" class="graph" transform="scale(1 1) rotate(0) translate(4 426.75)">
<title>NAudio.Utils.HResult</title>
<!-- Node1 -->
<g id="Node000001" class="node">
<title>Node1</title>
<g id="a_Node000001"><a xlink:title="HResult.">
<polygon fill="#999999" stroke="none" points="141,-214 0,-214 0,0 141,0 141,-214"/>
<text text-anchor="start" x="23.25" y="-200.5" font-family="Helvetica,sans-Serif" font-size="10.00">NAudio.Utils.HResult</text>
<text text-anchor="start" x="5.5" y="-185.5" font-family="Helvetica,sans-Serif" font-size="10.00">&#45;</text>
<text text-anchor="start" x="14" y="-185.5" font-family="Helvetica,sans-Serif" font-size="10.00">FACILITY_DISPATCH</text>
<text text-anchor="start" x="5.5" y="-170.5" font-family="Helvetica,sans-Serif" font-size="10.00">&#45;</text>
<text text-anchor="start" x="14" y="-170.5" font-family="Helvetica,sans-Serif" font-size="10.00">FACILITY_DPLAY</text>
<text text-anchor="start" x="5.5" y="-155.5" font-family="Helvetica,sans-Serif" font-size="10.00">&#45;</text>
<text text-anchor="start" x="14" y="-155.5" font-family="Helvetica,sans-Serif" font-size="10.00">FACILITY_HTTP</text>
<text text-anchor="start" x="5.5" y="-140.5" font-family="Helvetica,sans-Serif" font-size="10.00">&#45;</text>
<text text-anchor="start" x="14" y="-140.5" font-family="Helvetica,sans-Serif" font-size="10.00">FACILITY_INTERNET</text>
<text text-anchor="start" x="5.5" y="-125.5" font-family="Helvetica,sans-Serif" font-size="10.00">&#45;</text>
<text text-anchor="start" x="14" y="-125.5" font-family="Helvetica,sans-Serif" font-size="10.00">FACILITY_ITF</text>
<text text-anchor="start" x="5.5" y="-110.5" font-family="Helvetica,sans-Serif" font-size="10.00">&#45;</text>
<text text-anchor="start" x="14" y="-110.5" font-family="Helvetica,sans-Serif" font-size="10.00">FACILITY_MEDIASERVER</text>
<text text-anchor="start" x="5.5" y="-95.5" font-family="Helvetica,sans-Serif" font-size="10.00">&#45;</text>
<text text-anchor="start" x="14" y="-95.5" font-family="Helvetica,sans-Serif" font-size="10.00">FACILITY_MSMQ</text>
<text text-anchor="start" x="5.5" y="-80.5" font-family="Helvetica,sans-Serif" font-size="10.00">&#45;</text>
<text text-anchor="start" x="14" y="-80.5" font-family="Helvetica,sans-Serif" font-size="10.00">FACILITY_NULL</text>
<text text-anchor="start" x="5.5" y="-65.5" font-family="Helvetica,sans-Serif" font-size="10.00">&#45;</text>
<text text-anchor="start" x="14" y="-65.5" font-family="Helvetica,sans-Serif" font-size="10.00">FACILITY_RPC</text>
<text text-anchor="start" x="5.5" y="-50.5" font-family="Helvetica,sans-Serif" font-size="10.00">&#45;</text>
<text text-anchor="start" x="14" y="-50.5" font-family="Helvetica,sans-Serif" font-size="10.00">FACILITY_SCARD</text>
<text text-anchor="start" x="14" y="-35.5" font-family="Helvetica,sans-Serif" font-size="10.00">and 10 more...</text>
<text text-anchor="start" x="4" y="-20.5" font-family="Helvetica,sans-Serif" font-size="10.00">+</text>
<text text-anchor="start" x="14" y="-20.5" font-family="Helvetica,sans-Serif" font-size="10.00">MAKE_HRESULT()</text>
<text text-anchor="start" x="4" y="-5.5" font-family="Helvetica,sans-Serif" font-size="10.00">+</text>
<text text-anchor="start" x="14" y="-5.5" font-family="Helvetica,sans-Serif" font-size="10.00">GetHResult()</text>
<polygon fill="#666666" stroke="#666666" points="0,-197 0,-197 141,-197 141,-197 0,-197"/>
<polygon fill="#666666" stroke="#666666" points="0,-32 0,-32 12,-32 12,-32 0,-32"/>
<polygon fill="#666666" stroke="#666666" points="12,-32 12,-32 141,-32 141,-32 12,-32"/>
<polygon fill="none" stroke="#666666" points="0,0 0,-214 141,-214 141,0 0,0"/>
</a>
</g>
</g>
<!-- Node2 -->
<g id="Node000002" class="node">
<title>Node2</title>
<g id="a_Node000002"><a xlink:title=" ">
<polygon fill="white" stroke="none" points="80.5,-422.75 60.5,-422.75 60.5,-373.75 80.5,-373.75 80.5,-422.75"/>
<text text-anchor="start" x="65.25" y="-409.25" font-family="Helvetica,sans-Serif" font-size="10.00">int</text>
<text text-anchor="start" x="69" y="-394.25" font-family="Helvetica,sans-Serif" font-size="10.00"> </text>
<text text-anchor="start" x="69" y="-379.25" font-family="Helvetica,sans-Serif" font-size="10.00"> </text>
<polygon fill="#666666" stroke="#666666" points="60.5,-405.75 60.5,-405.75 80.5,-405.75 80.5,-405.75 60.5,-405.75"/>
<polygon fill="#666666" stroke="#666666" points="60.5,-390.75 60.5,-390.75 80.5,-390.75 80.5,-390.75 60.5,-390.75"/>
<polygon fill="none" stroke="#666666" points="60.5,-373.75 60.5,-422.75 80.5,-422.75 80.5,-373.75 60.5,-373.75"/>
</a>
</g>
</g>
<!-- Node2&#45;&gt;Node1 -->
<g id="edge1_Node000001_Node000002" class="edge">
<title>Node2&#45;&gt;Node1</title>
<g id="a_edge1_Node000001_Node000002"><a xlink:title=" ">
<path fill="none" stroke="#63b8ff" d="M70.5,-374.07C70.5,-341.98 70.5,-281.75 70.5,-226.69"/>
<polygon fill="none" stroke="#63b8ff" points="70.5,-226.84 66.5,-220.84 70.5,-214.84 74.5,-220.84 70.5,-226.84"/>
</a>
</g>
<text text-anchor="middle" x="147.38" y="-346.25" font-family="Helvetica,sans-Serif" font-size="10.00" fill="grey"> +E_INVALIDARG</text>
<text text-anchor="middle" x="147.38" y="-335" font-family="Helvetica,sans-Serif" font-size="10.00" fill="grey">+S_FALSE</text>
<text text-anchor="middle" x="147.38" y="-323.75" font-family="Helvetica,sans-Serif" font-size="10.00" fill="grey">+S_OK</text>
<text text-anchor="middle" x="147.38" y="-312.5" font-family="Helvetica,sans-Serif" font-size="10.00" fill="grey">&#45;FACILITY_AAF</text>
<text text-anchor="middle" x="147.38" y="-301.25" font-family="Helvetica,sans-Serif" font-size="10.00" fill="grey">&#45;FACILITY_ACS</text>
<text text-anchor="middle" x="147.38" y="-290" font-family="Helvetica,sans-Serif" font-size="10.00" fill="grey">&#45;FACILITY_BACKGROUNDCOPY</text>
<text text-anchor="middle" x="147.38" y="-278.75" font-family="Helvetica,sans-Serif" font-size="10.00" fill="grey">&#45;FACILITY_CERT</text>
<text text-anchor="middle" x="147.38" y="-267.5" font-family="Helvetica,sans-Serif" font-size="10.00" fill="grey">&#45;FACILITY_COMPLUS</text>
<text text-anchor="middle" x="147.38" y="-256.25" font-family="Helvetica,sans-Serif" font-size="10.00" fill="grey">&#45;FACILITY_CONFIGURATION</text>
<text text-anchor="middle" x="147.38" y="-245" font-family="Helvetica,sans-Serif" font-size="10.00" fill="grey">&#45;FACILITY_CONTROL</text>
<text text-anchor="middle" x="147.38" y="-233.75" font-family="Helvetica,sans-Serif" font-size="10.00" fill="grey">...</text>
</g>
</g>
</svg>
