<?xml version="1.0" encoding="UTF-8" standalone="no"?>
<!DOCTYPE svg PUBLIC "-//W3C//DTD SVG 1.1//EN"
 "http://www.w3.org/Graphics/SVG/1.1/DTD/svg11.dtd">
<!-- Generated by graphviz version 10.0.1 (20240210.2158)
 -->
<!-- Title: NAudio.Wave.Id3v2Tag Pages: 1 -->
<svg width="148pt" height="270pt"
 viewBox="0.00 0.00 147.75 269.50" xmlns="http://www.w3.org/2000/svg" xmlns:xlink="http://www.w3.org/1999/xlink">

<svg id="main" version="1.1" xmlns="http://www.w3.org/2000/svg" xmlns:xlink="http://www.w3.org/1999/xlink" xml:space="preserve" onload="init(evt)">
<style type="text/css"><![CDATA[
.node, .edge {opacity: 0.7;}
.node.selected, .edge.selected {opacity: 1;}
.edge:hover path { stroke: red; }
.edge:hover polygon { stroke: red; fill: red; }
]]></style>
<script type="application/ecmascript" xlink:href="svg.min.js"/>
<svg id="graph" class="graph">
<g id="graph0" class="graph" transform="scale(1 1) rotate(0) translate(4 265.5)">
<title>NAudio.Wave.Id3v2Tag</title>
<!-- Node1 -->
<g id="Node000001" class="node">
<title>Node1</title>
<g id="a_Node000001"><a xlink:title="An ID3v2 Tag.">
<polygon fill="#999999" stroke="none" points="124,-154 0,-154 0,0 124,0 124,-154"/>
<text text-anchor="start" x="10.62" y="-140.5" font-family="Helvetica,sans-Serif" font-size="10.00">NAudio.Wave.Id3v2Tag</text>
<text text-anchor="start" x="4" y="-125.5" font-family="Helvetica,sans-Serif" font-size="10.00">+</text>
<text text-anchor="start" x="14" y="-125.5" font-family="Helvetica,sans-Serif" font-size="10.00">RawData</text>
<text text-anchor="start" x="4" y="-110.5" font-family="Helvetica,sans-Serif" font-size="10.00">+</text>
<text text-anchor="start" x="14" y="-110.5" font-family="Helvetica,sans-Serif" font-size="10.00">ReadTag()</text>
<text text-anchor="start" x="4" y="-95.5" font-family="Helvetica,sans-Serif" font-size="10.00">+</text>
<text text-anchor="start" x="14" y="-95.5" font-family="Helvetica,sans-Serif" font-size="10.00">Create()</text>
<text text-anchor="start" x="5.5" y="-80.5" font-family="Helvetica,sans-Serif" font-size="10.00">&#45;</text>
<text text-anchor="start" x="14" y="-80.5" font-family="Helvetica,sans-Serif" font-size="10.00">Id3v2Tag()</text>
<text text-anchor="start" x="5.5" y="-65.5" font-family="Helvetica,sans-Serif" font-size="10.00">&#45;</text>
<text text-anchor="start" x="14" y="-65.5" font-family="Helvetica,sans-Serif" font-size="10.00">FrameSizeToBytes()</text>
<text text-anchor="start" x="5.5" y="-50.5" font-family="Helvetica,sans-Serif" font-size="10.00">&#45;</text>
<text text-anchor="start" x="14" y="-50.5" font-family="Helvetica,sans-Serif" font-size="10.00">CreateId3v2Frame()</text>
<text text-anchor="start" x="5.5" y="-35.5" font-family="Helvetica,sans-Serif" font-size="10.00">&#45;</text>
<text text-anchor="start" x="14" y="-35.5" font-family="Helvetica,sans-Serif" font-size="10.00">GetId3TagHeaderSize()</text>
<text text-anchor="start" x="5.5" y="-20.5" font-family="Helvetica,sans-Serif" font-size="10.00">&#45;</text>
<text text-anchor="start" x="14" y="-20.5" font-family="Helvetica,sans-Serif" font-size="10.00">CreateId3v2TagHeader()</text>
<text text-anchor="start" x="5.5" y="-5.5" font-family="Helvetica,sans-Serif" font-size="10.00">&#45;</text>
<text text-anchor="start" x="14" y="-5.5" font-family="Helvetica,sans-Serif" font-size="10.00">CreateId3v2TagStream()</text>
<polygon fill="#666666" stroke="#666666" points="0,-137 0,-137 124,-137 124,-137 0,-137"/>
<polygon fill="#666666" stroke="#666666" points="0,-122 0,-122 12,-122 12,-122 0,-122"/>
<polygon fill="#666666" stroke="#666666" points="12,-122 12,-122 124,-122 124,-122 12,-122"/>
<polygon fill="none" stroke="#666666" points="0,0 0,-154 124,-154 124,0 0,0"/>
</a>
</g>
</g>
<!-- Node2 -->
<g id="Node000002" class="node">
<title>Node2</title>
<g id="a_Node000002"><a xlink:title=" ">
<polygon fill="white" stroke="none" points="28,-261.5 0,-261.5 0,-212.5 28,-212.5 28,-261.5"/>
<text text-anchor="start" x="5" y="-248" font-family="Helvetica,sans-Serif" font-size="10.00">long</text>
<text text-anchor="start" x="12.5" y="-233" font-family="Helvetica,sans-Serif" font-size="10.00"> </text>
<text text-anchor="start" x="12.5" y="-218" font-family="Helvetica,sans-Serif" font-size="10.00"> </text>
<polygon fill="#666666" stroke="#666666" points="0,-244.5 0,-244.5 28,-244.5 28,-244.5 0,-244.5"/>
<polygon fill="#666666" stroke="#666666" points="0,-229.5 0,-229.5 28,-229.5 28,-229.5 0,-229.5"/>
<polygon fill="none" stroke="#666666" points="0,-212.5 0,-261.5 28,-261.5 28,-212.5 0,-212.5"/>
</a>
</g>
</g>
<!-- Node2&#45;&gt;Node1 -->
<g id="edge1_Node000001_Node000002" class="edge">
<title>Node2&#45;&gt;Node1</title>
<g id="a_edge1_Node000001_Node000002"><a xlink:title=" ">
<path fill="none" stroke="#63b8ff" d="M12.01,-212.58C11.59,-200.32 12.02,-185.17 15.25,-172 15.73,-170.03 16.27,-168.04 16.84,-166.06"/>
<polygon fill="none" stroke="#63b8ff" points="16.81,-166.15 14.88,-159.2 20.55,-154.74 22.48,-161.69 16.81,-166.15"/>
</a>
</g>
<text text-anchor="middle" x="52.38" y="-185" font-family="Helvetica,sans-Serif" font-size="10.00" fill="grey"> &#45;tagEndPosition</text>
<text text-anchor="middle" x="52.38" y="-173.75" font-family="Helvetica,sans-Serif" font-size="10.00" fill="grey">&#45;tagStartPosition</text>
</g>
<!-- Node3 -->
<g id="Node000003" class="node">
<title>Node3</title>
<g id="a_Node000003"><a xlink:title=" ">
<polygon fill="white" stroke="none" points="124,-261.5 96,-261.5 96,-212.5 124,-212.5 124,-261.5"/>
<text text-anchor="start" x="100.62" y="-248" font-family="Helvetica,sans-Serif" font-size="10.00">byte</text>
<text text-anchor="start" x="108.5" y="-233" font-family="Helvetica,sans-Serif" font-size="10.00"> </text>
<text text-anchor="start" x="108.5" y="-218" font-family="Helvetica,sans-Serif" font-size="10.00"> </text>
<polygon fill="#666666" stroke="#666666" points="96,-244.5 96,-244.5 124,-244.5 124,-244.5 96,-244.5"/>
<polygon fill="#666666" stroke="#666666" points="96,-229.5 96,-229.5 124,-229.5 124,-229.5 96,-229.5"/>
<polygon fill="none" stroke="#666666" points="96,-212.5 96,-261.5 124,-261.5 124,-212.5 96,-212.5"/>
</a>
</g>
</g>
<!-- Node3&#45;&gt;Node1 -->
<g id="edge2_Node000001_Node000003" class="edge">
<title>Node3&#45;&gt;Node1</title>
<g id="a_edge2_Node000001_Node000003"><a xlink:title=" ">
<path fill="none" stroke="#63b8ff" d="M102.92,-212.69C99.04,-199.92 93.96,-183.21 88.71,-165.93"/>
<polygon fill="none" stroke="#63b8ff" points="88.81,-166.25 83.24,-161.67 85.32,-154.77 90.89,-159.35 88.81,-166.25"/>
</a>
</g>
<text text-anchor="middle" x="118.38" y="-179.38" font-family="Helvetica,sans-Serif" font-size="10.00" fill="grey"> &#45;rawData</text>
</g>
</g>
</svg>
</svg>

<style type='text/css'>
<![CDATA[
[data-mouse-over-selected='false'] { opacity: 0.7; }
[data-mouse-over-selected='true']  { opacity: 1.0; }
]]>
</style>
<script type="application/ecmascript"><![CDATA[
document.addEventListener('DOMContentLoaded', (event) => {
  highlightEdges();
  highlightAdjacentNodes();
});
]]></script>
</svg>
