<?xml version="1.0" encoding="UTF-8" standalone="no"?>
<!DOCTYPE svg PUBLIC "-//W3C//DTD SVG 1.1//EN"
 "http://www.w3.org/Graphics/SVG/1.1/DTD/svg11.dtd">
<!-- Generated by graphviz version 10.0.1 (20240210.2158)
 -->
<!-- Title: NAudio.Dmo.DmoGuids Pages: 1 -->
<svg width="191pt" height="300pt"
 viewBox="0.00 0.00 190.75 299.50" xmlns="http://www.w3.org/2000/svg" xmlns:xlink="http://www.w3.org/1999/xlink">

<svg id="main" version="1.1" xmlns="http://www.w3.org/2000/svg" xmlns:xlink="http://www.w3.org/1999/xlink" xml:space="preserve" onload="init(evt)">
<style type="text/css"><![CDATA[
.node, .edge {opacity: 0.7;}
.node.selected, .edge.selected {opacity: 1;}
.edge:hover path { stroke: red; }
.edge:hover polygon { stroke: red; fill: red; }
]]></style>
<script type="application/ecmascript" xlink:href="svg.min.js"/>
<svg id="graph" class="graph">
<g id="graph0" class="graph" transform="scale(1 1) rotate(0) translate(4 295.5)">
<title>NAudio.Dmo.DmoGuids</title>
<!-- Node1 -->
<g id="Node000001" class="node">
<title>Node1</title>
<g id="a_Node000001"><a xlink:title="DMO Guids for use with DMOEnum dmoreg.h.">
<polygon fill="#999999" stroke="none" points="115,-49 0,-49 0,0 115,0 115,-49"/>
<text text-anchor="start" x="4.62" y="-35.5" font-family="Helvetica,sans-Serif" font-size="10.00">NAudio.Dmo.DmoGuids</text>
<text text-anchor="start" x="56" y="-20.5" font-family="Helvetica,sans-Serif" font-size="10.00"> </text>
<text text-anchor="start" x="56" y="-5.5" font-family="Helvetica,sans-Serif" font-size="10.00"> </text>
<polygon fill="#666666" stroke="#666666" points="0,-32 0,-32 115,-32 115,-32 0,-32"/>
<polygon fill="#666666" stroke="#666666" points="0,-17 0,-17 115,-17 115,-17 0,-17"/>
<polygon fill="none" stroke="#666666" points="0,0 0,-49 115,-49 115,0 0,0"/>
</a>
</g>
</g>
<!-- Node2 -->
<g id="Node000002" class="node">
<title>Node2</title>
<g id="a_Node000002"><a xlink:title=" ">
<polygon fill="white" stroke="none" points="74.5,-291.5 40.5,-291.5 40.5,-242.5 74.5,-242.5 74.5,-291.5"/>
<text text-anchor="start" x="45.5" y="-278" font-family="Helvetica,sans-Serif" font-size="10.00">static</text>
<text text-anchor="start" x="56" y="-263" font-family="Helvetica,sans-Serif" font-size="10.00"> </text>
<text text-anchor="start" x="56" y="-248" font-family="Helvetica,sans-Serif" font-size="10.00"> </text>
<polygon fill="#666666" stroke="#666666" points="40.5,-274.5 40.5,-274.5 74.5,-274.5 74.5,-274.5 40.5,-274.5"/>
<polygon fill="#666666" stroke="#666666" points="40.5,-259.5 40.5,-259.5 74.5,-259.5 74.5,-259.5 40.5,-259.5"/>
<polygon fill="none" stroke="#666666" points="40.5,-242.5 40.5,-291.5 74.5,-291.5 74.5,-242.5 40.5,-242.5"/>
</a>
</g>
</g>
<!-- Node2&#45;&gt;Node1 -->
<g id="edge1_Node000001_Node000002" class="edge">
<title>Node2&#45;&gt;Node1</title>
<g id="a_edge1_Node000001_Node000002"><a xlink:title=" ">
<path fill="none" stroke="#63b8ff" d="M57.5,-242.5C57.5,-200.37 57.5,-111.71 57.5,-61.74"/>
<polygon fill="none" stroke="#63b8ff" points="57.5,-61.64 53.5,-55.64 57.5,-49.64 61.5,-55.64 57.5,-61.64"/>
</a>
</g>
<text text-anchor="start" x="57.5" y="-215" font-family="Helvetica,sans-Serif" font-size="10.00" fill="grey"> +DMOCATEGORY_AUDIO</text>
<text text-anchor="middle" x="120.12" y="-203.75" font-family="Helvetica,sans-Serif" font-size="10.00" fill="grey">_CAPTURE_EFFECT</text>
<text text-anchor="start" x="57.5" y="-192.5" font-family="Helvetica,sans-Serif" font-size="10.00" fill="grey">+DMOCATEGORY_AUDIO</text>
<text text-anchor="middle" x="120.12" y="-181.25" font-family="Helvetica,sans-Serif" font-size="10.00" fill="grey">_DECODER</text>
<text text-anchor="start" x="57.5" y="-170" font-family="Helvetica,sans-Serif" font-size="10.00" fill="grey">+DMOCATEGORY_AUDIO</text>
<text text-anchor="middle" x="120.12" y="-158.75" font-family="Helvetica,sans-Serif" font-size="10.00" fill="grey">_EFFECT</text>
<text text-anchor="start" x="57.5" y="-147.5" font-family="Helvetica,sans-Serif" font-size="10.00" fill="grey">+DMOCATEGORY_AUDIO</text>
<text text-anchor="middle" x="120.12" y="-136.25" font-family="Helvetica,sans-Serif" font-size="10.00" fill="grey">_ENCODER</text>
<text text-anchor="start" x="57.5" y="-125" font-family="Helvetica,sans-Serif" font-size="10.00" fill="grey">+DMOCATEGORY_VIDEO</text>
<text text-anchor="middle" x="120.12" y="-113.75" font-family="Helvetica,sans-Serif" font-size="10.00" fill="grey">_DECODER</text>
<text text-anchor="start" x="57.5" y="-102.5" font-family="Helvetica,sans-Serif" font-size="10.00" fill="grey">+DMOCATEGORY_VIDEO</text>
<text text-anchor="middle" x="120.12" y="-91.25" font-family="Helvetica,sans-Serif" font-size="10.00" fill="grey">_EFFECT</text>
<text text-anchor="start" x="57.5" y="-80" font-family="Helvetica,sans-Serif" font-size="10.00" fill="grey">+DMOCATEGORY_VIDEO</text>
<text text-anchor="middle" x="120.12" y="-68.75" font-family="Helvetica,sans-Serif" font-size="10.00" fill="grey">_ENCODER</text>
</g>
</g>
</svg>
</svg>

<style type='text/css'>
<![CDATA[
[data-mouse-over-selected='false'] { opacity: 0.7; }
[data-mouse-over-selected='true']  { opacity: 1.0; }
]]>
</style>
<script type="application/ecmascript"><![CDATA[
document.addEventListener('DOMContentLoaded', (event) => {
  highlightEdges();
  highlightAdjacentNodes();
});
]]></script>
</svg>
