<?xml version="1.0" encoding="UTF-8" standalone="no"?>
<!DOCTYPE svg PUBLIC "-//W3C//DTD SVG 1.1//EN"
 "http://www.w3.org/Graphics/SVG/1.1/DTD/svg11.dtd">
<!-- Generated by graphviz version 10.0.1 (20240210.2158)
 -->
<!-- Title: xeno_rat_server.Forms.DebugInfo.GetConsoleOutput Pages: 1 -->
<svg width="940pt" height="492pt"
 viewBox="0.00 0.00 940.00 491.50" xmlns="http://www.w3.org/2000/svg" xmlns:xlink="http://www.w3.org/1999/xlink">
<g id="graph0" class="graph" transform="scale(1 1) rotate(0) translate(4 487.5)">
<title>xeno_rat_server.Forms.DebugInfo.GetConsoleOutput</title>
<!-- Node1 -->
<g id="Node000001" class="node">
<title>Node1</title>
<g id="a_Node000001"><a xlink:title="Asynchronously sends a byte array to the client and receives the console output as a byte array,...">
<polygon fill="#999999" stroke="#666666" points="147.25,-234.5 0,-234.5 0,-204 147.25,-204 147.25,-234.5"/>
<text text-anchor="start" x="8" y="-221" font-family="Helvetica,sans-Serif" font-size="10.00">xeno_rat_server.Forms.Debug</text>
<text text-anchor="middle" x="73.62" y="-209.75" font-family="Helvetica,sans-Serif" font-size="10.00">Info.GetConsoleOutput</text>
</a>
</g>
</g>
<!-- Node2 -->
<g id="Node000002" class="node">
<title>Node2</title>
<g id="a_Node000002"><a xlink:href="classxeno__rat__server_1_1_node.html#a3dcb832502d4cd1dd580897265b2da7b" target="_top" xlink:title="Asynchronously receives data from the socket and returns the received data as a byte array.">
<polygon fill="white" stroke="#666666" points="333.5,-259.5 183.25,-259.5 183.25,-229 333.5,-229 333.5,-259.5"/>
<text text-anchor="start" x="191.25" y="-246" font-family="Helvetica,sans-Serif" font-size="10.00">xeno_rat_server.Node.Receive</text>
<text text-anchor="middle" x="258.38" y="-234.75" font-family="Helvetica,sans-Serif" font-size="10.00">Async</text>
</a>
</g>
</g>
<!-- Node1&#45;&gt;Node2 -->
<g id="edge1_Node000001_Node000002" class="edge">
<title>Node1&#45;&gt;Node2</title>
<g id="a_edge1_Node000001_Node000002"><a xlink:title=" ">
<path fill="none" stroke="#63b8ff" d="M147.64,-229.24C155.55,-230.32 163.64,-231.43 171.68,-232.53"/>
<polygon fill="#63b8ff" stroke="#63b8ff" points="171.1,-235.98 181.48,-233.87 172.05,-229.04 171.1,-235.98"/>
</a>
</g>
</g>
<!-- Node12 -->
<g id="Node000012" class="node">
<title>Node12</title>
<g id="a_Node000012"><a xlink:href="classxeno__rat__server_1_1_node.html#a816e267eb31862d38c21e5faaae3061d" target="_top" xlink:title="Sends the provided data asynchronously and returns a boolean indicating the success of the operation.">
<polygon fill="white" stroke="#666666" points="326.75,-210.5 190,-210.5 190,-180 326.75,-180 326.75,-210.5"/>
<text text-anchor="start" x="198" y="-197" font-family="Helvetica,sans-Serif" font-size="10.00">xeno_rat_server.Node.Send</text>
<text text-anchor="middle" x="258.38" y="-185.75" font-family="Helvetica,sans-Serif" font-size="10.00">Async</text>
</a>
</g>
</g>
<!-- Node1&#45;&gt;Node12 -->
<g id="edge13_Node000001_Node000012" class="edge">
<title>Node1&#45;&gt;Node12</title>
<g id="a_edge13_Node000001_Node000012"><a xlink:title=" ">
<path fill="none" stroke="#63b8ff" d="M147.64,-209.66C157.68,-208.34 168.03,-206.98 178.18,-205.65"/>
<polygon fill="#63b8ff" stroke="#63b8ff" points="178.56,-209.13 188.02,-204.36 177.64,-202.19 178.56,-209.13"/>
</a>
</g>
</g>
<!-- Node3 -->
<g id="Node000003" class="node">
<title>Node3</title>
<g id="a_Node000003"><a xlink:href="classxeno__rat__server_1_1_node.html#a8814edd98b6463f49812be32d5928763" target="_top" xlink:title="Sets the isDisposed flag to true and disconnects the socket, disposes resources, and triggers the OnD...">
<polygon fill="white" stroke="#666666" points="533.25,-229.88 369.5,-229.88 369.5,-210.62 533.25,-210.62 533.25,-229.88"/>
<text text-anchor="middle" x="451.38" y="-216.38" font-family="Helvetica,sans-Serif" font-size="10.00">xeno_rat_server.Node.Disconnect</text>
</a>
</g>
</g>
<!-- Node2&#45;&gt;Node3 -->
<g id="edge2_Node000002_Node000003" class="edge">
<title>Node2&#45;&gt;Node3</title>
<g id="a_edge2_Node000002_Node000003"><a xlink:title=" ">
<path fill="none" stroke="#63b8ff" d="M333.77,-234.9C341.9,-233.88 350.26,-232.83 358.57,-231.79"/>
<polygon fill="#63b8ff" stroke="#63b8ff" points="358.88,-235.27 368.36,-230.56 358,-228.33 358.88,-235.27"/>
</a>
</g>
</g>
<!-- Node4 -->
<g id="Node000004" class="node">
<title>Node4</title>
<g id="a_Node000004"><a xlink:href="classxeno__rat__server_1_1_socket_handler.html#a40a6f3b7eb555e8d688ea5c0074ffa2c" target="_top" xlink:title="Asynchronously receives data and processes it according to the protocol, then returns the processed d...">
<polygon fill="white" stroke="#666666" points="528.75,-336.5 374,-336.5 374,-306 528.75,-306 528.75,-336.5"/>
<text text-anchor="start" x="382" y="-323" font-family="Helvetica,sans-Serif" font-size="10.00">xeno_rat_server.SocketHandler.</text>
<text text-anchor="middle" x="451.38" y="-311.75" font-family="Helvetica,sans-Serif" font-size="10.00">ReceiveAsync</text>
</a>
</g>
</g>
<!-- Node2&#45;&gt;Node4 -->
<g id="edge4_Node000002_Node000004" class="edge">
<title>Node2&#45;&gt;Node4</title>
<g id="a_edge4_Node000002_Node000004"><a xlink:title=" ">
<path fill="none" stroke="#63b8ff" d="M298.03,-259.83C327.7,-271.79 368.89,-288.4 400.96,-301.33"/>
<polygon fill="#63b8ff" stroke="#63b8ff" points="399.47,-304.5 410.05,-304.99 402.08,-298.01 399.47,-304.5"/>
</a>
</g>
</g>
<!-- Node3&#45;&gt;Node3 -->
<g id="edge3_Node000003_Node000003" class="edge">
<title>Node3&#45;&gt;Node3</title>
<g id="a_edge3_Node000003_Node000003"><a xlink:title=" ">
<path fill="none" stroke="#63b8ff" d="M421.16,-230.16C407.38,-238.77 417.45,-247.88 451.38,-247.88 470.99,-247.88 482.63,-244.83 486.3,-240.6"/>
<polygon fill="#63b8ff" stroke="#63b8ff" points="489.51,-239.22 482.21,-231.54 483.13,-242.1 489.51,-239.22"/>
</a>
</g>
</g>
<!-- Node5 -->
<g id="Node000005" class="node">
<title>Node5</title>
<g id="a_Node000005"><a xlink:href="classxeno__rat__server_1_1_socket_handler.html#a53169a2098514698865b69c8fab12f77" target="_top" xlink:title="Truncates the input byte array starting from the specified offset and returns the truncated byte arra...">
<polygon fill="white" stroke="#666666" points="724,-287.5 569.25,-287.5 569.25,-257 724,-257 724,-287.5"/>
<text text-anchor="start" x="577.25" y="-274" font-family="Helvetica,sans-Serif" font-size="10.00">xeno_rat_server.SocketHandler.</text>
<text text-anchor="middle" x="646.62" y="-262.75" font-family="Helvetica,sans-Serif" font-size="10.00">BTruncate</text>
</a>
</g>
</g>
<!-- Node4&#45;&gt;Node5 -->
<g id="edge5_Node000004_Node000005" class="edge">
<title>Node4&#45;&gt;Node5</title>
<g id="a_edge5_Node000004_Node000005"><a xlink:title=" ">
<path fill="none" stroke="#63b8ff" d="M514.32,-305.54C532.87,-300.84 553.38,-295.64 572.58,-290.77"/>
<polygon fill="#63b8ff" stroke="#63b8ff" points="573.4,-294.17 582.23,-288.32 571.68,-287.39 573.4,-294.17"/>
</a>
</g>
</g>
<!-- Node6 -->
<g id="Node000006" class="node">
<title>Node6</title>
<g id="a_Node000006"><a xlink:href="classxeno__rat__server_1_1_socket_handler.html#a68836e871124cbda8a644223a73421d0" target="_top" xlink:title="Converts the specified byte array to an integer value.">
<polygon fill="white" stroke="#666666" points="923.38,-318.5 768.62,-318.5 768.62,-288 923.38,-288 923.38,-318.5"/>
<text text-anchor="start" x="776.62" y="-305" font-family="Helvetica,sans-Serif" font-size="10.00">xeno_rat_server.SocketHandler.</text>
<text text-anchor="middle" x="846" y="-293.75" font-family="Helvetica,sans-Serif" font-size="10.00">BytesToInt</text>
</a>
</g>
</g>
<!-- Node4&#45;&gt;Node6 -->
<g id="edge6_Node000004_Node000006" class="edge">
<title>Node4&#45;&gt;Node6</title>
<g id="a_edge6_Node000004_Node000006"><a xlink:title=" ">
<path fill="none" stroke="#63b8ff" d="M470.23,-305.55C491.9,-287.64 530.38,-259.39 569.25,-248.25 635.37,-229.3 656.78,-233.69 724,-248.25 754.25,-254.8 786.03,-269.59 809.42,-282.18"/>
<polygon fill="#63b8ff" stroke="#63b8ff" points="807.45,-285.1 817.9,-286.86 810.83,-278.97 807.45,-285.1"/>
</a>
</g>
</g>
<!-- Node7 -->
<g id="Node000007" class="node">
<title>Node7</title>
<g id="a_Node000007"><a xlink:href="classxeno__rat__server_1_1_compression.html#ad992bb75126d7c346fe7884dbbcf8ad8" target="_top" xlink:title="Decompresses the input buffer using the LZNT1 compression format and returns the decompressed data.">
<polygon fill="white" stroke="#666666" points="721,-483.5 572.25,-483.5 572.25,-453 721,-453 721,-483.5"/>
<text text-anchor="start" x="580.25" y="-470" font-family="Helvetica,sans-Serif" font-size="10.00">xeno_rat_server.Compression.</text>
<text text-anchor="middle" x="646.62" y="-458.75" font-family="Helvetica,sans-Serif" font-size="10.00">Decompress</text>
</a>
</g>
</g>
<!-- Node4&#45;&gt;Node7 -->
<g id="edge7_Node000004_Node000007" class="edge">
<title>Node4&#45;&gt;Node7</title>
<g id="a_edge7_Node000004_Node000007"><a xlink:title=" ">
<path fill="none" stroke="#63b8ff" d="M463.15,-336.7C481.86,-362.41 522.82,-414.04 569.25,-443.25 571.82,-444.87 574.5,-446.39 577.26,-447.82"/>
<polygon fill="#63b8ff" stroke="#63b8ff" points="575.61,-450.91 586.15,-451.98 578.58,-444.57 575.61,-450.91"/>
</a>
</g>
</g>
<!-- Node9 -->
<g id="Node000009" class="node">
<title>Node9</title>
<g id="a_Node000009"><a xlink:href="classxeno__rat__server_1_1_encryption.html#ae2a6537578e2140511afe92f8ad5e964" target="_top" xlink:title="Decrypts the input data using the provided key and returns the decrypted result.">
<polygon fill="white" stroke="#666666" points="715.38,-434.5 577.88,-434.5 577.88,-404 715.38,-404 715.38,-434.5"/>
<text text-anchor="start" x="585.88" y="-421" font-family="Helvetica,sans-Serif" font-size="10.00">xeno_rat_server.Encryption.</text>
<text text-anchor="middle" x="646.62" y="-409.75" font-family="Helvetica,sans-Serif" font-size="10.00">Decrypt</text>
</a>
</g>
</g>
<!-- Node4&#45;&gt;Node9 -->
<g id="edge9_Node000004_Node000009" class="edge">
<title>Node4&#45;&gt;Node9</title>
<g id="a_edge9_Node000004_Node000009"><a xlink:title=" ">
<path fill="none" stroke="#63b8ff" d="M473.88,-336.91C496.66,-352.96 534.14,-377.84 569.25,-394.25 573.19,-396.09 577.3,-397.86 581.49,-399.53"/>
<polygon fill="#63b8ff" stroke="#63b8ff" points="579.98,-402.7 590.57,-402.98 582.46,-396.16 579.98,-402.7"/>
</a>
</g>
</g>
<!-- Node10 -->
<g id="Node000010" class="node">
<title>Node10</title>
<g id="a_Node000010"><a xlink:href="classxeno__rat__server_1_1_socket_handler.html#aeefcafd750efab21954bd772b8ae565d" target="_top" xlink:title="Parses the header from the provided byte array and returns the parsed header object.">
<polygon fill="white" stroke="#666666" points="724,-385.5 569.25,-385.5 569.25,-355 724,-355 724,-385.5"/>
<text text-anchor="start" x="577.25" y="-372" font-family="Helvetica,sans-Serif" font-size="10.00">xeno_rat_server.SocketHandler.</text>
<text text-anchor="middle" x="646.62" y="-360.75" font-family="Helvetica,sans-Serif" font-size="10.00">ParseHeader</text>
</a>
</g>
</g>
<!-- Node4&#45;&gt;Node10 -->
<g id="edge10_Node000004_Node000010" class="edge">
<title>Node4&#45;&gt;Node10</title>
<g id="a_edge10_Node000004_Node000010"><a xlink:title=" ">
<path fill="none" stroke="#63b8ff" d="M514.32,-336.96C532.87,-341.66 553.38,-346.86 572.58,-351.73"/>
<polygon fill="#63b8ff" stroke="#63b8ff" points="571.68,-355.11 582.23,-354.18 573.4,-348.33 571.68,-355.11"/>
</a>
</g>
</g>
<!-- Node11 -->
<g id="Node000011" class="node">
<title>Node11</title>
<g id="a_Node000011"><a xlink:href="classxeno__rat__server_1_1_socket_handler.html#acc7e34649fee5060867a2321dd15d854" target="_top" xlink:title="Asynchronously receives all the data of the specified size from the connected socket and returns the ...">
<polygon fill="white" stroke="#666666" points="724,-336.5 569.25,-336.5 569.25,-306 724,-306 724,-336.5"/>
<text text-anchor="start" x="577.25" y="-323" font-family="Helvetica,sans-Serif" font-size="10.00">xeno_rat_server.SocketHandler.</text>
<text text-anchor="middle" x="646.62" y="-311.75" font-family="Helvetica,sans-Serif" font-size="10.00">RecvAllAsync_ddos_unsafer</text>
</a>
</g>
</g>
<!-- Node4&#45;&gt;Node11 -->
<g id="edge12_Node000004_Node000011" class="edge">
<title>Node4&#45;&gt;Node11</title>
<g id="a_edge12_Node000004_Node000011"><a xlink:title=" ">
<path fill="none" stroke="#63b8ff" d="M529.03,-321.25C538.5,-321.25 548.23,-321.25 557.85,-321.25"/>
<polygon fill="#63b8ff" stroke="#63b8ff" points="557.55,-324.75 567.55,-321.25 557.55,-317.75 557.55,-324.75"/>
</a>
</g>
</g>
<!-- Node8 -->
<g id="Node000008" class="node">
<title>Node8</title>
<g id="a_Node000008"><a xlink:href="classxeno__rat__server_1_1_compression.html#a1c901d319793d3855012549e6a18fe53" target="_top" xlink:title="Decompresses a buffer using the specified compression format and returns the decompressed data.">
<polygon fill="white" stroke="#666666" points="920.38,-483.5 771.62,-483.5 771.62,-453 920.38,-453 920.38,-483.5"/>
<text text-anchor="start" x="779.62" y="-470" font-family="Helvetica,sans-Serif" font-size="10.00">xeno_rat_server.Compression.</text>
<text text-anchor="middle" x="846" y="-458.75" font-family="Helvetica,sans-Serif" font-size="10.00">RtlDecompressBuffer</text>
</a>
</g>
</g>
<!-- Node7&#45;&gt;Node8 -->
<g id="edge8_Node000007_Node000008" class="edge">
<title>Node7&#45;&gt;Node8</title>
<g id="a_edge8_Node000007_Node000008"><a xlink:title=" ">
<path fill="none" stroke="#63b8ff" d="M721.4,-468.25C734.02,-468.25 747.22,-468.25 760.1,-468.25"/>
<polygon fill="#63b8ff" stroke="#63b8ff" points="759.8,-471.75 769.8,-468.25 759.8,-464.75 759.8,-471.75"/>
</a>
</g>
</g>
<!-- Node10&#45;&gt;Node6 -->
<g id="edge11_Node000010_Node000006" class="edge">
<title>Node10&#45;&gt;Node6</title>
<g id="a_edge11_Node000010_Node000006"><a xlink:title=" ">
<path fill="none" stroke="#63b8ff" d="M696.15,-354.51C705.41,-351.47 715.01,-348.28 724,-345.25 745.43,-338.02 768.94,-329.91 789.48,-322.75"/>
<polygon fill="#63b8ff" stroke="#63b8ff" points="790.53,-326.1 798.81,-319.5 788.22,-319.49 790.53,-326.1"/>
</a>
</g>
</g>
<!-- Node12&#45;&gt;Node3 -->
<g id="edge14_Node000012_Node000003" class="edge">
<title>Node12&#45;&gt;Node3</title>
<g id="a_edge14_Node000012_Node000003"><a xlink:title=" ">
<path fill="none" stroke="#63b8ff" d="M326.98,-204.1C338.29,-205.58 350.16,-207.13 361.9,-208.67"/>
<polygon fill="#63b8ff" stroke="#63b8ff" points="361.21,-212.11 371.58,-209.94 362.12,-205.17 361.21,-212.11"/>
</a>
</g>
</g>
<!-- Node13 -->
<g id="Node000013" class="node">
<title>Node13</title>
<g id="a_Node000013"><a xlink:href="classxeno__rat__server_1_1_socket_handler.html#a85ca8385d023521cdb86ff8ae688adee" target="_top" xlink:title="Sends the provided data asynchronously over the socket.">
<polygon fill="white" stroke="#666666" points="528.75,-152.5 374,-152.5 374,-122 528.75,-122 528.75,-152.5"/>
<text text-anchor="start" x="382" y="-139" font-family="Helvetica,sans-Serif" font-size="10.00">xeno_rat_server.SocketHandler.</text>
<text text-anchor="middle" x="451.38" y="-127.75" font-family="Helvetica,sans-Serif" font-size="10.00">SendAsync</text>
</a>
</g>
</g>
<!-- Node12&#45;&gt;Node13 -->
<g id="edge15_Node000012_Node000013" class="edge">
<title>Node12&#45;&gt;Node13</title>
<g id="a_edge15_Node000012_Node000013"><a xlink:title=" ">
<path fill="none" stroke="#63b8ff" d="M311.06,-179.55C334.74,-172.37 363,-163.78 387.86,-156.23"/>
<polygon fill="#63b8ff" stroke="#63b8ff" points="388.65,-159.65 397.2,-153.4 386.61,-152.95 388.65,-159.65"/>
</a>
</g>
</g>
<!-- Node14 -->
<g id="Node000014" class="node">
<title>Node14</title>
<g id="a_Node000014"><a xlink:href="classxeno__rat__server_1_1_compression.html#a0f3f31a2fe34d92bf04538b2fdf529e0" target="_top" xlink:title="Compresses the input buffer using the LZNT1 compression format and returns the compressed data.">
<polygon fill="white" stroke="#666666" points="721,-103.5 572.25,-103.5 572.25,-73 721,-73 721,-103.5"/>
<text text-anchor="start" x="580.25" y="-90" font-family="Helvetica,sans-Serif" font-size="10.00">xeno_rat_server.Compression.</text>
<text text-anchor="middle" x="646.62" y="-78.75" font-family="Helvetica,sans-Serif" font-size="10.00">Compress</text>
</a>
</g>
</g>
<!-- Node13&#45;&gt;Node14 -->
<g id="edge16_Node000013_Node000014" class="edge">
<title>Node13&#45;&gt;Node14</title>
<g id="a_edge16_Node000013_Node000014"><a xlink:title=" ">
<path fill="none" stroke="#63b8ff" d="M514.32,-121.54C532.87,-116.84 553.38,-111.64 572.58,-106.77"/>
<polygon fill="#63b8ff" stroke="#63b8ff" points="573.4,-110.17 582.23,-104.32 571.68,-103.39 573.4,-110.17"/>
</a>
</g>
</g>
<!-- Node19 -->
<g id="Node000019" class="node">
<title>Node19</title>
<g id="a_Node000019"><a xlink:href="classxeno__rat__server_1_1_socket_handler.html#a4f2e993b63cf1bba877781c9be2ed496" target="_top" xlink:title="Concatenates two byte arrays and returns the result.">
<polygon fill="white" stroke="#666666" points="724,-54.5 569.25,-54.5 569.25,-24 724,-24 724,-54.5"/>
<text text-anchor="start" x="577.25" y="-41" font-family="Helvetica,sans-Serif" font-size="10.00">xeno_rat_server.SocketHandler.</text>
<text text-anchor="middle" x="646.62" y="-29.75" font-family="Helvetica,sans-Serif" font-size="10.00">Concat</text>
</a>
</g>
</g>
<!-- Node13&#45;&gt;Node19 -->
<g id="edge21_Node000013_Node000019" class="edge">
<title>Node13&#45;&gt;Node19</title>
<g id="a_edge21_Node000013_Node000019"><a xlink:title=" ">
<path fill="none" stroke="#63b8ff" d="M473.88,-121.59C496.66,-105.54 534.14,-80.66 569.25,-64.25 573.19,-62.41 577.3,-60.64 581.49,-58.97"/>
<polygon fill="#63b8ff" stroke="#63b8ff" points="582.46,-62.34 590.57,-55.52 579.98,-55.8 582.46,-62.34"/>
</a>
</g>
</g>
<!-- Node20 -->
<g id="Node000020" class="node">
<title>Node20</title>
<g id="a_Node000020"><a xlink:href="classxeno__rat__server_1_1_encryption.html#a0fafecaba804cb57663bdbb4dcc4e93f" target="_top" xlink:title="Encrypts the input data using the provided key and returns the encrypted result.">
<polygon fill="white" stroke="#666666" points="715.38,-201.5 577.88,-201.5 577.88,-171 715.38,-171 715.38,-201.5"/>
<text text-anchor="start" x="585.88" y="-188" font-family="Helvetica,sans-Serif" font-size="10.00">xeno_rat_server.Encryption.</text>
<text text-anchor="middle" x="646.62" y="-176.75" font-family="Helvetica,sans-Serif" font-size="10.00">Encrypt</text>
</a>
</g>
</g>
<!-- Node13&#45;&gt;Node20 -->
<g id="edge22_Node000013_Node000020" class="edge">
<title>Node13&#45;&gt;Node20</title>
<g id="a_edge22_Node000013_Node000020"><a xlink:title=" ">
<path fill="none" stroke="#63b8ff" d="M514.32,-152.96C532.87,-157.66 553.38,-162.86 572.58,-167.73"/>
<polygon fill="#63b8ff" stroke="#63b8ff" points="571.68,-171.11 582.23,-170.18 573.4,-164.33 571.68,-171.11"/>
</a>
</g>
</g>
<!-- Node21 -->
<g id="Node000021" class="node">
<title>Node21</title>
<g id="a_Node000021"><a xlink:href="classxeno__rat__server_1_1_socket_handler.html#a7d019c5e4cbd0138d155156c7a7c5a8f" target="_top" xlink:title="Converts an integer to a byte array.">
<polygon fill="white" stroke="#666666" points="724,-152.5 569.25,-152.5 569.25,-122 724,-122 724,-152.5"/>
<text text-anchor="start" x="577.25" y="-139" font-family="Helvetica,sans-Serif" font-size="10.00">xeno_rat_server.SocketHandler.</text>
<text text-anchor="middle" x="646.62" y="-127.75" font-family="Helvetica,sans-Serif" font-size="10.00">IntToBytes</text>
</a>
</g>
</g>
<!-- Node13&#45;&gt;Node21 -->
<g id="edge23_Node000013_Node000021" class="edge">
<title>Node13&#45;&gt;Node21</title>
<g id="a_edge23_Node000013_Node000021"><a xlink:title=" ">
<path fill="none" stroke="#63b8ff" d="M529.03,-137.25C538.5,-137.25 548.23,-137.25 557.85,-137.25"/>
<polygon fill="#63b8ff" stroke="#63b8ff" points="557.55,-140.75 567.55,-137.25 557.55,-133.75 557.55,-140.75"/>
</a>
</g>
</g>
<!-- Node15 -->
<g id="Node000015" class="node">
<title>Node15</title>
<g id="a_Node000015"><a xlink:href="classxeno__rat__server_1_1_compression.html#ae86c8cb19fb340173e6b06816907c485" target="_top" xlink:title="Allocates the specified number of bytes in the local heap and returns a pointer to the allocated memo...">
<polygon fill="white" stroke="#666666" points="920.38,-79.5 771.62,-79.5 771.62,-49 920.38,-49 920.38,-79.5"/>
<text text-anchor="start" x="779.62" y="-66" font-family="Helvetica,sans-Serif" font-size="10.00">xeno_rat_server.Compression.</text>
<text text-anchor="middle" x="846" y="-54.75" font-family="Helvetica,sans-Serif" font-size="10.00">LocalAlloc</text>
</a>
</g>
</g>
<!-- Node14&#45;&gt;Node15 -->
<g id="edge17_Node000014_Node000015" class="edge">
<title>Node14&#45;&gt;Node15</title>
<g id="a_edge17_Node000014_Node000015"><a xlink:title=" ">
<path fill="none" stroke="#63b8ff" d="M721.4,-79.28C734.02,-77.74 747.22,-76.14 760.1,-74.57"/>
<polygon fill="#63b8ff" stroke="#63b8ff" points="760.31,-78.07 769.81,-73.39 759.46,-71.13 760.31,-78.07"/>
</a>
</g>
</g>
<!-- Node16 -->
<g id="Node000016" class="node">
<title>Node16</title>
<g id="a_Node000016"><a xlink:href="classxeno__rat__server_1_1_compression.html#ab527e0a594d96bbaa1a4b1541888aa74" target="_top" xlink:title="Frees the memory block allocated by LocalAlloc and LocalReAlloc and invalidates the handle.">
<polygon fill="white" stroke="#666666" points="920.38,-30.5 771.62,-30.5 771.62,0 920.38,0 920.38,-30.5"/>
<text text-anchor="start" x="779.62" y="-17" font-family="Helvetica,sans-Serif" font-size="10.00">xeno_rat_server.Compression.</text>
<text text-anchor="middle" x="846" y="-5.75" font-family="Helvetica,sans-Serif" font-size="10.00">LocalFree</text>
</a>
</g>
</g>
<!-- Node14&#45;&gt;Node16 -->
<g id="edge18_Node000014_Node000016" class="edge">
<title>Node14&#45;&gt;Node16</title>
<g id="a_edge18_Node000014_Node000016"><a xlink:title=" ">
<path fill="none" stroke="#63b8ff" d="M701.3,-72.59C709.04,-69.78 716.81,-66.65 724,-63.25 741.16,-55.12 742.72,-48.12 760,-40.25 764.25,-38.31 768.69,-36.49 773.22,-34.77"/>
<polygon fill="#63b8ff" stroke="#63b8ff" points="774.21,-38.13 782.45,-31.46 771.85,-31.54 774.21,-38.13"/>
</a>
</g>
</g>
<!-- Node17 -->
<g id="Node000017" class="node">
<title>Node17</title>
<g id="a_Node000017"><a xlink:href="classxeno__rat__server_1_1_compression.html#a1f9bb20d96d13bdc4d0f90e2b68d4343" target="_top" xlink:title="Compresses the input buffer using the specified compression format and returns the compressed data in...">
<polygon fill="white" stroke="#666666" points="920.38,-177.5 771.62,-177.5 771.62,-147 920.38,-147 920.38,-177.5"/>
<text text-anchor="start" x="779.62" y="-164" font-family="Helvetica,sans-Serif" font-size="10.00">xeno_rat_server.Compression.</text>
<text text-anchor="middle" x="846" y="-152.75" font-family="Helvetica,sans-Serif" font-size="10.00">RtlCompressBuffer</text>
</a>
</g>
</g>
<!-- Node14&#45;&gt;Node17 -->
<g id="edge19_Node000014_Node000017" class="edge">
<title>Node14&#45;&gt;Node17</title>
<g id="a_edge19_Node000014_Node000017"><a xlink:title=" ">
<path fill="none" stroke="#63b8ff" d="M701.77,-103.93C709.36,-106.72 716.97,-109.84 724,-113.25 741.3,-121.65 742.58,-129.11 760,-137.25 764.04,-139.14 768.25,-140.92 772.55,-142.59"/>
<polygon fill="#63b8ff" stroke="#63b8ff" points="771.34,-145.87 781.93,-146.01 773.74,-139.3 771.34,-145.87"/>
</a>
</g>
</g>
<!-- Node18 -->
<g id="Node000018" class="node">
<title>Node18</title>
<g id="a_Node000018"><a xlink:href="classxeno__rat__server_1_1_compression.html#a5ca090d7b0887e40753bad9800c321e7" target="_top" xlink:title="Retrieves the size of the workspace required for compression.">
<polygon fill="white" stroke="#666666" points="932,-128.5 760,-128.5 760,-98 932,-98 932,-128.5"/>
<text text-anchor="start" x="768" y="-115" font-family="Helvetica,sans-Serif" font-size="10.00">xeno_rat_server.Compression.</text>
<text text-anchor="middle" x="846" y="-103.75" font-family="Helvetica,sans-Serif" font-size="10.00">RtlGetCompressionWorkSpaceSize</text>
</a>
</g>
</g>
<!-- Node14&#45;&gt;Node18 -->
<g id="edge20_Node000014_Node000018" class="edge">
<title>Node14&#45;&gt;Node18</title>
<g id="a_edge20_Node000014_Node000018"><a xlink:title=" ">
<path fill="none" stroke="#63b8ff" d="M721.4,-97.59C730.18,-98.71 739.24,-99.85 748.27,-101"/>
<polygon fill="#63b8ff" stroke="#63b8ff" points="747.82,-104.47 758.18,-102.25 748.7,-97.52 747.82,-104.47"/>
</a>
</g>
</g>
</g>
</svg>
