<?xml version="1.0" encoding="UTF-8" standalone="no"?>
<!DOCTYPE svg PUBLIC "-//W3C//DTD SVG 1.1//EN"
 "http://www.w3.org/Graphics/SVG/1.1/DTD/svg11.dtd">
<!-- Generated by graphviz version 10.0.1 (20240210.2158)
 -->
<!-- Title: NAudio.Wave.WaveIn.Dispose Pages: 1 -->
<svg width="781pt" height="339pt"
 viewBox="0.00 0.00 780.75 338.50" xmlns="http://www.w3.org/2000/svg" xmlns:xlink="http://www.w3.org/1999/xlink">
<g id="graph0" class="graph" transform="scale(1 1) rotate(0) translate(4 334.5)">
<title>NAudio.Wave.WaveIn.Dispose</title>
<!-- Node1 -->
<g id="Node000001" class="node">
<title>Node1</title>
<g id="a_Node000001"><a xlink:title="Performs application&#45;defined tasks associated with freeing, releasing, or resetting unmanaged resourc...">
<polygon fill="#999999" stroke="#666666" points="151,-159.88 0,-159.88 0,-140.62 151,-140.62 151,-159.88"/>
<text text-anchor="middle" x="75.5" y="-146.38" font-family="Helvetica,sans-Serif" font-size="10.00">NAudio.Wave.WaveIn.Dispose</text>
</a>
</g>
</g>
<!-- Node2 -->
<g id="Node000002" class="node">
<title>Node2</title>
<g id="a_Node000002"><a xlink:href="class_n_audio_1_1_wave_1_1_wave_in.html#a922184988b1134142e62fc9198eceffa" target="_top" xlink:title="Closes the wave input device and releases associated resources.">
<polygon fill="white" stroke="#666666" points="347,-238.5 206.5,-238.5 206.5,-208 347,-208 347,-238.5"/>
<text text-anchor="start" x="214.5" y="-225" font-family="Helvetica,sans-Serif" font-size="10.00">NAudio.Wave.WaveIn.Close</text>
<text text-anchor="middle" x="276.75" y="-213.75" font-family="Helvetica,sans-Serif" font-size="10.00">WaveInDevice</text>
</a>
</g>
</g>
<!-- Node1&#45;&gt;Node2 -->
<g id="edge1_Node000001_Node000002" class="edge">
<title>Node1&#45;&gt;Node2</title>
<g id="a_edge1_Node000001_Node000002"><a xlink:title=" ">
<path fill="none" stroke="#63b8ff" d="M103.79,-160.25C134.28,-171.42 184.39,-189.78 222.67,-203.8"/>
<polygon fill="#63b8ff" stroke="#63b8ff" points="221.11,-206.96 231.71,-207.11 223.52,-200.39 221.11,-206.96"/>
</a>
</g>
</g>
<!-- Node6 -->
<g id="Node000006" class="node">
<title>Node6</title>
<g id="a_Node000006"><a xlink:href="class_n_audio_1_1_wave_1_1_wave_in.html#a6ecd599e803867348a6a6f1932cdf894" target="_top" xlink:title="Stops the recording if it is currently in progress.">
<polygon fill="white" stroke="#666666" points="366.5,-110.88 187,-110.88 187,-91.62 366.5,-91.62 366.5,-110.88"/>
<text text-anchor="middle" x="276.75" y="-97.38" font-family="Helvetica,sans-Serif" font-size="10.00">NAudio.Wave.WaveIn.StopRecording</text>
</a>
</g>
</g>
<!-- Node1&#45;&gt;Node6 -->
<g id="edge6_Node000001_Node000006" class="edge">
<title>Node1&#45;&gt;Node6</title>
<g id="a_edge6_Node000001_Node000006"><a xlink:title=" ">
<path fill="none" stroke="#63b8ff" d="M117.3,-140.22C148.09,-132.64 190.56,-122.2 223.78,-114.03"/>
<polygon fill="#63b8ff" stroke="#63b8ff" points="224.32,-117.5 233.19,-111.72 222.64,-110.71 224.32,-117.5"/>
</a>
</g>
</g>
<!-- Node3 -->
<g id="Node000003" class="node">
<title>Node3</title>
<g id="a_Node000003"><a xlink:href="class_n_audio_1_1_wave_1_1_wave_in_buffer.html#aa64a1d38381ae46017fdd67388405d1c" target="_top" xlink:title="Releases the managed and unmanaged resources used by the WaveInRecorder.">
<polygon fill="white" stroke="#666666" points="552.75,-312.5 412.25,-312.5 412.25,-282 552.75,-282 552.75,-312.5"/>
<text text-anchor="start" x="420.25" y="-299" font-family="Helvetica,sans-Serif" font-size="10.00">NAudio.Wave.WaveInBuffer.</text>
<text text-anchor="middle" x="482.5" y="-287.75" font-family="Helvetica,sans-Serif" font-size="10.00">Dispose</text>
</a>
</g>
</g>
<!-- Node2&#45;&gt;Node3 -->
<g id="edge2_Node000002_Node000003" class="edge">
<title>Node2&#45;&gt;Node3</title>
<g id="a_edge2_Node000002_Node000003"><a xlink:title=" ">
<path fill="none" stroke="#63b8ff" d="M315.72,-238.94C340.31,-248.9 373.11,-261.84 402.5,-272.25 408.09,-274.23 413.94,-276.22 419.8,-278.17"/>
<polygon fill="#63b8ff" stroke="#63b8ff" points="418.3,-281.36 428.9,-281.15 420.48,-274.71 418.3,-281.36"/>
</a>
</g>
</g>
<!-- Node4 -->
<g id="Node000004" class="node">
<title>Node4</title>
<g id="a_Node000004"><a xlink:href="class_n_audio_1_1_wave_1_1_wave_interop.html#a700f666e57095399600aeb93c05150e2" target="_top" xlink:title="Closes the specified waveform&#45;audio input device.">
<polygon fill="white" stroke="#666666" points="562.5,-263.5 402.5,-263.5 402.5,-233 562.5,-233 562.5,-263.5"/>
<text text-anchor="start" x="410.5" y="-250" font-family="Helvetica,sans-Serif" font-size="10.00">NAudio.Wave.WaveInterop.wave</text>
<text text-anchor="middle" x="482.5" y="-238.75" font-family="Helvetica,sans-Serif" font-size="10.00">InClose</text>
</a>
</g>
</g>
<!-- Node2&#45;&gt;Node4 -->
<g id="edge4_Node000002_Node000004" class="edge">
<title>Node2&#45;&gt;Node4</title>
<g id="a_edge4_Node000002_Node000004"><a xlink:title=" ">
<path fill="none" stroke="#63b8ff" d="M347.3,-231.78C361.35,-233.51 376.33,-235.35 390.98,-237.14"/>
<polygon fill="#63b8ff" stroke="#63b8ff" points="390.25,-240.58 400.6,-238.32 391.1,-233.63 390.25,-240.58"/>
</a>
</g>
</g>
<!-- Node5 -->
<g id="Node000005" class="node">
<title>Node5</title>
<g id="a_Node000005"><a xlink:href="class_n_audio_1_1_wave_1_1_wave_interop.html#af3d2e5654fc9d1235350d9867e429293" target="_top" xlink:title="Resets the specified waveform&#45;audio input device.">
<polygon fill="white" stroke="#666666" points="562.5,-214.5 402.5,-214.5 402.5,-184 562.5,-184 562.5,-214.5"/>
<text text-anchor="start" x="410.5" y="-201" font-family="Helvetica,sans-Serif" font-size="10.00">NAudio.Wave.WaveInterop.wave</text>
<text text-anchor="middle" x="482.5" y="-189.75" font-family="Helvetica,sans-Serif" font-size="10.00">InReset</text>
</a>
</g>
</g>
<!-- Node2&#45;&gt;Node5 -->
<g id="edge5_Node000002_Node000005" class="edge">
<title>Node2&#45;&gt;Node5</title>
<g id="a_edge5_Node000002_Node000005"><a xlink:title=" ">
<path fill="none" stroke="#63b8ff" d="M347.3,-215.06C361.35,-213.4 376.33,-211.64 390.98,-209.91"/>
<polygon fill="#63b8ff" stroke="#63b8ff" points="391.08,-213.43 400.6,-208.78 390.26,-206.47 391.08,-213.43"/>
</a>
</g>
</g>
<!-- Node3&#45;&gt;Node3 -->
<g id="edge3_Node000003_Node000003" class="edge">
<title>Node3&#45;&gt;Node3</title>
<g id="a_edge3_Node000003_Node000003"><a xlink:title=" ">
<path fill="none" stroke="#63b8ff" d="M446.51,-312.99C439.16,-322.06 451.16,-330.5 482.5,-330.5 499.64,-330.5 510.99,-327.97 516.56,-324.2"/>
<polygon fill="#63b8ff" stroke="#63b8ff" points="519.99,-324.93 518.24,-314.48 513.09,-323.74 519.99,-324.93"/>
</a>
</g>
</g>
<!-- Node7 -->
<g id="Node000007" class="node">
<title>Node7</title>
<g id="a_Node000007"><a xlink:href="class_n_audio_1_1_wave_1_1_wave_in.html#acb9f7cdc0183b104eaa6560639367c50" target="_top" xlink:title="Raises the DataAvailable event with the provided WaveInBuffer data.">
<polygon fill="white" stroke="#666666" points="552.75,-165.5 412.25,-165.5 412.25,-135 552.75,-135 552.75,-165.5"/>
<text text-anchor="start" x="420.25" y="-152" font-family="Helvetica,sans-Serif" font-size="10.00">NAudio.Wave.WaveIn.Raise</text>
<text text-anchor="middle" x="482.5" y="-140.75" font-family="Helvetica,sans-Serif" font-size="10.00">DataAvailable</text>
</a>
</g>
</g>
<!-- Node6&#45;&gt;Node7 -->
<g id="edge7_Node000006_Node000007" class="edge">
<title>Node6&#45;&gt;Node7</title>
<g id="a_edge7_Node000006_Node000007"><a xlink:title=" ">
<path fill="none" stroke="#63b8ff" d="M319.47,-111.28C344.15,-117.22 376.15,-124.92 405.2,-131.9"/>
<polygon fill="#63b8ff" stroke="#63b8ff" points="404.15,-135.25 414.69,-134.18 405.79,-128.44 404.15,-135.25"/>
</a>
</g>
</g>
<!-- Node8 -->
<g id="Node000008" class="node">
<title>Node8</title>
<g id="a_Node000008"><a xlink:href="class_n_audio_1_1_wave_1_1_wave_in.html#a85b8f08d114ae526f79f53155889bf4e" target="_top" xlink:title="Raises the RecordingStopped event with the specified exception.">
<polygon fill="white" stroke="#666666" points="552.75,-116.5 412.25,-116.5 412.25,-86 552.75,-86 552.75,-116.5"/>
<text text-anchor="start" x="420.25" y="-103" font-family="Helvetica,sans-Serif" font-size="10.00">NAudio.Wave.WaveIn.Raise</text>
<text text-anchor="middle" x="482.5" y="-91.75" font-family="Helvetica,sans-Serif" font-size="10.00">RecordingStopped</text>
</a>
</g>
</g>
<!-- Node6&#45;&gt;Node8 -->
<g id="edge8_Node000006_Node000008" class="edge">
<title>Node6&#45;&gt;Node8</title>
<g id="a_edge8_Node000006_Node000008"><a xlink:title=" ">
<path fill="none" stroke="#63b8ff" d="M366.82,-101.25C378.03,-101.25 389.44,-101.25 400.52,-101.25"/>
<polygon fill="#63b8ff" stroke="#63b8ff" points="400.39,-104.75 410.39,-101.25 400.39,-97.75 400.39,-104.75"/>
</a>
</g>
</g>
<!-- Node9 -->
<g id="Node000009" class="node">
<title>Node9</title>
<g id="a_Node000009"><a xlink:href="class_n_audio_1_1_mm_exception.html#a1ca263e295226b2dff8fda80043242d2" target="_top" xlink:title="Throws an exception if the specified result is not equal to MmResult.NoError.">
<polygon fill="white" stroke="#666666" points="546.75,-67.88 418.25,-67.88 418.25,-48.62 546.75,-48.62 546.75,-67.88"/>
<text text-anchor="middle" x="482.5" y="-54.38" font-family="Helvetica,sans-Serif" font-size="10.00">NAudio.MmException.Try</text>
</a>
</g>
</g>
<!-- Node6&#45;&gt;Node9 -->
<g id="edge9_Node000006_Node000009" class="edge">
<title>Node6&#45;&gt;Node9</title>
<g id="a_edge9_Node000006_Node000009"><a xlink:title=" ">
<path fill="none" stroke="#63b8ff" d="M325.52,-91.17C354.54,-85.04 391.81,-77.18 422.64,-70.67"/>
<polygon fill="#63b8ff" stroke="#63b8ff" points="423.13,-74.14 432.2,-68.66 421.69,-67.3 423.13,-74.14"/>
</a>
</g>
</g>
<!-- Node11 -->
<g id="Node000011" class="node">
<title>Node11</title>
<g id="a_Node000011"><a xlink:href="class_n_audio_1_1_wave_1_1_wave_interop.html#a699a79d317473f9e255d783622dc8cac" target="_top" xlink:title="Stops audio input on the specified waveform&#45;audio input device.">
<polygon fill="white" stroke="#666666" points="562.5,-30.5 402.5,-30.5 402.5,0 562.5,0 562.5,-30.5"/>
<text text-anchor="start" x="410.5" y="-17" font-family="Helvetica,sans-Serif" font-size="10.00">NAudio.Wave.WaveInterop.wave</text>
<text text-anchor="middle" x="482.5" y="-5.75" font-family="Helvetica,sans-Serif" font-size="10.00">InStop</text>
</a>
</g>
</g>
<!-- Node6&#45;&gt;Node11 -->
<g id="edge11_Node000006_Node000011" class="edge">
<title>Node6&#45;&gt;Node11</title>
<g id="a_edge11_Node000006_Node000011"><a xlink:title=" ">
<path fill="none" stroke="#63b8ff" d="M295.5,-91.25C319.31,-78.11 363.16,-54.87 402.5,-39.25 406.58,-37.63 410.81,-36.05 415.11,-34.53"/>
<polygon fill="#63b8ff" stroke="#63b8ff" points="416.07,-37.9 424.41,-31.37 413.82,-31.28 416.07,-37.9"/>
</a>
</g>
</g>
<!-- Node10 -->
<g id="Node000010" class="node">
<title>Node10</title>
<g id="a_Node000010"><a xlink:href="class_n_audio_1_1_mm_exception.html#a674e0bb89c4e2aeb1f4ea96514710947" target="_top" xlink:title="Creates a new MmException.">
<polygon fill="white" stroke="#666666" points="772.75,-67.88 598.5,-67.88 598.5,-48.62 772.75,-48.62 772.75,-67.88"/>
<text text-anchor="middle" x="685.62" y="-54.38" font-family="Helvetica,sans-Serif" font-size="10.00">NAudio.MmException.MmException</text>
</a>
</g>
</g>
<!-- Node9&#45;&gt;Node10 -->
<g id="edge10_Node000009_Node000010" class="edge">
<title>Node9&#45;&gt;Node10</title>
<g id="a_edge10_Node000009_Node000010"><a xlink:title=" ">
<path fill="none" stroke="#63b8ff" d="M547.14,-58.25C559.81,-58.25 573.4,-58.25 586.92,-58.25"/>
<polygon fill="#63b8ff" stroke="#63b8ff" points="586.72,-61.75 596.72,-58.25 586.72,-54.75 586.72,-61.75"/>
</a>
</g>
</g>
</g>
</svg>
