<?xml version="1.0" encoding="UTF-8" standalone="no"?>
<!DOCTYPE svg PUBLIC "-//W3C//DTD SVG 1.1//EN"
 "http://www.w3.org/Graphics/SVG/1.1/DTD/svg11.dtd">
<!-- Generated by graphviz version 10.0.1 (20240210.2158)
 -->
<!-- Title: NAudio.Midi.TempoEvent Pages: 1 -->
<svg width="589pt" height="737pt"
 viewBox="0.00 0.00 588.50 736.75" xmlns="http://www.w3.org/2000/svg" xmlns:xlink="http://www.w3.org/1999/xlink">
<g id="graph0" class="graph" transform="scale(1 1) rotate(0) translate(4 732.75)">
<title>NAudio.Midi.TempoEvent</title>
<!-- Node1 -->
<g id="Node000001" class="node">
<title>Node1</title>
<g id="a_Node000001"><a xlink:title="Represents a MIDI tempo event.">
<polygon fill="#999999" stroke="none" points="147,-124 0,-124 0,0 147,0 147,-124"/>
<text text-anchor="start" x="18" y="-110.5" font-family="Helvetica,sans-Serif" font-size="10.00">NAudio.Midi.TempoEvent</text>
<text text-anchor="start" x="4" y="-95.5" font-family="Helvetica,sans-Serif" font-size="10.00">+</text>
<text text-anchor="start" x="14" y="-95.5" font-family="Helvetica,sans-Serif" font-size="10.00">MicrosecondsPerQuarterNote</text>
<text text-anchor="start" x="4" y="-80.5" font-family="Helvetica,sans-Serif" font-size="10.00">+</text>
<text text-anchor="start" x="14" y="-80.5" font-family="Helvetica,sans-Serif" font-size="10.00">Tempo</text>
<text text-anchor="start" x="4" y="-65.5" font-family="Helvetica,sans-Serif" font-size="10.00">+</text>
<text text-anchor="start" x="14" y="-65.5" font-family="Helvetica,sans-Serif" font-size="10.00">TempoEvent()</text>
<text text-anchor="start" x="4" y="-50.5" font-family="Helvetica,sans-Serif" font-size="10.00">+</text>
<text text-anchor="start" x="14" y="-50.5" font-family="Helvetica,sans-Serif" font-size="10.00">TempoEvent()</text>
<text text-anchor="start" x="4" y="-35.5" font-family="Helvetica,sans-Serif" font-size="10.00">+</text>
<text text-anchor="start" x="14" y="-35.5" font-family="Helvetica,sans-Serif" font-size="10.00">Clone()</text>
<text text-anchor="start" x="4" y="-20.5" font-family="Helvetica,sans-Serif" font-size="10.00">+</text>
<text text-anchor="start" x="14" y="-20.5" font-family="Helvetica,sans-Serif" font-size="10.00">ToString()</text>
<text text-anchor="start" x="4" y="-5.5" font-family="Helvetica,sans-Serif" font-size="10.00">+</text>
<text text-anchor="start" x="14" y="-5.5" font-family="Helvetica,sans-Serif" font-size="10.00">Export()</text>
<polygon fill="#666666" stroke="#666666" points="0,-107 0,-107 147,-107 147,-107 0,-107"/>
<polygon fill="#666666" stroke="#666666" points="0,-77 0,-77 12,-77 12,-77 0,-77"/>
<polygon fill="#666666" stroke="#666666" points="12,-77 12,-77 147,-77 147,-77 12,-77"/>
<polygon fill="none" stroke="#666666" points="0,0 0,-124 147,-124 147,0 0,0"/>
</a>
</g>
</g>
<!-- Node2 -->
<g id="Node000002" class="node">
<title>Node2</title>
<g id="a_Node000002"><a xlink:href="class_n_audio_1_1_midi_1_1_meta_event.html" target="_top" xlink:title="Represents a MIDI meta event.">
<polygon fill="white" stroke="none" points="296.5,-285 202.5,-285 202.5,-161 296.5,-161 296.5,-285"/>
<text text-anchor="start" x="225.88" y="-271.5" font-family="Helvetica,sans-Serif" font-size="10.00">MetaEvent</text>
<text text-anchor="start" x="206.5" y="-256.5" font-family="Helvetica,sans-Serif" font-size="10.00">+</text>
<text text-anchor="start" x="216.5" y="-256.5" font-family="Helvetica,sans-Serif" font-size="10.00">MetaEventType</text>
<text text-anchor="start" x="206.5" y="-241.5" font-family="Helvetica,sans-Serif" font-size="10.00">+</text>
<text text-anchor="start" x="216.5" y="-241.5" font-family="Helvetica,sans-Serif" font-size="10.00">MetaEvent()</text>
<text text-anchor="start" x="206.5" y="-226.5" font-family="Helvetica,sans-Serif" font-size="10.00">+</text>
<text text-anchor="start" x="216.5" y="-226.5" font-family="Helvetica,sans-Serif" font-size="10.00">Clone()</text>
<text text-anchor="start" x="206.5" y="-211.5" font-family="Helvetica,sans-Serif" font-size="10.00">+</text>
<text text-anchor="start" x="216.5" y="-211.5" font-family="Helvetica,sans-Serif" font-size="10.00">ToString()</text>
<text text-anchor="start" x="206.5" y="-196.5" font-family="Helvetica,sans-Serif" font-size="10.00">+</text>
<text text-anchor="start" x="216.5" y="-196.5" font-family="Helvetica,sans-Serif" font-size="10.00">Export()</text>
<text text-anchor="start" x="206.5" y="-181.5" font-family="Helvetica,sans-Serif" font-size="10.00">+</text>
<text text-anchor="start" x="216.5" y="-181.5" font-family="Helvetica,sans-Serif" font-size="10.00">ReadMetaEvent()</text>
<text text-anchor="start" x="206.88" y="-166.5" font-family="Helvetica,sans-Serif" font-size="10.00">#</text>
<text text-anchor="start" x="216.5" y="-166.5" font-family="Helvetica,sans-Serif" font-size="10.00">MetaEvent()</text>
<polygon fill="#666666" stroke="#666666" points="202.5,-268 202.5,-268 296.5,-268 296.5,-268 202.5,-268"/>
<polygon fill="#666666" stroke="#666666" points="202.5,-253 202.5,-253 214.5,-253 214.5,-253 202.5,-253"/>
<polygon fill="#666666" stroke="#666666" points="214.5,-253 214.5,-253 296.5,-253 296.5,-253 214.5,-253"/>
<polygon fill="none" stroke="#666666" points="202.5,-161 202.5,-285 296.5,-285 296.5,-161 202.5,-161"/>
</a>
</g>
</g>
<!-- Node2&#45;&gt;Node1 -->
<g id="edge1_Node000001_Node000002" class="edge">
<title>Node2&#45;&gt;Node1</title>
<g id="a_edge1_Node000001_Node000002"><a xlink:title=" ">
<path fill="none" stroke="#63b8ff" d="M194.62,-172.42C177.63,-157.07 158.71,-139.98 140.97,-123.95"/>
<polygon fill="none" stroke="#63b8ff" points="191.91,-174.69 201.67,-178.79 196.6,-169.49 191.91,-174.69"/>
</a>
</g>
</g>
<!-- Node3 -->
<g id="Node000003" class="node">
<title>Node3</title>
<g id="a_Node000003"><a xlink:href="class_n_audio_1_1_midi_1_1_midi_event.html" target="_top" xlink:title="Represents an individual MIDI event.">
<polygon fill="white" stroke="none" points="489.5,-621.25 375.5,-621.25 375.5,-332.25 489.5,-332.25 489.5,-621.25"/>
<text text-anchor="start" x="410.75" y="-607.75" font-family="Helvetica,sans-Serif" font-size="10.00">MidiEvent</text>
<text text-anchor="start" x="379.5" y="-592.75" font-family="Helvetica,sans-Serif" font-size="10.00">+</text>
<text text-anchor="start" x="389.5" y="-592.75" font-family="Helvetica,sans-Serif" font-size="10.00">Channel</text>
<text text-anchor="start" x="379.5" y="-577.75" font-family="Helvetica,sans-Serif" font-size="10.00">+</text>
<text text-anchor="start" x="389.5" y="-577.75" font-family="Helvetica,sans-Serif" font-size="10.00">DeltaTime</text>
<text text-anchor="start" x="379.5" y="-562.75" font-family="Helvetica,sans-Serif" font-size="10.00">+</text>
<text text-anchor="start" x="389.5" y="-562.75" font-family="Helvetica,sans-Serif" font-size="10.00">AbsoluteTime</text>
<text text-anchor="start" x="379.5" y="-547.75" font-family="Helvetica,sans-Serif" font-size="10.00">+</text>
<text text-anchor="start" x="389.5" y="-547.75" font-family="Helvetica,sans-Serif" font-size="10.00">CommandCode</text>
<text text-anchor="start" x="379.5" y="-532.75" font-family="Helvetica,sans-Serif" font-size="10.00">+</text>
<text text-anchor="start" x="389.5" y="-532.75" font-family="Helvetica,sans-Serif" font-size="10.00">GetAsShortMessage()</text>
<text text-anchor="start" x="379.5" y="-517.75" font-family="Helvetica,sans-Serif" font-size="10.00">+</text>
<text text-anchor="start" x="389.5" y="-517.75" font-family="Helvetica,sans-Serif" font-size="10.00">MidiEvent()</text>
<text text-anchor="start" x="379.5" y="-502.75" font-family="Helvetica,sans-Serif" font-size="10.00">+</text>
<text text-anchor="start" x="389.5" y="-502.75" font-family="Helvetica,sans-Serif" font-size="10.00">Clone()</text>
<text text-anchor="start" x="379.5" y="-487.75" font-family="Helvetica,sans-Serif" font-size="10.00">+</text>
<text text-anchor="start" x="389.5" y="-487.75" font-family="Helvetica,sans-Serif" font-size="10.00">ToString()</text>
<text text-anchor="start" x="379.5" y="-472.75" font-family="Helvetica,sans-Serif" font-size="10.00">+</text>
<text text-anchor="start" x="389.5" y="-472.75" font-family="Helvetica,sans-Serif" font-size="10.00">Export()</text>
<text text-anchor="start" x="379.5" y="-457.75" font-family="Helvetica,sans-Serif" font-size="10.00">+</text>
<text text-anchor="start" x="389.5" y="-457.75" font-family="Helvetica,sans-Serif" font-size="10.00">FromRawMessage()</text>
<text text-anchor="start" x="379.5" y="-442.75" font-family="Helvetica,sans-Serif" font-size="10.00">+</text>
<text text-anchor="start" x="389.5" y="-442.75" font-family="Helvetica,sans-Serif" font-size="10.00">ReadNextEvent()</text>
<text text-anchor="start" x="379.5" y="-427.75" font-family="Helvetica,sans-Serif" font-size="10.00">+</text>
<text text-anchor="start" x="389.5" y="-427.75" font-family="Helvetica,sans-Serif" font-size="10.00">IsNoteOff()</text>
<text text-anchor="start" x="379.5" y="-412.75" font-family="Helvetica,sans-Serif" font-size="10.00">+</text>
<text text-anchor="start" x="389.5" y="-412.75" font-family="Helvetica,sans-Serif" font-size="10.00">IsNoteOn()</text>
<text text-anchor="start" x="379.5" y="-397.75" font-family="Helvetica,sans-Serif" font-size="10.00">+</text>
<text text-anchor="start" x="389.5" y="-397.75" font-family="Helvetica,sans-Serif" font-size="10.00">IsEndTrack()</text>
<text text-anchor="start" x="379.5" y="-382.75" font-family="Helvetica,sans-Serif" font-size="10.00">+</text>
<text text-anchor="start" x="389.5" y="-382.75" font-family="Helvetica,sans-Serif" font-size="10.00">ReadVarInt()</text>
<text text-anchor="start" x="379.5" y="-367.75" font-family="Helvetica,sans-Serif" font-size="10.00">+</text>
<text text-anchor="start" x="389.5" y="-367.75" font-family="Helvetica,sans-Serif" font-size="10.00">WriteVarInt()</text>
<text text-anchor="start" x="379.88" y="-352.75" font-family="Helvetica,sans-Serif" font-size="10.00">#</text>
<text text-anchor="start" x="389.5" y="-352.75" font-family="Helvetica,sans-Serif" font-size="10.00">MidiEvent()</text>
<text text-anchor="start" x="381" y="-337.75" font-family="Helvetica,sans-Serif" font-size="10.00">&#45;</text>
<text text-anchor="start" x="389.5" y="-337.75" font-family="Helvetica,sans-Serif" font-size="10.00">Clone()</text>
<polygon fill="#666666" stroke="#666666" points="375.5,-604.25 375.5,-604.25 489.5,-604.25 489.5,-604.25 375.5,-604.25"/>
<polygon fill="#666666" stroke="#666666" points="375.5,-544.25 375.5,-544.25 387.5,-544.25 387.5,-544.25 375.5,-544.25"/>
<polygon fill="#666666" stroke="#666666" points="387.5,-544.25 387.5,-544.25 489.5,-544.25 489.5,-544.25 387.5,-544.25"/>
<polygon fill="none" stroke="#666666" points="375.5,-332.25 375.5,-621.25 489.5,-621.25 489.5,-332.25 375.5,-332.25"/>
</a>
</g>
</g>
<!-- Node3&#45;&gt;Node2 -->
<g id="edge2_Node000002_Node000003" class="edge">
<title>Node3&#45;&gt;Node2</title>
<g id="a_edge2_Node000002_Node000003"><a xlink:title=" ">
<path fill="none" stroke="#63b8ff" d="M369.42,-336.36C368.45,-334.97 367.48,-333.6 366.5,-332.25 346.84,-305.15 319.62,-279.48 296.39,-259.95"/>
<polygon fill="none" stroke="#63b8ff" points="366.34,-338.05 374.79,-344.44 372.17,-334.18 366.34,-338.05"/>
</a>
</g>
</g>
<!-- Node4 -->
<g id="Node000004" class="node">
<title>Node4</title>
<g id="a_Node000004"><a xlink:href="class_i_cloneable.html" target="_top" xlink:title=" ">
<polygon fill="white" stroke="none" points="460.5,-728.75 404.5,-728.75 404.5,-679.75 460.5,-679.75 460.5,-728.75"/>
<text text-anchor="start" x="409.25" y="-715.25" font-family="Helvetica,sans-Serif" font-size="10.00">ICloneable</text>
<text text-anchor="start" x="431" y="-700.25" font-family="Helvetica,sans-Serif" font-size="10.00"> </text>
<text text-anchor="start" x="431" y="-685.25" font-family="Helvetica,sans-Serif" font-size="10.00"> </text>
<polygon fill="#666666" stroke="#666666" points="404.5,-711.75 404.5,-711.75 460.5,-711.75 460.5,-711.75 404.5,-711.75"/>
<polygon fill="#666666" stroke="#666666" points="404.5,-696.75 404.5,-696.75 460.5,-696.75 460.5,-696.75 404.5,-696.75"/>
<polygon fill="none" stroke="#666666" points="404.5,-679.75 404.5,-728.75 460.5,-728.75 460.5,-679.75 404.5,-679.75"/>
</a>
</g>
</g>
<!-- Node4&#45;&gt;Node3 -->
<g id="edge3_Node000003_Node000004" class="edge">
<title>Node4&#45;&gt;Node3</title>
<g id="a_edge3_Node000003_Node000004"><a xlink:title=" ">
<path fill="none" stroke="#63b8ff" d="M432.5,-668.85C432.5,-655.26 432.5,-638.68 432.5,-621.01"/>
<polygon fill="none" stroke="#63b8ff" points="429,-668.45 432.5,-678.45 436,-668.45 429,-668.45"/>
</a>
</g>
</g>
<!-- Node5 -->
<g id="Node000005" class="node">
<title>Node5</title>
<g id="a_Node000005"><a xlink:title=" ">
<polygon fill="white" stroke="none" points="574.5,-728.75 478.5,-728.75 478.5,-679.75 574.5,-679.75 574.5,-728.75"/>
<text text-anchor="start" x="483.38" y="-715.25" font-family="Helvetica,sans-Serif" font-size="10.00">MidiCommandCode</text>
<text text-anchor="start" x="525" y="-700.25" font-family="Helvetica,sans-Serif" font-size="10.00"> </text>
<text text-anchor="start" x="525" y="-685.25" font-family="Helvetica,sans-Serif" font-size="10.00"> </text>
<polygon fill="#666666" stroke="#666666" points="478.5,-711.75 478.5,-711.75 574.5,-711.75 574.5,-711.75 478.5,-711.75"/>
<polygon fill="#666666" stroke="#666666" points="478.5,-696.75 478.5,-696.75 574.5,-696.75 574.5,-696.75 478.5,-696.75"/>
<polygon fill="none" stroke="#666666" points="478.5,-679.75 478.5,-728.75 574.5,-728.75 574.5,-679.75 478.5,-679.75"/>
</a>
</g>
</g>
<!-- Node5&#45;&gt;Node3 -->
<g id="edge4_Node000003_Node000005" class="edge">
<title>Node5&#45;&gt;Node3</title>
<g id="a_edge4_Node000003_Node000005"><a xlink:title=" ">
<path fill="none" stroke="#63b8ff" d="M516.79,-679.97C510.98,-666.01 503.03,-646.95 494.33,-626.07"/>
<polygon fill="none" stroke="#63b8ff" points="494.39,-626.22 488.39,-622.22 489.77,-615.14 495.77,-619.14 494.39,-626.22"/>
</a>
</g>
<text text-anchor="middle" x="544.5" y="-646.62" font-family="Helvetica,sans-Serif" font-size="10.00" fill="grey"> &#45;commandCode</text>
</g>
<!-- Node6 -->
<g id="Node000006" class="node">
<title>Node6</title>
<g id="a_Node000006"><a xlink:title=" ">
<polygon fill="white" stroke="none" points="190.5,-728.75 170.5,-728.75 170.5,-679.75 190.5,-679.75 190.5,-728.75"/>
<text text-anchor="start" x="175.25" y="-715.25" font-family="Helvetica,sans-Serif" font-size="10.00">int</text>
<text text-anchor="start" x="179" y="-700.25" font-family="Helvetica,sans-Serif" font-size="10.00"> </text>
<text text-anchor="start" x="179" y="-685.25" font-family="Helvetica,sans-Serif" font-size="10.00"> </text>
<polygon fill="#666666" stroke="#666666" points="170.5,-711.75 170.5,-711.75 190.5,-711.75 190.5,-711.75 170.5,-711.75"/>
<polygon fill="#666666" stroke="#666666" points="170.5,-696.75 170.5,-696.75 190.5,-696.75 190.5,-696.75 170.5,-696.75"/>
<polygon fill="none" stroke="#666666" points="170.5,-679.75 170.5,-728.75 190.5,-728.75 190.5,-679.75 170.5,-679.75"/>
</a>
</g>
</g>
<!-- Node6&#45;&gt;Node1 -->
<g id="edge9_Node000001_Node000006" class="edge">
<title>Node6&#45;&gt;Node1</title>
<g id="a_edge9_Node000001_Node000006"><a xlink:title=" ">
<path fill="none" stroke="#63b8ff" d="M170.61,-685.88C140.5,-631.25 52.36,-457.39 57.5,-303 59.36,-247.11 63.65,-184.02 67.32,-136.56"/>
<polygon fill="none" stroke="#63b8ff" points="67.33,-136.47 63.81,-130.17 68.27,-124.5 71.79,-130.8 67.33,-136.47"/>
</a>
</g>
<text text-anchor="middle" x="125" y="-304.75" font-family="Helvetica,sans-Serif" font-size="10.00" fill="grey"> &#45;microsecondsPerQuarterNote</text>
</g>
<!-- Node6&#45;&gt;Node2 -->
<g id="edge8_Node000002_Node000006" class="edge">
<title>Node6&#45;&gt;Node2</title>
<g id="a_edge8_Node000002_Node000006"><a xlink:title=" ">
<path fill="none" stroke="#63b8ff" d="M177.31,-680.12C169.94,-620.94 154.88,-459.71 189.5,-332.25 192.79,-320.12 197.72,-307.88 203.35,-296.22"/>
<polygon fill="none" stroke="#63b8ff" points="203.33,-296.26 202.49,-289.1 208.78,-285.57 209.62,-292.73 203.33,-296.26"/>
</a>
</g>
<text text-anchor="middle" x="230" y="-472.88" font-family="Helvetica,sans-Serif" font-size="10.00" fill="grey"> ~metaDataLength</text>
</g>
<!-- Node6&#45;&gt;Node3 -->
<g id="edge5_Node000003_Node000006" class="edge">
<title>Node6&#45;&gt;Node3</title>
<g id="a_edge5_Node000003_Node000006"><a xlink:title=" ">
<path fill="none" stroke="#63b8ff" d="M190.23,-697.72C211.32,-685.87 263.04,-657.64 308.75,-639.25 330.67,-630.43 343.07,-636.92 365.67,-620.5"/>
<polygon fill="none" stroke="#63b8ff" points="365.68,-620.49 367.78,-613.6 374.95,-612.88 372.85,-619.78 365.68,-620.49"/>
</a>
</g>
<text text-anchor="middle" x="331.38" y="-652.25" font-family="Helvetica,sans-Serif" font-size="10.00" fill="grey"> &#45;channel</text>
<text text-anchor="middle" x="331.38" y="-641" font-family="Helvetica,sans-Serif" font-size="10.00" fill="grey">&#45;deltaTime</text>
</g>
<!-- Node7 -->
<g id="Node000007" class="node">
<title>Node7</title>
<g id="a_Node000007"><a xlink:title=" ">
<polygon fill="white" stroke="none" points="366.5,-728.75 338.5,-728.75 338.5,-679.75 366.5,-679.75 366.5,-728.75"/>
<text text-anchor="start" x="343.5" y="-715.25" font-family="Helvetica,sans-Serif" font-size="10.00">long</text>
<text text-anchor="start" x="351" y="-700.25" font-family="Helvetica,sans-Serif" font-size="10.00"> </text>
<text text-anchor="start" x="351" y="-685.25" font-family="Helvetica,sans-Serif" font-size="10.00"> </text>
<polygon fill="#666666" stroke="#666666" points="338.5,-711.75 338.5,-711.75 366.5,-711.75 366.5,-711.75 338.5,-711.75"/>
<polygon fill="#666666" stroke="#666666" points="338.5,-696.75 338.5,-696.75 366.5,-696.75 366.5,-696.75 338.5,-696.75"/>
<polygon fill="none" stroke="#666666" points="338.5,-679.75 338.5,-728.75 366.5,-728.75 366.5,-679.75 338.5,-679.75"/>
</a>
</g>
</g>
<!-- Node7&#45;&gt;Node3 -->
<g id="edge6_Node000003_Node000007" class="edge">
<title>Node7&#45;&gt;Node3</title>
<g id="a_edge6_Node000003_Node000007"><a xlink:title=" ">
<path fill="none" stroke="#63b8ff" d="M355.42,-679.85C357.27,-667.6 360.07,-652.45 364,-639.25 366.2,-631.87 368.63,-624.37 371.23,-616.85"/>
<polygon fill="none" stroke="#63b8ff" points="371.26,-616.76 369.51,-609.77 375.29,-605.46 377.04,-612.45 371.26,-616.76"/>
</a>
</g>
<text text-anchor="middle" x="395.75" y="-646.62" font-family="Helvetica,sans-Serif" font-size="10.00" fill="grey"> &#45;absoluteTime</text>
</g>
<!-- Node8 -->
<g id="Node000008" class="node">
<title>Node8</title>
<g id="a_Node000008"><a xlink:title=" ">
<polygon fill="white" stroke="none" points="357.5,-501.25 279.5,-501.25 279.5,-452.25 357.5,-452.25 357.5,-501.25"/>
<text text-anchor="start" x="284.38" y="-487.75" font-family="Helvetica,sans-Serif" font-size="10.00">MetaEventType</text>
<text text-anchor="start" x="317" y="-472.75" font-family="Helvetica,sans-Serif" font-size="10.00"> </text>
<text text-anchor="start" x="317" y="-457.75" font-family="Helvetica,sans-Serif" font-size="10.00"> </text>
<polygon fill="#666666" stroke="#666666" points="279.5,-484.25 279.5,-484.25 357.5,-484.25 357.5,-484.25 279.5,-484.25"/>
<polygon fill="#666666" stroke="#666666" points="279.5,-469.25 279.5,-469.25 357.5,-469.25 357.5,-469.25 279.5,-469.25"/>
<polygon fill="none" stroke="#666666" points="279.5,-452.25 279.5,-501.25 357.5,-501.25 357.5,-452.25 279.5,-452.25"/>
</a>
</g>
</g>
<!-- Node8&#45;&gt;Node2 -->
<g id="edge7_Node000002_Node000008" class="edge">
<title>Node8&#45;&gt;Node2</title>
<g id="a_edge7_Node000002_Node000008"><a xlink:title=" ">
<path fill="none" stroke="#63b8ff" d="M312.13,-452.52C302.54,-417.53 283.98,-349.8 269.54,-297.12"/>
<polygon fill="none" stroke="#63b8ff" points="269.56,-297.2 264.12,-292.47 266.39,-285.63 271.84,-290.36 269.56,-297.2"/>
</a>
</g>
<text text-anchor="middle" x="300.12" y="-304.75" font-family="Helvetica,sans-Serif" font-size="10.00" fill="grey"> &#45;metaEvent</text>
</g>
</g>
</svg>
