<?xml version="1.0" encoding="UTF-8" standalone="no"?>
<!DOCTYPE svg PUBLIC "-//W3C//DTD SVG 1.1//EN"
 "http://www.w3.org/Graphics/SVG/1.1/DTD/svg11.dtd">
<!-- Generated by graphviz version 10.0.1 (20240210.2158)
 -->
<!-- Title: NAudio.Wave.StreamMediaFoundationReader Pages: 1 -->
<!--zoomable 878 -->

<svg id="main" version="1.1" xmlns="http://www.w3.org/2000/svg" xmlns:xlink="http://www.w3.org/1999/xlink" xml:space="preserve" onload="init(evt)">
<style type="text/css"><![CDATA[
.node, .edge {opacity: 0.7;}
.node.selected, .edge.selected {opacity: 1;}
.edge:hover path { stroke: red; }
.edge:hover polygon { stroke: red; fill: red; }
]]></style>

<defs>
  <circle id="rim" cx="0" cy="0" r="7"/>
  <circle id="rim2" cx="0" cy="0" r="3.5"/>
  <g id="zoomPlus">
    <use xlink:href="#rim" fill="#404040"><set attributeName="fill" to="#808080" begin="zoomplus.mouseover" end="zoomplus.mouseout"/></use>
    <path d="M-4,0h8M0,-4v8" fill="none" stroke="white" stroke-width="1.5" pointer-events="none"/>
  </g>
  <g id="zoomMin">
    <use xlink:href="#rim" fill="#404040"><set attributeName="fill" to="#808080" begin="zoomminus.mouseover" end="zoomminus.mouseout"/></use>
    <path d="M-4,0h8" fill="none" stroke="white" stroke-width="1.5" pointer-events="none"/>
  </g>
  <g id="arrowUp" transform="translate(30 24)">
    <use xlink:href="#rim"/>
    <path pointer-events="none" fill="none" stroke="white" stroke-width="1.5" d="M0,-3.0v7 M-2.5,-0.5L0,-3.0L2.5,-0.5"/>
  </g>
  <g id="arrowRight" transform="rotate(90) translate(36 -43)">
    <use xlink:href="#rim"/>
    <path pointer-events="none" fill="none" stroke="white" stroke-width="1.5" d="M0,-3.0v7 M-2.5,-0.5L0,-3.0L2.5,-0.5"/>
  </g>
  <g id="arrowDown" transform="rotate(180) translate(-30 -48)">
    <use xlink:href="#rim"/>
    <path pointer-events="none" fill="none" stroke="white" stroke-width="1.5" d="M0,-3.0v7 M-2.5,-0.5L0,-3.0L2.5,-0.5"/>
  </g>
  <g id="arrowLeft" transform="rotate(270) translate(-36 17)">
    <use xlink:href="#rim"/>
    <path pointer-events="none" fill="none" stroke="white" stroke-width="1.5" d="M0,-3.0v7 M-2.5,-0.5L0,-3.0L2.5,-0.5"/>
  </g>
  <g id="resetDef">
    <use xlink:href="#rim2" fill="#404040"><set attributeName="fill" to="#808080" begin="reset.mouseover" end="reset.mouseout"/></use>
  </g>
</defs>
<script type="application/ecmascript">
var viewWidth = 186;
var viewHeight = 878;
var sectionId = 'dynsection-0';
</script>
<script type="application/ecmascript" xlink:href="svg.min.js"/>
<svg id="graph" class="graph">
<g id="viewport">
<title>NAudio.Wave.StreamMediaFoundationReader</title>
<!-- Node1 -->
<g id="Node000001" class="node">
<title>Node1</title>
<g id="a_Node000001"><a xlink:title="MediaFoundationReader supporting reading from a stream.">
<polygon fill="#999999" stroke="none" points="178,-75 0,-75 0,0 178,0 178,-75"/>
<text text-anchor="start" x="4.62" y="-61.5" font-family="Helvetica,sans-Serif" font-size="10.00">NAudio.Wave.StreamMediaFoundation</text>
<text text-anchor="start" x="73.25" y="-50.25" font-family="Helvetica,sans-Serif" font-size="10.00">Reader</text>
<text text-anchor="start" x="9.5" y="-35.5" font-family="Helvetica,sans-Serif" font-size="10.00">&#45;</text>
<text text-anchor="start" x="22" y="-35.5" font-family="Helvetica,sans-Serif" font-size="10.00">stream</text>
<text text-anchor="start" x="8" y="-20.5" font-family="Helvetica,sans-Serif" font-size="10.00">+</text>
<text text-anchor="start" x="22" y="-20.5" font-family="Helvetica,sans-Serif" font-size="10.00">StreamMediaFoundationReader()</text>
<text text-anchor="start" x="8.38" y="-5.5" font-family="Helvetica,sans-Serif" font-size="10.00">#</text>
<text text-anchor="start" x="22" y="-5.5" font-family="Helvetica,sans-Serif" font-size="10.00">CreateReader()</text>
<polygon fill="#666666" stroke="#666666" points="0,-47 0,-47 178,-47 178,-47 0,-47"/>
<polygon fill="#666666" stroke="#666666" points="0,-32 0,-32 20,-32 20,-32 0,-32"/>
<polygon fill="#666666" stroke="#666666" points="20,-32 20,-32 178,-32 178,-32 20,-32"/>
<polygon fill="none" stroke="#666666" points="0,0 0,-75 178,-75 178,0 0,0"/>
</a>
</g>
</g>
<!-- Node2 -->
<g id="Node000002" class="node">
<title>Node2</title>
<g id="a_Node000002"><a xlink:href="class_n_audio_1_1_wave_1_1_media_foundation_reader.html" target="_top" xlink:title="Class for reading any file that Media Foundation can play Will only work in Windows Vista and above A...">
<polygon fill="white" stroke="none" points="155,-535 23,-535 23,-111 155,-111 155,-535"/>
<text text-anchor="start" x="36.12" y="-521.5" font-family="Helvetica,sans-Serif" font-size="10.00">MediaFoundationReader</text>
<text text-anchor="start" x="27" y="-506.5" font-family="Helvetica,sans-Serif" font-size="10.00">+</text>
<text text-anchor="start" x="37" y="-506.5" font-family="Helvetica,sans-Serif" font-size="10.00">WaveFormat</text>
<text text-anchor="start" x="27" y="-491.5" font-family="Helvetica,sans-Serif" font-size="10.00">+</text>
<text text-anchor="start" x="37" y="-491.5" font-family="Helvetica,sans-Serif" font-size="10.00">Length</text>
<text text-anchor="start" x="27" y="-476.5" font-family="Helvetica,sans-Serif" font-size="10.00">+</text>
<text text-anchor="start" x="37" y="-476.5" font-family="Helvetica,sans-Serif" font-size="10.00">Position</text>
<text text-anchor="start" x="28.5" y="-461.5" font-family="Helvetica,sans-Serif" font-size="10.00">&#45;</text>
<text text-anchor="start" x="37" y="-461.5" font-family="Helvetica,sans-Serif" font-size="10.00">waveFormat</text>
<text text-anchor="start" x="28.5" y="-446.5" font-family="Helvetica,sans-Serif" font-size="10.00">&#45;</text>
<text text-anchor="start" x="37" y="-446.5" font-family="Helvetica,sans-Serif" font-size="10.00">length</text>
<text text-anchor="start" x="28.5" y="-431.5" font-family="Helvetica,sans-Serif" font-size="10.00">&#45;</text>
<text text-anchor="start" x="37" y="-431.5" font-family="Helvetica,sans-Serif" font-size="10.00">settings</text>
<text text-anchor="start" x="28.5" y="-416.5" font-family="Helvetica,sans-Serif" font-size="10.00">&#45;</text>
<text text-anchor="start" x="37" y="-416.5" font-family="Helvetica,sans-Serif" font-size="10.00">file</text>
<text text-anchor="start" x="28.5" y="-401.5" font-family="Helvetica,sans-Serif" font-size="10.00">&#45;</text>
<text text-anchor="start" x="37" y="-401.5" font-family="Helvetica,sans-Serif" font-size="10.00">pReader</text>
<text text-anchor="start" x="28.5" y="-386.5" font-family="Helvetica,sans-Serif" font-size="10.00">&#45;</text>
<text text-anchor="start" x="37" y="-386.5" font-family="Helvetica,sans-Serif" font-size="10.00">position</text>
<text text-anchor="start" x="28.5" y="-371.5" font-family="Helvetica,sans-Serif" font-size="10.00">&#45;</text>
<text text-anchor="start" x="37" y="-371.5" font-family="Helvetica,sans-Serif" font-size="10.00">decoderOutputBuffer</text>
<text text-anchor="start" x="28.5" y="-356.5" font-family="Helvetica,sans-Serif" font-size="10.00">&#45;</text>
<text text-anchor="start" x="37" y="-356.5" font-family="Helvetica,sans-Serif" font-size="10.00">decoderOutputOffset</text>
<text text-anchor="start" x="28.5" y="-341.5" font-family="Helvetica,sans-Serif" font-size="10.00">&#45;</text>
<text text-anchor="start" x="37" y="-341.5" font-family="Helvetica,sans-Serif" font-size="10.00">decoderOutputCount</text>
<text text-anchor="start" x="28.5" y="-326.5" font-family="Helvetica,sans-Serif" font-size="10.00">&#45;</text>
<text text-anchor="start" x="37" y="-326.5" font-family="Helvetica,sans-Serif" font-size="10.00">repositionTo</text>
<text text-anchor="start" x="27" y="-311.5" font-family="Helvetica,sans-Serif" font-size="10.00">+</text>
<text text-anchor="start" x="37" y="-311.5" font-family="Helvetica,sans-Serif" font-size="10.00">MediaFoundationReader()</text>
<text text-anchor="start" x="27" y="-296.5" font-family="Helvetica,sans-Serif" font-size="10.00">+</text>
<text text-anchor="start" x="37" y="-296.5" font-family="Helvetica,sans-Serif" font-size="10.00">MediaFoundationReader()</text>
<text text-anchor="start" x="27" y="-281.5" font-family="Helvetica,sans-Serif" font-size="10.00">+</text>
<text text-anchor="start" x="37" y="-281.5" font-family="Helvetica,sans-Serif" font-size="10.00">Read()</text>
<text text-anchor="start" x="27.38" y="-266.5" font-family="Helvetica,sans-Serif" font-size="10.00">#</text>
<text text-anchor="start" x="37" y="-266.5" font-family="Helvetica,sans-Serif" font-size="10.00">MediaFoundationReader()</text>
<text text-anchor="start" x="27.38" y="-251.5" font-family="Helvetica,sans-Serif" font-size="10.00">#</text>
<text text-anchor="start" x="37" y="-251.5" font-family="Helvetica,sans-Serif" font-size="10.00">Init()</text>
<text text-anchor="start" x="27.38" y="-236.5" font-family="Helvetica,sans-Serif" font-size="10.00">#</text>
<text text-anchor="start" x="37" y="-236.5" font-family="Helvetica,sans-Serif" font-size="10.00">CreateReader()</text>
<text text-anchor="start" x="27.38" y="-221.5" font-family="Helvetica,sans-Serif" font-size="10.00">#</text>
<text text-anchor="start" x="37" y="-221.5" font-family="Helvetica,sans-Serif" font-size="10.00">Dispose()</text>
<text text-anchor="start" x="28.5" y="-206.5" font-family="Helvetica,sans-Serif" font-size="10.00">&#45;</text>
<text text-anchor="start" x="37" y="-206.5" font-family="Helvetica,sans-Serif" font-size="10.00">GetCurrentWaveFormat()</text>
<text text-anchor="start" x="28.5" y="-191.5" font-family="Helvetica,sans-Serif" font-size="10.00">&#45;</text>
<text text-anchor="start" x="37" y="-191.5" font-family="Helvetica,sans-Serif" font-size="10.00">GetLength()</text>
<text text-anchor="start" x="28.5" y="-176.5" font-family="Helvetica,sans-Serif" font-size="10.00">&#45;</text>
<text text-anchor="start" x="37" y="-176.5" font-family="Helvetica,sans-Serif" font-size="10.00">EnsureBuffer()</text>
<text text-anchor="start" x="28.5" y="-161.5" font-family="Helvetica,sans-Serif" font-size="10.00">&#45;</text>
<text text-anchor="start" x="37" y="-161.5" font-family="Helvetica,sans-Serif" font-size="10.00">ReadFromDecoderBuffer()</text>
<text text-anchor="start" x="28.5" y="-146.5" font-family="Helvetica,sans-Serif" font-size="10.00">&#45;</text>
<text text-anchor="start" x="37" y="-146.5" font-family="Helvetica,sans-Serif" font-size="10.00">Reposition()</text>
<text text-anchor="start" x="28.5" y="-131.5" font-family="Helvetica,sans-Serif" font-size="10.00">&#45;</text>
<text text-anchor="start" x="37" y="-131.5" font-family="Helvetica,sans-Serif" font-size="10.00">OnWaveFormatChanged()</text>
<text text-anchor="start" x="28.5" y="-116.5" font-family="Helvetica,sans-Serif" font-size="10.00">&#45;</text>
<text text-anchor="start" x="37" y="-116.5" font-family="Helvetica,sans-Serif" font-size="10.00">GetCurrentMediaType()</text>
<polygon fill="#666666" stroke="#666666" points="23,-518 23,-518 155,-518 155,-518 23,-518"/>
<polygon fill="#666666" stroke="#666666" points="23,-323 23,-323 35,-323 35,-323 23,-323"/>
<polygon fill="#666666" stroke="#666666" points="35,-323 35,-323 155,-323 155,-323 35,-323"/>
<polygon fill="none" stroke="#666666" points="23,-111 23,-535 155,-535 155,-111 23,-111"/>
</a>
</g>
</g>
<!-- Node2&#45;&gt;Node1 -->
<g id="edge1_Node000001_Node000002" class="edge">
<title>Node2&#45;&gt;Node1</title>
<g id="a_edge1_Node000001_Node000002"><a xlink:title=" ">
<path fill="none" stroke="#63b8ff" d="M89,-99.75C89,-90.66 89,-82.23 89,-74.72"/>
<polygon fill="none" stroke="#63b8ff" points="85.5,-99.63 89,-109.63 92.5,-99.63 85.5,-99.63"/>
</a>
</g>
</g>
<!-- Node3 -->
<g id="Node000003" class="node">
<title>Node3</title>
<g id="a_Node000003"><a xlink:href="class_n_audio_1_1_wave_1_1_wave_stream.html" target="_top" xlink:title="Base class for all WaveStream classes. Derives from stream.">
<polygon fill="white" stroke="none" points="125.5,-785 52.5,-785 52.5,-571 125.5,-571 125.5,-785"/>
<text text-anchor="start" x="60.88" y="-771.5" font-family="Helvetica,sans-Serif" font-size="10.00">WaveStream</text>
<text text-anchor="start" x="56.5" y="-756.5" font-family="Helvetica,sans-Serif" font-size="10.00">+</text>
<text text-anchor="start" x="66.5" y="-756.5" font-family="Helvetica,sans-Serif" font-size="10.00">WaveFormat</text>
<text text-anchor="start" x="56.5" y="-741.5" font-family="Helvetica,sans-Serif" font-size="10.00">+</text>
<text text-anchor="start" x="66.5" y="-741.5" font-family="Helvetica,sans-Serif" font-size="10.00">CanRead</text>
<text text-anchor="start" x="56.5" y="-726.5" font-family="Helvetica,sans-Serif" font-size="10.00">+</text>
<text text-anchor="start" x="66.5" y="-726.5" font-family="Helvetica,sans-Serif" font-size="10.00">CanSeek</text>
<text text-anchor="start" x="56.5" y="-711.5" font-family="Helvetica,sans-Serif" font-size="10.00">+</text>
<text text-anchor="start" x="66.5" y="-711.5" font-family="Helvetica,sans-Serif" font-size="10.00">CanWrite</text>
<text text-anchor="start" x="56.5" y="-696.5" font-family="Helvetica,sans-Serif" font-size="10.00">+</text>
<text text-anchor="start" x="66.5" y="-696.5" font-family="Helvetica,sans-Serif" font-size="10.00">BlockAlign</text>
<text text-anchor="start" x="56.5" y="-681.5" font-family="Helvetica,sans-Serif" font-size="10.00">+</text>
<text text-anchor="start" x="66.5" y="-681.5" font-family="Helvetica,sans-Serif" font-size="10.00">CurrentTime</text>
<text text-anchor="start" x="56.5" y="-666.5" font-family="Helvetica,sans-Serif" font-size="10.00">+</text>
<text text-anchor="start" x="66.5" y="-666.5" font-family="Helvetica,sans-Serif" font-size="10.00">TotalTime</text>
<text text-anchor="start" x="56.5" y="-651.5" font-family="Helvetica,sans-Serif" font-size="10.00">+</text>
<text text-anchor="start" x="66.5" y="-651.5" font-family="Helvetica,sans-Serif" font-size="10.00">Flush()</text>
<text text-anchor="start" x="56.5" y="-636.5" font-family="Helvetica,sans-Serif" font-size="10.00">+</text>
<text text-anchor="start" x="66.5" y="-636.5" font-family="Helvetica,sans-Serif" font-size="10.00">Seek()</text>
<text text-anchor="start" x="56.5" y="-621.5" font-family="Helvetica,sans-Serif" font-size="10.00">+</text>
<text text-anchor="start" x="66.5" y="-621.5" font-family="Helvetica,sans-Serif" font-size="10.00">SetLength()</text>
<text text-anchor="start" x="56.5" y="-606.5" font-family="Helvetica,sans-Serif" font-size="10.00">+</text>
<text text-anchor="start" x="66.5" y="-606.5" font-family="Helvetica,sans-Serif" font-size="10.00">Write()</text>
<text text-anchor="start" x="56.5" y="-591.5" font-family="Helvetica,sans-Serif" font-size="10.00">+</text>
<text text-anchor="start" x="66.5" y="-591.5" font-family="Helvetica,sans-Serif" font-size="10.00">Skip()</text>
<text text-anchor="start" x="56.5" y="-576.5" font-family="Helvetica,sans-Serif" font-size="10.00">+</text>
<text text-anchor="start" x="66.5" y="-576.5" font-family="Helvetica,sans-Serif" font-size="10.00">HasData()</text>
<polygon fill="#666666" stroke="#666666" points="52.5,-768 52.5,-768 125.5,-768 125.5,-768 52.5,-768"/>
<polygon fill="#666666" stroke="#666666" points="52.5,-663 52.5,-663 64.5,-663 64.5,-663 52.5,-663"/>
<polygon fill="#666666" stroke="#666666" points="64.5,-663 64.5,-663 125.5,-663 125.5,-663 64.5,-663"/>
<polygon fill="none" stroke="#666666" points="52.5,-571 52.5,-785 125.5,-785 125.5,-571 52.5,-571"/>
</a>
</g>
</g>
<!-- Node3&#45;&gt;Node2 -->
<g id="edge2_Node000002_Node000003" class="edge">
<title>Node3&#45;&gt;Node2</title>
<g id="a_edge2_Node000002_Node000003"><a xlink:title=" ">
<path fill="none" stroke="#63b8ff" d="M89,-559.72C89,-551.59 89,-543.27 89,-534.83"/>
<polygon fill="none" stroke="#63b8ff" points="85.5,-559.57 89,-569.57 92.5,-559.57 85.5,-559.57"/>
</a>
</g>
</g>
<!-- Node4 -->
<g id="Node000004" class="node">
<title>Node4</title>
<g id="a_Node000004"><a xlink:title=" ">
<polygon fill="white" stroke="none" points="72.5,-870 31.5,-870 31.5,-821 72.5,-821 72.5,-870"/>
<text text-anchor="start" x="36.25" y="-856.5" font-family="Helvetica,sans-Serif" font-size="10.00">Stream</text>
<text text-anchor="start" x="50.5" y="-841.5" font-family="Helvetica,sans-Serif" font-size="10.00"> </text>
<text text-anchor="start" x="50.5" y="-826.5" font-family="Helvetica,sans-Serif" font-size="10.00"> </text>
<polygon fill="#666666" stroke="#666666" points="31.5,-853 31.5,-853 72.5,-853 72.5,-853 31.5,-853"/>
<polygon fill="#666666" stroke="#666666" points="31.5,-838 31.5,-838 72.5,-838 72.5,-838 31.5,-838"/>
<polygon fill="none" stroke="#666666" points="31.5,-821 31.5,-870 72.5,-870 72.5,-821 31.5,-821"/>
</a>
</g>
</g>
<!-- Node4&#45;&gt;Node3 -->
<g id="edge3_Node000003_Node000004" class="edge">
<title>Node4&#45;&gt;Node3</title>
<g id="a_edge3_Node000003_Node000004"><a xlink:title=" ">
<path fill="none" stroke="#63b8ff" d="M59.69,-810.11C61.42,-802.36 63.35,-793.74 65.36,-784.72"/>
<polygon fill="none" stroke="#63b8ff" points="56.32,-809.14 57.55,-819.66 63.15,-810.67 56.32,-809.14"/>
</a>
</g>
</g>
<!-- Node5 -->
<g id="Node000005" class="node">
<title>Node5</title>
<g id="a_Node000005"><a xlink:href="interface_n_audio_1_1_wave_1_1_i_wave_provider.html" target="_top" xlink:title="Generic interface for all WaveProviders.">
<polygon fill="white" stroke="none" points="163.5,-870 90.5,-870 90.5,-821 163.5,-821 163.5,-870"/>
<text text-anchor="start" x="95.12" y="-856.5" font-family="Helvetica,sans-Serif" font-size="10.00">IWaveProvider</text>
<text text-anchor="start" x="94.5" y="-841.5" font-family="Helvetica,sans-Serif" font-size="10.00">+</text>
<text text-anchor="start" x="104.5" y="-841.5" font-family="Helvetica,sans-Serif" font-size="10.00">WaveFormat</text>
<text text-anchor="start" x="94.5" y="-826.5" font-family="Helvetica,sans-Serif" font-size="10.00">+</text>
<text text-anchor="start" x="104.5" y="-826.5" font-family="Helvetica,sans-Serif" font-size="10.00">Read()</text>
<polygon fill="#666666" stroke="#666666" points="90.5,-853 90.5,-853 163.5,-853 163.5,-853 90.5,-853"/>
<polygon fill="#666666" stroke="#666666" points="90.5,-838 90.5,-838 102.5,-838 102.5,-838 90.5,-838"/>
<polygon fill="#666666" stroke="#666666" points="102.5,-838 102.5,-838 163.5,-838 163.5,-838 102.5,-838"/>
<polygon fill="none" stroke="#666666" points="90.5,-821 90.5,-870 163.5,-870 163.5,-821 90.5,-821"/>
</a>
</g>
</g>
<!-- Node5&#45;&gt;Node3 -->
<g id="edge4_Node000003_Node000005" class="edge">
<title>Node5&#45;&gt;Node3</title>
<g id="a_edge4_Node000003_Node000005"><a xlink:title=" ">
<path fill="none" stroke="#63b8ff" d="M119.1,-810.11C117.32,-802.36 115.34,-793.74 113.27,-784.72"/>
<polygon fill="none" stroke="#63b8ff" points="115.65,-810.7 121.3,-819.66 122.47,-809.13 115.65,-810.7"/>
</a>
</g>
</g>
</g>
</svg>

<g id="navigator" transform="translate(0 0)" fill="#404254">
  <rect fill="#f2f5e9" fill-opacity="0.5" stroke="#606060" stroke-width=".5" x="0" y="0" width="60" height="60"/>
  <use id="zoomplus" xlink:href="#zoomPlus" x="17" y="9" onmousedown="handleZoom(evt,'in')"/>
  <use id="zoomminus" xlink:href="#zoomMin" x="42" y="9" onmousedown="handleZoom(evt,'out')"/>
  <use id="reset" xlink:href="#resetDef" x="30" y="36" onmousedown="handleReset()"/>
   <use id="arrowup" xlink:href="#arrowUp" x="0" y="0" onmousedown="handlePan(0,-1)"/>
  <use id="arrowright" xlink:href="#arrowRight" x="0" y="0" onmousedown="handlePan(1,0)"/>
  <use id="arrowdown" xlink:href="#arrowDown" x="0" y="0" onmousedown="handlePan(0,1)"/>
  <use id="arrowleft" xlink:href="#arrowLeft" x="0" y="0" onmousedown="handlePan(-1,0)"/>
</g>
<svg viewBox="0 0 15 15" width="100%" height="30px" preserveAspectRatio="xMaxYMin meet">
 <g id="arrow_out" transform="scale(0.3 0.3)">
  <a xlink:href="class_n_audio_1_1_wave_1_1_stream_media_foundation_reader__inherit__graph_org.svg" target="_base">
   <rect id="button" ry="5" rx="5" y="6" x="6" height="38" width="38"
        fill="#f2f5e9" fill-opacity="0.5" stroke="#606060" stroke-width="1.0"/>
   <path id="arrow"
     d="M 11.500037,31.436501 C 11.940474,20.09759 22.043105,11.32322 32.158766,21.979434 L 37.068811,17.246167 C 37.068811,17.246167 37.088388,32 37.088388,32 L 22.160133,31.978069 C 22.160133,31.978069 26.997745,27.140456 26.997745,27.140456 C 18.528582,18.264221 13.291696,25.230495 11.500037,31.436501 z"
     style="fill:#404040;"/>
  </a>
 </g>
</svg>

<style type='text/css'>
<![CDATA[
[data-mouse-over-selected='false'] { opacity: 0.7; }
[data-mouse-over-selected='true']  { opacity: 1.0; }
]]>
</style>
<script type="application/ecmascript"><![CDATA[
document.addEventListener('DOMContentLoaded', (event) => {
  highlightEdges();
  highlightAdjacentNodes();
});
]]></script>
</svg>
