<?xml version="1.0" encoding="UTF-8" standalone="no"?>
<!DOCTYPE svg PUBLIC "-//W3C//DTD SVG 1.1//EN"
 "http://www.w3.org/Graphics/SVG/1.1/DTD/svg11.dtd">
<!-- Generated by graphviz version 10.0.1 (20240210.2158)
 -->
<!-- Title: NAudio.Wave.WaveFileWriter.UpdateRiffChunk Pages: 1 -->
<svg width="705pt" height="113pt"
 viewBox="0.00 0.00 705.00 112.50" xmlns="http://www.w3.org/2000/svg" xmlns:xlink="http://www.w3.org/1999/xlink">
<g id="graph0" class="graph" transform="scale(1 1) rotate(0) translate(4 108.5)">
<title>NAudio.Wave.WaveFileWriter.UpdateRiffChunk</title>
<!-- Node1 -->
<g id="Node000001" class="node">
<title>Node1</title>
<g id="a_Node000001"><a xlink:title="Updates the RIFF chunk in the output stream with the correct size.">
<polygon fill="#999999" stroke="#666666" points="697,-54.5 549.75,-54.5 549.75,-24 697,-24 697,-54.5"/>
<text text-anchor="start" x="557.75" y="-41" font-family="Helvetica,sans-Serif" font-size="10.00">NAudio.Wave.WaveFileWriter.</text>
<text text-anchor="middle" x="623.38" y="-29.75" font-family="Helvetica,sans-Serif" font-size="10.00">UpdateRiffChunk</text>
</a>
</g>
</g>
<!-- Node2 -->
<g id="Node000002" class="node">
<title>Node2</title>
<g id="a_Node000002"><a xlink:href="class_n_audio_1_1_wave_1_1_wave_file_writer.html#ab50c1f10814b936065f8d7f5d3584fa2" target="_top" xlink:title="Updates the header of the audio file by flushing the writer and updating the RIFF,...">
<polygon fill="white" stroke="#666666" points="513.75,-54.5 366.5,-54.5 366.5,-24 513.75,-24 513.75,-54.5"/>
<text text-anchor="start" x="374.5" y="-41" font-family="Helvetica,sans-Serif" font-size="10.00">NAudio.Wave.WaveFileWriter.</text>
<text text-anchor="middle" x="440.12" y="-29.75" font-family="Helvetica,sans-Serif" font-size="10.00">UpdateHeader</text>
</a>
</g>
</g>
<!-- Node1&#45;&gt;Node2 -->
<g id="edge1_Node000001_Node000002" class="edge">
<title>Node1&#45;&gt;Node2</title>
<g id="a_edge1_Node000001_Node000002"><a xlink:title=" ">
<path fill="none" stroke="#63b8ff" d="M538.19,-39.25C530.18,-39.25 522.1,-39.25 514.21,-39.25"/>
<polygon fill="#63b8ff" stroke="#63b8ff" points="537.92,-42.75 547.92,-39.25 537.92,-35.75 537.92,-42.75"/>
</a>
</g>
</g>
<!-- Node3 -->
<g id="Node000003" class="node">
<title>Node3</title>
<g id="a_Node000003"><a xlink:href="class_n_audio_1_1_wave_1_1_wave_file_writer.html#aea4aae5af23f69630e9a4028555462b6" target="_top" xlink:title="Releases the unmanaged resources used by the ClassName and optionally releases the managed resources.">
<polygon fill="white" stroke="#666666" points="330.5,-79.5 183.25,-79.5 183.25,-49 330.5,-49 330.5,-79.5"/>
<text text-anchor="start" x="191.25" y="-66" font-family="Helvetica,sans-Serif" font-size="10.00">NAudio.Wave.WaveFileWriter.</text>
<text text-anchor="middle" x="256.88" y="-54.75" font-family="Helvetica,sans-Serif" font-size="10.00">Dispose</text>
</a>
</g>
</g>
<!-- Node2&#45;&gt;Node3 -->
<g id="edge2_Node000002_Node000003" class="edge">
<title>Node2&#45;&gt;Node3</title>
<g id="a_edge2_Node000002_Node000003"><a xlink:title=" ">
<path fill="none" stroke="#63b8ff" d="M354.94,-50.86C346.93,-51.97 338.85,-53.08 330.96,-54.17"/>
<polygon fill="#63b8ff" stroke="#63b8ff" points="355.26,-54.35 364.69,-49.52 354.3,-47.42 355.26,-54.35"/>
</a>
</g>
</g>
<!-- Node6 -->
<g id="Node000006" class="node">
<title>Node6</title>
<g id="a_Node000006"><a xlink:href="class_n_audio_1_1_wave_1_1_wave_file_writer.html#a36afa5daa41363d0303dd37a363f16d9" target="_top" xlink:title="Updates the header and flushes the underlying stream.">
<polygon fill="white" stroke="#666666" points="330.5,-30.5 183.25,-30.5 183.25,0 330.5,0 330.5,-30.5"/>
<text text-anchor="start" x="191.25" y="-17" font-family="Helvetica,sans-Serif" font-size="10.00">NAudio.Wave.WaveFileWriter.</text>
<text text-anchor="middle" x="256.88" y="-5.75" font-family="Helvetica,sans-Serif" font-size="10.00">Flush</text>
</a>
</g>
</g>
<!-- Node2&#45;&gt;Node6 -->
<g id="edge5_Node000002_Node000006" class="edge">
<title>Node2&#45;&gt;Node6</title>
<g id="a_edge5_Node000002_Node000006"><a xlink:title=" ">
<path fill="none" stroke="#63b8ff" d="M354.94,-28.1C346.93,-27.04 338.85,-25.97 330.96,-24.93"/>
<polygon fill="#63b8ff" stroke="#63b8ff" points="354.31,-31.55 364.69,-29.39 355.23,-24.61 354.31,-31.55"/>
</a>
</g>
</g>
<!-- Node4 -->
<g id="Node000004" class="node">
<title>Node4</title>
<g id="a_Node000004"><a xlink:href="class_n_audio_1_1_wave_1_1_wave_recorder.html#aed186a830758160c74ec883780dc79b8" target="_top" xlink:title="Performs application&#45;defined tasks associated with freeing, releasing, or resetting unmanaged resourc...">
<polygon fill="white" stroke="#666666" points="146.5,-104.5 0.75,-104.5 0.75,-74 146.5,-74 146.5,-104.5"/>
<text text-anchor="start" x="8.75" y="-91" font-family="Helvetica,sans-Serif" font-size="10.00">NAudio.Wave.WaveRecorder.</text>
<text text-anchor="middle" x="73.62" y="-79.75" font-family="Helvetica,sans-Serif" font-size="10.00">Dispose</text>
</a>
</g>
</g>
<!-- Node3&#45;&gt;Node4 -->
<g id="edge3_Node000003_Node000004" class="edge">
<title>Node3&#45;&gt;Node4</title>
<g id="a_edge3_Node000003_Node000004"><a xlink:title=" ">
<path fill="none" stroke="#63b8ff" d="M171.68,-75.86C163.37,-77.01 154.99,-78.16 146.82,-79.29"/>
<polygon fill="#63b8ff" stroke="#63b8ff" points="172.01,-79.35 181.44,-74.52 171.05,-72.42 172.01,-79.35"/>
</a>
</g>
</g>
<!-- Node5 -->
<g id="Node000005" class="node">
<title>Node5</title>
<g id="a_Node000005"><a xlink:href="class_n_audio_1_1_wave_1_1_wave_file_writer.html#a1fb5e2e471f0015a03c9b203900374d9" target="_top" xlink:title="Finaliser &#45; should only be called if the user forgot to close this WaveFileWriter.">
<polygon fill="white" stroke="#666666" points="147.25,-55.5 0,-55.5 0,-25 147.25,-25 147.25,-55.5"/>
<text text-anchor="start" x="8" y="-42" font-family="Helvetica,sans-Serif" font-size="10.00">NAudio.Wave.WaveFileWriter.</text>
<text text-anchor="middle" x="73.62" y="-30.75" font-family="Helvetica,sans-Serif" font-size="10.00">~WaveFileWriter</text>
</a>
</g>
</g>
<!-- Node3&#45;&gt;Node5 -->
<g id="edge4_Node000003_Node000005" class="edge">
<title>Node3&#45;&gt;Node5</title>
<g id="a_edge4_Node000003_Node000005"><a xlink:title=" ">
<path fill="none" stroke="#63b8ff" d="M171.69,-53.1C163.68,-52.04 155.6,-50.97 147.71,-49.93"/>
<polygon fill="#63b8ff" stroke="#63b8ff" points="171.06,-56.55 181.44,-54.39 171.98,-49.61 171.06,-56.55"/>
</a>
</g>
</g>
</g>
</svg>
