<?xml version="1.0" encoding="UTF-8" standalone="no"?>
<!DOCTYPE svg PUBLIC "-//W3C//DTD SVG 1.1//EN"
 "http://www.w3.org/Graphics/SVG/1.1/DTD/svg11.dtd">
<!-- Generated by graphviz version 10.0.1 (20240210.2158)
 -->
<!-- Title: xeno_rat_server.Forms.AudioPlayer.Stop Pages: 1 -->
<svg width="712pt" height="88pt"
 viewBox="0.00 0.00 711.75 87.50" xmlns="http://www.w3.org/2000/svg" xmlns:xlink="http://www.w3.org/1999/xlink">
<g id="graph0" class="graph" transform="scale(1 1) rotate(0) translate(4 83.5)">
<title>xeno_rat_server.Forms.AudioPlayer.Stop</title>
<!-- Node1 -->
<g id="Node000001" class="node">
<title>Node1</title>
<g id="a_Node000001"><a xlink:title="Stops the audio playback and clears the buffer.">
<polygon fill="#999999" stroke="#666666" points="703.75,-54.5 560.25,-54.5 560.25,-24 703.75,-24 703.75,-54.5"/>
<text text-anchor="start" x="568.25" y="-41" font-family="Helvetica,sans-Serif" font-size="10.00">xeno_rat_server.Forms.Audio</text>
<text text-anchor="middle" x="632" y="-29.75" font-family="Helvetica,sans-Serif" font-size="10.00">Player.Stop</text>
</a>
</g>
</g>
<!-- Node2 -->
<g id="Node000002" class="node">
<title>Node2</title>
<g id="a_Node000002"><a xlink:href="classxeno__rat__server_1_1_forms_1_1_live___microphone.html#a6093c75b405861fcfaa531aea0e56896" target="_top" xlink:title="Handles the click event for button3, stopping the player and sending a stop signal to the client.">
<polygon fill="white" stroke="#666666" points="520.88,-79.5 384.12,-79.5 384.12,-49 520.88,-49 520.88,-79.5"/>
<text text-anchor="start" x="392.12" y="-66" font-family="Helvetica,sans-Serif" font-size="10.00">xeno_rat_server.Forms.Live</text>
<text text-anchor="middle" x="452.5" y="-54.75" font-family="Helvetica,sans-Serif" font-size="10.00">_Microphone.button3_Click</text>
</a>
</g>
</g>
<!-- Node1&#45;&gt;Node2 -->
<g id="edge1_Node000001_Node000002" class="edge">
<title>Node1&#45;&gt;Node2</title>
<g id="a_edge1_Node000001_Node000002"><a xlink:title=" ">
<path fill="none" stroke="#63b8ff" d="M548.69,-50.84C539.49,-52.14 530.21,-53.45 521.23,-54.71"/>
<polygon fill="#63b8ff" stroke="#63b8ff" points="548.91,-54.35 558.33,-49.49 547.94,-47.41 548.91,-54.35"/>
</a>
</g>
</g>
<!-- Node5 -->
<g id="Node000005" class="node">
<title>Node5</title>
<g id="a_Node000005"><a xlink:href="classxeno__rat__server_1_1_forms_1_1_audio_player.html#a6b5dbf3e41550ddae36b5c641b40a57d" target="_top" xlink:title="Stops the audio playback and disposes of the resources used by the WaveOut player.">
<polygon fill="white" stroke="#666666" points="524.25,-30.5 380.75,-30.5 380.75,0 524.25,0 524.25,-30.5"/>
<text text-anchor="start" x="388.75" y="-17" font-family="Helvetica,sans-Serif" font-size="10.00">xeno_rat_server.Forms.Audio</text>
<text text-anchor="middle" x="452.5" y="-5.75" font-family="Helvetica,sans-Serif" font-size="10.00">Player.Dispose</text>
</a>
</g>
</g>
<!-- Node1&#45;&gt;Node5 -->
<g id="edge4_Node000001_Node000005" class="edge">
<title>Node1&#45;&gt;Node5</title>
<g id="a_edge4_Node000001_Node000005"><a xlink:title=" ">
<path fill="none" stroke="#63b8ff" d="M548.6,-28.11C540.61,-27.03 532.56,-25.94 524.69,-24.88"/>
<polygon fill="#63b8ff" stroke="#63b8ff" points="547.95,-31.55 558.33,-29.42 548.89,-24.62 547.95,-31.55"/>
</a>
</g>
</g>
<!-- Node3 -->
<g id="Node000003" class="node">
<title>Node3</title>
<g id="a_Node000003"><a xlink:href="classxeno__rat__server_1_1_forms_1_1_live___microphone.html#aa22c949501255089648411e3411d8a46" target="_top" xlink:title="Initializes the components of the form including the combo box, labels, and buttons.">
<polygon fill="white" stroke="#666666" points="344.75,-79.5 184,-79.5 184,-49 344.75,-49 344.75,-79.5"/>
<text text-anchor="start" x="192" y="-66" font-family="Helvetica,sans-Serif" font-size="10.00">xeno_rat_server.Forms.Live</text>
<text text-anchor="middle" x="264.38" y="-54.75" font-family="Helvetica,sans-Serif" font-size="10.00">_Microphone.InitializeComponent</text>
</a>
</g>
</g>
<!-- Node2&#45;&gt;Node3 -->
<g id="edge2_Node000002_Node000003" class="edge">
<title>Node2&#45;&gt;Node3</title>
<g id="a_edge2_Node000002_Node000003"><a xlink:title=" ">
<path fill="none" stroke="#63b8ff" d="M372.43,-64.25C363.37,-64.25 354.13,-64.25 345.06,-64.25"/>
<polygon fill="#63b8ff" stroke="#63b8ff" points="372.26,-67.75 382.26,-64.25 372.26,-60.75 372.26,-67.75"/>
</a>
</g>
</g>
<!-- Node4 -->
<g id="Node000004" class="node">
<title>Node4</title>
<g id="a_Node000004"><a xlink:href="classxeno__rat__server_1_1_forms_1_1_live___microphone.html#af759c97b5673c55be1690f19df16e179" target="_top" xlink:title=" ">
<polygon fill="white" stroke="#666666" points="148,-79.5 0,-79.5 0,-49 148,-49 148,-79.5"/>
<text text-anchor="start" x="8" y="-66" font-family="Helvetica,sans-Serif" font-size="10.00">xeno_rat_server.Forms.Live</text>
<text text-anchor="middle" x="74" y="-54.75" font-family="Helvetica,sans-Serif" font-size="10.00">_Microphone.Live_Microphone</text>
</a>
</g>
</g>
<!-- Node3&#45;&gt;Node4 -->
<g id="edge3_Node000003_Node000004" class="edge">
<title>Node3&#45;&gt;Node4</title>
<g id="a_edge3_Node000003_Node000004"><a xlink:title=" ">
<path fill="none" stroke="#63b8ff" d="M172.4,-64.25C164.33,-64.25 156.23,-64.25 148.34,-64.25"/>
<polygon fill="#63b8ff" stroke="#63b8ff" points="172.25,-67.75 182.25,-64.25 172.25,-60.75 172.25,-67.75"/>
</a>
</g>
</g>
<!-- Node6 -->
<g id="Node000006" class="node">
<title>Node6</title>
<g id="a_Node000006"><a xlink:href="classxeno__rat__server_1_1_forms_1_1_live___microphone.html#af26723a44cb5880fd08168a5dcc94b49" target="_top" xlink:title="Releases the unmanaged resources used by the Form and its components when the form is closing.">
<polygon fill="white" stroke="#666666" points="335.75,-30.5 193,-30.5 193,0 335.75,0 335.75,-30.5"/>
<text text-anchor="start" x="201" y="-17" font-family="Helvetica,sans-Serif" font-size="10.00">xeno_rat_server.Forms.Live</text>
<text text-anchor="middle" x="264.38" y="-5.75" font-family="Helvetica,sans-Serif" font-size="10.00">_Microphone.OnFormClosing</text>
</a>
</g>
</g>
<!-- Node5&#45;&gt;Node6 -->
<g id="edge5_Node000005_Node000006" class="edge">
<title>Node5&#45;&gt;Node6</title>
<g id="a_edge5_Node000005_Node000006"><a xlink:title=" ">
<path fill="none" stroke="#63b8ff" d="M369.02,-15.25C358.07,-15.25 346.92,-15.25 336.19,-15.25"/>
<polygon fill="#63b8ff" stroke="#63b8ff" points="368.82,-18.75 378.82,-15.25 368.82,-11.75 368.82,-18.75"/>
</a>
</g>
</g>
</g>
</svg>
