<?xml version="1.0" encoding="UTF-8" standalone="no"?>
<!DOCTYPE svg PUBLIC "-//W3C//DTD SVG 1.1//EN"
 "http://www.w3.org/Graphics/SVG/1.1/DTD/svg11.dtd">
<!-- Generated by graphviz version 10.0.1 (20240210.2158)
 -->
<!-- Title: NAudio.Wave.Asio.AsioDriverExt.AsioDriverExt Pages: 1 -->
<svg width="739pt" height="333pt"
 viewBox="0.00 0.00 738.75 332.50" xmlns="http://www.w3.org/2000/svg" xmlns:xlink="http://www.w3.org/1999/xlink">
<g id="graph0" class="graph" transform="scale(1 1) rotate(0) translate(4 328.5)">
<title>NAudio.Wave.Asio.AsioDriverExt.AsioDriverExt</title>
<!-- Node1 -->
<g id="Node000001" class="node">
<title>Node1</title>
<g id="a_Node000001"><a xlink:title="Initializes a new instance of the AsioDriverExt class based on an already instantiated AsioDriver ins...">
<polygon fill="#999999" stroke="#666666" points="147.25,-177.5 0,-177.5 0,-147 147.25,-147 147.25,-177.5"/>
<text text-anchor="start" x="8" y="-164" font-family="Helvetica,sans-Serif" font-size="10.00">NAudio.Wave.Asio.AsioDriver</text>
<text text-anchor="middle" x="73.62" y="-152.75" font-family="Helvetica,sans-Serif" font-size="10.00">Ext.AsioDriverExt</text>
</a>
</g>
</g>
<!-- Node2 -->
<g id="Node000002" class="node">
<title>Node2</title>
<g id="a_Node000002"><a xlink:href="class_n_audio_1_1_wave_1_1_asio_1_1_asio_driver_ext.html#a54b1e6fd3f69e10bb86a53d23a3674db" target="_top" xlink:title="Handles ASIO messages and performs corresponding actions based on the message selector and value.">
<polygon fill="white" stroke="#666666" points="345.12,-324.5 197.88,-324.5 197.88,-294 345.12,-294 345.12,-324.5"/>
<text text-anchor="start" x="205.88" y="-311" font-family="Helvetica,sans-Serif" font-size="10.00">NAudio.Wave.Asio.AsioDriver</text>
<text text-anchor="middle" x="271.5" y="-299.75" font-family="Helvetica,sans-Serif" font-size="10.00">Ext.AsioMessageCallBack</text>
</a>
</g>
</g>
<!-- Node1&#45;&gt;Node2 -->
<g id="edge1_Node000001_Node000002" class="edge">
<title>Node1&#45;&gt;Node2</title>
<g id="a_edge1_Node000001_Node000002"><a xlink:title=" ">
<path fill="none" stroke="#63b8ff" d="M84.26,-177.91C101.09,-203.94 138.35,-256.03 183.25,-284.25 185.85,-285.88 188.56,-287.41 191.35,-288.85"/>
<polygon fill="#63b8ff" stroke="#63b8ff" points="189.8,-291.99 200.35,-292.99 192.72,-285.63 189.8,-291.99"/>
</a>
</g>
</g>
<!-- Node3 -->
<g id="Node000003" class="node">
<title>Node3</title>
<g id="a_Node000003"><a xlink:href="class_n_audio_1_1_wave_1_1_asio_1_1_asio_driver_ext.html#a0280446f76616544cd1f10d0c740b51a" target="_top" xlink:title="Callback function for switching buffers and invoking the fill buffer callback.">
<polygon fill="white" stroke="#666666" points="345.12,-275.5 197.88,-275.5 197.88,-245 345.12,-245 345.12,-275.5"/>
<text text-anchor="start" x="205.88" y="-262" font-family="Helvetica,sans-Serif" font-size="10.00">NAudio.Wave.Asio.AsioDriver</text>
<text text-anchor="middle" x="271.5" y="-250.75" font-family="Helvetica,sans-Serif" font-size="10.00">Ext.BufferSwitchCallBack</text>
</a>
</g>
</g>
<!-- Node1&#45;&gt;Node3 -->
<g id="edge2_Node000001_Node000003" class="edge">
<title>Node1&#45;&gt;Node3</title>
<g id="a_edge2_Node000001_Node000003"><a xlink:title=" ">
<path fill="none" stroke="#63b8ff" d="M93.92,-177.97C114.81,-194.31 149.67,-219.63 183.25,-235.25 187.43,-237.19 191.79,-239.02 196.24,-240.73"/>
<polygon fill="#63b8ff" stroke="#63b8ff" points="194.72,-243.9 205.32,-244 197.09,-237.32 194.72,-243.9"/>
</a>
</g>
</g>
<!-- Node5 -->
<g id="Node000005" class="node">
<title>Node5</title>
<g id="a_Node000005"><a xlink:href="class_n_audio_1_1_wave_1_1_asio_1_1_asio_driver_ext.html#a5e789b9a1c1bb6f0ec5c3238b1334e2f" target="_top" xlink:title="Callback function for switching buffer time information.">
<polygon fill="white" stroke="#666666" points="355.62,-226.5 187.38,-226.5 187.38,-196 355.62,-196 355.62,-226.5"/>
<text text-anchor="start" x="195.38" y="-213" font-family="Helvetica,sans-Serif" font-size="10.00">NAudio.Wave.Asio.AsioDriver</text>
<text text-anchor="middle" x="271.5" y="-201.75" font-family="Helvetica,sans-Serif" font-size="10.00">Ext.BufferSwitchTimeInfoCallBack</text>
</a>
</g>
</g>
<!-- Node1&#45;&gt;Node5 -->
<g id="edge4_Node000001_Node000005" class="edge">
<title>Node1&#45;&gt;Node5</title>
<g id="a_edge4_Node000001_Node000005"><a xlink:title=" ">
<path fill="none" stroke="#63b8ff" d="M137.41,-177.96C156.3,-182.68 177.2,-187.91 196.73,-192.8"/>
<polygon fill="#63b8ff" stroke="#63b8ff" points="195.72,-196.15 206.27,-195.18 197.42,-189.36 195.72,-196.15"/>
</a>
</g>
</g>
<!-- Node6 -->
<g id="Node000006" class="node">
<title>Node6</title>
<g id="a_Node000006"><a xlink:href="class_n_audio_1_1_wave_1_1_asio_1_1_asio_driver_ext.html#a4d8c8082920803501cfe51095064209a" target="_top" xlink:title="Builds the capabilities of the ASIO driver, including driver name, input/output channels,...">
<polygon fill="white" stroke="#666666" points="345.12,-177.5 197.88,-177.5 197.88,-147 345.12,-147 345.12,-177.5"/>
<text text-anchor="start" x="205.88" y="-164" font-family="Helvetica,sans-Serif" font-size="10.00">NAudio.Wave.Asio.AsioDriver</text>
<text text-anchor="middle" x="271.5" y="-152.75" font-family="Helvetica,sans-Serif" font-size="10.00">Ext.BuildCapabilities</text>
</a>
</g>
</g>
<!-- Node1&#45;&gt;Node6 -->
<g id="edge5_Node000001_Node000006" class="edge">
<title>Node1&#45;&gt;Node6</title>
<g id="a_edge5_Node000001_Node000006"><a xlink:title=" ">
<path fill="none" stroke="#63b8ff" d="M147.56,-162.25C160.18,-162.25 173.39,-162.25 186.28,-162.25"/>
<polygon fill="#63b8ff" stroke="#63b8ff" points="185.99,-165.75 195.99,-162.25 185.99,-158.75 185.99,-165.75"/>
</a>
</g>
</g>
<!-- Node14 -->
<g id="Node000014" class="node">
<title>Node14</title>
<g id="a_Node000014"><a xlink:href="class_n_audio_1_1_wave_1_1_asio_1_1_asio_driver.html#a6c9b031faf5feee4468a9ce84a63b6f2" target="_top" xlink:title="Retrieves the error message from the ASIO driver and returns it as a string.">
<polygon fill="white" stroke="#666666" points="346.25,-128.5 196.75,-128.5 196.75,-98 346.25,-98 346.25,-128.5"/>
<text text-anchor="start" x="204.75" y="-115" font-family="Helvetica,sans-Serif" font-size="10.00">NAudio.Wave.Asio.AsioDriver.</text>
<text text-anchor="middle" x="271.5" y="-103.75" font-family="Helvetica,sans-Serif" font-size="10.00">GetErrorMessage</text>
</a>
</g>
</g>
<!-- Node1&#45;&gt;Node14 -->
<g id="edge16_Node000001_Node000014" class="edge">
<title>Node1&#45;&gt;Node14</title>
<g id="a_edge16_Node000001_Node000014"><a xlink:title=" ">
<path fill="none" stroke="#63b8ff" d="M137.41,-146.54C156.3,-141.82 177.2,-136.59 196.73,-131.7"/>
<polygon fill="#63b8ff" stroke="#63b8ff" points="197.42,-135.14 206.27,-129.32 195.72,-128.35 197.42,-135.14"/>
</a>
</g>
</g>
<!-- Node15 -->
<g id="Node000015" class="node">
<title>Node15</title>
<g id="a_Node000015"><a xlink:href="class_n_audio_1_1_wave_1_1_asio_1_1_asio_driver.html#a4a63beb4f8923cc1e013826f90df85f7" target="_top" xlink:title="Initializes the ASIO driver with the specified system handle.">
<polygon fill="white" stroke="#666666" points="353,-79.88 190,-79.88 190,-60.62 353,-60.62 353,-79.88"/>
<text text-anchor="middle" x="271.5" y="-66.38" font-family="Helvetica,sans-Serif" font-size="10.00">NAudio.Wave.Asio.AsioDriver.Init</text>
</a>
</g>
</g>
<!-- Node1&#45;&gt;Node15 -->
<g id="edge17_Node000001_Node000015" class="edge">
<title>Node1&#45;&gt;Node15</title>
<g id="a_edge17_Node000001_Node000015"><a xlink:title=" ">
<path fill="none" stroke="#63b8ff" d="M92.97,-146.71C113.61,-130.03 148.76,-103.96 183.25,-89.25 188.38,-87.06 193.78,-85.12 199.29,-83.39"/>
<polygon fill="#63b8ff" stroke="#63b8ff" points="199.87,-86.86 208.51,-80.73 197.93,-80.14 199.87,-86.86"/>
</a>
</g>
</g>
<!-- Node16 -->
<g id="Node000016" class="node">
<title>Node16</title>
<g id="a_Node000016"><a xlink:href="class_n_audio_1_1_wave_1_1_asio_1_1_asio_driver_ext.html#a7b21319f6cbb7414832e23a614edc45b" target="_top" xlink:title="Updates the sample rate in the capability and modifies the original array in place.">
<polygon fill="white" stroke="#666666" points="359.75,-42.5 183.25,-42.5 183.25,-12 359.75,-12 359.75,-42.5"/>
<text text-anchor="start" x="191.25" y="-29" font-family="Helvetica,sans-Serif" font-size="10.00">NAudio.Wave.Asio.AsioDriver</text>
<text text-anchor="middle" x="271.5" y="-17.75" font-family="Helvetica,sans-Serif" font-size="10.00">Ext.SampleRateDidChangeCallBack</text>
</a>
</g>
</g>
<!-- Node1&#45;&gt;Node16 -->
<g id="edge18_Node000001_Node000016" class="edge">
<title>Node1&#45;&gt;Node16</title>
<g id="a_edge18_Node000001_Node000016"><a xlink:title=" ">
<path fill="none" stroke="#63b8ff" d="M85.42,-146.82C103.09,-122.76 140.5,-76.43 183.25,-51.25 185.45,-49.95 187.72,-48.73 190.05,-47.56"/>
<polygon fill="#63b8ff" stroke="#63b8ff" points="191.46,-50.76 199.16,-43.48 188.6,-44.38 191.46,-50.76"/>
</a>
</g>
</g>
<!-- Node4 -->
<g id="Node000004" class="node">
<title>Node4</title>
<g id="a_Node000004"><a xlink:href="class_n_audio_1_1_wave_1_1_asio_1_1_asio_driver.html#a8b950cc131c67e1be12da29173ce60ec" target="_top" xlink:title="Checks if the output is ready and returns an AsioError.">
<polygon fill="white" stroke="#666666" points="545.25,-324.5 395.75,-324.5 395.75,-294 545.25,-294 545.25,-324.5"/>
<text text-anchor="start" x="403.75" y="-311" font-family="Helvetica,sans-Serif" font-size="10.00">NAudio.Wave.Asio.AsioDriver.</text>
<text text-anchor="middle" x="470.5" y="-299.75" font-family="Helvetica,sans-Serif" font-size="10.00">OutputReady</text>
</a>
</g>
</g>
<!-- Node3&#45;&gt;Node4 -->
<g id="edge3_Node000003_Node000004" class="edge">
<title>Node3&#45;&gt;Node4</title>
<g id="a_edge3_Node000003_Node000004"><a xlink:title=" ">
<path fill="none" stroke="#63b8ff" d="M335.64,-275.96C354.64,-280.68 375.66,-285.91 395.31,-290.8"/>
<polygon fill="#63b8ff" stroke="#63b8ff" points="394.36,-294.17 404.91,-293.18 396.05,-287.37 394.36,-294.17"/>
</a>
</g>
</g>
<!-- Node7 -->
<g id="Node000007" class="node">
<title>Node7</title>
<g id="a_Node000007"><a xlink:href="class_n_audio_1_1_wave_1_1_asio_1_1_asio_driver.html#ae71d8b791f4be3c4e68ad2fbe7c5dd88" target="_top" xlink:title="Retrieves the buffer size information from the ASIO driver.">
<polygon fill="white" stroke="#666666" points="545.25,-275.5 395.75,-275.5 395.75,-245 545.25,-245 545.25,-275.5"/>
<text text-anchor="start" x="403.75" y="-262" font-family="Helvetica,sans-Serif" font-size="10.00">NAudio.Wave.Asio.AsioDriver.</text>
<text text-anchor="middle" x="470.5" y="-250.75" font-family="Helvetica,sans-Serif" font-size="10.00">GetBufferSize</text>
</a>
</g>
</g>
<!-- Node6&#45;&gt;Node7 -->
<g id="edge6_Node000006_Node000007" class="edge">
<title>Node6&#45;&gt;Node7</title>
<g id="a_edge6_Node000006_Node000007"><a xlink:title=" ">
<path fill="none" stroke="#63b8ff" d="M342.94,-177.97C348.86,-180.61 354.56,-183.67 359.75,-187.25 381.71,-202.38 374.16,-219.6 395.75,-235.25 397.75,-236.7 399.84,-238.07 402,-239.37"/>
<polygon fill="#63b8ff" stroke="#63b8ff" points="400.01,-242.27 410.49,-243.86 403.29,-236.09 400.01,-242.27"/>
</a>
</g>
</g>
<!-- Node9 -->
<g id="Node000009" class="node">
<title>Node9</title>
<g id="a_Node000009"><a xlink:href="class_n_audio_1_1_wave_1_1_asio_1_1_asio_driver.html#a0097264cfac08cc18b7a7b68c0d2245e" target="_top" xlink:title="Retrieves the information about the specified channel.">
<polygon fill="white" stroke="#666666" points="545.25,-226.5 395.75,-226.5 395.75,-196 545.25,-196 545.25,-226.5"/>
<text text-anchor="start" x="403.75" y="-213" font-family="Helvetica,sans-Serif" font-size="10.00">NAudio.Wave.Asio.AsioDriver.</text>
<text text-anchor="middle" x="470.5" y="-201.75" font-family="Helvetica,sans-Serif" font-size="10.00">GetChannelInfo</text>
</a>
</g>
</g>
<!-- Node6&#45;&gt;Node9 -->
<g id="edge8_Node000006_Node000009" class="edge">
<title>Node6&#45;&gt;Node9</title>
<g id="a_edge8_Node000006_Node000009"><a xlink:title=" ">
<path fill="none" stroke="#63b8ff" d="M335.64,-177.96C354.64,-182.68 375.66,-187.91 395.31,-192.8"/>
<polygon fill="#63b8ff" stroke="#63b8ff" points="394.36,-196.17 404.91,-195.18 396.05,-189.37 394.36,-196.17"/>
</a>
</g>
</g>
<!-- Node10 -->
<g id="Node000010" class="node">
<title>Node10</title>
<g id="a_Node000010"><a xlink:href="class_n_audio_1_1_wave_1_1_asio_1_1_asio_driver.html#a6b1146266c5a2417ed80be6411b98ad4" target="_top" xlink:title="Retrieves the number of input and output channels available.">
<polygon fill="white" stroke="#666666" points="545.25,-177.5 395.75,-177.5 395.75,-147 545.25,-147 545.25,-177.5"/>
<text text-anchor="start" x="403.75" y="-164" font-family="Helvetica,sans-Serif" font-size="10.00">NAudio.Wave.Asio.AsioDriver.</text>
<text text-anchor="middle" x="470.5" y="-152.75" font-family="Helvetica,sans-Serif" font-size="10.00">GetChannels</text>
</a>
</g>
</g>
<!-- Node6&#45;&gt;Node10 -->
<g id="edge10_Node000006_Node000010" class="edge">
<title>Node6&#45;&gt;Node10</title>
<g id="a_edge10_Node000006_Node000010"><a xlink:title=" ">
<path fill="none" stroke="#63b8ff" d="M345.58,-162.25C358.19,-162.25 371.41,-162.25 384.32,-162.25"/>
<polygon fill="#63b8ff" stroke="#63b8ff" points="384.04,-165.75 394.04,-162.25 384.04,-158.75 384.04,-165.75"/>
</a>
</g>
</g>
<!-- Node11 -->
<g id="Node000011" class="node">
<title>Node11</title>
<g id="a_Node000011"><a xlink:href="class_n_audio_1_1_wave_1_1_asio_1_1_asio_driver.html#ae07aee2172b0a429129a05c7844e05c9" target="_top" xlink:title="Retrieves the name of the ASIO driver.">
<polygon fill="white" stroke="#666666" points="545.25,-128.5 395.75,-128.5 395.75,-98 545.25,-98 545.25,-128.5"/>
<text text-anchor="start" x="403.75" y="-115" font-family="Helvetica,sans-Serif" font-size="10.00">NAudio.Wave.Asio.AsioDriver.</text>
<text text-anchor="middle" x="470.5" y="-103.75" font-family="Helvetica,sans-Serif" font-size="10.00">GetDriverName</text>
</a>
</g>
</g>
<!-- Node6&#45;&gt;Node11 -->
<g id="edge12_Node000006_Node000011" class="edge">
<title>Node6&#45;&gt;Node11</title>
<g id="a_edge12_Node000006_Node000011"><a xlink:title=" ">
<path fill="none" stroke="#63b8ff" d="M335.64,-146.54C354.64,-141.82 375.66,-136.59 395.31,-131.7"/>
<polygon fill="#63b8ff" stroke="#63b8ff" points="396.05,-135.13 404.91,-129.32 394.36,-128.33 396.05,-135.13"/>
</a>
</g>
</g>
<!-- Node12 -->
<g id="Node000012" class="node">
<title>Node12</title>
<g id="a_Node000012"><a xlink:href="class_n_audio_1_1_wave_1_1_asio_1_1_asio_driver.html#a5cd7dfeb49a5aa1a77d35aba9ca55acc" target="_top" xlink:title="Retrieves the input and output latencies of the ASIO driver.">
<polygon fill="white" stroke="#666666" points="545.25,-79.5 395.75,-79.5 395.75,-49 545.25,-49 545.25,-79.5"/>
<text text-anchor="start" x="403.75" y="-66" font-family="Helvetica,sans-Serif" font-size="10.00">NAudio.Wave.Asio.AsioDriver.</text>
<text text-anchor="middle" x="470.5" y="-54.75" font-family="Helvetica,sans-Serif" font-size="10.00">GetLatencies</text>
</a>
</g>
</g>
<!-- Node6&#45;&gt;Node12 -->
<g id="edge13_Node000006_Node000012" class="edge">
<title>Node6&#45;&gt;Node12</title>
<g id="a_edge13_Node000006_Node000012"><a xlink:title=" ">
<path fill="none" stroke="#63b8ff" d="M342.94,-146.53C348.86,-143.89 354.56,-140.83 359.75,-137.25 381.71,-122.12 374.16,-104.9 395.75,-89.25 397.75,-87.8 399.84,-86.43 402,-85.13"/>
<polygon fill="#63b8ff" stroke="#63b8ff" points="403.29,-88.41 410.49,-80.64 400.01,-82.23 403.29,-88.41"/>
</a>
</g>
</g>
<!-- Node13 -->
<g id="Node000013" class="node">
<title>Node13</title>
<g id="a_Node000013"><a xlink:href="class_n_audio_1_1_wave_1_1_asio_1_1_asio_driver.html#a9b675df63cb0492a589581316375f7e8" target="_top" xlink:title="Retrieves the sample rate from the ASIO driver.">
<polygon fill="white" stroke="#666666" points="545.25,-30.5 395.75,-30.5 395.75,0 545.25,0 545.25,-30.5"/>
<text text-anchor="start" x="403.75" y="-17" font-family="Helvetica,sans-Serif" font-size="10.00">NAudio.Wave.Asio.AsioDriver.</text>
<text text-anchor="middle" x="470.5" y="-5.75" font-family="Helvetica,sans-Serif" font-size="10.00">GetSampleRate</text>
</a>
</g>
</g>
<!-- Node6&#45;&gt;Node13 -->
<g id="edge14_Node000006_Node000013" class="edge">
<title>Node6&#45;&gt;Node13</title>
<g id="a_edge14_Node000006_Node000013"><a xlink:title=" ">
<path fill="none" stroke="#63b8ff" d="M345.42,-147.36C350.61,-144.55 355.47,-141.21 359.75,-137.25 393.48,-106 362.77,-72.3 395.75,-40.25 396.79,-39.24 397.86,-38.28 398.98,-37.35"/>
<polygon fill="#63b8ff" stroke="#63b8ff" points="400.7,-40.42 406.91,-31.84 396.7,-34.67 400.7,-40.42"/>
</a>
</g>
</g>
<!-- Node8 -->
<g id="Node000008" class="node">
<title>Node8</title>
<g id="a_Node000008"><a xlink:href="class_n_audio_1_1_wave_1_1_asio_1_1_asio_driver.html#a76105cefc713c3dcc7e9bfd8dba74735" target="_top" xlink:title="Handles the exception for the ASIO method.">
<polygon fill="white" stroke="#666666" points="730.75,-201.5 581.25,-201.5 581.25,-171 730.75,-171 730.75,-201.5"/>
<text text-anchor="start" x="589.25" y="-188" font-family="Helvetica,sans-Serif" font-size="10.00">NAudio.Wave.Asio.AsioDriver.</text>
<text text-anchor="middle" x="656" y="-176.75" font-family="Helvetica,sans-Serif" font-size="10.00">HandleException</text>
</a>
</g>
</g>
<!-- Node7&#45;&gt;Node8 -->
<g id="edge7_Node000007_Node000008" class="edge">
<title>Node7&#45;&gt;Node8</title>
<g id="a_edge7_Node000007_Node000008"><a xlink:title=" ">
<path fill="none" stroke="#63b8ff" d="M519.74,-244.62C528.29,-241.64 537.07,-238.46 545.25,-235.25 567.48,-226.54 591.77,-215.83 611.83,-206.64"/>
<polygon fill="#63b8ff" stroke="#63b8ff" points="613.21,-209.86 620.83,-202.49 610.28,-203.5 613.21,-209.86"/>
</a>
</g>
</g>
<!-- Node9&#45;&gt;Node8 -->
<g id="edge9_Node000009_Node000008" class="edge">
<title>Node9&#45;&gt;Node8</title>
<g id="a_edge9_Node000009_Node000008"><a xlink:title=" ">
<path fill="none" stroke="#63b8ff" d="M545.61,-201.15C553.52,-200.08 561.61,-198.97 569.64,-197.88"/>
<polygon fill="#63b8ff" stroke="#63b8ff" points="569.98,-201.37 579.41,-196.55 569.03,-194.43 569.98,-201.37"/>
</a>
</g>
</g>
<!-- Node10&#45;&gt;Node8 -->
<g id="edge11_Node000010_Node000008" class="edge">
<title>Node10&#45;&gt;Node8</title>
<g id="a_edge11_Node000010_Node000008"><a xlink:title=" ">
<path fill="none" stroke="#63b8ff" d="M545.61,-171.94C553.52,-172.98 561.61,-174.04 569.64,-175.09"/>
<polygon fill="#63b8ff" stroke="#63b8ff" points="569.04,-178.54 579.41,-176.36 569.95,-171.6 569.04,-178.54"/>
</a>
</g>
</g>
<!-- Node13&#45;&gt;Node8 -->
<g id="edge15_Node000013_Node000008" class="edge">
<title>Node13&#45;&gt;Node8</title>
<g id="a_edge15_Node000013_Node000008"><a xlink:title=" ">
<path fill="none" stroke="#63b8ff" d="M529.17,-30.93C534.85,-33.6 540.32,-36.68 545.25,-40.25 589.79,-72.49 624.35,-128.04 642.01,-160.53"/>
<polygon fill="#63b8ff" stroke="#63b8ff" points="638.86,-162.06 646.63,-169.26 645.04,-158.78 638.86,-162.06"/>
</a>
</g>
</g>
</g>
</svg>
