<?xml version="1.0" encoding="UTF-8" standalone="no"?>
<!DOCTYPE svg PUBLIC "-//W3C//DTD SVG 1.1//EN"
 "http://www.w3.org/Graphics/SVG/1.1/DTD/svg11.dtd">
<!-- Generated by graphviz version 10.0.1 (20240210.2158)
 -->
<!-- Title: xeno_rat_server.Utils.ConnectAndSetupAsync Pages: 1 -->
<!--zoomable 599 -->

<svg id="main" version="1.1" xmlns="http://www.w3.org/2000/svg" xmlns:xlink="http://www.w3.org/1999/xlink" xml:space="preserve" onload="init(evt)">
<style type="text/css"><![CDATA[
.node, .edge {opacity: 0.7;}
.node.selected, .edge.selected {opacity: 1;}
.edge:hover path { stroke: red; }
.edge:hover polygon { stroke: red; fill: red; }
]]></style>

<defs>
  <circle id="rim" cx="0" cy="0" r="7"/>
  <circle id="rim2" cx="0" cy="0" r="3.5"/>
  <g id="zoomPlus">
    <use xlink:href="#rim" fill="#404040"><set attributeName="fill" to="#808080" begin="zoomplus.mouseover" end="zoomplus.mouseout"/></use>
    <path d="M-4,0h8M0,-4v8" fill="none" stroke="white" stroke-width="1.5" pointer-events="none"/>
  </g>
  <g id="zoomMin">
    <use xlink:href="#rim" fill="#404040"><set attributeName="fill" to="#808080" begin="zoomminus.mouseover" end="zoomminus.mouseout"/></use>
    <path d="M-4,0h8" fill="none" stroke="white" stroke-width="1.5" pointer-events="none"/>
  </g>
  <g id="arrowUp" transform="translate(30 24)">
    <use xlink:href="#rim"/>
    <path pointer-events="none" fill="none" stroke="white" stroke-width="1.5" d="M0,-3.0v7 M-2.5,-0.5L0,-3.0L2.5,-0.5"/>
  </g>
  <g id="arrowRight" transform="rotate(90) translate(36 -43)">
    <use xlink:href="#rim"/>
    <path pointer-events="none" fill="none" stroke="white" stroke-width="1.5" d="M0,-3.0v7 M-2.5,-0.5L0,-3.0L2.5,-0.5"/>
  </g>
  <g id="arrowDown" transform="rotate(180) translate(-30 -48)">
    <use xlink:href="#rim"/>
    <path pointer-events="none" fill="none" stroke="white" stroke-width="1.5" d="M0,-3.0v7 M-2.5,-0.5L0,-3.0L2.5,-0.5"/>
  </g>
  <g id="arrowLeft" transform="rotate(270) translate(-36 17)">
    <use xlink:href="#rim"/>
    <path pointer-events="none" fill="none" stroke="white" stroke-width="1.5" d="M0,-3.0v7 M-2.5,-0.5L0,-3.0L2.5,-0.5"/>
  </g>
  <g id="resetDef">
    <use xlink:href="#rim2" fill="#404040"><set attributeName="fill" to="#808080" begin="reset.mouseover" end="reset.mouseout"/></use>
  </g>
</defs>
<script type="application/ecmascript">
var viewWidth = 1150;
var viewHeight = 599;
var sectionId = 'dynsection-4';
</script>
<script type="application/ecmascript" xlink:href="svg.min.js"/>
<svg id="graph" class="graph">
<g id="viewport">
<title>xeno_rat_server.Utils.ConnectAndSetupAsync</title>
<!-- Node1 -->
<g id="Node000001" class="node">
<title>Node1</title>
<g id="a_Node000001"><a xlink:title="Connects to a socket, sets up a node using the provided key and ID, and returns the node.">
<polygon fill="#999999" stroke="#666666" points="148,-378.5 0,-378.5 0,-348 148,-348 148,-378.5"/>
<text text-anchor="start" x="8" y="-365" font-family="Helvetica,sans-Serif" font-size="10.00">xeno_rat_server.Utils.Connect</text>
<text text-anchor="middle" x="74" y="-353.75" font-family="Helvetica,sans-Serif" font-size="10.00">AndSetupAsync</text>
</a>
</g>
</g>
<!-- Node2 -->
<g id="Node000002" class="node">
<title>Node2</title>
<g id="a_Node000002"><a xlink:href="classxeno__rat__server_1_1_node.html#a98d3162a6e6e742ddc8f512ea876c0ce" target="_top" xlink:title="Authenticates the client with the server using a random key exchange and returns a boolean indicating...">
<polygon fill="white" stroke="#666666" points="353,-378.5 184,-378.5 184,-348 353,-348 353,-378.5"/>
<text text-anchor="start" x="192" y="-365" font-family="Helvetica,sans-Serif" font-size="10.00">xeno_rat_server.Node.Authenticate</text>
<text text-anchor="middle" x="268.5" y="-353.75" font-family="Helvetica,sans-Serif" font-size="10.00">Async</text>
</a>
</g>
</g>
<!-- Node1&#45;&gt;Node2 -->
<g id="edge1_Node000001_Node000002" class="edge">
<title>Node1&#45;&gt;Node2</title>
<g id="a_edge1_Node000001_Node000002"><a xlink:title=" ">
<path fill="none" stroke="#63b8ff" d="M148.33,-363.25C156.2,-363.25 164.29,-363.25 172.36,-363.25"/>
<polygon fill="#63b8ff" stroke="#63b8ff" points="172.24,-366.75 182.24,-363.25 172.24,-359.75 172.24,-366.75"/>
</a>
</g>
</g>
<!-- Node3 -->
<g id="Node000003" class="node">
<title>Node3</title>
<g id="a_Node000003"><a xlink:href="classxeno__rat__server_1_1_node.html#aad835cc0bfe62187ba14a2808bdb53b3" target="_top" xlink:title="Compares two byte arrays and returns true if they are equal; otherwise, false.">
<polygon fill="white" stroke="#666666" points="533.62,-590.5 399.12,-590.5 399.12,-560 533.62,-560 533.62,-590.5"/>
<text text-anchor="start" x="407.12" y="-577" font-family="Helvetica,sans-Serif" font-size="10.00">xeno_rat_server.Node.Byte</text>
<text text-anchor="middle" x="466.38" y="-565.75" font-family="Helvetica,sans-Serif" font-size="10.00">ArrayCompare</text>
</a>
</g>
</g>
<!-- Node2&#45;&gt;Node3 -->
<g id="edge2_Node000002_Node000003" class="edge">
<title>Node2&#45;&gt;Node3</title>
<g id="a_edge2_Node000002_Node000003"><a xlink:title=" ">
<path fill="none" stroke="#63b8ff" d="M275.67,-378.86C290.2,-413.74 329.88,-498.67 389,-546.25 392.73,-549.25 396.8,-551.96 401.06,-554.41"/>
<polygon fill="#63b8ff" stroke="#63b8ff" points="399.44,-557.51 409.93,-558.97 402.64,-551.29 399.44,-557.51"/>
</a>
</g>
</g>
<!-- Node5 -->
<g id="Node000005" class="node">
<title>Node5</title>
<g id="a_Node000005"><a xlink:href="classxeno__rat__server_1_1_socket_handler.html#a68836e871124cbda8a644223a73421d0" target="_top" xlink:title="Converts the specified byte array to an integer value.">
<polygon fill="white" stroke="#666666" points="1142.25,-484.5 987.5,-484.5 987.5,-454 1142.25,-454 1142.25,-484.5"/>
<text text-anchor="start" x="995.5" y="-471" font-family="Helvetica,sans-Serif" font-size="10.00">xeno_rat_server.SocketHandler.</text>
<text text-anchor="middle" x="1064.88" y="-459.75" font-family="Helvetica,sans-Serif" font-size="10.00">BytesToInt</text>
</a>
</g>
</g>
<!-- Node2&#45;&gt;Node5 -->
<g id="edge4_Node000002_Node000005" class="edge">
<title>Node2&#45;&gt;Node5</title>
<g id="a_edge4_Node000002_Node000005"><a xlink:title=" ">
<path fill="none" stroke="#63b8ff" d="M279.85,-378.99C298.28,-405.61 339.54,-459.05 389,-484.25 594.3,-588.86 882.33,-523.94 1004.91,-488.19"/>
<polygon fill="#63b8ff" stroke="#63b8ff" points="1005.86,-491.56 1014.45,-485.36 1003.87,-484.85 1005.86,-491.56"/>
</a>
</g>
</g>
<!-- Node6 -->
<g id="Node000006" class="node">
<title>Node6</title>
<g id="a_Node000006"><a xlink:href="classxeno__rat__server_1_1_node.html#a8814edd98b6463f49812be32d5928763" target="_top" xlink:title="Sets the isDisposed flag to true and disconnects the socket, disposes resources, and triggers the OnD...">
<polygon fill="white" stroke="#666666" points="743.5,-485.88 579.75,-485.88 579.75,-466.62 743.5,-466.62 743.5,-485.88"/>
<text text-anchor="middle" x="661.62" y="-472.38" font-family="Helvetica,sans-Serif" font-size="10.00">xeno_rat_server.Node.Disconnect</text>
</a>
</g>
</g>
<!-- Node2&#45;&gt;Node6 -->
<g id="edge5_Node000002_Node000006" class="edge">
<title>Node2&#45;&gt;Node6</title>
<g id="a_edge5_Node000002_Node000006"><a xlink:title=" ">
<path fill="none" stroke="#63b8ff" d="M283.08,-378.85C303.5,-401.07 344.5,-441.05 389,-458.25 445.79,-480.21 514.22,-484.62 568.18,-483.59"/>
<polygon fill="#63b8ff" stroke="#63b8ff" points="568.05,-487.1 577.96,-483.33 567.87,-480.1 568.05,-487.1"/>
</a>
</g>
</g>
<!-- Node7 -->
<g id="Node000007" class="node">
<title>Node7</title>
<g id="a_Node000007"><a xlink:href="classxeno__rat__server_1_1_node.html#a5ace1848e1939bef11870fb68b2f5f16" target="_top" xlink:title="Generates a byte array of the specified size filled with random values.">
<polygon fill="white" stroke="#666666" points="531.38,-449.5 401.38,-449.5 401.38,-419 531.38,-419 531.38,-449.5"/>
<text text-anchor="start" x="409.38" y="-436" font-family="Helvetica,sans-Serif" font-size="10.00">xeno_rat_server.Node.Get</text>
<text text-anchor="middle" x="466.38" y="-424.75" font-family="Helvetica,sans-Serif" font-size="10.00">ByteArray</text>
</a>
</g>
</g>
<!-- Node2&#45;&gt;Node7 -->
<g id="edge7_Node000002_Node000007" class="edge">
<title>Node2&#45;&gt;Node7</title>
<g id="a_edge7_Node000002_Node000007"><a xlink:title=" ">
<path fill="none" stroke="#63b8ff" d="M308.87,-378.99C332.08,-388.12 362.09,-399.67 389,-409.25 394.37,-411.16 399.96,-413.1 405.58,-415"/>
<polygon fill="#63b8ff" stroke="#63b8ff" points="404.33,-418.27 414.92,-418.13 406.55,-411.64 404.33,-418.27"/>
</a>
</g>
</g>
<!-- Node8 -->
<g id="Node000008" class="node">
<title>Node8</title>
<g id="a_Node000008"><a xlink:href="classxeno__rat__server_1_1_node.html#a9041a8e92ae90df99a00852c1993f6b2" target="_top" xlink:title="Asynchronously receives a byte array from the socket, converts it to an integer representing the sock...">
<polygon fill="white" stroke="#666666" points="531.38,-400.5 401.38,-400.5 401.38,-370 531.38,-370 531.38,-400.5"/>
<text text-anchor="start" x="409.38" y="-387" font-family="Helvetica,sans-Serif" font-size="10.00">xeno_rat_server.Node.Get</text>
<text text-anchor="middle" x="466.38" y="-375.75" font-family="Helvetica,sans-Serif" font-size="10.00">SocketType</text>
</a>
</g>
</g>
<!-- Node2&#45;&gt;Node8 -->
<g id="edge8_Node000002_Node000008" class="edge">
<title>Node2&#45;&gt;Node8</title>
<g id="a_edge8_Node000002_Node000008"><a xlink:title=" ">
<path fill="none" stroke="#63b8ff" d="M353.42,-372.68C365.54,-374.04 377.95,-375.43 389.89,-376.77"/>
<polygon fill="#63b8ff" stroke="#63b8ff" points="389.33,-380.23 399.66,-377.87 390.12,-373.28 389.33,-380.23"/>
</a>
</g>
</g>
<!-- Node9 -->
<g id="Node000009" class="node">
<title>Node9</title>
<g id="a_Node000009"><a xlink:href="classxeno__rat__server_1_1_socket_handler.html#a40a6f3b7eb555e8d688ea5c0074ffa2c" target="_top" xlink:title="Asynchronously receives data and processes it according to the protocol, then returns the processed d...">
<polygon fill="white" stroke="#666666" points="739,-364.5 584.25,-364.5 584.25,-334 739,-334 739,-364.5"/>
<text text-anchor="start" x="592.25" y="-351" font-family="Helvetica,sans-Serif" font-size="10.00">xeno_rat_server.SocketHandler.</text>
<text text-anchor="middle" x="661.62" y="-339.75" font-family="Helvetica,sans-Serif" font-size="10.00">ReceiveAsync</text>
</a>
</g>
</g>
<!-- Node2&#45;&gt;Node9 -->
<g id="edge21_Node000002_Node000009" class="edge">
<title>Node2&#45;&gt;Node9</title>
<g id="a_edge21_Node000002_Node000009"><a xlink:title=" ">
<path fill="none" stroke="#63b8ff" d="M353.41,-360.25C418.02,-357.93 507.08,-354.75 572.68,-352.4"/>
<polygon fill="#63b8ff" stroke="#63b8ff" points="572.44,-355.91 582.31,-352.05 572.19,-348.91 572.44,-355.91"/>
</a>
</g>
</g>
<!-- Node16 -->
<g id="Node000016" class="node">
<title>Node16</title>
<g id="a_Node000016"><a xlink:href="classxeno__rat__server_1_1_socket_handler.html#a7d019c5e4cbd0138d155156c7a7c5a8f" target="_top" xlink:title="Converts an integer to a byte array.">
<polygon fill="white" stroke="#666666" points="739,-312.5 584.25,-312.5 584.25,-282 739,-282 739,-312.5"/>
<text text-anchor="start" x="592.25" y="-299" font-family="Helvetica,sans-Serif" font-size="10.00">xeno_rat_server.SocketHandler.</text>
<text text-anchor="middle" x="661.62" y="-287.75" font-family="Helvetica,sans-Serif" font-size="10.00">IntToBytes</text>
</a>
</g>
</g>
<!-- Node2&#45;&gt;Node16 -->
<g id="edge20_Node000002_Node000016" class="edge">
<title>Node2&#45;&gt;Node16</title>
<g id="a_edge20_Node000002_Node000016"><a xlink:title=" ">
<path fill="none" stroke="#63b8ff" d="M353.41,-349.09C418.02,-338.19 507.08,-323.16 572.68,-312.09"/>
<polygon fill="#63b8ff" stroke="#63b8ff" points="573.05,-315.58 582.33,-310.46 571.89,-308.67 573.05,-315.58"/>
</a>
</g>
</g>
<!-- Node17 -->
<g id="Node000017" class="node">
<title>Node17</title>
<g id="a_Node000017"><a xlink:href="classxeno__rat__server_1_1_socket_handler.html#a588f4c3e3a64a6a504f2297d517e49c2" target="_top" xlink:title="Resets the receive timeout for the socket.">
<polygon fill="white" stroke="#666666" points="543.75,-276.5 389,-276.5 389,-246 543.75,-246 543.75,-276.5"/>
<text text-anchor="start" x="397" y="-263" font-family="Helvetica,sans-Serif" font-size="10.00">xeno_rat_server.SocketHandler.</text>
<text text-anchor="middle" x="466.38" y="-251.75" font-family="Helvetica,sans-Serif" font-size="10.00">ResetRecvTimeout</text>
</a>
</g>
</g>
<!-- Node2&#45;&gt;Node17 -->
<g id="edge22_Node000002_Node000017" class="edge">
<title>Node2&#45;&gt;Node17</title>
<g id="a_edge22_Node000002_Node000017"><a xlink:title=" ">
<path fill="none" stroke="#63b8ff" d="M292.13,-347.67C315.65,-331.91 353.85,-307.47 389,-290.25 395.59,-287.02 402.63,-283.91 409.68,-281.01"/>
<polygon fill="#63b8ff" stroke="#63b8ff" points="410.56,-284.43 418.55,-277.47 407.97,-277.93 410.56,-284.43"/>
</a>
</g>
</g>
<!-- Node18 -->
<g id="Node000018" class="node">
<title>Node18</title>
<g id="a_Node000018"><a xlink:href="classxeno__rat__server_1_1_socket_handler.html#a85ca8385d023521cdb86ff8ae688adee" target="_top" xlink:title="Sends the provided data asynchronously over the socket.">
<polygon fill="white" stroke="#666666" points="543.75,-203.5 389,-203.5 389,-173 543.75,-173 543.75,-203.5"/>
<text text-anchor="start" x="397" y="-190" font-family="Helvetica,sans-Serif" font-size="10.00">xeno_rat_server.SocketHandler.</text>
<text text-anchor="middle" x="466.38" y="-178.75" font-family="Helvetica,sans-Serif" font-size="10.00">SendAsync</text>
</a>
</g>
</g>
<!-- Node2&#45;&gt;Node18 -->
<g id="edge23_Node000002_Node000018" class="edge">
<title>Node2&#45;&gt;Node18</title>
<g id="a_edge23_Node000002_Node000018"><a xlink:title=" ">
<path fill="none" stroke="#63b8ff" d="M282.06,-347.75C302.76,-322.77 346.02,-272.8 389,-237.25 400.99,-227.33 415.11,-217.76 427.92,-209.76"/>
<polygon fill="#63b8ff" stroke="#63b8ff" points="429.4,-212.96 436.11,-204.76 425.75,-206.98 429.4,-212.96"/>
</a>
</g>
</g>
<!-- Node26 -->
<g id="Node000026" class="node">
<title>Node26</title>
<g id="a_Node000026"><a xlink:href="classxeno__rat__server_1_1_socket_handler.html#a7926f33c418e837d4de5c60fa6eee567" target="_top" xlink:title="Sets the receive timeout for the socket.">
<polygon fill="white" stroke="#666666" points="543.75,-154.5 389,-154.5 389,-124 543.75,-124 543.75,-154.5"/>
<text text-anchor="start" x="397" y="-141" font-family="Helvetica,sans-Serif" font-size="10.00">xeno_rat_server.SocketHandler.</text>
<text text-anchor="middle" x="466.38" y="-129.75" font-family="Helvetica,sans-Serif" font-size="10.00">SetRecvTimeout</text>
</a>
</g>
</g>
<!-- Node2&#45;&gt;Node26 -->
<g id="edge32_Node000002_Node000026" class="edge">
<title>Node2&#45;&gt;Node26</title>
<g id="a_edge32_Node000002_Node000026"><a xlink:title=" ">
<path fill="none" stroke="#63b8ff" d="M274.52,-347.75C287.37,-310.5 325.04,-215.25 389,-164.25 390.54,-163.02 392.14,-161.86 393.79,-160.75"/>
<polygon fill="#63b8ff" stroke="#63b8ff" points="395.51,-163.79 402.4,-155.74 392,-157.74 395.51,-163.79"/>
</a>
</g>
</g>
<!-- Node4 -->
<g id="Node000004" class="node">
<title>Node4</title>
<g id="a_Node000004"><a xlink:href="classxeno__rat__server_1_1_node.html#adb0e7540748755295927a6a81353f353" target="_top" xlink:title="Compares two arrays of bytes and returns an integer that indicates their relative position in lexicog...">
<polygon fill="white" stroke="#666666" points="739,-584.88 584.25,-584.88 584.25,-565.62 739,-565.62 739,-584.88"/>
<text text-anchor="middle" x="661.62" y="-571.38" font-family="Helvetica,sans-Serif" font-size="10.00">xeno_rat_server.Node.memcmp</text>
</a>
</g>
</g>
<!-- Node3&#45;&gt;Node4 -->
<g id="edge3_Node000003_Node000004" class="edge">
<title>Node3&#45;&gt;Node4</title>
<g id="a_edge3_Node000003_Node000004"><a xlink:title=" ">
<path fill="none" stroke="#63b8ff" d="M533.88,-575.25C546.38,-575.25 559.62,-575.25 572.66,-575.25"/>
<polygon fill="#63b8ff" stroke="#63b8ff" points="572.52,-578.75 582.52,-575.25 572.52,-571.75 572.52,-578.75"/>
</a>
</g>
</g>
<!-- Node6&#45;&gt;Node6 -->
<g id="edge6_Node000006_Node000006" class="edge">
<title>Node6&#45;&gt;Node6</title>
<g id="a_edge6_Node000006_Node000006"><a xlink:title=" ">
<path fill="none" stroke="#63b8ff" d="M631.06,-486.16C617.11,-494.77 627.3,-503.88 661.62,-503.88 681.47,-503.88 693.24,-500.83 696.95,-496.6"/>
<polygon fill="#63b8ff" stroke="#63b8ff" points="700.16,-495.19 692.82,-487.54 693.79,-498.09 700.16,-495.19"/>
</a>
</g>
</g>
<!-- Node8&#45;&gt;Node5 -->
<g id="edge9_Node000008_Node000005" class="edge">
<title>Node8&#45;&gt;Node5</title>
<g id="a_edge9_Node000008_Node000005"><a xlink:title=" ">
<path fill="none" stroke="#63b8ff" d="M516.74,-400.97C577.73,-419.56 685.04,-449.59 779.5,-462.25 844.87,-471.01 919.43,-472.54 975.8,-471.99"/>
<polygon fill="#63b8ff" stroke="#63b8ff" points="975.71,-475.49 985.67,-471.87 975.62,-468.49 975.71,-475.49"/>
</a>
</g>
</g>
<!-- Node8&#45;&gt;Node6 -->
<g id="edge10_Node000008_Node000006" class="edge">
<title>Node8&#45;&gt;Node6</title>
<g id="a_edge10_Node000008_Node000006"><a xlink:title=" ">
<path fill="none" stroke="#63b8ff" d="M526.47,-400.92C532.53,-403.59 538.41,-406.68 543.75,-410.25 564.19,-423.91 559.12,-438.87 579.75,-452.25 585.94,-456.27 592.83,-459.63 599.9,-462.44"/>
<polygon fill="#63b8ff" stroke="#63b8ff" points="598.31,-465.59 608.9,-465.67 600.67,-459 598.31,-465.59"/>
</a>
</g>
</g>
<!-- Node8&#45;&gt;Node9 -->
<g id="edge11_Node000008_Node000009" class="edge">
<title>Node8&#45;&gt;Node9</title>
<g id="a_edge11_Node000008_Node000009"><a xlink:title=" ">
<path fill="none" stroke="#63b8ff" d="M531.72,-373.26C544.89,-370.81 558.97,-368.19 572.8,-365.61"/>
<polygon fill="#63b8ff" stroke="#63b8ff" points="573.14,-369.11 582.33,-363.84 571.85,-362.23 573.14,-369.11"/>
</a>
</g>
</g>
<!-- Node9&#45;&gt;Node5 -->
<g id="edge13_Node000009_Node000005" class="edge">
<title>Node9&#45;&gt;Node5</title>
<g id="a_edge13_Node000009_Node000005"><a xlink:title=" ">
<path fill="none" stroke="#63b8ff" d="M679.29,-364.93C700.68,-384.06 739.79,-415.74 779.5,-431.25 842.35,-455.8 918.32,-465.01 975.92,-468.24"/>
<polygon fill="#63b8ff" stroke="#63b8ff" points="975.51,-471.72 985.67,-468.73 975.86,-464.73 975.51,-471.72"/>
</a>
</g>
</g>
<!-- Node10 -->
<g id="Node000010" class="node">
<title>Node10</title>
<g id="a_Node000010"><a xlink:href="classxeno__rat__server_1_1_socket_handler.html#a53169a2098514698865b69c8fab12f77" target="_top" xlink:title="Truncates the input byte array starting from the specified offset and returns the truncated byte arra...">
<polygon fill="white" stroke="#666666" points="942.88,-422.5 788.12,-422.5 788.12,-392 942.88,-392 942.88,-422.5"/>
<text text-anchor="start" x="796.12" y="-409" font-family="Helvetica,sans-Serif" font-size="10.00">xeno_rat_server.SocketHandler.</text>
<text text-anchor="middle" x="865.5" y="-397.75" font-family="Helvetica,sans-Serif" font-size="10.00">BTruncate</text>
</a>
</g>
</g>
<!-- Node9&#45;&gt;Node10 -->
<g id="edge12_Node000009_Node000010" class="edge">
<title>Node9&#45;&gt;Node10</title>
<g id="a_edge12_Node000009_Node000010"><a xlink:title=" ">
<path fill="none" stroke="#63b8ff" d="M717.26,-364.95C742.39,-372.17 772.42,-380.79 798.78,-388.37"/>
<polygon fill="#63b8ff" stroke="#63b8ff" points="797.79,-391.73 808.37,-391.12 799.73,-385 797.79,-391.73"/>
</a>
</g>
</g>
<!-- Node11 -->
<g id="Node000011" class="node">
<title>Node11</title>
<g id="a_Node000011"><a xlink:href="classxeno__rat__server_1_1_compression.html#ad992bb75126d7c346fe7884dbbcf8ad8" target="_top" xlink:title="Decompresses the input buffer using the LZNT1 compression format and returns the decompressed data.">
<polygon fill="white" stroke="#666666" points="939.88,-275.5 791.12,-275.5 791.12,-245 939.88,-245 939.88,-275.5"/>
<text text-anchor="start" x="799.12" y="-262" font-family="Helvetica,sans-Serif" font-size="10.00">xeno_rat_server.Compression.</text>
<text text-anchor="middle" x="865.5" y="-250.75" font-family="Helvetica,sans-Serif" font-size="10.00">Decompress</text>
</a>
</g>
</g>
<!-- Node9&#45;&gt;Node11 -->
<g id="edge14_Node000009_Node000011" class="edge">
<title>Node9&#45;&gt;Node11</title>
<g id="a_edge14_Node000009_Node000011"><a xlink:title=" ">
<path fill="none" stroke="#63b8ff" d="M718.54,-333.63C727.2,-330.17 735.82,-326.06 743.5,-321.25 762.68,-309.24 760.04,-296.8 779.5,-285.25 782.45,-283.5 785.53,-281.87 788.69,-280.34"/>
<polygon fill="#63b8ff" stroke="#63b8ff" points="789.88,-283.64 797.64,-276.43 787.08,-277.22 789.88,-283.64"/>
</a>
</g>
</g>
<!-- Node13 -->
<g id="Node000013" class="node">
<title>Node13</title>
<g id="a_Node000013"><a xlink:href="classxeno__rat__server_1_1_encryption.html#ae2a6537578e2140511afe92f8ad5e964" target="_top" xlink:title="Decrypts the input data using the provided key and returns the decrypted result.">
<polygon fill="white" stroke="#666666" points="934.25,-324.5 796.75,-324.5 796.75,-294 934.25,-294 934.25,-324.5"/>
<text text-anchor="start" x="804.75" y="-311" font-family="Helvetica,sans-Serif" font-size="10.00">xeno_rat_server.Encryption.</text>
<text text-anchor="middle" x="865.5" y="-299.75" font-family="Helvetica,sans-Serif" font-size="10.00">Decrypt</text>
</a>
</g>
</g>
<!-- Node9&#45;&gt;Node13 -->
<g id="edge16_Node000009_Node000013" class="edge">
<title>Node9&#45;&gt;Node13</title>
<g id="a_edge16_Node000009_Node000013"><a xlink:title=" ">
<path fill="none" stroke="#63b8ff" d="M739.23,-334.07C754.4,-331.07 770.35,-327.91 785.59,-324.88"/>
<polygon fill="#63b8ff" stroke="#63b8ff" points="785.93,-328.39 795.06,-323.01 784.57,-321.52 785.93,-328.39"/>
</a>
</g>
</g>
<!-- Node14 -->
<g id="Node000014" class="node">
<title>Node14</title>
<g id="a_Node000014"><a xlink:href="classxeno__rat__server_1_1_socket_handler.html#aeefcafd750efab21954bd772b8ae565d" target="_top" xlink:title="Parses the header from the provided byte array and returns the parsed header object.">
<polygon fill="white" stroke="#666666" points="942.88,-373.5 788.12,-373.5 788.12,-343 942.88,-343 942.88,-373.5"/>
<text text-anchor="start" x="796.12" y="-360" font-family="Helvetica,sans-Serif" font-size="10.00">xeno_rat_server.SocketHandler.</text>
<text text-anchor="middle" x="865.5" y="-348.75" font-family="Helvetica,sans-Serif" font-size="10.00">ParseHeader</text>
</a>
</g>
</g>
<!-- Node9&#45;&gt;Node14 -->
<g id="edge17_Node000009_Node000014" class="edge">
<title>Node9&#45;&gt;Node14</title>
<g id="a_edge17_Node000009_Node000014"><a xlink:title=" ">
<path fill="none" stroke="#63b8ff" d="M739.23,-352.67C751.45,-353.21 764.16,-353.78 776.61,-354.33"/>
<polygon fill="#63b8ff" stroke="#63b8ff" points="776.29,-357.82 786.43,-354.77 776.6,-350.83 776.29,-357.82"/>
</a>
</g>
</g>
<!-- Node15 -->
<g id="Node000015" class="node">
<title>Node15</title>
<g id="a_Node000015"><a xlink:href="classxeno__rat__server_1_1_socket_handler.html#acc7e34649fee5060867a2321dd15d854" target="_top" xlink:title="Asynchronously receives all the data of the specified size from the connected socket and returns the ...">
<polygon fill="white" stroke="#666666" points="942.88,-226.5 788.12,-226.5 788.12,-196 942.88,-196 942.88,-226.5"/>
<text text-anchor="start" x="796.12" y="-213" font-family="Helvetica,sans-Serif" font-size="10.00">xeno_rat_server.SocketHandler.</text>
<text text-anchor="middle" x="865.5" y="-201.75" font-family="Helvetica,sans-Serif" font-size="10.00">RecvAllAsync_ddos_unsafer</text>
</a>
</g>
</g>
<!-- Node9&#45;&gt;Node15 -->
<g id="edge19_Node000009_Node000015" class="edge">
<title>Node9&#45;&gt;Node15</title>
<g id="a_edge19_Node000009_Node000015"><a xlink:title=" ">
<path fill="none" stroke="#63b8ff" d="M725.31,-333.69C731.94,-330.32 738.18,-326.22 743.5,-321.25 773.47,-293.23 748.88,-263.55 779.5,-236.25 780.76,-235.13 782.06,-234.06 783.4,-233.04"/>
<polygon fill="#63b8ff" stroke="#63b8ff" points="785.04,-236.15 791.54,-227.79 781.24,-230.27 785.04,-236.15"/>
</a>
</g>
</g>
<!-- Node12 -->
<g id="Node000012" class="node">
<title>Node12</title>
<g id="a_Node000012"><a xlink:href="classxeno__rat__server_1_1_compression.html#a1c901d319793d3855012549e6a18fe53" target="_top" xlink:title="Decompresses a buffer using the specified compression format and returns the decompressed data.">
<polygon fill="white" stroke="#666666" points="1139.25,-275.5 990.5,-275.5 990.5,-245 1139.25,-245 1139.25,-275.5"/>
<text text-anchor="start" x="998.5" y="-262" font-family="Helvetica,sans-Serif" font-size="10.00">xeno_rat_server.Compression.</text>
<text text-anchor="middle" x="1064.88" y="-250.75" font-family="Helvetica,sans-Serif" font-size="10.00">RtlDecompressBuffer</text>
</a>
</g>
</g>
<!-- Node11&#45;&gt;Node12 -->
<g id="edge15_Node000011_Node000012" class="edge">
<title>Node11&#45;&gt;Node12</title>
<g id="a_edge15_Node000011_Node000012"><a xlink:title=" ">
<path fill="none" stroke="#63b8ff" d="M940.28,-260.25C952.89,-260.25 966.09,-260.25 978.97,-260.25"/>
<polygon fill="#63b8ff" stroke="#63b8ff" points="978.68,-263.75 988.67,-260.25 978.67,-256.75 978.68,-263.75"/>
</a>
</g>
</g>
<!-- Node14&#45;&gt;Node5 -->
<g id="edge18_Node000014_Node000005" class="edge">
<title>Node14&#45;&gt;Node5</title>
<g id="a_edge18_Node000014_Node000005"><a xlink:title=" ">
<path fill="none" stroke="#63b8ff" d="M929.27,-373.84C936.92,-376.57 944.5,-379.7 951.5,-383.25 984.62,-400.06 1017.81,-427 1039.44,-446.25"/>
<polygon fill="#63b8ff" stroke="#63b8ff" points="1036.81,-448.59 1046.57,-452.71 1041.5,-443.4 1036.81,-448.59"/>
</a>
</g>
</g>
<!-- Node18&#45;&gt;Node16 -->
<g id="edge31_Node000018_Node000016" class="edge">
<title>Node18&#45;&gt;Node16</title>
<g id="a_edge31_Node000018_Node000016"><a xlink:title=" ">
<path fill="none" stroke="#63b8ff" d="M495.06,-203.87C528.79,-222.89 585.89,-255.09 623.42,-276.27"/>
<polygon fill="#63b8ff" stroke="#63b8ff" points="621.24,-279.05 631.67,-280.92 624.68,-272.96 621.24,-279.05"/>
</a>
</g>
</g>
<!-- Node19 -->
<g id="Node000019" class="node">
<title>Node19</title>
<g id="a_Node000019"><a xlink:href="classxeno__rat__server_1_1_compression.html#a0f3f31a2fe34d92bf04538b2fdf529e0" target="_top" xlink:title="Compresses the input buffer using the LZNT1 compression format and returns the compressed data.">
<polygon fill="white" stroke="#666666" points="736,-177.5 587.25,-177.5 587.25,-147 736,-147 736,-177.5"/>
<text text-anchor="start" x="595.25" y="-164" font-family="Helvetica,sans-Serif" font-size="10.00">xeno_rat_server.Compression.</text>
<text text-anchor="middle" x="661.62" y="-152.75" font-family="Helvetica,sans-Serif" font-size="10.00">Compress</text>
</a>
</g>
</g>
<!-- Node18&#45;&gt;Node19 -->
<g id="edge24_Node000018_Node000019" class="edge">
<title>Node18&#45;&gt;Node19</title>
<g id="a_edge24_Node000018_Node000019"><a xlink:title=" ">
<path fill="none" stroke="#63b8ff" d="M544.03,-177.94C554.4,-176.54 565.09,-175.1 575.6,-173.69"/>
<polygon fill="#63b8ff" stroke="#63b8ff" points="575.95,-177.17 585.4,-172.37 575.02,-170.24 575.95,-177.17"/>
</a>
</g>
</g>
<!-- Node24 -->
<g id="Node000024" class="node">
<title>Node24</title>
<g id="a_Node000024"><a xlink:href="classxeno__rat__server_1_1_socket_handler.html#a4f2e993b63cf1bba877781c9be2ed496" target="_top" xlink:title="Concatenates two byte arrays and returns the result.">
<polygon fill="white" stroke="#666666" points="739,-128.5 584.25,-128.5 584.25,-98 739,-98 739,-128.5"/>
<text text-anchor="start" x="592.25" y="-115" font-family="Helvetica,sans-Serif" font-size="10.00">xeno_rat_server.SocketHandler.</text>
<text text-anchor="middle" x="661.62" y="-103.75" font-family="Helvetica,sans-Serif" font-size="10.00">Concat</text>
</a>
</g>
</g>
<!-- Node18&#45;&gt;Node24 -->
<g id="edge29_Node000018_Node000024" class="edge">
<title>Node18&#45;&gt;Node24</title>
<g id="a_edge29_Node000018_Node000024"><a xlink:title=" ">
<path fill="none" stroke="#63b8ff" d="M521.98,-172.54C529.44,-169.77 536.88,-166.67 543.75,-163.25 561.19,-154.57 562.24,-146.78 579.75,-138.25 583.65,-136.35 587.73,-134.55 591.89,-132.87"/>
<polygon fill="#63b8ff" stroke="#63b8ff" points="592.83,-136.25 600.94,-129.43 590.35,-129.71 592.83,-136.25"/>
</a>
</g>
</g>
<!-- Node25 -->
<g id="Node000025" class="node">
<title>Node25</title>
<g id="a_Node000025"><a xlink:href="classxeno__rat__server_1_1_encryption.html#a0fafecaba804cb57663bdbb4dcc4e93f" target="_top" xlink:title="Encrypts the input data using the provided key and returns the encrypted result.">
<polygon fill="white" stroke="#666666" points="730.38,-79.5 592.88,-79.5 592.88,-49 730.38,-49 730.38,-79.5"/>
<text text-anchor="start" x="600.88" y="-66" font-family="Helvetica,sans-Serif" font-size="10.00">xeno_rat_server.Encryption.</text>
<text text-anchor="middle" x="661.62" y="-54.75" font-family="Helvetica,sans-Serif" font-size="10.00">Encrypt</text>
</a>
</g>
</g>
<!-- Node18&#45;&gt;Node25 -->
<g id="edge30_Node000018_Node000025" class="edge">
<title>Node18&#45;&gt;Node25</title>
<g id="a_edge30_Node000018_Node000025"><a xlink:title=" ">
<path fill="none" stroke="#63b8ff" d="M530.13,-172.52C535.03,-169.89 539.65,-166.83 543.75,-163.25 571.31,-139.21 551.99,-113.06 579.75,-89.25 581.21,-88 582.73,-86.81 584.3,-85.68"/>
<polygon fill="#63b8ff" stroke="#63b8ff" points="585.81,-88.86 592.5,-80.64 582.15,-82.9 585.81,-88.86"/>
</a>
</g>
</g>
<!-- Node20 -->
<g id="Node000020" class="node">
<title>Node20</title>
<g id="a_Node000020"><a xlink:href="classxeno__rat__server_1_1_compression.html#ae86c8cb19fb340173e6b06816907c485" target="_top" xlink:title="Allocates the specified number of bytes in the local heap and returns a pointer to the allocated memo...">
<polygon fill="white" stroke="#666666" points="939.88,-177.5 791.12,-177.5 791.12,-147 939.88,-147 939.88,-177.5"/>
<text text-anchor="start" x="799.12" y="-164" font-family="Helvetica,sans-Serif" font-size="10.00">xeno_rat_server.Compression.</text>
<text text-anchor="middle" x="865.5" y="-152.75" font-family="Helvetica,sans-Serif" font-size="10.00">LocalAlloc</text>
</a>
</g>
</g>
<!-- Node19&#45;&gt;Node20 -->
<g id="edge25_Node000019_Node000020" class="edge">
<title>Node19&#45;&gt;Node20</title>
<g id="a_edge25_Node000019_Node000020"><a xlink:title=" ">
<path fill="none" stroke="#63b8ff" d="M736.36,-162.25C750.41,-162.25 765.21,-162.25 779.56,-162.25"/>
<polygon fill="#63b8ff" stroke="#63b8ff" points="779.45,-165.75 789.45,-162.25 779.45,-158.75 779.45,-165.75"/>
</a>
</g>
</g>
<!-- Node21 -->
<g id="Node000021" class="node">
<title>Node21</title>
<g id="a_Node000021"><a xlink:href="classxeno__rat__server_1_1_compression.html#ab527e0a594d96bbaa1a4b1541888aa74" target="_top" xlink:title="Frees the memory block allocated by LocalAlloc and LocalReAlloc and invalidates the handle.">
<polygon fill="white" stroke="#666666" points="939.88,-128.5 791.12,-128.5 791.12,-98 939.88,-98 939.88,-128.5"/>
<text text-anchor="start" x="799.12" y="-115" font-family="Helvetica,sans-Serif" font-size="10.00">xeno_rat_server.Compression.</text>
<text text-anchor="middle" x="865.5" y="-103.75" font-family="Helvetica,sans-Serif" font-size="10.00">LocalFree</text>
</a>
</g>
</g>
<!-- Node19&#45;&gt;Node21 -->
<g id="edge26_Node000019_Node000021" class="edge">
<title>Node19&#45;&gt;Node21</title>
<g id="a_edge26_Node000019_Node000021"><a xlink:title=" ">
<path fill="none" stroke="#63b8ff" d="M727.33,-146.54C746.89,-141.8 768.54,-136.54 788.75,-131.64"/>
<polygon fill="#63b8ff" stroke="#63b8ff" points="789.45,-135.07 798.34,-129.31 787.8,-128.27 789.45,-135.07"/>
</a>
</g>
</g>
<!-- Node22 -->
<g id="Node000022" class="node">
<title>Node22</title>
<g id="a_Node000022"><a xlink:href="classxeno__rat__server_1_1_compression.html#a1f9bb20d96d13bdc4d0f90e2b68d4343" target="_top" xlink:title="Compresses the input buffer using the specified compression format and returns the compressed data in...">
<polygon fill="white" stroke="#666666" points="939.88,-79.5 791.12,-79.5 791.12,-49 939.88,-49 939.88,-79.5"/>
<text text-anchor="start" x="799.12" y="-66" font-family="Helvetica,sans-Serif" font-size="10.00">xeno_rat_server.Compression.</text>
<text text-anchor="middle" x="865.5" y="-54.75" font-family="Helvetica,sans-Serif" font-size="10.00">RtlCompressBuffer</text>
</a>
</g>
</g>
<!-- Node19&#45;&gt;Node22 -->
<g id="edge27_Node000019_Node000022" class="edge">
<title>Node19&#45;&gt;Node22</title>
<g id="a_edge27_Node000019_Node000022"><a xlink:title=" ">
<path fill="none" stroke="#63b8ff" d="M726.69,-146.69C732.62,-144.01 738.33,-140.89 743.5,-137.25 765.3,-121.9 757.59,-104.45 779.5,-89.25 781.6,-87.79 783.8,-86.41 786.05,-85.12"/>
<polygon fill="#63b8ff" stroke="#63b8ff" points="787.62,-88.25 794.96,-80.61 784.45,-82 787.62,-88.25"/>
</a>
</g>
</g>
<!-- Node23 -->
<g id="Node000023" class="node">
<title>Node23</title>
<g id="a_Node000023"><a xlink:href="classxeno__rat__server_1_1_compression.html#a5ca090d7b0887e40753bad9800c321e7" target="_top" xlink:title="Retrieves the size of the workspace required for compression.">
<polygon fill="white" stroke="#666666" points="951.5,-30.5 779.5,-30.5 779.5,0 951.5,0 951.5,-30.5"/>
<text text-anchor="start" x="787.5" y="-17" font-family="Helvetica,sans-Serif" font-size="10.00">xeno_rat_server.Compression.</text>
<text text-anchor="middle" x="865.5" y="-5.75" font-family="Helvetica,sans-Serif" font-size="10.00">RtlGetCompressionWorkSpaceSize</text>
</a>
</g>
</g>
<!-- Node19&#45;&gt;Node23 -->
<g id="edge28_Node000019_Node000023" class="edge">
<title>Node19&#45;&gt;Node23</title>
<g id="a_edge28_Node000019_Node000023"><a xlink:title=" ">
<path fill="none" stroke="#63b8ff" d="M730.64,-146.65C735.29,-143.99 739.66,-140.89 743.5,-137.25 776.91,-105.65 745.88,-71.62 779.5,-40.25 780.58,-39.25 781.69,-38.28 782.84,-37.36"/>
<polygon fill="#63b8ff" stroke="#63b8ff" points="784.66,-40.35 790.97,-31.84 780.73,-34.56 784.66,-40.35"/>
</a>
</g>
</g>
</g>
</svg>

<g id="navigator" transform="translate(0 0)" fill="#404254">
  <rect fill="#f2f5e9" fill-opacity="0.5" stroke="#606060" stroke-width=".5" x="0" y="0" width="60" height="60"/>
  <use id="zoomplus" xlink:href="#zoomPlus" x="17" y="9" onmousedown="handleZoom(evt,'in')"/>
  <use id="zoomminus" xlink:href="#zoomMin" x="42" y="9" onmousedown="handleZoom(evt,'out')"/>
  <use id="reset" xlink:href="#resetDef" x="30" y="36" onmousedown="handleReset()"/>
   <use id="arrowup" xlink:href="#arrowUp" x="0" y="0" onmousedown="handlePan(0,-1)"/>
  <use id="arrowright" xlink:href="#arrowRight" x="0" y="0" onmousedown="handlePan(1,0)"/>
  <use id="arrowdown" xlink:href="#arrowDown" x="0" y="0" onmousedown="handlePan(0,1)"/>
  <use id="arrowleft" xlink:href="#arrowLeft" x="0" y="0" onmousedown="handlePan(-1,0)"/>
</g>
<svg viewBox="0 0 15 15" width="100%" height="30px" preserveAspectRatio="xMaxYMin meet">
 <g id="arrow_out" transform="scale(0.3 0.3)">
  <a xlink:href="classxeno__rat__server_1_1_utils_a49fc57040f062689a8b8ef4b4ee505c9_cgraph_org.svg" target="_base">
   <rect id="button" ry="5" rx="5" y="6" x="6" height="38" width="38"
        fill="#f2f5e9" fill-opacity="0.5" stroke="#606060" stroke-width="1.0"/>
   <path id="arrow"
     d="M 11.500037,31.436501 C 11.940474,20.09759 22.043105,11.32322 32.158766,21.979434 L 37.068811,17.246167 C 37.068811,17.246167 37.088388,32 37.088388,32 L 22.160133,31.978069 C 22.160133,31.978069 26.997745,27.140456 26.997745,27.140456 C 18.528582,18.264221 13.291696,25.230495 11.500037,31.436501 z"
     style="fill:#404040;"/>
  </a>
 </g>
</svg>

<style type='text/css'>
<![CDATA[
[data-mouse-over-selected='false'] { opacity: 0.7; }
[data-mouse-over-selected='true']  { opacity: 1.0; }
]]>
</style>
<script type="application/ecmascript"><![CDATA[
document.addEventListener('DOMContentLoaded', (event) => {
  highlightEdges();
  highlightAdjacentNodes();
});
]]></script>
</svg>
