<?xml version="1.0" encoding="UTF-8" standalone="no"?>
<!DOCTYPE svg PUBLIC "-//W3C//DTD SVG 1.1//EN"
 "http://www.w3.org/Graphics/SVG/1.1/DTD/svg11.dtd">
<!-- Generated by graphviz version 10.0.1 (20240210.2158)
 -->
<!-- Title: Plugin.Main.Capture Pages: 1 -->
<!--zoomable 260 -->

<svg id="main" version="1.1" xmlns="http://www.w3.org/2000/svg" xmlns:xlink="http://www.w3.org/1999/xlink" xml:space="preserve" onload="init(evt)">
<style type="text/css"><![CDATA[
.node, .edge {opacity: 0.7;}
.node.selected, .edge.selected {opacity: 1;}
.edge:hover path { stroke: red; }
.edge:hover polygon { stroke: red; fill: red; }
]]></style>

<defs>
  <circle id="rim" cx="0" cy="0" r="7"/>
  <circle id="rim2" cx="0" cy="0" r="3.5"/>
  <g id="zoomPlus">
    <use xlink:href="#rim" fill="#404040"><set attributeName="fill" to="#808080" begin="zoomplus.mouseover" end="zoomplus.mouseout"/></use>
    <path d="M-4,0h8M0,-4v8" fill="none" stroke="white" stroke-width="1.5" pointer-events="none"/>
  </g>
  <g id="zoomMin">
    <use xlink:href="#rim" fill="#404040"><set attributeName="fill" to="#808080" begin="zoomminus.mouseover" end="zoomminus.mouseout"/></use>
    <path d="M-4,0h8" fill="none" stroke="white" stroke-width="1.5" pointer-events="none"/>
  </g>
  <g id="arrowUp" transform="translate(30 24)">
    <use xlink:href="#rim"/>
    <path pointer-events="none" fill="none" stroke="white" stroke-width="1.5" d="M0,-3.0v7 M-2.5,-0.5L0,-3.0L2.5,-0.5"/>
  </g>
  <g id="arrowRight" transform="rotate(90) translate(36 -43)">
    <use xlink:href="#rim"/>
    <path pointer-events="none" fill="none" stroke="white" stroke-width="1.5" d="M0,-3.0v7 M-2.5,-0.5L0,-3.0L2.5,-0.5"/>
  </g>
  <g id="arrowDown" transform="rotate(180) translate(-30 -48)">
    <use xlink:href="#rim"/>
    <path pointer-events="none" fill="none" stroke="white" stroke-width="1.5" d="M0,-3.0v7 M-2.5,-0.5L0,-3.0L2.5,-0.5"/>
  </g>
  <g id="arrowLeft" transform="rotate(270) translate(-36 17)">
    <use xlink:href="#rim"/>
    <path pointer-events="none" fill="none" stroke="white" stroke-width="1.5" d="M0,-3.0v7 M-2.5,-0.5L0,-3.0L2.5,-0.5"/>
  </g>
  <g id="resetDef">
    <use xlink:href="#rim2" fill="#404040"><set attributeName="fill" to="#808080" begin="reset.mouseover" end="reset.mouseout"/></use>
  </g>
</defs>
<script type="application/ecmascript">
var viewWidth = 879;
var viewHeight = 260;
var sectionId = 'dynsection-11';
</script>
<script type="application/ecmascript" xlink:href="svg.min.js"/>
<svg id="graph" class="graph">
<g id="viewport">
<title>Plugin.Main.Capture</title>
<!-- Node1 -->
<g id="Node000001" class="node">
<title>Node1</title>
<g id="a_Node000001"><a xlink:title="Captures a frame and sends it to the specified ImageNode if playing is true.">
<polygon fill="#999999" stroke="#666666" points="104.5,-139.88 0,-139.88 0,-120.62 104.5,-120.62 104.5,-139.88"/>
<text text-anchor="middle" x="52.25" y="-126.38" font-family="Helvetica,sans-Serif" font-size="10.00">Plugin.Main.Capture</text>
</a>
</g>
</g>
<!-- Node2 -->
<g id="Node000002" class="node">
<title>Node2</title>
<g id="a_Node000002"><a xlink:href="class_plugin_1_1_main.html#af99de1ad2dad4b032d911b3c13824d9c" target="_top" xlink:title="Retrieves the image codec information for the specified image format.">
<polygon fill="white" stroke="#666666" points="278.75,-161.88 140.5,-161.88 140.5,-142.62 278.75,-142.62 278.75,-161.88"/>
<text text-anchor="middle" x="209.62" y="-148.38" font-family="Helvetica,sans-Serif" font-size="10.00">Plugin.Main.GetEncoderInfo</text>
</a>
</g>
</g>
<!-- Node1&#45;&gt;Node2 -->
<g id="edge1_Node000001_Node000002" class="edge">
<title>Node1&#45;&gt;Node2</title>
<g id="a_edge1_Node000001_Node000002"><a xlink:title=" ">
<path fill="none" stroke="#63b8ff" d="M104.99,-137.58C112.76,-138.68 120.92,-139.83 129.1,-140.99"/>
<polygon fill="#63b8ff" stroke="#63b8ff" points="128.36,-144.42 138.75,-142.36 129.34,-137.49 128.36,-144.42"/>
</a>
</g>
</g>
<!-- Node3 -->
<g id="Node000003" class="node">
<title>Node3</title>
<g id="a_Node000003"><a xlink:href="classxeno__rat__client_1_1_node.html#afe8db11f190f0a3b146e16a7b14ef490" target="_top" xlink:title="Asynchronously sends the specified data over the socket connection.">
<polygon fill="white" stroke="#666666" points="276.5,-124.5 142.75,-124.5 142.75,-94 276.5,-94 276.5,-124.5"/>
<text text-anchor="start" x="150.75" y="-111" font-family="Helvetica,sans-Serif" font-size="10.00">xeno_rat_client.Node.Send</text>
<text text-anchor="middle" x="209.62" y="-99.75" font-family="Helvetica,sans-Serif" font-size="10.00">Async</text>
</a>
</g>
</g>
<!-- Node1&#45;&gt;Node3 -->
<g id="edge2_Node000001_Node000003" class="edge">
<title>Node1&#45;&gt;Node3</title>
<g id="a_edge2_Node000001_Node000003"><a xlink:title=" ">
<path fill="none" stroke="#63b8ff" d="M104.99,-123.26C113.43,-122.12 122.33,-120.91 131.23,-119.71"/>
<polygon fill="#63b8ff" stroke="#63b8ff" points="131.52,-123.2 140.96,-118.39 130.59,-116.27 131.52,-123.2"/>
</a>
</g>
</g>
<!-- Node4 -->
<g id="Node000004" class="node">
<title>Node4</title>
<g id="a_Node000004"><a xlink:href="classxeno__rat__client_1_1_node.html#aed8a6b3de6ee0efa48945c8b1e6c763e" target="_top" xlink:title="Disconnects the current socket and clears the subNodes list, and invokes the OnDisconnect event if it...">
<polygon fill="white" stroke="#666666" points="475.5,-140.88 314.75,-140.88 314.75,-121.62 475.5,-121.62 475.5,-140.88"/>
<text text-anchor="middle" x="395.12" y="-127.38" font-family="Helvetica,sans-Serif" font-size="10.00">xeno_rat_client.Node.Disconnect</text>
</a>
</g>
</g>
<!-- Node3&#45;&gt;Node4 -->
<g id="edge3_Node000003_Node000004" class="edge">
<title>Node3&#45;&gt;Node4</title>
<g id="a_edge3_Node000003_Node000004"><a xlink:title=" ">
<path fill="none" stroke="#63b8ff" d="M276.87,-117.19C285.46,-118.22 294.38,-119.29 303.28,-120.36"/>
<polygon fill="#63b8ff" stroke="#63b8ff" points="302.67,-123.81 313.02,-121.53 303.51,-116.86 302.67,-123.81"/>
</a>
</g>
</g>
<!-- Node5 -->
<g id="Node000005" class="node">
<title>Node5</title>
<g id="a_Node000005"><a xlink:href="classxeno__rat__client_1_1_socket_handler.html#a4970cfbc960dd288436a9fe80814531d" target="_top" xlink:title="Asynchronously sends the specified data over the socket after compressing, encrypting,...">
<polygon fill="white" stroke="#666666" points="471,-103.5 319.25,-103.5 319.25,-73 471,-73 471,-103.5"/>
<text text-anchor="start" x="327.25" y="-90" font-family="Helvetica,sans-Serif" font-size="10.00">xeno_rat_client.SocketHandler.</text>
<text text-anchor="middle" x="395.12" y="-78.75" font-family="Helvetica,sans-Serif" font-size="10.00">SendAsync</text>
</a>
</g>
</g>
<!-- Node3&#45;&gt;Node5 -->
<g id="edge5_Node000003_Node000005" class="edge">
<title>Node3&#45;&gt;Node5</title>
<g id="a_edge5_Node000003_Node000005"><a xlink:title=" ">
<path fill="none" stroke="#63b8ff" d="M276.87,-101.67C286.9,-100.52 297.37,-99.32 307.74,-98.14"/>
<polygon fill="#63b8ff" stroke="#63b8ff" points="307.9,-101.64 317.44,-97.03 307.11,-94.69 307.9,-101.64"/>
</a>
</g>
</g>
<!-- Node4&#45;&gt;Node4 -->
<g id="edge4_Node000004_Node000004" class="edge">
<title>Node4&#45;&gt;Node4</title>
<g id="a_edge4_Node000004_Node000004"><a xlink:title=" ">
<path fill="none" stroke="#63b8ff" d="M366.08,-141.16C352.84,-149.77 362.52,-158.88 395.12,-158.88 413.98,-158.88 425.16,-155.83 428.69,-151.6"/>
<polygon fill="#63b8ff" stroke="#63b8ff" points="431.96,-150.34 424.77,-142.55 425.53,-153.12 431.96,-150.34"/>
</a>
</g>
</g>
<!-- Node6 -->
<g id="Node000006" class="node">
<title>Node6</title>
<g id="a_Node000006"><a xlink:href="classxeno__rat__client_1_1_compression.html#ab25c4ae61c5c162bdb353676a7d01ca6" target="_top" xlink:title="Compresses the input buffer using the LZNT1 compression format and returns the compressed data.">
<polygon fill="white" stroke="#666666" points="660.25,-177.5 514.5,-177.5 514.5,-147 660.25,-147 660.25,-177.5"/>
<text text-anchor="start" x="522.5" y="-164" font-family="Helvetica,sans-Serif" font-size="10.00">xeno_rat_client.Compression.</text>
<text text-anchor="middle" x="587.38" y="-152.75" font-family="Helvetica,sans-Serif" font-size="10.00">Compress</text>
</a>
</g>
</g>
<!-- Node5&#45;&gt;Node6 -->
<g id="edge6_Node000005_Node000006" class="edge">
<title>Node5&#45;&gt;Node6</title>
<g id="a_edge6_Node000005_Node000006"><a xlink:title=" ">
<path fill="none" stroke="#63b8ff" d="M455.43,-103.93C462.32,-106.41 469.15,-109.18 475.5,-112.25 493.04,-120.73 494.09,-128.52 511.5,-137.25 515.14,-139.08 518.95,-140.82 522.84,-142.47"/>
<polygon fill="#63b8ff" stroke="#63b8ff" points="521.25,-145.6 531.84,-146.05 523.84,-139.1 521.25,-145.6"/>
</a>
</g>
</g>
<!-- Node11 -->
<g id="Node000011" class="node">
<title>Node11</title>
<g id="a_Node000011"><a xlink:href="classxeno__rat__client_1_1_socket_handler.html#aff56eb3e00bf2bb85e2d7696318b4468" target="_top" xlink:title="Concatenates two byte arrays and returns the result.">
<polygon fill="white" stroke="#666666" points="663.25,-128.5 511.5,-128.5 511.5,-98 663.25,-98 663.25,-128.5"/>
<text text-anchor="start" x="519.5" y="-115" font-family="Helvetica,sans-Serif" font-size="10.00">xeno_rat_client.SocketHandler.</text>
<text text-anchor="middle" x="587.38" y="-103.75" font-family="Helvetica,sans-Serif" font-size="10.00">Concat</text>
</a>
</g>
</g>
<!-- Node5&#45;&gt;Node11 -->
<g id="edge11_Node000005_Node000011" class="edge">
<title>Node5&#45;&gt;Node11</title>
<g id="a_edge11_Node000005_Node000011"><a xlink:title=" ">
<path fill="none" stroke="#63b8ff" d="M471.32,-98.13C480.72,-99.37 490.4,-100.64 499.96,-101.89"/>
<polygon fill="#63b8ff" stroke="#63b8ff" points="499.23,-105.33 509.61,-103.16 500.15,-98.39 499.23,-105.33"/>
</a>
</g>
</g>
<!-- Node12 -->
<g id="Node000012" class="node">
<title>Node12</title>
<g id="a_Node000012"><a xlink:href="classxeno__rat__client_1_1_encryption.html#a807a6407c09f993138a2684be0899cb3" target="_top" xlink:title="Encrypts the input data using the provided key and returns the encrypted result.">
<polygon fill="white" stroke="#666666" points="654.62,-79.5 520.12,-79.5 520.12,-49 654.62,-49 654.62,-79.5"/>
<text text-anchor="start" x="528.12" y="-66" font-family="Helvetica,sans-Serif" font-size="10.00">xeno_rat_client.Encryption.</text>
<text text-anchor="middle" x="587.38" y="-54.75" font-family="Helvetica,sans-Serif" font-size="10.00">Encrypt</text>
</a>
</g>
</g>
<!-- Node5&#45;&gt;Node12 -->
<g id="edge12_Node000005_Node000012" class="edge">
<title>Node5&#45;&gt;Node12</title>
<g id="a_edge12_Node000005_Node000012"><a xlink:title=" ">
<path fill="none" stroke="#63b8ff" d="M471.32,-78.76C483.56,-77.22 496.27,-75.62 508.58,-74.06"/>
<polygon fill="#63b8ff" stroke="#63b8ff" points="508.76,-77.57 518.24,-72.85 507.88,-70.62 508.76,-77.57"/>
</a>
</g>
</g>
<!-- Node13 -->
<g id="Node000013" class="node">
<title>Node13</title>
<g id="a_Node000013"><a xlink:href="classxeno__rat__client_1_1_socket_handler.html#a9b4df15d86fe97e366771e3c0568761d" target="_top" xlink:title="Converts an integer to a byte array.">
<polygon fill="white" stroke="#666666" points="663.25,-30.5 511.5,-30.5 511.5,0 663.25,0 663.25,-30.5"/>
<text text-anchor="start" x="519.5" y="-17" font-family="Helvetica,sans-Serif" font-size="10.00">xeno_rat_client.SocketHandler.</text>
<text text-anchor="middle" x="587.38" y="-5.75" font-family="Helvetica,sans-Serif" font-size="10.00">IntToBytes</text>
</a>
</g>
</g>
<!-- Node5&#45;&gt;Node13 -->
<g id="edge13_Node000005_Node000013" class="edge">
<title>Node5&#45;&gt;Node13</title>
<g id="a_edge13_Node000005_Node000013"><a xlink:title=" ">
<path fill="none" stroke="#63b8ff" d="M431.98,-72.55C454.62,-62.83 484.58,-50.33 511.5,-40.25 516.53,-38.37 521.77,-36.47 527.05,-34.62"/>
<polygon fill="#63b8ff" stroke="#63b8ff" points="528.12,-37.95 536.43,-31.38 525.84,-31.34 528.12,-37.95"/>
</a>
</g>
</g>
<!-- Node7 -->
<g id="Node000007" class="node">
<title>Node7</title>
<g id="a_Node000007"><a xlink:href="classxeno__rat__client_1_1_compression.html#abc065f053d0258dd1a7acae93f8332d0" target="_top" xlink:title="Allocates memory in the local heap.">
<polygon fill="white" stroke="#666666" points="858.12,-251.5 712.38,-251.5 712.38,-221 858.12,-221 858.12,-251.5"/>
<text text-anchor="start" x="720.38" y="-238" font-family="Helvetica,sans-Serif" font-size="10.00">xeno_rat_client.Compression.</text>
<text text-anchor="middle" x="785.25" y="-226.75" font-family="Helvetica,sans-Serif" font-size="10.00">LocalAlloc</text>
</a>
</g>
</g>
<!-- Node6&#45;&gt;Node7 -->
<g id="edge7_Node000006_Node000007" class="edge">
<title>Node6&#45;&gt;Node7</title>
<g id="a_edge7_Node000006_Node000007"><a xlink:title=" ">
<path fill="none" stroke="#63b8ff" d="M620.91,-177.97C642.76,-188.19 672.37,-201.41 699.25,-211.25 704.85,-213.3 710.7,-215.3 716.6,-217.22"/>
<polygon fill="#63b8ff" stroke="#63b8ff" points="715.19,-220.45 725.78,-220.13 717.3,-213.78 715.19,-220.45"/>
</a>
</g>
</g>
<!-- Node8 -->
<g id="Node000008" class="node">
<title>Node8</title>
<g id="a_Node000008"><a xlink:href="classxeno__rat__client_1_1_compression.html#a0d2aafc746f145f698a8f1d310ccfbb2" target="_top" xlink:title="Frees the memory block allocated by the LocalAlloc or LocalReAlloc function.">
<polygon fill="white" stroke="#666666" points="858.12,-202.5 712.38,-202.5 712.38,-172 858.12,-172 858.12,-202.5"/>
<text text-anchor="start" x="720.38" y="-189" font-family="Helvetica,sans-Serif" font-size="10.00">xeno_rat_client.Compression.</text>
<text text-anchor="middle" x="785.25" y="-177.75" font-family="Helvetica,sans-Serif" font-size="10.00">LocalFree</text>
</a>
</g>
</g>
<!-- Node6&#45;&gt;Node8 -->
<g id="edge8_Node000006_Node000008" class="edge">
<title>Node6&#45;&gt;Node8</title>
<g id="a_edge8_Node000006_Node000008"><a xlink:title=" ">
<path fill="none" stroke="#63b8ff" d="M660.48,-171.45C673.6,-173.13 687.39,-174.89 700.81,-176.6"/>
<polygon fill="#63b8ff" stroke="#63b8ff" points="700.11,-180.04 710.47,-177.83 701,-173.1 700.11,-180.04"/>
</a>
</g>
</g>
<!-- Node9 -->
<g id="Node000009" class="node">
<title>Node9</title>
<g id="a_Node000009"><a xlink:href="classxeno__rat__client_1_1_compression.html#a9f7d50afed4c3c988eb3e7691cb94581" target="_top" xlink:title="Compresses the input buffer using the specified compression format and returns the compressed data in...">
<polygon fill="white" stroke="#666666" points="858.12,-153.5 712.38,-153.5 712.38,-123 858.12,-123 858.12,-153.5"/>
<text text-anchor="start" x="720.38" y="-140" font-family="Helvetica,sans-Serif" font-size="10.00">xeno_rat_client.Compression.</text>
<text text-anchor="middle" x="785.25" y="-128.75" font-family="Helvetica,sans-Serif" font-size="10.00">RtlCompressBuffer</text>
</a>
</g>
</g>
<!-- Node6&#45;&gt;Node9 -->
<g id="edge9_Node000006_Node000009" class="edge">
<title>Node6&#45;&gt;Node9</title>
<g id="a_edge9_Node000006_Node000009"><a xlink:title=" ">
<path fill="none" stroke="#63b8ff" d="M660.48,-153.42C673.6,-151.81 687.39,-150.12 700.81,-148.47"/>
<polygon fill="#63b8ff" stroke="#63b8ff" points="700.97,-151.98 710.47,-147.29 700.12,-145.03 700.97,-151.98"/>
</a>
</g>
</g>
<!-- Node10 -->
<g id="Node000010" class="node">
<title>Node10</title>
<g id="a_Node000010"><a xlink:href="classxeno__rat__client_1_1_compression.html#ae6d3ee0c8538f67cd80635e6bc1bad03" target="_top" xlink:title="Retrieves the size of the workspace required for compression.">
<polygon fill="white" stroke="#666666" points="871.25,-104.5 699.25,-104.5 699.25,-74 871.25,-74 871.25,-104.5"/>
<text text-anchor="start" x="707.25" y="-91" font-family="Helvetica,sans-Serif" font-size="10.00">xeno_rat_client.Compression.</text>
<text text-anchor="middle" x="785.25" y="-79.75" font-family="Helvetica,sans-Serif" font-size="10.00">RtlGetCompressionWorkSpaceSize</text>
</a>
</g>
</g>
<!-- Node6&#45;&gt;Node10 -->
<g id="edge10_Node000006_Node000010" class="edge">
<title>Node6&#45;&gt;Node10</title>
<g id="a_edge10_Node000006_Node000010"><a xlink:title=" ">
<path fill="none" stroke="#63b8ff" d="M640.99,-146.52C648.58,-143.72 656.2,-140.62 663.25,-137.25 680.38,-129.07 681.97,-122.12 699.25,-114.25 703.5,-112.31 707.94,-110.49 712.47,-108.77"/>
<polygon fill="#63b8ff" stroke="#63b8ff" points="713.46,-112.13 721.7,-105.46 711.1,-105.54 713.46,-112.13"/>
</a>
</g>
</g>
</g>
</svg>

<g id="navigator" transform="translate(0 0)" fill="#404254">
  <rect fill="#f2f5e9" fill-opacity="0.5" stroke="#606060" stroke-width=".5" x="0" y="0" width="60" height="60"/>
  <use id="zoomplus" xlink:href="#zoomPlus" x="17" y="9" onmousedown="handleZoom(evt,'in')"/>
  <use id="zoomminus" xlink:href="#zoomMin" x="42" y="9" onmousedown="handleZoom(evt,'out')"/>
  <use id="reset" xlink:href="#resetDef" x="30" y="36" onmousedown="handleReset()"/>
   <use id="arrowup" xlink:href="#arrowUp" x="0" y="0" onmousedown="handlePan(0,-1)"/>
  <use id="arrowright" xlink:href="#arrowRight" x="0" y="0" onmousedown="handlePan(1,0)"/>
  <use id="arrowdown" xlink:href="#arrowDown" x="0" y="0" onmousedown="handlePan(0,1)"/>
  <use id="arrowleft" xlink:href="#arrowLeft" x="0" y="0" onmousedown="handlePan(-1,0)"/>
</g>
<svg viewBox="0 0 15 15" width="100%" height="30px" preserveAspectRatio="xMaxYMin meet">
 <g id="arrow_out" transform="scale(0.3 0.3)">
  <a xlink:href="class_plugin_1_1_main_aad403be9ef42bd9cafbe29c44aff6ceb_cgraph_org.svg" target="_base">
   <rect id="button" ry="5" rx="5" y="6" x="6" height="38" width="38"
        fill="#f2f5e9" fill-opacity="0.5" stroke="#606060" stroke-width="1.0"/>
   <path id="arrow"
     d="M 11.500037,31.436501 C 11.940474,20.09759 22.043105,11.32322 32.158766,21.979434 L 37.068811,17.246167 C 37.068811,17.246167 37.088388,32 37.088388,32 L 22.160133,31.978069 C 22.160133,31.978069 26.997745,27.140456 26.997745,27.140456 C 18.528582,18.264221 13.291696,25.230495 11.500037,31.436501 z"
     style="fill:#404040;"/>
  </a>
 </g>
</svg>

<style type='text/css'>
<![CDATA[
[data-mouse-over-selected='false'] { opacity: 0.7; }
[data-mouse-over-selected='true']  { opacity: 1.0; }
]]>
</style>
<script type="application/ecmascript"><![CDATA[
document.addEventListener('DOMContentLoaded', (event) => {
  highlightEdges();
  highlightAdjacentNodes();
});
]]></script>
</svg>
