<?xml version="1.0" encoding="UTF-8" standalone="no"?>
<!DOCTYPE svg PUBLIC "-//W3C//DTD SVG 1.1//EN"
 "http://www.w3.org/Graphics/SVG/1.1/DTD/svg11.dtd">
<!-- Generated by graphviz version 10.0.1 (20240210.2158)
 -->
<!-- Title: NAudio.Wave.MediaFoundationEncoder.Dispose Pages: 1 -->
<svg width="368pt" height="57pt"
 viewBox="0.00 0.00 367.75 56.50" xmlns="http://www.w3.org/2000/svg" xmlns:xlink="http://www.w3.org/1999/xlink">
<g id="graph0" class="graph" transform="scale(1 1) rotate(0) translate(4 52.5)">
<title>NAudio.Wave.MediaFoundationEncoder.Dispose</title>
<!-- Node1 -->
<g id="Node000001" class="node">
<title>Node1</title>
<g id="a_Node000001"><a xlink:title="Disposes this instance.">
<polygon fill="#999999" stroke="#666666" points="359.75,-30.5 206.5,-30.5 206.5,0 359.75,0 359.75,-30.5"/>
<text text-anchor="start" x="214.5" y="-17" font-family="Helvetica,sans-Serif" font-size="10.00">NAudio.Wave.MediaFoundation</text>
<text text-anchor="middle" x="283.12" y="-5.75" font-family="Helvetica,sans-Serif" font-size="10.00">Encoder.Dispose</text>
</a>
</g>
</g>
<!-- Node1&#45;&gt;Node1 -->
<g id="edge1_Node000001_Node000001" class="edge">
<title>Node1&#45;&gt;Node1</title>
<g id="a_edge1_Node000001_Node000001"><a xlink:title=" ">
<path fill="none" stroke="#63b8ff" d="M316.31,-42.2C310.88,-45.97 299.82,-48.5 283.12,-48.5 252.59,-48.5 240.91,-40.06 248.06,-30.99"/>
<polygon fill="#63b8ff" stroke="#63b8ff" points="319.74,-42.92 317.94,-32.48 312.83,-41.76 319.74,-42.92"/>
</a>
</g>
</g>
<!-- Node2 -->
<g id="Node000002" class="node">
<title>Node2</title>
<g id="a_Node000002"><a xlink:href="class_n_audio_1_1_wave_1_1_media_foundation_encoder.html#a87d20adca86859934f220685eb59e8bd" target="_top" xlink:title="Finalizer.">
<polygon fill="white" stroke="#666666" points="170.5,-30.5 0,-30.5 0,0 170.5,0 170.5,-30.5"/>
<text text-anchor="start" x="8" y="-17" font-family="Helvetica,sans-Serif" font-size="10.00">NAudio.Wave.MediaFoundation</text>
<text text-anchor="middle" x="85.25" y="-5.75" font-family="Helvetica,sans-Serif" font-size="10.00">Encoder.~MediaFoundationEncoder</text>
</a>
</g>
</g>
<!-- Node1&#45;&gt;Node2 -->
<g id="edge2_Node000001_Node000002" class="edge">
<title>Node1&#45;&gt;Node2</title>
<g id="a_edge2_Node000001_Node000002"><a xlink:title=" ">
<path fill="none" stroke="#63b8ff" d="M194.67,-15.25C186.8,-15.25 178.84,-15.25 171,-15.25"/>
<polygon fill="#63b8ff" stroke="#63b8ff" points="194.6,-18.75 204.6,-15.25 194.6,-11.75 194.6,-18.75"/>
</a>
</g>
</g>
</g>
</svg>
