<?xml version="1.0" encoding="UTF-8" standalone="no"?>
<!DOCTYPE svg PUBLIC "-//W3C//DTD SVG 1.1//EN"
 "http://www.w3.org/Graphics/SVG/1.1/DTD/svg11.dtd">
<!-- Generated by graphviz version 10.0.1 (20240210.2158)
 -->
<!-- Title: NAudio.Wave.SampleProviders.Pcm16BitToSampleProvider.Read Pages: 1 -->
<!--zoomable 88 -->

<svg id="main" version="1.1" xmlns="http://www.w3.org/2000/svg" xmlns:xlink="http://www.w3.org/1999/xlink" xml:space="preserve" onload="init(evt)">
<style type="text/css"><![CDATA[
.node, .edge {opacity: 0.7;}
.node.selected, .edge.selected {opacity: 1;}
.edge:hover path { stroke: red; }
.edge:hover polygon { stroke: red; fill: red; }
]]></style>

<defs>
  <circle id="rim" cx="0" cy="0" r="7"/>
  <circle id="rim2" cx="0" cy="0" r="3.5"/>
  <g id="zoomPlus">
    <use xlink:href="#rim" fill="#404040"><set attributeName="fill" to="#808080" begin="zoomplus.mouseover" end="zoomplus.mouseout"/></use>
    <path d="M-4,0h8M0,-4v8" fill="none" stroke="white" stroke-width="1.5" pointer-events="none"/>
  </g>
  <g id="zoomMin">
    <use xlink:href="#rim" fill="#404040"><set attributeName="fill" to="#808080" begin="zoomminus.mouseover" end="zoomminus.mouseout"/></use>
    <path d="M-4,0h8" fill="none" stroke="white" stroke-width="1.5" pointer-events="none"/>
  </g>
  <g id="arrowUp" transform="translate(30 24)">
    <use xlink:href="#rim"/>
    <path pointer-events="none" fill="none" stroke="white" stroke-width="1.5" d="M0,-3.0v7 M-2.5,-0.5L0,-3.0L2.5,-0.5"/>
  </g>
  <g id="arrowRight" transform="rotate(90) translate(36 -43)">
    <use xlink:href="#rim"/>
    <path pointer-events="none" fill="none" stroke="white" stroke-width="1.5" d="M0,-3.0v7 M-2.5,-0.5L0,-3.0L2.5,-0.5"/>
  </g>
  <g id="arrowDown" transform="rotate(180) translate(-30 -48)">
    <use xlink:href="#rim"/>
    <path pointer-events="none" fill="none" stroke="white" stroke-width="1.5" d="M0,-3.0v7 M-2.5,-0.5L0,-3.0L2.5,-0.5"/>
  </g>
  <g id="arrowLeft" transform="rotate(270) translate(-36 17)">
    <use xlink:href="#rim"/>
    <path pointer-events="none" fill="none" stroke="white" stroke-width="1.5" d="M0,-3.0v7 M-2.5,-0.5L0,-3.0L2.5,-0.5"/>
  </g>
  <g id="resetDef">
    <use xlink:href="#rim2" fill="#404040"><set attributeName="fill" to="#808080" begin="reset.mouseover" end="reset.mouseout"/></use>
  </g>
</defs>
<script type="application/ecmascript">
var viewWidth = 565;
var viewHeight = 88;
var sectionId = 'dynsection-2';
</script>
<script type="application/ecmascript" xlink:href="svg.min.js"/>
<svg id="graph" class="graph">
<g id="viewport">
<title>NAudio.Wave.SampleProviders.Pcm16BitToSampleProvider.Read</title>
<!-- Node1 -->
<g id="Node000001" class="node">
<title>Node1</title>
<g id="a_Node000001"><a xlink:title="Reads a specified number of floating&#45;point values from the source buffer and stores them in the provi...">
<polygon fill="#999999" stroke="#666666" points="163.75,-48.88 0,-48.88 0,-18.38 163.75,-18.38 163.75,-48.88"/>
<text text-anchor="start" x="8" y="-35.38" font-family="Helvetica,sans-Serif" font-size="10.00">NAudio.Wave.SampleProviders.</text>
<text text-anchor="middle" x="81.88" y="-24.12" font-family="Helvetica,sans-Serif" font-size="10.00">Pcm16BitToSampleProvider.Read</text>
</a>
</g>
</g>
<!-- Node2 -->
<g id="Node000002" class="node">
<title>Node2</title>
<g id="a_Node000002"><a xlink:href="class_n_audio_1_1_wave_1_1_sample_providers_1_1_sample_provider_converter_base.html#acdcb6e7350e2c11526bf7c6980fbebc3" target="_top" xlink:title="Ensures that the source buffer has enough capacity to accommodate the specified number of bytes requi...">
<polygon fill="white" stroke="#666666" points="383.75,-79.5 199.75,-79.5 199.75,-37.75 383.75,-37.75 383.75,-79.5"/>
<text text-anchor="start" x="207.75" y="-66" font-family="Helvetica,sans-Serif" font-size="10.00">NAudio.Wave.SampleProviders.</text>
<text text-anchor="start" x="207.75" y="-54.75" font-family="Helvetica,sans-Serif" font-size="10.00">SampleProviderConverterBase.Ensure</text>
<text text-anchor="middle" x="291.75" y="-43.5" font-family="Helvetica,sans-Serif" font-size="10.00">SourceBuffer</text>
</a>
</g>
</g>
<!-- Node1&#45;&gt;Node2 -->
<g id="edge1_Node000001_Node000002" class="edge">
<title>Node1&#45;&gt;Node2</title>
<g id="a_edge1_Node000001_Node000002"><a xlink:title=" ">
<path fill="none" stroke="#63b8ff" d="M164.14,-43.4C172.03,-44.35 180.11,-45.32 188.18,-46.29"/>
<polygon fill="#63b8ff" stroke="#63b8ff" points="187.71,-49.76 198.05,-47.48 188.54,-42.81 187.71,-49.76"/>
</a>
</g>
</g>
<!-- Node4 -->
<g id="Node000004" class="node">
<title>Node4</title>
<g id="a_Node000004"><a xlink:href="interface_n_audio_1_1_wave_1_1_i_wave_provider.html#a1592be8cd7da05cc1a773b8d4ed979c0" target="_top" xlink:title="Fill the specified buffer with wave data.">
<polygon fill="white" stroke="#666666" points="375.88,-19.25 207.62,-19.25 207.62,0 375.88,0 375.88,-19.25"/>
<text text-anchor="middle" x="291.75" y="-5.75" font-family="Helvetica,sans-Serif" font-size="10.00">NAudio.Wave.IWaveProvider.Read</text>
</a>
</g>
</g>
<!-- Node1&#45;&gt;Node4 -->
<g id="edge3_Node000001_Node000004" class="edge">
<title>Node1&#45;&gt;Node4</title>
<g id="a_edge3_Node000001_Node000004"><a xlink:title=" ">
<path fill="none" stroke="#63b8ff" d="M164.14,-24.24C174.51,-23.05 185.19,-21.81 195.76,-20.59"/>
<polygon fill="#63b8ff" stroke="#63b8ff" points="196.11,-24.07 205.64,-19.45 195.31,-17.12 196.11,-24.07"/>
</a>
</g>
</g>
<!-- Node3 -->
<g id="Node000003" class="node">
<title>Node3</title>
<g id="a_Node000003"><a xlink:href="class_n_audio_1_1_utils_1_1_buffer_helpers.html#a6fcf5a452e6779e71f5dfa9b51a74f1e" target="_top" xlink:title="Ensures that the input buffer has at least the specified number of samples and returns the buffer.">
<polygon fill="white" stroke="#666666" points="557.25,-73.88 419.75,-73.88 419.75,-43.38 557.25,-43.38 557.25,-73.88"/>
<text text-anchor="start" x="427.75" y="-60.38" font-family="Helvetica,sans-Serif" font-size="10.00">NAudio.Utils.BufferHelpers.</text>
<text text-anchor="middle" x="488.5" y="-49.12" font-family="Helvetica,sans-Serif" font-size="10.00">Ensure</text>
</a>
</g>
</g>
<!-- Node2&#45;&gt;Node3 -->
<g id="edge2_Node000002_Node000003" class="edge">
<title>Node2&#45;&gt;Node3</title>
<g id="a_edge2_Node000002_Node000003"><a xlink:title=" ">
<path fill="none" stroke="#63b8ff" d="M384.14,-58.62C392.11,-58.62 400.13,-58.62 407.99,-58.62"/>
<polygon fill="#63b8ff" stroke="#63b8ff" points="407.85,-62.13 417.85,-58.63 407.85,-55.13 407.85,-62.13"/>
</a>
</g>
</g>
</g>
</svg>

<g id="navigator" transform="translate(0 0)" fill="#404254">
  <rect fill="#f2f5e9" fill-opacity="0.5" stroke="#606060" stroke-width=".5" x="0" y="0" width="60" height="60"/>
  <use id="zoomplus" xlink:href="#zoomPlus" x="17" y="9" onmousedown="handleZoom(evt,'in')"/>
  <use id="zoomminus" xlink:href="#zoomMin" x="42" y="9" onmousedown="handleZoom(evt,'out')"/>
  <use id="reset" xlink:href="#resetDef" x="30" y="36" onmousedown="handleReset()"/>
   <use id="arrowup" xlink:href="#arrowUp" x="0" y="0" onmousedown="handlePan(0,-1)"/>
  <use id="arrowright" xlink:href="#arrowRight" x="0" y="0" onmousedown="handlePan(1,0)"/>
  <use id="arrowdown" xlink:href="#arrowDown" x="0" y="0" onmousedown="handlePan(0,1)"/>
  <use id="arrowleft" xlink:href="#arrowLeft" x="0" y="0" onmousedown="handlePan(-1,0)"/>
</g>
<svg viewBox="0 0 15 15" width="100%" height="30px" preserveAspectRatio="xMaxYMin meet">
 <g id="arrow_out" transform="scale(0.3 0.3)">
  <a xlink:href="class_n_audio_1_1_wave_1_1_sample_providers_1_1_pcm16_bit_to_sample_provider_afcaa8a769798d192b3921d33de332e0c_cgraph_org.svg" target="_base">
   <rect id="button" ry="5" rx="5" y="6" x="6" height="38" width="38"
        fill="#f2f5e9" fill-opacity="0.5" stroke="#606060" stroke-width="1.0"/>
   <path id="arrow"
     d="M 11.500037,31.436501 C 11.940474,20.09759 22.043105,11.32322 32.158766,21.979434 L 37.068811,17.246167 C 37.068811,17.246167 37.088388,32 37.088388,32 L 22.160133,31.978069 C 22.160133,31.978069 26.997745,27.140456 26.997745,27.140456 C 18.528582,18.264221 13.291696,25.230495 11.500037,31.436501 z"
     style="fill:#404040;"/>
  </a>
 </g>
</svg>

<style type='text/css'>
<![CDATA[
[data-mouse-over-selected='false'] { opacity: 0.7; }
[data-mouse-over-selected='true']  { opacity: 1.0; }
]]>
</style>
<script type="application/ecmascript"><![CDATA[
document.addEventListener('DOMContentLoaded', (event) => {
  highlightEdges();
  highlightAdjacentNodes();
});
]]></script>
</svg>
