<?xml version="1.0" encoding="UTF-8" standalone="no"?>
<!DOCTYPE svg PUBLIC "-//W3C//DTD SVG 1.1//EN"
 "http://www.w3.org/Graphics/SVG/1.1/DTD/svg11.dtd">
<!-- Generated by graphviz version 10.0.1 (20240210.2158)
 -->
<!-- Title: NAudio.Wave.Asio.AsioDriver.OutputReady Pages: 1 -->
<svg width="691pt" height="88pt"
 viewBox="0.00 0.00 690.75 87.50" xmlns="http://www.w3.org/2000/svg" xmlns:xlink="http://www.w3.org/1999/xlink">
<g id="graph0" class="graph" transform="scale(1 1) rotate(0) translate(4 83.5)">
<title>NAudio.Wave.Asio.AsioDriver.OutputReady</title>
<!-- Node1 -->
<g id="Node000001" class="node">
<title>Node1</title>
<g id="a_Node000001"><a xlink:title="Checks if the output is ready and returns an AsioError.">
<polygon fill="#999999" stroke="#666666" points="682.75,-54.5 533.25,-54.5 533.25,-24 682.75,-24 682.75,-54.5"/>
<text text-anchor="start" x="541.25" y="-41" font-family="Helvetica,sans-Serif" font-size="10.00">NAudio.Wave.Asio.AsioDriver.</text>
<text text-anchor="middle" x="608" y="-29.75" font-family="Helvetica,sans-Serif" font-size="10.00">OutputReady</text>
</a>
</g>
</g>
<!-- Node2 -->
<g id="Node000002" class="node">
<title>Node2</title>
<g id="a_Node000002"><a xlink:href="class_n_audio_1_1_wave_1_1_asio_1_1_asio_driver_ext.html#a0280446f76616544cd1f10d0c740b51a" target="_top" xlink:title="Callback function for switching buffers and invoking the fill buffer callback.">
<polygon fill="white" stroke="#666666" points="497.25,-79.5 350,-79.5 350,-49 497.25,-49 497.25,-79.5"/>
<text text-anchor="start" x="358" y="-66" font-family="Helvetica,sans-Serif" font-size="10.00">NAudio.Wave.Asio.AsioDriver</text>
<text text-anchor="middle" x="423.62" y="-54.75" font-family="Helvetica,sans-Serif" font-size="10.00">Ext.BufferSwitchCallBack</text>
</a>
</g>
</g>
<!-- Node1&#45;&gt;Node2 -->
<g id="edge1_Node000001_Node000002" class="edge">
<title>Node1&#45;&gt;Node2</title>
<g id="a_edge1_Node000001_Node000002"><a xlink:title=" ">
<path fill="none" stroke="#63b8ff" d="M521.55,-50.96C513.53,-52.06 505.45,-53.17 497.56,-54.25"/>
<polygon fill="#63b8ff" stroke="#63b8ff" points="521.89,-54.45 531.32,-49.62 520.94,-47.51 521.89,-54.45"/>
</a>
</g>
</g>
<!-- Node4 -->
<g id="Node000004" class="node">
<title>Node4</title>
<g id="a_Node000004"><a xlink:href="class_n_audio_1_1_wave_1_1_asio_1_1_asio_driver_ext.html#af100a4cd32c5b2fec279072c823da580" target="_top" xlink:title="Creates buffers for the specified number of output and input channels and returns the buffer size use...">
<polygon fill="white" stroke="#666666" points="497.25,-30.5 350,-30.5 350,0 497.25,0 497.25,-30.5"/>
<text text-anchor="start" x="358" y="-17" font-family="Helvetica,sans-Serif" font-size="10.00">NAudio.Wave.Asio.AsioDriver</text>
<text text-anchor="middle" x="423.62" y="-5.75" font-family="Helvetica,sans-Serif" font-size="10.00">Ext.CreateBuffers</text>
</a>
</g>
</g>
<!-- Node1&#45;&gt;Node4 -->
<g id="edge3_Node000001_Node000004" class="edge">
<title>Node1&#45;&gt;Node4</title>
<g id="a_edge3_Node000001_Node000004"><a xlink:title=" ">
<path fill="none" stroke="#63b8ff" d="M521.55,-28C513.53,-26.95 505.45,-25.89 497.56,-24.85"/>
<polygon fill="#63b8ff" stroke="#63b8ff" points="520.95,-31.46 531.32,-29.29 521.86,-24.52 520.95,-31.46"/>
</a>
</g>
</g>
<!-- Node3 -->
<g id="Node000003" class="node">
<title>Node3</title>
<g id="a_Node000003"><a xlink:href="class_n_audio_1_1_wave_1_1_asio_1_1_asio_driver_ext.html#a0fa8ddd6d287cc37ae70ea69e39f6cb6" target="_top" xlink:title="Initializes a new instance of the AsioDriverExt class based on an already instantiated AsioDriver ins...">
<polygon fill="white" stroke="#666666" points="314,-79.5 166.75,-79.5 166.75,-49 314,-49 314,-79.5"/>
<text text-anchor="start" x="174.75" y="-66" font-family="Helvetica,sans-Serif" font-size="10.00">NAudio.Wave.Asio.AsioDriver</text>
<text text-anchor="middle" x="240.38" y="-54.75" font-family="Helvetica,sans-Serif" font-size="10.00">Ext.AsioDriverExt</text>
</a>
</g>
</g>
<!-- Node2&#45;&gt;Node3 -->
<g id="edge2_Node000002_Node000003" class="edge">
<title>Node2&#45;&gt;Node3</title>
<g id="a_edge2_Node000002_Node000003"><a xlink:title=" ">
<path fill="none" stroke="#63b8ff" d="M338.44,-64.25C330.43,-64.25 322.35,-64.25 314.46,-64.25"/>
<polygon fill="#63b8ff" stroke="#63b8ff" points="338.17,-67.75 348.17,-64.25 338.17,-60.75 338.17,-67.75"/>
</a>
</g>
</g>
<!-- Node5 -->
<g id="Node000005" class="node">
<title>Node5</title>
<g id="a_Node000005"><a xlink:href="class_n_audio_1_1_wave_1_1_asio_out.html#a27922dfd8af065caf7a2a01d0c139d5f" target="_top" xlink:title="Initializes the record and playback with the specified wave provider, record channels,...">
<polygon fill="white" stroke="#666666" points="305.75,-30.5 175,-30.5 175,0 305.75,0 305.75,-30.5"/>
<text text-anchor="start" x="183" y="-17" font-family="Helvetica,sans-Serif" font-size="10.00">NAudio.Wave.AsioOut.Init</text>
<text text-anchor="middle" x="240.38" y="-5.75" font-family="Helvetica,sans-Serif" font-size="10.00">RecordAndPlayback</text>
</a>
</g>
</g>
<!-- Node4&#45;&gt;Node5 -->
<g id="edge4_Node000004_Node000005" class="edge">
<title>Node4&#45;&gt;Node5</title>
<g id="a_edge4_Node000004_Node000005"><a xlink:title=" ">
<path fill="none" stroke="#63b8ff" d="M338.41,-15.25C327.51,-15.25 316.49,-15.25 305.98,-15.25"/>
<polygon fill="#63b8ff" stroke="#63b8ff" points="338.17,-18.75 348.17,-15.25 338.17,-11.75 338.17,-18.75"/>
</a>
</g>
</g>
<!-- Node6 -->
<g id="Node000006" class="node">
<title>Node6</title>
<g id="a_Node000006"><a xlink:href="class_n_audio_1_1_wave_1_1_asio_out.html#a9cb17c8419ec5fabc3bfe982974dbf59" target="_top" xlink:title="Initializes the recording and playback with the specified waveProvider .">
<polygon fill="white" stroke="#666666" points="130.75,-24.88 0,-24.88 0,-5.62 130.75,-5.62 130.75,-24.88"/>
<text text-anchor="middle" x="65.38" y="-11.38" font-family="Helvetica,sans-Serif" font-size="10.00">NAudio.Wave.AsioOut.Init</text>
</a>
</g>
</g>
<!-- Node5&#45;&gt;Node6 -->
<g id="edge5_Node000005_Node000006" class="edge">
<title>Node5&#45;&gt;Node6</title>
<g id="a_edge5_Node000005_Node000006"><a xlink:title=" ">
<path fill="none" stroke="#63b8ff" d="M163.74,-15.25C152.87,-15.25 141.77,-15.25 131.14,-15.25"/>
<polygon fill="#63b8ff" stroke="#63b8ff" points="163.44,-18.75 173.44,-15.25 163.44,-11.75 163.44,-18.75"/>
</a>
</g>
</g>
</g>
</svg>
