<?xml version="1.0" encoding="UTF-8" standalone="no"?>
<!DOCTYPE svg PUBLIC "-//W3C//DTD SVG 1.1//EN"
 "http://www.w3.org/Graphics/SVG/1.1/DTD/svg11.dtd">
<!-- Generated by graphviz version 10.0.1 (20240210.2158)
 -->
<!-- Title: NAudio.Dsp.EnvelopeGenerator Pages: 1 -->
<svg width="171pt" height="476pt"
 viewBox="0.00 0.00 170.50 475.75" xmlns="http://www.w3.org/2000/svg" xmlns:xlink="http://www.w3.org/1999/xlink">
<g id="graph0" class="graph" transform="scale(1 1) rotate(0) translate(4 471.75)">
<title>NAudio.Dsp.EnvelopeGenerator</title>
<!-- Node1 -->
<g id="Node000001" class="node">
<title>Node1</title>
<g id="a_Node000001"><a xlink:title="Envelope generator (ADSR)">
<polygon fill="#999999" stroke="none" points="153,-259 0,-259 0,0 153,0 153,-259"/>
<text text-anchor="start" x="6.75" y="-245.5" font-family="Helvetica,sans-Serif" font-size="10.00">NAudio.Dsp.EnvelopeGenerator</text>
<text text-anchor="start" x="4" y="-230.5" font-family="Helvetica,sans-Serif" font-size="10.00">+</text>
<text text-anchor="start" x="14" y="-230.5" font-family="Helvetica,sans-Serif" font-size="10.00">AttackRate</text>
<text text-anchor="start" x="4" y="-215.5" font-family="Helvetica,sans-Serif" font-size="10.00">+</text>
<text text-anchor="start" x="14" y="-215.5" font-family="Helvetica,sans-Serif" font-size="10.00">DecayRate</text>
<text text-anchor="start" x="4" y="-200.5" font-family="Helvetica,sans-Serif" font-size="10.00">+</text>
<text text-anchor="start" x="14" y="-200.5" font-family="Helvetica,sans-Serif" font-size="10.00">ReleaseRate</text>
<text text-anchor="start" x="4" y="-185.5" font-family="Helvetica,sans-Serif" font-size="10.00">+</text>
<text text-anchor="start" x="14" y="-185.5" font-family="Helvetica,sans-Serif" font-size="10.00">SustainLevel</text>
<text text-anchor="start" x="4" y="-170.5" font-family="Helvetica,sans-Serif" font-size="10.00">+</text>
<text text-anchor="start" x="14" y="-170.5" font-family="Helvetica,sans-Serif" font-size="10.00">State</text>
<text text-anchor="start" x="5.5" y="-155.5" font-family="Helvetica,sans-Serif" font-size="10.00">&#45;</text>
<text text-anchor="start" x="14" y="-155.5" font-family="Helvetica,sans-Serif" font-size="10.00">sustainLevel</text>
<text text-anchor="start" x="5.5" y="-140.5" font-family="Helvetica,sans-Serif" font-size="10.00">&#45;</text>
<text text-anchor="start" x="14" y="-140.5" font-family="Helvetica,sans-Serif" font-size="10.00">targetRatioAttack</text>
<text text-anchor="start" x="5.5" y="-125.5" font-family="Helvetica,sans-Serif" font-size="10.00">&#45;</text>
<text text-anchor="start" x="14" y="-125.5" font-family="Helvetica,sans-Serif" font-size="10.00">targetRatioDecayRelease</text>
<text text-anchor="start" x="4" y="-110.5" font-family="Helvetica,sans-Serif" font-size="10.00">+</text>
<text text-anchor="start" x="14" y="-110.5" font-family="Helvetica,sans-Serif" font-size="10.00">EnvelopeGenerator()</text>
<text text-anchor="start" x="4" y="-95.5" font-family="Helvetica,sans-Serif" font-size="10.00">+</text>
<text text-anchor="start" x="14" y="-95.5" font-family="Helvetica,sans-Serif" font-size="10.00">Process()</text>
<text text-anchor="start" x="4" y="-80.5" font-family="Helvetica,sans-Serif" font-size="10.00">+</text>
<text text-anchor="start" x="14" y="-80.5" font-family="Helvetica,sans-Serif" font-size="10.00">Gate()</text>
<text text-anchor="start" x="4" y="-65.5" font-family="Helvetica,sans-Serif" font-size="10.00">+</text>
<text text-anchor="start" x="14" y="-65.5" font-family="Helvetica,sans-Serif" font-size="10.00">Reset()</text>
<text text-anchor="start" x="4" y="-50.5" font-family="Helvetica,sans-Serif" font-size="10.00">+</text>
<text text-anchor="start" x="14" y="-50.5" font-family="Helvetica,sans-Serif" font-size="10.00">GetOutput()</text>
<text text-anchor="start" x="5.5" y="-35.5" font-family="Helvetica,sans-Serif" font-size="10.00">&#45;</text>
<text text-anchor="start" x="14" y="-35.5" font-family="Helvetica,sans-Serif" font-size="10.00">SetTargetRatioAttack()</text>
<text text-anchor="start" x="5.5" y="-20.5" font-family="Helvetica,sans-Serif" font-size="10.00">&#45;</text>
<text text-anchor="start" x="14" y="-20.5" font-family="Helvetica,sans-Serif" font-size="10.00">SetTargetRatioDecayRelease()</text>
<text text-anchor="start" x="5.5" y="-5.5" font-family="Helvetica,sans-Serif" font-size="10.00">&#45;</text>
<text text-anchor="start" x="14" y="-5.5" font-family="Helvetica,sans-Serif" font-size="10.00">CalcCoef()</text>
<polygon fill="#666666" stroke="#666666" points="0,-242 0,-242 153,-242 153,-242 0,-242"/>
<polygon fill="#666666" stroke="#666666" points="0,-122 0,-122 12,-122 12,-122 0,-122"/>
<polygon fill="#666666" stroke="#666666" points="12,-122 12,-122 153,-122 153,-122 12,-122"/>
<polygon fill="none" stroke="#666666" points="0,0 0,-259 153,-259 153,0 0,0"/>
</a>
</g>
</g>
<!-- Node2 -->
<g id="Node000002" class="node">
<title>Node2</title>
<g id="a_Node000002"><a xlink:title=" ">
<polygon fill="white" stroke="none" points="79,-467.75 6,-467.75 6,-418.75 79,-418.75 79,-467.75"/>
<text text-anchor="start" x="10.62" y="-454.25" font-family="Helvetica,sans-Serif" font-size="10.00">EnvelopeState</text>
<text text-anchor="start" x="41" y="-439.25" font-family="Helvetica,sans-Serif" font-size="10.00"> </text>
<text text-anchor="start" x="41" y="-424.25" font-family="Helvetica,sans-Serif" font-size="10.00"> </text>
<polygon fill="#666666" stroke="#666666" points="6,-450.75 6,-450.75 79,-450.75 79,-450.75 6,-450.75"/>
<polygon fill="#666666" stroke="#666666" points="6,-435.75 6,-435.75 79,-435.75 79,-435.75 6,-435.75"/>
<polygon fill="none" stroke="#666666" points="6,-418.75 6,-467.75 79,-467.75 79,-418.75 6,-418.75"/>
</a>
</g>
</g>
<!-- Node2&#45;&gt;Node1 -->
<g id="edge1_Node000001_Node000002" class="edge">
<title>Node2&#45;&gt;Node1</title>
<g id="a_edge1_Node000001_Node000002"><a xlink:title=" ">
<path fill="none" stroke="#63b8ff" d="M45.06,-418.82C48.52,-387.09 54.97,-327.92 61.13,-271.4"/>
<polygon fill="none" stroke="#63b8ff" points="61.13,-271.46 57.8,-265.06 62.43,-259.53 65.75,-265.93 61.13,-271.46"/>
</a>
</g>
<text text-anchor="middle" x="74.38" y="-335" font-family="Helvetica,sans-Serif" font-size="10.00" fill="grey"> &#45;state</text>
</g>
<!-- Node3 -->
<g id="Node000003" class="node">
<title>Node3</title>
<g id="a_Node000003"><a xlink:title=" ">
<polygon fill="white" stroke="none" points="125.5,-467.75 97.5,-467.75 97.5,-418.75 125.5,-418.75 125.5,-467.75"/>
<text text-anchor="start" x="102.12" y="-454.25" font-family="Helvetica,sans-Serif" font-size="10.00">float</text>
<text text-anchor="start" x="110" y="-439.25" font-family="Helvetica,sans-Serif" font-size="10.00"> </text>
<text text-anchor="start" x="110" y="-424.25" font-family="Helvetica,sans-Serif" font-size="10.00"> </text>
<polygon fill="#666666" stroke="#666666" points="97.5,-450.75 97.5,-450.75 125.5,-450.75 125.5,-450.75 97.5,-450.75"/>
<polygon fill="#666666" stroke="#666666" points="97.5,-435.75 97.5,-435.75 125.5,-435.75 125.5,-435.75 97.5,-435.75"/>
<polygon fill="none" stroke="#666666" points="97.5,-418.75 97.5,-467.75 125.5,-467.75 125.5,-418.75 97.5,-418.75"/>
</a>
</g>
</g>
<!-- Node3&#45;&gt;Node1 -->
<g id="edge2_Node000001_Node000003" class="edge">
<title>Node3&#45;&gt;Node1</title>
<g id="a_edge2_Node000001_Node000003"><a xlink:title=" ">
<path fill="none" stroke="#63b8ff" d="M108.87,-418.82C105.31,-387.09 98.66,-327.92 92.32,-271.4"/>
<polygon fill="none" stroke="#63b8ff" points="92.32,-271.45 87.68,-265.94 90.99,-259.53 95.63,-265.04 92.32,-271.45"/>
</a>
</g>
<text text-anchor="middle" x="134" y="-391.25" font-family="Helvetica,sans-Serif" font-size="10.00" fill="grey"> &#45;attackBase</text>
<text text-anchor="middle" x="134" y="-380" font-family="Helvetica,sans-Serif" font-size="10.00" fill="grey">&#45;attackCoef</text>
<text text-anchor="middle" x="134" y="-368.75" font-family="Helvetica,sans-Serif" font-size="10.00" fill="grey">&#45;attackRate</text>
<text text-anchor="middle" x="134" y="-357.5" font-family="Helvetica,sans-Serif" font-size="10.00" fill="grey">&#45;decayBase</text>
<text text-anchor="middle" x="134" y="-346.25" font-family="Helvetica,sans-Serif" font-size="10.00" fill="grey">&#45;decayCoef</text>
<text text-anchor="middle" x="134" y="-335" font-family="Helvetica,sans-Serif" font-size="10.00" fill="grey">&#45;decayRate</text>
<text text-anchor="middle" x="134" y="-323.75" font-family="Helvetica,sans-Serif" font-size="10.00" fill="grey">&#45;output</text>
<text text-anchor="middle" x="134" y="-312.5" font-family="Helvetica,sans-Serif" font-size="10.00" fill="grey">&#45;releaseBase</text>
<text text-anchor="middle" x="134" y="-301.25" font-family="Helvetica,sans-Serif" font-size="10.00" fill="grey">&#45;releaseCoef</text>
<text text-anchor="middle" x="134" y="-290" font-family="Helvetica,sans-Serif" font-size="10.00" fill="grey">&#45;releaseRate</text>
<text text-anchor="middle" x="134" y="-278.75" font-family="Helvetica,sans-Serif" font-size="10.00" fill="grey">...</text>
</g>
</g>
</svg>
