<?xml version="1.0" encoding="UTF-8" standalone="no"?>
<!DOCTYPE svg PUBLIC "-//W3C//DTD SVG 1.1//EN"
 "http://www.w3.org/Graphics/SVG/1.1/DTD/svg11.dtd">
<!-- Generated by graphviz version 10.0.1 (20240210.2158)
 -->
<!-- Title: NAudio.Wave.Asio.AsioDriver.GetAsioDriverNames Pages: 1 -->
<svg width="558pt" height="64pt"
 viewBox="0.00 0.00 557.75 64.25" xmlns="http://www.w3.org/2000/svg" xmlns:xlink="http://www.w3.org/1999/xlink">
<g id="graph0" class="graph" transform="scale(1 1) rotate(0) translate(4 60.25)">
<title>NAudio.Wave.Asio.AsioDriver.GetAsioDriverNames</title>
<!-- Node1 -->
<g id="Node000001" class="node">
<title>Node1</title>
<g id="a_Node000001"><a xlink:title="Retrieves the names of ASIO drivers installed on the system.">
<polygon fill="#999999" stroke="#666666" points="549.75,-42.88 400.25,-42.88 400.25,-12.37 549.75,-12.37 549.75,-42.88"/>
<text text-anchor="start" x="408.25" y="-29.38" font-family="Helvetica,sans-Serif" font-size="10.00">NAudio.Wave.Asio.AsioDriver.</text>
<text text-anchor="middle" x="475" y="-18.12" font-family="Helvetica,sans-Serif" font-size="10.00">GetAsioDriverNames</text>
</a>
</g>
</g>
<!-- Node2 -->
<g id="Node000002" class="node">
<title>Node2</title>
<g id="a_Node000002"><a xlink:href="class_n_audio_1_1_wave_1_1_asio_out.html#a39445d5b9ce4e9525f5a4b8b50d781a7" target="_top" xlink:title="Retrieves the names of the available ASIO drivers.">
<polygon fill="white" stroke="#666666" points="364.25,-42.88 205,-42.88 205,-12.37 364.25,-12.37 364.25,-42.88"/>
<text text-anchor="start" x="213" y="-29.38" font-family="Helvetica,sans-Serif" font-size="10.00">NAudio.Wave.AsioOut.GetDriver</text>
<text text-anchor="middle" x="284.62" y="-18.12" font-family="Helvetica,sans-Serif" font-size="10.00">Names</text>
</a>
</g>
</g>
<!-- Node1&#45;&gt;Node2 -->
<g id="edge1_Node000001_Node000002" class="edge">
<title>Node1&#45;&gt;Node2</title>
<g id="a_edge1_Node000001_Node000002"><a xlink:title=" ">
<path fill="none" stroke="#63b8ff" d="M388.36,-27.62C380.48,-27.62 372.52,-27.62 364.7,-27.62"/>
<polygon fill="#63b8ff" stroke="#63b8ff" points="388.31,-31.13 398.31,-27.63 388.31,-24.13 388.31,-31.13"/>
</a>
</g>
</g>
<!-- Node3 -->
<g id="Node000003" class="node">
<title>Node3</title>
<g id="a_Node000003"><a xlink:href="class_n_audio_1_1_wave_1_1_asio_out.html#ad1ba13d0e953275fd3c5881c8bb03215" target="_top" xlink:title="Opens an ASIO output device.">
<polygon fill="white" stroke="#666666" points="160.75,-56.25 8.25,-56.25 8.25,-37 160.75,-37 160.75,-56.25"/>
<text text-anchor="middle" x="84.5" y="-42.75" font-family="Helvetica,sans-Serif" font-size="10.00">NAudio.Wave.AsioOut.AsioOut</text>
</a>
</g>
</g>
<!-- Node2&#45;&gt;Node3 -->
<g id="edge2_Node000002_Node000003" class="edge">
<title>Node2&#45;&gt;Node3</title>
<g id="a_edge2_Node000002_Node000003"><a xlink:title=" ">
<path fill="none" stroke="#63b8ff" d="M193.56,-36.26C182.74,-37.3 171.78,-38.35 161.2,-39.37"/>
<polygon fill="#63b8ff" stroke="#63b8ff" points="193.62,-39.77 203.24,-35.33 192.96,-32.8 193.62,-39.77"/>
</a>
</g>
</g>
<!-- Node4 -->
<g id="Node000004" class="node">
<title>Node4</title>
<g id="a_Node000004"><a xlink:href="class_n_audio_1_1_wave_1_1_asio_out.html#a44aaea3d3f20f6a2852ab2f975ca3fff" target="_top" xlink:title="Checks if the system supports the operation.">
<polygon fill="white" stroke="#666666" points="169,-19.25 0,-19.25 0,0 169,0 169,-19.25"/>
<text text-anchor="middle" x="84.5" y="-5.75" font-family="Helvetica,sans-Serif" font-size="10.00">NAudio.Wave.AsioOut.isSupported</text>
</a>
</g>
</g>
<!-- Node2&#45;&gt;Node4 -->
<g id="edge3_Node000002_Node000004" class="edge">
<title>Node2&#45;&gt;Node4</title>
<g id="a_edge3_Node000002_Node000004"><a xlink:title=" ">
<path fill="none" stroke="#63b8ff" d="M193.45,-19.43C185.41,-18.7 177.29,-17.96 169.3,-17.24"/>
<polygon fill="#63b8ff" stroke="#63b8ff" points="192.97,-22.9 203.24,-20.32 193.6,-15.93 192.97,-22.9"/>
</a>
</g>
</g>
</g>
</svg>
