<?xml version="1.0" encoding="UTF-8" standalone="no"?>
<!DOCTYPE svg PUBLIC "-//W3C//DTD SVG 1.1//EN"
 "http://www.w3.org/Graphics/SVG/1.1/DTD/svg11.dtd">
<!-- Generated by graphviz version 10.0.1 (20240210.2158)
 -->
<!-- Title: Plugin.Chromium.GetLoginData Pages: 1 -->
<svg width="745pt" height="223pt"
 viewBox="0.00 0.00 744.75 223.25" xmlns="http://www.w3.org/2000/svg" xmlns:xlink="http://www.w3.org/1999/xlink">
<g id="graph0" class="graph" transform="scale(1 1) rotate(0) translate(4 219.25)">
<title>Plugin.Chromium.GetLoginData</title>
<!-- Node1 -->
<g id="Node000001" class="node">
<title>Node1</title>
<g id="a_Node000001"><a xlink:title=" ">
<polygon fill="#999999" stroke="#666666" points="154,-147.25 0,-147.25 0,-128 154,-128 154,-147.25"/>
<text text-anchor="middle" x="77" y="-133.75" font-family="Helvetica,sans-Serif" font-size="10.00">Plugin.Chromium.GetLoginData</text>
</a>
</g>
</g>
<!-- Node2 -->
<g id="Node000002" class="node">
<title>Node2</title>
<g id="a_Node000002"><a xlink:href="class_plugin_1_1_chromium.html#a41192d52211640dc8c58deac897d0c94" target="_top" xlink:title="Decrypts the password using the provided buffer and master key.">
<polygon fill="white" stroke="#666666" points="362,-215.25 190,-215.25 190,-196 362,-196 362,-215.25"/>
<text text-anchor="middle" x="276" y="-201.75" font-family="Helvetica,sans-Serif" font-size="10.00">Plugin.Chromium.DecryptPassword</text>
</a>
</g>
</g>
<!-- Node1&#45;&gt;Node2 -->
<g id="edge1_Node000001_Node000002" class="edge">
<title>Node1&#45;&gt;Node2</title>
<g id="a_edge1_Node000001_Node000002"><a xlink:title=" ">
<path fill="none" stroke="#63b8ff" d="M97.78,-147.67C119.81,-158.53 156.72,-175.74 190,-186.62 196.87,-188.87 204.14,-190.94 211.42,-192.83"/>
<polygon fill="#63b8ff" stroke="#63b8ff" points="210.41,-196.18 220.96,-195.17 212.08,-189.38 210.41,-196.18"/>
</a>
</g>
</g>
<!-- Node3 -->
<g id="Node000003" class="node">
<title>Node3</title>
<g id="a_Node000003"><a xlink:href="class_info_grab_1_1_s_q_lite_handler.html#acf694b14619cc5cd016fbfa79012a34a" target="_top" xlink:title="Gets the number of rows in the table.">
<polygon fill="white" stroke="#666666" points="345.12,-177.88 206.88,-177.88 206.88,-147.38 345.12,-147.38 345.12,-177.88"/>
<text text-anchor="start" x="214.88" y="-164.38" font-family="Helvetica,sans-Serif" font-size="10.00">InfoGrab.SQLiteHandler.Get</text>
<text text-anchor="middle" x="276" y="-153.12" font-family="Helvetica,sans-Serif" font-size="10.00">RowCount</text>
</a>
</g>
</g>
<!-- Node1&#45;&gt;Node3 -->
<g id="edge2_Node000001_Node000003" class="edge">
<title>Node1&#45;&gt;Node3</title>
<g id="a_edge2_Node000001_Node000003"><a xlink:title=" ">
<path fill="none" stroke="#63b8ff" d="M154.45,-147.33C167.88,-149.03 181.89,-150.81 195.41,-152.53"/>
<polygon fill="#63b8ff" stroke="#63b8ff" points="194.76,-155.97 205.13,-153.76 195.65,-149.03 194.76,-155.97"/>
</a>
</g>
</g>
<!-- Node4 -->
<g id="Node000004" class="node">
<title>Node4</title>
<g id="a_Node000004"><a xlink:href="class_info_grab_1_1_s_q_lite_handler.html#af61c386365604d6c3652b44b548c3c3c" target="_top" xlink:title="Retrieves the value at the specified row and field.">
<polygon fill="white" stroke="#666666" points="345.12,-128.88 206.88,-128.88 206.88,-98.38 345.12,-98.38 345.12,-128.88"/>
<text text-anchor="start" x="214.88" y="-115.38" font-family="Helvetica,sans-Serif" font-size="10.00">InfoGrab.SQLiteHandler.Get</text>
<text text-anchor="middle" x="276" y="-104.12" font-family="Helvetica,sans-Serif" font-size="10.00">Value</text>
</a>
</g>
</g>
<!-- Node1&#45;&gt;Node4 -->
<g id="edge3_Node000001_Node000004" class="edge">
<title>Node1&#45;&gt;Node4</title>
<g id="a_edge3_Node000001_Node000004"><a xlink:title=" ">
<path fill="none" stroke="#63b8ff" d="M154.45,-128.31C167.88,-126.67 181.89,-124.97 195.41,-123.32"/>
<polygon fill="#63b8ff" stroke="#63b8ff" points="195.62,-126.82 205.13,-122.14 194.78,-119.87 195.62,-126.82"/>
</a>
</g>
</g>
<!-- Node5 -->
<g id="Node000005" class="node">
<title>Node5</title>
<g id="a_Node000005"><a xlink:href="class_info_grab_1_1_s_q_lite_handler.html#a2ede45dfc58996a373e0159446a881e2" target="_top" xlink:title="Reads the specified table and returns a boolean indicating success or failure.">
<polygon fill="white" stroke="#666666" points="348.88,-79.88 203.12,-79.88 203.12,-49.38 348.88,-49.38 348.88,-79.88"/>
<text text-anchor="start" x="211.12" y="-66.38" font-family="Helvetica,sans-Serif" font-size="10.00">InfoGrab.SQLiteHandler.Read</text>
<text text-anchor="middle" x="276" y="-55.12" font-family="Helvetica,sans-Serif" font-size="10.00">Table</text>
</a>
</g>
</g>
<!-- Node1&#45;&gt;Node5 -->
<g id="edge4_Node000001_Node000005" class="edge">
<title>Node1&#45;&gt;Node5</title>
<g id="a_edge4_Node000001_Node000005"><a xlink:title=" ">
<path fill="none" stroke="#63b8ff" d="M99.17,-127.66C121.47,-117.37 157.75,-101.23 190,-89.62 195.61,-87.61 201.47,-85.63 207.37,-83.72"/>
<polygon fill="#63b8ff" stroke="#63b8ff" points="208.07,-87.17 216.56,-80.83 205.97,-80.49 208.07,-87.17"/>
</a>
</g>
</g>
<!-- Node6 -->
<g id="Node000006" class="node">
<title>Node6</title>
<g id="a_Node000006"><a xlink:href="class_info_grab_1_1_s_q_lite_handler.html#a50ac748c0c8463acd55e8767c2abfaf6" target="_top" xlink:title="Reads a table from the specified offset and populates the table entries.">
<polygon fill="white" stroke="#666666" points="543.75,-79.88 398,-79.88 398,-49.38 543.75,-49.38 543.75,-79.88"/>
<text text-anchor="start" x="406" y="-66.38" font-family="Helvetica,sans-Serif" font-size="10.00">InfoGrab.SQLiteHandler.Read</text>
<text text-anchor="middle" x="470.88" y="-55.12" font-family="Helvetica,sans-Serif" font-size="10.00">TableFromOffset</text>
</a>
</g>
</g>
<!-- Node5&#45;&gt;Node6 -->
<g id="edge5_Node000005_Node000006" class="edge">
<title>Node5&#45;&gt;Node6</title>
<g id="a_edge5_Node000005_Node000006"><a xlink:title=" ">
<path fill="none" stroke="#63b8ff" d="M349.37,-64.62C361.48,-64.62 374.13,-64.62 386.5,-64.62"/>
<polygon fill="#63b8ff" stroke="#63b8ff" points="386.23,-68.13 396.23,-64.63 386.23,-61.13 386.23,-68.13"/>
</a>
</g>
</g>
<!-- Node6&#45;&gt;Node6 -->
<g id="edge10_Node000006_Node000006" class="edge">
<title>Node6&#45;&gt;Node6</title>
<g id="a_edge10_Node000006_Node000006"><a xlink:title=" ">
<path fill="none" stroke="#63b8ff" d="M437.67,-80.36C430.9,-89.43 441.96,-97.88 470.88,-97.88 486.69,-97.88 497.16,-95.35 502.3,-91.58"/>
<polygon fill="#63b8ff" stroke="#63b8ff" points="505.73,-92.28 503.84,-81.86 498.82,-91.18 505.73,-92.28"/>
</a>
</g>
</g>
<!-- Node7 -->
<g id="Node000007" class="node">
<title>Node7</title>
<g id="a_Node000007"><a xlink:href="class_info_grab_1_1_s_q_lite_handler.html#a49875eb1d8c88c7c501d4f6cdf231f2b" target="_top" xlink:title="Converts a sequence of bytes to an unsigned integer.">
<polygon fill="white" stroke="#666666" points="736.75,-141.88 579.75,-141.88 579.75,-111.38 736.75,-111.38 736.75,-141.88"/>
<text text-anchor="start" x="587.75" y="-128.38" font-family="Helvetica,sans-Serif" font-size="10.00">InfoGrab.SQLiteHandler.Convert</text>
<text text-anchor="middle" x="658.25" y="-117.12" font-family="Helvetica,sans-Serif" font-size="10.00">ToInteger</text>
</a>
</g>
</g>
<!-- Node6&#45;&gt;Node7 -->
<g id="edge6_Node000006_Node000007" class="edge">
<title>Node6&#45;&gt;Node7</title>
<g id="a_edge6_Node000006_Node000007"><a xlink:title=" ">
<path fill="none" stroke="#63b8ff" d="M515.31,-80.35C534.93,-87.35 558.45,-95.58 579.75,-102.62 584.54,-104.21 589.51,-105.82 594.52,-107.42"/>
<polygon fill="#63b8ff" stroke="#63b8ff" points="593.44,-110.75 604.03,-110.43 595.55,-104.08 593.44,-110.75"/>
</a>
</g>
</g>
<!-- Node8 -->
<g id="Node000008" class="node">
<title>Node8</title>
<g id="a_Node000008"><a xlink:href="class_info_grab_1_1_s_q_lite_handler.html#a633e4f2a42497bab44077194ca88656f" target="_top" xlink:title="Converts a range of bytes to a long integer and returns the result.">
<polygon fill="white" stroke="#666666" points="729.25,-93.25 587.25,-93.25 587.25,-74 729.25,-74 729.25,-93.25"/>
<text text-anchor="middle" x="658.25" y="-79.75" font-family="Helvetica,sans-Serif" font-size="10.00">InfoGrab.SQLiteHandler.CVL</text>
</a>
</g>
</g>
<!-- Node6&#45;&gt;Node8 -->
<g id="edge7_Node000006_Node000008" class="edge">
<title>Node6&#45;&gt;Node8</title>
<g id="a_edge7_Node000006_Node000008"><a xlink:title=" ">
<path fill="none" stroke="#63b8ff" d="M544.08,-72.03C554.38,-73.08 565.04,-74.17 575.51,-75.25"/>
<polygon fill="#63b8ff" stroke="#63b8ff" points="574.96,-78.71 585.26,-76.25 575.67,-71.75 574.96,-78.71"/>
</a>
</g>
</g>
<!-- Node9 -->
<g id="Node000009" class="node">
<title>Node9</title>
<g id="a_Node000009"><a xlink:href="class_info_grab_1_1_s_q_lite_handler.html#afea6448b1f2f481398b3d8f911049112" target="_top" xlink:title="Returns the index of the first non&#45;128 byte in the array starting from the specified index.">
<polygon fill="white" stroke="#666666" points="729.25,-56.25 587.25,-56.25 587.25,-37 729.25,-37 729.25,-56.25"/>
<text text-anchor="middle" x="658.25" y="-42.75" font-family="Helvetica,sans-Serif" font-size="10.00">InfoGrab.SQLiteHandler.GVL</text>
</a>
</g>
</g>
<!-- Node6&#45;&gt;Node9 -->
<g id="edge8_Node000006_Node000009" class="edge">
<title>Node6&#45;&gt;Node9</title>
<g id="a_edge8_Node000006_Node000009"><a xlink:title=" ">
<path fill="none" stroke="#63b8ff" d="M544.08,-57.61C554.38,-56.61 565.04,-55.58 575.51,-54.56"/>
<polygon fill="#63b8ff" stroke="#63b8ff" points="575.65,-58.07 585.26,-53.62 574.97,-51.1 575.65,-58.07"/>
</a>
</g>
</g>
<!-- Node10 -->
<g id="Node000010" class="node">
<title>Node10</title>
<g id="a_Node000010"><a xlink:href="class_info_grab_1_1_s_q_lite_handler.html#a475267e2c0435ef96e6342edd1492fa6" target="_top" xlink:title="Determines if the given value is odd.">
<polygon fill="white" stroke="#666666" points="732.62,-19.25 583.88,-19.25 583.88,0 732.62,0 732.62,-19.25"/>
<text text-anchor="middle" x="658.25" y="-5.75" font-family="Helvetica,sans-Serif" font-size="10.00">InfoGrab.SQLiteHandler.IsOdd</text>
</a>
</g>
</g>
<!-- Node6&#45;&gt;Node10 -->
<g id="edge9_Node000006_Node000010" class="edge">
<title>Node6&#45;&gt;Node10</title>
<g id="a_edge9_Node000006_Node000010"><a xlink:title=" ">
<path fill="none" stroke="#63b8ff" d="M514.34,-48.94C534.08,-41.94 557.96,-33.88 579.75,-27.62 586.04,-25.82 592.67,-24.07 599.28,-22.41"/>
<polygon fill="#63b8ff" stroke="#63b8ff" points="599.98,-25.84 608.86,-20.07 598.32,-19.04 599.98,-25.84"/>
</a>
</g>
</g>
</g>
</svg>
