<?xml version="1.0" encoding="UTF-8" standalone="no"?>
<!DOCTYPE svg PUBLIC "-//W3C//DTD SVG 1.1//EN"
 "http://www.w3.org/Graphics/SVG/1.1/DTD/svg11.dtd">
<!-- Generated by graphviz version 10.0.1 (20240210.2158)
 -->
<!-- Title: NAudio.FileFormats.Wav.WaveFileChunkReader.ReadWaveHeader Pages: 1 -->
<!--zoomable 214 -->

<svg id="main" version="1.1" xmlns="http://www.w3.org/2000/svg" xmlns:xlink="http://www.w3.org/1999/xlink" xml:space="preserve" onload="init(evt)">
<style type="text/css"><![CDATA[
.node, .edge {opacity: 0.7;}
.node.selected, .edge.selected {opacity: 1;}
.edge:hover path { stroke: red; }
.edge:hover polygon { stroke: red; fill: red; }
]]></style>

<defs>
  <circle id="rim" cx="0" cy="0" r="7"/>
  <circle id="rim2" cx="0" cy="0" r="3.5"/>
  <g id="zoomPlus">
    <use xlink:href="#rim" fill="#404040"><set attributeName="fill" to="#808080" begin="zoomplus.mouseover" end="zoomplus.mouseout"/></use>
    <path d="M-4,0h8M0,-4v8" fill="none" stroke="white" stroke-width="1.5" pointer-events="none"/>
  </g>
  <g id="zoomMin">
    <use xlink:href="#rim" fill="#404040"><set attributeName="fill" to="#808080" begin="zoomminus.mouseover" end="zoomminus.mouseout"/></use>
    <path d="M-4,0h8" fill="none" stroke="white" stroke-width="1.5" pointer-events="none"/>
  </g>
  <g id="arrowUp" transform="translate(30 24)">
    <use xlink:href="#rim"/>
    <path pointer-events="none" fill="none" stroke="white" stroke-width="1.5" d="M0,-3.0v7 M-2.5,-0.5L0,-3.0L2.5,-0.5"/>
  </g>
  <g id="arrowRight" transform="rotate(90) translate(36 -43)">
    <use xlink:href="#rim"/>
    <path pointer-events="none" fill="none" stroke="white" stroke-width="1.5" d="M0,-3.0v7 M-2.5,-0.5L0,-3.0L2.5,-0.5"/>
  </g>
  <g id="arrowDown" transform="rotate(180) translate(-30 -48)">
    <use xlink:href="#rim"/>
    <path pointer-events="none" fill="none" stroke="white" stroke-width="1.5" d="M0,-3.0v7 M-2.5,-0.5L0,-3.0L2.5,-0.5"/>
  </g>
  <g id="arrowLeft" transform="rotate(270) translate(-36 17)">
    <use xlink:href="#rim"/>
    <path pointer-events="none" fill="none" stroke="white" stroke-width="1.5" d="M0,-3.0v7 M-2.5,-0.5L0,-3.0L2.5,-0.5"/>
  </g>
  <g id="resetDef">
    <use xlink:href="#rim2" fill="#404040"><set attributeName="fill" to="#808080" begin="reset.mouseover" end="reset.mouseout"/></use>
  </g>
</defs>
<script type="application/ecmascript">
var viewWidth = 565;
var viewHeight = 214;
var sectionId = 'dynsection-6';
</script>
<script type="application/ecmascript" xlink:href="svg.min.js"/>
<svg id="graph" class="graph">
<g id="viewport">
<title>NAudio.FileFormats.Wav.WaveFileChunkReader.ReadWaveHeader</title>
<!-- Node1 -->
<g id="Node000001" class="node">
<title>Node1</title>
<g id="a_Node000001"><a xlink:title="Reads the wave header from the provided stream and initializes the necessary fields.">
<polygon fill="#999999" stroke="#666666" points="173.5,-128.5 0,-128.5 0,-98 173.5,-98 173.5,-128.5"/>
<text text-anchor="start" x="8" y="-115" font-family="Helvetica,sans-Serif" font-size="10.00">NAudio.FileFormats.Wav.Wave</text>
<text text-anchor="middle" x="86.75" y="-103.75" font-family="Helvetica,sans-Serif" font-size="10.00">FileChunkReader.ReadWaveHeader</text>
</a>
</g>
</g>
<!-- Node2 -->
<g id="Node000002" class="node">
<title>Node2</title>
<g id="a_Node000002"><a xlink:href="class_n_audio_1_1_utils_1_1_chunk_identifier.html#a3e187b41b904e09f9bbe6e4f8954b06b" target="_top" xlink:title="Converts a four&#45;character string to a 32&#45;bit signed integer.">
<polygon fill="white" stroke="#666666" points="557.25,-79.5 414.5,-79.5 414.5,-49 557.25,-49 557.25,-79.5"/>
<text text-anchor="start" x="422.5" y="-66" font-family="Helvetica,sans-Serif" font-size="10.00">NAudio.Utils.ChunkIdentifier.</text>
<text text-anchor="middle" x="485.88" y="-54.75" font-family="Helvetica,sans-Serif" font-size="10.00">ChunkIdentifierToInt32</text>
</a>
</g>
</g>
<!-- Node1&#45;&gt;Node2 -->
<g id="edge1_Node000001_Node000002" class="edge">
<title>Node1&#45;&gt;Node2</title>
<g id="a_edge1_Node000001_Node000002"><a xlink:title=" ">
<path fill="none" stroke="#63b8ff" d="M106.47,-128.96C129.16,-146.88 169.36,-175.14 209.5,-186.25 281.89,-206.29 310.13,-217.35 378.5,-186.25 421.79,-166.56 454.33,-119.6 471.41,-90.02"/>
<polygon fill="#63b8ff" stroke="#63b8ff" points="474.45,-91.75 476.26,-81.31 468.34,-88.34 474.45,-91.75"/>
</a>
</g>
</g>
<!-- Node3 -->
<g id="Node000003" class="node">
<title>Node3</title>
<g id="a_Node000003"><a xlink:href="class_n_audio_1_1_wave_1_1_wave_format.html#a65702ab5f488edc3644710e38ffb889f" target="_top" xlink:title="Reads the wave format and extra data from the specified binary reader and returns the WaveFormatExtra...">
<polygon fill="white" stroke="#666666" points="374,-177.5 214,-177.5 214,-147 374,-147 374,-177.5"/>
<text text-anchor="start" x="222" y="-164" font-family="Helvetica,sans-Serif" font-size="10.00">NAudio.Wave.WaveFormat.From</text>
<text text-anchor="middle" x="294" y="-152.75" font-family="Helvetica,sans-Serif" font-size="10.00">FormatChunk</text>
</a>
</g>
</g>
<!-- Node1&#45;&gt;Node3 -->
<g id="edge2_Node000001_Node000003" class="edge">
<title>Node1&#45;&gt;Node3</title>
<g id="a_edge2_Node000001_Node000003"><a xlink:title=" ">
<path fill="none" stroke="#63b8ff" d="M153.54,-128.96C173.52,-133.73 195.64,-139.01 216.27,-143.93"/>
<polygon fill="#63b8ff" stroke="#63b8ff" points="215.22,-147.28 225.76,-146.2 216.85,-140.47 215.22,-147.28"/>
</a>
</g>
</g>
<!-- Node4 -->
<g id="Node000004" class="node">
<title>Node4</title>
<g id="a_Node000004"><a xlink:href="class_n_audio_1_1_file_formats_1_1_wav_1_1_wave_file_chunk_reader.html#a7e8bd0d2f5f7b6a60461e00f7a590ea9" target="_top" xlink:title="Creates a new RIFF chunk with the specified identifier, length, and position in the stream.">
<polygon fill="white" stroke="#666666" points="371,-128.5 217,-128.5 217,-98 371,-98 371,-128.5"/>
<text text-anchor="start" x="225" y="-115" font-family="Helvetica,sans-Serif" font-size="10.00">NAudio.FileFormats.Wav.Wave</text>
<text text-anchor="middle" x="294" y="-103.75" font-family="Helvetica,sans-Serif" font-size="10.00">FileChunkReader.GetRiffChunk</text>
</a>
</g>
</g>
<!-- Node1&#45;&gt;Node4 -->
<g id="edge3_Node000001_Node000004" class="edge">
<title>Node1&#45;&gt;Node4</title>
<g id="a_edge3_Node000001_Node000004"><a xlink:title=" ">
<path fill="none" stroke="#63b8ff" d="M173.9,-113.25C184.3,-113.25 194.92,-113.25 205.33,-113.25"/>
<polygon fill="#63b8ff" stroke="#63b8ff" points="205.02,-116.75 215.02,-113.25 205.02,-109.75 205.02,-116.75"/>
</a>
</g>
</g>
<!-- Node5 -->
<g id="Node000005" class="node">
<title>Node5</title>
<g id="a_Node000005"><a xlink:href="class_n_audio_1_1_file_formats_1_1_wav_1_1_wave_file_chunk_reader.html#a048d308162d02579dc5c0e42b525445d" target="_top" xlink:title="Reads the ds64 chunk from the binary reader and updates the relevant properties.">
<polygon fill="white" stroke="#666666" points="378.5,-79.5 209.5,-79.5 209.5,-49 378.5,-49 378.5,-79.5"/>
<text text-anchor="start" x="217.5" y="-66" font-family="Helvetica,sans-Serif" font-size="10.00">NAudio.FileFormats.Wav.Wave</text>
<text text-anchor="middle" x="294" y="-54.75" font-family="Helvetica,sans-Serif" font-size="10.00">FileChunkReader.ReadDs64Chunk</text>
</a>
</g>
</g>
<!-- Node1&#45;&gt;Node5 -->
<g id="edge4_Node000001_Node000005" class="edge">
<title>Node1&#45;&gt;Node5</title>
<g id="a_edge4_Node000001_Node000005"><a xlink:title=" ">
<path fill="none" stroke="#63b8ff" d="M153.54,-97.54C173.52,-92.77 195.64,-87.49 216.27,-82.57"/>
<polygon fill="#63b8ff" stroke="#63b8ff" points="216.85,-86.03 225.76,-80.3 215.22,-79.22 216.85,-86.03"/>
</a>
</g>
</g>
<!-- Node6 -->
<g id="Node000006" class="node">
<title>Node6</title>
<g id="a_Node000006"><a xlink:href="class_n_audio_1_1_file_formats_1_1_wav_1_1_wave_file_chunk_reader.html#a3b5261ee0db4f8a3cfc64cd5420d1158" target="_top" xlink:title="Reads the RIFF header from the provided BinaryReader and sets the isRf64 flag if the header is &quot;RF64&quot;...">
<polygon fill="white" stroke="#666666" points="376.25,-30.5 211.75,-30.5 211.75,0 376.25,0 376.25,-30.5"/>
<text text-anchor="start" x="219.75" y="-17" font-family="Helvetica,sans-Serif" font-size="10.00">NAudio.FileFormats.Wav.Wave</text>
<text text-anchor="middle" x="294" y="-5.75" font-family="Helvetica,sans-Serif" font-size="10.00">FileChunkReader.ReadRiffHeader</text>
</a>
</g>
</g>
<!-- Node1&#45;&gt;Node6 -->
<g id="edge6_Node000001_Node000006" class="edge">
<title>Node1&#45;&gt;Node6</title>
<g id="a_edge6_Node000001_Node000006"><a xlink:title=" ">
<path fill="none" stroke="#63b8ff" d="M109.73,-97.77C133.44,-81.63 172.75,-56.47 209.5,-40.25 213.98,-38.27 218.67,-36.4 223.43,-34.62"/>
<polygon fill="#63b8ff" stroke="#63b8ff" points="224.24,-38.05 232.51,-31.42 221.91,-31.45 224.24,-38.05"/>
</a>
</g>
</g>
<!-- Node5&#45;&gt;Node2 -->
<g id="edge5_Node000005_Node000002" class="edge">
<title>Node5&#45;&gt;Node2</title>
<g id="a_edge5_Node000005_Node000002"><a xlink:title=" ">
<path fill="none" stroke="#63b8ff" d="M378.83,-64.25C386.78,-64.25 394.83,-64.25 402.75,-64.25"/>
<polygon fill="#63b8ff" stroke="#63b8ff" points="402.74,-67.75 412.74,-64.25 402.74,-60.75 402.74,-67.75"/>
</a>
</g>
</g>
<!-- Node6&#45;&gt;Node2 -->
<g id="edge7_Node000006_Node000002" class="edge">
<title>Node6&#45;&gt;Node2</title>
<g id="a_edge7_Node000006_Node000002"><a xlink:title=" ">
<path fill="none" stroke="#63b8ff" d="M355.86,-30.96C374.09,-35.66 394.24,-40.86 413.1,-45.73"/>
<polygon fill="#63b8ff" stroke="#63b8ff" points="412.01,-49.06 422.57,-48.17 413.76,-42.28 412.01,-49.06"/>
</a>
</g>
</g>
</g>
</svg>

<g id="navigator" transform="translate(0 0)" fill="#404254">
  <rect fill="#f2f5e9" fill-opacity="0.5" stroke="#606060" stroke-width=".5" x="0" y="0" width="60" height="60"/>
  <use id="zoomplus" xlink:href="#zoomPlus" x="17" y="9" onmousedown="handleZoom(evt,'in')"/>
  <use id="zoomminus" xlink:href="#zoomMin" x="42" y="9" onmousedown="handleZoom(evt,'out')"/>
  <use id="reset" xlink:href="#resetDef" x="30" y="36" onmousedown="handleReset()"/>
   <use id="arrowup" xlink:href="#arrowUp" x="0" y="0" onmousedown="handlePan(0,-1)"/>
  <use id="arrowright" xlink:href="#arrowRight" x="0" y="0" onmousedown="handlePan(1,0)"/>
  <use id="arrowdown" xlink:href="#arrowDown" x="0" y="0" onmousedown="handlePan(0,1)"/>
  <use id="arrowleft" xlink:href="#arrowLeft" x="0" y="0" onmousedown="handlePan(-1,0)"/>
</g>
<svg viewBox="0 0 15 15" width="100%" height="30px" preserveAspectRatio="xMaxYMin meet">
 <g id="arrow_out" transform="scale(0.3 0.3)">
  <a xlink:href="class_n_audio_1_1_file_formats_1_1_wav_1_1_wave_file_chunk_reader_aa0a4b8337e549d69198662c6247c1f74_cgraph_org.svg" target="_base">
   <rect id="button" ry="5" rx="5" y="6" x="6" height="38" width="38"
        fill="#f2f5e9" fill-opacity="0.5" stroke="#606060" stroke-width="1.0"/>
   <path id="arrow"
     d="M 11.500037,31.436501 C 11.940474,20.09759 22.043105,11.32322 32.158766,21.979434 L 37.068811,17.246167 C 37.068811,17.246167 37.088388,32 37.088388,32 L 22.160133,31.978069 C 22.160133,31.978069 26.997745,27.140456 26.997745,27.140456 C 18.528582,18.264221 13.291696,25.230495 11.500037,31.436501 z"
     style="fill:#404040;"/>
  </a>
 </g>
</svg>

<style type='text/css'>
<![CDATA[
[data-mouse-over-selected='false'] { opacity: 0.7; }
[data-mouse-over-selected='true']  { opacity: 1.0; }
]]>
</style>
<script type="application/ecmascript"><![CDATA[
document.addEventListener('DOMContentLoaded', (event) => {
  highlightEdges();
  highlightAdjacentNodes();
});
]]></script>
</svg>
