<?xml version="1.0" encoding="UTF-8" standalone="no"?>
<!DOCTYPE svg PUBLIC "-//W3C//DTD SVG 1.1//EN"
 "http://www.w3.org/Graphics/SVG/1.1/DTD/svg11.dtd">
<!-- Generated by graphviz version 10.0.1 (20240210.2158)
 -->
<!-- Title: NAudio.Wave.Id3v2Tag.FrameSizeToBytes Pages: 1 -->
<svg width="719pt" height="39pt"
 viewBox="0.00 0.00 718.50 38.50" xmlns="http://www.w3.org/2000/svg" xmlns:xlink="http://www.w3.org/1999/xlink">
<g id="graph0" class="graph" transform="scale(1 1) rotate(0) translate(4 34.5)">
<title>NAudio.Wave.Id3v2Tag.FrameSizeToBytes</title>
<!-- Node1 -->
<g id="Node000001" class="node">
<title>Node1</title>
<g id="a_Node000001"><a xlink:title="Converts the frame size to a byte array and returns the result.">
<polygon fill="#999999" stroke="#666666" points="710.5,-30.5 561,-30.5 561,0 710.5,0 710.5,-30.5"/>
<text text-anchor="start" x="569" y="-17" font-family="Helvetica,sans-Serif" font-size="10.00">NAudio.Wave.Id3v2Tag.Frame</text>
<text text-anchor="middle" x="635.75" y="-5.75" font-family="Helvetica,sans-Serif" font-size="10.00">SizeToBytes</text>
</a>
</g>
</g>
<!-- Node2 -->
<g id="Node000002" class="node">
<title>Node2</title>
<g id="a_Node000002"><a xlink:href="class_n_audio_1_1_wave_1_1_id3v2_tag.html#ac5ca72f8e2fe3dc92b00c71cae78ac3d" target="_top" xlink:title="Creates an ID3v2 frame with the specified key and value.">
<polygon fill="white" stroke="#666666" points="525,-30.5 374,-30.5 374,0 525,0 525,-30.5"/>
<text text-anchor="start" x="382" y="-17" font-family="Helvetica,sans-Serif" font-size="10.00">NAudio.Wave.Id3v2Tag.Create</text>
<text text-anchor="middle" x="449.5" y="-5.75" font-family="Helvetica,sans-Serif" font-size="10.00">Id3v2Frame</text>
</a>
</g>
</g>
<!-- Node1&#45;&gt;Node2 -->
<g id="edge1_Node000001_Node000002" class="edge">
<title>Node1&#45;&gt;Node2</title>
<g id="a_edge1_Node000001_Node000002"><a xlink:title=" ">
<path fill="none" stroke="#63b8ff" d="M549.36,-15.25C541.36,-15.25 533.29,-15.25 525.39,-15.25"/>
<polygon fill="#63b8ff" stroke="#63b8ff" points="549.09,-18.75 559.09,-15.25 549.09,-11.75 549.09,-18.75"/>
</a>
</g>
</g>
<!-- Node3 -->
<g id="Node000003" class="node">
<title>Node3</title>
<g id="a_Node000003"><a xlink:href="class_n_audio_1_1_wave_1_1_id3v2_tag.html#aef524367b2998f7dd0f84d2f53a5bd20" target="_top" xlink:title="Creates an ID3v2 tag stream based on the provided tags.">
<polygon fill="white" stroke="#666666" points="338,-30.5 187,-30.5 187,0 338,0 338,-30.5"/>
<text text-anchor="start" x="195" y="-17" font-family="Helvetica,sans-Serif" font-size="10.00">NAudio.Wave.Id3v2Tag.Create</text>
<text text-anchor="middle" x="262.5" y="-5.75" font-family="Helvetica,sans-Serif" font-size="10.00">Id3v2TagStream</text>
</a>
</g>
</g>
<!-- Node2&#45;&gt;Node3 -->
<g id="edge2_Node000002_Node000003" class="edge">
<title>Node2&#45;&gt;Node3</title>
<g id="a_edge2_Node000002_Node000003"><a xlink:title=" ">
<path fill="none" stroke="#63b8ff" d="M362.26,-15.25C354.25,-15.25 346.18,-15.25 338.29,-15.25"/>
<polygon fill="#63b8ff" stroke="#63b8ff" points="362.01,-18.75 372.01,-15.25 362.01,-11.75 362.01,-18.75"/>
</a>
</g>
</g>
<!-- Node4 -->
<g id="Node000004" class="node">
<title>Node4</title>
<g id="a_Node000004"><a xlink:href="class_n_audio_1_1_wave_1_1_id3v2_tag.html#a7b8a11cb9080c3cfc8d0c4a3e25d372b" target="_top" xlink:title="Creates an ID3v2 tag from the given collection of key&#45;value pairs and returns the created tag.">
<polygon fill="white" stroke="#666666" points="151,-24.88 0,-24.88 0,-5.63 151,-5.63 151,-24.88"/>
<text text-anchor="middle" x="75.5" y="-11.38" font-family="Helvetica,sans-Serif" font-size="10.00">NAudio.Wave.Id3v2Tag.Create</text>
</a>
</g>
</g>
<!-- Node3&#45;&gt;Node4 -->
<g id="edge3_Node000003_Node000004" class="edge">
<title>Node3&#45;&gt;Node4</title>
<g id="a_edge3_Node000003_Node000004"><a xlink:title=" ">
<path fill="none" stroke="#63b8ff" d="M175.26,-15.25C167.25,-15.25 159.18,-15.25 151.29,-15.25"/>
<polygon fill="#63b8ff" stroke="#63b8ff" points="175.01,-18.75 185.01,-15.25 175.01,-11.75 175.01,-18.75"/>
</a>
</g>
</g>
</g>
</svg>
