<?xml version="1.0" encoding="UTF-8" standalone="no"?>
<!DOCTYPE svg PUBLIC "-//W3C//DTD SVG 1.1//EN"
 "http://www.w3.org/Graphics/SVG/1.1/DTD/svg11.dtd">
<!-- Generated by graphviz version 10.0.1 (20240210.2158)
 -->
<!-- Title: NAudio.Dsp.SmbPitchShifter Pages: 1 -->
<svg width="293pt" height="296pt"
 viewBox="0.00 0.00 292.50 295.75" xmlns="http://www.w3.org/2000/svg" xmlns:xlink="http://www.w3.org/1999/xlink">
<g id="graph0" class="graph" transform="scale(1 1) rotate(0) translate(4 291.75)">
<title>NAudio.Dsp.SmbPitchShifter</title>
<!-- Node1 -->
<g id="Node000001" class="node">
<title>Node1</title>
<g id="a_Node000001"><a xlink:title="SMB Pitch Shifter.">
<polygon fill="#999999" stroke="none" points="225.5,-79 82.5,-79 82.5,0 225.5,0 225.5,-79"/>
<text text-anchor="start" x="90.25" y="-65.5" font-family="Helvetica,sans-Serif" font-size="10.00">NAudio.Dsp.SmbPitchShifter</text>
<text text-anchor="start" x="152.5" y="-50.5" font-family="Helvetica,sans-Serif" font-size="10.00"> </text>
<text text-anchor="start" x="86.5" y="-35.5" font-family="Helvetica,sans-Serif" font-size="10.00">+</text>
<text text-anchor="start" x="96.5" y="-35.5" font-family="Helvetica,sans-Serif" font-size="10.00">PitchShift()</text>
<text text-anchor="start" x="86.5" y="-20.5" font-family="Helvetica,sans-Serif" font-size="10.00">+</text>
<text text-anchor="start" x="96.5" y="-20.5" font-family="Helvetica,sans-Serif" font-size="10.00">PitchShift()</text>
<text text-anchor="start" x="86.5" y="-5.5" font-family="Helvetica,sans-Serif" font-size="10.00">+</text>
<text text-anchor="start" x="96.5" y="-5.5" font-family="Helvetica,sans-Serif" font-size="10.00">ShortTimeFourierTransform()</text>
<polygon fill="#666666" stroke="#666666" points="82.5,-62 82.5,-62 225.5,-62 225.5,-62 82.5,-62"/>
<polygon fill="#666666" stroke="#666666" points="82.5,-47 82.5,-47 225.5,-47 225.5,-47 82.5,-47"/>
<polygon fill="none" stroke="#666666" points="82.5,0 82.5,-79 225.5,-79 225.5,0 82.5,0"/>
</a>
</g>
</g>
<!-- Node2 -->
<g id="Node000002" class="node">
<title>Node2</title>
<g id="a_Node000002"><a xlink:title=" ">
<polygon fill="white" stroke="none" points="34,-287.75 0,-287.75 0,-238.75 34,-238.75 34,-287.75"/>
<text text-anchor="start" x="5" y="-274.25" font-family="Helvetica,sans-Serif" font-size="10.00">static</text>
<text text-anchor="start" x="15.5" y="-259.25" font-family="Helvetica,sans-Serif" font-size="10.00"> </text>
<text text-anchor="start" x="15.5" y="-244.25" font-family="Helvetica,sans-Serif" font-size="10.00"> </text>
<polygon fill="#666666" stroke="#666666" points="0,-270.75 0,-270.75 34,-270.75 34,-270.75 0,-270.75"/>
<polygon fill="#666666" stroke="#666666" points="0,-255.75 0,-255.75 34,-255.75 34,-255.75 0,-255.75"/>
<polygon fill="none" stroke="#666666" points="0,-238.75 0,-287.75 34,-287.75 34,-238.75 0,-238.75"/>
</a>
</g>
</g>
<!-- Node2&#45;&gt;Node1 -->
<g id="edge1_Node000001_Node000002" class="edge">
<title>Node2&#45;&gt;Node1</title>
<g id="a_edge1_Node000001_Node000002"><a xlink:title=" ">
<path fill="none" stroke="#63b8ff" d="M13.12,-238.97C8.72,-204.55 5.66,-139.56 36,-97 44.96,-84.43 57.48,-74.55 71.04,-66.82"/>
<polygon fill="none" stroke="#63b8ff" points="71.16,-66.76 74.65,-60.45 81.82,-61.24 78.33,-67.55 71.16,-66.76"/>
</a>
</g>
<text text-anchor="middle" x="93" y="-155" font-family="Helvetica,sans-Serif" font-size="10.00" fill="grey"> &#45;MAX_FRAME_LENGTH</text>
</g>
<!-- Node3 -->
<g id="Node000003" class="node">
<title>Node3</title>
<g id="a_Node000003"><a xlink:title=" ">
<polygon fill="white" stroke="none" points="168,-287.75 140,-287.75 140,-238.75 168,-238.75 168,-287.75"/>
<text text-anchor="start" x="144.62" y="-274.25" font-family="Helvetica,sans-Serif" font-size="10.00">float</text>
<text text-anchor="start" x="152.5" y="-259.25" font-family="Helvetica,sans-Serif" font-size="10.00"> </text>
<text text-anchor="start" x="152.5" y="-244.25" font-family="Helvetica,sans-Serif" font-size="10.00"> </text>
<polygon fill="#666666" stroke="#666666" points="140,-270.75 140,-270.75 168,-270.75 168,-270.75 140,-270.75"/>
<polygon fill="#666666" stroke="#666666" points="140,-255.75 140,-255.75 168,-255.75 168,-255.75 140,-255.75"/>
<polygon fill="none" stroke="#666666" points="140,-238.75 140,-287.75 168,-287.75 168,-238.75 140,-238.75"/>
</a>
</g>
</g>
<!-- Node3&#45;&gt;Node1 -->
<g id="edge2_Node000001_Node000003" class="edge">
<title>Node3&#45;&gt;Node1</title>
<g id="a_edge2_Node000001_Node000003"><a xlink:title=" ">
<path fill="none" stroke="#63b8ff" d="M154,-238.94C154,-204.15 154,-137.78 154,-91.42"/>
<polygon fill="none" stroke="#63b8ff" points="154,-91.52 150,-85.52 154,-79.52 158,-85.52 154,-91.52"/>
</a>
</g>
<text text-anchor="middle" x="188.12" y="-211.25" font-family="Helvetica,sans-Serif" font-size="10.00" fill="grey"> &#45;gAnaFreq</text>
<text text-anchor="middle" x="188.12" y="-200" font-family="Helvetica,sans-Serif" font-size="10.00" fill="grey">&#45;gAnaMagn</text>
<text text-anchor="middle" x="188.12" y="-188.75" font-family="Helvetica,sans-Serif" font-size="10.00" fill="grey">&#45;gFFTworksp</text>
<text text-anchor="middle" x="188.12" y="-177.5" font-family="Helvetica,sans-Serif" font-size="10.00" fill="grey">&#45;gInFIFO</text>
<text text-anchor="middle" x="188.12" y="-166.25" font-family="Helvetica,sans-Serif" font-size="10.00" fill="grey">&#45;gLastPhase</text>
<text text-anchor="middle" x="188.12" y="-155" font-family="Helvetica,sans-Serif" font-size="10.00" fill="grey">&#45;gOutFIFO</text>
<text text-anchor="middle" x="188.12" y="-143.75" font-family="Helvetica,sans-Serif" font-size="10.00" fill="grey">&#45;gOutputAccum</text>
<text text-anchor="middle" x="188.12" y="-132.5" font-family="Helvetica,sans-Serif" font-size="10.00" fill="grey">&#45;gSumPhase</text>
<text text-anchor="middle" x="188.12" y="-121.25" font-family="Helvetica,sans-Serif" font-size="10.00" fill="grey">&#45;gSynFreq</text>
<text text-anchor="middle" x="188.12" y="-110" font-family="Helvetica,sans-Serif" font-size="10.00" fill="grey">&#45;gSynMagn</text>
<text text-anchor="middle" x="188.12" y="-98.75" font-family="Helvetica,sans-Serif" font-size="10.00" fill="grey">...</text>
</g>
<!-- Node4 -->
<g id="Node000004" class="node">
<title>Node4</title>
<g id="a_Node000004"><a xlink:title=" ">
<polygon fill="white" stroke="none" points="259,-287.75 231,-287.75 231,-238.75 259,-238.75 259,-287.75"/>
<text text-anchor="start" x="236" y="-274.25" font-family="Helvetica,sans-Serif" font-size="10.00">long</text>
<text text-anchor="start" x="243.5" y="-259.25" font-family="Helvetica,sans-Serif" font-size="10.00"> </text>
<text text-anchor="start" x="243.5" y="-244.25" font-family="Helvetica,sans-Serif" font-size="10.00"> </text>
<polygon fill="#666666" stroke="#666666" points="231,-270.75 231,-270.75 259,-270.75 259,-270.75 231,-270.75"/>
<polygon fill="#666666" stroke="#666666" points="231,-255.75 231,-255.75 259,-255.75 259,-255.75 231,-255.75"/>
<polygon fill="none" stroke="#666666" points="231,-238.75 231,-287.75 259,-287.75 259,-238.75 231,-238.75"/>
</a>
</g>
</g>
<!-- Node4&#45;&gt;Node1 -->
<g id="edge3_Node000001_Node000004" class="edge">
<title>Node4&#45;&gt;Node1</title>
<g id="a_edge3_Node000001_Node000004"><a xlink:title=" ">
<path fill="none" stroke="#63b8ff" d="M247.06,-238.96C248.93,-205.36 248.29,-142.38 223,-97 221.42,-94.16 219.63,-91.41 217.68,-88.74"/>
<polygon fill="none" stroke="#63b8ff" points="217.75,-88.82 210.83,-86.79 210.04,-79.62 216.96,-81.65 217.75,-88.82"/>
</a>
</g>
<text text-anchor="middle" x="265.75" y="-155" font-family="Helvetica,sans-Serif" font-size="10.00" fill="grey"> &#45;gRover</text>
</g>
</g>
</svg>
