<?xml version="1.0" encoding="UTF-8" standalone="no"?>
<!DOCTYPE svg PUBLIC "-//W3C//DTD SVG 1.1//EN"
 "http://www.w3.org/Graphics/SVG/1.1/DTD/svg11.dtd">
<!-- Generated by graphviz version 10.0.1 (20240210.2158)
 -->
<!-- Title: NAudio.Midi.SmpteOffsetEvent Pages: 1 -->
<svg width="340pt" height="837pt"
 viewBox="0.00 0.00 340.29 837.00" xmlns="http://www.w3.org/2000/svg" xmlns:xlink="http://www.w3.org/1999/xlink">
<g id="graph0" class="graph" transform="scale(1 1) rotate(0) translate(4 833)">
<title>NAudio.Midi.SmpteOffsetEvent</title>
<!-- Node1 -->
<g id="Node000001" class="node">
<title>Node1</title>
<g id="a_Node000001"><a xlink:title="SMPTE Offset Event.">
<polygon fill="#999999" stroke="none" points="291.79,-169 144.79,-169 144.79,0 291.79,0 291.79,-169"/>
<text text-anchor="start" x="149.66" y="-155.5" font-family="Helvetica,sans-Serif" font-size="10.00">NAudio.Midi.SmpteOffsetEvent</text>
<text text-anchor="start" x="159.29" y="-140.5" font-family="Helvetica,sans-Serif" font-size="10.00">+</text>
<text text-anchor="start" x="179.79" y="-140.5" font-family="Helvetica,sans-Serif" font-size="10.00">Hours</text>
<text text-anchor="start" x="159.29" y="-125.5" font-family="Helvetica,sans-Serif" font-size="10.00">+</text>
<text text-anchor="start" x="179.79" y="-125.5" font-family="Helvetica,sans-Serif" font-size="10.00">Minutes</text>
<text text-anchor="start" x="159.29" y="-110.5" font-family="Helvetica,sans-Serif" font-size="10.00">+</text>
<text text-anchor="start" x="179.79" y="-110.5" font-family="Helvetica,sans-Serif" font-size="10.00">Seconds</text>
<text text-anchor="start" x="159.29" y="-95.5" font-family="Helvetica,sans-Serif" font-size="10.00">+</text>
<text text-anchor="start" x="179.79" y="-95.5" font-family="Helvetica,sans-Serif" font-size="10.00">Frames</text>
<text text-anchor="start" x="159.29" y="-80.5" font-family="Helvetica,sans-Serif" font-size="10.00">+</text>
<text text-anchor="start" x="179.79" y="-80.5" font-family="Helvetica,sans-Serif" font-size="10.00">SubFrames</text>
<text text-anchor="start" x="159.29" y="-65.5" font-family="Helvetica,sans-Serif" font-size="10.00">+</text>
<text text-anchor="start" x="179.79" y="-65.5" font-family="Helvetica,sans-Serif" font-size="10.00">SmpteOffsetEvent()</text>
<text text-anchor="start" x="159.29" y="-50.5" font-family="Helvetica,sans-Serif" font-size="10.00">+</text>
<text text-anchor="start" x="179.79" y="-50.5" font-family="Helvetica,sans-Serif" font-size="10.00">SmpteOffsetEvent()</text>
<text text-anchor="start" x="159.29" y="-35.5" font-family="Helvetica,sans-Serif" font-size="10.00">+</text>
<text text-anchor="start" x="179.79" y="-35.5" font-family="Helvetica,sans-Serif" font-size="10.00">Clone()</text>
<text text-anchor="start" x="159.29" y="-20.5" font-family="Helvetica,sans-Serif" font-size="10.00">+</text>
<text text-anchor="start" x="179.79" y="-20.5" font-family="Helvetica,sans-Serif" font-size="10.00">ToString()</text>
<text text-anchor="start" x="159.29" y="-5.5" font-family="Helvetica,sans-Serif" font-size="10.00">+</text>
<text text-anchor="start" x="179.79" y="-5.5" font-family="Helvetica,sans-Serif" font-size="10.00">Export()</text>
<polygon fill="#666666" stroke="#666666" points="144.79,-152 144.79,-152 291.79,-152 291.79,-152 144.79,-152"/>
<polygon fill="#666666" stroke="#666666" points="144.79,-77 144.79,-77 177.79,-77 177.79,-77 144.79,-77"/>
<polygon fill="#666666" stroke="#666666" points="177.79,-77 177.79,-77 291.79,-77 291.79,-77 177.79,-77"/>
<polygon fill="none" stroke="#666666" points="144.79,0 144.79,-169 291.79,-169 291.79,0 144.79,0"/>
</a>
</g>
</g>
<!-- Node2 -->
<g id="Node000002" class="node">
<title>Node2</title>
<g id="a_Node000002"><a xlink:href="class_n_audio_1_1_midi_1_1_meta_event.html" target="_top" xlink:title="Represents a MIDI meta event.">
<polygon fill="white" stroke="none" points="226.29,-385.25 132.29,-385.25 132.29,-261.25 226.29,-261.25 226.29,-385.25"/>
<text text-anchor="start" x="155.66" y="-371.75" font-family="Helvetica,sans-Serif" font-size="10.00">MetaEvent</text>
<text text-anchor="start" x="136.29" y="-356.75" font-family="Helvetica,sans-Serif" font-size="10.00">+</text>
<text text-anchor="start" x="146.29" y="-356.75" font-family="Helvetica,sans-Serif" font-size="10.00">MetaEventType</text>
<text text-anchor="start" x="136.29" y="-341.75" font-family="Helvetica,sans-Serif" font-size="10.00">+</text>
<text text-anchor="start" x="146.29" y="-341.75" font-family="Helvetica,sans-Serif" font-size="10.00">MetaEvent()</text>
<text text-anchor="start" x="136.29" y="-326.75" font-family="Helvetica,sans-Serif" font-size="10.00">+</text>
<text text-anchor="start" x="146.29" y="-326.75" font-family="Helvetica,sans-Serif" font-size="10.00">Clone()</text>
<text text-anchor="start" x="136.29" y="-311.75" font-family="Helvetica,sans-Serif" font-size="10.00">+</text>
<text text-anchor="start" x="146.29" y="-311.75" font-family="Helvetica,sans-Serif" font-size="10.00">ToString()</text>
<text text-anchor="start" x="136.29" y="-296.75" font-family="Helvetica,sans-Serif" font-size="10.00">+</text>
<text text-anchor="start" x="146.29" y="-296.75" font-family="Helvetica,sans-Serif" font-size="10.00">Export()</text>
<text text-anchor="start" x="136.29" y="-281.75" font-family="Helvetica,sans-Serif" font-size="10.00">+</text>
<text text-anchor="start" x="146.29" y="-281.75" font-family="Helvetica,sans-Serif" font-size="10.00">ReadMetaEvent()</text>
<text text-anchor="start" x="136.66" y="-266.75" font-family="Helvetica,sans-Serif" font-size="10.00">#</text>
<text text-anchor="start" x="146.29" y="-266.75" font-family="Helvetica,sans-Serif" font-size="10.00">MetaEvent()</text>
<polygon fill="#666666" stroke="#666666" points="132.29,-368.25 132.29,-368.25 226.29,-368.25 226.29,-368.25 132.29,-368.25"/>
<polygon fill="#666666" stroke="#666666" points="132.29,-353.25 132.29,-353.25 144.29,-353.25 144.29,-353.25 132.29,-353.25"/>
<polygon fill="#666666" stroke="#666666" points="144.29,-353.25 144.29,-353.25 226.29,-353.25 226.29,-353.25 144.29,-353.25"/>
<polygon fill="none" stroke="#666666" points="132.29,-261.25 132.29,-385.25 226.29,-385.25 226.29,-261.25 132.29,-261.25"/>
</a>
</g>
</g>
<!-- Node2&#45;&gt;Node1 -->
<g id="edge1_Node000001_Node000002" class="edge">
<title>Node2&#45;&gt;Node1</title>
<g id="a_edge1_Node000001_Node000002"><a xlink:title=" ">
<path fill="none" stroke="#63b8ff" d="M191.17,-250.1C195.41,-224.36 200.22,-195.16 204.6,-168.57"/>
<polygon fill="none" stroke="#63b8ff" points="187.75,-249.35 189.57,-259.79 194.65,-250.49 187.75,-249.35"/>
</a>
</g>
</g>
<!-- Node3 -->
<g id="Node000003" class="node">
<title>Node3</title>
<g id="a_Node000003"><a xlink:href="class_n_audio_1_1_midi_1_1_midi_event.html" target="_top" xlink:title="Represents an individual MIDI event.">
<polygon fill="white" stroke="none" points="236.29,-721.5 122.29,-721.5 122.29,-432.5 236.29,-432.5 236.29,-721.5"/>
<text text-anchor="start" x="157.54" y="-708" font-family="Helvetica,sans-Serif" font-size="10.00">MidiEvent</text>
<text text-anchor="start" x="126.29" y="-693" font-family="Helvetica,sans-Serif" font-size="10.00">+</text>
<text text-anchor="start" x="136.29" y="-693" font-family="Helvetica,sans-Serif" font-size="10.00">Channel</text>
<text text-anchor="start" x="126.29" y="-678" font-family="Helvetica,sans-Serif" font-size="10.00">+</text>
<text text-anchor="start" x="136.29" y="-678" font-family="Helvetica,sans-Serif" font-size="10.00">DeltaTime</text>
<text text-anchor="start" x="126.29" y="-663" font-family="Helvetica,sans-Serif" font-size="10.00">+</text>
<text text-anchor="start" x="136.29" y="-663" font-family="Helvetica,sans-Serif" font-size="10.00">AbsoluteTime</text>
<text text-anchor="start" x="126.29" y="-648" font-family="Helvetica,sans-Serif" font-size="10.00">+</text>
<text text-anchor="start" x="136.29" y="-648" font-family="Helvetica,sans-Serif" font-size="10.00">CommandCode</text>
<text text-anchor="start" x="126.29" y="-633" font-family="Helvetica,sans-Serif" font-size="10.00">+</text>
<text text-anchor="start" x="136.29" y="-633" font-family="Helvetica,sans-Serif" font-size="10.00">GetAsShortMessage()</text>
<text text-anchor="start" x="126.29" y="-618" font-family="Helvetica,sans-Serif" font-size="10.00">+</text>
<text text-anchor="start" x="136.29" y="-618" font-family="Helvetica,sans-Serif" font-size="10.00">MidiEvent()</text>
<text text-anchor="start" x="126.29" y="-603" font-family="Helvetica,sans-Serif" font-size="10.00">+</text>
<text text-anchor="start" x="136.29" y="-603" font-family="Helvetica,sans-Serif" font-size="10.00">Clone()</text>
<text text-anchor="start" x="126.29" y="-588" font-family="Helvetica,sans-Serif" font-size="10.00">+</text>
<text text-anchor="start" x="136.29" y="-588" font-family="Helvetica,sans-Serif" font-size="10.00">ToString()</text>
<text text-anchor="start" x="126.29" y="-573" font-family="Helvetica,sans-Serif" font-size="10.00">+</text>
<text text-anchor="start" x="136.29" y="-573" font-family="Helvetica,sans-Serif" font-size="10.00">Export()</text>
<text text-anchor="start" x="126.29" y="-558" font-family="Helvetica,sans-Serif" font-size="10.00">+</text>
<text text-anchor="start" x="136.29" y="-558" font-family="Helvetica,sans-Serif" font-size="10.00">FromRawMessage()</text>
<text text-anchor="start" x="126.29" y="-543" font-family="Helvetica,sans-Serif" font-size="10.00">+</text>
<text text-anchor="start" x="136.29" y="-543" font-family="Helvetica,sans-Serif" font-size="10.00">ReadNextEvent()</text>
<text text-anchor="start" x="126.29" y="-528" font-family="Helvetica,sans-Serif" font-size="10.00">+</text>
<text text-anchor="start" x="136.29" y="-528" font-family="Helvetica,sans-Serif" font-size="10.00">IsNoteOff()</text>
<text text-anchor="start" x="126.29" y="-513" font-family="Helvetica,sans-Serif" font-size="10.00">+</text>
<text text-anchor="start" x="136.29" y="-513" font-family="Helvetica,sans-Serif" font-size="10.00">IsNoteOn()</text>
<text text-anchor="start" x="126.29" y="-498" font-family="Helvetica,sans-Serif" font-size="10.00">+</text>
<text text-anchor="start" x="136.29" y="-498" font-family="Helvetica,sans-Serif" font-size="10.00">IsEndTrack()</text>
<text text-anchor="start" x="126.29" y="-483" font-family="Helvetica,sans-Serif" font-size="10.00">+</text>
<text text-anchor="start" x="136.29" y="-483" font-family="Helvetica,sans-Serif" font-size="10.00">ReadVarInt()</text>
<text text-anchor="start" x="126.29" y="-468" font-family="Helvetica,sans-Serif" font-size="10.00">+</text>
<text text-anchor="start" x="136.29" y="-468" font-family="Helvetica,sans-Serif" font-size="10.00">WriteVarInt()</text>
<text text-anchor="start" x="126.66" y="-453" font-family="Helvetica,sans-Serif" font-size="10.00">#</text>
<text text-anchor="start" x="136.29" y="-453" font-family="Helvetica,sans-Serif" font-size="10.00">MidiEvent()</text>
<text text-anchor="start" x="127.79" y="-438" font-family="Helvetica,sans-Serif" font-size="10.00">&#45;</text>
<text text-anchor="start" x="136.29" y="-438" font-family="Helvetica,sans-Serif" font-size="10.00">Clone()</text>
<polygon fill="#666666" stroke="#666666" points="122.29,-704.5 122.29,-704.5 236.29,-704.5 236.29,-704.5 122.29,-704.5"/>
<polygon fill="#666666" stroke="#666666" points="122.29,-644.5 122.29,-644.5 134.29,-644.5 134.29,-644.5 122.29,-644.5"/>
<polygon fill="#666666" stroke="#666666" points="134.29,-644.5 134.29,-644.5 236.29,-644.5 236.29,-644.5 134.29,-644.5"/>
<polygon fill="none" stroke="#666666" points="122.29,-432.5 122.29,-721.5 236.29,-721.5 236.29,-432.5 122.29,-432.5"/>
</a>
</g>
</g>
<!-- Node3&#45;&gt;Node2 -->
<g id="edge2_Node000002_Node000003" class="edge">
<title>Node3&#45;&gt;Node2</title>
<g id="a_edge2_Node000002_Node000003"><a xlink:title=" ">
<path fill="none" stroke="#63b8ff" d="M179.29,-421.56C179.29,-408.82 179.29,-396.5 179.29,-385.15"/>
<polygon fill="none" stroke="#63b8ff" points="175.79,-421.33 179.29,-431.33 182.79,-421.33 175.79,-421.33"/>
</a>
</g>
</g>
<!-- Node4 -->
<g id="Node000004" class="node">
<title>Node4</title>
<g id="a_Node000004"><a xlink:href="class_i_cloneable.html" target="_top" xlink:title=" ">
<polygon fill="white" stroke="none" points="328.29,-829 272.29,-829 272.29,-780 328.29,-780 328.29,-829"/>
<text text-anchor="start" x="277.04" y="-815.5" font-family="Helvetica,sans-Serif" font-size="10.00">ICloneable</text>
<text text-anchor="start" x="298.79" y="-800.5" font-family="Helvetica,sans-Serif" font-size="10.00"> </text>
<text text-anchor="start" x="298.79" y="-785.5" font-family="Helvetica,sans-Serif" font-size="10.00"> </text>
<polygon fill="#666666" stroke="#666666" points="272.29,-812 272.29,-812 328.29,-812 328.29,-812 272.29,-812"/>
<polygon fill="#666666" stroke="#666666" points="272.29,-797 272.29,-797 328.29,-797 328.29,-797 272.29,-797"/>
<polygon fill="none" stroke="#666666" points="272.29,-780 272.29,-829 328.29,-829 328.29,-780 272.29,-780"/>
</a>
</g>
</g>
<!-- Node4&#45;&gt;Node3 -->
<g id="edge3_Node000003_Node000004" class="edge">
<title>Node4&#45;&gt;Node3</title>
<g id="a_edge3_Node000003_Node000004"><a xlink:title=" ">
<path fill="none" stroke="#63b8ff" d="M296.14,-769.05C293.52,-758.67 289.24,-747.83 282.29,-739.5 270.56,-725.47 258.08,-734.57 245.29,-721.5 242.12,-718.27 239.09,-714.85 236.19,-711.3"/>
<polygon fill="none" stroke="#63b8ff" points="292.65,-769.43 298.09,-778.52 299.5,-768.02 292.65,-769.43"/>
</a>
</g>
</g>
<!-- Node5 -->
<g id="Node000005" class="node">
<title>Node5</title>
<g id="a_Node000005"><a xlink:title=" ">
<polygon fill="white" stroke="none" points="173.29,-829 77.29,-829 77.29,-780 173.29,-780 173.29,-829"/>
<text text-anchor="start" x="82.16" y="-815.5" font-family="Helvetica,sans-Serif" font-size="10.00">MidiCommandCode</text>
<text text-anchor="start" x="123.79" y="-800.5" font-family="Helvetica,sans-Serif" font-size="10.00"> </text>
<text text-anchor="start" x="123.79" y="-785.5" font-family="Helvetica,sans-Serif" font-size="10.00"> </text>
<polygon fill="#666666" stroke="#666666" points="77.29,-812 77.29,-812 173.29,-812 173.29,-812 77.29,-812"/>
<polygon fill="#666666" stroke="#666666" points="77.29,-797 77.29,-797 173.29,-797 173.29,-797 77.29,-797"/>
<polygon fill="none" stroke="#666666" points="77.29,-780 77.29,-829 173.29,-829 173.29,-780 77.29,-780"/>
</a>
</g>
</g>
<!-- Node5&#45;&gt;Node3 -->
<g id="edge4_Node000003_Node000005" class="edge">
<title>Node5&#45;&gt;Node3</title>
<g id="a_edge4_Node000003_Node000005"><a xlink:title=" ">
<path fill="none" stroke="#63b8ff" d="M127.8,-780.27C129.31,-768.06 131.49,-752.9 134.29,-739.5 134.68,-737.63 135.08,-735.75 135.48,-733.86"/>
<polygon fill="none" stroke="#63b8ff" points="135.48,-733.88 132.89,-727.15 138.1,-722.17 140.69,-728.9 135.48,-733.88"/>
</a>
</g>
<text text-anchor="middle" x="170.29" y="-746.88" font-family="Helvetica,sans-Serif" font-size="10.00" fill="grey"> &#45;commandCode</text>
</g>
<!-- Node6 -->
<g id="Node000006" class="node">
<title>Node6</title>
<g id="a_Node000006"><a xlink:title=" ">
<polygon fill="white" stroke="none" points="46.29,-829 26.29,-829 26.29,-780 46.29,-780 46.29,-829"/>
<text text-anchor="start" x="31.04" y="-815.5" font-family="Helvetica,sans-Serif" font-size="10.00">int</text>
<text text-anchor="start" x="34.79" y="-800.5" font-family="Helvetica,sans-Serif" font-size="10.00"> </text>
<text text-anchor="start" x="34.79" y="-785.5" font-family="Helvetica,sans-Serif" font-size="10.00"> </text>
<polygon fill="#666666" stroke="#666666" points="26.29,-812 26.29,-812 46.29,-812 46.29,-812 26.29,-812"/>
<polygon fill="#666666" stroke="#666666" points="26.29,-797 26.29,-797 46.29,-797 46.29,-797 26.29,-797"/>
<polygon fill="none" stroke="#666666" points="26.29,-780 26.29,-829 46.29,-829 46.29,-780 26.29,-780"/>
</a>
</g>
</g>
<!-- Node6&#45;&gt;Node2 -->
<g id="edge8_Node000002_Node000006" class="edge">
<title>Node6&#45;&gt;Node2</title>
<g id="a_edge8_Node000002_Node000006"><a xlink:title=" ">
<path fill="none" stroke="#63b8ff" d="M29.04,-780.12C11.49,-718.99 -27.58,-550.92 32.29,-432.5 50.89,-395.69 88.58,-368.32 121.13,-350.32"/>
<polygon fill="none" stroke="#63b8ff" points="121,-350.39 124.42,-344.04 131.6,-344.76 128.17,-351.11 121,-350.39"/>
</a>
</g>
<text text-anchor="middle" x="72.79" y="-573.12" font-family="Helvetica,sans-Serif" font-size="10.00" fill="grey"> ~metaDataLength</text>
</g>
<!-- Node6&#45;&gt;Node3 -->
<g id="edge5_Node000003_Node000006" class="edge">
<title>Node6&#45;&gt;Node3</title>
<g id="a_edge5_Node000003_Node000006"><a xlink:title=" ">
<path fill="none" stroke="#63b8ff" d="M46.13,-786.18C54.43,-772.51 67.23,-753.48 81.54,-739.5 91.78,-729.49 98.85,-732.28 108.29,-721.5 110.45,-719.03 112.56,-716.48 114.63,-713.87"/>
<polygon fill="none" stroke="#63b8ff" points="114.65,-713.84 115.02,-706.64 121.82,-704.21 121.44,-711.42 114.65,-713.84"/>
</a>
</g>
<text text-anchor="middle" x="105.16" y="-752.5" font-family="Helvetica,sans-Serif" font-size="10.00" fill="grey"> &#45;channel</text>
<text text-anchor="middle" x="105.16" y="-741.25" font-family="Helvetica,sans-Serif" font-size="10.00" fill="grey">&#45;deltaTime</text>
</g>
<!-- Node7 -->
<g id="Node000007" class="node">
<title>Node7</title>
<g id="a_Node000007"><a xlink:title=" ">
<polygon fill="white" stroke="none" points="234.29,-829 206.29,-829 206.29,-780 234.29,-780 234.29,-829"/>
<text text-anchor="start" x="211.29" y="-815.5" font-family="Helvetica,sans-Serif" font-size="10.00">long</text>
<text text-anchor="start" x="218.79" y="-800.5" font-family="Helvetica,sans-Serif" font-size="10.00"> </text>
<text text-anchor="start" x="218.79" y="-785.5" font-family="Helvetica,sans-Serif" font-size="10.00"> </text>
<polygon fill="#666666" stroke="#666666" points="206.29,-812 206.29,-812 234.29,-812 234.29,-812 206.29,-812"/>
<polygon fill="#666666" stroke="#666666" points="206.29,-797 206.29,-797 234.29,-797 234.29,-797 206.29,-797"/>
<polygon fill="none" stroke="#666666" points="206.29,-780 206.29,-829 234.29,-829 234.29,-780 206.29,-780"/>
</a>
</g>
</g>
<!-- Node7&#45;&gt;Node3 -->
<g id="edge6_Node000003_Node000007" class="edge">
<title>Node7&#45;&gt;Node3</title>
<g id="a_edge6_Node000003_Node000007"><a xlink:title=" ">
<path fill="none" stroke="#63b8ff" d="M216.05,-780.22C213.82,-767.97 210.88,-751.78 207.63,-733.89"/>
<polygon fill="none" stroke="#63b8ff" points="207.64,-733.95 202.63,-728.76 205.49,-722.14 210.5,-727.33 207.64,-733.95"/>
</a>
</g>
<text text-anchor="middle" x="245.54" y="-746.88" font-family="Helvetica,sans-Serif" font-size="10.00" fill="grey"> &#45;absoluteTime</text>
</g>
<!-- Node8 -->
<g id="Node000008" class="node">
<title>Node8</title>
<g id="a_Node000008"><a xlink:title=" ">
<polygon fill="white" stroke="none" points="332.29,-601.5 254.29,-601.5 254.29,-552.5 332.29,-552.5 332.29,-601.5"/>
<text text-anchor="start" x="259.16" y="-588" font-family="Helvetica,sans-Serif" font-size="10.00">MetaEventType</text>
<text text-anchor="start" x="291.79" y="-573" font-family="Helvetica,sans-Serif" font-size="10.00"> </text>
<text text-anchor="start" x="291.79" y="-558" font-family="Helvetica,sans-Serif" font-size="10.00"> </text>
<polygon fill="#666666" stroke="#666666" points="254.29,-584.5 254.29,-584.5 332.29,-584.5 332.29,-584.5 254.29,-584.5"/>
<polygon fill="#666666" stroke="#666666" points="254.29,-569.5 254.29,-569.5 332.29,-569.5 332.29,-569.5 254.29,-569.5"/>
<polygon fill="none" stroke="#666666" points="254.29,-552.5 254.29,-601.5 332.29,-601.5 332.29,-552.5 254.29,-552.5"/>
</a>
</g>
</g>
<!-- Node8&#45;&gt;Node2 -->
<g id="edge7_Node000002_Node000008" class="edge">
<title>Node8&#45;&gt;Node2</title>
<g id="a_edge7_Node000002_Node000008"><a xlink:title=" ">
<path fill="none" stroke="#63b8ff" d="M287.19,-552.52C279.28,-523.58 264.22,-473.24 245.29,-432.5 239.7,-420.48 233.08,-408.11 226.23,-396.24"/>
<polygon fill="none" stroke="#63b8ff" points="226.18,-396.15 219.69,-393.01 220.08,-385.81 226.58,-388.95 226.18,-396.15"/>
</a>
</g>
<text text-anchor="middle" x="261.91" y="-405" font-family="Helvetica,sans-Serif" font-size="10.00" fill="grey"> &#45;metaEvent</text>
</g>
<!-- Node9 -->
<g id="Node000009" class="node">
<title>Node9</title>
<g id="a_Node000009"><a xlink:title=" ">
<polygon fill="white" stroke="none" points="272.29,-347.75 244.29,-347.75 244.29,-298.75 272.29,-298.75 272.29,-347.75"/>
<text text-anchor="start" x="248.91" y="-334.25" font-family="Helvetica,sans-Serif" font-size="10.00">byte</text>
<text text-anchor="start" x="256.79" y="-319.25" font-family="Helvetica,sans-Serif" font-size="10.00"> </text>
<text text-anchor="start" x="256.79" y="-304.25" font-family="Helvetica,sans-Serif" font-size="10.00"> </text>
<polygon fill="#666666" stroke="#666666" points="244.29,-330.75 244.29,-330.75 272.29,-330.75 272.29,-330.75 244.29,-330.75"/>
<polygon fill="#666666" stroke="#666666" points="244.29,-315.75 244.29,-315.75 272.29,-315.75 272.29,-315.75 244.29,-315.75"/>
<polygon fill="none" stroke="#666666" points="244.29,-298.75 244.29,-347.75 272.29,-347.75 272.29,-298.75 244.29,-298.75"/>
</a>
</g>
</g>
<!-- Node9&#45;&gt;Node1 -->
<g id="edge9_Node000001_Node000009" class="edge">
<title>Node9&#45;&gt;Node1</title>
<g id="a_edge9_Node000001_Node000009"><a xlink:title=" ">
<path fill="none" stroke="#63b8ff" d="M254.38,-299.12C249.76,-271.8 241.79,-224.6 234.51,-181.51"/>
<polygon fill="none" stroke="#63b8ff" points="234.52,-181.61 229.58,-176.37 232.53,-169.78 237.47,-175.03 234.52,-181.61"/>
</a>
</g>
<text text-anchor="middle" x="269.16" y="-233.75" font-family="Helvetica,sans-Serif" font-size="10.00" fill="grey"> &#45;frames</text>
<text text-anchor="middle" x="269.16" y="-222.5" font-family="Helvetica,sans-Serif" font-size="10.00" fill="grey">&#45;hours</text>
<text text-anchor="middle" x="269.16" y="-211.25" font-family="Helvetica,sans-Serif" font-size="10.00" fill="grey">&#45;minutes</text>
<text text-anchor="middle" x="269.16" y="-200" font-family="Helvetica,sans-Serif" font-size="10.00" fill="grey">&#45;seconds</text>
<text text-anchor="middle" x="269.16" y="-188.75" font-family="Helvetica,sans-Serif" font-size="10.00" fill="grey">&#45;subFrames</text>
</g>
</g>
</svg>
