<?xml version="1.0" encoding="UTF-8" standalone="no"?>
<!DOCTYPE svg PUBLIC "-//W3C//DTD SVG 1.1//EN"
 "http://www.w3.org/Graphics/SVG/1.1/DTD/svg11.dtd">
<!-- Generated by graphviz version 10.0.1 (20240210.2158)
 -->
<!-- Title: NAudio.Wave.SampleProviders.MonoFloatSampleChunkConverter Pages: 1 -->
<svg width="559pt" height="677pt"
 viewBox="0.00 0.00 559.00 676.75" xmlns="http://www.w3.org/2000/svg" xmlns:xlink="http://www.w3.org/1999/xlink">
<g id="graph0" class="graph" transform="scale(1 1) rotate(0) translate(4 672.75)">
<title>NAudio.Wave.SampleProviders.MonoFloatSampleChunkConverter</title>
<!-- Node1 -->
<g id="Node000001" class="node">
<title>Node1</title>
<g id="a_Node000001"><a xlink:title=" ">
<polygon fill="#999999" stroke="none" points="281.5,-90 121.5,-90 121.5,0 281.5,0 281.5,-90"/>
<text text-anchor="start" x="126.5" y="-76.5" font-family="Helvetica,sans-Serif" font-size="10.00">NAudio.Wave.SampleProviders.</text>
<text text-anchor="start" x="126.5" y="-65.25" font-family="Helvetica,sans-Serif" font-size="10.00">MonoFloatSampleChunkConverter</text>
<text text-anchor="start" x="200" y="-50.5" font-family="Helvetica,sans-Serif" font-size="10.00"> </text>
<text text-anchor="start" x="142" y="-35.5" font-family="Helvetica,sans-Serif" font-size="10.00">+</text>
<text text-anchor="start" x="168.5" y="-35.5" font-family="Helvetica,sans-Serif" font-size="10.00">Supports()</text>
<text text-anchor="start" x="142" y="-20.5" font-family="Helvetica,sans-Serif" font-size="10.00">+</text>
<text text-anchor="start" x="168.5" y="-20.5" font-family="Helvetica,sans-Serif" font-size="10.00">LoadNextChunk()</text>
<text text-anchor="start" x="142" y="-5.5" font-family="Helvetica,sans-Serif" font-size="10.00">+</text>
<text text-anchor="start" x="168.5" y="-5.5" font-family="Helvetica,sans-Serif" font-size="10.00">GetNextSample()</text>
<polygon fill="#666666" stroke="#666666" points="121.5,-62 121.5,-62 281.5,-62 281.5,-62 121.5,-62"/>
<polygon fill="#666666" stroke="#666666" points="121.5,-47 121.5,-47 281.5,-47 281.5,-47 121.5,-47"/>
<polygon fill="none" stroke="#666666" points="121.5,0 121.5,-90 281.5,-90 281.5,0 121.5,0"/>
</a>
</g>
</g>
<!-- Node2 -->
<g id="Node000002" class="node">
<title>Node2</title>
<g id="a_Node000002"><a xlink:href="interface_n_audio_1_1_wave_1_1_sample_providers_1_1_i_sample_chunk_converter.html" target="_top" xlink:title="Sample provider interface to make WaveChannel32 extensible Still a bit ugly, hence internal at the mo...">
<polygon fill="white" stroke="none" points="117,-328.75 0,-328.75 0,-249.75 117,-249.75 117,-328.75"/>
<text text-anchor="start" x="4.88" y="-315.25" font-family="Helvetica,sans-Serif" font-size="10.00">ISampleChunkConverter</text>
<text text-anchor="start" x="57" y="-300.25" font-family="Helvetica,sans-Serif" font-size="10.00"> </text>
<text text-anchor="start" x="9.5" y="-285.25" font-family="Helvetica,sans-Serif" font-size="10.00">+</text>
<text text-anchor="start" x="25" y="-285.25" font-family="Helvetica,sans-Serif" font-size="10.00">Supports()</text>
<text text-anchor="start" x="9.5" y="-270.25" font-family="Helvetica,sans-Serif" font-size="10.00">+</text>
<text text-anchor="start" x="25" y="-270.25" font-family="Helvetica,sans-Serif" font-size="10.00">LoadNextChunk()</text>
<text text-anchor="start" x="9.5" y="-255.25" font-family="Helvetica,sans-Serif" font-size="10.00">+</text>
<text text-anchor="start" x="25" y="-255.25" font-family="Helvetica,sans-Serif" font-size="10.00">GetNextSample()</text>
<polygon fill="#666666" stroke="#666666" points="0,-311.75 0,-311.75 117,-311.75 117,-311.75 0,-311.75"/>
<polygon fill="#666666" stroke="#666666" points="0,-296.75 0,-296.75 117,-296.75 117,-296.75 0,-296.75"/>
<polygon fill="none" stroke="#666666" points="0,-249.75 0,-328.75 117,-328.75 117,-249.75 0,-249.75"/>
</a>
</g>
</g>
<!-- Node2&#45;&gt;Node1 -->
<g id="edge1_Node000001_Node000002" class="edge">
<title>Node2&#45;&gt;Node1</title>
<g id="a_edge1_Node000001_Node000002"><a xlink:title=" ">
<path fill="none" stroke="#63b8ff" d="M75,-239.2C88.97,-201.46 111.22,-149 139.5,-108 143.82,-101.73 148.82,-95.55 154.07,-89.66"/>
<polygon fill="none" stroke="#63b8ff" points="71.74,-237.91 71.62,-248.5 78.32,-240.3 71.74,-237.91"/>
</a>
</g>
</g>
<!-- Node3 -->
<g id="Node000003" class="node">
<title>Node3</title>
<g id="a_Node000003"><a xlink:title=" ">
<polygon fill="white" stroke="none" points="178.5,-608.75 158.5,-608.75 158.5,-559.75 178.5,-559.75 178.5,-608.75"/>
<text text-anchor="start" x="163.25" y="-595.25" font-family="Helvetica,sans-Serif" font-size="10.00">int</text>
<text text-anchor="start" x="167" y="-580.25" font-family="Helvetica,sans-Serif" font-size="10.00"> </text>
<text text-anchor="start" x="167" y="-565.25" font-family="Helvetica,sans-Serif" font-size="10.00"> </text>
<polygon fill="#666666" stroke="#666666" points="158.5,-591.75 158.5,-591.75 178.5,-591.75 178.5,-591.75 158.5,-591.75"/>
<polygon fill="#666666" stroke="#666666" points="158.5,-576.75 158.5,-576.75 178.5,-576.75 178.5,-576.75 158.5,-576.75"/>
<polygon fill="none" stroke="#666666" points="158.5,-559.75 158.5,-608.75 178.5,-608.75 178.5,-559.75 158.5,-559.75"/>
</a>
</g>
</g>
<!-- Node3&#45;&gt;Node1 -->
<g id="edge2_Node000001_Node000003" class="edge">
<title>Node3&#45;&gt;Node1</title>
<g id="a_edge2_Node000001_Node000003"><a xlink:title=" ">
<path fill="none" stroke="#63b8ff" d="M165.43,-559.77C157.32,-492.97 137.91,-296.44 167,-137.25 169.15,-125.5 172.73,-113.31 176.79,-101.8"/>
<polygon fill="none" stroke="#63b8ff" points="176.82,-101.72 175.18,-94.7 181.03,-90.48 182.67,-97.5 176.82,-101.72"/>
</a>
</g>
<text text-anchor="middle" x="202.75" y="-291" font-family="Helvetica,sans-Serif" font-size="10.00" fill="grey"> &#45;sourceSample</text>
<text text-anchor="middle" x="202.75" y="-279.75" font-family="Helvetica,sans-Serif" font-size="10.00" fill="grey">&#45;sourceSamples</text>
</g>
<!-- Node5 -->
<g id="Node000005" class="node">
<title>Node5</title>
<g id="a_Node000005"><a xlink:href="class_n_audio_1_1_wave_1_1_wave_buffer.html" target="_top" xlink:title="WaveBuffer class use to store wave datas. Data can be manipulated with arrays (ByteBuffer,...">
<polygon fill="white" stroke="none" points="370.5,-441.25 246.5,-441.25 246.5,-137.25 370.5,-137.25 370.5,-441.25"/>
<text text-anchor="start" x="251.5" y="-427.75" font-family="Helvetica,sans-Serif" font-size="10.00">NAudio.Wave.WaveBuffer</text>
<text text-anchor="start" x="254" y="-412.75" font-family="Helvetica,sans-Serif" font-size="10.00">+</text>
<text text-anchor="start" x="267.5" y="-412.75" font-family="Helvetica,sans-Serif" font-size="10.00">ByteBuffer</text>
<text text-anchor="start" x="254" y="-397.75" font-family="Helvetica,sans-Serif" font-size="10.00">+</text>
<text text-anchor="start" x="267.5" y="-397.75" font-family="Helvetica,sans-Serif" font-size="10.00">FloatBuffer</text>
<text text-anchor="start" x="254" y="-382.75" font-family="Helvetica,sans-Serif" font-size="10.00">+</text>
<text text-anchor="start" x="267.5" y="-382.75" font-family="Helvetica,sans-Serif" font-size="10.00">ShortBuffer</text>
<text text-anchor="start" x="254" y="-367.75" font-family="Helvetica,sans-Serif" font-size="10.00">+</text>
<text text-anchor="start" x="267.5" y="-367.75" font-family="Helvetica,sans-Serif" font-size="10.00">IntBuffer</text>
<text text-anchor="start" x="254" y="-352.75" font-family="Helvetica,sans-Serif" font-size="10.00">+</text>
<text text-anchor="start" x="267.5" y="-352.75" font-family="Helvetica,sans-Serif" font-size="10.00">MaxSize</text>
<text text-anchor="start" x="254" y="-337.75" font-family="Helvetica,sans-Serif" font-size="10.00">+</text>
<text text-anchor="start" x="267.5" y="-337.75" font-family="Helvetica,sans-Serif" font-size="10.00">ByteBufferCount</text>
<text text-anchor="start" x="254" y="-322.75" font-family="Helvetica,sans-Serif" font-size="10.00">+</text>
<text text-anchor="start" x="267.5" y="-322.75" font-family="Helvetica,sans-Serif" font-size="10.00">FloatBufferCount</text>
<text text-anchor="start" x="254" y="-307.75" font-family="Helvetica,sans-Serif" font-size="10.00">+</text>
<text text-anchor="start" x="267.5" y="-307.75" font-family="Helvetica,sans-Serif" font-size="10.00">ShortBufferCount</text>
<text text-anchor="start" x="254" y="-292.75" font-family="Helvetica,sans-Serif" font-size="10.00">+</text>
<text text-anchor="start" x="267.5" y="-292.75" font-family="Helvetica,sans-Serif" font-size="10.00">IntBufferCount</text>
<text text-anchor="start" x="254" y="-277.75" font-family="Helvetica,sans-Serif" font-size="10.00">+</text>
<text text-anchor="start" x="267.5" y="-277.75" font-family="Helvetica,sans-Serif" font-size="10.00">WaveBuffer()</text>
<text text-anchor="start" x="254" y="-262.75" font-family="Helvetica,sans-Serif" font-size="10.00">+</text>
<text text-anchor="start" x="267.5" y="-262.75" font-family="Helvetica,sans-Serif" font-size="10.00">WaveBuffer()</text>
<text text-anchor="start" x="254" y="-247.75" font-family="Helvetica,sans-Serif" font-size="10.00">+</text>
<text text-anchor="start" x="267.5" y="-247.75" font-family="Helvetica,sans-Serif" font-size="10.00">BindTo()</text>
<text text-anchor="start" x="254" y="-232.75" font-family="Helvetica,sans-Serif" font-size="10.00">+</text>
<text text-anchor="start" x="267.5" y="-232.75" font-family="Helvetica,sans-Serif" font-size="10.00">Clear()</text>
<text text-anchor="start" x="254" y="-217.75" font-family="Helvetica,sans-Serif" font-size="10.00">+</text>
<text text-anchor="start" x="267.5" y="-217.75" font-family="Helvetica,sans-Serif" font-size="10.00">Copy()</text>
<text text-anchor="start" x="254" y="-202.75" font-family="Helvetica,sans-Serif" font-size="10.00">+</text>
<text text-anchor="start" x="267.5" y="-202.75" font-family="Helvetica,sans-Serif" font-size="10.00">operator byte[]()</text>
<text text-anchor="start" x="254" y="-187.75" font-family="Helvetica,sans-Serif" font-size="10.00">+</text>
<text text-anchor="start" x="267.5" y="-187.75" font-family="Helvetica,sans-Serif" font-size="10.00">operator float[]()</text>
<text text-anchor="start" x="254" y="-172.75" font-family="Helvetica,sans-Serif" font-size="10.00">+</text>
<text text-anchor="start" x="267.5" y="-172.75" font-family="Helvetica,sans-Serif" font-size="10.00">operator int[]()</text>
<text text-anchor="start" x="254" y="-157.75" font-family="Helvetica,sans-Serif" font-size="10.00">+</text>
<text text-anchor="start" x="267.5" y="-157.75" font-family="Helvetica,sans-Serif" font-size="10.00">operator short[]()</text>
<text text-anchor="start" x="255.5" y="-142.75" font-family="Helvetica,sans-Serif" font-size="10.00">&#45;</text>
<text text-anchor="start" x="267.5" y="-142.75" font-family="Helvetica,sans-Serif" font-size="10.00">CheckValidityCount()</text>
<polygon fill="#666666" stroke="#666666" points="246.5,-424.25 246.5,-424.25 370.5,-424.25 370.5,-424.25 246.5,-424.25"/>
<polygon fill="#666666" stroke="#666666" points="246.5,-289.25 246.5,-289.25 265.5,-289.25 265.5,-289.25 246.5,-289.25"/>
<polygon fill="#666666" stroke="#666666" points="265.5,-289.25 265.5,-289.25 370.5,-289.25 370.5,-289.25 265.5,-289.25"/>
<polygon fill="none" stroke="#666666" points="246.5,-137.25 246.5,-441.25 370.5,-441.25 370.5,-137.25 246.5,-137.25"/>
</a>
</g>
</g>
<!-- Node3&#45;&gt;Node5 -->
<g id="edge6_Node000005_Node000003" class="edge">
<title>Node3&#45;&gt;Node5</title>
<g id="a_edge6_Node000005_Node000003"><a xlink:title=" ">
<path fill="none" stroke="#63b8ff" d="M165.81,-560.17C163.94,-533.2 164.98,-488.54 187.25,-459.25 199.11,-443.65 213.15,-454.6 227.5,-441.25 231.25,-437.76 234.86,-434.05 238.34,-430.18"/>
<polygon fill="none" stroke="#63b8ff" points="238.41,-430.1 239.2,-422.94 246.12,-420.92 245.33,-428.08 238.41,-430.1"/>
</a>
</g>
<text text-anchor="middle" x="226.12" y="-472.25" font-family="Helvetica,sans-Serif" font-size="10.00" fill="grey"> +numberOfBytes</text>
<text text-anchor="middle" x="226.12" y="-461" font-family="Helvetica,sans-Serif" font-size="10.00" fill="grey">&#45;intBuffer</text>
</g>
<!-- Node4 -->
<g id="Node000004" class="node">
<title>Node4</title>
<g id="a_Node000004"><a xlink:title=" ">
<polygon fill="white" stroke="none" points="509.5,-608.75 481.5,-608.75 481.5,-559.75 509.5,-559.75 509.5,-608.75"/>
<text text-anchor="start" x="486.12" y="-595.25" font-family="Helvetica,sans-Serif" font-size="10.00">byte</text>
<text text-anchor="start" x="494" y="-580.25" font-family="Helvetica,sans-Serif" font-size="10.00"> </text>
<text text-anchor="start" x="494" y="-565.25" font-family="Helvetica,sans-Serif" font-size="10.00"> </text>
<polygon fill="#666666" stroke="#666666" points="481.5,-591.75 481.5,-591.75 509.5,-591.75 509.5,-591.75 481.5,-591.75"/>
<polygon fill="#666666" stroke="#666666" points="481.5,-576.75 481.5,-576.75 509.5,-576.75 509.5,-576.75 481.5,-576.75"/>
<polygon fill="none" stroke="#666666" points="481.5,-559.75 481.5,-608.75 509.5,-608.75 509.5,-559.75 481.5,-559.75"/>
</a>
</g>
</g>
<!-- Node4&#45;&gt;Node1 -->
<g id="edge3_Node000001_Node000004" class="edge">
<title>Node4&#45;&gt;Node1</title>
<g id="a_edge3_Node000001_Node000004"><a xlink:title=" ">
<path fill="none" stroke="#63b8ff" d="M497.34,-560.18C498.82,-535.12 499.76,-494 493.5,-459.25 466.59,-309.84 479.02,-251.9 379.5,-137.25 356.49,-110.74 323.9,-90.94 292.88,-76.68"/>
<polygon fill="none" stroke="#63b8ff" points="292.9,-76.69 285.79,-77.93 281.91,-71.85 289.02,-70.61 292.9,-76.69"/>
</a>
</g>
<text text-anchor="middle" x="520.25" y="-285.38" font-family="Helvetica,sans-Serif" font-size="10.00" fill="grey"> &#45;sourceBuffer</text>
</g>
<!-- Node4&#45;&gt;Node5 -->
<g id="edge7_Node000005_Node000004" class="edge">
<title>Node4&#45;&gt;Node5</title>
<g id="a_edge7_Node000005_Node000004"><a xlink:title=" ">
<path fill="none" stroke="#63b8ff" d="M483.47,-559.99C470.21,-534.76 447.92,-493.51 426.5,-459.25 411.3,-434.93 394.05,-409.28 377.53,-385.51"/>
<polygon fill="none" stroke="#63b8ff" points="377.64,-385.66 370.92,-383.04 370.77,-375.83 377.48,-378.45 377.64,-385.66"/>
</a>
</g>
<text text-anchor="middle" x="464" y="-466.62" font-family="Helvetica,sans-Serif" font-size="10.00" fill="grey"> &#45;byteBuffer</text>
</g>
<!-- Node5&#45;&gt;Node1 -->
<g id="edge4_Node000001_Node000005" class="edge">
<title>Node5&#45;&gt;Node1</title>
<g id="a_edge4_Node000001_Node000005"><a xlink:title=" ">
<path fill="none" stroke="#63b8ff" d="M246.57,-148.03C239.38,-131.77 232.41,-115.97 226.17,-101.86"/>
<polygon fill="none" stroke="#63b8ff" points="226.11,-101.73 220.03,-97.85 221.27,-90.75 227.35,-94.62 226.11,-101.73"/>
</a>
</g>
<text text-anchor="middle" x="276.62" y="-109.75" font-family="Helvetica,sans-Serif" font-size="10.00" fill="grey"> &#45;sourceWaveBuffer</text>
</g>
<!-- Node6 -->
<g id="Node000006" class="node">
<title>Node6</title>
<g id="a_Node000006"><a xlink:href="interface_n_audio_1_1_wave_1_1_i_wave_buffer.html" target="_top" xlink:title="IWaveBuffer interface use to store wave datas. Data can be manipulated with arrays (ByteBuffer,...">
<polygon fill="white" stroke="none" points="292,-668.75 199,-668.75 199,-499.75 292,-499.75 292,-668.75"/>
<text text-anchor="start" x="218.5" y="-655.25" font-family="Helvetica,sans-Serif" font-size="10.00">IWaveBuffer</text>
<text text-anchor="start" x="203" y="-640.25" font-family="Helvetica,sans-Serif" font-size="10.00">+</text>
<text text-anchor="start" x="213" y="-640.25" font-family="Helvetica,sans-Serif" font-size="10.00">ByteBuffer</text>
<text text-anchor="start" x="203" y="-625.25" font-family="Helvetica,sans-Serif" font-size="10.00">+</text>
<text text-anchor="start" x="213" y="-625.25" font-family="Helvetica,sans-Serif" font-size="10.00">FloatBuffer</text>
<text text-anchor="start" x="203" y="-610.25" font-family="Helvetica,sans-Serif" font-size="10.00">+</text>
<text text-anchor="start" x="213" y="-610.25" font-family="Helvetica,sans-Serif" font-size="10.00">ShortBuffer</text>
<text text-anchor="start" x="203" y="-595.25" font-family="Helvetica,sans-Serif" font-size="10.00">+</text>
<text text-anchor="start" x="213" y="-595.25" font-family="Helvetica,sans-Serif" font-size="10.00">IntBuffer</text>
<text text-anchor="start" x="203" y="-580.25" font-family="Helvetica,sans-Serif" font-size="10.00">+</text>
<text text-anchor="start" x="213" y="-580.25" font-family="Helvetica,sans-Serif" font-size="10.00">MaxSize</text>
<text text-anchor="start" x="203" y="-565.25" font-family="Helvetica,sans-Serif" font-size="10.00">+</text>
<text text-anchor="start" x="213" y="-565.25" font-family="Helvetica,sans-Serif" font-size="10.00">ByteBufferCount</text>
<text text-anchor="start" x="203" y="-550.25" font-family="Helvetica,sans-Serif" font-size="10.00">+</text>
<text text-anchor="start" x="213" y="-550.25" font-family="Helvetica,sans-Serif" font-size="10.00">FloatBufferCount</text>
<text text-anchor="start" x="203" y="-535.25" font-family="Helvetica,sans-Serif" font-size="10.00">+</text>
<text text-anchor="start" x="213" y="-535.25" font-family="Helvetica,sans-Serif" font-size="10.00">ShortBufferCount</text>
<text text-anchor="start" x="203" y="-520.25" font-family="Helvetica,sans-Serif" font-size="10.00">+</text>
<text text-anchor="start" x="213" y="-520.25" font-family="Helvetica,sans-Serif" font-size="10.00">IntBufferCount</text>
<text text-anchor="start" x="244" y="-505.25" font-family="Helvetica,sans-Serif" font-size="10.00"> </text>
<polygon fill="#666666" stroke="#666666" points="199,-651.75 199,-651.75 292,-651.75 292,-651.75 199,-651.75"/>
<polygon fill="#666666" stroke="#666666" points="199,-516.75 199,-516.75 211,-516.75 211,-516.75 199,-516.75"/>
<polygon fill="#666666" stroke="#666666" points="211,-516.75 211,-516.75 292,-516.75 292,-516.75 211,-516.75"/>
<polygon fill="none" stroke="#666666" points="199,-499.75 199,-668.75 292,-668.75 292,-499.75 199,-499.75"/>
</a>
</g>
</g>
<!-- Node6&#45;&gt;Node5 -->
<g id="edge5_Node000005_Node000006" class="edge">
<title>Node6&#45;&gt;Node5</title>
<g id="a_edge5_Node000005_Node000006"><a xlink:title=" ">
<path fill="none" stroke="#63b8ff" d="M265.76,-489.04C269.07,-473.65 272.56,-457.38 276.08,-441.04"/>
<polygon fill="none" stroke="#63b8ff" points="262.38,-488.08 263.7,-498.59 269.23,-489.55 262.38,-488.08"/>
</a>
</g>
</g>
<!-- Node7 -->
<g id="Node000007" class="node">
<title>Node7</title>
<g id="a_Node000007"><a xlink:title=" ">
<polygon fill="white" stroke="none" points="338.5,-608.75 310.5,-608.75 310.5,-559.75 338.5,-559.75 338.5,-608.75"/>
<text text-anchor="start" x="315.12" y="-595.25" font-family="Helvetica,sans-Serif" font-size="10.00">float</text>
<text text-anchor="start" x="323" y="-580.25" font-family="Helvetica,sans-Serif" font-size="10.00"> </text>
<text text-anchor="start" x="323" y="-565.25" font-family="Helvetica,sans-Serif" font-size="10.00"> </text>
<polygon fill="#666666" stroke="#666666" points="310.5,-591.75 310.5,-591.75 338.5,-591.75 338.5,-591.75 310.5,-591.75"/>
<polygon fill="#666666" stroke="#666666" points="310.5,-576.75 310.5,-576.75 338.5,-576.75 338.5,-576.75 310.5,-576.75"/>
<polygon fill="none" stroke="#666666" points="310.5,-559.75 310.5,-608.75 338.5,-608.75 338.5,-559.75 310.5,-559.75"/>
</a>
</g>
</g>
<!-- Node7&#45;&gt;Node5 -->
<g id="edge8_Node000005_Node000007" class="edge">
<title>Node7&#45;&gt;Node5</title>
<g id="a_edge8_Node000005_Node000007"><a xlink:title=" ">
<path fill="none" stroke="#63b8ff" d="M321.09,-559.93C318.25,-539.39 314.37,-508.66 312.5,-481.75 311.87,-472.68 311.33,-463.37 310.87,-453.97"/>
<polygon fill="none" stroke="#63b8ff" points="310.87,-453.99 306.6,-448.18 310.32,-442 314.59,-447.82 310.87,-453.99"/>
</a>
</g>
<text text-anchor="middle" x="338" y="-466.62" font-family="Helvetica,sans-Serif" font-size="10.00" fill="grey"> &#45;floatBuffer</text>
</g>
<!-- Node8 -->
<g id="Node000008" class="node">
<title>Node8</title>
<g id="a_Node000008"><a xlink:title=" ">
<polygon fill="white" stroke="none" points="401,-608.75 370,-608.75 370,-559.75 401,-559.75 401,-608.75"/>
<text text-anchor="start" x="374.62" y="-595.25" font-family="Helvetica,sans-Serif" font-size="10.00">short</text>
<text text-anchor="start" x="384" y="-580.25" font-family="Helvetica,sans-Serif" font-size="10.00"> </text>
<text text-anchor="start" x="384" y="-565.25" font-family="Helvetica,sans-Serif" font-size="10.00"> </text>
<polygon fill="#666666" stroke="#666666" points="370,-591.75 370,-591.75 401,-591.75 401,-591.75 370,-591.75"/>
<polygon fill="#666666" stroke="#666666" points="370,-576.75 370,-576.75 401,-576.75 401,-576.75 370,-576.75"/>
<polygon fill="none" stroke="#666666" points="370,-559.75 370,-608.75 401,-608.75 401,-559.75 370,-559.75"/>
</a>
</g>
</g>
<!-- Node8&#45;&gt;Node5 -->
<g id="edge9_Node000005_Node000008" class="edge">
<title>Node8&#45;&gt;Node5</title>
<g id="a_edge9_Node000005_Node000008"><a xlink:title=" ">
<path fill="none" stroke="#63b8ff" d="M382.39,-560.19C378.78,-535.14 372.2,-494.04 363.5,-459.25 363.03,-457.38 362.55,-455.5 362.07,-453.61"/>
<polygon fill="none" stroke="#63b8ff" points="362.04,-453.52 356.64,-448.75 358.96,-441.92 364.37,-446.7 362.04,-453.52"/>
</a>
</g>
<text text-anchor="middle" x="395.5" y="-466.62" font-family="Helvetica,sans-Serif" font-size="10.00" fill="grey"> &#45;shortBuffer</text>
</g>
</g>
</svg>
