<?xml version="1.0" encoding="UTF-8" standalone="no"?>
<!DOCTYPE svg PUBLIC "-//W3C//DTD SVG 1.1//EN"
 "http://www.w3.org/Graphics/SVG/1.1/DTD/svg11.dtd">
<!-- Generated by graphviz version 10.0.1 (20240210.2158)
 -->
<!-- Title: NAudio.FileFormats.Wav.WaveFileChunkReader Pages: 1 -->
<!--zoomable 752 -->

<svg id="main" version="1.1" xmlns="http://www.w3.org/2000/svg" xmlns:xlink="http://www.w3.org/1999/xlink" xml:space="preserve" onload="init(evt)">
<style type="text/css"><![CDATA[
.node, .edge {opacity: 0.7;}
.node.selected, .edge.selected {opacity: 1;}
.edge:hover path { stroke: red; }
.edge:hover polygon { stroke: red; fill: red; }
]]></style>

<defs>
  <circle id="rim" cx="0" cy="0" r="7"/>
  <circle id="rim2" cx="0" cy="0" r="3.5"/>
  <g id="zoomPlus">
    <use xlink:href="#rim" fill="#404040"><set attributeName="fill" to="#808080" begin="zoomplus.mouseover" end="zoomplus.mouseout"/></use>
    <path d="M-4,0h8M0,-4v8" fill="none" stroke="white" stroke-width="1.5" pointer-events="none"/>
  </g>
  <g id="zoomMin">
    <use xlink:href="#rim" fill="#404040"><set attributeName="fill" to="#808080" begin="zoomminus.mouseover" end="zoomminus.mouseout"/></use>
    <path d="M-4,0h8" fill="none" stroke="white" stroke-width="1.5" pointer-events="none"/>
  </g>
  <g id="arrowUp" transform="translate(30 24)">
    <use xlink:href="#rim"/>
    <path pointer-events="none" fill="none" stroke="white" stroke-width="1.5" d="M0,-3.0v7 M-2.5,-0.5L0,-3.0L2.5,-0.5"/>
  </g>
  <g id="arrowRight" transform="rotate(90) translate(36 -43)">
    <use xlink:href="#rim"/>
    <path pointer-events="none" fill="none" stroke="white" stroke-width="1.5" d="M0,-3.0v7 M-2.5,-0.5L0,-3.0L2.5,-0.5"/>
  </g>
  <g id="arrowDown" transform="rotate(180) translate(-30 -48)">
    <use xlink:href="#rim"/>
    <path pointer-events="none" fill="none" stroke="white" stroke-width="1.5" d="M0,-3.0v7 M-2.5,-0.5L0,-3.0L2.5,-0.5"/>
  </g>
  <g id="arrowLeft" transform="rotate(270) translate(-36 17)">
    <use xlink:href="#rim"/>
    <path pointer-events="none" fill="none" stroke="white" stroke-width="1.5" d="M0,-3.0v7 M-2.5,-0.5L0,-3.0L2.5,-0.5"/>
  </g>
  <g id="resetDef">
    <use xlink:href="#rim2" fill="#404040"><set attributeName="fill" to="#808080" begin="reset.mouseover" end="reset.mouseout"/></use>
  </g>
</defs>
<script type="application/ecmascript">
var viewWidth = 500;
var viewHeight = 752;
var sectionId = 'dynsection-0';
</script>
<script type="application/ecmascript" xlink:href="svg.min.js"/>
<svg id="graph" class="graph">
<g id="viewport">
<title>NAudio.FileFormats.Wav.WaveFileChunkReader</title>
<!-- Node1 -->
<g id="Node000001" class="node">
<title>Node1</title>
<g id="a_Node000001"><a xlink:title=" ">
<polygon fill="#999999" stroke="none" points="387.5,-165 242.5,-165 242.5,0 387.5,0 387.5,-165"/>
<text text-anchor="start" x="247.12" y="-151.5" font-family="Helvetica,sans-Serif" font-size="10.00">NAudio.FileFormats.Wav.Wave</text>
<text text-anchor="start" x="277.12" y="-140.25" font-family="Helvetica,sans-Serif" font-size="10.00">FileChunkReader</text>
<text text-anchor="start" x="251.5" y="-125.5" font-family="Helvetica,sans-Serif" font-size="10.00">+</text>
<text text-anchor="start" x="266.5" y="-125.5" font-family="Helvetica,sans-Serif" font-size="10.00">WaveFormat</text>
<text text-anchor="start" x="251.5" y="-110.5" font-family="Helvetica,sans-Serif" font-size="10.00">+</text>
<text text-anchor="start" x="266.5" y="-110.5" font-family="Helvetica,sans-Serif" font-size="10.00">DataChunkPosition</text>
<text text-anchor="start" x="251.5" y="-95.5" font-family="Helvetica,sans-Serif" font-size="10.00">+</text>
<text text-anchor="start" x="266.5" y="-95.5" font-family="Helvetica,sans-Serif" font-size="10.00">DataChunkLength</text>
<text text-anchor="start" x="251.5" y="-80.5" font-family="Helvetica,sans-Serif" font-size="10.00">+</text>
<text text-anchor="start" x="266.5" y="-80.5" font-family="Helvetica,sans-Serif" font-size="10.00">RiffChunks</text>
<text text-anchor="start" x="251.5" y="-65.5" font-family="Helvetica,sans-Serif" font-size="10.00">+</text>
<text text-anchor="start" x="266.5" y="-65.5" font-family="Helvetica,sans-Serif" font-size="10.00">WaveFileChunkReader()</text>
<text text-anchor="start" x="251.5" y="-50.5" font-family="Helvetica,sans-Serif" font-size="10.00">+</text>
<text text-anchor="start" x="266.5" y="-50.5" font-family="Helvetica,sans-Serif" font-size="10.00">ReadWaveHeader()</text>
<text text-anchor="start" x="253" y="-35.5" font-family="Helvetica,sans-Serif" font-size="10.00">&#45;</text>
<text text-anchor="start" x="266.5" y="-35.5" font-family="Helvetica,sans-Serif" font-size="10.00">ReadDs64Chunk()</text>
<text text-anchor="start" x="253" y="-20.5" font-family="Helvetica,sans-Serif" font-size="10.00">&#45;</text>
<text text-anchor="start" x="266.5" y="-20.5" font-family="Helvetica,sans-Serif" font-size="10.00">ReadRiffHeader()</text>
<text text-anchor="start" x="253" y="-5.5" font-family="Helvetica,sans-Serif" font-size="10.00">&#45;</text>
<text text-anchor="start" x="266.5" y="-5.5" font-family="Helvetica,sans-Serif" font-size="10.00">GetRiffChunk()</text>
<polygon fill="#666666" stroke="#666666" points="242.5,-137 242.5,-137 387.5,-137 387.5,-137 242.5,-137"/>
<polygon fill="#666666" stroke="#666666" points="242.5,-77 242.5,-77 264.5,-77 264.5,-77 242.5,-77"/>
<polygon fill="#666666" stroke="#666666" points="264.5,-77 264.5,-77 387.5,-77 387.5,-77 264.5,-77"/>
<polygon fill="none" stroke="#666666" points="242.5,0 242.5,-165 387.5,-165 387.5,0 242.5,0"/>
</a>
</g>
</g>
<!-- Node2 -->
<g id="Node000002" class="node">
<title>Node2</title>
<g id="a_Node000002"><a xlink:href="class_n_audio_1_1_wave_1_1_wave_format.html" target="_top" xlink:title="Represents a Wave file format.">
<polygon fill="white" stroke="none" points="228.5,-613.75 79.5,-613.75 79.5,-234.75 228.5,-234.75 228.5,-613.75"/>
<text text-anchor="start" x="94.75" y="-600.25" font-family="Helvetica,sans-Serif" font-size="10.00">NAudio.Wave.WaveFormat</text>
<text text-anchor="start" x="83.5" y="-585.25" font-family="Helvetica,sans-Serif" font-size="10.00">+</text>
<text text-anchor="start" x="93.5" y="-585.25" font-family="Helvetica,sans-Serif" font-size="10.00">Encoding</text>
<text text-anchor="start" x="83.5" y="-570.25" font-family="Helvetica,sans-Serif" font-size="10.00">+</text>
<text text-anchor="start" x="93.5" y="-570.25" font-family="Helvetica,sans-Serif" font-size="10.00">Channels</text>
<text text-anchor="start" x="83.5" y="-555.25" font-family="Helvetica,sans-Serif" font-size="10.00">+</text>
<text text-anchor="start" x="93.5" y="-555.25" font-family="Helvetica,sans-Serif" font-size="10.00">SampleRate</text>
<text text-anchor="start" x="83.5" y="-540.25" font-family="Helvetica,sans-Serif" font-size="10.00">+</text>
<text text-anchor="start" x="93.5" y="-540.25" font-family="Helvetica,sans-Serif" font-size="10.00">AverageBytesPerSecond</text>
<text text-anchor="start" x="83.5" y="-525.25" font-family="Helvetica,sans-Serif" font-size="10.00">+</text>
<text text-anchor="start" x="93.5" y="-525.25" font-family="Helvetica,sans-Serif" font-size="10.00">BlockAlign</text>
<text text-anchor="start" x="83.5" y="-510.25" font-family="Helvetica,sans-Serif" font-size="10.00">+</text>
<text text-anchor="start" x="93.5" y="-510.25" font-family="Helvetica,sans-Serif" font-size="10.00">BitsPerSample</text>
<text text-anchor="start" x="83.5" y="-495.25" font-family="Helvetica,sans-Serif" font-size="10.00">+</text>
<text text-anchor="start" x="93.5" y="-495.25" font-family="Helvetica,sans-Serif" font-size="10.00">ExtraSize</text>
<text text-anchor="start" x="83.5" y="-480.25" font-family="Helvetica,sans-Serif" font-size="10.00">+</text>
<text text-anchor="start" x="93.5" y="-480.25" font-family="Helvetica,sans-Serif" font-size="10.00">WaveFormat()</text>
<text text-anchor="start" x="83.5" y="-465.25" font-family="Helvetica,sans-Serif" font-size="10.00">+</text>
<text text-anchor="start" x="93.5" y="-465.25" font-family="Helvetica,sans-Serif" font-size="10.00">WaveFormat()</text>
<text text-anchor="start" x="83.5" y="-450.25" font-family="Helvetica,sans-Serif" font-size="10.00">+</text>
<text text-anchor="start" x="93.5" y="-450.25" font-family="Helvetica,sans-Serif" font-size="10.00">ConvertLatencyToByteSize()</text>
<text text-anchor="start" x="83.5" y="-435.25" font-family="Helvetica,sans-Serif" font-size="10.00">+</text>
<text text-anchor="start" x="93.5" y="-435.25" font-family="Helvetica,sans-Serif" font-size="10.00">WaveFormat()</text>
<text text-anchor="start" x="83.5" y="-420.25" font-family="Helvetica,sans-Serif" font-size="10.00">+</text>
<text text-anchor="start" x="93.5" y="-420.25" font-family="Helvetica,sans-Serif" font-size="10.00">WaveFormat()</text>
<text text-anchor="start" x="83.5" y="-405.25" font-family="Helvetica,sans-Serif" font-size="10.00">+</text>
<text text-anchor="start" x="93.5" y="-405.25" font-family="Helvetica,sans-Serif" font-size="10.00">ToString()</text>
<text text-anchor="start" x="83.5" y="-390.25" font-family="Helvetica,sans-Serif" font-size="10.00">+</text>
<text text-anchor="start" x="93.5" y="-390.25" font-family="Helvetica,sans-Serif" font-size="10.00">Equals()</text>
<text text-anchor="start" x="83.5" y="-375.25" font-family="Helvetica,sans-Serif" font-size="10.00">+</text>
<text text-anchor="start" x="93.5" y="-375.25" font-family="Helvetica,sans-Serif" font-size="10.00">GetHashCode()</text>
<text text-anchor="start" x="83.5" y="-360.25" font-family="Helvetica,sans-Serif" font-size="10.00">+</text>
<text text-anchor="start" x="93.5" y="-360.25" font-family="Helvetica,sans-Serif" font-size="10.00">Serialize()</text>
<text text-anchor="start" x="83.5" y="-345.25" font-family="Helvetica,sans-Serif" font-size="10.00">+</text>
<text text-anchor="start" x="93.5" y="-345.25" font-family="Helvetica,sans-Serif" font-size="10.00">CreateCustomFormat()</text>
<text text-anchor="start" x="83.5" y="-330.25" font-family="Helvetica,sans-Serif" font-size="10.00">+</text>
<text text-anchor="start" x="93.5" y="-330.25" font-family="Helvetica,sans-Serif" font-size="10.00">CreateALawFormat()</text>
<text text-anchor="start" x="83.5" y="-315.25" font-family="Helvetica,sans-Serif" font-size="10.00">+</text>
<text text-anchor="start" x="93.5" y="-315.25" font-family="Helvetica,sans-Serif" font-size="10.00">CreateMuLawFormat()</text>
<text text-anchor="start" x="83.5" y="-300.25" font-family="Helvetica,sans-Serif" font-size="10.00">+</text>
<text text-anchor="start" x="93.5" y="-300.25" font-family="Helvetica,sans-Serif" font-size="10.00">CreateIeeeFloatWaveFormat()</text>
<text text-anchor="start" x="83.5" y="-285.25" font-family="Helvetica,sans-Serif" font-size="10.00">+</text>
<text text-anchor="start" x="93.5" y="-285.25" font-family="Helvetica,sans-Serif" font-size="10.00">MarshalFromPtr()</text>
<text text-anchor="start" x="83.5" y="-270.25" font-family="Helvetica,sans-Serif" font-size="10.00">+</text>
<text text-anchor="start" x="93.5" y="-270.25" font-family="Helvetica,sans-Serif" font-size="10.00">MarshalToPtr()</text>
<text text-anchor="start" x="83.5" y="-255.25" font-family="Helvetica,sans-Serif" font-size="10.00">+</text>
<text text-anchor="start" x="93.5" y="-255.25" font-family="Helvetica,sans-Serif" font-size="10.00">FromFormatChunk()</text>
<text text-anchor="start" x="85" y="-240.25" font-family="Helvetica,sans-Serif" font-size="10.00">&#45;</text>
<text text-anchor="start" x="93.5" y="-240.25" font-family="Helvetica,sans-Serif" font-size="10.00">ReadWaveFormat()</text>
<polygon fill="#666666" stroke="#666666" points="79.5,-596.75 79.5,-596.75 228.5,-596.75 228.5,-596.75 79.5,-596.75"/>
<polygon fill="#666666" stroke="#666666" points="79.5,-491.75 79.5,-491.75 91.5,-491.75 91.5,-491.75 79.5,-491.75"/>
<polygon fill="#666666" stroke="#666666" points="91.5,-491.75 91.5,-491.75 228.5,-491.75 228.5,-491.75 91.5,-491.75"/>
<polygon fill="none" stroke="#666666" points="79.5,-234.75 79.5,-613.75 228.5,-613.75 228.5,-234.75 79.5,-234.75"/>
</a>
</g>
</g>
<!-- Node2&#45;&gt;Node1 -->
<g id="edge1_Node000001_Node000002" class="edge">
<title>Node2&#45;&gt;Node1</title>
<g id="a_edge1_Node000001_Node000002"><a xlink:title=" ">
<path fill="none" stroke="#63b8ff" d="M169.9,-234.95C175.49,-216.75 182.71,-199.09 192,-183 202.24,-165.27 216.94,-149.43 232.64,-135.89"/>
<polygon fill="none" stroke="#63b8ff" points="232.56,-135.96 234.64,-129.05 241.82,-128.32 239.73,-135.23 232.56,-135.96"/>
</a>
</g>
<text text-anchor="middle" x="222" y="-196" font-family="Helvetica,sans-Serif" font-size="10.00" fill="grey"> &#45;waveFormat</text>
</g>
<!-- Node3 -->
<g id="Node000003" class="node">
<title>Node3</title>
<g id="a_Node000003"><a xlink:title=" ">
<polygon fill="white" stroke="none" points="106,-743.75 0,-743.75 0,-694.75 106,-694.75 106,-743.75"/>
<text text-anchor="start" x="5" y="-730.25" font-family="Helvetica,sans-Serif" font-size="10.00">WaveFormatEncoding</text>
<text text-anchor="start" x="51.5" y="-715.25" font-family="Helvetica,sans-Serif" font-size="10.00"> </text>
<text text-anchor="start" x="51.5" y="-700.25" font-family="Helvetica,sans-Serif" font-size="10.00"> </text>
<polygon fill="#666666" stroke="#666666" points="0,-726.75 0,-726.75 106,-726.75 106,-726.75 0,-726.75"/>
<polygon fill="#666666" stroke="#666666" points="0,-711.75 0,-711.75 106,-711.75 106,-711.75 0,-711.75"/>
<polygon fill="none" stroke="#666666" points="0,-694.75 0,-743.75 106,-743.75 106,-694.75 0,-694.75"/>
</a>
</g>
</g>
<!-- Node3&#45;&gt;Node2 -->
<g id="edge2_Node000002_Node000003" class="edge">
<title>Node3&#45;&gt;Node2</title>
<g id="a_edge2_Node000002_Node000003"><a xlink:title=" ">
<path fill="none" stroke="#63b8ff" d="M57.08,-694.86C60.39,-677.3 65.56,-652.77 72,-631.75 73.15,-628 74.34,-624.22 75.56,-620.42"/>
<polygon fill="none" stroke="#63b8ff" points="75.53,-620.49 73.61,-613.54 79.28,-609.08 81.21,-616.03 75.53,-620.49"/>
</a>
</g>
<text text-anchor="middle" x="111" y="-650.38" font-family="Helvetica,sans-Serif" font-size="10.00" fill="grey"> #waveFormatTag</text>
</g>
<!-- Node4 -->
<g id="Node000004" class="node">
<title>Node4</title>
<g id="a_Node000004"><a xlink:title=" ">
<polygon fill="white" stroke="none" points="169.5,-743.75 138.5,-743.75 138.5,-694.75 169.5,-694.75 169.5,-743.75"/>
<text text-anchor="start" x="143.12" y="-730.25" font-family="Helvetica,sans-Serif" font-size="10.00">short</text>
<text text-anchor="start" x="152.5" y="-715.25" font-family="Helvetica,sans-Serif" font-size="10.00"> </text>
<text text-anchor="start" x="152.5" y="-700.25" font-family="Helvetica,sans-Serif" font-size="10.00"> </text>
<polygon fill="#666666" stroke="#666666" points="138.5,-726.75 138.5,-726.75 169.5,-726.75 169.5,-726.75 138.5,-726.75"/>
<polygon fill="#666666" stroke="#666666" points="138.5,-711.75 138.5,-711.75 169.5,-711.75 169.5,-711.75 138.5,-711.75"/>
<polygon fill="none" stroke="#666666" points="138.5,-694.75 138.5,-743.75 169.5,-743.75 169.5,-694.75 138.5,-694.75"/>
</a>
</g>
</g>
<!-- Node4&#45;&gt;Node2 -->
<g id="edge3_Node000002_Node000004" class="edge">
<title>Node4&#45;&gt;Node2</title>
<g id="a_edge3_Node000002_Node000004"><a xlink:title=" ">
<path fill="none" stroke="#63b8ff" d="M154,-694.77C154,-677.99 154,-653.61 154,-626.27"/>
<polygon fill="none" stroke="#63b8ff" points="154,-626.42 150,-620.42 154,-614.42 158,-620.42 154,-626.42"/>
</a>
</g>
<text text-anchor="middle" x="190" y="-667.25" font-family="Helvetica,sans-Serif" font-size="10.00" fill="grey"> #bitsPerSample</text>
<text text-anchor="middle" x="190" y="-656" font-family="Helvetica,sans-Serif" font-size="10.00" fill="grey">#blockAlign</text>
<text text-anchor="middle" x="190" y="-644.75" font-family="Helvetica,sans-Serif" font-size="10.00" fill="grey">#channels</text>
<text text-anchor="middle" x="190" y="-633.5" font-family="Helvetica,sans-Serif" font-size="10.00" fill="grey">#extraSize</text>
</g>
<!-- Node5 -->
<g id="Node000005" class="node">
<title>Node5</title>
<g id="a_Node000005"><a xlink:title=" ">
<polygon fill="white" stroke="none" points="259,-743.75 239,-743.75 239,-694.75 259,-694.75 259,-743.75"/>
<text text-anchor="start" x="243.75" y="-730.25" font-family="Helvetica,sans-Serif" font-size="10.00">int</text>
<text text-anchor="start" x="247.5" y="-715.25" font-family="Helvetica,sans-Serif" font-size="10.00"> </text>
<text text-anchor="start" x="247.5" y="-700.25" font-family="Helvetica,sans-Serif" font-size="10.00"> </text>
<polygon fill="#666666" stroke="#666666" points="239,-726.75 239,-726.75 259,-726.75 259,-726.75 239,-726.75"/>
<polygon fill="#666666" stroke="#666666" points="239,-711.75 239,-711.75 259,-711.75 259,-711.75 239,-711.75"/>
<polygon fill="none" stroke="#666666" points="239,-694.75 239,-743.75 259,-743.75 259,-694.75 239,-694.75"/>
</a>
</g>
</g>
<!-- Node5&#45;&gt;Node2 -->
<g id="edge4_Node000002_Node000005" class="edge">
<title>Node5&#45;&gt;Node2</title>
<g id="a_edge4_Node000002_Node000005"><a xlink:title=" ">
<path fill="none" stroke="#63b8ff" d="M243.68,-694.96C239.54,-677.46 233.43,-652.95 227,-631.75 226.4,-629.78 225.8,-627.8 225.19,-625.81"/>
<polygon fill="none" stroke="#63b8ff" points="225.19,-625.84 219.59,-621.3 221.62,-614.38 227.22,-618.92 225.19,-625.84"/>
</a>
</g>
<text text-anchor="middle" x="297.12" y="-656" font-family="Helvetica,sans-Serif" font-size="10.00" fill="grey"> #averageBytesPerSecond</text>
<text text-anchor="middle" x="297.12" y="-644.75" font-family="Helvetica,sans-Serif" font-size="10.00" fill="grey">#sampleRate</text>
</g>
<!-- Node6 -->
<g id="Node000006" class="node">
<title>Node6</title>
<g id="a_Node000006"><a xlink:title=" ">
<polygon fill="white" stroke="none" points="275,-448.75 247,-448.75 247,-399.75 275,-399.75 275,-448.75"/>
<text text-anchor="start" x="252" y="-435.25" font-family="Helvetica,sans-Serif" font-size="10.00">long</text>
<text text-anchor="start" x="259.5" y="-420.25" font-family="Helvetica,sans-Serif" font-size="10.00"> </text>
<text text-anchor="start" x="259.5" y="-405.25" font-family="Helvetica,sans-Serif" font-size="10.00"> </text>
<polygon fill="#666666" stroke="#666666" points="247,-431.75 247,-431.75 275,-431.75 275,-431.75 247,-431.75"/>
<polygon fill="#666666" stroke="#666666" points="247,-416.75 247,-416.75 275,-416.75 275,-416.75 247,-416.75"/>
<polygon fill="none" stroke="#666666" points="247,-399.75 247,-448.75 275,-448.75 275,-399.75 247,-399.75"/>
</a>
</g>
</g>
<!-- Node6&#45;&gt;Node1 -->
<g id="edge5_Node000001_Node000006" class="edge">
<title>Node6&#45;&gt;Node1</title>
<g id="a_edge5_Node000001_Node000006"><a xlink:title=" ">
<path fill="none" stroke="#63b8ff" d="M257.54,-399.94C251.86,-356.48 243.06,-260.47 262.5,-183 263,-181.01 263.55,-179.02 264.13,-177.02"/>
<polygon fill="none" stroke="#63b8ff" points="264.13,-177.03 262.26,-170.07 267.96,-165.66 269.84,-172.62 264.13,-177.03"/>
</a>
</g>
<text text-anchor="middle" x="304.75" y="-207.25" font-family="Helvetica,sans-Serif" font-size="10.00" fill="grey"> &#45;dataChunkLength</text>
<text text-anchor="middle" x="304.75" y="-196" font-family="Helvetica,sans-Serif" font-size="10.00" fill="grey">&#45;dataChunkPosition</text>
<text text-anchor="middle" x="304.75" y="-184.75" font-family="Helvetica,sans-Serif" font-size="10.00" fill="grey">&#45;riffSize</text>
</g>
<!-- Node7 -->
<g id="Node000007" class="node">
<title>Node7</title>
<g id="a_Node000007"><a xlink:title=" ">
<polygon fill="white" stroke="none" points="414,-448.75 326,-448.75 326,-399.75 414,-399.75 414,-448.75"/>
<text text-anchor="start" x="331" y="-435.25" font-family="Helvetica,sans-Serif" font-size="10.00">List&lt; RiffChunk &gt;</text>
<text text-anchor="start" x="368.5" y="-420.25" font-family="Helvetica,sans-Serif" font-size="10.00"> </text>
<text text-anchor="start" x="368.5" y="-405.25" font-family="Helvetica,sans-Serif" font-size="10.00"> </text>
<polygon fill="#666666" stroke="#666666" points="326,-431.75 326,-431.75 414,-431.75 414,-431.75 326,-431.75"/>
<polygon fill="#666666" stroke="#666666" points="326,-416.75 326,-416.75 414,-416.75 414,-416.75 326,-416.75"/>
<polygon fill="none" stroke="#666666" points="326,-399.75 326,-448.75 414,-448.75 414,-399.75 326,-399.75"/>
</a>
</g>
</g>
<!-- Node7&#45;&gt;Node1 -->
<g id="edge6_Node000001_Node000007" class="edge">
<title>Node7&#45;&gt;Node1</title>
<g id="a_edge6_Node000001_Node000007"><a xlink:title=" ">
<path fill="none" stroke="#63b8ff" d="M369.63,-399.8C368.55,-356.5 364.35,-261.31 348,-183 347.61,-181.13 347.2,-179.26 346.76,-177.37"/>
<polygon fill="none" stroke="#63b8ff" points="346.75,-177.33 341.42,-172.47 343.85,-165.68 349.18,-170.54 346.75,-177.33"/>
</a>
</g>
<text text-anchor="middle" x="378.5" y="-196" font-family="Helvetica,sans-Serif" font-size="10.00" fill="grey"> &#45;riffChunks</text>
</g>
<!-- Node8 -->
<g id="Node000008" class="node">
<title>Node8</title>
<g id="a_Node000008"><a xlink:title=" ">
<polygon fill="white" stroke="none" points="460,-448.75 432,-448.75 432,-399.75 460,-399.75 460,-448.75"/>
<text text-anchor="start" x="437" y="-435.25" font-family="Helvetica,sans-Serif" font-size="10.00">bool</text>
<text text-anchor="start" x="444.5" y="-420.25" font-family="Helvetica,sans-Serif" font-size="10.00"> </text>
<text text-anchor="start" x="444.5" y="-405.25" font-family="Helvetica,sans-Serif" font-size="10.00"> </text>
<polygon fill="#666666" stroke="#666666" points="432,-431.75 432,-431.75 460,-431.75 460,-431.75 432,-431.75"/>
<polygon fill="#666666" stroke="#666666" points="432,-416.75 432,-416.75 460,-416.75 460,-416.75 432,-416.75"/>
<polygon fill="none" stroke="#666666" points="432,-399.75 432,-448.75 460,-448.75 460,-399.75 432,-399.75"/>
</a>
</g>
</g>
<!-- Node8&#45;&gt;Node1 -->
<g id="edge7_Node000001_Node000008" class="edge">
<title>Node8&#45;&gt;Node1</title>
<g id="a_edge7_Node000001_Node000008"><a xlink:title=" ">
<path fill="none" stroke="#63b8ff" d="M447.53,-399.98C449.43,-354.95 448.38,-254.04 408,-183 404.17,-176.26 399.79,-169.6 395.07,-163.13"/>
<polygon fill="none" stroke="#63b8ff" points="395.24,-163.37 388.42,-161.04 387.94,-153.85 394.77,-156.17 395.24,-163.37"/>
</a>
</g>
<text text-anchor="middle" x="456.88" y="-207.25" font-family="Helvetica,sans-Serif" font-size="10.00" fill="grey"> &#45;isRf64</text>
<text text-anchor="middle" x="456.88" y="-196" font-family="Helvetica,sans-Serif" font-size="10.00" fill="grey">&#45;storeAllChunks</text>
<text text-anchor="middle" x="456.88" y="-184.75" font-family="Helvetica,sans-Serif" font-size="10.00" fill="grey">&#45;strictMode</text>
</g>
</g>
</svg>

<g id="navigator" transform="translate(0 0)" fill="#404254">
  <rect fill="#f2f5e9" fill-opacity="0.5" stroke="#606060" stroke-width=".5" x="0" y="0" width="60" height="60"/>
  <use id="zoomplus" xlink:href="#zoomPlus" x="17" y="9" onmousedown="handleZoom(evt,'in')"/>
  <use id="zoomminus" xlink:href="#zoomMin" x="42" y="9" onmousedown="handleZoom(evt,'out')"/>
  <use id="reset" xlink:href="#resetDef" x="30" y="36" onmousedown="handleReset()"/>
   <use id="arrowup" xlink:href="#arrowUp" x="0" y="0" onmousedown="handlePan(0,-1)"/>
  <use id="arrowright" xlink:href="#arrowRight" x="0" y="0" onmousedown="handlePan(1,0)"/>
  <use id="arrowdown" xlink:href="#arrowDown" x="0" y="0" onmousedown="handlePan(0,1)"/>
  <use id="arrowleft" xlink:href="#arrowLeft" x="0" y="0" onmousedown="handlePan(-1,0)"/>
</g>
<svg viewBox="0 0 15 15" width="100%" height="30px" preserveAspectRatio="xMaxYMin meet">
 <g id="arrow_out" transform="scale(0.3 0.3)">
  <a xlink:href="class_n_audio_1_1_file_formats_1_1_wav_1_1_wave_file_chunk_reader__coll__graph_org.svg" target="_base">
   <rect id="button" ry="5" rx="5" y="6" x="6" height="38" width="38"
        fill="#f2f5e9" fill-opacity="0.5" stroke="#606060" stroke-width="1.0"/>
   <path id="arrow"
     d="M 11.500037,31.436501 C 11.940474,20.09759 22.043105,11.32322 32.158766,21.979434 L 37.068811,17.246167 C 37.068811,17.246167 37.088388,32 37.088388,32 L 22.160133,31.978069 C 22.160133,31.978069 26.997745,27.140456 26.997745,27.140456 C 18.528582,18.264221 13.291696,25.230495 11.500037,31.436501 z"
     style="fill:#404040;"/>
  </a>
 </g>
</svg>

<style type='text/css'>
<![CDATA[
[data-mouse-over-selected='false'] { opacity: 0.7; }
[data-mouse-over-selected='true']  { opacity: 1.0; }
]]>
</style>
<script type="application/ecmascript"><![CDATA[
document.addEventListener('DOMContentLoaded', (event) => {
  highlightEdges();
  highlightAdjacentNodes();
});
]]></script>
</svg>
