<?xml version="1.0" encoding="UTF-8" standalone="no"?>
<!DOCTYPE svg PUBLIC "-//W3C//DTD SVG 1.1//EN"
 "http://www.w3.org/Graphics/SVG/1.1/DTD/svg11.dtd">
<!-- Generated by graphviz version 10.0.1 (20240210.2158)
 -->
<!-- Title: NAudio.Wave.Compression.AcmDriver.GetFormats Pages: 1 -->
<svg width="574pt" height="125pt"
 viewBox="0.00 0.00 573.50 124.88" xmlns="http://www.w3.org/2000/svg" xmlns:xlink="http://www.w3.org/1999/xlink">
<g id="graph0" class="graph" transform="scale(1 1) rotate(0) translate(4 120.88)">
<title>NAudio.Wave.Compression.AcmDriver.GetFormats</title>
<!-- Node1 -->
<g id="Node000001" class="node">
<title>Node1</title>
<g id="a_Node000001"><a xlink:title="Retrieves a collection of audio formats associated with the specified format tag.">
<polygon fill="#999999" stroke="#666666" points="139.75,-67.88 0,-67.88 0,-37.38 139.75,-37.38 139.75,-67.88"/>
<text text-anchor="start" x="8" y="-54.38" font-family="Helvetica,sans-Serif" font-size="10.00">NAudio.Wave.Compression.</text>
<text text-anchor="middle" x="69.88" y="-43.12" font-family="Helvetica,sans-Serif" font-size="10.00">AcmDriver.GetFormats</text>
</a>
</g>
</g>
<!-- Node2 -->
<g id="Node000002" class="node">
<title>Node2</title>
<g id="a_Node000002"><a xlink:href="class_n_audio_1_1_wave_1_1_compression_1_1_acm_interop.html#a6aed096a03f4aaf93b243eac152eac05" target="_top" xlink:title="Enumerates the available formats for an ACM driver.">
<polygon fill="white" stroke="#666666" points="337.62,-116.88 193.38,-116.88 193.38,-86.38 337.62,-86.38 337.62,-116.88"/>
<text text-anchor="start" x="201.38" y="-103.38" font-family="Helvetica,sans-Serif" font-size="10.00">NAudio.Wave.Compression.</text>
<text text-anchor="middle" x="265.5" y="-92.12" font-family="Helvetica,sans-Serif" font-size="10.00">AcmInterop.acmFormatEnum</text>
</a>
</g>
</g>
<!-- Node1&#45;&gt;Node2 -->
<g id="edge1_Node000001_Node000002" class="edge">
<title>Node1&#45;&gt;Node2</title>
<g id="a_edge1_Node000001_Node000002"><a xlink:title=" ">
<path fill="none" stroke="#63b8ff" d="M132.94,-68.33C151.52,-73.03 172.08,-78.24 191.31,-83.1"/>
<polygon fill="#63b8ff" stroke="#63b8ff" points="190.44,-86.49 200.99,-85.55 192.15,-79.71 190.44,-86.49"/>
</a>
</g>
</g>
<!-- Node3 -->
<g id="Node000003" class="node">
<title>Node3</title>
<g id="a_Node000003"><a xlink:href="class_n_audio_1_1_wave_1_1_compression_1_1_acm_driver.html#a61ba2be386c7a1562d074afbc2433a10" target="_top" xlink:title="Callback function for enumerating ACM format details.">
<polygon fill="white" stroke="#666666" points="355.25,-67.88 175.75,-67.88 175.75,-37.38 355.25,-37.38 355.25,-67.88"/>
<text text-anchor="start" x="183.75" y="-54.38" font-family="Helvetica,sans-Serif" font-size="10.00">NAudio.Wave.Compression.</text>
<text text-anchor="middle" x="265.5" y="-43.12" font-family="Helvetica,sans-Serif" font-size="10.00">AcmDriver.AcmFormatEnumCallback</text>
</a>
</g>
</g>
<!-- Node1&#45;&gt;Node3 -->
<g id="edge2_Node000001_Node000003" class="edge">
<title>Node1&#45;&gt;Node3</title>
<g id="a_edge2_Node000001_Node000003"><a xlink:title=" ">
<path fill="none" stroke="#63b8ff" d="M140.23,-52.62C147.98,-52.62 155.98,-52.62 164.01,-52.62"/>
<polygon fill="#63b8ff" stroke="#63b8ff" points="163.85,-56.13 173.85,-52.63 163.85,-49.13 163.85,-56.13"/>
</a>
</g>
</g>
<!-- Node4 -->
<g id="Node000004" class="node">
<title>Node4</title>
<g id="a_Node000004"><a xlink:href="class_n_audio_1_1_mm_exception.html#a1ca263e295226b2dff8fda80043242d2" target="_top" xlink:title="Throws an exception if the specified result is not equal to MmResult.NoError.">
<polygon fill="white" stroke="#666666" points="329.75,-19.25 201.25,-19.25 201.25,0 329.75,0 329.75,-19.25"/>
<text text-anchor="middle" x="265.5" y="-5.75" font-family="Helvetica,sans-Serif" font-size="10.00">NAudio.MmException.Try</text>
</a>
</g>
</g>
<!-- Node1&#45;&gt;Node4 -->
<g id="edge3_Node000001_Node000004" class="edge">
<title>Node1&#45;&gt;Node4</title>
<g id="a_edge3_Node000001_Node000004"><a xlink:title=" ">
<path fill="none" stroke="#63b8ff" d="M138.82,-36.93C151.11,-34.13 163.81,-31.27 175.75,-28.62 185.47,-26.47 195.81,-24.22 205.86,-22.06"/>
<polygon fill="#63b8ff" stroke="#63b8ff" points="206.51,-25.5 215.55,-19.98 205.04,-18.65 206.51,-25.5"/>
</a>
</g>
</g>
<!-- Node5 -->
<g id="Node000005" class="node">
<title>Node5</title>
<g id="a_Node000005"><a xlink:href="class_n_audio_1_1_mm_exception.html#a674e0bb89c4e2aeb1f4ea96514710947" target="_top" xlink:title="Creates a new MmException.">
<polygon fill="white" stroke="#666666" points="565.5,-19.25 391.25,-19.25 391.25,0 565.5,0 565.5,-19.25"/>
<text text-anchor="middle" x="478.38" y="-5.75" font-family="Helvetica,sans-Serif" font-size="10.00">NAudio.MmException.MmException</text>
</a>
</g>
</g>
<!-- Node4&#45;&gt;Node5 -->
<g id="edge4_Node000004_Node000005" class="edge">
<title>Node4&#45;&gt;Node5</title>
<g id="a_edge4_Node000004_Node000005"><a xlink:title=" ">
<path fill="none" stroke="#63b8ff" d="M330.06,-9.62C345.77,-9.62 362.97,-9.62 379.9,-9.62"/>
<polygon fill="#63b8ff" stroke="#63b8ff" points="379.45,-13.13 389.45,-9.63 379.45,-6.13 379.45,-13.13"/>
</a>
</g>
</g>
</g>
</svg>
