<?xml version="1.0" encoding="UTF-8" standalone="no"?>
<!DOCTYPE svg PUBLIC "-//W3C//DTD SVG 1.1//EN"
 "http://www.w3.org/Graphics/SVG/1.1/DTD/svg11.dtd">
<!-- Generated by graphviz version 10.0.1 (20240210.2158)
 -->
<!-- Title: NAudio.CoreAudioApi.WasapiCapture Pages: 1 -->
<svg width="158pt" height="825pt"
 viewBox="0.00 0.00 158.00 825.00" xmlns="http://www.w3.org/2000/svg" xmlns:xlink="http://www.w3.org/1999/xlink">
<g id="graph0" class="graph" transform="scale(1 1) rotate(0) translate(4 821)">
<title>NAudio.CoreAudioApi.WasapiCapture</title>
<!-- Node1 -->
<g id="Node000001" class="node">
<title>Node1</title>
<g id="a_Node000001"><a xlink:title="Audio Capture using Wasapi See http://msdn.microsoft.com/en&#45;us/library/dd370800%28VS....">
<polygon fill="#999999" stroke="none" points="150,-632 0,-632 0,-152 150,-152 150,-632"/>
<text text-anchor="start" x="9.75" y="-618.5" font-family="Helvetica,sans-Serif" font-size="10.00">NAudio.CoreAudioApi.Wasapi</text>
<text text-anchor="start" x="57.75" y="-607.25" font-family="Helvetica,sans-Serif" font-size="10.00">Capture</text>
<text text-anchor="start" x="4" y="-592.5" font-family="Helvetica,sans-Serif" font-size="10.00">+</text>
<text text-anchor="start" x="14" y="-592.5" font-family="Helvetica,sans-Serif" font-size="10.00">ShareMode</text>
<text text-anchor="start" x="4" y="-577.5" font-family="Helvetica,sans-Serif" font-size="10.00">+</text>
<text text-anchor="start" x="14" y="-577.5" font-family="Helvetica,sans-Serif" font-size="10.00">CaptureState</text>
<text text-anchor="start" x="4" y="-562.5" font-family="Helvetica,sans-Serif" font-size="10.00">+</text>
<text text-anchor="start" x="14" y="-562.5" font-family="Helvetica,sans-Serif" font-size="10.00">WaveFormat</text>
<text text-anchor="start" x="5.5" y="-547.5" font-family="Helvetica,sans-Serif" font-size="10.00">&#45;</text>
<text text-anchor="start" x="14" y="-547.5" font-family="Helvetica,sans-Serif" font-size="10.00">captureState</text>
<text text-anchor="start" x="5.5" y="-532.5" font-family="Helvetica,sans-Serif" font-size="10.00">&#45;</text>
<text text-anchor="start" x="14" y="-532.5" font-family="Helvetica,sans-Serif" font-size="10.00">recordBuffer</text>
<text text-anchor="start" x="5.5" y="-517.5" font-family="Helvetica,sans-Serif" font-size="10.00">&#45;</text>
<text text-anchor="start" x="14" y="-517.5" font-family="Helvetica,sans-Serif" font-size="10.00">captureThread</text>
<text text-anchor="start" x="5.5" y="-502.5" font-family="Helvetica,sans-Serif" font-size="10.00">&#45;</text>
<text text-anchor="start" x="14" y="-502.5" font-family="Helvetica,sans-Serif" font-size="10.00">audioClient</text>
<text text-anchor="start" x="5.5" y="-487.5" font-family="Helvetica,sans-Serif" font-size="10.00">&#45;</text>
<text text-anchor="start" x="14" y="-487.5" font-family="Helvetica,sans-Serif" font-size="10.00">bytesPerFrame</text>
<text text-anchor="start" x="5.5" y="-472.5" font-family="Helvetica,sans-Serif" font-size="10.00">&#45;</text>
<text text-anchor="start" x="14" y="-472.5" font-family="Helvetica,sans-Serif" font-size="10.00">waveFormat</text>
<text text-anchor="start" x="5.5" y="-457.5" font-family="Helvetica,sans-Serif" font-size="10.00">&#45;</text>
<text text-anchor="start" x="14" y="-457.5" font-family="Helvetica,sans-Serif" font-size="10.00">initialized</text>
<text text-anchor="start" x="5.5" y="-442.5" font-family="Helvetica,sans-Serif" font-size="10.00">&#45;</text>
<text text-anchor="start" x="14" y="-442.5" font-family="Helvetica,sans-Serif" font-size="10.00">syncContext</text>
<text text-anchor="start" x="5.5" y="-427.5" font-family="Helvetica,sans-Serif" font-size="10.00">&#45;</text>
<text text-anchor="start" x="14" y="-427.5" font-family="Helvetica,sans-Serif" font-size="10.00">isUsingEventSync</text>
<text text-anchor="start" x="5.5" y="-412.5" font-family="Helvetica,sans-Serif" font-size="10.00">&#45;</text>
<text text-anchor="start" x="14" y="-412.5" font-family="Helvetica,sans-Serif" font-size="10.00">frameEventWaitHandle</text>
<text text-anchor="start" x="5.5" y="-397.5" font-family="Helvetica,sans-Serif" font-size="10.00">&#45;</text>
<text text-anchor="start" x="14" y="-397.5" font-family="Helvetica,sans-Serif" font-size="10.00">audioBufferMillisecondsLength</text>
<text text-anchor="start" x="5.5" y="-382.5" font-family="Helvetica,sans-Serif" font-size="10.00">&#45;</text>
<text text-anchor="start" x="14" y="-382.5" font-family="Helvetica,sans-Serif" font-size="10.00">ReftimesPerSec</text>
<text text-anchor="start" x="5.5" y="-367.5" font-family="Helvetica,sans-Serif" font-size="10.00">&#45;</text>
<text text-anchor="start" x="14" y="-367.5" font-family="Helvetica,sans-Serif" font-size="10.00">ReftimesPerMillisec</text>
<text text-anchor="start" x="4" y="-352.5" font-family="Helvetica,sans-Serif" font-size="10.00">+</text>
<text text-anchor="start" x="14" y="-352.5" font-family="Helvetica,sans-Serif" font-size="10.00">WasapiCapture()</text>
<text text-anchor="start" x="4" y="-337.5" font-family="Helvetica,sans-Serif" font-size="10.00">+</text>
<text text-anchor="start" x="14" y="-337.5" font-family="Helvetica,sans-Serif" font-size="10.00">WasapiCapture()</text>
<text text-anchor="start" x="4" y="-322.5" font-family="Helvetica,sans-Serif" font-size="10.00">+</text>
<text text-anchor="start" x="14" y="-322.5" font-family="Helvetica,sans-Serif" font-size="10.00">WasapiCapture()</text>
<text text-anchor="start" x="4" y="-307.5" font-family="Helvetica,sans-Serif" font-size="10.00">+</text>
<text text-anchor="start" x="14" y="-307.5" font-family="Helvetica,sans-Serif" font-size="10.00">WasapiCapture()</text>
<text text-anchor="start" x="4" y="-292.5" font-family="Helvetica,sans-Serif" font-size="10.00">+</text>
<text text-anchor="start" x="14" y="-292.5" font-family="Helvetica,sans-Serif" font-size="10.00">StartRecording()</text>
<text text-anchor="start" x="4" y="-277.5" font-family="Helvetica,sans-Serif" font-size="10.00">+</text>
<text text-anchor="start" x="14" y="-277.5" font-family="Helvetica,sans-Serif" font-size="10.00">StopRecording()</text>
<text text-anchor="start" x="4" y="-262.5" font-family="Helvetica,sans-Serif" font-size="10.00">+</text>
<text text-anchor="start" x="14" y="-262.5" font-family="Helvetica,sans-Serif" font-size="10.00">Dispose()</text>
<text text-anchor="start" x="4" y="-247.5" font-family="Helvetica,sans-Serif" font-size="10.00">+</text>
<text text-anchor="start" x="14" y="-247.5" font-family="Helvetica,sans-Serif" font-size="10.00">GetDefaultCaptureDevice()</text>
<text text-anchor="start" x="4.38" y="-232.5" font-family="Helvetica,sans-Serif" font-size="10.00">#</text>
<text text-anchor="start" x="14" y="-232.5" font-family="Helvetica,sans-Serif" font-size="10.00">GetAudioClientStreamFlags()</text>
<text text-anchor="start" x="5.5" y="-217.5" font-family="Helvetica,sans-Serif" font-size="10.00">&#45;</text>
<text text-anchor="start" x="14" y="-217.5" font-family="Helvetica,sans-Serif" font-size="10.00">InitializeCaptureDevice()</text>
<text text-anchor="start" x="5.5" y="-202.5" font-family="Helvetica,sans-Serif" font-size="10.00">&#45;</text>
<text text-anchor="start" x="14" y="-202.5" font-family="Helvetica,sans-Serif" font-size="10.00">CaptureThread()</text>
<text text-anchor="start" x="5.5" y="-187.5" font-family="Helvetica,sans-Serif" font-size="10.00">&#45;</text>
<text text-anchor="start" x="14" y="-187.5" font-family="Helvetica,sans-Serif" font-size="10.00">DoRecording()</text>
<text text-anchor="start" x="5.5" y="-172.5" font-family="Helvetica,sans-Serif" font-size="10.00">&#45;</text>
<text text-anchor="start" x="14" y="-172.5" font-family="Helvetica,sans-Serif" font-size="10.00">RaiseRecordingStopped()</text>
<text text-anchor="start" x="5.5" y="-157.5" font-family="Helvetica,sans-Serif" font-size="10.00">&#45;</text>
<text text-anchor="start" x="14" y="-157.5" font-family="Helvetica,sans-Serif" font-size="10.00">ReadNextPacket()</text>
<polygon fill="#666666" stroke="#666666" points="0,-604 0,-604 150,-604 150,-604 0,-604"/>
<polygon fill="#666666" stroke="#666666" points="0,-364 0,-364 12,-364 12,-364 0,-364"/>
<polygon fill="#666666" stroke="#666666" points="12,-364 12,-364 150,-364 150,-364 12,-364"/>
<polygon fill="none" stroke="#666666" points="0,-152 0,-632 150,-632 150,-152 0,-152"/>
</a>
</g>
</g>
<!-- Node4 -->
<g id="Node000004" class="node">
<title>Node4</title>
<g id="a_Node000004"><a xlink:href="class_n_audio_1_1_wave_1_1_wasapi_loopback_capture.html" target="_top" xlink:title="WASAPI Loopback Capture based on a contribution from &quot;Pygmy&quot; &#45; http://naudio.codeplex....">
<polygon fill="white" stroke="none" points="148.5,-116 1.5,-116 1.5,0 148.5,0 148.5,-116"/>
<text text-anchor="start" x="6.38" y="-102.5" font-family="Helvetica,sans-Serif" font-size="10.00">NAudio.Wave.WasapiLoopback</text>
<text text-anchor="start" x="57.75" y="-91.25" font-family="Helvetica,sans-Serif" font-size="10.00">Capture</text>
<text text-anchor="start" x="73.5" y="-76.5" font-family="Helvetica,sans-Serif" font-size="10.00"> </text>
<text text-anchor="start" x="6" y="-61.5" font-family="Helvetica,sans-Serif" font-size="10.00">+</text>
<text text-anchor="start" x="16.5" y="-61.5" font-family="Helvetica,sans-Serif" font-size="10.00">WasapiLoopbackCapture()</text>
<text text-anchor="start" x="6" y="-46.5" font-family="Helvetica,sans-Serif" font-size="10.00">+</text>
<text text-anchor="start" x="16.5" y="-46.5" font-family="Helvetica,sans-Serif" font-size="10.00">WasapiLoopbackCapture()</text>
<text text-anchor="start" x="6" y="-31.5" font-family="Helvetica,sans-Serif" font-size="10.00">+</text>
<text text-anchor="start" x="16.5" y="-31.5" font-family="Helvetica,sans-Serif" font-size="10.00">GetDefaultLoopbackCapture</text>
<text text-anchor="start" x="16.5" y="-20.25" font-family="Helvetica,sans-Serif" font-size="10.00">Device()</text>
<text text-anchor="start" x="6.38" y="-5.5" font-family="Helvetica,sans-Serif" font-size="10.00">#</text>
<text text-anchor="start" x="16.5" y="-5.5" font-family="Helvetica,sans-Serif" font-size="10.00">GetAudioClientStreamFlags()</text>
<polygon fill="#666666" stroke="#666666" points="1.5,-88 1.5,-88 148.5,-88 148.5,-88 1.5,-88"/>
<polygon fill="#666666" stroke="#666666" points="1.5,-73 1.5,-73 148.5,-73 148.5,-73 1.5,-73"/>
<polygon fill="none" stroke="#666666" points="1.5,0 1.5,-116 148.5,-116 148.5,0 1.5,0"/>
</a>
</g>
</g>
<!-- Node1&#45;&gt;Node4 -->
<g id="edge3_Node000001_Node000004" class="edge">
<title>Node1&#45;&gt;Node4</title>
<g id="a_edge3_Node000001_Node000004"><a xlink:title=" ">
<path fill="none" stroke="#63b8ff" d="M75,-140.91C75,-132.05 75,-123.62 75,-115.77"/>
<polygon fill="none" stroke="#63b8ff" points="71.5,-140.85 75,-150.85 78.5,-140.85 71.5,-140.85"/>
</a>
</g>
</g>
<!-- Node2 -->
<g id="Node000002" class="node">
<title>Node2</title>
<g id="a_Node000002"><a xlink:href="interface_n_audio_1_1_wave_1_1_i_wave_in.html" target="_top" xlink:title="Generic interface for wave recording.">
<polygon fill="white" stroke="none" points="119.5,-732 30.5,-732 30.5,-668 119.5,-668 119.5,-732"/>
<text text-anchor="start" x="57" y="-718.5" font-family="Helvetica,sans-Serif" font-size="10.00">IWaveIn</text>
<text text-anchor="start" x="34.5" y="-703.5" font-family="Helvetica,sans-Serif" font-size="10.00">+</text>
<text text-anchor="start" x="44.5" y="-703.5" font-family="Helvetica,sans-Serif" font-size="10.00">WaveFormat</text>
<text text-anchor="start" x="34.5" y="-688.5" font-family="Helvetica,sans-Serif" font-size="10.00">+</text>
<text text-anchor="start" x="44.5" y="-688.5" font-family="Helvetica,sans-Serif" font-size="10.00">StartRecording()</text>
<text text-anchor="start" x="34.5" y="-673.5" font-family="Helvetica,sans-Serif" font-size="10.00">+</text>
<text text-anchor="start" x="44.5" y="-673.5" font-family="Helvetica,sans-Serif" font-size="10.00">StopRecording()</text>
<polygon fill="#666666" stroke="#666666" points="30.5,-715 30.5,-715 119.5,-715 119.5,-715 30.5,-715"/>
<polygon fill="#666666" stroke="#666666" points="30.5,-700 30.5,-700 42.5,-700 42.5,-700 30.5,-700"/>
<polygon fill="#666666" stroke="#666666" points="42.5,-700 42.5,-700 119.5,-700 119.5,-700 42.5,-700"/>
<polygon fill="none" stroke="#666666" points="30.5,-668 30.5,-732 119.5,-732 119.5,-668 30.5,-668"/>
</a>
</g>
</g>
<!-- Node2&#45;&gt;Node1 -->
<g id="edge1_Node000001_Node000002" class="edge">
<title>Node2&#45;&gt;Node1</title>
<g id="a_edge1_Node000001_Node000002"><a xlink:title=" ">
<path fill="none" stroke="#63b8ff" d="M75,-656.91C75,-649.25 75,-640.79 75,-631.73"/>
<polygon fill="none" stroke="#63b8ff" points="71.5,-656.74 75,-666.74 78.5,-656.74 71.5,-656.74"/>
</a>
</g>
</g>
<!-- Node3 -->
<g id="Node000003" class="node">
<title>Node3</title>
<g id="a_Node000003"><a xlink:href="class_i_disposable.html" target="_top" xlink:title=" ">
<polygon fill="white" stroke="none" points="105.5,-817 44.5,-817 44.5,-768 105.5,-768 105.5,-817"/>
<text text-anchor="start" x="49.12" y="-803.5" font-family="Helvetica,sans-Serif" font-size="10.00">IDisposable</text>
<text text-anchor="start" x="73.5" y="-788.5" font-family="Helvetica,sans-Serif" font-size="10.00"> </text>
<text text-anchor="start" x="73.5" y="-773.5" font-family="Helvetica,sans-Serif" font-size="10.00"> </text>
<polygon fill="#666666" stroke="#666666" points="44.5,-800 44.5,-800 105.5,-800 105.5,-800 44.5,-800"/>
<polygon fill="#666666" stroke="#666666" points="44.5,-785 44.5,-785 105.5,-785 105.5,-785 44.5,-785"/>
<polygon fill="none" stroke="#666666" points="44.5,-768 44.5,-817 105.5,-817 105.5,-768 44.5,-768"/>
</a>
</g>
</g>
<!-- Node3&#45;&gt;Node2 -->
<g id="edge2_Node000002_Node000003" class="edge">
<title>Node3&#45;&gt;Node2</title>
<g id="a_edge2_Node000002_Node000003"><a xlink:title=" ">
<path fill="none" stroke="#63b8ff" d="M75,-756.93C75,-748.64 75,-739.84 75,-731.74"/>
<polygon fill="none" stroke="#63b8ff" points="71.5,-756.68 75,-766.68 78.5,-756.68 71.5,-756.68"/>
</a>
</g>
</g>
</g>
</svg>
