<?xml version="1.0" encoding="UTF-8" standalone="no"?>
<!DOCTYPE svg PUBLIC "-//W3C//DTD SVG 1.1//EN"
 "http://www.w3.org/Graphics/SVG/1.1/DTD/svg11.dtd">
<!-- Generated by graphviz version 10.0.1 (20240210.2158)
 -->
<!-- Title: xeno_rat_server.Forms.FileView Pages: 1 -->
<!--zoomable 796 -->

<svg id="main" version="1.1" xmlns="http://www.w3.org/2000/svg" xmlns:xlink="http://www.w3.org/1999/xlink" xml:space="preserve" onload="init(evt)">
<style type="text/css"><![CDATA[
.node, .edge {opacity: 0.7;}
.node.selected, .edge.selected {opacity: 1;}
.edge:hover path { stroke: red; }
.edge:hover polygon { stroke: red; fill: red; }
]]></style>

<defs>
  <circle id="rim" cx="0" cy="0" r="7"/>
  <circle id="rim2" cx="0" cy="0" r="3.5"/>
  <g id="zoomPlus">
    <use xlink:href="#rim" fill="#404040"><set attributeName="fill" to="#808080" begin="zoomplus.mouseover" end="zoomplus.mouseout"/></use>
    <path d="M-4,0h8M0,-4v8" fill="none" stroke="white" stroke-width="1.5" pointer-events="none"/>
  </g>
  <g id="zoomMin">
    <use xlink:href="#rim" fill="#404040"><set attributeName="fill" to="#808080" begin="zoomminus.mouseover" end="zoomminus.mouseout"/></use>
    <path d="M-4,0h8" fill="none" stroke="white" stroke-width="1.5" pointer-events="none"/>
  </g>
  <g id="arrowUp" transform="translate(30 24)">
    <use xlink:href="#rim"/>
    <path pointer-events="none" fill="none" stroke="white" stroke-width="1.5" d="M0,-3.0v7 M-2.5,-0.5L0,-3.0L2.5,-0.5"/>
  </g>
  <g id="arrowRight" transform="rotate(90) translate(36 -43)">
    <use xlink:href="#rim"/>
    <path pointer-events="none" fill="none" stroke="white" stroke-width="1.5" d="M0,-3.0v7 M-2.5,-0.5L0,-3.0L2.5,-0.5"/>
  </g>
  <g id="arrowDown" transform="rotate(180) translate(-30 -48)">
    <use xlink:href="#rim"/>
    <path pointer-events="none" fill="none" stroke="white" stroke-width="1.5" d="M0,-3.0v7 M-2.5,-0.5L0,-3.0L2.5,-0.5"/>
  </g>
  <g id="arrowLeft" transform="rotate(270) translate(-36 17)">
    <use xlink:href="#rim"/>
    <path pointer-events="none" fill="none" stroke="white" stroke-width="1.5" d="M0,-3.0v7 M-2.5,-0.5L0,-3.0L2.5,-0.5"/>
  </g>
  <g id="resetDef">
    <use xlink:href="#rim2" fill="#404040"><set attributeName="fill" to="#808080" begin="reset.mouseover" end="reset.mouseout"/></use>
  </g>
</defs>
<script type="application/ecmascript">
var viewWidth = 1144;
var viewHeight = 796;
var sectionId = 'dynsection-0';
</script>
<script type="application/ecmascript" xlink:href="svg.min.js"/>
<svg id="graph" class="graph">
<g id="viewport">
<title>xeno_rat_server.Forms.FileView</title>
<!-- Node1 -->
<g id="Node000001" class="node">
<title>Node1</title>
<g id="a_Node000001"><a xlink:title=" ">
<polygon fill="#999999" stroke="none" points="676.5,-79 526.5,-79 526.5,0 676.5,0 676.5,-79"/>
<text text-anchor="start" x="531.38" y="-65.5" font-family="Helvetica,sans-Serif" font-size="10.00">xeno_rat_server.Forms.FileView</text>
<text text-anchor="start" x="600" y="-50.5" font-family="Helvetica,sans-Serif" font-size="10.00"> </text>
<text text-anchor="start" x="551" y="-35.5" font-family="Helvetica,sans-Serif" font-size="10.00">+</text>
<text text-anchor="start" x="581.5" y="-35.5" font-family="Helvetica,sans-Serif" font-size="10.00">FileView()</text>
<text text-anchor="start" x="551" y="-20.5" font-family="Helvetica,sans-Serif" font-size="10.00">+</text>
<text text-anchor="start" x="581.5" y="-20.5" font-family="Helvetica,sans-Serif" font-size="10.00">SendType()</text>
<text text-anchor="start" x="551" y="-5.5" font-family="Helvetica,sans-Serif" font-size="10.00">+</text>
<text text-anchor="start" x="581.5" y="-5.5" font-family="Helvetica,sans-Serif" font-size="10.00">GetInfo()</text>
<polygon fill="#666666" stroke="#666666" points="526.5,-62 526.5,-62 676.5,-62 676.5,-62 526.5,-62"/>
<polygon fill="#666666" stroke="#666666" points="526.5,-47 526.5,-47 676.5,-47 676.5,-47 526.5,-47"/>
<polygon fill="none" stroke="#666666" points="526.5,0 526.5,-79 676.5,-79 676.5,0 526.5,0"/>
</a>
</g>
</g>
<!-- Node2 -->
<g id="Node000002" class="node">
<title>Node2</title>
<g id="a_Node000002"><a xlink:href="classxeno__rat__server_1_1_node.html" target="_top" xlink:title=" ">
<polygon fill="white" stroke="none" points="675,-430.25 528,-430.25 528,-126.25 675,-126.25 675,-430.25"/>
<text text-anchor="start" x="553.88" y="-416.75" font-family="Helvetica,sans-Serif" font-size="10.00">xeno_rat_server.Node</text>
<text text-anchor="start" x="600" y="-401.75" font-family="Helvetica,sans-Serif" font-size="10.00"> </text>
<text text-anchor="start" x="532" y="-386.75" font-family="Helvetica,sans-Serif" font-size="10.00">+</text>
<text text-anchor="start" x="542" y="-386.75" font-family="Helvetica,sans-Serif" font-size="10.00">Node()</text>
<text text-anchor="start" x="532" y="-371.75" font-family="Helvetica,sans-Serif" font-size="10.00">+</text>
<text text-anchor="start" x="542" y="-371.75" font-family="Helvetica,sans-Serif" font-size="10.00">SetID()</text>
<text text-anchor="start" x="532" y="-356.75" font-family="Helvetica,sans-Serif" font-size="10.00">+</text>
<text text-anchor="start" x="542" y="-356.75" font-family="Helvetica,sans-Serif" font-size="10.00">Disconnect()</text>
<text text-anchor="start" x="532" y="-341.75" font-family="Helvetica,sans-Serif" font-size="10.00">+</text>
<text text-anchor="start" x="542" y="-341.75" font-family="Helvetica,sans-Serif" font-size="10.00">SetRecvTimeout()</text>
<text text-anchor="start" x="532" y="-326.75" font-family="Helvetica,sans-Serif" font-size="10.00">+</text>
<text text-anchor="start" x="542" y="-326.75" font-family="Helvetica,sans-Serif" font-size="10.00">ResetRecvTimeout()</text>
<text text-anchor="start" x="532" y="-311.75" font-family="Helvetica,sans-Serif" font-size="10.00">+</text>
<text text-anchor="start" x="542" y="-311.75" font-family="Helvetica,sans-Serif" font-size="10.00">Connected()</text>
<text text-anchor="start" x="532" y="-296.75" font-family="Helvetica,sans-Serif" font-size="10.00">+</text>
<text text-anchor="start" x="542" y="-296.75" font-family="Helvetica,sans-Serif" font-size="10.00">ReceiveAsync()</text>
<text text-anchor="start" x="532" y="-281.75" font-family="Helvetica,sans-Serif" font-size="10.00">+</text>
<text text-anchor="start" x="542" y="-281.75" font-family="Helvetica,sans-Serif" font-size="10.00">SendAsync()</text>
<text text-anchor="start" x="532" y="-266.75" font-family="Helvetica,sans-Serif" font-size="10.00">+</text>
<text text-anchor="start" x="542" y="-266.75" font-family="Helvetica,sans-Serif" font-size="10.00">GetIp()</text>
<text text-anchor="start" x="532" y="-251.75" font-family="Helvetica,sans-Serif" font-size="10.00">+</text>
<text text-anchor="start" x="542" y="-251.75" font-family="Helvetica,sans-Serif" font-size="10.00">CreateSubNodeAsync()</text>
<text text-anchor="start" x="532" y="-236.75" font-family="Helvetica,sans-Serif" font-size="10.00">+</text>
<text text-anchor="start" x="542" y="-236.75" font-family="Helvetica,sans-Serif" font-size="10.00">AddTempOnDisconnect()</text>
<text text-anchor="start" x="532" y="-221.75" font-family="Helvetica,sans-Serif" font-size="10.00">+</text>
<text text-anchor="start" x="542" y="-221.75" font-family="Helvetica,sans-Serif" font-size="10.00">RemoveTempOnDisconnect()</text>
<text text-anchor="start" x="532" y="-206.75" font-family="Helvetica,sans-Serif" font-size="10.00">+</text>
<text text-anchor="start" x="542" y="-206.75" font-family="Helvetica,sans-Serif" font-size="10.00">AddSubNode()</text>
<text text-anchor="start" x="532" y="-191.75" font-family="Helvetica,sans-Serif" font-size="10.00">+</text>
<text text-anchor="start" x="542" y="-191.75" font-family="Helvetica,sans-Serif" font-size="10.00">AuthenticateAsync()</text>
<text text-anchor="start" x="533.5" y="-176.75" font-family="Helvetica,sans-Serif" font-size="10.00">&#45;</text>
<text text-anchor="start" x="542" y="-176.75" font-family="Helvetica,sans-Serif" font-size="10.00">memcmp()</text>
<text text-anchor="start" x="533.5" y="-161.75" font-family="Helvetica,sans-Serif" font-size="10.00">&#45;</text>
<text text-anchor="start" x="542" y="-161.75" font-family="Helvetica,sans-Serif" font-size="10.00">GetByteArray()</text>
<text text-anchor="start" x="533.5" y="-146.75" font-family="Helvetica,sans-Serif" font-size="10.00">&#45;</text>
<text text-anchor="start" x="542" y="-146.75" font-family="Helvetica,sans-Serif" font-size="10.00">ByteArrayCompare()</text>
<text text-anchor="start" x="533.5" y="-131.75" font-family="Helvetica,sans-Serif" font-size="10.00">&#45;</text>
<text text-anchor="start" x="542" y="-131.75" font-family="Helvetica,sans-Serif" font-size="10.00">GetSocketType()</text>
<polygon fill="#666666" stroke="#666666" points="528,-413.25 528,-413.25 675,-413.25 675,-413.25 528,-413.25"/>
<polygon fill="#666666" stroke="#666666" points="528,-398.25 528,-398.25 675,-398.25 675,-398.25 528,-398.25"/>
<polygon fill="none" stroke="#666666" points="528,-126.25 528,-430.25 675,-430.25 675,-126.25 528,-126.25"/>
</a>
</g>
</g>
<!-- Node2&#45;&gt;Node1 -->
<g id="edge1_Node000001_Node000002" class="edge">
<title>Node2&#45;&gt;Node1</title>
<g id="a_edge1_Node000001_Node000002"><a xlink:title=" ">
<path fill="none" stroke="#63b8ff" d="M601.5,-126.31C601.5,-114.03 601.5,-102.27 601.5,-91.59"/>
<polygon fill="none" stroke="#63b8ff" points="601.5,-91.6 597.5,-85.6 601.5,-79.6 605.5,-85.6 601.5,-91.6"/>
</a>
</g>
<text text-anchor="middle" x="617.62" y="-98.75" font-family="Helvetica,sans-Serif" font-size="10.00" fill="grey"> +client</text>
</g>
<!-- Node2&#45;&gt;Node2 -->
<g id="edge13_Node000002_Node000002" class="edge">
<title>Node2&#45;&gt;Node2</title>
<g id="a_edge13_Node000002_Node000002"><a xlink:title=" ">
<path fill="none" stroke="#63b8ff" d="M674.73,-308.12C685.63,-303.47 693,-293.51 693,-278.25 693,-268.71 690.12,-261.24 685.3,-255.85"/>
<polygon fill="none" stroke="#63b8ff" points="685.26,-255.82 678.05,-255.63 675.46,-248.9 682.67,-249.09 685.26,-255.82"/>
</a>
</g>
<text text-anchor="middle" x="711.75" y="-274.38" font-family="Helvetica,sans-Serif" font-size="10.00" fill="grey"> +Parent</text>
</g>
<!-- Node3 -->
<g id="Node000003" class="node">
<title>Node3</title>
<g id="a_Node000003"><a xlink:title=" ">
<polygon fill="white" stroke="none" points="79,-609 0,-609 0,-560 79,-560 79,-609"/>
<text text-anchor="start" x="5" y="-595.5" font-family="Helvetica,sans-Serif" font-size="10.00">SemaphoreSlim</text>
<text text-anchor="start" x="38" y="-580.5" font-family="Helvetica,sans-Serif" font-size="10.00"> </text>
<text text-anchor="start" x="38" y="-565.5" font-family="Helvetica,sans-Serif" font-size="10.00"> </text>
<polygon fill="#666666" stroke="#666666" points="0,-592 0,-592 79,-592 79,-592 0,-592"/>
<polygon fill="#666666" stroke="#666666" points="0,-577 0,-577 79,-577 79,-577 0,-577"/>
<polygon fill="none" stroke="#666666" points="0,-560 0,-609 79,-609 79,-560 0,-560"/>
</a>
</g>
</g>
<!-- Node3&#45;&gt;Node2 -->
<g id="edge2_Node000002_Node000003" class="edge">
<title>Node3&#45;&gt;Node2</title>
<g id="a_edge2_Node000002_Node000003"><a xlink:title=" ">
<path fill="none" stroke="#63b8ff" d="M32.05,-560.06C24.32,-530.8 16.44,-480.65 40.75,-448.25 98.06,-371.87 373.14,-316.59 515.58,-292.57"/>
<polygon fill="none" stroke="#63b8ff" points="515.38,-292.6 520.64,-287.67 527.22,-290.63 521.96,-295.56 515.38,-292.6"/>
</a>
</g>
<text text-anchor="middle" x="89.88" y="-450" font-family="Helvetica,sans-Serif" font-size="10.00" fill="grey"> &#45;OneRecieveAtATime</text>
</g>
<!-- Node4 -->
<g id="Node000004" class="node">
<title>Node4</title>
<g id="a_Node000004"><a xlink:title=" ">
<polygon fill="white" stroke="none" points="182.5,-787.75 154.5,-787.75 154.5,-738.75 182.5,-738.75 182.5,-787.75"/>
<text text-anchor="start" x="159.5" y="-774.25" font-family="Helvetica,sans-Serif" font-size="10.00">bool</text>
<text text-anchor="start" x="167" y="-759.25" font-family="Helvetica,sans-Serif" font-size="10.00"> </text>
<text text-anchor="start" x="167" y="-744.25" font-family="Helvetica,sans-Serif" font-size="10.00"> </text>
<polygon fill="#666666" stroke="#666666" points="154.5,-770.75 154.5,-770.75 182.5,-770.75 182.5,-770.75 154.5,-770.75"/>
<polygon fill="#666666" stroke="#666666" points="154.5,-755.75 154.5,-755.75 182.5,-755.75 182.5,-755.75 154.5,-755.75"/>
<polygon fill="none" stroke="#666666" points="154.5,-738.75 154.5,-787.75 182.5,-787.75 182.5,-738.75 154.5,-738.75"/>
</a>
</g>
</g>
<!-- Node4&#45;&gt;Node2 -->
<g id="edge3_Node000002_Node000004" class="edge">
<title>Node4&#45;&gt;Node2</title>
<g id="a_edge3_Node000002_Node000004"><a xlink:title=" ">
<path fill="none" stroke="#63b8ff" d="M164.98,-738.99C158.4,-686.82 149.7,-558.69 207.75,-477.5 281.19,-374.78 423.52,-322.11 515.43,-297.65"/>
<polygon fill="none" stroke="#63b8ff" points="515.57,-297.62 520.37,-292.24 527.18,-294.61 522.38,-299.99 515.57,-297.62"/>
</a>
</g>
<text text-anchor="middle" x="237.38" y="-580.62" font-family="Helvetica,sans-Serif" font-size="10.00" fill="grey"> +isDisposed</text>
</g>
<!-- Node9 -->
<g id="Node000009" class="node">
<title>Node9</title>
<g id="a_Node000009"><a xlink:href="classxeno__rat__server_1_1_socket_handler.html" target="_top" xlink:title=" ">
<polygon fill="white" stroke="none" points="424.5,-691.5 274.5,-691.5 274.5,-477.5 424.5,-477.5 424.5,-691.5"/>
<text text-anchor="start" x="281.25" y="-678" font-family="Helvetica,sans-Serif" font-size="10.00">xeno_rat_server.SocketHandler</text>
<text text-anchor="start" x="348" y="-663" font-family="Helvetica,sans-Serif" font-size="10.00"> </text>
<text text-anchor="start" x="278.5" y="-648" font-family="Helvetica,sans-Serif" font-size="10.00">+</text>
<text text-anchor="start" x="288.5" y="-648" font-family="Helvetica,sans-Serif" font-size="10.00">SocketHandler()</text>
<text text-anchor="start" x="278.5" y="-633" font-family="Helvetica,sans-Serif" font-size="10.00">+</text>
<text text-anchor="start" x="288.5" y="-633" font-family="Helvetica,sans-Serif" font-size="10.00">SendAsync()</text>
<text text-anchor="start" x="278.5" y="-618" font-family="Helvetica,sans-Serif" font-size="10.00">+</text>
<text text-anchor="start" x="288.5" y="-618" font-family="Helvetica,sans-Serif" font-size="10.00">ReceiveAsync()</text>
<text text-anchor="start" x="278.5" y="-603" font-family="Helvetica,sans-Serif" font-size="10.00">+</text>
<text text-anchor="start" x="288.5" y="-603" font-family="Helvetica,sans-Serif" font-size="10.00">Concat()</text>
<text text-anchor="start" x="278.5" y="-588" font-family="Helvetica,sans-Serif" font-size="10.00">+</text>
<text text-anchor="start" x="288.5" y="-588" font-family="Helvetica,sans-Serif" font-size="10.00">BTruncate()</text>
<text text-anchor="start" x="278.5" y="-573" font-family="Helvetica,sans-Serif" font-size="10.00">+</text>
<text text-anchor="start" x="288.5" y="-573" font-family="Helvetica,sans-Serif" font-size="10.00">BytesToInt()</text>
<text text-anchor="start" x="278.5" y="-558" font-family="Helvetica,sans-Serif" font-size="10.00">+</text>
<text text-anchor="start" x="288.5" y="-558" font-family="Helvetica,sans-Serif" font-size="10.00">IntToBytes()</text>
<text text-anchor="start" x="278.5" y="-543" font-family="Helvetica,sans-Serif" font-size="10.00">+</text>
<text text-anchor="start" x="288.5" y="-543" font-family="Helvetica,sans-Serif" font-size="10.00">SetRecvTimeout()</text>
<text text-anchor="start" x="278.5" y="-528" font-family="Helvetica,sans-Serif" font-size="10.00">+</text>
<text text-anchor="start" x="288.5" y="-528" font-family="Helvetica,sans-Serif" font-size="10.00">ResetRecvTimeout()</text>
<text text-anchor="start" x="280" y="-513" font-family="Helvetica,sans-Serif" font-size="10.00">&#45;</text>
<text text-anchor="start" x="288.5" y="-513" font-family="Helvetica,sans-Serif" font-size="10.00">RecvAllAsync_ddos_unsafer()</text>
<text text-anchor="start" x="280" y="-498" font-family="Helvetica,sans-Serif" font-size="10.00">&#45;</text>
<text text-anchor="start" x="288.5" y="-498" font-family="Helvetica,sans-Serif" font-size="10.00">RecvAllAsync_ddos_safer()</text>
<text text-anchor="start" x="280" y="-483" font-family="Helvetica,sans-Serif" font-size="10.00">&#45;</text>
<text text-anchor="start" x="288.5" y="-483" font-family="Helvetica,sans-Serif" font-size="10.00">ParseHeader()</text>
<polygon fill="#666666" stroke="#666666" points="274.5,-674.5 274.5,-674.5 424.5,-674.5 424.5,-674.5 274.5,-674.5"/>
<polygon fill="#666666" stroke="#666666" points="274.5,-659.5 274.5,-659.5 424.5,-659.5 424.5,-659.5 274.5,-659.5"/>
<polygon fill="none" stroke="#666666" points="274.5,-477.5 274.5,-691.5 424.5,-691.5 424.5,-477.5 274.5,-477.5"/>
</a>
</g>
</g>
<!-- Node4&#45;&gt;Node9 -->
<g id="edge12_Node000009_Node000004" class="edge">
<title>Node4&#45;&gt;Node9</title>
<g id="a_edge12_Node000009_Node000004"><a xlink:title=" ">
<path fill="none" stroke="#63b8ff" d="M182.36,-746.23C191.71,-735.6 204.45,-721.46 216.25,-709.5 231.88,-693.65 249.01,-677.13 265.61,-661.51"/>
<polygon fill="none" stroke="#63b8ff" points="265.35,-661.76 267,-654.74 274.11,-653.56 272.47,-660.58 265.35,-661.76"/>
</a>
</g>
<text text-anchor="middle" x="261.12" y="-711.25" font-family="Helvetica,sans-Serif" font-size="10.00" fill="grey"> &#45;doProtocolUpgrade</text>
</g>
<!-- Node5 -->
<g id="Node000005" class="node">
<title>Node5</title>
<g id="a_Node000005"><a xlink:title=" ">
<polygon fill="white" stroke="none" points="739.5,-614.5 621.5,-614.5 621.5,-554.5 739.5,-554.5 739.5,-614.5"/>
<text text-anchor="start" x="626.12" y="-601" font-family="Helvetica,sans-Serif" font-size="10.00">Action&lt; xeno_rat_server.</text>
<text text-anchor="start" x="664.38" y="-589.75" font-family="Helvetica,sans-Serif" font-size="10.00">Node &gt;</text>
<text text-anchor="start" x="679" y="-575" font-family="Helvetica,sans-Serif" font-size="10.00"> </text>
<text text-anchor="start" x="679" y="-560" font-family="Helvetica,sans-Serif" font-size="10.00"> </text>
<polygon fill="#666666" stroke="#666666" points="621.5,-586.5 621.5,-586.5 739.5,-586.5 739.5,-586.5 621.5,-586.5"/>
<polygon fill="#666666" stroke="#666666" points="621.5,-571.5 621.5,-571.5 739.5,-571.5 739.5,-571.5 621.5,-571.5"/>
<polygon fill="none" stroke="#666666" points="621.5,-554.5 621.5,-614.5 739.5,-614.5 739.5,-554.5 621.5,-554.5"/>
</a>
</g>
</g>
<!-- Node5&#45;&gt;Node2 -->
<g id="edge4_Node000002_Node000005" class="edge">
<title>Node5&#45;&gt;Node2</title>
<g id="a_edge4_Node000002_Node000005"><a xlink:title=" ">
<path fill="none" stroke="#63b8ff" d="M673,-554.6C666.06,-527.88 655.15,-485.88 643.93,-442.65"/>
<polygon fill="none" stroke="#63b8ff" points="643.92,-442.62 638.54,-437.82 640.9,-431.01 646.28,-435.81 643.92,-442.62"/>
</a>
</g>
<text text-anchor="middle" x="681.62" y="-450" font-family="Helvetica,sans-Serif" font-size="10.00" fill="grey"> &#45;OnDisconnect</text>
</g>
<!-- Node6 -->
<g id="Node000006" class="node">
<title>Node6</title>
<g id="a_Node000006"><a xlink:title=" ">
<polygon fill="white" stroke="none" points="859.5,-614.5 757.5,-614.5 757.5,-554.5 859.5,-554.5 859.5,-614.5"/>
<text text-anchor="start" x="762.38" y="-601" font-family="Helvetica,sans-Serif" font-size="10.00">List&lt; Action&lt; xeno</text>
<text text-anchor="start" x="762.38" y="-589.75" font-family="Helvetica,sans-Serif" font-size="10.00">_rat_server.Node &gt; &gt;</text>
<text text-anchor="start" x="807" y="-575" font-family="Helvetica,sans-Serif" font-size="10.00"> </text>
<text text-anchor="start" x="807" y="-560" font-family="Helvetica,sans-Serif" font-size="10.00"> </text>
<polygon fill="#666666" stroke="#666666" points="757.5,-586.5 757.5,-586.5 859.5,-586.5 859.5,-586.5 757.5,-586.5"/>
<polygon fill="#666666" stroke="#666666" points="757.5,-571.5 757.5,-571.5 859.5,-571.5 859.5,-571.5 757.5,-571.5"/>
<polygon fill="none" stroke="#666666" points="757.5,-554.5 757.5,-614.5 859.5,-614.5 859.5,-554.5 757.5,-554.5"/>
</a>
</g>
</g>
<!-- Node6&#45;&gt;Node2 -->
<g id="edge5_Node000002_Node000006" class="edge">
<title>Node6&#45;&gt;Node2</title>
<g id="a_edge5_Node000002_Node000006"><a xlink:title=" ">
<path fill="none" stroke="#63b8ff" d="M793.38,-554.59C781.77,-532.96 764.98,-502.85 748.5,-477.5 728.23,-446.33 704.82,-413.52 682.71,-383.75"/>
<polygon fill="none" stroke="#63b8ff" points="682.67,-383.7 675.88,-381.28 675.5,-374.08 682.29,-376.5 682.67,-383.7"/>
</a>
</g>
<text text-anchor="middle" x="782.25" y="-450" font-family="Helvetica,sans-Serif" font-size="10.00" fill="grey"> &#45;TempOnDisconnects</text>
</g>
<!-- Node7 -->
<g id="Node000007" class="node">
<title>Node7</title>
<g id="a_Node000007"><a xlink:title=" ">
<polygon fill="white" stroke="none" points="1017,-609 878,-609 878,-560 1017,-560 1017,-609"/>
<text text-anchor="start" x="883" y="-595.5" font-family="Helvetica,sans-Serif" font-size="10.00">List&lt; xeno_rat_server.Node &gt;</text>
<text text-anchor="start" x="946" y="-580.5" font-family="Helvetica,sans-Serif" font-size="10.00"> </text>
<text text-anchor="start" x="946" y="-565.5" font-family="Helvetica,sans-Serif" font-size="10.00"> </text>
<polygon fill="#666666" stroke="#666666" points="878,-592 878,-592 1017,-592 1017,-592 878,-592"/>
<polygon fill="#666666" stroke="#666666" points="878,-577 878,-577 1017,-577 1017,-577 878,-577"/>
<polygon fill="none" stroke="#666666" points="878,-560 878,-609 1017,-609 1017,-560 878,-560"/>
</a>
</g>
</g>
<!-- Node7&#45;&gt;Node2 -->
<g id="edge6_Node000002_Node000007" class="edge">
<title>Node7&#45;&gt;Node2</title>
<g id="a_edge6_Node000002_Node000007"><a xlink:title=" ">
<path fill="none" stroke="#63b8ff" d="M932.13,-560.11C917.07,-537.89 892.88,-504.04 868.5,-477.5 814.74,-418.98 741.62,-366.08 685.48,-329.68"/>
<polygon fill="none" stroke="#63b8ff" points="685.71,-329.82 678.5,-329.94 675.61,-323.33 682.82,-323.21 685.71,-329.82"/>
</a>
</g>
<text text-anchor="middle" x="876.12" y="-450" font-family="Helvetica,sans-Serif" font-size="10.00" fill="grey"> +subNodes</text>
</g>
<!-- Node8 -->
<g id="Node000008" class="node">
<title>Node8</title>
<g id="a_Node000008"><a xlink:title=" ">
<polygon fill="white" stroke="none" points="1135.5,-614.5 1035.5,-614.5 1035.5,-554.5 1135.5,-554.5 1135.5,-614.5"/>
<text text-anchor="start" x="1040.12" y="-601" font-family="Helvetica,sans-Serif" font-size="10.00">Dictionary&lt; int, xeno</text>
<text text-anchor="start" x="1043.88" y="-589.75" font-family="Helvetica,sans-Serif" font-size="10.00">_rat_server.Node &gt;</text>
<text text-anchor="start" x="1084" y="-575" font-family="Helvetica,sans-Serif" font-size="10.00"> </text>
<text text-anchor="start" x="1084" y="-560" font-family="Helvetica,sans-Serif" font-size="10.00"> </text>
<polygon fill="#666666" stroke="#666666" points="1035.5,-586.5 1035.5,-586.5 1135.5,-586.5 1135.5,-586.5 1035.5,-586.5"/>
<polygon fill="#666666" stroke="#666666" points="1035.5,-571.5 1035.5,-571.5 1135.5,-571.5 1135.5,-571.5 1035.5,-571.5"/>
<polygon fill="none" stroke="#666666" points="1035.5,-554.5 1035.5,-614.5 1135.5,-614.5 1135.5,-554.5 1035.5,-554.5"/>
</a>
</g>
</g>
<!-- Node8&#45;&gt;Node2 -->
<g id="edge7_Node000002_Node000008" class="edge">
<title>Node8&#45;&gt;Node2</title>
<g id="a_edge7_Node000002_Node000008"><a xlink:title=" ">
<path fill="none" stroke="#63b8ff" d="M1075.23,-554.63C1065.69,-531.28 1049.47,-498.88 1026.5,-477.5 928.22,-386.01 780.19,-330.12 687.29,-301.93"/>
<polygon fill="none" stroke="#63b8ff" points="687.21,-301.91 680.31,-304.03 675.71,-298.48 682.6,-296.36 687.21,-301.91"/>
</a>
</g>
<text text-anchor="middle" x="1029.75" y="-450" font-family="Helvetica,sans-Serif" font-size="10.00" fill="grey"> &#45;subNodeWait</text>
</g>
<!-- Node9&#45;&gt;Node2 -->
<g id="edge8_Node000002_Node000009" class="edge">
<title>Node9&#45;&gt;Node2</title>
<g id="a_edge8_Node000002_Node000009"><a xlink:title=" ">
<path fill="none" stroke="#63b8ff" d="M424.43,-493.04C454.53,-456.7 489.3,-414.71 520.03,-377.61"/>
<polygon fill="none" stroke="#63b8ff" points="519.93,-377.73 520.68,-370.55 527.59,-368.49 526.84,-375.66 519.93,-377.73"/>
</a>
</g>
<text text-anchor="middle" x="475.5" y="-450" font-family="Helvetica,sans-Serif" font-size="10.00" fill="grey"> +sock</text>
</g>
<!-- Node10 -->
<g id="Node000010" class="node">
<title>Node10</title>
<g id="a_Node000010"><a xlink:title=" ">
<polygon fill="white" stroke="none" points="316.5,-787.75 276.5,-787.75 276.5,-738.75 316.5,-738.75 316.5,-787.75"/>
<text text-anchor="start" x="281.12" y="-774.25" font-family="Helvetica,sans-Serif" font-size="10.00">Socket</text>
<text text-anchor="start" x="295" y="-759.25" font-family="Helvetica,sans-Serif" font-size="10.00"> </text>
<text text-anchor="start" x="295" y="-744.25" font-family="Helvetica,sans-Serif" font-size="10.00"> </text>
<polygon fill="#666666" stroke="#666666" points="276.5,-770.75 276.5,-770.75 316.5,-770.75 316.5,-770.75 276.5,-770.75"/>
<polygon fill="#666666" stroke="#666666" points="276.5,-755.75 276.5,-755.75 316.5,-755.75 316.5,-755.75 276.5,-755.75"/>
<polygon fill="none" stroke="#666666" points="276.5,-738.75 276.5,-787.75 316.5,-787.75 316.5,-738.75 276.5,-738.75"/>
</a>
</g>
</g>
<!-- Node10&#45;&gt;Node9 -->
<g id="edge9_Node000009_Node000010" class="edge">
<title>Node10&#45;&gt;Node9</title>
<g id="a_edge9_Node000009_Node000010"><a xlink:title=" ">
<path fill="none" stroke="#63b8ff" d="M303.54,-738.78C306.47,-729 310.11,-716.86 314.05,-703.72"/>
<polygon fill="none" stroke="#63b8ff" points="314.03,-703.77 311.93,-696.88 317.48,-692.28 319.59,-699.18 314.03,-703.77"/>
</a>
</g>
<text text-anchor="middle" x="327.5" y="-711.25" font-family="Helvetica,sans-Serif" font-size="10.00" fill="grey"> +sock</text>
</g>
<!-- Node11 -->
<g id="Node000011" class="node">
<title>Node11</title>
<g id="a_Node000011"><a xlink:title=" ">
<polygon fill="white" stroke="none" points="363.5,-787.75 335.5,-787.75 335.5,-738.75 363.5,-738.75 363.5,-787.75"/>
<text text-anchor="start" x="340.12" y="-774.25" font-family="Helvetica,sans-Serif" font-size="10.00">byte</text>
<text text-anchor="start" x="348" y="-759.25" font-family="Helvetica,sans-Serif" font-size="10.00"> </text>
<text text-anchor="start" x="348" y="-744.25" font-family="Helvetica,sans-Serif" font-size="10.00"> </text>
<polygon fill="#666666" stroke="#666666" points="335.5,-770.75 335.5,-770.75 363.5,-770.75 363.5,-770.75 335.5,-770.75"/>
<polygon fill="#666666" stroke="#666666" points="335.5,-755.75 335.5,-755.75 363.5,-755.75 363.5,-755.75 335.5,-755.75"/>
<polygon fill="none" stroke="#666666" points="335.5,-738.75 335.5,-787.75 363.5,-787.75 363.5,-738.75 335.5,-738.75"/>
</a>
</g>
</g>
<!-- Node11&#45;&gt;Node9 -->
<g id="edge10_Node000009_Node000011" class="edge">
<title>Node11&#45;&gt;Node9</title>
<g id="a_edge10_Node000009_Node000011"><a xlink:title=" ">
<path fill="none" stroke="#63b8ff" d="M349.5,-738.78C349.5,-729.1 349.5,-717.11 349.5,-704.13"/>
<polygon fill="none" stroke="#63b8ff" points="349.5,-704.32 345.5,-698.32 349.5,-692.32 353.5,-698.32 349.5,-704.32"/>
</a>
</g>
<text text-anchor="middle" x="385.88" y="-711.25" font-family="Helvetica,sans-Serif" font-size="10.00" fill="grey"> +EncryptionKey</text>
</g>
<!-- Node12 -->
<g id="Node000012" class="node">
<title>Node12</title>
<g id="a_Node000012"><a xlink:title=" ">
<polygon fill="white" stroke="none" points="493.5,-787.75 473.5,-787.75 473.5,-738.75 493.5,-738.75 493.5,-787.75"/>
<text text-anchor="start" x="478.25" y="-774.25" font-family="Helvetica,sans-Serif" font-size="10.00">int</text>
<text text-anchor="start" x="482" y="-759.25" font-family="Helvetica,sans-Serif" font-size="10.00"> </text>
<text text-anchor="start" x="482" y="-744.25" font-family="Helvetica,sans-Serif" font-size="10.00"> </text>
<polygon fill="#666666" stroke="#666666" points="473.5,-770.75 473.5,-770.75 493.5,-770.75 493.5,-770.75 473.5,-770.75"/>
<polygon fill="#666666" stroke="#666666" points="473.5,-755.75 473.5,-755.75 493.5,-755.75 493.5,-755.75 473.5,-755.75"/>
<polygon fill="none" stroke="#666666" points="473.5,-738.75 473.5,-787.75 493.5,-787.75 493.5,-738.75 473.5,-738.75"/>
</a>
</g>
</g>
<!-- Node12&#45;&gt;Node2 -->
<g id="edge14_Node000002_Node000012" class="edge">
<title>Node12&#45;&gt;Node2</title>
<g id="a_edge14_Node000002_Node000012"><a xlink:title=" ">
<path fill="none" stroke="#63b8ff" d="M493.47,-749.17C498.88,-741.35 505.13,-730.98 508.5,-720.75 542.48,-617.61 508.14,-583.55 531.5,-477.5 534.04,-465.99 537.04,-454.23 540.37,-442.47"/>
<polygon fill="none" stroke="#63b8ff" points="540.33,-442.61 538.17,-435.73 543.69,-431.09 545.85,-437.97 540.33,-442.61"/>
</a>
</g>
<text text-anchor="middle" x="572" y="-591.88" font-family="Helvetica,sans-Serif" font-size="10.00" fill="grey"> +ID</text>
<text text-anchor="middle" x="572" y="-580.62" font-family="Helvetica,sans-Serif" font-size="10.00" fill="grey">+SockType</text>
<text text-anchor="middle" x="572" y="-569.38" font-family="Helvetica,sans-Serif" font-size="10.00" fill="grey">+SubNodeIdCount</text>
</g>
<!-- Node12&#45;&gt;Node9 -->
<g id="edge11_Node000009_Node000012" class="edge">
<title>Node12&#45;&gt;Node9</title>
<g id="a_edge11_Node000009_Node000012"><a xlink:title=" ">
<path fill="none" stroke="#63b8ff" d="M473.68,-751.95C465.97,-743.72 455.1,-731.77 446.25,-720.75 441.27,-714.54 436.24,-708.11 431.23,-701.56"/>
<polygon fill="none" stroke="#63b8ff" points="431.17,-701.48 424.36,-699.11 423.93,-691.92 430.74,-694.28 431.17,-701.48"/>
</a>
</g>
<text text-anchor="middle" x="477.62" y="-711.25" font-family="Helvetica,sans-Serif" font-size="10.00" fill="grey"> +socktimeout</text>
</g>
</g>
</svg>

<g id="navigator" transform="translate(0 0)" fill="#404254">
  <rect fill="#f2f5e9" fill-opacity="0.5" stroke="#606060" stroke-width=".5" x="0" y="0" width="60" height="60"/>
  <use id="zoomplus" xlink:href="#zoomPlus" x="17" y="9" onmousedown="handleZoom(evt,'in')"/>
  <use id="zoomminus" xlink:href="#zoomMin" x="42" y="9" onmousedown="handleZoom(evt,'out')"/>
  <use id="reset" xlink:href="#resetDef" x="30" y="36" onmousedown="handleReset()"/>
   <use id="arrowup" xlink:href="#arrowUp" x="0" y="0" onmousedown="handlePan(0,-1)"/>
  <use id="arrowright" xlink:href="#arrowRight" x="0" y="0" onmousedown="handlePan(1,0)"/>
  <use id="arrowdown" xlink:href="#arrowDown" x="0" y="0" onmousedown="handlePan(0,1)"/>
  <use id="arrowleft" xlink:href="#arrowLeft" x="0" y="0" onmousedown="handlePan(-1,0)"/>
</g>
<svg viewBox="0 0 15 15" width="100%" height="30px" preserveAspectRatio="xMaxYMin meet">
 <g id="arrow_out" transform="scale(0.3 0.3)">
  <a xlink:href="classxeno__rat__server_1_1_forms_1_1_file_view__coll__graph_org.svg" target="_base">
   <rect id="button" ry="5" rx="5" y="6" x="6" height="38" width="38"
        fill="#f2f5e9" fill-opacity="0.5" stroke="#606060" stroke-width="1.0"/>
   <path id="arrow"
     d="M 11.500037,31.436501 C 11.940474,20.09759 22.043105,11.32322 32.158766,21.979434 L 37.068811,17.246167 C 37.068811,17.246167 37.088388,32 37.088388,32 L 22.160133,31.978069 C 22.160133,31.978069 26.997745,27.140456 26.997745,27.140456 C 18.528582,18.264221 13.291696,25.230495 11.500037,31.436501 z"
     style="fill:#404040;"/>
  </a>
 </g>
</svg>

<style type='text/css'>
<![CDATA[
[data-mouse-over-selected='false'] { opacity: 0.7; }
[data-mouse-over-selected='true']  { opacity: 1.0; }
]]>
</style>
<script type="application/ecmascript"><![CDATA[
document.addEventListener('DOMContentLoaded', (event) => {
  highlightEdges();
  highlightAdjacentNodes();
});
]]></script>
</svg>
