<?xml version="1.0" encoding="UTF-8" standalone="no"?>
<!DOCTYPE svg PUBLIC "-//W3C//DTD SVG 1.1//EN"
 "http://www.w3.org/Graphics/SVG/1.1/DTD/svg11.dtd">
<!-- Generated by graphviz version 10.0.1 (20240210.2158)
 -->
<!-- Title: NAudio.Wave.WaveOut.Dispose Pages: 1 -->
<svg width="559pt" height="143pt"
 viewBox="0.00 0.00 558.50 142.50" xmlns="http://www.w3.org/2000/svg" xmlns:xlink="http://www.w3.org/1999/xlink">
<g id="graph0" class="graph" transform="scale(1 1) rotate(0) translate(4 138.5)">
<title>NAudio.Wave.WaveOut.Dispose</title>
<!-- Node1 -->
<g id="Node000001" class="node">
<title>Node1</title>
<g id="a_Node000001"><a xlink:title="Closes the WaveOut device and disposes of buffers.">
<polygon fill="#999999" stroke="#666666" points="158.5,-67.88 0,-67.88 0,-48.62 158.5,-48.62 158.5,-67.88"/>
<text text-anchor="middle" x="79.25" y="-54.38" font-family="Helvetica,sans-Serif" font-size="10.00">NAudio.Wave.WaveOut.Dispose</text>
</a>
</g>
</g>
<!-- Node2 -->
<g id="Node000002" class="node">
<title>Node2</title>
<g id="a_Node000002"><a xlink:href="class_n_audio_1_1_wave_1_1_wave_out_buffer.html#add4717b745771e2768e3e18d7770dda7" target="_top" xlink:title="Disposes of the managed and unmanaged resources used by the WaveOut device.">
<polygon fill="white" stroke="#666666" points="348.5,-116.5 200.5,-116.5 200.5,-86 348.5,-86 348.5,-116.5"/>
<text text-anchor="start" x="208.5" y="-103" font-family="Helvetica,sans-Serif" font-size="10.00">NAudio.Wave.WaveOutBuffer.</text>
<text text-anchor="middle" x="274.5" y="-91.75" font-family="Helvetica,sans-Serif" font-size="10.00">Dispose</text>
</a>
</g>
</g>
<!-- Node1&#45;&gt;Node2 -->
<g id="edge1_Node000001_Node000002" class="edge">
<title>Node1&#45;&gt;Node2</title>
<g id="a_edge1_Node000001_Node000002"><a xlink:title=" ">
<path fill="none" stroke="#63b8ff" d="M125.56,-68.33C145.31,-72.73 169.09,-78.02 191.75,-83.06"/>
<polygon fill="#63b8ff" stroke="#63b8ff" points="190.76,-86.43 201.28,-85.18 192.28,-79.59 190.76,-86.43"/>
</a>
</g>
</g>
<!-- Node3 -->
<g id="Node000003" class="node">
<title>Node3</title>
<g id="a_Node000003"><a xlink:href="class_n_audio_1_1_wave_1_1_wave_out.html#aacf6645597ef347a6a9b31f184e76fd4" target="_top" xlink:title="Stops the audio playback.">
<polygon fill="white" stroke="#666666" points="345.88,-67.88 203.12,-67.88 203.12,-48.62 345.88,-48.62 345.88,-67.88"/>
<text text-anchor="middle" x="274.5" y="-54.38" font-family="Helvetica,sans-Serif" font-size="10.00">NAudio.Wave.WaveOut.Stop</text>
</a>
</g>
</g>
<!-- Node1&#45;&gt;Node3 -->
<g id="edge3_Node000001_Node000003" class="edge">
<title>Node1&#45;&gt;Node3</title>
<g id="a_edge3_Node000001_Node000003"><a xlink:title=" ">
<path fill="none" stroke="#63b8ff" d="M158.85,-58.25C169.63,-58.25 180.72,-58.25 191.56,-58.25"/>
<polygon fill="#63b8ff" stroke="#63b8ff" points="191.23,-61.75 201.23,-58.25 191.23,-54.75 191.23,-61.75"/>
</a>
</g>
</g>
<!-- Node6 -->
<g id="Node000006" class="node">
<title>Node6</title>
<g id="a_Node000006"><a xlink:href="class_n_audio_1_1_wave_1_1_wave_interop.html#a9bfe4605db74d845aafb637240db3cd6" target="_top" xlink:title="Closes the specified waveform output device.">
<polygon fill="white" stroke="#666666" points="354.5,-30.5 194.5,-30.5 194.5,0 354.5,0 354.5,-30.5"/>
<text text-anchor="start" x="202.5" y="-17" font-family="Helvetica,sans-Serif" font-size="10.00">NAudio.Wave.WaveInterop.wave</text>
<text text-anchor="middle" x="274.5" y="-5.75" font-family="Helvetica,sans-Serif" font-size="10.00">OutClose</text>
</a>
</g>
</g>
<!-- Node1&#45;&gt;Node6 -->
<g id="edge6_Node000001_Node000006" class="edge">
<title>Node1&#45;&gt;Node6</title>
<g id="a_edge6_Node000001_Node000006"><a xlink:title=" ">
<path fill="none" stroke="#63b8ff" d="M125.56,-48.17C145.31,-43.77 169.09,-38.48 191.75,-33.44"/>
<polygon fill="#63b8ff" stroke="#63b8ff" points="192.28,-36.91 201.28,-31.32 190.76,-30.07 192.28,-36.91"/>
</a>
</g>
</g>
<!-- Node2&#45;&gt;Node2 -->
<g id="edge2_Node000002_Node000002" class="edge">
<title>Node2&#45;&gt;Node2</title>
<g id="a_edge2_Node000002_Node000002"><a xlink:title=" ">
<path fill="none" stroke="#63b8ff" d="M239.9,-116.99C232.84,-126.06 244.37,-134.5 274.5,-134.5 290.98,-134.5 301.89,-131.97 307.24,-128.2"/>
<polygon fill="#63b8ff" stroke="#63b8ff" points="310.67,-128.92 308.85,-118.48 303.77,-127.77 310.67,-128.92"/>
</a>
</g>
</g>
<!-- Node4 -->
<g id="Node000004" class="node">
<title>Node4</title>
<g id="a_Node000004"><a xlink:href="class_n_audio_1_1_wave_1_1_wave_out.html#a7933f2b948f28376c221b862555586ac" target="_top" xlink:title="Raises the PlaybackStopped event with the specified exception.">
<polygon fill="white" stroke="#666666" points="544.5,-98.5 396.5,-98.5 396.5,-68 544.5,-68 544.5,-98.5"/>
<text text-anchor="start" x="404.5" y="-85" font-family="Helvetica,sans-Serif" font-size="10.00">NAudio.Wave.WaveOut.Raise</text>
<text text-anchor="middle" x="470.5" y="-73.75" font-family="Helvetica,sans-Serif" font-size="10.00">PlaybackStoppedEvent</text>
</a>
</g>
</g>
<!-- Node3&#45;&gt;Node4 -->
<g id="edge4_Node000003_Node000004" class="edge">
<title>Node3&#45;&gt;Node4</title>
<g id="a_edge4_Node000003_Node000004"><a xlink:title=" ">
<path fill="none" stroke="#63b8ff" d="M346.36,-67.38C358.92,-69 372.11,-70.7 385,-72.36"/>
<polygon fill="#63b8ff" stroke="#63b8ff" points="384.36,-75.81 394.72,-73.61 385.25,-68.86 384.36,-75.81"/>
</a>
</g>
</g>
<!-- Node5 -->
<g id="Node000005" class="node">
<title>Node5</title>
<g id="a_Node000005"><a xlink:href="class_n_audio_1_1_wave_1_1_wave_interop.html#aa080e600639676ba67851a13e6d3ea50" target="_top" xlink:title="Resets the specified waveform&#45;audio output device.">
<polygon fill="white" stroke="#666666" points="550.5,-49.5 390.5,-49.5 390.5,-19 550.5,-19 550.5,-49.5"/>
<text text-anchor="start" x="398.5" y="-36" font-family="Helvetica,sans-Serif" font-size="10.00">NAudio.Wave.WaveInterop.wave</text>
<text text-anchor="middle" x="470.5" y="-24.75" font-family="Helvetica,sans-Serif" font-size="10.00">OutReset</text>
</a>
</g>
</g>
<!-- Node3&#45;&gt;Node5 -->
<g id="edge5_Node000003_Node000005" class="edge">
<title>Node3&#45;&gt;Node5</title>
<g id="a_edge5_Node000003_Node000005"><a xlink:title=" ">
<path fill="none" stroke="#63b8ff" d="M346.36,-49.48C356.97,-48.17 368.02,-46.8 378.96,-45.45"/>
<polygon fill="#63b8ff" stroke="#63b8ff" points="379.31,-48.93 388.8,-44.23 378.45,-41.99 379.31,-48.93"/>
</a>
</g>
</g>
</g>
</svg>
