<?xml version="1.0" encoding="UTF-8" standalone="no"?>
<!DOCTYPE svg PUBLIC "-//W3C//DTD SVG 1.1//EN"
 "http://www.w3.org/Graphics/SVG/1.1/DTD/svg11.dtd">
<!-- Generated by graphviz version 10.0.1 (20240210.2158)
 -->
<!-- Title: NAudio.Wave.ImaAdpcmWaveFormat Pages: 1 -->
<svg width="456pt" height="629pt"
 viewBox="0.00 0.00 455.50 629.00" xmlns="http://www.w3.org/2000/svg" xmlns:xlink="http://www.w3.org/1999/xlink">
<g id="graph0" class="graph" transform="scale(1 1) rotate(0) translate(4 625)">
<title>NAudio.Wave.ImaAdpcmWaveFormat</title>
<!-- Node1 -->
<g id="Node000001" class="node">
<title>Node1</title>
<g id="a_Node000001"><a xlink:title="IMA/DVI ADPCM Wave Format Work in progress.">
<polygon fill="#999999" stroke="none" points="396.5,-75 251.5,-75 251.5,0 396.5,0 396.5,-75"/>
<text text-anchor="start" x="256.5" y="-61.5" font-family="Helvetica,sans-Serif" font-size="10.00">NAudio.Wave.ImaAdpcmWave</text>
<text text-anchor="start" x="308.62" y="-50.25" font-family="Helvetica,sans-Serif" font-size="10.00">Format</text>
<text text-anchor="start" x="322.5" y="-35.5" font-family="Helvetica,sans-Serif" font-size="10.00"> </text>
<text text-anchor="start" x="260" y="-20.5" font-family="Helvetica,sans-Serif" font-size="10.00">+</text>
<text text-anchor="start" x="274.5" y="-20.5" font-family="Helvetica,sans-Serif" font-size="10.00">ImaAdpcmWaveFormat()</text>
<text text-anchor="start" x="261.5" y="-5.5" font-family="Helvetica,sans-Serif" font-size="10.00">&#45;</text>
<text text-anchor="start" x="274.5" y="-5.5" font-family="Helvetica,sans-Serif" font-size="10.00">ImaAdpcmWaveFormat()</text>
<polygon fill="#666666" stroke="#666666" points="251.5,-47 251.5,-47 396.5,-47 396.5,-47 251.5,-47"/>
<polygon fill="#666666" stroke="#666666" points="251.5,-32 251.5,-32 396.5,-32 396.5,-32 251.5,-32"/>
<polygon fill="none" stroke="#666666" points="251.5,0 251.5,-75 396.5,-75 396.5,0 251.5,0"/>
</a>
</g>
</g>
<!-- Node2 -->
<g id="Node000002" class="node">
<title>Node2</title>
<g id="a_Node000002"><a xlink:href="class_n_audio_1_1_wave_1_1_wave_format.html" target="_top" xlink:title="Represents a Wave file format.">
<polygon fill="white" stroke="none" points="286.5,-491 137.5,-491 137.5,-112 286.5,-112 286.5,-491"/>
<text text-anchor="start" x="184.25" y="-477.5" font-family="Helvetica,sans-Serif" font-size="10.00">WaveFormat</text>
<text text-anchor="start" x="141.5" y="-462.5" font-family="Helvetica,sans-Serif" font-size="10.00">+</text>
<text text-anchor="start" x="151.5" y="-462.5" font-family="Helvetica,sans-Serif" font-size="10.00">Encoding</text>
<text text-anchor="start" x="141.5" y="-447.5" font-family="Helvetica,sans-Serif" font-size="10.00">+</text>
<text text-anchor="start" x="151.5" y="-447.5" font-family="Helvetica,sans-Serif" font-size="10.00">Channels</text>
<text text-anchor="start" x="141.5" y="-432.5" font-family="Helvetica,sans-Serif" font-size="10.00">+</text>
<text text-anchor="start" x="151.5" y="-432.5" font-family="Helvetica,sans-Serif" font-size="10.00">SampleRate</text>
<text text-anchor="start" x="141.5" y="-417.5" font-family="Helvetica,sans-Serif" font-size="10.00">+</text>
<text text-anchor="start" x="151.5" y="-417.5" font-family="Helvetica,sans-Serif" font-size="10.00">AverageBytesPerSecond</text>
<text text-anchor="start" x="141.5" y="-402.5" font-family="Helvetica,sans-Serif" font-size="10.00">+</text>
<text text-anchor="start" x="151.5" y="-402.5" font-family="Helvetica,sans-Serif" font-size="10.00">BlockAlign</text>
<text text-anchor="start" x="141.5" y="-387.5" font-family="Helvetica,sans-Serif" font-size="10.00">+</text>
<text text-anchor="start" x="151.5" y="-387.5" font-family="Helvetica,sans-Serif" font-size="10.00">BitsPerSample</text>
<text text-anchor="start" x="141.5" y="-372.5" font-family="Helvetica,sans-Serif" font-size="10.00">+</text>
<text text-anchor="start" x="151.5" y="-372.5" font-family="Helvetica,sans-Serif" font-size="10.00">ExtraSize</text>
<text text-anchor="start" x="141.5" y="-357.5" font-family="Helvetica,sans-Serif" font-size="10.00">+</text>
<text text-anchor="start" x="151.5" y="-357.5" font-family="Helvetica,sans-Serif" font-size="10.00">WaveFormat()</text>
<text text-anchor="start" x="141.5" y="-342.5" font-family="Helvetica,sans-Serif" font-size="10.00">+</text>
<text text-anchor="start" x="151.5" y="-342.5" font-family="Helvetica,sans-Serif" font-size="10.00">WaveFormat()</text>
<text text-anchor="start" x="141.5" y="-327.5" font-family="Helvetica,sans-Serif" font-size="10.00">+</text>
<text text-anchor="start" x="151.5" y="-327.5" font-family="Helvetica,sans-Serif" font-size="10.00">ConvertLatencyToByteSize()</text>
<text text-anchor="start" x="141.5" y="-312.5" font-family="Helvetica,sans-Serif" font-size="10.00">+</text>
<text text-anchor="start" x="151.5" y="-312.5" font-family="Helvetica,sans-Serif" font-size="10.00">WaveFormat()</text>
<text text-anchor="start" x="141.5" y="-297.5" font-family="Helvetica,sans-Serif" font-size="10.00">+</text>
<text text-anchor="start" x="151.5" y="-297.5" font-family="Helvetica,sans-Serif" font-size="10.00">WaveFormat()</text>
<text text-anchor="start" x="141.5" y="-282.5" font-family="Helvetica,sans-Serif" font-size="10.00">+</text>
<text text-anchor="start" x="151.5" y="-282.5" font-family="Helvetica,sans-Serif" font-size="10.00">ToString()</text>
<text text-anchor="start" x="141.5" y="-267.5" font-family="Helvetica,sans-Serif" font-size="10.00">+</text>
<text text-anchor="start" x="151.5" y="-267.5" font-family="Helvetica,sans-Serif" font-size="10.00">Equals()</text>
<text text-anchor="start" x="141.5" y="-252.5" font-family="Helvetica,sans-Serif" font-size="10.00">+</text>
<text text-anchor="start" x="151.5" y="-252.5" font-family="Helvetica,sans-Serif" font-size="10.00">GetHashCode()</text>
<text text-anchor="start" x="141.5" y="-237.5" font-family="Helvetica,sans-Serif" font-size="10.00">+</text>
<text text-anchor="start" x="151.5" y="-237.5" font-family="Helvetica,sans-Serif" font-size="10.00">Serialize()</text>
<text text-anchor="start" x="141.5" y="-222.5" font-family="Helvetica,sans-Serif" font-size="10.00">+</text>
<text text-anchor="start" x="151.5" y="-222.5" font-family="Helvetica,sans-Serif" font-size="10.00">CreateCustomFormat()</text>
<text text-anchor="start" x="141.5" y="-207.5" font-family="Helvetica,sans-Serif" font-size="10.00">+</text>
<text text-anchor="start" x="151.5" y="-207.5" font-family="Helvetica,sans-Serif" font-size="10.00">CreateALawFormat()</text>
<text text-anchor="start" x="141.5" y="-192.5" font-family="Helvetica,sans-Serif" font-size="10.00">+</text>
<text text-anchor="start" x="151.5" y="-192.5" font-family="Helvetica,sans-Serif" font-size="10.00">CreateMuLawFormat()</text>
<text text-anchor="start" x="141.5" y="-177.5" font-family="Helvetica,sans-Serif" font-size="10.00">+</text>
<text text-anchor="start" x="151.5" y="-177.5" font-family="Helvetica,sans-Serif" font-size="10.00">CreateIeeeFloatWaveFormat()</text>
<text text-anchor="start" x="141.5" y="-162.5" font-family="Helvetica,sans-Serif" font-size="10.00">+</text>
<text text-anchor="start" x="151.5" y="-162.5" font-family="Helvetica,sans-Serif" font-size="10.00">MarshalFromPtr()</text>
<text text-anchor="start" x="141.5" y="-147.5" font-family="Helvetica,sans-Serif" font-size="10.00">+</text>
<text text-anchor="start" x="151.5" y="-147.5" font-family="Helvetica,sans-Serif" font-size="10.00">MarshalToPtr()</text>
<text text-anchor="start" x="141.5" y="-132.5" font-family="Helvetica,sans-Serif" font-size="10.00">+</text>
<text text-anchor="start" x="151.5" y="-132.5" font-family="Helvetica,sans-Serif" font-size="10.00">FromFormatChunk()</text>
<text text-anchor="start" x="143" y="-117.5" font-family="Helvetica,sans-Serif" font-size="10.00">&#45;</text>
<text text-anchor="start" x="151.5" y="-117.5" font-family="Helvetica,sans-Serif" font-size="10.00">ReadWaveFormat()</text>
<polygon fill="#666666" stroke="#666666" points="137.5,-474 137.5,-474 286.5,-474 286.5,-474 137.5,-474"/>
<polygon fill="#666666" stroke="#666666" points="137.5,-369 137.5,-369 149.5,-369 149.5,-369 137.5,-369"/>
<polygon fill="#666666" stroke="#666666" points="149.5,-369 149.5,-369 286.5,-369 286.5,-369 149.5,-369"/>
<polygon fill="none" stroke="#666666" points="137.5,-112 137.5,-491 286.5,-491 286.5,-112 137.5,-112"/>
</a>
</g>
</g>
<!-- Node2&#45;&gt;Node1 -->
<g id="edge1_Node000001_Node000002" class="edge">
<title>Node2&#45;&gt;Node1</title>
<g id="a_edge1_Node000001_Node000002"><a xlink:title=" ">
<path fill="none" stroke="#63b8ff" d="M290.77,-116.22C297.34,-100.87 303.4,-86.7 308.49,-74.77"/>
<polygon fill="none" stroke="#63b8ff" points="287.7,-114.51 286.99,-125.08 294.14,-117.26 287.7,-114.51"/>
</a>
</g>
</g>
<!-- Node3 -->
<g id="Node000003" class="node">
<title>Node3</title>
<g id="a_Node000003"><a xlink:title=" ">
<polygon fill="white" stroke="none" points="106,-621 0,-621 0,-572 106,-572 106,-621"/>
<text text-anchor="start" x="5" y="-607.5" font-family="Helvetica,sans-Serif" font-size="10.00">WaveFormatEncoding</text>
<text text-anchor="start" x="51.5" y="-592.5" font-family="Helvetica,sans-Serif" font-size="10.00"> </text>
<text text-anchor="start" x="51.5" y="-577.5" font-family="Helvetica,sans-Serif" font-size="10.00"> </text>
<polygon fill="#666666" stroke="#666666" points="0,-604 0,-604 106,-604 106,-604 0,-604"/>
<polygon fill="#666666" stroke="#666666" points="0,-589 0,-589 106,-589 106,-589 0,-589"/>
<polygon fill="none" stroke="#666666" points="0,-572 0,-621 106,-621 106,-572 0,-572"/>
</a>
</g>
</g>
<!-- Node3&#45;&gt;Node2 -->
<g id="edge2_Node000002_Node000003" class="edge">
<title>Node3&#45;&gt;Node2</title>
<g id="a_edge2_Node000002_Node000003"><a xlink:title=" ">
<path fill="none" stroke="#63b8ff" d="M54.96,-572.35C57.08,-554.49 61.39,-529.46 70,-509 85.38,-472.45 107.8,-435.75 130.31,-403.64"/>
<polygon fill="none" stroke="#63b8ff" points="130.13,-403.9 130.35,-396.69 137.09,-394.12 136.87,-401.33 130.13,-403.9"/>
</a>
</g>
<text text-anchor="middle" x="109" y="-527.62" font-family="Helvetica,sans-Serif" font-size="10.00" fill="grey"> #waveFormatTag</text>
</g>
<!-- Node4 -->
<g id="Node000004" class="node">
<title>Node4</title>
<g id="a_Node000004"><a xlink:title=" ">
<polygon fill="white" stroke="none" points="351.5,-621 320.5,-621 320.5,-572 351.5,-572 351.5,-621"/>
<text text-anchor="start" x="325.12" y="-607.5" font-family="Helvetica,sans-Serif" font-size="10.00">short</text>
<text text-anchor="start" x="334.5" y="-592.5" font-family="Helvetica,sans-Serif" font-size="10.00"> </text>
<text text-anchor="start" x="334.5" y="-577.5" font-family="Helvetica,sans-Serif" font-size="10.00"> </text>
<polygon fill="#666666" stroke="#666666" points="320.5,-604 320.5,-604 351.5,-604 351.5,-604 320.5,-604"/>
<polygon fill="#666666" stroke="#666666" points="320.5,-589 320.5,-589 351.5,-589 351.5,-589 320.5,-589"/>
<polygon fill="none" stroke="#666666" points="320.5,-572 320.5,-621 351.5,-621 351.5,-572 320.5,-572"/>
</a>
</g>
</g>
<!-- Node4&#45;&gt;Node1 -->
<g id="edge5_Node000001_Node000004" class="edge">
<title>Node4&#45;&gt;Node1</title>
<g id="a_edge5_Node000001_Node000004"><a xlink:title=" ">
<path fill="none" stroke="#63b8ff" d="M351.21,-579.48C357.03,-572.27 362.99,-563.3 366,-554 372.16,-534.97 366.89,-528.98 366,-509 359.13,-354.83 339.67,-173.08 329.83,-87.6"/>
<polygon fill="none" stroke="#63b8ff" points="329.83,-87.55 325.16,-82.05 328.45,-75.63 333.11,-81.13 329.83,-87.55"/>
</a>
</g>
<text text-anchor="middle" x="406.25" y="-297.62" font-family="Helvetica,sans-Serif" font-size="10.00" fill="grey"> &#45;samplesPerBlock</text>
</g>
<!-- Node4&#45;&gt;Node2 -->
<g id="edge3_Node000002_Node000004" class="edge">
<title>Node4&#45;&gt;Node2</title>
<g id="a_edge3_Node000002_Node000004"><a xlink:title=" ">
<path fill="none" stroke="#63b8ff" d="M320.58,-583.48C311.72,-575.86 301,-565.34 294,-554 287.22,-543.03 279.47,-524.77 271.51,-502.95"/>
<polygon fill="none" stroke="#63b8ff" points="271.53,-503.01 265.74,-498.7 267.49,-491.7 273.28,-496.01 271.53,-503.01"/>
</a>
</g>
<text text-anchor="middle" x="330" y="-544.5" font-family="Helvetica,sans-Serif" font-size="10.00" fill="grey"> #bitsPerSample</text>
<text text-anchor="middle" x="330" y="-533.25" font-family="Helvetica,sans-Serif" font-size="10.00" fill="grey">#blockAlign</text>
<text text-anchor="middle" x="330" y="-522" font-family="Helvetica,sans-Serif" font-size="10.00" fill="grey">#channels</text>
<text text-anchor="middle" x="330" y="-510.75" font-family="Helvetica,sans-Serif" font-size="10.00" fill="grey">#extraSize</text>
</g>
<!-- Node5 -->
<g id="Node000005" class="node">
<title>Node5</title>
<g id="a_Node000005"><a xlink:title=" ">
<polygon fill="white" stroke="none" points="164,-621 144,-621 144,-572 164,-572 164,-621"/>
<text text-anchor="start" x="148.75" y="-607.5" font-family="Helvetica,sans-Serif" font-size="10.00">int</text>
<text text-anchor="start" x="152.5" y="-592.5" font-family="Helvetica,sans-Serif" font-size="10.00"> </text>
<text text-anchor="start" x="152.5" y="-577.5" font-family="Helvetica,sans-Serif" font-size="10.00"> </text>
<polygon fill="#666666" stroke="#666666" points="144,-604 144,-604 164,-604 164,-604 144,-604"/>
<polygon fill="#666666" stroke="#666666" points="144,-589 144,-589 164,-589 164,-589 144,-589"/>
<polygon fill="none" stroke="#666666" points="144,-572 144,-621 164,-621 164,-572 144,-572"/>
</a>
</g>
</g>
<!-- Node5&#45;&gt;Node2 -->
<g id="edge4_Node000002_Node000005" class="edge">
<title>Node5&#45;&gt;Node2</title>
<g id="a_edge4_Node000002_Node000005"><a xlink:title=" ">
<path fill="none" stroke="#63b8ff" d="M152.56,-572.25C151.88,-554.76 151.76,-530.27 154.75,-509 155,-507.22 155.26,-505.44 155.53,-503.65"/>
<polygon fill="none" stroke="#63b8ff" points="155.54,-503.59 152.56,-497.02 157.48,-491.75 160.46,-498.31 155.54,-503.59"/>
</a>
</g>
<text text-anchor="middle" x="212.12" y="-533.25" font-family="Helvetica,sans-Serif" font-size="10.00" fill="grey"> #averageBytesPerSecond</text>
<text text-anchor="middle" x="212.12" y="-522" font-family="Helvetica,sans-Serif" font-size="10.00" fill="grey">#sampleRate</text>
</g>
</g>
</svg>
