<?xml version="1.0" encoding="UTF-8" standalone="no"?>
<!DOCTYPE svg PUBLIC "-//W3C//DTD SVG 1.1//EN"
 "http://www.w3.org/Graphics/SVG/1.1/DTD/svg11.dtd">
<!-- Generated by graphviz version 10.0.1 (20240210.2158)
 -->
<!-- Title: NAudio.Midi.MidiFile.Export Pages: 1 -->
<svg width="315pt" height="137pt"
 viewBox="0.00 0.00 315.25 136.50" xmlns="http://www.w3.org/2000/svg" xmlns:xlink="http://www.w3.org/1999/xlink">
<g id="graph0" class="graph" transform="scale(1 1) rotate(0) translate(4 132.5)">
<title>NAudio.Midi.MidiFile.Export</title>
<!-- Node1 -->
<g id="Node000001" class="node">
<title>Node1</title>
<g id="a_Node000001"><a xlink:title="Exports the MIDI events to a file with the specified filename.">
<polygon fill="#999999" stroke="#666666" points="137.5,-73.88 0,-73.88 0,-54.62 137.5,-54.62 137.5,-73.88"/>
<text text-anchor="middle" x="68.75" y="-60.38" font-family="Helvetica,sans-Serif" font-size="10.00">NAudio.Midi.MidiFile.Export</text>
</a>
</g>
</g>
<!-- Node2 -->
<g id="Node000002" class="node">
<title>Node2</title>
<g id="a_Node000002"><a xlink:href="class_n_audio_1_1_midi_1_1_midi_event.html#abc5dddfff2cac0fa2003ca9a0af50fb1" target="_top" xlink:title="Checks if the provided MIDI event is an end track event.">
<polygon fill="white" stroke="#666666" points="303.88,-128.5 176.88,-128.5 176.88,-98 303.88,-98 303.88,-128.5"/>
<text text-anchor="start" x="184.88" y="-115" font-family="Helvetica,sans-Serif" font-size="10.00">NAudio.Midi.MidiEvent.Is</text>
<text text-anchor="middle" x="240.38" y="-103.75" font-family="Helvetica,sans-Serif" font-size="10.00">EndTrack</text>
</a>
</g>
</g>
<!-- Node1&#45;&gt;Node2 -->
<g id="edge1_Node000001_Node000002" class="edge">
<title>Node1&#45;&gt;Node2</title>
<g id="a_edge1_Node000001_Node000002"><a xlink:title=" ">
<path fill="none" stroke="#63b8ff" d="M104.49,-74.28C124.48,-80.06 150.27,-87.51 173.93,-94.34"/>
<polygon fill="#63b8ff" stroke="#63b8ff" points="172.95,-97.7 183.53,-97.12 174.89,-90.98 172.95,-97.7"/>
</a>
</g>
</g>
<!-- Node3 -->
<g id="Node000003" class="node">
<title>Node3</title>
<g id="a_Node000003"><a xlink:href="class_n_audio_1_1_midi_1_1_midi_file.html#a585d1243e5294e24abd11b8a3b1f37a9" target="_top" xlink:title="Swaps the high and low bytes of the input unsigned 16&#45;bit integer and returns the result.">
<polygon fill="white" stroke="#666666" points="307.25,-79.5 173.5,-79.5 173.5,-49 307.25,-49 307.25,-79.5"/>
<text text-anchor="start" x="181.5" y="-66" font-family="Helvetica,sans-Serif" font-size="10.00">NAudio.Midi.MidiFile.Swap</text>
<text text-anchor="middle" x="240.38" y="-54.75" font-family="Helvetica,sans-Serif" font-size="10.00">UInt16</text>
</a>
</g>
</g>
<!-- Node1&#45;&gt;Node3 -->
<g id="edge2_Node000001_Node000003" class="edge">
<title>Node1&#45;&gt;Node3</title>
<g id="a_edge2_Node000001_Node000003"><a xlink:title=" ">
<path fill="none" stroke="#63b8ff" d="M137.77,-64.25C145.57,-64.25 153.57,-64.25 161.49,-64.25"/>
<polygon fill="#63b8ff" stroke="#63b8ff" points="161.49,-67.75 171.49,-64.25 161.49,-60.75 161.49,-67.75"/>
</a>
</g>
</g>
<!-- Node4 -->
<g id="Node000004" class="node">
<title>Node4</title>
<g id="a_Node000004"><a xlink:href="class_n_audio_1_1_midi_1_1_midi_file.html#a0ba7d53ce539fbf5bc10013503f1837f" target="_top" xlink:title="Swaps the bytes of a 32&#45;bit unsigned integer and returns the result.">
<polygon fill="white" stroke="#666666" points="307.25,-30.5 173.5,-30.5 173.5,0 307.25,0 307.25,-30.5"/>
<text text-anchor="start" x="181.5" y="-17" font-family="Helvetica,sans-Serif" font-size="10.00">NAudio.Midi.MidiFile.Swap</text>
<text text-anchor="middle" x="240.38" y="-5.75" font-family="Helvetica,sans-Serif" font-size="10.00">UInt32</text>
</a>
</g>
</g>
<!-- Node1&#45;&gt;Node4 -->
<g id="edge3_Node000001_Node000004" class="edge">
<title>Node1&#45;&gt;Node4</title>
<g id="a_edge3_Node000001_Node000004"><a xlink:title=" ">
<path fill="none" stroke="#63b8ff" d="M104.49,-54.22C124.48,-48.44 150.27,-40.99 173.93,-34.16"/>
<polygon fill="#63b8ff" stroke="#63b8ff" points="174.89,-37.52 183.53,-31.38 172.95,-30.8 174.89,-37.52"/>
</a>
</g>
</g>
</g>
</svg>
