<?xml version="1.0" encoding="UTF-8" standalone="no"?>
<!DOCTYPE svg PUBLIC "-//W3C//DTD SVG 1.1//EN"
 "http://www.w3.org/Graphics/SVG/1.1/DTD/svg11.dtd">
<!-- Generated by graphviz version 10.0.1 (20240210.2158)
 -->
<!-- Title: InfoGrab.SQLiteHandler.SQLiteHandler Pages: 1 -->
<svg width="535pt" height="150pt"
 viewBox="0.00 0.00 535.25 149.88" xmlns="http://www.w3.org/2000/svg" xmlns:xlink="http://www.w3.org/1999/xlink">
<g id="graph0" class="graph" transform="scale(1 1) rotate(0) translate(4 145.88)">
<title>InfoGrab.SQLiteHandler.SQLiteHandler</title>
<!-- Node1 -->
<g id="Node000001" class="node">
<title>Node1</title>
<g id="a_Node000001"><a xlink:title=" ">
<polygon fill="#999999" stroke="#666666" points="152.5,-110.88 0,-110.88 0,-80.38 152.5,-80.38 152.5,-110.88"/>
<text text-anchor="start" x="8" y="-97.38" font-family="Helvetica,sans-Serif" font-size="10.00">InfoGrab.SQLiteHandler.SQLite</text>
<text text-anchor="middle" x="76.25" y="-86.12" font-family="Helvetica,sans-Serif" font-size="10.00">Handler</text>
</a>
</g>
</g>
<!-- Node2 -->
<g id="Node000002" class="node">
<title>Node2</title>
<g id="a_Node000002"><a xlink:href="class_info_grab_1_1_s_q_lite_handler.html#a49875eb1d8c88c7c501d4f6cdf231f2b" target="_top" xlink:title="Converts a sequence of bytes to an unsigned integer.">
<polygon fill="white" stroke="#666666" points="527.25,-141.88 370.25,-141.88 370.25,-111.38 527.25,-111.38 527.25,-141.88"/>
<text text-anchor="start" x="378.25" y="-128.38" font-family="Helvetica,sans-Serif" font-size="10.00">InfoGrab.SQLiteHandler.Convert</text>
<text text-anchor="middle" x="448.75" y="-117.12" font-family="Helvetica,sans-Serif" font-size="10.00">ToInteger</text>
</a>
</g>
</g>
<!-- Node1&#45;&gt;Node2 -->
<g id="edge1_Node000001_Node000002" class="edge">
<title>Node1&#45;&gt;Node2</title>
<g id="a_edge1_Node000001_Node000002"><a xlink:title=" ">
<path fill="none" stroke="#63b8ff" d="M152.92,-104.14C164.82,-105.38 176.99,-106.58 188.5,-107.62 245,-112.74 308.52,-117.41 358.55,-120.85"/>
<polygon fill="#63b8ff" stroke="#63b8ff" points="358.26,-124.33 368.47,-121.52 358.74,-117.35 358.26,-124.33"/>
</a>
</g>
</g>
<!-- Node3 -->
<g id="Node000003" class="node">
<title>Node3</title>
<g id="a_Node000003"><a xlink:href="class_info_grab_1_1_s_q_lite_handler.html#a2c6ff6fde0c04236c90848265eec1492" target="_top" xlink:title="Reads the master table from the specified offset.">
<polygon fill="white" stroke="#666666" points="334.25,-80.88 188.5,-80.88 188.5,-50.38 334.25,-50.38 334.25,-80.88"/>
<text text-anchor="start" x="196.5" y="-67.38" font-family="Helvetica,sans-Serif" font-size="10.00">InfoGrab.SQLiteHandler.Read</text>
<text text-anchor="middle" x="261.38" y="-56.12" font-family="Helvetica,sans-Serif" font-size="10.00">MasterTable</text>
</a>
</g>
</g>
<!-- Node1&#45;&gt;Node3 -->
<g id="edge2_Node000001_Node000003" class="edge">
<title>Node1&#45;&gt;Node3</title>
<g id="a_edge2_Node000001_Node000003"><a xlink:title=" ">
<path fill="none" stroke="#63b8ff" d="M152.79,-83.25C160.76,-81.94 168.9,-80.61 176.95,-79.29"/>
<polygon fill="#63b8ff" stroke="#63b8ff" points="177.45,-82.76 186.75,-77.69 176.32,-75.85 177.45,-82.76"/>
</a>
</g>
</g>
<!-- Node3&#45;&gt;Node2 -->
<g id="edge3_Node000003_Node000002" class="edge">
<title>Node3&#45;&gt;Node2</title>
<g id="a_edge3_Node000003_Node000002"><a xlink:title=" ">
<path fill="none" stroke="#63b8ff" d="M307.15,-81.32C326.51,-88.02 349.45,-95.84 370.25,-102.62 375.26,-104.26 380.46,-105.93 385.69,-107.59"/>
<polygon fill="#63b8ff" stroke="#63b8ff" points="384.37,-110.84 394.96,-110.51 386.48,-104.17 384.37,-110.84"/>
</a>
</g>
</g>
<!-- Node3&#45;&gt;Node3 -->
<g id="edge7_Node000003_Node000003" class="edge">
<title>Node3&#45;&gt;Node3</title>
<g id="a_edge7_Node000003_Node000003"><a xlink:title=" ">
<path fill="none" stroke="#63b8ff" d="M228.57,-81.36C221.88,-90.43 232.81,-98.88 261.38,-98.88 277,-98.88 287.34,-96.35 292.42,-92.58"/>
<polygon fill="#63b8ff" stroke="#63b8ff" points="295.85,-93.28 293.94,-82.86 288.94,-92.19 295.85,-93.28"/>
</a>
</g>
</g>
<!-- Node4 -->
<g id="Node000004" class="node">
<title>Node4</title>
<g id="a_Node000004"><a xlink:href="class_info_grab_1_1_s_q_lite_handler.html#a633e4f2a42497bab44077194ca88656f" target="_top" xlink:title="Converts a range of bytes to a long integer and returns the result.">
<polygon fill="white" stroke="#666666" points="519.75,-93.25 377.75,-93.25 377.75,-74 519.75,-74 519.75,-93.25"/>
<text text-anchor="middle" x="448.75" y="-79.75" font-family="Helvetica,sans-Serif" font-size="10.00">InfoGrab.SQLiteHandler.CVL</text>
</a>
</g>
</g>
<!-- Node3&#45;&gt;Node4 -->
<g id="edge4_Node000003_Node000004" class="edge">
<title>Node3&#45;&gt;Node4</title>
<g id="a_edge4_Node000003_Node000004"><a xlink:title=" ">
<path fill="none" stroke="#63b8ff" d="M334.58,-72.64C344.88,-73.64 355.54,-74.67 366.01,-75.69"/>
<polygon fill="#63b8ff" stroke="#63b8ff" points="365.47,-79.15 375.76,-76.63 366.15,-72.18 365.47,-79.15"/>
</a>
</g>
</g>
<!-- Node5 -->
<g id="Node000005" class="node">
<title>Node5</title>
<g id="a_Node000005"><a xlink:href="class_info_grab_1_1_s_q_lite_handler.html#afea6448b1f2f481398b3d8f911049112" target="_top" xlink:title="Returns the index of the first non&#45;128 byte in the array starting from the specified index.">
<polygon fill="white" stroke="#666666" points="519.75,-56.25 377.75,-56.25 377.75,-37 519.75,-37 519.75,-56.25"/>
<text text-anchor="middle" x="448.75" y="-42.75" font-family="Helvetica,sans-Serif" font-size="10.00">InfoGrab.SQLiteHandler.GVL</text>
</a>
</g>
</g>
<!-- Node3&#45;&gt;Node5 -->
<g id="edge5_Node000003_Node000005" class="edge">
<title>Node3&#45;&gt;Node5</title>
<g id="a_edge5_Node000003_Node000005"><a xlink:title=" ">
<path fill="none" stroke="#63b8ff" d="M334.58,-58.22C344.88,-57.17 355.54,-56.08 366.01,-55"/>
<polygon fill="#63b8ff" stroke="#63b8ff" points="366.17,-58.5 375.76,-54 365.46,-51.54 366.17,-58.5"/>
</a>
</g>
</g>
<!-- Node6 -->
<g id="Node000006" class="node">
<title>Node6</title>
<g id="a_Node000006"><a xlink:href="class_info_grab_1_1_s_q_lite_handler.html#a475267e2c0435ef96e6342edd1492fa6" target="_top" xlink:title="Determines if the given value is odd.">
<polygon fill="white" stroke="#666666" points="523.12,-19.25 374.38,-19.25 374.38,0 523.12,0 523.12,-19.25"/>
<text text-anchor="middle" x="448.75" y="-5.75" font-family="Helvetica,sans-Serif" font-size="10.00">InfoGrab.SQLiteHandler.IsOdd</text>
</a>
</g>
</g>
<!-- Node3&#45;&gt;Node6 -->
<g id="edge6_Node000003_Node000006" class="edge">
<title>Node3&#45;&gt;Node6</title>
<g id="a_edge6_Node000003_Node000006"><a xlink:title=" ">
<path fill="none" stroke="#63b8ff" d="M303.52,-49.93C323.5,-42.62 347.95,-34.12 370.25,-27.62 376.45,-25.82 382.97,-24.07 389.49,-22.42"/>
<polygon fill="#63b8ff" stroke="#63b8ff" points="390.05,-25.89 398.93,-20.11 388.39,-19.09 390.05,-25.89"/>
</a>
</g>
</g>
</g>
</svg>
