<?xml version="1.0" encoding="UTF-8" standalone="no"?>
<!DOCTYPE svg PUBLIC "-//W3C//DTD SVG 1.1//EN"
 "http://www.w3.org/Graphics/SVG/1.1/DTD/svg11.dtd">
<!-- Generated by graphviz version 10.0.1 (20240210.2158)
 -->
<!-- Title: xeno_rat_server.Forms.ProcessManager.PopulateTreeView Pages: 1 -->
<svg width="735pt" height="57pt"
 viewBox="0.00 0.00 735.00 56.50" xmlns="http://www.w3.org/2000/svg" xmlns:xlink="http://www.w3.org/1999/xlink">
<g id="graph0" class="graph" transform="scale(1 1) rotate(0) translate(4 52.5)">
<title>xeno_rat_server.Forms.ProcessManager.PopulateTreeView</title>
<!-- Node1 -->
<g id="Node000001" class="node">
<title>Node1</title>
<g id="a_Node000001"><a xlink:title="Populates the tree view with the process node and its children.">
<polygon fill="#999999" stroke="#666666" points="727,-30.5 572.25,-30.5 572.25,0 727,0 727,-30.5"/>
<text text-anchor="start" x="580.25" y="-17" font-family="Helvetica,sans-Serif" font-size="10.00">xeno_rat_server.Forms.Process</text>
<text text-anchor="middle" x="649.62" y="-5.75" font-family="Helvetica,sans-Serif" font-size="10.00">Manager.PopulateTreeView</text>
</a>
</g>
</g>
<!-- Node1&#45;&gt;Node1 -->
<g id="edge4_Node000001_Node000001" class="edge">
<title>Node1&#45;&gt;Node1</title>
<g id="a_edge4_Node000001_Node000001"><a xlink:title=" ">
<path fill="none" stroke="#63b8ff" d="M681.61,-42.2C676.38,-45.97 665.72,-48.5 649.62,-48.5 620.19,-48.5 608.93,-40.06 615.82,-30.99"/>
<polygon fill="#63b8ff" stroke="#63b8ff" points="685.05,-42.91 683.18,-32.48 678.13,-41.79 685.05,-42.91"/>
</a>
</g>
</g>
<!-- Node2 -->
<g id="Node000002" class="node">
<title>Node2</title>
<g id="a_Node000002"><a xlink:href="classxeno__rat__server_1_1_forms_1_1_process_manager.html#ac3a673176bac824283611e0dada335ef" target="_top" xlink:title="Displays the process tree in a tree view control.">
<polygon fill="white" stroke="#666666" points="536.25,-30.5 381.5,-30.5 381.5,0 536.25,0 536.25,-30.5"/>
<text text-anchor="start" x="389.5" y="-17" font-family="Helvetica,sans-Serif" font-size="10.00">xeno_rat_server.Forms.Process</text>
<text text-anchor="middle" x="458.88" y="-5.75" font-family="Helvetica,sans-Serif" font-size="10.00">Manager.DisplayProcessTree</text>
</a>
</g>
</g>
<!-- Node1&#45;&gt;Node2 -->
<g id="edge1_Node000001_Node000002" class="edge">
<title>Node1&#45;&gt;Node2</title>
<g id="a_edge1_Node000001_Node000002"><a xlink:title=" ">
<path fill="none" stroke="#63b8ff" d="M560.58,-15.25C552.57,-15.25 544.49,-15.25 536.58,-15.25"/>
<polygon fill="#63b8ff" stroke="#63b8ff" points="560.34,-18.75 570.34,-15.25 560.34,-11.75 560.34,-18.75"/>
</a>
</g>
</g>
<!-- Node3 -->
<g id="Node000003" class="node">
<title>Node3</title>
<g id="a_Node000003"><a xlink:href="classxeno__rat__server_1_1_forms_1_1_process_manager.html#a9017439d866e89a4f8083fe6ef1c6ef7" target="_top" xlink:title="Asynchronously receives data from the client and processes it.">
<polygon fill="white" stroke="#666666" points="345.5,-30.5 190.75,-30.5 190.75,0 345.5,0 345.5,-30.5"/>
<text text-anchor="start" x="198.75" y="-17" font-family="Helvetica,sans-Serif" font-size="10.00">xeno_rat_server.Forms.Process</text>
<text text-anchor="middle" x="268.12" y="-5.75" font-family="Helvetica,sans-Serif" font-size="10.00">Manager.RecvThread</text>
</a>
</g>
</g>
<!-- Node2&#45;&gt;Node3 -->
<g id="edge2_Node000002_Node000003" class="edge">
<title>Node2&#45;&gt;Node3</title>
<g id="a_edge2_Node000002_Node000003"><a xlink:title=" ">
<path fill="none" stroke="#63b8ff" d="M369.83,-15.25C361.82,-15.25 353.74,-15.25 345.83,-15.25"/>
<polygon fill="#63b8ff" stroke="#63b8ff" points="369.59,-18.75 379.59,-15.25 369.59,-11.75 369.59,-18.75"/>
</a>
</g>
</g>
<!-- Node4 -->
<g id="Node000004" class="node">
<title>Node4</title>
<g id="a_Node000004"><a xlink:href="classxeno__rat__server_1_1_forms_1_1_process_manager.html#aac713480b9c0f02e8045e2171d8b61ca" target="_top" xlink:title=" ">
<polygon fill="white" stroke="#666666" points="154.75,-30.5 0,-30.5 0,0 154.75,0 154.75,-30.5"/>
<text text-anchor="start" x="8" y="-17" font-family="Helvetica,sans-Serif" font-size="10.00">xeno_rat_server.Forms.Process</text>
<text text-anchor="middle" x="77.38" y="-5.75" font-family="Helvetica,sans-Serif" font-size="10.00">Manager.ProcessManager</text>
</a>
</g>
</g>
<!-- Node3&#45;&gt;Node4 -->
<g id="edge3_Node000003_Node000004" class="edge">
<title>Node3&#45;&gt;Node4</title>
<g id="a_edge3_Node000003_Node000004"><a xlink:title=" ">
<path fill="none" stroke="#63b8ff" d="M179.08,-15.25C171.07,-15.25 162.99,-15.25 155.08,-15.25"/>
<polygon fill="#63b8ff" stroke="#63b8ff" points="178.84,-18.75 188.84,-15.25 178.84,-11.75 178.84,-18.75"/>
</a>
</g>
</g>
</g>
</svg>
