<?xml version="1.0" encoding="UTF-8" standalone="no"?>
<!DOCTYPE svg PUBLIC "-//W3C//DTD SVG 1.1//EN"
 "http://www.w3.org/Graphics/SVG/1.1/DTD/svg11.dtd">
<!-- Generated by graphviz version 10.0.1 (20240210.2158)
 -->
<!-- Title: NAudio.Wave.WaveFileWriter.~WaveFileWriter Pages: 1 -->
<svg width="888pt" height="137pt"
 viewBox="0.00 0.00 888.25 136.50" xmlns="http://www.w3.org/2000/svg" xmlns:xlink="http://www.w3.org/1999/xlink">
<g id="graph0" class="graph" transform="scale(1 1) rotate(0) translate(4 132.5)">
<title>NAudio.Wave.WaveFileWriter.~WaveFileWriter</title>
<!-- Node1 -->
<g id="Node000001" class="node">
<title>Node1</title>
<g id="a_Node000001"><a xlink:title="Finaliser &#45; should only be called if the user forgot to close this WaveFileWriter.">
<polygon fill="#999999" stroke="#666666" points="147.25,-79.5 0,-79.5 0,-49 147.25,-49 147.25,-79.5"/>
<text text-anchor="start" x="8" y="-66" font-family="Helvetica,sans-Serif" font-size="10.00">NAudio.Wave.WaveFileWriter.</text>
<text text-anchor="middle" x="73.62" y="-54.75" font-family="Helvetica,sans-Serif" font-size="10.00">~WaveFileWriter</text>
</a>
</g>
</g>
<!-- Node2 -->
<g id="Node000002" class="node">
<title>Node2</title>
<g id="a_Node000002"><a xlink:href="class_n_audio_1_1_wave_1_1_wave_file_writer.html#aea4aae5af23f69630e9a4028555462b6" target="_top" xlink:title="Releases the unmanaged resources used by the ClassName and optionally releases the managed resources.">
<polygon fill="white" stroke="#666666" points="330.5,-79.5 183.25,-79.5 183.25,-49 330.5,-49 330.5,-79.5"/>
<text text-anchor="start" x="191.25" y="-66" font-family="Helvetica,sans-Serif" font-size="10.00">NAudio.Wave.WaveFileWriter.</text>
<text text-anchor="middle" x="256.88" y="-54.75" font-family="Helvetica,sans-Serif" font-size="10.00">Dispose</text>
</a>
</g>
</g>
<!-- Node1&#45;&gt;Node2 -->
<g id="edge1_Node000001_Node000002" class="edge">
<title>Node1&#45;&gt;Node2</title>
<g id="a_edge1_Node000001_Node000002"><a xlink:title=" ">
<path fill="none" stroke="#63b8ff" d="M147.56,-64.25C155.45,-64.25 163.53,-64.25 171.54,-64.25"/>
<polygon fill="#63b8ff" stroke="#63b8ff" points="171.28,-67.75 181.28,-64.25 171.28,-60.75 171.28,-67.75"/>
</a>
</g>
</g>
<!-- Node3 -->
<g id="Node000003" class="node">
<title>Node3</title>
<g id="a_Node000003"><a xlink:href="class_n_audio_1_1_wave_1_1_wave_file_writer.html#ab50c1f10814b936065f8d7f5d3584fa2" target="_top" xlink:title="Updates the header of the audio file by flushing the writer and updating the RIFF,...">
<polygon fill="white" stroke="#666666" points="513.75,-79.5 366.5,-79.5 366.5,-49 513.75,-49 513.75,-79.5"/>
<text text-anchor="start" x="374.5" y="-66" font-family="Helvetica,sans-Serif" font-size="10.00">NAudio.Wave.WaveFileWriter.</text>
<text text-anchor="middle" x="440.12" y="-54.75" font-family="Helvetica,sans-Serif" font-size="10.00">UpdateHeader</text>
</a>
</g>
</g>
<!-- Node2&#45;&gt;Node3 -->
<g id="edge2_Node000002_Node000003" class="edge">
<title>Node2&#45;&gt;Node3</title>
<g id="a_edge2_Node000002_Node000003"><a xlink:title=" ">
<path fill="none" stroke="#63b8ff" d="M330.81,-64.25C338.7,-64.25 346.78,-64.25 354.79,-64.25"/>
<polygon fill="#63b8ff" stroke="#63b8ff" points="354.53,-67.75 364.53,-64.25 354.53,-60.75 354.53,-67.75"/>
</a>
</g>
</g>
<!-- Node4 -->
<g id="Node000004" class="node">
<title>Node4</title>
<g id="a_Node000004"><a xlink:href="class_n_audio_1_1_wave_1_1_wave_file_writer.html#ae2171b19388f0cac6b6d6fc9db3b1a6b" target="_top" xlink:title="Updates the data chunk size in the binary writer at the specified position.">
<polygon fill="white" stroke="#666666" points="697,-128.5 549.75,-128.5 549.75,-98 697,-98 697,-128.5"/>
<text text-anchor="start" x="557.75" y="-115" font-family="Helvetica,sans-Serif" font-size="10.00">NAudio.Wave.WaveFileWriter.</text>
<text text-anchor="middle" x="623.38" y="-103.75" font-family="Helvetica,sans-Serif" font-size="10.00">UpdateDataChunk</text>
</a>
</g>
</g>
<!-- Node3&#45;&gt;Node4 -->
<g id="edge3_Node000003_Node000004" class="edge">
<title>Node3&#45;&gt;Node4</title>
<g id="a_edge3_Node000003_Node000004"><a xlink:title=" ">
<path fill="none" stroke="#63b8ff" d="M498.97,-79.89C516.22,-84.55 535.29,-89.71 553.18,-94.54"/>
<polygon fill="#63b8ff" stroke="#63b8ff" points="552.12,-97.88 562.68,-97.11 553.94,-91.12 552.12,-97.88"/>
</a>
</g>
</g>
<!-- Node5 -->
<g id="Node000005" class="node">
<title>Node5</title>
<g id="a_Node000005"><a xlink:href="class_n_audio_1_1_wave_1_1_wave_file_writer.html#ad95029cf35ce3067e0443e3442d88971" target="_top" xlink:title="Updates the &#39;fact&#39; chunk in the WAV file with the sample count information.">
<polygon fill="white" stroke="#666666" points="697,-79.5 549.75,-79.5 549.75,-49 697,-49 697,-79.5"/>
<text text-anchor="start" x="557.75" y="-66" font-family="Helvetica,sans-Serif" font-size="10.00">NAudio.Wave.WaveFileWriter.</text>
<text text-anchor="middle" x="623.38" y="-54.75" font-family="Helvetica,sans-Serif" font-size="10.00">UpdateFactChunk</text>
</a>
</g>
</g>
<!-- Node3&#45;&gt;Node5 -->
<g id="edge4_Node000003_Node000005" class="edge">
<title>Node3&#45;&gt;Node5</title>
<g id="a_edge4_Node000003_Node000005"><a xlink:title=" ">
<path fill="none" stroke="#63b8ff" d="M514.06,-64.25C521.95,-64.25 530.03,-64.25 538.04,-64.25"/>
<polygon fill="#63b8ff" stroke="#63b8ff" points="537.78,-67.75 547.78,-64.25 537.78,-60.75 537.78,-67.75"/>
</a>
</g>
</g>
<!-- Node7 -->
<g id="Node000007" class="node">
<title>Node7</title>
<g id="a_Node000007"><a xlink:href="class_n_audio_1_1_wave_1_1_wave_file_writer.html#aaadca2c6d420c19cf9c5642a7c2a6cda" target="_top" xlink:title="Updates the RIFF chunk in the output stream with the correct size.">
<polygon fill="white" stroke="#666666" points="697,-30.5 549.75,-30.5 549.75,0 697,0 697,-30.5"/>
<text text-anchor="start" x="557.75" y="-17" font-family="Helvetica,sans-Serif" font-size="10.00">NAudio.Wave.WaveFileWriter.</text>
<text text-anchor="middle" x="623.38" y="-5.75" font-family="Helvetica,sans-Serif" font-size="10.00">UpdateRiffChunk</text>
</a>
</g>
</g>
<!-- Node3&#45;&gt;Node7 -->
<g id="edge6_Node000003_Node000007" class="edge">
<title>Node3&#45;&gt;Node7</title>
<g id="a_edge6_Node000003_Node000007"><a xlink:title=" ">
<path fill="none" stroke="#63b8ff" d="M498.97,-48.61C516.22,-43.95 535.29,-38.79 553.18,-33.96"/>
<polygon fill="#63b8ff" stroke="#63b8ff" points="553.94,-37.38 562.68,-31.39 552.12,-30.62 553.94,-37.38"/>
</a>
</g>
</g>
<!-- Node6 -->
<g id="Node000006" class="node">
<title>Node6</title>
<g id="a_Node000006"><a xlink:href="class_n_audio_1_1_wave_1_1_wave_file_writer.html#a0047565b461416dc21ee46699518a98d" target="_top" xlink:title="Checks if the wave format has a fact chunk.">
<polygon fill="white" stroke="#666666" points="880.25,-79.5 733,-79.5 733,-49 880.25,-49 880.25,-79.5"/>
<text text-anchor="start" x="741" y="-66" font-family="Helvetica,sans-Serif" font-size="10.00">NAudio.Wave.WaveFileWriter.</text>
<text text-anchor="middle" x="806.62" y="-54.75" font-family="Helvetica,sans-Serif" font-size="10.00">HasFactChunk</text>
</a>
</g>
</g>
<!-- Node5&#45;&gt;Node6 -->
<g id="edge5_Node000005_Node000006" class="edge">
<title>Node5&#45;&gt;Node6</title>
<g id="a_edge5_Node000005_Node000006"><a xlink:title=" ">
<path fill="none" stroke="#63b8ff" d="M697.31,-64.25C705.2,-64.25 713.28,-64.25 721.29,-64.25"/>
<polygon fill="#63b8ff" stroke="#63b8ff" points="721.03,-67.75 731.03,-64.25 721.03,-60.75 721.03,-67.75"/>
</a>
</g>
</g>
</g>
</svg>
