<?xml version="1.0" encoding="UTF-8" standalone="no"?>
<!DOCTYPE svg PUBLIC "-//W3C//DTD SVG 1.1//EN"
 "http://www.w3.org/Graphics/SVG/1.1/DTD/svg11.dtd">
<!-- Generated by graphviz version 10.0.1 (20240210.2158)
 -->
<!-- Title: xeno_rat_server.Forms.CustomPictureBox.TriggerWndProc Pages: 1 -->
<!--zoomable 437 -->

<svg id="main" version="1.1" xmlns="http://www.w3.org/2000/svg" xmlns:xlink="http://www.w3.org/1999/xlink" xml:space="preserve" onload="init(evt)">
<style type="text/css"><![CDATA[
.node, .edge {opacity: 0.7;}
.node.selected, .edge.selected {opacity: 1;}
.edge:hover path { stroke: red; }
.edge:hover polygon { stroke: red; fill: red; }
]]></style>

<defs>
  <circle id="rim" cx="0" cy="0" r="7"/>
  <circle id="rim2" cx="0" cy="0" r="3.5"/>
  <g id="zoomPlus">
    <use xlink:href="#rim" fill="#404040"><set attributeName="fill" to="#808080" begin="zoomplus.mouseover" end="zoomplus.mouseout"/></use>
    <path d="M-4,0h8M0,-4v8" fill="none" stroke="white" stroke-width="1.5" pointer-events="none"/>
  </g>
  <g id="zoomMin">
    <use xlink:href="#rim" fill="#404040"><set attributeName="fill" to="#808080" begin="zoomminus.mouseover" end="zoomminus.mouseout"/></use>
    <path d="M-4,0h8" fill="none" stroke="white" stroke-width="1.5" pointer-events="none"/>
  </g>
  <g id="arrowUp" transform="translate(30 24)">
    <use xlink:href="#rim"/>
    <path pointer-events="none" fill="none" stroke="white" stroke-width="1.5" d="M0,-3.0v7 M-2.5,-0.5L0,-3.0L2.5,-0.5"/>
  </g>
  <g id="arrowRight" transform="rotate(90) translate(36 -43)">
    <use xlink:href="#rim"/>
    <path pointer-events="none" fill="none" stroke="white" stroke-width="1.5" d="M0,-3.0v7 M-2.5,-0.5L0,-3.0L2.5,-0.5"/>
  </g>
  <g id="arrowDown" transform="rotate(180) translate(-30 -48)">
    <use xlink:href="#rim"/>
    <path pointer-events="none" fill="none" stroke="white" stroke-width="1.5" d="M0,-3.0v7 M-2.5,-0.5L0,-3.0L2.5,-0.5"/>
  </g>
  <g id="arrowLeft" transform="rotate(270) translate(-36 17)">
    <use xlink:href="#rim"/>
    <path pointer-events="none" fill="none" stroke="white" stroke-width="1.5" d="M0,-3.0v7 M-2.5,-0.5L0,-3.0L2.5,-0.5"/>
  </g>
  <g id="resetDef">
    <use xlink:href="#rim2" fill="#404040"><set attributeName="fill" to="#808080" begin="reset.mouseover" end="reset.mouseout"/></use>
  </g>
</defs>
<script type="application/ecmascript">
var viewWidth = 1183;
var viewHeight = 437;
var sectionId = 'dynsection-15';
</script>
<script type="application/ecmascript" xlink:href="svg.min.js"/>
<svg id="graph" class="graph">
<g id="viewport">
<title>xeno_rat_server.Forms.CustomPictureBox.TriggerWndProc</title>
<!-- Node1 -->
<g id="Node000001" class="node">
<title>Node1</title>
<g id="a_Node000001"><a xlink:title="Triggers the window procedure for processing Windows messages.">
<polygon fill="#999999" stroke="#666666" points="153.25,-192.5 0,-192.5 0,-162 153.25,-162 153.25,-192.5"/>
<text text-anchor="start" x="8" y="-179" font-family="Helvetica,sans-Serif" font-size="10.00">xeno_rat_server.Forms.Custom</text>
<text text-anchor="middle" x="76.62" y="-167.75" font-family="Helvetica,sans-Serif" font-size="10.00">PictureBox.TriggerWndProc</text>
</a>
</g>
</g>
<!-- Node2 -->
<g id="Node000002" class="node">
<title>Node2</title>
<g id="a_Node000002"><a xlink:href="classxeno__rat__server_1_1_forms_1_1_custom_picture_box.html#ab76cecaae3d3e1b0201bbc9dac019e64" target="_top" xlink:title="Overrides the WndProc method to handle window messages and sends corresponding data to the client.">
<polygon fill="white" stroke="#666666" points="342.5,-192.5 189.25,-192.5 189.25,-162 342.5,-162 342.5,-192.5"/>
<text text-anchor="start" x="197.25" y="-179" font-family="Helvetica,sans-Serif" font-size="10.00">xeno_rat_server.Forms.Custom</text>
<text text-anchor="middle" x="265.88" y="-167.75" font-family="Helvetica,sans-Serif" font-size="10.00">PictureBox.WndProc</text>
</a>
</g>
</g>
<!-- Node1&#45;&gt;Node2 -->
<g id="edge1_Node000001_Node000002" class="edge">
<title>Node1&#45;&gt;Node2</title>
<g id="a_edge1_Node000001_Node000002"><a xlink:title=" ">
<path fill="none" stroke="#63b8ff" d="M153.52,-177.25C161.44,-177.25 169.54,-177.25 177.58,-177.25"/>
<polygon fill="#63b8ff" stroke="#63b8ff" points="177.36,-180.75 187.36,-177.25 177.36,-173.75 177.36,-180.75"/>
</a>
</g>
</g>
<!-- Node3 -->
<g id="Node000003" class="node">
<title>Node3</title>
<g id="a_Node000003"><a xlink:href="classxeno__rat__server_1_1_socket_handler.html#a4f2e993b63cf1bba877781c9be2ed496" target="_top" xlink:title="Concatenates two byte arrays and returns the result.">
<polygon fill="white" stroke="#666666" points="951.12,-404.5 796.38,-404.5 796.38,-374 951.12,-374 951.12,-404.5"/>
<text text-anchor="start" x="804.38" y="-391" font-family="Helvetica,sans-Serif" font-size="10.00">xeno_rat_server.SocketHandler.</text>
<text text-anchor="middle" x="873.75" y="-379.75" font-family="Helvetica,sans-Serif" font-size="10.00">Concat</text>
</a>
</g>
</g>
<!-- Node2&#45;&gt;Node3 -->
<g id="edge2_Node000002_Node000003" class="edge">
<title>Node2&#45;&gt;Node3</title>
<g id="a_edge2_Node000002_Node000003"><a xlink:title=" ">
<path fill="none" stroke="#63b8ff" d="M275.76,-192.88C292.31,-220.58 330.6,-278.31 378.5,-309.25 502.66,-389.46 679.96,-398.41 785.01,-395.38"/>
<polygon fill="#63b8ff" stroke="#63b8ff" points="784.81,-398.88 794.69,-395.05 784.58,-391.89 784.81,-398.88"/>
</a>
</g>
</g>
<!-- Node4 -->
<g id="Node000004" class="node">
<title>Node4</title>
<g id="a_Node000004"><a xlink:href="classxeno__rat__server_1_1_forms_1_1_custom_picture_box.html#a6fd202b56bb2a04df9637483ef1b2f9c" target="_top" xlink:title="Retrieves the status of the specified virtual key. The status specifies whether the key is up,...">
<polygon fill="white" stroke="#666666" points="535.12,-214.5 381.88,-214.5 381.88,-184 535.12,-184 535.12,-214.5"/>
<text text-anchor="start" x="389.88" y="-201" font-family="Helvetica,sans-Serif" font-size="10.00">xeno_rat_server.Forms.Custom</text>
<text text-anchor="middle" x="458.5" y="-189.75" font-family="Helvetica,sans-Serif" font-size="10.00">PictureBox.GetKeyState</text>
</a>
</g>
</g>
<!-- Node2&#45;&gt;Node4 -->
<g id="edge3_Node000002_Node000004" class="edge">
<title>Node2&#45;&gt;Node4</title>
<g id="a_edge3_Node000002_Node000004"><a xlink:title=" ">
<path fill="none" stroke="#63b8ff" d="M342.76,-186.01C351.84,-187.06 361.17,-188.13 370.39,-189.2"/>
<polygon fill="#63b8ff" stroke="#63b8ff" points="369.72,-192.64 380.06,-190.31 370.53,-185.69 369.72,-192.64"/>
</a>
</g>
</g>
<!-- Node5 -->
<g id="Node000005" class="node">
<title>Node5</title>
<g id="a_Node000005"><a xlink:href="classxeno__rat__server_1_1_forms_1_1_custom_picture_box.html#a42d8fa8741cbda40c8784fc9ce8b2db7" target="_top" xlink:title="Gets the modified key corresponding to the input character.">
<polygon fill="white" stroke="#666666" points="535.12,-128.5 381.88,-128.5 381.88,-98 535.12,-98 535.12,-128.5"/>
<text text-anchor="start" x="389.88" y="-115" font-family="Helvetica,sans-Serif" font-size="10.00">xeno_rat_server.Forms.Custom</text>
<text text-anchor="middle" x="458.5" y="-103.75" font-family="Helvetica,sans-Serif" font-size="10.00">PictureBox.GetModifiedKey</text>
</a>
</g>
</g>
<!-- Node2&#45;&gt;Node5 -->
<g id="edge4_Node000002_Node000005" class="edge">
<title>Node2&#45;&gt;Node5</title>
<g id="a_edge4_Node000002_Node000005"><a xlink:title=" ">
<path fill="none" stroke="#63b8ff" d="M313.51,-161.59C339.59,-152.84 372.31,-141.85 399.97,-132.57"/>
<polygon fill="#63b8ff" stroke="#63b8ff" points="400.89,-135.95 409.25,-129.45 398.66,-129.31 400.89,-135.95"/>
</a>
</g>
</g>
<!-- Node6 -->
<g id="Node000006" class="node">
<title>Node6</title>
<g id="a_Node000006"><a xlink:href="classxeno__rat__server_1_1_forms_1_1_custom_picture_box.html#a7ef096a40399d0a57be5ccf36b2d469e" target="_top" xlink:title="Translates the specified virtual&#45;key code and keyboard state to the corresponding character or charac...">
<polygon fill="white" stroke="#666666" points="736,-171.5 582.75,-171.5 582.75,-141 736,-141 736,-171.5"/>
<text text-anchor="start" x="590.75" y="-158" font-family="Helvetica,sans-Serif" font-size="10.00">xeno_rat_server.Forms.Custom</text>
<text text-anchor="middle" x="659.38" y="-146.75" font-family="Helvetica,sans-Serif" font-size="10.00">PictureBox.ToAscii</text>
</a>
</g>
</g>
<!-- Node2&#45;&gt;Node6 -->
<g id="edge21_Node000002_Node000006" class="edge">
<title>Node2&#45;&gt;Node6</title>
<g id="a_edge21_Node000002_Node000006"><a xlink:title=" ">
<path fill="none" stroke="#63b8ff" d="M342.82,-173.18C408.23,-169.67 502.62,-164.6 571.11,-160.93"/>
<polygon fill="#63b8ff" stroke="#63b8ff" points="570.99,-164.44 580.79,-160.41 570.62,-157.45 570.99,-164.44"/>
</a>
</g>
</g>
<!-- Node8 -->
<g id="Node000008" class="node">
<title>Node8</title>
<g id="a_Node000008"><a xlink:href="classxeno__rat__server_1_1_socket_handler.html#a7d019c5e4cbd0138d155156c7a7c5a8f" target="_top" xlink:title="Converts an integer to a byte array.">
<polygon fill="white" stroke="#666666" points="951.12,-257.5 796.38,-257.5 796.38,-227 951.12,-227 951.12,-257.5"/>
<text text-anchor="start" x="804.38" y="-244" font-family="Helvetica,sans-Serif" font-size="10.00">xeno_rat_server.SocketHandler.</text>
<text text-anchor="middle" x="873.75" y="-232.75" font-family="Helvetica,sans-Serif" font-size="10.00">IntToBytes</text>
</a>
</g>
</g>
<!-- Node2&#45;&gt;Node8 -->
<g id="edge7_Node000002_Node000008" class="edge">
<title>Node2&#45;&gt;Node8</title>
<g id="a_edge7_Node000002_Node000008"><a xlink:title=" ">
<path fill="none" stroke="#63b8ff" d="M296.73,-192.95C318.69,-203.64 349.62,-216.95 378.5,-223.25 518.06,-253.68 684.93,-252.58 784.69,-248.09"/>
<polygon fill="#63b8ff" stroke="#63b8ff" points="784.59,-251.6 794.41,-247.63 784.26,-244.6 784.59,-251.6"/>
</a>
</g>
</g>
<!-- Node9 -->
<g id="Node000009" class="node">
<title>Node9</title>
<g id="a_Node000009"><a xlink:href="classxeno__rat__server_1_1_forms_1_1_custom_picture_box.html#abf78a3c35658cf3e755285c3d59ddd59" target="_top" xlink:title="Checks if the input character is alphanumeric.">
<polygon fill="white" stroke="#666666" points="535.12,-79.5 381.88,-79.5 381.88,-49 535.12,-49 535.12,-79.5"/>
<text text-anchor="start" x="389.88" y="-66" font-family="Helvetica,sans-Serif" font-size="10.00">xeno_rat_server.Forms.Custom</text>
<text text-anchor="middle" x="458.5" y="-54.75" font-family="Helvetica,sans-Serif" font-size="10.00">PictureBox.IsAlphaNumeric</text>
</a>
</g>
</g>
<!-- Node2&#45;&gt;Node9 -->
<g id="edge8_Node000002_Node000009" class="edge">
<title>Node2&#45;&gt;Node9</title>
<g id="a_edge8_Node000002_Node000009"><a xlink:title=" ">
<path fill="none" stroke="#63b8ff" d="M282.57,-161.8C303.06,-142.39 340.77,-109.23 378.5,-89.25 381.91,-87.44 385.47,-85.74 389.11,-84.14"/>
<polygon fill="#63b8ff" stroke="#63b8ff" points="390.2,-87.48 398.15,-80.47 387.56,-81 390.2,-87.48"/>
</a>
</g>
</g>
<!-- Node10 -->
<g id="Node000010" class="node">
<title>Node10</title>
<g id="a_Node000010"><a xlink:href="classxeno__rat__server_1_1_node.html#a816e267eb31862d38c21e5faaae3061d" target="_top" xlink:title="Sends the provided data asynchronously and returns a boolean indicating the success of the operation.">
<polygon fill="white" stroke="#666666" points="526.88,-300.5 390.12,-300.5 390.12,-270 526.88,-270 526.88,-300.5"/>
<text text-anchor="start" x="398.12" y="-287" font-family="Helvetica,sans-Serif" font-size="10.00">xeno_rat_server.Node.Send</text>
<text text-anchor="middle" x="458.5" y="-275.75" font-family="Helvetica,sans-Serif" font-size="10.00">Async</text>
</a>
</g>
</g>
<!-- Node2&#45;&gt;Node10 -->
<g id="edge9_Node000002_Node000010" class="edge">
<title>Node2&#45;&gt;Node10</title>
<g id="a_edge9_Node000002_Node000010"><a xlink:title=" ">
<path fill="none" stroke="#63b8ff" d="M285.63,-192.88C307.03,-210.14 343.61,-237.92 378.5,-256.25 384.7,-259.51 391.34,-262.56 398.05,-265.37"/>
<polygon fill="#63b8ff" stroke="#63b8ff" points="396.59,-268.56 407.18,-269.02 399.19,-262.06 396.59,-268.56"/>
</a>
</g>
</g>
<!-- Node19 -->
<g id="Node000019" class="node">
<title>Node19</title>
<g id="a_Node000019"><a xlink:href="classxeno__rat__server_1_1_forms_1_1_custom_picture_box.html#a9ba6bd36eae383838cebee58ef3e56ed" target="_top" xlink:title="Translates the coordinates from the original screen size to the target control&#39;s image size and retur...">
<polygon fill="white" stroke="#666666" points="538.5,-30.5 378.5,-30.5 378.5,0 538.5,0 538.5,-30.5"/>
<text text-anchor="start" x="386.5" y="-17" font-family="Helvetica,sans-Serif" font-size="10.00">xeno_rat_server.Forms.Custom</text>
<text text-anchor="middle" x="458.5" y="-5.75" font-family="Helvetica,sans-Serif" font-size="10.00">PictureBox.TranslateCoordinates</text>
</a>
</g>
</g>
<!-- Node2&#45;&gt;Node19 -->
<g id="edge22_Node000002_Node000019" class="edge">
<title>Node2&#45;&gt;Node19</title>
<g id="a_edge22_Node000002_Node000019"><a xlink:title=" ">
<path fill="none" stroke="#63b8ff" d="M275.44,-161.61C291.75,-133.24 330.03,-73.18 378.5,-40.25 380.71,-38.75 383.01,-37.33 385.39,-36"/>
<polygon fill="#63b8ff" stroke="#63b8ff" points="386.73,-39.24 394.12,-31.65 383.61,-32.98 386.73,-39.24"/>
</a>
</g>
</g>
<!-- Node5&#45;&gt;Node6 -->
<g id="edge5_Node000005_Node000006" class="edge">
<title>Node5&#45;&gt;Node6</title>
<g id="a_edge5_Node000005_Node000006"><a xlink:title=" ">
<path fill="none" stroke="#63b8ff" d="M532.14,-128.96C545.89,-131.93 560.37,-135.06 574.43,-138.1"/>
<polygon fill="#63b8ff" stroke="#63b8ff" points="573.6,-141.5 584.12,-140.19 575.08,-134.66 573.6,-141.5"/>
</a>
</g>
</g>
<!-- Node7 -->
<g id="Node000007" class="node">
<title>Node7</title>
<g id="a_Node000007"><a xlink:href="classxeno__rat__server_1_1_forms_1_1_custom_picture_box.html#ada0c260322500d4349f18549ab012077" target="_top" xlink:title="Translates a Unicode character to the corresponding virtual&#45;key code and shift state for the current ...">
<polygon fill="white" stroke="#666666" points="736,-122.5 582.75,-122.5 582.75,-92 736,-92 736,-122.5"/>
<text text-anchor="start" x="590.75" y="-109" font-family="Helvetica,sans-Serif" font-size="10.00">xeno_rat_server.Forms.Custom</text>
<text text-anchor="middle" x="659.38" y="-97.75" font-family="Helvetica,sans-Serif" font-size="10.00">PictureBox.VkKeyScan</text>
</a>
</g>
</g>
<!-- Node5&#45;&gt;Node7 -->
<g id="edge6_Node000005_Node000007" class="edge">
<title>Node5&#45;&gt;Node7</title>
<g id="a_edge6_Node000005_Node000007"><a xlink:title=" ">
<path fill="none" stroke="#63b8ff" d="M535.54,-110.96C547.17,-110.6 559.26,-110.24 571.11,-109.88"/>
<polygon fill="#63b8ff" stroke="#63b8ff" points="570.98,-113.39 580.87,-109.59 570.77,-106.39 570.98,-113.39"/>
</a>
</g>
</g>
<!-- Node11 -->
<g id="Node000011" class="node">
<title>Node11</title>
<g id="a_Node000011"><a xlink:href="classxeno__rat__server_1_1_node.html#a8814edd98b6463f49812be32d5928763" target="_top" xlink:title="Sets the isDisposed flag to true and disconnects the socket, disposes resources, and triggers the OnD...">
<polygon fill="white" stroke="#666666" points="741.25,-289.88 577.5,-289.88 577.5,-270.62 741.25,-270.62 741.25,-289.88"/>
<text text-anchor="middle" x="659.38" y="-276.38" font-family="Helvetica,sans-Serif" font-size="10.00">xeno_rat_server.Node.Disconnect</text>
</a>
</g>
</g>
<!-- Node10&#45;&gt;Node11 -->
<g id="edge10_Node000010_Node000011" class="edge">
<title>Node10&#45;&gt;Node11</title>
<g id="a_edge10_Node000010_Node000011"><a xlink:title=" ">
<path fill="none" stroke="#63b8ff" d="M527.11,-283.55C539.56,-283.24 552.76,-282.91 565.8,-282.58"/>
<polygon fill="#63b8ff" stroke="#63b8ff" points="565.78,-286.08 575.69,-282.33 565.6,-279.08 565.78,-286.08"/>
</a>
</g>
</g>
<!-- Node12 -->
<g id="Node000012" class="node">
<title>Node12</title>
<g id="a_Node000012"><a xlink:href="classxeno__rat__server_1_1_socket_handler.html#a85ca8385d023521cdb86ff8ae688adee" target="_top" xlink:title="Sends the provided data asynchronously over the socket.">
<polygon fill="white" stroke="#666666" points="736.75,-356.5 582,-356.5 582,-326 736.75,-326 736.75,-356.5"/>
<text text-anchor="start" x="590" y="-343" font-family="Helvetica,sans-Serif" font-size="10.00">xeno_rat_server.SocketHandler.</text>
<text text-anchor="middle" x="659.38" y="-331.75" font-family="Helvetica,sans-Serif" font-size="10.00">SendAsync</text>
</a>
</g>
</g>
<!-- Node10&#45;&gt;Node12 -->
<g id="edge12_Node000010_Node000012" class="edge">
<title>Node10&#45;&gt;Node12</title>
<g id="a_edge12_Node000010_Node000012"><a xlink:title=" ">
<path fill="none" stroke="#63b8ff" d="M515.43,-301C539.15,-307.68 566.98,-315.51 591.75,-322.49"/>
<polygon fill="#63b8ff" stroke="#63b8ff" points="590.49,-325.77 601.07,-325.11 592.39,-319.03 590.49,-325.77"/>
</a>
</g>
</g>
<!-- Node11&#45;&gt;Node11 -->
<g id="edge11_Node000011_Node000011" class="edge">
<title>Node11&#45;&gt;Node11</title>
<g id="a_edge11_Node000011_Node000011"><a xlink:title=" ">
<path fill="none" stroke="#63b8ff" d="M627.93,-290.16C613.58,-298.77 624.06,-307.88 659.38,-307.88 680.34,-307.88 692.55,-304.67 696.01,-300.26"/>
<polygon fill="#63b8ff" stroke="#63b8ff" points="699.2,-298.8 691.52,-291.51 692.98,-302 699.2,-298.8"/>
</a>
</g>
</g>
<!-- Node12&#45;&gt;Node3 -->
<g id="edge18_Node000012_Node000003" class="edge">
<title>Node12&#45;&gt;Node3</title>
<g id="a_edge18_Node000012_Node000003"><a xlink:title=" ">
<path fill="none" stroke="#63b8ff" d="M729.91,-356.97C749.91,-361.49 771.88,-366.45 792.47,-371.11"/>
<polygon fill="#63b8ff" stroke="#63b8ff" points="791.42,-374.46 801.94,-373.25 792.96,-367.63 791.42,-374.46"/>
</a>
</g>
</g>
<!-- Node12&#45;&gt;Node8 -->
<g id="edge20_Node000012_Node000008" class="edge">
<title>Node12&#45;&gt;Node8</title>
<g id="a_edge20_Node000012_Node000008"><a xlink:title=" ">
<path fill="none" stroke="#63b8ff" d="M729.43,-325.68C734.65,-323.27 739.67,-320.47 744.25,-317.25 766.65,-301.5 757.73,-282.83 780.25,-267.25 782.36,-265.79 784.56,-264.41 786.81,-263.12"/>
<polygon fill="#63b8ff" stroke="#63b8ff" points="788.37,-266.25 795.72,-258.62 785.21,-260 788.37,-266.25"/>
</a>
</g>
</g>
<!-- Node13 -->
<g id="Node000013" class="node">
<title>Node13</title>
<g id="a_Node000013"><a xlink:href="classxeno__rat__server_1_1_compression.html#a0f3f31a2fe34d92bf04538b2fdf529e0" target="_top" xlink:title="Compresses the input buffer using the LZNT1 compression format and returns the compressed data.">
<polygon fill="white" stroke="#666666" points="948.12,-355.5 799.38,-355.5 799.38,-325 948.12,-325 948.12,-355.5"/>
<text text-anchor="start" x="807.38" y="-342" font-family="Helvetica,sans-Serif" font-size="10.00">xeno_rat_server.Compression.</text>
<text text-anchor="middle" x="873.75" y="-330.75" font-family="Helvetica,sans-Serif" font-size="10.00">Compress</text>
</a>
</g>
</g>
<!-- Node12&#45;&gt;Node13 -->
<g id="edge13_Node000012_Node000013" class="edge">
<title>Node12&#45;&gt;Node13</title>
<g id="a_edge13_Node000012_Node000013"><a xlink:title=" ">
<path fill="none" stroke="#63b8ff" d="M737.05,-340.89C753.46,-340.81 770.89,-340.73 787.6,-340.65"/>
<polygon fill="#63b8ff" stroke="#63b8ff" points="787.53,-344.15 797.52,-340.6 787.5,-337.15 787.53,-344.15"/>
</a>
</g>
</g>
<!-- Node18 -->
<g id="Node000018" class="node">
<title>Node18</title>
<g id="a_Node000018"><a xlink:href="classxeno__rat__server_1_1_encryption.html#a0fafecaba804cb57663bdbb4dcc4e93f" target="_top" xlink:title="Encrypts the input data using the provided key and returns the encrypted result.">
<polygon fill="white" stroke="#666666" points="942.5,-306.5 805,-306.5 805,-276 942.5,-276 942.5,-306.5"/>
<text text-anchor="start" x="813" y="-293" font-family="Helvetica,sans-Serif" font-size="10.00">xeno_rat_server.Encryption.</text>
<text text-anchor="middle" x="873.75" y="-281.75" font-family="Helvetica,sans-Serif" font-size="10.00">Encrypt</text>
</a>
</g>
</g>
<!-- Node12&#45;&gt;Node18 -->
<g id="edge19_Node000012_Node000018" class="edge">
<title>Node12&#45;&gt;Node18</title>
<g id="a_edge19_Node000012_Node000018"><a xlink:title=" ">
<path fill="none" stroke="#63b8ff" d="M726.99,-325.57C748.53,-320.5 772.61,-314.83 794.89,-309.58"/>
<polygon fill="#63b8ff" stroke="#63b8ff" points="795.6,-313.01 804.53,-307.31 794,-306.2 795.6,-313.01"/>
</a>
</g>
</g>
<!-- Node14 -->
<g id="Node000014" class="node">
<title>Node14</title>
<g id="a_Node000014"><a xlink:href="classxeno__rat__server_1_1_compression.html#ae86c8cb19fb340173e6b06816907c485" target="_top" xlink:title="Allocates the specified number of bytes in the local heap and returns a pointer to the allocated memo...">
<polygon fill="white" stroke="#666666" points="1163.62,-428.5 1014.88,-428.5 1014.88,-398 1163.62,-398 1163.62,-428.5"/>
<text text-anchor="start" x="1022.88" y="-415" font-family="Helvetica,sans-Serif" font-size="10.00">xeno_rat_server.Compression.</text>
<text text-anchor="middle" x="1089.25" y="-403.75" font-family="Helvetica,sans-Serif" font-size="10.00">LocalAlloc</text>
</a>
</g>
</g>
<!-- Node13&#45;&gt;Node14 -->
<g id="edge14_Node000013_Node000014" class="edge">
<title>Node13&#45;&gt;Node14</title>
<g id="a_edge14_Node000013_Node000014"><a xlink:title=" ">
<path fill="none" stroke="#63b8ff" d="M942.28,-355.91C950.82,-358.64 959.34,-361.75 967.25,-365.25 984.62,-372.93 985.97,-380.38 1003.25,-388.25 1007.5,-390.19 1011.94,-392.01 1016.47,-393.73"/>
<polygon fill="#63b8ff" stroke="#63b8ff" points="1015.1,-396.96 1025.7,-397.04 1017.46,-390.37 1015.1,-396.96"/>
</a>
</g>
</g>
<!-- Node15 -->
<g id="Node000015" class="node">
<title>Node15</title>
<g id="a_Node000015"><a xlink:href="classxeno__rat__server_1_1_compression.html#ab527e0a594d96bbaa1a4b1541888aa74" target="_top" xlink:title="Frees the memory block allocated by LocalAlloc and LocalReAlloc and invalidates the handle.">
<polygon fill="white" stroke="#666666" points="1163.62,-379.5 1014.88,-379.5 1014.88,-349 1163.62,-349 1163.62,-379.5"/>
<text text-anchor="start" x="1022.88" y="-366" font-family="Helvetica,sans-Serif" font-size="10.00">xeno_rat_server.Compression.</text>
<text text-anchor="middle" x="1089.25" y="-354.75" font-family="Helvetica,sans-Serif" font-size="10.00">LocalFree</text>
</a>
</g>
</g>
<!-- Node13&#45;&gt;Node15 -->
<g id="edge15_Node000013_Node000015" class="edge">
<title>Node13&#45;&gt;Node15</title>
<g id="a_edge15_Node000013_Node000015"><a xlink:title=" ">
<path fill="none" stroke="#63b8ff" d="M948.52,-348.54C966.11,-350.52 985.01,-352.65 1003.06,-354.67"/>
<polygon fill="#63b8ff" stroke="#63b8ff" points="1002.64,-358.15 1012.97,-355.79 1003.42,-351.19 1002.64,-358.15"/>
</a>
</g>
</g>
<!-- Node16 -->
<g id="Node000016" class="node">
<title>Node16</title>
<g id="a_Node000016"><a xlink:href="classxeno__rat__server_1_1_compression.html#a1f9bb20d96d13bdc4d0f90e2b68d4343" target="_top" xlink:title="Compresses the input buffer using the specified compression format and returns the compressed data in...">
<polygon fill="white" stroke="#666666" points="1163.62,-330.5 1014.88,-330.5 1014.88,-300 1163.62,-300 1163.62,-330.5"/>
<text text-anchor="start" x="1022.88" y="-317" font-family="Helvetica,sans-Serif" font-size="10.00">xeno_rat_server.Compression.</text>
<text text-anchor="middle" x="1089.25" y="-305.75" font-family="Helvetica,sans-Serif" font-size="10.00">RtlCompressBuffer</text>
</a>
</g>
</g>
<!-- Node13&#45;&gt;Node16 -->
<g id="edge16_Node000013_Node000016" class="edge">
<title>Node13&#45;&gt;Node16</title>
<g id="a_edge16_Node000013_Node000016"><a xlink:title=" ">
<path fill="none" stroke="#63b8ff" d="M948.52,-331.61C966.11,-329.55 985.01,-327.34 1003.06,-325.22"/>
<polygon fill="#63b8ff" stroke="#63b8ff" points="1003.45,-328.7 1012.97,-324.06 1002.63,-321.75 1003.45,-328.7"/>
</a>
</g>
</g>
<!-- Node17 -->
<g id="Node000017" class="node">
<title>Node17</title>
<g id="a_Node000017"><a xlink:href="classxeno__rat__server_1_1_compression.html#a5ca090d7b0887e40753bad9800c321e7" target="_top" xlink:title="Retrieves the size of the workspace required for compression.">
<polygon fill="white" stroke="#666666" points="1175.25,-281.5 1003.25,-281.5 1003.25,-251 1175.25,-251 1175.25,-281.5"/>
<text text-anchor="start" x="1011.25" y="-268" font-family="Helvetica,sans-Serif" font-size="10.00">xeno_rat_server.Compression.</text>
<text text-anchor="middle" x="1089.25" y="-256.75" font-family="Helvetica,sans-Serif" font-size="10.00">RtlGetCompressionWorkSpaceSize</text>
</a>
</g>
</g>
<!-- Node13&#45;&gt;Node17 -->
<g id="edge17_Node000013_Node000017" class="edge">
<title>Node13&#45;&gt;Node17</title>
<g id="a_edge17_Node000013_Node000017"><a xlink:title=" ">
<path fill="none" stroke="#63b8ff" d="M942.84,-324.58C951.21,-321.86 959.52,-318.76 967.25,-315.25 984.76,-307.3 985.83,-299.39 1003.25,-291.25 1007.29,-289.36 1011.5,-287.58 1015.8,-285.91"/>
<polygon fill="#63b8ff" stroke="#63b8ff" points="1016.99,-289.2 1025.18,-282.49 1014.59,-282.63 1016.99,-289.2"/>
</a>
</g>
</g>
<!-- Node20 -->
<g id="Node000020" class="node">
<title>Node20</title>
<g id="a_Node000020"><a xlink:href="classxeno__rat__server_1_1_forms_1_1_custom_picture_box.html#ad2d6181322edfc502c03b929df4383c2" target="_top" xlink:title="Translates and unzooms the given point based on the zoom factor and displayed image rectangle of the ...">
<polygon fill="white" stroke="#666666" points="744.25,-30.5 574.5,-30.5 574.5,0 744.25,0 744.25,-30.5"/>
<text text-anchor="start" x="582.5" y="-17" font-family="Helvetica,sans-Serif" font-size="10.00">xeno_rat_server.Forms.Custom</text>
<text text-anchor="middle" x="659.38" y="-5.75" font-family="Helvetica,sans-Serif" font-size="10.00">PictureBox.UnzoomedAndAdjusted</text>
</a>
</g>
</g>
<!-- Node19&#45;&gt;Node20 -->
<g id="edge23_Node000019_Node000020" class="edge">
<title>Node19&#45;&gt;Node20</title>
<g id="a_edge23_Node000019_Node000020"><a xlink:title=" ">
<path fill="none" stroke="#63b8ff" d="M538.96,-15.25C546.83,-15.25 554.87,-15.25 562.88,-15.25"/>
<polygon fill="#63b8ff" stroke="#63b8ff" points="562.64,-18.75 572.64,-15.25 562.64,-11.75 562.64,-18.75"/>
</a>
</g>
</g>
<!-- Node21 -->
<g id="Node000021" class="node">
<title>Node21</title>
<g id="a_Node000021"><a xlink:href="classxeno__rat__server_1_1_forms_1_1_custom_picture_box.html#aa7addce06628519cadac2c853023fe97" target="_top" xlink:title="Gets the display rectangle for the image in the specified PictureBox.">
<polygon fill="white" stroke="#666666" points="967.25,-30.5 780.25,-30.5 780.25,0 967.25,0 967.25,-30.5"/>
<text text-anchor="start" x="788.25" y="-17" font-family="Helvetica,sans-Serif" font-size="10.00">xeno_rat_server.Forms.Custom</text>
<text text-anchor="middle" x="873.75" y="-5.75" font-family="Helvetica,sans-Serif" font-size="10.00">PictureBox.GetImageDisplayRectangle</text>
</a>
</g>
</g>
<!-- Node20&#45;&gt;Node21 -->
<g id="edge24_Node000020_Node000021" class="edge">
<title>Node20&#45;&gt;Node21</title>
<g id="a_edge24_Node000020_Node000021"><a xlink:title=" ">
<path fill="none" stroke="#63b8ff" d="M744.62,-15.25C752.49,-15.25 760.53,-15.25 768.55,-15.25"/>
<polygon fill="#63b8ff" stroke="#63b8ff" points="768.35,-18.75 778.35,-15.25 768.35,-11.75 768.35,-18.75"/>
</a>
</g>
</g>
</g>
</svg>

<g id="navigator" transform="translate(0 0)" fill="#404254">
  <rect fill="#f2f5e9" fill-opacity="0.5" stroke="#606060" stroke-width=".5" x="0" y="0" width="60" height="60"/>
  <use id="zoomplus" xlink:href="#zoomPlus" x="17" y="9" onmousedown="handleZoom(evt,'in')"/>
  <use id="zoomminus" xlink:href="#zoomMin" x="42" y="9" onmousedown="handleZoom(evt,'out')"/>
  <use id="reset" xlink:href="#resetDef" x="30" y="36" onmousedown="handleReset()"/>
   <use id="arrowup" xlink:href="#arrowUp" x="0" y="0" onmousedown="handlePan(0,-1)"/>
  <use id="arrowright" xlink:href="#arrowRight" x="0" y="0" onmousedown="handlePan(1,0)"/>
  <use id="arrowdown" xlink:href="#arrowDown" x="0" y="0" onmousedown="handlePan(0,1)"/>
  <use id="arrowleft" xlink:href="#arrowLeft" x="0" y="0" onmousedown="handlePan(-1,0)"/>
</g>
<svg viewBox="0 0 15 15" width="100%" height="30px" preserveAspectRatio="xMaxYMin meet">
 <g id="arrow_out" transform="scale(0.3 0.3)">
  <a xlink:href="classxeno__rat__server_1_1_forms_1_1_custom_picture_box_a88f38923ee026a00b6b3300c0bfe65a2_cgraph_org.svg" target="_base">
   <rect id="button" ry="5" rx="5" y="6" x="6" height="38" width="38"
        fill="#f2f5e9" fill-opacity="0.5" stroke="#606060" stroke-width="1.0"/>
   <path id="arrow"
     d="M 11.500037,31.436501 C 11.940474,20.09759 22.043105,11.32322 32.158766,21.979434 L 37.068811,17.246167 C 37.068811,17.246167 37.088388,32 37.088388,32 L 22.160133,31.978069 C 22.160133,31.978069 26.997745,27.140456 26.997745,27.140456 C 18.528582,18.264221 13.291696,25.230495 11.500037,31.436501 z"
     style="fill:#404040;"/>
  </a>
 </g>
</svg>

<style type='text/css'>
<![CDATA[
[data-mouse-over-selected='false'] { opacity: 0.7; }
[data-mouse-over-selected='true']  { opacity: 1.0; }
]]>
</style>
<script type="application/ecmascript"><![CDATA[
document.addEventListener('DOMContentLoaded', (event) => {
  highlightEdges();
  highlightAdjacentNodes();
});
]]></script>
</svg>
