<?xml version="1.0" encoding="UTF-8" standalone="no"?>
<!DOCTYPE svg PUBLIC "-//W3C//DTD SVG 1.1//EN"
 "http://www.w3.org/Graphics/SVG/1.1/DTD/svg11.dtd">
<!-- Generated by graphviz version 10.0.1 (20240210.2158)
 -->
<!-- Title: NAudio.CoreAudioApi.WasapiCapture.DoRecording Pages: 1 -->
<!--zoomable 186 -->

<svg id="main" version="1.1" xmlns="http://www.w3.org/2000/svg" xmlns:xlink="http://www.w3.org/1999/xlink" xml:space="preserve" onload="init(evt)">
<style type="text/css"><![CDATA[
.node, .edge {opacity: 0.7;}
.node.selected, .edge.selected {opacity: 1;}
.edge:hover path { stroke: red; }
.edge:hover polygon { stroke: red; fill: red; }
]]></style>

<defs>
  <circle id="rim" cx="0" cy="0" r="7"/>
  <circle id="rim2" cx="0" cy="0" r="3.5"/>
  <g id="zoomPlus">
    <use xlink:href="#rim" fill="#404040"><set attributeName="fill" to="#808080" begin="zoomplus.mouseover" end="zoomplus.mouseout"/></use>
    <path d="M-4,0h8M0,-4v8" fill="none" stroke="white" stroke-width="1.5" pointer-events="none"/>
  </g>
  <g id="zoomMin">
    <use xlink:href="#rim" fill="#404040"><set attributeName="fill" to="#808080" begin="zoomminus.mouseover" end="zoomminus.mouseout"/></use>
    <path d="M-4,0h8" fill="none" stroke="white" stroke-width="1.5" pointer-events="none"/>
  </g>
  <g id="arrowUp" transform="translate(30 24)">
    <use xlink:href="#rim"/>
    <path pointer-events="none" fill="none" stroke="white" stroke-width="1.5" d="M0,-3.0v7 M-2.5,-0.5L0,-3.0L2.5,-0.5"/>
  </g>
  <g id="arrowRight" transform="rotate(90) translate(36 -43)">
    <use xlink:href="#rim"/>
    <path pointer-events="none" fill="none" stroke="white" stroke-width="1.5" d="M0,-3.0v7 M-2.5,-0.5L0,-3.0L2.5,-0.5"/>
  </g>
  <g id="arrowDown" transform="rotate(180) translate(-30 -48)">
    <use xlink:href="#rim"/>
    <path pointer-events="none" fill="none" stroke="white" stroke-width="1.5" d="M0,-3.0v7 M-2.5,-0.5L0,-3.0L2.5,-0.5"/>
  </g>
  <g id="arrowLeft" transform="rotate(270) translate(-36 17)">
    <use xlink:href="#rim"/>
    <path pointer-events="none" fill="none" stroke="white" stroke-width="1.5" d="M0,-3.0v7 M-2.5,-0.5L0,-3.0L2.5,-0.5"/>
  </g>
  <g id="resetDef">
    <use xlink:href="#rim2" fill="#404040"><set attributeName="fill" to="#808080" begin="reset.mouseover" end="reset.mouseout"/></use>
  </g>
</defs>
<script type="application/ecmascript">
var viewWidth = 769;
var viewHeight = 186;
var sectionId = 'dynsection-5';
</script>
<script type="application/ecmascript" xlink:href="svg.min.js"/>
<svg id="graph" class="graph">
<g id="viewport">
<title>NAudio.CoreAudioApi.WasapiCapture.DoRecording</title>
<!-- Node1 -->
<g id="Node000001" class="node">
<title>Node1</title>
<g id="a_Node000001"><a xlink:title="Records audio using the provided client &#160;and manages the capture state.">
<polygon fill="#999999" stroke="#666666" points="146.5,-78.5 0,-78.5 0,-48 146.5,-48 146.5,-78.5"/>
<text text-anchor="start" x="8" y="-65" font-family="Helvetica,sans-Serif" font-size="10.00">NAudio.CoreAudioApi.Wasapi</text>
<text text-anchor="middle" x="73.25" y="-53.75" font-family="Helvetica,sans-Serif" font-size="10.00">Capture.DoRecording</text>
</a>
</g>
</g>
<!-- Node2 -->
<g id="Node000002" class="node">
<title>Node2</title>
<g id="a_Node000002"><a xlink:href="class_n_audio_1_1_core_audio_api_1_1_wasapi_capture.html#a2216734b29bace018dea78a20c0a1d29" target="_top" xlink:title="Reads the next packet from the AudioCaptureClient and invokes the DataAvailable event with the captur...">
<polygon fill="white" stroke="#666666" points="329,-103.5 182.5,-103.5 182.5,-73 329,-73 329,-103.5"/>
<text text-anchor="start" x="190.5" y="-90" font-family="Helvetica,sans-Serif" font-size="10.00">NAudio.CoreAudioApi.Wasapi</text>
<text text-anchor="middle" x="255.75" y="-78.75" font-family="Helvetica,sans-Serif" font-size="10.00">Capture.ReadNextPacket</text>
</a>
</g>
</g>
<!-- Node1&#45;&gt;Node2 -->
<g id="edge1_Node000001_Node000002" class="edge">
<title>Node1&#45;&gt;Node2</title>
<g id="a_edge1_Node000001_Node000002"><a xlink:title=" ">
<path fill="none" stroke="#63b8ff" d="M146.89,-73.31C154.81,-74.41 162.92,-75.53 170.96,-76.65"/>
<polygon fill="#63b8ff" stroke="#63b8ff" points="170.38,-80.1 180.76,-78 171.34,-73.16 170.38,-80.1"/>
</a>
</g>
</g>
<!-- Node9 -->
<g id="Node000009" class="node">
<title>Node9</title>
<g id="a_Node000009"><a xlink:href="class_n_audio_1_1_core_audio_api_1_1_audio_client.html#ac5e52c70a7bc0ed4cf4e35b66df6a352" target="_top" xlink:title="Starts the audio client interface.">
<polygon fill="white" stroke="#666666" points="325.25,-54.5 186.25,-54.5 186.25,-24 325.25,-24 325.25,-54.5"/>
<text text-anchor="start" x="194.25" y="-41" font-family="Helvetica,sans-Serif" font-size="10.00">NAudio.CoreAudioApi.Audio</text>
<text text-anchor="middle" x="255.75" y="-29.75" font-family="Helvetica,sans-Serif" font-size="10.00">Client.Start</text>
</a>
</g>
</g>
<!-- Node1&#45;&gt;Node9 -->
<g id="edge8_Node000001_Node000009" class="edge">
<title>Node1&#45;&gt;Node9</title>
<g id="a_edge8_Node000001_Node000009"><a xlink:title=" ">
<path fill="none" stroke="#63b8ff" d="M146.89,-53.59C156.01,-52.38 165.38,-51.13 174.61,-49.91"/>
<polygon fill="#63b8ff" stroke="#63b8ff" points="174.82,-53.41 184.27,-48.62 173.9,-46.47 174.82,-53.41"/>
</a>
</g>
</g>
<!-- Node3 -->
<g id="Node000003" class="node">
<title>Node3</title>
<g id="a_Node000003"><a xlink:href="class_n_audio_1_1_core_audio_api_1_1_audio_capture_client.html#ae74d4bb48eebb73044d484c5ddce295e" target="_top" xlink:title="Retrieves a pointer to the buffer that is ready for the next capture.">
<polygon fill="white" stroke="#666666" points="517.5,-177.5 378.5,-177.5 378.5,-147 517.5,-147 517.5,-177.5"/>
<text text-anchor="start" x="386.5" y="-164" font-family="Helvetica,sans-Serif" font-size="10.00">NAudio.CoreAudioApi.Audio</text>
<text text-anchor="middle" x="448" y="-152.75" font-family="Helvetica,sans-Serif" font-size="10.00">CaptureClient.GetBuffer</text>
</a>
</g>
</g>
<!-- Node2&#45;&gt;Node3 -->
<g id="edge2_Node000002_Node000003" class="edge">
<title>Node2&#45;&gt;Node3</title>
<g id="a_edge2_Node000002_Node000003"><a xlink:title=" ">
<path fill="none" stroke="#63b8ff" d="M288.5,-103.93C309.84,-114.14 338.75,-127.35 365,-137.25 370.26,-139.23 375.76,-141.18 381.3,-143.05"/>
<polygon fill="#63b8ff" stroke="#63b8ff" points="379.94,-146.28 390.54,-146.07 382.13,-139.63 379.94,-146.28"/>
</a>
</g>
</g>
<!-- Node5 -->
<g id="Node000005" class="node">
<title>Node5</title>
<g id="a_Node000005"><a xlink:href="class_n_audio_1_1_core_audio_api_1_1_audio_capture_client.html#a3002db667f228b4eeb0176eabc316e5c" target="_top" xlink:title="Retrieves the size of the next audio packet and returns the number of frames in the packet.">
<polygon fill="white" stroke="#666666" points="531,-128.5 365,-128.5 365,-98 531,-98 531,-128.5"/>
<text text-anchor="start" x="373" y="-115" font-family="Helvetica,sans-Serif" font-size="10.00">NAudio.CoreAudioApi.Audio</text>
<text text-anchor="middle" x="448" y="-103.75" font-family="Helvetica,sans-Serif" font-size="10.00">CaptureClient.GetNextPacketSize</text>
</a>
</g>
</g>
<!-- Node2&#45;&gt;Node5 -->
<g id="edge4_Node000002_Node000005" class="edge">
<title>Node2&#45;&gt;Node5</title>
<g id="a_edge4_Node000002_Node000005"><a xlink:title=" ">
<path fill="none" stroke="#63b8ff" d="M329.49,-97.81C337.33,-98.84 345.39,-99.9 353.43,-100.95"/>
<polygon fill="#63b8ff" stroke="#63b8ff" points="352.9,-104.41 363.27,-102.25 353.81,-97.47 352.9,-104.41"/>
</a>
</g>
</g>
<!-- Node7 -->
<g id="Node000007" class="node">
<title>Node7</title>
<g id="a_Node000007"><a xlink:href="class_n_audio_1_1_core_audio_api_1_1_audio_capture_client.html#a556b86b5a690f64917eed058f293c865" target="_top" xlink:title="Releases the buffer containing audio data after writing a specified number of frames.">
<polygon fill="white" stroke="#666666" points="518.62,-79.5 377.38,-79.5 377.38,-49 518.62,-49 518.62,-79.5"/>
<text text-anchor="start" x="385.38" y="-66" font-family="Helvetica,sans-Serif" font-size="10.00">NAudio.CoreAudioApi.Audio</text>
<text text-anchor="middle" x="448" y="-54.75" font-family="Helvetica,sans-Serif" font-size="10.00">CaptureClient.ReleaseBuffer</text>
</a>
</g>
</g>
<!-- Node2&#45;&gt;Node7 -->
<g id="edge6_Node000002_Node000007" class="edge">
<title>Node2&#45;&gt;Node7</title>
<g id="a_edge6_Node000002_Node000007"><a xlink:title=" ">
<path fill="none" stroke="#63b8ff" d="M329.49,-79.07C341.33,-77.58 353.67,-76.02 365.7,-74.51"/>
<polygon fill="#63b8ff" stroke="#63b8ff" points="366.14,-77.98 375.62,-73.25 365.26,-71.03 366.14,-77.98"/>
</a>
</g>
</g>
<!-- Node4 -->
<g id="Node000004" class="node">
<title>Node4</title>
<g id="a_Node000004"><a xlink:href="interface_n_audio_1_1_core_audio_api_1_1_interfaces_1_1_i_audio_capture_client.html#ac83ebe2e1c382521185bdcab7c0a97e1" target="_top" xlink:title=" ">
<polygon fill="white" stroke="#666666" points="744.25,-177.5 583.5,-177.5 583.5,-147 744.25,-147 744.25,-177.5"/>
<text text-anchor="start" x="591.5" y="-164" font-family="Helvetica,sans-Serif" font-size="10.00">NAudio.CoreAudioApi.Interfaces.</text>
<text text-anchor="middle" x="663.88" y="-152.75" font-family="Helvetica,sans-Serif" font-size="10.00">IAudioCaptureClient.GetBuffer</text>
</a>
</g>
</g>
<!-- Node3&#45;&gt;Node4 -->
<g id="edge3_Node000003_Node000004" class="edge">
<title>Node3&#45;&gt;Node4</title>
<g id="a_edge3_Node000003_Node000004"><a xlink:title=" ">
<path fill="none" stroke="#63b8ff" d="M517.85,-162.25C535.06,-162.25 553.78,-162.25 571.89,-162.25"/>
<polygon fill="#63b8ff" stroke="#63b8ff" points="571.85,-165.75 581.85,-162.25 571.85,-158.75 571.85,-165.75"/>
</a>
</g>
</g>
<!-- Node6 -->
<g id="Node000006" class="node">
<title>Node6</title>
<g id="a_Node000006"><a xlink:href="interface_n_audio_1_1_core_audio_api_1_1_interfaces_1_1_i_audio_capture_client.html#a30a549766a58730b9cdf6f65f7ba131d" target="_top" xlink:title=" ">
<polygon fill="white" stroke="#666666" points="760.75,-128.5 567,-128.5 567,-98 760.75,-98 760.75,-128.5"/>
<text text-anchor="start" x="575" y="-115" font-family="Helvetica,sans-Serif" font-size="10.00">NAudio.CoreAudioApi.Interfaces.</text>
<text text-anchor="middle" x="663.88" y="-103.75" font-family="Helvetica,sans-Serif" font-size="10.00">IAudioCaptureClient.GetNextPacketSize</text>
</a>
</g>
</g>
<!-- Node5&#45;&gt;Node6 -->
<g id="edge5_Node000005_Node000006" class="edge">
<title>Node5&#45;&gt;Node6</title>
<g id="a_edge5_Node000005_Node000006"><a xlink:title=" ">
<path fill="none" stroke="#63b8ff" d="M531.38,-113.25C539.22,-113.25 547.25,-113.25 555.28,-113.25"/>
<polygon fill="#63b8ff" stroke="#63b8ff" points="555.1,-116.75 565.1,-113.25 555.1,-109.75 555.1,-116.75"/>
</a>
</g>
</g>
<!-- Node8 -->
<g id="Node000008" class="node">
<title>Node8</title>
<g id="a_Node000008"><a xlink:href="interface_n_audio_1_1_core_audio_api_1_1_interfaces_1_1_i_audio_capture_client.html#ab78b4108c06a95f8093334068ed53cc3" target="_top" xlink:title=" ">
<polygon fill="white" stroke="#666666" points="748.38,-79.5 579.38,-79.5 579.38,-49 748.38,-49 748.38,-79.5"/>
<text text-anchor="start" x="587.38" y="-66" font-family="Helvetica,sans-Serif" font-size="10.00">NAudio.CoreAudioApi.Interfaces.</text>
<text text-anchor="middle" x="663.88" y="-54.75" font-family="Helvetica,sans-Serif" font-size="10.00">IAudioCaptureClient.ReleaseBuffer</text>
</a>
</g>
</g>
<!-- Node7&#45;&gt;Node8 -->
<g id="edge7_Node000007_Node000008" class="edge">
<title>Node7&#45;&gt;Node8</title>
<g id="a_edge7_Node000007_Node000008"><a xlink:title=" ">
<path fill="none" stroke="#63b8ff" d="M519.03,-64.25C534.57,-64.25 551.3,-64.25 567.65,-64.25"/>
<polygon fill="#63b8ff" stroke="#63b8ff" points="567.38,-67.75 577.38,-64.25 567.38,-60.75 567.38,-67.75"/>
</a>
</g>
</g>
<!-- Node10 -->
<g id="Node000010" class="node">
<title>Node10</title>
<g id="a_Node000010"><a xlink:href="interface_n_audio_1_1_core_audio_api_1_1_interfaces_1_1_i_audio_client.html#abff4ea76715b5491ee3f2eecc60e49ae" target="_top" xlink:title=" ">
<polygon fill="white" stroke="#666666" points="528.38,-30.5 367.62,-30.5 367.62,0 528.38,0 528.38,-30.5"/>
<text text-anchor="start" x="375.62" y="-17" font-family="Helvetica,sans-Serif" font-size="10.00">NAudio.CoreAudioApi.Interfaces.</text>
<text text-anchor="middle" x="448" y="-5.75" font-family="Helvetica,sans-Serif" font-size="10.00">IAudioClient.Start</text>
</a>
</g>
</g>
<!-- Node9&#45;&gt;Node10 -->
<g id="edge9_Node000009_Node000010" class="edge">
<title>Node9&#45;&gt;Node10</title>
<g id="a_edge9_Node000009_Node000010"><a xlink:title=" ">
<path fill="none" stroke="#63b8ff" d="M325.7,-30.55C335.52,-29.31 345.73,-28.03 355.89,-26.74"/>
<polygon fill="#63b8ff" stroke="#63b8ff" points="356.31,-30.22 365.8,-25.49 355.44,-23.27 356.31,-30.22"/>
</a>
</g>
</g>
</g>
</svg>

<g id="navigator" transform="translate(0 0)" fill="#404254">
  <rect fill="#f2f5e9" fill-opacity="0.5" stroke="#606060" stroke-width=".5" x="0" y="0" width="60" height="60"/>
  <use id="zoomplus" xlink:href="#zoomPlus" x="17" y="9" onmousedown="handleZoom(evt,'in')"/>
  <use id="zoomminus" xlink:href="#zoomMin" x="42" y="9" onmousedown="handleZoom(evt,'out')"/>
  <use id="reset" xlink:href="#resetDef" x="30" y="36" onmousedown="handleReset()"/>
   <use id="arrowup" xlink:href="#arrowUp" x="0" y="0" onmousedown="handlePan(0,-1)"/>
  <use id="arrowright" xlink:href="#arrowRight" x="0" y="0" onmousedown="handlePan(1,0)"/>
  <use id="arrowdown" xlink:href="#arrowDown" x="0" y="0" onmousedown="handlePan(0,1)"/>
  <use id="arrowleft" xlink:href="#arrowLeft" x="0" y="0" onmousedown="handlePan(-1,0)"/>
</g>
<svg viewBox="0 0 15 15" width="100%" height="30px" preserveAspectRatio="xMaxYMin meet">
 <g id="arrow_out" transform="scale(0.3 0.3)">
  <a xlink:href="class_n_audio_1_1_core_audio_api_1_1_wasapi_capture_a7cb69793688b5fe4ed40f72ea54f17a8_cgraph_org.svg" target="_base">
   <rect id="button" ry="5" rx="5" y="6" x="6" height="38" width="38"
        fill="#f2f5e9" fill-opacity="0.5" stroke="#606060" stroke-width="1.0"/>
   <path id="arrow"
     d="M 11.500037,31.436501 C 11.940474,20.09759 22.043105,11.32322 32.158766,21.979434 L 37.068811,17.246167 C 37.068811,17.246167 37.088388,32 37.088388,32 L 22.160133,31.978069 C 22.160133,31.978069 26.997745,27.140456 26.997745,27.140456 C 18.528582,18.264221 13.291696,25.230495 11.500037,31.436501 z"
     style="fill:#404040;"/>
  </a>
 </g>
</svg>

<style type='text/css'>
<![CDATA[
[data-mouse-over-selected='false'] { opacity: 0.7; }
[data-mouse-over-selected='true']  { opacity: 1.0; }
]]>
</style>
<script type="application/ecmascript"><![CDATA[
document.addEventListener('DOMContentLoaded', (event) => {
  highlightEdges();
  highlightAdjacentNodes();
});
]]></script>
</svg>
