<?xml version="1.0" encoding="UTF-8" standalone="no"?>
<!DOCTYPE svg PUBLIC "-//W3C//DTD SVG 1.1//EN"
 "http://www.w3.org/Graphics/SVG/1.1/DTD/svg11.dtd">
<!-- Generated by graphviz version 10.0.1 (20240210.2158)
 -->
<!-- Title: NAudio.Wave.MediaFoundationEncoder.SelectMediaType Pages: 1 -->
<svg width="579pt" height="147pt"
 viewBox="0.00 0.00 578.75 147.12" xmlns="http://www.w3.org/2000/svg" xmlns:xlink="http://www.w3.org/1999/xlink">
<g id="graph0" class="graph" transform="scale(1 1) rotate(0) translate(4 143.12)">
<title>NAudio.Wave.MediaFoundationEncoder.SelectMediaType</title>
<!-- Node1 -->
<g id="Node000001" class="node">
<title>Node1</title>
<g id="a_Node000001"><a xlink:title="Selects the media type that best matches the input audio subtype, format, and desired bit rate.">
<polygon fill="#999999" stroke="#666666" points="153.25,-90.12 0,-90.12 0,-59.62 153.25,-59.62 153.25,-90.12"/>
<text text-anchor="start" x="8" y="-76.62" font-family="Helvetica,sans-Serif" font-size="10.00">NAudio.Wave.MediaFoundation</text>
<text text-anchor="middle" x="76.62" y="-65.38" font-family="Helvetica,sans-Serif" font-size="10.00">Encoder.SelectMediaType</text>
</a>
</g>
</g>
<!-- Node2 -->
<g id="Node000002" class="node">
<title>Node2</title>
<g id="a_Node000002"><a xlink:href="class_n_audio_1_1_wave_1_1_media_foundation_encoder.html#a926e4e8ce4ff1003c38c88555a913182" target="_top" xlink:title="Retrieves the available output media types for the specified audio subtype.">
<polygon fill="white" stroke="#666666" points="342.5,-90.12 189.25,-90.12 189.25,-59.62 342.5,-59.62 342.5,-90.12"/>
<text text-anchor="start" x="197.25" y="-76.62" font-family="Helvetica,sans-Serif" font-size="10.00">NAudio.Wave.MediaFoundation</text>
<text text-anchor="middle" x="265.88" y="-65.38" font-family="Helvetica,sans-Serif" font-size="10.00">Encoder.GetOutputMediaTypes</text>
</a>
</g>
</g>
<!-- Node1&#45;&gt;Node2 -->
<g id="edge1_Node000001_Node000002" class="edge">
<title>Node1&#45;&gt;Node2</title>
<g id="a_edge1_Node000001_Node000002"><a xlink:title=" ">
<path fill="none" stroke="#63b8ff" d="M153.52,-74.88C161.44,-74.88 169.54,-74.88 177.58,-74.88"/>
<polygon fill="#63b8ff" stroke="#63b8ff" points="177.36,-78.38 187.36,-74.88 177.36,-71.38 177.36,-78.38"/>
</a>
</g>
</g>
<!-- Node3 -->
<g id="Node000003" class="node">
<title>Node3</title>
<g id="a_Node000003"><a xlink:href="interface_n_audio_1_1_media_foundation_1_1_i_m_f_collection.html#a9d41fa65f70101e011b689d5f34c16e4" target="_top" xlink:title="Retrieves an object in the collection.">
<polygon fill="white" stroke="#666666" points="570.75,-139.12 378.5,-139.12 378.5,-108.62 570.75,-108.62 570.75,-139.12"/>
<text text-anchor="start" x="386.5" y="-125.62" font-family="Helvetica,sans-Serif" font-size="10.00">NAudio.MediaFoundation.IMFCollection.</text>
<text text-anchor="middle" x="474.62" y="-114.38" font-family="Helvetica,sans-Serif" font-size="10.00">GetElement</text>
</a>
</g>
</g>
<!-- Node2&#45;&gt;Node3 -->
<g id="edge2_Node000002_Node000003" class="edge">
<title>Node2&#45;&gt;Node3</title>
<g id="a_edge2_Node000002_Node000003"><a xlink:title=" ">
<path fill="none" stroke="#63b8ff" d="M333.15,-90.58C353.27,-95.35 375.56,-100.63 396.34,-105.56"/>
<polygon fill="#63b8ff" stroke="#63b8ff" points="395.37,-108.92 405.9,-107.82 396.98,-102.11 395.37,-108.92"/>
</a>
</g>
</g>
<!-- Node4 -->
<g id="Node000004" class="node">
<title>Node4</title>
<g id="a_Node000004"><a xlink:href="interface_n_audio_1_1_media_foundation_1_1_i_m_f_collection.html#a2ff9212c258c6c03a7bbffbf6fd22b63" target="_top" xlink:title="Retrieves the number of objects in the collection.">
<polygon fill="white" stroke="#666666" points="570.75,-90.12 378.5,-90.12 378.5,-59.62 570.75,-59.62 570.75,-90.12"/>
<text text-anchor="start" x="386.5" y="-76.62" font-family="Helvetica,sans-Serif" font-size="10.00">NAudio.MediaFoundation.IMFCollection.</text>
<text text-anchor="middle" x="474.62" y="-65.38" font-family="Helvetica,sans-Serif" font-size="10.00">GetElementCount</text>
</a>
</g>
</g>
<!-- Node2&#45;&gt;Node4 -->
<g id="edge3_Node000002_Node000004" class="edge">
<title>Node2&#45;&gt;Node4</title>
<g id="a_edge3_Node000002_Node000004"><a xlink:title=" ">
<path fill="none" stroke="#63b8ff" d="M342.98,-74.88C350.81,-74.88 358.86,-74.88 366.93,-74.88"/>
<polygon fill="#63b8ff" stroke="#63b8ff" points="366.84,-78.38 376.84,-74.88 366.84,-71.38 366.84,-78.38"/>
</a>
</g>
</g>
<!-- Node5 -->
<g id="Node000005" class="node">
<title>Node5</title>
<g id="a_Node000005"><a xlink:href="class_n_audio_1_1_media_foundation_1_1_media_foundation_interop.html#a9ead2312527c851eb074d4152c5cce21" target="_top" xlink:title="Retrieves the available audio output types for transcoding using the specified subtype and configurat...">
<polygon fill="white" stroke="#666666" points="561,-41.75 388.25,-41.75 388.25,0 561,0 561,-41.75"/>
<text text-anchor="start" x="396.25" y="-28.25" font-family="Helvetica,sans-Serif" font-size="10.00">NAudio.MediaFoundation.Media</text>
<text text-anchor="start" x="396.25" y="-17" font-family="Helvetica,sans-Serif" font-size="10.00">FoundationInterop.MFTranscodeGet</text>
<text text-anchor="middle" x="474.62" y="-5.75" font-family="Helvetica,sans-Serif" font-size="10.00">AudioOutputAvailableTypes</text>
</a>
</g>
</g>
<!-- Node2&#45;&gt;Node5 -->
<g id="edge4_Node000002_Node000005" class="edge">
<title>Node2&#45;&gt;Node5</title>
<g id="a_edge4_Node000002_Node000005"><a xlink:title=" ">
<path fill="none" stroke="#63b8ff" d="M326.95,-59.18C343.82,-54.78 362.56,-49.88 380.85,-45.11"/>
<polygon fill="#63b8ff" stroke="#63b8ff" points="381.6,-48.53 390.39,-42.61 379.83,-41.76 381.6,-48.53"/>
</a>
</g>
</g>
</g>
</svg>
