<?xml version="1.0" encoding="UTF-8" standalone="no"?>
<!DOCTYPE svg PUBLIC "-//W3C//DTD SVG 1.1//EN"
 "http://www.w3.org/Graphics/SVG/1.1/DTD/svg11.dtd">
<!-- Generated by graphviz version 10.0.1 (20240210.2158)
 -->
<!-- Title: NAudio.Dmo.AudioMediaSubtypes Pages: 1 -->
<svg width="227pt" height="494pt"
 viewBox="0.00 0.00 227.00 494.00" xmlns="http://www.w3.org/2000/svg" xmlns:xlink="http://www.w3.org/1999/xlink">
<g id="graph0" class="graph" transform="scale(1 1) rotate(0) translate(4 490)">
<title>NAudio.Dmo.AudioMediaSubtypes</title>
<!-- Node1 -->
<g id="Node000001" class="node">
<title>Node1</title>
<g id="a_Node000001"><a xlink:title=" ">
<polygon fill="#999999" stroke="none" points="189,-221 0,-221 0,0 189,0 189,-221"/>
<text text-anchor="start" x="18.75" y="-207.5" font-family="Helvetica,sans-Serif" font-size="10.00">NAudio.Dmo.AudioMediaSubtypes</text>
<text text-anchor="start" x="4" y="-192.5" font-family="Helvetica,sans-Serif" font-size="10.00">+</text>
<text text-anchor="start" x="14" y="-192.5" font-family="Helvetica,sans-Serif" font-size="10.00">MEDIASUBTYPE_PCM</text>
<text text-anchor="start" x="4" y="-177.5" font-family="Helvetica,sans-Serif" font-size="10.00">+</text>
<text text-anchor="start" x="14" y="-177.5" font-family="Helvetica,sans-Serif" font-size="10.00">MEDIASUBTYPE_PCMAudioObsolete</text>
<text text-anchor="start" x="4" y="-162.5" font-family="Helvetica,sans-Serif" font-size="10.00">+</text>
<text text-anchor="start" x="14" y="-162.5" font-family="Helvetica,sans-Serif" font-size="10.00">MEDIASUBTYPE_MPEG1Packet</text>
<text text-anchor="start" x="4" y="-147.5" font-family="Helvetica,sans-Serif" font-size="10.00">+</text>
<text text-anchor="start" x="14" y="-147.5" font-family="Helvetica,sans-Serif" font-size="10.00">MEDIASUBTYPE_MPEG1Payload</text>
<text text-anchor="start" x="4" y="-132.5" font-family="Helvetica,sans-Serif" font-size="10.00">+</text>
<text text-anchor="start" x="14" y="-132.5" font-family="Helvetica,sans-Serif" font-size="10.00">MEDIASUBTYPE_MPEG2</text>
<text text-anchor="start" x="14" y="-121.25" font-family="Helvetica,sans-Serif" font-size="10.00">_AUDIO</text>
<text text-anchor="start" x="4" y="-106.5" font-family="Helvetica,sans-Serif" font-size="10.00">+</text>
<text text-anchor="start" x="14" y="-106.5" font-family="Helvetica,sans-Serif" font-size="10.00">MEDIASUBTYPE_RAW_SPORT</text>
<text text-anchor="start" x="4" y="-91.5" font-family="Helvetica,sans-Serif" font-size="10.00">+</text>
<text text-anchor="start" x="14" y="-91.5" font-family="Helvetica,sans-Serif" font-size="10.00">MEDIASUBTYPE_SPDIF</text>
<text text-anchor="start" x="14" y="-80.25" font-family="Helvetica,sans-Serif" font-size="10.00">_TAG_241h</text>
<text text-anchor="start" x="4" y="-65.5" font-family="Helvetica,sans-Serif" font-size="10.00">+</text>
<text text-anchor="start" x="14" y="-65.5" font-family="Helvetica,sans-Serif" font-size="10.00">MEDIASUBTYPE_IYUV</text>
<text text-anchor="start" x="4" y="-50.5" font-family="Helvetica,sans-Serif" font-size="10.00">+</text>
<text text-anchor="start" x="14" y="-50.5" font-family="Helvetica,sans-Serif" font-size="10.00">MEDIASUBTYPE_RGB1</text>
<text text-anchor="start" x="4" y="-35.5" font-family="Helvetica,sans-Serif" font-size="10.00">+</text>
<text text-anchor="start" x="14" y="-35.5" font-family="Helvetica,sans-Serif" font-size="10.00">MEDIASUBTYPE_RGB24</text>
<text text-anchor="start" x="14" y="-20.5" font-family="Helvetica,sans-Serif" font-size="10.00">and 49 more...</text>
<text text-anchor="start" x="4" y="-5.5" font-family="Helvetica,sans-Serif" font-size="10.00">+</text>
<text text-anchor="start" x="14" y="-5.5" font-family="Helvetica,sans-Serif" font-size="10.00">GetAudioSubtypeName()</text>
<polygon fill="#666666" stroke="#666666" points="0,-204 0,-204 189,-204 189,-204 0,-204"/>
<polygon fill="#666666" stroke="#666666" points="0,-17 0,-17 12,-17 12,-17 0,-17"/>
<polygon fill="#666666" stroke="#666666" points="12,-17 12,-17 189,-17 189,-17 12,-17"/>
<polygon fill="none" stroke="#666666" points="0,0 0,-221 189,-221 189,0 0,0"/>
</a>
</g>
</g>
<!-- Node2 -->
<g id="Node000002" class="node">
<title>Node2</title>
<g id="a_Node000002"><a xlink:title=" ">
<polygon fill="white" stroke="none" points="111.5,-486 77.5,-486 77.5,-437 111.5,-437 111.5,-486"/>
<text text-anchor="start" x="82.5" y="-472.5" font-family="Helvetica,sans-Serif" font-size="10.00">static</text>
<text text-anchor="start" x="93" y="-457.5" font-family="Helvetica,sans-Serif" font-size="10.00"> </text>
<text text-anchor="start" x="93" y="-442.5" font-family="Helvetica,sans-Serif" font-size="10.00"> </text>
<polygon fill="#666666" stroke="#666666" points="77.5,-469 77.5,-469 111.5,-469 111.5,-469 77.5,-469"/>
<polygon fill="#666666" stroke="#666666" points="77.5,-454 77.5,-454 111.5,-454 111.5,-454 77.5,-454"/>
<polygon fill="none" stroke="#666666" points="77.5,-437 77.5,-486 111.5,-486 111.5,-437 77.5,-437"/>
</a>
</g>
</g>
<!-- Node2&#45;&gt;Node1 -->
<g id="edge1_Node000001_Node000002" class="edge">
<title>Node2&#45;&gt;Node1</title>
<g id="a_edge1_Node000001_Node000002"><a xlink:title=" ">
<path fill="none" stroke="#63b8ff" d="M94.5,-437.06C94.5,-395.81 94.5,-307.59 94.5,-233.38"/>
<polygon fill="none" stroke="#63b8ff" points="94.5,-233.55 90.5,-227.55 94.5,-221.55 98.5,-227.55 94.5,-233.55"/>
</a>
</g>
<text text-anchor="middle" x="156.75" y="-409.5" font-family="Helvetica,sans-Serif" font-size="10.00" fill="grey"> +AudioSubTypeNames</text>
<text text-anchor="middle" x="156.75" y="-398.25" font-family="Helvetica,sans-Serif" font-size="10.00" fill="grey">+AudioSubTypes</text>
<text text-anchor="middle" x="156.75" y="-387" font-family="Helvetica,sans-Serif" font-size="10.00" fill="grey">+MEDIASUBTYPE_AIFF</text>
<text text-anchor="middle" x="156.75" y="-375.75" font-family="Helvetica,sans-Serif" font-size="10.00" fill="grey">+MEDIASUBTYPE_AU</text>
<text text-anchor="start" x="94.5" y="-364.5" font-family="Helvetica,sans-Serif" font-size="10.00" fill="grey">+MEDIASUBTYPE_DOLBY</text>
<text text-anchor="middle" x="156.75" y="-353.25" font-family="Helvetica,sans-Serif" font-size="10.00" fill="grey">_AC3</text>
<text text-anchor="start" x="94.5" y="-342" font-family="Helvetica,sans-Serif" font-size="10.00" fill="grey">+MEDIASUBTYPE_DOLBY</text>
<text text-anchor="middle" x="156.75" y="-330.75" font-family="Helvetica,sans-Serif" font-size="10.00" fill="grey">_AC3_SPDIF</text>
<text text-anchor="start" x="94.5" y="-319.5" font-family="Helvetica,sans-Serif" font-size="10.00" fill="grey">+MEDIASUBTYPE_DRM</text>
<text text-anchor="middle" x="156.75" y="-308.25" font-family="Helvetica,sans-Serif" font-size="10.00" fill="grey">_Audio</text>
<text text-anchor="start" x="94.5" y="-297" font-family="Helvetica,sans-Serif" font-size="10.00" fill="grey">+MEDIASUBTYPE_DVD</text>
<text text-anchor="middle" x="156.75" y="-285.75" font-family="Helvetica,sans-Serif" font-size="10.00" fill="grey">_LPCM_AUDIO</text>
<text text-anchor="middle" x="156.75" y="-274.5" font-family="Helvetica,sans-Serif" font-size="10.00" fill="grey">+MEDIASUBTYPE_I420</text>
<text text-anchor="start" x="94.5" y="-263.25" font-family="Helvetica,sans-Serif" font-size="10.00" fill="grey">+MEDIASUBTYPE_IEEE</text>
<text text-anchor="middle" x="156.75" y="-252" font-family="Helvetica,sans-Serif" font-size="10.00" fill="grey">_FLOAT</text>
<text text-anchor="middle" x="156.75" y="-240.75" font-family="Helvetica,sans-Serif" font-size="10.00" fill="grey">...</text>
</g>
</g>
</svg>
