<?xml version="1.0" encoding="UTF-8" standalone="no"?>
<!DOCTYPE svg PUBLIC "-//W3C//DTD SVG 1.1//EN"
 "http://www.w3.org/Graphics/SVG/1.1/DTD/svg11.dtd">
<!-- Generated by graphviz version 10.0.1 (20240210.2158)
 -->
<!-- Title: Plugin.Main.HandleCloneOpera Pages: 1 -->
<svg width="696pt" height="210pt"
 viewBox="0.00 0.00 696.00 209.50" xmlns="http://www.w3.org/2000/svg" xmlns:xlink="http://www.w3.org/1999/xlink">
<g id="graph0" class="graph" transform="scale(1 1) rotate(0) translate(4 205.5)">
<title>Plugin.Main.HandleCloneOpera</title>
<!-- Node1 -->
<g id="Node000001" class="node">
<title>Node1</title>
<g id="a_Node000001"><a xlink:title="Handles the cloning of the Opera browser.">
<polygon fill="#999999" stroke="#666666" points="152.5,-110.88 0,-110.88 0,-91.62 152.5,-91.62 152.5,-110.88"/>
<text text-anchor="middle" x="76.25" y="-97.38" font-family="Helvetica,sans-Serif" font-size="10.00">Plugin.Main.HandleCloneOpera</text>
</a>
</g>
</g>
<!-- Node2 -->
<g id="Node000002" class="node">
<title>Node2</title>
<g id="a_Node000002"><a xlink:href="class_hidden__handler_1_1_process___handler.html#a72151c3db1f9b348fe603e44d390f92d" target="_top" xlink:title="Clones the Opera browser data to a specified directory.">
<polygon fill="white" stroke="#666666" points="317.38,-165.5 195.62,-165.5 195.62,-135 317.38,-135 317.38,-165.5"/>
<text text-anchor="start" x="203.62" y="-152" font-family="Helvetica,sans-Serif" font-size="10.00">Hidden_handler.Process</text>
<text text-anchor="middle" x="256.5" y="-140.75" font-family="Helvetica,sans-Serif" font-size="10.00">_Handler.CloneOpera</text>
</a>
</g>
</g>
<!-- Node1&#45;&gt;Node2 -->
<g id="edge1_Node000001_Node000002" class="edge">
<title>Node1&#45;&gt;Node2</title>
<g id="a_edge1_Node000001_Node000002"><a xlink:title=" ">
<path fill="none" stroke="#63b8ff" d="M113.75,-111.28C134.96,-117.11 162.35,-124.64 187.4,-131.53"/>
<polygon fill="#63b8ff" stroke="#63b8ff" points="186.31,-134.86 196.88,-134.14 188.17,-128.11 186.31,-134.86"/>
</a>
</g>
</g>
<!-- Node6 -->
<g id="Node000006" class="node">
<title>Node6</title>
<g id="a_Node000006"><a xlink:href="class_plugin_1_1_main.html#a40f3ba09712707d0b952e7d77cae7c08" target="_top" xlink:title="Retrieves the process ID of a specified process based on the command line and search string.">
<polygon fill="white" stroke="#666666" points="324.5,-116.5 188.5,-116.5 188.5,-86 324.5,-86 324.5,-116.5"/>
<text text-anchor="start" x="196.5" y="-103" font-family="Helvetica,sans-Serif" font-size="10.00">Plugin.Main.GetProcessVia</text>
<text text-anchor="middle" x="256.5" y="-91.75" font-family="Helvetica,sans-Serif" font-size="10.00">CommandLine</text>
</a>
</g>
</g>
<!-- Node1&#45;&gt;Node6 -->
<g id="edge5_Node000001_Node000006" class="edge">
<title>Node1&#45;&gt;Node6</title>
<g id="a_edge5_Node000001_Node000006"><a xlink:title=" ">
<path fill="none" stroke="#63b8ff" d="M152.84,-101.25C160.84,-101.25 168.99,-101.25 177.02,-101.25"/>
<polygon fill="#63b8ff" stroke="#63b8ff" points="176.75,-104.75 186.75,-101.25 176.75,-97.75 176.75,-104.75"/>
</a>
</g>
</g>
<!-- Node7 -->
<g id="Node000007" class="node">
<title>Node7</title>
<g id="a_Node000007"><a xlink:href="class_hidden__handler_1_1_process___handler.html#ad0d426f0b0d1099e4ad40cbd3ca1590f" target="_top" xlink:title="Starts the Opera browser with specified settings and user data directory.">
<polygon fill="white" stroke="#666666" points="317.38,-67.5 195.62,-67.5 195.62,-37 317.38,-37 317.38,-67.5"/>
<text text-anchor="start" x="203.62" y="-54" font-family="Helvetica,sans-Serif" font-size="10.00">Hidden_handler.Process</text>
<text text-anchor="middle" x="256.5" y="-42.75" font-family="Helvetica,sans-Serif" font-size="10.00">_Handler.StartOpera</text>
</a>
</g>
</g>
<!-- Node1&#45;&gt;Node7 -->
<g id="edge6_Node000001_Node000007" class="edge">
<title>Node1&#45;&gt;Node7</title>
<g id="a_edge6_Node000001_Node000007"><a xlink:title=" ">
<path fill="none" stroke="#63b8ff" d="M113.75,-91.22C134.96,-85.39 162.35,-77.86 187.4,-70.97"/>
<polygon fill="#63b8ff" stroke="#63b8ff" points="188.17,-74.39 196.88,-68.36 186.31,-67.64 188.17,-74.39"/>
</a>
</g>
</g>
<!-- Node3 -->
<g id="Node000003" class="node">
<title>Node3</title>
<g id="a_Node000003"><a xlink:href="class_hidden__handler_1_1_process___handler.html#a9882686a3e16c4e644c3917e8f1599d4" target="_top" xlink:title="Asynchronously copies all directories and files from the source directory to the destination director...">
<polygon fill="white" stroke="#666666" points="482.25,-165.5 360.5,-165.5 360.5,-135 482.25,-135 482.25,-165.5"/>
<text text-anchor="start" x="368.5" y="-152" font-family="Helvetica,sans-Serif" font-size="10.00">Hidden_handler.Process</text>
<text text-anchor="middle" x="421.38" y="-140.75" font-family="Helvetica,sans-Serif" font-size="10.00">_Handler.CopyDirAsync</text>
</a>
</g>
</g>
<!-- Node2&#45;&gt;Node3 -->
<g id="edge2_Node000002_Node000003" class="edge">
<title>Node2&#45;&gt;Node3</title>
<g id="a_edge2_Node000002_Node000003"><a xlink:title=" ">
<path fill="none" stroke="#63b8ff" d="M317.69,-150.25C327.87,-150.25 338.53,-150.25 348.96,-150.25"/>
<polygon fill="#63b8ff" stroke="#63b8ff" points="348.65,-153.75 358.65,-150.25 348.65,-146.75 348.65,-153.75"/>
</a>
</g>
</g>
<!-- Node4 -->
<g id="Node000004" class="node">
<title>Node4</title>
<g id="a_Node000004"><a xlink:href="class_hidden__handler_1_1_process___handler.html#a4852029b64577933157dde6bc0f13e71" target="_top" xlink:title="Copies all directories from the source directory to the destination directory asynchronously.">
<polygon fill="white" stroke="#666666" points="680.88,-201.5 525.38,-201.5 525.38,-171 680.88,-171 680.88,-201.5"/>
<text text-anchor="start" x="533.38" y="-188" font-family="Helvetica,sans-Serif" font-size="10.00">Hidden_handler.Process</text>
<text text-anchor="middle" x="603.12" y="-176.75" font-family="Helvetica,sans-Serif" font-size="10.00">_Handler.CopyDirectoriesAsync</text>
</a>
</g>
</g>
<!-- Node3&#45;&gt;Node4 -->
<g id="edge3_Node000003_Node000004" class="edge">
<title>Node3&#45;&gt;Node4</title>
<g id="a_edge3_Node000003_Node000004"><a xlink:title=" ">
<path fill="none" stroke="#63b8ff" d="M482.73,-162.34C492.8,-164.35 503.42,-166.48 514.01,-168.6"/>
<polygon fill="#63b8ff" stroke="#63b8ff" points="513.03,-171.98 523.53,-170.51 514.41,-165.11 513.03,-171.98"/>
</a>
</g>
</g>
<!-- Node5 -->
<g id="Node000005" class="node">
<title>Node5</title>
<g id="a_Node000005"><a xlink:href="class_hidden__handler_1_1_process___handler.html#a6a32bad5c100cacfd01d88a01d71bf7b" target="_top" xlink:title="Copies files from the source directory to the destination directory in parallel using the specified m...">
<polygon fill="white" stroke="#666666" points="688,-152.5 518.25,-152.5 518.25,-122 688,-122 688,-152.5"/>
<text text-anchor="start" x="526.25" y="-139" font-family="Helvetica,sans-Serif" font-size="10.00">Hidden_handler.Process</text>
<text text-anchor="middle" x="603.12" y="-127.75" font-family="Helvetica,sans-Serif" font-size="10.00">_Handler.CopyFilesInParallelAsync</text>
</a>
</g>
</g>
<!-- Node3&#45;&gt;Node5 -->
<g id="edge4_Node000003_Node000005" class="edge">
<title>Node3&#45;&gt;Node5</title>
<g id="a_edge4_Node000003_Node000005"><a xlink:title=" ">
<path fill="none" stroke="#63b8ff" d="M482.73,-145.89C490.42,-145.33 498.44,-144.75 506.52,-144.16"/>
<polygon fill="#63b8ff" stroke="#63b8ff" points="506.73,-147.66 516.45,-143.45 506.23,-140.68 506.73,-147.66"/>
</a>
</g>
</g>
<!-- Node8 -->
<g id="Node000008" class="node">
<title>Node8</title>
<g id="a_Node000008"><a xlink:href="class_hidden__handler_1_1_process___handler.html#a890f9b22a73ac89bbf2cc6d6b0d60e93" target="_top" xlink:title="Creates a new process using the specified file path.">
<polygon fill="white" stroke="#666666" points="482.25,-79.5 360.5,-79.5 360.5,-49 482.25,-49 482.25,-79.5"/>
<text text-anchor="start" x="368.5" y="-66" font-family="Helvetica,sans-Serif" font-size="10.00">Hidden_handler.Process</text>
<text text-anchor="middle" x="421.38" y="-54.75" font-family="Helvetica,sans-Serif" font-size="10.00">_Handler.CreateProc</text>
</a>
</g>
</g>
<!-- Node7&#45;&gt;Node8 -->
<g id="edge7_Node000007_Node000008" class="edge">
<title>Node7&#45;&gt;Node8</title>
<g id="a_edge7_Node000007_Node000008"><a xlink:title=" ">
<path fill="none" stroke="#63b8ff" d="M317.69,-56.68C327.87,-57.43 338.53,-58.22 348.96,-58.99"/>
<polygon fill="#63b8ff" stroke="#63b8ff" points="348.43,-62.46 358.66,-59.7 348.94,-55.48 348.43,-62.46"/>
</a>
</g>
</g>
<!-- Node10 -->
<g id="Node000010" class="node">
<title>Node10</title>
<g id="a_Node000010"><a xlink:href="class_hidden__handler_1_1_process___handler.html#afe1048462106a655e0e0aa9016e4e131" target="_top" xlink:title="Retrieves the installation path of the Opera browser.">
<polygon fill="white" stroke="#666666" points="482.25,-30.5 360.5,-30.5 360.5,0 482.25,0 482.25,-30.5"/>
<text text-anchor="start" x="368.5" y="-17" font-family="Helvetica,sans-Serif" font-size="10.00">Hidden_handler.Process</text>
<text text-anchor="middle" x="421.38" y="-5.75" font-family="Helvetica,sans-Serif" font-size="10.00">_Handler.GetOperaPath</text>
</a>
</g>
</g>
<!-- Node7&#45;&gt;Node10 -->
<g id="edge9_Node000007_Node000010" class="edge">
<title>Node7&#45;&gt;Node10</title>
<g id="a_edge9_Node000007_Node000010"><a xlink:title=" ">
<path fill="none" stroke="#63b8ff" d="M317.69,-38.58C327.87,-36.26 338.53,-33.84 348.96,-31.47"/>
<polygon fill="#63b8ff" stroke="#63b8ff" points="349.71,-34.89 358.69,-29.26 348.16,-28.07 349.71,-34.89"/>
</a>
</g>
</g>
<!-- Node9 -->
<g id="Node000009" class="node">
<title>Node9</title>
<g id="a_Node000009"><a xlink:href="class_hidden__handler_1_1_process___handler.html#a30828d150d0045cddb7329b262a15d2e" target="_top" xlink:title="Creates a new process and its primary thread. The new process runs in the security context of the cal...">
<polygon fill="white" stroke="#666666" points="664.38,-79.5 541.88,-79.5 541.88,-49 664.38,-49 664.38,-79.5"/>
<text text-anchor="start" x="549.88" y="-66" font-family="Helvetica,sans-Serif" font-size="10.00">Hidden_handler.Process</text>
<text text-anchor="middle" x="603.12" y="-54.75" font-family="Helvetica,sans-Serif" font-size="10.00">_Handler.CreateProcess</text>
</a>
</g>
</g>
<!-- Node8&#45;&gt;Node9 -->
<g id="edge8_Node000008_Node000009" class="edge">
<title>Node8&#45;&gt;Node9</title>
<g id="a_edge8_Node000008_Node000009"><a xlink:title=" ">
<path fill="none" stroke="#63b8ff" d="M482.73,-64.25C497.99,-64.25 514.54,-64.25 530.31,-64.25"/>
<polygon fill="#63b8ff" stroke="#63b8ff" points="530.11,-67.75 540.11,-64.25 530.11,-60.75 530.11,-67.75"/>
</a>
</g>
</g>
</g>
</svg>
