<?xml version="1.0" encoding="UTF-8" standalone="no"?>
<!DOCTYPE svg PUBLIC "-//W3C//DTD SVG 1.1//EN"
 "http://www.w3.org/Graphics/SVG/1.1/DTD/svg11.dtd">
<!-- Generated by graphviz version 10.0.1 (20240210.2158)
 -->
<!-- Title: NAudio.Wave.SilenceProvider Pages: 1 -->
<svg width="149pt" height="157pt"
 viewBox="0.00 0.00 149.00 157.00" xmlns="http://www.w3.org/2000/svg" xmlns:xlink="http://www.w3.org/1999/xlink">
<g id="graph0" class="graph" transform="scale(1 1) rotate(0) translate(4 153)">
<title>NAudio.Wave.SilenceProvider</title>
<!-- Node1 -->
<g id="Node000001" class="node">
<title>Node1</title>
<g id="a_Node000001"><a xlink:title="Silence producing wave provider Useful for playing silence when doing a WASAPI Loopback Capture.">
<polygon fill="#999999" stroke="none" points="141,-64 0,-64 0,0 141,0 141,-64"/>
<text text-anchor="start" x="4.88" y="-50.5" font-family="Helvetica,sans-Serif" font-size="10.00">NAudio.Wave.SilenceProvider</text>
<text text-anchor="start" x="16" y="-35.5" font-family="Helvetica,sans-Serif" font-size="10.00">+</text>
<text text-anchor="start" x="38" y="-35.5" font-family="Helvetica,sans-Serif" font-size="10.00">WaveFormat</text>
<text text-anchor="start" x="16" y="-20.5" font-family="Helvetica,sans-Serif" font-size="10.00">+</text>
<text text-anchor="start" x="38" y="-20.5" font-family="Helvetica,sans-Serif" font-size="10.00">SilenceProvider()</text>
<text text-anchor="start" x="16" y="-5.5" font-family="Helvetica,sans-Serif" font-size="10.00">+</text>
<text text-anchor="start" x="38" y="-5.5" font-family="Helvetica,sans-Serif" font-size="10.00">Read()</text>
<polygon fill="#666666" stroke="#666666" points="0,-47 0,-47 141,-47 141,-47 0,-47"/>
<polygon fill="#666666" stroke="#666666" points="0,-32 0,-32 36,-32 36,-32 0,-32"/>
<polygon fill="#666666" stroke="#666666" points="36,-32 36,-32 141,-32 141,-32 36,-32"/>
<polygon fill="none" stroke="#666666" points="0,0 0,-64 141,-64 141,0 0,0"/>
</a>
</g>
</g>
<!-- Node2 -->
<g id="Node000002" class="node">
<title>Node2</title>
<g id="a_Node000002"><a xlink:href="interface_n_audio_1_1_wave_1_1_i_wave_provider.html" target="_top" xlink:title="Generic interface for all WaveProviders.">
<polygon fill="white" stroke="none" points="107,-149 34,-149 34,-100 107,-100 107,-149"/>
<text text-anchor="start" x="38.62" y="-135.5" font-family="Helvetica,sans-Serif" font-size="10.00">IWaveProvider</text>
<text text-anchor="start" x="38" y="-120.5" font-family="Helvetica,sans-Serif" font-size="10.00">+</text>
<text text-anchor="start" x="48" y="-120.5" font-family="Helvetica,sans-Serif" font-size="10.00">WaveFormat</text>
<text text-anchor="start" x="38" y="-105.5" font-family="Helvetica,sans-Serif" font-size="10.00">+</text>
<text text-anchor="start" x="48" y="-105.5" font-family="Helvetica,sans-Serif" font-size="10.00">Read()</text>
<polygon fill="#666666" stroke="#666666" points="34,-132 34,-132 107,-132 107,-132 34,-132"/>
<polygon fill="#666666" stroke="#666666" points="34,-117 34,-117 46,-117 46,-117 34,-117"/>
<polygon fill="#666666" stroke="#666666" points="46,-117 46,-117 107,-117 107,-117 46,-117"/>
<polygon fill="none" stroke="#666666" points="34,-100 34,-149 107,-149 107,-100 34,-100"/>
</a>
</g>
</g>
<!-- Node2&#45;&gt;Node1 -->
<g id="edge1_Node000001_Node000002" class="edge">
<title>Node2&#45;&gt;Node1</title>
<g id="a_edge1_Node000001_Node000002"><a xlink:title=" ">
<path fill="none" stroke="#63b8ff" d="M70.5,-88.93C70.5,-80.64 70.5,-71.84 70.5,-63.74"/>
<polygon fill="none" stroke="#63b8ff" points="67,-88.68 70.5,-98.68 74,-88.68 67,-88.68"/>
</a>
</g>
</g>
</g>
</svg>
