<?xml version="1.0" encoding="UTF-8" standalone="no"?>
<!DOCTYPE svg PUBLIC "-//W3C//DTD SVG 1.1//EN"
 "http://www.w3.org/Graphics/SVG/1.1/DTD/svg11.dtd">
<!-- Generated by graphviz version 10.0.1 (20240210.2158)
 -->
<!-- Title: NAudio.Wave.WaveFormatConversionProvider Pages: 1 -->
<svg width="947pt" height="1221pt"
 viewBox="0.00 0.00 946.50 1221.25" xmlns="http://www.w3.org/2000/svg" xmlns:xlink="http://www.w3.org/1999/xlink">
<g id="graph0" class="graph" transform="scale(1 1) rotate(0) translate(4 1217.25)">
<title>NAudio.Wave.WaveFormatConversionProvider</title>
<!-- Node1 -->
<g id="Node000001" class="node">
<title>Node1</title>
<g id="a_Node000001"><a xlink:title="IWaveProvider that passes through an ACM Codec.">
<polygon fill="#999999" stroke="none" points="562.5,-135 384.5,-135 384.5,0 562.5,0 562.5,-135"/>
<text text-anchor="start" x="389.5" y="-121.5" font-family="Helvetica,sans-Serif" font-size="10.00">NAudio.Wave.WaveFormatConversion</text>
<text text-anchor="start" x="455.5" y="-110.25" font-family="Helvetica,sans-Serif" font-size="10.00">Provider</text>
<text text-anchor="start" x="390" y="-95.5" font-family="Helvetica,sans-Serif" font-size="10.00">+</text>
<text text-anchor="start" x="401.5" y="-95.5" font-family="Helvetica,sans-Serif" font-size="10.00">WaveFormat</text>
<text text-anchor="start" x="390" y="-80.5" font-family="Helvetica,sans-Serif" font-size="10.00">+</text>
<text text-anchor="start" x="401.5" y="-80.5" font-family="Helvetica,sans-Serif" font-size="10.00">WaveFormatConversionProvider()</text>
<text text-anchor="start" x="390" y="-65.5" font-family="Helvetica,sans-Serif" font-size="10.00">+</text>
<text text-anchor="start" x="401.5" y="-65.5" font-family="Helvetica,sans-Serif" font-size="10.00">Reposition()</text>
<text text-anchor="start" x="390" y="-50.5" font-family="Helvetica,sans-Serif" font-size="10.00">+</text>
<text text-anchor="start" x="401.5" y="-50.5" font-family="Helvetica,sans-Serif" font-size="10.00">Read()</text>
<text text-anchor="start" x="390" y="-35.5" font-family="Helvetica,sans-Serif" font-size="10.00">+</text>
<text text-anchor="start" x="401.5" y="-35.5" font-family="Helvetica,sans-Serif" font-size="10.00">Dispose()</text>
<text text-anchor="start" x="390.38" y="-20.5" font-family="Helvetica,sans-Serif" font-size="10.00">#</text>
<text text-anchor="start" x="401.5" y="-20.5" font-family="Helvetica,sans-Serif" font-size="10.00">Dispose()</text>
<text text-anchor="start" x="391.5" y="-5.5" font-family="Helvetica,sans-Serif" font-size="10.00">&#45;</text>
<text text-anchor="start" x="401.5" y="-5.5" font-family="Helvetica,sans-Serif" font-size="10.00">~WaveFormatConversionProvider()</text>
<polygon fill="#666666" stroke="#666666" points="384.5,-107 384.5,-107 562.5,-107 562.5,-107 384.5,-107"/>
<polygon fill="#666666" stroke="#666666" points="384.5,-92 384.5,-92 399.5,-92 399.5,-92 384.5,-92"/>
<polygon fill="#666666" stroke="#666666" points="399.5,-92 399.5,-92 562.5,-92 562.5,-92 399.5,-92"/>
<polygon fill="none" stroke="#666666" points="384.5,0 384.5,-135 562.5,-135 562.5,0 384.5,0"/>
</a>
</g>
</g>
<!-- Node2 -->
<g id="Node000002" class="node">
<title>Node2</title>
<g id="a_Node000002"><a xlink:href="interface_n_audio_1_1_wave_1_1_i_wave_provider.html" target="_top" xlink:title="Generic interface for all WaveProviders.">
<polygon fill="white" stroke="none" points="73,-319.25 0,-319.25 0,-270.25 73,-270.25 73,-319.25"/>
<text text-anchor="start" x="4.62" y="-305.75" font-family="Helvetica,sans-Serif" font-size="10.00">IWaveProvider</text>
<text text-anchor="start" x="4" y="-290.75" font-family="Helvetica,sans-Serif" font-size="10.00">+</text>
<text text-anchor="start" x="14" y="-290.75" font-family="Helvetica,sans-Serif" font-size="10.00">WaveFormat</text>
<text text-anchor="start" x="4" y="-275.75" font-family="Helvetica,sans-Serif" font-size="10.00">+</text>
<text text-anchor="start" x="14" y="-275.75" font-family="Helvetica,sans-Serif" font-size="10.00">Read()</text>
<polygon fill="#666666" stroke="#666666" points="0,-302.25 0,-302.25 73,-302.25 73,-302.25 0,-302.25"/>
<polygon fill="#666666" stroke="#666666" points="0,-287.25 0,-287.25 12,-287.25 12,-287.25 0,-287.25"/>
<polygon fill="#666666" stroke="#666666" points="12,-287.25 12,-287.25 73,-287.25 73,-287.25 12,-287.25"/>
<polygon fill="none" stroke="#666666" points="0,-270.25 0,-319.25 73,-319.25 73,-270.25 0,-270.25"/>
</a>
</g>
</g>
<!-- Node2&#45;&gt;Node1 -->
<g id="edge1_Node000001_Node000002" class="edge">
<title>Node2&#45;&gt;Node1</title>
<g id="a_edge1_Node000001_Node000002"><a xlink:title=" ">
<path fill="none" stroke="#63b8ff" d="M39.65,-259.34C44.48,-227.12 56.68,-180 87.5,-153 131.04,-114.86 284.9,-90.29 384.72,-77.97"/>
<polygon fill="none" stroke="#63b8ff" points="36.22,-258.6 38.38,-268.97 43.16,-259.51 36.22,-258.6"/>
</a>
</g>
</g>
<!-- Node3 -->
<g id="Node000003" class="node">
<title>Node3</title>
<g id="a_Node000003"><a xlink:href="class_i_disposable.html" target="_top" xlink:title=" ">
<polygon fill="white" stroke="none" points="162,-907 101,-907 101,-858 162,-858 162,-907"/>
<text text-anchor="start" x="105.62" y="-893.5" font-family="Helvetica,sans-Serif" font-size="10.00">IDisposable</text>
<text text-anchor="start" x="130" y="-878.5" font-family="Helvetica,sans-Serif" font-size="10.00"> </text>
<text text-anchor="start" x="130" y="-863.5" font-family="Helvetica,sans-Serif" font-size="10.00"> </text>
<polygon fill="#666666" stroke="#666666" points="101,-890 101,-890 162,-890 162,-890 101,-890"/>
<polygon fill="#666666" stroke="#666666" points="101,-875 101,-875 162,-875 162,-875 101,-875"/>
<polygon fill="none" stroke="#666666" points="101,-858 101,-907 162,-907 162,-858 101,-858"/>
</a>
</g>
</g>
<!-- Node3&#45;&gt;Node1 -->
<g id="edge2_Node000001_Node000003" class="edge">
<title>Node3&#45;&gt;Node1</title>
<g id="a_edge2_Node000001_Node000003"><a xlink:title=" ">
<path fill="none" stroke="#63b8ff" d="M124,-847.32C101.55,-735.09 47.05,-374.08 226.5,-182.25 268.75,-137.08 332.44,-108.36 384.56,-91.07"/>
<polygon fill="none" stroke="#63b8ff" points="120.51,-847.71 125.95,-856.8 127.36,-846.3 120.51,-847.71"/>
</a>
</g>
</g>
<!-- Node4 -->
<g id="Node000004" class="node">
<title>Node4</title>
<g id="a_Node000004"><a xlink:href="class_n_audio_1_1_wave_1_1_compression_1_1_acm_stream.html" target="_top" xlink:title="AcmStream encapsulates an Audio Compression Manager Stream used to convert audio from one format to a...">
<polygon fill="white" stroke="none" points="369,-407.25 236,-407.25 236,-182.25 369,-182.25 369,-407.25"/>
<text text-anchor="start" x="240.62" y="-393.75" font-family="Helvetica,sans-Serif" font-size="10.00">NAudio.Wave.Compression.</text>
<text text-anchor="start" x="276.62" y="-382.5" font-family="Helvetica,sans-Serif" font-size="10.00">AcmStream</text>
<text text-anchor="start" x="245.5" y="-367.75" font-family="Helvetica,sans-Serif" font-size="10.00">+</text>
<text text-anchor="start" x="261" y="-367.75" font-family="Helvetica,sans-Serif" font-size="10.00">SourceBuffer</text>
<text text-anchor="start" x="245.5" y="-352.75" font-family="Helvetica,sans-Serif" font-size="10.00">+</text>
<text text-anchor="start" x="261" y="-352.75" font-family="Helvetica,sans-Serif" font-size="10.00">DestBuffer</text>
<text text-anchor="start" x="245.5" y="-337.75" font-family="Helvetica,sans-Serif" font-size="10.00">+</text>
<text text-anchor="start" x="261" y="-337.75" font-family="Helvetica,sans-Serif" font-size="10.00">AcmStream()</text>
<text text-anchor="start" x="245.5" y="-322.75" font-family="Helvetica,sans-Serif" font-size="10.00">+</text>
<text text-anchor="start" x="261" y="-322.75" font-family="Helvetica,sans-Serif" font-size="10.00">AcmStream()</text>
<text text-anchor="start" x="245.5" y="-307.75" font-family="Helvetica,sans-Serif" font-size="10.00">+</text>
<text text-anchor="start" x="261" y="-307.75" font-family="Helvetica,sans-Serif" font-size="10.00">SourceToDest()</text>
<text text-anchor="start" x="245.5" y="-292.75" font-family="Helvetica,sans-Serif" font-size="10.00">+</text>
<text text-anchor="start" x="261" y="-292.75" font-family="Helvetica,sans-Serif" font-size="10.00">DestToSource()</text>
<text text-anchor="start" x="245.5" y="-277.75" font-family="Helvetica,sans-Serif" font-size="10.00">+</text>
<text text-anchor="start" x="261" y="-277.75" font-family="Helvetica,sans-Serif" font-size="10.00">Reposition()</text>
<text text-anchor="start" x="245.5" y="-262.75" font-family="Helvetica,sans-Serif" font-size="10.00">+</text>
<text text-anchor="start" x="261" y="-262.75" font-family="Helvetica,sans-Serif" font-size="10.00">Convert()</text>
<text text-anchor="start" x="245.5" y="-247.75" font-family="Helvetica,sans-Serif" font-size="10.00">+</text>
<text text-anchor="start" x="261" y="-247.75" font-family="Helvetica,sans-Serif" font-size="10.00">Convert()</text>
<text text-anchor="start" x="245.5" y="-232.75" font-family="Helvetica,sans-Serif" font-size="10.00">+</text>
<text text-anchor="start" x="261" y="-232.75" font-family="Helvetica,sans-Serif" font-size="10.00">Dispose()</text>
<text text-anchor="start" x="245.5" y="-217.75" font-family="Helvetica,sans-Serif" font-size="10.00">+</text>
<text text-anchor="start" x="261" y="-217.75" font-family="Helvetica,sans-Serif" font-size="10.00">SuggestPcmFormat()</text>
<text text-anchor="start" x="245.88" y="-202.75" font-family="Helvetica,sans-Serif" font-size="10.00">#</text>
<text text-anchor="start" x="261" y="-202.75" font-family="Helvetica,sans-Serif" font-size="10.00">Dispose()</text>
<text text-anchor="start" x="247" y="-187.75" font-family="Helvetica,sans-Serif" font-size="10.00">&#45;</text>
<text text-anchor="start" x="261" y="-187.75" font-family="Helvetica,sans-Serif" font-size="10.00">~AcmStream()</text>
<polygon fill="#666666" stroke="#666666" points="236,-379.25 236,-379.25 369,-379.25 369,-379.25 236,-379.25"/>
<polygon fill="#666666" stroke="#666666" points="236,-349.25 236,-349.25 259,-349.25 259,-349.25 236,-349.25"/>
<polygon fill="#666666" stroke="#666666" points="259,-349.25 259,-349.25 369,-349.25 369,-349.25 259,-349.25"/>
<polygon fill="none" stroke="#666666" points="236,-182.25 236,-407.25 369,-407.25 369,-182.25 236,-182.25"/>
</a>
</g>
</g>
<!-- Node3&#45;&gt;Node4 -->
<g id="edge4_Node000004_Node000003" class="edge">
<title>Node3&#45;&gt;Node4</title>
<g id="a_edge4_Node000004_Node000003"><a xlink:title=" ">
<path fill="none" stroke="#63b8ff" d="M127.47,-847.1C119.76,-768.26 109.18,-570.12 176.5,-425.25 190.18,-395.81 213.4,-369 236.2,-347.52"/>
<polygon fill="none" stroke="#63b8ff" points="123.96,-847.19 128.47,-856.78 130.92,-846.47 123.96,-847.19"/>
</a>
</g>
</g>
<!-- Node6 -->
<g id="Node000006" class="node">
<title>Node6</title>
<g id="a_Node000006"><a xlink:href="class_n_audio_1_1_wave_1_1_compression_1_1_acm_stream_header.html" target="_top" xlink:title=" ">
<polygon fill="white" stroke="none" points="369,-634.5 236,-634.5 236,-454.5 369,-454.5 369,-634.5"/>
<text text-anchor="start" x="240.62" y="-621" font-family="Helvetica,sans-Serif" font-size="10.00">NAudio.Wave.Compression.</text>
<text text-anchor="start" x="260.88" y="-609.75" font-family="Helvetica,sans-Serif" font-size="10.00">AcmStreamHeader</text>
<text text-anchor="start" x="245" y="-595" font-family="Helvetica,sans-Serif" font-size="10.00">+</text>
<text text-anchor="start" x="260" y="-595" font-family="Helvetica,sans-Serif" font-size="10.00">SourceBuffer</text>
<text text-anchor="start" x="245" y="-580" font-family="Helvetica,sans-Serif" font-size="10.00">+</text>
<text text-anchor="start" x="260" y="-580" font-family="Helvetica,sans-Serif" font-size="10.00">DestBuffer</text>
<text text-anchor="start" x="245" y="-565" font-family="Helvetica,sans-Serif" font-size="10.00">+</text>
<text text-anchor="start" x="260" y="-565" font-family="Helvetica,sans-Serif" font-size="10.00">AcmStreamHeader()</text>
<text text-anchor="start" x="245" y="-550" font-family="Helvetica,sans-Serif" font-size="10.00">+</text>
<text text-anchor="start" x="260" y="-550" font-family="Helvetica,sans-Serif" font-size="10.00">Reposition()</text>
<text text-anchor="start" x="245" y="-535" font-family="Helvetica,sans-Serif" font-size="10.00">+</text>
<text text-anchor="start" x="260" y="-535" font-family="Helvetica,sans-Serif" font-size="10.00">Convert()</text>
<text text-anchor="start" x="245" y="-520" font-family="Helvetica,sans-Serif" font-size="10.00">+</text>
<text text-anchor="start" x="260" y="-520" font-family="Helvetica,sans-Serif" font-size="10.00">Dispose()</text>
<text text-anchor="start" x="245.38" y="-505" font-family="Helvetica,sans-Serif" font-size="10.00">#</text>
<text text-anchor="start" x="260" y="-505" font-family="Helvetica,sans-Serif" font-size="10.00">Dispose()</text>
<text text-anchor="start" x="246.5" y="-490" font-family="Helvetica,sans-Serif" font-size="10.00">&#45;</text>
<text text-anchor="start" x="260" y="-490" font-family="Helvetica,sans-Serif" font-size="10.00">Prepare()</text>
<text text-anchor="start" x="246.5" y="-475" font-family="Helvetica,sans-Serif" font-size="10.00">&#45;</text>
<text text-anchor="start" x="260" y="-475" font-family="Helvetica,sans-Serif" font-size="10.00">Unprepare()</text>
<text text-anchor="start" x="246.5" y="-460" font-family="Helvetica,sans-Serif" font-size="10.00">&#45;</text>
<text text-anchor="start" x="260" y="-460" font-family="Helvetica,sans-Serif" font-size="10.00">~AcmStreamHeader()</text>
<polygon fill="#666666" stroke="#666666" points="236,-606.5 236,-606.5 369,-606.5 369,-606.5 236,-606.5"/>
<polygon fill="#666666" stroke="#666666" points="236,-576.5 236,-576.5 258,-576.5 258,-576.5 236,-576.5"/>
<polygon fill="#666666" stroke="#666666" points="258,-576.5 258,-576.5 369,-576.5 369,-576.5 258,-576.5"/>
<polygon fill="none" stroke="#666666" points="236,-454.5 236,-634.5 369,-634.5 369,-454.5 236,-454.5"/>
</a>
</g>
</g>
<!-- Node3&#45;&gt;Node6 -->
<g id="edge7_Node000006_Node000003" class="edge">
<title>Node3&#45;&gt;Node6</title>
<g id="a_edge7_Node000006_Node000003"><a xlink:title=" ">
<path fill="none" stroke="#63b8ff" d="M130.27,-846.85C130.13,-799.66 135.5,-714.03 171.5,-652.5 187.15,-625.76 212.14,-602.89 236.13,-585.24"/>
<polygon fill="none" stroke="#63b8ff" points="126.77,-846.79 130.39,-856.75 133.77,-846.7 126.77,-846.79"/>
</a>
</g>
</g>
<!-- Node4&#45;&gt;Node1 -->
<g id="edge3_Node000001_Node000004" class="edge">
<title>Node4&#45;&gt;Node1</title>
<g id="a_edge3_Node000001_Node000004"><a xlink:title=" ">
<path fill="none" stroke="#63b8ff" d="M368.86,-206.34C384.21,-186.12 400.42,-164.76 415.39,-145.05"/>
<polygon fill="none" stroke="#63b8ff" points="415.29,-145.18 415.73,-137.98 422.55,-135.62 422.1,-142.82 415.29,-145.18"/>
</a>
</g>
<text text-anchor="middle" x="450.88" y="-154.75" font-family="Helvetica,sans-Serif" font-size="10.00" fill="grey"> &#45;conversionStream</text>
</g>
<!-- Node5 -->
<g id="Node000005" class="node">
<title>Node5</title>
<g id="a_Node000005"><a xlink:title=" ">
<polygon fill="white" stroke="none" points="253.5,-1213.25 219.5,-1213.25 219.5,-1164.25 253.5,-1164.25 253.5,-1213.25"/>
<text text-anchor="start" x="224.5" y="-1199.75" font-family="Helvetica,sans-Serif" font-size="10.00">IntPtr</text>
<text text-anchor="start" x="235" y="-1184.75" font-family="Helvetica,sans-Serif" font-size="10.00"> </text>
<text text-anchor="start" x="235" y="-1169.75" font-family="Helvetica,sans-Serif" font-size="10.00"> </text>
<polygon fill="#666666" stroke="#666666" points="219.5,-1196.25 219.5,-1196.25 253.5,-1196.25 253.5,-1196.25 219.5,-1196.25"/>
<polygon fill="#666666" stroke="#666666" points="219.5,-1181.25 219.5,-1181.25 253.5,-1181.25 253.5,-1181.25 219.5,-1181.25"/>
<polygon fill="none" stroke="#666666" points="219.5,-1164.25 219.5,-1213.25 253.5,-1213.25 253.5,-1164.25 219.5,-1164.25"/>
</a>
</g>
</g>
<!-- Node5&#45;&gt;Node4 -->
<g id="edge5_Node000004_Node000005" class="edge">
<title>Node5&#45;&gt;Node4</title>
<g id="a_edge5_Node000004_Node000005"><a xlink:title=" ">
<path fill="none" stroke="#63b8ff" d="M226.27,-1164.39C224.06,-1158.56 221.95,-1152.25 220.5,-1146.25 212.69,-1113.99 215.31,-1105.07 212.5,-1072 189.25,-798.47 140.18,-715.09 226.5,-454.5 230.39,-442.75 234.95,-430.75 239.88,-418.86"/>
<polygon fill="none" stroke="#63b8ff" points="239.86,-418.9 238.53,-411.82 244.56,-407.86 245.89,-414.95 239.86,-418.9"/>
</a>
</g>
<text text-anchor="middle" x="213.38" y="-665.5" font-family="Helvetica,sans-Serif" font-size="10.00" fill="grey"> &#45;driverHandle</text>
<text text-anchor="middle" x="213.38" y="-654.25" font-family="Helvetica,sans-Serif" font-size="10.00" fill="grey">&#45;streamHandle</text>
</g>
<!-- Node5&#45;&gt;Node6 -->
<g id="edge13_Node000006_Node000005" class="edge">
<title>Node5&#45;&gt;Node6</title>
<g id="a_edge13_Node000006_Node000005"><a xlink:title=" ">
<path fill="none" stroke="#63b8ff" d="M232.73,-1164.45C221.94,-1092.5 194.85,-868.15 244.75,-693 247.3,-684.04 251.5,-683.42 255.5,-675 259.88,-665.78 264.1,-656.04 268.1,-646.21"/>
<polygon fill="none" stroke="#63b8ff" points="268.1,-646.19 266.6,-639.14 272.53,-635.03 274.03,-642.09 268.1,-646.19"/>
</a>
</g>
<text text-anchor="middle" x="278.88" y="-878.62" font-family="Helvetica,sans-Serif" font-size="10.00" fill="grey"> &#45;streamHandle</text>
</g>
<!-- Node7 -->
<g id="Node000007" class="node">
<title>Node7</title>
<g id="a_Node000007"><a xlink:href="class_n_audio_1_1_wave_1_1_compression_1_1_acm_stream_header_struct.html" target="_top" xlink:title="Interop structure for ACM stream headers. ACMSTREAMHEADER http://msdn.microsoft.com/en&#45;us/library/dd7...">
<polygon fill="white" stroke="none" points="454,-912.5 321,-912.5 321,-852.5 454,-852.5 454,-912.5"/>
<text text-anchor="start" x="325.62" y="-899" font-family="Helvetica,sans-Serif" font-size="10.00">NAudio.Wave.Compression.</text>
<text text-anchor="start" x="332.75" y="-887.75" font-family="Helvetica,sans-Serif" font-size="10.00">AcmStreamHeaderStruct</text>
<text text-anchor="start" x="386" y="-873" font-family="Helvetica,sans-Serif" font-size="10.00"> </text>
<text text-anchor="start" x="386" y="-858" font-family="Helvetica,sans-Serif" font-size="10.00"> </text>
<polygon fill="#666666" stroke="#666666" points="321,-884.5 321,-884.5 454,-884.5 454,-884.5 321,-884.5"/>
<polygon fill="#666666" stroke="#666666" points="321,-869.5 321,-869.5 454,-869.5 454,-869.5 321,-869.5"/>
<polygon fill="none" stroke="#666666" points="321,-852.5 321,-912.5 454,-912.5 454,-852.5 321,-852.5"/>
</a>
</g>
</g>
<!-- Node5&#45;&gt;Node7 -->
<g id="edge11_Node000007_Node000005" class="edge">
<title>Node5&#45;&gt;Node7</title>
<g id="a_edge11_Node000007_Node000005"><a xlink:title=" ">
<path fill="none" stroke="#63b8ff" d="M247.73,-1164.35C257.94,-1143.98 274.01,-1114.02 291.25,-1090 297.53,-1081.24 301.7,-1081.09 307.5,-1072 337.63,-1024.77 360.98,-964.27 374.48,-924.73"/>
<polygon fill="none" stroke="#63b8ff" points="374.5,-924.65 372.61,-917.7 378.3,-913.27 380.2,-920.23 374.5,-924.65"/>
</a>
</g>
<text text-anchor="middle" x="337.62" y="-1136.75" font-family="Helvetica,sans-Serif" font-size="10.00" fill="grey"> +destBufferPointer</text>
<text text-anchor="middle" x="337.62" y="-1125.5" font-family="Helvetica,sans-Serif" font-size="10.00" fill="grey">+destUserData</text>
<text text-anchor="middle" x="337.62" y="-1114.25" font-family="Helvetica,sans-Serif" font-size="10.00" fill="grey">+sourceBufferPointer</text>
<text text-anchor="middle" x="337.62" y="-1103" font-family="Helvetica,sans-Serif" font-size="10.00" fill="grey">+sourceUserData</text>
<text text-anchor="middle" x="337.62" y="-1091.75" font-family="Helvetica,sans-Serif" font-size="10.00" fill="grey">+userData</text>
</g>
<!-- Node6&#45;&gt;Node4 -->
<g id="edge6_Node000004_Node000006" class="edge">
<title>Node6&#45;&gt;Node4</title>
<g id="a_edge6_Node000004_Node000006"><a xlink:title=" ">
<path fill="none" stroke="#63b8ff" d="M302.5,-454.76C302.5,-443.44 302.5,-431.69 302.5,-419.95"/>
<polygon fill="none" stroke="#63b8ff" points="302.5,-420.12 298.5,-414.12 302.5,-408.12 306.5,-414.12 302.5,-420.12"/>
</a>
</g>
<text text-anchor="middle" x="336.25" y="-427" font-family="Helvetica,sans-Serif" font-size="10.00" fill="grey"> &#45;streamHeader</text>
</g>
<!-- Node7&#45;&gt;Node6 -->
<g id="edge8_Node000006_Node000007" class="edge">
<title>Node7&#45;&gt;Node6</title>
<g id="a_edge8_Node000006_Node000007"><a xlink:title=" ">
<path fill="none" stroke="#63b8ff" d="M371.88,-852.82C351.64,-813.9 317.34,-741.54 304,-675 302.21,-666.06 300.94,-656.7 300.09,-647.28"/>
<polygon fill="none" stroke="#63b8ff" points="300.09,-647.3 295.67,-641.6 299.23,-635.33 303.65,-641.02 300.09,-647.3"/>
</a>
</g>
<text text-anchor="middle" x="338.25" y="-659.88" font-family="Helvetica,sans-Serif" font-size="10.00" fill="grey"> &#45;streamHeader</text>
</g>
<!-- Node8 -->
<g id="Node000008" class="node">
<title>Node8</title>
<g id="a_Node000008"><a xlink:title=" ">
<polygon fill="white" stroke="none" points="611.5,-1213.25 591.5,-1213.25 591.5,-1164.25 611.5,-1164.25 611.5,-1213.25"/>
<text text-anchor="start" x="596.25" y="-1199.75" font-family="Helvetica,sans-Serif" font-size="10.00">int</text>
<text text-anchor="start" x="600" y="-1184.75" font-family="Helvetica,sans-Serif" font-size="10.00"> </text>
<text text-anchor="start" x="600" y="-1169.75" font-family="Helvetica,sans-Serif" font-size="10.00"> </text>
<polygon fill="#666666" stroke="#666666" points="591.5,-1196.25 591.5,-1196.25 611.5,-1196.25 611.5,-1196.25 591.5,-1196.25"/>
<polygon fill="#666666" stroke="#666666" points="591.5,-1181.25 591.5,-1181.25 611.5,-1181.25 611.5,-1181.25 591.5,-1181.25"/>
<polygon fill="none" stroke="#666666" points="591.5,-1164.25 591.5,-1213.25 611.5,-1213.25 611.5,-1164.25 591.5,-1164.25"/>
</a>
</g>
</g>
<!-- Node8&#45;&gt;Node1 -->
<g id="edge20_Node000001_Node000008" class="edge">
<title>Node8&#45;&gt;Node1</title>
<g id="a_edge20_Node000001_Node000008"><a xlink:title=" ">
<path fill="none" stroke="#63b8ff" d="M601.5,-1164.47C601.5,-1113.53 601.5,-988.35 601.5,-883.5 601.5,-883.5 601.5,-883.5 601.5,-293.75 601.5,-239.22 572.8,-185.83 542.58,-144.72"/>
<polygon fill="none" stroke="#63b8ff" points="542.66,-144.83 535.85,-142.46 535.42,-135.26 542.23,-137.63 542.66,-144.83"/>
</a>
</g>
<text text-anchor="middle" x="658.88" y="-557.5" font-family="Helvetica,sans-Serif" font-size="10.00" fill="grey"> &#45;leftoverDestBytes</text>
<text text-anchor="middle" x="658.88" y="-546.25" font-family="Helvetica,sans-Serif" font-size="10.00" fill="grey">&#45;leftoverDestOffset</text>
<text text-anchor="middle" x="658.88" y="-535" font-family="Helvetica,sans-Serif" font-size="10.00" fill="grey">&#45;leftoverSourceBytes</text>
<text text-anchor="middle" x="658.88" y="-523.75" font-family="Helvetica,sans-Serif" font-size="10.00" fill="grey">&#45;preferredSourceReadSize</text>
</g>
<!-- Node8&#45;&gt;Node7 -->
<g id="edge9_Node000007_Node000008" class="edge">
<title>Node8&#45;&gt;Node7</title>
<g id="a_edge9_Node000007_Node000008"><a xlink:title=" ">
<path fill="none" stroke="#63b8ff" d="M591.63,-1187.46C567.89,-1186.21 507.08,-1179.74 473.5,-1146.25 457.42,-1130.22 418.13,-994.33 398.72,-924.53"/>
<polygon fill="none" stroke="#63b8ff" points="398.78,-924.75 393.32,-920.03 395.58,-913.18 401.03,-917.9 398.78,-924.75"/>
</a>
</g>
<text text-anchor="middle" x="530.5" y="-1136.75" font-family="Helvetica,sans-Serif" font-size="10.00" fill="grey"> +cbStruct</text>
<text text-anchor="middle" x="530.5" y="-1125.5" font-family="Helvetica,sans-Serif" font-size="10.00" fill="grey">+destBufferLength</text>
<text text-anchor="middle" x="530.5" y="-1114.25" font-family="Helvetica,sans-Serif" font-size="10.00" fill="grey">+destBufferLengthUsed</text>
<text text-anchor="middle" x="530.5" y="-1103" font-family="Helvetica,sans-Serif" font-size="10.00" fill="grey">+sourceBufferLength</text>
<text text-anchor="middle" x="530.5" y="-1091.75" font-family="Helvetica,sans-Serif" font-size="10.00" fill="grey">+sourceBufferLengthUsed</text>
</g>
<!-- Node12 -->
<g id="Node000012" class="node">
<title>Node12</title>
<g id="a_Node000012"><a xlink:href="class_n_audio_1_1_wave_1_1_wave_format.html" target="_top" xlink:title="Represents a Wave file format.">
<polygon fill="white" stroke="none" points="843,-1072 694,-1072 694,-693 843,-693 843,-1072"/>
<text text-anchor="start" x="709.25" y="-1058.5" font-family="Helvetica,sans-Serif" font-size="10.00">NAudio.Wave.WaveFormat</text>
<text text-anchor="start" x="698" y="-1043.5" font-family="Helvetica,sans-Serif" font-size="10.00">+</text>
<text text-anchor="start" x="708" y="-1043.5" font-family="Helvetica,sans-Serif" font-size="10.00">Encoding</text>
<text text-anchor="start" x="698" y="-1028.5" font-family="Helvetica,sans-Serif" font-size="10.00">+</text>
<text text-anchor="start" x="708" y="-1028.5" font-family="Helvetica,sans-Serif" font-size="10.00">Channels</text>
<text text-anchor="start" x="698" y="-1013.5" font-family="Helvetica,sans-Serif" font-size="10.00">+</text>
<text text-anchor="start" x="708" y="-1013.5" font-family="Helvetica,sans-Serif" font-size="10.00">SampleRate</text>
<text text-anchor="start" x="698" y="-998.5" font-family="Helvetica,sans-Serif" font-size="10.00">+</text>
<text text-anchor="start" x="708" y="-998.5" font-family="Helvetica,sans-Serif" font-size="10.00">AverageBytesPerSecond</text>
<text text-anchor="start" x="698" y="-983.5" font-family="Helvetica,sans-Serif" font-size="10.00">+</text>
<text text-anchor="start" x="708" y="-983.5" font-family="Helvetica,sans-Serif" font-size="10.00">BlockAlign</text>
<text text-anchor="start" x="698" y="-968.5" font-family="Helvetica,sans-Serif" font-size="10.00">+</text>
<text text-anchor="start" x="708" y="-968.5" font-family="Helvetica,sans-Serif" font-size="10.00">BitsPerSample</text>
<text text-anchor="start" x="698" y="-953.5" font-family="Helvetica,sans-Serif" font-size="10.00">+</text>
<text text-anchor="start" x="708" y="-953.5" font-family="Helvetica,sans-Serif" font-size="10.00">ExtraSize</text>
<text text-anchor="start" x="698" y="-938.5" font-family="Helvetica,sans-Serif" font-size="10.00">+</text>
<text text-anchor="start" x="708" y="-938.5" font-family="Helvetica,sans-Serif" font-size="10.00">WaveFormat()</text>
<text text-anchor="start" x="698" y="-923.5" font-family="Helvetica,sans-Serif" font-size="10.00">+</text>
<text text-anchor="start" x="708" y="-923.5" font-family="Helvetica,sans-Serif" font-size="10.00">WaveFormat()</text>
<text text-anchor="start" x="698" y="-908.5" font-family="Helvetica,sans-Serif" font-size="10.00">+</text>
<text text-anchor="start" x="708" y="-908.5" font-family="Helvetica,sans-Serif" font-size="10.00">ConvertLatencyToByteSize()</text>
<text text-anchor="start" x="698" y="-893.5" font-family="Helvetica,sans-Serif" font-size="10.00">+</text>
<text text-anchor="start" x="708" y="-893.5" font-family="Helvetica,sans-Serif" font-size="10.00">WaveFormat()</text>
<text text-anchor="start" x="698" y="-878.5" font-family="Helvetica,sans-Serif" font-size="10.00">+</text>
<text text-anchor="start" x="708" y="-878.5" font-family="Helvetica,sans-Serif" font-size="10.00">WaveFormat()</text>
<text text-anchor="start" x="698" y="-863.5" font-family="Helvetica,sans-Serif" font-size="10.00">+</text>
<text text-anchor="start" x="708" y="-863.5" font-family="Helvetica,sans-Serif" font-size="10.00">ToString()</text>
<text text-anchor="start" x="698" y="-848.5" font-family="Helvetica,sans-Serif" font-size="10.00">+</text>
<text text-anchor="start" x="708" y="-848.5" font-family="Helvetica,sans-Serif" font-size="10.00">Equals()</text>
<text text-anchor="start" x="698" y="-833.5" font-family="Helvetica,sans-Serif" font-size="10.00">+</text>
<text text-anchor="start" x="708" y="-833.5" font-family="Helvetica,sans-Serif" font-size="10.00">GetHashCode()</text>
<text text-anchor="start" x="698" y="-818.5" font-family="Helvetica,sans-Serif" font-size="10.00">+</text>
<text text-anchor="start" x="708" y="-818.5" font-family="Helvetica,sans-Serif" font-size="10.00">Serialize()</text>
<text text-anchor="start" x="698" y="-803.5" font-family="Helvetica,sans-Serif" font-size="10.00">+</text>
<text text-anchor="start" x="708" y="-803.5" font-family="Helvetica,sans-Serif" font-size="10.00">CreateCustomFormat()</text>
<text text-anchor="start" x="698" y="-788.5" font-family="Helvetica,sans-Serif" font-size="10.00">+</text>
<text text-anchor="start" x="708" y="-788.5" font-family="Helvetica,sans-Serif" font-size="10.00">CreateALawFormat()</text>
<text text-anchor="start" x="698" y="-773.5" font-family="Helvetica,sans-Serif" font-size="10.00">+</text>
<text text-anchor="start" x="708" y="-773.5" font-family="Helvetica,sans-Serif" font-size="10.00">CreateMuLawFormat()</text>
<text text-anchor="start" x="698" y="-758.5" font-family="Helvetica,sans-Serif" font-size="10.00">+</text>
<text text-anchor="start" x="708" y="-758.5" font-family="Helvetica,sans-Serif" font-size="10.00">CreateIeeeFloatWaveFormat()</text>
<text text-anchor="start" x="698" y="-743.5" font-family="Helvetica,sans-Serif" font-size="10.00">+</text>
<text text-anchor="start" x="708" y="-743.5" font-family="Helvetica,sans-Serif" font-size="10.00">MarshalFromPtr()</text>
<text text-anchor="start" x="698" y="-728.5" font-family="Helvetica,sans-Serif" font-size="10.00">+</text>
<text text-anchor="start" x="708" y="-728.5" font-family="Helvetica,sans-Serif" font-size="10.00">MarshalToPtr()</text>
<text text-anchor="start" x="698" y="-713.5" font-family="Helvetica,sans-Serif" font-size="10.00">+</text>
<text text-anchor="start" x="708" y="-713.5" font-family="Helvetica,sans-Serif" font-size="10.00">FromFormatChunk()</text>
<text text-anchor="start" x="699.5" y="-698.5" font-family="Helvetica,sans-Serif" font-size="10.00">&#45;</text>
<text text-anchor="start" x="708" y="-698.5" font-family="Helvetica,sans-Serif" font-size="10.00">ReadWaveFormat()</text>
<polygon fill="#666666" stroke="#666666" points="694,-1055 694,-1055 843,-1055 843,-1055 694,-1055"/>
<polygon fill="#666666" stroke="#666666" points="694,-950 694,-950 706,-950 706,-950 694,-950"/>
<polygon fill="#666666" stroke="#666666" points="706,-950 706,-950 843,-950 843,-950 706,-950"/>
<polygon fill="none" stroke="#666666" points="694,-693 694,-1072 843,-1072 843,-693 694,-693"/>
</a>
</g>
</g>
<!-- Node8&#45;&gt;Node12 -->
<g id="edge18_Node000012_Node000008" class="edge">
<title>Node8&#45;&gt;Node12</title>
<g id="a_edge18_Node000012_Node000008"><a xlink:title=" ">
<path fill="none" stroke="#63b8ff" d="M611.34,-1167.77C621.19,-1147.91 636.91,-1116.66 651.25,-1090 662.86,-1068.41 675.41,-1045.72 687.82,-1023.59"/>
<polygon fill="none" stroke="#63b8ff" points="687.77,-1023.67 687.23,-1016.48 693.66,-1013.21 694.2,-1020.41 687.77,-1023.67"/>
</a>
</g>
<text text-anchor="middle" x="708.62" y="-1119.88" font-family="Helvetica,sans-Serif" font-size="10.00" fill="grey"> #averageBytesPerSecond</text>
<text text-anchor="middle" x="708.62" y="-1108.62" font-family="Helvetica,sans-Serif" font-size="10.00" fill="grey">#sampleRate</text>
</g>
<!-- Node9 -->
<g id="Node000009" class="node">
<title>Node9</title>
<g id="a_Node000009"><a xlink:title=" ">
<polygon fill="white" stroke="none" points="460,-1213.25 315,-1213.25 315,-1164.25 460,-1164.25 460,-1213.25"/>
<text text-anchor="start" x="319.62" y="-1199.75" font-family="Helvetica,sans-Serif" font-size="10.00">AcmStreamHeaderStatusFlags</text>
<text text-anchor="start" x="386" y="-1184.75" font-family="Helvetica,sans-Serif" font-size="10.00"> </text>
<text text-anchor="start" x="386" y="-1169.75" font-family="Helvetica,sans-Serif" font-size="10.00"> </text>
<polygon fill="#666666" stroke="#666666" points="315,-1196.25 315,-1196.25 460,-1196.25 460,-1196.25 315,-1196.25"/>
<polygon fill="#666666" stroke="#666666" points="315,-1181.25 315,-1181.25 460,-1181.25 460,-1181.25 315,-1181.25"/>
<polygon fill="none" stroke="#666666" points="315,-1164.25 315,-1213.25 460,-1213.25 460,-1164.25 315,-1164.25"/>
</a>
</g>
</g>
<!-- Node9&#45;&gt;Node7 -->
<g id="edge10_Node000007_Node000009" class="edge">
<title>Node9&#45;&gt;Node7</title>
<g id="a_edge10_Node000007_Node000009"><a xlink:title=" ">
<path fill="none" stroke="#63b8ff" d="M387.5,-1164.38C387.5,-1113.07 387.5,-989.96 387.5,-925.1"/>
<polygon fill="none" stroke="#63b8ff" points="387.5,-925.09 383.5,-919.09 387.5,-913.09 391.5,-919.09 387.5,-925.09"/>
</a>
</g>
<text text-anchor="middle" x="414.12" y="-1114.25" font-family="Helvetica,sans-Serif" font-size="10.00" fill="grey"> +fdwStatus</text>
</g>
<!-- Node10 -->
<g id="Node000010" class="node">
<title>Node10</title>
<g id="a_Node000010"><a xlink:title=" ">
<polygon fill="white" stroke="none" points="527,-907 472,-907 472,-858 527,-858 527,-907"/>
<text text-anchor="start" x="476.62" y="-893.5" font-family="Helvetica,sans-Serif" font-size="10.00">GCHandle</text>
<text text-anchor="start" x="498" y="-878.5" font-family="Helvetica,sans-Serif" font-size="10.00"> </text>
<text text-anchor="start" x="498" y="-863.5" font-family="Helvetica,sans-Serif" font-size="10.00"> </text>
<polygon fill="#666666" stroke="#666666" points="472,-890 472,-890 527,-890 527,-890 472,-890"/>
<polygon fill="#666666" stroke="#666666" points="472,-875 472,-875 527,-875 527,-875 472,-875"/>
<polygon fill="none" stroke="#666666" points="472,-858 472,-907 527,-907 527,-858 472,-858"/>
</a>
</g>
</g>
<!-- Node10&#45;&gt;Node6 -->
<g id="edge12_Node000006_Node000010" class="edge">
<title>Node10&#45;&gt;Node6</title>
<g id="a_edge12_Node000006_Node000010"><a xlink:title=" ">
<path fill="none" stroke="#63b8ff" d="M502.16,-858.03C505.24,-818.53 505.28,-738.61 462.5,-693 441.04,-670.12 420.03,-692.87 394.25,-675 386.73,-669.79 376.95,-658.57 366.57,-644.82"/>
<polygon fill="none" stroke="#63b8ff" points="366.56,-644.8 359.79,-642.33 359.47,-635.13 366.24,-637.6 366.56,-644.8"/>
</a>
</g>
<text text-anchor="middle" x="427.12" y="-665.5" font-family="Helvetica,sans-Serif" font-size="10.00" fill="grey"> &#45;hDestBuffer</text>
<text text-anchor="middle" x="427.12" y="-654.25" font-family="Helvetica,sans-Serif" font-size="10.00" fill="grey">&#45;hSourceBuffer</text>
</g>
<!-- Node11 -->
<g id="Node000011" class="node">
<title>Node11</title>
<g id="a_Node000011"><a xlink:title=" ">
<polygon fill="white" stroke="none" points="573.5,-907 545.5,-907 545.5,-858 573.5,-858 573.5,-907"/>
<text text-anchor="start" x="550.5" y="-893.5" font-family="Helvetica,sans-Serif" font-size="10.00">bool</text>
<text text-anchor="start" x="558" y="-878.5" font-family="Helvetica,sans-Serif" font-size="10.00"> </text>
<text text-anchor="start" x="558" y="-863.5" font-family="Helvetica,sans-Serif" font-size="10.00"> </text>
<polygon fill="#666666" stroke="#666666" points="545.5,-890 545.5,-890 573.5,-890 573.5,-890 545.5,-890"/>
<polygon fill="#666666" stroke="#666666" points="545.5,-875 545.5,-875 573.5,-875 573.5,-875 545.5,-875"/>
<polygon fill="none" stroke="#666666" points="545.5,-858 545.5,-907 573.5,-907 573.5,-858 545.5,-858"/>
</a>
</g>
</g>
<!-- Node11&#45;&gt;Node1 -->
<g id="edge21_Node000001_Node000011" class="edge">
<title>Node11&#45;&gt;Node1</title>
<g id="a_edge21_Node000001_Node000011"><a xlink:title=" ">
<path fill="none" stroke="#63b8ff" d="M558.12,-858.22C551.61,-749.77 523.18,-293.47 497.5,-153 497.16,-151.12 496.79,-149.23 496.4,-147.33"/>
<polygon fill="none" stroke="#63b8ff" points="496.38,-147.23 491.18,-142.24 493.78,-135.52 498.99,-140.51 496.38,-147.23"/>
</a>
</g>
<text text-anchor="middle" x="554.88" y="-427" font-family="Helvetica,sans-Serif" font-size="10.00" fill="grey"> &#45;isDisposed</text>
</g>
<!-- Node11&#45;&gt;Node6 -->
<g id="edge14_Node000006_Node000011" class="edge">
<title>Node11&#45;&gt;Node6</title>
<g id="a_edge14_Node000006_Node000011"><a xlink:title=" ">
<path fill="none" stroke="#63b8ff" d="M563.89,-858.2C569.8,-819.31 575.52,-740.73 536.5,-693 520.49,-673.41 504.09,-688.18 482.5,-675 470.29,-667.55 470.56,-661.56 459.5,-652.5 434.49,-632.02 405.63,-611.54 379.52,-594.06"/>
<polygon fill="none" stroke="#63b8ff" points="379.65,-594.14 372.44,-594.16 369.65,-587.51 376.86,-587.49 379.65,-594.14"/>
</a>
</g>
<text text-anchor="middle" x="505" y="-665.5" font-family="Helvetica,sans-Serif" font-size="10.00" fill="grey"> &#45;disposed</text>
<text text-anchor="middle" x="505" y="-654.25" font-family="Helvetica,sans-Serif" font-size="10.00" fill="grey">&#45;firstTime</text>
</g>
<!-- Node12&#45;&gt;Node4 -->
<g id="edge15_Node000004_Node000012" class="edge">
<title>Node12&#45;&gt;Node4</title>
<g id="a_edge15_Node000004_Node000012"><a xlink:title=" ">
<path fill="none" stroke="#63b8ff" d="M788.68,-693.25C787.62,-612.3 772.23,-521.17 720.5,-454.5 709.57,-440.41 498.98,-364.76 380.98,-323.18"/>
<polygon fill="none" stroke="#63b8ff" points="380.99,-323.18 374,-324.96 369.67,-319.2 376.65,-317.42 380.99,-323.18"/>
</a>
</g>
<text text-anchor="middle" x="817.5" y="-540.62" font-family="Helvetica,sans-Serif" font-size="10.00" fill="grey"> &#45;sourceFormat</text>
</g>
<!-- Node13 -->
<g id="Node000013" class="node">
<title>Node13</title>
<g id="a_Node000013"><a xlink:title=" ">
<polygon fill="white" stroke="none" points="826.5,-1213.25 720.5,-1213.25 720.5,-1164.25 826.5,-1164.25 826.5,-1213.25"/>
<text text-anchor="start" x="725.5" y="-1199.75" font-family="Helvetica,sans-Serif" font-size="10.00">WaveFormatEncoding</text>
<text text-anchor="start" x="772" y="-1184.75" font-family="Helvetica,sans-Serif" font-size="10.00"> </text>
<text text-anchor="start" x="772" y="-1169.75" font-family="Helvetica,sans-Serif" font-size="10.00"> </text>
<polygon fill="#666666" stroke="#666666" points="720.5,-1196.25 720.5,-1196.25 826.5,-1196.25 826.5,-1196.25 720.5,-1196.25"/>
<polygon fill="#666666" stroke="#666666" points="720.5,-1181.25 720.5,-1181.25 826.5,-1181.25 826.5,-1181.25 720.5,-1181.25"/>
<polygon fill="none" stroke="#666666" points="720.5,-1164.25 720.5,-1213.25 826.5,-1213.25 826.5,-1164.25 720.5,-1164.25"/>
</a>
</g>
</g>
<!-- Node13&#45;&gt;Node12 -->
<g id="edge16_Node000012_Node000013" class="edge">
<title>Node13&#45;&gt;Node12</title>
<g id="a_edge16_Node000012_Node000013"><a xlink:title=" ">
<path fill="none" stroke="#63b8ff" d="M773.12,-1164.38C772.8,-1145.4 772.33,-1116.6 771.8,-1084.56"/>
<polygon fill="none" stroke="#63b8ff" points="771.8,-1084.54 767.71,-1078.61 771.61,-1072.54 775.7,-1078.48 771.8,-1084.54"/>
</a>
</g>
<text text-anchor="middle" x="811.5" y="-1114.25" font-family="Helvetica,sans-Serif" font-size="10.00" fill="grey"> #waveFormatTag</text>
</g>
<!-- Node14 -->
<g id="Node000014" class="node">
<title>Node14</title>
<g id="a_Node000014"><a xlink:title=" ">
<polygon fill="white" stroke="none" points="890,-1213.25 859,-1213.25 859,-1164.25 890,-1164.25 890,-1213.25"/>
<text text-anchor="start" x="863.62" y="-1199.75" font-family="Helvetica,sans-Serif" font-size="10.00">short</text>
<text text-anchor="start" x="873" y="-1184.75" font-family="Helvetica,sans-Serif" font-size="10.00"> </text>
<text text-anchor="start" x="873" y="-1169.75" font-family="Helvetica,sans-Serif" font-size="10.00"> </text>
<polygon fill="#666666" stroke="#666666" points="859,-1196.25 859,-1196.25 890,-1196.25 890,-1196.25 859,-1196.25"/>
<polygon fill="#666666" stroke="#666666" points="859,-1181.25 859,-1181.25 890,-1181.25 890,-1181.25 859,-1181.25"/>
<polygon fill="none" stroke="#666666" points="859,-1164.25 859,-1213.25 890,-1213.25 890,-1164.25 859,-1164.25"/>
</a>
</g>
</g>
<!-- Node14&#45;&gt;Node12 -->
<g id="edge17_Node000012_Node000014" class="edge">
<title>Node14&#45;&gt;Node12</title>
<g id="a_edge17_Node000012_Node000014"><a xlink:title=" ">
<path fill="none" stroke="#63b8ff" d="M870.4,-1164.56C866.6,-1144.57 860.36,-1115.06 852.5,-1090 850.79,-1084.56 849,-1079.05 847.15,-1073.52"/>
<polygon fill="none" stroke="#63b8ff" points="847.16,-1073.56 841.44,-1069.18 843.28,-1062.21 849,-1066.59 847.16,-1073.56"/>
</a>
</g>
<text text-anchor="middle" x="902.5" y="-1131.12" font-family="Helvetica,sans-Serif" font-size="10.00" fill="grey"> #bitsPerSample</text>
<text text-anchor="middle" x="902.5" y="-1119.88" font-family="Helvetica,sans-Serif" font-size="10.00" fill="grey">#blockAlign</text>
<text text-anchor="middle" x="902.5" y="-1108.62" font-family="Helvetica,sans-Serif" font-size="10.00" fill="grey">#channels</text>
<text text-anchor="middle" x="902.5" y="-1097.38" font-family="Helvetica,sans-Serif" font-size="10.00" fill="grey">#extraSize</text>
</g>
<!-- Node15 -->
<g id="Node000015" class="node">
<title>Node15</title>
<g id="a_Node000015"><a xlink:href="interface_n_audio_1_1_wave_1_1_i_wave_provider.html" target="_top" xlink:title="Generic interface for all WaveProviders.">
<polygon fill="white" stroke="none" points="765.5,-319.25 629.5,-319.25 629.5,-270.25 765.5,-270.25 765.5,-319.25"/>
<text text-anchor="start" x="634.12" y="-305.75" font-family="Helvetica,sans-Serif" font-size="10.00">NAudio.Wave.IWaveProvider</text>
<text text-anchor="start" x="649" y="-290.75" font-family="Helvetica,sans-Serif" font-size="10.00">+</text>
<text text-anchor="start" x="674.5" y="-290.75" font-family="Helvetica,sans-Serif" font-size="10.00">WaveFormat</text>
<text text-anchor="start" x="649" y="-275.75" font-family="Helvetica,sans-Serif" font-size="10.00">+</text>
<text text-anchor="start" x="674.5" y="-275.75" font-family="Helvetica,sans-Serif" font-size="10.00">Read()</text>
<polygon fill="#666666" stroke="#666666" points="629.5,-302.25 629.5,-302.25 765.5,-302.25 765.5,-302.25 629.5,-302.25"/>
<polygon fill="#666666" stroke="#666666" points="629.5,-287.25 629.5,-287.25 672.5,-287.25 672.5,-287.25 629.5,-287.25"/>
<polygon fill="#666666" stroke="#666666" points="672.5,-287.25 672.5,-287.25 765.5,-287.25 765.5,-287.25 672.5,-287.25"/>
<polygon fill="none" stroke="#666666" points="629.5,-270.25 629.5,-319.25 765.5,-319.25 765.5,-270.25 629.5,-270.25"/>
</a>
</g>
</g>
<!-- Node15&#45;&gt;Node1 -->
<g id="edge19_Node000001_Node000015" class="edge">
<title>Node15&#45;&gt;Node1</title>
<g id="a_edge19_Node000001_Node000015"><a xlink:title=" ">
<path fill="none" stroke="#63b8ff" d="M688.31,-270.44C675.57,-240.42 650.13,-187.96 615.5,-153 602.95,-140.33 588.12,-128.84 572.87,-118.69"/>
<polygon fill="none" stroke="#63b8ff" points="573.11,-118.85 565.9,-118.97 563.01,-112.37 570.22,-112.24 573.11,-118.85"/>
</a>
</g>
<text text-anchor="middle" x="659.12" y="-154.75" font-family="Helvetica,sans-Serif" font-size="10.00" fill="grey"> &#45;sourceProvider</text>
</g>
</g>
</svg>
