<?xml version="1.0" encoding="UTF-8" standalone="no"?>
<!DOCTYPE svg PUBLIC "-//W3C//DTD SVG 1.1//EN"
 "http://www.w3.org/Graphics/SVG/1.1/DTD/svg11.dtd">
<!-- Generated by graphviz version 10.0.1 (20240210.2158)
 -->
<!-- Title: NAudio.Dsp.SimpleGate Pages: 1 -->
<svg width="330pt" height="501pt"
 viewBox="0.00 0.00 329.50 500.50" xmlns="http://www.w3.org/2000/svg" xmlns:xlink="http://www.w3.org/1999/xlink">
<g id="graph0" class="graph" transform="scale(1 1) rotate(0) translate(4 496.5)">
<title>NAudio.Dsp.SimpleGate</title>
<!-- Node1 -->
<g id="Node000001" class="node">
<title>Node1</title>
<g id="a_Node000001"><a xlink:title=" ">
<polygon fill="#999999" stroke="none" points="117,-64 0,-64 0,0 117,0 117,-64"/>
<text text-anchor="start" x="4.88" y="-50.5" font-family="Helvetica,sans-Serif" font-size="10.00">NAudio.Dsp.SimpleGate</text>
<text text-anchor="start" x="14.5" y="-35.5" font-family="Helvetica,sans-Serif" font-size="10.00">+</text>
<text text-anchor="start" x="35" y="-35.5" font-family="Helvetica,sans-Serif" font-size="10.00">Threshold</text>
<text text-anchor="start" x="14.5" y="-20.5" font-family="Helvetica,sans-Serif" font-size="10.00">+</text>
<text text-anchor="start" x="35" y="-20.5" font-family="Helvetica,sans-Serif" font-size="10.00">SimpleGate()</text>
<text text-anchor="start" x="14.5" y="-5.5" font-family="Helvetica,sans-Serif" font-size="10.00">+</text>
<text text-anchor="start" x="35" y="-5.5" font-family="Helvetica,sans-Serif" font-size="10.00">Process()</text>
<polygon fill="#666666" stroke="#666666" points="0,-47 0,-47 117,-47 117,-47 0,-47"/>
<polygon fill="#666666" stroke="#666666" points="0,-32 0,-32 33,-32 33,-32 0,-32"/>
<polygon fill="#666666" stroke="#666666" points="33,-32 33,-32 117,-32 117,-32 33,-32"/>
<polygon fill="none" stroke="#666666" points="0,0 0,-64 117,-64 117,0 0,0"/>
</a>
</g>
</g>
<!-- Node2 -->
<g id="Node000002" class="node">
<title>Node2</title>
<g id="a_Node000002"><a xlink:href="class_n_audio_1_1_dsp_1_1_att_rel_envelope.html" target="_top" xlink:title=" ">
<polygon fill="white" stroke="none" points="154.5,-195 62.5,-195 62.5,-101 154.5,-101 154.5,-195"/>
<text text-anchor="start" x="74.38" y="-181.5" font-family="Helvetica,sans-Serif" font-size="10.00">AttRelEnvelope</text>
<text text-anchor="start" x="66.5" y="-166.5" font-family="Helvetica,sans-Serif" font-size="10.00">+</text>
<text text-anchor="start" x="76.5" y="-166.5" font-family="Helvetica,sans-Serif" font-size="10.00">Attack</text>
<text text-anchor="start" x="66.5" y="-151.5" font-family="Helvetica,sans-Serif" font-size="10.00">+</text>
<text text-anchor="start" x="76.5" y="-151.5" font-family="Helvetica,sans-Serif" font-size="10.00">Release</text>
<text text-anchor="start" x="66.5" y="-136.5" font-family="Helvetica,sans-Serif" font-size="10.00">+</text>
<text text-anchor="start" x="76.5" y="-136.5" font-family="Helvetica,sans-Serif" font-size="10.00">SampleRate</text>
<text text-anchor="start" x="66.5" y="-121.5" font-family="Helvetica,sans-Serif" font-size="10.00">+</text>
<text text-anchor="start" x="76.5" y="-121.5" font-family="Helvetica,sans-Serif" font-size="10.00">AttRelEnvelope()</text>
<text text-anchor="start" x="66.5" y="-106.5" font-family="Helvetica,sans-Serif" font-size="10.00">+</text>
<text text-anchor="start" x="76.5" y="-106.5" font-family="Helvetica,sans-Serif" font-size="10.00">Run()</text>
<polygon fill="#666666" stroke="#666666" points="62.5,-178 62.5,-178 154.5,-178 154.5,-178 62.5,-178"/>
<polygon fill="#666666" stroke="#666666" points="62.5,-133 62.5,-133 74.5,-133 74.5,-133 62.5,-133"/>
<polygon fill="#666666" stroke="#666666" points="74.5,-133 74.5,-133 154.5,-133 154.5,-133 74.5,-133"/>
<polygon fill="none" stroke="#666666" points="62.5,-101 62.5,-195 154.5,-195 154.5,-101 62.5,-101"/>
</a>
</g>
</g>
<!-- Node2&#45;&gt;Node1 -->
<g id="edge1_Node000001_Node000002" class="edge">
<title>Node2&#45;&gt;Node1</title>
<g id="a_edge1_Node000001_Node000002"><a xlink:title=" ">
<path fill="none" stroke="#63b8ff" d="M83.85,-90.8C79.75,-81.46 75.64,-72.08 71.96,-63.69"/>
<polygon fill="none" stroke="#63b8ff" points="80.62,-92.15 87.84,-99.9 87.03,-89.34 80.62,-92.15"/>
</a>
</g>
</g>
<!-- Node3 -->
<g id="Node000003" class="node">
<title>Node3</title>
<g id="a_Node000003"><a xlink:title=" ">
<polygon fill="white" stroke="none" points="110.5,-492.5 72.5,-492.5 72.5,-443.5 110.5,-443.5 110.5,-492.5"/>
<text text-anchor="start" x="77.25" y="-479" font-family="Helvetica,sans-Serif" font-size="10.00">double</text>
<text text-anchor="start" x="90" y="-464" font-family="Helvetica,sans-Serif" font-size="10.00"> </text>
<text text-anchor="start" x="90" y="-449" font-family="Helvetica,sans-Serif" font-size="10.00"> </text>
<polygon fill="#666666" stroke="#666666" points="72.5,-475.5 72.5,-475.5 110.5,-475.5 110.5,-475.5 72.5,-475.5"/>
<polygon fill="#666666" stroke="#666666" points="72.5,-460.5 72.5,-460.5 110.5,-460.5 110.5,-460.5 72.5,-460.5"/>
<polygon fill="none" stroke="#666666" points="72.5,-443.5 72.5,-492.5 110.5,-492.5 110.5,-443.5 72.5,-443.5"/>
</a>
</g>
</g>
<!-- Node3&#45;&gt;Node1 -->
<g id="edge5_Node000001_Node000003" class="edge">
<title>Node3&#45;&gt;Node1</title>
<g id="a_edge5_Node000001_Node000003"><a xlink:title=" ">
<path fill="none" stroke="#63b8ff" d="M87,-443.63C79.45,-403.53 64.31,-318.92 56.5,-246.75 54.02,-223.84 54.17,-218.03 53.5,-195 52.29,-153.24 51.97,-142.75 53.5,-101 53.79,-93.1 54.27,-84.69 54.82,-76.58"/>
<polygon fill="none" stroke="#63b8ff" points="54.81,-76.64 51.26,-70.37 55.69,-64.68 59.24,-70.95 54.81,-76.64"/>
</a>
</g>
<text text-anchor="middle" x="77.5" y="-237.25" font-family="Helvetica,sans-Serif" font-size="10.00" fill="grey"> &#45;env</text>
<text text-anchor="middle" x="77.5" y="-226" font-family="Helvetica,sans-Serif" font-size="10.00" fill="grey">&#45;thresh</text>
<text text-anchor="middle" x="77.5" y="-214.75" font-family="Helvetica,sans-Serif" font-size="10.00" fill="grey">&#45;threshdB</text>
</g>
<!-- Node3&#45;&gt;Node2 -->
<g id="edge2_Node000002_Node000003" class="edge">
<title>Node3&#45;&gt;Node2</title>
<g id="a_edge2_Node000002_Node000003"><a xlink:title=" ">
<path fill="none" stroke="#63b8ff" d="M92.46,-443.64C94.04,-405.97 97.38,-329.5 101,-264.75 102.04,-246.22 103.3,-226.04 104.49,-207.79"/>
<polygon fill="none" stroke="#63b8ff" points="104.49,-207.77 100.89,-201.52 105.28,-195.8 108.88,-202.05 104.49,-207.77"/>
</a>
</g>
<text text-anchor="middle" x="135.25" y="-315.38" font-family="Helvetica,sans-Serif" font-size="10.00" fill="grey"> #DC_OFFSET</text>
</g>
<!-- Node4 -->
<g id="Node000004" class="node">
<title>Node4</title>
<g id="a_Node000004"><a xlink:href="class_n_audio_1_1_dsp_1_1_envelope_detector.html" target="_top" xlink:title=" ">
<polygon fill="white" stroke="none" points="321.5,-373.75 177.5,-373.75 177.5,-264.75 321.5,-264.75 321.5,-373.75"/>
<text text-anchor="start" x="182.38" y="-360.25" font-family="Helvetica,sans-Serif" font-size="10.00">NAudio.Dsp.EnvelopeDetector</text>
<text text-anchor="start" x="192" y="-345.25" font-family="Helvetica,sans-Serif" font-size="10.00">+</text>
<text text-anchor="start" x="212.5" y="-345.25" font-family="Helvetica,sans-Serif" font-size="10.00">TimeConstant</text>
<text text-anchor="start" x="192" y="-330.25" font-family="Helvetica,sans-Serif" font-size="10.00">+</text>
<text text-anchor="start" x="212.5" y="-330.25" font-family="Helvetica,sans-Serif" font-size="10.00">SampleRate</text>
<text text-anchor="start" x="192" y="-315.25" font-family="Helvetica,sans-Serif" font-size="10.00">+</text>
<text text-anchor="start" x="212.5" y="-315.25" font-family="Helvetica,sans-Serif" font-size="10.00">EnvelopeDetector()</text>
<text text-anchor="start" x="192" y="-300.25" font-family="Helvetica,sans-Serif" font-size="10.00">+</text>
<text text-anchor="start" x="212.5" y="-300.25" font-family="Helvetica,sans-Serif" font-size="10.00">EnvelopeDetector()</text>
<text text-anchor="start" x="192" y="-285.25" font-family="Helvetica,sans-Serif" font-size="10.00">+</text>
<text text-anchor="start" x="212.5" y="-285.25" font-family="Helvetica,sans-Serif" font-size="10.00">Run()</text>
<text text-anchor="start" x="193.5" y="-270.25" font-family="Helvetica,sans-Serif" font-size="10.00">&#45;</text>
<text text-anchor="start" x="212.5" y="-270.25" font-family="Helvetica,sans-Serif" font-size="10.00">SetCoef()</text>
<polygon fill="#666666" stroke="#666666" points="177.5,-356.75 177.5,-356.75 321.5,-356.75 321.5,-356.75 177.5,-356.75"/>
<polygon fill="#666666" stroke="#666666" points="177.5,-326.75 177.5,-326.75 210.5,-326.75 210.5,-326.75 177.5,-326.75"/>
<polygon fill="#666666" stroke="#666666" points="210.5,-326.75 210.5,-326.75 321.5,-326.75 321.5,-326.75 210.5,-326.75"/>
<polygon fill="none" stroke="#666666" points="177.5,-264.75 177.5,-373.75 321.5,-373.75 321.5,-264.75 177.5,-264.75"/>
</a>
</g>
</g>
<!-- Node3&#45;&gt;Node4 -->
<g id="edge4_Node000004_Node000003" class="edge">
<title>Node3&#45;&gt;Node4</title>
<g id="a_edge4_Node000004_Node000003"><a xlink:title=" ">
<path fill="none" stroke="#63b8ff" d="M110.25,-449.59C128.23,-432.88 156.48,-406.64 182.85,-382.15"/>
<polygon fill="none" stroke="#63b8ff" points="182.62,-382.36 184.3,-375.35 191.42,-374.2 189.74,-381.21 182.62,-382.36"/>
</a>
</g>
<text text-anchor="middle" x="198.25" y="-416" font-family="Helvetica,sans-Serif" font-size="10.00" fill="grey"> &#45;coeff</text>
<text text-anchor="middle" x="198.25" y="-404.75" font-family="Helvetica,sans-Serif" font-size="10.00" fill="grey">&#45;ms</text>
<text text-anchor="middle" x="198.25" y="-393.5" font-family="Helvetica,sans-Serif" font-size="10.00" fill="grey">&#45;sampleRate</text>
</g>
<!-- Node4&#45;&gt;Node2 -->
<g id="edge3_Node000002_Node000004" class="edge">
<title>Node4&#45;&gt;Node2</title>
<g id="a_edge3_Node000002_Node000004"><a xlink:title=" ">
<path fill="none" stroke="#63b8ff" d="M205.27,-265.16C189.25,-245.93 171.11,-224.16 154.9,-204.7"/>
<polygon fill="none" stroke="#63b8ff" points="154.88,-204.68 147.97,-202.63 147.2,-195.46 154.12,-197.51 154.88,-204.68"/>
</a>
</g>
<text text-anchor="middle" x="203.75" y="-231.62" font-family="Helvetica,sans-Serif" font-size="10.00" fill="grey"> &#45;attack</text>
<text text-anchor="middle" x="203.75" y="-220.38" font-family="Helvetica,sans-Serif" font-size="10.00" fill="grey">&#45;release</text>
</g>
</g>
</svg>
