<?xml version="1.0" encoding="UTF-8" standalone="no"?>
<!DOCTYPE svg PUBLIC "-//W3C//DTD SVG 1.1//EN"
 "http://www.w3.org/Graphics/SVG/1.1/DTD/svg11.dtd">
<!-- Generated by graphviz version 10.0.1 (20240210.2158)
 -->
<!-- Title: NAudio.Wave.RawSourceWaveStream Pages: 1 -->
<svg width="554pt" height="684pt"
 viewBox="0.00 0.00 553.59 684.25" xmlns="http://www.w3.org/2000/svg" xmlns:xlink="http://www.w3.org/1999/xlink">
<g id="graph0" class="graph" transform="scale(1 1) rotate(0) translate(4 680.25)">
<title>NAudio.Wave.RawSourceWaveStream</title>
<!-- Node1 -->
<g id="Node000001" class="node">
<title>Node1</title>
<g id="a_Node000001"><a xlink:title="WaveStream that simply passes on data from its source stream (e.g. a MemoryStream)">
<polygon fill="#999999" stroke="none" points="221.34,-120 73.34,-120 73.34,0 221.34,0 221.34,-120"/>
<text text-anchor="start" x="77.96" y="-106.5" font-family="Helvetica,sans-Serif" font-size="10.00">NAudio.Wave.RawSourceWave</text>
<text text-anchor="start" x="131.59" y="-95.25" font-family="Helvetica,sans-Serif" font-size="10.00">Stream</text>
<text text-anchor="start" x="81.34" y="-80.5" font-family="Helvetica,sans-Serif" font-size="10.00">+</text>
<text text-anchor="start" x="95.34" y="-80.5" font-family="Helvetica,sans-Serif" font-size="10.00">WaveFormat</text>
<text text-anchor="start" x="81.34" y="-65.5" font-family="Helvetica,sans-Serif" font-size="10.00">+</text>
<text text-anchor="start" x="95.34" y="-65.5" font-family="Helvetica,sans-Serif" font-size="10.00">Length</text>
<text text-anchor="start" x="81.34" y="-50.5" font-family="Helvetica,sans-Serif" font-size="10.00">+</text>
<text text-anchor="start" x="95.34" y="-50.5" font-family="Helvetica,sans-Serif" font-size="10.00">Position</text>
<text text-anchor="start" x="81.34" y="-35.5" font-family="Helvetica,sans-Serif" font-size="10.00">+</text>
<text text-anchor="start" x="95.34" y="-35.5" font-family="Helvetica,sans-Serif" font-size="10.00">RawSourceWaveStream()</text>
<text text-anchor="start" x="81.34" y="-20.5" font-family="Helvetica,sans-Serif" font-size="10.00">+</text>
<text text-anchor="start" x="95.34" y="-20.5" font-family="Helvetica,sans-Serif" font-size="10.00">RawSourceWaveStream()</text>
<text text-anchor="start" x="81.34" y="-5.5" font-family="Helvetica,sans-Serif" font-size="10.00">+</text>
<text text-anchor="start" x="95.34" y="-5.5" font-family="Helvetica,sans-Serif" font-size="10.00">Read()</text>
<polygon fill="#666666" stroke="#666666" points="73.34,-92 73.34,-92 221.34,-92 221.34,-92 73.34,-92"/>
<polygon fill="#666666" stroke="#666666" points="73.34,-47 73.34,-47 93.34,-47 93.34,-47 73.34,-47"/>
<polygon fill="#666666" stroke="#666666" points="93.34,-47 93.34,-47 221.34,-47 221.34,-47 93.34,-47"/>
<polygon fill="none" stroke="#666666" points="73.34,0 73.34,-120 221.34,-120 221.34,0 73.34,0"/>
</a>
</g>
</g>
<!-- Node2 -->
<g id="Node000002" class="node">
<title>Node2</title>
<g id="a_Node000002"><a xlink:href="class_n_audio_1_1_wave_1_1_wave_stream.html" target="_top" xlink:title="Base class for all WaveStream classes. Derives from stream.">
<polygon fill="white" stroke="none" points="183.84,-463.75 110.84,-463.75 110.84,-249.75 183.84,-249.75 183.84,-463.75"/>
<text text-anchor="start" x="119.21" y="-450.25" font-family="Helvetica,sans-Serif" font-size="10.00">WaveStream</text>
<text text-anchor="start" x="114.84" y="-435.25" font-family="Helvetica,sans-Serif" font-size="10.00">+</text>
<text text-anchor="start" x="124.84" y="-435.25" font-family="Helvetica,sans-Serif" font-size="10.00">WaveFormat</text>
<text text-anchor="start" x="114.84" y="-420.25" font-family="Helvetica,sans-Serif" font-size="10.00">+</text>
<text text-anchor="start" x="124.84" y="-420.25" font-family="Helvetica,sans-Serif" font-size="10.00">CanRead</text>
<text text-anchor="start" x="114.84" y="-405.25" font-family="Helvetica,sans-Serif" font-size="10.00">+</text>
<text text-anchor="start" x="124.84" y="-405.25" font-family="Helvetica,sans-Serif" font-size="10.00">CanSeek</text>
<text text-anchor="start" x="114.84" y="-390.25" font-family="Helvetica,sans-Serif" font-size="10.00">+</text>
<text text-anchor="start" x="124.84" y="-390.25" font-family="Helvetica,sans-Serif" font-size="10.00">CanWrite</text>
<text text-anchor="start" x="114.84" y="-375.25" font-family="Helvetica,sans-Serif" font-size="10.00">+</text>
<text text-anchor="start" x="124.84" y="-375.25" font-family="Helvetica,sans-Serif" font-size="10.00">BlockAlign</text>
<text text-anchor="start" x="114.84" y="-360.25" font-family="Helvetica,sans-Serif" font-size="10.00">+</text>
<text text-anchor="start" x="124.84" y="-360.25" font-family="Helvetica,sans-Serif" font-size="10.00">CurrentTime</text>
<text text-anchor="start" x="114.84" y="-345.25" font-family="Helvetica,sans-Serif" font-size="10.00">+</text>
<text text-anchor="start" x="124.84" y="-345.25" font-family="Helvetica,sans-Serif" font-size="10.00">TotalTime</text>
<text text-anchor="start" x="114.84" y="-330.25" font-family="Helvetica,sans-Serif" font-size="10.00">+</text>
<text text-anchor="start" x="124.84" y="-330.25" font-family="Helvetica,sans-Serif" font-size="10.00">Flush()</text>
<text text-anchor="start" x="114.84" y="-315.25" font-family="Helvetica,sans-Serif" font-size="10.00">+</text>
<text text-anchor="start" x="124.84" y="-315.25" font-family="Helvetica,sans-Serif" font-size="10.00">Seek()</text>
<text text-anchor="start" x="114.84" y="-300.25" font-family="Helvetica,sans-Serif" font-size="10.00">+</text>
<text text-anchor="start" x="124.84" y="-300.25" font-family="Helvetica,sans-Serif" font-size="10.00">SetLength()</text>
<text text-anchor="start" x="114.84" y="-285.25" font-family="Helvetica,sans-Serif" font-size="10.00">+</text>
<text text-anchor="start" x="124.84" y="-285.25" font-family="Helvetica,sans-Serif" font-size="10.00">Write()</text>
<text text-anchor="start" x="114.84" y="-270.25" font-family="Helvetica,sans-Serif" font-size="10.00">+</text>
<text text-anchor="start" x="124.84" y="-270.25" font-family="Helvetica,sans-Serif" font-size="10.00">Skip()</text>
<text text-anchor="start" x="114.84" y="-255.25" font-family="Helvetica,sans-Serif" font-size="10.00">+</text>
<text text-anchor="start" x="124.84" y="-255.25" font-family="Helvetica,sans-Serif" font-size="10.00">HasData()</text>
<polygon fill="#666666" stroke="#666666" points="110.84,-446.75 110.84,-446.75 183.84,-446.75 183.84,-446.75 110.84,-446.75"/>
<polygon fill="#666666" stroke="#666666" points="110.84,-341.75 110.84,-341.75 122.84,-341.75 122.84,-341.75 110.84,-341.75"/>
<polygon fill="#666666" stroke="#666666" points="122.84,-341.75 122.84,-341.75 183.84,-341.75 183.84,-341.75 122.84,-341.75"/>
<polygon fill="none" stroke="#666666" points="110.84,-249.75 110.84,-463.75 183.84,-463.75 183.84,-249.75 110.84,-249.75"/>
</a>
</g>
</g>
<!-- Node2&#45;&gt;Node1 -->
<g id="edge1_Node000001_Node000002" class="edge">
<title>Node2&#45;&gt;Node1</title>
<g id="a_edge1_Node000001_Node000002"><a xlink:title=" ">
<path fill="none" stroke="#63b8ff" d="M147.34,-238.37C147.34,-197.68 147.34,-153.8 147.34,-119.87"/>
<polygon fill="none" stroke="#63b8ff" points="143.84,-238.24 147.34,-248.24 150.84,-238.24 143.84,-238.24"/>
</a>
</g>
</g>
<!-- Node3 -->
<g id="Node000003" class="node">
<title>Node3</title>
<g id="a_Node000003"><a xlink:title=" ">
<polygon fill="white" stroke="none" points="69.84,-676.25 28.84,-676.25 28.84,-627.25 69.84,-627.25 69.84,-676.25"/>
<text text-anchor="start" x="33.59" y="-662.75" font-family="Helvetica,sans-Serif" font-size="10.00">Stream</text>
<text text-anchor="start" x="47.84" y="-647.75" font-family="Helvetica,sans-Serif" font-size="10.00"> </text>
<text text-anchor="start" x="47.84" y="-632.75" font-family="Helvetica,sans-Serif" font-size="10.00"> </text>
<polygon fill="#666666" stroke="#666666" points="28.84,-659.25 28.84,-659.25 69.84,-659.25 69.84,-659.25 28.84,-659.25"/>
<polygon fill="#666666" stroke="#666666" points="28.84,-644.25 28.84,-644.25 69.84,-644.25 69.84,-644.25 28.84,-644.25"/>
<polygon fill="none" stroke="#666666" points="28.84,-627.25 28.84,-676.25 69.84,-676.25 69.84,-627.25 28.84,-627.25"/>
</a>
</g>
</g>
<!-- Node3&#45;&gt;Node1 -->
<g id="edge4_Node000001_Node000003" class="edge">
<title>Node3&#45;&gt;Node1</title>
<g id="a_edge4_Node000001_Node000003"><a xlink:title=" ">
<path fill="none" stroke="#63b8ff" d="M41.93,-627.3C20.45,-555.02 -35.98,-330.71 34.59,-167.25 41.54,-151.15 52.26,-136.37 64.38,-123.27"/>
<polygon fill="none" stroke="#63b8ff" points="64.39,-123.25 65.73,-116.16 72.78,-114.67 71.45,-121.76 64.39,-123.25"/>
</a>
</g>
<text text-anchor="middle" x="68.71" y="-352.88" font-family="Helvetica,sans-Serif" font-size="10.00" fill="grey"> &#45;sourceStream</text>
</g>
<!-- Node3&#45;&gt;Node2 -->
<g id="edge2_Node000002_Node000003" class="edge">
<title>Node3&#45;&gt;Node2</title>
<g id="a_edge2_Node000002_Node000003"><a xlink:title=" ">
<path fill="none" stroke="#63b8ff" d="M66.47,-617.33C76.38,-597.12 88.58,-570.62 97.34,-546.25 106.84,-519.8 115.44,-490.69 122.72,-463.42"/>
<polygon fill="none" stroke="#63b8ff" points="63.37,-615.71 62.06,-626.22 69.64,-618.82 63.37,-615.71"/>
</a>
</g>
</g>
<!-- Node4 -->
<g id="Node000004" class="node">
<title>Node4</title>
<g id="a_Node000004"><a xlink:href="interface_n_audio_1_1_wave_1_1_i_wave_provider.html" target="_top" xlink:title="Generic interface for all WaveProviders.">
<polygon fill="white" stroke="none" points="171.84,-676.25 98.84,-676.25 98.84,-627.25 171.84,-627.25 171.84,-676.25"/>
<text text-anchor="start" x="103.46" y="-662.75" font-family="Helvetica,sans-Serif" font-size="10.00">IWaveProvider</text>
<text text-anchor="start" x="102.84" y="-647.75" font-family="Helvetica,sans-Serif" font-size="10.00">+</text>
<text text-anchor="start" x="112.84" y="-647.75" font-family="Helvetica,sans-Serif" font-size="10.00">WaveFormat</text>
<text text-anchor="start" x="102.84" y="-632.75" font-family="Helvetica,sans-Serif" font-size="10.00">+</text>
<text text-anchor="start" x="112.84" y="-632.75" font-family="Helvetica,sans-Serif" font-size="10.00">Read()</text>
<polygon fill="#666666" stroke="#666666" points="98.84,-659.25 98.84,-659.25 171.84,-659.25 171.84,-659.25 98.84,-659.25"/>
<polygon fill="#666666" stroke="#666666" points="98.84,-644.25 98.84,-644.25 110.84,-644.25 110.84,-644.25 98.84,-644.25"/>
<polygon fill="#666666" stroke="#666666" points="110.84,-644.25 110.84,-644.25 171.84,-644.25 171.84,-644.25 110.84,-644.25"/>
<polygon fill="none" stroke="#666666" points="98.84,-627.25 98.84,-676.25 171.84,-676.25 171.84,-627.25 98.84,-627.25"/>
</a>
</g>
</g>
<!-- Node4&#45;&gt;Node2 -->
<g id="edge3_Node000002_Node000004" class="edge">
<title>Node4&#45;&gt;Node2</title>
<g id="a_edge3_Node000002_Node000004"><a xlink:title=" ">
<path fill="none" stroke="#63b8ff" d="M136.76,-616C138.3,-578.59 140.81,-517.22 143,-463.69"/>
<polygon fill="none" stroke="#63b8ff" points="133.28,-615.62 136.36,-625.76 140.27,-615.91 133.28,-615.62"/>
</a>
</g>
</g>
<!-- Node5 -->
<g id="Node000005" class="node">
<title>Node5</title>
<g id="a_Node000005"><a xlink:href="class_n_audio_1_1_wave_1_1_wave_format.html" target="_top" xlink:title="Represents a Wave file format.">
<polygon fill="white" stroke="none" points="384.84,-546.25 235.84,-546.25 235.84,-167.25 384.84,-167.25 384.84,-546.25"/>
<text text-anchor="start" x="251.09" y="-532.75" font-family="Helvetica,sans-Serif" font-size="10.00">NAudio.Wave.WaveFormat</text>
<text text-anchor="start" x="239.84" y="-517.75" font-family="Helvetica,sans-Serif" font-size="10.00">+</text>
<text text-anchor="start" x="249.84" y="-517.75" font-family="Helvetica,sans-Serif" font-size="10.00">Encoding</text>
<text text-anchor="start" x="239.84" y="-502.75" font-family="Helvetica,sans-Serif" font-size="10.00">+</text>
<text text-anchor="start" x="249.84" y="-502.75" font-family="Helvetica,sans-Serif" font-size="10.00">Channels</text>
<text text-anchor="start" x="239.84" y="-487.75" font-family="Helvetica,sans-Serif" font-size="10.00">+</text>
<text text-anchor="start" x="249.84" y="-487.75" font-family="Helvetica,sans-Serif" font-size="10.00">SampleRate</text>
<text text-anchor="start" x="239.84" y="-472.75" font-family="Helvetica,sans-Serif" font-size="10.00">+</text>
<text text-anchor="start" x="249.84" y="-472.75" font-family="Helvetica,sans-Serif" font-size="10.00">AverageBytesPerSecond</text>
<text text-anchor="start" x="239.84" y="-457.75" font-family="Helvetica,sans-Serif" font-size="10.00">+</text>
<text text-anchor="start" x="249.84" y="-457.75" font-family="Helvetica,sans-Serif" font-size="10.00">BlockAlign</text>
<text text-anchor="start" x="239.84" y="-442.75" font-family="Helvetica,sans-Serif" font-size="10.00">+</text>
<text text-anchor="start" x="249.84" y="-442.75" font-family="Helvetica,sans-Serif" font-size="10.00">BitsPerSample</text>
<text text-anchor="start" x="239.84" y="-427.75" font-family="Helvetica,sans-Serif" font-size="10.00">+</text>
<text text-anchor="start" x="249.84" y="-427.75" font-family="Helvetica,sans-Serif" font-size="10.00">ExtraSize</text>
<text text-anchor="start" x="239.84" y="-412.75" font-family="Helvetica,sans-Serif" font-size="10.00">+</text>
<text text-anchor="start" x="249.84" y="-412.75" font-family="Helvetica,sans-Serif" font-size="10.00">WaveFormat()</text>
<text text-anchor="start" x="239.84" y="-397.75" font-family="Helvetica,sans-Serif" font-size="10.00">+</text>
<text text-anchor="start" x="249.84" y="-397.75" font-family="Helvetica,sans-Serif" font-size="10.00">WaveFormat()</text>
<text text-anchor="start" x="239.84" y="-382.75" font-family="Helvetica,sans-Serif" font-size="10.00">+</text>
<text text-anchor="start" x="249.84" y="-382.75" font-family="Helvetica,sans-Serif" font-size="10.00">ConvertLatencyToByteSize()</text>
<text text-anchor="start" x="239.84" y="-367.75" font-family="Helvetica,sans-Serif" font-size="10.00">+</text>
<text text-anchor="start" x="249.84" y="-367.75" font-family="Helvetica,sans-Serif" font-size="10.00">WaveFormat()</text>
<text text-anchor="start" x="239.84" y="-352.75" font-family="Helvetica,sans-Serif" font-size="10.00">+</text>
<text text-anchor="start" x="249.84" y="-352.75" font-family="Helvetica,sans-Serif" font-size="10.00">WaveFormat()</text>
<text text-anchor="start" x="239.84" y="-337.75" font-family="Helvetica,sans-Serif" font-size="10.00">+</text>
<text text-anchor="start" x="249.84" y="-337.75" font-family="Helvetica,sans-Serif" font-size="10.00">ToString()</text>
<text text-anchor="start" x="239.84" y="-322.75" font-family="Helvetica,sans-Serif" font-size="10.00">+</text>
<text text-anchor="start" x="249.84" y="-322.75" font-family="Helvetica,sans-Serif" font-size="10.00">Equals()</text>
<text text-anchor="start" x="239.84" y="-307.75" font-family="Helvetica,sans-Serif" font-size="10.00">+</text>
<text text-anchor="start" x="249.84" y="-307.75" font-family="Helvetica,sans-Serif" font-size="10.00">GetHashCode()</text>
<text text-anchor="start" x="239.84" y="-292.75" font-family="Helvetica,sans-Serif" font-size="10.00">+</text>
<text text-anchor="start" x="249.84" y="-292.75" font-family="Helvetica,sans-Serif" font-size="10.00">Serialize()</text>
<text text-anchor="start" x="239.84" y="-277.75" font-family="Helvetica,sans-Serif" font-size="10.00">+</text>
<text text-anchor="start" x="249.84" y="-277.75" font-family="Helvetica,sans-Serif" font-size="10.00">CreateCustomFormat()</text>
<text text-anchor="start" x="239.84" y="-262.75" font-family="Helvetica,sans-Serif" font-size="10.00">+</text>
<text text-anchor="start" x="249.84" y="-262.75" font-family="Helvetica,sans-Serif" font-size="10.00">CreateALawFormat()</text>
<text text-anchor="start" x="239.84" y="-247.75" font-family="Helvetica,sans-Serif" font-size="10.00">+</text>
<text text-anchor="start" x="249.84" y="-247.75" font-family="Helvetica,sans-Serif" font-size="10.00">CreateMuLawFormat()</text>
<text text-anchor="start" x="239.84" y="-232.75" font-family="Helvetica,sans-Serif" font-size="10.00">+</text>
<text text-anchor="start" x="249.84" y="-232.75" font-family="Helvetica,sans-Serif" font-size="10.00">CreateIeeeFloatWaveFormat()</text>
<text text-anchor="start" x="239.84" y="-217.75" font-family="Helvetica,sans-Serif" font-size="10.00">+</text>
<text text-anchor="start" x="249.84" y="-217.75" font-family="Helvetica,sans-Serif" font-size="10.00">MarshalFromPtr()</text>
<text text-anchor="start" x="239.84" y="-202.75" font-family="Helvetica,sans-Serif" font-size="10.00">+</text>
<text text-anchor="start" x="249.84" y="-202.75" font-family="Helvetica,sans-Serif" font-size="10.00">MarshalToPtr()</text>
<text text-anchor="start" x="239.84" y="-187.75" font-family="Helvetica,sans-Serif" font-size="10.00">+</text>
<text text-anchor="start" x="249.84" y="-187.75" font-family="Helvetica,sans-Serif" font-size="10.00">FromFormatChunk()</text>
<text text-anchor="start" x="241.34" y="-172.75" font-family="Helvetica,sans-Serif" font-size="10.00">&#45;</text>
<text text-anchor="start" x="249.84" y="-172.75" font-family="Helvetica,sans-Serif" font-size="10.00">ReadWaveFormat()</text>
<polygon fill="#666666" stroke="#666666" points="235.84,-529.25 235.84,-529.25 384.84,-529.25 384.84,-529.25 235.84,-529.25"/>
<polygon fill="#666666" stroke="#666666" points="235.84,-424.25 235.84,-424.25 247.84,-424.25 247.84,-424.25 235.84,-424.25"/>
<polygon fill="#666666" stroke="#666666" points="247.84,-424.25 247.84,-424.25 384.84,-424.25 384.84,-424.25 247.84,-424.25"/>
<polygon fill="none" stroke="#666666" points="235.84,-167.25 235.84,-546.25 384.84,-546.25 384.84,-167.25 235.84,-167.25"/>
</a>
</g>
</g>
<!-- Node5&#45;&gt;Node1 -->
<g id="edge5_Node000001_Node000005" class="edge">
<title>Node5&#45;&gt;Node1</title>
<g id="a_edge5_Node000001_Node000005"><a xlink:title=" ">
<path fill="none" stroke="#63b8ff" d="M235.99,-221.31C218.73,-190.09 201.03,-158.09 186.04,-130.97"/>
<polygon fill="none" stroke="#63b8ff" points="186.03,-130.96 179.62,-127.64 180.22,-120.46 186.62,-123.77 186.03,-130.96"/>
</a>
</g>
<text text-anchor="middle" x="226.34" y="-139.75" font-family="Helvetica,sans-Serif" font-size="10.00" fill="grey"> &#45;waveFormat</text>
</g>
<!-- Node6 -->
<g id="Node000006" class="node">
<title>Node6</title>
<g id="a_Node000006"><a xlink:title=" ">
<polygon fill="white" stroke="none" points="296.34,-676.25 190.34,-676.25 190.34,-627.25 296.34,-627.25 296.34,-676.25"/>
<text text-anchor="start" x="195.34" y="-662.75" font-family="Helvetica,sans-Serif" font-size="10.00">WaveFormatEncoding</text>
<text text-anchor="start" x="241.84" y="-647.75" font-family="Helvetica,sans-Serif" font-size="10.00"> </text>
<text text-anchor="start" x="241.84" y="-632.75" font-family="Helvetica,sans-Serif" font-size="10.00"> </text>
<polygon fill="#666666" stroke="#666666" points="190.34,-659.25 190.34,-659.25 296.34,-659.25 296.34,-659.25 190.34,-659.25"/>
<polygon fill="#666666" stroke="#666666" points="190.34,-644.25 190.34,-644.25 296.34,-644.25 296.34,-644.25 190.34,-644.25"/>
<polygon fill="none" stroke="#666666" points="190.34,-627.25 190.34,-676.25 296.34,-676.25 296.34,-627.25 190.34,-627.25"/>
</a>
</g>
</g>
<!-- Node6&#45;&gt;Node5 -->
<g id="edge6_Node000005_Node000006" class="edge">
<title>Node6&#45;&gt;Node5</title>
<g id="a_edge6_Node000005_Node000006"><a xlink:title=" ">
<path fill="none" stroke="#63b8ff" d="M245.05,-627.47C246.57,-609.97 249.21,-585.47 253.34,-564.25 253.71,-562.37 254.08,-560.48 254.46,-558.58"/>
<polygon fill="none" stroke="#63b8ff" points="254.46,-558.6 251.77,-551.91 256.91,-546.85 259.6,-553.54 254.46,-558.6"/>
</a>
</g>
<text text-anchor="middle" x="292.34" y="-582.88" font-family="Helvetica,sans-Serif" font-size="10.00" fill="grey"> #waveFormatTag</text>
</g>
<!-- Node7 -->
<g id="Node000007" class="node">
<title>Node7</title>
<g id="a_Node000007"><a xlink:title=" ">
<polygon fill="white" stroke="none" points="359.84,-676.25 328.84,-676.25 328.84,-627.25 359.84,-627.25 359.84,-676.25"/>
<text text-anchor="start" x="333.46" y="-662.75" font-family="Helvetica,sans-Serif" font-size="10.00">short</text>
<text text-anchor="start" x="342.84" y="-647.75" font-family="Helvetica,sans-Serif" font-size="10.00"> </text>
<text text-anchor="start" x="342.84" y="-632.75" font-family="Helvetica,sans-Serif" font-size="10.00"> </text>
<polygon fill="#666666" stroke="#666666" points="328.84,-659.25 328.84,-659.25 359.84,-659.25 359.84,-659.25 328.84,-659.25"/>
<polygon fill="#666666" stroke="#666666" points="328.84,-644.25 328.84,-644.25 359.84,-644.25 359.84,-644.25 328.84,-644.25"/>
<polygon fill="none" stroke="#666666" points="328.84,-627.25 328.84,-676.25 359.84,-676.25 359.84,-627.25 328.84,-627.25"/>
</a>
</g>
</g>
<!-- Node7&#45;&gt;Node5 -->
<g id="edge7_Node000005_Node000007" class="edge">
<title>Node7&#45;&gt;Node5</title>
<g id="a_edge7_Node000005_Node000007"><a xlink:title=" ">
<path fill="none" stroke="#63b8ff" d="M341.61,-627.27C339.67,-610.49 336.84,-586.11 333.67,-558.77"/>
<polygon fill="none" stroke="#63b8ff" points="333.67,-558.84 329.01,-553.34 332.29,-546.92 336.96,-552.42 333.67,-558.84"/>
</a>
</g>
<text text-anchor="middle" x="376.34" y="-599.75" font-family="Helvetica,sans-Serif" font-size="10.00" fill="grey"> #bitsPerSample</text>
<text text-anchor="middle" x="376.34" y="-588.5" font-family="Helvetica,sans-Serif" font-size="10.00" fill="grey">#blockAlign</text>
<text text-anchor="middle" x="376.34" y="-577.25" font-family="Helvetica,sans-Serif" font-size="10.00" fill="grey">#channels</text>
<text text-anchor="middle" x="376.34" y="-566" font-family="Helvetica,sans-Serif" font-size="10.00" fill="grey">#extraSize</text>
</g>
<!-- Node8 -->
<g id="Node000008" class="node">
<title>Node8</title>
<g id="a_Node000008"><a xlink:title=" ">
<polygon fill="white" stroke="none" points="449.34,-676.25 429.34,-676.25 429.34,-627.25 449.34,-627.25 449.34,-676.25"/>
<text text-anchor="start" x="434.09" y="-662.75" font-family="Helvetica,sans-Serif" font-size="10.00">int</text>
<text text-anchor="start" x="437.84" y="-647.75" font-family="Helvetica,sans-Serif" font-size="10.00"> </text>
<text text-anchor="start" x="437.84" y="-632.75" font-family="Helvetica,sans-Serif" font-size="10.00"> </text>
<polygon fill="#666666" stroke="#666666" points="429.34,-659.25 429.34,-659.25 449.34,-659.25 449.34,-659.25 429.34,-659.25"/>
<polygon fill="#666666" stroke="#666666" points="429.34,-644.25 429.34,-644.25 449.34,-644.25 449.34,-644.25 429.34,-644.25"/>
<polygon fill="none" stroke="#666666" points="429.34,-627.25 429.34,-676.25 449.34,-676.25 449.34,-627.25 429.34,-627.25"/>
</a>
</g>
</g>
<!-- Node8&#45;&gt;Node5 -->
<g id="edge8_Node000005_Node000008" class="edge">
<title>Node8&#45;&gt;Node5</title>
<g id="a_edge8_Node000005_Node000008"><a xlink:title=" ">
<path fill="none" stroke="#63b8ff" d="M434.6,-627.56C430.64,-609.89 424.37,-585.14 416.34,-564.25 408.72,-544.44 399.75,-524.04 390.31,-504.14"/>
<polygon fill="none" stroke="#63b8ff" points="390.3,-504.11 384.09,-500.43 385.1,-493.29 391.3,-496.97 390.3,-504.11"/>
</a>
</g>
<text text-anchor="middle" x="487.46" y="-588.5" font-family="Helvetica,sans-Serif" font-size="10.00" fill="grey"> #averageBytesPerSecond</text>
<text text-anchor="middle" x="487.46" y="-577.25" font-family="Helvetica,sans-Serif" font-size="10.00" fill="grey">#sampleRate</text>
</g>
</g>
</svg>
