<?xml version="1.0" encoding="UTF-8" standalone="no"?>
<!DOCTYPE svg PUBLIC "-//W3C//DTD SVG 1.1//EN"
 "http://www.w3.org/Graphics/SVG/1.1/DTD/svg11.dtd">
<!-- Generated by graphviz version 10.0.1 (20240210.2158)
 -->
<!-- Title: xeno_rat_server.IconInjector.NativeMethods Pages: 1 -->
<svg width="143pt" height="98pt"
 viewBox="0.00 0.00 143.00 98.00" xmlns="http://www.w3.org/2000/svg" xmlns:xlink="http://www.w3.org/1999/xlink">
<g id="graph0" class="graph" transform="scale(1 1) rotate(0) translate(4 94)">
<title>xeno_rat_server.IconInjector.NativeMethods</title>
<!-- Node1 -->
<g id="Node000001" class="node">
<title>Node1</title>
<g id="a_Node000001"><a xlink:title=" ">
<polygon fill="#999999" stroke="none" points="135,-90 0,-90 0,0 135,0 135,-90"/>
<text text-anchor="start" x="4.88" y="-76.5" font-family="Helvetica,sans-Serif" font-size="10.00">xeno_rat_server.IconInjector.</text>
<text text-anchor="start" x="34.5" y="-65.25" font-family="Helvetica,sans-Serif" font-size="10.00">NativeMethods</text>
<text text-anchor="start" x="66" y="-50.5" font-family="Helvetica,sans-Serif" font-size="10.00"> </text>
<text text-anchor="start" x="7" y="-35.5" font-family="Helvetica,sans-Serif" font-size="10.00">+</text>
<text text-anchor="start" x="20" y="-35.5" font-family="Helvetica,sans-Serif" font-size="10.00">BeginUpdateResource()</text>
<text text-anchor="start" x="7" y="-20.5" font-family="Helvetica,sans-Serif" font-size="10.00">+</text>
<text text-anchor="start" x="20" y="-20.5" font-family="Helvetica,sans-Serif" font-size="10.00">UpdateResource()</text>
<text text-anchor="start" x="7" y="-5.5" font-family="Helvetica,sans-Serif" font-size="10.00">+</text>
<text text-anchor="start" x="20" y="-5.5" font-family="Helvetica,sans-Serif" font-size="10.00">EndUpdateResource()</text>
<polygon fill="#666666" stroke="#666666" points="0,-62 0,-62 135,-62 135,-62 0,-62"/>
<polygon fill="#666666" stroke="#666666" points="0,-47 0,-47 135,-47 135,-47 0,-47"/>
<polygon fill="none" stroke="#666666" points="0,0 0,-90 135,-90 135,0 0,0"/>
</a>
</g>
</g>
</g>
</svg>
