<?xml version="1.0" encoding="UTF-8" standalone="no"?>
<!DOCTYPE svg PUBLIC "-//W3C//DTD SVG 1.1//EN"
 "http://www.w3.org/Graphics/SVG/1.1/DTD/svg11.dtd">
<!-- Generated by graphviz version 10.0.1 (20240210.2158)
 -->
<!-- Title: NAudio.Dmo.WindowsMediaMp3Decoder Pages: 1 -->
<svg width="573pt" height="673pt"
 viewBox="0.00 0.00 573.45 672.75" xmlns="http://www.w3.org/2000/svg" xmlns:xlink="http://www.w3.org/1999/xlink">
<g id="graph0" class="graph" transform="scale(1 1) rotate(0) translate(4 668.75)">
<title>NAudio.Dmo.WindowsMediaMp3Decoder</title>
<!-- Node1 -->
<g id="Node000001" class="node">
<title>Node1</title>
<g id="a_Node000001"><a xlink:title="Windows Media MP3 Decoder (as a DMO) WORK IN PROGRESS &#45; DO NOT USE!">
<polygon fill="#999999" stroke="none" points="350.45,-75 196.45,-75 196.45,0 350.45,0 350.45,-75"/>
<text text-anchor="start" x="201.08" y="-61.5" font-family="Helvetica,sans-Serif" font-size="10.00">NAudio.Dmo.WindowsMediaMp3</text>
<text text-anchor="start" x="255.08" y="-50.25" font-family="Helvetica,sans-Serif" font-size="10.00">Decoder</text>
<text text-anchor="start" x="202.45" y="-35.5" font-family="Helvetica,sans-Serif" font-size="10.00">+</text>
<text text-anchor="start" x="214.45" y="-35.5" font-family="Helvetica,sans-Serif" font-size="10.00">MediaObject</text>
<text text-anchor="start" x="202.45" y="-20.5" font-family="Helvetica,sans-Serif" font-size="10.00">+</text>
<text text-anchor="start" x="214.45" y="-20.5" font-family="Helvetica,sans-Serif" font-size="10.00">WindowsMediaMp3Decoder()</text>
<text text-anchor="start" x="202.45" y="-5.5" font-family="Helvetica,sans-Serif" font-size="10.00">+</text>
<text text-anchor="start" x="214.45" y="-5.5" font-family="Helvetica,sans-Serif" font-size="10.00">Dispose()</text>
<polygon fill="#666666" stroke="#666666" points="196.45,-47 196.45,-47 350.45,-47 350.45,-47 196.45,-47"/>
<polygon fill="#666666" stroke="#666666" points="196.45,-32 196.45,-32 212.45,-32 212.45,-32 196.45,-32"/>
<polygon fill="#666666" stroke="#666666" points="212.45,-32 212.45,-32 350.45,-32 350.45,-32 212.45,-32"/>
<polygon fill="none" stroke="#666666" points="196.45,0 196.45,-75 350.45,-75 350.45,0 196.45,0"/>
</a>
</g>
</g>
<!-- Node2 -->
<g id="Node000002" class="node">
<title>Node2</title>
<g id="a_Node000002"><a xlink:href="class_i_disposable.html" target="_top" xlink:title=" ">
<polygon fill="white" stroke="none" points="64.95,-589.75 3.95,-589.75 3.95,-540.75 64.95,-540.75 64.95,-589.75"/>
<text text-anchor="start" x="8.58" y="-576.25" font-family="Helvetica,sans-Serif" font-size="10.00">IDisposable</text>
<text text-anchor="start" x="32.95" y="-561.25" font-family="Helvetica,sans-Serif" font-size="10.00"> </text>
<text text-anchor="start" x="32.95" y="-546.25" font-family="Helvetica,sans-Serif" font-size="10.00"> </text>
<polygon fill="#666666" stroke="#666666" points="3.95,-572.75 3.95,-572.75 64.95,-572.75 64.95,-572.75 3.95,-572.75"/>
<polygon fill="#666666" stroke="#666666" points="3.95,-557.75 3.95,-557.75 64.95,-557.75 64.95,-557.75 3.95,-557.75"/>
<polygon fill="none" stroke="#666666" points="3.95,-540.75 3.95,-589.75 64.95,-589.75 64.95,-540.75 3.95,-540.75"/>
</a>
</g>
</g>
<!-- Node2&#45;&gt;Node1 -->
<g id="edge1_Node000001_Node000002" class="edge">
<title>Node2&#45;&gt;Node1</title>
<g id="a_edge1_Node000001_Node000002"><a xlink:title=" ">
<path fill="none" stroke="#63b8ff" d="M24.93,-529.84C4.94,-449.66 -32.42,-247.72 58.45,-122.25 90.29,-78.29 148.66,-57.4 196.55,-47.48"/>
<polygon fill="none" stroke="#63b8ff" points="21.48,-530.48 27.36,-539.29 28.26,-528.74 21.48,-530.48"/>
</a>
</g>
</g>
<!-- Node3 -->
<g id="Node000003" class="node">
<title>Node3</title>
<g id="a_Node000003"><a xlink:href="class_n_audio_1_1_dmo_1_1_media_object.html" target="_top" xlink:title="Media Object.">
<polygon fill="white" stroke="none" points="221.45,-407.25 67.45,-407.25 67.45,-122.25 221.45,-122.25 221.45,-407.25"/>
<text text-anchor="start" x="87.45" y="-393.75" font-family="Helvetica,sans-Serif" font-size="10.00">NAudio.Dmo.MediaObject</text>
<text text-anchor="start" x="71.45" y="-378.75" font-family="Helvetica,sans-Serif" font-size="10.00">+</text>
<text text-anchor="start" x="81.45" y="-378.75" font-family="Helvetica,sans-Serif" font-size="10.00">InputStreamCount</text>
<text text-anchor="start" x="71.45" y="-363.75" font-family="Helvetica,sans-Serif" font-size="10.00">+</text>
<text text-anchor="start" x="81.45" y="-363.75" font-family="Helvetica,sans-Serif" font-size="10.00">OutputStreamCount</text>
<text text-anchor="start" x="71.45" y="-348.75" font-family="Helvetica,sans-Serif" font-size="10.00">+</text>
<text text-anchor="start" x="81.45" y="-348.75" font-family="Helvetica,sans-Serif" font-size="10.00">GetInputType()</text>
<text text-anchor="start" x="71.45" y="-333.75" font-family="Helvetica,sans-Serif" font-size="10.00">+</text>
<text text-anchor="start" x="81.45" y="-333.75" font-family="Helvetica,sans-Serif" font-size="10.00">GetOutputType()</text>
<text text-anchor="start" x="71.45" y="-318.75" font-family="Helvetica,sans-Serif" font-size="10.00">+</text>
<text text-anchor="start" x="81.45" y="-318.75" font-family="Helvetica,sans-Serif" font-size="10.00">GetOutputCurrentType()</text>
<text text-anchor="start" x="71.45" y="-303.75" font-family="Helvetica,sans-Serif" font-size="10.00">+</text>
<text text-anchor="start" x="81.45" y="-303.75" font-family="Helvetica,sans-Serif" font-size="10.00">GetInputTypes()</text>
<text text-anchor="start" x="71.45" y="-288.75" font-family="Helvetica,sans-Serif" font-size="10.00">+</text>
<text text-anchor="start" x="81.45" y="-288.75" font-family="Helvetica,sans-Serif" font-size="10.00">GetOutputTypes()</text>
<text text-anchor="start" x="71.45" y="-273.75" font-family="Helvetica,sans-Serif" font-size="10.00">+</text>
<text text-anchor="start" x="81.45" y="-273.75" font-family="Helvetica,sans-Serif" font-size="10.00">SupportsInputType()</text>
<text text-anchor="start" x="71.45" y="-258.75" font-family="Helvetica,sans-Serif" font-size="10.00">+</text>
<text text-anchor="start" x="81.45" y="-258.75" font-family="Helvetica,sans-Serif" font-size="10.00">SetInputType()</text>
<text text-anchor="start" x="71.45" y="-243.75" font-family="Helvetica,sans-Serif" font-size="10.00">+</text>
<text text-anchor="start" x="81.45" y="-243.75" font-family="Helvetica,sans-Serif" font-size="10.00">SetInputWaveFormat()</text>
<text text-anchor="start" x="71.45" y="-228.75" font-family="Helvetica,sans-Serif" font-size="10.00">+</text>
<text text-anchor="start" x="81.45" y="-228.75" font-family="Helvetica,sans-Serif" font-size="10.00">SupportsInputWaveFormat()</text>
<text text-anchor="start" x="71.45" y="-213.75" font-family="Helvetica,sans-Serif" font-size="10.00">+</text>
<text text-anchor="start" x="81.45" y="-213.75" font-family="Helvetica,sans-Serif" font-size="10.00">SupportsOutputType()</text>
<text text-anchor="start" x="81.45" y="-198.75" font-family="Helvetica,sans-Serif" font-size="10.00">and 14 more...</text>
<text text-anchor="start" x="71.45" y="-183.75" font-family="Helvetica,sans-Serif" font-size="10.00">~</text>
<text text-anchor="start" x="81.45" y="-183.75" font-family="Helvetica,sans-Serif" font-size="10.00">MediaObject()</text>
<text text-anchor="start" x="72.95" y="-168.75" font-family="Helvetica,sans-Serif" font-size="10.00">&#45;</text>
<text text-anchor="start" x="81.45" y="-168.75" font-family="Helvetica,sans-Serif" font-size="10.00">SetInputType()</text>
<text text-anchor="start" x="72.95" y="-153.75" font-family="Helvetica,sans-Serif" font-size="10.00">&#45;</text>
<text text-anchor="start" x="81.45" y="-153.75" font-family="Helvetica,sans-Serif" font-size="10.00">CreateDmoMediaTypeForWave</text>
<text text-anchor="start" x="81.45" y="-142.5" font-family="Helvetica,sans-Serif" font-size="10.00">Format()</text>
<text text-anchor="start" x="72.95" y="-127.75" font-family="Helvetica,sans-Serif" font-size="10.00">&#45;</text>
<text text-anchor="start" x="81.45" y="-127.75" font-family="Helvetica,sans-Serif" font-size="10.00">SetOutputType()</text>
<polygon fill="#666666" stroke="#666666" points="67.45,-390.25 67.45,-390.25 221.45,-390.25 221.45,-390.25 67.45,-390.25"/>
<polygon fill="#666666" stroke="#666666" points="67.45,-360.25 67.45,-360.25 79.45,-360.25 79.45,-360.25 67.45,-360.25"/>
<polygon fill="#666666" stroke="#666666" points="79.45,-360.25 79.45,-360.25 221.45,-360.25 221.45,-360.25 79.45,-360.25"/>
<polygon fill="none" stroke="#666666" points="67.45,-122.25 67.45,-407.25 221.45,-407.25 221.45,-122.25 67.45,-122.25"/>
</a>
</g>
</g>
<!-- Node2&#45;&gt;Node3 -->
<g id="edge3_Node000003_Node000002" class="edge">
<title>Node2&#45;&gt;Node3</title>
<g id="a_edge3_Node000003_Node000002"><a xlink:title=" ">
<path fill="none" stroke="#63b8ff" d="M46.94,-530.37C58.18,-499.86 75.49,-452.89 92.42,-406.94"/>
<polygon fill="none" stroke="#63b8ff" points="43.78,-528.81 43.61,-539.41 50.35,-531.23 43.78,-528.81"/>
</a>
</g>
</g>
<!-- Node3&#45;&gt;Node1 -->
<g id="edge2_Node000001_Node000003" class="edge">
<title>Node3&#45;&gt;Node1</title>
<g id="a_edge2_Node000001_Node000003"><a xlink:title=" ">
<path fill="none" stroke="#63b8ff" d="M201.62,-122.67C207.29,-112.38 213.33,-102.38 219.7,-93 221.63,-90.16 223.72,-87.34 225.91,-84.56"/>
<polygon fill="none" stroke="#63b8ff" points="225.89,-84.59 226.71,-77.42 233.64,-75.43 232.82,-82.59 225.89,-84.59"/>
</a>
</g>
<text text-anchor="middle" x="250.83" y="-94.75" font-family="Helvetica,sans-Serif" font-size="10.00" fill="grey"> &#45;mediaObject</text>
</g>
<!-- Node4 -->
<g id="Node000004" class="node">
<title>Node4</title>
<g id="a_Node000004"><a xlink:href="interface_n_audio_1_1_dmo_1_1_i_media_object.html" target="_top" xlink:title="defined in mediaobj.h">
<polygon fill="white" stroke="none" points="209.95,-664.75 82.95,-664.75 82.95,-465.75 209.95,-465.75 209.95,-664.75"/>
<text text-anchor="start" x="87.95" y="-651.25" font-family="Helvetica,sans-Serif" font-size="10.00">NAudio.Dmo.IMediaObject</text>
<text text-anchor="start" x="144.95" y="-636.25" font-family="Helvetica,sans-Serif" font-size="10.00"> </text>
<text text-anchor="start" x="87.95" y="-621.25" font-family="Helvetica,sans-Serif" font-size="10.00">+</text>
<text text-anchor="start" x="98.95" y="-621.25" font-family="Helvetica,sans-Serif" font-size="10.00">GetStreamCount()</text>
<text text-anchor="start" x="87.95" y="-606.25" font-family="Helvetica,sans-Serif" font-size="10.00">+</text>
<text text-anchor="start" x="98.95" y="-606.25" font-family="Helvetica,sans-Serif" font-size="10.00">GetInputStreamInfo()</text>
<text text-anchor="start" x="87.95" y="-591.25" font-family="Helvetica,sans-Serif" font-size="10.00">+</text>
<text text-anchor="start" x="98.95" y="-591.25" font-family="Helvetica,sans-Serif" font-size="10.00">GetOutputStreamInfo()</text>
<text text-anchor="start" x="87.95" y="-576.25" font-family="Helvetica,sans-Serif" font-size="10.00">+</text>
<text text-anchor="start" x="98.95" y="-576.25" font-family="Helvetica,sans-Serif" font-size="10.00">GetInputType()</text>
<text text-anchor="start" x="87.95" y="-561.25" font-family="Helvetica,sans-Serif" font-size="10.00">+</text>
<text text-anchor="start" x="98.95" y="-561.25" font-family="Helvetica,sans-Serif" font-size="10.00">GetOutputType()</text>
<text text-anchor="start" x="87.95" y="-546.25" font-family="Helvetica,sans-Serif" font-size="10.00">+</text>
<text text-anchor="start" x="98.95" y="-546.25" font-family="Helvetica,sans-Serif" font-size="10.00">SetInputType()</text>
<text text-anchor="start" x="87.95" y="-531.25" font-family="Helvetica,sans-Serif" font-size="10.00">+</text>
<text text-anchor="start" x="98.95" y="-531.25" font-family="Helvetica,sans-Serif" font-size="10.00">SetOutputType()</text>
<text text-anchor="start" x="87.95" y="-516.25" font-family="Helvetica,sans-Serif" font-size="10.00">+</text>
<text text-anchor="start" x="98.95" y="-516.25" font-family="Helvetica,sans-Serif" font-size="10.00">GetInputCurrentType()</text>
<text text-anchor="start" x="87.95" y="-501.25" font-family="Helvetica,sans-Serif" font-size="10.00">+</text>
<text text-anchor="start" x="98.95" y="-501.25" font-family="Helvetica,sans-Serif" font-size="10.00">GetOutputCurrentType()</text>
<text text-anchor="start" x="87.95" y="-486.25" font-family="Helvetica,sans-Serif" font-size="10.00">+</text>
<text text-anchor="start" x="98.95" y="-486.25" font-family="Helvetica,sans-Serif" font-size="10.00">GetInputSizeInfo()</text>
<text text-anchor="start" x="98.95" y="-471.25" font-family="Helvetica,sans-Serif" font-size="10.00">and 11 more...</text>
<polygon fill="#666666" stroke="#666666" points="82.95,-647.75 82.95,-647.75 209.95,-647.75 209.95,-647.75 82.95,-647.75"/>
<polygon fill="#666666" stroke="#666666" points="82.95,-632.75 82.95,-632.75 209.95,-632.75 209.95,-632.75 82.95,-632.75"/>
<polygon fill="none" stroke="#666666" points="82.95,-465.75 82.95,-664.75 209.95,-664.75 209.95,-465.75 82.95,-465.75"/>
</a>
</g>
</g>
<!-- Node4&#45;&gt;Node3 -->
<g id="edge4_Node000003_Node000004" class="edge">
<title>Node4&#45;&gt;Node3</title>
<g id="a_edge4_Node000003_Node000004"><a xlink:title=" ">
<path fill="none" stroke="#63b8ff" d="M145.79,-466.1C145.69,-451.21 145.59,-435.56 145.48,-419.83"/>
<polygon fill="none" stroke="#63b8ff" points="145.49,-420.12 141.45,-414.15 145.41,-408.12 149.45,-414.09 145.49,-420.12"/>
</a>
</g>
<text text-anchor="middle" x="176.83" y="-432.62" font-family="Helvetica,sans-Serif" font-size="10.00" fill="grey"> &#45;mediaObject</text>
</g>
<!-- Node5 -->
<g id="Node000005" class="node">
<title>Node5</title>
<g id="a_Node000005"><a xlink:title=" ">
<polygon fill="white" stroke="none" points="248.45,-589.75 228.45,-589.75 228.45,-540.75 248.45,-540.75 248.45,-589.75"/>
<text text-anchor="start" x="233.2" y="-576.25" font-family="Helvetica,sans-Serif" font-size="10.00">int</text>
<text text-anchor="start" x="236.95" y="-561.25" font-family="Helvetica,sans-Serif" font-size="10.00"> </text>
<text text-anchor="start" x="236.95" y="-546.25" font-family="Helvetica,sans-Serif" font-size="10.00"> </text>
<polygon fill="#666666" stroke="#666666" points="228.45,-572.75 228.45,-572.75 248.45,-572.75 248.45,-572.75 228.45,-572.75"/>
<polygon fill="#666666" stroke="#666666" points="228.45,-557.75 228.45,-557.75 248.45,-557.75 248.45,-557.75 228.45,-557.75"/>
<polygon fill="none" stroke="#666666" points="228.45,-540.75 228.45,-589.75 248.45,-589.75 248.45,-540.75 228.45,-540.75"/>
</a>
</g>
</g>
<!-- Node5&#45;&gt;Node3 -->
<g id="edge5_Node000003_Node000005" class="edge">
<title>Node5&#45;&gt;Node3</title>
<g id="a_edge5_Node000003_Node000005"><a xlink:title=" ">
<path fill="none" stroke="#63b8ff" d="M235.4,-540.77C231.42,-512.85 223.52,-465 211.45,-425.25 210.85,-423.27 210.23,-421.28 209.6,-419.28"/>
<polygon fill="none" stroke="#63b8ff" points="209.57,-419.2 203.9,-414.76 205.82,-407.81 211.5,-412.25 209.57,-419.2"/>
</a>
</g>
<text text-anchor="middle" x="251.83" y="-438.25" font-family="Helvetica,sans-Serif" font-size="10.00" fill="grey"> &#45;inputStreams</text>
<text text-anchor="middle" x="251.83" y="-427" font-family="Helvetica,sans-Serif" font-size="10.00" fill="grey">&#45;outputStreams</text>
</g>
<!-- Node6 -->
<g id="Node000006" class="node">
<title>Node6</title>
<g id="a_Node000006"><a xlink:href="interface_n_audio_1_1_core_audio_api_1_1_interfaces_1_1_i_property_store.html" target="_top" xlink:title="is defined in propsys.h">
<polygon fill="white" stroke="none" points="393.45,-324.75 239.45,-324.75 239.45,-204.75 393.45,-204.75 393.45,-324.75"/>
<text text-anchor="start" x="244.08" y="-311.25" font-family="Helvetica,sans-Serif" font-size="10.00">NAudio.CoreAudioApi.Interfaces.</text>
<text text-anchor="start" x="284.95" y="-300" font-family="Helvetica,sans-Serif" font-size="10.00">IPropertyStore</text>
<text text-anchor="start" x="314.95" y="-285.25" font-family="Helvetica,sans-Serif" font-size="10.00"> </text>
<text text-anchor="start" x="265.45" y="-270.25" font-family="Helvetica,sans-Serif" font-size="10.00">+</text>
<text text-anchor="start" x="297.45" y="-270.25" font-family="Helvetica,sans-Serif" font-size="10.00">GetCount()</text>
<text text-anchor="start" x="265.45" y="-255.25" font-family="Helvetica,sans-Serif" font-size="10.00">+</text>
<text text-anchor="start" x="297.45" y="-255.25" font-family="Helvetica,sans-Serif" font-size="10.00">GetAt()</text>
<text text-anchor="start" x="265.45" y="-240.25" font-family="Helvetica,sans-Serif" font-size="10.00">+</text>
<text text-anchor="start" x="297.45" y="-240.25" font-family="Helvetica,sans-Serif" font-size="10.00">GetValue()</text>
<text text-anchor="start" x="265.45" y="-225.25" font-family="Helvetica,sans-Serif" font-size="10.00">+</text>
<text text-anchor="start" x="297.45" y="-225.25" font-family="Helvetica,sans-Serif" font-size="10.00">SetValue()</text>
<text text-anchor="start" x="265.45" y="-210.25" font-family="Helvetica,sans-Serif" font-size="10.00">+</text>
<text text-anchor="start" x="297.45" y="-210.25" font-family="Helvetica,sans-Serif" font-size="10.00">Commit()</text>
<polygon fill="#666666" stroke="#666666" points="239.45,-296.75 239.45,-296.75 393.45,-296.75 393.45,-296.75 239.45,-296.75"/>
<polygon fill="#666666" stroke="#666666" points="239.45,-281.75 239.45,-281.75 393.45,-281.75 393.45,-281.75 239.45,-281.75"/>
<polygon fill="none" stroke="#666666" points="239.45,-204.75 239.45,-324.75 393.45,-324.75 393.45,-204.75 239.45,-204.75"/>
</a>
</g>
</g>
<!-- Node6&#45;&gt;Node1 -->
<g id="edge6_Node000001_Node000006" class="edge">
<title>Node6&#45;&gt;Node1</title>
<g id="a_edge6_Node000001_Node000006"><a xlink:title=" ">
<path fill="none" stroke="#63b8ff" d="M305.21,-204.86C298.24,-168.34 289.38,-121.96 282.8,-87.46"/>
<polygon fill="none" stroke="#63b8ff" points="282.81,-87.54 277.76,-82.39 280.56,-75.75 285.62,-80.89 282.81,-87.54"/>
</a>
</g>
<text text-anchor="middle" x="335.83" y="-94.75" font-family="Helvetica,sans-Serif" font-size="10.00" fill="grey"> &#45;propertyStoreInterface</text>
</g>
<!-- Node7 -->
<g id="Node000007" class="node">
<title>Node7</title>
<g id="a_Node000007"><a xlink:href="class_n_audio_1_1_dmo_1_1_windows_media_mp3_decoder_com_object.html" target="_top" xlink:title="implements IMediaObject (DirectX Media Object) implements IMFTransform (Media Foundation Transform) O...">
<polygon fill="white" stroke="none" points="565.45,-294.75 411.45,-294.75 411.45,-234.75 565.45,-234.75 565.45,-294.75"/>
<text text-anchor="start" x="416.08" y="-281.25" font-family="Helvetica,sans-Serif" font-size="10.00">NAudio.Dmo.WindowsMediaMp3</text>
<text text-anchor="start" x="445.33" y="-270" font-family="Helvetica,sans-Serif" font-size="10.00">DecoderComObject</text>
<text text-anchor="start" x="486.95" y="-255.25" font-family="Helvetica,sans-Serif" font-size="10.00"> </text>
<text text-anchor="start" x="486.95" y="-240.25" font-family="Helvetica,sans-Serif" font-size="10.00"> </text>
<polygon fill="#666666" stroke="#666666" points="411.45,-266.75 411.45,-266.75 565.45,-266.75 565.45,-266.75 411.45,-266.75"/>
<polygon fill="#666666" stroke="#666666" points="411.45,-251.75 411.45,-251.75 565.45,-251.75 565.45,-251.75 411.45,-251.75"/>
<polygon fill="none" stroke="#666666" points="411.45,-234.75 411.45,-294.75 565.45,-294.75 565.45,-234.75 411.45,-234.75"/>
</a>
</g>
</g>
<!-- Node7&#45;&gt;Node1 -->
<g id="edge7_Node000001_Node000007" class="edge">
<title>Node7&#45;&gt;Node1</title>
<g id="a_edge7_Node000001_Node000007"><a xlink:title=" ">
<path fill="none" stroke="#63b8ff" d="M478.41,-234.77C464.24,-197.6 435.12,-133.15 391.45,-93 382.57,-84.84 372.26,-77.71 361.5,-71.54"/>
<polygon fill="none" stroke="#63b8ff" points="361.53,-71.55 354.35,-72.24 350.96,-65.88 358.14,-65.19 361.53,-71.55"/>
</a>
</g>
<text text-anchor="middle" x="443.33" y="-94.75" font-family="Helvetica,sans-Serif" font-size="10.00" fill="grey"> &#45;mediaComObject</text>
</g>
</g>
</svg>
