<?xml version="1.0" encoding="UTF-8" standalone="no"?>
<!DOCTYPE svg PUBLIC "-//W3C//DTD SVG 1.1//EN"
 "http://www.w3.org/Graphics/SVG/1.1/DTD/svg11.dtd">
<!-- Generated by graphviz version 10.0.1 (20240210.2158)
 -->
<!-- Title: xeno_rat_server.Forms.OfflineKeylogger.StopKeylogger Pages: 1 -->
<svg width="706pt" height="39pt"
 viewBox="0.00 0.00 705.75 38.50" xmlns="http://www.w3.org/2000/svg" xmlns:xlink="http://www.w3.org/1999/xlink">
<g id="graph0" class="graph" transform="scale(1 1) rotate(0) translate(4 34.5)">
<title>xeno_rat_server.Forms.OfflineKeylogger.StopKeylogger</title>
<!-- Node1 -->
<g id="Node000001" class="node">
<title>Node1</title>
<g id="a_Node000001"><a xlink:title="Stops the keylogger by sending a byte array with value 2 to the client asynchronously.">
<polygon fill="#999999" stroke="#666666" points="697.75,-30.5 550.5,-30.5 550.5,0 697.75,0 697.75,-30.5"/>
<text text-anchor="start" x="558.5" y="-17" font-family="Helvetica,sans-Serif" font-size="10.00">xeno_rat_server.Forms.Offline</text>
<text text-anchor="middle" x="624.12" y="-5.75" font-family="Helvetica,sans-Serif" font-size="10.00">Keylogger.StopKeylogger</text>
</a>
</g>
</g>
<!-- Node2 -->
<g id="Node000002" class="node">
<title>Node2</title>
<g id="a_Node000002"><a xlink:href="classxeno__rat__server_1_1_forms_1_1_offline_keylogger.html#a98a1d9431b02a155b7a9ea93c342c0ef" target="_top" xlink:title="Stops the keylogger and updates the status asynchronously.">
<polygon fill="white" stroke="#666666" points="514.5,-30.5 367.25,-30.5 367.25,0 514.5,0 514.5,-30.5"/>
<text text-anchor="start" x="375.25" y="-17" font-family="Helvetica,sans-Serif" font-size="10.00">xeno_rat_server.Forms.Offline</text>
<text text-anchor="middle" x="440.88" y="-5.75" font-family="Helvetica,sans-Serif" font-size="10.00">Keylogger.button2_Click</text>
</a>
</g>
</g>
<!-- Node1&#45;&gt;Node2 -->
<g id="edge1_Node000001_Node000002" class="edge">
<title>Node1&#45;&gt;Node2</title>
<g id="a_edge1_Node000001_Node000002"><a xlink:title=" ">
<path fill="none" stroke="#63b8ff" d="M538.94,-15.25C530.93,-15.25 522.85,-15.25 514.96,-15.25"/>
<polygon fill="#63b8ff" stroke="#63b8ff" points="538.67,-18.75 548.67,-15.25 538.67,-11.75 538.67,-18.75"/>
</a>
</g>
</g>
<!-- Node3 -->
<g id="Node000003" class="node">
<title>Node3</title>
<g id="a_Node000003"><a xlink:href="classxeno__rat__server_1_1_forms_1_1_offline_keylogger.html#afb7dbc37c064ebca17865a478e0f16cc" target="_top" xlink:title="Initializes the components of the form including labels, text boxes, list view, and buttons.">
<polygon fill="white" stroke="#666666" points="331.25,-30.5 183.25,-30.5 183.25,0 331.25,0 331.25,-30.5"/>
<text text-anchor="start" x="191.25" y="-17" font-family="Helvetica,sans-Serif" font-size="10.00">xeno_rat_server.Forms.Offline</text>
<text text-anchor="middle" x="257.25" y="-5.75" font-family="Helvetica,sans-Serif" font-size="10.00">Keylogger.InitializeComponent</text>
</a>
</g>
</g>
<!-- Node2&#45;&gt;Node3 -->
<g id="edge2_Node000002_Node000003" class="edge">
<title>Node2&#45;&gt;Node3</title>
<g id="a_edge2_Node000002_Node000003"><a xlink:title=" ">
<path fill="none" stroke="#63b8ff" d="M355.51,-15.25C347.49,-15.25 339.39,-15.25 331.48,-15.25"/>
<polygon fill="#63b8ff" stroke="#63b8ff" points="355.27,-18.75 365.27,-15.25 355.27,-11.75 355.27,-18.75"/>
</a>
</g>
</g>
<!-- Node4 -->
<g id="Node000004" class="node">
<title>Node4</title>
<g id="a_Node000004"><a xlink:href="classxeno__rat__server_1_1_forms_1_1_offline_keylogger.html#a640737785afab614c817698a30ebf60c" target="_top" xlink:title=" ">
<polygon fill="white" stroke="#666666" points="147.25,-30.5 0,-30.5 0,0 147.25,0 147.25,-30.5"/>
<text text-anchor="start" x="8" y="-17" font-family="Helvetica,sans-Serif" font-size="10.00">xeno_rat_server.Forms.Offline</text>
<text text-anchor="middle" x="73.62" y="-5.75" font-family="Helvetica,sans-Serif" font-size="10.00">Keylogger.OfflineKeylogger</text>
</a>
</g>
</g>
<!-- Node3&#45;&gt;Node4 -->
<g id="edge3_Node000003_Node000004" class="edge">
<title>Node3&#45;&gt;Node4</title>
<g id="a_edge3_Node000003_Node000004"><a xlink:title=" ">
<path fill="none" stroke="#63b8ff" d="M171.64,-15.25C163.63,-15.25 155.55,-15.25 147.66,-15.25"/>
<polygon fill="#63b8ff" stroke="#63b8ff" points="171.39,-18.75 181.39,-15.25 171.39,-11.75 171.39,-18.75"/>
</a>
</g>
</g>
</g>
</svg>
