<?xml version="1.0" encoding="UTF-8" standalone="no"?>
<!DOCTYPE svg PUBLIC "-//W3C//DTD SVG 1.1//EN"
 "http://www.w3.org/Graphics/SVG/1.1/DTD/svg11.dtd">
<!-- Generated by graphviz version 10.0.1 (20240210.2158)
 -->
<!-- Title: NAudio.Mixer.UnsignedMixerControl Pages: 1 -->
<!--zoomable 543 -->

<svg id="main" version="1.1" xmlns="http://www.w3.org/2000/svg" xmlns:xlink="http://www.w3.org/1999/xlink" xml:space="preserve" onload="init(evt)">
<style type="text/css"><![CDATA[
.node, .edge {opacity: 0.7;}
.node.selected, .edge.selected {opacity: 1;}
.edge:hover path { stroke: red; }
.edge:hover polygon { stroke: red; fill: red; }
]]></style>

<defs>
  <circle id="rim" cx="0" cy="0" r="7"/>
  <circle id="rim2" cx="0" cy="0" r="3.5"/>
  <g id="zoomPlus">
    <use xlink:href="#rim" fill="#404040"><set attributeName="fill" to="#808080" begin="zoomplus.mouseover" end="zoomplus.mouseout"/></use>
    <path d="M-4,0h8M0,-4v8" fill="none" stroke="white" stroke-width="1.5" pointer-events="none"/>
  </g>
  <g id="zoomMin">
    <use xlink:href="#rim" fill="#404040"><set attributeName="fill" to="#808080" begin="zoomminus.mouseover" end="zoomminus.mouseout"/></use>
    <path d="M-4,0h8" fill="none" stroke="white" stroke-width="1.5" pointer-events="none"/>
  </g>
  <g id="arrowUp" transform="translate(30 24)">
    <use xlink:href="#rim"/>
    <path pointer-events="none" fill="none" stroke="white" stroke-width="1.5" d="M0,-3.0v7 M-2.5,-0.5L0,-3.0L2.5,-0.5"/>
  </g>
  <g id="arrowRight" transform="rotate(90) translate(36 -43)">
    <use xlink:href="#rim"/>
    <path pointer-events="none" fill="none" stroke="white" stroke-width="1.5" d="M0,-3.0v7 M-2.5,-0.5L0,-3.0L2.5,-0.5"/>
  </g>
  <g id="arrowDown" transform="rotate(180) translate(-30 -48)">
    <use xlink:href="#rim"/>
    <path pointer-events="none" fill="none" stroke="white" stroke-width="1.5" d="M0,-3.0v7 M-2.5,-0.5L0,-3.0L2.5,-0.5"/>
  </g>
  <g id="arrowLeft" transform="rotate(270) translate(-36 17)">
    <use xlink:href="#rim"/>
    <path pointer-events="none" fill="none" stroke="white" stroke-width="1.5" d="M0,-3.0v7 M-2.5,-0.5L0,-3.0L2.5,-0.5"/>
  </g>
  <g id="resetDef">
    <use xlink:href="#rim2" fill="#404040"><set attributeName="fill" to="#808080" begin="reset.mouseover" end="reset.mouseout"/></use>
  </g>
</defs>
<script type="application/ecmascript">
var viewWidth = 144;
var viewHeight = 543;
var sectionId = 'dynsection-0';
</script>
<script type="application/ecmascript" xlink:href="svg.min.js"/>
<svg id="graph" class="graph">
<g id="viewport">
<title>NAudio.Mixer.UnsignedMixerControl</title>
<!-- Node1 -->
<g id="Node000001" class="node">
<title>Node1</title>
<g id="a_Node000001"><a xlink:title="Represents an unsigned mixer control.">
<polygon fill="#999999" stroke="none" points="136,-150 0,-150 0,0 136,0 136,-150"/>
<text text-anchor="start" x="4.62" y="-136.5" font-family="Helvetica,sans-Serif" font-size="10.00">NAudio.Mixer.UnsignedMixer</text>
<text text-anchor="start" x="52.25" y="-125.25" font-family="Helvetica,sans-Serif" font-size="10.00">Control</text>
<text text-anchor="start" x="8" y="-110.5" font-family="Helvetica,sans-Serif" font-size="10.00">+</text>
<text text-anchor="start" x="22" y="-110.5" font-family="Helvetica,sans-Serif" font-size="10.00">Value</text>
<text text-anchor="start" x="8" y="-95.5" font-family="Helvetica,sans-Serif" font-size="10.00">+</text>
<text text-anchor="start" x="22" y="-95.5" font-family="Helvetica,sans-Serif" font-size="10.00">MinValue</text>
<text text-anchor="start" x="8" y="-80.5" font-family="Helvetica,sans-Serif" font-size="10.00">+</text>
<text text-anchor="start" x="22" y="-80.5" font-family="Helvetica,sans-Serif" font-size="10.00">MaxValue</text>
<text text-anchor="start" x="8" y="-65.5" font-family="Helvetica,sans-Serif" font-size="10.00">+</text>
<text text-anchor="start" x="22" y="-65.5" font-family="Helvetica,sans-Serif" font-size="10.00">Percent</text>
<text text-anchor="start" x="9.5" y="-50.5" font-family="Helvetica,sans-Serif" font-size="10.00">&#45;</text>
<text text-anchor="start" x="22" y="-50.5" font-family="Helvetica,sans-Serif" font-size="10.00">unsignedDetails</text>
<text text-anchor="start" x="8" y="-35.5" font-family="Helvetica,sans-Serif" font-size="10.00">+</text>
<text text-anchor="start" x="22" y="-35.5" font-family="Helvetica,sans-Serif" font-size="10.00">ToString()</text>
<text text-anchor="start" x="8" y="-20.5" font-family="Helvetica,sans-Serif" font-size="10.00">~</text>
<text text-anchor="start" x="22" y="-20.5" font-family="Helvetica,sans-Serif" font-size="10.00">UnsignedMixerControl()</text>
<text text-anchor="start" x="8.38" y="-5.5" font-family="Helvetica,sans-Serif" font-size="10.00">#</text>
<text text-anchor="start" x="22" y="-5.5" font-family="Helvetica,sans-Serif" font-size="10.00">GetDetails()</text>
<polygon fill="#666666" stroke="#666666" points="0,-122 0,-122 136,-122 136,-122 0,-122"/>
<polygon fill="#666666" stroke="#666666" points="0,-47 0,-47 20,-47 20,-47 0,-47"/>
<polygon fill="#666666" stroke="#666666" points="20,-47 20,-47 136,-47 136,-47 20,-47"/>
<polygon fill="none" stroke="#666666" points="0,0 0,-150 136,-150 136,0 0,0"/>
</a>
</g>
</g>
<!-- Node2 -->
<g id="Node000002" class="node">
<title>Node2</title>
<g id="a_Node000002"><a xlink:href="class_n_audio_1_1_mixer_1_1_mixer_control.html" target="_top" xlink:title="Represents a mixer control.">
<polygon fill="white" stroke="none" points="120.5,-535 15.5,-535 15.5,-186 120.5,-186 120.5,-535"/>
<text text-anchor="start" x="40.25" y="-521.5" font-family="Helvetica,sans-Serif" font-size="10.00">MixerControl</text>
<text text-anchor="start" x="19.5" y="-506.5" font-family="Helvetica,sans-Serif" font-size="10.00">+</text>
<text text-anchor="start" x="29.5" y="-506.5" font-family="Helvetica,sans-Serif" font-size="10.00">Name</text>
<text text-anchor="start" x="19.5" y="-491.5" font-family="Helvetica,sans-Serif" font-size="10.00">+</text>
<text text-anchor="start" x="29.5" y="-491.5" font-family="Helvetica,sans-Serif" font-size="10.00">ControlType</text>
<text text-anchor="start" x="19.5" y="-476.5" font-family="Helvetica,sans-Serif" font-size="10.00">+</text>
<text text-anchor="start" x="29.5" y="-476.5" font-family="Helvetica,sans-Serif" font-size="10.00">IsBoolean</text>
<text text-anchor="start" x="19.5" y="-461.5" font-family="Helvetica,sans-Serif" font-size="10.00">+</text>
<text text-anchor="start" x="29.5" y="-461.5" font-family="Helvetica,sans-Serif" font-size="10.00">IsListText</text>
<text text-anchor="start" x="19.5" y="-446.5" font-family="Helvetica,sans-Serif" font-size="10.00">+</text>
<text text-anchor="start" x="29.5" y="-446.5" font-family="Helvetica,sans-Serif" font-size="10.00">IsSigned</text>
<text text-anchor="start" x="19.5" y="-431.5" font-family="Helvetica,sans-Serif" font-size="10.00">+</text>
<text text-anchor="start" x="29.5" y="-431.5" font-family="Helvetica,sans-Serif" font-size="10.00">IsUnsigned</text>
<text text-anchor="start" x="19.5" y="-416.5" font-family="Helvetica,sans-Serif" font-size="10.00">+</text>
<text text-anchor="start" x="29.5" y="-416.5" font-family="Helvetica,sans-Serif" font-size="10.00">IsCustom</text>
<text text-anchor="start" x="19.5" y="-401.5" font-family="Helvetica,sans-Serif" font-size="10.00">~</text>
<text text-anchor="start" x="29.5" y="-401.5" font-family="Helvetica,sans-Serif" font-size="10.00">mixerControl</text>
<text text-anchor="start" x="19.5" y="-386.5" font-family="Helvetica,sans-Serif" font-size="10.00">~</text>
<text text-anchor="start" x="29.5" y="-386.5" font-family="Helvetica,sans-Serif" font-size="10.00">mixerControlDetails</text>
<text text-anchor="start" x="19.88" y="-371.5" font-family="Helvetica,sans-Serif" font-size="10.00">#</text>
<text text-anchor="start" x="29.5" y="-371.5" font-family="Helvetica,sans-Serif" font-size="10.00">mixerHandle</text>
<text text-anchor="start" x="19.88" y="-356.5" font-family="Helvetica,sans-Serif" font-size="10.00">#</text>
<text text-anchor="start" x="29.5" y="-356.5" font-family="Helvetica,sans-Serif" font-size="10.00">nChannels</text>
<text text-anchor="start" x="19.88" y="-341.5" font-family="Helvetica,sans-Serif" font-size="10.00">#</text>
<text text-anchor="start" x="29.5" y="-341.5" font-family="Helvetica,sans-Serif" font-size="10.00">mixerHandleType</text>
<text text-anchor="start" x="19.5" y="-326.5" font-family="Helvetica,sans-Serif" font-size="10.00">+</text>
<text text-anchor="start" x="29.5" y="-326.5" font-family="Helvetica,sans-Serif" font-size="10.00">ToString()</text>
<text text-anchor="start" x="19.5" y="-311.5" font-family="Helvetica,sans-Serif" font-size="10.00">+</text>
<text text-anchor="start" x="29.5" y="-311.5" font-family="Helvetica,sans-Serif" font-size="10.00">GetMixerControls()</text>
<text text-anchor="start" x="19.5" y="-296.5" font-family="Helvetica,sans-Serif" font-size="10.00">+</text>
<text text-anchor="start" x="29.5" y="-296.5" font-family="Helvetica,sans-Serif" font-size="10.00">GetMixerControl()</text>
<text text-anchor="start" x="19.88" y="-281.5" font-family="Helvetica,sans-Serif" font-size="10.00">#</text>
<text text-anchor="start" x="29.5" y="-281.5" font-family="Helvetica,sans-Serif" font-size="10.00">GetControlDetails()</text>
<text text-anchor="start" x="19.88" y="-266.5" font-family="Helvetica,sans-Serif" font-size="10.00">#</text>
<text text-anchor="start" x="29.5" y="-266.5" font-family="Helvetica,sans-Serif" font-size="10.00">GetDetails()</text>
<text text-anchor="start" x="21" y="-251.5" font-family="Helvetica,sans-Serif" font-size="10.00">&#45;</text>
<text text-anchor="start" x="29.5" y="-251.5" font-family="Helvetica,sans-Serif" font-size="10.00">IsControlBoolean()</text>
<text text-anchor="start" x="21" y="-236.5" font-family="Helvetica,sans-Serif" font-size="10.00">&#45;</text>
<text text-anchor="start" x="29.5" y="-236.5" font-family="Helvetica,sans-Serif" font-size="10.00">IsControlListText()</text>
<text text-anchor="start" x="21" y="-221.5" font-family="Helvetica,sans-Serif" font-size="10.00">&#45;</text>
<text text-anchor="start" x="29.5" y="-221.5" font-family="Helvetica,sans-Serif" font-size="10.00">IsControlSigned()</text>
<text text-anchor="start" x="21" y="-206.5" font-family="Helvetica,sans-Serif" font-size="10.00">&#45;</text>
<text text-anchor="start" x="29.5" y="-206.5" font-family="Helvetica,sans-Serif" font-size="10.00">IsControlUnsigned()</text>
<text text-anchor="start" x="21" y="-191.5" font-family="Helvetica,sans-Serif" font-size="10.00">&#45;</text>
<text text-anchor="start" x="29.5" y="-191.5" font-family="Helvetica,sans-Serif" font-size="10.00">IsControlCustom()</text>
<polygon fill="#666666" stroke="#666666" points="15.5,-518 15.5,-518 120.5,-518 120.5,-518 15.5,-518"/>
<polygon fill="#666666" stroke="#666666" points="15.5,-338 15.5,-338 27.5,-338 27.5,-338 15.5,-338"/>
<polygon fill="#666666" stroke="#666666" points="27.5,-338 27.5,-338 120.5,-338 120.5,-338 27.5,-338"/>
<polygon fill="none" stroke="#666666" points="15.5,-186 15.5,-535 120.5,-535 120.5,-186 15.5,-186"/>
</a>
</g>
</g>
<!-- Node2&#45;&gt;Node1 -->
<g id="edge1_Node000001_Node000002" class="edge">
<title>Node2&#45;&gt;Node1</title>
<g id="a_edge1_Node000001_Node000002"><a xlink:title=" ">
<path fill="none" stroke="#63b8ff" d="M68,-174.67C68,-166.13 68,-157.83 68,-149.89"/>
<polygon fill="none" stroke="#63b8ff" points="64.5,-174.5 68,-184.5 71.5,-174.5 64.5,-174.5"/>
</a>
</g>
</g>
</g>
</svg>

<g id="navigator" transform="translate(0 0)" fill="#404254">
  <rect fill="#f2f5e9" fill-opacity="0.5" stroke="#606060" stroke-width=".5" x="0" y="0" width="60" height="60"/>
  <use id="zoomplus" xlink:href="#zoomPlus" x="17" y="9" onmousedown="handleZoom(evt,'in')"/>
  <use id="zoomminus" xlink:href="#zoomMin" x="42" y="9" onmousedown="handleZoom(evt,'out')"/>
  <use id="reset" xlink:href="#resetDef" x="30" y="36" onmousedown="handleReset()"/>
   <use id="arrowup" xlink:href="#arrowUp" x="0" y="0" onmousedown="handlePan(0,-1)"/>
  <use id="arrowright" xlink:href="#arrowRight" x="0" y="0" onmousedown="handlePan(1,0)"/>
  <use id="arrowdown" xlink:href="#arrowDown" x="0" y="0" onmousedown="handlePan(0,1)"/>
  <use id="arrowleft" xlink:href="#arrowLeft" x="0" y="0" onmousedown="handlePan(-1,0)"/>
</g>
<svg viewBox="0 0 15 15" width="100%" height="30px" preserveAspectRatio="xMaxYMin meet">
 <g id="arrow_out" transform="scale(0.3 0.3)">
  <a xlink:href="class_n_audio_1_1_mixer_1_1_unsigned_mixer_control__inherit__graph_org.svg" target="_base">
   <rect id="button" ry="5" rx="5" y="6" x="6" height="38" width="38"
        fill="#f2f5e9" fill-opacity="0.5" stroke="#606060" stroke-width="1.0"/>
   <path id="arrow"
     d="M 11.500037,31.436501 C 11.940474,20.09759 22.043105,11.32322 32.158766,21.979434 L 37.068811,17.246167 C 37.068811,17.246167 37.088388,32 37.088388,32 L 22.160133,31.978069 C 22.160133,31.978069 26.997745,27.140456 26.997745,27.140456 C 18.528582,18.264221 13.291696,25.230495 11.500037,31.436501 z"
     style="fill:#404040;"/>
  </a>
 </g>
</svg>

<style type='text/css'>
<![CDATA[
[data-mouse-over-selected='false'] { opacity: 0.7; }
[data-mouse-over-selected='true']  { opacity: 1.0; }
]]>
</style>
<script type="application/ecmascript"><![CDATA[
document.addEventListener('DOMContentLoaded', (event) => {
  highlightEdges();
  highlightAdjacentNodes();
});
]]></script>
</svg>
