<?xml version="1.0" encoding="UTF-8" standalone="no"?>
<!DOCTYPE svg PUBLIC "-//W3C//DTD SVG 1.1//EN"
 "http://www.w3.org/Graphics/SVG/1.1/DTD/svg11.dtd">
<!-- Generated by graphviz version 10.0.1 (20240210.2158)
 -->
<!-- Title: NAudio.Dsp.AttRelEnvelope Pages: 1 -->
<svg width="289pt" height="388pt"
 viewBox="0.00 0.00 289.00 388.25" xmlns="http://www.w3.org/2000/svg" xmlns:xlink="http://www.w3.org/1999/xlink">

<svg id="main" version="1.1" xmlns="http://www.w3.org/2000/svg" xmlns:xlink="http://www.w3.org/1999/xlink" xml:space="preserve" onload="init(evt)">
<style type="text/css"><![CDATA[
.node, .edge {opacity: 0.7;}
.node.selected, .edge.selected {opacity: 1;}
.edge:hover path { stroke: red; }
.edge:hover polygon { stroke: red; fill: red; }
]]></style>
<script type="application/ecmascript" xlink:href="svg.min.js"/>
<svg id="graph" class="graph">
<g id="graph0" class="graph" transform="scale(1 1) rotate(0) translate(4 384.25)">
<title>NAudio.Dsp.AttRelEnvelope</title>
<!-- Node1 -->
<g id="Node000001" class="node">
<title>Node1</title>
<g id="a_Node000001"><a xlink:title=" ">
<polygon fill="#999999" stroke="none" points="134,-94 0,-94 0,0 134,0 134,-94"/>
<text text-anchor="start" x="4.75" y="-80.5" font-family="Helvetica,sans-Serif" font-size="10.00">NAudio.Dsp.AttRelEnvelope</text>
<text text-anchor="start" x="14.5" y="-65.5" font-family="Helvetica,sans-Serif" font-size="10.00">+</text>
<text text-anchor="start" x="35" y="-65.5" font-family="Helvetica,sans-Serif" font-size="10.00">Attack</text>
<text text-anchor="start" x="14.5" y="-50.5" font-family="Helvetica,sans-Serif" font-size="10.00">+</text>
<text text-anchor="start" x="35" y="-50.5" font-family="Helvetica,sans-Serif" font-size="10.00">Release</text>
<text text-anchor="start" x="14.5" y="-35.5" font-family="Helvetica,sans-Serif" font-size="10.00">+</text>
<text text-anchor="start" x="35" y="-35.5" font-family="Helvetica,sans-Serif" font-size="10.00">SampleRate</text>
<text text-anchor="start" x="14.5" y="-20.5" font-family="Helvetica,sans-Serif" font-size="10.00">+</text>
<text text-anchor="start" x="35" y="-20.5" font-family="Helvetica,sans-Serif" font-size="10.00">AttRelEnvelope()</text>
<text text-anchor="start" x="14.5" y="-5.5" font-family="Helvetica,sans-Serif" font-size="10.00">+</text>
<text text-anchor="start" x="35" y="-5.5" font-family="Helvetica,sans-Serif" font-size="10.00">Run()</text>
<polygon fill="#666666" stroke="#666666" points="0,-77 0,-77 134,-77 134,-77 0,-77"/>
<polygon fill="#666666" stroke="#666666" points="0,-32 0,-32 33,-32 33,-32 0,-32"/>
<polygon fill="#666666" stroke="#666666" points="33,-32 33,-32 134,-32 134,-32 33,-32"/>
<polygon fill="none" stroke="#666666" points="0,0 0,-94 134,-94 134,0 0,0"/>
</a>
</g>
</g>
<!-- Node2 -->
<g id="Node000002" class="node">
<title>Node2</title>
<g id="a_Node000002"><a xlink:title=" ">
<polygon fill="white" stroke="none" points="86,-380.25 48,-380.25 48,-331.25 86,-331.25 86,-380.25"/>
<text text-anchor="start" x="52.75" y="-366.75" font-family="Helvetica,sans-Serif" font-size="10.00">double</text>
<text text-anchor="start" x="65.5" y="-351.75" font-family="Helvetica,sans-Serif" font-size="10.00"> </text>
<text text-anchor="start" x="65.5" y="-336.75" font-family="Helvetica,sans-Serif" font-size="10.00"> </text>
<polygon fill="#666666" stroke="#666666" points="48,-363.25 48,-363.25 86,-363.25 86,-363.25 48,-363.25"/>
<polygon fill="#666666" stroke="#666666" points="48,-348.25 48,-348.25 86,-348.25 86,-348.25 48,-348.25"/>
<polygon fill="none" stroke="#666666" points="48,-331.25 48,-380.25 86,-380.25 86,-331.25 48,-331.25"/>
</a>
</g>
</g>
<!-- Node2&#45;&gt;Node1 -->
<g id="edge1_Node000001_Node000002" class="edge">
<title>Node2&#45;&gt;Node1</title>
<g id="a_edge1_Node000001_Node000002"><a xlink:title=" ">
<path fill="none" stroke="#63b8ff" d="M64.92,-331.4C63.35,-312.55 61.33,-285.34 60.5,-261.5 58.81,-213.08 59,-200.92 60.5,-152.5 60.96,-137.6 61.8,-121.53 62.71,-106.56"/>
<polygon fill="none" stroke="#63b8ff" points="62.71,-106.63 59.1,-100.38 63.48,-94.65 67.09,-100.9 62.71,-106.63"/>
</a>
</g>
<text text-anchor="middle" x="94.75" y="-203.12" font-family="Helvetica,sans-Serif" font-size="10.00" fill="grey"> #DC_OFFSET</text>
</g>
<!-- Node3 -->
<g id="Node000003" class="node">
<title>Node3</title>
<g id="a_Node000003"><a xlink:href="class_n_audio_1_1_dsp_1_1_envelope_detector.html" target="_top" xlink:title=" ">
<polygon fill="white" stroke="none" points="281,-261.5 137,-261.5 137,-152.5 281,-152.5 281,-261.5"/>
<text text-anchor="start" x="141.88" y="-248" font-family="Helvetica,sans-Serif" font-size="10.00">NAudio.Dsp.EnvelopeDetector</text>
<text text-anchor="start" x="151.5" y="-233" font-family="Helvetica,sans-Serif" font-size="10.00">+</text>
<text text-anchor="start" x="172" y="-233" font-family="Helvetica,sans-Serif" font-size="10.00">TimeConstant</text>
<text text-anchor="start" x="151.5" y="-218" font-family="Helvetica,sans-Serif" font-size="10.00">+</text>
<text text-anchor="start" x="172" y="-218" font-family="Helvetica,sans-Serif" font-size="10.00">SampleRate</text>
<text text-anchor="start" x="151.5" y="-203" font-family="Helvetica,sans-Serif" font-size="10.00">+</text>
<text text-anchor="start" x="172" y="-203" font-family="Helvetica,sans-Serif" font-size="10.00">EnvelopeDetector()</text>
<text text-anchor="start" x="151.5" y="-188" font-family="Helvetica,sans-Serif" font-size="10.00">+</text>
<text text-anchor="start" x="172" y="-188" font-family="Helvetica,sans-Serif" font-size="10.00">EnvelopeDetector()</text>
<text text-anchor="start" x="151.5" y="-173" font-family="Helvetica,sans-Serif" font-size="10.00">+</text>
<text text-anchor="start" x="172" y="-173" font-family="Helvetica,sans-Serif" font-size="10.00">Run()</text>
<text text-anchor="start" x="153" y="-158" font-family="Helvetica,sans-Serif" font-size="10.00">&#45;</text>
<text text-anchor="start" x="172" y="-158" font-family="Helvetica,sans-Serif" font-size="10.00">SetCoef()</text>
<polygon fill="#666666" stroke="#666666" points="137,-244.5 137,-244.5 281,-244.5 281,-244.5 137,-244.5"/>
<polygon fill="#666666" stroke="#666666" points="137,-214.5 137,-214.5 170,-214.5 170,-214.5 137,-214.5"/>
<polygon fill="#666666" stroke="#666666" points="170,-214.5 170,-214.5 281,-214.5 281,-214.5 170,-214.5"/>
<polygon fill="none" stroke="#666666" points="137,-152.5 137,-261.5 281,-261.5 281,-152.5 137,-152.5"/>
</a>
</g>
</g>
<!-- Node2&#45;&gt;Node3 -->
<g id="edge3_Node000003_Node000002" class="edge">
<title>Node2&#45;&gt;Node3</title>
<g id="a_edge3_Node000003_Node000002"><a xlink:title=" ">
<path fill="none" stroke="#63b8ff" d="M85.86,-335.26C101.91,-318.67 125.88,-293.9 148.42,-270.6"/>
<polygon fill="none" stroke="#63b8ff" points="148.33,-270.7 149.63,-263.6 156.68,-262.07 155.38,-269.17 148.33,-270.7"/>
</a>
</g>
<text text-anchor="middle" x="165.75" y="-303.75" font-family="Helvetica,sans-Serif" font-size="10.00" fill="grey"> &#45;coeff</text>
<text text-anchor="middle" x="165.75" y="-292.5" font-family="Helvetica,sans-Serif" font-size="10.00" fill="grey">&#45;ms</text>
<text text-anchor="middle" x="165.75" y="-281.25" font-family="Helvetica,sans-Serif" font-size="10.00" fill="grey">&#45;sampleRate</text>
</g>
<!-- Node3&#45;&gt;Node1 -->
<g id="edge2_Node000001_Node000003" class="edge">
<title>Node3&#45;&gt;Node1</title>
<g id="a_edge2_Node000001_Node000003"><a xlink:title=" ">
<path fill="none" stroke="#63b8ff" d="M160.93,-152.51C146.73,-136.72 131.17,-119.4 116.87,-103.49"/>
<polygon fill="none" stroke="#63b8ff" points="116.77,-103.38 109.79,-101.59 108.75,-94.46 115.74,-96.25 116.77,-103.38"/>
</a>
</g>
<text text-anchor="middle" x="159.25" y="-125" font-family="Helvetica,sans-Serif" font-size="10.00" fill="grey"> &#45;attack</text>
<text text-anchor="middle" x="159.25" y="-113.75" font-family="Helvetica,sans-Serif" font-size="10.00" fill="grey">&#45;release</text>
</g>
</g>
</svg>
</svg>

<style type='text/css'>
<![CDATA[
[data-mouse-over-selected='false'] { opacity: 0.7; }
[data-mouse-over-selected='true']  { opacity: 1.0; }
]]>
</style>
<script type="application/ecmascript"><![CDATA[
document.addEventListener('DOMContentLoaded', (event) => {
  highlightEdges();
  highlightAdjacentNodes();
});
]]></script>
</svg>
