<?xml version="1.0" encoding="UTF-8" standalone="no"?>
<!DOCTYPE svg PUBLIC "-//W3C//DTD SVG 1.1//EN"
 "http://www.w3.org/Graphics/SVG/1.1/DTD/svg11.dtd">
<!-- Generated by graphviz version 10.0.1 (20240210.2158)
 -->
<!-- Title: NAudio.Wave.WaveInEvent.CloseWaveInDevice Pages: 1 -->
<svg width="656pt" height="89pt"
 viewBox="0.00 0.00 656.25 88.81" xmlns="http://www.w3.org/2000/svg" xmlns:xlink="http://www.w3.org/1999/xlink">
<g id="graph0" class="graph" transform="scale(1 1) rotate(0) translate(4 84.81)">
<title>NAudio.Wave.WaveInEvent.CloseWaveInDevice</title>
<!-- Node1 -->
<g id="Node000001" class="node">
<title>Node1</title>
<g id="a_Node000001"><a xlink:title="Closes the wave input device and releases associated resources.">
<polygon fill="#999999" stroke="#666666" points="648.25,-54.5 507.75,-54.5 507.75,-24 648.25,-24 648.25,-54.5"/>
<text text-anchor="start" x="515.75" y="-41" font-family="Helvetica,sans-Serif" font-size="10.00">NAudio.Wave.WaveInEvent.</text>
<text text-anchor="middle" x="578" y="-29.75" font-family="Helvetica,sans-Serif" font-size="10.00">CloseWaveInDevice</text>
</a>
</g>
</g>
<!-- Node2 -->
<g id="Node000002" class="node">
<title>Node2</title>
<g id="a_Node000002"><a xlink:href="class_n_audio_1_1_wave_1_1_wave_in_event.html#a29b989a5b21f61beafa2973638a088e5" target="_top" xlink:title="Performs application&#45;defined tasks associated with freeing, releasing, or resetting unmanaged resourc...">
<polygon fill="white" stroke="#666666" points="471.75,-79.5 331.25,-79.5 331.25,-49 471.75,-49 471.75,-79.5"/>
<text text-anchor="start" x="339.25" y="-66" font-family="Helvetica,sans-Serif" font-size="10.00">NAudio.Wave.WaveInEvent.</text>
<text text-anchor="middle" x="401.5" y="-54.75" font-family="Helvetica,sans-Serif" font-size="10.00">Dispose</text>
</a>
</g>
</g>
<!-- Node1&#45;&gt;Node2 -->
<g id="edge1_Node000001_Node000002" class="edge">
<title>Node1&#45;&gt;Node2</title>
<g id="a_edge1_Node000001_Node000002"><a xlink:title=" ">
<path fill="none" stroke="#63b8ff" d="M496.05,-50.85C488.05,-51.99 479.98,-53.15 472.11,-54.28"/>
<polygon fill="#63b8ff" stroke="#63b8ff" points="496.38,-54.34 505.78,-49.45 495.39,-47.41 496.38,-54.34"/>
</a>
</g>
</g>
<!-- Node5 -->
<g id="Node000005" class="node">
<title>Node5</title>
<g id="a_Node000005"><a xlink:href="class_n_audio_1_1_wave_1_1_wave_in_event.html#a9acd52251653b2da8c05f923819a8926" target="_top" xlink:title="Opens the wave input device and creates necessary buffers.">
<polygon fill="white" stroke="#666666" points="471.75,-30.5 331.25,-30.5 331.25,0 471.75,0 471.75,-30.5"/>
<text text-anchor="start" x="339.25" y="-17" font-family="Helvetica,sans-Serif" font-size="10.00">NAudio.Wave.WaveInEvent.</text>
<text text-anchor="middle" x="401.5" y="-5.75" font-family="Helvetica,sans-Serif" font-size="10.00">OpenWaveInDevice</text>
</a>
</g>
</g>
<!-- Node1&#45;&gt;Node5 -->
<g id="edge4_Node000001_Node000005" class="edge">
<title>Node1&#45;&gt;Node5</title>
<g id="a_edge4_Node000001_Node000005"><a xlink:title=" ">
<path fill="none" stroke="#63b8ff" d="M496.05,-28.12C488.05,-27.02 479.98,-25.91 472.11,-24.82"/>
<polygon fill="#63b8ff" stroke="#63b8ff" points="495.4,-31.56 505.78,-29.45 496.35,-24.62 495.4,-31.56"/>
</a>
</g>
</g>
<!-- Node3 -->
<g id="Node000003" class="node">
<title>Node3</title>
<g id="a_Node000003"><a xlink:href="class_plugin_1_1_main.html#ad3edeeb801a9b8d82ad07c5a7de4da5b" target="_top" xlink:title="Asynchronously receives data from the specified node and processes it based on the received commands.">
<polygon fill="white" stroke="#666666" points="118.75,-64.88 0,-64.88 0,-45.62 118.75,-45.62 118.75,-64.88"/>
<text text-anchor="middle" x="59.38" y="-51.38" font-family="Helvetica,sans-Serif" font-size="10.00">Plugin.Main.recvThread</text>
</a>
</g>
</g>
<!-- Node2&#45;&gt;Node3 -->
<g id="edge2_Node000002_Node000003" class="edge">
<title>Node2&#45;&gt;Node3</title>
<g id="a_edge2_Node000002_Node000003"><a xlink:title=" ">
<path fill="none" stroke="#63b8ff" d="M319.65,-75.31C271.62,-80.19 209.57,-83.55 154.75,-77.25 134.69,-74.94 112.7,-69.97 95,-65.33"/>
<polygon fill="#63b8ff" stroke="#63b8ff" points="319.85,-78.81 329.42,-74.27 319.11,-71.85 319.85,-78.81"/>
</a>
</g>
</g>
<!-- Node4 -->
<g id="Node000004" class="node">
<title>Node4</title>
<g id="a_Node000004"><a xlink:href="class_plugin_1_1_main.html#ae51f6500ea51e702d748ba9c59cfad01" target="_top" xlink:title="Runs the specified node and performs audio operations.">
<polygon fill="white" stroke="#666666" points="269,-67.88 181,-67.88 181,-48.62 269,-48.62 269,-67.88"/>
<text text-anchor="middle" x="225" y="-54.38" font-family="Helvetica,sans-Serif" font-size="10.00">Plugin.Main.Run</text>
</a>
</g>
</g>
<!-- Node2&#45;&gt;Node4 -->
<g id="edge3_Node000002_Node000004" class="edge">
<title>Node2&#45;&gt;Node4</title>
<g id="a_edge3_Node000002_Node000004"><a xlink:title=" ">
<path fill="none" stroke="#63b8ff" d="M319.52,-61.47C302.27,-60.87 284.69,-60.27 269.5,-59.75"/>
<polygon fill="#63b8ff" stroke="#63b8ff" points="319.15,-64.95 329.27,-61.8 319.39,-57.96 319.15,-64.95"/>
</a>
</g>
</g>
<!-- Node6 -->
<g id="Node000006" class="node">
<title>Node6</title>
<g id="a_Node000006"><a xlink:href="class_n_audio_1_1_wave_1_1_wave_in_event.html#a31de1b9a63d36392f78ec102cbc081bc" target="_top" xlink:title="Starts recording audio.">
<polygon fill="white" stroke="#666666" points="295.25,-30.5 154.75,-30.5 154.75,0 295.25,0 295.25,-30.5"/>
<text text-anchor="start" x="162.75" y="-17" font-family="Helvetica,sans-Serif" font-size="10.00">NAudio.Wave.WaveInEvent.</text>
<text text-anchor="middle" x="225" y="-5.75" font-family="Helvetica,sans-Serif" font-size="10.00">StartRecording</text>
</a>
</g>
</g>
<!-- Node5&#45;&gt;Node6 -->
<g id="edge5_Node000005_Node000006" class="edge">
<title>Node5&#45;&gt;Node6</title>
<g id="a_edge5_Node000005_Node000006"><a xlink:title=" ">
<path fill="none" stroke="#63b8ff" d="M319.27,-15.25C311.36,-15.25 303.39,-15.25 295.61,-15.25"/>
<polygon fill="#63b8ff" stroke="#63b8ff" points="319.27,-18.75 329.27,-15.25 319.27,-11.75 319.27,-18.75"/>
</a>
</g>
</g>
<!-- Node6&#45;&gt;Node3 -->
<g id="edge6_Node000006_Node000003" class="edge">
<title>Node6&#45;&gt;Node3</title>
<g id="a_edge6_Node000006_Node000003"><a xlink:title=" ">
<path fill="none" stroke="#63b8ff" d="M148.7,-33.66C132.55,-37.61 116.06,-41.64 101.77,-45.13"/>
<polygon fill="#63b8ff" stroke="#63b8ff" points="149.45,-37.08 158.33,-31.3 147.79,-30.28 149.45,-37.08"/>
</a>
</g>
</g>
</g>
</svg>
