<?xml version="1.0" encoding="UTF-8" standalone="no"?>
<!DOCTYPE svg PUBLIC "-//W3C//DTD SVG 1.1//EN"
 "http://www.w3.org/Graphics/SVG/1.1/DTD/svg11.dtd">
<!-- Generated by graphviz version 10.0.1 (20240210.2158)
 -->
<!-- Title: NAudio.Midi.KeySignatureEvent Pages: 1 -->
<svg width="132pt" height="833pt"
 viewBox="0.00 0.00 132.00 833.00" xmlns="http://www.w3.org/2000/svg" xmlns:xlink="http://www.w3.org/1999/xlink">
<g id="graph0" class="graph" transform="scale(1 1) rotate(0) translate(4 829)">
<title>NAudio.Midi.KeySignatureEvent</title>
<!-- Node1 -->
<g id="Node000001" class="node">
<title>Node1</title>
<g id="a_Node000001"><a xlink:title="Represents a MIDI key signature event event.">
<polygon fill="#999999" stroke="none" points="124,-165 0,-165 0,0 124,0 124,-165"/>
<text text-anchor="start" x="4.62" y="-151.5" font-family="Helvetica,sans-Serif" font-size="10.00">NAudio.Midi.KeySignature</text>
<text text-anchor="start" x="49.25" y="-140.25" font-family="Helvetica,sans-Serif" font-size="10.00">Event</text>
<text text-anchor="start" x="8" y="-125.5" font-family="Helvetica,sans-Serif" font-size="10.00">+</text>
<text text-anchor="start" x="22" y="-125.5" font-family="Helvetica,sans-Serif" font-size="10.00">SharpsFlats</text>
<text text-anchor="start" x="8" y="-110.5" font-family="Helvetica,sans-Serif" font-size="10.00">+</text>
<text text-anchor="start" x="22" y="-110.5" font-family="Helvetica,sans-Serif" font-size="10.00">MajorMinor</text>
<text text-anchor="start" x="9.5" y="-95.5" font-family="Helvetica,sans-Serif" font-size="10.00">&#45;</text>
<text text-anchor="start" x="22" y="-95.5" font-family="Helvetica,sans-Serif" font-size="10.00">sharpsFlats</text>
<text text-anchor="start" x="9.5" y="-80.5" font-family="Helvetica,sans-Serif" font-size="10.00">&#45;</text>
<text text-anchor="start" x="22" y="-80.5" font-family="Helvetica,sans-Serif" font-size="10.00">majorMinor</text>
<text text-anchor="start" x="8" y="-65.5" font-family="Helvetica,sans-Serif" font-size="10.00">+</text>
<text text-anchor="start" x="22" y="-65.5" font-family="Helvetica,sans-Serif" font-size="10.00">KeySignatureEvent()</text>
<text text-anchor="start" x="8" y="-50.5" font-family="Helvetica,sans-Serif" font-size="10.00">+</text>
<text text-anchor="start" x="22" y="-50.5" font-family="Helvetica,sans-Serif" font-size="10.00">KeySignatureEvent()</text>
<text text-anchor="start" x="8" y="-35.5" font-family="Helvetica,sans-Serif" font-size="10.00">+</text>
<text text-anchor="start" x="22" y="-35.5" font-family="Helvetica,sans-Serif" font-size="10.00">Clone()</text>
<text text-anchor="start" x="8" y="-20.5" font-family="Helvetica,sans-Serif" font-size="10.00">+</text>
<text text-anchor="start" x="22" y="-20.5" font-family="Helvetica,sans-Serif" font-size="10.00">ToString()</text>
<text text-anchor="start" x="8" y="-5.5" font-family="Helvetica,sans-Serif" font-size="10.00">+</text>
<text text-anchor="start" x="22" y="-5.5" font-family="Helvetica,sans-Serif" font-size="10.00">Export()</text>
<polygon fill="#666666" stroke="#666666" points="0,-137 0,-137 124,-137 124,-137 0,-137"/>
<polygon fill="#666666" stroke="#666666" points="0,-77 0,-77 20,-77 20,-77 0,-77"/>
<polygon fill="#666666" stroke="#666666" points="20,-77 20,-77 124,-77 124,-77 20,-77"/>
<polygon fill="none" stroke="#666666" points="0,0 0,-165 124,-165 124,0 0,0"/>
</a>
</g>
</g>
<!-- Node2 -->
<g id="Node000002" class="node">
<title>Node2</title>
<g id="a_Node000002"><a xlink:href="class_n_audio_1_1_midi_1_1_meta_event.html" target="_top" xlink:title="Represents a MIDI meta event.">
<polygon fill="white" stroke="none" points="109,-355 15,-355 15,-201 109,-201 109,-355"/>
<text text-anchor="start" x="38.38" y="-341.5" font-family="Helvetica,sans-Serif" font-size="10.00">MetaEvent</text>
<text text-anchor="start" x="19" y="-326.5" font-family="Helvetica,sans-Serif" font-size="10.00">+</text>
<text text-anchor="start" x="29" y="-326.5" font-family="Helvetica,sans-Serif" font-size="10.00">MetaEventType</text>
<text text-anchor="start" x="19" y="-311.5" font-family="Helvetica,sans-Serif" font-size="10.00">~</text>
<text text-anchor="start" x="29" y="-311.5" font-family="Helvetica,sans-Serif" font-size="10.00">metaDataLength</text>
<text text-anchor="start" x="20.5" y="-296.5" font-family="Helvetica,sans-Serif" font-size="10.00">&#45;</text>
<text text-anchor="start" x="29" y="-296.5" font-family="Helvetica,sans-Serif" font-size="10.00">metaEvent</text>
<text text-anchor="start" x="19" y="-281.5" font-family="Helvetica,sans-Serif" font-size="10.00">+</text>
<text text-anchor="start" x="29" y="-281.5" font-family="Helvetica,sans-Serif" font-size="10.00">MetaEvent()</text>
<text text-anchor="start" x="19" y="-266.5" font-family="Helvetica,sans-Serif" font-size="10.00">+</text>
<text text-anchor="start" x="29" y="-266.5" font-family="Helvetica,sans-Serif" font-size="10.00">Clone()</text>
<text text-anchor="start" x="19" y="-251.5" font-family="Helvetica,sans-Serif" font-size="10.00">+</text>
<text text-anchor="start" x="29" y="-251.5" font-family="Helvetica,sans-Serif" font-size="10.00">ToString()</text>
<text text-anchor="start" x="19" y="-236.5" font-family="Helvetica,sans-Serif" font-size="10.00">+</text>
<text text-anchor="start" x="29" y="-236.5" font-family="Helvetica,sans-Serif" font-size="10.00">Export()</text>
<text text-anchor="start" x="19" y="-221.5" font-family="Helvetica,sans-Serif" font-size="10.00">+</text>
<text text-anchor="start" x="29" y="-221.5" font-family="Helvetica,sans-Serif" font-size="10.00">ReadMetaEvent()</text>
<text text-anchor="start" x="19.38" y="-206.5" font-family="Helvetica,sans-Serif" font-size="10.00">#</text>
<text text-anchor="start" x="29" y="-206.5" font-family="Helvetica,sans-Serif" font-size="10.00">MetaEvent()</text>
<polygon fill="#666666" stroke="#666666" points="15,-338 15,-338 109,-338 109,-338 15,-338"/>
<polygon fill="#666666" stroke="#666666" points="15,-293 15,-293 27,-293 27,-293 15,-293"/>
<polygon fill="#666666" stroke="#666666" points="27,-293 27,-293 109,-293 109,-293 27,-293"/>
<polygon fill="none" stroke="#666666" points="15,-201 15,-355 109,-355 109,-201 15,-201"/>
</a>
</g>
</g>
<!-- Node2&#45;&gt;Node1 -->
<g id="edge1_Node000001_Node000002" class="edge">
<title>Node2&#45;&gt;Node1</title>
<g id="a_edge1_Node000001_Node000002"><a xlink:title=" ">
<path fill="none" stroke="#63b8ff" d="M62,-189.57C62,-181.38 62,-173.09 62,-164.95"/>
<polygon fill="none" stroke="#63b8ff" points="58.5,-189.57 62,-199.57 65.5,-189.57 58.5,-189.57"/>
</a>
</g>
</g>
<!-- Node3 -->
<g id="Node000003" class="node">
<title>Node3</title>
<g id="a_Node000003"><a xlink:href="class_n_audio_1_1_midi_1_1_midi_event.html" target="_top" xlink:title="Represents an individual MIDI event.">
<polygon fill="white" stroke="none" points="119,-740 5,-740 5,-391 119,-391 119,-740"/>
<text text-anchor="start" x="40.25" y="-726.5" font-family="Helvetica,sans-Serif" font-size="10.00">MidiEvent</text>
<text text-anchor="start" x="9" y="-711.5" font-family="Helvetica,sans-Serif" font-size="10.00">+</text>
<text text-anchor="start" x="19" y="-711.5" font-family="Helvetica,sans-Serif" font-size="10.00">Channel</text>
<text text-anchor="start" x="9" y="-696.5" font-family="Helvetica,sans-Serif" font-size="10.00">+</text>
<text text-anchor="start" x="19" y="-696.5" font-family="Helvetica,sans-Serif" font-size="10.00">DeltaTime</text>
<text text-anchor="start" x="9" y="-681.5" font-family="Helvetica,sans-Serif" font-size="10.00">+</text>
<text text-anchor="start" x="19" y="-681.5" font-family="Helvetica,sans-Serif" font-size="10.00">AbsoluteTime</text>
<text text-anchor="start" x="9" y="-666.5" font-family="Helvetica,sans-Serif" font-size="10.00">+</text>
<text text-anchor="start" x="19" y="-666.5" font-family="Helvetica,sans-Serif" font-size="10.00">CommandCode</text>
<text text-anchor="start" x="10.5" y="-651.5" font-family="Helvetica,sans-Serif" font-size="10.00">&#45;</text>
<text text-anchor="start" x="19" y="-651.5" font-family="Helvetica,sans-Serif" font-size="10.00">commandCode</text>
<text text-anchor="start" x="10.5" y="-636.5" font-family="Helvetica,sans-Serif" font-size="10.00">&#45;</text>
<text text-anchor="start" x="19" y="-636.5" font-family="Helvetica,sans-Serif" font-size="10.00">channel</text>
<text text-anchor="start" x="10.5" y="-621.5" font-family="Helvetica,sans-Serif" font-size="10.00">&#45;</text>
<text text-anchor="start" x="19" y="-621.5" font-family="Helvetica,sans-Serif" font-size="10.00">deltaTime</text>
<text text-anchor="start" x="10.5" y="-606.5" font-family="Helvetica,sans-Serif" font-size="10.00">&#45;</text>
<text text-anchor="start" x="19" y="-606.5" font-family="Helvetica,sans-Serif" font-size="10.00">absoluteTime</text>
<text text-anchor="start" x="9" y="-591.5" font-family="Helvetica,sans-Serif" font-size="10.00">+</text>
<text text-anchor="start" x="19" y="-591.5" font-family="Helvetica,sans-Serif" font-size="10.00">GetAsShortMessage()</text>
<text text-anchor="start" x="9" y="-576.5" font-family="Helvetica,sans-Serif" font-size="10.00">+</text>
<text text-anchor="start" x="19" y="-576.5" font-family="Helvetica,sans-Serif" font-size="10.00">MidiEvent()</text>
<text text-anchor="start" x="9" y="-561.5" font-family="Helvetica,sans-Serif" font-size="10.00">+</text>
<text text-anchor="start" x="19" y="-561.5" font-family="Helvetica,sans-Serif" font-size="10.00">Clone()</text>
<text text-anchor="start" x="9" y="-546.5" font-family="Helvetica,sans-Serif" font-size="10.00">+</text>
<text text-anchor="start" x="19" y="-546.5" font-family="Helvetica,sans-Serif" font-size="10.00">ToString()</text>
<text text-anchor="start" x="9" y="-531.5" font-family="Helvetica,sans-Serif" font-size="10.00">+</text>
<text text-anchor="start" x="19" y="-531.5" font-family="Helvetica,sans-Serif" font-size="10.00">Export()</text>
<text text-anchor="start" x="9" y="-516.5" font-family="Helvetica,sans-Serif" font-size="10.00">+</text>
<text text-anchor="start" x="19" y="-516.5" font-family="Helvetica,sans-Serif" font-size="10.00">FromRawMessage()</text>
<text text-anchor="start" x="9" y="-501.5" font-family="Helvetica,sans-Serif" font-size="10.00">+</text>
<text text-anchor="start" x="19" y="-501.5" font-family="Helvetica,sans-Serif" font-size="10.00">ReadNextEvent()</text>
<text text-anchor="start" x="9" y="-486.5" font-family="Helvetica,sans-Serif" font-size="10.00">+</text>
<text text-anchor="start" x="19" y="-486.5" font-family="Helvetica,sans-Serif" font-size="10.00">IsNoteOff()</text>
<text text-anchor="start" x="9" y="-471.5" font-family="Helvetica,sans-Serif" font-size="10.00">+</text>
<text text-anchor="start" x="19" y="-471.5" font-family="Helvetica,sans-Serif" font-size="10.00">IsNoteOn()</text>
<text text-anchor="start" x="9" y="-456.5" font-family="Helvetica,sans-Serif" font-size="10.00">+</text>
<text text-anchor="start" x="19" y="-456.5" font-family="Helvetica,sans-Serif" font-size="10.00">IsEndTrack()</text>
<text text-anchor="start" x="9" y="-441.5" font-family="Helvetica,sans-Serif" font-size="10.00">+</text>
<text text-anchor="start" x="19" y="-441.5" font-family="Helvetica,sans-Serif" font-size="10.00">ReadVarInt()</text>
<text text-anchor="start" x="9" y="-426.5" font-family="Helvetica,sans-Serif" font-size="10.00">+</text>
<text text-anchor="start" x="19" y="-426.5" font-family="Helvetica,sans-Serif" font-size="10.00">WriteVarInt()</text>
<text text-anchor="start" x="9.38" y="-411.5" font-family="Helvetica,sans-Serif" font-size="10.00">#</text>
<text text-anchor="start" x="19" y="-411.5" font-family="Helvetica,sans-Serif" font-size="10.00">MidiEvent()</text>
<text text-anchor="start" x="10.5" y="-396.5" font-family="Helvetica,sans-Serif" font-size="10.00">&#45;</text>
<text text-anchor="start" x="19" y="-396.5" font-family="Helvetica,sans-Serif" font-size="10.00">Clone()</text>
<polygon fill="#666666" stroke="#666666" points="5,-723 5,-723 119,-723 119,-723 5,-723"/>
<polygon fill="#666666" stroke="#666666" points="5,-603 5,-603 17,-603 17,-603 5,-603"/>
<polygon fill="#666666" stroke="#666666" points="17,-603 17,-603 119,-603 119,-603 17,-603"/>
<polygon fill="none" stroke="#666666" points="5,-391 5,-740 119,-740 119,-391 5,-391"/>
</a>
</g>
</g>
<!-- Node3&#45;&gt;Node2 -->
<g id="edge2_Node000002_Node000003" class="edge">
<title>Node3&#45;&gt;Node2</title>
<g id="a_edge2_Node000002_Node000003"><a xlink:title=" ">
<path fill="none" stroke="#63b8ff" d="M62,-379.7C62,-371.18 62,-362.88 62,-354.93"/>
<polygon fill="none" stroke="#63b8ff" points="58.5,-379.5 62,-389.5 65.5,-379.5 58.5,-379.5"/>
</a>
</g>
</g>
<!-- Node4 -->
<g id="Node000004" class="node">
<title>Node4</title>
<g id="a_Node000004"><a xlink:href="class_i_cloneable.html" target="_top" xlink:title=" ">
<polygon fill="white" stroke="none" points="90,-825 34,-825 34,-776 90,-776 90,-825"/>
<text text-anchor="start" x="38.75" y="-811.5" font-family="Helvetica,sans-Serif" font-size="10.00">ICloneable</text>
<text text-anchor="start" x="60.5" y="-796.5" font-family="Helvetica,sans-Serif" font-size="10.00"> </text>
<text text-anchor="start" x="60.5" y="-781.5" font-family="Helvetica,sans-Serif" font-size="10.00"> </text>
<polygon fill="#666666" stroke="#666666" points="34,-808 34,-808 90,-808 90,-808 34,-808"/>
<polygon fill="#666666" stroke="#666666" points="34,-793 34,-793 90,-793 90,-793 34,-793"/>
<polygon fill="none" stroke="#666666" points="34,-776 34,-825 90,-825 90,-776 34,-776"/>
</a>
</g>
</g>
<!-- Node4&#45;&gt;Node3 -->
<g id="edge3_Node000003_Node000004" class="edge">
<title>Node4&#45;&gt;Node3</title>
<g id="a_edge3_Node000003_Node000004"><a xlink:title=" ">
<path fill="none" stroke="#63b8ff" d="M62,-764.95C62,-757.45 62,-749.02 62,-739.98"/>
<polygon fill="none" stroke="#63b8ff" points="58.5,-764.79 62,-774.79 65.5,-764.79 58.5,-764.79"/>
</a>
</g>
</g>
</g>
</svg>
