<?xml version="1.0" encoding="UTF-8" standalone="no"?>
<!DOCTYPE svg PUBLIC "-//W3C//DTD SVG 1.1//EN"
 "http://www.w3.org/Graphics/SVG/1.1/DTD/svg11.dtd">
<!-- Generated by graphviz version 10.0.1 (20240210.2158)
 -->
<!-- Title: Hidden_handler.Process_Handler.StartExplorer Pages: 1 -->
<svg width="906pt" height="468pt"
 viewBox="0.00 0.00 906.25 467.50" xmlns="http://www.w3.org/2000/svg" xmlns:xlink="http://www.w3.org/1999/xlink">
<g id="graph0" class="graph" transform="scale(1 1) rotate(0) translate(4 463.5)">
<title>Hidden_handler.Process_Handler.StartExplorer</title>
<!-- Node1 -->
<g id="Node000001" class="node">
<title>Node1</title>
<g id="a_Node000001"><a xlink:title="Starts the Windows Explorer process and returns a boolean indicating success.">
<polygon fill="#999999" stroke="#666666" points="121.75,-410.5 0,-410.5 0,-380 121.75,-380 121.75,-410.5"/>
<text text-anchor="start" x="8" y="-397" font-family="Helvetica,sans-Serif" font-size="10.00">Hidden_handler.Process</text>
<text text-anchor="middle" x="60.88" y="-385.75" font-family="Helvetica,sans-Serif" font-size="10.00">_Handler.StartExplorer</text>
</a>
</g>
</g>
<!-- Node2 -->
<g id="Node000002" class="node">
<title>Node2</title>
<g id="a_Node000002"><a xlink:href="class_hidden__handler_1_1_process___handler.html#a890f9b22a73ac89bbf2cc6d6b0d60e93" target="_top" xlink:title="Creates a new process using the specified file path.">
<polygon fill="white" stroke="#666666" points="297.5,-459.5 175.75,-459.5 175.75,-429 297.5,-429 297.5,-459.5"/>
<text text-anchor="start" x="183.75" y="-446" font-family="Helvetica,sans-Serif" font-size="10.00">Hidden_handler.Process</text>
<text text-anchor="middle" x="236.62" y="-434.75" font-family="Helvetica,sans-Serif" font-size="10.00">_Handler.CreateProc</text>
</a>
</g>
</g>
<!-- Node1&#45;&gt;Node2 -->
<g id="edge1_Node000001_Node000002" class="edge">
<title>Node1&#45;&gt;Node2</title>
<g id="a_edge1_Node000001_Node000002"><a xlink:title=" ">
<path fill="none" stroke="#63b8ff" d="M117.33,-410.89C133.7,-415.51 151.8,-420.61 168.81,-425.41"/>
<polygon fill="#63b8ff" stroke="#63b8ff" points="167.77,-428.75 178.35,-428.1 169.67,-422.01 167.77,-428.75"/>
</a>
</g>
</g>
<!-- Node4 -->
<g id="Node000004" class="node">
<title>Node4</title>
<g id="a_Node000004"><a xlink:href="classxeno__rat__client_1_1_utils.html#a31e3ba86a48b05c2c323c7d50feed60c" target="_top" xlink:title="Checks if the current user is an admin and returns a boolean value indicating the result.">
<polygon fill="white" stroke="#666666" points="294.88,-410.5 178.38,-410.5 178.38,-380 294.88,-380 294.88,-410.5"/>
<text text-anchor="start" x="186.38" y="-397" font-family="Helvetica,sans-Serif" font-size="10.00">xeno_rat_client.Utils.Is</text>
<text text-anchor="middle" x="236.62" y="-385.75" font-family="Helvetica,sans-Serif" font-size="10.00">Admin</text>
</a>
</g>
</g>
<!-- Node1&#45;&gt;Node4 -->
<g id="edge3_Node000001_Node000004" class="edge">
<title>Node1&#45;&gt;Node4</title>
<g id="a_edge3_Node000001_Node000004"><a xlink:title=" ">
<path fill="none" stroke="#63b8ff" d="M122.16,-395.25C136.61,-395.25 152.14,-395.25 166.94,-395.25"/>
<polygon fill="#63b8ff" stroke="#63b8ff" points="166.57,-398.75 176.57,-395.25 166.57,-391.75 166.57,-398.75"/>
</a>
</g>
</g>
<!-- Node6 -->
<g id="Node000006" class="node">
<title>Node6</title>
<g id="a_Node000006"><a xlink:href="class_hidden__handler_1_1___process_helper.html#a4a7e7860333785f282419b62936989de" target="_top" xlink:title="Runs the specified file as a restricted user in a separate desktop session.">
<polygon fill="white" stroke="#666666" points="315.5,-343.5 157.75,-343.5 157.75,-313 315.5,-313 315.5,-343.5"/>
<text text-anchor="start" x="165.75" y="-330" font-family="Helvetica,sans-Serif" font-size="10.00">Hidden_handler._ProcessHelper.</text>
<text text-anchor="middle" x="236.62" y="-318.75" font-family="Helvetica,sans-Serif" font-size="10.00">RunAsRestrictedUser</text>
</a>
</g>
</g>
<!-- Node1&#45;&gt;Node6 -->
<g id="edge5_Node000001_Node000006" class="edge">
<title>Node1&#45;&gt;Node6</title>
<g id="a_edge5_Node000001_Node000006"><a xlink:title=" ">
<path fill="none" stroke="#63b8ff" d="M102.61,-379.54C127.03,-370.13 158.3,-358.07 184.39,-348.01"/>
<polygon fill="#63b8ff" stroke="#63b8ff" points="185.36,-351.38 193.43,-344.52 182.84,-344.85 185.36,-351.38"/>
</a>
</g>
</g>
<!-- Node3 -->
<g id="Node000003" class="node">
<title>Node3</title>
<g id="a_Node000003"><a xlink:href="class_hidden__handler_1_1_process___handler.html#a30828d150d0045cddb7329b262a15d2e" target="_top" xlink:title="Creates a new process and its primary thread. The new process runs in the security context of the cal...">
<polygon fill="white" stroke="#666666" points="492.38,-459.5 369.88,-459.5 369.88,-429 492.38,-429 492.38,-459.5"/>
<text text-anchor="start" x="377.88" y="-446" font-family="Helvetica,sans-Serif" font-size="10.00">Hidden_handler.Process</text>
<text text-anchor="middle" x="431.12" y="-434.75" font-family="Helvetica,sans-Serif" font-size="10.00">_Handler.CreateProcess</text>
</a>
</g>
</g>
<!-- Node2&#45;&gt;Node3 -->
<g id="edge2_Node000002_Node000003" class="edge">
<title>Node2&#45;&gt;Node3</title>
<g id="a_edge2_Node000002_Node000003"><a xlink:title=" ">
<path fill="none" stroke="#63b8ff" d="M297.74,-444.25C316.83,-444.25 338.14,-444.25 357.98,-444.25"/>
<polygon fill="#63b8ff" stroke="#63b8ff" points="357.96,-447.75 367.96,-444.25 357.96,-440.75 357.96,-447.75"/>
</a>
</g>
</g>
<!-- Node5 -->
<g id="Node000005" class="node">
<title>Node5</title>
<g id="a_Node000005"><a xlink:href="classxeno__rat__client_1_1_utils.html#a1581cd0fb37a96a7490c745efa5ce035" target="_top" xlink:title="Determines whether the current user is a member of the administrator group.">
<polygon fill="white" stroke="#666666" points="489.38,-410.5 372.88,-410.5 372.88,-380 489.38,-380 489.38,-410.5"/>
<text text-anchor="start" x="380.88" y="-397" font-family="Helvetica,sans-Serif" font-size="10.00">xeno_rat_client.Utils.Is</text>
<text text-anchor="middle" x="431.12" y="-385.75" font-family="Helvetica,sans-Serif" font-size="10.00">UserAnAdmin</text>
</a>
</g>
</g>
<!-- Node4&#45;&gt;Node5 -->
<g id="edge4_Node000004_Node000005" class="edge">
<title>Node4&#45;&gt;Node5</title>
<g id="a_edge4_Node000004_Node000005"><a xlink:title=" ">
<path fill="none" stroke="#63b8ff" d="M295.12,-395.25C315.87,-395.25 339.51,-395.25 361.15,-395.25"/>
<polygon fill="#63b8ff" stroke="#63b8ff" points="361.08,-398.75 371.08,-395.25 361.08,-391.75 361.08,-398.75"/>
</a>
</g>
</g>
<!-- Node7 -->
<g id="Node000007" class="node">
<title>Node7</title>
<g id="a_Node000007"><a xlink:href="class_hidden__handler_1_1___process_helper.html#a663ea20e04ca87e424a9ba029c1b7eba" target="_top" xlink:title="Closes an open object handle.">
<polygon fill="white" stroke="#666666" points="898.25,-296.5 740.5,-296.5 740.5,-266 898.25,-266 898.25,-296.5"/>
<text text-anchor="start" x="748.5" y="-283" font-family="Helvetica,sans-Serif" font-size="10.00">Hidden_handler._ProcessHelper.</text>
<text text-anchor="middle" x="819.38" y="-271.75" font-family="Helvetica,sans-Serif" font-size="10.00">CloseHandle</text>
</a>
</g>
</g>
<!-- Node6&#45;&gt;Node7 -->
<g id="edge6_Node000006_Node000007" class="edge">
<title>Node6&#45;&gt;Node7</title>
<g id="a_edge6_Node000006_Node000007"><a xlink:title=" ">
<path fill="none" stroke="#63b8ff" d="M315.94,-339.63C409.57,-350.83 570.44,-362.41 704.5,-333.25 732.06,-327.26 760.94,-313.98 782.72,-302.34"/>
<polygon fill="#63b8ff" stroke="#63b8ff" points="784.4,-305.41 791.48,-297.53 781.03,-299.28 784.4,-305.41"/>
</a>
</g>
</g>
<!-- Node8 -->
<g id="Node000008" class="node">
<title>Node8</title>
<g id="a_Node000008"><a xlink:href="class_hidden__handler_1_1___process_helper.html#a001f8668c1ed15d6abda4b7884a5863e" target="_top" xlink:title="Creates a new process using the specified user token and startup information.">
<polygon fill="white" stroke="#666666" points="510,-324.5 352.25,-324.5 352.25,-294 510,-294 510,-324.5"/>
<text text-anchor="start" x="360.25" y="-311" font-family="Helvetica,sans-Serif" font-size="10.00">Hidden_handler._ProcessHelper.</text>
<text text-anchor="middle" x="431.12" y="-299.75" font-family="Helvetica,sans-Serif" font-size="10.00">CreateProcessAsUser</text>
</a>
</g>
</g>
<!-- Node6&#45;&gt;Node8 -->
<g id="edge7_Node000006_Node000008" class="edge">
<title>Node6&#45;&gt;Node8</title>
<g id="a_edge7_Node000006_Node000008"><a xlink:title=" ">
<path fill="none" stroke="#63b8ff" d="M315.92,-320.52C324.08,-319.72 332.42,-318.89 340.69,-318.08"/>
<polygon fill="#63b8ff" stroke="#63b8ff" points="340.78,-321.59 350.39,-317.12 340.1,-314.62 340.78,-321.59"/>
</a>
</g>
</g>
<!-- Node9 -->
<g id="Node000009" class="node">
<title>Node9</title>
<g id="a_Node000009"><a xlink:href="class_hidden__handler_1_1___process_helper.html#a71b728a87d93b62a21f422a707be8a9e" target="_top" xlink:title="Retrieves a restricted session user token and returns it.">
<polygon fill="white" stroke="#666666" points="510.75,-202.5 351.5,-202.5 351.5,-172 510.75,-172 510.75,-202.5"/>
<text text-anchor="start" x="359.5" y="-189" font-family="Helvetica,sans-Serif" font-size="10.00">Hidden_handler._ProcessHelper.</text>
<text text-anchor="middle" x="431.12" y="-177.75" font-family="Helvetica,sans-Serif" font-size="10.00">GetRestrictedSessionUserToken</text>
</a>
</g>
</g>
<!-- Node6&#45;&gt;Node9 -->
<g id="edge8_Node000006_Node000009" class="edge">
<title>Node6&#45;&gt;Node9</title>
<g id="a_edge8_Node000006_Node000009"><a xlink:title=" ">
<path fill="none" stroke="#63b8ff" d="M258.96,-312.62C293.22,-287.53 360.61,-238.17 399.83,-209.44"/>
<polygon fill="#63b8ff" stroke="#63b8ff" points="401.47,-212.58 407.47,-203.84 397.34,-206.93 401.47,-212.58"/>
</a>
</g>
</g>
<!-- Node10 -->
<g id="Node000010" class="node">
<title>Node10</title>
<g id="a_Node000010"><a xlink:href="class_hidden__handler_1_1___process_helper.html#a1fcacc2ad894dbddf51f6db9d37bb317" target="_top" xlink:title="Converts a string representation of a security identifier (SID) to a binary SID and returns a value i...">
<polygon fill="white" stroke="#666666" points="704.5,-324.5 546.75,-324.5 546.75,-294 704.5,-294 704.5,-324.5"/>
<text text-anchor="start" x="554.75" y="-311" font-family="Helvetica,sans-Serif" font-size="10.00">Hidden_handler._ProcessHelper.</text>
<text text-anchor="middle" x="625.62" y="-299.75" font-family="Helvetica,sans-Serif" font-size="10.00">ConvertStringSidToSid</text>
</a>
</g>
</g>
<!-- Node9&#45;&gt;Node10 -->
<g id="edge9_Node000009_Node000010" class="edge">
<title>Node9&#45;&gt;Node10</title>
<g id="a_edge9_Node000009_Node000010"><a xlink:title=" ">
<path fill="none" stroke="#63b8ff" d="M446.61,-202.87C467.05,-224.07 506.4,-261.87 546.75,-284.25 549.92,-286.01 553.22,-287.66 556.61,-289.22"/>
<polygon fill="#63b8ff" stroke="#63b8ff" points="555,-292.34 565.58,-293 557.73,-285.89 555,-292.34"/>
</a>
</g>
</g>
<!-- Node11 -->
<g id="Node000011" class="node">
<title>Node11</title>
<g id="a_Node000011"><a xlink:href="class_hidden__handler_1_1___process_helper.html#a3fa91d6360cdb590996433351b716528" target="_top" xlink:title="Frees the memory block allocated by LocalAlloc and LocalReAlloc and invalidates the handle.">
<polygon fill="white" stroke="#666666" points="704.5,-275.5 546.75,-275.5 546.75,-245 704.5,-245 704.5,-275.5"/>
<text text-anchor="start" x="554.75" y="-262" font-family="Helvetica,sans-Serif" font-size="10.00">Hidden_handler._ProcessHelper.</text>
<text text-anchor="middle" x="625.62" y="-250.75" font-family="Helvetica,sans-Serif" font-size="10.00">LocalFree</text>
</a>
</g>
</g>
<!-- Node9&#45;&gt;Node11 -->
<g id="edge10_Node000009_Node000011" class="edge">
<title>Node9&#45;&gt;Node11</title>
<g id="a_edge10_Node000009_Node000011"><a xlink:title=" ">
<path fill="none" stroke="#63b8ff" d="M467.44,-202.96C489.94,-212.75 519.83,-225.31 546.75,-235.25 552.03,-237.2 557.53,-239.14 563.08,-241.03"/>
<polygon fill="#63b8ff" stroke="#63b8ff" points="561.69,-244.26 572.29,-244.12 563.92,-237.63 561.69,-244.26"/>
</a>
</g>
</g>
<!-- Node12 -->
<g id="Node000012" class="node">
<title>Node12</title>
<g id="a_Node000012"><a xlink:href="class_hidden__handler_1_1___process_helper.html#a34637f16b886e4b38c1086cd27ce8162" target="_top" xlink:title="Safely closes the specified handle if it is not a null pointer and returns a boolean value indicating...">
<polygon fill="white" stroke="#666666" points="704.5,-226.5 546.75,-226.5 546.75,-196 704.5,-196 704.5,-226.5"/>
<text text-anchor="start" x="554.75" y="-213" font-family="Helvetica,sans-Serif" font-size="10.00">Hidden_handler._ProcessHelper.</text>
<text text-anchor="middle" x="625.62" y="-201.75" font-family="Helvetica,sans-Serif" font-size="10.00">SafeCloseHandle</text>
</a>
</g>
</g>
<!-- Node9&#45;&gt;Node12 -->
<g id="edge11_Node000009_Node000012" class="edge">
<title>Node9&#45;&gt;Node12</title>
<g id="a_edge11_Node000009_Node000012"><a xlink:title=" ">
<path fill="none" stroke="#63b8ff" d="M510.98,-197.08C518.95,-198.08 527.09,-199.09 535.17,-200.1"/>
<polygon fill="#63b8ff" stroke="#63b8ff" points="534.66,-203.56 545.02,-201.32 535.53,-196.61 534.66,-203.56"/>
</a>
</g>
</g>
<!-- Node13 -->
<g id="Node000013" class="node">
<title>Node13</title>
<g id="a_Node000013"><a xlink:href="class_hidden__handler_1_1___process_helper.html#af8b61acfaee6a0c034cdbd9fdd415352" target="_top" xlink:title="Closes a SAFER level handle.">
<polygon fill="white" stroke="#666666" points="704.5,-177.5 546.75,-177.5 546.75,-147 704.5,-147 704.5,-177.5"/>
<text text-anchor="start" x="554.75" y="-164" font-family="Helvetica,sans-Serif" font-size="10.00">Hidden_handler._ProcessHelper.</text>
<text text-anchor="middle" x="625.62" y="-152.75" font-family="Helvetica,sans-Serif" font-size="10.00">SaferCloseLevel</text>
</a>
</g>
</g>
<!-- Node9&#45;&gt;Node13 -->
<g id="edge13_Node000009_Node000013" class="edge">
<title>Node9&#45;&gt;Node13</title>
<g id="a_edge13_Node000009_Node000013"><a xlink:title=" ">
<path fill="none" stroke="#63b8ff" d="M510.98,-177.01C518.95,-175.97 527.09,-174.92 535.17,-173.87"/>
<polygon fill="#63b8ff" stroke="#63b8ff" points="535.55,-177.35 545.02,-172.59 534.65,-170.41 535.55,-177.35"/>
</a>
</g>
</g>
<!-- Node14 -->
<g id="Node000014" class="node">
<title>Node14</title>
<g id="a_Node000014"><a xlink:href="class_hidden__handler_1_1___process_helper.html#a1eb4aabd0fc0cfae5aebbdd9966f7ff7" target="_top" xlink:title="Computes a token from the specified level handle and input access token, and returns the result.">
<polygon fill="white" stroke="#666666" points="704.5,-128.5 546.75,-128.5 546.75,-98 704.5,-98 704.5,-128.5"/>
<text text-anchor="start" x="554.75" y="-115" font-family="Helvetica,sans-Serif" font-size="10.00">Hidden_handler._ProcessHelper.</text>
<text text-anchor="middle" x="625.62" y="-103.75" font-family="Helvetica,sans-Serif" font-size="10.00">SaferComputeTokenFromLevel</text>
</a>
</g>
</g>
<!-- Node9&#45;&gt;Node14 -->
<g id="edge14_Node000009_Node000014" class="edge">
<title>Node9&#45;&gt;Node14</title>
<g id="a_edge14_Node000009_Node000014"><a xlink:title=" ">
<path fill="none" stroke="#63b8ff" d="M466.4,-171.61C489,-161.54 519.38,-148.47 546.75,-138.25 551.81,-136.36 557.08,-134.49 562.39,-132.66"/>
<polygon fill="#63b8ff" stroke="#63b8ff" points="563.49,-135.98 571.85,-129.46 561.26,-129.34 563.49,-135.98"/>
</a>
</g>
</g>
<!-- Node15 -->
<g id="Node000015" class="node">
<title>Node15</title>
<g id="a_Node000015"><a xlink:href="class_hidden__handler_1_1___process_helper.html#a9b567703cdeea8195097dcde8aed9d94" target="_top" xlink:title="Creates a new Safer level and returns a handle to the level.">
<polygon fill="white" stroke="#666666" points="704.5,-79.5 546.75,-79.5 546.75,-49 704.5,-49 704.5,-79.5"/>
<text text-anchor="start" x="554.75" y="-66" font-family="Helvetica,sans-Serif" font-size="10.00">Hidden_handler._ProcessHelper.</text>
<text text-anchor="middle" x="625.62" y="-54.75" font-family="Helvetica,sans-Serif" font-size="10.00">SaferCreateLevel</text>
</a>
</g>
</g>
<!-- Node9&#45;&gt;Node15 -->
<g id="edge15_Node000009_Node000015" class="edge">
<title>Node9&#45;&gt;Node15</title>
<g id="a_edge15_Node000009_Node000015"><a xlink:title=" ">
<path fill="none" stroke="#63b8ff" d="M446.23,-171.83C466.53,-150.47 506.05,-111.96 546.75,-89.25 549.91,-87.49 553.22,-85.82 556.6,-84.26"/>
<polygon fill="#63b8ff" stroke="#63b8ff" points="557.72,-87.59 565.56,-80.47 554.99,-81.15 557.72,-87.59"/>
</a>
</g>
</g>
<!-- Node16 -->
<g id="Node000016" class="node">
<title>Node16</title>
<g id="a_Node000016"><a xlink:href="class_hidden__handler_1_1___process_helper.html#a0bdf88a53051df6800aa52b8539f790c" target="_top" xlink:title="Sets the token information for a specified token.">
<polygon fill="white" stroke="#666666" points="704.5,-30.5 546.75,-30.5 546.75,0 704.5,0 704.5,-30.5"/>
<text text-anchor="start" x="554.75" y="-17" font-family="Helvetica,sans-Serif" font-size="10.00">Hidden_handler._ProcessHelper.</text>
<text text-anchor="middle" x="625.62" y="-5.75" font-family="Helvetica,sans-Serif" font-size="10.00">SetTokenInformation</text>
</a>
</g>
</g>
<!-- Node9&#45;&gt;Node16 -->
<g id="edge16_Node000009_Node000016" class="edge">
<title>Node9&#45;&gt;Node16</title>
<g id="a_edge16_Node000009_Node000016"><a xlink:title=" ">
<path fill="none" stroke="#63b8ff" d="M439.98,-171.88C455.99,-142.08 495.27,-76.19 546.75,-40.25 548.83,-38.8 551,-37.42 553.24,-36.13"/>
<polygon fill="#63b8ff" stroke="#63b8ff" points="554.74,-39.29 562.05,-31.62 551.56,-33.06 554.74,-39.29"/>
</a>
</g>
</g>
<!-- Node12&#45;&gt;Node7 -->
<g id="edge12_Node000012_Node000007" class="edge">
<title>Node12&#45;&gt;Node7</title>
<g id="a_edge12_Node000012_Node000007"><a xlink:title=" ">
<path fill="none" stroke="#63b8ff" d="M677.06,-226.91C686.23,-229.9 695.68,-233.09 704.5,-236.25 726.13,-243.99 749.8,-253.21 769.92,-261.29"/>
<polygon fill="#63b8ff" stroke="#63b8ff" points="768.41,-264.45 778.99,-264.95 771.03,-257.96 768.41,-264.45"/>
</a>
</g>
</g>
</g>
</svg>
