<?xml version="1.0" encoding="UTF-8" standalone="no"?>
<!DOCTYPE svg PUBLIC "-//W3C//DTD SVG 1.1//EN"
 "http://www.w3.org/Graphics/SVG/1.1/DTD/svg11.dtd">
<!-- Generated by graphviz version 10.0.1 (20240210.2158)
 -->
<!-- Title: NAudio.Wave.Compression.AcmStream.AcmStream Pages: 1 -->
<svg width="742pt" height="241pt"
 viewBox="0.00 0.00 741.75 240.88" xmlns="http://www.w3.org/2000/svg" xmlns:xlink="http://www.w3.org/1999/xlink">
<g id="graph0" class="graph" transform="scale(1 1) rotate(0) translate(4 236.88)">
<title>NAudio.Wave.Compression.AcmStream.AcmStream</title>
<!-- Node1 -->
<g id="Node000001" class="node">
<title>Node1</title>
<g id="a_Node000001"><a xlink:title="Creates a new ACM stream to convert one format to another. Note that not all conversions can be done ...">
<polygon fill="#999999" stroke="#666666" points="139.75,-116.88 0,-116.88 0,-86.38 139.75,-86.38 139.75,-116.88"/>
<text text-anchor="start" x="8" y="-103.38" font-family="Helvetica,sans-Serif" font-size="10.00">NAudio.Wave.Compression.</text>
<text text-anchor="middle" x="69.88" y="-92.12" font-family="Helvetica,sans-Serif" font-size="10.00">AcmStream.AcmStream</text>
</a>
</g>
</g>
<!-- Node2 -->
<g id="Node000002" class="node">
<title>Node2</title>
<g id="a_Node000002"><a xlink:href="class_n_audio_1_1_wave_1_1_compression_1_1_acm_interop.html#a7741338b494cd234b5bb8778306f5a42" target="_top" xlink:title="Opens a new conversion stream for audio data.">
<polygon fill="white" stroke="#666666" points="335.75,-232.88 187.75,-232.88 187.75,-202.38 335.75,-202.38 335.75,-232.88"/>
<text text-anchor="start" x="195.75" y="-219.38" font-family="Helvetica,sans-Serif" font-size="10.00">NAudio.Wave.Compression.</text>
<text text-anchor="middle" x="261.75" y="-208.12" font-family="Helvetica,sans-Serif" font-size="10.00">AcmInterop.acmStreamOpen2</text>
</a>
</g>
</g>
<!-- Node1&#45;&gt;Node2 -->
<g id="edge1_Node000001_Node000002" class="edge">
<title>Node1&#45;&gt;Node2</title>
<g id="a_edge1_Node000001_Node000002"><a xlink:title=" ">
<path fill="none" stroke="#63b8ff" d="M84.61,-117.11C103.32,-137.29 138.74,-172.39 175.75,-192.62 178.99,-194.4 182.37,-196.05 185.83,-197.61"/>
<polygon fill="#63b8ff" stroke="#63b8ff" points="184.44,-200.82 195.02,-201.37 187.1,-194.34 184.44,-200.82"/>
</a>
</g>
</g>
<!-- Node3 -->
<g id="Node000003" class="node">
<title>Node3</title>
<g id="a_Node000003"><a xlink:href="class_n_audio_1_1_wave_1_1_compression_1_1_acm_stream.html#a9037fe64d3d79067ae4068ffb16ba430" target="_top" xlink:title="Releases the unmanaged resources used by the WaveFormatConverter and optionally releases the managed ...">
<polygon fill="white" stroke="#666666" points="331.62,-165.88 191.88,-165.88 191.88,-135.38 331.62,-135.38 331.62,-165.88"/>
<text text-anchor="start" x="199.88" y="-152.38" font-family="Helvetica,sans-Serif" font-size="10.00">NAudio.Wave.Compression.</text>
<text text-anchor="middle" x="261.75" y="-141.12" font-family="Helvetica,sans-Serif" font-size="10.00">AcmStream.Dispose</text>
</a>
</g>
</g>
<!-- Node1&#45;&gt;Node3 -->
<g id="edge2_Node000001_Node000003" class="edge">
<title>Node1&#45;&gt;Node3</title>
<g id="a_edge2_Node000001_Node000003"><a xlink:title=" ">
<path fill="none" stroke="#63b8ff" d="M131.74,-117.33C149.96,-122.03 170.12,-127.24 188.98,-132.1"/>
<polygon fill="#63b8ff" stroke="#63b8ff" points="187.88,-135.44 198.44,-134.55 189.63,-128.66 187.88,-135.44"/>
</a>
</g>
</g>
<!-- Node4 -->
<g id="Node000004" class="node">
<title>Node4</title>
<g id="a_Node000004"><a xlink:href="class_n_audio_1_1_wave_1_1_wave_format.html#a8ac2acc4d7ca485fca7c3077f25a6814" target="_top" xlink:title="Marshals the WaveFormat structure to a pointer.">
<polygon fill="white" stroke="#666666" points="347.75,-116.88 175.75,-116.88 175.75,-86.38 347.75,-86.38 347.75,-116.88"/>
<text text-anchor="start" x="183.75" y="-103.38" font-family="Helvetica,sans-Serif" font-size="10.00">NAudio.Wave.WaveFormat.Marshal</text>
<text text-anchor="middle" x="261.75" y="-92.12" font-family="Helvetica,sans-Serif" font-size="10.00">ToPtr</text>
</a>
</g>
</g>
<!-- Node1&#45;&gt;Node4 -->
<g id="edge4_Node000001_Node000004" class="edge">
<title>Node1&#45;&gt;Node4</title>
<g id="a_edge4_Node000001_Node000004"><a xlink:title=" ">
<path fill="none" stroke="#63b8ff" d="M140.23,-101.62C148.01,-101.62 156.03,-101.62 164.07,-101.62"/>
<polygon fill="#63b8ff" stroke="#63b8ff" points="163.91,-105.13 173.91,-101.63 163.91,-98.13 163.91,-105.13"/>
</a>
</g>
</g>
<!-- Node5 -->
<g id="Node000005" class="node">
<title>Node5</title>
<g id="a_Node000005"><a xlink:href="class_n_audio_1_1_wave_1_1_compression_1_1_acm_stream.html#a673fd43e0771c321da2c6d3d43380e25" target="_top" xlink:title="Converts the source value to destination and returns the result.">
<polygon fill="white" stroke="#666666" points="331.62,-67.88 191.88,-67.88 191.88,-37.38 331.62,-37.38 331.62,-67.88"/>
<text text-anchor="start" x="199.88" y="-54.38" font-family="Helvetica,sans-Serif" font-size="10.00">NAudio.Wave.Compression.</text>
<text text-anchor="middle" x="261.75" y="-43.12" font-family="Helvetica,sans-Serif" font-size="10.00">AcmStream.SourceToDest</text>
</a>
</g>
</g>
<!-- Node1&#45;&gt;Node5 -->
<g id="edge5_Node000001_Node000005" class="edge">
<title>Node1&#45;&gt;Node5</title>
<g id="a_edge5_Node000001_Node000005"><a xlink:title=" ">
<path fill="none" stroke="#63b8ff" d="M131.74,-85.92C149.96,-81.22 170.12,-76.01 188.98,-71.15"/>
<polygon fill="#63b8ff" stroke="#63b8ff" points="189.63,-74.59 198.44,-68.7 187.88,-67.81 189.63,-74.59"/>
</a>
</g>
</g>
<!-- Node7 -->
<g id="Node000007" class="node">
<title>Node7</title>
<g id="a_Node000007"><a xlink:href="class_n_audio_1_1_mm_exception.html#a1ca263e295226b2dff8fda80043242d2" target="_top" xlink:title="Throws an exception if the specified result is not equal to MmResult.NoError.">
<polygon fill="white" stroke="#666666" points="517.88,-19.25 389.38,-19.25 389.38,0 517.88,0 517.88,-19.25"/>
<text text-anchor="middle" x="453.62" y="-5.75" font-family="Helvetica,sans-Serif" font-size="10.00">NAudio.MmException.Try</text>
</a>
</g>
</g>
<!-- Node1&#45;&gt;Node7 -->
<g id="edge9_Node000001_Node000007" class="edge">
<title>Node1&#45;&gt;Node7</title>
<g id="a_edge9_Node000001_Node000007"><a xlink:title=" ">
<path fill="none" stroke="#63b8ff" d="M87.07,-86.06C106.41,-68.57 140.59,-40.99 175.75,-28.62 241.23,-5.59 320.7,-2.46 377.68,-4.13"/>
<polygon fill="#63b8ff" stroke="#63b8ff" points="377.49,-7.63 387.61,-4.49 377.74,-0.63 377.49,-7.63"/>
</a>
</g>
</g>
<!-- Node3&#45;&gt;Node3 -->
<g id="edge3_Node000003_Node000003" class="edge">
<title>Node3&#45;&gt;Node3</title>
<g id="a_edge3_Node000003_Node000003"><a xlink:title=" ">
<path fill="none" stroke="#63b8ff" d="M227.75,-166.36C220.81,-175.43 232.14,-183.88 261.75,-183.88 277.94,-183.88 288.67,-181.35 293.93,-177.58"/>
<polygon fill="#63b8ff" stroke="#63b8ff" points="297.36,-178.29 295.51,-167.85 290.45,-177.16 297.36,-178.29"/>
</a>
</g>
</g>
<!-- Node6 -->
<g id="Node000006" class="node">
<title>Node6</title>
<g id="a_Node000006"><a xlink:href="class_n_audio_1_1_wave_1_1_compression_1_1_acm_interop.html#ac65a2cb6ac36b06e6307407927ce8d93" target="_top" xlink:title="Retrieves the size of the output buffer required for the specified input buffer size and conversion p...">
<polygon fill="white" stroke="#666666" points="523.5,-67.88 383.75,-67.88 383.75,-37.38 523.5,-37.38 523.5,-67.88"/>
<text text-anchor="start" x="391.75" y="-54.38" font-family="Helvetica,sans-Serif" font-size="10.00">NAudio.Wave.Compression.</text>
<text text-anchor="middle" x="453.62" y="-43.12" font-family="Helvetica,sans-Serif" font-size="10.00">AcmInterop.acmStreamSize</text>
</a>
</g>
</g>
<!-- Node5&#45;&gt;Node6 -->
<g id="edge6_Node000005_Node000006" class="edge">
<title>Node5&#45;&gt;Node6</title>
<g id="a_edge6_Node000005_Node000006"><a xlink:title=" ">
<path fill="none" stroke="#63b8ff" d="M332.11,-52.62C345.18,-52.62 358.96,-52.62 372.34,-52.62"/>
<polygon fill="#63b8ff" stroke="#63b8ff" points="371.94,-56.13 381.94,-52.63 371.94,-49.13 371.94,-56.13"/>
</a>
</g>
</g>
<!-- Node5&#45;&gt;Node7 -->
<g id="edge7_Node000005_Node000007" class="edge">
<title>Node5&#45;&gt;Node7</title>
<g id="a_edge7_Node000005_Node000007"><a xlink:title=" ">
<path fill="none" stroke="#63b8ff" d="M332.11,-36.92C353.47,-32.08 376.7,-26.82 397.01,-22.22"/>
<polygon fill="#63b8ff" stroke="#63b8ff" points="397.51,-25.7 406.49,-20.07 395.96,-18.87 397.51,-25.7"/>
</a>
</g>
</g>
<!-- Node8 -->
<g id="Node000008" class="node">
<title>Node8</title>
<g id="a_Node000008"><a xlink:href="class_n_audio_1_1_mm_exception.html#a674e0bb89c4e2aeb1f4ea96514710947" target="_top" xlink:title="Creates a new MmException.">
<polygon fill="white" stroke="#666666" points="733.75,-19.25 559.5,-19.25 559.5,0 733.75,0 733.75,-19.25"/>
<text text-anchor="middle" x="646.62" y="-5.75" font-family="Helvetica,sans-Serif" font-size="10.00">NAudio.MmException.MmException</text>
</a>
</g>
</g>
<!-- Node7&#45;&gt;Node8 -->
<g id="edge8_Node000007_Node000008" class="edge">
<title>Node7&#45;&gt;Node8</title>
<g id="a_edge8_Node000007_Node000008"><a xlink:title=" ">
<path fill="none" stroke="#63b8ff" d="M518.23,-9.62C527.77,-9.62 537.79,-9.62 547.84,-9.62"/>
<polygon fill="#63b8ff" stroke="#63b8ff" points="547.67,-13.13 557.67,-9.63 547.67,-6.13 547.67,-13.13"/>
</a>
</g>
</g>
</g>
</svg>
