<?xml version="1.0" encoding="UTF-8" standalone="no"?>
<!DOCTYPE svg PUBLIC "-//W3C//DTD SVG 1.1//EN"
 "http://www.w3.org/Graphics/SVG/1.1/DTD/svg11.dtd">
<!-- Generated by graphviz version 10.0.1 (20240210.2158)
 -->
<!-- Title: NAudio.Wave.WaveOutBuffer.OnDone Pages: 1 -->
<svg width="556pt" height="76pt"
 viewBox="0.00 0.00 556.25 75.88" xmlns="http://www.w3.org/2000/svg" xmlns:xlink="http://www.w3.org/1999/xlink">
<g id="graph0" class="graph" transform="scale(1 1) rotate(0) translate(4 71.88)">
<title>NAudio.Wave.WaveOutBuffer.OnDone</title>
<!-- Node1 -->
<g id="Node000001" class="node">
<title>Node1</title>
<g id="a_Node000001"><a xlink:title="Reads data from the wave stream, writes it to the output, and returns a boolean value indicating whet...">
<polygon fill="#999999" stroke="#666666" points="148,-51.5 0,-51.5 0,-21 148,-21 148,-51.5"/>
<text text-anchor="start" x="8" y="-38" font-family="Helvetica,sans-Serif" font-size="10.00">NAudio.Wave.WaveOutBuffer.</text>
<text text-anchor="middle" x="74" y="-26.75" font-family="Helvetica,sans-Serif" font-size="10.00">OnDone</text>
</a>
</g>
</g>
<!-- Node2 -->
<g id="Node000002" class="node">
<title>Node2</title>
<g id="a_Node000002"><a xlink:href="interface_n_audio_1_1_wave_1_1_i_wave_provider.html#a1592be8cd7da05cc1a773b8d4ed979c0" target="_top" xlink:title="Fill the specified buffer with wave data.">
<polygon fill="white" stroke="#666666" points="352.25,-67.88 184,-67.88 184,-48.62 352.25,-48.62 352.25,-67.88"/>
<text text-anchor="middle" x="268.12" y="-54.38" font-family="Helvetica,sans-Serif" font-size="10.00">NAudio.Wave.IWaveProvider.Read</text>
</a>
</g>
</g>
<!-- Node1&#45;&gt;Node2 -->
<g id="edge1_Node000001_Node000002" class="edge">
<title>Node1&#45;&gt;Node2</title>
<g id="a_edge1_Node000001_Node000002"><a xlink:title=" ">
<path fill="none" stroke="#63b8ff" d="M148.46,-44.66C156.3,-45.56 164.37,-46.48 172.42,-47.4"/>
<polygon fill="#63b8ff" stroke="#63b8ff" points="171.93,-50.87 182.26,-48.53 172.72,-43.92 171.93,-50.87"/>
</a>
</g>
</g>
<!-- Node3 -->
<g id="Node000003" class="node">
<title>Node3</title>
<g id="a_Node000003"><a xlink:href="class_n_audio_1_1_wave_1_1_wave_out_buffer.html#ae6f9c36274c950e639fe0d97ab673423" target="_top" xlink:title="Writes the audio data to the WaveOut device for playback.">
<polygon fill="white" stroke="#666666" points="342.12,-30.5 194.12,-30.5 194.12,0 342.12,0 342.12,-30.5"/>
<text text-anchor="start" x="202.12" y="-17" font-family="Helvetica,sans-Serif" font-size="10.00">NAudio.Wave.WaveOutBuffer.</text>
<text text-anchor="middle" x="268.12" y="-5.75" font-family="Helvetica,sans-Serif" font-size="10.00">WriteToWaveOut</text>
</a>
</g>
</g>
<!-- Node1&#45;&gt;Node3 -->
<g id="edge2_Node000001_Node000003" class="edge">
<title>Node1&#45;&gt;Node3</title>
<g id="a_edge2_Node000001_Node000003"><a xlink:title=" ">
<path fill="none" stroke="#63b8ff" d="M148.46,-28.22C159.58,-27.01 171.13,-25.74 182.47,-24.5"/>
<polygon fill="#63b8ff" stroke="#63b8ff" points="182.64,-28.01 192.2,-23.44 181.88,-21.05 182.64,-28.01"/>
</a>
</g>
</g>
<!-- Node4 -->
<g id="Node000004" class="node">
<title>Node4</title>
<g id="a_Node000004"><a xlink:href="class_n_audio_1_1_wave_1_1_wave_interop.html#ab3c605e4c71d004f248d7760c6f69704" target="_top" xlink:title="Sends a data block to the specified waveform&#45;audio output device.">
<polygon fill="white" stroke="#666666" points="548.25,-30.5 388.25,-30.5 388.25,0 548.25,0 548.25,-30.5"/>
<text text-anchor="start" x="396.25" y="-17" font-family="Helvetica,sans-Serif" font-size="10.00">NAudio.Wave.WaveInterop.wave</text>
<text text-anchor="middle" x="468.25" y="-5.75" font-family="Helvetica,sans-Serif" font-size="10.00">OutWrite</text>
</a>
</g>
</g>
<!-- Node3&#45;&gt;Node4 -->
<g id="edge3_Node000003_Node000004" class="edge">
<title>Node3&#45;&gt;Node4</title>
<g id="a_edge3_Node000003_Node000004"><a xlink:title=" ">
<path fill="none" stroke="#63b8ff" d="M342.62,-15.25C353.69,-15.25 365.21,-15.25 376.59,-15.25"/>
<polygon fill="#63b8ff" stroke="#63b8ff" points="376.38,-18.75 386.38,-15.25 376.38,-11.75 376.38,-18.75"/>
</a>
</g>
</g>
</g>
</svg>
