<?xml version="1.0" encoding="UTF-8" standalone="no"?>
<!DOCTYPE svg PUBLIC "-//W3C//DTD SVG 1.1//EN"
 "http://www.w3.org/Graphics/SVG/1.1/DTD/svg11.dtd">
<!-- Generated by graphviz version 10.0.1 (20240210.2158)
 -->
<!-- Title: NAudio.Wave.WasapiOut.Init Pages: 1 -->
<svg width="530pt" height="369pt"
 viewBox="0.00 0.00 530.00 368.50" xmlns="http://www.w3.org/2000/svg" xmlns:xlink="http://www.w3.org/1999/xlink">
<g id="graph0" class="graph" transform="scale(1 1) rotate(0) translate(4 364.5)">
<title>NAudio.Wave.WasapiOut.Init</title>
<!-- Node1 -->
<g id="Node000001" class="node">
<title>Node1</title>
<g id="a_Node000001"><a xlink:title="Initializes the audio output with the specified waveProvider .">
<polygon fill="#999999" stroke="#666666" points="143.5,-116.88 0,-116.88 0,-97.62 143.5,-97.62 143.5,-116.88"/>
<text text-anchor="middle" x="71.75" y="-103.38" font-family="Helvetica,sans-Serif" font-size="10.00">NAudio.Wave.WasapiOut.Init</text>
</a>
</g>
</g>
<!-- Node2 -->
<g id="Node000002" class="node">
<title>Node2</title>
<g id="a_Node000002"><a xlink:href="class_n_audio_1_1_core_audio_api_1_1_audio_client.html#a912dabf6205f4decb860f0804186fec2" target="_top" xlink:title="Performs the disposal of resources used by the audio client.">
<polygon fill="white" stroke="#666666" points="321.88,-262.5 182.88,-262.5 182.88,-232 321.88,-232 321.88,-262.5"/>
<text text-anchor="start" x="190.88" y="-249" font-family="Helvetica,sans-Serif" font-size="10.00">NAudio.CoreAudioApi.Audio</text>
<text text-anchor="middle" x="252.38" y="-237.75" font-family="Helvetica,sans-Serif" font-size="10.00">Client.Dispose</text>
</a>
</g>
</g>
<!-- Node1&#45;&gt;Node2 -->
<g id="edge1_Node000001_Node000002" class="edge">
<title>Node1&#45;&gt;Node2</title>
<g id="a_edge1_Node000001_Node000002"><a xlink:title=" ">
<path fill="none" stroke="#63b8ff" d="M85.6,-117.32C114.11,-139.67 183.26,-193.87 222.66,-224.74"/>
<polygon fill="#63b8ff" stroke="#63b8ff" points="220.3,-227.34 230.33,-230.75 224.62,-221.83 220.3,-227.34"/>
</a>
</g>
</g>
<!-- Node7 -->
<g id="Node000007" class="node">
<title>Node7</title>
<g id="a_Node000007"><a xlink:href="class_n_audio_1_1_wave_1_1_wasapi_out.html#a9b87cd18af1d8eb60039d7562208b3f3" target="_top" xlink:title="Gets the fallback WaveFormat to be used in case the provided format is not supported,...">
<polygon fill="white" stroke="#666666" points="325.25,-165.5 179.5,-165.5 179.5,-135 325.25,-135 325.25,-165.5"/>
<text text-anchor="start" x="187.5" y="-152" font-family="Helvetica,sans-Serif" font-size="10.00">NAudio.Wave.WasapiOut.Get</text>
<text text-anchor="middle" x="252.38" y="-140.75" font-family="Helvetica,sans-Serif" font-size="10.00">FallbackFormat</text>
</a>
</g>
</g>
<!-- Node1&#45;&gt;Node7 -->
<g id="edge7_Node000001_Node000007" class="edge">
<title>Node1&#45;&gt;Node7</title>
<g id="a_edge7_Node000001_Node000007"><a xlink:title=" ">
<path fill="none" stroke="#63b8ff" d="M114.63,-117.33C132.64,-121.67 154.27,-126.87 174.95,-131.85"/>
<polygon fill="#63b8ff" stroke="#63b8ff" points="173.98,-135.22 184.52,-134.16 175.61,-128.41 173.98,-135.22"/>
</a>
</g>
</g>
<!-- Node8 -->
<g id="Node000008" class="node">
<title>Node8</title>
<g id="a_Node000008"><a xlink:href="class_n_audio_1_1_core_audio_api_1_1_audio_client.html#ab0849e5192f4ab65257d9857e2c6f402" target="_top" xlink:title="Checks if the specified audio format is supported for the given share mode and returns the closest ma...">
<polygon fill="white" stroke="#666666" points="511.12,-128.5 372.12,-128.5 372.12,-98 511.12,-98 511.12,-128.5"/>
<text text-anchor="start" x="380.12" y="-115" font-family="Helvetica,sans-Serif" font-size="10.00">NAudio.CoreAudioApi.Audio</text>
<text text-anchor="middle" x="441.62" y="-103.75" font-family="Helvetica,sans-Serif" font-size="10.00">Client.IsFormatSupported</text>
</a>
</g>
</g>
<!-- Node1&#45;&gt;Node8 -->
<g id="edge12_Node000001_Node000008" class="edge">
<title>Node1&#45;&gt;Node8</title>
<g id="a_edge12_Node000001_Node000008"><a xlink:title=" ">
<path fill="none" stroke="#63b8ff" d="M143.68,-108.41C205.72,-109.42 295.77,-110.89 360.42,-111.94"/>
<polygon fill="#63b8ff" stroke="#63b8ff" points="360.21,-115.44 370.27,-112.1 360.33,-108.44 360.21,-115.44"/>
</a>
</g>
</g>
<!-- Node9 -->
<g id="Node000009" class="node">
<title>Node9</title>
<g id="a_Node000009"><a xlink:href="class_n_audio_1_1_core_audio_api_1_1_audio_client.html#a534c725e8ee48a46bcf98fcf0ff922ed" target="_top" xlink:title="Initializes the audio client with the specified parameters.">
<polygon fill="white" stroke="#666666" points="321.88,-79.5 182.88,-79.5 182.88,-49 321.88,-49 321.88,-79.5"/>
<text text-anchor="start" x="190.88" y="-66" font-family="Helvetica,sans-Serif" font-size="10.00">NAudio.CoreAudioApi.Audio</text>
<text text-anchor="middle" x="252.38" y="-54.75" font-family="Helvetica,sans-Serif" font-size="10.00">Client.Initialize</text>
</a>
</g>
</g>
<!-- Node1&#45;&gt;Node9 -->
<g id="edge10_Node000001_Node000009" class="edge">
<title>Node1&#45;&gt;Node9</title>
<g id="a_edge10_Node000001_Node000009"><a xlink:title=" ">
<path fill="none" stroke="#63b8ff" d="M114.63,-97.17C132.64,-92.83 154.27,-87.63 174.95,-82.65"/>
<polygon fill="#63b8ff" stroke="#63b8ff" points="175.61,-86.09 184.52,-80.34 173.98,-79.28 175.61,-86.09"/>
</a>
</g>
</g>
<!-- Node11 -->
<g id="Node000011" class="node">
<title>Node11</title>
<g id="a_Node000011"><a xlink:href="class_n_audio_1_1_core_audio_api_1_1_audio_client.html#a8f660ec35cb2bb3ba1c9d72becdf0b51" target="_top" xlink:title="Sets the event handle for the audio client interface.">
<polygon fill="white" stroke="#666666" points="321.88,-30.5 182.88,-30.5 182.88,0 321.88,0 321.88,-30.5"/>
<text text-anchor="start" x="190.88" y="-17" font-family="Helvetica,sans-Serif" font-size="10.00">NAudio.CoreAudioApi.Audio</text>
<text text-anchor="middle" x="252.38" y="-5.75" font-family="Helvetica,sans-Serif" font-size="10.00">Client.SetEventHandle</text>
</a>
</g>
</g>
<!-- Node1&#45;&gt;Node11 -->
<g id="edge13_Node000001_Node000011" class="edge">
<title>Node1&#45;&gt;Node11</title>
<g id="a_edge13_Node000001_Node000011"><a xlink:title=" ">
<path fill="none" stroke="#63b8ff" d="M86.33,-97.31C106.07,-83.2 144.19,-57.2 179.5,-40.25 183.23,-38.46 187.13,-36.73 191.09,-35.08"/>
<polygon fill="#63b8ff" stroke="#63b8ff" points="192.26,-38.38 200.27,-31.44 189.68,-31.87 192.26,-38.38"/>
</a>
</g>
</g>
<!-- Node3 -->
<g id="Node000003" class="node">
<title>Node3</title>
<g id="a_Node000003"><a xlink:href="class_n_audio_1_1_core_audio_api_1_1_audio_capture_client.html#a13dad19c8f4569fb5f9d6196b821d2ea" target="_top" xlink:title="Performs application&#45;defined tasks associated with freeing, releasing, or resetting unmanaged resourc...">
<polygon fill="white" stroke="#666666" points="511.12,-360.5 372.12,-360.5 372.12,-330 511.12,-330 511.12,-360.5"/>
<text text-anchor="start" x="380.12" y="-347" font-family="Helvetica,sans-Serif" font-size="10.00">NAudio.CoreAudioApi.Audio</text>
<text text-anchor="middle" x="441.62" y="-335.75" font-family="Helvetica,sans-Serif" font-size="10.00">CaptureClient.Dispose</text>
</a>
</g>
</g>
<!-- Node2&#45;&gt;Node3 -->
<g id="edge2_Node000002_Node000003" class="edge">
<title>Node2&#45;&gt;Node3</title>
<g id="a_edge2_Node000002_Node000003"><a xlink:title=" ">
<path fill="none" stroke="#63b8ff" d="M272.6,-262.8C293.4,-279.01 328.06,-304.22 361.25,-320.25 365.16,-322.14 369.25,-323.93 373.42,-325.62"/>
<polygon fill="#63b8ff" stroke="#63b8ff" points="371.89,-328.78 382.49,-329.07 374.38,-322.24 371.89,-328.78"/>
</a>
</g>
</g>
<!-- Node4 -->
<g id="Node000004" class="node">
<title>Node4</title>
<g id="a_Node000004"><a xlink:href="class_n_audio_1_1_core_audio_api_1_1_audio_clock_client.html#a850fd4084b0edac0ff0f5b081affa7f6" target="_top" xlink:title="Performs application&#45;defined tasks associated with freeing, releasing, or resetting unmanaged resourc...">
<polygon fill="white" stroke="#666666" points="511.12,-311.5 372.12,-311.5 372.12,-281 511.12,-281 511.12,-311.5"/>
<text text-anchor="start" x="380.12" y="-298" font-family="Helvetica,sans-Serif" font-size="10.00">NAudio.CoreAudioApi.Audio</text>
<text text-anchor="middle" x="441.62" y="-286.75" font-family="Helvetica,sans-Serif" font-size="10.00">ClockClient.Dispose</text>
</a>
</g>
</g>
<!-- Node2&#45;&gt;Node4 -->
<g id="edge3_Node000002_Node000004" class="edge">
<title>Node2&#45;&gt;Node4</title>
<g id="a_edge3_Node000002_Node000004"><a xlink:title=" ">
<path fill="none" stroke="#63b8ff" d="M313.39,-262.96C331.28,-267.64 351.06,-272.81 369.58,-277.66"/>
<polygon fill="#63b8ff" stroke="#63b8ff" points="368.6,-281.02 379.16,-280.17 370.37,-274.25 368.6,-281.02"/>
</a>
</g>
</g>
<!-- Node5 -->
<g id="Node000005" class="node">
<title>Node5</title>
<g id="a_Node000005"><a xlink:href="class_n_audio_1_1_core_audio_api_1_1_audio_render_client.html#a583aad472add9195e9f173664df7ccdb" target="_top" xlink:title="Performs application&#45;defined tasks associated with freeing, releasing, or resetting unmanaged resourc...">
<polygon fill="white" stroke="#666666" points="511.12,-262.5 372.12,-262.5 372.12,-232 511.12,-232 511.12,-262.5"/>
<text text-anchor="start" x="380.12" y="-249" font-family="Helvetica,sans-Serif" font-size="10.00">NAudio.CoreAudioApi.Audio</text>
<text text-anchor="middle" x="441.62" y="-237.75" font-family="Helvetica,sans-Serif" font-size="10.00">RenderClient.Dispose</text>
</a>
</g>
</g>
<!-- Node2&#45;&gt;Node5 -->
<g id="edge4_Node000002_Node000005" class="edge">
<title>Node2&#45;&gt;Node5</title>
<g id="a_edge4_Node000002_Node000005"><a xlink:title=" ">
<path fill="none" stroke="#63b8ff" d="M322.3,-247.25C334.68,-247.25 347.67,-247.25 360.34,-247.25"/>
<polygon fill="#63b8ff" stroke="#63b8ff" points="360.33,-250.75 370.33,-247.25 360.33,-243.75 360.33,-250.75"/>
</a>
</g>
</g>
<!-- Node6 -->
<g id="Node000006" class="node">
<title>Node6</title>
<g id="a_Node000006"><a xlink:href="class_n_audio_1_1_core_audio_api_1_1_audio_stream_volume.html#a77ecf4b506503480f6f224e8ccbfb2d2" target="_top" xlink:title="Releases the unmanaged resources used by the AudioStreamVolume object.">
<polygon fill="white" stroke="#666666" points="511.12,-195.5 372.12,-195.5 372.12,-165 511.12,-165 511.12,-195.5"/>
<text text-anchor="start" x="380.12" y="-182" font-family="Helvetica,sans-Serif" font-size="10.00">NAudio.CoreAudioApi.Audio</text>
<text text-anchor="middle" x="441.62" y="-170.75" font-family="Helvetica,sans-Serif" font-size="10.00">StreamVolume.Dispose</text>
</a>
</g>
</g>
<!-- Node2&#45;&gt;Node6 -->
<g id="edge5_Node000002_Node000006" class="edge">
<title>Node2&#45;&gt;Node6</title>
<g id="a_edge5_Node000002_Node000006"><a xlink:title=" ">
<path fill="none" stroke="#63b8ff" d="M297.28,-231.54C323.83,-222.04 357.89,-209.85 386.16,-199.74"/>
<polygon fill="#63b8ff" stroke="#63b8ff" points="387.01,-203.15 395.25,-196.49 384.65,-196.56 387.01,-203.15"/>
</a>
</g>
</g>
<!-- Node6&#45;&gt;Node6 -->
<g id="edge6_Node000006_Node000006" class="edge">
<title>Node6&#45;&gt;Node6</title>
<g id="a_edge6_Node000006_Node000006"><a xlink:title=" ">
<path fill="none" stroke="#63b8ff" d="M408.09,-195.99C401.25,-205.06 412.42,-213.5 441.62,-213.5 457.59,-213.5 468.17,-210.97 473.36,-207.2"/>
<polygon fill="#63b8ff" stroke="#63b8ff" points="476.79,-207.91 474.92,-197.48 469.88,-206.8 476.79,-207.91"/>
</a>
</g>
</g>
<!-- Node7&#45;&gt;Node8 -->
<g id="edge8_Node000007_Node000008" class="edge">
<title>Node7&#45;&gt;Node8</title>
<g id="a_edge8_Node000007_Node000008"><a xlink:title=" ">
<path fill="none" stroke="#63b8ff" d="M325.5,-136C337.06,-133.71 349.07,-131.34 360.8,-129.02"/>
<polygon fill="#63b8ff" stroke="#63b8ff" points="361.3,-132.49 370.43,-127.12 359.95,-125.62 361.3,-132.49"/>
</a>
</g>
</g>
<!-- Node8&#45;&gt;Node8 -->
<g id="edge9_Node000008_Node000008" class="edge">
<title>Node8&#45;&gt;Node8</title>
<g id="a_edge9_Node000008_Node000008"><a xlink:title=" ">
<path fill="none" stroke="#63b8ff" d="M408.09,-128.99C401.25,-138.06 412.42,-146.5 441.62,-146.5 457.59,-146.5 468.17,-143.97 473.36,-140.2"/>
<polygon fill="#63b8ff" stroke="#63b8ff" points="476.79,-140.91 474.92,-130.48 469.88,-139.8 476.79,-140.91"/>
</a>
</g>
</g>
<!-- Node10 -->
<g id="Node000010" class="node">
<title>Node10</title>
<g id="a_Node000010"><a xlink:href="interface_n_audio_1_1_core_audio_api_1_1_interfaces_1_1_i_audio_client.html#af34f2e347539298396eabd35f604828d" target="_top" xlink:title=" ">
<polygon fill="white" stroke="#666666" points="522,-79.5 361.25,-79.5 361.25,-49 522,-49 522,-79.5"/>
<text text-anchor="start" x="369.25" y="-66" font-family="Helvetica,sans-Serif" font-size="10.00">NAudio.CoreAudioApi.Interfaces.</text>
<text text-anchor="middle" x="441.62" y="-54.75" font-family="Helvetica,sans-Serif" font-size="10.00">IAudioClient.Initialize</text>
</a>
</g>
</g>
<!-- Node9&#45;&gt;Node10 -->
<g id="edge11_Node000009_Node000010" class="edge">
<title>Node9&#45;&gt;Node10</title>
<g id="a_edge11_Node000009_Node000010"><a xlink:title=" ">
<path fill="none" stroke="#63b8ff" d="M322.3,-64.25C331.1,-64.25 340.21,-64.25 349.3,-64.25"/>
<polygon fill="#63b8ff" stroke="#63b8ff" points="349.25,-67.75 359.25,-64.25 349.25,-60.75 349.25,-67.75"/>
</a>
</g>
</g>
<!-- Node12 -->
<g id="Node000012" class="node">
<title>Node12</title>
<g id="a_Node000012"><a xlink:href="interface_n_audio_1_1_core_audio_api_1_1_interfaces_1_1_i_audio_client.html#a6b478991ea9e65b796915ed603a435d6" target="_top" xlink:title=" ">
<polygon fill="white" stroke="#666666" points="522,-30.5 361.25,-30.5 361.25,0 522,0 522,-30.5"/>
<text text-anchor="start" x="369.25" y="-17" font-family="Helvetica,sans-Serif" font-size="10.00">NAudio.CoreAudioApi.Interfaces.</text>
<text text-anchor="middle" x="441.62" y="-5.75" font-family="Helvetica,sans-Serif" font-size="10.00">IAudioClient.SetEventHandle</text>
</a>
</g>
</g>
<!-- Node11&#45;&gt;Node12 -->
<g id="edge14_Node000011_Node000012" class="edge">
<title>Node11&#45;&gt;Node12</title>
<g id="a_edge14_Node000011_Node000012"><a xlink:title=" ">
<path fill="none" stroke="#63b8ff" d="M322.3,-15.25C331.1,-15.25 340.21,-15.25 349.3,-15.25"/>
<polygon fill="#63b8ff" stroke="#63b8ff" points="349.25,-18.75 359.25,-15.25 349.25,-11.75 349.25,-18.75"/>
</a>
</g>
</g>
</g>
</svg>
