<?xml version="1.0" encoding="UTF-8" standalone="no"?>
<!DOCTYPE svg PUBLIC "-//W3C//DTD SVG 1.1//EN"
 "http://www.w3.org/Graphics/SVG/1.1/DTD/svg11.dtd">
<!-- Generated by graphviz version 10.0.1 (20240210.2158)
 -->
<!-- Title: NAudio.Wave.WaveMixerStream32 Pages: 1 -->
<svg width="171pt" height="647pt"
 viewBox="0.00 0.00 171.00 647.00" xmlns="http://www.w3.org/2000/svg" xmlns:xlink="http://www.w3.org/1999/xlink">
<g id="graph0" class="graph" transform="scale(1 1) rotate(0) translate(4 643)">
<title>NAudio.Wave.WaveMixerStream32</title>
<!-- Node1 -->
<g id="Node000001" class="node">
<title>Node1</title>
<g id="a_Node000001"><a xlink:title="WaveStream that can mix together multiple 32 bit input streams (Normally used with stereo input chann...">
<polygon fill="#999999" stroke="none" points="163,-304 0,-304 0,0 163,0 163,-304"/>
<text text-anchor="start" x="4.62" y="-290.5" font-family="Helvetica,sans-Serif" font-size="10.00">NAudio.Wave.WaveMixerStream32</text>
<text text-anchor="start" x="16" y="-275.5" font-family="Helvetica,sans-Serif" font-size="10.00">+</text>
<text text-anchor="start" x="38" y="-275.5" font-family="Helvetica,sans-Serif" font-size="10.00">InputCount</text>
<text text-anchor="start" x="16" y="-260.5" font-family="Helvetica,sans-Serif" font-size="10.00">+</text>
<text text-anchor="start" x="38" y="-260.5" font-family="Helvetica,sans-Serif" font-size="10.00">AutoStop</text>
<text text-anchor="start" x="16" y="-245.5" font-family="Helvetica,sans-Serif" font-size="10.00">+</text>
<text text-anchor="start" x="38" y="-245.5" font-family="Helvetica,sans-Serif" font-size="10.00">BlockAlign</text>
<text text-anchor="start" x="16" y="-230.5" font-family="Helvetica,sans-Serif" font-size="10.00">+</text>
<text text-anchor="start" x="38" y="-230.5" font-family="Helvetica,sans-Serif" font-size="10.00">Length</text>
<text text-anchor="start" x="16" y="-215.5" font-family="Helvetica,sans-Serif" font-size="10.00">+</text>
<text text-anchor="start" x="38" y="-215.5" font-family="Helvetica,sans-Serif" font-size="10.00">Position</text>
<text text-anchor="start" x="16" y="-200.5" font-family="Helvetica,sans-Serif" font-size="10.00">+</text>
<text text-anchor="start" x="38" y="-200.5" font-family="Helvetica,sans-Serif" font-size="10.00">WaveFormat</text>
<text text-anchor="start" x="17.5" y="-185.5" font-family="Helvetica,sans-Serif" font-size="10.00">&#45;</text>
<text text-anchor="start" x="38" y="-185.5" font-family="Helvetica,sans-Serif" font-size="10.00">inputStreams</text>
<text text-anchor="start" x="17.5" y="-170.5" font-family="Helvetica,sans-Serif" font-size="10.00">&#45;</text>
<text text-anchor="start" x="38" y="-170.5" font-family="Helvetica,sans-Serif" font-size="10.00">inputsLock</text>
<text text-anchor="start" x="17.5" y="-155.5" font-family="Helvetica,sans-Serif" font-size="10.00">&#45;</text>
<text text-anchor="start" x="38" y="-155.5" font-family="Helvetica,sans-Serif" font-size="10.00">waveFormat</text>
<text text-anchor="start" x="17.5" y="-140.5" font-family="Helvetica,sans-Serif" font-size="10.00">&#45;</text>
<text text-anchor="start" x="38" y="-140.5" font-family="Helvetica,sans-Serif" font-size="10.00">length</text>
<text text-anchor="start" x="17.5" y="-125.5" font-family="Helvetica,sans-Serif" font-size="10.00">&#45;</text>
<text text-anchor="start" x="38" y="-125.5" font-family="Helvetica,sans-Serif" font-size="10.00">position</text>
<text text-anchor="start" x="17.5" y="-110.5" font-family="Helvetica,sans-Serif" font-size="10.00">&#45;</text>
<text text-anchor="start" x="38" y="-110.5" font-family="Helvetica,sans-Serif" font-size="10.00">bytesPerSample</text>
<text text-anchor="start" x="16" y="-95.5" font-family="Helvetica,sans-Serif" font-size="10.00">+</text>
<text text-anchor="start" x="38" y="-95.5" font-family="Helvetica,sans-Serif" font-size="10.00">WaveMixerStream32()</text>
<text text-anchor="start" x="16" y="-80.5" font-family="Helvetica,sans-Serif" font-size="10.00">+</text>
<text text-anchor="start" x="38" y="-80.5" font-family="Helvetica,sans-Serif" font-size="10.00">WaveMixerStream32()</text>
<text text-anchor="start" x="16" y="-65.5" font-family="Helvetica,sans-Serif" font-size="10.00">+</text>
<text text-anchor="start" x="38" y="-65.5" font-family="Helvetica,sans-Serif" font-size="10.00">AddInputStream()</text>
<text text-anchor="start" x="16" y="-50.5" font-family="Helvetica,sans-Serif" font-size="10.00">+</text>
<text text-anchor="start" x="38" y="-50.5" font-family="Helvetica,sans-Serif" font-size="10.00">RemoveInputStream()</text>
<text text-anchor="start" x="16" y="-35.5" font-family="Helvetica,sans-Serif" font-size="10.00">+</text>
<text text-anchor="start" x="38" y="-35.5" font-family="Helvetica,sans-Serif" font-size="10.00">Read()</text>
<text text-anchor="start" x="16.38" y="-20.5" font-family="Helvetica,sans-Serif" font-size="10.00">#</text>
<text text-anchor="start" x="38" y="-20.5" font-family="Helvetica,sans-Serif" font-size="10.00">Dispose()</text>
<text text-anchor="start" x="17.5" y="-5.5" font-family="Helvetica,sans-Serif" font-size="10.00">&#45;</text>
<text text-anchor="start" x="38" y="-5.5" font-family="Helvetica,sans-Serif" font-size="10.00">Sum32BitAudio()</text>
<polygon fill="#666666" stroke="#666666" points="0,-287 0,-287 163,-287 163,-287 0,-287"/>
<polygon fill="#666666" stroke="#666666" points="0,-107 0,-107 36,-107 36,-107 0,-107"/>
<polygon fill="#666666" stroke="#666666" points="36,-107 36,-107 163,-107 163,-107 36,-107"/>
<polygon fill="none" stroke="#666666" points="0,0 0,-304 163,-304 163,0 0,0"/>
</a>
</g>
</g>
<!-- Node2 -->
<g id="Node000002" class="node">
<title>Node2</title>
<g id="a_Node000002"><a xlink:href="class_n_audio_1_1_wave_1_1_wave_stream.html" target="_top" xlink:title="Base class for all WaveStream classes. Derives from stream.">
<polygon fill="white" stroke="none" points="118,-554 45,-554 45,-340 118,-340 118,-554"/>
<text text-anchor="start" x="53.38" y="-540.5" font-family="Helvetica,sans-Serif" font-size="10.00">WaveStream</text>
<text text-anchor="start" x="49" y="-525.5" font-family="Helvetica,sans-Serif" font-size="10.00">+</text>
<text text-anchor="start" x="59" y="-525.5" font-family="Helvetica,sans-Serif" font-size="10.00">WaveFormat</text>
<text text-anchor="start" x="49" y="-510.5" font-family="Helvetica,sans-Serif" font-size="10.00">+</text>
<text text-anchor="start" x="59" y="-510.5" font-family="Helvetica,sans-Serif" font-size="10.00">CanRead</text>
<text text-anchor="start" x="49" y="-495.5" font-family="Helvetica,sans-Serif" font-size="10.00">+</text>
<text text-anchor="start" x="59" y="-495.5" font-family="Helvetica,sans-Serif" font-size="10.00">CanSeek</text>
<text text-anchor="start" x="49" y="-480.5" font-family="Helvetica,sans-Serif" font-size="10.00">+</text>
<text text-anchor="start" x="59" y="-480.5" font-family="Helvetica,sans-Serif" font-size="10.00">CanWrite</text>
<text text-anchor="start" x="49" y="-465.5" font-family="Helvetica,sans-Serif" font-size="10.00">+</text>
<text text-anchor="start" x="59" y="-465.5" font-family="Helvetica,sans-Serif" font-size="10.00">BlockAlign</text>
<text text-anchor="start" x="49" y="-450.5" font-family="Helvetica,sans-Serif" font-size="10.00">+</text>
<text text-anchor="start" x="59" y="-450.5" font-family="Helvetica,sans-Serif" font-size="10.00">CurrentTime</text>
<text text-anchor="start" x="49" y="-435.5" font-family="Helvetica,sans-Serif" font-size="10.00">+</text>
<text text-anchor="start" x="59" y="-435.5" font-family="Helvetica,sans-Serif" font-size="10.00">TotalTime</text>
<text text-anchor="start" x="49" y="-420.5" font-family="Helvetica,sans-Serif" font-size="10.00">+</text>
<text text-anchor="start" x="59" y="-420.5" font-family="Helvetica,sans-Serif" font-size="10.00">Flush()</text>
<text text-anchor="start" x="49" y="-405.5" font-family="Helvetica,sans-Serif" font-size="10.00">+</text>
<text text-anchor="start" x="59" y="-405.5" font-family="Helvetica,sans-Serif" font-size="10.00">Seek()</text>
<text text-anchor="start" x="49" y="-390.5" font-family="Helvetica,sans-Serif" font-size="10.00">+</text>
<text text-anchor="start" x="59" y="-390.5" font-family="Helvetica,sans-Serif" font-size="10.00">SetLength()</text>
<text text-anchor="start" x="49" y="-375.5" font-family="Helvetica,sans-Serif" font-size="10.00">+</text>
<text text-anchor="start" x="59" y="-375.5" font-family="Helvetica,sans-Serif" font-size="10.00">Write()</text>
<text text-anchor="start" x="49" y="-360.5" font-family="Helvetica,sans-Serif" font-size="10.00">+</text>
<text text-anchor="start" x="59" y="-360.5" font-family="Helvetica,sans-Serif" font-size="10.00">Skip()</text>
<text text-anchor="start" x="49" y="-345.5" font-family="Helvetica,sans-Serif" font-size="10.00">+</text>
<text text-anchor="start" x="59" y="-345.5" font-family="Helvetica,sans-Serif" font-size="10.00">HasData()</text>
<polygon fill="#666666" stroke="#666666" points="45,-537 45,-537 118,-537 118,-537 45,-537"/>
<polygon fill="#666666" stroke="#666666" points="45,-432 45,-432 57,-432 57,-432 45,-432"/>
<polygon fill="#666666" stroke="#666666" points="57,-432 57,-432 118,-432 118,-432 57,-432"/>
<polygon fill="none" stroke="#666666" points="45,-340 45,-554 118,-554 118,-340 45,-340"/>
</a>
</g>
</g>
<!-- Node2&#45;&gt;Node1 -->
<g id="edge1_Node000001_Node000002" class="edge">
<title>Node2&#45;&gt;Node1</title>
<g id="a_edge1_Node000001_Node000002"><a xlink:title=" ">
<path fill="none" stroke="#63b8ff" d="M81.5,-328.98C81.5,-320.66 81.5,-312.22 81.5,-303.75"/>
<polygon fill="none" stroke="#63b8ff" points="78,-328.71 81.5,-338.71 85,-328.71 78,-328.71"/>
</a>
</g>
</g>
<!-- Node3 -->
<g id="Node000003" class="node">
<title>Node3</title>
<g id="a_Node000003"><a xlink:title=" ">
<polygon fill="white" stroke="none" points="65,-639 24,-639 24,-590 65,-590 65,-639"/>
<text text-anchor="start" x="28.75" y="-625.5" font-family="Helvetica,sans-Serif" font-size="10.00">Stream</text>
<text text-anchor="start" x="43" y="-610.5" font-family="Helvetica,sans-Serif" font-size="10.00"> </text>
<text text-anchor="start" x="43" y="-595.5" font-family="Helvetica,sans-Serif" font-size="10.00"> </text>
<polygon fill="#666666" stroke="#666666" points="24,-622 24,-622 65,-622 65,-622 24,-622"/>
<polygon fill="#666666" stroke="#666666" points="24,-607 24,-607 65,-607 65,-607 24,-607"/>
<polygon fill="none" stroke="#666666" points="24,-590 24,-639 65,-639 65,-590 24,-590"/>
</a>
</g>
</g>
<!-- Node3&#45;&gt;Node2 -->
<g id="edge2_Node000002_Node000003" class="edge">
<title>Node3&#45;&gt;Node2</title>
<g id="a_edge2_Node000002_Node000003"><a xlink:title=" ">
<path fill="none" stroke="#63b8ff" d="M52.19,-579.11C53.92,-571.36 55.85,-562.74 57.86,-553.72"/>
<polygon fill="none" stroke="#63b8ff" points="48.82,-578.14 50.05,-588.66 55.65,-579.67 48.82,-578.14"/>
</a>
</g>
</g>
<!-- Node4 -->
<g id="Node000004" class="node">
<title>Node4</title>
<g id="a_Node000004"><a xlink:href="interface_n_audio_1_1_wave_1_1_i_wave_provider.html" target="_top" xlink:title="Generic interface for all WaveProviders.">
<polygon fill="white" stroke="none" points="156,-639 83,-639 83,-590 156,-590 156,-639"/>
<text text-anchor="start" x="87.62" y="-625.5" font-family="Helvetica,sans-Serif" font-size="10.00">IWaveProvider</text>
<text text-anchor="start" x="87" y="-610.5" font-family="Helvetica,sans-Serif" font-size="10.00">+</text>
<text text-anchor="start" x="97" y="-610.5" font-family="Helvetica,sans-Serif" font-size="10.00">WaveFormat</text>
<text text-anchor="start" x="87" y="-595.5" font-family="Helvetica,sans-Serif" font-size="10.00">+</text>
<text text-anchor="start" x="97" y="-595.5" font-family="Helvetica,sans-Serif" font-size="10.00">Read()</text>
<polygon fill="#666666" stroke="#666666" points="83,-622 83,-622 156,-622 156,-622 83,-622"/>
<polygon fill="#666666" stroke="#666666" points="83,-607 83,-607 95,-607 95,-607 83,-607"/>
<polygon fill="#666666" stroke="#666666" points="95,-607 95,-607 156,-607 156,-607 95,-607"/>
<polygon fill="none" stroke="#666666" points="83,-590 83,-639 156,-639 156,-590 83,-590"/>
</a>
</g>
</g>
<!-- Node4&#45;&gt;Node2 -->
<g id="edge3_Node000002_Node000004" class="edge">
<title>Node4&#45;&gt;Node2</title>
<g id="a_edge3_Node000002_Node000004"><a xlink:title=" ">
<path fill="none" stroke="#63b8ff" d="M111.6,-579.11C109.82,-571.36 107.84,-562.74 105.77,-553.72"/>
<polygon fill="none" stroke="#63b8ff" points="108.15,-579.7 113.8,-588.66 114.97,-578.13 108.15,-579.7"/>
</a>
</g>
</g>
</g>
</svg>
