<?xml version="1.0" encoding="UTF-8" standalone="no"?>
<!DOCTYPE svg PUBLIC "-//W3C//DTD SVG 1.1//EN"
 "http://www.w3.org/Graphics/SVG/1.1/DTD/svg11.dtd">
<!-- Generated by graphviz version 10.0.1 (20240210.2158)
 -->
<!-- Title: xeno_rat_server.Forms.Live_Microphone.button3_Click Pages: 1 -->
<svg width="933pt" height="357pt"
 viewBox="0.00 0.00 932.50 356.50" xmlns="http://www.w3.org/2000/svg" xmlns:xlink="http://www.w3.org/1999/xlink">
<g id="graph0" class="graph" transform="scale(1 1) rotate(0) translate(4 352.5)">
<title>xeno_rat_server.Forms.Live_Microphone.button3_Click</title>
<!-- Node1 -->
<g id="Node000001" class="node">
<title>Node1</title>
<g id="a_Node000001"><a xlink:title="Handles the click event for button3, stopping the player and sending a stop signal to the client.">
<polygon fill="#999999" stroke="#666666" points="136.75,-128.5 0,-128.5 0,-98 136.75,-98 136.75,-128.5"/>
<text text-anchor="start" x="8" y="-115" font-family="Helvetica,sans-Serif" font-size="10.00">xeno_rat_server.Forms.Live</text>
<text text-anchor="middle" x="68.38" y="-103.75" font-family="Helvetica,sans-Serif" font-size="10.00">_Microphone.button3_Click</text>
</a>
</g>
</g>
<!-- Node2 -->
<g id="Node000002" class="node">
<title>Node2</title>
<g id="a_Node000002"><a xlink:href="classxeno__rat__server_1_1_node.html#a816e267eb31862d38c21e5faaae3061d" target="_top" xlink:title="Sends the provided data asynchronously and returns a boolean indicating the success of the operation.">
<polygon fill="white" stroke="#666666" points="312.88,-177.5 176.12,-177.5 176.12,-147 312.88,-147 312.88,-177.5"/>
<text text-anchor="start" x="184.12" y="-164" font-family="Helvetica,sans-Serif" font-size="10.00">xeno_rat_server.Node.Send</text>
<text text-anchor="middle" x="244.5" y="-152.75" font-family="Helvetica,sans-Serif" font-size="10.00">Async</text>
</a>
</g>
</g>
<!-- Node1&#45;&gt;Node2 -->
<g id="edge1_Node000001_Node000002" class="edge">
<title>Node1&#45;&gt;Node2</title>
<g id="a_edge1_Node000001_Node000002"><a xlink:title=" ">
<path fill="none" stroke="#63b8ff" d="M124.95,-128.89C141.36,-133.51 159.49,-138.61 176.54,-143.41"/>
<polygon fill="#63b8ff" stroke="#63b8ff" points="175.53,-146.76 186.1,-146.1 177.42,-140.02 175.53,-146.76"/>
</a>
</g>
</g>
<!-- Node13 -->
<g id="Node000013" class="node">
<title>Node13</title>
<g id="a_Node000013"><a xlink:href="classxeno__rat__server_1_1_forms_1_1_audio_player.html#a2d8f73d6883fd19cbb044ebb67a32bda" target="_top" xlink:title="Stops the audio playback and clears the buffer.">
<polygon fill="white" stroke="#666666" points="316.25,-79.5 172.75,-79.5 172.75,-49 316.25,-49 316.25,-79.5"/>
<text text-anchor="start" x="180.75" y="-66" font-family="Helvetica,sans-Serif" font-size="10.00">xeno_rat_server.Forms.Audio</text>
<text text-anchor="middle" x="244.5" y="-54.75" font-family="Helvetica,sans-Serif" font-size="10.00">Player.Stop</text>
</a>
</g>
</g>
<!-- Node1&#45;&gt;Node13 -->
<g id="edge13_Node000001_Node000013" class="edge">
<title>Node1&#45;&gt;Node13</title>
<g id="a_edge13_Node000001_Node000013"><a xlink:title=" ">
<path fill="none" stroke="#63b8ff" d="M124.95,-97.61C141.36,-92.99 159.49,-87.89 176.54,-83.09"/>
<polygon fill="#63b8ff" stroke="#63b8ff" points="177.42,-86.48 186.1,-80.4 175.53,-79.74 177.42,-86.48"/>
</a>
</g>
</g>
<!-- Node3 -->
<g id="Node000003" class="node">
<title>Node3</title>
<g id="a_Node000003"><a xlink:href="classxeno__rat__server_1_1_node.html#a8814edd98b6463f49812be32d5928763" target="_top" xlink:title="Sets the isDisposed flag to true and disconnects the socket, disposes resources, and triggers the OnD...">
<polygon fill="white" stroke="#666666" points="518.25,-214.88 354.5,-214.88 354.5,-195.62 518.25,-195.62 518.25,-214.88"/>
<text text-anchor="middle" x="436.38" y="-201.38" font-family="Helvetica,sans-Serif" font-size="10.00">xeno_rat_server.Node.Disconnect</text>
</a>
</g>
</g>
<!-- Node2&#45;&gt;Node3 -->
<g id="edge2_Node000002_Node000003" class="edge">
<title>Node2&#45;&gt;Node3</title>
<g id="a_edge2_Node000002_Node000003"><a xlink:title=" ">
<path fill="none" stroke="#63b8ff" d="M313.25,-177.59C334.99,-182.52 358.82,-187.91 379.6,-192.62"/>
<polygon fill="#63b8ff" stroke="#63b8ff" points="378.81,-196.03 389.33,-194.82 380.35,-189.2 378.81,-196.03"/>
</a>
</g>
</g>
<!-- Node4 -->
<g id="Node000004" class="node">
<title>Node4</title>
<g id="a_Node000004"><a xlink:href="classxeno__rat__server_1_1_socket_handler.html#a85ca8385d023521cdb86ff8ae688adee" target="_top" xlink:title="Sends the provided data asynchronously over the socket.">
<polygon fill="white" stroke="#666666" points="513.75,-177.5 359,-177.5 359,-147 513.75,-147 513.75,-177.5"/>
<text text-anchor="start" x="367" y="-164" font-family="Helvetica,sans-Serif" font-size="10.00">xeno_rat_server.SocketHandler.</text>
<text text-anchor="middle" x="436.38" y="-152.75" font-family="Helvetica,sans-Serif" font-size="10.00">SendAsync</text>
</a>
</g>
</g>
<!-- Node2&#45;&gt;Node4 -->
<g id="edge4_Node000002_Node000004" class="edge">
<title>Node2&#45;&gt;Node4</title>
<g id="a_edge4_Node000002_Node000004"><a xlink:title=" ">
<path fill="none" stroke="#63b8ff" d="M313.25,-162.25C324.27,-162.25 335.83,-162.25 347.25,-162.25"/>
<polygon fill="#63b8ff" stroke="#63b8ff" points="347.09,-165.75 357.09,-162.25 347.09,-158.75 347.09,-165.75"/>
</a>
</g>
</g>
<!-- Node3&#45;&gt;Node3 -->
<g id="edge3_Node000003_Node000003" class="edge">
<title>Node3&#45;&gt;Node3</title>
<g id="a_edge3_Node000003_Node000003"><a xlink:title=" ">
<path fill="none" stroke="#63b8ff" d="M406.34,-215.16C392.63,-223.77 402.65,-232.88 436.38,-232.88 455.87,-232.88 467.45,-229.83 471.09,-225.6"/>
<polygon fill="#63b8ff" stroke="#63b8ff" points="474.32,-224.24 467.03,-216.54 467.93,-227.1 474.32,-224.24"/>
</a>
</g>
</g>
<!-- Node5 -->
<g id="Node000005" class="node">
<title>Node5</title>
<g id="a_Node000005"><a xlink:href="classxeno__rat__server_1_1_compression.html#a0f3f31a2fe34d92bf04538b2fdf529e0" target="_top" xlink:title="Compresses the input buffer using the LZNT1 compression format and returns the compressed data.">
<polygon fill="white" stroke="#666666" points="710.88,-275.5 562.12,-275.5 562.12,-245 710.88,-245 710.88,-275.5"/>
<text text-anchor="start" x="570.12" y="-262" font-family="Helvetica,sans-Serif" font-size="10.00">xeno_rat_server.Compression.</text>
<text text-anchor="middle" x="636.5" y="-250.75" font-family="Helvetica,sans-Serif" font-size="10.00">Compress</text>
</a>
</g>
</g>
<!-- Node4&#45;&gt;Node5 -->
<g id="edge5_Node000004_Node000005" class="edge">
<title>Node4&#45;&gt;Node5</title>
<g id="a_edge5_Node000004_Node000005"><a xlink:title=" ">
<path fill="none" stroke="#63b8ff" d="M505.79,-177.91C510.96,-180.31 515.94,-183.07 520.5,-186.25 542.66,-201.71 534.53,-219.51 556.5,-235.25 558.54,-236.71 560.67,-238.09 562.87,-239.4"/>
<polygon fill="#63b8ff" stroke="#63b8ff" points="561.05,-242.39 571.54,-243.91 564.29,-236.19 561.05,-242.39"/>
</a>
</g>
</g>
<!-- Node10 -->
<g id="Node000010" class="node">
<title>Node10</title>
<g id="a_Node000010"><a xlink:href="classxeno__rat__server_1_1_socket_handler.html#a4f2e993b63cf1bba877781c9be2ed496" target="_top" xlink:title="Concatenates two byte arrays and returns the result.">
<polygon fill="white" stroke="#666666" points="713.88,-226.5 559.12,-226.5 559.12,-196 713.88,-196 713.88,-226.5"/>
<text text-anchor="start" x="567.12" y="-213" font-family="Helvetica,sans-Serif" font-size="10.00">xeno_rat_server.SocketHandler.</text>
<text text-anchor="middle" x="636.5" y="-201.75" font-family="Helvetica,sans-Serif" font-size="10.00">Concat</text>
</a>
</g>
</g>
<!-- Node4&#45;&gt;Node10 -->
<g id="edge10_Node000004_Node000010" class="edge">
<title>Node4&#45;&gt;Node10</title>
<g id="a_edge10_Node000004_Node000010"><a xlink:title=" ">
<path fill="none" stroke="#63b8ff" d="M500.88,-177.96C519.99,-182.68 541.13,-187.91 560.89,-192.8"/>
<polygon fill="#63b8ff" stroke="#63b8ff" points="560,-196.18 570.54,-195.19 561.68,-189.39 560,-196.18"/>
</a>
</g>
</g>
<!-- Node11 -->
<g id="Node000011" class="node">
<title>Node11</title>
<g id="a_Node000011"><a xlink:href="classxeno__rat__server_1_1_encryption.html#a0fafecaba804cb57663bdbb4dcc4e93f" target="_top" xlink:title="Encrypts the input data using the provided key and returns the encrypted result.">
<polygon fill="white" stroke="#666666" points="705.25,-177.5 567.75,-177.5 567.75,-147 705.25,-147 705.25,-177.5"/>
<text text-anchor="start" x="575.75" y="-164" font-family="Helvetica,sans-Serif" font-size="10.00">xeno_rat_server.Encryption.</text>
<text text-anchor="middle" x="636.5" y="-152.75" font-family="Helvetica,sans-Serif" font-size="10.00">Encrypt</text>
</a>
</g>
</g>
<!-- Node4&#45;&gt;Node11 -->
<g id="edge11_Node000004_Node000011" class="edge">
<title>Node4&#45;&gt;Node11</title>
<g id="a_edge11_Node000004_Node000011"><a xlink:title=" ">
<path fill="none" stroke="#63b8ff" d="M513.98,-162.25C527.76,-162.25 542.15,-162.25 556.01,-162.25"/>
<polygon fill="#63b8ff" stroke="#63b8ff" points="555.99,-165.75 565.99,-162.25 555.99,-158.75 555.99,-165.75"/>
</a>
</g>
</g>
<!-- Node12 -->
<g id="Node000012" class="node">
<title>Node12</title>
<g id="a_Node000012"><a xlink:href="classxeno__rat__server_1_1_socket_handler.html#a7d019c5e4cbd0138d155156c7a7c5a8f" target="_top" xlink:title="Converts an integer to a byte array.">
<polygon fill="white" stroke="#666666" points="713.88,-128.5 559.12,-128.5 559.12,-98 713.88,-98 713.88,-128.5"/>
<text text-anchor="start" x="567.12" y="-115" font-family="Helvetica,sans-Serif" font-size="10.00">xeno_rat_server.SocketHandler.</text>
<text text-anchor="middle" x="636.5" y="-103.75" font-family="Helvetica,sans-Serif" font-size="10.00">IntToBytes</text>
</a>
</g>
</g>
<!-- Node4&#45;&gt;Node12 -->
<g id="edge12_Node000004_Node000012" class="edge">
<title>Node4&#45;&gt;Node12</title>
<g id="a_edge12_Node000004_Node000012"><a xlink:title=" ">
<path fill="none" stroke="#63b8ff" d="M500.88,-146.54C519.99,-141.82 541.13,-136.59 560.89,-131.7"/>
<polygon fill="#63b8ff" stroke="#63b8ff" points="561.68,-135.11 570.54,-129.31 560,-128.32 561.68,-135.11"/>
</a>
</g>
</g>
<!-- Node6 -->
<g id="Node000006" class="node">
<title>Node6</title>
<g id="a_Node000006"><a xlink:href="classxeno__rat__server_1_1_compression.html#ae86c8cb19fb340173e6b06816907c485" target="_top" xlink:title="Allocates the specified number of bytes in the local heap and returns a pointer to the allocated memo...">
<polygon fill="white" stroke="#666666" points="912.88,-348.5 764.12,-348.5 764.12,-318 912.88,-318 912.88,-348.5"/>
<text text-anchor="start" x="772.12" y="-335" font-family="Helvetica,sans-Serif" font-size="10.00">xeno_rat_server.Compression.</text>
<text text-anchor="middle" x="838.5" y="-323.75" font-family="Helvetica,sans-Serif" font-size="10.00">LocalAlloc</text>
</a>
</g>
</g>
<!-- Node5&#45;&gt;Node6 -->
<g id="edge6_Node000005_Node000006" class="edge">
<title>Node5&#45;&gt;Node6</title>
<g id="a_edge6_Node000005_Node000006"><a xlink:title=" ">
<path fill="none" stroke="#63b8ff" d="M672.34,-275.96C694.95,-285.86 725.18,-298.56 752.5,-308.25 758.21,-310.27 764.17,-312.27 770.18,-314.19"/>
<polygon fill="#63b8ff" stroke="#63b8ff" points="768.95,-317.47 779.54,-317.12 771.04,-310.79 768.95,-317.47"/>
</a>
</g>
</g>
<!-- Node7 -->
<g id="Node000007" class="node">
<title>Node7</title>
<g id="a_Node000007"><a xlink:href="classxeno__rat__server_1_1_compression.html#ab527e0a594d96bbaa1a4b1541888aa74" target="_top" xlink:title="Frees the memory block allocated by LocalAlloc and LocalReAlloc and invalidates the handle.">
<polygon fill="white" stroke="#666666" points="912.88,-299.5 764.12,-299.5 764.12,-269 912.88,-269 912.88,-299.5"/>
<text text-anchor="start" x="772.12" y="-286" font-family="Helvetica,sans-Serif" font-size="10.00">xeno_rat_server.Compression.</text>
<text text-anchor="middle" x="838.5" y="-274.75" font-family="Helvetica,sans-Serif" font-size="10.00">LocalFree</text>
</a>
</g>
</g>
<!-- Node5&#45;&gt;Node7 -->
<g id="edge7_Node000005_Node000007" class="edge">
<title>Node5&#45;&gt;Node7</title>
<g id="a_edge7_Node000005_Node000007"><a xlink:title=" ">
<path fill="none" stroke="#63b8ff" d="M711.12,-269.08C724.52,-270.69 738.6,-272.38 752.3,-274.03"/>
<polygon fill="#63b8ff" stroke="#63b8ff" points="751.85,-277.5 762.2,-275.21 752.69,-270.55 751.85,-277.5"/>
</a>
</g>
</g>
<!-- Node8 -->
<g id="Node000008" class="node">
<title>Node8</title>
<g id="a_Node000008"><a xlink:href="classxeno__rat__server_1_1_compression.html#a1f9bb20d96d13bdc4d0f90e2b68d4343" target="_top" xlink:title="Compresses the input buffer using the specified compression format and returns the compressed data in...">
<polygon fill="white" stroke="#666666" points="912.88,-250.5 764.12,-250.5 764.12,-220 912.88,-220 912.88,-250.5"/>
<text text-anchor="start" x="772.12" y="-237" font-family="Helvetica,sans-Serif" font-size="10.00">xeno_rat_server.Compression.</text>
<text text-anchor="middle" x="838.5" y="-225.75" font-family="Helvetica,sans-Serif" font-size="10.00">RtlCompressBuffer</text>
</a>
</g>
</g>
<!-- Node5&#45;&gt;Node8 -->
<g id="edge8_Node000005_Node000008" class="edge">
<title>Node5&#45;&gt;Node8</title>
<g id="a_edge8_Node000005_Node000008"><a xlink:title=" ">
<path fill="none" stroke="#63b8ff" d="M711.12,-251.05C724.52,-249.37 738.6,-247.61 752.3,-245.9"/>
<polygon fill="#63b8ff" stroke="#63b8ff" points="752.71,-249.38 762.2,-244.66 751.84,-242.43 752.71,-249.38"/>
</a>
</g>
</g>
<!-- Node9 -->
<g id="Node000009" class="node">
<title>Node9</title>
<g id="a_Node000009"><a xlink:href="classxeno__rat__server_1_1_compression.html#a5ca090d7b0887e40753bad9800c321e7" target="_top" xlink:title="Retrieves the size of the workspace required for compression.">
<polygon fill="white" stroke="#666666" points="924.5,-201.5 752.5,-201.5 752.5,-171 924.5,-171 924.5,-201.5"/>
<text text-anchor="start" x="760.5" y="-188" font-family="Helvetica,sans-Serif" font-size="10.00">xeno_rat_server.Compression.</text>
<text text-anchor="middle" x="838.5" y="-176.75" font-family="Helvetica,sans-Serif" font-size="10.00">RtlGetCompressionWorkSpaceSize</text>
</a>
</g>
</g>
<!-- Node5&#45;&gt;Node9 -->
<g id="edge9_Node000005_Node000009" class="edge">
<title>Node5&#45;&gt;Node9</title>
<g id="a_edge9_Node000005_Node000009"><a xlink:title=" ">
<path fill="none" stroke="#63b8ff" d="M693.93,-244.54C701.65,-241.78 709.37,-238.67 716.5,-235.25 733.84,-226.93 735.08,-219.39 752.5,-211.25 756.54,-209.36 760.75,-207.58 765.05,-205.91"/>
<polygon fill="#63b8ff" stroke="#63b8ff" points="766.24,-209.2 774.43,-202.49 763.84,-202.63 766.24,-209.2"/>
</a>
</g>
</g>
<!-- Node14 -->
<g id="Node000014" class="node">
<title>Node14</title>
<g id="a_Node000014"><a xlink:href="class_n_audio_1_1_wave_1_1_buffered_wave_provider.html#ab07f7e58f4995af1723fde11ddb9bcaf" target="_top" xlink:title="Clears the circular buffer.">
<polygon fill="white" stroke="#666666" points="506.62,-79.5 366.12,-79.5 366.12,-49 506.62,-49 506.62,-79.5"/>
<text text-anchor="start" x="374.12" y="-66" font-family="Helvetica,sans-Serif" font-size="10.00">NAudio.Wave.BufferedWave</text>
<text text-anchor="middle" x="436.38" y="-54.75" font-family="Helvetica,sans-Serif" font-size="10.00">Provider.ClearBuffer</text>
</a>
</g>
</g>
<!-- Node13&#45;&gt;Node14 -->
<g id="edge14_Node000013_Node000014" class="edge">
<title>Node13&#45;&gt;Node14</title>
<g id="a_edge14_Node000013_Node000014"><a xlink:title=" ">
<path fill="none" stroke="#63b8ff" d="M316.74,-64.25C329.07,-64.25 341.97,-64.25 354.53,-64.25"/>
<polygon fill="#63b8ff" stroke="#63b8ff" points="354.43,-67.75 364.43,-64.25 354.43,-60.75 354.43,-67.75"/>
</a>
</g>
</g>
<!-- Node17 -->
<g id="Node000017" class="node">
<title>Node17</title>
<g id="a_Node000017"><a xlink:href="class_n_audio_1_1_wave_1_1_wave_out_event.html#a9d7f777aa21386bc3aad3250e239fbd2" target="_top" xlink:title="Stops the playback.">
<polygon fill="white" stroke="#666666" points="520.5,-27.88 352.25,-27.88 352.25,-8.62 520.5,-8.62 520.5,-27.88"/>
<text text-anchor="middle" x="436.38" y="-14.38" font-family="Helvetica,sans-Serif" font-size="10.00">NAudio.Wave.WaveOutEvent.Stop</text>
</a>
</g>
</g>
<!-- Node13&#45;&gt;Node17 -->
<g id="edge17_Node000013_Node000017" class="edge">
<title>Node13&#45;&gt;Node17</title>
<g id="a_edge17_Node000013_Node000017"><a xlink:title=" ">
<path fill="none" stroke="#63b8ff" d="M310.31,-48.55C333.93,-42.83 360.33,-36.43 382.76,-31"/>
<polygon fill="#63b8ff" stroke="#63b8ff" points="383.39,-34.45 392.29,-28.69 381.74,-27.64 383.39,-34.45"/>
</a>
</g>
</g>
<!-- Node15 -->
<g id="Node000015" class="node">
<title>Node15</title>
<g id="a_Node000015"><a xlink:href="class_n_audio_1_1_utils_1_1_circular_buffer.html#a1399ff4a96831595ce722ee03906b778" target="_top" xlink:title="Resets the state of the object.">
<polygon fill="white" stroke="#666666" points="704.88,-79.5 568.12,-79.5 568.12,-49 704.88,-49 704.88,-79.5"/>
<text text-anchor="start" x="576.12" y="-66" font-family="Helvetica,sans-Serif" font-size="10.00">NAudio.Utils.CircularBuffer.</text>
<text text-anchor="middle" x="636.5" y="-54.75" font-family="Helvetica,sans-Serif" font-size="10.00">Reset</text>
</a>
</g>
</g>
<!-- Node14&#45;&gt;Node15 -->
<g id="edge15_Node000014_Node000015" class="edge">
<title>Node14&#45;&gt;Node15</title>
<g id="a_edge15_Node000014_Node000015"><a xlink:title=" ">
<path fill="none" stroke="#63b8ff" d="M506.95,-64.25C522.98,-64.25 540.15,-64.25 556.55,-64.25"/>
<polygon fill="#63b8ff" stroke="#63b8ff" points="556.25,-67.75 566.25,-64.25 556.25,-60.75 556.25,-67.75"/>
</a>
</g>
</g>
<!-- Node16 -->
<g id="Node000016" class="node">
<title>Node16</title>
<g id="a_Node000016"><a xlink:href="class_n_audio_1_1_utils_1_1_circular_buffer.html#a401e1389850f550230123905db0a0760" target="_top" xlink:title="Resets the internal state of the object.">
<polygon fill="white" stroke="#666666" points="906.88,-79.5 770.12,-79.5 770.12,-49 906.88,-49 906.88,-79.5"/>
<text text-anchor="start" x="778.12" y="-66" font-family="Helvetica,sans-Serif" font-size="10.00">NAudio.Utils.CircularBuffer.</text>
<text text-anchor="middle" x="838.5" y="-54.75" font-family="Helvetica,sans-Serif" font-size="10.00">ResetInner</text>
</a>
</g>
</g>
<!-- Node15&#45;&gt;Node16 -->
<g id="edge16_Node000015_Node000016" class="edge">
<title>Node15&#45;&gt;Node16</title>
<g id="a_edge16_Node000015_Node000016"><a xlink:title=" ">
<path fill="none" stroke="#63b8ff" d="M705.21,-64.25C722.32,-64.25 740.83,-64.25 758.44,-64.25"/>
<polygon fill="#63b8ff" stroke="#63b8ff" points="758.35,-67.75 768.35,-64.25 758.35,-60.75 758.35,-67.75"/>
</a>
</g>
</g>
<!-- Node18 -->
<g id="Node000018" class="node">
<title>Node18</title>
<g id="a_Node000018"><a xlink:href="class_n_audio_1_1_wave_1_1_wave_interop.html#aa080e600639676ba67851a13e6d3ea50" target="_top" xlink:title="Resets the specified waveform&#45;audio output device.">
<polygon fill="white" stroke="#666666" points="716.5,-30.5 556.5,-30.5 556.5,0 716.5,0 716.5,-30.5"/>
<text text-anchor="start" x="564.5" y="-17" font-family="Helvetica,sans-Serif" font-size="10.00">NAudio.Wave.WaveInterop.wave</text>
<text text-anchor="middle" x="636.5" y="-5.75" font-family="Helvetica,sans-Serif" font-size="10.00">OutReset</text>
</a>
</g>
</g>
<!-- Node17&#45;&gt;Node18 -->
<g id="edge18_Node000017_Node000018" class="edge">
<title>Node17&#45;&gt;Node18</title>
<g id="a_edge18_Node000017_Node000018"><a xlink:title=" ">
<path fill="none" stroke="#63b8ff" d="M520.82,-16.99C528.8,-16.87 536.92,-16.74 544.96,-16.62"/>
<polygon fill="#63b8ff" stroke="#63b8ff" points="544.8,-20.12 554.74,-16.47 544.69,-13.12 544.8,-20.12"/>
</a>
</g>
</g>
</g>
</svg>
