<?xml version="1.0" encoding="UTF-8" standalone="no"?>
<!DOCTYPE svg PUBLIC "-//W3C//DTD SVG 1.1//EN"
 "http://www.w3.org/Graphics/SVG/1.1/DTD/svg11.dtd">
<!-- Generated by graphviz version 10.0.1 (20240210.2158)
 -->
<!-- Title: NAudio.CoreAudioApi.Interfaces.ErrorCodes Pages: 1 -->
<!--zoomable 683 -->

<svg id="main" version="1.1" xmlns="http://www.w3.org/2000/svg" xmlns:xlink="http://www.w3.org/1999/xlink" xml:space="preserve" onload="init(evt)">
<style type="text/css"><![CDATA[
.node, .edge {opacity: 0.7;}
.node.selected, .edge.selected {opacity: 1;}
.edge:hover path { stroke: red; }
.edge:hover polygon { stroke: red; fill: red; }
]]></style>

<defs>
  <circle id="rim" cx="0" cy="0" r="7"/>
  <circle id="rim2" cx="0" cy="0" r="3.5"/>
  <g id="zoomPlus">
    <use xlink:href="#rim" fill="#404040"><set attributeName="fill" to="#808080" begin="zoomplus.mouseover" end="zoomplus.mouseout"/></use>
    <path d="M-4,0h8M0,-4v8" fill="none" stroke="white" stroke-width="1.5" pointer-events="none"/>
  </g>
  <g id="zoomMin">
    <use xlink:href="#rim" fill="#404040"><set attributeName="fill" to="#808080" begin="zoomminus.mouseover" end="zoomminus.mouseout"/></use>
    <path d="M-4,0h8" fill="none" stroke="white" stroke-width="1.5" pointer-events="none"/>
  </g>
  <g id="arrowUp" transform="translate(30 24)">
    <use xlink:href="#rim"/>
    <path pointer-events="none" fill="none" stroke="white" stroke-width="1.5" d="M0,-3.0v7 M-2.5,-0.5L0,-3.0L2.5,-0.5"/>
  </g>
  <g id="arrowRight" transform="rotate(90) translate(36 -43)">
    <use xlink:href="#rim"/>
    <path pointer-events="none" fill="none" stroke="white" stroke-width="1.5" d="M0,-3.0v7 M-2.5,-0.5L0,-3.0L2.5,-0.5"/>
  </g>
  <g id="arrowDown" transform="rotate(180) translate(-30 -48)">
    <use xlink:href="#rim"/>
    <path pointer-events="none" fill="none" stroke="white" stroke-width="1.5" d="M0,-3.0v7 M-2.5,-0.5L0,-3.0L2.5,-0.5"/>
  </g>
  <g id="arrowLeft" transform="rotate(270) translate(-36 17)">
    <use xlink:href="#rim"/>
    <path pointer-events="none" fill="none" stroke="white" stroke-width="1.5" d="M0,-3.0v7 M-2.5,-0.5L0,-3.0L2.5,-0.5"/>
  </g>
  <g id="resetDef">
    <use xlink:href="#rim2" fill="#404040"><set attributeName="fill" to="#808080" begin="reset.mouseover" end="reset.mouseout"/></use>
  </g>
</defs>
<script type="application/ecmascript">
var viewWidth = 353;
var viewHeight = 683;
var sectionId = 'dynsection-0';
</script>
<script type="application/ecmascript" xlink:href="svg.min.js"/>
<svg id="graph" class="graph">
<g id="viewport">
<title>NAudio.CoreAudioApi.Interfaces.ErrorCodes</title>
<!-- Node1 -->
<g id="Node000001" class="node">
<title>Node1</title>
<g id="a_Node000001"><a xlink:title=" ">
<polygon fill="#999999" stroke="none" points="212,-354 0,-354 0,0 212,0 212,-354"/>
<text text-anchor="start" x="33.62" y="-340.5" font-family="Helvetica,sans-Serif" font-size="10.00">NAudio.CoreAudioApi.Interfaces.</text>
<text text-anchor="start" x="81.25" y="-329.25" font-family="Helvetica,sans-Serif" font-size="10.00">ErrorCodes</text>
<text text-anchor="start" x="4" y="-314.5" font-family="Helvetica,sans-Serif" font-size="10.00">+</text>
<text text-anchor="start" x="14" y="-314.5" font-family="Helvetica,sans-Serif" font-size="10.00">AUDCLNT_E_NOT_INITIALIZED</text>
<text text-anchor="start" x="4" y="-299.5" font-family="Helvetica,sans-Serif" font-size="10.00">+</text>
<text text-anchor="start" x="14" y="-299.5" font-family="Helvetica,sans-Serif" font-size="10.00">AUDCLNT_E_WRONG_ENDPOINT_TYPE</text>
<text text-anchor="start" x="4" y="-284.5" font-family="Helvetica,sans-Serif" font-size="10.00">+</text>
<text text-anchor="start" x="14" y="-284.5" font-family="Helvetica,sans-Serif" font-size="10.00">AUDCLNT_E_NOT_STOPPED</text>
<text text-anchor="start" x="4" y="-269.5" font-family="Helvetica,sans-Serif" font-size="10.00">+</text>
<text text-anchor="start" x="14" y="-269.5" font-family="Helvetica,sans-Serif" font-size="10.00">AUDCLNT_E_OUT_OF_ORDER</text>
<text text-anchor="start" x="4" y="-254.5" font-family="Helvetica,sans-Serif" font-size="10.00">+</text>
<text text-anchor="start" x="14" y="-254.5" font-family="Helvetica,sans-Serif" font-size="10.00">AUDCLNT_E_UNSUPPORTED</text>
<text text-anchor="start" x="14" y="-243.25" font-family="Helvetica,sans-Serif" font-size="10.00">_FORMAT</text>
<text text-anchor="start" x="4" y="-228.5" font-family="Helvetica,sans-Serif" font-size="10.00">+</text>
<text text-anchor="start" x="14" y="-228.5" font-family="Helvetica,sans-Serif" font-size="10.00">AUDCLNT_E_INVALID_SIZE</text>
<text text-anchor="start" x="4" y="-213.5" font-family="Helvetica,sans-Serif" font-size="10.00">+</text>
<text text-anchor="start" x="14" y="-213.5" font-family="Helvetica,sans-Serif" font-size="10.00">AUDCLNT_E_THREAD_NOT</text>
<text text-anchor="start" x="14" y="-202.25" font-family="Helvetica,sans-Serif" font-size="10.00">_REGISTERED</text>
<text text-anchor="start" x="4" y="-187.5" font-family="Helvetica,sans-Serif" font-size="10.00">+</text>
<text text-anchor="start" x="14" y="-187.5" font-family="Helvetica,sans-Serif" font-size="10.00">AUDCLNT_E_EXCLUSIVE</text>
<text text-anchor="start" x="14" y="-176.25" font-family="Helvetica,sans-Serif" font-size="10.00">_MODE_NOT_ALLOWED</text>
<text text-anchor="start" x="4" y="-161.5" font-family="Helvetica,sans-Serif" font-size="10.00">+</text>
<text text-anchor="start" x="14" y="-161.5" font-family="Helvetica,sans-Serif" font-size="10.00">AUDCLNT_E_SERVICE_NOT</text>
<text text-anchor="start" x="14" y="-150.25" font-family="Helvetica,sans-Serif" font-size="10.00">_RUNNING</text>
<text text-anchor="start" x="4" y="-135.5" font-family="Helvetica,sans-Serif" font-size="10.00">+</text>
<text text-anchor="start" x="14" y="-135.5" font-family="Helvetica,sans-Serif" font-size="10.00">AUDCLNT_E_EVENTHANDLE</text>
<text text-anchor="start" x="14" y="-124.25" font-family="Helvetica,sans-Serif" font-size="10.00">_NOT_EXPECTED</text>
<text text-anchor="start" x="4" y="-109.5" font-family="Helvetica,sans-Serif" font-size="10.00">+</text>
<text text-anchor="start" x="14" y="-109.5" font-family="Helvetica,sans-Serif" font-size="10.00">AUDCLNT_E_EXCLUSIVE</text>
<text text-anchor="start" x="14" y="-98.25" font-family="Helvetica,sans-Serif" font-size="10.00">_MODE_ONLY</text>
<text text-anchor="start" x="4" y="-83.5" font-family="Helvetica,sans-Serif" font-size="10.00">+</text>
<text text-anchor="start" x="14" y="-83.5" font-family="Helvetica,sans-Serif" font-size="10.00">AUDCLNT_E_EVENTHANDLE</text>
<text text-anchor="start" x="14" y="-72.25" font-family="Helvetica,sans-Serif" font-size="10.00">_NOT_SET</text>
<text text-anchor="start" x="4" y="-57.5" font-family="Helvetica,sans-Serif" font-size="10.00">+</text>
<text text-anchor="start" x="14" y="-57.5" font-family="Helvetica,sans-Serif" font-size="10.00">AUDCLNT_E_INCORRECT</text>
<text text-anchor="start" x="14" y="-46.25" font-family="Helvetica,sans-Serif" font-size="10.00">_BUFFER_SIZE</text>
<text text-anchor="start" x="4" y="-31.5" font-family="Helvetica,sans-Serif" font-size="10.00">+</text>
<text text-anchor="start" x="14" y="-31.5" font-family="Helvetica,sans-Serif" font-size="10.00">AUDCLNT_E_RESOURCES</text>
<text text-anchor="start" x="14" y="-20.25" font-family="Helvetica,sans-Serif" font-size="10.00">_INVALIDATED</text>
<text text-anchor="start" x="104.5" y="-5.5" font-family="Helvetica,sans-Serif" font-size="10.00"> </text>
<polygon fill="#666666" stroke="#666666" points="0,-326 0,-326 212,-326 212,-326 0,-326"/>
<polygon fill="#666666" stroke="#666666" points="0,-17 0,-17 12,-17 12,-17 0,-17"/>
<polygon fill="#666666" stroke="#666666" points="12,-17 12,-17 212,-17 212,-17 12,-17"/>
<polygon fill="none" stroke="#666666" points="0,0 0,-354 212,-354 212,0 0,0"/>
</a>
</g>
</g>
<!-- Node2 -->
<g id="Node000002" class="node">
<title>Node2</title>
<g id="a_Node000002"><a xlink:title=" ">
<polygon fill="white" stroke="none" points="51,-675.25 31,-675.25 31,-626.25 51,-626.25 51,-675.25"/>
<text text-anchor="start" x="35.75" y="-661.75" font-family="Helvetica,sans-Serif" font-size="10.00">int</text>
<text text-anchor="start" x="39.5" y="-646.75" font-family="Helvetica,sans-Serif" font-size="10.00"> </text>
<text text-anchor="start" x="39.5" y="-631.75" font-family="Helvetica,sans-Serif" font-size="10.00"> </text>
<polygon fill="#666666" stroke="#666666" points="31,-658.25 31,-658.25 51,-658.25 51,-658.25 31,-658.25"/>
<polygon fill="#666666" stroke="#666666" points="31,-643.25 31,-643.25 51,-643.25 51,-643.25 31,-643.25"/>
<polygon fill="none" stroke="#666666" points="31,-626.25 31,-675.25 51,-675.25 51,-626.25 31,-626.25"/>
</a>
</g>
</g>
<!-- Node2&#45;&gt;Node1 -->
<g id="edge1_Node000001_Node000002" class="edge">
<title>Node2&#45;&gt;Node1</title>
<g id="a_edge1_Node000001_Node000002"><a xlink:title=" ">
<path fill="none" stroke="#63b8ff" d="M38.71,-626.5C34.52,-578.54 27.36,-465.29 42.5,-372 42.79,-370.23 43.09,-368.46 43.4,-366.69"/>
<polygon fill="none" stroke="#63b8ff" points="43.4,-366.67 40.6,-360.02 45.66,-354.88 48.46,-361.53 43.4,-366.67"/>
</a>
</g>
<text text-anchor="middle" x="96.25" y="-491.88" font-family="Helvetica,sans-Serif" font-size="10.00" fill="grey"> +FACILITY_AUDCLNT</text>
<text text-anchor="middle" x="96.25" y="-480.62" font-family="Helvetica,sans-Serif" font-size="10.00" fill="grey">+SEVERITY_ERROR</text>
</g>
<!-- Node3 -->
<g id="Node000003" class="node">
<title>Node3</title>
<g id="a_Node000003"><a xlink:title=" ">
<polygon fill="white" stroke="none" points="188,-675.25 154,-675.25 154,-626.25 188,-626.25 188,-675.25"/>
<text text-anchor="start" x="159" y="-661.75" font-family="Helvetica,sans-Serif" font-size="10.00">static</text>
<text text-anchor="start" x="169.5" y="-646.75" font-family="Helvetica,sans-Serif" font-size="10.00"> </text>
<text text-anchor="start" x="169.5" y="-631.75" font-family="Helvetica,sans-Serif" font-size="10.00"> </text>
<polygon fill="#666666" stroke="#666666" points="154,-658.25 154,-658.25 188,-658.25 188,-658.25 154,-658.25"/>
<polygon fill="#666666" stroke="#666666" points="154,-643.25 154,-643.25 188,-643.25 188,-643.25 154,-643.25"/>
<polygon fill="none" stroke="#666666" points="154,-626.25 154,-675.25 188,-675.25 188,-626.25 154,-626.25"/>
</a>
</g>
</g>
<!-- Node3&#45;&gt;Node1 -->
<g id="edge2_Node000001_Node000003" class="edge">
<title>Node3&#45;&gt;Node1</title>
<g id="a_edge2_Node000001_Node000003"><a xlink:title=" ">
<path fill="none" stroke="#63b8ff" d="M170.25,-626.58C168.47,-578.76 163.04,-465.76 149,-372 148.73,-370.23 148.46,-368.45 148.18,-366.66"/>
<polygon fill="none" stroke="#63b8ff" points="148.17,-366.59 143.26,-361.31 146.24,-354.75 151.16,-360.03 148.17,-366.59"/>
</a>
</g>
<text text-anchor="start" x="169" y="-598.75" font-family="Helvetica,sans-Serif" font-size="10.00" fill="grey"> +AUDCLNT_E_ALREADY</text>
<text text-anchor="middle" x="256.75" y="-587.5" font-family="Helvetica,sans-Serif" font-size="10.00" fill="grey">_INITIALIZED</text>
<text text-anchor="start" x="169" y="-576.25" font-family="Helvetica,sans-Serif" font-size="10.00" fill="grey">+AUDCLNT_E_BUFDURATION</text>
<text text-anchor="middle" x="256.75" y="-565" font-family="Helvetica,sans-Serif" font-size="10.00" fill="grey">_PERIOD_NOT_EQUAL</text>
<text text-anchor="start" x="169" y="-553.75" font-family="Helvetica,sans-Serif" font-size="10.00" fill="grey">+AUDCLNT_E_BUFFER_OPERATION</text>
<text text-anchor="middle" x="256.75" y="-542.5" font-family="Helvetica,sans-Serif" font-size="10.00" fill="grey">_PENDING</text>
<text text-anchor="start" x="169" y="-531.25" font-family="Helvetica,sans-Serif" font-size="10.00" fill="grey">+AUDCLNT_E_BUFFER_SIZE</text>
<text text-anchor="middle" x="256.75" y="-520" font-family="Helvetica,sans-Serif" font-size="10.00" fill="grey">_ERROR</text>
<text text-anchor="start" x="169" y="-508.75" font-family="Helvetica,sans-Serif" font-size="10.00" fill="grey">+AUDCLNT_E_BUFFER_SIZE</text>
<text text-anchor="middle" x="256.75" y="-497.5" font-family="Helvetica,sans-Serif" font-size="10.00" fill="grey">_NOT_ALIGNED</text>
<text text-anchor="start" x="169" y="-486.25" font-family="Helvetica,sans-Serif" font-size="10.00" fill="grey">+AUDCLNT_E_BUFFER_TOO</text>
<text text-anchor="middle" x="256.75" y="-475" font-family="Helvetica,sans-Serif" font-size="10.00" fill="grey">_LARGE</text>
<text text-anchor="start" x="169" y="-463.75" font-family="Helvetica,sans-Serif" font-size="10.00" fill="grey">+AUDCLNT_E_CPUUSAGE</text>
<text text-anchor="middle" x="256.75" y="-452.5" font-family="Helvetica,sans-Serif" font-size="10.00" fill="grey">_EXCEEDED</text>
<text text-anchor="start" x="169" y="-441.25" font-family="Helvetica,sans-Serif" font-size="10.00" fill="grey">+AUDCLNT_E_DEVICE</text>
<text text-anchor="middle" x="256.75" y="-430" font-family="Helvetica,sans-Serif" font-size="10.00" fill="grey">_INVALIDATED</text>
<text text-anchor="start" x="169" y="-418.75" font-family="Helvetica,sans-Serif" font-size="10.00" fill="grey">+AUDCLNT_E_DEVICE</text>
<text text-anchor="middle" x="256.75" y="-407.5" font-family="Helvetica,sans-Serif" font-size="10.00" fill="grey">_IN_USE</text>
<text text-anchor="start" x="169" y="-396.25" font-family="Helvetica,sans-Serif" font-size="10.00" fill="grey">+AUDCLNT_E_ENDPOINT</text>
<text text-anchor="middle" x="256.75" y="-385" font-family="Helvetica,sans-Serif" font-size="10.00" fill="grey">_CREATE_FAILED</text>
<text text-anchor="middle" x="256.75" y="-373.75" font-family="Helvetica,sans-Serif" font-size="10.00" fill="grey">...</text>
</g>
</g>
</svg>

<g id="navigator" transform="translate(0 0)" fill="#404254">
  <rect fill="#f2f5e9" fill-opacity="0.5" stroke="#606060" stroke-width=".5" x="0" y="0" width="60" height="60"/>
  <use id="zoomplus" xlink:href="#zoomPlus" x="17" y="9" onmousedown="handleZoom(evt,'in')"/>
  <use id="zoomminus" xlink:href="#zoomMin" x="42" y="9" onmousedown="handleZoom(evt,'out')"/>
  <use id="reset" xlink:href="#resetDef" x="30" y="36" onmousedown="handleReset()"/>
   <use id="arrowup" xlink:href="#arrowUp" x="0" y="0" onmousedown="handlePan(0,-1)"/>
  <use id="arrowright" xlink:href="#arrowRight" x="0" y="0" onmousedown="handlePan(1,0)"/>
  <use id="arrowdown" xlink:href="#arrowDown" x="0" y="0" onmousedown="handlePan(0,1)"/>
  <use id="arrowleft" xlink:href="#arrowLeft" x="0" y="0" onmousedown="handlePan(-1,0)"/>
</g>
<svg viewBox="0 0 15 15" width="100%" height="30px" preserveAspectRatio="xMaxYMin meet">
 <g id="arrow_out" transform="scale(0.3 0.3)">
  <a xlink:href="class_n_audio_1_1_core_audio_api_1_1_interfaces_1_1_error_codes__coll__graph_org.svg" target="_base">
   <rect id="button" ry="5" rx="5" y="6" x="6" height="38" width="38"
        fill="#f2f5e9" fill-opacity="0.5" stroke="#606060" stroke-width="1.0"/>
   <path id="arrow"
     d="M 11.500037,31.436501 C 11.940474,20.09759 22.043105,11.32322 32.158766,21.979434 L 37.068811,17.246167 C 37.068811,17.246167 37.088388,32 37.088388,32 L 22.160133,31.978069 C 22.160133,31.978069 26.997745,27.140456 26.997745,27.140456 C 18.528582,18.264221 13.291696,25.230495 11.500037,31.436501 z"
     style="fill:#404040;"/>
  </a>
 </g>
</svg>

<style type='text/css'>
<![CDATA[
[data-mouse-over-selected='false'] { opacity: 0.7; }
[data-mouse-over-selected='true']  { opacity: 1.0; }
]]>
</style>
<script type="application/ecmascript"><![CDATA[
document.addEventListener('DOMContentLoaded', (event) => {
  highlightEdges();
  highlightAdjacentNodes();
});
]]></script>
</svg>
