<?xml version="1.0" encoding="UTF-8" standalone="no"?>
<!DOCTYPE svg PUBLIC "-//W3C//DTD SVG 1.1//EN"
 "http://www.w3.org/Graphics/SVG/1.1/DTD/svg11.dtd">
<!-- Generated by graphviz version 10.0.1 (20240210.2158)
 -->
<!-- Title: NAudio.Mixer.Mixer.Mixer Pages: 1 -->
<svg width="541pt" height="76pt"
 viewBox="0.00 0.00 540.50 75.88" xmlns="http://www.w3.org/2000/svg" xmlns:xlink="http://www.w3.org/1999/xlink">
<g id="graph0" class="graph" transform="scale(1 1) rotate(0) translate(4 71.88)">
<title>NAudio.Mixer.Mixer.Mixer</title>
<!-- Node1 -->
<g id="Node000001" class="node">
<title>Node1</title>
<g id="a_Node000001"><a xlink:title="Connects to the specified mixer.">
<polygon fill="#999999" stroke="#666666" points="127.75,-40.25 0,-40.25 0,-21 127.75,-21 127.75,-40.25"/>
<text text-anchor="middle" x="63.88" y="-26.75" font-family="Helvetica,sans-Serif" font-size="10.00">NAudio.Mixer.Mixer.Mixer</text>
</a>
</g>
</g>
<!-- Node2 -->
<g id="Node000002" class="node">
<title>Node2</title>
<g id="a_Node000002"><a xlink:href="class_n_audio_1_1_mixer_1_1_mixer_interop.html#ad4c9eb60ed58c82a8cb62109e5b321c5" target="_top" xlink:title="Retrieves the capabilities of a specified mixer device.">
<polygon fill="white" stroke="#666666" points="322.25,-67.88 163.75,-67.88 163.75,-37.38 322.25,-37.38 322.25,-67.88"/>
<text text-anchor="start" x="171.75" y="-54.38" font-family="Helvetica,sans-Serif" font-size="10.00">NAudio.Mixer.MixerInterop.mixer</text>
<text text-anchor="middle" x="243" y="-43.12" font-family="Helvetica,sans-Serif" font-size="10.00">GetDevCaps</text>
</a>
</g>
</g>
<!-- Node1&#45;&gt;Node2 -->
<g id="edge1_Node000001_Node000002" class="edge">
<title>Node1&#45;&gt;Node2</title>
<g id="a_edge1_Node000001_Node000002"><a xlink:title=" ">
<path fill="none" stroke="#63b8ff" d="M127.82,-38.44C135.75,-39.43 143.98,-40.45 152.22,-41.47"/>
<polygon fill="#63b8ff" stroke="#63b8ff" points="151.59,-44.92 161.95,-42.68 152.45,-37.98 151.59,-44.92"/>
</a>
</g>
</g>
<!-- Node3 -->
<g id="Node000003" class="node">
<title>Node3</title>
<g id="a_Node000003"><a xlink:href="class_n_audio_1_1_mm_exception.html#a1ca263e295226b2dff8fda80043242d2" target="_top" xlink:title="Throws an exception if the specified result is not equal to MmResult.NoError.">
<polygon fill="white" stroke="#666666" points="307.25,-19.25 178.75,-19.25 178.75,0 307.25,0 307.25,-19.25"/>
<text text-anchor="middle" x="243" y="-5.75" font-family="Helvetica,sans-Serif" font-size="10.00">NAudio.MmException.Try</text>
</a>
</g>
</g>
<!-- Node1&#45;&gt;Node3 -->
<g id="edge2_Node000001_Node000003" class="edge">
<title>Node1&#45;&gt;Node3</title>
<g id="a_edge2_Node000001_Node000003"><a xlink:title=" ">
<path fill="none" stroke="#63b8ff" d="M127.82,-23.16C140.51,-21.66 153.97,-20.06 167.02,-18.51"/>
<polygon fill="#63b8ff" stroke="#63b8ff" points="167.34,-22 176.86,-17.35 166.52,-15.05 167.34,-22"/>
</a>
</g>
</g>
<!-- Node4 -->
<g id="Node000004" class="node">
<title>Node4</title>
<g id="a_Node000004"><a xlink:href="class_n_audio_1_1_mm_exception.html#a674e0bb89c4e2aeb1f4ea96514710947" target="_top" xlink:title="Creates a new MmException.">
<polygon fill="white" stroke="#666666" points="532.5,-19.25 358.25,-19.25 358.25,0 532.5,0 532.5,-19.25"/>
<text text-anchor="middle" x="445.38" y="-5.75" font-family="Helvetica,sans-Serif" font-size="10.00">NAudio.MmException.MmException</text>
</a>
</g>
</g>
<!-- Node3&#45;&gt;Node4 -->
<g id="edge3_Node000003_Node000004" class="edge">
<title>Node3&#45;&gt;Node4</title>
<g id="a_edge3_Node000003_Node000004"><a xlink:title=" ">
<path fill="none" stroke="#63b8ff" d="M307.68,-9.62C320,-9.62 333.17,-9.62 346.29,-9.62"/>
<polygon fill="#63b8ff" stroke="#63b8ff" points="346.28,-13.13 356.28,-9.63 346.28,-6.13 346.28,-13.13"/>
</a>
</g>
</g>
</g>
</svg>
