<?xml version="1.0" encoding="UTF-8" standalone="no"?>
<!DOCTYPE svg PUBLIC "-//W3C//DTD SVG 1.1//EN"
 "http://www.w3.org/Graphics/SVG/1.1/DTD/svg11.dtd">
<!-- Generated by graphviz version 10.0.1 (20240210.2158)
 -->
<!-- Title: xeno_rat_server.Forms.ScreenControl.SetMonitor Pages: 1 -->
<svg width="1133pt" height="530pt"
 viewBox="0.00 0.00 1133.00 530.46" xmlns="http://www.w3.org/2000/svg" xmlns:xlink="http://www.w3.org/1999/xlink">
<g id="graph0" class="graph" transform="scale(1 1) rotate(0) translate(4 526.46)">
<title>xeno_rat_server.Forms.ScreenControl.SetMonitor</title>
<!-- Node1 -->
<g id="Node000001" class="node">
<title>Node1</title>
<g id="a_Node000001"><a xlink:title="Sets the monitor index and updates the scale size.">
<polygon fill="#999999" stroke="#666666" points="149.5,-149.83 0,-149.83 0,-119.33 149.5,-119.33 149.5,-149.83"/>
<text text-anchor="start" x="8" y="-136.33" font-family="Helvetica,sans-Serif" font-size="10.00">xeno_rat_server.Forms.Screen</text>
<text text-anchor="middle" x="74.75" y="-125.08" font-family="Helvetica,sans-Serif" font-size="10.00">Control.SetMonitor</text>
</a>
</g>
</g>
<!-- Node2 -->
<g id="Node000002" class="node">
<title>Node2</title>
<g id="a_Node000002"><a xlink:href="classxeno__rat__server_1_1_socket_handler.html#a68836e871124cbda8a644223a73421d0" target="_top" xlink:title="Converts the specified byte array to an integer value.">
<polygon fill="white" stroke="#666666" points="917,-514.83 762.25,-514.83 762.25,-484.33 917,-484.33 917,-514.83"/>
<text text-anchor="start" x="770.25" y="-501.33" font-family="Helvetica,sans-Serif" font-size="10.00">xeno_rat_server.SocketHandler.</text>
<text text-anchor="middle" x="839.62" y="-490.08" font-family="Helvetica,sans-Serif" font-size="10.00">BytesToInt</text>
</a>
</g>
</g>
<!-- Node1&#45;&gt;Node2 -->
<g id="edge1_Node000001_Node000002" class="edge">
<title>Node1&#45;&gt;Node2</title>
<g id="a_edge1_Node000001_Node000002"><a xlink:title=" ">
<path fill="none" stroke="#63b8ff" d="M88.25,-150.26C138.97,-212.36 337.45,-440.96 562.5,-508.58 623.52,-526.91 695.57,-523.8 750.77,-516.55"/>
<polygon fill="#63b8ff" stroke="#63b8ff" points="751.01,-520.05 760.43,-515.21 750.04,-513.12 751.01,-520.05"/>
</a>
</g>
</g>
<!-- Node3 -->
<g id="Node000003" class="node">
<title>Node3</title>
<g id="a_Node000003"><a xlink:href="classxeno__rat__server_1_1_socket_handler.html#a4f2e993b63cf1bba877781c9be2ed496" target="_top" xlink:title="Concatenates two byte arrays and returns the result.">
<polygon fill="white" stroke="#666666" points="917,-122.83 762.25,-122.83 762.25,-92.33 917,-92.33 917,-122.83"/>
<text text-anchor="start" x="770.25" y="-109.33" font-family="Helvetica,sans-Serif" font-size="10.00">xeno_rat_server.SocketHandler.</text>
<text text-anchor="middle" x="839.62" y="-98.08" font-family="Helvetica,sans-Serif" font-size="10.00">Concat</text>
</a>
</g>
</g>
<!-- Node1&#45;&gt;Node3 -->
<g id="edge2_Node000001_Node000003" class="edge">
<title>Node1&#45;&gt;Node3</title>
<g id="a_edge2_Node000001_Node000003"><a xlink:title=" ">
<path fill="none" stroke="#63b8ff" d="M149.94,-131.95C291.49,-126.94 599.46,-116.04 750.93,-110.68"/>
<polygon fill="#63b8ff" stroke="#63b8ff" points="750.62,-114.2 760.49,-110.34 750.37,-107.2 750.62,-114.2"/>
</a>
</g>
</g>
<!-- Node4 -->
<g id="Node000004" class="node">
<title>Node4</title>
<g id="a_Node000004"><a xlink:href="classxeno__rat__server_1_1_socket_handler.html#a7d019c5e4cbd0138d155156c7a7c5a8f" target="_top" xlink:title="Converts an integer to a byte array.">
<polygon fill="white" stroke="#666666" points="917,-52.83 762.25,-52.83 762.25,-22.33 917,-22.33 917,-52.83"/>
<text text-anchor="start" x="770.25" y="-39.33" font-family="Helvetica,sans-Serif" font-size="10.00">xeno_rat_server.SocketHandler.</text>
<text text-anchor="middle" x="839.62" y="-28.08" font-family="Helvetica,sans-Serif" font-size="10.00">IntToBytes</text>
</a>
</g>
</g>
<!-- Node1&#45;&gt;Node4 -->
<g id="edge3_Node000001_Node000004" class="edge">
<title>Node1&#45;&gt;Node4</title>
<g id="a_edge3_Node000001_Node000004"><a xlink:title=" ">
<path fill="none" stroke="#63b8ff" d="M88.73,-119.18C107.54,-98.17 144.64,-61.43 185.5,-46.58 377.16,23.06 621.82,-0.69 750.46,-21"/>
<polygon fill="#63b8ff" stroke="#63b8ff" points="749.86,-24.44 760.29,-22.58 750.98,-17.53 749.86,-24.44"/>
</a>
</g>
</g>
<!-- Node5 -->
<g id="Node000005" class="node">
<title>Node5</title>
<g id="a_Node000005"><a xlink:href="classxeno__rat__server_1_1_node.html#a3dcb832502d4cd1dd580897265b2da7b" target="_top" xlink:title="Asynchronously receives data from the socket and returns the received data as a byte array.">
<polygon fill="white" stroke="#666666" points="335.75,-214.83 185.5,-214.83 185.5,-184.33 335.75,-184.33 335.75,-214.83"/>
<text text-anchor="start" x="193.5" y="-201.33" font-family="Helvetica,sans-Serif" font-size="10.00">xeno_rat_server.Node.Receive</text>
<text text-anchor="middle" x="260.62" y="-190.08" font-family="Helvetica,sans-Serif" font-size="10.00">Async</text>
</a>
</g>
</g>
<!-- Node1&#45;&gt;Node5 -->
<g id="edge4_Node000001_Node000005" class="edge">
<title>Node1&#45;&gt;Node5</title>
<g id="a_edge4_Node000001_Node000005"><a xlink:title=" ">
<path fill="none" stroke="#63b8ff" d="M120.26,-150.31C145.58,-159.26 177.5,-170.55 204.4,-180.06"/>
<polygon fill="#63b8ff" stroke="#63b8ff" points="203.18,-183.34 213.78,-183.37 205.52,-176.74 203.18,-183.34"/>
</a>
</g>
</g>
<!-- Node14 -->
<g id="Node000014" class="node">
<title>Node14</title>
<g id="a_Node000014"><a xlink:href="classxeno__rat__server_1_1_node.html#a816e267eb31862d38c21e5faaae3061d" target="_top" xlink:title="Sends the provided data asynchronously and returns a boolean indicating the success of the operation.">
<polygon fill="white" stroke="#666666" points="517.5,-171.83 380.75,-171.83 380.75,-141.33 517.5,-141.33 517.5,-171.83"/>
<text text-anchor="start" x="388.75" y="-158.33" font-family="Helvetica,sans-Serif" font-size="10.00">xeno_rat_server.Node.Send</text>
<text text-anchor="middle" x="449.12" y="-147.08" font-family="Helvetica,sans-Serif" font-size="10.00">Async</text>
</a>
</g>
</g>
<!-- Node1&#45;&gt;Node14 -->
<g id="edge16_Node000001_Node000014" class="edge">
<title>Node1&#45;&gt;Node14</title>
<g id="a_edge16_Node000001_Node000014"><a xlink:title=" ">
<path fill="none" stroke="#63b8ff" d="M149.76,-138.95C213.19,-142.7 304.31,-148.08 369.13,-151.91"/>
<polygon fill="#63b8ff" stroke="#63b8ff" points="368.81,-155.4 379,-152.5 369.23,-148.41 368.81,-155.4"/>
</a>
</g>
</g>
<!-- Node22 -->
<g id="Node000022" class="node">
<title>Node22</title>
<g id="a_Node000022"><a xlink:href="classxeno__rat__server_1_1_forms_1_1_screen_control.html#af426dfeb7486f830757816486bb96578" target="_top" xlink:title="Updates the scale size of the picture box based on the current monitor size.">
<polygon fill="white" stroke="#666666" points="335.38,-85.83 185.88,-85.83 185.88,-55.33 335.38,-55.33 335.38,-85.83"/>
<text text-anchor="start" x="193.88" y="-72.33" font-family="Helvetica,sans-Serif" font-size="10.00">xeno_rat_server.Forms.Screen</text>
<text text-anchor="middle" x="260.62" y="-61.08" font-family="Helvetica,sans-Serif" font-size="10.00">Control.UpdateScaleSize</text>
</a>
</g>
</g>
<!-- Node1&#45;&gt;Node22 -->
<g id="edge27_Node000001_Node000022" class="edge">
<title>Node1&#45;&gt;Node22</title>
<g id="a_edge27_Node000001_Node000022"><a xlink:title=" ">
<path fill="none" stroke="#63b8ff" d="M120.73,-118.92C145.77,-110.21 177.17,-99.28 203.78,-90.02"/>
<polygon fill="#63b8ff" stroke="#63b8ff" points="204.75,-93.39 213.04,-86.79 202.45,-86.77 204.75,-93.39"/>
</a>
</g>
</g>
<!-- Node6 -->
<g id="Node000006" class="node">
<title>Node6</title>
<g id="a_Node000006"><a xlink:href="classxeno__rat__server_1_1_node.html#a8814edd98b6463f49812be32d5928763" target="_top" xlink:title="Sets the isDisposed flag to true and disconnects the socket, disposes resources, and triggers the OnD...">
<polygon fill="white" stroke="#666666" points="726.25,-209.2 562.5,-209.2 562.5,-189.95 726.25,-189.95 726.25,-209.2"/>
<text text-anchor="middle" x="644.38" y="-195.7" font-family="Helvetica,sans-Serif" font-size="10.00">xeno_rat_server.Node.Disconnect</text>
</a>
</g>
</g>
<!-- Node5&#45;&gt;Node6 -->
<g id="edge5_Node000005_Node000006" class="edge">
<title>Node5&#45;&gt;Node6</title>
<g id="a_edge5_Node000005_Node000006"><a xlink:title=" ">
<path fill="none" stroke="#63b8ff" d="M336.14,-199.58C397.57,-199.58 485.01,-199.58 550.91,-199.58"/>
<polygon fill="#63b8ff" stroke="#63b8ff" points="550.6,-203.08 560.6,-199.58 550.6,-196.08 550.6,-203.08"/>
</a>
</g>
</g>
<!-- Node7 -->
<g id="Node000007" class="node">
<title>Node7</title>
<g id="a_Node000007"><a xlink:href="classxeno__rat__server_1_1_socket_handler.html#a40a6f3b7eb555e8d688ea5c0074ffa2c" target="_top" xlink:title="Asynchronously receives data and processes it according to the protocol, then returns the processed d...">
<polygon fill="white" stroke="#666666" points="526.5,-373.83 371.75,-373.83 371.75,-343.33 526.5,-343.33 526.5,-373.83"/>
<text text-anchor="start" x="379.75" y="-360.33" font-family="Helvetica,sans-Serif" font-size="10.00">xeno_rat_server.SocketHandler.</text>
<text text-anchor="middle" x="449.12" y="-349.08" font-family="Helvetica,sans-Serif" font-size="10.00">ReceiveAsync</text>
</a>
</g>
</g>
<!-- Node5&#45;&gt;Node7 -->
<g id="edge7_Node000005_Node000007" class="edge">
<title>Node5&#45;&gt;Node7</title>
<g id="a_edge7_Node000005_Node000007"><a xlink:title=" ">
<path fill="none" stroke="#63b8ff" d="M279.85,-215.11C312.86,-243.26 382.68,-302.79 421.2,-335.63"/>
<polygon fill="#63b8ff" stroke="#63b8ff" points="418.8,-338.17 428.68,-342 423.34,-332.85 418.8,-338.17"/>
</a>
</g>
</g>
<!-- Node6&#45;&gt;Node6 -->
<g id="edge6_Node000006_Node000006" class="edge">
<title>Node6&#45;&gt;Node6</title>
<g id="a_edge6_Node000006_Node000006"><a xlink:title=" ">
<path fill="none" stroke="#63b8ff" d="M613.81,-209.49C599.86,-218.1 610.05,-227.2 644.38,-227.2 664.22,-227.2 675.99,-224.16 679.7,-219.93"/>
<polygon fill="#63b8ff" stroke="#63b8ff" points="682.91,-218.51 675.57,-210.87 676.54,-221.42 682.91,-218.51"/>
</a>
</g>
</g>
<!-- Node7&#45;&gt;Node2 -->
<g id="edge9_Node000007_Node000002" class="edge">
<title>Node7&#45;&gt;Node2</title>
<g id="a_edge9_Node000007_Node000002"><a xlink:title=" ">
<path fill="none" stroke="#63b8ff" d="M458.85,-374C475.17,-401.17 513.18,-456.9 562.5,-480.58 620.76,-508.55 694.01,-512.37 750.42,-509.7"/>
<polygon fill="#63b8ff" stroke="#63b8ff" points="750.53,-513.2 760.32,-509.15 750.14,-506.21 750.53,-513.2"/>
</a>
</g>
</g>
<!-- Node8 -->
<g id="Node000008" class="node">
<title>Node8</title>
<g id="a_Node000008"><a xlink:href="classxeno__rat__server_1_1_socket_handler.html#a53169a2098514698865b69c8fab12f77" target="_top" xlink:title="Truncates the input byte array starting from the specified offset and returns the truncated byte arra...">
<polygon fill="white" stroke="#666666" points="721.75,-324.83 567,-324.83 567,-294.33 721.75,-294.33 721.75,-324.83"/>
<text text-anchor="start" x="575" y="-311.33" font-family="Helvetica,sans-Serif" font-size="10.00">xeno_rat_server.SocketHandler.</text>
<text text-anchor="middle" x="644.38" y="-300.08" font-family="Helvetica,sans-Serif" font-size="10.00">BTruncate</text>
</a>
</g>
</g>
<!-- Node7&#45;&gt;Node8 -->
<g id="edge8_Node000007_Node000008" class="edge">
<title>Node7&#45;&gt;Node8</title>
<g id="a_edge8_Node000007_Node000008"><a xlink:title=" ">
<path fill="none" stroke="#63b8ff" d="M512.07,-342.87C530.62,-338.17 551.13,-332.97 570.33,-328.1"/>
<polygon fill="#63b8ff" stroke="#63b8ff" points="571.15,-331.5 579.98,-325.65 569.43,-324.72 571.15,-331.5"/>
</a>
</g>
</g>
<!-- Node9 -->
<g id="Node000009" class="node">
<title>Node9</title>
<g id="a_Node000009"><a xlink:href="classxeno__rat__server_1_1_compression.html#ad992bb75126d7c346fe7884dbbcf8ad8" target="_top" xlink:title="Decompresses the input buffer using the LZNT1 compression format and returns the decompressed data.">
<polygon fill="white" stroke="#666666" points="718.75,-275.83 570,-275.83 570,-245.33 718.75,-245.33 718.75,-275.83"/>
<text text-anchor="start" x="578" y="-262.33" font-family="Helvetica,sans-Serif" font-size="10.00">xeno_rat_server.Compression.</text>
<text text-anchor="middle" x="644.38" y="-251.08" font-family="Helvetica,sans-Serif" font-size="10.00">Decompress</text>
</a>
</g>
</g>
<!-- Node7&#45;&gt;Node9 -->
<g id="edge10_Node000007_Node000009" class="edge">
<title>Node7&#45;&gt;Node9</title>
<g id="a_edge10_Node000007_Node000009"><a xlink:title=" ">
<path fill="none" stroke="#63b8ff" d="M470.24,-343.04C491.99,-326.86 528.16,-301.66 562.5,-285.58 566.5,-283.7 570.68,-281.93 574.94,-280.24"/>
<polygon fill="#63b8ff" stroke="#63b8ff" points="576.06,-283.56 584.21,-276.8 573.62,-277 576.06,-283.56"/>
</a>
</g>
</g>
<!-- Node11 -->
<g id="Node000011" class="node">
<title>Node11</title>
<g id="a_Node000011"><a xlink:href="classxeno__rat__server_1_1_encryption.html#ae2a6537578e2140511afe92f8ad5e964" target="_top" xlink:title="Decrypts the input data using the provided key and returns the decrypted result.">
<polygon fill="white" stroke="#666666" points="713.12,-471.83 575.62,-471.83 575.62,-441.33 713.12,-441.33 713.12,-471.83"/>
<text text-anchor="start" x="583.62" y="-458.33" font-family="Helvetica,sans-Serif" font-size="10.00">xeno_rat_server.Encryption.</text>
<text text-anchor="middle" x="644.38" y="-447.08" font-family="Helvetica,sans-Serif" font-size="10.00">Decrypt</text>
</a>
</g>
</g>
<!-- Node7&#45;&gt;Node11 -->
<g id="edge12_Node000007_Node000011" class="edge">
<title>Node7&#45;&gt;Node11</title>
<g id="a_edge12_Node000007_Node000011"><a xlink:title=" ">
<path fill="none" stroke="#63b8ff" d="M470.24,-374.11C491.99,-390.3 528.16,-415.5 562.5,-431.58 566.5,-433.45 570.68,-435.23 574.94,-436.91"/>
<polygon fill="#63b8ff" stroke="#63b8ff" points="573.62,-440.16 584.21,-440.36 576.06,-433.59 573.62,-440.16"/>
</a>
</g>
</g>
<!-- Node12 -->
<g id="Node000012" class="node">
<title>Node12</title>
<g id="a_Node000012"><a xlink:href="classxeno__rat__server_1_1_socket_handler.html#aeefcafd750efab21954bd772b8ae565d" target="_top" xlink:title="Parses the header from the provided byte array and returns the parsed header object.">
<polygon fill="white" stroke="#666666" points="721.75,-373.83 567,-373.83 567,-343.33 721.75,-343.33 721.75,-373.83"/>
<text text-anchor="start" x="575" y="-360.33" font-family="Helvetica,sans-Serif" font-size="10.00">xeno_rat_server.SocketHandler.</text>
<text text-anchor="middle" x="644.38" y="-349.08" font-family="Helvetica,sans-Serif" font-size="10.00">ParseHeader</text>
</a>
</g>
</g>
<!-- Node7&#45;&gt;Node12 -->
<g id="edge13_Node000007_Node000012" class="edge">
<title>Node7&#45;&gt;Node12</title>
<g id="a_edge13_Node000007_Node000012"><a xlink:title=" ">
<path fill="none" stroke="#63b8ff" d="M526.78,-358.58C536.25,-358.58 545.98,-358.58 555.6,-358.58"/>
<polygon fill="#63b8ff" stroke="#63b8ff" points="555.3,-362.08 565.3,-358.58 555.3,-355.08 555.3,-362.08"/>
</a>
</g>
</g>
<!-- Node13 -->
<g id="Node000013" class="node">
<title>Node13</title>
<g id="a_Node000013"><a xlink:href="classxeno__rat__server_1_1_socket_handler.html#acc7e34649fee5060867a2321dd15d854" target="_top" xlink:title="Asynchronously receives all the data of the specified size from the connected socket and returns the ...">
<polygon fill="white" stroke="#666666" points="721.75,-422.83 567,-422.83 567,-392.33 721.75,-392.33 721.75,-422.83"/>
<text text-anchor="start" x="575" y="-409.33" font-family="Helvetica,sans-Serif" font-size="10.00">xeno_rat_server.SocketHandler.</text>
<text text-anchor="middle" x="644.38" y="-398.08" font-family="Helvetica,sans-Serif" font-size="10.00">RecvAllAsync_ddos_unsafer</text>
</a>
</g>
</g>
<!-- Node7&#45;&gt;Node13 -->
<g id="edge15_Node000007_Node000013" class="edge">
<title>Node7&#45;&gt;Node13</title>
<g id="a_edge15_Node000007_Node000013"><a xlink:title=" ">
<path fill="none" stroke="#63b8ff" d="M512.07,-374.29C530.62,-378.99 551.13,-384.19 570.33,-389.06"/>
<polygon fill="#63b8ff" stroke="#63b8ff" points="569.43,-392.44 579.98,-391.51 571.15,-385.66 569.43,-392.44"/>
</a>
</g>
</g>
<!-- Node10 -->
<g id="Node000010" class="node">
<title>Node10</title>
<g id="a_Node000010"><a xlink:href="classxeno__rat__server_1_1_compression.html#a1c901d319793d3855012549e6a18fe53" target="_top" xlink:title="Decompresses a buffer using the specified compression format and returns the decompressed data.">
<polygon fill="white" stroke="#666666" points="914,-275.83 765.25,-275.83 765.25,-245.33 914,-245.33 914,-275.83"/>
<text text-anchor="start" x="773.25" y="-262.33" font-family="Helvetica,sans-Serif" font-size="10.00">xeno_rat_server.Compression.</text>
<text text-anchor="middle" x="839.62" y="-251.08" font-family="Helvetica,sans-Serif" font-size="10.00">RtlDecompressBuffer</text>
</a>
</g>
</g>
<!-- Node9&#45;&gt;Node10 -->
<g id="edge11_Node000009_Node000010" class="edge">
<title>Node9&#45;&gt;Node10</title>
<g id="a_edge11_Node000009_Node000010"><a xlink:title=" ">
<path fill="none" stroke="#63b8ff" d="M718.99,-260.58C730.27,-260.58 741.99,-260.58 753.49,-260.58"/>
<polygon fill="#63b8ff" stroke="#63b8ff" points="753.39,-264.08 763.39,-260.58 753.39,-257.08 753.39,-264.08"/>
</a>
</g>
</g>
<!-- Node12&#45;&gt;Node2 -->
<g id="edge14_Node000012_Node000002" class="edge">
<title>Node12&#45;&gt;Node2</title>
<g id="a_edge14_Node000012_Node000002"><a xlink:title=" ">
<path fill="none" stroke="#63b8ff" d="M707.72,-374.31C714.19,-376.97 720.49,-380.04 726.25,-383.58 765.62,-407.75 800.86,-448.86 820.98,-475.09"/>
<polygon fill="#63b8ff" stroke="#63b8ff" points="817.98,-476.92 826.78,-482.81 823.57,-472.71 817.98,-476.92"/>
</a>
</g>
</g>
<!-- Node14&#45;&gt;Node6 -->
<g id="edge17_Node000014_Node000006" class="edge">
<title>Node14&#45;&gt;Node6</title>
<g id="a_edge17_Node000014_Node000006"><a xlink:title=" ">
<path fill="none" stroke="#63b8ff" d="M517.99,-171.68C540.58,-176.71 565.49,-182.25 587.11,-187.06"/>
<polygon fill="#63b8ff" stroke="#63b8ff" points="586.09,-190.42 596.61,-189.17 587.61,-183.58 586.09,-190.42"/>
</a>
</g>
</g>
<!-- Node15 -->
<g id="Node000015" class="node">
<title>Node15</title>
<g id="a_Node000015"><a xlink:href="classxeno__rat__server_1_1_socket_handler.html#a85ca8385d023521cdb86ff8ae688adee" target="_top" xlink:title="Sends the provided data asynchronously over the socket.">
<polygon fill="white" stroke="#666666" points="721.75,-171.83 567,-171.83 567,-141.33 721.75,-141.33 721.75,-171.83"/>
<text text-anchor="start" x="575" y="-158.33" font-family="Helvetica,sans-Serif" font-size="10.00">xeno_rat_server.SocketHandler.</text>
<text text-anchor="middle" x="644.38" y="-147.08" font-family="Helvetica,sans-Serif" font-size="10.00">SendAsync</text>
</a>
</g>
</g>
<!-- Node14&#45;&gt;Node15 -->
<g id="edge18_Node000014_Node000015" class="edge">
<title>Node14&#45;&gt;Node15</title>
<g id="a_edge18_Node000014_Node000015"><a xlink:title=" ">
<path fill="none" stroke="#63b8ff" d="M517.99,-156.58C530.06,-156.58 542.79,-156.58 555.33,-156.58"/>
<polygon fill="#63b8ff" stroke="#63b8ff" points="555.25,-160.08 565.25,-156.58 555.25,-153.08 555.25,-160.08"/>
</a>
</g>
</g>
<!-- Node15&#45;&gt;Node3 -->
<g id="edge24_Node000015_Node000003" class="edge">
<title>Node15&#45;&gt;Node3</title>
<g id="a_edge24_Node000015_Node000003"><a xlink:title=" ">
<path fill="none" stroke="#63b8ff" d="M707.32,-140.87C725.87,-136.17 746.38,-130.97 765.58,-126.1"/>
<polygon fill="#63b8ff" stroke="#63b8ff" points="766.4,-129.5 775.23,-123.65 764.68,-122.72 766.4,-129.5"/>
</a>
</g>
</g>
<!-- Node15&#45;&gt;Node4 -->
<g id="edge26_Node000015_Node000004" class="edge">
<title>Node15&#45;&gt;Node4</title>
<g id="a_edge26_Node000015_Node000004"><a xlink:title=" ">
<path fill="none" stroke="#63b8ff" d="M669.93,-141.08C693.53,-126.22 730.23,-103.22 762.25,-83.58 775.37,-75.53 789.82,-66.8 802.58,-59.12"/>
<polygon fill="#63b8ff" stroke="#63b8ff" points="804.33,-62.15 811.11,-54.01 800.73,-56.15 804.33,-62.15"/>
</a>
</g>
</g>
<!-- Node16 -->
<g id="Node000016" class="node">
<title>Node16</title>
<g id="a_Node000016"><a xlink:href="classxeno__rat__server_1_1_compression.html#a0f3f31a2fe34d92bf04538b2fdf529e0" target="_top" xlink:title="Compresses the input buffer using the LZNT1 compression format and returns the compressed data.">
<polygon fill="white" stroke="#666666" points="914,-220.83 765.25,-220.83 765.25,-190.33 914,-190.33 914,-220.83"/>
<text text-anchor="start" x="773.25" y="-207.33" font-family="Helvetica,sans-Serif" font-size="10.00">xeno_rat_server.Compression.</text>
<text text-anchor="middle" x="839.62" y="-196.08" font-family="Helvetica,sans-Serif" font-size="10.00">Compress</text>
</a>
</g>
</g>
<!-- Node15&#45;&gt;Node16 -->
<g id="edge19_Node000015_Node000016" class="edge">
<title>Node15&#45;&gt;Node16</title>
<g id="a_edge19_Node000015_Node000016"><a xlink:title=" ">
<path fill="none" stroke="#63b8ff" d="M707.32,-172.29C725.87,-176.99 746.38,-182.19 765.58,-187.06"/>
<polygon fill="#63b8ff" stroke="#63b8ff" points="764.68,-190.44 775.23,-189.51 766.4,-183.66 764.68,-190.44"/>
</a>
</g>
</g>
<!-- Node21 -->
<g id="Node000021" class="node">
<title>Node21</title>
<g id="a_Node000021"><a xlink:href="classxeno__rat__server_1_1_encryption.html#a0fafecaba804cb57663bdbb4dcc4e93f" target="_top" xlink:title="Encrypts the input data using the provided key and returns the encrypted result.">
<polygon fill="white" stroke="#666666" points="908.38,-171.83 770.88,-171.83 770.88,-141.33 908.38,-141.33 908.38,-171.83"/>
<text text-anchor="start" x="778.88" y="-158.33" font-family="Helvetica,sans-Serif" font-size="10.00">xeno_rat_server.Encryption.</text>
<text text-anchor="middle" x="839.62" y="-147.08" font-family="Helvetica,sans-Serif" font-size="10.00">Encrypt</text>
</a>
</g>
</g>
<!-- Node15&#45;&gt;Node21 -->
<g id="edge25_Node000015_Node000021" class="edge">
<title>Node15&#45;&gt;Node21</title>
<g id="a_edge25_Node000015_Node000021"><a xlink:title=" ">
<path fill="none" stroke="#63b8ff" d="M722.03,-156.58C734.29,-156.58 747.01,-156.58 759.33,-156.58"/>
<polygon fill="#63b8ff" stroke="#63b8ff" points="759,-160.08 769,-156.58 759,-153.08 759,-160.08"/>
</a>
</g>
</g>
<!-- Node17 -->
<g id="Node000017" class="node">
<title>Node17</title>
<g id="a_Node000017"><a xlink:href="classxeno__rat__server_1_1_compression.html#ae86c8cb19fb340173e6b06816907c485" target="_top" xlink:title="Allocates the specified number of bytes in the local heap and returns a pointer to the allocated memo...">
<polygon fill="white" stroke="#666666" points="1113.38,-293.83 964.62,-293.83 964.62,-263.33 1113.38,-263.33 1113.38,-293.83"/>
<text text-anchor="start" x="972.62" y="-280.33" font-family="Helvetica,sans-Serif" font-size="10.00">xeno_rat_server.Compression.</text>
<text text-anchor="middle" x="1039" y="-269.08" font-family="Helvetica,sans-Serif" font-size="10.00">LocalAlloc</text>
</a>
</g>
</g>
<!-- Node16&#45;&gt;Node17 -->
<g id="edge20_Node000016_Node000017" class="edge">
<title>Node16&#45;&gt;Node17</title>
<g id="a_edge20_Node000016_Node000017"><a xlink:title=" ">
<path fill="none" stroke="#63b8ff" d="M880.44,-221.25C892.26,-226.04 905.21,-231.41 917,-236.58 933.2,-243.69 936.46,-247.29 953,-253.58 958.34,-255.61 963.93,-257.58 969.57,-259.46"/>
<polygon fill="#63b8ff" stroke="#63b8ff" points="968.41,-262.77 979,-262.51 970.56,-256.11 968.41,-262.77"/>
</a>
</g>
</g>
<!-- Node18 -->
<g id="Node000018" class="node">
<title>Node18</title>
<g id="a_Node000018"><a xlink:href="classxeno__rat__server_1_1_compression.html#ab527e0a594d96bbaa1a4b1541888aa74" target="_top" xlink:title="Frees the memory block allocated by LocalAlloc and LocalReAlloc and invalidates the handle.">
<polygon fill="white" stroke="#666666" points="1113.38,-244.83 964.62,-244.83 964.62,-214.33 1113.38,-214.33 1113.38,-244.83"/>
<text text-anchor="start" x="972.62" y="-231.33" font-family="Helvetica,sans-Serif" font-size="10.00">xeno_rat_server.Compression.</text>
<text text-anchor="middle" x="1039" y="-220.08" font-family="Helvetica,sans-Serif" font-size="10.00">LocalFree</text>
</a>
</g>
</g>
<!-- Node16&#45;&gt;Node18 -->
<g id="edge21_Node000016_Node000018" class="edge">
<title>Node16&#45;&gt;Node18</title>
<g id="a_edge21_Node000016_Node000018"><a xlink:title=" ">
<path fill="none" stroke="#63b8ff" d="M914.4,-214.55C927.02,-216.08 940.22,-217.69 953.1,-219.26"/>
<polygon fill="#63b8ff" stroke="#63b8ff" points="952.46,-222.7 962.81,-220.44 953.31,-215.75 952.46,-222.7"/>
</a>
</g>
</g>
<!-- Node19 -->
<g id="Node000019" class="node">
<title>Node19</title>
<g id="a_Node000019"><a xlink:href="classxeno__rat__server_1_1_compression.html#a1f9bb20d96d13bdc4d0f90e2b68d4343" target="_top" xlink:title="Compresses the input buffer using the specified compression format and returns the compressed data in...">
<polygon fill="white" stroke="#666666" points="1113.38,-195.83 964.62,-195.83 964.62,-165.33 1113.38,-165.33 1113.38,-195.83"/>
<text text-anchor="start" x="972.62" y="-182.33" font-family="Helvetica,sans-Serif" font-size="10.00">xeno_rat_server.Compression.</text>
<text text-anchor="middle" x="1039" y="-171.08" font-family="Helvetica,sans-Serif" font-size="10.00">RtlCompressBuffer</text>
</a>
</g>
</g>
<!-- Node16&#45;&gt;Node19 -->
<g id="edge22_Node000016_Node000019" class="edge">
<title>Node16&#45;&gt;Node19</title>
<g id="a_edge22_Node000016_Node000019"><a xlink:title=" ">
<path fill="none" stroke="#63b8ff" d="M914.4,-196.23C927.02,-194.64 940.22,-192.96 953.1,-191.33"/>
<polygon fill="#63b8ff" stroke="#63b8ff" points="953.33,-194.83 962.81,-190.1 952.45,-187.89 953.33,-194.83"/>
</a>
</g>
</g>
<!-- Node20 -->
<g id="Node000020" class="node">
<title>Node20</title>
<g id="a_Node000020"><a xlink:href="classxeno__rat__server_1_1_compression.html#a5ca090d7b0887e40753bad9800c321e7" target="_top" xlink:title="Retrieves the size of the workspace required for compression.">
<polygon fill="white" stroke="#666666" points="1125,-146.83 953,-146.83 953,-116.33 1125,-116.33 1125,-146.83"/>
<text text-anchor="start" x="961" y="-133.33" font-family="Helvetica,sans-Serif" font-size="10.00">xeno_rat_server.Compression.</text>
<text text-anchor="middle" x="1039" y="-122.08" font-family="Helvetica,sans-Serif" font-size="10.00">RtlGetCompressionWorkSpaceSize</text>
</a>
</g>
</g>
<!-- Node16&#45;&gt;Node20 -->
<g id="edge23_Node000016_Node000020" class="edge">
<title>Node16&#45;&gt;Node20</title>
<g id="a_edge23_Node000016_Node000020"><a xlink:title=" ">
<path fill="none" stroke="#63b8ff" d="M894.77,-189.9C902.36,-187.11 909.97,-183.99 917,-180.58 934.3,-172.18 935.58,-164.72 953,-156.58 957.04,-154.69 961.25,-152.91 965.55,-151.24"/>
<polygon fill="#63b8ff" stroke="#63b8ff" points="966.74,-154.53 974.93,-147.82 964.34,-147.96 966.74,-154.53"/>
</a>
</g>
</g>
<!-- Node22&#45;&gt;Node3 -->
<g id="edge28_Node000022_Node000003" class="edge">
<title>Node22&#45;&gt;Node3</title>
<g id="a_edge28_Node000022_Node000003"><a xlink:title=" ">
<path fill="none" stroke="#63b8ff" d="M335.67,-75C427.37,-80.52 588.35,-90.37 726.25,-99.58 734.17,-100.11 742.39,-100.67 750.64,-101.24"/>
<polygon fill="#63b8ff" stroke="#63b8ff" points="750.13,-104.71 760.35,-101.92 750.62,-97.73 750.13,-104.71"/>
</a>
</g>
</g>
<!-- Node22&#45;&gt;Node4 -->
<g id="edge29_Node000022_Node000004" class="edge">
<title>Node22&#45;&gt;Node4</title>
<g id="a_edge29_Node000022_Node000004"><a xlink:title=" ">
<path fill="none" stroke="#63b8ff" d="M335.65,-64.22C347.71,-63.27 360.07,-62.36 371.75,-61.58 503.52,-52.81 656.39,-45.49 750.31,-41.32"/>
<polygon fill="#63b8ff" stroke="#63b8ff" points="750.4,-44.82 760.24,-40.89 750.09,-37.83 750.4,-44.82"/>
</a>
</g>
</g>
<!-- Node22&#45;&gt;Node14 -->
<g id="edge30_Node000022_Node000014" class="edge">
<title>Node22&#45;&gt;Node14</title>
<g id="a_edge30_Node000022_Node000014"><a xlink:title=" ">
<path fill="none" stroke="#63b8ff" d="M295.4,-86.15C325.71,-100.13 370.41,-120.74 403.62,-136.06"/>
<polygon fill="#63b8ff" stroke="#63b8ff" points="402.05,-139.19 412.6,-140.2 404.98,-132.83 402.05,-139.19"/>
</a>
</g>
</g>
</g>
</svg>
