<?xml version="1.0" encoding="UTF-8" standalone="no"?>
<!DOCTYPE svg PUBLIC "-//W3C//DTD SVG 1.1//EN"
 "http://www.w3.org/Graphics/SVG/1.1/DTD/svg11.dtd">
<!-- Generated by graphviz version 10.0.1 (20240210.2158)
 -->
<!-- Title: NAudio.MediaFoundation.MediaFoundationApi.CreateMediaType Pages: 1 -->
<svg width="573pt" height="117pt"
 viewBox="0.00 0.00 572.75 116.50" xmlns="http://www.w3.org/2000/svg" xmlns:xlink="http://www.w3.org/1999/xlink">
<g id="graph0" class="graph" transform="scale(1 1) rotate(0) translate(4 112.5)">
<title>NAudio.MediaFoundation.MediaFoundationApi.CreateMediaType</title>
<!-- Node1 -->
<g id="Node000001" class="node">
<title>Node1</title>
<g id="a_Node000001"><a xlink:title="Creates a new instance of IMFMediaType.">
<polygon fill="#999999" stroke="#666666" points="564.75,-57.5 407,-57.5 407,-27 564.75,-27 564.75,-57.5"/>
<text text-anchor="start" x="415" y="-44" font-family="Helvetica,sans-Serif" font-size="10.00">NAudio.MediaFoundation.Media</text>
<text text-anchor="middle" x="485.88" y="-32.75" font-family="Helvetica,sans-Serif" font-size="10.00">FoundationApi.CreateMediaType</text>
</a>
</g>
</g>
<!-- Node2 -->
<g id="Node000002" class="node">
<title>Node2</title>
<g id="a_Node000002"><a xlink:href="class_n_audio_1_1_media_foundation_1_1_media_foundation_api.html#ad696d151e32131cfe49553e795444462" target="_top" xlink:title="Creates a new IMFMediaType object from the provided WaveFormat.">
<polygon fill="white" stroke="#666666" points="371,-90.12 190.75,-90.12 190.75,-48.38 371,-48.38 371,-90.12"/>
<text text-anchor="start" x="198.75" y="-76.62" font-family="Helvetica,sans-Serif" font-size="10.00">NAudio.MediaFoundation.Media</text>
<text text-anchor="start" x="198.75" y="-65.38" font-family="Helvetica,sans-Serif" font-size="10.00">FoundationApi.CreateMediaTypeFrom</text>
<text text-anchor="middle" x="280.88" y="-54.12" font-family="Helvetica,sans-Serif" font-size="10.00">WaveFormat</text>
</a>
</g>
</g>
<!-- Node1&#45;&gt;Node2 -->
<g id="edge1_Node000001_Node000002" class="edge">
<title>Node1&#45;&gt;Node2</title>
<g id="a_edge1_Node000001_Node000002"><a xlink:title=" ">
<path fill="none" stroke="#63b8ff" d="M395.41,-54.15C387.37,-55.22 379.23,-56.3 371.2,-57.37"/>
<polygon fill="#63b8ff" stroke="#63b8ff" points="395.73,-57.64 405.18,-52.85 394.81,-50.7 395.73,-57.64"/>
</a>
</g>
</g>
<!-- Node5 -->
<g id="Node000005" class="node">
<title>Node5</title>
<g id="a_Node000005"><a xlink:href="class_n_audio_1_1_media_foundation_1_1_media_type.html#a720d1ca853211980bf2610728a63f189" target="_top" xlink:title="Creates and wraps a new IMFMediaType object.">
<polygon fill="white" stroke="#666666" points="358.25,-30.5 203.5,-30.5 203.5,0 358.25,0 358.25,-30.5"/>
<text text-anchor="start" x="211.5" y="-17" font-family="Helvetica,sans-Serif" font-size="10.00">NAudio.MediaFoundation.Media</text>
<text text-anchor="middle" x="280.88" y="-5.75" font-family="Helvetica,sans-Serif" font-size="10.00">Type.MediaType</text>
</a>
</g>
</g>
<!-- Node1&#45;&gt;Node5 -->
<g id="edge4_Node000001_Node000005" class="edge">
<title>Node1&#45;&gt;Node5</title>
<g id="a_edge4_Node000001_Node000005"><a xlink:title=" ">
<path fill="none" stroke="#63b8ff" d="M395.5,-30.36C383.22,-28.73 370.71,-27.07 358.69,-25.47"/>
<polygon fill="#63b8ff" stroke="#63b8ff" points="394.81,-33.8 405.18,-31.65 395.73,-26.86 394.81,-33.8"/>
</a>
</g>
</g>
<!-- Node3 -->
<g id="Node000003" class="node">
<title>Node3</title>
<g id="a_Node000003"><a xlink:href="class_n_audio_1_1_wave_1_1_media_foundation_resampler.html#ab241afe826a93e01d79dd284f6d70ca4" target="_top" xlink:title="Creates and configures a resampler transform for media format conversion.">
<polygon fill="white" stroke="#666666" points="154,-108.5 0.75,-108.5 0.75,-78 154,-78 154,-108.5"/>
<text text-anchor="start" x="8.75" y="-95" font-family="Helvetica,sans-Serif" font-size="10.00">NAudio.Wave.MediaFoundation</text>
<text text-anchor="middle" x="77.38" y="-83.75" font-family="Helvetica,sans-Serif" font-size="10.00">Resampler.CreateTransform</text>
</a>
</g>
</g>
<!-- Node2&#45;&gt;Node3 -->
<g id="edge2_Node000002_Node000003" class="edge">
<title>Node2&#45;&gt;Node3</title>
<g id="a_edge2_Node000002_Node000003"><a xlink:title=" ">
<path fill="none" stroke="#63b8ff" d="M179.05,-81.26C170.76,-82.25 162.48,-83.23 154.42,-84.19"/>
<polygon fill="#63b8ff" stroke="#63b8ff" points="179.3,-84.75 188.82,-80.1 178.47,-77.8 179.3,-84.75"/>
</a>
</g>
</g>
<!-- Node4 -->
<g id="Node000004" class="node">
<title>Node4</title>
<g id="a_Node000004"><a xlink:href="class_n_audio_1_1_media_foundation_1_1_media_type.html#afd99cd108ce044f3347da6f842dcfa11" target="_top" xlink:title="Creates and wraps a new IMFMediaType object based on a WaveFormat.">
<polygon fill="white" stroke="#666666" points="154.75,-59.5 0,-59.5 0,-29 154.75,-29 154.75,-59.5"/>
<text text-anchor="start" x="8" y="-46" font-family="Helvetica,sans-Serif" font-size="10.00">NAudio.MediaFoundation.Media</text>
<text text-anchor="middle" x="77.38" y="-34.75" font-family="Helvetica,sans-Serif" font-size="10.00">Type.MediaType</text>
</a>
</g>
</g>
<!-- Node2&#45;&gt;Node4 -->
<g id="edge3_Node000002_Node000004" class="edge">
<title>Node2&#45;&gt;Node4</title>
<g id="a_edge3_Node000002_Node000004"><a xlink:title=" ">
<path fill="none" stroke="#63b8ff" d="M178.97,-56.73C170.92,-55.73 162.88,-54.73 155.04,-53.76"/>
<polygon fill="#63b8ff" stroke="#63b8ff" points="178.46,-60.19 188.82,-57.95 179.33,-53.25 178.46,-60.19"/>
</a>
</g>
</g>
</g>
</svg>
