<?xml version="1.0" encoding="UTF-8" standalone="no"?>
<!DOCTYPE svg PUBLIC "-//W3C//DTD SVG 1.1//EN"
 "http://www.w3.org/Graphics/SVG/1.1/DTD/svg11.dtd">
<!-- Generated by graphviz version 10.0.1 (20240210.2158)
 -->
<!-- Title: xeno_rat_client.Node Pages: 1 -->
<!--zoomable 863 -->

<svg id="main" version="1.1" xmlns="http://www.w3.org/2000/svg" xmlns:xlink="http://www.w3.org/1999/xlink" xml:space="preserve" onload="init(evt)">
<style type="text/css"><![CDATA[
.node, .edge {opacity: 0.7;}
.node.selected, .edge.selected {opacity: 1;}
.edge:hover path { stroke: red; }
.edge:hover polygon { stroke: red; fill: red; }
]]></style>

<defs>
  <circle id="rim" cx="0" cy="0" r="7"/>
  <circle id="rim2" cx="0" cy="0" r="3.5"/>
  <g id="zoomPlus">
    <use xlink:href="#rim" fill="#404040"><set attributeName="fill" to="#808080" begin="zoomplus.mouseover" end="zoomplus.mouseout"/></use>
    <path d="M-4,0h8M0,-4v8" fill="none" stroke="white" stroke-width="1.5" pointer-events="none"/>
  </g>
  <g id="zoomMin">
    <use xlink:href="#rim" fill="#404040"><set attributeName="fill" to="#808080" begin="zoomminus.mouseover" end="zoomminus.mouseout"/></use>
    <path d="M-4,0h8" fill="none" stroke="white" stroke-width="1.5" pointer-events="none"/>
  </g>
  <g id="arrowUp" transform="translate(30 24)">
    <use xlink:href="#rim"/>
    <path pointer-events="none" fill="none" stroke="white" stroke-width="1.5" d="M0,-3.0v7 M-2.5,-0.5L0,-3.0L2.5,-0.5"/>
  </g>
  <g id="arrowRight" transform="rotate(90) translate(36 -43)">
    <use xlink:href="#rim"/>
    <path pointer-events="none" fill="none" stroke="white" stroke-width="1.5" d="M0,-3.0v7 M-2.5,-0.5L0,-3.0L2.5,-0.5"/>
  </g>
  <g id="arrowDown" transform="rotate(180) translate(-30 -48)">
    <use xlink:href="#rim"/>
    <path pointer-events="none" fill="none" stroke="white" stroke-width="1.5" d="M0,-3.0v7 M-2.5,-0.5L0,-3.0L2.5,-0.5"/>
  </g>
  <g id="arrowLeft" transform="rotate(270) translate(-36 17)">
    <use xlink:href="#rim"/>
    <path pointer-events="none" fill="none" stroke="white" stroke-width="1.5" d="M0,-3.0v7 M-2.5,-0.5L0,-3.0L2.5,-0.5"/>
  </g>
  <g id="resetDef">
    <use xlink:href="#rim2" fill="#404040"><set attributeName="fill" to="#808080" begin="reset.mouseover" end="reset.mouseout"/></use>
  </g>
</defs>
<script type="application/ecmascript">
var viewWidth = 685;
var viewHeight = 863;
var sectionId = 'dynsection-0';
</script>
<script type="application/ecmascript" xlink:href="svg.min.js"/>
<svg id="graph" class="graph">
<g id="viewport">
<title>xeno_rat_client.Node</title>
<!-- Node1 -->
<g id="Node000001" class="node">
<title>Node1</title>
<g id="a_Node000001"><a xlink:title=" ">
<polygon fill="#999999" stroke="none" points="365,-214 237,-214 237,0 365,0 365,-214"/>
<text text-anchor="start" x="254.88" y="-200.5" font-family="Helvetica,sans-Serif" font-size="10.00">xeno_rat_client.Node</text>
<text text-anchor="start" x="299.5" y="-185.5" font-family="Helvetica,sans-Serif" font-size="10.00"> </text>
<text text-anchor="start" x="241" y="-170.5" font-family="Helvetica,sans-Serif" font-size="10.00">+</text>
<text text-anchor="start" x="251" y="-170.5" font-family="Helvetica,sans-Serif" font-size="10.00">Node()</text>
<text text-anchor="start" x="241" y="-155.5" font-family="Helvetica,sans-Serif" font-size="10.00">+</text>
<text text-anchor="start" x="251" y="-155.5" font-family="Helvetica,sans-Serif" font-size="10.00">AddSubNode()</text>
<text text-anchor="start" x="241" y="-140.5" font-family="Helvetica,sans-Serif" font-size="10.00">+</text>
<text text-anchor="start" x="251" y="-140.5" font-family="Helvetica,sans-Serif" font-size="10.00">Disconnect()</text>
<text text-anchor="start" x="241" y="-125.5" font-family="Helvetica,sans-Serif" font-size="10.00">+</text>
<text text-anchor="start" x="251" y="-125.5" font-family="Helvetica,sans-Serif" font-size="10.00">ConnectSubSockAsync()</text>
<text text-anchor="start" x="241" y="-110.5" font-family="Helvetica,sans-Serif" font-size="10.00">+</text>
<text text-anchor="start" x="251" y="-110.5" font-family="Helvetica,sans-Serif" font-size="10.00">Connected()</text>
<text text-anchor="start" x="241" y="-95.5" font-family="Helvetica,sans-Serif" font-size="10.00">+</text>
<text text-anchor="start" x="251" y="-95.5" font-family="Helvetica,sans-Serif" font-size="10.00">ReceiveAsync()</text>
<text text-anchor="start" x="241" y="-80.5" font-family="Helvetica,sans-Serif" font-size="10.00">+</text>
<text text-anchor="start" x="251" y="-80.5" font-family="Helvetica,sans-Serif" font-size="10.00">SendAsync()</text>
<text text-anchor="start" x="241" y="-65.5" font-family="Helvetica,sans-Serif" font-size="10.00">+</text>
<text text-anchor="start" x="251" y="-65.5" font-family="Helvetica,sans-Serif" font-size="10.00">SetRecvTimeout()</text>
<text text-anchor="start" x="241" y="-50.5" font-family="Helvetica,sans-Serif" font-size="10.00">+</text>
<text text-anchor="start" x="251" y="-50.5" font-family="Helvetica,sans-Serif" font-size="10.00">ResetRecvTimeout()</text>
<text text-anchor="start" x="241" y="-35.5" font-family="Helvetica,sans-Serif" font-size="10.00">+</text>
<text text-anchor="start" x="251" y="-35.5" font-family="Helvetica,sans-Serif" font-size="10.00">AuthenticateAsync()</text>
<text text-anchor="start" x="242.5" y="-20.5" font-family="Helvetica,sans-Serif" font-size="10.00">&#45;</text>
<text text-anchor="start" x="251" y="-20.5" font-family="Helvetica,sans-Serif" font-size="10.00">memcmp()</text>
<text text-anchor="start" x="242.5" y="-5.5" font-family="Helvetica,sans-Serif" font-size="10.00">&#45;</text>
<text text-anchor="start" x="251" y="-5.5" font-family="Helvetica,sans-Serif" font-size="10.00">ByteArrayCompare()</text>
<polygon fill="#666666" stroke="#666666" points="237,-197 237,-197 365,-197 365,-197 237,-197"/>
<polygon fill="#666666" stroke="#666666" points="237,-182 237,-182 365,-182 365,-182 237,-182"/>
<polygon fill="none" stroke="#666666" points="237,0 237,-214 365,-214 365,0 237,0"/>
</a>
</g>
</g>
<!-- Node2 -->
<g id="Node000002" class="node">
<title>Node2</title>
<g id="a_Node000002"><a xlink:title=" ">
<polygon fill="white" stroke="none" points="275.5,-682 160.5,-682 160.5,-622 275.5,-622 275.5,-682"/>
<text text-anchor="start" x="165.12" y="-668.5" font-family="Helvetica,sans-Serif" font-size="10.00">Action&lt; xeno_rat_client.</text>
<text text-anchor="start" x="201.88" y="-657.25" font-family="Helvetica,sans-Serif" font-size="10.00">Node &gt;</text>
<text text-anchor="start" x="216.5" y="-642.5" font-family="Helvetica,sans-Serif" font-size="10.00"> </text>
<text text-anchor="start" x="216.5" y="-627.5" font-family="Helvetica,sans-Serif" font-size="10.00"> </text>
<polygon fill="#666666" stroke="#666666" points="160.5,-654 160.5,-654 275.5,-654 275.5,-654 160.5,-654"/>
<polygon fill="#666666" stroke="#666666" points="160.5,-639 160.5,-639 275.5,-639 275.5,-639 160.5,-639"/>
<polygon fill="none" stroke="#666666" points="160.5,-622 160.5,-682 275.5,-682 275.5,-622 160.5,-622"/>
</a>
</g>
</g>
<!-- Node2&#45;&gt;Node1 -->
<g id="edge1_Node000001_Node000002" class="edge">
<title>Node2&#45;&gt;Node1</title>
<g id="a_edge1_Node000001_Node000002"><a xlink:title=" ">
<path fill="none" stroke="#63b8ff" d="M203.94,-622C173.84,-555.73 109.85,-389.03 159.75,-261.25 173.88,-225.07 201,-192.29 227.72,-166.41"/>
<polygon fill="none" stroke="#63b8ff" points="227.74,-166.4 229.37,-159.37 236.48,-158.17 234.85,-165.2 227.74,-166.4"/>
</a>
</g>
<text text-anchor="middle" x="194.12" y="-364.38" font-family="Helvetica,sans-Serif" font-size="10.00" fill="grey"> &#45;OnDisconnect</text>
</g>
<!-- Node8 -->
<g id="Node000008" class="node">
<title>Node8</title>
<g id="a_Node000008"><a xlink:href="classxeno__rat__client_1_1_node.html" target="_top" xlink:title=" ">
<polygon fill="white" stroke="none" points="365,-475.25 237,-475.25 237,-261.25 365,-261.25 365,-475.25"/>
<text text-anchor="start" x="254.88" y="-461.75" font-family="Helvetica,sans-Serif" font-size="10.00">xeno_rat_client.Node</text>
<text text-anchor="start" x="299.5" y="-446.75" font-family="Helvetica,sans-Serif" font-size="10.00"> </text>
<text text-anchor="start" x="241" y="-431.75" font-family="Helvetica,sans-Serif" font-size="10.00">+</text>
<text text-anchor="start" x="251" y="-431.75" font-family="Helvetica,sans-Serif" font-size="10.00">Node()</text>
<text text-anchor="start" x="241" y="-416.75" font-family="Helvetica,sans-Serif" font-size="10.00">+</text>
<text text-anchor="start" x="251" y="-416.75" font-family="Helvetica,sans-Serif" font-size="10.00">AddSubNode()</text>
<text text-anchor="start" x="241" y="-401.75" font-family="Helvetica,sans-Serif" font-size="10.00">+</text>
<text text-anchor="start" x="251" y="-401.75" font-family="Helvetica,sans-Serif" font-size="10.00">Disconnect()</text>
<text text-anchor="start" x="241" y="-386.75" font-family="Helvetica,sans-Serif" font-size="10.00">+</text>
<text text-anchor="start" x="251" y="-386.75" font-family="Helvetica,sans-Serif" font-size="10.00">ConnectSubSockAsync()</text>
<text text-anchor="start" x="241" y="-371.75" font-family="Helvetica,sans-Serif" font-size="10.00">+</text>
<text text-anchor="start" x="251" y="-371.75" font-family="Helvetica,sans-Serif" font-size="10.00">Connected()</text>
<text text-anchor="start" x="241" y="-356.75" font-family="Helvetica,sans-Serif" font-size="10.00">+</text>
<text text-anchor="start" x="251" y="-356.75" font-family="Helvetica,sans-Serif" font-size="10.00">ReceiveAsync()</text>
<text text-anchor="start" x="241" y="-341.75" font-family="Helvetica,sans-Serif" font-size="10.00">+</text>
<text text-anchor="start" x="251" y="-341.75" font-family="Helvetica,sans-Serif" font-size="10.00">SendAsync()</text>
<text text-anchor="start" x="241" y="-326.75" font-family="Helvetica,sans-Serif" font-size="10.00">+</text>
<text text-anchor="start" x="251" y="-326.75" font-family="Helvetica,sans-Serif" font-size="10.00">SetRecvTimeout()</text>
<text text-anchor="start" x="241" y="-311.75" font-family="Helvetica,sans-Serif" font-size="10.00">+</text>
<text text-anchor="start" x="251" y="-311.75" font-family="Helvetica,sans-Serif" font-size="10.00">ResetRecvTimeout()</text>
<text text-anchor="start" x="241" y="-296.75" font-family="Helvetica,sans-Serif" font-size="10.00">+</text>
<text text-anchor="start" x="251" y="-296.75" font-family="Helvetica,sans-Serif" font-size="10.00">AuthenticateAsync()</text>
<text text-anchor="start" x="242.5" y="-281.75" font-family="Helvetica,sans-Serif" font-size="10.00">&#45;</text>
<text text-anchor="start" x="251" y="-281.75" font-family="Helvetica,sans-Serif" font-size="10.00">memcmp()</text>
<text text-anchor="start" x="242.5" y="-266.75" font-family="Helvetica,sans-Serif" font-size="10.00">&#45;</text>
<text text-anchor="start" x="251" y="-266.75" font-family="Helvetica,sans-Serif" font-size="10.00">ByteArrayCompare()</text>
<polygon fill="#666666" stroke="#666666" points="237,-458.25 237,-458.25 365,-458.25 365,-458.25 237,-458.25"/>
<polygon fill="#666666" stroke="#666666" points="237,-443.25 237,-443.25 365,-443.25 365,-443.25 237,-443.25"/>
<polygon fill="none" stroke="#666666" points="237,-261.25 237,-475.25 365,-475.25 365,-261.25 237,-261.25"/>
</a>
</g>
</g>
<!-- Node2&#45;&gt;Node8 -->
<g id="edge8_Node000008_Node000002" class="edge">
<title>Node2&#45;&gt;Node8</title>
<g id="a_edge8_Node000008_Node000002"><a xlink:title=" ">
<path fill="none" stroke="#63b8ff" d="M217.21,-622.11C217.13,-589.95 219.38,-536.76 232.75,-493.25 233.35,-491.28 233.99,-489.32 234.66,-487.34"/>
<polygon fill="none" stroke="#63b8ff" points="234.66,-487.34 232.98,-480.33 238.81,-476.08 240.49,-483.1 234.66,-487.34"/>
</a>
</g>
<text text-anchor="middle" x="267.12" y="-506.25" font-family="Helvetica,sans-Serif" font-size="10.00" fill="grey"> &#45;OnDisconnect</text>
</g>
<!-- Node3 -->
<g id="Node000003" class="node">
<title>Node3</title>
<g id="a_Node000003"><a xlink:title=" ">
<polygon fill="white" stroke="none" points="136,-676.5 0,-676.5 0,-627.5 136,-627.5 136,-676.5"/>
<text text-anchor="start" x="5" y="-663" font-family="Helvetica,sans-Serif" font-size="10.00">List&lt; xeno_rat_client.Node &gt;</text>
<text text-anchor="start" x="66.5" y="-648" font-family="Helvetica,sans-Serif" font-size="10.00"> </text>
<text text-anchor="start" x="66.5" y="-633" font-family="Helvetica,sans-Serif" font-size="10.00"> </text>
<polygon fill="#666666" stroke="#666666" points="0,-659.5 0,-659.5 136,-659.5 136,-659.5 0,-659.5"/>
<polygon fill="#666666" stroke="#666666" points="0,-644.5 0,-644.5 136,-644.5 136,-644.5 0,-644.5"/>
<polygon fill="none" stroke="#666666" points="0,-627.5 0,-676.5 136,-676.5 136,-627.5 0,-627.5"/>
</a>
</g>
</g>
<!-- Node3&#45;&gt;Node1 -->
<g id="edge2_Node000001_Node000003" class="edge">
<title>Node3&#45;&gt;Node1</title>
<g id="a_edge2_Node000001_Node000003"><a xlink:title=" ">
<path fill="none" stroke="#63b8ff" d="M62.34,-627.62C48.28,-564.08 17.55,-384.67 84.75,-261.25 115.26,-205.22 176.14,-164.94 225.56,-139.77"/>
<polygon fill="none" stroke="#63b8ff" points="225.63,-139.73 229.24,-133.48 236.39,-134.41 232.79,-140.65 225.63,-139.73"/>
</a>
</g>
<text text-anchor="middle" x="111.62" y="-364.38" font-family="Helvetica,sans-Serif" font-size="10.00" fill="grey"> +subNodes</text>
</g>
<!-- Node3&#45;&gt;Node8 -->
<g id="edge9_Node000008_Node000003" class="edge">
<title>Node3&#45;&gt;Node8</title>
<g id="a_edge9_Node000008_Node000003"><a xlink:title=" ">
<path fill="none" stroke="#63b8ff" d="M76.75,-627.58C90.76,-593.2 121.45,-529.25 167.75,-493.25 188.14,-477.4 202.07,-490.37 223,-475.25 224.53,-474.14 226.05,-472.99 227.55,-471.81"/>
<polygon fill="none" stroke="#63b8ff" points="227.39,-471.95 229.33,-465 236.48,-464.12 234.55,-471.06 227.39,-471.95"/>
</a>
</g>
<text text-anchor="middle" x="194.62" y="-506.25" font-family="Helvetica,sans-Serif" font-size="10.00" fill="grey"> +subNodes</text>
</g>
<!-- Node4 -->
<g id="Node000004" class="node">
<title>Node4</title>
<g id="a_Node000004"><a xlink:href="classxeno__rat__client_1_1_socket_handler.html" target="_top" xlink:title=" ">
<polygon fill="white" stroke="none" points="639,-759 489,-759 489,-545 639,-545 639,-759"/>
<text text-anchor="start" x="497.25" y="-745.5" font-family="Helvetica,sans-Serif" font-size="10.00">xeno_rat_client.SocketHandler</text>
<text text-anchor="start" x="562.5" y="-730.5" font-family="Helvetica,sans-Serif" font-size="10.00"> </text>
<text text-anchor="start" x="493" y="-715.5" font-family="Helvetica,sans-Serif" font-size="10.00">+</text>
<text text-anchor="start" x="503" y="-715.5" font-family="Helvetica,sans-Serif" font-size="10.00">SocketHandler()</text>
<text text-anchor="start" x="493" y="-700.5" font-family="Helvetica,sans-Serif" font-size="10.00">+</text>
<text text-anchor="start" x="503" y="-700.5" font-family="Helvetica,sans-Serif" font-size="10.00">BTruncate()</text>
<text text-anchor="start" x="493" y="-685.5" font-family="Helvetica,sans-Serif" font-size="10.00">+</text>
<text text-anchor="start" x="503" y="-685.5" font-family="Helvetica,sans-Serif" font-size="10.00">SendAsync()</text>
<text text-anchor="start" x="493" y="-670.5" font-family="Helvetica,sans-Serif" font-size="10.00">+</text>
<text text-anchor="start" x="503" y="-670.5" font-family="Helvetica,sans-Serif" font-size="10.00">ReceiveAsync()</text>
<text text-anchor="start" x="493" y="-655.5" font-family="Helvetica,sans-Serif" font-size="10.00">+</text>
<text text-anchor="start" x="503" y="-655.5" font-family="Helvetica,sans-Serif" font-size="10.00">BytesToInt()</text>
<text text-anchor="start" x="493" y="-640.5" font-family="Helvetica,sans-Serif" font-size="10.00">+</text>
<text text-anchor="start" x="503" y="-640.5" font-family="Helvetica,sans-Serif" font-size="10.00">IntToBytes()</text>
<text text-anchor="start" x="493" y="-625.5" font-family="Helvetica,sans-Serif" font-size="10.00">+</text>
<text text-anchor="start" x="503" y="-625.5" font-family="Helvetica,sans-Serif" font-size="10.00">SetRecvTimeout()</text>
<text text-anchor="start" x="493" y="-610.5" font-family="Helvetica,sans-Serif" font-size="10.00">+</text>
<text text-anchor="start" x="503" y="-610.5" font-family="Helvetica,sans-Serif" font-size="10.00">ResetRecvTimeout()</text>
<text text-anchor="start" x="493" y="-595.5" font-family="Helvetica,sans-Serif" font-size="10.00">+</text>
<text text-anchor="start" x="503" y="-595.5" font-family="Helvetica,sans-Serif" font-size="10.00">Concat()</text>
<text text-anchor="start" x="494.5" y="-580.5" font-family="Helvetica,sans-Serif" font-size="10.00">&#45;</text>
<text text-anchor="start" x="503" y="-580.5" font-family="Helvetica,sans-Serif" font-size="10.00">RecvAllAsync_ddos_unsafer()</text>
<text text-anchor="start" x="494.5" y="-565.5" font-family="Helvetica,sans-Serif" font-size="10.00">&#45;</text>
<text text-anchor="start" x="503" y="-565.5" font-family="Helvetica,sans-Serif" font-size="10.00">RecvAllAsync_ddos_safer()</text>
<text text-anchor="start" x="494.5" y="-550.5" font-family="Helvetica,sans-Serif" font-size="10.00">&#45;</text>
<text text-anchor="start" x="503" y="-550.5" font-family="Helvetica,sans-Serif" font-size="10.00">ParseHeader()</text>
<polygon fill="#666666" stroke="#666666" points="489,-742 489,-742 639,-742 639,-742 489,-742"/>
<polygon fill="#666666" stroke="#666666" points="489,-727 489,-727 639,-727 639,-727 489,-727"/>
<polygon fill="none" stroke="#666666" points="489,-545 489,-759 639,-759 639,-545 489,-545"/>
</a>
</g>
</g>
<!-- Node4&#45;&gt;Node1 -->
<g id="edge3_Node000001_Node000004" class="edge">
<title>Node4&#45;&gt;Node1</title>
<g id="a_edge3_Node000001_Node000004"><a xlink:title=" ">
<path fill="none" stroke="#63b8ff" d="M560.47,-545.41C552.65,-454.68 529.51,-324.26 463,-232 439.93,-200 406.28,-172.38 375.61,-151.38"/>
<polygon fill="none" stroke="#63b8ff" points="375.64,-151.39 368.43,-151.39 365.66,-144.73 372.87,-144.74 375.64,-151.39"/>
</a>
</g>
<text text-anchor="middle" x="566" y="-364.38" font-family="Helvetica,sans-Serif" font-size="10.00" fill="grey"> +sock</text>
</g>
<!-- Node4&#45;&gt;Node8 -->
<g id="edge10_Node000008_Node000004" class="edge">
<title>Node4&#45;&gt;Node8</title>
<g id="a_edge10_Node000008_Node000004"><a xlink:title=" ">
<path fill="none" stroke="#63b8ff" d="M531.89,-545.2C523.36,-526.7 512.84,-508.52 500,-493.25 466.77,-453.76 417.65,-422.97 376.52,-401.95"/>
<polygon fill="none" stroke="#63b8ff" points="376.42,-401.9 369.27,-402.81 365.68,-396.55 372.84,-395.65 376.42,-401.9"/>
</a>
</g>
<text text-anchor="middle" x="535" y="-506.25" font-family="Helvetica,sans-Serif" font-size="10.00" fill="grey"> +sock</text>
</g>
<!-- Node5 -->
<g id="Node000005" class="node">
<title>Node5</title>
<g id="a_Node000005"><a xlink:title=" ">
<polygon fill="white" stroke="none" points="584,-855.25 544,-855.25 544,-806.25 584,-806.25 584,-855.25"/>
<text text-anchor="start" x="548.62" y="-841.75" font-family="Helvetica,sans-Serif" font-size="10.00">Socket</text>
<text text-anchor="start" x="562.5" y="-826.75" font-family="Helvetica,sans-Serif" font-size="10.00"> </text>
<text text-anchor="start" x="562.5" y="-811.75" font-family="Helvetica,sans-Serif" font-size="10.00"> </text>
<polygon fill="#666666" stroke="#666666" points="544,-838.25 544,-838.25 584,-838.25 584,-838.25 544,-838.25"/>
<polygon fill="#666666" stroke="#666666" points="544,-823.25 544,-823.25 584,-823.25 584,-823.25 544,-823.25"/>
<polygon fill="none" stroke="#666666" points="544,-806.25 544,-855.25 584,-855.25 584,-806.25 544,-806.25"/>
</a>
</g>
</g>
<!-- Node5&#45;&gt;Node4 -->
<g id="edge4_Node000004_Node000005" class="edge">
<title>Node5&#45;&gt;Node4</title>
<g id="a_edge4_Node000004_Node000005"><a xlink:title=" ">
<path fill="none" stroke="#63b8ff" d="M564,-806.28C564,-796.6 564,-784.61 564,-771.63"/>
<polygon fill="none" stroke="#63b8ff" points="564,-771.82 560,-765.82 564,-759.82 568,-765.82 564,-771.82"/>
</a>
</g>
<text text-anchor="middle" x="579" y="-778.75" font-family="Helvetica,sans-Serif" font-size="10.00" fill="grey"> +sock</text>
</g>
<!-- Node6 -->
<g id="Node000006" class="node">
<title>Node6</title>
<g id="a_Node000006"><a xlink:title=" ">
<polygon fill="white" stroke="none" points="631,-855.25 603,-855.25 603,-806.25 631,-806.25 631,-855.25"/>
<text text-anchor="start" x="607.62" y="-841.75" font-family="Helvetica,sans-Serif" font-size="10.00">byte</text>
<text text-anchor="start" x="615.5" y="-826.75" font-family="Helvetica,sans-Serif" font-size="10.00"> </text>
<text text-anchor="start" x="615.5" y="-811.75" font-family="Helvetica,sans-Serif" font-size="10.00"> </text>
<polygon fill="#666666" stroke="#666666" points="603,-838.25 603,-838.25 631,-838.25 631,-838.25 603,-838.25"/>
<polygon fill="#666666" stroke="#666666" points="603,-823.25 603,-823.25 631,-823.25 631,-823.25 603,-823.25"/>
<polygon fill="none" stroke="#666666" points="603,-806.25 603,-855.25 631,-855.25 631,-806.25 603,-806.25"/>
</a>
</g>
</g>
<!-- Node6&#45;&gt;Node4 -->
<g id="edge5_Node000004_Node000006" class="edge">
<title>Node6&#45;&gt;Node4</title>
<g id="a_edge5_Node000004_Node000006"><a xlink:title=" ">
<path fill="none" stroke="#63b8ff" d="M609.96,-806.28C607.03,-796.5 603.39,-784.36 599.45,-771.22"/>
<polygon fill="none" stroke="#63b8ff" points="599.47,-771.27 593.91,-766.68 596.02,-759.78 601.57,-764.38 599.47,-771.27"/>
</a>
</g>
<text text-anchor="middle" x="640.38" y="-778.75" font-family="Helvetica,sans-Serif" font-size="10.00" fill="grey"> +EncryptionKey</text>
</g>
<!-- Node7 -->
<g id="Node000007" class="node">
<title>Node7</title>
<g id="a_Node000007"><a xlink:title=" ">
<polygon fill="white" stroke="none" points="459,-855.25 439,-855.25 439,-806.25 459,-806.25 459,-855.25"/>
<text text-anchor="start" x="443.75" y="-841.75" font-family="Helvetica,sans-Serif" font-size="10.00">int</text>
<text text-anchor="start" x="447.5" y="-826.75" font-family="Helvetica,sans-Serif" font-size="10.00"> </text>
<text text-anchor="start" x="447.5" y="-811.75" font-family="Helvetica,sans-Serif" font-size="10.00"> </text>
<polygon fill="#666666" stroke="#666666" points="439,-838.25 439,-838.25 459,-838.25 459,-838.25 439,-838.25"/>
<polygon fill="#666666" stroke="#666666" points="439,-823.25 439,-823.25 459,-823.25 459,-823.25 439,-823.25"/>
<polygon fill="none" stroke="#666666" points="439,-806.25 439,-855.25 459,-855.25 459,-806.25 439,-806.25"/>
</a>
</g>
</g>
<!-- Node7&#45;&gt;Node1 -->
<g id="edge13_Node000001_Node000007" class="edge">
<title>Node7&#45;&gt;Node1</title>
<g id="a_edge13_Node000001_Node000007"><a xlink:title=" ">
<path fill="none" stroke="#63b8ff" d="M448.65,-806.53C447.02,-702.96 439.91,-287.06 430,-261.25 417.73,-229.29 395.83,-199.26 373.51,-174.39"/>
<polygon fill="none" stroke="#63b8ff" points="373.71,-174.6 366.7,-172.9 365.57,-165.78 372.58,-167.48 373.71,-174.6"/>
</a>
</g>
<text text-anchor="middle" x="466.75" y="-517.5" font-family="Helvetica,sans-Serif" font-size="10.00" fill="grey"> +ID</text>
<text text-anchor="middle" x="466.75" y="-506.25" font-family="Helvetica,sans-Serif" font-size="10.00" fill="grey">+SetId</text>
<text text-anchor="middle" x="466.75" y="-495" font-family="Helvetica,sans-Serif" font-size="10.00" fill="grey">+SockType</text>
</g>
<!-- Node7&#45;&gt;Node4 -->
<g id="edge6_Node000004_Node000007" class="edge">
<title>Node7&#45;&gt;Node4</title>
<g id="a_edge6_Node000004_Node000007"><a xlink:title=" ">
<path fill="none" stroke="#63b8ff" d="M458.8,-814.68C466.02,-803.58 476.58,-787.35 488.26,-769.4"/>
<polygon fill="none" stroke="#63b8ff" points="488.22,-769.47 488.14,-762.26 494.76,-759.41 494.84,-766.63 488.22,-769.47"/>
</a>
</g>
<text text-anchor="middle" x="511.62" y="-778.75" font-family="Helvetica,sans-Serif" font-size="10.00" fill="grey"> &#45;socktimeout</text>
</g>
<!-- Node7&#45;&gt;Node8 -->
<g id="edge12_Node000008_Node000007" class="edge">
<title>Node7&#45;&gt;Node8</title>
<g id="a_edge12_Node000008_Node000007"><a xlink:title=" ">
<path fill="none" stroke="#63b8ff" d="M439.11,-821.74C424.92,-809.68 399.02,-785.45 385.5,-759 342.13,-674.14 320.97,-567.87 310.67,-487.74"/>
<polygon fill="none" stroke="#63b8ff" points="310.7,-487.91 305.99,-482.45 309.22,-476.01 313.93,-481.47 310.7,-487.91"/>
</a>
</g>
<text text-anchor="middle" x="409.75" y="-659.38" font-family="Helvetica,sans-Serif" font-size="10.00" fill="grey"> +ID</text>
<text text-anchor="middle" x="409.75" y="-648.12" font-family="Helvetica,sans-Serif" font-size="10.00" fill="grey">+SetId</text>
<text text-anchor="middle" x="409.75" y="-636.88" font-family="Helvetica,sans-Serif" font-size="10.00" fill="grey">+SockType</text>
</g>
<!-- Node8&#45;&gt;Node1 -->
<g id="edge7_Node000001_Node000008" class="edge">
<title>Node8&#45;&gt;Node1</title>
<g id="a_edge7_Node000001_Node000008"><a xlink:title=" ">
<path fill="none" stroke="#63b8ff" d="M301,-261.43C301,-250.04 301,-238.39 301,-226.86"/>
<polygon fill="none" stroke="#63b8ff" points="301,-226.8 297,-220.8 301,-214.8 305,-220.8 301,-226.8"/>
</a>
</g>
<text text-anchor="middle" x="319.75" y="-233.75" font-family="Helvetica,sans-Serif" font-size="10.00" fill="grey"> +Parent</text>
</g>
<!-- Node8&#45;&gt;Node8 -->
<g id="edge11_Node000008_Node000008" class="edge">
<title>Node8&#45;&gt;Node8</title>
<g id="a_edge11_Node000008_Node000008"><a xlink:title=" ">
<path fill="none" stroke="#63b8ff" d="M364.95,-391.01C375.63,-387.83 383,-380.24 383,-368.25 383,-361.13 380.4,-355.56 376.05,-351.55"/>
<polygon fill="none" stroke="#63b8ff" points="376.27,-351.67 369.09,-352.3 365.74,-345.92 372.92,-345.28 376.27,-351.67"/>
</a>
</g>
<text text-anchor="middle" x="401.75" y="-364.38" font-family="Helvetica,sans-Serif" font-size="10.00" fill="grey"> +Parent</text>
</g>
</g>
</svg>

<g id="navigator" transform="translate(0 0)" fill="#404254">
  <rect fill="#f2f5e9" fill-opacity="0.5" stroke="#606060" stroke-width=".5" x="0" y="0" width="60" height="60"/>
  <use id="zoomplus" xlink:href="#zoomPlus" x="17" y="9" onmousedown="handleZoom(evt,'in')"/>
  <use id="zoomminus" xlink:href="#zoomMin" x="42" y="9" onmousedown="handleZoom(evt,'out')"/>
  <use id="reset" xlink:href="#resetDef" x="30" y="36" onmousedown="handleReset()"/>
   <use id="arrowup" xlink:href="#arrowUp" x="0" y="0" onmousedown="handlePan(0,-1)"/>
  <use id="arrowright" xlink:href="#arrowRight" x="0" y="0" onmousedown="handlePan(1,0)"/>
  <use id="arrowdown" xlink:href="#arrowDown" x="0" y="0" onmousedown="handlePan(0,1)"/>
  <use id="arrowleft" xlink:href="#arrowLeft" x="0" y="0" onmousedown="handlePan(-1,0)"/>
</g>
<svg viewBox="0 0 15 15" width="100%" height="30px" preserveAspectRatio="xMaxYMin meet">
 <g id="arrow_out" transform="scale(0.3 0.3)">
  <a xlink:href="classxeno__rat__client_1_1_node__coll__graph_org.svg" target="_base">
   <rect id="button" ry="5" rx="5" y="6" x="6" height="38" width="38"
        fill="#f2f5e9" fill-opacity="0.5" stroke="#606060" stroke-width="1.0"/>
   <path id="arrow"
     d="M 11.500037,31.436501 C 11.940474,20.09759 22.043105,11.32322 32.158766,21.979434 L 37.068811,17.246167 C 37.068811,17.246167 37.088388,32 37.088388,32 L 22.160133,31.978069 C 22.160133,31.978069 26.997745,27.140456 26.997745,27.140456 C 18.528582,18.264221 13.291696,25.230495 11.500037,31.436501 z"
     style="fill:#404040;"/>
  </a>
 </g>
</svg>

<style type='text/css'>
<![CDATA[
[data-mouse-over-selected='false'] { opacity: 0.7; }
[data-mouse-over-selected='true']  { opacity: 1.0; }
]]>
</style>
<script type="application/ecmascript"><![CDATA[
document.addEventListener('DOMContentLoaded', (event) => {
  highlightEdges();
  highlightAdjacentNodes();
});
]]></script>
</svg>
