<?xml version="1.0" encoding="UTF-8" standalone="no"?>
<!DOCTYPE svg PUBLIC "-//W3C//DTD SVG 1.1//EN"
 "http://www.w3.org/Graphics/SVG/1.1/DTD/svg11.dtd">
<!-- Generated by graphviz version 10.0.1 (20240210.2158)
 -->
<!-- Title: PictureBox Pages: 1 -->
<svg width="155pt" height="438pt"
 viewBox="0.00 0.00 155.00 438.00" xmlns="http://www.w3.org/2000/svg" xmlns:xlink="http://www.w3.org/1999/xlink">

<svg id="main" version="1.1" xmlns="http://www.w3.org/2000/svg" xmlns:xlink="http://www.w3.org/1999/xlink" xml:space="preserve" onload="init(evt)">
<style type="text/css"><![CDATA[
.node, .edge {opacity: 0.7;}
.node.selected, .edge.selected {opacity: 1;}
.edge:hover path { stroke: red; }
.edge:hover polygon { stroke: red; fill: red; }
]]></style>
<script type="application/ecmascript" xlink:href="svg.min.js"/>
<svg id="graph" class="graph">
<g id="graph0" class="graph" transform="scale(1 1) rotate(0) translate(4 434)">
<title>PictureBox</title>
<!-- Node1 -->
<g id="Node000001" class="node">
<title>Node1</title>
<g id="a_Node000001"><a xlink:title=" ">
<polygon fill="#999999" stroke="none" points="102.5,-430 44.5,-430 44.5,-381 102.5,-381 102.5,-430"/>
<text text-anchor="start" x="49.5" y="-416.5" font-family="Helvetica,sans-Serif" font-size="10.00">PictureBox</text>
<text text-anchor="start" x="72" y="-401.5" font-family="Helvetica,sans-Serif" font-size="10.00"> </text>
<text text-anchor="start" x="72" y="-386.5" font-family="Helvetica,sans-Serif" font-size="10.00"> </text>
<polygon fill="#666666" stroke="#666666" points="44.5,-413 44.5,-413 102.5,-413 102.5,-413 44.5,-413"/>
<polygon fill="#666666" stroke="#666666" points="44.5,-398 44.5,-398 102.5,-398 102.5,-398 44.5,-398"/>
<polygon fill="none" stroke="#666666" points="44.5,-381 44.5,-430 102.5,-430 102.5,-381 44.5,-381"/>
</a>
</g>
</g>
<!-- Node2 -->
<g id="Node000002" class="node">
<title>Node2</title>
<g id="a_Node000002"><a xlink:href="classxeno__rat__server_1_1_forms_1_1_custom_picture_box.html" target="_top" xlink:title=" ">
<polygon fill="white" stroke="none" points="147,-345 0,-345 0,0 147,0 147,-345"/>
<text text-anchor="start" x="4.88" y="-331.5" font-family="Helvetica,sans-Serif" font-size="10.00">xeno_rat_server.Forms.Custom</text>
<text text-anchor="start" x="49.5" y="-320.25" font-family="Helvetica,sans-Serif" font-size="10.00">PictureBox</text>
<text text-anchor="start" x="4.5" y="-305.5" font-family="Helvetica,sans-Serif" font-size="10.00">+</text>
<text text-anchor="start" x="15" y="-305.5" font-family="Helvetica,sans-Serif" font-size="10.00">CF_TEXT</text>
<text text-anchor="start" x="4.5" y="-290.5" font-family="Helvetica,sans-Serif" font-size="10.00">+</text>
<text text-anchor="start" x="15" y="-290.5" font-family="Helvetica,sans-Serif" font-size="10.00">CF_BITMAP</text>
<text text-anchor="start" x="4.5" y="-275.5" font-family="Helvetica,sans-Serif" font-size="10.00">+</text>
<text text-anchor="start" x="15" y="-275.5" font-family="Helvetica,sans-Serif" font-size="10.00">CF_UNICODETEXT</text>
<text text-anchor="start" x="4.5" y="-260.5" font-family="Helvetica,sans-Serif" font-size="10.00">+</text>
<text text-anchor="start" x="15" y="-260.5" font-family="Helvetica,sans-Serif" font-size="10.00">CF_HDROP</text>
<text text-anchor="start" x="6" y="-245.5" font-family="Helvetica,sans-Serif" font-size="10.00">&#45;</text>
<text text-anchor="start" x="15" y="-245.5" font-family="Helvetica,sans-Serif" font-size="10.00">client</text>
<text text-anchor="start" x="4.5" y="-230.5" font-family="Helvetica,sans-Serif" font-size="10.00">+</text>
<text text-anchor="start" x="15" y="-230.5" font-family="Helvetica,sans-Serif" font-size="10.00">CustomPictureBox()</text>
<text text-anchor="start" x="4.5" y="-215.5" font-family="Helvetica,sans-Serif" font-size="10.00">+</text>
<text text-anchor="start" x="15" y="-215.5" font-family="Helvetica,sans-Serif" font-size="10.00">GetKeyState()</text>
<text text-anchor="start" x="4.5" y="-200.5" font-family="Helvetica,sans-Serif" font-size="10.00">+</text>
<text text-anchor="start" x="15" y="-200.5" font-family="Helvetica,sans-Serif" font-size="10.00">IsClipboardFormatAvailable()</text>
<text text-anchor="start" x="4.5" y="-185.5" font-family="Helvetica,sans-Serif" font-size="10.00">+</text>
<text text-anchor="start" x="15" y="-185.5" font-family="Helvetica,sans-Serif" font-size="10.00">OpenClipboard()</text>
<text text-anchor="start" x="4.5" y="-170.5" font-family="Helvetica,sans-Serif" font-size="10.00">+</text>
<text text-anchor="start" x="15" y="-170.5" font-family="Helvetica,sans-Serif" font-size="10.00">GetClipboardData()</text>
<text text-anchor="start" x="4.5" y="-155.5" font-family="Helvetica,sans-Serif" font-size="10.00">+</text>
<text text-anchor="start" x="15" y="-155.5" font-family="Helvetica,sans-Serif" font-size="10.00">CloseClipboard()</text>
<text text-anchor="start" x="4.5" y="-140.5" font-family="Helvetica,sans-Serif" font-size="10.00">+</text>
<text text-anchor="start" x="15" y="-140.5" font-family="Helvetica,sans-Serif" font-size="10.00">ToAscii()</text>
<text text-anchor="start" x="4.5" y="-125.5" font-family="Helvetica,sans-Serif" font-size="10.00">+</text>
<text text-anchor="start" x="15" y="-125.5" font-family="Helvetica,sans-Serif" font-size="10.00">TranslateCoordinates()</text>
<text text-anchor="start" x="4.5" y="-110.5" font-family="Helvetica,sans-Serif" font-size="10.00">+</text>
<text text-anchor="start" x="15" y="-110.5" font-family="Helvetica,sans-Serif" font-size="10.00">TriggerWndProc()</text>
<text text-anchor="start" x="4.5" y="-95.5" font-family="Helvetica,sans-Serif" font-size="10.00">+</text>
<text text-anchor="start" x="15" y="-95.5" font-family="Helvetica,sans-Serif" font-size="10.00">GetClipboardFormat()</text>
<text text-anchor="start" x="4.5" y="-80.5" font-family="Helvetica,sans-Serif" font-size="10.00">+</text>
<text text-anchor="start" x="15" y="-80.5" font-family="Helvetica,sans-Serif" font-size="10.00">GetModifiedKey()</text>
<text text-anchor="start" x="4.5" y="-65.5" font-family="Helvetica,sans-Serif" font-size="10.00">+</text>
<text text-anchor="start" x="15" y="-65.5" font-family="Helvetica,sans-Serif" font-size="10.00">IsAlphaNumeric()</text>
<text text-anchor="start" x="4.88" y="-50.5" font-family="Helvetica,sans-Serif" font-size="10.00">#</text>
<text text-anchor="start" x="15" y="-50.5" font-family="Helvetica,sans-Serif" font-size="10.00">WndProc()</text>
<text text-anchor="start" x="6" y="-35.5" font-family="Helvetica,sans-Serif" font-size="10.00">&#45;</text>
<text text-anchor="start" x="15" y="-35.5" font-family="Helvetica,sans-Serif" font-size="10.00">VkKeyScan()</text>
<text text-anchor="start" x="6" y="-20.5" font-family="Helvetica,sans-Serif" font-size="10.00">&#45;</text>
<text text-anchor="start" x="15" y="-20.5" font-family="Helvetica,sans-Serif" font-size="10.00">UnzoomedAndAdjusted()</text>
<text text-anchor="start" x="6" y="-5.5" font-family="Helvetica,sans-Serif" font-size="10.00">&#45;</text>
<text text-anchor="start" x="15" y="-5.5" font-family="Helvetica,sans-Serif" font-size="10.00">GetImageDisplayRectangle()</text>
<polygon fill="#666666" stroke="#666666" points="0,-317 0,-317 147,-317 147,-317 0,-317"/>
<polygon fill="#666666" stroke="#666666" points="0,-242 0,-242 13,-242 13,-242 0,-242"/>
<polygon fill="#666666" stroke="#666666" points="13,-242 13,-242 147,-242 147,-242 13,-242"/>
<polygon fill="none" stroke="#666666" points="0,0 0,-345 147,-345 147,0 0,0"/>
</a>
</g>
</g>
<!-- Node1&#45;&gt;Node2 -->
<g id="edge1_Node000001_Node000002" class="edge">
<title>Node1&#45;&gt;Node2</title>
<g id="a_edge1_Node000001_Node000002"><a xlink:title=" ">
<path fill="none" stroke="#63b8ff" d="M73.5,-369.78C73.5,-362.32 73.5,-353.95 73.5,-344.99"/>
<polygon fill="none" stroke="#63b8ff" points="70,-369.57 73.5,-379.57 77,-369.57 70,-369.57"/>
</a>
</g>
</g>
</g>
</svg>
</svg>

<style type='text/css'>
<![CDATA[
[data-mouse-over-selected='false'] { opacity: 0.7; }
[data-mouse-over-selected='true']  { opacity: 1.0; }
]]>
</style>
<script type="application/ecmascript"><![CDATA[
document.addEventListener('DOMContentLoaded', (event) => {
  highlightEdges();
  highlightAdjacentNodes();
});
]]></script>
</svg>
