<?xml version="1.0" encoding="UTF-8" standalone="no"?>
<!DOCTYPE svg PUBLIC "-//W3C//DTD SVG 1.1//EN"
 "http://www.w3.org/Graphics/SVG/1.1/DTD/svg11.dtd">
<!-- Generated by graphviz version 10.0.1 (20240210.2158)
 -->
<!-- Title: NAudio.MediaFoundation.MediaFoundationApi Pages: 1 -->
<svg width="186pt" height="310pt"
 viewBox="0.00 0.00 186.00 310.25" xmlns="http://www.w3.org/2000/svg" xmlns:xlink="http://www.w3.org/1999/xlink">
<g id="graph0" class="graph" transform="scale(1 1) rotate(0) translate(4 306.25)">
<title>NAudio.MediaFoundation.MediaFoundationApi</title>
<!-- Node1 -->
<g id="Node000001" class="node">
<title>Node1</title>
<g id="a_Node000001"><a xlink:title="Main interface for using Media Foundation with NAudio.">
<polygon fill="#999999" stroke="none" points="178,-206 0,-206 0,0 178,0 178,-206"/>
<text text-anchor="start" x="19.62" y="-192.5" font-family="Helvetica,sans-Serif" font-size="10.00">NAudio.MediaFoundation.Media</text>
<text text-anchor="start" x="57.88" y="-181.25" font-family="Helvetica,sans-Serif" font-size="10.00">FoundationApi</text>
<text text-anchor="start" x="87.5" y="-166.5" font-family="Helvetica,sans-Serif" font-size="10.00"> </text>
<text text-anchor="start" x="4" y="-151.5" font-family="Helvetica,sans-Serif" font-size="10.00">+</text>
<text text-anchor="start" x="14" y="-151.5" font-family="Helvetica,sans-Serif" font-size="10.00">Startup()</text>
<text text-anchor="start" x="4" y="-136.5" font-family="Helvetica,sans-Serif" font-size="10.00">+</text>
<text text-anchor="start" x="14" y="-136.5" font-family="Helvetica,sans-Serif" font-size="10.00">EnumerateTransforms()</text>
<text text-anchor="start" x="4" y="-121.5" font-family="Helvetica,sans-Serif" font-size="10.00">+</text>
<text text-anchor="start" x="14" y="-121.5" font-family="Helvetica,sans-Serif" font-size="10.00">Shutdown()</text>
<text text-anchor="start" x="4" y="-106.5" font-family="Helvetica,sans-Serif" font-size="10.00">+</text>
<text text-anchor="start" x="14" y="-106.5" font-family="Helvetica,sans-Serif" font-size="10.00">CreateMediaType()</text>
<text text-anchor="start" x="4" y="-91.5" font-family="Helvetica,sans-Serif" font-size="10.00">+</text>
<text text-anchor="start" x="14" y="-91.5" font-family="Helvetica,sans-Serif" font-size="10.00">CreateMediaTypeFromWaveFormat()</text>
<text text-anchor="start" x="4" y="-76.5" font-family="Helvetica,sans-Serif" font-size="10.00">+</text>
<text text-anchor="start" x="14" y="-76.5" font-family="Helvetica,sans-Serif" font-size="10.00">CreateMemoryBuffer()</text>
<text text-anchor="start" x="4" y="-61.5" font-family="Helvetica,sans-Serif" font-size="10.00">+</text>
<text text-anchor="start" x="14" y="-61.5" font-family="Helvetica,sans-Serif" font-size="10.00">CreateSample()</text>
<text text-anchor="start" x="4" y="-46.5" font-family="Helvetica,sans-Serif" font-size="10.00">+</text>
<text text-anchor="start" x="14" y="-46.5" font-family="Helvetica,sans-Serif" font-size="10.00">CreateAttributes()</text>
<text text-anchor="start" x="4" y="-31.5" font-family="Helvetica,sans-Serif" font-size="10.00">+</text>
<text text-anchor="start" x="14" y="-31.5" font-family="Helvetica,sans-Serif" font-size="10.00">CreateByteStream()</text>
<text text-anchor="start" x="4" y="-16.5" font-family="Helvetica,sans-Serif" font-size="10.00">+</text>
<text text-anchor="start" x="14" y="-16.5" font-family="Helvetica,sans-Serif" font-size="10.00">CreateSourceReaderFromByte</text>
<text text-anchor="start" x="14" y="-5.25" font-family="Helvetica,sans-Serif" font-size="10.00">Stream()</text>
<polygon fill="#666666" stroke="#666666" points="0,-178 0,-178 178,-178 178,-178 0,-178"/>
<polygon fill="#666666" stroke="#666666" points="0,-163 0,-163 178,-163 178,-163 0,-163"/>
<polygon fill="none" stroke="#666666" points="0,0 0,-206 178,-206 178,0 0,0"/>
</a>
</g>
</g>
<!-- Node2 -->
<g id="Node000002" class="node">
<title>Node2</title>
<g id="a_Node000002"><a xlink:title=" ">
<polygon fill="white" stroke="none" points="106,-302.25 72,-302.25 72,-253.25 106,-253.25 106,-302.25"/>
<text text-anchor="start" x="77" y="-288.75" font-family="Helvetica,sans-Serif" font-size="10.00">static</text>
<text text-anchor="start" x="87.5" y="-273.75" font-family="Helvetica,sans-Serif" font-size="10.00"> </text>
<text text-anchor="start" x="87.5" y="-258.75" font-family="Helvetica,sans-Serif" font-size="10.00"> </text>
<polygon fill="#666666" stroke="#666666" points="72,-285.25 72,-285.25 106,-285.25 106,-285.25 72,-285.25"/>
<polygon fill="#666666" stroke="#666666" points="72,-270.25 72,-270.25 106,-270.25 106,-270.25 72,-270.25"/>
<polygon fill="none" stroke="#666666" points="72,-253.25 72,-302.25 106,-302.25 106,-253.25 72,-253.25"/>
</a>
</g>
</g>
<!-- Node2&#45;&gt;Node1 -->
<g id="edge1_Node000001_Node000002" class="edge">
<title>Node2&#45;&gt;Node1</title>
<g id="a_edge1_Node000001_Node000002"><a xlink:title=" ">
<path fill="none" stroke="#63b8ff" d="M89,-253.45C89,-243.68 89,-231.54 89,-218.44"/>
<polygon fill="none" stroke="#63b8ff" points="89,-218.52 85,-212.52 89,-206.52 93,-212.52 89,-218.52"/>
</a>
</g>
<text text-anchor="middle" x="112.25" y="-225.75" font-family="Helvetica,sans-Serif" font-size="10.00" fill="grey"> &#45;initialized</text>
</g>
</g>
</svg>
