<?xml version="1.0" encoding="UTF-8" standalone="no"?>
<!DOCTYPE svg PUBLIC "-//W3C//DTD SVG 1.1//EN"
 "http://www.w3.org/Graphics/SVG/1.1/DTD/svg11.dtd">
<!-- Generated by graphviz version 10.0.1 (20240210.2158)
 -->
<!-- Title: xeno_rat_server.Forms.KeyLogger Pages: 1 -->
<svg width="1144pt" height="998pt"
 viewBox="0.00 0.00 1143.50 998.00" xmlns="http://www.w3.org/2000/svg" xmlns:xlink="http://www.w3.org/1999/xlink">
<g id="graph0" class="graph" transform="scale(1 1) rotate(0) translate(4 994)">
<title>xeno_rat_server.Forms.KeyLogger</title>
<!-- Node1 -->
<g id="Node000001" class="node">
<title>Node1</title>
<g id="a_Node000001"><a xlink:title=" ">
<polygon fill="#999999" stroke="none" points="847.5,-225 677.5,-225 677.5,0 847.5,0 847.5,-225"/>
<text text-anchor="start" x="702.5" y="-211.5" font-family="Helvetica,sans-Serif" font-size="10.00">xeno_rat_server.Forms.Key</text>
<text text-anchor="start" x="747.88" y="-200.25" font-family="Helvetica,sans-Serif" font-size="10.00">Logger</text>
<text text-anchor="start" x="761" y="-185.5" font-family="Helvetica,sans-Serif" font-size="10.00"> </text>
<text text-anchor="start" x="681.5" y="-170.5" font-family="Helvetica,sans-Serif" font-size="10.00">+</text>
<text text-anchor="start" x="691.5" y="-170.5" font-family="Helvetica,sans-Serif" font-size="10.00">KeyLogger()</text>
<text text-anchor="start" x="681.5" y="-155.5" font-family="Helvetica,sans-Serif" font-size="10.00">+</text>
<text text-anchor="start" x="691.5" y="-155.5" font-family="Helvetica,sans-Serif" font-size="10.00">recvThread()</text>
<text text-anchor="start" x="681.5" y="-140.5" font-family="Helvetica,sans-Serif" font-size="10.00">+</text>
<text text-anchor="start" x="691.5" y="-140.5" font-family="Helvetica,sans-Serif" font-size="10.00">Normalize()</text>
<text text-anchor="start" x="681.88" y="-125.5" font-family="Helvetica,sans-Serif" font-size="10.00">#</text>
<text text-anchor="start" x="691.5" y="-125.5" font-family="Helvetica,sans-Serif" font-size="10.00">Dispose()</text>
<text text-anchor="start" x="683" y="-110.5" font-family="Helvetica,sans-Serif" font-size="10.00">&#45;</text>
<text text-anchor="start" x="691.5" y="-110.5" font-family="Helvetica,sans-Serif" font-size="10.00">textBox1_TextChanged()</text>
<text text-anchor="start" x="683" y="-95.5" font-family="Helvetica,sans-Serif" font-size="10.00">&#45;</text>
<text text-anchor="start" x="691.5" y="-95.5" font-family="Helvetica,sans-Serif" font-size="10.00">listView1_SelectedIndexChanged()</text>
<text text-anchor="start" x="683" y="-80.5" font-family="Helvetica,sans-Serif" font-size="10.00">&#45;</text>
<text text-anchor="start" x="691.5" y="-80.5" font-family="Helvetica,sans-Serif" font-size="10.00">KeyLogger_Load()</text>
<text text-anchor="start" x="683" y="-65.5" font-family="Helvetica,sans-Serif" font-size="10.00">&#45;</text>
<text text-anchor="start" x="691.5" y="-65.5" font-family="Helvetica,sans-Serif" font-size="10.00">listView1_ItemActivate()</text>
<text text-anchor="start" x="683" y="-50.5" font-family="Helvetica,sans-Serif" font-size="10.00">&#45;</text>
<text text-anchor="start" x="691.5" y="-50.5" font-family="Helvetica,sans-Serif" font-size="10.00">label1_Click()</text>
<text text-anchor="start" x="683" y="-35.5" font-family="Helvetica,sans-Serif" font-size="10.00">&#45;</text>
<text text-anchor="start" x="691.5" y="-35.5" font-family="Helvetica,sans-Serif" font-size="10.00">label2_Click()</text>
<text text-anchor="start" x="683" y="-20.5" font-family="Helvetica,sans-Serif" font-size="10.00">&#45;</text>
<text text-anchor="start" x="691.5" y="-20.5" font-family="Helvetica,sans-Serif" font-size="10.00">textBox1_TextChanged_1()</text>
<text text-anchor="start" x="683" y="-5.5" font-family="Helvetica,sans-Serif" font-size="10.00">&#45;</text>
<text text-anchor="start" x="691.5" y="-5.5" font-family="Helvetica,sans-Serif" font-size="10.00">InitializeComponent()</text>
<polygon fill="#666666" stroke="#666666" points="677.5,-197 677.5,-197 847.5,-197 847.5,-197 677.5,-197"/>
<polygon fill="#666666" stroke="#666666" points="677.5,-182 677.5,-182 847.5,-182 847.5,-182 677.5,-182"/>
<polygon fill="none" stroke="#666666" points="677.5,0 677.5,-225 847.5,-225 847.5,0 677.5,0"/>
</a>
</g>
</g>
<!-- Node2 -->
<g id="Node000002" class="node">
<title>Node2</title>
<g id="a_Node000002"><a xlink:href="class_form.html" target="_top" xlink:title=" ">
<polygon fill="white" stroke="none" points="509.5,-505 477.5,-505 477.5,-456 509.5,-456 509.5,-505"/>
<text text-anchor="start" x="482.25" y="-491.5" font-family="Helvetica,sans-Serif" font-size="10.00">Form</text>
<text text-anchor="start" x="492" y="-476.5" font-family="Helvetica,sans-Serif" font-size="10.00"> </text>
<text text-anchor="start" x="492" y="-461.5" font-family="Helvetica,sans-Serif" font-size="10.00"> </text>
<polygon fill="#666666" stroke="#666666" points="477.5,-488 477.5,-488 509.5,-488 509.5,-488 477.5,-488"/>
<polygon fill="#666666" stroke="#666666" points="477.5,-473 477.5,-473 509.5,-473 509.5,-473 477.5,-473"/>
<polygon fill="none" stroke="#666666" points="477.5,-456 477.5,-505 509.5,-505 509.5,-456 477.5,-456"/>
</a>
</g>
</g>
<!-- Node2&#45;&gt;Node1 -->
<g id="edge1_Node000001_Node000002" class="edge">
<title>Node2&#45;&gt;Node1</title>
<g id="a_edge1_Node000001_Node000002"><a xlink:title=" ">
<path fill="none" stroke="#63b8ff" d="M492.77,-444.74C493.54,-412.66 498.45,-364.66 518.5,-328.5 556.01,-260.85 623.25,-204.04 677.66,-165.83"/>
<polygon fill="none" stroke="#63b8ff" points="489.27,-444.65 492.67,-454.68 496.27,-444.72 489.27,-444.65"/>
</a>
</g>
</g>
<!-- Node3 -->
<g id="Node000003" class="node">
<title>Node3</title>
<g id="a_Node000003"><a xlink:href="classxeno__rat__server_1_1_node.html" target="_top" xlink:title=" ">
<polygon fill="white" stroke="none" points="675,-632.5 528,-632.5 528,-328.5 675,-328.5 675,-632.5"/>
<text text-anchor="start" x="553.88" y="-619" font-family="Helvetica,sans-Serif" font-size="10.00">xeno_rat_server.Node</text>
<text text-anchor="start" x="600" y="-604" font-family="Helvetica,sans-Serif" font-size="10.00"> </text>
<text text-anchor="start" x="532" y="-589" font-family="Helvetica,sans-Serif" font-size="10.00">+</text>
<text text-anchor="start" x="542" y="-589" font-family="Helvetica,sans-Serif" font-size="10.00">Node()</text>
<text text-anchor="start" x="532" y="-574" font-family="Helvetica,sans-Serif" font-size="10.00">+</text>
<text text-anchor="start" x="542" y="-574" font-family="Helvetica,sans-Serif" font-size="10.00">SetID()</text>
<text text-anchor="start" x="532" y="-559" font-family="Helvetica,sans-Serif" font-size="10.00">+</text>
<text text-anchor="start" x="542" y="-559" font-family="Helvetica,sans-Serif" font-size="10.00">Disconnect()</text>
<text text-anchor="start" x="532" y="-544" font-family="Helvetica,sans-Serif" font-size="10.00">+</text>
<text text-anchor="start" x="542" y="-544" font-family="Helvetica,sans-Serif" font-size="10.00">SetRecvTimeout()</text>
<text text-anchor="start" x="532" y="-529" font-family="Helvetica,sans-Serif" font-size="10.00">+</text>
<text text-anchor="start" x="542" y="-529" font-family="Helvetica,sans-Serif" font-size="10.00">ResetRecvTimeout()</text>
<text text-anchor="start" x="532" y="-514" font-family="Helvetica,sans-Serif" font-size="10.00">+</text>
<text text-anchor="start" x="542" y="-514" font-family="Helvetica,sans-Serif" font-size="10.00">Connected()</text>
<text text-anchor="start" x="532" y="-499" font-family="Helvetica,sans-Serif" font-size="10.00">+</text>
<text text-anchor="start" x="542" y="-499" font-family="Helvetica,sans-Serif" font-size="10.00">ReceiveAsync()</text>
<text text-anchor="start" x="532" y="-484" font-family="Helvetica,sans-Serif" font-size="10.00">+</text>
<text text-anchor="start" x="542" y="-484" font-family="Helvetica,sans-Serif" font-size="10.00">SendAsync()</text>
<text text-anchor="start" x="532" y="-469" font-family="Helvetica,sans-Serif" font-size="10.00">+</text>
<text text-anchor="start" x="542" y="-469" font-family="Helvetica,sans-Serif" font-size="10.00">GetIp()</text>
<text text-anchor="start" x="532" y="-454" font-family="Helvetica,sans-Serif" font-size="10.00">+</text>
<text text-anchor="start" x="542" y="-454" font-family="Helvetica,sans-Serif" font-size="10.00">CreateSubNodeAsync()</text>
<text text-anchor="start" x="532" y="-439" font-family="Helvetica,sans-Serif" font-size="10.00">+</text>
<text text-anchor="start" x="542" y="-439" font-family="Helvetica,sans-Serif" font-size="10.00">AddTempOnDisconnect()</text>
<text text-anchor="start" x="532" y="-424" font-family="Helvetica,sans-Serif" font-size="10.00">+</text>
<text text-anchor="start" x="542" y="-424" font-family="Helvetica,sans-Serif" font-size="10.00">RemoveTempOnDisconnect()</text>
<text text-anchor="start" x="532" y="-409" font-family="Helvetica,sans-Serif" font-size="10.00">+</text>
<text text-anchor="start" x="542" y="-409" font-family="Helvetica,sans-Serif" font-size="10.00">AddSubNode()</text>
<text text-anchor="start" x="532" y="-394" font-family="Helvetica,sans-Serif" font-size="10.00">+</text>
<text text-anchor="start" x="542" y="-394" font-family="Helvetica,sans-Serif" font-size="10.00">AuthenticateAsync()</text>
<text text-anchor="start" x="533.5" y="-379" font-family="Helvetica,sans-Serif" font-size="10.00">&#45;</text>
<text text-anchor="start" x="542" y="-379" font-family="Helvetica,sans-Serif" font-size="10.00">memcmp()</text>
<text text-anchor="start" x="533.5" y="-364" font-family="Helvetica,sans-Serif" font-size="10.00">&#45;</text>
<text text-anchor="start" x="542" y="-364" font-family="Helvetica,sans-Serif" font-size="10.00">GetByteArray()</text>
<text text-anchor="start" x="533.5" y="-349" font-family="Helvetica,sans-Serif" font-size="10.00">&#45;</text>
<text text-anchor="start" x="542" y="-349" font-family="Helvetica,sans-Serif" font-size="10.00">ByteArrayCompare()</text>
<text text-anchor="start" x="533.5" y="-334" font-family="Helvetica,sans-Serif" font-size="10.00">&#45;</text>
<text text-anchor="start" x="542" y="-334" font-family="Helvetica,sans-Serif" font-size="10.00">GetSocketType()</text>
<polygon fill="#666666" stroke="#666666" points="528,-615.5 528,-615.5 675,-615.5 675,-615.5 528,-615.5"/>
<polygon fill="#666666" stroke="#666666" points="528,-600.5 528,-600.5 675,-600.5 675,-600.5 528,-600.5"/>
<polygon fill="none" stroke="#666666" points="528,-328.5 528,-632.5 675,-632.5 675,-328.5 528,-328.5"/>
</a>
</g>
</g>
<!-- Node3&#45;&gt;Node1 -->
<g id="edge2_Node000001_Node000003" class="edge">
<title>Node3&#45;&gt;Node1</title>
<g id="a_edge2_Node000001_Node000003"><a xlink:title=" ">
<path fill="none" stroke="#63b8ff" d="M667.91,-328.52C681.37,-297.93 695.37,-266.1 708.35,-236.6"/>
<polygon fill="none" stroke="#63b8ff" points="708.26,-236.8 707.02,-229.7 713.09,-225.81 714.34,-232.92 708.26,-236.8"/>
</a>
</g>
<text text-anchor="middle" x="715.12" y="-272.88" font-family="Helvetica,sans-Serif" font-size="10.00" fill="grey"> &#45;client</text>
</g>
<!-- Node3&#45;&gt;Node3 -->
<g id="edge14_Node000003_Node000003" class="edge">
<title>Node3&#45;&gt;Node3</title>
<g id="a_edge14_Node000003_Node000003"><a xlink:title=" ">
<path fill="none" stroke="#63b8ff" d="M674.73,-510.37C685.63,-505.72 693,-495.76 693,-480.5 693,-470.96 690.12,-463.49 685.3,-458.1"/>
<polygon fill="none" stroke="#63b8ff" points="685.26,-458.07 678.05,-457.88 675.46,-451.15 682.67,-451.34 685.26,-458.07"/>
</a>
</g>
<text text-anchor="middle" x="711.75" y="-476.62" font-family="Helvetica,sans-Serif" font-size="10.00" fill="grey"> +Parent</text>
</g>
<!-- Node4 -->
<g id="Node000004" class="node">
<title>Node4</title>
<g id="a_Node000004"><a xlink:title=" ">
<polygon fill="white" stroke="none" points="79,-811.25 0,-811.25 0,-762.25 79,-762.25 79,-811.25"/>
<text text-anchor="start" x="5" y="-797.75" font-family="Helvetica,sans-Serif" font-size="10.00">SemaphoreSlim</text>
<text text-anchor="start" x="38" y="-782.75" font-family="Helvetica,sans-Serif" font-size="10.00"> </text>
<text text-anchor="start" x="38" y="-767.75" font-family="Helvetica,sans-Serif" font-size="10.00"> </text>
<polygon fill="#666666" stroke="#666666" points="0,-794.25 0,-794.25 79,-794.25 79,-794.25 0,-794.25"/>
<polygon fill="#666666" stroke="#666666" points="0,-779.25 0,-779.25 79,-779.25 79,-779.25 0,-779.25"/>
<polygon fill="none" stroke="#666666" points="0,-762.25 0,-811.25 79,-811.25 79,-762.25 0,-762.25"/>
</a>
</g>
</g>
<!-- Node4&#45;&gt;Node3 -->
<g id="edge3_Node000003_Node000004" class="edge">
<title>Node4&#45;&gt;Node3</title>
<g id="a_edge3_Node000003_Node000004"><a xlink:title=" ">
<path fill="none" stroke="#63b8ff" d="M31.12,-762.29C21.98,-732.05 12.19,-679.88 40.75,-650.5 75.75,-614.49 431.11,-655.41 516.14,-630.81"/>
<polygon fill="none" stroke="#63b8ff" points="516.15,-630.8 520.16,-624.8 527.23,-626.2 523.23,-632.19 516.15,-630.8"/>
</a>
</g>
<text text-anchor="middle" x="89.88" y="-652.25" font-family="Helvetica,sans-Serif" font-size="10.00" fill="grey"> &#45;OneRecieveAtATime</text>
</g>
<!-- Node5 -->
<g id="Node000005" class="node">
<title>Node5</title>
<g id="a_Node000005"><a xlink:title=" ">
<polygon fill="white" stroke="none" points="182.5,-990 154.5,-990 154.5,-941 182.5,-941 182.5,-990"/>
<text text-anchor="start" x="159.5" y="-976.5" font-family="Helvetica,sans-Serif" font-size="10.00">bool</text>
<text text-anchor="start" x="167" y="-961.5" font-family="Helvetica,sans-Serif" font-size="10.00"> </text>
<text text-anchor="start" x="167" y="-946.5" font-family="Helvetica,sans-Serif" font-size="10.00"> </text>
<polygon fill="#666666" stroke="#666666" points="154.5,-973 154.5,-973 182.5,-973 182.5,-973 154.5,-973"/>
<polygon fill="#666666" stroke="#666666" points="154.5,-958 154.5,-958 182.5,-958 182.5,-958 154.5,-958"/>
<polygon fill="none" stroke="#666666" points="154.5,-941 154.5,-990 182.5,-990 182.5,-941 154.5,-941"/>
</a>
</g>
</g>
<!-- Node5&#45;&gt;Node3 -->
<g id="edge4_Node000003_Node000005" class="edge">
<title>Node5&#45;&gt;Node3</title>
<g id="a_edge4_Node000003_Node000005"><a xlink:title=" ">
<path fill="none" stroke="#63b8ff" d="M163.48,-941.01C153.37,-886.65 137.14,-751.35 207.75,-679.75 254.31,-632.54 440.87,-668.41 516.87,-631.61"/>
<polygon fill="none" stroke="#63b8ff" points="516.94,-631.57 520.1,-625.09 527.3,-625.52 524.14,-632 516.94,-631.57"/>
</a>
</g>
<text text-anchor="middle" x="237.38" y="-782.88" font-family="Helvetica,sans-Serif" font-size="10.00" fill="grey"> +isDisposed</text>
</g>
<!-- Node10 -->
<g id="Node000010" class="node">
<title>Node10</title>
<g id="a_Node000010"><a xlink:href="classxeno__rat__server_1_1_socket_handler.html" target="_top" xlink:title=" ">
<polygon fill="white" stroke="none" points="424.5,-893.75 274.5,-893.75 274.5,-679.75 424.5,-679.75 424.5,-893.75"/>
<text text-anchor="start" x="281.25" y="-880.25" font-family="Helvetica,sans-Serif" font-size="10.00">xeno_rat_server.SocketHandler</text>
<text text-anchor="start" x="348" y="-865.25" font-family="Helvetica,sans-Serif" font-size="10.00"> </text>
<text text-anchor="start" x="278.5" y="-850.25" font-family="Helvetica,sans-Serif" font-size="10.00">+</text>
<text text-anchor="start" x="288.5" y="-850.25" font-family="Helvetica,sans-Serif" font-size="10.00">SocketHandler()</text>
<text text-anchor="start" x="278.5" y="-835.25" font-family="Helvetica,sans-Serif" font-size="10.00">+</text>
<text text-anchor="start" x="288.5" y="-835.25" font-family="Helvetica,sans-Serif" font-size="10.00">SendAsync()</text>
<text text-anchor="start" x="278.5" y="-820.25" font-family="Helvetica,sans-Serif" font-size="10.00">+</text>
<text text-anchor="start" x="288.5" y="-820.25" font-family="Helvetica,sans-Serif" font-size="10.00">ReceiveAsync()</text>
<text text-anchor="start" x="278.5" y="-805.25" font-family="Helvetica,sans-Serif" font-size="10.00">+</text>
<text text-anchor="start" x="288.5" y="-805.25" font-family="Helvetica,sans-Serif" font-size="10.00">Concat()</text>
<text text-anchor="start" x="278.5" y="-790.25" font-family="Helvetica,sans-Serif" font-size="10.00">+</text>
<text text-anchor="start" x="288.5" y="-790.25" font-family="Helvetica,sans-Serif" font-size="10.00">BTruncate()</text>
<text text-anchor="start" x="278.5" y="-775.25" font-family="Helvetica,sans-Serif" font-size="10.00">+</text>
<text text-anchor="start" x="288.5" y="-775.25" font-family="Helvetica,sans-Serif" font-size="10.00">BytesToInt()</text>
<text text-anchor="start" x="278.5" y="-760.25" font-family="Helvetica,sans-Serif" font-size="10.00">+</text>
<text text-anchor="start" x="288.5" y="-760.25" font-family="Helvetica,sans-Serif" font-size="10.00">IntToBytes()</text>
<text text-anchor="start" x="278.5" y="-745.25" font-family="Helvetica,sans-Serif" font-size="10.00">+</text>
<text text-anchor="start" x="288.5" y="-745.25" font-family="Helvetica,sans-Serif" font-size="10.00">SetRecvTimeout()</text>
<text text-anchor="start" x="278.5" y="-730.25" font-family="Helvetica,sans-Serif" font-size="10.00">+</text>
<text text-anchor="start" x="288.5" y="-730.25" font-family="Helvetica,sans-Serif" font-size="10.00">ResetRecvTimeout()</text>
<text text-anchor="start" x="280" y="-715.25" font-family="Helvetica,sans-Serif" font-size="10.00">&#45;</text>
<text text-anchor="start" x="288.5" y="-715.25" font-family="Helvetica,sans-Serif" font-size="10.00">RecvAllAsync_ddos_unsafer()</text>
<text text-anchor="start" x="280" y="-700.25" font-family="Helvetica,sans-Serif" font-size="10.00">&#45;</text>
<text text-anchor="start" x="288.5" y="-700.25" font-family="Helvetica,sans-Serif" font-size="10.00">RecvAllAsync_ddos_safer()</text>
<text text-anchor="start" x="280" y="-685.25" font-family="Helvetica,sans-Serif" font-size="10.00">&#45;</text>
<text text-anchor="start" x="288.5" y="-685.25" font-family="Helvetica,sans-Serif" font-size="10.00">ParseHeader()</text>
<polygon fill="#666666" stroke="#666666" points="274.5,-876.75 274.5,-876.75 424.5,-876.75 424.5,-876.75 274.5,-876.75"/>
<polygon fill="#666666" stroke="#666666" points="274.5,-861.75 274.5,-861.75 424.5,-861.75 424.5,-861.75 274.5,-861.75"/>
<polygon fill="none" stroke="#666666" points="274.5,-679.75 274.5,-893.75 424.5,-893.75 424.5,-679.75 274.5,-679.75"/>
</a>
</g>
</g>
<!-- Node5&#45;&gt;Node10 -->
<g id="edge13_Node000010_Node000005" class="edge">
<title>Node5&#45;&gt;Node10</title>
<g id="a_edge13_Node000010_Node000005"><a xlink:title=" ">
<path fill="none" stroke="#63b8ff" d="M182.36,-948.48C191.71,-937.85 204.45,-923.71 216.25,-911.75 231.88,-895.9 249.01,-879.38 265.61,-863.76"/>
<polygon fill="none" stroke="#63b8ff" points="265.35,-864.01 267,-856.99 274.11,-855.81 272.47,-862.83 265.35,-864.01"/>
</a>
</g>
<text text-anchor="middle" x="261.12" y="-913.5" font-family="Helvetica,sans-Serif" font-size="10.00" fill="grey"> &#45;doProtocolUpgrade</text>
</g>
<!-- Node6 -->
<g id="Node000006" class="node">
<title>Node6</title>
<g id="a_Node000006"><a xlink:title=" ">
<polygon fill="white" stroke="none" points="739.5,-816.75 621.5,-816.75 621.5,-756.75 739.5,-756.75 739.5,-816.75"/>
<text text-anchor="start" x="626.12" y="-803.25" font-family="Helvetica,sans-Serif" font-size="10.00">Action&lt; xeno_rat_server.</text>
<text text-anchor="start" x="664.38" y="-792" font-family="Helvetica,sans-Serif" font-size="10.00">Node &gt;</text>
<text text-anchor="start" x="679" y="-777.25" font-family="Helvetica,sans-Serif" font-size="10.00"> </text>
<text text-anchor="start" x="679" y="-762.25" font-family="Helvetica,sans-Serif" font-size="10.00"> </text>
<polygon fill="#666666" stroke="#666666" points="621.5,-788.75 621.5,-788.75 739.5,-788.75 739.5,-788.75 621.5,-788.75"/>
<polygon fill="#666666" stroke="#666666" points="621.5,-773.75 621.5,-773.75 739.5,-773.75 739.5,-773.75 621.5,-773.75"/>
<polygon fill="none" stroke="#666666" points="621.5,-756.75 621.5,-816.75 739.5,-816.75 739.5,-756.75 621.5,-756.75"/>
</a>
</g>
</g>
<!-- Node6&#45;&gt;Node3 -->
<g id="edge5_Node000003_Node000006" class="edge">
<title>Node6&#45;&gt;Node3</title>
<g id="a_edge5_Node000003_Node000006"><a xlink:title=" ">
<path fill="none" stroke="#63b8ff" d="M673,-756.85C666.06,-730.13 655.15,-688.13 643.93,-644.9"/>
<polygon fill="none" stroke="#63b8ff" points="643.92,-644.87 638.54,-640.07 640.9,-633.26 646.28,-638.06 643.92,-644.87"/>
</a>
</g>
<text text-anchor="middle" x="682.62" y="-652.25" font-family="Helvetica,sans-Serif" font-size="10.00" fill="grey"> &#45;OnDisconnect</text>
</g>
<!-- Node7 -->
<g id="Node000007" class="node">
<title>Node7</title>
<g id="a_Node000007"><a xlink:title=" ">
<polygon fill="white" stroke="none" points="859.5,-816.75 757.5,-816.75 757.5,-756.75 859.5,-756.75 859.5,-816.75"/>
<text text-anchor="start" x="762.38" y="-803.25" font-family="Helvetica,sans-Serif" font-size="10.00">List&lt; Action&lt; xeno</text>
<text text-anchor="start" x="762.38" y="-792" font-family="Helvetica,sans-Serif" font-size="10.00">_rat_server.Node &gt; &gt;</text>
<text text-anchor="start" x="807" y="-777.25" font-family="Helvetica,sans-Serif" font-size="10.00"> </text>
<text text-anchor="start" x="807" y="-762.25" font-family="Helvetica,sans-Serif" font-size="10.00"> </text>
<polygon fill="#666666" stroke="#666666" points="757.5,-788.75 757.5,-788.75 859.5,-788.75 859.5,-788.75 757.5,-788.75"/>
<polygon fill="#666666" stroke="#666666" points="757.5,-773.75 757.5,-773.75 859.5,-773.75 859.5,-773.75 757.5,-773.75"/>
<polygon fill="none" stroke="#666666" points="757.5,-756.75 757.5,-816.75 859.5,-816.75 859.5,-756.75 757.5,-756.75"/>
</a>
</g>
</g>
<!-- Node7&#45;&gt;Node3 -->
<g id="edge6_Node000003_Node000007" class="edge">
<title>Node7&#45;&gt;Node3</title>
<g id="a_edge6_Node000003_Node000007"><a xlink:title=" ">
<path fill="none" stroke="#63b8ff" d="M793.38,-756.84C781.77,-735.21 764.98,-705.1 748.5,-679.75 728.23,-648.58 704.82,-615.77 682.71,-586"/>
<polygon fill="none" stroke="#63b8ff" points="682.67,-585.95 675.88,-583.53 675.5,-576.33 682.29,-578.75 682.67,-585.95"/>
</a>
</g>
<text text-anchor="middle" x="782.25" y="-652.25" font-family="Helvetica,sans-Serif" font-size="10.00" fill="grey"> &#45;TempOnDisconnects</text>
</g>
<!-- Node8 -->
<g id="Node000008" class="node">
<title>Node8</title>
<g id="a_Node000008"><a xlink:title=" ">
<polygon fill="white" stroke="none" points="1017,-811.25 878,-811.25 878,-762.25 1017,-762.25 1017,-811.25"/>
<text text-anchor="start" x="883" y="-797.75" font-family="Helvetica,sans-Serif" font-size="10.00">List&lt; xeno_rat_server.Node &gt;</text>
<text text-anchor="start" x="946" y="-782.75" font-family="Helvetica,sans-Serif" font-size="10.00"> </text>
<text text-anchor="start" x="946" y="-767.75" font-family="Helvetica,sans-Serif" font-size="10.00"> </text>
<polygon fill="#666666" stroke="#666666" points="878,-794.25 878,-794.25 1017,-794.25 1017,-794.25 878,-794.25"/>
<polygon fill="#666666" stroke="#666666" points="878,-779.25 878,-779.25 1017,-779.25 1017,-779.25 878,-779.25"/>
<polygon fill="none" stroke="#666666" points="878,-762.25 878,-811.25 1017,-811.25 1017,-762.25 878,-762.25"/>
</a>
</g>
</g>
<!-- Node8&#45;&gt;Node3 -->
<g id="edge7_Node000003_Node000008" class="edge">
<title>Node8&#45;&gt;Node3</title>
<g id="a_edge7_Node000003_Node000008"><a xlink:title=" ">
<path fill="none" stroke="#63b8ff" d="M932.13,-762.36C917.07,-740.14 892.88,-706.29 868.5,-679.75 855.24,-665.32 853.1,-659.12 835.5,-650.5 796.51,-631.41 777.43,-653.61 739.5,-632.5 719.47,-621.35 700.77,-606.23 684,-589.84"/>
<polygon fill="none" stroke="#63b8ff" points="683.95,-589.79 676.89,-588.34 675.52,-581.26 682.58,-582.72 683.95,-589.79"/>
</a>
</g>
<text text-anchor="middle" x="878.12" y="-652.25" font-family="Helvetica,sans-Serif" font-size="10.00" fill="grey"> +subNodes</text>
</g>
<!-- Node9 -->
<g id="Node000009" class="node">
<title>Node9</title>
<g id="a_Node000009"><a xlink:title=" ">
<polygon fill="white" stroke="none" points="1135.5,-816.75 1035.5,-816.75 1035.5,-756.75 1135.5,-756.75 1135.5,-816.75"/>
<text text-anchor="start" x="1040.12" y="-803.25" font-family="Helvetica,sans-Serif" font-size="10.00">Dictionary&lt; int, xeno</text>
<text text-anchor="start" x="1043.88" y="-792" font-family="Helvetica,sans-Serif" font-size="10.00">_rat_server.Node &gt;</text>
<text text-anchor="start" x="1084" y="-777.25" font-family="Helvetica,sans-Serif" font-size="10.00"> </text>
<text text-anchor="start" x="1084" y="-762.25" font-family="Helvetica,sans-Serif" font-size="10.00"> </text>
<polygon fill="#666666" stroke="#666666" points="1035.5,-788.75 1035.5,-788.75 1135.5,-788.75 1135.5,-788.75 1035.5,-788.75"/>
<polygon fill="#666666" stroke="#666666" points="1035.5,-773.75 1035.5,-773.75 1135.5,-773.75 1135.5,-773.75 1035.5,-773.75"/>
<polygon fill="none" stroke="#666666" points="1035.5,-756.75 1035.5,-816.75 1135.5,-816.75 1135.5,-756.75 1035.5,-756.75"/>
</a>
</g>
</g>
<!-- Node9&#45;&gt;Node3 -->
<g id="edge8_Node000003_Node000009" class="edge">
<title>Node9&#45;&gt;Node3</title>
<g id="a_edge8_Node000003_Node000009"><a xlink:title=" ">
<path fill="none" stroke="#63b8ff" d="M1076.79,-757.11C1067.96,-732.92 1051.93,-699.2 1026.5,-679.75 983.58,-646.92 961.71,-659.88 908.5,-650.5 834.11,-637.38 806.91,-666.59 739.5,-632.5 719.31,-622.29 700.63,-607.81 683.94,-591.82"/>
<polygon fill="none" stroke="#63b8ff" points="684.03,-591.9 676.95,-590.5 675.52,-583.43 682.6,-584.83 684.03,-591.9"/>
</a>
</g>
<text text-anchor="middle" x="1025.75" y="-652.25" font-family="Helvetica,sans-Serif" font-size="10.00" fill="grey"> &#45;subNodeWait</text>
</g>
<!-- Node10&#45;&gt;Node3 -->
<g id="edge9_Node000003_Node000010" class="edge">
<title>Node10&#45;&gt;Node3</title>
<g id="a_edge9_Node000003_Node000010"><a xlink:title=" ">
<path fill="none" stroke="#63b8ff" d="M424.42,-697.14C441.14,-680.37 459.56,-663.9 478.5,-650.5 494.41,-639.24 504.18,-645.72 518.5,-632.5 518.71,-632.31 518.91,-632.12 519.12,-631.93"/>
<polygon fill="none" stroke="#63b8ff" points="518.99,-632.06 520.38,-624.98 527.45,-623.55 526.05,-630.63 518.99,-632.06"/>
</a>
</g>
<text text-anchor="middle" x="493.5" y="-652.25" font-family="Helvetica,sans-Serif" font-size="10.00" fill="grey"> +sock</text>
</g>
<!-- Node11 -->
<g id="Node000011" class="node">
<title>Node11</title>
<g id="a_Node000011"><a xlink:title=" ">
<polygon fill="white" stroke="none" points="316.5,-990 276.5,-990 276.5,-941 316.5,-941 316.5,-990"/>
<text text-anchor="start" x="281.12" y="-976.5" font-family="Helvetica,sans-Serif" font-size="10.00">Socket</text>
<text text-anchor="start" x="295" y="-961.5" font-family="Helvetica,sans-Serif" font-size="10.00"> </text>
<text text-anchor="start" x="295" y="-946.5" font-family="Helvetica,sans-Serif" font-size="10.00"> </text>
<polygon fill="#666666" stroke="#666666" points="276.5,-973 276.5,-973 316.5,-973 316.5,-973 276.5,-973"/>
<polygon fill="#666666" stroke="#666666" points="276.5,-958 276.5,-958 316.5,-958 316.5,-958 276.5,-958"/>
<polygon fill="none" stroke="#666666" points="276.5,-941 276.5,-990 316.5,-990 316.5,-941 276.5,-941"/>
</a>
</g>
</g>
<!-- Node11&#45;&gt;Node10 -->
<g id="edge10_Node000010_Node000011" class="edge">
<title>Node11&#45;&gt;Node10</title>
<g id="a_edge10_Node000010_Node000011"><a xlink:title=" ">
<path fill="none" stroke="#63b8ff" d="M303.54,-941.03C306.47,-931.25 310.11,-919.11 314.05,-905.97"/>
<polygon fill="none" stroke="#63b8ff" points="314.03,-906.02 311.93,-899.13 317.48,-894.53 319.59,-901.43 314.03,-906.02"/>
</a>
</g>
<text text-anchor="middle" x="327.5" y="-913.5" font-family="Helvetica,sans-Serif" font-size="10.00" fill="grey"> +sock</text>
</g>
<!-- Node12 -->
<g id="Node000012" class="node">
<title>Node12</title>
<g id="a_Node000012"><a xlink:title=" ">
<polygon fill="white" stroke="none" points="363.5,-990 335.5,-990 335.5,-941 363.5,-941 363.5,-990"/>
<text text-anchor="start" x="340.12" y="-976.5" font-family="Helvetica,sans-Serif" font-size="10.00">byte</text>
<text text-anchor="start" x="348" y="-961.5" font-family="Helvetica,sans-Serif" font-size="10.00"> </text>
<text text-anchor="start" x="348" y="-946.5" font-family="Helvetica,sans-Serif" font-size="10.00"> </text>
<polygon fill="#666666" stroke="#666666" points="335.5,-973 335.5,-973 363.5,-973 363.5,-973 335.5,-973"/>
<polygon fill="#666666" stroke="#666666" points="335.5,-958 335.5,-958 363.5,-958 363.5,-958 335.5,-958"/>
<polygon fill="none" stroke="#666666" points="335.5,-941 335.5,-990 363.5,-990 363.5,-941 335.5,-941"/>
</a>
</g>
</g>
<!-- Node12&#45;&gt;Node10 -->
<g id="edge11_Node000010_Node000012" class="edge">
<title>Node12&#45;&gt;Node10</title>
<g id="a_edge11_Node000010_Node000012"><a xlink:title=" ">
<path fill="none" stroke="#63b8ff" d="M349.5,-941.03C349.5,-931.35 349.5,-919.36 349.5,-906.38"/>
<polygon fill="none" stroke="#63b8ff" points="349.5,-906.57 345.5,-900.57 349.5,-894.57 353.5,-900.57 349.5,-906.57"/>
</a>
</g>
<text text-anchor="middle" x="385.88" y="-913.5" font-family="Helvetica,sans-Serif" font-size="10.00" fill="grey"> +EncryptionKey</text>
</g>
<!-- Node13 -->
<g id="Node000013" class="node">
<title>Node13</title>
<g id="a_Node000013"><a xlink:title=" ">
<polygon fill="white" stroke="none" points="493.5,-990 473.5,-990 473.5,-941 493.5,-941 493.5,-990"/>
<text text-anchor="start" x="478.25" y="-976.5" font-family="Helvetica,sans-Serif" font-size="10.00">int</text>
<text text-anchor="start" x="482" y="-961.5" font-family="Helvetica,sans-Serif" font-size="10.00"> </text>
<text text-anchor="start" x="482" y="-946.5" font-family="Helvetica,sans-Serif" font-size="10.00"> </text>
<polygon fill="#666666" stroke="#666666" points="473.5,-973 473.5,-973 493.5,-973 493.5,-973 473.5,-973"/>
<polygon fill="#666666" stroke="#666666" points="473.5,-958 473.5,-958 493.5,-958 493.5,-958 473.5,-958"/>
<polygon fill="none" stroke="#666666" points="473.5,-941 473.5,-990 493.5,-990 493.5,-941 473.5,-941"/>
</a>
</g>
</g>
<!-- Node13&#45;&gt;Node3 -->
<g id="edge15_Node000003_Node000013" class="edge">
<title>Node13&#45;&gt;Node3</title>
<g id="a_edge15_Node000003_Node000013"><a xlink:title=" ">
<path fill="none" stroke="#63b8ff" d="M493.47,-951.42C498.88,-943.6 505.13,-933.23 508.5,-923 542.48,-819.86 508.14,-785.8 531.5,-679.75 534.04,-668.24 537.04,-656.48 540.37,-644.72"/>
<polygon fill="none" stroke="#63b8ff" points="540.33,-644.86 538.17,-637.98 543.69,-633.34 545.85,-640.22 540.33,-644.86"/>
</a>
</g>
<text text-anchor="middle" x="572" y="-794.12" font-family="Helvetica,sans-Serif" font-size="10.00" fill="grey"> +ID</text>
<text text-anchor="middle" x="572" y="-782.88" font-family="Helvetica,sans-Serif" font-size="10.00" fill="grey">+SockType</text>
<text text-anchor="middle" x="572" y="-771.62" font-family="Helvetica,sans-Serif" font-size="10.00" fill="grey">+SubNodeIdCount</text>
</g>
<!-- Node13&#45;&gt;Node10 -->
<g id="edge12_Node000010_Node000013" class="edge">
<title>Node13&#45;&gt;Node10</title>
<g id="a_edge12_Node000010_Node000013"><a xlink:title=" ">
<path fill="none" stroke="#63b8ff" d="M473.68,-954.2C465.97,-945.97 455.1,-934.02 446.25,-923 441.27,-916.79 436.24,-910.36 431.23,-903.81"/>
<polygon fill="none" stroke="#63b8ff" points="431.17,-903.73 424.36,-901.36 423.93,-894.17 430.74,-896.53 431.17,-903.73"/>
</a>
</g>
<text text-anchor="middle" x="477.62" y="-913.5" font-family="Helvetica,sans-Serif" font-size="10.00" fill="grey"> +socktimeout</text>
</g>
<!-- Node14 -->
<g id="Node000014" class="node">
<title>Node14</title>
<g id="a_Node000014"><a xlink:title=" ">
<polygon fill="white" stroke="none" points="782.5,-505 748.5,-505 748.5,-456 782.5,-456 782.5,-505"/>
<text text-anchor="start" x="753.5" y="-491.5" font-family="Helvetica,sans-Serif" font-size="10.00">string</text>
<text text-anchor="start" x="764" y="-476.5" font-family="Helvetica,sans-Serif" font-size="10.00"> </text>
<text text-anchor="start" x="764" y="-461.5" font-family="Helvetica,sans-Serif" font-size="10.00"> </text>
<polygon fill="#666666" stroke="#666666" points="748.5,-488 748.5,-488 782.5,-488 782.5,-488 748.5,-488"/>
<polygon fill="#666666" stroke="#666666" points="748.5,-473 748.5,-473 782.5,-473 782.5,-473 748.5,-473"/>
<polygon fill="none" stroke="#666666" points="748.5,-456 748.5,-505 782.5,-505 782.5,-456 748.5,-456"/>
</a>
</g>
</g>
<!-- Node14&#45;&gt;Node1 -->
<g id="edge16_Node000001_Node000014" class="edge">
<title>Node14&#45;&gt;Node1</title>
<g id="a_edge16_Node000001_Node000014"><a xlink:title=" ">
<path fill="none" stroke="#63b8ff" d="M765.12,-456.26C764.61,-423.69 763.7,-362.58 763.25,-310.5 763.05,-287.02 762.9,-261.96 762.79,-237.86"/>
<polygon fill="none" stroke="#63b8ff" points="762.79,-237.88 758.77,-231.9 762.74,-225.88 766.77,-231.86 762.79,-237.88"/>
</a>
</g>
<text text-anchor="middle" x="793.62" y="-272.88" font-family="Helvetica,sans-Serif" font-size="10.00" fill="grey"> &#45;selectedItem</text>
</g>
<!-- Node15 -->
<g id="Node000015" class="node">
<title>Node15</title>
<g id="a_Node000015"><a xlink:title=" ">
<polygon fill="white" stroke="none" points="892.5,-510.5 802.5,-510.5 802.5,-450.5 892.5,-450.5 892.5,-510.5"/>
<text text-anchor="start" x="807.38" y="-497" font-family="Helvetica,sans-Serif" font-size="10.00">Dictionary&lt; string,</text>
<text text-anchor="start" x="829.5" y="-485.75" font-family="Helvetica,sans-Serif" font-size="10.00"> string &gt;</text>
<text text-anchor="start" x="846" y="-471" font-family="Helvetica,sans-Serif" font-size="10.00"> </text>
<text text-anchor="start" x="846" y="-456" font-family="Helvetica,sans-Serif" font-size="10.00"> </text>
<polygon fill="#666666" stroke="#666666" points="802.5,-482.5 802.5,-482.5 892.5,-482.5 892.5,-482.5 802.5,-482.5"/>
<polygon fill="#666666" stroke="#666666" points="802.5,-467.5 802.5,-467.5 892.5,-467.5 892.5,-467.5 802.5,-467.5"/>
<polygon fill="none" stroke="#666666" points="802.5,-450.5 802.5,-510.5 892.5,-510.5 892.5,-450.5 802.5,-450.5"/>
</a>
</g>
</g>
<!-- Node15&#45;&gt;Node1 -->
<g id="edge17_Node000001_Node000015" class="edge">
<title>Node15&#45;&gt;Node1</title>
<g id="a_edge17_Node000001_Node000015"><a xlink:title=" ">
<path fill="none" stroke="#63b8ff" d="M848.11,-450.5C848.34,-405.3 845.83,-315.67 825.5,-243 824.95,-241.02 824.37,-239.04 823.76,-237.06"/>
<polygon fill="none" stroke="#63b8ff" points="823.76,-237.08 818.08,-232.64 819.99,-225.69 825.67,-230.12 823.76,-237.08"/>
</a>
</g>
<text text-anchor="middle" x="867.38" y="-272.88" font-family="Helvetica,sans-Serif" font-size="10.00" fill="grey"> &#45;applications</text>
</g>
<!-- Node16 -->
<g id="Node000016" class="node">
<title>Node16</title>
<g id="a_Node000016"><a xlink:title=" ">
<polygon fill="white" stroke="none" points="954,-505 911,-505 911,-456 954,-456 954,-505"/>
<text text-anchor="start" x="915.62" y="-491.5" font-family="Helvetica,sans-Serif" font-size="10.00">System</text>
<text text-anchor="start" x="931" y="-476.5" font-family="Helvetica,sans-Serif" font-size="10.00"> </text>
<text text-anchor="start" x="931" y="-461.5" font-family="Helvetica,sans-Serif" font-size="10.00"> </text>
<polygon fill="#666666" stroke="#666666" points="911,-488 911,-488 954,-488 954,-488 911,-488"/>
<polygon fill="#666666" stroke="#666666" points="911,-473 911,-473 954,-473 954,-473 911,-473"/>
<polygon fill="none" stroke="#666666" points="911,-456 911,-505 954,-505 954,-456 911,-456"/>
</a>
</g>
</g>
<!-- Node16&#45;&gt;Node1 -->
<g id="edge18_Node000001_Node000016" class="edge">
<title>Node16&#45;&gt;Node1</title>
<g id="a_edge18_Node000001_Node000016"><a xlink:title=" ">
<path fill="none" stroke="#63b8ff" d="M934.31,-456.15C936.72,-411.9 937.04,-313.9 900.5,-243 889.54,-221.74 873.65,-202.09 856.53,-184.87"/>
<polygon fill="none" stroke="#63b8ff" points="856.74,-185.07 849.65,-183.76 848.13,-176.71 855.22,-178.02 856.74,-185.07"/>
</a>
</g>
<text text-anchor="middle" x="960.62" y="-301" font-family="Helvetica,sans-Serif" font-size="10.00" fill="grey"> &#45;columnHeader1</text>
<text text-anchor="middle" x="960.62" y="-289.75" font-family="Helvetica,sans-Serif" font-size="10.00" fill="grey">&#45;components</text>
<text text-anchor="middle" x="960.62" y="-278.5" font-family="Helvetica,sans-Serif" font-size="10.00" fill="grey">&#45;label1</text>
<text text-anchor="middle" x="960.62" y="-267.25" font-family="Helvetica,sans-Serif" font-size="10.00" fill="grey">&#45;label2</text>
<text text-anchor="middle" x="960.62" y="-256" font-family="Helvetica,sans-Serif" font-size="10.00" fill="grey">&#45;listView1</text>
<text text-anchor="middle" x="960.62" y="-244.75" font-family="Helvetica,sans-Serif" font-size="10.00" fill="grey">&#45;textBox1</text>
</g>
</g>
</svg>
