<?xml version="1.0" encoding="UTF-8" standalone="no"?>
<!DOCTYPE svg PUBLIC "-//W3C//DTD SVG 1.1//EN"
 "http://www.w3.org/Graphics/SVG/1.1/DTD/svg11.dtd">
<!-- Generated by graphviz version 10.0.1 (20240210.2158)
 -->
<!-- Title: xeno_rat_server.Forms.AudioPlayer.AddAudio Pages: 1 -->
<svg width="683pt" height="39pt"
 viewBox="0.00 0.00 682.50 38.50" xmlns="http://www.w3.org/2000/svg" xmlns:xlink="http://www.w3.org/1999/xlink">
<g id="graph0" class="graph" transform="scale(1 1) rotate(0) translate(4 34.5)">
<title>xeno_rat_server.Forms.AudioPlayer.AddAudio</title>
<!-- Node1 -->
<g id="Node000001" class="node">
<title>Node1</title>
<g id="a_Node000001"><a xlink:title="Adds audio samples to the wave provider.">
<polygon fill="#999999" stroke="#666666" points="674.5,-30.5 531,-30.5 531,0 674.5,0 674.5,-30.5"/>
<text text-anchor="start" x="539" y="-17" font-family="Helvetica,sans-Serif" font-size="10.00">xeno_rat_server.Forms.Audio</text>
<text text-anchor="middle" x="602.75" y="-5.75" font-family="Helvetica,sans-Serif" font-size="10.00">Player.AddAudio</text>
</a>
</g>
</g>
<!-- Node2 -->
<g id="Node000002" class="node">
<title>Node2</title>
<g id="a_Node000002"><a xlink:href="classxeno__rat__server_1_1_forms_1_1_live___microphone.html#af17318ea1a2f4c983f73421462165202" target="_top" xlink:title="Asynchronously receives data from MicNode and adds audio to the player if playing.">
<polygon fill="white" stroke="#666666" points="495,-30.5 358.25,-30.5 358.25,0 495,0 495,-30.5"/>
<text text-anchor="start" x="366.25" y="-17" font-family="Helvetica,sans-Serif" font-size="10.00">xeno_rat_server.Forms.Live</text>
<text text-anchor="middle" x="426.62" y="-5.75" font-family="Helvetica,sans-Serif" font-size="10.00">_Microphone.RecvThread</text>
</a>
</g>
</g>
<!-- Node1&#45;&gt;Node2 -->
<g id="edge1_Node000001_Node000002" class="edge">
<title>Node1&#45;&gt;Node2</title>
<g id="a_edge1_Node000001_Node000002"><a xlink:title=" ">
<path fill="none" stroke="#63b8ff" d="M519.38,-15.25C511.34,-15.25 503.25,-15.25 495.38,-15.25"/>
<polygon fill="#63b8ff" stroke="#63b8ff" points="519.16,-18.75 529.16,-15.25 519.16,-11.75 519.16,-18.75"/>
</a>
</g>
</g>
<!-- Node3 -->
<g id="Node000003" class="node">
<title>Node3</title>
<g id="a_Node000003"><a xlink:href="classxeno__rat__server_1_1_forms_1_1_live___microphone.html#abd381cbaa6846b8f2cde2591d3908429" target="_top" xlink:title="Initializes the asynchronous task by creating a mic node, adding temporary on disconnect,...">
<polygon fill="white" stroke="#666666" points="322.25,-30.5 184,-30.5 184,0 322.25,0 322.25,-30.5"/>
<text text-anchor="start" x="192" y="-17" font-family="Helvetica,sans-Serif" font-size="10.00">xeno_rat_server.Forms.Live</text>
<text text-anchor="middle" x="253.12" y="-5.75" font-family="Helvetica,sans-Serif" font-size="10.00">_Microphone.InitializeAsync</text>
</a>
</g>
</g>
<!-- Node2&#45;&gt;Node3 -->
<g id="edge2_Node000002_Node000003" class="edge">
<title>Node2&#45;&gt;Node3</title>
<g id="a_edge2_Node000002_Node000003"><a xlink:title=" ">
<path fill="none" stroke="#63b8ff" d="M346.58,-15.25C338.55,-15.25 330.44,-15.25 322.54,-15.25"/>
<polygon fill="#63b8ff" stroke="#63b8ff" points="346.33,-18.75 356.33,-15.25 346.33,-11.75 346.33,-18.75"/>
</a>
</g>
</g>
<!-- Node4 -->
<g id="Node000004" class="node">
<title>Node4</title>
<g id="a_Node000004"><a xlink:href="classxeno__rat__server_1_1_forms_1_1_live___microphone.html#af759c97b5673c55be1690f19df16e179" target="_top" xlink:title=" ">
<polygon fill="white" stroke="#666666" points="148,-30.5 0,-30.5 0,0 148,0 148,-30.5"/>
<text text-anchor="start" x="8" y="-17" font-family="Helvetica,sans-Serif" font-size="10.00">xeno_rat_server.Forms.Live</text>
<text text-anchor="middle" x="74" y="-5.75" font-family="Helvetica,sans-Serif" font-size="10.00">_Microphone.Live_Microphone</text>
</a>
</g>
</g>
<!-- Node3&#45;&gt;Node4 -->
<g id="edge3_Node000003_Node000004" class="edge">
<title>Node3&#45;&gt;Node4</title>
<g id="a_edge3_Node000003_Node000004"><a xlink:title=" ">
<path fill="none" stroke="#63b8ff" d="M172.39,-15.25C164.37,-15.25 156.24,-15.25 148.29,-15.25"/>
<polygon fill="#63b8ff" stroke="#63b8ff" points="172.13,-18.75 182.13,-15.25 172.13,-11.75 172.13,-18.75"/>
</a>
</g>
</g>
</g>
</svg>
