<?xml version="1.0" encoding="UTF-8" standalone="no"?>
<!DOCTYPE svg PUBLIC "-//W3C//DTD SVG 1.1//EN"
 "http://www.w3.org/Graphics/SVG/1.1/DTD/svg11.dtd">
<!-- Generated by graphviz version 10.0.1 (20240210.2158)
 -->
<!-- Title: Chat.ChatForm.InitializeAsync Pages: 1 -->
<!--zoomable 272 -->

<svg id="main" version="1.1" xmlns="http://www.w3.org/2000/svg" xmlns:xlink="http://www.w3.org/1999/xlink" xml:space="preserve" onload="init(evt)">
<style type="text/css"><![CDATA[
.node, .edge {opacity: 0.7;}
.node.selected, .edge.selected {opacity: 1;}
.edge:hover path { stroke: red; }
.edge:hover polygon { stroke: red; fill: red; }
]]></style>

<defs>
  <circle id="rim" cx="0" cy="0" r="7"/>
  <circle id="rim2" cx="0" cy="0" r="3.5"/>
  <g id="zoomPlus">
    <use xlink:href="#rim" fill="#404040"><set attributeName="fill" to="#808080" begin="zoomplus.mouseover" end="zoomplus.mouseout"/></use>
    <path d="M-4,0h8M0,-4v8" fill="none" stroke="white" stroke-width="1.5" pointer-events="none"/>
  </g>
  <g id="zoomMin">
    <use xlink:href="#rim" fill="#404040"><set attributeName="fill" to="#808080" begin="zoomminus.mouseover" end="zoomminus.mouseout"/></use>
    <path d="M-4,0h8" fill="none" stroke="white" stroke-width="1.5" pointer-events="none"/>
  </g>
  <g id="arrowUp" transform="translate(30 24)">
    <use xlink:href="#rim"/>
    <path pointer-events="none" fill="none" stroke="white" stroke-width="1.5" d="M0,-3.0v7 M-2.5,-0.5L0,-3.0L2.5,-0.5"/>
  </g>
  <g id="arrowRight" transform="rotate(90) translate(36 -43)">
    <use xlink:href="#rim"/>
    <path pointer-events="none" fill="none" stroke="white" stroke-width="1.5" d="M0,-3.0v7 M-2.5,-0.5L0,-3.0L2.5,-0.5"/>
  </g>
  <g id="arrowDown" transform="rotate(180) translate(-30 -48)">
    <use xlink:href="#rim"/>
    <path pointer-events="none" fill="none" stroke="white" stroke-width="1.5" d="M0,-3.0v7 M-2.5,-0.5L0,-3.0L2.5,-0.5"/>
  </g>
  <g id="arrowLeft" transform="rotate(270) translate(-36 17)">
    <use xlink:href="#rim"/>
    <path pointer-events="none" fill="none" stroke="white" stroke-width="1.5" d="M0,-3.0v7 M-2.5,-0.5L0,-3.0L2.5,-0.5"/>
  </g>
  <g id="resetDef">
    <use xlink:href="#rim2" fill="#404040"><set attributeName="fill" to="#808080" begin="reset.mouseover" end="reset.mouseout"/></use>
  </g>
</defs>
<script type="application/ecmascript">
var viewWidth = 1073;
var viewHeight = 272;
var sectionId = 'dynsection-8';
</script>
<script type="application/ecmascript" xlink:href="svg.min.js"/>
<svg id="graph" class="graph">
<g id="viewport">
<title>Chat.ChatForm.InitializeAsync</title>
<!-- Node1 -->
<g id="Node000001" class="node">
<title>Node1</title>
<g id="a_Node000001"><a xlink:title="Initializes the asynchronous operations by calling the Heartbeat method and awaiting the RecvThread m...">
<polygon fill="#999999" stroke="#666666" points="122.5,-191.5 0,-191.5 0,-161 122.5,-161 122.5,-191.5"/>
<text text-anchor="start" x="8" y="-178" font-family="Helvetica,sans-Serif" font-size="10.00">Chat.ChatForm.Initialize</text>
<text text-anchor="middle" x="61.25" y="-166.75" font-family="Helvetica,sans-Serif" font-size="10.00">Async</text>
</a>
</g>
</g>
<!-- Node2 -->
<g id="Node000002" class="node">
<title>Node2</title>
<g id="a_Node000002"><a xlink:href="class_chat_1_1_chat_form.html#a5f81e8f70ee4d766f8febd5ac8221769" target="_top" xlink:title="Waits for the heartbeat from the server and disconnects if not received within a specified time.">
<polygon fill="white" stroke="#666666" points="293,-204.88 163.75,-204.88 163.75,-185.62 293,-185.62 293,-204.88"/>
<text text-anchor="middle" x="228.38" y="-191.38" font-family="Helvetica,sans-Serif" font-size="10.00">Chat.ChatForm.Heartbeat</text>
</a>
</g>
</g>
<!-- Node1&#45;&gt;Node2 -->
<g id="edge1_Node000001_Node000002" class="edge">
<title>Node1&#45;&gt;Node2</title>
<g id="a_edge1_Node000001_Node000002"><a xlink:title=" ">
<path fill="none" stroke="#63b8ff" d="M122.8,-183.22C132.33,-184.31 142.27,-185.46 152.08,-186.59"/>
<polygon fill="#63b8ff" stroke="#63b8ff" points="151.67,-190.06 162,-187.73 152.47,-183.11 151.67,-190.06"/>
</a>
</g>
</g>
<!-- Node5 -->
<g id="Node000005" class="node">
<title>Node5</title>
<g id="a_Node000005"><a xlink:href="class_chat_1_1_chat_form.html#a1b537d412a1f6730c92a2d1022488fd6" target="_top" xlink:title="Asynchronously receives data from the server and updates the UI with the received message.">
<polygon fill="white" stroke="#666666" points="298.25,-167.88 158.5,-167.88 158.5,-148.62 298.25,-148.62 298.25,-167.88"/>
<text text-anchor="middle" x="228.38" y="-154.38" font-family="Helvetica,sans-Serif" font-size="10.00">Chat.ChatForm.RecvThread</text>
</a>
</g>
</g>
<!-- Node1&#45;&gt;Node5 -->
<g id="edge5_Node000001_Node000005" class="edge">
<title>Node1&#45;&gt;Node5</title>
<g id="a_edge5_Node000001_Node000005"><a xlink:title=" ">
<path fill="none" stroke="#63b8ff" d="M122.8,-169.65C130.62,-168.8 138.72,-167.91 146.8,-167.03"/>
<polygon fill="#63b8ff" stroke="#63b8ff" points="147.11,-170.52 156.67,-165.96 146.35,-163.56 147.11,-170.52"/>
</a>
</g>
</g>
<!-- Node3 -->
<g id="Node000003" class="node">
<title>Node3</title>
<g id="a_Node000003"><a xlink:href="classxeno__rat__client_1_1_node.html#ae4ae581752fcdbda5191a2a55270e88b" target="_top" xlink:title="Checks if the socket is connected and returns a boolean value indicating the connection status.">
<polygon fill="white" stroke="#666666" points="492.75,-186.88 334.25,-186.88 334.25,-167.62 492.75,-167.62 492.75,-186.88"/>
<text text-anchor="middle" x="413.5" y="-173.38" font-family="Helvetica,sans-Serif" font-size="10.00">xeno_rat_client.Node.Connected</text>
</a>
</g>
</g>
<!-- Node2&#45;&gt;Node3 -->
<g id="edge2_Node000002_Node000003" class="edge">
<title>Node2&#45;&gt;Node3</title>
<g id="a_edge2_Node000002_Node000003"><a xlink:title=" ">
<path fill="none" stroke="#63b8ff" d="M293.42,-188.95C302.94,-188.02 312.89,-187.04 322.82,-186.07"/>
<polygon fill="#63b8ff" stroke="#63b8ff" points="322.87,-189.58 332.48,-185.12 322.19,-182.61 322.87,-189.58"/>
</a>
</g>
</g>
<!-- Node4 -->
<g id="Node000004" class="node">
<title>Node4</title>
<g id="a_Node000004"><a xlink:href="classxeno__rat__client_1_1_node.html#aed8a6b3de6ee0efa48945c8b1e6c763e" target="_top" xlink:title="Disconnects the current socket and clears the subNodes list, and invokes the OnDisconnect event if it...">
<polygon fill="white" stroke="#666666" points="689.5,-205.88 528.75,-205.88 528.75,-186.62 689.5,-186.62 689.5,-205.88"/>
<text text-anchor="middle" x="609.12" y="-192.38" font-family="Helvetica,sans-Serif" font-size="10.00">xeno_rat_client.Node.Disconnect</text>
</a>
</g>
</g>
<!-- Node2&#45;&gt;Node4 -->
<g id="edge3_Node000002_Node000004" class="edge">
<title>Node2&#45;&gt;Node4</title>
<g id="a_edge3_Node000002_Node000004"><a xlink:title=" ">
<path fill="none" stroke="#63b8ff" d="M293.43,-195.96C306.91,-196.08 321.05,-196.19 334.25,-196.25 395.16,-196.54 463.69,-196.54 516.96,-196.47"/>
<polygon fill="#63b8ff" stroke="#63b8ff" points="516.92,-199.97 526.92,-196.45 516.91,-192.97 516.92,-199.97"/>
</a>
</g>
</g>
<!-- Node4&#45;&gt;Node4 -->
<g id="edge4_Node000004_Node000004" class="edge">
<title>Node4&#45;&gt;Node4</title>
<g id="a_edge4_Node000004_Node000004"><a xlink:title=" ">
<path fill="none" stroke="#63b8ff" d="M579.03,-206.16C565.3,-214.77 575.33,-223.88 609.12,-223.88 628.66,-223.88 640.26,-220.83 643.91,-216.6"/>
<polygon fill="#63b8ff" stroke="#63b8ff" points="647.13,-215.23 639.84,-207.54 640.75,-218.1 647.13,-215.23"/>
</a>
</g>
</g>
<!-- Node5&#45;&gt;Node3 -->
<g id="edge6_Node000005_Node000003" class="edge">
<title>Node5&#45;&gt;Node3</title>
<g id="a_edge6_Node000005_Node000003"><a xlink:title=" ">
<path fill="none" stroke="#63b8ff" d="M298.61,-165.43C306.45,-166.25 314.54,-167.09 322.6,-167.92"/>
<polygon fill="#63b8ff" stroke="#63b8ff" points="322.15,-171.39 332.46,-168.95 322.87,-164.43 322.15,-171.39"/>
</a>
</g>
</g>
<!-- Node6 -->
<g id="Node000006" class="node">
<title>Node6</title>
<g id="a_Node000006"><a xlink:href="classxeno__rat__client_1_1_node.html#a5e2f1397fe3500c1f49ae17e4b91cde4" target="_top" xlink:title="Asynchronously receives data from the socket and returns the received data as a byte array.">
<polygon fill="white" stroke="#666666" points="487.12,-149.5 339.88,-149.5 339.88,-119 487.12,-119 487.12,-149.5"/>
<text text-anchor="start" x="347.88" y="-136" font-family="Helvetica,sans-Serif" font-size="10.00">xeno_rat_client.Node.Receive</text>
<text text-anchor="middle" x="413.5" y="-124.75" font-family="Helvetica,sans-Serif" font-size="10.00">Async</text>
</a>
</g>
</g>
<!-- Node5&#45;&gt;Node6 -->
<g id="edge7_Node000005_Node000006" class="edge">
<title>Node5&#45;&gt;Node6</title>
<g id="a_edge7_Node000005_Node000006"><a xlink:title=" ">
<path fill="none" stroke="#63b8ff" d="M298.61,-149.18C308.32,-147.9 318.39,-146.58 328.34,-145.28"/>
<polygon fill="#63b8ff" stroke="#63b8ff" points="328.55,-148.78 338.01,-144.01 327.64,-141.84 328.55,-148.78"/>
</a>
</g>
</g>
<!-- Node6&#45;&gt;Node4 -->
<g id="edge8_Node000006_Node000004" class="edge">
<title>Node6&#45;&gt;Node4</title>
<g id="a_edge8_Node000006_Node000004"><a xlink:title=" ">
<path fill="none" stroke="#63b8ff" d="M466.32,-149.98C475.15,-152.71 484.22,-155.54 492.75,-158.25 517.68,-166.18 545.54,-175.34 567.63,-182.69"/>
<polygon fill="#63b8ff" stroke="#63b8ff" points="566.27,-185.92 576.86,-185.76 568.48,-179.28 566.27,-185.92"/>
</a>
</g>
</g>
<!-- Node7 -->
<g id="Node000007" class="node">
<title>Node7</title>
<g id="a_Node000007"><a xlink:href="classxeno__rat__client_1_1_socket_handler.html#ac05e4943d4ffdb6a72fa80e8f4bbede6" target="_top" xlink:title="Asynchronously receives data and performs various operations on it, such as decryption,...">
<polygon fill="white" stroke="#666666" points="685,-149.5 533.25,-149.5 533.25,-119 685,-119 685,-149.5"/>
<text text-anchor="start" x="541.25" y="-136" font-family="Helvetica,sans-Serif" font-size="10.00">xeno_rat_client.SocketHandler.</text>
<text text-anchor="middle" x="609.12" y="-124.75" font-family="Helvetica,sans-Serif" font-size="10.00">ReceiveAsync</text>
</a>
</g>
</g>
<!-- Node6&#45;&gt;Node7 -->
<g id="edge9_Node000006_Node000007" class="edge">
<title>Node6&#45;&gt;Node7</title>
<g id="a_edge9_Node000006_Node000007"><a xlink:title=" ">
<path fill="none" stroke="#63b8ff" d="M487.43,-134.25C498.6,-134.25 510.23,-134.25 521.66,-134.25"/>
<polygon fill="#63b8ff" stroke="#63b8ff" points="521.49,-137.75 531.49,-134.25 521.49,-130.75 521.49,-137.75"/>
</a>
</g>
</g>
<!-- Node8 -->
<g id="Node000008" class="node">
<title>Node8</title>
<g id="a_Node000008"><a xlink:href="classxeno__rat__client_1_1_socket_handler.html#a08263821429a6c263085688a2b716f44" target="_top" xlink:title="Truncates the input byte array from the specified offset and returns the truncated byte array.">
<polygon fill="white" stroke="#666666" points="877.25,-263.5 725.5,-263.5 725.5,-233 877.25,-233 877.25,-263.5"/>
<text text-anchor="start" x="733.5" y="-250" font-family="Helvetica,sans-Serif" font-size="10.00">xeno_rat_client.SocketHandler.</text>
<text text-anchor="middle" x="801.38" y="-238.75" font-family="Helvetica,sans-Serif" font-size="10.00">BTruncate</text>
</a>
</g>
</g>
<!-- Node7&#45;&gt;Node8 -->
<g id="edge10_Node000007_Node000008" class="edge">
<title>Node7&#45;&gt;Node8</title>
<g id="a_edge10_Node000007_Node000008"><a xlink:title=" ">
<path fill="none" stroke="#63b8ff" d="M646.47,-149.99C660.72,-157.14 676.69,-166.43 689.5,-177.25 709.33,-194.01 704.29,-208.28 725.5,-223.25 727.55,-224.69 729.68,-226.06 731.89,-227.35"/>
<polygon fill="#63b8ff" stroke="#63b8ff" points="730.06,-230.35 740.55,-231.85 733.29,-224.13 730.06,-230.35"/>
</a>
</g>
</g>
<!-- Node9 -->
<g id="Node000009" class="node">
<title>Node9</title>
<g id="a_Node000009"><a xlink:href="classxeno__rat__client_1_1_socket_handler.html#a14771b2d7d9b62c512e15fbd3f7eed2d" target="_top" xlink:title="Converts the specified byte array to an integer.">
<polygon fill="white" stroke="#666666" points="1065,-122.5 913.25,-122.5 913.25,-92 1065,-92 1065,-122.5"/>
<text text-anchor="start" x="921.25" y="-109" font-family="Helvetica,sans-Serif" font-size="10.00">xeno_rat_client.SocketHandler.</text>
<text text-anchor="middle" x="989.12" y="-97.75" font-family="Helvetica,sans-Serif" font-size="10.00">BytesToInt</text>
</a>
</g>
</g>
<!-- Node7&#45;&gt;Node9 -->
<g id="edge11_Node000007_Node000009" class="edge">
<title>Node7&#45;&gt;Node9</title>
<g id="a_edge11_Node000007_Node000009"><a xlink:title=" ">
<path fill="none" stroke="#63b8ff" d="M685.31,-140.81C739.03,-144.1 812.89,-145.8 877.25,-137.25 894.68,-134.93 913.26,-130.65 930.13,-126.04"/>
<polygon fill="#63b8ff" stroke="#63b8ff" points="930.81,-129.48 939.48,-123.38 928.9,-122.75 930.81,-129.48"/>
</a>
</g>
</g>
<!-- Node10 -->
<g id="Node000010" class="node">
<title>Node10</title>
<g id="a_Node000010"><a xlink:href="classxeno__rat__client_1_1_compression.html#a77db1a3658cab9e1ded20775b02584ad" target="_top" xlink:title="Decompresses the input buffer using the LZNT1 compression format and returns the decompressed data.">
<polygon fill="white" stroke="#666666" points="874.25,-214.5 728.5,-214.5 728.5,-184 874.25,-184 874.25,-214.5"/>
<text text-anchor="start" x="736.5" y="-201" font-family="Helvetica,sans-Serif" font-size="10.00">xeno_rat_client.Compression.</text>
<text text-anchor="middle" x="801.38" y="-189.75" font-family="Helvetica,sans-Serif" font-size="10.00">Decompress</text>
</a>
</g>
</g>
<!-- Node7&#45;&gt;Node10 -->
<g id="edge12_Node000007_Node000010" class="edge">
<title>Node7&#45;&gt;Node10</title>
<g id="a_edge12_Node000007_Node000010"><a xlink:title=" ">
<path fill="none" stroke="#63b8ff" d="M656.18,-149.98C682.49,-158.97 715.69,-170.32 743.61,-179.86"/>
<polygon fill="#63b8ff" stroke="#63b8ff" points="742.39,-183.14 752.98,-183.06 744.65,-176.51 742.39,-183.14"/>
</a>
</g>
</g>
<!-- Node12 -->
<g id="Node000012" class="node">
<title>Node12</title>
<g id="a_Node000012"><a xlink:href="classxeno__rat__client_1_1_encryption.html#ae86cb9fa23f767be0a3c99e369ecbd30" target="_top" xlink:title="Decrypts the input data using the provided key and returns the decrypted result.">
<polygon fill="white" stroke="#666666" points="868.62,-128.5 734.12,-128.5 734.12,-98 868.62,-98 868.62,-128.5"/>
<text text-anchor="start" x="742.12" y="-115" font-family="Helvetica,sans-Serif" font-size="10.00">xeno_rat_client.Encryption.</text>
<text text-anchor="middle" x="801.38" y="-103.75" font-family="Helvetica,sans-Serif" font-size="10.00">Decrypt</text>
</a>
</g>
</g>
<!-- Node7&#45;&gt;Node12 -->
<g id="edge14_Node000007_Node000012" class="edge">
<title>Node7&#45;&gt;Node12</title>
<g id="a_edge14_Node000007_Node000012"><a xlink:title=" ">
<path fill="none" stroke="#63b8ff" d="M685.32,-125.95C697.56,-124.6 710.27,-123.2 722.58,-121.84"/>
<polygon fill="#63b8ff" stroke="#63b8ff" points="722.68,-125.35 732.24,-120.77 721.91,-118.39 722.68,-125.35"/>
</a>
</g>
</g>
<!-- Node13 -->
<g id="Node000013" class="node">
<title>Node13</title>
<g id="a_Node000013"><a xlink:href="classxeno__rat__client_1_1_socket_handler.html#a77529cf89708fc6f487cd2aaac7e9bac" target="_top" xlink:title="Parses the header from the given byte array and returns the header information.">
<polygon fill="white" stroke="#666666" points="877.25,-79.5 725.5,-79.5 725.5,-49 877.25,-49 877.25,-79.5"/>
<text text-anchor="start" x="733.5" y="-66" font-family="Helvetica,sans-Serif" font-size="10.00">xeno_rat_client.SocketHandler.</text>
<text text-anchor="middle" x="801.38" y="-54.75" font-family="Helvetica,sans-Serif" font-size="10.00">ParseHeader</text>
</a>
</g>
</g>
<!-- Node7&#45;&gt;Node13 -->
<g id="edge15_Node000007_Node000013" class="edge">
<title>Node7&#45;&gt;Node13</title>
<g id="a_edge15_Node000007_Node000013"><a xlink:title=" ">
<path fill="none" stroke="#63b8ff" d="M648.93,-118.56C671.23,-109.69 699.82,-98.54 725.5,-89.25 730.76,-87.35 736.25,-85.41 741.76,-83.51"/>
<polygon fill="#63b8ff" stroke="#63b8ff" points="742.56,-86.94 750.89,-80.39 740.29,-80.31 742.56,-86.94"/>
</a>
</g>
</g>
<!-- Node14 -->
<g id="Node000014" class="node">
<title>Node14</title>
<g id="a_Node000014"><a xlink:href="classxeno__rat__client_1_1_socket_handler.html#a8be64178ac717030dea4dbcea7937a83" target="_top" xlink:title="Asynchronously receives all the data of the specified size from the connected socket and returns it a...">
<polygon fill="white" stroke="#666666" points="877.25,-30.5 725.5,-30.5 725.5,0 877.25,0 877.25,-30.5"/>
<text text-anchor="start" x="733.5" y="-17" font-family="Helvetica,sans-Serif" font-size="10.00">xeno_rat_client.SocketHandler.</text>
<text text-anchor="middle" x="801.38" y="-5.75" font-family="Helvetica,sans-Serif" font-size="10.00">RecvAllAsync_ddos_unsafer</text>
</a>
</g>
</g>
<!-- Node7&#45;&gt;Node14 -->
<g id="edge17_Node000007_Node000014" class="edge">
<title>Node7&#45;&gt;Node14</title>
<g id="a_edge17_Node000007_Node000014"><a xlink:title=" ">
<path fill="none" stroke="#63b8ff" d="M625.57,-118.52C646.52,-97.97 685.88,-62.04 725.5,-40.25 728.68,-38.5 732.01,-36.84 735.41,-35.28"/>
<polygon fill="#63b8ff" stroke="#63b8ff" points="736.57,-38.59 744.41,-31.47 733.84,-32.15 736.57,-38.59"/>
</a>
</g>
</g>
<!-- Node11 -->
<g id="Node000011" class="node">
<title>Node11</title>
<g id="a_Node000011"><a xlink:href="classxeno__rat__client_1_1_compression.html#a9fe0a6ed3a221d799c7e1a7ba004d5fd" target="_top" xlink:title="Decompresses a buffer using the specified compression format and returns the decompressed data.">
<polygon fill="white" stroke="#666666" points="1062,-214.5 916.25,-214.5 916.25,-184 1062,-184 1062,-214.5"/>
<text text-anchor="start" x="924.25" y="-201" font-family="Helvetica,sans-Serif" font-size="10.00">xeno_rat_client.Compression.</text>
<text text-anchor="middle" x="989.12" y="-189.75" font-family="Helvetica,sans-Serif" font-size="10.00">RtlDecompressBuffer</text>
</a>
</g>
</g>
<!-- Node10&#45;&gt;Node11 -->
<g id="edge13_Node000010_Node000011" class="edge">
<title>Node10&#45;&gt;Node11</title>
<g id="a_edge13_Node000010_Node000011"><a xlink:title=" ">
<path fill="none" stroke="#63b8ff" d="M874.72,-199.25C884.57,-199.25 894.73,-199.25 904.75,-199.25"/>
<polygon fill="#63b8ff" stroke="#63b8ff" points="904.46,-202.75 914.46,-199.25 904.46,-195.75 904.46,-202.75"/>
</a>
</g>
</g>
<!-- Node13&#45;&gt;Node9 -->
<g id="edge16_Node000013_Node000009" class="edge">
<title>Node13&#45;&gt;Node9</title>
<g id="a_edge16_Node000013_Node000009"><a xlink:title=" ">
<path fill="none" stroke="#63b8ff" d="M870.22,-79.96C882.81,-82.87 896.06,-85.94 908.94,-88.92"/>
<polygon fill="#63b8ff" stroke="#63b8ff" points="908.14,-92.33 918.68,-91.17 909.72,-85.51 908.14,-92.33"/>
</a>
</g>
</g>
</g>
</svg>

<g id="navigator" transform="translate(0 0)" fill="#404254">
  <rect fill="#f2f5e9" fill-opacity="0.5" stroke="#606060" stroke-width=".5" x="0" y="0" width="60" height="60"/>
  <use id="zoomplus" xlink:href="#zoomPlus" x="17" y="9" onmousedown="handleZoom(evt,'in')"/>
  <use id="zoomminus" xlink:href="#zoomMin" x="42" y="9" onmousedown="handleZoom(evt,'out')"/>
  <use id="reset" xlink:href="#resetDef" x="30" y="36" onmousedown="handleReset()"/>
   <use id="arrowup" xlink:href="#arrowUp" x="0" y="0" onmousedown="handlePan(0,-1)"/>
  <use id="arrowright" xlink:href="#arrowRight" x="0" y="0" onmousedown="handlePan(1,0)"/>
  <use id="arrowdown" xlink:href="#arrowDown" x="0" y="0" onmousedown="handlePan(0,1)"/>
  <use id="arrowleft" xlink:href="#arrowLeft" x="0" y="0" onmousedown="handlePan(-1,0)"/>
</g>
<svg viewBox="0 0 15 15" width="100%" height="30px" preserveAspectRatio="xMaxYMin meet">
 <g id="arrow_out" transform="scale(0.3 0.3)">
  <a xlink:href="class_chat_1_1_chat_form_a9926347bab99ceaacd2173799af2e901_cgraph_org.svg" target="_base">
   <rect id="button" ry="5" rx="5" y="6" x="6" height="38" width="38"
        fill="#f2f5e9" fill-opacity="0.5" stroke="#606060" stroke-width="1.0"/>
   <path id="arrow"
     d="M 11.500037,31.436501 C 11.940474,20.09759 22.043105,11.32322 32.158766,21.979434 L 37.068811,17.246167 C 37.068811,17.246167 37.088388,32 37.088388,32 L 22.160133,31.978069 C 22.160133,31.978069 26.997745,27.140456 26.997745,27.140456 C 18.528582,18.264221 13.291696,25.230495 11.500037,31.436501 z"
     style="fill:#404040;"/>
  </a>
 </g>
</svg>

<style type='text/css'>
<![CDATA[
[data-mouse-over-selected='false'] { opacity: 0.7; }
[data-mouse-over-selected='true']  { opacity: 1.0; }
]]>
</style>
<script type="application/ecmascript"><![CDATA[
document.addEventListener('DOMContentLoaded', (event) => {
  highlightEdges();
  highlightAdjacentNodes();
});
]]></script>
</svg>
