<?xml version="1.0" encoding="UTF-8" standalone="no"?>
<!DOCTYPE svg PUBLIC "-//W3C//DTD SVG 1.1//EN"
 "http://www.w3.org/Graphics/SVG/1.1/DTD/svg11.dtd">
<!-- Generated by graphviz version 10.0.1 (20240210.2158)
 -->
<!-- Title: NAudio.Midi.TrackSequenceNumberEvent Pages: 1 -->
<svg width="340pt" height="743pt"
 viewBox="0.00 0.00 340.29 743.00" xmlns="http://www.w3.org/2000/svg" xmlns:xlink="http://www.w3.org/1999/xlink">
<g id="graph0" class="graph" transform="scale(1 1) rotate(0) translate(4 739)">
<title>NAudio.Midi.TrackSequenceNumberEvent</title>
<!-- Node1 -->
<g id="Node000001" class="node">
<title>Node1</title>
<g id="a_Node000001"><a xlink:title="Represents a MIDI track sequence number event event.">
<polygon fill="#999999" stroke="none" points="297.29,-120 145.29,-120 145.29,0 297.29,0 297.29,-120"/>
<text text-anchor="start" x="159.04" y="-106.5" font-family="Helvetica,sans-Serif" font-size="10.00">NAudio.Midi.TrackSequence</text>
<text text-anchor="start" x="191.29" y="-95.25" font-family="Helvetica,sans-Serif" font-size="10.00">NumberEvent</text>
<text text-anchor="start" x="219.79" y="-80.5" font-family="Helvetica,sans-Serif" font-size="10.00"> </text>
<text text-anchor="start" x="149.29" y="-65.5" font-family="Helvetica,sans-Serif" font-size="10.00">+</text>
<text text-anchor="start" x="159.29" y="-65.5" font-family="Helvetica,sans-Serif" font-size="10.00">TrackSequenceNumberEvent()</text>
<text text-anchor="start" x="149.29" y="-50.5" font-family="Helvetica,sans-Serif" font-size="10.00">+</text>
<text text-anchor="start" x="159.29" y="-50.5" font-family="Helvetica,sans-Serif" font-size="10.00">TrackSequenceNumberEvent()</text>
<text text-anchor="start" x="149.29" y="-35.5" font-family="Helvetica,sans-Serif" font-size="10.00">+</text>
<text text-anchor="start" x="159.29" y="-35.5" font-family="Helvetica,sans-Serif" font-size="10.00">Clone()</text>
<text text-anchor="start" x="149.29" y="-20.5" font-family="Helvetica,sans-Serif" font-size="10.00">+</text>
<text text-anchor="start" x="159.29" y="-20.5" font-family="Helvetica,sans-Serif" font-size="10.00">ToString()</text>
<text text-anchor="start" x="149.29" y="-5.5" font-family="Helvetica,sans-Serif" font-size="10.00">+</text>
<text text-anchor="start" x="159.29" y="-5.5" font-family="Helvetica,sans-Serif" font-size="10.00">Export()</text>
<polygon fill="#666666" stroke="#666666" points="145.29,-92 145.29,-92 297.29,-92 297.29,-92 145.29,-92"/>
<polygon fill="#666666" stroke="#666666" points="145.29,-77 145.29,-77 297.29,-77 297.29,-77 145.29,-77"/>
<polygon fill="none" stroke="#666666" points="145.29,0 145.29,-120 297.29,-120 297.29,0 145.29,0"/>
</a>
</g>
</g>
<!-- Node2 -->
<g id="Node000002" class="node">
<title>Node2</title>
<g id="a_Node000002"><a xlink:href="class_n_audio_1_1_midi_1_1_meta_event.html" target="_top" xlink:title="Represents a MIDI meta event.">
<polygon fill="white" stroke="none" points="226.29,-291.25 132.29,-291.25 132.29,-167.25 226.29,-167.25 226.29,-291.25"/>
<text text-anchor="start" x="155.66" y="-277.75" font-family="Helvetica,sans-Serif" font-size="10.00">MetaEvent</text>
<text text-anchor="start" x="136.29" y="-262.75" font-family="Helvetica,sans-Serif" font-size="10.00">+</text>
<text text-anchor="start" x="146.29" y="-262.75" font-family="Helvetica,sans-Serif" font-size="10.00">MetaEventType</text>
<text text-anchor="start" x="136.29" y="-247.75" font-family="Helvetica,sans-Serif" font-size="10.00">+</text>
<text text-anchor="start" x="146.29" y="-247.75" font-family="Helvetica,sans-Serif" font-size="10.00">MetaEvent()</text>
<text text-anchor="start" x="136.29" y="-232.75" font-family="Helvetica,sans-Serif" font-size="10.00">+</text>
<text text-anchor="start" x="146.29" y="-232.75" font-family="Helvetica,sans-Serif" font-size="10.00">Clone()</text>
<text text-anchor="start" x="136.29" y="-217.75" font-family="Helvetica,sans-Serif" font-size="10.00">+</text>
<text text-anchor="start" x="146.29" y="-217.75" font-family="Helvetica,sans-Serif" font-size="10.00">ToString()</text>
<text text-anchor="start" x="136.29" y="-202.75" font-family="Helvetica,sans-Serif" font-size="10.00">+</text>
<text text-anchor="start" x="146.29" y="-202.75" font-family="Helvetica,sans-Serif" font-size="10.00">Export()</text>
<text text-anchor="start" x="136.29" y="-187.75" font-family="Helvetica,sans-Serif" font-size="10.00">+</text>
<text text-anchor="start" x="146.29" y="-187.75" font-family="Helvetica,sans-Serif" font-size="10.00">ReadMetaEvent()</text>
<text text-anchor="start" x="136.66" y="-172.75" font-family="Helvetica,sans-Serif" font-size="10.00">#</text>
<text text-anchor="start" x="146.29" y="-172.75" font-family="Helvetica,sans-Serif" font-size="10.00">MetaEvent()</text>
<polygon fill="#666666" stroke="#666666" points="132.29,-274.25 132.29,-274.25 226.29,-274.25 226.29,-274.25 132.29,-274.25"/>
<polygon fill="#666666" stroke="#666666" points="132.29,-259.25 132.29,-259.25 144.29,-259.25 144.29,-259.25 132.29,-259.25"/>
<polygon fill="#666666" stroke="#666666" points="144.29,-259.25 144.29,-259.25 226.29,-259.25 226.29,-259.25 144.29,-259.25"/>
<polygon fill="none" stroke="#666666" points="132.29,-167.25 132.29,-291.25 226.29,-291.25 226.29,-167.25 132.29,-167.25"/>
</a>
</g>
</g>
<!-- Node2&#45;&gt;Node1 -->
<g id="edge1_Node000001_Node000002" class="edge">
<title>Node2&#45;&gt;Node1</title>
<g id="a_edge1_Node000001_Node000002"><a xlink:title=" ">
<path fill="none" stroke="#63b8ff" d="M197.34,-156.34C200.4,-144.16 203.54,-131.65 206.51,-119.85"/>
<polygon fill="none" stroke="#63b8ff" points="193.98,-155.38 194.94,-165.93 200.77,-157.08 193.98,-155.38"/>
</a>
</g>
</g>
<!-- Node3 -->
<g id="Node000003" class="node">
<title>Node3</title>
<g id="a_Node000003"><a xlink:href="class_n_audio_1_1_midi_1_1_midi_event.html" target="_top" xlink:title="Represents an individual MIDI event.">
<polygon fill="white" stroke="none" points="236.29,-627.5 122.29,-627.5 122.29,-338.5 236.29,-338.5 236.29,-627.5"/>
<text text-anchor="start" x="157.54" y="-614" font-family="Helvetica,sans-Serif" font-size="10.00">MidiEvent</text>
<text text-anchor="start" x="126.29" y="-599" font-family="Helvetica,sans-Serif" font-size="10.00">+</text>
<text text-anchor="start" x="136.29" y="-599" font-family="Helvetica,sans-Serif" font-size="10.00">Channel</text>
<text text-anchor="start" x="126.29" y="-584" font-family="Helvetica,sans-Serif" font-size="10.00">+</text>
<text text-anchor="start" x="136.29" y="-584" font-family="Helvetica,sans-Serif" font-size="10.00">DeltaTime</text>
<text text-anchor="start" x="126.29" y="-569" font-family="Helvetica,sans-Serif" font-size="10.00">+</text>
<text text-anchor="start" x="136.29" y="-569" font-family="Helvetica,sans-Serif" font-size="10.00">AbsoluteTime</text>
<text text-anchor="start" x="126.29" y="-554" font-family="Helvetica,sans-Serif" font-size="10.00">+</text>
<text text-anchor="start" x="136.29" y="-554" font-family="Helvetica,sans-Serif" font-size="10.00">CommandCode</text>
<text text-anchor="start" x="126.29" y="-539" font-family="Helvetica,sans-Serif" font-size="10.00">+</text>
<text text-anchor="start" x="136.29" y="-539" font-family="Helvetica,sans-Serif" font-size="10.00">GetAsShortMessage()</text>
<text text-anchor="start" x="126.29" y="-524" font-family="Helvetica,sans-Serif" font-size="10.00">+</text>
<text text-anchor="start" x="136.29" y="-524" font-family="Helvetica,sans-Serif" font-size="10.00">MidiEvent()</text>
<text text-anchor="start" x="126.29" y="-509" font-family="Helvetica,sans-Serif" font-size="10.00">+</text>
<text text-anchor="start" x="136.29" y="-509" font-family="Helvetica,sans-Serif" font-size="10.00">Clone()</text>
<text text-anchor="start" x="126.29" y="-494" font-family="Helvetica,sans-Serif" font-size="10.00">+</text>
<text text-anchor="start" x="136.29" y="-494" font-family="Helvetica,sans-Serif" font-size="10.00">ToString()</text>
<text text-anchor="start" x="126.29" y="-479" font-family="Helvetica,sans-Serif" font-size="10.00">+</text>
<text text-anchor="start" x="136.29" y="-479" font-family="Helvetica,sans-Serif" font-size="10.00">Export()</text>
<text text-anchor="start" x="126.29" y="-464" font-family="Helvetica,sans-Serif" font-size="10.00">+</text>
<text text-anchor="start" x="136.29" y="-464" font-family="Helvetica,sans-Serif" font-size="10.00">FromRawMessage()</text>
<text text-anchor="start" x="126.29" y="-449" font-family="Helvetica,sans-Serif" font-size="10.00">+</text>
<text text-anchor="start" x="136.29" y="-449" font-family="Helvetica,sans-Serif" font-size="10.00">ReadNextEvent()</text>
<text text-anchor="start" x="126.29" y="-434" font-family="Helvetica,sans-Serif" font-size="10.00">+</text>
<text text-anchor="start" x="136.29" y="-434" font-family="Helvetica,sans-Serif" font-size="10.00">IsNoteOff()</text>
<text text-anchor="start" x="126.29" y="-419" font-family="Helvetica,sans-Serif" font-size="10.00">+</text>
<text text-anchor="start" x="136.29" y="-419" font-family="Helvetica,sans-Serif" font-size="10.00">IsNoteOn()</text>
<text text-anchor="start" x="126.29" y="-404" font-family="Helvetica,sans-Serif" font-size="10.00">+</text>
<text text-anchor="start" x="136.29" y="-404" font-family="Helvetica,sans-Serif" font-size="10.00">IsEndTrack()</text>
<text text-anchor="start" x="126.29" y="-389" font-family="Helvetica,sans-Serif" font-size="10.00">+</text>
<text text-anchor="start" x="136.29" y="-389" font-family="Helvetica,sans-Serif" font-size="10.00">ReadVarInt()</text>
<text text-anchor="start" x="126.29" y="-374" font-family="Helvetica,sans-Serif" font-size="10.00">+</text>
<text text-anchor="start" x="136.29" y="-374" font-family="Helvetica,sans-Serif" font-size="10.00">WriteVarInt()</text>
<text text-anchor="start" x="126.66" y="-359" font-family="Helvetica,sans-Serif" font-size="10.00">#</text>
<text text-anchor="start" x="136.29" y="-359" font-family="Helvetica,sans-Serif" font-size="10.00">MidiEvent()</text>
<text text-anchor="start" x="127.79" y="-344" font-family="Helvetica,sans-Serif" font-size="10.00">&#45;</text>
<text text-anchor="start" x="136.29" y="-344" font-family="Helvetica,sans-Serif" font-size="10.00">Clone()</text>
<polygon fill="#666666" stroke="#666666" points="122.29,-610.5 122.29,-610.5 236.29,-610.5 236.29,-610.5 122.29,-610.5"/>
<polygon fill="#666666" stroke="#666666" points="122.29,-550.5 122.29,-550.5 134.29,-550.5 134.29,-550.5 122.29,-550.5"/>
<polygon fill="#666666" stroke="#666666" points="134.29,-550.5 134.29,-550.5 236.29,-550.5 236.29,-550.5 134.29,-550.5"/>
<polygon fill="none" stroke="#666666" points="122.29,-338.5 122.29,-627.5 236.29,-627.5 236.29,-338.5 122.29,-338.5"/>
</a>
</g>
</g>
<!-- Node3&#45;&gt;Node2 -->
<g id="edge2_Node000002_Node000003" class="edge">
<title>Node3&#45;&gt;Node2</title>
<g id="a_edge2_Node000002_Node000003"><a xlink:title=" ">
<path fill="none" stroke="#63b8ff" d="M179.29,-327.56C179.29,-314.82 179.29,-302.5 179.29,-291.15"/>
<polygon fill="none" stroke="#63b8ff" points="175.79,-327.33 179.29,-337.33 182.79,-327.33 175.79,-327.33"/>
</a>
</g>
</g>
<!-- Node4 -->
<g id="Node000004" class="node">
<title>Node4</title>
<g id="a_Node000004"><a xlink:href="class_i_cloneable.html" target="_top" xlink:title=" ">
<polygon fill="white" stroke="none" points="328.29,-735 272.29,-735 272.29,-686 328.29,-686 328.29,-735"/>
<text text-anchor="start" x="277.04" y="-721.5" font-family="Helvetica,sans-Serif" font-size="10.00">ICloneable</text>
<text text-anchor="start" x="298.79" y="-706.5" font-family="Helvetica,sans-Serif" font-size="10.00"> </text>
<text text-anchor="start" x="298.79" y="-691.5" font-family="Helvetica,sans-Serif" font-size="10.00"> </text>
<polygon fill="#666666" stroke="#666666" points="272.29,-718 272.29,-718 328.29,-718 328.29,-718 272.29,-718"/>
<polygon fill="#666666" stroke="#666666" points="272.29,-703 272.29,-703 328.29,-703 328.29,-703 272.29,-703"/>
<polygon fill="none" stroke="#666666" points="272.29,-686 272.29,-735 328.29,-735 328.29,-686 272.29,-686"/>
</a>
</g>
</g>
<!-- Node4&#45;&gt;Node3 -->
<g id="edge3_Node000003_Node000004" class="edge">
<title>Node4&#45;&gt;Node3</title>
<g id="a_edge3_Node000003_Node000004"><a xlink:title=" ">
<path fill="none" stroke="#63b8ff" d="M296.14,-675.05C293.52,-664.67 289.24,-653.83 282.29,-645.5 270.56,-631.47 258.08,-640.57 245.29,-627.5 242.12,-624.27 239.09,-620.85 236.19,-617.3"/>
<polygon fill="none" stroke="#63b8ff" points="292.65,-675.43 298.09,-684.52 299.5,-674.02 292.65,-675.43"/>
</a>
</g>
</g>
<!-- Node5 -->
<g id="Node000005" class="node">
<title>Node5</title>
<g id="a_Node000005"><a xlink:title=" ">
<polygon fill="white" stroke="none" points="173.29,-735 77.29,-735 77.29,-686 173.29,-686 173.29,-735"/>
<text text-anchor="start" x="82.16" y="-721.5" font-family="Helvetica,sans-Serif" font-size="10.00">MidiCommandCode</text>
<text text-anchor="start" x="123.79" y="-706.5" font-family="Helvetica,sans-Serif" font-size="10.00"> </text>
<text text-anchor="start" x="123.79" y="-691.5" font-family="Helvetica,sans-Serif" font-size="10.00"> </text>
<polygon fill="#666666" stroke="#666666" points="77.29,-718 77.29,-718 173.29,-718 173.29,-718 77.29,-718"/>
<polygon fill="#666666" stroke="#666666" points="77.29,-703 77.29,-703 173.29,-703 173.29,-703 77.29,-703"/>
<polygon fill="none" stroke="#666666" points="77.29,-686 77.29,-735 173.29,-735 173.29,-686 77.29,-686"/>
</a>
</g>
</g>
<!-- Node5&#45;&gt;Node3 -->
<g id="edge4_Node000003_Node000005" class="edge">
<title>Node5&#45;&gt;Node3</title>
<g id="a_edge4_Node000003_Node000005"><a xlink:title=" ">
<path fill="none" stroke="#63b8ff" d="M127.8,-686.27C129.31,-674.06 131.49,-658.9 134.29,-645.5 134.68,-643.63 135.08,-641.75 135.48,-639.86"/>
<polygon fill="none" stroke="#63b8ff" points="135.48,-639.88 132.89,-633.15 138.1,-628.17 140.69,-634.9 135.48,-639.88"/>
</a>
</g>
<text text-anchor="middle" x="170.29" y="-652.88" font-family="Helvetica,sans-Serif" font-size="10.00" fill="grey"> &#45;commandCode</text>
</g>
<!-- Node6 -->
<g id="Node000006" class="node">
<title>Node6</title>
<g id="a_Node000006"><a xlink:title=" ">
<polygon fill="white" stroke="none" points="46.29,-735 26.29,-735 26.29,-686 46.29,-686 46.29,-735"/>
<text text-anchor="start" x="31.04" y="-721.5" font-family="Helvetica,sans-Serif" font-size="10.00">int</text>
<text text-anchor="start" x="34.79" y="-706.5" font-family="Helvetica,sans-Serif" font-size="10.00"> </text>
<text text-anchor="start" x="34.79" y="-691.5" font-family="Helvetica,sans-Serif" font-size="10.00"> </text>
<polygon fill="#666666" stroke="#666666" points="26.29,-718 26.29,-718 46.29,-718 46.29,-718 26.29,-718"/>
<polygon fill="#666666" stroke="#666666" points="26.29,-703 26.29,-703 46.29,-703 46.29,-703 26.29,-703"/>
<polygon fill="none" stroke="#666666" points="26.29,-686 26.29,-735 46.29,-735 46.29,-686 26.29,-686"/>
</a>
</g>
</g>
<!-- Node6&#45;&gt;Node2 -->
<g id="edge8_Node000002_Node000006" class="edge">
<title>Node6&#45;&gt;Node2</title>
<g id="a_edge8_Node000002_Node000006"><a xlink:title=" ">
<path fill="none" stroke="#63b8ff" d="M29.04,-686.12C11.49,-624.99 -27.58,-456.92 32.29,-338.5 50.89,-301.69 88.58,-274.32 121.13,-256.32"/>
<polygon fill="none" stroke="#63b8ff" points="121,-256.39 124.42,-250.04 131.6,-250.76 128.17,-257.11 121,-256.39"/>
</a>
</g>
<text text-anchor="middle" x="72.79" y="-479.12" font-family="Helvetica,sans-Serif" font-size="10.00" fill="grey"> ~metaDataLength</text>
</g>
<!-- Node6&#45;&gt;Node3 -->
<g id="edge5_Node000003_Node000006" class="edge">
<title>Node6&#45;&gt;Node3</title>
<g id="a_edge5_Node000003_Node000006"><a xlink:title=" ">
<path fill="none" stroke="#63b8ff" d="M46.13,-692.18C54.43,-678.51 67.23,-659.48 81.54,-645.5 91.78,-635.49 98.85,-638.28 108.29,-627.5 110.45,-625.03 112.56,-622.48 114.63,-619.87"/>
<polygon fill="none" stroke="#63b8ff" points="114.65,-619.84 115.02,-612.64 121.82,-610.21 121.44,-617.42 114.65,-619.84"/>
</a>
</g>
<text text-anchor="middle" x="105.16" y="-658.5" font-family="Helvetica,sans-Serif" font-size="10.00" fill="grey"> &#45;channel</text>
<text text-anchor="middle" x="105.16" y="-647.25" font-family="Helvetica,sans-Serif" font-size="10.00" fill="grey">&#45;deltaTime</text>
</g>
<!-- Node7 -->
<g id="Node000007" class="node">
<title>Node7</title>
<g id="a_Node000007"><a xlink:title=" ">
<polygon fill="white" stroke="none" points="234.29,-735 206.29,-735 206.29,-686 234.29,-686 234.29,-735"/>
<text text-anchor="start" x="211.29" y="-721.5" font-family="Helvetica,sans-Serif" font-size="10.00">long</text>
<text text-anchor="start" x="218.79" y="-706.5" font-family="Helvetica,sans-Serif" font-size="10.00"> </text>
<text text-anchor="start" x="218.79" y="-691.5" font-family="Helvetica,sans-Serif" font-size="10.00"> </text>
<polygon fill="#666666" stroke="#666666" points="206.29,-718 206.29,-718 234.29,-718 234.29,-718 206.29,-718"/>
<polygon fill="#666666" stroke="#666666" points="206.29,-703 206.29,-703 234.29,-703 234.29,-703 206.29,-703"/>
<polygon fill="none" stroke="#666666" points="206.29,-686 206.29,-735 234.29,-735 234.29,-686 206.29,-686"/>
</a>
</g>
</g>
<!-- Node7&#45;&gt;Node3 -->
<g id="edge6_Node000003_Node000007" class="edge">
<title>Node7&#45;&gt;Node3</title>
<g id="a_edge6_Node000003_Node000007"><a xlink:title=" ">
<path fill="none" stroke="#63b8ff" d="M216.05,-686.22C213.82,-673.97 210.88,-657.78 207.63,-639.89"/>
<polygon fill="none" stroke="#63b8ff" points="207.64,-639.95 202.63,-634.76 205.49,-628.14 210.5,-633.33 207.64,-639.95"/>
</a>
</g>
<text text-anchor="middle" x="245.54" y="-652.88" font-family="Helvetica,sans-Serif" font-size="10.00" fill="grey"> &#45;absoluteTime</text>
</g>
<!-- Node8 -->
<g id="Node000008" class="node">
<title>Node8</title>
<g id="a_Node000008"><a xlink:title=" ">
<polygon fill="white" stroke="none" points="332.29,-507.5 254.29,-507.5 254.29,-458.5 332.29,-458.5 332.29,-507.5"/>
<text text-anchor="start" x="259.16" y="-494" font-family="Helvetica,sans-Serif" font-size="10.00">MetaEventType</text>
<text text-anchor="start" x="291.79" y="-479" font-family="Helvetica,sans-Serif" font-size="10.00"> </text>
<text text-anchor="start" x="291.79" y="-464" font-family="Helvetica,sans-Serif" font-size="10.00"> </text>
<polygon fill="#666666" stroke="#666666" points="254.29,-490.5 254.29,-490.5 332.29,-490.5 332.29,-490.5 254.29,-490.5"/>
<polygon fill="#666666" stroke="#666666" points="254.29,-475.5 254.29,-475.5 332.29,-475.5 332.29,-475.5 254.29,-475.5"/>
<polygon fill="none" stroke="#666666" points="254.29,-458.5 254.29,-507.5 332.29,-507.5 332.29,-458.5 254.29,-458.5"/>
</a>
</g>
</g>
<!-- Node8&#45;&gt;Node2 -->
<g id="edge7_Node000002_Node000008" class="edge">
<title>Node8&#45;&gt;Node2</title>
<g id="a_edge7_Node000002_Node000008"><a xlink:title=" ">
<path fill="none" stroke="#63b8ff" d="M287.19,-458.52C279.28,-429.58 264.22,-379.24 245.29,-338.5 239.7,-326.48 233.08,-314.11 226.23,-302.24"/>
<polygon fill="none" stroke="#63b8ff" points="226.18,-302.15 219.69,-299.01 220.08,-291.81 226.58,-294.95 226.18,-302.15"/>
</a>
</g>
<text text-anchor="middle" x="261.91" y="-311" font-family="Helvetica,sans-Serif" font-size="10.00" fill="grey"> &#45;metaEvent</text>
</g>
<!-- Node9 -->
<g id="Node000009" class="node">
<title>Node9</title>
<g id="a_Node000009"><a xlink:title=" ">
<polygon fill="white" stroke="none" points="281.79,-253.75 244.79,-253.75 244.79,-204.75 281.79,-204.75 281.79,-253.75"/>
<text text-anchor="start" x="249.79" y="-240.25" font-family="Helvetica,sans-Serif" font-size="10.00">ushort</text>
<text text-anchor="start" x="261.79" y="-225.25" font-family="Helvetica,sans-Serif" font-size="10.00"> </text>
<text text-anchor="start" x="261.79" y="-210.25" font-family="Helvetica,sans-Serif" font-size="10.00"> </text>
<polygon fill="#666666" stroke="#666666" points="244.79,-236.75 244.79,-236.75 281.79,-236.75 281.79,-236.75 244.79,-236.75"/>
<polygon fill="#666666" stroke="#666666" points="244.79,-221.75 244.79,-221.75 281.79,-221.75 281.79,-221.75 244.79,-221.75"/>
<polygon fill="none" stroke="#666666" points="244.79,-204.75 244.79,-253.75 281.79,-253.75 281.79,-204.75 244.79,-204.75"/>
</a>
</g>
</g>
<!-- Node9&#45;&gt;Node1 -->
<g id="edge9_Node000001_Node000009" class="edge">
<title>Node9&#45;&gt;Node1</title>
<g id="a_edge9_Node000001_Node000009"><a xlink:title=" ">
<path fill="none" stroke="#63b8ff" d="M257.45,-204.99C252.7,-186.1 245.74,-158.39 239.19,-132.32"/>
<polygon fill="none" stroke="#63b8ff" points="239.17,-132.21 233.83,-127.36 236.24,-120.57 241.59,-125.41 239.17,-132.21"/>
</a>
</g>
<text text-anchor="middle" x="283.54" y="-139.75" font-family="Helvetica,sans-Serif" font-size="10.00" fill="grey"> &#45;sequenceNumber</text>
</g>
</g>
</svg>
