<?xml version="1.0" encoding="UTF-8" standalone="no"?>
<!DOCTYPE svg PUBLIC "-//W3C//DTD SVG 1.1//EN"
 "http://www.w3.org/Graphics/SVG/1.1/DTD/svg11.dtd">
<!-- Generated by graphviz version 10.0.1 (20240210.2158)
 -->
<!-- Title: NAudio.Wave.Compression.AcmDriver.Dispose Pages: 1 -->
<svg width="710pt" height="76pt"
 viewBox="0.00 0.00 709.50 75.88" xmlns="http://www.w3.org/2000/svg" xmlns:xlink="http://www.w3.org/1999/xlink">
<g id="graph0" class="graph" transform="scale(1 1) rotate(0) translate(4 71.88)">
<title>NAudio.Wave.Compression.AcmDriver.Dispose</title>
<!-- Node1 -->
<g id="Node000001" class="node">
<title>Node1</title>
<g id="a_Node000001"><a xlink:title="Disposes of the resources used by the current instance.">
<polygon fill="#999999" stroke="#666666" points="139.75,-45.88 0,-45.88 0,-15.37 139.75,-15.37 139.75,-45.88"/>
<text text-anchor="start" x="8" y="-32.38" font-family="Helvetica,sans-Serif" font-size="10.00">NAudio.Wave.Compression.</text>
<text text-anchor="middle" x="69.88" y="-21.12" font-family="Helvetica,sans-Serif" font-size="10.00">AcmDriver.Dispose</text>
</a>
</g>
</g>
<!-- Node2 -->
<g id="Node000002" class="node">
<title>Node2</title>
<g id="a_Node000002"><a xlink:href="class_n_audio_1_1_wave_1_1_compression_1_1_acm_driver.html#a9f8f58eea92ab7b97d5a988753126fd7" target="_top" xlink:title="Closes the driver handle if it is not already closed.">
<polygon fill="white" stroke="#666666" points="315.5,-45.88 175.75,-45.88 175.75,-15.37 315.5,-15.37 315.5,-45.88"/>
<text text-anchor="start" x="183.75" y="-32.38" font-family="Helvetica,sans-Serif" font-size="10.00">NAudio.Wave.Compression.</text>
<text text-anchor="middle" x="245.62" y="-21.12" font-family="Helvetica,sans-Serif" font-size="10.00">AcmDriver.Close</text>
</a>
</g>
</g>
<!-- Node1&#45;&gt;Node2 -->
<g id="edge1_Node000001_Node000002" class="edge">
<title>Node1&#45;&gt;Node2</title>
<g id="a_edge1_Node000001_Node000002"><a xlink:title=" ">
<path fill="none" stroke="#63b8ff" d="M140.04,-30.62C147.96,-30.62 156.07,-30.62 164.12,-30.62"/>
<polygon fill="#63b8ff" stroke="#63b8ff" points="163.9,-34.13 173.9,-30.63 163.9,-27.13 163.9,-34.13"/>
</a>
</g>
</g>
<!-- Node3 -->
<g id="Node000003" class="node">
<title>Node3</title>
<g id="a_Node000003"><a xlink:href="class_n_audio_1_1_wave_1_1_compression_1_1_acm_interop.html#af38e9ed6bdaad569c4fa21ac1efea365" target="_top" xlink:title="Closes an Audio Compression Manager (ACM) driver.">
<polygon fill="white" stroke="#666666" points="491.25,-67.88 351.5,-67.88 351.5,-37.38 491.25,-37.38 491.25,-67.88"/>
<text text-anchor="start" x="359.5" y="-54.38" font-family="Helvetica,sans-Serif" font-size="10.00">NAudio.Wave.Compression.</text>
<text text-anchor="middle" x="421.38" y="-43.12" font-family="Helvetica,sans-Serif" font-size="10.00">AcmInterop.acmDriverClose</text>
</a>
</g>
</g>
<!-- Node2&#45;&gt;Node3 -->
<g id="edge2_Node000002_Node000003" class="edge">
<title>Node2&#45;&gt;Node3</title>
<g id="a_edge2_Node000002_Node000003"><a xlink:title=" ">
<path fill="none" stroke="#63b8ff" d="M315.79,-39.38C323.71,-40.38 331.82,-41.41 339.87,-42.43"/>
<polygon fill="#63b8ff" stroke="#63b8ff" points="339.3,-45.89 349.66,-43.67 340.18,-38.94 339.3,-45.89"/>
</a>
</g>
</g>
<!-- Node4 -->
<g id="Node000004" class="node">
<title>Node4</title>
<g id="a_Node000004"><a xlink:href="class_n_audio_1_1_mm_exception.html#a1ca263e295226b2dff8fda80043242d2" target="_top" xlink:title="Throws an exception if the specified result is not equal to MmResult.NoError.">
<polygon fill="white" stroke="#666666" points="485.62,-19.25 357.12,-19.25 357.12,0 485.62,0 485.62,-19.25"/>
<text text-anchor="middle" x="421.38" y="-5.75" font-family="Helvetica,sans-Serif" font-size="10.00">NAudio.MmException.Try</text>
</a>
</g>
</g>
<!-- Node2&#45;&gt;Node4 -->
<g id="edge3_Node000002_Node000004" class="edge">
<title>Node2&#45;&gt;Node4</title>
<g id="a_edge3_Node000002_Node000004"><a xlink:title=" ">
<path fill="none" stroke="#63b8ff" d="M315.79,-22.26C325.52,-21.09 335.56,-19.88 345.39,-18.69"/>
<polygon fill="#63b8ff" stroke="#63b8ff" points="345.79,-22.17 355.3,-17.49 344.95,-15.22 345.79,-22.17"/>
</a>
</g>
</g>
<!-- Node5 -->
<g id="Node000005" class="node">
<title>Node5</title>
<g id="a_Node000005"><a xlink:href="class_n_audio_1_1_mm_exception.html#a674e0bb89c4e2aeb1f4ea96514710947" target="_top" xlink:title="Creates a new MmException.">
<polygon fill="white" stroke="#666666" points="701.5,-19.25 527.25,-19.25 527.25,0 701.5,0 701.5,-19.25"/>
<text text-anchor="middle" x="614.38" y="-5.75" font-family="Helvetica,sans-Serif" font-size="10.00">NAudio.MmException.MmException</text>
</a>
</g>
</g>
<!-- Node4&#45;&gt;Node5 -->
<g id="edge4_Node000004_Node000005" class="edge">
<title>Node4&#45;&gt;Node5</title>
<g id="a_edge4_Node000004_Node000005"><a xlink:title=" ">
<path fill="none" stroke="#63b8ff" d="M485.98,-9.62C495.52,-9.62 505.54,-9.62 515.59,-9.62"/>
<polygon fill="#63b8ff" stroke="#63b8ff" points="515.42,-13.13 525.42,-9.63 515.42,-6.13 515.42,-13.13"/>
</a>
</g>
</g>
</g>
</svg>
