<?xml version="1.0" encoding="UTF-8" standalone="no"?>
<!DOCTYPE svg PUBLIC "-//W3C//DTD SVG 1.1//EN"
 "http://www.w3.org/Graphics/SVG/1.1/DTD/svg11.dtd">
<!-- Generated by graphviz version 10.0.1 (20240210.2158)
 -->
<!-- Title: NAudio.Wave.WaveFileWriter Pages: 1 -->
<!--zoomable 842 -->

<svg id="main" version="1.1" xmlns="http://www.w3.org/2000/svg" xmlns:xlink="http://www.w3.org/1999/xlink" xml:space="preserve" onload="init(evt)">
<style type="text/css"><![CDATA[
.node, .edge {opacity: 0.7;}
.node.selected, .edge.selected {opacity: 1;}
.edge:hover path { stroke: red; }
.edge:hover polygon { stroke: red; fill: red; }
]]></style>

<defs>
  <circle id="rim" cx="0" cy="0" r="7"/>
  <circle id="rim2" cx="0" cy="0" r="3.5"/>
  <g id="zoomPlus">
    <use xlink:href="#rim" fill="#404040"><set attributeName="fill" to="#808080" begin="zoomplus.mouseover" end="zoomplus.mouseout"/></use>
    <path d="M-4,0h8M0,-4v8" fill="none" stroke="white" stroke-width="1.5" pointer-events="none"/>
  </g>
  <g id="zoomMin">
    <use xlink:href="#rim" fill="#404040"><set attributeName="fill" to="#808080" begin="zoomminus.mouseover" end="zoomminus.mouseout"/></use>
    <path d="M-4,0h8" fill="none" stroke="white" stroke-width="1.5" pointer-events="none"/>
  </g>
  <g id="arrowUp" transform="translate(30 24)">
    <use xlink:href="#rim"/>
    <path pointer-events="none" fill="none" stroke="white" stroke-width="1.5" d="M0,-3.0v7 M-2.5,-0.5L0,-3.0L2.5,-0.5"/>
  </g>
  <g id="arrowRight" transform="rotate(90) translate(36 -43)">
    <use xlink:href="#rim"/>
    <path pointer-events="none" fill="none" stroke="white" stroke-width="1.5" d="M0,-3.0v7 M-2.5,-0.5L0,-3.0L2.5,-0.5"/>
  </g>
  <g id="arrowDown" transform="rotate(180) translate(-30 -48)">
    <use xlink:href="#rim"/>
    <path pointer-events="none" fill="none" stroke="white" stroke-width="1.5" d="M0,-3.0v7 M-2.5,-0.5L0,-3.0L2.5,-0.5"/>
  </g>
  <g id="arrowLeft" transform="rotate(270) translate(-36 17)">
    <use xlink:href="#rim"/>
    <path pointer-events="none" fill="none" stroke="white" stroke-width="1.5" d="M0,-3.0v7 M-2.5,-0.5L0,-3.0L2.5,-0.5"/>
  </g>
  <g id="resetDef">
    <use xlink:href="#rim2" fill="#404040"><set attributeName="fill" to="#808080" begin="reset.mouseover" end="reset.mouseout"/></use>
  </g>
</defs>
<script type="application/ecmascript">
var viewWidth = 165;
var viewHeight = 842;
var sectionId = 'dynsection-0';
</script>
<script type="application/ecmascript" xlink:href="svg.min.js"/>
<svg id="graph" class="graph">
<g id="viewport">
<title>NAudio.Wave.WaveFileWriter</title>
<!-- Node1 -->
<g id="Node000001" class="node">
<title>Node1</title>
<g id="a_Node000001"><a xlink:title="This class writes WAV data to a .wav file on disk.">
<polygon fill="#999999" stroke="none" points="148,-749 9,-749 9,-130 148,-130 148,-749"/>
<text text-anchor="start" x="14" y="-735.5" font-family="Helvetica,sans-Serif" font-size="10.00">NAudio.Wave.WaveFileWriter</text>
<text text-anchor="start" x="16" y="-720.5" font-family="Helvetica,sans-Serif" font-size="10.00">+</text>
<text text-anchor="start" x="29" y="-720.5" font-family="Helvetica,sans-Serif" font-size="10.00">Filename</text>
<text text-anchor="start" x="16" y="-705.5" font-family="Helvetica,sans-Serif" font-size="10.00">+</text>
<text text-anchor="start" x="29" y="-705.5" font-family="Helvetica,sans-Serif" font-size="10.00">Length</text>
<text text-anchor="start" x="16" y="-690.5" font-family="Helvetica,sans-Serif" font-size="10.00">+</text>
<text text-anchor="start" x="29" y="-690.5" font-family="Helvetica,sans-Serif" font-size="10.00">TotalTime</text>
<text text-anchor="start" x="16" y="-675.5" font-family="Helvetica,sans-Serif" font-size="10.00">+</text>
<text text-anchor="start" x="29" y="-675.5" font-family="Helvetica,sans-Serif" font-size="10.00">WaveFormat</text>
<text text-anchor="start" x="16" y="-660.5" font-family="Helvetica,sans-Serif" font-size="10.00">+</text>
<text text-anchor="start" x="29" y="-660.5" font-family="Helvetica,sans-Serif" font-size="10.00">CanRead</text>
<text text-anchor="start" x="16" y="-645.5" font-family="Helvetica,sans-Serif" font-size="10.00">+</text>
<text text-anchor="start" x="29" y="-645.5" font-family="Helvetica,sans-Serif" font-size="10.00">CanWrite</text>
<text text-anchor="start" x="16" y="-630.5" font-family="Helvetica,sans-Serif" font-size="10.00">+</text>
<text text-anchor="start" x="29" y="-630.5" font-family="Helvetica,sans-Serif" font-size="10.00">CanSeek</text>
<text text-anchor="start" x="16" y="-615.5" font-family="Helvetica,sans-Serif" font-size="10.00">+</text>
<text text-anchor="start" x="29" y="-615.5" font-family="Helvetica,sans-Serif" font-size="10.00">Position</text>
<text text-anchor="start" x="17.5" y="-600.5" font-family="Helvetica,sans-Serif" font-size="10.00">&#45;</text>
<text text-anchor="start" x="29" y="-600.5" font-family="Helvetica,sans-Serif" font-size="10.00">outStream</text>
<text text-anchor="start" x="17.5" y="-585.5" font-family="Helvetica,sans-Serif" font-size="10.00">&#45;</text>
<text text-anchor="start" x="29" y="-585.5" font-family="Helvetica,sans-Serif" font-size="10.00">writer</text>
<text text-anchor="start" x="17.5" y="-570.5" font-family="Helvetica,sans-Serif" font-size="10.00">&#45;</text>
<text text-anchor="start" x="29" y="-570.5" font-family="Helvetica,sans-Serif" font-size="10.00">dataSizePos</text>
<text text-anchor="start" x="17.5" y="-555.5" font-family="Helvetica,sans-Serif" font-size="10.00">&#45;</text>
<text text-anchor="start" x="29" y="-555.5" font-family="Helvetica,sans-Serif" font-size="10.00">factSampleCountPos</text>
<text text-anchor="start" x="17.5" y="-540.5" font-family="Helvetica,sans-Serif" font-size="10.00">&#45;</text>
<text text-anchor="start" x="29" y="-540.5" font-family="Helvetica,sans-Serif" font-size="10.00">dataChunkSize</text>
<text text-anchor="start" x="17.5" y="-525.5" font-family="Helvetica,sans-Serif" font-size="10.00">&#45;</text>
<text text-anchor="start" x="29" y="-525.5" font-family="Helvetica,sans-Serif" font-size="10.00">format</text>
<text text-anchor="start" x="17.5" y="-510.5" font-family="Helvetica,sans-Serif" font-size="10.00">&#45;</text>
<text text-anchor="start" x="29" y="-510.5" font-family="Helvetica,sans-Serif" font-size="10.00">filename</text>
<text text-anchor="start" x="17.5" y="-495.5" font-family="Helvetica,sans-Serif" font-size="10.00">&#45;</text>
<text text-anchor="start" x="29" y="-495.5" font-family="Helvetica,sans-Serif" font-size="10.00">value24</text>
<text text-anchor="start" x="16" y="-480.5" font-family="Helvetica,sans-Serif" font-size="10.00">+</text>
<text text-anchor="start" x="29" y="-480.5" font-family="Helvetica,sans-Serif" font-size="10.00">WaveFileWriter()</text>
<text text-anchor="start" x="16" y="-465.5" font-family="Helvetica,sans-Serif" font-size="10.00">+</text>
<text text-anchor="start" x="29" y="-465.5" font-family="Helvetica,sans-Serif" font-size="10.00">WaveFileWriter()</text>
<text text-anchor="start" x="16" y="-450.5" font-family="Helvetica,sans-Serif" font-size="10.00">+</text>
<text text-anchor="start" x="29" y="-450.5" font-family="Helvetica,sans-Serif" font-size="10.00">Read()</text>
<text text-anchor="start" x="16" y="-435.5" font-family="Helvetica,sans-Serif" font-size="10.00">+</text>
<text text-anchor="start" x="29" y="-435.5" font-family="Helvetica,sans-Serif" font-size="10.00">Seek()</text>
<text text-anchor="start" x="16" y="-420.5" font-family="Helvetica,sans-Serif" font-size="10.00">+</text>
<text text-anchor="start" x="29" y="-420.5" font-family="Helvetica,sans-Serif" font-size="10.00">SetLength()</text>
<text text-anchor="start" x="16" y="-405.5" font-family="Helvetica,sans-Serif" font-size="10.00">+</text>
<text text-anchor="start" x="29" y="-405.5" font-family="Helvetica,sans-Serif" font-size="10.00">WriteData()</text>
<text text-anchor="start" x="16" y="-390.5" font-family="Helvetica,sans-Serif" font-size="10.00">+</text>
<text text-anchor="start" x="29" y="-390.5" font-family="Helvetica,sans-Serif" font-size="10.00">Write()</text>
<text text-anchor="start" x="16" y="-375.5" font-family="Helvetica,sans-Serif" font-size="10.00">+</text>
<text text-anchor="start" x="29" y="-375.5" font-family="Helvetica,sans-Serif" font-size="10.00">WriteSample()</text>
<text text-anchor="start" x="16" y="-360.5" font-family="Helvetica,sans-Serif" font-size="10.00">+</text>
<text text-anchor="start" x="29" y="-360.5" font-family="Helvetica,sans-Serif" font-size="10.00">WriteSamples()</text>
<text text-anchor="start" x="16" y="-345.5" font-family="Helvetica,sans-Serif" font-size="10.00">+</text>
<text text-anchor="start" x="29" y="-345.5" font-family="Helvetica,sans-Serif" font-size="10.00">WriteData()</text>
<text text-anchor="start" x="16" y="-330.5" font-family="Helvetica,sans-Serif" font-size="10.00">+</text>
<text text-anchor="start" x="29" y="-330.5" font-family="Helvetica,sans-Serif" font-size="10.00">WriteSamples()</text>
<text text-anchor="start" x="16" y="-315.5" font-family="Helvetica,sans-Serif" font-size="10.00">+</text>
<text text-anchor="start" x="29" y="-315.5" font-family="Helvetica,sans-Serif" font-size="10.00">Flush()</text>
<text text-anchor="start" x="16" y="-300.5" font-family="Helvetica,sans-Serif" font-size="10.00">+</text>
<text text-anchor="start" x="29" y="-300.5" font-family="Helvetica,sans-Serif" font-size="10.00">CreateWaveFile16()</text>
<text text-anchor="start" x="16" y="-285.5" font-family="Helvetica,sans-Serif" font-size="10.00">+</text>
<text text-anchor="start" x="29" y="-285.5" font-family="Helvetica,sans-Serif" font-size="10.00">CreateWaveFile()</text>
<text text-anchor="start" x="16" y="-270.5" font-family="Helvetica,sans-Serif" font-size="10.00">+</text>
<text text-anchor="start" x="29" y="-270.5" font-family="Helvetica,sans-Serif" font-size="10.00">WriteWavFileToStream()</text>
<text text-anchor="start" x="16.38" y="-255.5" font-family="Helvetica,sans-Serif" font-size="10.00">#</text>
<text text-anchor="start" x="29" y="-255.5" font-family="Helvetica,sans-Serif" font-size="10.00">Dispose()</text>
<text text-anchor="start" x="16.38" y="-240.5" font-family="Helvetica,sans-Serif" font-size="10.00">#</text>
<text text-anchor="start" x="29" y="-240.5" font-family="Helvetica,sans-Serif" font-size="10.00">UpdateHeader()</text>
<text text-anchor="start" x="17.5" y="-225.5" font-family="Helvetica,sans-Serif" font-size="10.00">&#45;</text>
<text text-anchor="start" x="29" y="-225.5" font-family="Helvetica,sans-Serif" font-size="10.00">WriteDataChunkHeader()</text>
<text text-anchor="start" x="17.5" y="-210.5" font-family="Helvetica,sans-Serif" font-size="10.00">&#45;</text>
<text text-anchor="start" x="29" y="-210.5" font-family="Helvetica,sans-Serif" font-size="10.00">CreateFactChunk()</text>
<text text-anchor="start" x="17.5" y="-195.5" font-family="Helvetica,sans-Serif" font-size="10.00">&#45;</text>
<text text-anchor="start" x="29" y="-195.5" font-family="Helvetica,sans-Serif" font-size="10.00">HasFactChunk()</text>
<text text-anchor="start" x="17.5" y="-180.5" font-family="Helvetica,sans-Serif" font-size="10.00">&#45;</text>
<text text-anchor="start" x="29" y="-180.5" font-family="Helvetica,sans-Serif" font-size="10.00">UpdateDataChunk()</text>
<text text-anchor="start" x="17.5" y="-165.5" font-family="Helvetica,sans-Serif" font-size="10.00">&#45;</text>
<text text-anchor="start" x="29" y="-165.5" font-family="Helvetica,sans-Serif" font-size="10.00">UpdateRiffChunk()</text>
<text text-anchor="start" x="17.5" y="-150.5" font-family="Helvetica,sans-Serif" font-size="10.00">&#45;</text>
<text text-anchor="start" x="29" y="-150.5" font-family="Helvetica,sans-Serif" font-size="10.00">UpdateFactChunk()</text>
<text text-anchor="start" x="17.5" y="-135.5" font-family="Helvetica,sans-Serif" font-size="10.00">&#45;</text>
<text text-anchor="start" x="29" y="-135.5" font-family="Helvetica,sans-Serif" font-size="10.00">~WaveFileWriter()</text>
<polygon fill="#666666" stroke="#666666" points="9,-732 9,-732 148,-732 148,-732 9,-732"/>
<polygon fill="#666666" stroke="#666666" points="9,-492 9,-492 27,-492 27,-492 9,-492"/>
<polygon fill="#666666" stroke="#666666" points="27,-492 27,-492 148,-492 148,-492 27,-492"/>
<polygon fill="none" stroke="#666666" points="9,-130 9,-749 148,-749 148,-130 9,-130"/>
</a>
</g>
</g>
<!-- Node3 -->
<g id="Node000003" class="node">
<title>Node3</title>
<g id="a_Node000003"><a xlink:href="class_n_audio_1_1_wave_1_1_cue_wave_file_writer.html" target="_top" xlink:title="A wave file writer that adds cue support.">
<polygon fill="white" stroke="none" points="157,-94 0,-94 0,0 157,0 157,-94"/>
<text text-anchor="start" x="5" y="-80.5" font-family="Helvetica,sans-Serif" font-size="10.00">NAudio.Wave.CueWaveFileWriter</text>
<text text-anchor="start" x="17.5" y="-65.5" font-family="Helvetica,sans-Serif" font-size="10.00">&#45;</text>
<text text-anchor="start" x="38" y="-65.5" font-family="Helvetica,sans-Serif" font-size="10.00">cues</text>
<text text-anchor="start" x="16" y="-50.5" font-family="Helvetica,sans-Serif" font-size="10.00">+</text>
<text text-anchor="start" x="38" y="-50.5" font-family="Helvetica,sans-Serif" font-size="10.00">CueWaveFileWriter()</text>
<text text-anchor="start" x="16" y="-35.5" font-family="Helvetica,sans-Serif" font-size="10.00">+</text>
<text text-anchor="start" x="38" y="-35.5" font-family="Helvetica,sans-Serif" font-size="10.00">AddCue()</text>
<text text-anchor="start" x="16.38" y="-20.5" font-family="Helvetica,sans-Serif" font-size="10.00">#</text>
<text text-anchor="start" x="38" y="-20.5" font-family="Helvetica,sans-Serif" font-size="10.00">UpdateHeader()</text>
<text text-anchor="start" x="17.5" y="-5.5" font-family="Helvetica,sans-Serif" font-size="10.00">&#45;</text>
<text text-anchor="start" x="38" y="-5.5" font-family="Helvetica,sans-Serif" font-size="10.00">WriteCues()</text>
<polygon fill="#666666" stroke="#666666" points="0,-77 0,-77 157,-77 157,-77 0,-77"/>
<polygon fill="#666666" stroke="#666666" points="0,-62 0,-62 36,-62 36,-62 0,-62"/>
<polygon fill="#666666" stroke="#666666" points="36,-62 36,-62 157,-62 157,-62 36,-62"/>
<polygon fill="none" stroke="#666666" points="0,0 0,-94 157,-94 157,0 0,0"/>
</a>
</g>
</g>
<!-- Node1&#45;&gt;Node3 -->
<g id="edge2_Node000001_Node000003" class="edge">
<title>Node1&#45;&gt;Node3</title>
<g id="a_edge2_Node000001_Node000003"><a xlink:title=" ">
<path fill="none" stroke="#63b8ff" d="M78.5,-119.04C78.5,-110.01 78.5,-101.59 78.5,-93.93"/>
<polygon fill="none" stroke="#63b8ff" points="75,-118.82 78.5,-128.82 82,-118.82 75,-118.82"/>
</a>
</g>
</g>
<!-- Node2 -->
<g id="Node000002" class="node">
<title>Node2</title>
<g id="a_Node000002"><a xlink:title=" ">
<polygon fill="white" stroke="none" points="99,-834 58,-834 58,-785 99,-785 99,-834"/>
<text text-anchor="start" x="62.75" y="-820.5" font-family="Helvetica,sans-Serif" font-size="10.00">Stream</text>
<text text-anchor="start" x="77" y="-805.5" font-family="Helvetica,sans-Serif" font-size="10.00"> </text>
<text text-anchor="start" x="77" y="-790.5" font-family="Helvetica,sans-Serif" font-size="10.00"> </text>
<polygon fill="#666666" stroke="#666666" points="58,-817 58,-817 99,-817 99,-817 58,-817"/>
<polygon fill="#666666" stroke="#666666" points="58,-802 58,-802 99,-802 99,-802 58,-802"/>
<polygon fill="none" stroke="#666666" points="58,-785 58,-834 99,-834 99,-785 58,-785"/>
</a>
</g>
</g>
<!-- Node2&#45;&gt;Node1 -->
<g id="edge1_Node000001_Node000002" class="edge">
<title>Node2&#45;&gt;Node1</title>
<g id="a_edge1_Node000001_Node000002"><a xlink:title=" ">
<path fill="none" stroke="#63b8ff" d="M78.5,-773.74C78.5,-766.36 78.5,-758.02 78.5,-748.91"/>
<polygon fill="none" stroke="#63b8ff" points="75,-773.69 78.5,-783.69 82,-773.69 75,-773.69"/>
</a>
</g>
</g>
</g>
</svg>

<g id="navigator" transform="translate(0 0)" fill="#404254">
  <rect fill="#f2f5e9" fill-opacity="0.5" stroke="#606060" stroke-width=".5" x="0" y="0" width="60" height="60"/>
  <use id="zoomplus" xlink:href="#zoomPlus" x="17" y="9" onmousedown="handleZoom(evt,'in')"/>
  <use id="zoomminus" xlink:href="#zoomMin" x="42" y="9" onmousedown="handleZoom(evt,'out')"/>
  <use id="reset" xlink:href="#resetDef" x="30" y="36" onmousedown="handleReset()"/>
   <use id="arrowup" xlink:href="#arrowUp" x="0" y="0" onmousedown="handlePan(0,-1)"/>
  <use id="arrowright" xlink:href="#arrowRight" x="0" y="0" onmousedown="handlePan(1,0)"/>
  <use id="arrowdown" xlink:href="#arrowDown" x="0" y="0" onmousedown="handlePan(0,1)"/>
  <use id="arrowleft" xlink:href="#arrowLeft" x="0" y="0" onmousedown="handlePan(-1,0)"/>
</g>
<svg viewBox="0 0 15 15" width="100%" height="30px" preserveAspectRatio="xMaxYMin meet">
 <g id="arrow_out" transform="scale(0.3 0.3)">
  <a xlink:href="class_n_audio_1_1_wave_1_1_wave_file_writer__inherit__graph_org.svg" target="_base">
   <rect id="button" ry="5" rx="5" y="6" x="6" height="38" width="38"
        fill="#f2f5e9" fill-opacity="0.5" stroke="#606060" stroke-width="1.0"/>
   <path id="arrow"
     d="M 11.500037,31.436501 C 11.940474,20.09759 22.043105,11.32322 32.158766,21.979434 L 37.068811,17.246167 C 37.068811,17.246167 37.088388,32 37.088388,32 L 22.160133,31.978069 C 22.160133,31.978069 26.997745,27.140456 26.997745,27.140456 C 18.528582,18.264221 13.291696,25.230495 11.500037,31.436501 z"
     style="fill:#404040;"/>
  </a>
 </g>
</svg>

<style type='text/css'>
<![CDATA[
[data-mouse-over-selected='false'] { opacity: 0.7; }
[data-mouse-over-selected='true']  { opacity: 1.0; }
]]>
</style>
<script type="application/ecmascript"><![CDATA[
document.addEventListener('DOMContentLoaded', (event) => {
  highlightEdges();
  highlightAdjacentNodes();
});
]]></script>
</svg>
