<?xml version="1.0" encoding="UTF-8" standalone="no"?>
<!DOCTYPE svg PUBLIC "-//W3C//DTD SVG 1.1//EN"
 "http://www.w3.org/Graphics/SVG/1.1/DTD/svg11.dtd">
<!-- Generated by graphviz version 10.0.1 (20240210.2158)
 -->
<!-- Title: NAudio.Wave.MediaFoundationResampler Pages: 1 -->
<svg width="1277pt" height="1069pt"
 viewBox="0.00 0.00 1276.50 1069.00" xmlns="http://www.w3.org/2000/svg" xmlns:xlink="http://www.w3.org/1999/xlink">
<g id="graph0" class="graph" transform="scale(1 1) rotate(0) translate(4 1065)">
<title>NAudio.Wave.MediaFoundationResampler</title>
<!-- Node1 -->
<g id="Node000001" class="node">
<title>Node1</title>
<g id="a_Node000001"><a xlink:title="The Media Foundation Resampler Transform.">
<polygon fill="#999999" stroke="none" points="1110,-191 960,-191 960,0 1110,0 1110,-191"/>
<text text-anchor="start" x="966.38" y="-177.5" font-family="Helvetica,sans-Serif" font-size="10.00">NAudio.Wave.MediaFoundation</text>
<text text-anchor="start" x="1011.38" y="-166.25" font-family="Helvetica,sans-Serif" font-size="10.00">Resampler</text>
<text text-anchor="start" x="964" y="-151.5" font-family="Helvetica,sans-Serif" font-size="10.00">+</text>
<text text-anchor="start" x="974" y="-151.5" font-family="Helvetica,sans-Serif" font-size="10.00">ResamplerQuality</text>
<text text-anchor="start" x="964" y="-136.5" font-family="Helvetica,sans-Serif" font-size="10.00">+</text>
<text text-anchor="start" x="974" y="-136.5" font-family="Helvetica,sans-Serif" font-size="10.00">MediaFoundationResampler()</text>
<text text-anchor="start" x="964" y="-121.5" font-family="Helvetica,sans-Serif" font-size="10.00">+</text>
<text text-anchor="start" x="974" y="-121.5" font-family="Helvetica,sans-Serif" font-size="10.00">MediaFoundationResampler()</text>
<text text-anchor="start" x="964.38" y="-106.5" font-family="Helvetica,sans-Serif" font-size="10.00">#</text>
<text text-anchor="start" x="974" y="-106.5" font-family="Helvetica,sans-Serif" font-size="10.00">CreateTransform()</text>
<text text-anchor="start" x="964.38" y="-91.5" font-family="Helvetica,sans-Serif" font-size="10.00">#</text>
<text text-anchor="start" x="974" y="-91.5" font-family="Helvetica,sans-Serif" font-size="10.00">Dispose()</text>
<text text-anchor="start" x="965.5" y="-76.5" font-family="Helvetica,sans-Serif" font-size="10.00">&#45;</text>
<text text-anchor="start" x="974" y="-76.5" font-family="Helvetica,sans-Serif" font-size="10.00">FreeComObject()</text>
<text text-anchor="start" x="965.5" y="-61.5" font-family="Helvetica,sans-Serif" font-size="10.00">&#45;</text>
<text text-anchor="start" x="974" y="-61.5" font-family="Helvetica,sans-Serif" font-size="10.00">CreateResamplerComObject()</text>
<text text-anchor="start" x="965.5" y="-46.5" font-family="Helvetica,sans-Serif" font-size="10.00">&#45;</text>
<text text-anchor="start" x="974" y="-46.5" font-family="Helvetica,sans-Serif" font-size="10.00">CreateResamplerComObject</text>
<text text-anchor="start" x="974" y="-35.25" font-family="Helvetica,sans-Serif" font-size="10.00">UsingActivator()</text>
<text text-anchor="start" x="965.5" y="-20.5" font-family="Helvetica,sans-Serif" font-size="10.00">&#45;</text>
<text text-anchor="start" x="974" y="-20.5" font-family="Helvetica,sans-Serif" font-size="10.00">IsPcmOrIeeeFloat()</text>
<text text-anchor="start" x="965.5" y="-5.5" font-family="Helvetica,sans-Serif" font-size="10.00">&#45;</text>
<text text-anchor="start" x="974" y="-5.5" font-family="Helvetica,sans-Serif" font-size="10.00">CreateOutputFormat()</text>
<polygon fill="#666666" stroke="#666666" points="960,-163 960,-163 1110,-163 1110,-163 960,-163"/>
<polygon fill="#666666" stroke="#666666" points="960,-148 960,-148 972,-148 972,-148 960,-148"/>
<polygon fill="#666666" stroke="#666666" points="972,-148 972,-148 1110,-148 1110,-148 972,-148"/>
<polygon fill="none" stroke="#666666" points="960,0 960,-191 1110,-191 1110,0 960,0"/>
</a>
</g>
</g>
<!-- Node2 -->
<g id="Node000002" class="node">
<title>Node2</title>
<g id="a_Node000002"><a xlink:href="class_n_audio_1_1_media_foundation_1_1_media_foundation_transform.html" target="_top" xlink:title="An abstract base class for simplifying working with Media Foundation Transforms You need to override ...">
<polygon fill="white" stroke="none" points="719,-493.5 557,-493.5 557,-249.5 719,-249.5 719,-493.5"/>
<text text-anchor="start" x="578.75" y="-480" font-family="Helvetica,sans-Serif" font-size="10.00">MediaFoundationTransform</text>
<text text-anchor="start" x="561" y="-465" font-family="Helvetica,sans-Serif" font-size="10.00">+</text>
<text text-anchor="start" x="571" y="-465" font-family="Helvetica,sans-Serif" font-size="10.00">WaveFormat</text>
<text text-anchor="start" x="561" y="-450" font-family="Helvetica,sans-Serif" font-size="10.00">+</text>
<text text-anchor="start" x="571" y="-450" font-family="Helvetica,sans-Serif" font-size="10.00">MediaFoundationTransform()</text>
<text text-anchor="start" x="561" y="-435" font-family="Helvetica,sans-Serif" font-size="10.00">+</text>
<text text-anchor="start" x="571" y="-435" font-family="Helvetica,sans-Serif" font-size="10.00">Dispose()</text>
<text text-anchor="start" x="561" y="-420" font-family="Helvetica,sans-Serif" font-size="10.00">+</text>
<text text-anchor="start" x="571" y="-420" font-family="Helvetica,sans-Serif" font-size="10.00">Read()</text>
<text text-anchor="start" x="561" y="-405" font-family="Helvetica,sans-Serif" font-size="10.00">+</text>
<text text-anchor="start" x="571" y="-405" font-family="Helvetica,sans-Serif" font-size="10.00">Reposition()</text>
<text text-anchor="start" x="561.38" y="-390" font-family="Helvetica,sans-Serif" font-size="10.00">#</text>
<text text-anchor="start" x="571" y="-390" font-family="Helvetica,sans-Serif" font-size="10.00">CreateTransform()</text>
<text text-anchor="start" x="561.38" y="-375" font-family="Helvetica,sans-Serif" font-size="10.00">#</text>
<text text-anchor="start" x="571" y="-375" font-family="Helvetica,sans-Serif" font-size="10.00">Dispose()</text>
<text text-anchor="start" x="562.5" y="-360" font-family="Helvetica,sans-Serif" font-size="10.00">&#45;</text>
<text text-anchor="start" x="571" y="-360" font-family="Helvetica,sans-Serif" font-size="10.00">InitializeTransformForStreaming()</text>
<text text-anchor="start" x="562.5" y="-345" font-family="Helvetica,sans-Serif" font-size="10.00">&#45;</text>
<text text-anchor="start" x="571" y="-345" font-family="Helvetica,sans-Serif" font-size="10.00">~MediaFoundationTransform()</text>
<text text-anchor="start" x="562.5" y="-330" font-family="Helvetica,sans-Serif" font-size="10.00">&#45;</text>
<text text-anchor="start" x="571" y="-330" font-family="Helvetica,sans-Serif" font-size="10.00">EndStreamAndDrain()</text>
<text text-anchor="start" x="562.5" y="-315" font-family="Helvetica,sans-Serif" font-size="10.00">&#45;</text>
<text text-anchor="start" x="571" y="-315" font-family="Helvetica,sans-Serif" font-size="10.00">ClearOutputBuffer()</text>
<text text-anchor="start" x="562.5" y="-300" font-family="Helvetica,sans-Serif" font-size="10.00">&#45;</text>
<text text-anchor="start" x="571" y="-300" font-family="Helvetica,sans-Serif" font-size="10.00">ReadFromTransform()</text>
<text text-anchor="start" x="562.5" y="-285" font-family="Helvetica,sans-Serif" font-size="10.00">&#45;</text>
<text text-anchor="start" x="571" y="-285" font-family="Helvetica,sans-Serif" font-size="10.00">ReadFromSource()</text>
<text text-anchor="start" x="562.5" y="-270" font-family="Helvetica,sans-Serif" font-size="10.00">&#45;</text>
<text text-anchor="start" x="571" y="-270" font-family="Helvetica,sans-Serif" font-size="10.00">ReadFromOutputBuffer()</text>
<text text-anchor="start" x="562.5" y="-255" font-family="Helvetica,sans-Serif" font-size="10.00">&#45;</text>
<text text-anchor="start" x="571" y="-255" font-family="Helvetica,sans-Serif" font-size="10.00">BytesToNsPosition()</text>
<polygon fill="#666666" stroke="#666666" points="557,-476.5 557,-476.5 719,-476.5 719,-476.5 557,-476.5"/>
<polygon fill="#666666" stroke="#666666" points="557,-461.5 557,-461.5 569,-461.5 569,-461.5 557,-461.5"/>
<polygon fill="#666666" stroke="#666666" points="569,-461.5 569,-461.5 719,-461.5 719,-461.5 569,-461.5"/>
<polygon fill="none" stroke="#666666" points="557,-249.5 557,-493.5 719,-493.5 719,-249.5 557,-249.5"/>
</a>
</g>
</g>
<!-- Node2&#45;&gt;Node1 -->
<g id="edge1_Node000001_Node000002" class="edge">
<title>Node2&#45;&gt;Node1</title>
<g id="a_edge1_Node000001_Node000002"><a xlink:title=" ">
<path fill="none" stroke="#63b8ff" d="M728.09,-308.32C798.12,-259.99 894.12,-193.73 960,-148.26"/>
<polygon fill="none" stroke="#63b8ff" points="726.31,-305.3 720.06,-313.86 730.28,-311.06 726.31,-305.3"/>
</a>
</g>
</g>
<!-- Node3 -->
<g id="Node000003" class="node">
<title>Node3</title>
<g id="a_Node000003"><a xlink:href="interface_n_audio_1_1_wave_1_1_i_wave_provider.html" target="_top" xlink:title="Generic interface for all WaveProviders.">
<polygon fill="white" stroke="none" points="556.5,-766 483.5,-766 483.5,-717 556.5,-717 556.5,-766"/>
<text text-anchor="start" x="488.12" y="-752.5" font-family="Helvetica,sans-Serif" font-size="10.00">IWaveProvider</text>
<text text-anchor="start" x="487.5" y="-737.5" font-family="Helvetica,sans-Serif" font-size="10.00">+</text>
<text text-anchor="start" x="497.5" y="-737.5" font-family="Helvetica,sans-Serif" font-size="10.00">WaveFormat</text>
<text text-anchor="start" x="487.5" y="-722.5" font-family="Helvetica,sans-Serif" font-size="10.00">+</text>
<text text-anchor="start" x="497.5" y="-722.5" font-family="Helvetica,sans-Serif" font-size="10.00">Read()</text>
<polygon fill="#666666" stroke="#666666" points="483.5,-749 483.5,-749 556.5,-749 556.5,-749 483.5,-749"/>
<polygon fill="#666666" stroke="#666666" points="483.5,-734 483.5,-734 495.5,-734 495.5,-734 483.5,-734"/>
<polygon fill="#666666" stroke="#666666" points="495.5,-734 495.5,-734 556.5,-734 556.5,-734 495.5,-734"/>
<polygon fill="none" stroke="#666666" points="483.5,-717 483.5,-766 556.5,-766 556.5,-717 483.5,-717"/>
</a>
</g>
</g>
<!-- Node3&#45;&gt;Node2 -->
<g id="edge2_Node000002_Node000003" class="edge">
<title>Node3&#45;&gt;Node2</title>
<g id="a_edge2_Node000002_Node000003"><a xlink:title=" ">
<path fill="none" stroke="#63b8ff" d="M526.81,-706.31C534.75,-668.23 548.98,-605.05 566,-552 572.15,-532.82 579.38,-512.77 586.83,-493.31"/>
<polygon fill="none" stroke="#63b8ff" points="523.45,-705.3 524.86,-715.8 530.3,-706.71 523.45,-705.3"/>
</a>
</g>
</g>
<!-- Node4 -->
<g id="Node000004" class="node">
<title>Node4</title>
<g id="a_Node000004"><a xlink:href="class_i_disposable.html" target="_top" xlink:title=" ">
<polygon fill="white" stroke="none" points="984.5,-766 923.5,-766 923.5,-717 984.5,-717 984.5,-766"/>
<text text-anchor="start" x="928.12" y="-752.5" font-family="Helvetica,sans-Serif" font-size="10.00">IDisposable</text>
<text text-anchor="start" x="952.5" y="-737.5" font-family="Helvetica,sans-Serif" font-size="10.00"> </text>
<text text-anchor="start" x="952.5" y="-722.5" font-family="Helvetica,sans-Serif" font-size="10.00"> </text>
<polygon fill="#666666" stroke="#666666" points="923.5,-749 923.5,-749 984.5,-749 984.5,-749 923.5,-749"/>
<polygon fill="#666666" stroke="#666666" points="923.5,-734 923.5,-734 984.5,-734 984.5,-734 923.5,-734"/>
<polygon fill="none" stroke="#666666" points="923.5,-717 923.5,-766 984.5,-766 984.5,-717 923.5,-717"/>
</a>
</g>
</g>
<!-- Node4&#45;&gt;Node2 -->
<g id="edge3_Node000002_Node000004" class="edge">
<title>Node4&#45;&gt;Node2</title>
<g id="a_edge3_Node000002_Node000004"><a xlink:title=" ">
<path fill="none" stroke="#63b8ff" d="M961.23,-706.16C969.33,-658.05 976.52,-569.93 936,-511.5 885.98,-439.38 788.55,-403.75 718.7,-386.79"/>
<polygon fill="none" stroke="#63b8ff" points="957.84,-705.26 959.5,-715.72 964.73,-706.5 957.84,-705.26"/>
</a>
</g>
</g>
<!-- Node5 -->
<g id="Node000005" class="node">
<title>Node5</title>
<g id="a_Node000005"><a xlink:href="interface_n_audio_1_1_wave_1_1_i_wave_provider.html" target="_top" xlink:title="Generic interface for all WaveProviders.">
<polygon fill="white" stroke="none" points="156,-766 20,-766 20,-717 156,-717 156,-766"/>
<text text-anchor="start" x="24.62" y="-752.5" font-family="Helvetica,sans-Serif" font-size="10.00">NAudio.Wave.IWaveProvider</text>
<text text-anchor="start" x="39.5" y="-737.5" font-family="Helvetica,sans-Serif" font-size="10.00">+</text>
<text text-anchor="start" x="65" y="-737.5" font-family="Helvetica,sans-Serif" font-size="10.00">WaveFormat</text>
<text text-anchor="start" x="39.5" y="-722.5" font-family="Helvetica,sans-Serif" font-size="10.00">+</text>
<text text-anchor="start" x="65" y="-722.5" font-family="Helvetica,sans-Serif" font-size="10.00">Read()</text>
<polygon fill="#666666" stroke="#666666" points="20,-749 20,-749 156,-749 156,-749 20,-749"/>
<polygon fill="#666666" stroke="#666666" points="20,-734 20,-734 63,-734 63,-734 20,-734"/>
<polygon fill="#666666" stroke="#666666" points="63,-734 63,-734 156,-734 156,-734 63,-734"/>
<polygon fill="none" stroke="#666666" points="20,-717 20,-766 156,-766 156,-717 20,-717"/>
</a>
</g>
</g>
<!-- Node5&#45;&gt;Node2 -->
<g id="edge4_Node000002_Node000005" class="edge">
<title>Node5&#45;&gt;Node2</title>
<g id="a_edge4_Node000002_Node000005"><a xlink:title=" ">
<path fill="none" stroke="#63b8ff" d="M90.94,-717.3C98.1,-670.78 120.9,-565.93 185.5,-511.5 288.46,-424.76 444.94,-392.11 544.29,-379.85"/>
<polygon fill="none" stroke="#63b8ff" points="544.2,-379.86 549.69,-375.18 556.12,-378.45 550.63,-383.13 544.2,-379.86"/>
</a>
</g>
<text text-anchor="middle" x="222.75" y="-518.88" font-family="Helvetica,sans-Serif" font-size="10.00" fill="grey"> #sourceProvider</text>
</g>
<!-- Node6 -->
<g id="Node000006" class="node">
<title>Node6</title>
<g id="a_Node000006"><a xlink:href="class_n_audio_1_1_wave_1_1_wave_format.html" target="_top" xlink:title="Represents a Wave file format.">
<polygon fill="white" stroke="none" points="323.5,-931 174.5,-931 174.5,-552 323.5,-552 323.5,-931"/>
<text text-anchor="start" x="189.75" y="-917.5" font-family="Helvetica,sans-Serif" font-size="10.00">NAudio.Wave.WaveFormat</text>
<text text-anchor="start" x="178.5" y="-902.5" font-family="Helvetica,sans-Serif" font-size="10.00">+</text>
<text text-anchor="start" x="188.5" y="-902.5" font-family="Helvetica,sans-Serif" font-size="10.00">Encoding</text>
<text text-anchor="start" x="178.5" y="-887.5" font-family="Helvetica,sans-Serif" font-size="10.00">+</text>
<text text-anchor="start" x="188.5" y="-887.5" font-family="Helvetica,sans-Serif" font-size="10.00">Channels</text>
<text text-anchor="start" x="178.5" y="-872.5" font-family="Helvetica,sans-Serif" font-size="10.00">+</text>
<text text-anchor="start" x="188.5" y="-872.5" font-family="Helvetica,sans-Serif" font-size="10.00">SampleRate</text>
<text text-anchor="start" x="178.5" y="-857.5" font-family="Helvetica,sans-Serif" font-size="10.00">+</text>
<text text-anchor="start" x="188.5" y="-857.5" font-family="Helvetica,sans-Serif" font-size="10.00">AverageBytesPerSecond</text>
<text text-anchor="start" x="178.5" y="-842.5" font-family="Helvetica,sans-Serif" font-size="10.00">+</text>
<text text-anchor="start" x="188.5" y="-842.5" font-family="Helvetica,sans-Serif" font-size="10.00">BlockAlign</text>
<text text-anchor="start" x="178.5" y="-827.5" font-family="Helvetica,sans-Serif" font-size="10.00">+</text>
<text text-anchor="start" x="188.5" y="-827.5" font-family="Helvetica,sans-Serif" font-size="10.00">BitsPerSample</text>
<text text-anchor="start" x="178.5" y="-812.5" font-family="Helvetica,sans-Serif" font-size="10.00">+</text>
<text text-anchor="start" x="188.5" y="-812.5" font-family="Helvetica,sans-Serif" font-size="10.00">ExtraSize</text>
<text text-anchor="start" x="178.5" y="-797.5" font-family="Helvetica,sans-Serif" font-size="10.00">+</text>
<text text-anchor="start" x="188.5" y="-797.5" font-family="Helvetica,sans-Serif" font-size="10.00">WaveFormat()</text>
<text text-anchor="start" x="178.5" y="-782.5" font-family="Helvetica,sans-Serif" font-size="10.00">+</text>
<text text-anchor="start" x="188.5" y="-782.5" font-family="Helvetica,sans-Serif" font-size="10.00">WaveFormat()</text>
<text text-anchor="start" x="178.5" y="-767.5" font-family="Helvetica,sans-Serif" font-size="10.00">+</text>
<text text-anchor="start" x="188.5" y="-767.5" font-family="Helvetica,sans-Serif" font-size="10.00">ConvertLatencyToByteSize()</text>
<text text-anchor="start" x="178.5" y="-752.5" font-family="Helvetica,sans-Serif" font-size="10.00">+</text>
<text text-anchor="start" x="188.5" y="-752.5" font-family="Helvetica,sans-Serif" font-size="10.00">WaveFormat()</text>
<text text-anchor="start" x="178.5" y="-737.5" font-family="Helvetica,sans-Serif" font-size="10.00">+</text>
<text text-anchor="start" x="188.5" y="-737.5" font-family="Helvetica,sans-Serif" font-size="10.00">WaveFormat()</text>
<text text-anchor="start" x="178.5" y="-722.5" font-family="Helvetica,sans-Serif" font-size="10.00">+</text>
<text text-anchor="start" x="188.5" y="-722.5" font-family="Helvetica,sans-Serif" font-size="10.00">ToString()</text>
<text text-anchor="start" x="178.5" y="-707.5" font-family="Helvetica,sans-Serif" font-size="10.00">+</text>
<text text-anchor="start" x="188.5" y="-707.5" font-family="Helvetica,sans-Serif" font-size="10.00">Equals()</text>
<text text-anchor="start" x="178.5" y="-692.5" font-family="Helvetica,sans-Serif" font-size="10.00">+</text>
<text text-anchor="start" x="188.5" y="-692.5" font-family="Helvetica,sans-Serif" font-size="10.00">GetHashCode()</text>
<text text-anchor="start" x="178.5" y="-677.5" font-family="Helvetica,sans-Serif" font-size="10.00">+</text>
<text text-anchor="start" x="188.5" y="-677.5" font-family="Helvetica,sans-Serif" font-size="10.00">Serialize()</text>
<text text-anchor="start" x="178.5" y="-662.5" font-family="Helvetica,sans-Serif" font-size="10.00">+</text>
<text text-anchor="start" x="188.5" y="-662.5" font-family="Helvetica,sans-Serif" font-size="10.00">CreateCustomFormat()</text>
<text text-anchor="start" x="178.5" y="-647.5" font-family="Helvetica,sans-Serif" font-size="10.00">+</text>
<text text-anchor="start" x="188.5" y="-647.5" font-family="Helvetica,sans-Serif" font-size="10.00">CreateALawFormat()</text>
<text text-anchor="start" x="178.5" y="-632.5" font-family="Helvetica,sans-Serif" font-size="10.00">+</text>
<text text-anchor="start" x="188.5" y="-632.5" font-family="Helvetica,sans-Serif" font-size="10.00">CreateMuLawFormat()</text>
<text text-anchor="start" x="178.5" y="-617.5" font-family="Helvetica,sans-Serif" font-size="10.00">+</text>
<text text-anchor="start" x="188.5" y="-617.5" font-family="Helvetica,sans-Serif" font-size="10.00">CreateIeeeFloatWaveFormat()</text>
<text text-anchor="start" x="178.5" y="-602.5" font-family="Helvetica,sans-Serif" font-size="10.00">+</text>
<text text-anchor="start" x="188.5" y="-602.5" font-family="Helvetica,sans-Serif" font-size="10.00">MarshalFromPtr()</text>
<text text-anchor="start" x="178.5" y="-587.5" font-family="Helvetica,sans-Serif" font-size="10.00">+</text>
<text text-anchor="start" x="188.5" y="-587.5" font-family="Helvetica,sans-Serif" font-size="10.00">MarshalToPtr()</text>
<text text-anchor="start" x="178.5" y="-572.5" font-family="Helvetica,sans-Serif" font-size="10.00">+</text>
<text text-anchor="start" x="188.5" y="-572.5" font-family="Helvetica,sans-Serif" font-size="10.00">FromFormatChunk()</text>
<text text-anchor="start" x="180" y="-557.5" font-family="Helvetica,sans-Serif" font-size="10.00">&#45;</text>
<text text-anchor="start" x="188.5" y="-557.5" font-family="Helvetica,sans-Serif" font-size="10.00">ReadWaveFormat()</text>
<polygon fill="#666666" stroke="#666666" points="174.5,-914 174.5,-914 323.5,-914 323.5,-914 174.5,-914"/>
<polygon fill="#666666" stroke="#666666" points="174.5,-809 174.5,-809 186.5,-809 186.5,-809 174.5,-809"/>
<polygon fill="#666666" stroke="#666666" points="186.5,-809 186.5,-809 323.5,-809 323.5,-809 186.5,-809"/>
<polygon fill="none" stroke="#666666" points="174.5,-552 174.5,-931 323.5,-931 323.5,-552 174.5,-552"/>
</a>
</g>
</g>
<!-- Node6&#45;&gt;Node2 -->
<g id="edge5_Node000002_Node000006" class="edge">
<title>Node6&#45;&gt;Node2</title>
<g id="a_edge5_Node000002_Node000006"><a xlink:title=" ">
<path fill="none" stroke="#63b8ff" d="M253.1,-552.13C258.52,-537.55 265.75,-523.75 275.25,-511.5 339.71,-428.36 460.3,-394.93 544.69,-381.5"/>
<polygon fill="none" stroke="#63b8ff" points="544.63,-381.51 549.96,-376.66 556.49,-379.72 551.15,-384.57 544.63,-381.51"/>
</a>
</g>
<text text-anchor="middle" x="321.38" y="-518.88" font-family="Helvetica,sans-Serif" font-size="10.00" fill="grey"> #outputWaveFormat</text>
</g>
<!-- Node7 -->
<g id="Node000007" class="node">
<title>Node7</title>
<g id="a_Node000007"><a xlink:title=" ">
<polygon fill="white" stroke="none" points="106,-1061 0,-1061 0,-1012 106,-1012 106,-1061"/>
<text text-anchor="start" x="5" y="-1047.5" font-family="Helvetica,sans-Serif" font-size="10.00">WaveFormatEncoding</text>
<text text-anchor="start" x="51.5" y="-1032.5" font-family="Helvetica,sans-Serif" font-size="10.00"> </text>
<text text-anchor="start" x="51.5" y="-1017.5" font-family="Helvetica,sans-Serif" font-size="10.00"> </text>
<polygon fill="#666666" stroke="#666666" points="0,-1044 0,-1044 106,-1044 106,-1044 0,-1044"/>
<polygon fill="#666666" stroke="#666666" points="0,-1029 0,-1029 106,-1029 106,-1029 0,-1029"/>
<polygon fill="none" stroke="#666666" points="0,-1012 0,-1061 106,-1061 106,-1012 0,-1012"/>
</a>
</g>
</g>
<!-- Node7&#45;&gt;Node6 -->
<g id="edge6_Node000006_Node000007" class="edge">
<title>Node7&#45;&gt;Node6</title>
<g id="a_edge6_Node000006_Node000007"><a xlink:title=" ">
<path fill="none" stroke="#63b8ff" d="M50.65,-1012.02C50.07,-992.49 52.71,-965.33 69,-949 97.14,-920.79 125.81,-951.88 164.2,-929.8"/>
<polygon fill="none" stroke="#63b8ff" points="164.11,-929.86 166.78,-923.16 173.99,-923.05 171.32,-929.75 164.11,-929.86"/>
</a>
</g>
<text text-anchor="middle" x="108" y="-967.62" font-family="Helvetica,sans-Serif" font-size="10.00" fill="grey"> #waveFormatTag</text>
</g>
<!-- Node8 -->
<g id="Node000008" class="node">
<title>Node8</title>
<g id="a_Node000008"><a xlink:title=" ">
<polygon fill="white" stroke="none" points="169.5,-1061 138.5,-1061 138.5,-1012 169.5,-1012 169.5,-1061"/>
<text text-anchor="start" x="143.12" y="-1047.5" font-family="Helvetica,sans-Serif" font-size="10.00">short</text>
<text text-anchor="start" x="152.5" y="-1032.5" font-family="Helvetica,sans-Serif" font-size="10.00"> </text>
<text text-anchor="start" x="152.5" y="-1017.5" font-family="Helvetica,sans-Serif" font-size="10.00"> </text>
<polygon fill="#666666" stroke="#666666" points="138.5,-1044 138.5,-1044 169.5,-1044 169.5,-1044 138.5,-1044"/>
<polygon fill="#666666" stroke="#666666" points="138.5,-1029 138.5,-1029 169.5,-1029 169.5,-1029 138.5,-1029"/>
<polygon fill="none" stroke="#666666" points="138.5,-1012 138.5,-1061 169.5,-1061 169.5,-1012 138.5,-1012"/>
</a>
</g>
</g>
<!-- Node8&#45;&gt;Node6 -->
<g id="edge7_Node000006_Node000008" class="edge">
<title>Node8&#45;&gt;Node6</title>
<g id="a_edge7_Node000006_Node000008"><a xlink:title=" ">
<path fill="none" stroke="#63b8ff" d="M151.22,-1012.32C149.83,-994.66 149.45,-969.9 155,-949 157.35,-940.15 160.91,-939.19 165,-931 166.3,-928.4 167.6,-925.77 168.91,-923.12"/>
<polygon fill="none" stroke="#63b8ff" points="168.97,-922.98 168,-915.84 174.23,-912.19 175.19,-919.34 168.97,-922.98"/>
</a>
</g>
<text text-anchor="middle" x="191" y="-984.5" font-family="Helvetica,sans-Serif" font-size="10.00" fill="grey"> #bitsPerSample</text>
<text text-anchor="middle" x="191" y="-973.25" font-family="Helvetica,sans-Serif" font-size="10.00" fill="grey">#blockAlign</text>
<text text-anchor="middle" x="191" y="-962" font-family="Helvetica,sans-Serif" font-size="10.00" fill="grey">#channels</text>
<text text-anchor="middle" x="191" y="-950.75" font-family="Helvetica,sans-Serif" font-size="10.00" fill="grey">#extraSize</text>
</g>
<!-- Node9 -->
<g id="Node000009" class="node">
<title>Node9</title>
<g id="a_Node000009"><a xlink:title=" ">
<polygon fill="white" stroke="none" points="390,-1061 370,-1061 370,-1012 390,-1012 390,-1061"/>
<text text-anchor="start" x="374.75" y="-1047.5" font-family="Helvetica,sans-Serif" font-size="10.00">int</text>
<text text-anchor="start" x="378.5" y="-1032.5" font-family="Helvetica,sans-Serif" font-size="10.00"> </text>
<text text-anchor="start" x="378.5" y="-1017.5" font-family="Helvetica,sans-Serif" font-size="10.00"> </text>
<polygon fill="#666666" stroke="#666666" points="370,-1044 370,-1044 390,-1044 390,-1044 370,-1044"/>
<polygon fill="#666666" stroke="#666666" points="370,-1029 370,-1029 390,-1029 390,-1029 370,-1029"/>
<polygon fill="none" stroke="#666666" points="370,-1012 370,-1061 390,-1061 390,-1012 370,-1012"/>
</a>
</g>
</g>
<!-- Node9&#45;&gt;Node1 -->
<g id="edge14_Node000001_Node000009" class="edge">
<title>Node9&#45;&gt;Node1</title>
<g id="a_edge14_Node000001_Node000009"><a xlink:title=" ">
<path fill="none" stroke="#63b8ff" d="M389.56,-1035.43C460.87,-1034.69 909.51,-1026.25 994,-931 1005.91,-917.58 1023.91,-426.05 1031.47,-203.76"/>
<polygon fill="none" stroke="#63b8ff" points="1031.47,-203.69 1027.67,-197.56 1031.87,-191.7 1035.67,-197.83 1031.47,-203.69"/>
</a>
</g>
<text text-anchor="middle" x="1058.75" y="-518.88" font-family="Helvetica,sans-Serif" font-size="10.00" fill="grey"> &#45;resamplerQuality</text>
</g>
<!-- Node9&#45;&gt;Node2 -->
<g id="edge10_Node000002_Node000009" class="edge">
<title>Node9&#45;&gt;Node2</title>
<g id="a_edge10_Node000002_Node000009"><a xlink:title=" ">
<path fill="none" stroke="#63b8ff" d="M377.7,-1012.06C369.73,-926.68 346.05,-633.07 388.5,-552 421.9,-488.2 489.43,-441.79 545.81,-412.15"/>
<polygon fill="none" stroke="#63b8ff" points="545.81,-412.15 549.32,-405.86 556.49,-406.68 552.97,-412.98 545.81,-412.15"/>
</a>
</g>
<text text-anchor="middle" x="431.75" y="-743.25" font-family="Helvetica,sans-Serif" font-size="10.00" fill="grey"> &#45;outputBufferCount</text>
<text text-anchor="middle" x="431.75" y="-732" font-family="Helvetica,sans-Serif" font-size="10.00" fill="grey">&#45;outputBufferOffset</text>
</g>
<!-- Node9&#45;&gt;Node6 -->
<g id="edge8_Node000006_Node000009" class="edge">
<title>Node9&#45;&gt;Node6</title>
<g id="a_edge8_Node000006_Node000009"><a xlink:title=" ">
<path fill="none" stroke="#63b8ff" d="M370.34,-1035.88C345.38,-1036.27 278.66,-1033.43 249.75,-994 238.63,-978.84 231.23,-961.66 226.62,-943.57"/>
<polygon fill="none" stroke="#63b8ff" points="226.61,-943.52 221.42,-938.51 224.05,-931.8 229.23,-936.81 226.61,-943.52"/>
</a>
</g>
<text text-anchor="middle" x="308.12" y="-973.25" font-family="Helvetica,sans-Serif" font-size="10.00" fill="grey"> #averageBytesPerSecond</text>
<text text-anchor="middle" x="308.12" y="-962" font-family="Helvetica,sans-Serif" font-size="10.00" fill="grey">#sampleRate</text>
</g>
<!-- Node10 -->
<g id="Node000010" class="node">
<title>Node10</title>
<g id="a_Node000010"><a xlink:title=" ">
<polygon fill="white" stroke="none" points="603,-766 575,-766 575,-717 603,-717 603,-766"/>
<text text-anchor="start" x="579.62" y="-752.5" font-family="Helvetica,sans-Serif" font-size="10.00">byte</text>
<text text-anchor="start" x="587.5" y="-737.5" font-family="Helvetica,sans-Serif" font-size="10.00"> </text>
<text text-anchor="start" x="587.5" y="-722.5" font-family="Helvetica,sans-Serif" font-size="10.00"> </text>
<polygon fill="#666666" stroke="#666666" points="575,-749 575,-749 603,-749 603,-749 575,-749"/>
<polygon fill="#666666" stroke="#666666" points="575,-734 575,-734 603,-734 603,-734 575,-734"/>
<polygon fill="none" stroke="#666666" points="575,-717 575,-766 603,-766 603,-717 575,-717"/>
</a>
</g>
</g>
<!-- Node10&#45;&gt;Node2 -->
<g id="edge9_Node000002_Node000010" class="edge">
<title>Node10&#45;&gt;Node2</title>
<g id="a_edge9_Node000002_Node000010"><a xlink:title=" ">
<path fill="none" stroke="#63b8ff" d="M588.77,-717.26C588.7,-675.71 590.07,-586.05 601.75,-511.5 602.02,-509.74 602.31,-507.98 602.61,-506.21"/>
<polygon fill="none" stroke="#63b8ff" points="602.62,-506.19 599.76,-499.57 604.77,-494.38 607.63,-501 602.62,-506.19"/>
</a>
</g>
<text text-anchor="middle" x="631.62" y="-524.5" font-family="Helvetica,sans-Serif" font-size="10.00" fill="grey"> &#45;outputBuffer</text>
<text text-anchor="middle" x="631.62" y="-513.25" font-family="Helvetica,sans-Serif" font-size="10.00" fill="grey">&#45;sourceBuffer</text>
</g>
<!-- Node11 -->
<g id="Node000011" class="node">
<title>Node11</title>
<g id="a_Node000011"><a xlink:href="interface_n_audio_1_1_media_foundation_1_1_i_m_f_transform.html" target="_top" xlink:title="IMFTransform, defined in mftransform.h.">
<polygon fill="white" stroke="none" points="805,-841 621,-841 621,-642 805,-642 805,-841"/>
<text text-anchor="start" x="626" y="-827.5" font-family="Helvetica,sans-Serif" font-size="10.00">NAudio.MediaFoundation.IMFTransform</text>
<text text-anchor="start" x="711.5" y="-812.5" font-family="Helvetica,sans-Serif" font-size="10.00"> </text>
<text text-anchor="start" x="635.5" y="-797.5" font-family="Helvetica,sans-Serif" font-size="10.00">+</text>
<text text-anchor="start" x="656" y="-797.5" font-family="Helvetica,sans-Serif" font-size="10.00">GetStreamLimits()</text>
<text text-anchor="start" x="635.5" y="-782.5" font-family="Helvetica,sans-Serif" font-size="10.00">+</text>
<text text-anchor="start" x="656" y="-782.5" font-family="Helvetica,sans-Serif" font-size="10.00">GetStreamCount()</text>
<text text-anchor="start" x="635.5" y="-767.5" font-family="Helvetica,sans-Serif" font-size="10.00">+</text>
<text text-anchor="start" x="656" y="-767.5" font-family="Helvetica,sans-Serif" font-size="10.00">GetStreamIds()</text>
<text text-anchor="start" x="635.5" y="-752.5" font-family="Helvetica,sans-Serif" font-size="10.00">+</text>
<text text-anchor="start" x="656" y="-752.5" font-family="Helvetica,sans-Serif" font-size="10.00">GetInputStreamInfo()</text>
<text text-anchor="start" x="635.5" y="-737.5" font-family="Helvetica,sans-Serif" font-size="10.00">+</text>
<text text-anchor="start" x="656" y="-737.5" font-family="Helvetica,sans-Serif" font-size="10.00">GetOutputStreamInfo()</text>
<text text-anchor="start" x="635.5" y="-722.5" font-family="Helvetica,sans-Serif" font-size="10.00">+</text>
<text text-anchor="start" x="656" y="-722.5" font-family="Helvetica,sans-Serif" font-size="10.00">GetAttributes()</text>
<text text-anchor="start" x="635.5" y="-707.5" font-family="Helvetica,sans-Serif" font-size="10.00">+</text>
<text text-anchor="start" x="656" y="-707.5" font-family="Helvetica,sans-Serif" font-size="10.00">GetInputStreamAttributes()</text>
<text text-anchor="start" x="635.5" y="-692.5" font-family="Helvetica,sans-Serif" font-size="10.00">+</text>
<text text-anchor="start" x="656" y="-692.5" font-family="Helvetica,sans-Serif" font-size="10.00">GetOutputStreamAttributes()</text>
<text text-anchor="start" x="635.5" y="-677.5" font-family="Helvetica,sans-Serif" font-size="10.00">+</text>
<text text-anchor="start" x="656" y="-677.5" font-family="Helvetica,sans-Serif" font-size="10.00">DeleteInputStream()</text>
<text text-anchor="start" x="635.5" y="-662.5" font-family="Helvetica,sans-Serif" font-size="10.00">+</text>
<text text-anchor="start" x="656" y="-662.5" font-family="Helvetica,sans-Serif" font-size="10.00">AddInputStreams()</text>
<text text-anchor="start" x="656" y="-647.5" font-family="Helvetica,sans-Serif" font-size="10.00">and 13 more...</text>
<polygon fill="#666666" stroke="#666666" points="621,-824 621,-824 805,-824 805,-824 621,-824"/>
<polygon fill="#666666" stroke="#666666" points="621,-809 621,-809 805,-809 805,-809 621,-809"/>
<polygon fill="none" stroke="#666666" points="621,-642 621,-841 805,-841 805,-642 621,-642"/>
</a>
</g>
</g>
<!-- Node11&#45;&gt;Node2 -->
<g id="edge11_Node000002_Node000011" class="edge">
<title>Node11&#45;&gt;Node2</title>
<g id="a_edge11_Node000002_Node000011"><a xlink:title=" ">
<path fill="none" stroke="#63b8ff" d="M693,-642.37C684.47,-600.52 674.39,-551.04 665.2,-505.95"/>
<polygon fill="none" stroke="#63b8ff" points="665.21,-506 660.09,-500.92 662.81,-494.24 667.93,-499.32 665.21,-506"/>
</a>
</g>
<text text-anchor="middle" x="692.62" y="-518.88" font-family="Helvetica,sans-Serif" font-size="10.00" fill="grey"> &#45;transform</text>
</g>
<!-- Node12 -->
<g id="Node000012" class="node">
<title>Node12</title>
<g id="a_Node000012"><a xlink:title=" ">
<polygon fill="white" stroke="none" points="851,-766 823,-766 823,-717 851,-717 851,-766"/>
<text text-anchor="start" x="828" y="-752.5" font-family="Helvetica,sans-Serif" font-size="10.00">bool</text>
<text text-anchor="start" x="835.5" y="-737.5" font-family="Helvetica,sans-Serif" font-size="10.00"> </text>
<text text-anchor="start" x="835.5" y="-722.5" font-family="Helvetica,sans-Serif" font-size="10.00"> </text>
<polygon fill="#666666" stroke="#666666" points="823,-749 823,-749 851,-749 851,-749 823,-749"/>
<polygon fill="#666666" stroke="#666666" points="823,-734 823,-734 851,-734 851,-734 823,-734"/>
<polygon fill="none" stroke="#666666" points="823,-717 823,-766 851,-766 851,-717 823,-717"/>
</a>
</g>
</g>
<!-- Node12&#45;&gt;Node2 -->
<g id="edge12_Node000002_Node000012" class="edge">
<title>Node12&#45;&gt;Node2</title>
<g id="a_edge12_Node000002_Node000012"><a xlink:title=" ">
<path fill="none" stroke="#63b8ff" d="M841.55,-717.07C847.69,-677.99 853.73,-599.14 814,-552 796.06,-530.71 776.66,-550.17 754,-534 741.47,-525.06 729.79,-514.34 719.04,-502.72"/>
<polygon fill="none" stroke="#63b8ff" points="719.18,-502.88 712.2,-501.05 711.21,-493.91 718.19,-495.74 719.18,-502.88"/>
</a>
</g>
<text text-anchor="middle" x="805" y="-524.5" font-family="Helvetica,sans-Serif" font-size="10.00" fill="grey"> &#45;disposed</text>
<text text-anchor="middle" x="805" y="-513.25" font-family="Helvetica,sans-Serif" font-size="10.00" fill="grey">&#45;initializedForStreaming</text>
</g>
<!-- Node13 -->
<g id="Node000013" class="node">
<title>Node13</title>
<g id="a_Node000013"><a xlink:title=" ">
<polygon fill="white" stroke="none" points="897,-766 869,-766 869,-717 897,-717 897,-766"/>
<text text-anchor="start" x="874" y="-752.5" font-family="Helvetica,sans-Serif" font-size="10.00">long</text>
<text text-anchor="start" x="881.5" y="-737.5" font-family="Helvetica,sans-Serif" font-size="10.00"> </text>
<text text-anchor="start" x="881.5" y="-722.5" font-family="Helvetica,sans-Serif" font-size="10.00"> </text>
<polygon fill="#666666" stroke="#666666" points="869,-749 869,-749 897,-749 897,-749 869,-749"/>
<polygon fill="#666666" stroke="#666666" points="869,-734 869,-734 897,-734 897,-734 869,-734"/>
<polygon fill="none" stroke="#666666" points="869,-717 869,-766 897,-766 897,-717 869,-717"/>
</a>
</g>
</g>
<!-- Node13&#45;&gt;Node2 -->
<g id="edge13_Node000002_Node000013" class="edge">
<title>Node13&#45;&gt;Node2</title>
<g id="a_edge13_Node000002_Node000013"><a xlink:title=" ">
<path fill="none" stroke="#63b8ff" d="M886.4,-717.27C891.58,-673.37 896.95,-576.78 856,-511.5 826.87,-465.07 775.92,-431.3 730.61,-408.69"/>
<polygon fill="none" stroke="#63b8ff" points="730.53,-408.65 723.39,-409.64 719.73,-403.43 726.87,-402.44 730.53,-408.65"/>
</a>
</g>
<text text-anchor="middle" x="899.62" y="-524.5" font-family="Helvetica,sans-Serif" font-size="10.00" fill="grey"> &#45;inputPosition</text>
<text text-anchor="middle" x="899.62" y="-513.25" font-family="Helvetica,sans-Serif" font-size="10.00" fill="grey">&#45;outputPosition</text>
</g>
<!-- Node14 -->
<g id="Node000014" class="node">
<title>Node14</title>
<g id="a_Node000014"><a xlink:title=" ">
<polygon fill="white" stroke="none" points="1075,-396 1041,-396 1041,-347 1075,-347 1075,-396"/>
<text text-anchor="start" x="1046" y="-382.5" font-family="Helvetica,sans-Serif" font-size="10.00">static</text>
<text text-anchor="start" x="1056.5" y="-367.5" font-family="Helvetica,sans-Serif" font-size="10.00"> </text>
<text text-anchor="start" x="1056.5" y="-352.5" font-family="Helvetica,sans-Serif" font-size="10.00"> </text>
<polygon fill="#666666" stroke="#666666" points="1041,-379 1041,-379 1075,-379 1075,-379 1041,-379"/>
<polygon fill="#666666" stroke="#666666" points="1041,-364 1041,-364 1075,-364 1075,-364 1041,-364"/>
<polygon fill="none" stroke="#666666" points="1041,-347 1041,-396 1075,-396 1075,-347 1041,-347"/>
</a>
</g>
</g>
<!-- Node14&#45;&gt;Node1 -->
<g id="edge15_Node000001_Node000014" class="edge">
<title>Node14&#45;&gt;Node1</title>
<g id="a_edge15_Node000001_Node000014"><a xlink:title=" ">
<path fill="none" stroke="#63b8ff" d="M1056.04,-347.14C1053.37,-315.4 1048.43,-256.55 1044.01,-203.85"/>
<polygon fill="none" stroke="#63b8ff" points="1044.01,-203.81 1039.52,-198.17 1043,-191.85 1047.49,-197.5 1044.01,-203.81"/>
</a>
</g>
<text text-anchor="middle" x="1084" y="-222" font-family="Helvetica,sans-Serif" font-size="10.00" fill="grey"> &#45;IMFTransformIid</text>
<text text-anchor="middle" x="1084" y="-210.75" font-family="Helvetica,sans-Serif" font-size="10.00" fill="grey">&#45;ResamplerClsid</text>
</g>
<!-- Node15 -->
<g id="Node000015" class="node">
<title>Node15</title>
<g id="a_Node000015"><a xlink:href="interface_n_audio_1_1_media_foundation_1_1_i_m_f_activate.html" target="_top" xlink:title="IMFActivate, defined in mfobjects.h.">
<polygon fill="white" stroke="none" points="1268.5,-471 1093.5,-471 1093.5,-272 1268.5,-272 1268.5,-471"/>
<text text-anchor="start" x="1098.12" y="-457.5" font-family="Helvetica,sans-Serif" font-size="10.00">NAudio.MediaFoundation.IMFActivate</text>
<text text-anchor="start" x="1179.5" y="-442.5" font-family="Helvetica,sans-Serif" font-size="10.00"> </text>
<text text-anchor="start" x="1117.5" y="-427.5" font-family="Helvetica,sans-Serif" font-size="10.00">+</text>
<text text-anchor="start" x="1147.5" y="-427.5" font-family="Helvetica,sans-Serif" font-size="10.00">GetItem()</text>
<text text-anchor="start" x="1117.5" y="-412.5" font-family="Helvetica,sans-Serif" font-size="10.00">+</text>
<text text-anchor="start" x="1147.5" y="-412.5" font-family="Helvetica,sans-Serif" font-size="10.00">GetItemType()</text>
<text text-anchor="start" x="1117.5" y="-397.5" font-family="Helvetica,sans-Serif" font-size="10.00">+</text>
<text text-anchor="start" x="1147.5" y="-397.5" font-family="Helvetica,sans-Serif" font-size="10.00">CompareItem()</text>
<text text-anchor="start" x="1117.5" y="-382.5" font-family="Helvetica,sans-Serif" font-size="10.00">+</text>
<text text-anchor="start" x="1147.5" y="-382.5" font-family="Helvetica,sans-Serif" font-size="10.00">Compare()</text>
<text text-anchor="start" x="1117.5" y="-367.5" font-family="Helvetica,sans-Serif" font-size="10.00">+</text>
<text text-anchor="start" x="1147.5" y="-367.5" font-family="Helvetica,sans-Serif" font-size="10.00">GetUINT32()</text>
<text text-anchor="start" x="1117.5" y="-352.5" font-family="Helvetica,sans-Serif" font-size="10.00">+</text>
<text text-anchor="start" x="1147.5" y="-352.5" font-family="Helvetica,sans-Serif" font-size="10.00">GetUINT64()</text>
<text text-anchor="start" x="1117.5" y="-337.5" font-family="Helvetica,sans-Serif" font-size="10.00">+</text>
<text text-anchor="start" x="1147.5" y="-337.5" font-family="Helvetica,sans-Serif" font-size="10.00">GetDouble()</text>
<text text-anchor="start" x="1117.5" y="-322.5" font-family="Helvetica,sans-Serif" font-size="10.00">+</text>
<text text-anchor="start" x="1147.5" y="-322.5" font-family="Helvetica,sans-Serif" font-size="10.00">GetGUID()</text>
<text text-anchor="start" x="1117.5" y="-307.5" font-family="Helvetica,sans-Serif" font-size="10.00">+</text>
<text text-anchor="start" x="1147.5" y="-307.5" font-family="Helvetica,sans-Serif" font-size="10.00">GetStringLength()</text>
<text text-anchor="start" x="1117.5" y="-292.5" font-family="Helvetica,sans-Serif" font-size="10.00">+</text>
<text text-anchor="start" x="1147.5" y="-292.5" font-family="Helvetica,sans-Serif" font-size="10.00">GetString()</text>
<text text-anchor="start" x="1147.5" y="-277.5" font-family="Helvetica,sans-Serif" font-size="10.00">and 23 more...</text>
<polygon fill="#666666" stroke="#666666" points="1093.5,-454 1093.5,-454 1268.5,-454 1268.5,-454 1093.5,-454"/>
<polygon fill="#666666" stroke="#666666" points="1093.5,-439 1093.5,-439 1268.5,-439 1268.5,-439 1093.5,-439"/>
<polygon fill="none" stroke="#666666" points="1093.5,-272 1093.5,-471 1268.5,-471 1268.5,-272 1093.5,-272"/>
</a>
</g>
</g>
<!-- Node15&#45;&gt;Node1 -->
<g id="edge16_Node000001_Node000015" class="edge">
<title>Node15&#45;&gt;Node1</title>
<g id="a_edge16_Node000001_Node000015"><a xlink:title=" ">
<path fill="none" stroke="#63b8ff" d="M1154.4,-272C1146.9,-250.61 1137.78,-228.54 1127,-209 1123.92,-203.41 1120.55,-197.83 1116.97,-192.31"/>
<polygon fill="none" stroke="#63b8ff" points="1117.09,-192.48 1110.42,-189.74 1110.38,-182.53 1117.05,-185.27 1117.09,-192.48"/>
</a>
</g>
<text text-anchor="middle" x="1157.25" y="-216.38" font-family="Helvetica,sans-Serif" font-size="10.00" fill="grey"> &#45;activate</text>
</g>
<!-- Node16 -->
<g id="Node000016" class="node">
<title>Node16</title>
<g id="a_Node000016"><a xlink:href="interface_n_audio_1_1_media_foundation_1_1_i_m_f_attributes.html" target="_top" xlink:title="Provides a generic way to store key/value pairs on an object. http://msdn.microsoft....">
<polygon fill="white" stroke="none" points="1228,-841 1134,-841 1134,-642 1228,-642 1228,-841"/>
<text text-anchor="start" x="1151.38" y="-827.5" font-family="Helvetica,sans-Serif" font-size="10.00">IMFAttributes</text>
<text text-anchor="start" x="1179.5" y="-812.5" font-family="Helvetica,sans-Serif" font-size="10.00"> </text>
<text text-anchor="start" x="1138" y="-797.5" font-family="Helvetica,sans-Serif" font-size="10.00">+</text>
<text text-anchor="start" x="1148" y="-797.5" font-family="Helvetica,sans-Serif" font-size="10.00">GetItem()</text>
<text text-anchor="start" x="1138" y="-782.5" font-family="Helvetica,sans-Serif" font-size="10.00">+</text>
<text text-anchor="start" x="1148" y="-782.5" font-family="Helvetica,sans-Serif" font-size="10.00">GetItemType()</text>
<text text-anchor="start" x="1138" y="-767.5" font-family="Helvetica,sans-Serif" font-size="10.00">+</text>
<text text-anchor="start" x="1148" y="-767.5" font-family="Helvetica,sans-Serif" font-size="10.00">CompareItem()</text>
<text text-anchor="start" x="1138" y="-752.5" font-family="Helvetica,sans-Serif" font-size="10.00">+</text>
<text text-anchor="start" x="1148" y="-752.5" font-family="Helvetica,sans-Serif" font-size="10.00">Compare()</text>
<text text-anchor="start" x="1138" y="-737.5" font-family="Helvetica,sans-Serif" font-size="10.00">+</text>
<text text-anchor="start" x="1148" y="-737.5" font-family="Helvetica,sans-Serif" font-size="10.00">GetUINT32()</text>
<text text-anchor="start" x="1138" y="-722.5" font-family="Helvetica,sans-Serif" font-size="10.00">+</text>
<text text-anchor="start" x="1148" y="-722.5" font-family="Helvetica,sans-Serif" font-size="10.00">GetUINT64()</text>
<text text-anchor="start" x="1138" y="-707.5" font-family="Helvetica,sans-Serif" font-size="10.00">+</text>
<text text-anchor="start" x="1148" y="-707.5" font-family="Helvetica,sans-Serif" font-size="10.00">GetDouble()</text>
<text text-anchor="start" x="1138" y="-692.5" font-family="Helvetica,sans-Serif" font-size="10.00">+</text>
<text text-anchor="start" x="1148" y="-692.5" font-family="Helvetica,sans-Serif" font-size="10.00">GetGUID()</text>
<text text-anchor="start" x="1138" y="-677.5" font-family="Helvetica,sans-Serif" font-size="10.00">+</text>
<text text-anchor="start" x="1148" y="-677.5" font-family="Helvetica,sans-Serif" font-size="10.00">GetStringLength()</text>
<text text-anchor="start" x="1138" y="-662.5" font-family="Helvetica,sans-Serif" font-size="10.00">+</text>
<text text-anchor="start" x="1148" y="-662.5" font-family="Helvetica,sans-Serif" font-size="10.00">GetString()</text>
<text text-anchor="start" x="1148" y="-647.5" font-family="Helvetica,sans-Serif" font-size="10.00">and 20 more...</text>
<polygon fill="#666666" stroke="#666666" points="1134,-824 1134,-824 1228,-824 1228,-824 1134,-824"/>
<polygon fill="#666666" stroke="#666666" points="1134,-809 1134,-809 1228,-809 1228,-809 1134,-809"/>
<polygon fill="none" stroke="#666666" points="1134,-642 1134,-841 1228,-841 1228,-642 1134,-642"/>
</a>
</g>
</g>
<!-- Node16&#45;&gt;Node15 -->
<g id="edge17_Node000015_Node000016" class="edge">
<title>Node16&#45;&gt;Node15</title>
<g id="a_edge17_Node000015_Node000016"><a xlink:title=" ">
<path fill="none" stroke="#63b8ff" d="M1181,-631.01C1181,-580.23 1181,-520.34 1181,-471"/>
<polygon fill="none" stroke="#63b8ff" points="1177.5,-630.85 1181,-640.85 1184.5,-630.85 1177.5,-630.85"/>
</a>
</g>
</g>
</g>
</svg>
