<?xml version="1.0" encoding="UTF-8" standalone="no"?>
<!DOCTYPE svg PUBLIC "-//W3C//DTD SVG 1.1//EN"
 "http://www.w3.org/Graphics/SVG/1.1/DTD/svg11.dtd">
<!-- Generated by graphviz version 10.0.1 (20240210.2158)
 -->
<!-- Title: NAudio.Midi.PatchChangeEvent Pages: 1 -->
<!--zoomable 576 -->

<svg id="main" version="1.1" xmlns="http://www.w3.org/2000/svg" xmlns:xlink="http://www.w3.org/1999/xlink" xml:space="preserve" onload="init(evt)">
<style type="text/css"><![CDATA[
.node, .edge {opacity: 0.7;}
.node.selected, .edge.selected {opacity: 1;}
.edge:hover path { stroke: red; }
.edge:hover polygon { stroke: red; fill: red; }
]]></style>

<defs>
  <circle id="rim" cx="0" cy="0" r="7"/>
  <circle id="rim2" cx="0" cy="0" r="3.5"/>
  <g id="zoomPlus">
    <use xlink:href="#rim" fill="#404040"><set attributeName="fill" to="#808080" begin="zoomplus.mouseover" end="zoomplus.mouseout"/></use>
    <path d="M-4,0h8M0,-4v8" fill="none" stroke="white" stroke-width="1.5" pointer-events="none"/>
  </g>
  <g id="zoomMin">
    <use xlink:href="#rim" fill="#404040"><set attributeName="fill" to="#808080" begin="zoomminus.mouseover" end="zoomminus.mouseout"/></use>
    <path d="M-4,0h8" fill="none" stroke="white" stroke-width="1.5" pointer-events="none"/>
  </g>
  <g id="arrowUp" transform="translate(30 24)">
    <use xlink:href="#rim"/>
    <path pointer-events="none" fill="none" stroke="white" stroke-width="1.5" d="M0,-3.0v7 M-2.5,-0.5L0,-3.0L2.5,-0.5"/>
  </g>
  <g id="arrowRight" transform="rotate(90) translate(36 -43)">
    <use xlink:href="#rim"/>
    <path pointer-events="none" fill="none" stroke="white" stroke-width="1.5" d="M0,-3.0v7 M-2.5,-0.5L0,-3.0L2.5,-0.5"/>
  </g>
  <g id="arrowDown" transform="rotate(180) translate(-30 -48)">
    <use xlink:href="#rim"/>
    <path pointer-events="none" fill="none" stroke="white" stroke-width="1.5" d="M0,-3.0v7 M-2.5,-0.5L0,-3.0L2.5,-0.5"/>
  </g>
  <g id="arrowLeft" transform="rotate(270) translate(-36 17)">
    <use xlink:href="#rim"/>
    <path pointer-events="none" fill="none" stroke="white" stroke-width="1.5" d="M0,-3.0v7 M-2.5,-0.5L0,-3.0L2.5,-0.5"/>
  </g>
  <g id="resetDef">
    <use xlink:href="#rim2" fill="#404040"><set attributeName="fill" to="#808080" begin="reset.mouseover" end="reset.mouseout"/></use>
  </g>
</defs>
<script type="application/ecmascript">
var viewWidth = 361;
var viewHeight = 576;
var sectionId = 'dynsection-1';
</script>
<script type="application/ecmascript" xlink:href="svg.min.js"/>
<svg id="graph" class="graph">
<g id="viewport">
<title>NAudio.Midi.PatchChangeEvent</title>
<!-- Node1 -->
<g id="Node000001" class="node">
<title>Node1</title>
<g id="a_Node000001"><a xlink:title="Represents a MIDI patch change event.">
<polygon fill="#999999" stroke="none" points="333.5,-124 182.5,-124 182.5,0 333.5,0 333.5,-124"/>
<text text-anchor="start" x="187.5" y="-110.5" font-family="Helvetica,sans-Serif" font-size="10.00">NAudio.Midi.PatchChangeEvent</text>
<text text-anchor="start" x="195.5" y="-95.5" font-family="Helvetica,sans-Serif" font-size="10.00">+</text>
<text text-anchor="start" x="214.5" y="-95.5" font-family="Helvetica,sans-Serif" font-size="10.00">Patch</text>
<text text-anchor="start" x="195.5" y="-80.5" font-family="Helvetica,sans-Serif" font-size="10.00">+</text>
<text text-anchor="start" x="214.5" y="-80.5" font-family="Helvetica,sans-Serif" font-size="10.00">PatchChangeEvent()</text>
<text text-anchor="start" x="195.5" y="-65.5" font-family="Helvetica,sans-Serif" font-size="10.00">+</text>
<text text-anchor="start" x="214.5" y="-65.5" font-family="Helvetica,sans-Serif" font-size="10.00">PatchChangeEvent()</text>
<text text-anchor="start" x="195.5" y="-50.5" font-family="Helvetica,sans-Serif" font-size="10.00">+</text>
<text text-anchor="start" x="214.5" y="-50.5" font-family="Helvetica,sans-Serif" font-size="10.00">ToString()</text>
<text text-anchor="start" x="195.5" y="-35.5" font-family="Helvetica,sans-Serif" font-size="10.00">+</text>
<text text-anchor="start" x="214.5" y="-35.5" font-family="Helvetica,sans-Serif" font-size="10.00">GetAsShortMessage()</text>
<text text-anchor="start" x="195.5" y="-20.5" font-family="Helvetica,sans-Serif" font-size="10.00">+</text>
<text text-anchor="start" x="214.5" y="-20.5" font-family="Helvetica,sans-Serif" font-size="10.00">Export()</text>
<text text-anchor="start" x="195.5" y="-5.5" font-family="Helvetica,sans-Serif" font-size="10.00">+</text>
<text text-anchor="start" x="214.5" y="-5.5" font-family="Helvetica,sans-Serif" font-size="10.00">GetPatchName()</text>
<polygon fill="#666666" stroke="#666666" points="182.5,-107 182.5,-107 333.5,-107 333.5,-107 182.5,-107"/>
<polygon fill="#666666" stroke="#666666" points="182.5,-92 182.5,-92 212.5,-92 212.5,-92 182.5,-92"/>
<polygon fill="#666666" stroke="#666666" points="212.5,-92 212.5,-92 333.5,-92 333.5,-92 212.5,-92"/>
<polygon fill="none" stroke="#666666" points="182.5,0 182.5,-124 333.5,-124 333.5,0 182.5,0"/>
</a>
</g>
</g>
<!-- Node2 -->
<g id="Node000002" class="node">
<title>Node2</title>
<g id="a_Node000002"><a xlink:href="class_n_audio_1_1_midi_1_1_midi_event.html" target="_top" xlink:title="Represents an individual MIDI event.">
<polygon fill="white" stroke="none" points="226,-460.25 112,-460.25 112,-171.25 226,-171.25 226,-460.25"/>
<text text-anchor="start" x="147.25" y="-446.75" font-family="Helvetica,sans-Serif" font-size="10.00">MidiEvent</text>
<text text-anchor="start" x="116" y="-431.75" font-family="Helvetica,sans-Serif" font-size="10.00">+</text>
<text text-anchor="start" x="126" y="-431.75" font-family="Helvetica,sans-Serif" font-size="10.00">Channel</text>
<text text-anchor="start" x="116" y="-416.75" font-family="Helvetica,sans-Serif" font-size="10.00">+</text>
<text text-anchor="start" x="126" y="-416.75" font-family="Helvetica,sans-Serif" font-size="10.00">DeltaTime</text>
<text text-anchor="start" x="116" y="-401.75" font-family="Helvetica,sans-Serif" font-size="10.00">+</text>
<text text-anchor="start" x="126" y="-401.75" font-family="Helvetica,sans-Serif" font-size="10.00">AbsoluteTime</text>
<text text-anchor="start" x="116" y="-386.75" font-family="Helvetica,sans-Serif" font-size="10.00">+</text>
<text text-anchor="start" x="126" y="-386.75" font-family="Helvetica,sans-Serif" font-size="10.00">CommandCode</text>
<text text-anchor="start" x="116" y="-371.75" font-family="Helvetica,sans-Serif" font-size="10.00">+</text>
<text text-anchor="start" x="126" y="-371.75" font-family="Helvetica,sans-Serif" font-size="10.00">GetAsShortMessage()</text>
<text text-anchor="start" x="116" y="-356.75" font-family="Helvetica,sans-Serif" font-size="10.00">+</text>
<text text-anchor="start" x="126" y="-356.75" font-family="Helvetica,sans-Serif" font-size="10.00">MidiEvent()</text>
<text text-anchor="start" x="116" y="-341.75" font-family="Helvetica,sans-Serif" font-size="10.00">+</text>
<text text-anchor="start" x="126" y="-341.75" font-family="Helvetica,sans-Serif" font-size="10.00">Clone()</text>
<text text-anchor="start" x="116" y="-326.75" font-family="Helvetica,sans-Serif" font-size="10.00">+</text>
<text text-anchor="start" x="126" y="-326.75" font-family="Helvetica,sans-Serif" font-size="10.00">ToString()</text>
<text text-anchor="start" x="116" y="-311.75" font-family="Helvetica,sans-Serif" font-size="10.00">+</text>
<text text-anchor="start" x="126" y="-311.75" font-family="Helvetica,sans-Serif" font-size="10.00">Export()</text>
<text text-anchor="start" x="116" y="-296.75" font-family="Helvetica,sans-Serif" font-size="10.00">+</text>
<text text-anchor="start" x="126" y="-296.75" font-family="Helvetica,sans-Serif" font-size="10.00">FromRawMessage()</text>
<text text-anchor="start" x="116" y="-281.75" font-family="Helvetica,sans-Serif" font-size="10.00">+</text>
<text text-anchor="start" x="126" y="-281.75" font-family="Helvetica,sans-Serif" font-size="10.00">ReadNextEvent()</text>
<text text-anchor="start" x="116" y="-266.75" font-family="Helvetica,sans-Serif" font-size="10.00">+</text>
<text text-anchor="start" x="126" y="-266.75" font-family="Helvetica,sans-Serif" font-size="10.00">IsNoteOff()</text>
<text text-anchor="start" x="116" y="-251.75" font-family="Helvetica,sans-Serif" font-size="10.00">+</text>
<text text-anchor="start" x="126" y="-251.75" font-family="Helvetica,sans-Serif" font-size="10.00">IsNoteOn()</text>
<text text-anchor="start" x="116" y="-236.75" font-family="Helvetica,sans-Serif" font-size="10.00">+</text>
<text text-anchor="start" x="126" y="-236.75" font-family="Helvetica,sans-Serif" font-size="10.00">IsEndTrack()</text>
<text text-anchor="start" x="116" y="-221.75" font-family="Helvetica,sans-Serif" font-size="10.00">+</text>
<text text-anchor="start" x="126" y="-221.75" font-family="Helvetica,sans-Serif" font-size="10.00">ReadVarInt()</text>
<text text-anchor="start" x="116" y="-206.75" font-family="Helvetica,sans-Serif" font-size="10.00">+</text>
<text text-anchor="start" x="126" y="-206.75" font-family="Helvetica,sans-Serif" font-size="10.00">WriteVarInt()</text>
<text text-anchor="start" x="116.38" y="-191.75" font-family="Helvetica,sans-Serif" font-size="10.00">#</text>
<text text-anchor="start" x="126" y="-191.75" font-family="Helvetica,sans-Serif" font-size="10.00">MidiEvent()</text>
<text text-anchor="start" x="117.5" y="-176.75" font-family="Helvetica,sans-Serif" font-size="10.00">&#45;</text>
<text text-anchor="start" x="126" y="-176.75" font-family="Helvetica,sans-Serif" font-size="10.00">Clone()</text>
<polygon fill="#666666" stroke="#666666" points="112,-443.25 112,-443.25 226,-443.25 226,-443.25 112,-443.25"/>
<polygon fill="#666666" stroke="#666666" points="112,-383.25 112,-383.25 124,-383.25 124,-383.25 112,-383.25"/>
<polygon fill="#666666" stroke="#666666" points="124,-383.25 124,-383.25 226,-383.25 226,-383.25 124,-383.25"/>
<polygon fill="none" stroke="#666666" points="112,-171.25 112,-460.25 226,-460.25 226,-171.25 112,-171.25"/>
</a>
</g>
</g>
<!-- Node2&#45;&gt;Node1 -->
<g id="edge1_Node000001_Node000002" class="edge">
<title>Node2&#45;&gt;Node1</title>
<g id="a_edge1_Node000001_Node000002"><a xlink:title=" ">
<path fill="none" stroke="#63b8ff" d="M223.33,-161.08C227.93,-148.07 232.38,-135.48 236.47,-123.9"/>
<polygon fill="none" stroke="#63b8ff" points="220.15,-159.57 220.11,-170.16 226.75,-161.9 220.15,-159.57"/>
</a>
</g>
</g>
<!-- Node3 -->
<g id="Node000003" class="node">
<title>Node3</title>
<g id="a_Node000003"><a xlink:href="class_i_cloneable.html" target="_top" xlink:title=" ">
<polygon fill="white" stroke="none" points="56,-567.75 0,-567.75 0,-518.75 56,-518.75 56,-567.75"/>
<text text-anchor="start" x="4.75" y="-554.25" font-family="Helvetica,sans-Serif" font-size="10.00">ICloneable</text>
<text text-anchor="start" x="26.5" y="-539.25" font-family="Helvetica,sans-Serif" font-size="10.00"> </text>
<text text-anchor="start" x="26.5" y="-524.25" font-family="Helvetica,sans-Serif" font-size="10.00"> </text>
<polygon fill="#666666" stroke="#666666" points="0,-550.75 0,-550.75 56,-550.75 56,-550.75 0,-550.75"/>
<polygon fill="#666666" stroke="#666666" points="0,-535.75 0,-535.75 56,-535.75 56,-535.75 0,-535.75"/>
<polygon fill="none" stroke="#666666" points="0,-518.75 0,-567.75 56,-567.75 56,-518.75 0,-518.75"/>
</a>
</g>
</g>
<!-- Node3&#45;&gt;Node2 -->
<g id="edge2_Node000002_Node000003" class="edge">
<title>Node3&#45;&gt;Node2</title>
<g id="a_edge2_Node000002_Node000003"><a xlink:title=" ">
<path fill="none" stroke="#63b8ff" d="M48.56,-509.37C65.24,-482.69 89.6,-443.74 112.05,-407.83"/>
<polygon fill="none" stroke="#63b8ff" points="45.69,-507.35 43.36,-517.68 51.63,-511.06 45.69,-507.35"/>
</a>
</g>
</g>
<!-- Node4 -->
<g id="Node000004" class="node">
<title>Node4</title>
<g id="a_Node000004"><a xlink:title=" ">
<polygon fill="white" stroke="none" points="170,-567.75 74,-567.75 74,-518.75 170,-518.75 170,-567.75"/>
<text text-anchor="start" x="78.88" y="-554.25" font-family="Helvetica,sans-Serif" font-size="10.00">MidiCommandCode</text>
<text text-anchor="start" x="120.5" y="-539.25" font-family="Helvetica,sans-Serif" font-size="10.00"> </text>
<text text-anchor="start" x="120.5" y="-524.25" font-family="Helvetica,sans-Serif" font-size="10.00"> </text>
<polygon fill="#666666" stroke="#666666" points="74,-550.75 74,-550.75 170,-550.75 170,-550.75 74,-550.75"/>
<polygon fill="#666666" stroke="#666666" points="74,-535.75 74,-535.75 170,-535.75 170,-535.75 74,-535.75"/>
<polygon fill="none" stroke="#666666" points="74,-518.75 74,-567.75 170,-567.75 170,-518.75 74,-518.75"/>
</a>
</g>
</g>
<!-- Node4&#45;&gt;Node2 -->
<g id="edge3_Node000002_Node000004" class="edge">
<title>Node4&#45;&gt;Node2</title>
<g id="a_edge3_Node000002_Node000004"><a xlink:title=" ">
<path fill="none" stroke="#63b8ff" d="M120.91,-519.03C120.7,-506.83 121.02,-491.66 123,-478.25 123.28,-476.36 123.57,-474.46 123.88,-472.55"/>
<polygon fill="none" stroke="#63b8ff" points="123.88,-472.56 120.99,-465.95 125.98,-460.74 128.87,-467.35 123.88,-472.56"/>
</a>
</g>
<text text-anchor="middle" x="159" y="-485.62" font-family="Helvetica,sans-Serif" font-size="10.00" fill="grey"> &#45;commandCode</text>
</g>
<!-- Node5 -->
<g id="Node000005" class="node">
<title>Node5</title>
<g id="a_Node000005"><a xlink:title=" ">
<polygon fill="white" stroke="none" points="227,-567.75 207,-567.75 207,-518.75 227,-518.75 227,-567.75"/>
<text text-anchor="start" x="211.75" y="-554.25" font-family="Helvetica,sans-Serif" font-size="10.00">int</text>
<text text-anchor="start" x="215.5" y="-539.25" font-family="Helvetica,sans-Serif" font-size="10.00"> </text>
<text text-anchor="start" x="215.5" y="-524.25" font-family="Helvetica,sans-Serif" font-size="10.00"> </text>
<polygon fill="#666666" stroke="#666666" points="207,-550.75 207,-550.75 227,-550.75 227,-550.75 207,-550.75"/>
<polygon fill="#666666" stroke="#666666" points="207,-535.75 207,-535.75 227,-535.75 227,-535.75 207,-535.75"/>
<polygon fill="none" stroke="#666666" points="207,-518.75 207,-567.75 227,-567.75 227,-518.75 207,-518.75"/>
</a>
</g>
</g>
<!-- Node5&#45;&gt;Node2 -->
<g id="edge4_Node000002_Node000005" class="edge">
<title>Node5&#45;&gt;Node2</title>
<g id="a_edge4_Node000002_Node000005"><a xlink:title=" ">
<path fill="none" stroke="#63b8ff" d="M212.04,-518.97C209.44,-506.72 205.99,-490.53 202.18,-472.64"/>
<polygon fill="none" stroke="#63b8ff" points="202.18,-472.63 197.02,-467.59 199.68,-460.89 204.84,-465.92 202.18,-472.63"/>
</a>
</g>
<text text-anchor="middle" x="230.88" y="-491.25" font-family="Helvetica,sans-Serif" font-size="10.00" fill="grey"> &#45;channel</text>
<text text-anchor="middle" x="230.88" y="-480" font-family="Helvetica,sans-Serif" font-size="10.00" fill="grey">&#45;deltaTime</text>
</g>
<!-- Node6 -->
<g id="Node000006" class="node">
<title>Node6</title>
<g id="a_Node000006"><a xlink:title=" ">
<polygon fill="white" stroke="none" points="300,-567.75 272,-567.75 272,-518.75 300,-518.75 300,-567.75"/>
<text text-anchor="start" x="277" y="-554.25" font-family="Helvetica,sans-Serif" font-size="10.00">long</text>
<text text-anchor="start" x="284.5" y="-539.25" font-family="Helvetica,sans-Serif" font-size="10.00"> </text>
<text text-anchor="start" x="284.5" y="-524.25" font-family="Helvetica,sans-Serif" font-size="10.00"> </text>
<polygon fill="#666666" stroke="#666666" points="272,-550.75 272,-550.75 300,-550.75 300,-550.75 272,-550.75"/>
<polygon fill="#666666" stroke="#666666" points="272,-535.75 272,-535.75 300,-535.75 300,-535.75 272,-535.75"/>
<polygon fill="none" stroke="#666666" points="272,-518.75 272,-567.75 300,-567.75 300,-518.75 272,-518.75"/>
</a>
</g>
</g>
<!-- Node6&#45;&gt;Node2 -->
<g id="edge5_Node000002_Node000006" class="edge">
<title>Node6&#45;&gt;Node2</title>
<g id="a_edge5_Node000002_Node000006"><a xlink:title=" ">
<path fill="none" stroke="#63b8ff" d="M278.92,-518.84C274.29,-506.02 267.36,-490.33 258,-478.25 250.05,-467.99 243.05,-470.43 235,-460.25 234.51,-459.63 234.02,-459 233.53,-458.37"/>
<polygon fill="none" stroke="#63b8ff" points="233.47,-458.28 226.71,-455.77 226.42,-448.56 233.18,-451.07 233.47,-458.28"/>
</a>
</g>
<text text-anchor="middle" x="302.25" y="-485.62" font-family="Helvetica,sans-Serif" font-size="10.00" fill="grey"> &#45;absoluteTime</text>
</g>
<!-- Node7 -->
<g id="Node000007" class="node">
<title>Node7</title>
<g id="a_Node000007"><a xlink:title=" ">
<polygon fill="white" stroke="none" points="272,-340.25 244,-340.25 244,-291.25 272,-291.25 272,-340.25"/>
<text text-anchor="start" x="248.62" y="-326.75" font-family="Helvetica,sans-Serif" font-size="10.00">byte</text>
<text text-anchor="start" x="256.5" y="-311.75" font-family="Helvetica,sans-Serif" font-size="10.00"> </text>
<text text-anchor="start" x="256.5" y="-296.75" font-family="Helvetica,sans-Serif" font-size="10.00"> </text>
<polygon fill="#666666" stroke="#666666" points="244,-323.25 244,-323.25 272,-323.25 272,-323.25 244,-323.25"/>
<polygon fill="#666666" stroke="#666666" points="244,-308.25 244,-308.25 272,-308.25 272,-308.25 244,-308.25"/>
<polygon fill="none" stroke="#666666" points="244,-291.25 244,-340.25 272,-340.25 272,-291.25 244,-291.25"/>
</a>
</g>
</g>
<!-- Node7&#45;&gt;Node1 -->
<g id="edge6_Node000001_Node000007" class="edge">
<title>Node7&#45;&gt;Node1</title>
<g id="a_edge6_Node000001_Node000007"><a xlink:title=" ">
<path fill="none" stroke="#63b8ff" d="M258,-291.52C258,-256.67 258,-189.37 258,-136.78"/>
<polygon fill="none" stroke="#63b8ff" points="258,-136.66 254,-130.66 258,-124.66 262,-130.66 258,-136.66"/>
</a>
</g>
<text text-anchor="middle" x="273" y="-143.75" font-family="Helvetica,sans-Serif" font-size="10.00" fill="grey"> &#45;patch</text>
</g>
<!-- Node8 -->
<g id="Node000008" class="node">
<title>Node8</title>
<g id="a_Node000008"><a xlink:title=" ">
<polygon fill="white" stroke="none" points="328,-340.25 294,-340.25 294,-291.25 328,-291.25 328,-340.25"/>
<text text-anchor="start" x="299" y="-326.75" font-family="Helvetica,sans-Serif" font-size="10.00">static</text>
<text text-anchor="start" x="309.5" y="-311.75" font-family="Helvetica,sans-Serif" font-size="10.00"> </text>
<text text-anchor="start" x="309.5" y="-296.75" font-family="Helvetica,sans-Serif" font-size="10.00"> </text>
<polygon fill="#666666" stroke="#666666" points="294,-323.25 294,-323.25 328,-323.25 328,-323.25 294,-323.25"/>
<polygon fill="#666666" stroke="#666666" points="294,-308.25 294,-308.25 328,-308.25 328,-308.25 294,-308.25"/>
<polygon fill="none" stroke="#666666" points="294,-291.25 294,-340.25 328,-340.25 328,-291.25 294,-291.25"/>
</a>
</g>
</g>
<!-- Node8&#45;&gt;Node1 -->
<g id="edge7_Node000001_Node000008" class="edge">
<title>Node8&#45;&gt;Node1</title>
<g id="a_edge7_Node000001_Node000008"><a xlink:title=" ">
<path fill="none" stroke="#63b8ff" d="M309.86,-291.5C307.82,-258 302.41,-194.43 289,-142 288.5,-140.03 287.96,-138.05 287.39,-136.05"/>
<polygon fill="none" stroke="#63b8ff" points="287.39,-136.07 281.79,-131.53 283.83,-124.61 289.43,-129.15 287.39,-136.07"/>
</a>
</g>
<text text-anchor="middle" x="321.75" y="-143.75" font-family="Helvetica,sans-Serif" font-size="10.00" fill="grey"> &#45;patchNames</text>
</g>
</g>
</svg>

<g id="navigator" transform="translate(0 0)" fill="#404254">
  <rect fill="#f2f5e9" fill-opacity="0.5" stroke="#606060" stroke-width=".5" x="0" y="0" width="60" height="60"/>
  <use id="zoomplus" xlink:href="#zoomPlus" x="17" y="9" onmousedown="handleZoom(evt,'in')"/>
  <use id="zoomminus" xlink:href="#zoomMin" x="42" y="9" onmousedown="handleZoom(evt,'out')"/>
  <use id="reset" xlink:href="#resetDef" x="30" y="36" onmousedown="handleReset()"/>
   <use id="arrowup" xlink:href="#arrowUp" x="0" y="0" onmousedown="handlePan(0,-1)"/>
  <use id="arrowright" xlink:href="#arrowRight" x="0" y="0" onmousedown="handlePan(1,0)"/>
  <use id="arrowdown" xlink:href="#arrowDown" x="0" y="0" onmousedown="handlePan(0,1)"/>
  <use id="arrowleft" xlink:href="#arrowLeft" x="0" y="0" onmousedown="handlePan(-1,0)"/>
</g>
<svg viewBox="0 0 15 15" width="100%" height="30px" preserveAspectRatio="xMaxYMin meet">
 <g id="arrow_out" transform="scale(0.3 0.3)">
  <a xlink:href="class_n_audio_1_1_midi_1_1_patch_change_event__coll__graph_org.svg" target="_base">
   <rect id="button" ry="5" rx="5" y="6" x="6" height="38" width="38"
        fill="#f2f5e9" fill-opacity="0.5" stroke="#606060" stroke-width="1.0"/>
   <path id="arrow"
     d="M 11.500037,31.436501 C 11.940474,20.09759 22.043105,11.32322 32.158766,21.979434 L 37.068811,17.246167 C 37.068811,17.246167 37.088388,32 37.088388,32 L 22.160133,31.978069 C 22.160133,31.978069 26.997745,27.140456 26.997745,27.140456 C 18.528582,18.264221 13.291696,25.230495 11.500037,31.436501 z"
     style="fill:#404040;"/>
  </a>
 </g>
</svg>

<style type='text/css'>
<![CDATA[
[data-mouse-over-selected='false'] { opacity: 0.7; }
[data-mouse-over-selected='true']  { opacity: 1.0; }
]]>
</style>
<script type="application/ecmascript"><![CDATA[
document.addEventListener('DOMContentLoaded', (event) => {
  highlightEdges();
  highlightAdjacentNodes();
});
]]></script>
</svg>
