<?xml version="1.0" encoding="UTF-8" standalone="no"?>
<!DOCTYPE svg PUBLIC "-//W3C//DTD SVG 1.1//EN"
 "http://www.w3.org/Graphics/SVG/1.1/DTD/svg11.dtd">
<!-- Generated by graphviz version 10.0.1 (20240210.2158)
 -->
<!-- Title: xeno_rat_server.Forms.WebCam.comboBox2_SelectedIndexChanged Pages: 1 -->
<svg width="1152pt" height="210pt"
 viewBox="0.00 0.00 1151.75 209.50" xmlns="http://www.w3.org/2000/svg" xmlns:xlink="http://www.w3.org/1999/xlink">
<g id="graph0" class="graph" transform="scale(1 1) rotate(0) translate(4 205.5)">
<title>xeno_rat_server.Forms.WebCam.comboBox2_SelectedIndexChanged</title>
<!-- Node1 -->
<g id="Node000001" class="node">
<title>Node1</title>
<g id="a_Node000001"><a xlink:title="Handles the SelectedIndexChanged event of comboBox2. Sets the quality based on the selected index in ...">
<polygon fill="#999999" stroke="#666666" points="198.25,-150.5 0,-150.5 0,-120 198.25,-120 198.25,-150.5"/>
<text text-anchor="start" x="8" y="-137" font-family="Helvetica,sans-Serif" font-size="10.00">xeno_rat_server.Forms.Web</text>
<text text-anchor="middle" x="99.12" y="-125.75" font-family="Helvetica,sans-Serif" font-size="10.00">Cam.comboBox2_SelectedIndexChanged</text>
</a>
</g>
</g>
<!-- Node2 -->
<g id="Node000002" class="node">
<title>Node2</title>
<g id="a_Node000002"><a xlink:href="classxeno__rat__server_1_1_forms_1_1_web_cam.html#a85b465ef4645808e846d9abb4bc8d503" target="_top" xlink:title="Sets the quality of the client and sends the quality value to the server.">
<polygon fill="white" stroke="#666666" points="372.5,-150.5 234.25,-150.5 234.25,-120 372.5,-120 372.5,-150.5"/>
<text text-anchor="start" x="242.25" y="-137" font-family="Helvetica,sans-Serif" font-size="10.00">xeno_rat_server.Forms.Web</text>
<text text-anchor="middle" x="303.38" y="-125.75" font-family="Helvetica,sans-Serif" font-size="10.00">Cam.SetQuality</text>
</a>
</g>
</g>
<!-- Node1&#45;&gt;Node2 -->
<g id="edge1_Node000001_Node000002" class="edge">
<title>Node1&#45;&gt;Node2</title>
<g id="a_edge1_Node000001_Node000002"><a xlink:title=" ">
<path fill="none" stroke="#63b8ff" d="M198.58,-135.25C206.62,-135.25 214.67,-135.25 222.54,-135.25"/>
<polygon fill="#63b8ff" stroke="#63b8ff" points="222.41,-138.75 232.41,-135.25 222.41,-131.75 222.41,-138.75"/>
</a>
</g>
</g>
<!-- Node3 -->
<g id="Node000003" class="node">
<title>Node3</title>
<g id="a_Node000003"><a xlink:href="classxeno__rat__server_1_1_socket_handler.html#a7d019c5e4cbd0138d155156c7a7c5a8f" target="_top" xlink:title="Converts an integer to a byte array.">
<polygon fill="white" stroke="#666666" points="935.75,-178.5 781,-178.5 781,-148 935.75,-148 935.75,-178.5"/>
<text text-anchor="start" x="789" y="-165" font-family="Helvetica,sans-Serif" font-size="10.00">xeno_rat_server.SocketHandler.</text>
<text text-anchor="middle" x="858.38" y="-153.75" font-family="Helvetica,sans-Serif" font-size="10.00">IntToBytes</text>
</a>
</g>
</g>
<!-- Node2&#45;&gt;Node3 -->
<g id="edge2_Node000002_Node000003" class="edge">
<title>Node2&#45;&gt;Node3</title>
<g id="a_edge2_Node000002_Node000003"><a xlink:title=" ">
<path fill="none" stroke="#63b8ff" d="M372.74,-138.71C472.8,-143.78 659.16,-153.21 769.34,-158.79"/>
<polygon fill="#63b8ff" stroke="#63b8ff" points="769.07,-162.28 779.24,-159.29 769.43,-155.29 769.07,-162.28"/>
</a>
</g>
</g>
<!-- Node4 -->
<g id="Node000004" class="node">
<title>Node4</title>
<g id="a_Node000004"><a xlink:href="classxeno__rat__server_1_1_node.html#a816e267eb31862d38c21e5faaae3061d" target="_top" xlink:title="Sends the provided data asynchronously and returns a boolean indicating the success of the operation.">
<polygon fill="white" stroke="#666666" points="545.25,-122.5 408.5,-122.5 408.5,-92 545.25,-92 545.25,-122.5"/>
<text text-anchor="start" x="416.5" y="-109" font-family="Helvetica,sans-Serif" font-size="10.00">xeno_rat_server.Node.Send</text>
<text text-anchor="middle" x="476.88" y="-97.75" font-family="Helvetica,sans-Serif" font-size="10.00">Async</text>
</a>
</g>
</g>
<!-- Node2&#45;&gt;Node4 -->
<g id="edge3_Node000002_Node000004" class="edge">
<title>Node2&#45;&gt;Node4</title>
<g id="a_edge3_Node000002_Node000004"><a xlink:title=" ">
<path fill="none" stroke="#63b8ff" d="M372.65,-124.1C380.59,-122.81 388.73,-121.48 396.8,-120.16"/>
<polygon fill="#63b8ff" stroke="#63b8ff" points="397.32,-123.62 406.62,-118.56 396.19,-116.71 397.32,-123.62"/>
</a>
</g>
</g>
<!-- Node5 -->
<g id="Node000005" class="node">
<title>Node5</title>
<g id="a_Node000005"><a xlink:href="classxeno__rat__server_1_1_node.html#a8814edd98b6463f49812be32d5928763" target="_top" xlink:title="Sets the isDisposed flag to true and disconnects the socket, disposes resources, and triggers the OnD...">
<polygon fill="white" stroke="#666666" points="745,-116.88 581.25,-116.88 581.25,-97.62 745,-97.62 745,-116.88"/>
<text text-anchor="middle" x="663.12" y="-103.38" font-family="Helvetica,sans-Serif" font-size="10.00">xeno_rat_server.Node.Disconnect</text>
</a>
</g>
</g>
<!-- Node4&#45;&gt;Node5 -->
<g id="edge4_Node000004_Node000005" class="edge">
<title>Node4&#45;&gt;Node5</title>
<g id="a_edge4_Node000004_Node000005"><a xlink:title=" ">
<path fill="none" stroke="#63b8ff" d="M545.7,-107.25C553.51,-107.25 561.57,-107.25 569.64,-107.25"/>
<polygon fill="#63b8ff" stroke="#63b8ff" points="569.5,-110.75 579.5,-107.25 569.5,-103.75 569.5,-110.75"/>
</a>
</g>
</g>
<!-- Node6 -->
<g id="Node000006" class="node">
<title>Node6</title>
<g id="a_Node000006"><a xlink:href="classxeno__rat__server_1_1_socket_handler.html#a85ca8385d023521cdb86ff8ae688adee" target="_top" xlink:title="Sends the provided data asynchronously over the socket.">
<polygon fill="white" stroke="#666666" points="740.5,-79.5 585.75,-79.5 585.75,-49 740.5,-49 740.5,-79.5"/>
<text text-anchor="start" x="593.75" y="-66" font-family="Helvetica,sans-Serif" font-size="10.00">xeno_rat_server.SocketHandler.</text>
<text text-anchor="middle" x="663.12" y="-54.75" font-family="Helvetica,sans-Serif" font-size="10.00">SendAsync</text>
</a>
</g>
</g>
<!-- Node4&#45;&gt;Node6 -->
<g id="edge6_Node000004_Node000006" class="edge">
<title>Node4&#45;&gt;Node6</title>
<g id="a_edge6_Node000004_Node000006"><a xlink:title=" ">
<path fill="none" stroke="#63b8ff" d="M545.18,-91.54C557.66,-88.63 570.8,-85.56 583.58,-82.58"/>
<polygon fill="#63b8ff" stroke="#63b8ff" points="584.28,-86.01 593.22,-80.33 582.69,-79.19 584.28,-86.01"/>
</a>
</g>
</g>
<!-- Node5&#45;&gt;Node5 -->
<g id="edge5_Node000005_Node000005" class="edge">
<title>Node5&#45;&gt;Node5</title>
<g id="a_edge5_Node000005_Node000005"><a xlink:title=" ">
<path fill="none" stroke="#63b8ff" d="M633.97,-117.16C620.67,-125.77 630.39,-134.88 663.12,-134.88 682.05,-134.88 693.29,-131.83 696.83,-127.6"/>
<polygon fill="#63b8ff" stroke="#63b8ff" points="700.09,-126.32 692.89,-118.55 693.67,-129.12 700.09,-126.32"/>
</a>
</g>
</g>
<!-- Node6&#45;&gt;Node3 -->
<g id="edge14_Node000006_Node000003" class="edge">
<title>Node6&#45;&gt;Node3</title>
<g id="a_edge14_Node000006_Node000003"><a xlink:title=" ">
<path fill="none" stroke="#63b8ff" d="M730.28,-79.86C735.46,-82.27 740.45,-85.05 745,-88.25 767.11,-103.79 759.21,-121.27 781,-137.25 783.46,-139.05 786.05,-140.73 788.73,-142.31"/>
<polygon fill="#63b8ff" stroke="#63b8ff" points="786.95,-145.33 797.44,-146.83 790.18,-139.11 786.95,-145.33"/>
</a>
</g>
</g>
<!-- Node7 -->
<g id="Node000007" class="node">
<title>Node7</title>
<g id="a_Node000007"><a xlink:href="classxeno__rat__server_1_1_compression.html#a0f3f31a2fe34d92bf04538b2fdf529e0" target="_top" xlink:title="Compresses the input buffer using the LZNT1 compression format and returns the compressed data.">
<polygon fill="white" stroke="#666666" points="932.75,-128.5 784,-128.5 784,-98 932.75,-98 932.75,-128.5"/>
<text text-anchor="start" x="792" y="-115" font-family="Helvetica,sans-Serif" font-size="10.00">xeno_rat_server.Compression.</text>
<text text-anchor="middle" x="858.38" y="-103.75" font-family="Helvetica,sans-Serif" font-size="10.00">Compress</text>
</a>
</g>
</g>
<!-- Node6&#45;&gt;Node7 -->
<g id="edge7_Node000006_Node000007" class="edge">
<title>Node6&#45;&gt;Node7</title>
<g id="a_edge7_Node000006_Node000007"><a xlink:title=" ">
<path fill="none" stroke="#63b8ff" d="M726.07,-79.96C744.62,-84.66 765.13,-89.86 784.33,-94.73"/>
<polygon fill="#63b8ff" stroke="#63b8ff" points="783.43,-98.11 793.98,-97.18 785.15,-91.33 783.43,-98.11"/>
</a>
</g>
</g>
<!-- Node12 -->
<g id="Node000012" class="node">
<title>Node12</title>
<g id="a_Node000012"><a xlink:href="classxeno__rat__server_1_1_socket_handler.html#a4f2e993b63cf1bba877781c9be2ed496" target="_top" xlink:title="Concatenates two byte arrays and returns the result.">
<polygon fill="white" stroke="#666666" points="935.75,-79.5 781,-79.5 781,-49 935.75,-49 935.75,-79.5"/>
<text text-anchor="start" x="789" y="-66" font-family="Helvetica,sans-Serif" font-size="10.00">xeno_rat_server.SocketHandler.</text>
<text text-anchor="middle" x="858.38" y="-54.75" font-family="Helvetica,sans-Serif" font-size="10.00">Concat</text>
</a>
</g>
</g>
<!-- Node6&#45;&gt;Node12 -->
<g id="edge12_Node000006_Node000012" class="edge">
<title>Node6&#45;&gt;Node12</title>
<g id="a_edge12_Node000006_Node000012"><a xlink:title=" ">
<path fill="none" stroke="#63b8ff" d="M740.78,-64.25C750.25,-64.25 759.98,-64.25 769.6,-64.25"/>
<polygon fill="#63b8ff" stroke="#63b8ff" points="769.3,-67.75 779.3,-64.25 769.3,-60.75 769.3,-67.75"/>
</a>
</g>
</g>
<!-- Node13 -->
<g id="Node000013" class="node">
<title>Node13</title>
<g id="a_Node000013"><a xlink:href="classxeno__rat__server_1_1_encryption.html#a0fafecaba804cb57663bdbb4dcc4e93f" target="_top" xlink:title="Encrypts the input data using the provided key and returns the encrypted result.">
<polygon fill="white" stroke="#666666" points="927.12,-30.5 789.62,-30.5 789.62,0 927.12,0 927.12,-30.5"/>
<text text-anchor="start" x="797.62" y="-17" font-family="Helvetica,sans-Serif" font-size="10.00">xeno_rat_server.Encryption.</text>
<text text-anchor="middle" x="858.38" y="-5.75" font-family="Helvetica,sans-Serif" font-size="10.00">Encrypt</text>
</a>
</g>
</g>
<!-- Node6&#45;&gt;Node13 -->
<g id="edge13_Node000006_Node000013" class="edge">
<title>Node6&#45;&gt;Node13</title>
<g id="a_edge13_Node000006_Node000013"><a xlink:title=" ">
<path fill="none" stroke="#63b8ff" d="M726.07,-48.54C744.62,-43.84 765.13,-38.64 784.33,-33.77"/>
<polygon fill="#63b8ff" stroke="#63b8ff" points="785.15,-37.17 793.98,-31.32 783.43,-30.39 785.15,-37.17"/>
</a>
</g>
</g>
<!-- Node8 -->
<g id="Node000008" class="node">
<title>Node8</title>
<g id="a_Node000008"><a xlink:href="classxeno__rat__server_1_1_compression.html#ae86c8cb19fb340173e6b06816907c485" target="_top" xlink:title="Allocates the specified number of bytes in the local heap and returns a pointer to the allocated memo...">
<polygon fill="white" stroke="#666666" points="1132.12,-201.5 983.38,-201.5 983.38,-171 1132.12,-171 1132.12,-201.5"/>
<text text-anchor="start" x="991.38" y="-188" font-family="Helvetica,sans-Serif" font-size="10.00">xeno_rat_server.Compression.</text>
<text text-anchor="middle" x="1057.75" y="-176.75" font-family="Helvetica,sans-Serif" font-size="10.00">LocalAlloc</text>
</a>
</g>
</g>
<!-- Node7&#45;&gt;Node8 -->
<g id="edge8_Node000007_Node000008" class="edge">
<title>Node7&#45;&gt;Node8</title>
<g id="a_edge8_Node000007_Node000008"><a xlink:title=" ">
<path fill="none" stroke="#63b8ff" d="M910.53,-128.91C919.08,-132.03 927.76,-135.5 935.75,-139.25 952.73,-147.21 954.61,-153.65 971.75,-161.25 976.22,-163.23 980.89,-165.11 985.65,-166.87"/>
<polygon fill="#63b8ff" stroke="#63b8ff" points="984.12,-170.04 994.71,-170.06 986.43,-163.44 984.12,-170.04"/>
</a>
</g>
</g>
<!-- Node9 -->
<g id="Node000009" class="node">
<title>Node9</title>
<g id="a_Node000009"><a xlink:href="classxeno__rat__server_1_1_compression.html#ab527e0a594d96bbaa1a4b1541888aa74" target="_top" xlink:title="Frees the memory block allocated by LocalAlloc and LocalReAlloc and invalidates the handle.">
<polygon fill="white" stroke="#666666" points="1132.12,-152.5 983.38,-152.5 983.38,-122 1132.12,-122 1132.12,-152.5"/>
<text text-anchor="start" x="991.38" y="-139" font-family="Helvetica,sans-Serif" font-size="10.00">xeno_rat_server.Compression.</text>
<text text-anchor="middle" x="1057.75" y="-127.75" font-family="Helvetica,sans-Serif" font-size="10.00">LocalFree</text>
</a>
</g>
</g>
<!-- Node7&#45;&gt;Node9 -->
<g id="edge9_Node000007_Node000009" class="edge">
<title>Node7&#45;&gt;Node9</title>
<g id="a_edge9_Node000007_Node000009"><a xlink:title=" ">
<path fill="none" stroke="#63b8ff" d="M933.15,-122.22C945.77,-123.76 958.97,-125.36 971.85,-126.93"/>
<polygon fill="#63b8ff" stroke="#63b8ff" points="971.21,-130.37 981.56,-128.11 972.06,-123.43 971.21,-130.37"/>
</a>
</g>
</g>
<!-- Node10 -->
<g id="Node000010" class="node">
<title>Node10</title>
<g id="a_Node000010"><a xlink:href="classxeno__rat__server_1_1_compression.html#a1f9bb20d96d13bdc4d0f90e2b68d4343" target="_top" xlink:title="Compresses the input buffer using the specified compression format and returns the compressed data in...">
<polygon fill="white" stroke="#666666" points="1132.12,-103.5 983.38,-103.5 983.38,-73 1132.12,-73 1132.12,-103.5"/>
<text text-anchor="start" x="991.38" y="-90" font-family="Helvetica,sans-Serif" font-size="10.00">xeno_rat_server.Compression.</text>
<text text-anchor="middle" x="1057.75" y="-78.75" font-family="Helvetica,sans-Serif" font-size="10.00">RtlCompressBuffer</text>
</a>
</g>
</g>
<!-- Node7&#45;&gt;Node10 -->
<g id="edge10_Node000007_Node000010" class="edge">
<title>Node7&#45;&gt;Node10</title>
<g id="a_edge10_Node000007_Node000010"><a xlink:title=" ">
<path fill="none" stroke="#63b8ff" d="M933.15,-103.91C945.77,-102.31 958.97,-100.64 971.85,-99"/>
<polygon fill="#63b8ff" stroke="#63b8ff" points="972.08,-102.5 981.56,-97.77 971.2,-95.56 972.08,-102.5"/>
</a>
</g>
</g>
<!-- Node11 -->
<g id="Node000011" class="node">
<title>Node11</title>
<g id="a_Node000011"><a xlink:href="classxeno__rat__server_1_1_compression.html#a5ca090d7b0887e40753bad9800c321e7" target="_top" xlink:title="Retrieves the size of the workspace required for compression.">
<polygon fill="white" stroke="#666666" points="1143.75,-54.5 971.75,-54.5 971.75,-24 1143.75,-24 1143.75,-54.5"/>
<text text-anchor="start" x="979.75" y="-41" font-family="Helvetica,sans-Serif" font-size="10.00">xeno_rat_server.Compression.</text>
<text text-anchor="middle" x="1057.75" y="-29.75" font-family="Helvetica,sans-Serif" font-size="10.00">RtlGetCompressionWorkSpaceSize</text>
</a>
</g>
</g>
<!-- Node7&#45;&gt;Node11 -->
<g id="edge11_Node000007_Node000011" class="edge">
<title>Node7&#45;&gt;Node11</title>
<g id="a_edge11_Node000007_Node000011"><a xlink:title=" ">
<path fill="none" stroke="#63b8ff" d="M913.52,-97.57C921.11,-94.78 928.72,-91.66 935.75,-88.25 953.05,-79.85 954.33,-72.39 971.75,-64.25 975.79,-62.36 980,-60.58 984.3,-58.91"/>
<polygon fill="#63b8ff" stroke="#63b8ff" points="985.49,-62.2 993.68,-55.49 983.09,-55.63 985.49,-62.2"/>
</a>
</g>
</g>
</g>
</svg>
