<?xml version="1.0" encoding="UTF-8" standalone="no"?>
<!DOCTYPE svg PUBLIC "-//W3C//DTD SVG 1.1//EN"
 "http://www.w3.org/Graphics/SVG/1.1/DTD/svg11.dtd">
<!-- Generated by graphviz version 10.0.1 (20240210.2158)
 -->
<!-- Title: NAudio.Dmo.Effect.DmoFlanger.Dispose Pages: 1 -->
<svg width="373pt" height="76pt"
 viewBox="0.00 0.00 373.00 75.88" xmlns="http://www.w3.org/2000/svg" xmlns:xlink="http://www.w3.org/1999/xlink">
<g id="graph0" class="graph" transform="scale(1 1) rotate(0) translate(4 71.88)">
<title>NAudio.Dmo.Effect.DmoFlanger.Dispose</title>
<!-- Node1 -->
<g id="Node000001" class="node">
<title>Node1</title>
<g id="a_Node000001"><a xlink:title="Disposes the media objects if they are not null.">
<polygon fill="#999999" stroke="#666666" points="160,-51.5 0,-51.5 0,-21 160,-21 160,-51.5"/>
<text text-anchor="start" x="8" y="-38" font-family="Helvetica,sans-Serif" font-size="10.00">NAudio.Dmo.Effect.DmoFlanger.</text>
<text text-anchor="middle" x="80" y="-26.75" font-family="Helvetica,sans-Serif" font-size="10.00">Dispose</text>
</a>
</g>
</g>
<!-- Node2 -->
<g id="Node000002" class="node">
<title>Node2</title>
<g id="a_Node000002"><a xlink:href="class_n_audio_1_1_dmo_1_1_media_object.html#a3383eff6cf87a8e751e670d64e66c735" target="_top" xlink:title="Releases the unmanaged resources used by the media object.">
<polygon fill="white" stroke="#666666" points="365,-67.88 196,-67.88 196,-48.62 365,-48.62 365,-67.88"/>
<text text-anchor="middle" x="280.5" y="-54.38" font-family="Helvetica,sans-Serif" font-size="10.00">NAudio.Dmo.MediaObject.Dispose</text>
</a>
</g>
</g>
<!-- Node1&#45;&gt;Node2 -->
<g id="edge1_Node000001_Node000002" class="edge">
<title>Node1&#45;&gt;Node2</title>
<g id="a_edge1_Node000001_Node000002"><a xlink:title=" ">
<path fill="none" stroke="#63b8ff" d="M160.31,-45.04C168.24,-45.92 176.34,-46.82 184.41,-47.71"/>
<polygon fill="#63b8ff" stroke="#63b8ff" points="183.94,-51.18 194.26,-48.8 184.71,-44.22 183.94,-51.18"/>
</a>
</g>
</g>
<!-- Node3 -->
<g id="Node000003" class="node">
<title>Node3</title>
<g id="a_Node000003"><a xlink:href="class_n_audio_1_1_dmo_1_1_media_object_in_place.html#a5b5bf2fc090974c196273a78383882f4" target="_top" xlink:title="Releases the unmanaged resources used by the MediaObjectInPlace and optionally releases the managed r...">
<polygon fill="white" stroke="#666666" points="349.62,-30.5 211.38,-30.5 211.38,0 349.62,0 349.62,-30.5"/>
<text text-anchor="start" x="219.38" y="-17" font-family="Helvetica,sans-Serif" font-size="10.00">NAudio.Dmo.MediaObjectIn</text>
<text text-anchor="middle" x="280.5" y="-5.75" font-family="Helvetica,sans-Serif" font-size="10.00">Place.Dispose</text>
</a>
</g>
</g>
<!-- Node1&#45;&gt;Node3 -->
<g id="edge2_Node000001_Node000003" class="edge">
<title>Node1&#45;&gt;Node3</title>
<g id="a_edge2_Node000001_Node000003"><a xlink:title=" ">
<path fill="none" stroke="#63b8ff" d="M160.31,-27.86C173.25,-26.49 186.67,-25.07 199.63,-23.7"/>
<polygon fill="#63b8ff" stroke="#63b8ff" points="199.8,-27.2 209.37,-22.67 199.06,-20.24 199.8,-27.2"/>
</a>
</g>
</g>
</g>
</svg>
