<?xml version="1.0" encoding="UTF-8" standalone="no"?>
<!DOCTYPE svg PUBLIC "-//W3C//DTD SVG 1.1//EN"
 "http://www.w3.org/Graphics/SVG/1.1/DTD/svg11.dtd">
<!-- Generated by graphviz version 10.0.1 (20240210.2158)
 -->
<!-- Title: NAudio.Wave.StreamMediaFoundationReader Pages: 1 -->
<!--zoomable 973 -->

<svg id="main" version="1.1" xmlns="http://www.w3.org/2000/svg" xmlns:xlink="http://www.w3.org/1999/xlink" xml:space="preserve" onload="init(evt)">
<style type="text/css"><![CDATA[
.node, .edge {opacity: 0.7;}
.node.selected, .edge.selected {opacity: 1;}
.edge:hover path { stroke: red; }
.edge:hover polygon { stroke: red; fill: red; }
]]></style>

<defs>
  <circle id="rim" cx="0" cy="0" r="7"/>
  <circle id="rim2" cx="0" cy="0" r="3.5"/>
  <g id="zoomPlus">
    <use xlink:href="#rim" fill="#404040"><set attributeName="fill" to="#808080" begin="zoomplus.mouseover" end="zoomplus.mouseout"/></use>
    <path d="M-4,0h8M0,-4v8" fill="none" stroke="white" stroke-width="1.5" pointer-events="none"/>
  </g>
  <g id="zoomMin">
    <use xlink:href="#rim" fill="#404040"><set attributeName="fill" to="#808080" begin="zoomminus.mouseover" end="zoomminus.mouseout"/></use>
    <path d="M-4,0h8" fill="none" stroke="white" stroke-width="1.5" pointer-events="none"/>
  </g>
  <g id="arrowUp" transform="translate(30 24)">
    <use xlink:href="#rim"/>
    <path pointer-events="none" fill="none" stroke="white" stroke-width="1.5" d="M0,-3.0v7 M-2.5,-0.5L0,-3.0L2.5,-0.5"/>
  </g>
  <g id="arrowRight" transform="rotate(90) translate(36 -43)">
    <use xlink:href="#rim"/>
    <path pointer-events="none" fill="none" stroke="white" stroke-width="1.5" d="M0,-3.0v7 M-2.5,-0.5L0,-3.0L2.5,-0.5"/>
  </g>
  <g id="arrowDown" transform="rotate(180) translate(-30 -48)">
    <use xlink:href="#rim"/>
    <path pointer-events="none" fill="none" stroke="white" stroke-width="1.5" d="M0,-3.0v7 M-2.5,-0.5L0,-3.0L2.5,-0.5"/>
  </g>
  <g id="arrowLeft" transform="rotate(270) translate(-36 17)">
    <use xlink:href="#rim"/>
    <path pointer-events="none" fill="none" stroke="white" stroke-width="1.5" d="M0,-3.0v7 M-2.5,-0.5L0,-3.0L2.5,-0.5"/>
  </g>
  <g id="resetDef">
    <use xlink:href="#rim2" fill="#404040"><set attributeName="fill" to="#808080" begin="reset.mouseover" end="reset.mouseout"/></use>
  </g>
</defs>
<script type="application/ecmascript">
var viewWidth = 1205;
var viewHeight = 973;
var sectionId = 'dynsection-1';
</script>
<script type="application/ecmascript" xlink:href="svg.min.js"/>
<svg id="graph" class="graph">
<g id="viewport">
<title>NAudio.Wave.StreamMediaFoundationReader</title>
<!-- Node1 -->
<g id="Node000001" class="node">
<title>Node1</title>
<g id="a_Node000001"><a xlink:title="MediaFoundationReader supporting reading from a stream.">
<polygon fill="#999999" stroke="none" points="276.5,-75 98.5,-75 98.5,0 276.5,0 276.5,-75"/>
<text text-anchor="start" x="103.12" y="-61.5" font-family="Helvetica,sans-Serif" font-size="10.00">NAudio.Wave.StreamMediaFoundation</text>
<text text-anchor="start" x="171.75" y="-50.25" font-family="Helvetica,sans-Serif" font-size="10.00">Reader</text>
<text text-anchor="start" x="186" y="-35.5" font-family="Helvetica,sans-Serif" font-size="10.00"> </text>
<text text-anchor="start" x="106.5" y="-20.5" font-family="Helvetica,sans-Serif" font-size="10.00">+</text>
<text text-anchor="start" x="120.5" y="-20.5" font-family="Helvetica,sans-Serif" font-size="10.00">StreamMediaFoundationReader()</text>
<text text-anchor="start" x="106.88" y="-5.5" font-family="Helvetica,sans-Serif" font-size="10.00">#</text>
<text text-anchor="start" x="120.5" y="-5.5" font-family="Helvetica,sans-Serif" font-size="10.00">CreateReader()</text>
<polygon fill="#666666" stroke="#666666" points="98.5,-47 98.5,-47 276.5,-47 276.5,-47 98.5,-47"/>
<polygon fill="#666666" stroke="#666666" points="98.5,-32 98.5,-32 276.5,-32 276.5,-32 98.5,-32"/>
<polygon fill="none" stroke="#666666" points="98.5,0 98.5,-75 276.5,-75 276.5,0 98.5,0"/>
</a>
</g>
</g>
<!-- Node2 -->
<g id="Node000002" class="node">
<title>Node2</title>
<g id="a_Node000002"><a xlink:href="class_n_audio_1_1_wave_1_1_media_foundation_reader.html" target="_top" xlink:title="Class for reading any file that Media Foundation can play Will only work in Windows Vista and above A...">
<polygon fill="white" stroke="none" points="717.5,-386 585.5,-386 585.5,-112 717.5,-112 717.5,-386"/>
<text text-anchor="start" x="598.62" y="-372.5" font-family="Helvetica,sans-Serif" font-size="10.00">MediaFoundationReader</text>
<text text-anchor="start" x="589.5" y="-357.5" font-family="Helvetica,sans-Serif" font-size="10.00">+</text>
<text text-anchor="start" x="599.5" y="-357.5" font-family="Helvetica,sans-Serif" font-size="10.00">WaveFormat</text>
<text text-anchor="start" x="589.5" y="-342.5" font-family="Helvetica,sans-Serif" font-size="10.00">+</text>
<text text-anchor="start" x="599.5" y="-342.5" font-family="Helvetica,sans-Serif" font-size="10.00">Length</text>
<text text-anchor="start" x="589.5" y="-327.5" font-family="Helvetica,sans-Serif" font-size="10.00">+</text>
<text text-anchor="start" x="599.5" y="-327.5" font-family="Helvetica,sans-Serif" font-size="10.00">Position</text>
<text text-anchor="start" x="589.5" y="-312.5" font-family="Helvetica,sans-Serif" font-size="10.00">+</text>
<text text-anchor="start" x="599.5" y="-312.5" font-family="Helvetica,sans-Serif" font-size="10.00">MediaFoundationReader()</text>
<text text-anchor="start" x="589.5" y="-297.5" font-family="Helvetica,sans-Serif" font-size="10.00">+</text>
<text text-anchor="start" x="599.5" y="-297.5" font-family="Helvetica,sans-Serif" font-size="10.00">MediaFoundationReader()</text>
<text text-anchor="start" x="589.5" y="-282.5" font-family="Helvetica,sans-Serif" font-size="10.00">+</text>
<text text-anchor="start" x="599.5" y="-282.5" font-family="Helvetica,sans-Serif" font-size="10.00">Read()</text>
<text text-anchor="start" x="589.88" y="-267.5" font-family="Helvetica,sans-Serif" font-size="10.00">#</text>
<text text-anchor="start" x="599.5" y="-267.5" font-family="Helvetica,sans-Serif" font-size="10.00">MediaFoundationReader()</text>
<text text-anchor="start" x="589.88" y="-252.5" font-family="Helvetica,sans-Serif" font-size="10.00">#</text>
<text text-anchor="start" x="599.5" y="-252.5" font-family="Helvetica,sans-Serif" font-size="10.00">Init()</text>
<text text-anchor="start" x="589.88" y="-237.5" font-family="Helvetica,sans-Serif" font-size="10.00">#</text>
<text text-anchor="start" x="599.5" y="-237.5" font-family="Helvetica,sans-Serif" font-size="10.00">CreateReader()</text>
<text text-anchor="start" x="589.88" y="-222.5" font-family="Helvetica,sans-Serif" font-size="10.00">#</text>
<text text-anchor="start" x="599.5" y="-222.5" font-family="Helvetica,sans-Serif" font-size="10.00">Dispose()</text>
<text text-anchor="start" x="591" y="-207.5" font-family="Helvetica,sans-Serif" font-size="10.00">&#45;</text>
<text text-anchor="start" x="599.5" y="-207.5" font-family="Helvetica,sans-Serif" font-size="10.00">GetCurrentWaveFormat()</text>
<text text-anchor="start" x="591" y="-192.5" font-family="Helvetica,sans-Serif" font-size="10.00">&#45;</text>
<text text-anchor="start" x="599.5" y="-192.5" font-family="Helvetica,sans-Serif" font-size="10.00">GetLength()</text>
<text text-anchor="start" x="591" y="-177.5" font-family="Helvetica,sans-Serif" font-size="10.00">&#45;</text>
<text text-anchor="start" x="599.5" y="-177.5" font-family="Helvetica,sans-Serif" font-size="10.00">EnsureBuffer()</text>
<text text-anchor="start" x="591" y="-162.5" font-family="Helvetica,sans-Serif" font-size="10.00">&#45;</text>
<text text-anchor="start" x="599.5" y="-162.5" font-family="Helvetica,sans-Serif" font-size="10.00">ReadFromDecoderBuffer()</text>
<text text-anchor="start" x="591" y="-147.5" font-family="Helvetica,sans-Serif" font-size="10.00">&#45;</text>
<text text-anchor="start" x="599.5" y="-147.5" font-family="Helvetica,sans-Serif" font-size="10.00">Reposition()</text>
<text text-anchor="start" x="591" y="-132.5" font-family="Helvetica,sans-Serif" font-size="10.00">&#45;</text>
<text text-anchor="start" x="599.5" y="-132.5" font-family="Helvetica,sans-Serif" font-size="10.00">OnWaveFormatChanged()</text>
<text text-anchor="start" x="591" y="-117.5" font-family="Helvetica,sans-Serif" font-size="10.00">&#45;</text>
<text text-anchor="start" x="599.5" y="-117.5" font-family="Helvetica,sans-Serif" font-size="10.00">GetCurrentMediaType()</text>
<polygon fill="#666666" stroke="#666666" points="585.5,-369 585.5,-369 717.5,-369 717.5,-369 585.5,-369"/>
<polygon fill="#666666" stroke="#666666" points="585.5,-324 585.5,-324 597.5,-324 597.5,-324 585.5,-324"/>
<polygon fill="#666666" stroke="#666666" points="597.5,-324 597.5,-324 717.5,-324 717.5,-324 597.5,-324"/>
<polygon fill="none" stroke="#666666" points="585.5,-112 585.5,-386 717.5,-386 717.5,-112 585.5,-112"/>
</a>
</g>
</g>
<!-- Node2&#45;&gt;Node1 -->
<g id="edge1_Node000001_Node000002" class="edge">
<title>Node2&#45;&gt;Node1</title>
<g id="a_edge1_Node000001_Node000002"><a xlink:title=" ">
<path fill="none" stroke="#63b8ff" d="M575.19,-213.55C490.51,-175.31 354.43,-113.87 268.07,-74.88"/>
<polygon fill="none" stroke="#63b8ff" points="573.58,-216.66 584.13,-217.58 576.46,-210.28 573.58,-216.66"/>
</a>
</g>
</g>
<!-- Node3 -->
<g id="Node000003" class="node">
<title>Node3</title>
<g id="a_Node000003"><a xlink:href="class_n_audio_1_1_wave_1_1_wave_stream.html" target="_top" xlink:title="Base class for all WaveStream classes. Derives from stream.">
<polygon fill="white" stroke="none" points="132,-752.25 59,-752.25 59,-538.25 132,-538.25 132,-752.25"/>
<text text-anchor="start" x="67.38" y="-738.75" font-family="Helvetica,sans-Serif" font-size="10.00">WaveStream</text>
<text text-anchor="start" x="63" y="-723.75" font-family="Helvetica,sans-Serif" font-size="10.00">+</text>
<text text-anchor="start" x="73" y="-723.75" font-family="Helvetica,sans-Serif" font-size="10.00">WaveFormat</text>
<text text-anchor="start" x="63" y="-708.75" font-family="Helvetica,sans-Serif" font-size="10.00">+</text>
<text text-anchor="start" x="73" y="-708.75" font-family="Helvetica,sans-Serif" font-size="10.00">CanRead</text>
<text text-anchor="start" x="63" y="-693.75" font-family="Helvetica,sans-Serif" font-size="10.00">+</text>
<text text-anchor="start" x="73" y="-693.75" font-family="Helvetica,sans-Serif" font-size="10.00">CanSeek</text>
<text text-anchor="start" x="63" y="-678.75" font-family="Helvetica,sans-Serif" font-size="10.00">+</text>
<text text-anchor="start" x="73" y="-678.75" font-family="Helvetica,sans-Serif" font-size="10.00">CanWrite</text>
<text text-anchor="start" x="63" y="-663.75" font-family="Helvetica,sans-Serif" font-size="10.00">+</text>
<text text-anchor="start" x="73" y="-663.75" font-family="Helvetica,sans-Serif" font-size="10.00">BlockAlign</text>
<text text-anchor="start" x="63" y="-648.75" font-family="Helvetica,sans-Serif" font-size="10.00">+</text>
<text text-anchor="start" x="73" y="-648.75" font-family="Helvetica,sans-Serif" font-size="10.00">CurrentTime</text>
<text text-anchor="start" x="63" y="-633.75" font-family="Helvetica,sans-Serif" font-size="10.00">+</text>
<text text-anchor="start" x="73" y="-633.75" font-family="Helvetica,sans-Serif" font-size="10.00">TotalTime</text>
<text text-anchor="start" x="63" y="-618.75" font-family="Helvetica,sans-Serif" font-size="10.00">+</text>
<text text-anchor="start" x="73" y="-618.75" font-family="Helvetica,sans-Serif" font-size="10.00">Flush()</text>
<text text-anchor="start" x="63" y="-603.75" font-family="Helvetica,sans-Serif" font-size="10.00">+</text>
<text text-anchor="start" x="73" y="-603.75" font-family="Helvetica,sans-Serif" font-size="10.00">Seek()</text>
<text text-anchor="start" x="63" y="-588.75" font-family="Helvetica,sans-Serif" font-size="10.00">+</text>
<text text-anchor="start" x="73" y="-588.75" font-family="Helvetica,sans-Serif" font-size="10.00">SetLength()</text>
<text text-anchor="start" x="63" y="-573.75" font-family="Helvetica,sans-Serif" font-size="10.00">+</text>
<text text-anchor="start" x="73" y="-573.75" font-family="Helvetica,sans-Serif" font-size="10.00">Write()</text>
<text text-anchor="start" x="63" y="-558.75" font-family="Helvetica,sans-Serif" font-size="10.00">+</text>
<text text-anchor="start" x="73" y="-558.75" font-family="Helvetica,sans-Serif" font-size="10.00">Skip()</text>
<text text-anchor="start" x="63" y="-543.75" font-family="Helvetica,sans-Serif" font-size="10.00">+</text>
<text text-anchor="start" x="73" y="-543.75" font-family="Helvetica,sans-Serif" font-size="10.00">HasData()</text>
<polygon fill="#666666" stroke="#666666" points="59,-735.25 59,-735.25 132,-735.25 132,-735.25 59,-735.25"/>
<polygon fill="#666666" stroke="#666666" points="59,-630.25 59,-630.25 71,-630.25 71,-630.25 59,-630.25"/>
<polygon fill="#666666" stroke="#666666" points="71,-630.25 71,-630.25 132,-630.25 132,-630.25 71,-630.25"/>
<polygon fill="none" stroke="#666666" points="59,-538.25 59,-752.25 132,-752.25 132,-538.25 59,-538.25"/>
</a>
</g>
</g>
<!-- Node3&#45;&gt;Node2 -->
<g id="edge2_Node000002_Node000003" class="edge">
<title>Node3&#45;&gt;Node2</title>
<g id="a_edge2_Node000002_Node000003"><a xlink:title=" ">
<path fill="none" stroke="#63b8ff" d="M138.82,-584.55C169.83,-544.68 214.3,-492.92 261.5,-455.75 364.64,-374.52 504.62,-309.78 585.79,-275.9"/>
<polygon fill="none" stroke="#63b8ff" points="136.07,-582.39 132.74,-592.44 141.62,-586.65 136.07,-582.39"/>
</a>
</g>
</g>
<!-- Node4 -->
<g id="Node000004" class="node">
<title>Node4</title>
<g id="a_Node000004"><a xlink:title=" ">
<polygon fill="white" stroke="none" points="41,-964.75 0,-964.75 0,-915.75 41,-915.75 41,-964.75"/>
<text text-anchor="start" x="4.75" y="-951.25" font-family="Helvetica,sans-Serif" font-size="10.00">Stream</text>
<text text-anchor="start" x="19" y="-936.25" font-family="Helvetica,sans-Serif" font-size="10.00"> </text>
<text text-anchor="start" x="19" y="-921.25" font-family="Helvetica,sans-Serif" font-size="10.00"> </text>
<polygon fill="#666666" stroke="#666666" points="0,-947.75 0,-947.75 41,-947.75 41,-947.75 0,-947.75"/>
<polygon fill="#666666" stroke="#666666" points="0,-932.75 0,-932.75 41,-932.75 41,-932.75 0,-932.75"/>
<polygon fill="none" stroke="#666666" points="0,-915.75 0,-964.75 41,-964.75 41,-915.75 0,-915.75"/>
</a>
</g>
</g>
<!-- Node4&#45;&gt;Node1 -->
<g id="edge15_Node000001_Node000004" class="edge">
<title>Node4&#45;&gt;Node1</title>
<g id="a_edge15_Node000001_Node000004"><a xlink:title=" ">
<path fill="none" stroke="#63b8ff" d="M19.77,-915.84C18.04,-845.47 16.05,-630 49.5,-455.75 75.9,-318.23 135.38,-163.43 166.93,-86.82"/>
<polygon fill="none" stroke="#63b8ff" points="166.99,-86.68 165.59,-79.61 171.59,-75.6 172.98,-82.67 166.99,-86.68"/>
</a>
</g>
<text text-anchor="middle" x="79.5" y="-417" font-family="Helvetica,sans-Serif" font-size="10.00" fill="grey"> &#45;stream</text>
</g>
<!-- Node4&#45;&gt;Node3 -->
<g id="edge3_Node000003_Node000004" class="edge">
<title>Node4&#45;&gt;Node3</title>
<g id="a_edge3_Node000003_Node000004"><a xlink:title=" ">
<path fill="none" stroke="#63b8ff" d="M36.67,-905.46C37.69,-902.87 38.65,-900.29 39.5,-897.75 55.25,-850.9 67.83,-797.63 77.05,-752.22"/>
<polygon fill="none" stroke="#63b8ff" points="33.52,-903.93 32.82,-914.5 39.96,-906.67 33.52,-903.93"/>
</a>
</g>
</g>
<!-- Node5 -->
<g id="Node000005" class="node">
<title>Node5</title>
<g id="a_Node000005"><a xlink:href="interface_n_audio_1_1_wave_1_1_i_wave_provider.html" target="_top" xlink:title="Generic interface for all WaveProviders.">
<polygon fill="white" stroke="none" points="132,-964.75 59,-964.75 59,-915.75 132,-915.75 132,-964.75"/>
<text text-anchor="start" x="63.62" y="-951.25" font-family="Helvetica,sans-Serif" font-size="10.00">IWaveProvider</text>
<text text-anchor="start" x="63" y="-936.25" font-family="Helvetica,sans-Serif" font-size="10.00">+</text>
<text text-anchor="start" x="73" y="-936.25" font-family="Helvetica,sans-Serif" font-size="10.00">WaveFormat</text>
<text text-anchor="start" x="63" y="-921.25" font-family="Helvetica,sans-Serif" font-size="10.00">+</text>
<text text-anchor="start" x="73" y="-921.25" font-family="Helvetica,sans-Serif" font-size="10.00">Read()</text>
<polygon fill="#666666" stroke="#666666" points="59,-947.75 59,-947.75 132,-947.75 132,-947.75 59,-947.75"/>
<polygon fill="#666666" stroke="#666666" points="59,-932.75 59,-932.75 71,-932.75 71,-932.75 59,-932.75"/>
<polygon fill="#666666" stroke="#666666" points="71,-932.75 71,-932.75 132,-932.75 132,-932.75 71,-932.75"/>
<polygon fill="none" stroke="#666666" points="59,-915.75 59,-964.75 132,-964.75 132,-915.75 59,-915.75"/>
</a>
</g>
</g>
<!-- Node5&#45;&gt;Node3 -->
<g id="edge4_Node000003_Node000005" class="edge">
<title>Node5&#45;&gt;Node3</title>
<g id="a_edge4_Node000003_Node000005"><a xlink:title=" ">
<path fill="none" stroke="#63b8ff" d="M95.5,-904.5C95.5,-867.09 95.5,-805.72 95.5,-752.19"/>
<polygon fill="none" stroke="#63b8ff" points="92,-904.25 95.5,-914.25 99,-904.25 92,-904.25"/>
</a>
</g>
</g>
<!-- Node6 -->
<g id="Node000006" class="node">
<title>Node6</title>
<g id="a_Node000006"><a xlink:href="class_n_audio_1_1_wave_1_1_wave_format.html" target="_top" xlink:title="Represents a Wave file format.">
<polygon fill="white" stroke="none" points="420,-834.75 271,-834.75 271,-455.75 420,-455.75 420,-834.75"/>
<text text-anchor="start" x="286.25" y="-821.25" font-family="Helvetica,sans-Serif" font-size="10.00">NAudio.Wave.WaveFormat</text>
<text text-anchor="start" x="275" y="-806.25" font-family="Helvetica,sans-Serif" font-size="10.00">+</text>
<text text-anchor="start" x="285" y="-806.25" font-family="Helvetica,sans-Serif" font-size="10.00">Encoding</text>
<text text-anchor="start" x="275" y="-791.25" font-family="Helvetica,sans-Serif" font-size="10.00">+</text>
<text text-anchor="start" x="285" y="-791.25" font-family="Helvetica,sans-Serif" font-size="10.00">Channels</text>
<text text-anchor="start" x="275" y="-776.25" font-family="Helvetica,sans-Serif" font-size="10.00">+</text>
<text text-anchor="start" x="285" y="-776.25" font-family="Helvetica,sans-Serif" font-size="10.00">SampleRate</text>
<text text-anchor="start" x="275" y="-761.25" font-family="Helvetica,sans-Serif" font-size="10.00">+</text>
<text text-anchor="start" x="285" y="-761.25" font-family="Helvetica,sans-Serif" font-size="10.00">AverageBytesPerSecond</text>
<text text-anchor="start" x="275" y="-746.25" font-family="Helvetica,sans-Serif" font-size="10.00">+</text>
<text text-anchor="start" x="285" y="-746.25" font-family="Helvetica,sans-Serif" font-size="10.00">BlockAlign</text>
<text text-anchor="start" x="275" y="-731.25" font-family="Helvetica,sans-Serif" font-size="10.00">+</text>
<text text-anchor="start" x="285" y="-731.25" font-family="Helvetica,sans-Serif" font-size="10.00">BitsPerSample</text>
<text text-anchor="start" x="275" y="-716.25" font-family="Helvetica,sans-Serif" font-size="10.00">+</text>
<text text-anchor="start" x="285" y="-716.25" font-family="Helvetica,sans-Serif" font-size="10.00">ExtraSize</text>
<text text-anchor="start" x="275" y="-701.25" font-family="Helvetica,sans-Serif" font-size="10.00">+</text>
<text text-anchor="start" x="285" y="-701.25" font-family="Helvetica,sans-Serif" font-size="10.00">WaveFormat()</text>
<text text-anchor="start" x="275" y="-686.25" font-family="Helvetica,sans-Serif" font-size="10.00">+</text>
<text text-anchor="start" x="285" y="-686.25" font-family="Helvetica,sans-Serif" font-size="10.00">WaveFormat()</text>
<text text-anchor="start" x="275" y="-671.25" font-family="Helvetica,sans-Serif" font-size="10.00">+</text>
<text text-anchor="start" x="285" y="-671.25" font-family="Helvetica,sans-Serif" font-size="10.00">ConvertLatencyToByteSize()</text>
<text text-anchor="start" x="275" y="-656.25" font-family="Helvetica,sans-Serif" font-size="10.00">+</text>
<text text-anchor="start" x="285" y="-656.25" font-family="Helvetica,sans-Serif" font-size="10.00">WaveFormat()</text>
<text text-anchor="start" x="275" y="-641.25" font-family="Helvetica,sans-Serif" font-size="10.00">+</text>
<text text-anchor="start" x="285" y="-641.25" font-family="Helvetica,sans-Serif" font-size="10.00">WaveFormat()</text>
<text text-anchor="start" x="275" y="-626.25" font-family="Helvetica,sans-Serif" font-size="10.00">+</text>
<text text-anchor="start" x="285" y="-626.25" font-family="Helvetica,sans-Serif" font-size="10.00">ToString()</text>
<text text-anchor="start" x="275" y="-611.25" font-family="Helvetica,sans-Serif" font-size="10.00">+</text>
<text text-anchor="start" x="285" y="-611.25" font-family="Helvetica,sans-Serif" font-size="10.00">Equals()</text>
<text text-anchor="start" x="275" y="-596.25" font-family="Helvetica,sans-Serif" font-size="10.00">+</text>
<text text-anchor="start" x="285" y="-596.25" font-family="Helvetica,sans-Serif" font-size="10.00">GetHashCode()</text>
<text text-anchor="start" x="275" y="-581.25" font-family="Helvetica,sans-Serif" font-size="10.00">+</text>
<text text-anchor="start" x="285" y="-581.25" font-family="Helvetica,sans-Serif" font-size="10.00">Serialize()</text>
<text text-anchor="start" x="275" y="-566.25" font-family="Helvetica,sans-Serif" font-size="10.00">+</text>
<text text-anchor="start" x="285" y="-566.25" font-family="Helvetica,sans-Serif" font-size="10.00">CreateCustomFormat()</text>
<text text-anchor="start" x="275" y="-551.25" font-family="Helvetica,sans-Serif" font-size="10.00">+</text>
<text text-anchor="start" x="285" y="-551.25" font-family="Helvetica,sans-Serif" font-size="10.00">CreateALawFormat()</text>
<text text-anchor="start" x="275" y="-536.25" font-family="Helvetica,sans-Serif" font-size="10.00">+</text>
<text text-anchor="start" x="285" y="-536.25" font-family="Helvetica,sans-Serif" font-size="10.00">CreateMuLawFormat()</text>
<text text-anchor="start" x="275" y="-521.25" font-family="Helvetica,sans-Serif" font-size="10.00">+</text>
<text text-anchor="start" x="285" y="-521.25" font-family="Helvetica,sans-Serif" font-size="10.00">CreateIeeeFloatWaveFormat()</text>
<text text-anchor="start" x="275" y="-506.25" font-family="Helvetica,sans-Serif" font-size="10.00">+</text>
<text text-anchor="start" x="285" y="-506.25" font-family="Helvetica,sans-Serif" font-size="10.00">MarshalFromPtr()</text>
<text text-anchor="start" x="275" y="-491.25" font-family="Helvetica,sans-Serif" font-size="10.00">+</text>
<text text-anchor="start" x="285" y="-491.25" font-family="Helvetica,sans-Serif" font-size="10.00">MarshalToPtr()</text>
<text text-anchor="start" x="275" y="-476.25" font-family="Helvetica,sans-Serif" font-size="10.00">+</text>
<text text-anchor="start" x="285" y="-476.25" font-family="Helvetica,sans-Serif" font-size="10.00">FromFormatChunk()</text>
<text text-anchor="start" x="276.5" y="-461.25" font-family="Helvetica,sans-Serif" font-size="10.00">&#45;</text>
<text text-anchor="start" x="285" y="-461.25" font-family="Helvetica,sans-Serif" font-size="10.00">ReadWaveFormat()</text>
<polygon fill="#666666" stroke="#666666" points="271,-817.75 271,-817.75 420,-817.75 420,-817.75 271,-817.75"/>
<polygon fill="#666666" stroke="#666666" points="271,-712.75 271,-712.75 283,-712.75 283,-712.75 271,-712.75"/>
<polygon fill="#666666" stroke="#666666" points="283,-712.75 283,-712.75 420,-712.75 420,-712.75 283,-712.75"/>
<polygon fill="none" stroke="#666666" points="271,-455.75 271,-834.75 420,-834.75 420,-455.75 271,-455.75"/>
</a>
</g>
</g>
<!-- Node6&#45;&gt;Node2 -->
<g id="edge5_Node000002_Node000006" class="edge">
<title>Node6&#45;&gt;Node2</title>
<g id="a_edge5_Node000002_Node000006"><a xlink:title=" ">
<path fill="none" stroke="#63b8ff" d="M415.64,-455.87C425.76,-437.58 437.04,-419.93 449.5,-404 483.8,-360.16 533.38,-322.12 574.84,-294.81"/>
<polygon fill="none" stroke="#63b8ff" points="574.91,-294.76 577.78,-288.14 584.99,-288.24 582.12,-294.86 574.91,-294.76"/>
</a>
</g>
<text text-anchor="middle" x="479.5" y="-417" font-family="Helvetica,sans-Serif" font-size="10.00" fill="grey"> &#45;waveFormat</text>
</g>
<!-- Node7 -->
<g id="Node000007" class="node">
<title>Node7</title>
<g id="a_Node000007"><a xlink:title=" ">
<polygon fill="white" stroke="none" points="256.5,-964.75 150.5,-964.75 150.5,-915.75 256.5,-915.75 256.5,-964.75"/>
<text text-anchor="start" x="155.5" y="-951.25" font-family="Helvetica,sans-Serif" font-size="10.00">WaveFormatEncoding</text>
<text text-anchor="start" x="202" y="-936.25" font-family="Helvetica,sans-Serif" font-size="10.00"> </text>
<text text-anchor="start" x="202" y="-921.25" font-family="Helvetica,sans-Serif" font-size="10.00"> </text>
<polygon fill="#666666" stroke="#666666" points="150.5,-947.75 150.5,-947.75 256.5,-947.75 256.5,-947.75 150.5,-947.75"/>
<polygon fill="#666666" stroke="#666666" points="150.5,-932.75 150.5,-932.75 256.5,-932.75 256.5,-932.75 150.5,-932.75"/>
<polygon fill="none" stroke="#666666" points="150.5,-915.75 150.5,-964.75 256.5,-964.75 256.5,-915.75 150.5,-915.75"/>
</a>
</g>
</g>
<!-- Node7&#45;&gt;Node6 -->
<g id="edge6_Node000006_Node000007" class="edge">
<title>Node7&#45;&gt;Node6</title>
<g id="a_edge6_Node000006_Node000007"><a xlink:title=" ">
<path fill="none" stroke="#63b8ff" d="M203.73,-915.84C204.55,-898.06 207.11,-873.26 214.5,-852.75 226.67,-818.99 245.08,-785 264.3,-754.63"/>
<polygon fill="none" stroke="#63b8ff" points="264.13,-754.89 264.01,-747.68 270.63,-744.8 270.74,-752.01 264.13,-754.89"/>
</a>
</g>
<text text-anchor="middle" x="253.5" y="-871.38" font-family="Helvetica,sans-Serif" font-size="10.00" fill="grey"> #waveFormatTag</text>
</g>
<!-- Node8 -->
<g id="Node000008" class="node">
<title>Node8</title>
<g id="a_Node000008"><a xlink:title=" ">
<polygon fill="white" stroke="none" points="313,-964.75 282,-964.75 282,-915.75 313,-915.75 313,-964.75"/>
<text text-anchor="start" x="286.62" y="-951.25" font-family="Helvetica,sans-Serif" font-size="10.00">short</text>
<text text-anchor="start" x="296" y="-936.25" font-family="Helvetica,sans-Serif" font-size="10.00"> </text>
<text text-anchor="start" x="296" y="-921.25" font-family="Helvetica,sans-Serif" font-size="10.00"> </text>
<polygon fill="#666666" stroke="#666666" points="282,-947.75 282,-947.75 313,-947.75 313,-947.75 282,-947.75"/>
<polygon fill="#666666" stroke="#666666" points="282,-932.75 282,-932.75 313,-932.75 313,-932.75 282,-932.75"/>
<polygon fill="none" stroke="#666666" points="282,-915.75 282,-964.75 313,-964.75 313,-915.75 282,-915.75"/>
</a>
</g>
</g>
<!-- Node8&#45;&gt;Node6 -->
<g id="edge7_Node000006_Node000008" class="edge">
<title>Node8&#45;&gt;Node6</title>
<g id="a_edge7_Node000006_Node000008"><a xlink:title=" ">
<path fill="none" stroke="#63b8ff" d="M296.44,-916.03C295.96,-898.57 295.98,-874.08 298.5,-852.75 298.71,-850.99 298.93,-849.22 299.15,-847.45"/>
<polygon fill="none" stroke="#63b8ff" points="299.14,-847.53 295.99,-841.04 300.77,-835.64 303.92,-842.13 299.14,-847.53"/>
</a>
</g>
<text text-anchor="middle" x="334.5" y="-888.25" font-family="Helvetica,sans-Serif" font-size="10.00" fill="grey"> #bitsPerSample</text>
<text text-anchor="middle" x="334.5" y="-877" font-family="Helvetica,sans-Serif" font-size="10.00" fill="grey">#blockAlign</text>
<text text-anchor="middle" x="334.5" y="-865.75" font-family="Helvetica,sans-Serif" font-size="10.00" fill="grey">#channels</text>
<text text-anchor="middle" x="334.5" y="-854.5" font-family="Helvetica,sans-Serif" font-size="10.00" fill="grey">#extraSize</text>
</g>
<!-- Node9 -->
<g id="Node000009" class="node">
<title>Node9</title>
<g id="a_Node000009"><a xlink:title=" ">
<polygon fill="white" stroke="none" points="467.5,-964.75 447.5,-964.75 447.5,-915.75 467.5,-915.75 467.5,-964.75"/>
<text text-anchor="start" x="452.25" y="-951.25" font-family="Helvetica,sans-Serif" font-size="10.00">int</text>
<text text-anchor="start" x="456" y="-936.25" font-family="Helvetica,sans-Serif" font-size="10.00"> </text>
<text text-anchor="start" x="456" y="-921.25" font-family="Helvetica,sans-Serif" font-size="10.00"> </text>
<polygon fill="#666666" stroke="#666666" points="447.5,-947.75 447.5,-947.75 467.5,-947.75 467.5,-947.75 447.5,-947.75"/>
<polygon fill="#666666" stroke="#666666" points="447.5,-932.75 447.5,-932.75 467.5,-932.75 467.5,-932.75 447.5,-932.75"/>
<polygon fill="none" stroke="#666666" points="447.5,-915.75 447.5,-964.75 467.5,-964.75 467.5,-915.75 447.5,-915.75"/>
</a>
</g>
</g>
<!-- Node9&#45;&gt;Node2 -->
<g id="edge14_Node000002_Node000009" class="edge">
<title>Node9&#45;&gt;Node2</title>
<g id="a_edge14_Node000002_Node000009"><a xlink:title=" ">
<path fill="none" stroke="#63b8ff" d="M467.26,-934.71C479.59,-928.37 500.32,-915.63 509.5,-897.75 554.45,-810.27 504.55,-550.05 532.5,-455.75 542.94,-420.54 560.5,-384.94 578.98,-353.48"/>
<polygon fill="none" stroke="#63b8ff" points="578.91,-353.6 578.56,-346.39 585.08,-343.3 585.42,-350.51 578.91,-353.6"/>
</a>
</g>
<text text-anchor="middle" x="580.5" y="-647" font-family="Helvetica,sans-Serif" font-size="10.00" fill="grey"> &#45;decoderOutputCount</text>
<text text-anchor="middle" x="580.5" y="-635.75" font-family="Helvetica,sans-Serif" font-size="10.00" fill="grey">&#45;decoderOutputOffset</text>
</g>
<!-- Node9&#45;&gt;Node6 -->
<g id="edge8_Node000006_Node000009" class="edge">
<title>Node9&#45;&gt;Node6</title>
<g id="a_edge8_Node000006_Node000009"><a xlink:title=" ">
<path fill="none" stroke="#63b8ff" d="M447.88,-935.88C433.53,-930.32 406.75,-917.8 393.25,-897.75 386.21,-887.29 379.94,-869.11 374.46,-847.15"/>
<polygon fill="none" stroke="#63b8ff" points="374.45,-847.14 369.18,-842.22 371.69,-835.46 376.97,-840.38 374.45,-847.14"/>
</a>
</g>
<text text-anchor="middle" x="451.62" y="-877" font-family="Helvetica,sans-Serif" font-size="10.00" fill="grey"> #averageBytesPerSecond</text>
<text text-anchor="middle" x="451.62" y="-865.75" font-family="Helvetica,sans-Serif" font-size="10.00" fill="grey">#sampleRate</text>
</g>
<!-- Node10 -->
<g id="Node000010" class="node">
<title>Node10</title>
<g id="a_Node000010"><a xlink:title=" ">
<polygon fill="white" stroke="none" points="665.5,-669.75 637.5,-669.75 637.5,-620.75 665.5,-620.75 665.5,-669.75"/>
<text text-anchor="start" x="642.5" y="-656.25" font-family="Helvetica,sans-Serif" font-size="10.00">long</text>
<text text-anchor="start" x="650" y="-641.25" font-family="Helvetica,sans-Serif" font-size="10.00"> </text>
<text text-anchor="start" x="650" y="-626.25" font-family="Helvetica,sans-Serif" font-size="10.00"> </text>
<polygon fill="#666666" stroke="#666666" points="637.5,-652.75 637.5,-652.75 665.5,-652.75 665.5,-652.75 637.5,-652.75"/>
<polygon fill="#666666" stroke="#666666" points="637.5,-637.75 637.5,-637.75 665.5,-637.75 665.5,-637.75 637.5,-637.75"/>
<polygon fill="none" stroke="#666666" points="637.5,-620.75 637.5,-669.75 665.5,-669.75 665.5,-620.75 637.5,-620.75"/>
</a>
</g>
</g>
<!-- Node10&#45;&gt;Node2 -->
<g id="edge9_Node000002_Node000010" class="edge">
<title>Node10&#45;&gt;Node2</title>
<g id="a_edge9_Node000002_Node000010"><a xlink:title=" ">
<path fill="none" stroke="#63b8ff" d="M651.5,-620.77C651.5,-577.53 651.5,-482.12 651.5,-398.92"/>
<polygon fill="none" stroke="#63b8ff" points="651.5,-398.85 647.5,-392.85 651.5,-386.85 655.5,-392.85 651.5,-398.85"/>
</a>
</g>
<text text-anchor="middle" x="679.25" y="-428.25" font-family="Helvetica,sans-Serif" font-size="10.00" fill="grey"> &#45;length</text>
<text text-anchor="middle" x="679.25" y="-417" font-family="Helvetica,sans-Serif" font-size="10.00" fill="grey">&#45;position</text>
<text text-anchor="middle" x="679.25" y="-405.75" font-family="Helvetica,sans-Serif" font-size="10.00" fill="grey">&#45;repositionTo</text>
</g>
<!-- Node11 -->
<g id="Node000011" class="node">
<title>Node11</title>
<g id="a_Node000011"><a xlink:href="class_n_audio_1_1_wave_1_1_media_foundation_reader_1_1_media_foundation_reader_settings.html" target="_top" xlink:title="Allows customisation of this reader class.">
<polygon fill="white" stroke="none" points="869,-690.25 684,-690.25 684,-600.25 869,-600.25 869,-690.25"/>
<text text-anchor="start" x="688.75" y="-676.75" font-family="Helvetica,sans-Serif" font-size="10.00">NAudio.Wave.MediaFoundation</text>
<text text-anchor="start" x="688.75" y="-665.5" font-family="Helvetica,sans-Serif" font-size="10.00">Reader.MediaFoundationReaderSettings</text>
<text text-anchor="start" x="693" y="-650.75" font-family="Helvetica,sans-Serif" font-size="10.00">+</text>
<text text-anchor="start" x="708" y="-650.75" font-family="Helvetica,sans-Serif" font-size="10.00">RequestFloatOutput</text>
<text text-anchor="start" x="693" y="-635.75" font-family="Helvetica,sans-Serif" font-size="10.00">+</text>
<text text-anchor="start" x="708" y="-635.75" font-family="Helvetica,sans-Serif" font-size="10.00">SingleReaderObject</text>
<text text-anchor="start" x="693" y="-620.75" font-family="Helvetica,sans-Serif" font-size="10.00">+</text>
<text text-anchor="start" x="708" y="-620.75" font-family="Helvetica,sans-Serif" font-size="10.00">RepositionInRead</text>
<text text-anchor="start" x="693" y="-605.75" font-family="Helvetica,sans-Serif" font-size="10.00">+</text>
<text text-anchor="start" x="708" y="-605.75" font-family="Helvetica,sans-Serif" font-size="10.00">MediaFoundationReaderSettings()</text>
<polygon fill="#666666" stroke="#666666" points="684,-662.25 684,-662.25 869,-662.25 869,-662.25 684,-662.25"/>
<polygon fill="#666666" stroke="#666666" points="684,-617.25 684,-617.25 706,-617.25 706,-617.25 684,-617.25"/>
<polygon fill="#666666" stroke="#666666" points="706,-617.25 706,-617.25 869,-617.25 869,-617.25 706,-617.25"/>
<polygon fill="none" stroke="#666666" points="684,-600.25 684,-690.25 869,-690.25 869,-600.25 684,-600.25"/>
</a>
</g>
</g>
<!-- Node11&#45;&gt;Node2 -->
<g id="edge10_Node000002_Node000011" class="edge">
<title>Node11&#45;&gt;Node2</title>
<g id="a_edge10_Node000002_Node000011"><a xlink:title=" ">
<path fill="none" stroke="#63b8ff" d="M765.84,-600.47C753.73,-552.02 732.75,-471.82 710.5,-404 709.86,-402.04 709.2,-400.06 708.54,-398.08"/>
<polygon fill="none" stroke="#63b8ff" points="708.51,-397.99 702.79,-393.6 704.64,-386.64 710.36,-391.02 708.51,-397.99"/>
</a>
</g>
<text text-anchor="middle" x="741.75" y="-417" font-family="Helvetica,sans-Serif" font-size="10.00" fill="grey"> &#45;settings</text>
</g>
<!-- Node12 -->
<g id="Node000012" class="node">
<title>Node12</title>
<g id="a_Node000012"><a xlink:title=" ">
<polygon fill="white" stroke="none" points="921.5,-669.75 887.5,-669.75 887.5,-620.75 921.5,-620.75 921.5,-669.75"/>
<text text-anchor="start" x="892.5" y="-656.25" font-family="Helvetica,sans-Serif" font-size="10.00">string</text>
<text text-anchor="start" x="903" y="-641.25" font-family="Helvetica,sans-Serif" font-size="10.00"> </text>
<text text-anchor="start" x="903" y="-626.25" font-family="Helvetica,sans-Serif" font-size="10.00"> </text>
<polygon fill="#666666" stroke="#666666" points="887.5,-652.75 887.5,-652.75 921.5,-652.75 921.5,-652.75 887.5,-652.75"/>
<polygon fill="#666666" stroke="#666666" points="887.5,-637.75 887.5,-637.75 921.5,-637.75 921.5,-637.75 887.5,-637.75"/>
<polygon fill="none" stroke="#666666" points="887.5,-620.75 887.5,-669.75 921.5,-669.75 921.5,-620.75 887.5,-620.75"/>
</a>
</g>
</g>
<!-- Node12&#45;&gt;Node2 -->
<g id="edge11_Node000002_Node000012" class="edge">
<title>Node12&#45;&gt;Node2</title>
<g id="a_edge11_Node000002_Node000012"><a xlink:title=" ">
<path fill="none" stroke="#63b8ff" d="M906.21,-620.96C907.9,-583.77 906.96,-509.65 878.5,-455.75 843.77,-389.96 779.23,-334.65 727.82,-298"/>
<polygon fill="none" stroke="#63b8ff" points="727.96,-298.09 720.75,-297.93 718.13,-291.21 725.34,-291.37 727.96,-298.09"/>
</a>
</g>
<text text-anchor="middle" x="874.88" y="-417" font-family="Helvetica,sans-Serif" font-size="10.00" fill="grey"> &#45;file</text>
</g>
<!-- Node13 -->
<g id="Node000013" class="node">
<title>Node13</title>
<g id="a_Node000013"><a xlink:href="interface_n_audio_1_1_media_foundation_1_1_i_m_f_source_reader.html" target="_top" xlink:title="IMFSourceReader interface http://msdn.microsoft.com/en&#45;us/library/windows/desktop/dd374655%28v=vs....">
<polygon fill="white" stroke="none" points="1109.5,-742.75 939.5,-742.75 939.5,-547.75 1109.5,-547.75 1109.5,-742.75"/>
<text text-anchor="start" x="944.25" y="-729.25" font-family="Helvetica,sans-Serif" font-size="10.00">NAudio.MediaFoundation.IMFSource</text>
<text text-anchor="start" x="1008.75" y="-718" font-family="Helvetica,sans-Serif" font-size="10.00">Reader</text>
<text text-anchor="start" x="1023" y="-703.25" font-family="Helvetica,sans-Serif" font-size="10.00"> </text>
<text text-anchor="start" x="953" y="-688.25" font-family="Helvetica,sans-Serif" font-size="10.00">+</text>
<text text-anchor="start" x="972.5" y="-688.25" font-family="Helvetica,sans-Serif" font-size="10.00">GetStreamSelection()</text>
<text text-anchor="start" x="953" y="-673.25" font-family="Helvetica,sans-Serif" font-size="10.00">+</text>
<text text-anchor="start" x="972.5" y="-673.25" font-family="Helvetica,sans-Serif" font-size="10.00">SetStreamSelection()</text>
<text text-anchor="start" x="953" y="-658.25" font-family="Helvetica,sans-Serif" font-size="10.00">+</text>
<text text-anchor="start" x="972.5" y="-658.25" font-family="Helvetica,sans-Serif" font-size="10.00">GetNativeMediaType()</text>
<text text-anchor="start" x="953" y="-643.25" font-family="Helvetica,sans-Serif" font-size="10.00">+</text>
<text text-anchor="start" x="972.5" y="-643.25" font-family="Helvetica,sans-Serif" font-size="10.00">GetCurrentMediaType()</text>
<text text-anchor="start" x="953" y="-628.25" font-family="Helvetica,sans-Serif" font-size="10.00">+</text>
<text text-anchor="start" x="972.5" y="-628.25" font-family="Helvetica,sans-Serif" font-size="10.00">SetCurrentMediaType()</text>
<text text-anchor="start" x="953" y="-613.25" font-family="Helvetica,sans-Serif" font-size="10.00">+</text>
<text text-anchor="start" x="972.5" y="-613.25" font-family="Helvetica,sans-Serif" font-size="10.00">SetCurrentPosition()</text>
<text text-anchor="start" x="953" y="-598.25" font-family="Helvetica,sans-Serif" font-size="10.00">+</text>
<text text-anchor="start" x="972.5" y="-598.25" font-family="Helvetica,sans-Serif" font-size="10.00">ReadSample()</text>
<text text-anchor="start" x="953" y="-583.25" font-family="Helvetica,sans-Serif" font-size="10.00">+</text>
<text text-anchor="start" x="972.5" y="-583.25" font-family="Helvetica,sans-Serif" font-size="10.00">Flush()</text>
<text text-anchor="start" x="953" y="-568.25" font-family="Helvetica,sans-Serif" font-size="10.00">+</text>
<text text-anchor="start" x="972.5" y="-568.25" font-family="Helvetica,sans-Serif" font-size="10.00">GetServiceForStream()</text>
<text text-anchor="start" x="953" y="-553.25" font-family="Helvetica,sans-Serif" font-size="10.00">+</text>
<text text-anchor="start" x="972.5" y="-553.25" font-family="Helvetica,sans-Serif" font-size="10.00">GetPresentationAttribute()</text>
<polygon fill="#666666" stroke="#666666" points="939.5,-714.75 939.5,-714.75 1109.5,-714.75 1109.5,-714.75 939.5,-714.75"/>
<polygon fill="#666666" stroke="#666666" points="939.5,-699.75 939.5,-699.75 1109.5,-699.75 1109.5,-699.75 939.5,-699.75"/>
<polygon fill="none" stroke="#666666" points="939.5,-547.75 939.5,-742.75 1109.5,-742.75 1109.5,-547.75 939.5,-547.75"/>
</a>
</g>
</g>
<!-- Node13&#45;&gt;Node2 -->
<g id="edge12_Node000002_Node000013" class="edge">
<title>Node13&#45;&gt;Node2</title>
<g id="a_edge12_Node000002_Node000013"><a xlink:title=" ">
<path fill="none" stroke="#63b8ff" d="M981.57,-548.05C966.73,-517.74 949.11,-484.65 930.5,-455.75 881.24,-379.26 792.86,-321.36 728.75,-286.77"/>
<polygon fill="none" stroke="#63b8ff" points="728.88,-286.83 721.7,-287.56 718.27,-281.21 725.45,-280.49 728.88,-286.83"/>
</a>
</g>
<text text-anchor="middle" x="934.88" y="-417" font-family="Helvetica,sans-Serif" font-size="10.00" fill="grey"> &#45;pReader</text>
</g>
<!-- Node14 -->
<g id="Node000014" class="node">
<title>Node14</title>
<g id="a_Node000014"><a xlink:title=" ">
<polygon fill="white" stroke="none" points="1155.5,-669.75 1127.5,-669.75 1127.5,-620.75 1155.5,-620.75 1155.5,-669.75"/>
<text text-anchor="start" x="1132.12" y="-656.25" font-family="Helvetica,sans-Serif" font-size="10.00">byte</text>
<text text-anchor="start" x="1140" y="-641.25" font-family="Helvetica,sans-Serif" font-size="10.00"> </text>
<text text-anchor="start" x="1140" y="-626.25" font-family="Helvetica,sans-Serif" font-size="10.00"> </text>
<polygon fill="#666666" stroke="#666666" points="1127.5,-652.75 1127.5,-652.75 1155.5,-652.75 1155.5,-652.75 1127.5,-652.75"/>
<polygon fill="#666666" stroke="#666666" points="1127.5,-637.75 1127.5,-637.75 1155.5,-637.75 1155.5,-637.75 1127.5,-637.75"/>
<polygon fill="none" stroke="#666666" points="1127.5,-620.75 1127.5,-669.75 1155.5,-669.75 1155.5,-620.75 1127.5,-620.75"/>
</a>
</g>
</g>
<!-- Node14&#45;&gt;Node2 -->
<g id="edge13_Node000002_Node000014" class="edge">
<title>Node14&#45;&gt;Node2</title>
<g id="a_edge13_Node000002_Node000014"><a xlink:title=" ">
<path fill="none" stroke="#63b8ff" d="M1145.44,-621.03C1150.61,-582.6 1155.15,-505.12 1118.5,-455.75 1024.74,-329.46 836.43,-279.38 729.8,-260.55"/>
<polygon fill="none" stroke="#63b8ff" points="729.93,-260.57 723.35,-263.5 718.1,-258.55 724.69,-255.62 729.93,-260.57"/>
</a>
</g>
<text text-anchor="middle" x="1148.5" y="-417" font-family="Helvetica,sans-Serif" font-size="10.00" fill="grey"> &#45;decoderOutputBuffer</text>
</g>
</g>
</svg>

<g id="navigator" transform="translate(0 0)" fill="#404254">
  <rect fill="#f2f5e9" fill-opacity="0.5" stroke="#606060" stroke-width=".5" x="0" y="0" width="60" height="60"/>
  <use id="zoomplus" xlink:href="#zoomPlus" x="17" y="9" onmousedown="handleZoom(evt,'in')"/>
  <use id="zoomminus" xlink:href="#zoomMin" x="42" y="9" onmousedown="handleZoom(evt,'out')"/>
  <use id="reset" xlink:href="#resetDef" x="30" y="36" onmousedown="handleReset()"/>
   <use id="arrowup" xlink:href="#arrowUp" x="0" y="0" onmousedown="handlePan(0,-1)"/>
  <use id="arrowright" xlink:href="#arrowRight" x="0" y="0" onmousedown="handlePan(1,0)"/>
  <use id="arrowdown" xlink:href="#arrowDown" x="0" y="0" onmousedown="handlePan(0,1)"/>
  <use id="arrowleft" xlink:href="#arrowLeft" x="0" y="0" onmousedown="handlePan(-1,0)"/>
</g>
<svg viewBox="0 0 15 15" width="100%" height="30px" preserveAspectRatio="xMaxYMin meet">
 <g id="arrow_out" transform="scale(0.3 0.3)">
  <a xlink:href="class_n_audio_1_1_wave_1_1_stream_media_foundation_reader__coll__graph_org.svg" target="_base">
   <rect id="button" ry="5" rx="5" y="6" x="6" height="38" width="38"
        fill="#f2f5e9" fill-opacity="0.5" stroke="#606060" stroke-width="1.0"/>
   <path id="arrow"
     d="M 11.500037,31.436501 C 11.940474,20.09759 22.043105,11.32322 32.158766,21.979434 L 37.068811,17.246167 C 37.068811,17.246167 37.088388,32 37.088388,32 L 22.160133,31.978069 C 22.160133,31.978069 26.997745,27.140456 26.997745,27.140456 C 18.528582,18.264221 13.291696,25.230495 11.500037,31.436501 z"
     style="fill:#404040;"/>
  </a>
 </g>
</svg>

<style type='text/css'>
<![CDATA[
[data-mouse-over-selected='false'] { opacity: 0.7; }
[data-mouse-over-selected='true']  { opacity: 1.0; }
]]>
</style>
<script type="application/ecmascript"><![CDATA[
document.addEventListener('DOMContentLoaded', (event) => {
  highlightEdges();
  highlightAdjacentNodes();
});
]]></script>
</svg>
