<?xml version="1.0" encoding="UTF-8" standalone="no"?>
<!DOCTYPE svg PUBLIC "-//W3C//DTD SVG 1.1//EN"
 "http://www.w3.org/Graphics/SVG/1.1/DTD/svg11.dtd">
<!-- Generated by graphviz version 10.0.1 (20240210.2158)
 -->
<!-- Title: Hidden_handler.Process_Handler.CopyFilesInParallelAsync Pages: 1 -->
<svg width="822pt" height="284pt"
 viewBox="0.00 0.00 821.50 283.50" xmlns="http://www.w3.org/2000/svg" xmlns:xlink="http://www.w3.org/1999/xlink">
<g id="graph0" class="graph" transform="scale(1 1) rotate(0) translate(4 279.5)">
<title>Hidden_handler.Process_Handler.CopyFilesInParallelAsync</title>
<!-- Node1 -->
<g id="Node000001" class="node">
<title>Node1</title>
<g id="a_Node000001"><a xlink:title="Copies files from the source directory to the destination directory in parallel using the specified m...">
<polygon fill="#999999" stroke="#666666" points="813.5,-152.5 643.75,-152.5 643.75,-122 813.5,-122 813.5,-152.5"/>
<text text-anchor="start" x="651.75" y="-139" font-family="Helvetica,sans-Serif" font-size="10.00">Hidden_handler.Process</text>
<text text-anchor="middle" x="728.62" y="-127.75" font-family="Helvetica,sans-Serif" font-size="10.00">_Handler.CopyFilesInParallelAsync</text>
</a>
</g>
</g>
<!-- Node2 -->
<g id="Node000002" class="node">
<title>Node2</title>
<g id="a_Node000002"><a xlink:href="class_hidden__handler_1_1_process___handler.html#a9882686a3e16c4e644c3917e8f1599d4" target="_top" xlink:title="Asynchronously copies all directories and files from the source directory to the destination director...">
<polygon fill="white" stroke="#666666" points="607.75,-152.5 486,-152.5 486,-122 607.75,-122 607.75,-152.5"/>
<text text-anchor="start" x="494" y="-139" font-family="Helvetica,sans-Serif" font-size="10.00">Hidden_handler.Process</text>
<text text-anchor="middle" x="546.88" y="-127.75" font-family="Helvetica,sans-Serif" font-size="10.00">_Handler.CopyDirAsync</text>
</a>
</g>
</g>
<!-- Node1&#45;&gt;Node2 -->
<g id="edge1_Node000001_Node000002" class="edge">
<title>Node1&#45;&gt;Node2</title>
<g id="a_edge1_Node000001_Node000002"><a xlink:title=" ">
<path fill="none" stroke="#63b8ff" d="M631.87,-137.25C623.81,-137.25 615.82,-137.25 608.15,-137.25"/>
<polygon fill="#63b8ff" stroke="#63b8ff" points="631.76,-140.75 641.76,-137.25 631.76,-133.75 631.76,-140.75"/>
</a>
</g>
</g>
<!-- Node3 -->
<g id="Node000003" class="node">
<title>Node3</title>
<g id="a_Node000003"><a xlink:href="class_hidden__handler_1_1_process___handler.html#a70bc25f5028b70f49493e02beb94d1c0" target="_top" xlink:title="Clones the Brave browser data to a specified directory.">
<polygon fill="white" stroke="#666666" points="449.25,-275.5 327.5,-275.5 327.5,-245 449.25,-245 449.25,-275.5"/>
<text text-anchor="start" x="335.5" y="-262" font-family="Helvetica,sans-Serif" font-size="10.00">Hidden_handler.Process</text>
<text text-anchor="middle" x="388.38" y="-250.75" font-family="Helvetica,sans-Serif" font-size="10.00">_Handler.CloneBrave</text>
</a>
</g>
</g>
<!-- Node2&#45;&gt;Node3 -->
<g id="edge2_Node000002_Node000003" class="edge">
<title>Node2&#45;&gt;Node3</title>
<g id="a_edge2_Node000002_Node000003"><a xlink:title=" ">
<path fill="none" stroke="#63b8ff" d="M526.88,-161.68C508.97,-183.37 480.42,-214.72 450,-235.25 444.9,-238.69 439.26,-241.79 433.53,-244.54"/>
<polygon fill="#63b8ff" stroke="#63b8ff" points="529.58,-163.91 533.14,-153.93 524.13,-159.51 529.58,-163.91"/>
</a>
</g>
</g>
<!-- Node6 -->
<g id="Node000006" class="node">
<title>Node6</title>
<g id="a_Node000006"><a xlink:href="class_hidden__handler_1_1_process___handler.html#a5026779693b49e5261dea19ccb9167a9" target="_top" xlink:title="Clones the Chrome user data directory to a specified location.">
<polygon fill="white" stroke="#666666" points="449.25,-226.5 327.5,-226.5 327.5,-196 449.25,-196 449.25,-226.5"/>
<text text-anchor="start" x="335.5" y="-213" font-family="Helvetica,sans-Serif" font-size="10.00">Hidden_handler.Process</text>
<text text-anchor="middle" x="388.38" y="-201.75" font-family="Helvetica,sans-Serif" font-size="10.00">_Handler.CloneChrome</text>
</a>
</g>
</g>
<!-- Node2&#45;&gt;Node6 -->
<g id="edge5_Node000002_Node000006" class="edge">
<title>Node2&#45;&gt;Node6</title>
<g id="a_edge5_Node000002_Node000006"><a xlink:title=" ">
<path fill="none" stroke="#63b8ff" d="M507.05,-158C489.75,-167.01 469.02,-177.49 450,-186.25 443.18,-189.39 435.84,-192.58 428.71,-195.57"/>
<polygon fill="#63b8ff" stroke="#63b8ff" points="508.23,-161.33 515.47,-153.59 504.98,-155.13 508.23,-161.33"/>
</a>
</g>
</g>
<!-- Node8 -->
<g id="Node000008" class="node">
<title>Node8</title>
<g id="a_Node000008"><a xlink:href="class_hidden__handler_1_1_process___handler.html#a3f653e80f4fa9730c6217ee84d5bba26" target="_top" xlink:title="Clones the Microsoft Edge user data to a specified directory.">
<polygon fill="white" stroke="#666666" points="449.25,-177.5 327.5,-177.5 327.5,-147 449.25,-147 449.25,-177.5"/>
<text text-anchor="start" x="335.5" y="-164" font-family="Helvetica,sans-Serif" font-size="10.00">Hidden_handler.Process</text>
<text text-anchor="middle" x="388.38" y="-152.75" font-family="Helvetica,sans-Serif" font-size="10.00">_Handler.CloneEdge</text>
</a>
</g>
</g>
<!-- Node2&#45;&gt;Node8 -->
<g id="edge8_Node000002_Node000008" class="edge">
<title>Node2&#45;&gt;Node8</title>
<g id="a_edge8_Node000002_Node000008"><a xlink:title=" ">
<path fill="none" stroke="#63b8ff" d="M474.53,-148.65C466.17,-149.98 457.71,-151.33 449.53,-152.64"/>
<polygon fill="#63b8ff" stroke="#63b8ff" points="475,-152.12 484.32,-147.08 473.89,-145.2 475,-152.12"/>
</a>
</g>
</g>
<!-- Node10 -->
<g id="Node000010" class="node">
<title>Node10</title>
<g id="a_Node000010"><a xlink:href="class_hidden__handler_1_1_process___handler.html#a57909ef2fb8c1b15ef0f52f7a0401084" target="_top" xlink:title="Clones the Firefox profile data to a specified directory.">
<polygon fill="white" stroke="#666666" points="449.25,-128.5 327.5,-128.5 327.5,-98 449.25,-98 449.25,-128.5"/>
<text text-anchor="start" x="335.5" y="-115" font-family="Helvetica,sans-Serif" font-size="10.00">Hidden_handler.Process</text>
<text text-anchor="middle" x="388.38" y="-103.75" font-family="Helvetica,sans-Serif" font-size="10.00">_Handler.CloneFirefox</text>
</a>
</g>
</g>
<!-- Node2&#45;&gt;Node10 -->
<g id="edge11_Node000002_Node000010" class="edge">
<title>Node2&#45;&gt;Node10</title>
<g id="a_edge11_Node000002_Node000010"><a xlink:title=" ">
<path fill="none" stroke="#63b8ff" d="M474.53,-126.31C466.17,-125.03 457.71,-123.73 449.53,-122.48"/>
<polygon fill="#63b8ff" stroke="#63b8ff" points="473.9,-129.75 484.32,-127.81 474.97,-122.83 473.9,-129.75"/>
</a>
</g>
</g>
<!-- Node12 -->
<g id="Node000012" class="node">
<title>Node12</title>
<g id="a_Node000012"><a xlink:href="class_hidden__handler_1_1_process___handler.html#a72151c3db1f9b348fe603e44d390f92d" target="_top" xlink:title="Clones the Opera browser data to a specified directory.">
<polygon fill="white" stroke="#666666" points="449.25,-79.5 327.5,-79.5 327.5,-49 449.25,-49 449.25,-79.5"/>
<text text-anchor="start" x="335.5" y="-66" font-family="Helvetica,sans-Serif" font-size="10.00">Hidden_handler.Process</text>
<text text-anchor="middle" x="388.38" y="-54.75" font-family="Helvetica,sans-Serif" font-size="10.00">_Handler.CloneOpera</text>
</a>
</g>
</g>
<!-- Node2&#45;&gt;Node12 -->
<g id="edge14_Node000002_Node000012" class="edge">
<title>Node2&#45;&gt;Node12</title>
<g id="a_edge14_Node000002_Node000012"><a xlink:title=" ">
<path fill="none" stroke="#63b8ff" d="M505.75,-116.34C488.7,-107.67 468.52,-97.69 450,-89.25 443.16,-86.13 435.82,-82.96 428.69,-79.97"/>
<polygon fill="#63b8ff" stroke="#63b8ff" points="504.08,-119.42 514.57,-120.86 507.27,-113.19 504.08,-119.42"/>
</a>
</g>
</g>
<!-- Node14 -->
<g id="Node000014" class="node">
<title>Node14</title>
<g id="a_Node000014"><a xlink:href="class_hidden__handler_1_1_process___handler.html#a1153c1ec4e407e17b850e314778a690a" target="_top" xlink:title="Clones the Opera GX browser data to a specified directory.">
<polygon fill="white" stroke="#666666" points="450,-30.5 326.75,-30.5 326.75,0 450,0 450,-30.5"/>
<text text-anchor="start" x="334.75" y="-17" font-family="Helvetica,sans-Serif" font-size="10.00">Hidden_handler.Process</text>
<text text-anchor="middle" x="388.38" y="-5.75" font-family="Helvetica,sans-Serif" font-size="10.00">_Handler.CloneOperaGX</text>
</a>
</g>
</g>
<!-- Node2&#45;&gt;Node14 -->
<g id="edge17_Node000002_Node000014" class="edge">
<title>Node2&#45;&gt;Node14</title>
<g id="a_edge17_Node000002_Node000014"><a xlink:title=" ">
<path fill="none" stroke="#63b8ff" d="M526.52,-112.72C508.57,-91.27 480.14,-60.48 450,-40.25 444.9,-36.82 439.25,-33.73 433.51,-30.98"/>
<polygon fill="#63b8ff" stroke="#63b8ff" points="523.77,-114.88 532.82,-120.39 529.18,-110.44 523.77,-114.88"/>
</a>
</g>
</g>
<!-- Node4 -->
<g id="Node000004" class="node">
<title>Node4</title>
<g id="a_Node000004"><a xlink:href="class_plugin_1_1_main.html#ad34b7332e48ad8bf889ebf97b16d92f1" target="_top" xlink:title="Handles the cloning of the Brave browser.">
<polygon fill="white" stroke="#666666" points="283.25,-261.88 131.5,-261.88 131.5,-242.62 283.25,-242.62 283.25,-261.88"/>
<text text-anchor="middle" x="207.38" y="-248.38" font-family="Helvetica,sans-Serif" font-size="10.00">Plugin.Main.HandleCloneBrave</text>
</a>
</g>
</g>
<!-- Node3&#45;&gt;Node4 -->
<g id="edge3_Node000003_Node000004" class="edge">
<title>Node3&#45;&gt;Node4</title>
<g id="a_edge3_Node000003_Node000004"><a xlink:title=" ">
<path fill="none" stroke="#63b8ff" d="M315.9,-257.06C305.27,-256.58 294.29,-256.09 283.58,-255.61"/>
<polygon fill="#63b8ff" stroke="#63b8ff" points="315.61,-260.55 325.76,-257.5 315.93,-253.55 315.61,-260.55"/>
</a>
</g>
</g>
<!-- Node5 -->
<g id="Node000005" class="node">
<title>Node5</title>
<g id="a_Node000005"><a xlink:href="class_plugin_1_1_main.html#ae51f6500ea51e702d748ba9c59cfad01" target="_top" xlink:title="Runs the specified node and performs various operations based on the received data.">
<polygon fill="white" stroke="#666666" points="88,-143.88 0,-143.88 0,-124.62 88,-124.62 88,-143.88"/>
<text text-anchor="middle" x="44" y="-130.38" font-family="Helvetica,sans-Serif" font-size="10.00">Plugin.Main.Run</text>
</a>
</g>
</g>
<!-- Node4&#45;&gt;Node5 -->
<g id="edge4_Node000004_Node000005" class="edge">
<title>Node4&#45;&gt;Node5</title>
<g id="a_edge4_Node000004_Node000005"><a xlink:title=" ">
<path fill="none" stroke="#63b8ff" d="M152.29,-238.41C142.44,-234.65 132.58,-229.98 124,-224.25 90.81,-202.07 62.97,-162.54 51.12,-144.15"/>
<polygon fill="#63b8ff" stroke="#63b8ff" points="150.9,-241.63 161.49,-241.64 153.22,-235.02 150.9,-241.63"/>
</a>
</g>
</g>
<!-- Node7 -->
<g id="Node000007" class="node">
<title>Node7</title>
<g id="a_Node000007"><a xlink:href="class_plugin_1_1_main.html#aaae518bc7e1b303b65bd3b9e255138a4" target="_top" xlink:title="Handles the cloning of Chrome browser.">
<polygon fill="white" stroke="#666666" points="287.75,-214.88 127,-214.88 127,-195.62 287.75,-195.62 287.75,-214.88"/>
<text text-anchor="middle" x="207.38" y="-201.38" font-family="Helvetica,sans-Serif" font-size="10.00">Plugin.Main.HandleCloneChrome</text>
</a>
</g>
</g>
<!-- Node6&#45;&gt;Node7 -->
<g id="edge6_Node000006_Node000007" class="edge">
<title>Node6&#45;&gt;Node7</title>
<g id="a_edge6_Node000006_Node000007"><a xlink:title=" ">
<path fill="none" stroke="#63b8ff" d="M315.86,-208.85C306.71,-208.55 297.3,-208.23 288.03,-207.92"/>
<polygon fill="#63b8ff" stroke="#63b8ff" points="315.65,-212.35 325.76,-209.18 315.88,-205.35 315.65,-212.35"/>
</a>
</g>
</g>
<!-- Node7&#45;&gt;Node5 -->
<g id="edge7_Node000007_Node000005" class="edge">
<title>Node7&#45;&gt;Node5</title>
<g id="a_edge7_Node000007_Node000005"><a xlink:title=" ">
<path fill="none" stroke="#63b8ff" d="M159.91,-191.74C148.03,-187.82 135.4,-183.24 124,-178.25 101.28,-168.31 76.51,-153.88 60.88,-144.29"/>
<polygon fill="#63b8ff" stroke="#63b8ff" points="158.51,-194.97 169.1,-194.68 160.64,-188.3 158.51,-194.97"/>
</a>
</g>
</g>
<!-- Node9 -->
<g id="Node000009" class="node">
<title>Node9</title>
<g id="a_Node000009"><a xlink:href="class_plugin_1_1_main.html#a0a510c76c3ed344950e1d39f6dc4b60d" target="_top" xlink:title="Handles the cloning of the Edge browser.">
<polygon fill="white" stroke="#666666" points="281.75,-168.88 133,-168.88 133,-149.62 281.75,-149.62 281.75,-168.88"/>
<text text-anchor="middle" x="207.38" y="-155.38" font-family="Helvetica,sans-Serif" font-size="10.00">Plugin.Main.HandleCloneEdge</text>
</a>
</g>
</g>
<!-- Node8&#45;&gt;Node9 -->
<g id="edge9_Node000008_Node000009" class="edge">
<title>Node8&#45;&gt;Node9</title>
<g id="a_edge9_Node000008_Node000009"><a xlink:title=" ">
<path fill="none" stroke="#63b8ff" d="M315.84,-161.05C304.7,-160.86 293.18,-160.67 282,-160.48"/>
<polygon fill="#63b8ff" stroke="#63b8ff" points="315.7,-164.55 325.76,-161.22 315.82,-157.55 315.7,-164.55"/>
</a>
</g>
</g>
<!-- Node9&#45;&gt;Node5 -->
<g id="edge10_Node000009_Node000005" class="edge">
<title>Node9&#45;&gt;Node5</title>
<g id="a_edge10_Node000009_Node000005"><a xlink:title=" ">
<path fill="none" stroke="#63b8ff" d="M130.23,-147.45C115.79,-145.22 101.15,-142.95 88.18,-140.94"/>
<polygon fill="#63b8ff" stroke="#63b8ff" points="129.29,-150.85 139.71,-148.92 130.36,-143.93 129.29,-150.85"/>
</a>
</g>
</g>
<!-- Node11 -->
<g id="Node000011" class="node">
<title>Node11</title>
<g id="a_Node000011"><a xlink:href="class_plugin_1_1_main.html#a6723900579cc8e603c10c1bff3e066a7" target="_top" xlink:title="Handles the cloning of Firefox browser for automation purposes.">
<polygon fill="white" stroke="#666666" points="285.5,-125.88 129.25,-125.88 129.25,-106.62 285.5,-106.62 285.5,-125.88"/>
<text text-anchor="middle" x="207.38" y="-112.38" font-family="Helvetica,sans-Serif" font-size="10.00">Plugin.Main.HandleCloneFirefox</text>
</a>
</g>
</g>
<!-- Node10&#45;&gt;Node11 -->
<g id="edge12_Node000010_Node000011" class="edge">
<title>Node10&#45;&gt;Node11</title>
<g id="a_edge12_Node000010_Node000011"><a xlink:title=" ">
<path fill="none" stroke="#63b8ff" d="M315.85,-114.45C305.97,-114.61 295.78,-114.79 285.8,-114.95"/>
<polygon fill="#63b8ff" stroke="#63b8ff" points="315.82,-117.95 325.76,-114.28 315.7,-110.95 315.82,-117.95"/>
</a>
</g>
</g>
<!-- Node11&#45;&gt;Node5 -->
<g id="edge13_Node000011_Node000005" class="edge">
<title>Node11&#45;&gt;Node5</title>
<g id="a_edge13_Node000011_Node000005"><a xlink:title=" ">
<path fill="none" stroke="#63b8ff" d="M117.78,-126.13C107.48,-127.28 97.36,-128.41 88.08,-129.44"/>
<polygon fill="#63b8ff" stroke="#63b8ff" points="117.94,-129.64 127.49,-125.05 117.17,-122.68 117.94,-129.64"/>
</a>
</g>
</g>
<!-- Node13 -->
<g id="Node000013" class="node">
<title>Node13</title>
<g id="a_Node000013"><a xlink:href="class_plugin_1_1_main.html#aec422ddfd189c4140e60d4d21207f073" target="_top" xlink:title="Handles the cloning of the Opera browser.">
<polygon fill="white" stroke="#666666" points="283.62,-79.88 131.12,-79.88 131.12,-60.62 283.62,-60.62 283.62,-79.88"/>
<text text-anchor="middle" x="207.38" y="-66.38" font-family="Helvetica,sans-Serif" font-size="10.00">Plugin.Main.HandleCloneOpera</text>
</a>
</g>
</g>
<!-- Node12&#45;&gt;Node13 -->
<g id="edge15_Node000012_Node000013" class="edge">
<title>Node12&#45;&gt;Node13</title>
<g id="a_edge15_Node000012_Node000013"><a xlink:title=" ">
<path fill="none" stroke="#63b8ff" d="M315.99,-66.64C305.43,-67 294.53,-67.36 283.9,-67.72"/>
<polygon fill="#63b8ff" stroke="#63b8ff" points="315.88,-70.15 325.76,-66.32 315.65,-63.15 315.88,-70.15"/>
</a>
</g>
</g>
<!-- Node13&#45;&gt;Node5 -->
<g id="edge16_Node000013_Node000005" class="edge">
<title>Node13&#45;&gt;Node5</title>
<g id="a_edge16_Node000013_Node000005"><a xlink:title=" ">
<path fill="none" stroke="#63b8ff" d="M161.45,-83.88C149.2,-87.9 136,-92.49 124,-97.25 103.44,-105.4 80.64,-116.29 64.84,-124.14"/>
<polygon fill="#63b8ff" stroke="#63b8ff" points="162.49,-87.23 170.94,-80.84 160.35,-80.56 162.49,-87.23"/>
</a>
</g>
</g>
<!-- Node15 -->
<g id="Node000015" class="node">
<title>Node15</title>
<g id="a_Node000015"><a xlink:href="class_plugin_1_1_main.html#a812dea4759e47ca338a44f8515e795b1" target="_top" xlink:title="Handles the cloning of OperaGX browser.">
<polygon fill="white" stroke="#666666" points="290.75,-36.88 124,-36.88 124,-17.62 290.75,-17.62 290.75,-36.88"/>
<text text-anchor="middle" x="207.38" y="-23.38" font-family="Helvetica,sans-Serif" font-size="10.00">Plugin.Main.HandleCloneOperaGX</text>
</a>
</g>
</g>
<!-- Node14&#45;&gt;Node15 -->
<g id="edge18_Node000014_Node000015" class="edge">
<title>Node14&#45;&gt;Node15</title>
<g id="a_edge18_Node000014_Node000015"><a xlink:title=" ">
<path fill="none" stroke="#63b8ff" d="M314.92,-20.11C307.06,-20.63 299.02,-21.17 291.05,-21.71"/>
<polygon fill="#63b8ff" stroke="#63b8ff" points="315.02,-23.61 324.76,-19.45 314.55,-16.62 315.02,-23.61"/>
</a>
</g>
</g>
<!-- Node15&#45;&gt;Node5 -->
<g id="edge19_Node000015_Node000005" class="edge">
<title>Node15&#45;&gt;Node5</title>
<g id="a_edge19_Node000015_Node000005"><a xlink:title=" ">
<path fill="none" stroke="#63b8ff" d="M145.57,-40.95C138.04,-43.8 130.66,-47.2 124,-51.25 91.88,-70.8 64.13,-106.72 51.8,-124.19"/>
<polygon fill="#63b8ff" stroke="#63b8ff" points="146.49,-44.34 154.81,-37.79 144.22,-37.72 146.49,-44.34"/>
</a>
</g>
</g>
</g>
</svg>
