<?xml version="1.0" encoding="UTF-8" standalone="no"?>
<!DOCTYPE svg PUBLIC "-//W3C//DTD SVG 1.1//EN"
 "http://www.w3.org/Graphics/SVG/1.1/DTD/svg11.dtd">
<!-- Generated by graphviz version 10.0.1 (20240210.2158)
 -->
<!-- Title: NAudio.Wave.Mp3FileReaderBase.Read Pages: 1 -->
<svg width="384pt" height="155pt"
 viewBox="0.00 0.00 383.50 154.50" xmlns="http://www.w3.org/2000/svg" xmlns:xlink="http://www.w3.org/1999/xlink">

<svg id="main" version="1.1" xmlns="http://www.w3.org/2000/svg" xmlns:xlink="http://www.w3.org/1999/xlink" xml:space="preserve" onload="init(evt)">
<style type="text/css"><![CDATA[
.node, .edge {opacity: 0.7;}
.node.selected, .edge.selected {opacity: 1;}
.edge:hover path { stroke: red; }
.edge:hover polygon { stroke: red; fill: red; }
]]></style>
<script type="application/ecmascript" xlink:href="svg.min.js"/>
<svg id="graph" class="graph">
<g id="graph0" class="graph" transform="scale(1 1) rotate(0) translate(4 150.5)">
<title>NAudio.Wave.Mp3FileReaderBase.Read</title>
<!-- Node1 -->
<g id="Node000001" class="node">
<title>Node1</title>
<g id="a_Node000001"><a xlink:title="Reads a specified number of bytes from the MP3 file into the sample buffer.">
<polygon fill="#999999" stroke="#666666" points="145,-79.5 0,-79.5 0,-49 145,-49 145,-79.5"/>
<text text-anchor="start" x="8" y="-66" font-family="Helvetica,sans-Serif" font-size="10.00">NAudio.Wave.Mp3FileReader</text>
<text text-anchor="middle" x="72.5" y="-54.75" font-family="Helvetica,sans-Serif" font-size="10.00">Base.Read</text>
</a>
</g>
</g>
<!-- Node2 -->
<g id="Node000002" class="node">
<title>Node2</title>
<g id="a_Node000002"><a xlink:href="interface_n_audio_1_1_wave_1_1_i_mp3_frame_decompressor.html#a018b7f5c77e88abb41a10c1ad7426b30" target="_top" xlink:title="Decompress a single MP3 frame.">
<polygon fill="white" stroke="#666666" points="375.5,-146.5 181,-146.5 181,-116 375.5,-116 375.5,-146.5"/>
<text text-anchor="start" x="189" y="-133" font-family="Helvetica,sans-Serif" font-size="10.00">NAudio.Wave.IMp3FrameDecompressor.</text>
<text text-anchor="middle" x="278.25" y="-121.75" font-family="Helvetica,sans-Serif" font-size="10.00">DecompressFrame</text>
</a>
</g>
</g>
<!-- Node1&#45;&gt;Node2 -->
<g id="edge1_Node000001_Node000002" class="edge">
<title>Node1&#45;&gt;Node2</title>
<g id="a_edge1_Node000001_Node000002"><a xlink:title=" ">
<path fill="none" stroke="#63b8ff" d="M110.42,-79.92C130.98,-88.34 157.17,-98.53 181,-106.25 187.63,-108.4 194.56,-110.49 201.53,-112.49"/>
<polygon fill="#63b8ff" stroke="#63b8ff" points="200.46,-115.82 211.03,-115.14 202.34,-109.08 200.46,-115.82"/>
</a>
</g>
</g>
<!-- Node3 -->
<g id="Node000003" class="node">
<title>Node3</title>
<g id="a_Node000003"><a xlink:href="class_n_audio_1_1_wave_1_1_mp3_file_reader_base.html#a3e0ccd190d85f58fc98568e9fcaf5a46" target="_top" xlink:title="Reads the next MP3 frame from the stream and advances the position by one frame.">
<polygon fill="white" stroke="#666666" points="350.75,-79.5 205.75,-79.5 205.75,-49 350.75,-49 350.75,-79.5"/>
<text text-anchor="start" x="213.75" y="-66" font-family="Helvetica,sans-Serif" font-size="10.00">NAudio.Wave.Mp3FileReader</text>
<text text-anchor="middle" x="278.25" y="-54.75" font-family="Helvetica,sans-Serif" font-size="10.00">Base.ReadNextFrame</text>
</a>
</g>
</g>
<!-- Node1&#45;&gt;Node3 -->
<g id="edge2_Node000001_Node000003" class="edge">
<title>Node1&#45;&gt;Node3</title>
<g id="a_edge2_Node000001_Node000003"><a xlink:title=" ">
<path fill="none" stroke="#63b8ff" d="M145.33,-64.25C161.16,-64.25 178.05,-64.25 194.27,-64.25"/>
<polygon fill="#63b8ff" stroke="#63b8ff" points="193.86,-67.75 203.86,-64.25 193.86,-60.75 193.86,-67.75"/>
</a>
</g>
</g>
<!-- Node4 -->
<g id="Node000004" class="node">
<title>Node4</title>
<g id="a_Node000004"><a xlink:href="interface_n_audio_1_1_wave_1_1_i_mp3_frame_decompressor.html#a8471f95738e023cae6ad13fe3a34da2c" target="_top" xlink:title="Tell the decoder that we have repositioned.">
<polygon fill="white" stroke="#666666" points="375.5,-30.5 181,-30.5 181,0 375.5,0 375.5,-30.5"/>
<text text-anchor="start" x="189" y="-17" font-family="Helvetica,sans-Serif" font-size="10.00">NAudio.Wave.IMp3FrameDecompressor.</text>
<text text-anchor="middle" x="278.25" y="-5.75" font-family="Helvetica,sans-Serif" font-size="10.00">Reset</text>
</a>
</g>
</g>
<!-- Node1&#45;&gt;Node4 -->
<g id="edge4_Node000001_Node000004" class="edge">
<title>Node1&#45;&gt;Node4</title>
<g id="a_edge4_Node000001_Node000004"><a xlink:title=" ">
<path fill="none" stroke="#63b8ff" d="M138.81,-48.54C158.55,-43.8 180.4,-38.54 200.8,-33.64"/>
<polygon fill="#63b8ff" stroke="#63b8ff" points="201.59,-37.05 210.49,-31.31 199.95,-30.24 201.59,-37.05"/>
</a>
</g>
</g>
<!-- Node3&#45;&gt;Node3 -->
<g id="edge3_Node000003_Node000003" class="edge">
<title>Node3&#45;&gt;Node3</title>
<g id="a_edge3_Node000003_Node000003"><a xlink:title=" ">
<path fill="none" stroke="#63b8ff" d="M241.79,-79.99C234.35,-89.06 246.5,-97.5 278.25,-97.5 295.61,-97.5 307.11,-94.97 312.75,-91.2"/>
<polygon fill="#63b8ff" stroke="#63b8ff" points="316.18,-91.93 314.45,-81.48 309.28,-90.73 316.18,-91.93"/>
</a>
</g>
</g>
</g>
</svg>
</svg>

<style type='text/css'>
<![CDATA[
[data-mouse-over-selected='false'] { opacity: 0.7; }
[data-mouse-over-selected='true']  { opacity: 1.0; }
]]>
</style>
<script type="application/ecmascript"><![CDATA[
document.addEventListener('DOMContentLoaded', (event) => {
  highlightEdges();
  highlightAdjacentNodes();
});
]]></script>
</svg>
