<?xml version="1.0" encoding="UTF-8" standalone="no"?>
<!DOCTYPE svg PUBLIC "-//W3C//DTD SVG 1.1//EN"
 "http://www.w3.org/Graphics/SVG/1.1/DTD/svg11.dtd">
<!-- Generated by graphviz version 10.0.1 (20240210.2158)
 -->
<!-- Title: xeno_rat_client.Utils.AddToStartupAdmin Pages: 1 -->
<svg width="315pt" height="64pt"
 viewBox="0.00 0.00 315.25 64.25" xmlns="http://www.w3.org/2000/svg" xmlns:xlink="http://www.w3.org/1999/xlink">
<g id="graph0" class="graph" transform="scale(1 1) rotate(0) translate(4 60.25)">
<title>xeno_rat_client.Utils.AddToStartupAdmin</title>
<!-- Node1 -->
<g id="Node000001" class="node">
<title>Node1</title>
<g id="a_Node000001"><a xlink:title="Adds the specified executable to the Windows startup for all users and returns a boolean indicating w...">
<polygon fill="#999999" stroke="#666666" points="307.25,-42.88 181.75,-42.88 181.75,-12.37 307.25,-12.37 307.25,-42.88"/>
<text text-anchor="start" x="189.75" y="-29.38" font-family="Helvetica,sans-Serif" font-size="10.00">xeno_rat_client.Utils.Add</text>
<text text-anchor="middle" x="244.5" y="-18.12" font-family="Helvetica,sans-Serif" font-size="10.00">ToStartupAdmin</text>
</a>
</g>
</g>
<!-- Node2 -->
<g id="Node000002" class="node">
<title>Node2</title>
<g id="a_Node000002"><a xlink:href="classxeno__rat__client_1_1_program.html#a8e01c4689de41166b75a03fda71d12f0" target="_top" xlink:title="Main function for the XenoUpdateManager application.">
<polygon fill="white" stroke="#666666" points="145.75,-56.25 0,-56.25 0,-37 145.75,-37 145.75,-56.25"/>
<text text-anchor="middle" x="72.88" y="-42.75" font-family="Helvetica,sans-Serif" font-size="10.00">xeno_rat_client.Program.Main</text>
</a>
</g>
</g>
<!-- Node1&#45;&gt;Node2 -->
<g id="edge1_Node000001_Node000002" class="edge">
<title>Node1&#45;&gt;Node2</title>
<g id="a_edge1_Node000001_Node000002"><a xlink:title=" ">
<path fill="none" stroke="#63b8ff" d="M169.88,-35.87C162,-36.75 153.99,-37.65 146.12,-38.53"/>
<polygon fill="#63b8ff" stroke="#63b8ff" points="170.25,-39.35 179.8,-34.76 169.47,-32.4 170.25,-39.35"/>
</a>
</g>
</g>
<!-- Node3 -->
<g id="Node000003" class="node">
<title>Node3</title>
<g id="a_Node000003"><a xlink:href="class_plugin_1_1_main.html#ae51f6500ea51e702d748ba9c59cfad01" target="_top" xlink:title="Asynchronously runs the specified node and performs various operations based on the received data.">
<polygon fill="white" stroke="#666666" points="116.88,-19.25 28.88,-19.25 28.88,0 116.88,0 116.88,-19.25"/>
<text text-anchor="middle" x="72.88" y="-5.75" font-family="Helvetica,sans-Serif" font-size="10.00">Plugin.Main.Run</text>
</a>
</g>
</g>
<!-- Node1&#45;&gt;Node3 -->
<g id="edge2_Node000001_Node000003" class="edge">
<title>Node1&#45;&gt;Node3</title>
<g id="a_edge2_Node000001_Node000003"><a xlink:title=" ">
<path fill="none" stroke="#63b8ff" d="M169.92,-19.82C151.95,-17.91 133.28,-15.93 117.24,-14.23"/>
<polygon fill="#63b8ff" stroke="#63b8ff" points="169.48,-23.29 179.8,-20.86 170.22,-16.33 169.48,-23.29"/>
</a>
</g>
</g>
</g>
</svg>
