<?xml version="1.0" encoding="UTF-8" standalone="no"?>
<!DOCTYPE svg PUBLIC "-//W3C//DTD SVG 1.1//EN"
 "http://www.w3.org/Graphics/SVG/1.1/DTD/svg11.dtd">
<!-- Generated by graphviz version 10.0.1 (20240210.2158)
 -->
<!-- Title: NAudio.Wave.WaveOutUtils Pages: 1 -->
<svg width="141pt" height="87pt"
 viewBox="0.00 0.00 141.00 87.00" xmlns="http://www.w3.org/2000/svg" xmlns:xlink="http://www.w3.org/1999/xlink">
<g id="graph0" class="graph" transform="scale(1 1) rotate(0) translate(4 83)">
<title>NAudio.Wave.WaveOutUtils</title>
<!-- Node1 -->
<g id="Node000001" class="node">
<title>Node1</title>
<g id="a_Node000001"><a xlink:title=" ">
<polygon fill="#999999" stroke="none" points="133,-79 0,-79 0,0 133,0 133,-79"/>
<text text-anchor="start" x="4.62" y="-65.5" font-family="Helvetica,sans-Serif" font-size="10.00">NAudio.Wave.WaveOutUtils</text>
<text text-anchor="start" x="65" y="-50.5" font-family="Helvetica,sans-Serif" font-size="10.00"> </text>
<text text-anchor="start" x="9" y="-35.5" font-family="Helvetica,sans-Serif" font-size="10.00">+</text>
<text text-anchor="start" x="24" y="-35.5" font-family="Helvetica,sans-Serif" font-size="10.00">GetWaveOutVolume()</text>
<text text-anchor="start" x="9" y="-20.5" font-family="Helvetica,sans-Serif" font-size="10.00">+</text>
<text text-anchor="start" x="24" y="-20.5" font-family="Helvetica,sans-Serif" font-size="10.00">SetWaveOutVolume()</text>
<text text-anchor="start" x="9" y="-5.5" font-family="Helvetica,sans-Serif" font-size="10.00">+</text>
<text text-anchor="start" x="24" y="-5.5" font-family="Helvetica,sans-Serif" font-size="10.00">GetPositionBytes()</text>
<polygon fill="#666666" stroke="#666666" points="0,-62 0,-62 133,-62 133,-62 0,-62"/>
<polygon fill="#666666" stroke="#666666" points="0,-47 0,-47 133,-47 133,-47 0,-47"/>
<polygon fill="none" stroke="#666666" points="0,0 0,-79 133,-79 133,0 0,0"/>
</a>
</g>
</g>
</g>
</svg>
