<?xml version="1.0" encoding="UTF-8" standalone="no"?>
<!DOCTYPE svg PUBLIC "-//W3C//DTD SVG 1.1//EN"
 "http://www.w3.org/Graphics/SVG/1.1/DTD/svg11.dtd">
<!-- Generated by graphviz version 10.0.1 (20240210.2158)
 -->
<!-- Title: NAudio.Dmo.DmoResampler Pages: 1 -->
<!--zoomable 662 -->

<svg id="main" version="1.1" xmlns="http://www.w3.org/2000/svg" xmlns:xlink="http://www.w3.org/1999/xlink" xml:space="preserve" onload="init(evt)">
<style type="text/css"><![CDATA[
.node, .edge {opacity: 0.7;}
.node.selected, .edge.selected {opacity: 1;}
.edge:hover path { stroke: red; }
.edge:hover polygon { stroke: red; fill: red; }
]]></style>

<defs>
  <circle id="rim" cx="0" cy="0" r="7"/>
  <circle id="rim2" cx="0" cy="0" r="3.5"/>
  <g id="zoomPlus">
    <use xlink:href="#rim" fill="#404040"><set attributeName="fill" to="#808080" begin="zoomplus.mouseover" end="zoomplus.mouseout"/></use>
    <path d="M-4,0h8M0,-4v8" fill="none" stroke="white" stroke-width="1.5" pointer-events="none"/>
  </g>
  <g id="zoomMin">
    <use xlink:href="#rim" fill="#404040"><set attributeName="fill" to="#808080" begin="zoomminus.mouseover" end="zoomminus.mouseout"/></use>
    <path d="M-4,0h8" fill="none" stroke="white" stroke-width="1.5" pointer-events="none"/>
  </g>
  <g id="arrowUp" transform="translate(30 24)">
    <use xlink:href="#rim"/>
    <path pointer-events="none" fill="none" stroke="white" stroke-width="1.5" d="M0,-3.0v7 M-2.5,-0.5L0,-3.0L2.5,-0.5"/>
  </g>
  <g id="arrowRight" transform="rotate(90) translate(36 -43)">
    <use xlink:href="#rim"/>
    <path pointer-events="none" fill="none" stroke="white" stroke-width="1.5" d="M0,-3.0v7 M-2.5,-0.5L0,-3.0L2.5,-0.5"/>
  </g>
  <g id="arrowDown" transform="rotate(180) translate(-30 -48)">
    <use xlink:href="#rim"/>
    <path pointer-events="none" fill="none" stroke="white" stroke-width="1.5" d="M0,-3.0v7 M-2.5,-0.5L0,-3.0L2.5,-0.5"/>
  </g>
  <g id="arrowLeft" transform="rotate(270) translate(-36 17)">
    <use xlink:href="#rim"/>
    <path pointer-events="none" fill="none" stroke="white" stroke-width="1.5" d="M0,-3.0v7 M-2.5,-0.5L0,-3.0L2.5,-0.5"/>
  </g>
  <g id="resetDef">
    <use xlink:href="#rim2" fill="#404040"><set attributeName="fill" to="#808080" begin="reset.mouseover" end="reset.mouseout"/></use>
  </g>
</defs>
<script type="application/ecmascript">
var viewWidth = 746;
var viewHeight = 662;
var sectionId = 'dynsection-1';
</script>
<script type="application/ecmascript" xlink:href="svg.min.js"/>
<svg id="graph" class="graph">
<g id="viewport">
<title>NAudio.Dmo.DmoResampler</title>
<!-- Node1 -->
<g id="Node000001" class="node">
<title>Node1</title>
<g id="a_Node000001"><a xlink:title="DMO Resampler.">
<polygon fill="#999999" stroke="none" points="387.65,-64 250.65,-64 250.65,0 387.65,0 387.65,-64"/>
<text text-anchor="start" x="255.4" y="-50.5" font-family="Helvetica,sans-Serif" font-size="10.00">NAudio.Dmo.DmoResampler</text>
<text text-anchor="start" x="265.65" y="-35.5" font-family="Helvetica,sans-Serif" font-size="10.00">+</text>
<text text-anchor="start" x="286.65" y="-35.5" font-family="Helvetica,sans-Serif" font-size="10.00">MediaObject</text>
<text text-anchor="start" x="265.65" y="-20.5" font-family="Helvetica,sans-Serif" font-size="10.00">+</text>
<text text-anchor="start" x="286.65" y="-20.5" font-family="Helvetica,sans-Serif" font-size="10.00">DmoResampler()</text>
<text text-anchor="start" x="265.65" y="-5.5" font-family="Helvetica,sans-Serif" font-size="10.00">+</text>
<text text-anchor="start" x="286.65" y="-5.5" font-family="Helvetica,sans-Serif" font-size="10.00">Dispose()</text>
<polygon fill="#666666" stroke="#666666" points="250.65,-47 250.65,-47 387.65,-47 387.65,-47 250.65,-47"/>
<polygon fill="#666666" stroke="#666666" points="250.65,-32 250.65,-32 284.65,-32 284.65,-32 250.65,-32"/>
<polygon fill="#666666" stroke="#666666" points="284.65,-32 284.65,-32 387.65,-32 387.65,-32 284.65,-32"/>
<polygon fill="none" stroke="#666666" points="250.65,0 250.65,-64 387.65,-64 387.65,0 250.65,0"/>
</a>
</g>
</g>
<!-- Node2 -->
<g id="Node000002" class="node">
<title>Node2</title>
<g id="a_Node000002"><a xlink:href="class_i_disposable.html" target="_top" xlink:title=" ">
<polygon fill="white" stroke="none" points="67.65,-578.75 6.65,-578.75 6.65,-529.75 67.65,-529.75 67.65,-578.75"/>
<text text-anchor="start" x="11.28" y="-565.25" font-family="Helvetica,sans-Serif" font-size="10.00">IDisposable</text>
<text text-anchor="start" x="35.65" y="-550.25" font-family="Helvetica,sans-Serif" font-size="10.00"> </text>
<text text-anchor="start" x="35.65" y="-535.25" font-family="Helvetica,sans-Serif" font-size="10.00"> </text>
<polygon fill="#666666" stroke="#666666" points="6.65,-561.75 6.65,-561.75 67.65,-561.75 67.65,-561.75 6.65,-561.75"/>
<polygon fill="#666666" stroke="#666666" points="6.65,-546.75 6.65,-546.75 67.65,-546.75 67.65,-546.75 6.65,-546.75"/>
<polygon fill="none" stroke="#666666" points="6.65,-529.75 6.65,-578.75 67.65,-578.75 67.65,-529.75 6.65,-529.75"/>
</a>
</g>
</g>
<!-- Node2&#45;&gt;Node1 -->
<g id="edge1_Node000001_Node000002" class="edge">
<title>Node2&#45;&gt;Node1</title>
<g id="a_edge1_Node000001_Node000002"><a xlink:title=" ">
<path fill="none" stroke="#63b8ff" d="M27.14,-518.92C5.81,-438.1 -34.7,-233.42 61.15,-111.25 84.67,-81.28 182.56,-57.79 250.75,-44.66"/>
<polygon fill="none" stroke="#63b8ff" points="23.73,-519.73 29.73,-528.47 30.48,-517.9 23.73,-519.73"/>
</a>
</g>
</g>
<!-- Node3 -->
<g id="Node000003" class="node">
<title>Node3</title>
<g id="a_Node000003"><a xlink:href="class_n_audio_1_1_dmo_1_1_media_object.html" target="_top" xlink:title="Media Object.">
<polygon fill="white" stroke="none" points="224.15,-396.25 70.15,-396.25 70.15,-111.25 224.15,-111.25 224.15,-396.25"/>
<text text-anchor="start" x="90.15" y="-382.75" font-family="Helvetica,sans-Serif" font-size="10.00">NAudio.Dmo.MediaObject</text>
<text text-anchor="start" x="74.15" y="-367.75" font-family="Helvetica,sans-Serif" font-size="10.00">+</text>
<text text-anchor="start" x="84.15" y="-367.75" font-family="Helvetica,sans-Serif" font-size="10.00">InputStreamCount</text>
<text text-anchor="start" x="74.15" y="-352.75" font-family="Helvetica,sans-Serif" font-size="10.00">+</text>
<text text-anchor="start" x="84.15" y="-352.75" font-family="Helvetica,sans-Serif" font-size="10.00">OutputStreamCount</text>
<text text-anchor="start" x="74.15" y="-337.75" font-family="Helvetica,sans-Serif" font-size="10.00">+</text>
<text text-anchor="start" x="84.15" y="-337.75" font-family="Helvetica,sans-Serif" font-size="10.00">GetInputType()</text>
<text text-anchor="start" x="74.15" y="-322.75" font-family="Helvetica,sans-Serif" font-size="10.00">+</text>
<text text-anchor="start" x="84.15" y="-322.75" font-family="Helvetica,sans-Serif" font-size="10.00">GetOutputType()</text>
<text text-anchor="start" x="74.15" y="-307.75" font-family="Helvetica,sans-Serif" font-size="10.00">+</text>
<text text-anchor="start" x="84.15" y="-307.75" font-family="Helvetica,sans-Serif" font-size="10.00">GetOutputCurrentType()</text>
<text text-anchor="start" x="74.15" y="-292.75" font-family="Helvetica,sans-Serif" font-size="10.00">+</text>
<text text-anchor="start" x="84.15" y="-292.75" font-family="Helvetica,sans-Serif" font-size="10.00">GetInputTypes()</text>
<text text-anchor="start" x="74.15" y="-277.75" font-family="Helvetica,sans-Serif" font-size="10.00">+</text>
<text text-anchor="start" x="84.15" y="-277.75" font-family="Helvetica,sans-Serif" font-size="10.00">GetOutputTypes()</text>
<text text-anchor="start" x="74.15" y="-262.75" font-family="Helvetica,sans-Serif" font-size="10.00">+</text>
<text text-anchor="start" x="84.15" y="-262.75" font-family="Helvetica,sans-Serif" font-size="10.00">SupportsInputType()</text>
<text text-anchor="start" x="74.15" y="-247.75" font-family="Helvetica,sans-Serif" font-size="10.00">+</text>
<text text-anchor="start" x="84.15" y="-247.75" font-family="Helvetica,sans-Serif" font-size="10.00">SetInputType()</text>
<text text-anchor="start" x="74.15" y="-232.75" font-family="Helvetica,sans-Serif" font-size="10.00">+</text>
<text text-anchor="start" x="84.15" y="-232.75" font-family="Helvetica,sans-Serif" font-size="10.00">SetInputWaveFormat()</text>
<text text-anchor="start" x="74.15" y="-217.75" font-family="Helvetica,sans-Serif" font-size="10.00">+</text>
<text text-anchor="start" x="84.15" y="-217.75" font-family="Helvetica,sans-Serif" font-size="10.00">SupportsInputWaveFormat()</text>
<text text-anchor="start" x="74.15" y="-202.75" font-family="Helvetica,sans-Serif" font-size="10.00">+</text>
<text text-anchor="start" x="84.15" y="-202.75" font-family="Helvetica,sans-Serif" font-size="10.00">SupportsOutputType()</text>
<text text-anchor="start" x="84.15" y="-187.75" font-family="Helvetica,sans-Serif" font-size="10.00">and 14 more...</text>
<text text-anchor="start" x="74.15" y="-172.75" font-family="Helvetica,sans-Serif" font-size="10.00">~</text>
<text text-anchor="start" x="84.15" y="-172.75" font-family="Helvetica,sans-Serif" font-size="10.00">MediaObject()</text>
<text text-anchor="start" x="75.65" y="-157.75" font-family="Helvetica,sans-Serif" font-size="10.00">&#45;</text>
<text text-anchor="start" x="84.15" y="-157.75" font-family="Helvetica,sans-Serif" font-size="10.00">SetInputType()</text>
<text text-anchor="start" x="75.65" y="-142.75" font-family="Helvetica,sans-Serif" font-size="10.00">&#45;</text>
<text text-anchor="start" x="84.15" y="-142.75" font-family="Helvetica,sans-Serif" font-size="10.00">CreateDmoMediaTypeForWave</text>
<text text-anchor="start" x="84.15" y="-131.5" font-family="Helvetica,sans-Serif" font-size="10.00">Format()</text>
<text text-anchor="start" x="75.65" y="-116.75" font-family="Helvetica,sans-Serif" font-size="10.00">&#45;</text>
<text text-anchor="start" x="84.15" y="-116.75" font-family="Helvetica,sans-Serif" font-size="10.00">SetOutputType()</text>
<polygon fill="#666666" stroke="#666666" points="70.15,-379.25 70.15,-379.25 224.15,-379.25 224.15,-379.25 70.15,-379.25"/>
<polygon fill="#666666" stroke="#666666" points="70.15,-349.25 70.15,-349.25 82.15,-349.25 82.15,-349.25 70.15,-349.25"/>
<polygon fill="#666666" stroke="#666666" points="82.15,-349.25 82.15,-349.25 224.15,-349.25 224.15,-349.25 82.15,-349.25"/>
<polygon fill="none" stroke="#666666" points="70.15,-111.25 70.15,-396.25 224.15,-396.25 224.15,-111.25 70.15,-111.25"/>
</a>
</g>
</g>
<!-- Node2&#45;&gt;Node3 -->
<g id="edge3_Node000003_Node000002" class="edge">
<title>Node2&#45;&gt;Node3</title>
<g id="a_edge3_Node000003_Node000002"><a xlink:title=" ">
<path fill="none" stroke="#63b8ff" d="M49.64,-519.37C60.88,-488.86 78.19,-441.89 95.12,-395.94"/>
<polygon fill="none" stroke="#63b8ff" points="46.48,-517.81 46.31,-528.41 53.05,-520.23 46.48,-517.81"/>
</a>
</g>
</g>
<!-- Node3&#45;&gt;Node1 -->
<g id="edge2_Node000001_Node000003" class="edge">
<title>Node3&#45;&gt;Node1</title>
<g id="a_edge2_Node000001_Node000003"><a xlink:title=" ">
<path fill="none" stroke="#63b8ff" d="M224.13,-117.59C233.61,-104.98 243.74,-92.87 254.4,-82 257.71,-78.63 261.25,-75.31 264.92,-72.07"/>
<polygon fill="none" stroke="#63b8ff" points="264.96,-72.04 266.98,-65.12 274.15,-64.33 272.13,-71.25 264.96,-72.04"/>
</a>
</g>
<text text-anchor="middle" x="285.53" y="-83.75" font-family="Helvetica,sans-Serif" font-size="10.00" fill="grey"> &#45;mediaObject</text>
</g>
<!-- Node4 -->
<g id="Node000004" class="node">
<title>Node4</title>
<g id="a_Node000004"><a xlink:href="interface_n_audio_1_1_dmo_1_1_i_media_object.html" target="_top" xlink:title="defined in mediaobj.h">
<polygon fill="white" stroke="none" points="212.65,-653.75 85.65,-653.75 85.65,-454.75 212.65,-454.75 212.65,-653.75"/>
<text text-anchor="start" x="90.65" y="-640.25" font-family="Helvetica,sans-Serif" font-size="10.00">NAudio.Dmo.IMediaObject</text>
<text text-anchor="start" x="147.65" y="-625.25" font-family="Helvetica,sans-Serif" font-size="10.00"> </text>
<text text-anchor="start" x="90.65" y="-610.25" font-family="Helvetica,sans-Serif" font-size="10.00">+</text>
<text text-anchor="start" x="101.65" y="-610.25" font-family="Helvetica,sans-Serif" font-size="10.00">GetStreamCount()</text>
<text text-anchor="start" x="90.65" y="-595.25" font-family="Helvetica,sans-Serif" font-size="10.00">+</text>
<text text-anchor="start" x="101.65" y="-595.25" font-family="Helvetica,sans-Serif" font-size="10.00">GetInputStreamInfo()</text>
<text text-anchor="start" x="90.65" y="-580.25" font-family="Helvetica,sans-Serif" font-size="10.00">+</text>
<text text-anchor="start" x="101.65" y="-580.25" font-family="Helvetica,sans-Serif" font-size="10.00">GetOutputStreamInfo()</text>
<text text-anchor="start" x="90.65" y="-565.25" font-family="Helvetica,sans-Serif" font-size="10.00">+</text>
<text text-anchor="start" x="101.65" y="-565.25" font-family="Helvetica,sans-Serif" font-size="10.00">GetInputType()</text>
<text text-anchor="start" x="90.65" y="-550.25" font-family="Helvetica,sans-Serif" font-size="10.00">+</text>
<text text-anchor="start" x="101.65" y="-550.25" font-family="Helvetica,sans-Serif" font-size="10.00">GetOutputType()</text>
<text text-anchor="start" x="90.65" y="-535.25" font-family="Helvetica,sans-Serif" font-size="10.00">+</text>
<text text-anchor="start" x="101.65" y="-535.25" font-family="Helvetica,sans-Serif" font-size="10.00">SetInputType()</text>
<text text-anchor="start" x="90.65" y="-520.25" font-family="Helvetica,sans-Serif" font-size="10.00">+</text>
<text text-anchor="start" x="101.65" y="-520.25" font-family="Helvetica,sans-Serif" font-size="10.00">SetOutputType()</text>
<text text-anchor="start" x="90.65" y="-505.25" font-family="Helvetica,sans-Serif" font-size="10.00">+</text>
<text text-anchor="start" x="101.65" y="-505.25" font-family="Helvetica,sans-Serif" font-size="10.00">GetInputCurrentType()</text>
<text text-anchor="start" x="90.65" y="-490.25" font-family="Helvetica,sans-Serif" font-size="10.00">+</text>
<text text-anchor="start" x="101.65" y="-490.25" font-family="Helvetica,sans-Serif" font-size="10.00">GetOutputCurrentType()</text>
<text text-anchor="start" x="90.65" y="-475.25" font-family="Helvetica,sans-Serif" font-size="10.00">+</text>
<text text-anchor="start" x="101.65" y="-475.25" font-family="Helvetica,sans-Serif" font-size="10.00">GetInputSizeInfo()</text>
<text text-anchor="start" x="101.65" y="-460.25" font-family="Helvetica,sans-Serif" font-size="10.00">and 11 more...</text>
<polygon fill="#666666" stroke="#666666" points="85.65,-636.75 85.65,-636.75 212.65,-636.75 212.65,-636.75 85.65,-636.75"/>
<polygon fill="#666666" stroke="#666666" points="85.65,-621.75 85.65,-621.75 212.65,-621.75 212.65,-621.75 85.65,-621.75"/>
<polygon fill="none" stroke="#666666" points="85.65,-454.75 85.65,-653.75 212.65,-653.75 212.65,-454.75 85.65,-454.75"/>
</a>
</g>
</g>
<!-- Node4&#45;&gt;Node3 -->
<g id="edge4_Node000003_Node000004" class="edge">
<title>Node4&#45;&gt;Node3</title>
<g id="a_edge4_Node000003_Node000004"><a xlink:title=" ">
<path fill="none" stroke="#63b8ff" d="M148.5,-455.1C148.4,-440.21 148.29,-424.56 148.19,-408.83"/>
<polygon fill="none" stroke="#63b8ff" points="148.19,-409.12 144.15,-403.15 148.11,-397.12 152.15,-403.09 148.19,-409.12"/>
</a>
</g>
<text text-anchor="middle" x="179.53" y="-421.62" font-family="Helvetica,sans-Serif" font-size="10.00" fill="grey"> &#45;mediaObject</text>
</g>
<!-- Node5 -->
<g id="Node000005" class="node">
<title>Node5</title>
<g id="a_Node000005"><a xlink:title=" ">
<polygon fill="white" stroke="none" points="251.15,-578.75 231.15,-578.75 231.15,-529.75 251.15,-529.75 251.15,-578.75"/>
<text text-anchor="start" x="235.9" y="-565.25" font-family="Helvetica,sans-Serif" font-size="10.00">int</text>
<text text-anchor="start" x="239.65" y="-550.25" font-family="Helvetica,sans-Serif" font-size="10.00"> </text>
<text text-anchor="start" x="239.65" y="-535.25" font-family="Helvetica,sans-Serif" font-size="10.00"> </text>
<polygon fill="#666666" stroke="#666666" points="231.15,-561.75 231.15,-561.75 251.15,-561.75 251.15,-561.75 231.15,-561.75"/>
<polygon fill="#666666" stroke="#666666" points="231.15,-546.75 231.15,-546.75 251.15,-546.75 251.15,-546.75 231.15,-546.75"/>
<polygon fill="none" stroke="#666666" points="231.15,-529.75 231.15,-578.75 251.15,-578.75 251.15,-529.75 231.15,-529.75"/>
</a>
</g>
</g>
<!-- Node5&#45;&gt;Node3 -->
<g id="edge5_Node000003_Node000005" class="edge">
<title>Node5&#45;&gt;Node3</title>
<g id="a_edge5_Node000003_Node000005"><a xlink:title=" ">
<path fill="none" stroke="#63b8ff" d="M238.1,-529.77C234.12,-501.85 226.22,-454 214.15,-414.25 213.55,-412.27 212.94,-410.28 212.3,-408.28"/>
<polygon fill="none" stroke="#63b8ff" points="212.28,-408.2 206.6,-403.76 208.52,-396.81 214.2,-401.25 212.28,-408.2"/>
</a>
</g>
<text text-anchor="middle" x="254.53" y="-427.25" font-family="Helvetica,sans-Serif" font-size="10.00" fill="grey"> &#45;inputStreams</text>
<text text-anchor="middle" x="254.53" y="-416" font-family="Helvetica,sans-Serif" font-size="10.00" fill="grey">&#45;outputStreams</text>
</g>
<!-- Node6 -->
<g id="Node000006" class="node">
<title>Node6</title>
<g id="a_Node000006"><a xlink:href="interface_n_audio_1_1_core_audio_api_1_1_interfaces_1_1_i_property_store.html" target="_top" xlink:title="is defined in propsys.h">
<polygon fill="white" stroke="none" points="396.15,-313.75 242.15,-313.75 242.15,-193.75 396.15,-193.75 396.15,-313.75"/>
<text text-anchor="start" x="246.78" y="-300.25" font-family="Helvetica,sans-Serif" font-size="10.00">NAudio.CoreAudioApi.Interfaces.</text>
<text text-anchor="start" x="287.65" y="-289" font-family="Helvetica,sans-Serif" font-size="10.00">IPropertyStore</text>
<text text-anchor="start" x="317.65" y="-274.25" font-family="Helvetica,sans-Serif" font-size="10.00"> </text>
<text text-anchor="start" x="268.15" y="-259.25" font-family="Helvetica,sans-Serif" font-size="10.00">+</text>
<text text-anchor="start" x="300.15" y="-259.25" font-family="Helvetica,sans-Serif" font-size="10.00">GetCount()</text>
<text text-anchor="start" x="268.15" y="-244.25" font-family="Helvetica,sans-Serif" font-size="10.00">+</text>
<text text-anchor="start" x="300.15" y="-244.25" font-family="Helvetica,sans-Serif" font-size="10.00">GetAt()</text>
<text text-anchor="start" x="268.15" y="-229.25" font-family="Helvetica,sans-Serif" font-size="10.00">+</text>
<text text-anchor="start" x="300.15" y="-229.25" font-family="Helvetica,sans-Serif" font-size="10.00">GetValue()</text>
<text text-anchor="start" x="268.15" y="-214.25" font-family="Helvetica,sans-Serif" font-size="10.00">+</text>
<text text-anchor="start" x="300.15" y="-214.25" font-family="Helvetica,sans-Serif" font-size="10.00">SetValue()</text>
<text text-anchor="start" x="268.15" y="-199.25" font-family="Helvetica,sans-Serif" font-size="10.00">+</text>
<text text-anchor="start" x="300.15" y="-199.25" font-family="Helvetica,sans-Serif" font-size="10.00">Commit()</text>
<polygon fill="#666666" stroke="#666666" points="242.15,-285.75 242.15,-285.75 396.15,-285.75 396.15,-285.75 242.15,-285.75"/>
<polygon fill="#666666" stroke="#666666" points="242.15,-270.75 242.15,-270.75 396.15,-270.75 396.15,-270.75 242.15,-270.75"/>
<polygon fill="none" stroke="#666666" points="242.15,-193.75 242.15,-313.75 396.15,-313.75 396.15,-193.75 242.15,-193.75"/>
</a>
</g>
</g>
<!-- Node6&#45;&gt;Node1 -->
<g id="edge6_Node000001_Node000006" class="edge">
<title>Node6&#45;&gt;Node1</title>
<g id="a_edge6_Node000001_Node000006"><a xlink:title=" ">
<path fill="none" stroke="#63b8ff" d="M319.15,-193.86C319.15,-156.94 319.15,-110.14 319.15,-76.55"/>
<polygon fill="none" stroke="#63b8ff" points="319.15,-76.83 315.15,-70.83 319.15,-64.83 323.15,-70.83 319.15,-76.83"/>
</a>
</g>
<text text-anchor="middle" x="370.53" y="-83.75" font-family="Helvetica,sans-Serif" font-size="10.00" fill="grey"> &#45;propertyStoreInterface</text>
</g>
<!-- Node7 -->
<g id="Node000007" class="node">
<title>Node7</title>
<g id="a_Node000007"><a xlink:href="interface_n_audio_1_1_dmo_1_1_i_w_m_resampler_props.html" target="_top" xlink:title="Windows Media Resampler Props wmcodecdsp.h.">
<polygon fill="white" stroke="none" points="577.65,-285.75 414.65,-285.75 414.65,-221.75 577.65,-221.75 577.65,-285.75"/>
<text text-anchor="start" x="419.65" y="-272.25" font-family="Helvetica,sans-Serif" font-size="10.00">NAudio.Dmo.IWMResamplerProps</text>
<text text-anchor="start" x="494.65" y="-257.25" font-family="Helvetica,sans-Serif" font-size="10.00"> </text>
<text text-anchor="start" x="431.15" y="-242.25" font-family="Helvetica,sans-Serif" font-size="10.00">+</text>
<text text-anchor="start" x="453.65" y="-242.25" font-family="Helvetica,sans-Serif" font-size="10.00">SetHalfFilterLength()</text>
<text text-anchor="start" x="431.15" y="-227.25" font-family="Helvetica,sans-Serif" font-size="10.00">+</text>
<text text-anchor="start" x="453.65" y="-227.25" font-family="Helvetica,sans-Serif" font-size="10.00">SetUserChannelMtx()</text>
<polygon fill="#666666" stroke="#666666" points="414.65,-268.75 414.65,-268.75 577.65,-268.75 577.65,-268.75 414.65,-268.75"/>
<polygon fill="#666666" stroke="#666666" points="414.65,-253.75 414.65,-253.75 577.65,-253.75 577.65,-253.75 414.65,-253.75"/>
<polygon fill="none" stroke="#666666" points="414.65,-221.75 414.65,-285.75 577.65,-285.75 577.65,-221.75 414.65,-221.75"/>
</a>
</g>
</g>
<!-- Node7&#45;&gt;Node1 -->
<g id="edge7_Node000001_Node000007" class="edge">
<title>Node7&#45;&gt;Node1</title>
<g id="a_edge7_Node000001_Node000007"><a xlink:title=" ">
<path fill="none" stroke="#63b8ff" d="M490.68,-221.85C482.59,-184.43 464.1,-121.51 426.15,-82 418.34,-73.86 408.92,-66.96 398.95,-61.13"/>
<polygon fill="none" stroke="#63b8ff" points="398.88,-61.09 391.7,-61.78 388.3,-55.42 395.48,-54.73 398.88,-61.09"/>
</a>
</g>
<text text-anchor="middle" x="491.4" y="-83.75" font-family="Helvetica,sans-Serif" font-size="10.00" fill="grey"> &#45;resamplerPropsInterface</text>
</g>
<!-- Node8 -->
<g id="Node000008" class="node">
<title>Node8</title>
<g id="a_Node000008"><a xlink:href="class_n_audio_1_1_dmo_1_1_resampler_media_com_object.html" target="_top" xlink:title="From wmcodecsdp.h Implements:">
<polygon fill="white" stroke="none" points="738.15,-283.75 596.15,-283.75 596.15,-223.75 738.15,-223.75 738.15,-283.75"/>
<text text-anchor="start" x="600.78" y="-270.25" font-family="Helvetica,sans-Serif" font-size="10.00">NAudio.Dmo.ResamplerMedia</text>
<text text-anchor="start" x="642.4" y="-259" font-family="Helvetica,sans-Serif" font-size="10.00">ComObject</text>
<text text-anchor="start" x="665.65" y="-244.25" font-family="Helvetica,sans-Serif" font-size="10.00"> </text>
<text text-anchor="start" x="665.65" y="-229.25" font-family="Helvetica,sans-Serif" font-size="10.00"> </text>
<polygon fill="#666666" stroke="#666666" points="596.15,-255.75 596.15,-255.75 738.15,-255.75 738.15,-255.75 596.15,-255.75"/>
<polygon fill="#666666" stroke="#666666" points="596.15,-240.75 596.15,-240.75 738.15,-240.75 738.15,-240.75 596.15,-240.75"/>
<polygon fill="none" stroke="#666666" points="596.15,-223.75 596.15,-283.75 738.15,-283.75 738.15,-223.75 596.15,-223.75"/>
</a>
</g>
</g>
<!-- Node8&#45;&gt;Node1 -->
<g id="edge8_Node000001_Node000008" class="edge">
<title>Node8&#45;&gt;Node1</title>
<g id="a_edge8_Node000001_Node000008"><a xlink:title=" ">
<path fill="none" stroke="#63b8ff" d="M658.07,-223.96C643.37,-183.09 610.03,-110.08 552.15,-82 504.65,-58.95 446.54,-46.7 400.23,-40.22"/>
<polygon fill="none" stroke="#63b8ff" points="400.3,-40.23 393.82,-43.41 388.4,-38.65 394.87,-35.47 400.3,-40.23"/>
</a>
</g>
<text text-anchor="middle" x="611.03" y="-83.75" font-family="Helvetica,sans-Serif" font-size="10.00" fill="grey"> &#45;mediaComObject</text>
</g>
</g>
</svg>

<g id="navigator" transform="translate(0 0)" fill="#404254">
  <rect fill="#f2f5e9" fill-opacity="0.5" stroke="#606060" stroke-width=".5" x="0" y="0" width="60" height="60"/>
  <use id="zoomplus" xlink:href="#zoomPlus" x="17" y="9" onmousedown="handleZoom(evt,'in')"/>
  <use id="zoomminus" xlink:href="#zoomMin" x="42" y="9" onmousedown="handleZoom(evt,'out')"/>
  <use id="reset" xlink:href="#resetDef" x="30" y="36" onmousedown="handleReset()"/>
   <use id="arrowup" xlink:href="#arrowUp" x="0" y="0" onmousedown="handlePan(0,-1)"/>
  <use id="arrowright" xlink:href="#arrowRight" x="0" y="0" onmousedown="handlePan(1,0)"/>
  <use id="arrowdown" xlink:href="#arrowDown" x="0" y="0" onmousedown="handlePan(0,1)"/>
  <use id="arrowleft" xlink:href="#arrowLeft" x="0" y="0" onmousedown="handlePan(-1,0)"/>
</g>
<svg viewBox="0 0 15 15" width="100%" height="30px" preserveAspectRatio="xMaxYMin meet">
 <g id="arrow_out" transform="scale(0.3 0.3)">
  <a xlink:href="class_n_audio_1_1_dmo_1_1_dmo_resampler__coll__graph_org.svg" target="_base">
   <rect id="button" ry="5" rx="5" y="6" x="6" height="38" width="38"
        fill="#f2f5e9" fill-opacity="0.5" stroke="#606060" stroke-width="1.0"/>
   <path id="arrow"
     d="M 11.500037,31.436501 C 11.940474,20.09759 22.043105,11.32322 32.158766,21.979434 L 37.068811,17.246167 C 37.068811,17.246167 37.088388,32 37.088388,32 L 22.160133,31.978069 C 22.160133,31.978069 26.997745,27.140456 26.997745,27.140456 C 18.528582,18.264221 13.291696,25.230495 11.500037,31.436501 z"
     style="fill:#404040;"/>
  </a>
 </g>
</svg>

<style type='text/css'>
<![CDATA[
[data-mouse-over-selected='false'] { opacity: 0.7; }
[data-mouse-over-selected='true']  { opacity: 1.0; }
]]>
</style>
<script type="application/ecmascript"><![CDATA[
document.addEventListener('DOMContentLoaded', (event) => {
  highlightEdges();
  highlightAdjacentNodes();
});
]]></script>
</svg>
