<?xml version="1.0" encoding="UTF-8" standalone="no"?>
<!DOCTYPE svg PUBLIC "-//W3C//DTD SVG 1.1//EN"
 "http://www.w3.org/Graphics/SVG/1.1/DTD/svg11.dtd">
<!-- Generated by graphviz version 10.0.1 (20240210.2158)
 -->
<!-- Title: xeno_rat_server.Forms.Hvnc.ProcessCmdKey Pages: 1 -->
<!--zoomable 437 -->

<svg id="main" version="1.1" xmlns="http://www.w3.org/2000/svg" xmlns:xlink="http://www.w3.org/1999/xlink" xml:space="preserve" onload="init(evt)">
<style type="text/css"><![CDATA[
.node, .edge {opacity: 0.7;}
.node.selected, .edge.selected {opacity: 1;}
.edge:hover path { stroke: red; }
.edge:hover polygon { stroke: red; fill: red; }
]]></style>

<defs>
  <circle id="rim" cx="0" cy="0" r="7"/>
  <circle id="rim2" cx="0" cy="0" r="3.5"/>
  <g id="zoomPlus">
    <use xlink:href="#rim" fill="#404040"><set attributeName="fill" to="#808080" begin="zoomplus.mouseover" end="zoomplus.mouseout"/></use>
    <path d="M-4,0h8M0,-4v8" fill="none" stroke="white" stroke-width="1.5" pointer-events="none"/>
  </g>
  <g id="zoomMin">
    <use xlink:href="#rim" fill="#404040"><set attributeName="fill" to="#808080" begin="zoomminus.mouseover" end="zoomminus.mouseout"/></use>
    <path d="M-4,0h8" fill="none" stroke="white" stroke-width="1.5" pointer-events="none"/>
  </g>
  <g id="arrowUp" transform="translate(30 24)">
    <use xlink:href="#rim"/>
    <path pointer-events="none" fill="none" stroke="white" stroke-width="1.5" d="M0,-3.0v7 M-2.5,-0.5L0,-3.0L2.5,-0.5"/>
  </g>
  <g id="arrowRight" transform="rotate(90) translate(36 -43)">
    <use xlink:href="#rim"/>
    <path pointer-events="none" fill="none" stroke="white" stroke-width="1.5" d="M0,-3.0v7 M-2.5,-0.5L0,-3.0L2.5,-0.5"/>
  </g>
  <g id="arrowDown" transform="rotate(180) translate(-30 -48)">
    <use xlink:href="#rim"/>
    <path pointer-events="none" fill="none" stroke="white" stroke-width="1.5" d="M0,-3.0v7 M-2.5,-0.5L0,-3.0L2.5,-0.5"/>
  </g>
  <g id="arrowLeft" transform="rotate(270) translate(-36 17)">
    <use xlink:href="#rim"/>
    <path pointer-events="none" fill="none" stroke="white" stroke-width="1.5" d="M0,-3.0v7 M-2.5,-0.5L0,-3.0L2.5,-0.5"/>
  </g>
  <g id="resetDef">
    <use xlink:href="#rim2" fill="#404040"><set attributeName="fill" to="#808080" begin="reset.mouseover" end="reset.mouseout"/></use>
  </g>
</defs>
<script type="application/ecmascript">
var viewWidth = 1364;
var viewHeight = 437;
var sectionId = 'dynsection-43';
</script>
<script type="application/ecmascript" xlink:href="svg.min.js"/>
<svg id="graph" class="graph">
<g id="viewport">
<title>xeno_rat_server.Forms.Hvnc.ProcessCmdKey</title>
<!-- Node1 -->
<g id="Node000001" class="node">
<title>Node1</title>
<g id="a_Node000001"><a xlink:title="Processes a command key and triggers the WndProc method for a custom picture box control.">
<polygon fill="#999999" stroke="#666666" points="145,-192.5 0,-192.5 0,-162 145,-162 145,-192.5"/>
<text text-anchor="start" x="8" y="-179" font-family="Helvetica,sans-Serif" font-size="10.00">xeno_rat_server.Forms.Hvnc.</text>
<text text-anchor="middle" x="72.5" y="-167.75" font-family="Helvetica,sans-Serif" font-size="10.00">ProcessCmdKey</text>
</a>
</g>
</g>
<!-- Node2 -->
<g id="Node000002" class="node">
<title>Node2</title>
<g id="a_Node000002"><a xlink:href="classxeno__rat__server_1_1_forms_1_1_custom_picture_box.html#a88f38923ee026a00b6b3300c0bfe65a2" target="_top" xlink:title="Triggers the window procedure for processing Windows messages.">
<polygon fill="white" stroke="#666666" points="334.25,-192.5 181,-192.5 181,-162 334.25,-162 334.25,-192.5"/>
<text text-anchor="start" x="189" y="-179" font-family="Helvetica,sans-Serif" font-size="10.00">xeno_rat_server.Forms.Custom</text>
<text text-anchor="middle" x="257.62" y="-167.75" font-family="Helvetica,sans-Serif" font-size="10.00">PictureBox.TriggerWndProc</text>
</a>
</g>
</g>
<!-- Node1&#45;&gt;Node2 -->
<g id="edge1_Node000001_Node000002" class="edge">
<title>Node1&#45;&gt;Node2</title>
<g id="a_edge1_Node000001_Node000002"><a xlink:title=" ">
<path fill="none" stroke="#63b8ff" d="M145.35,-177.25C153.25,-177.25 161.36,-177.25 169.42,-177.25"/>
<polygon fill="#63b8ff" stroke="#63b8ff" points="169.24,-180.75 179.24,-177.25 169.24,-173.75 169.24,-180.75"/>
</a>
</g>
</g>
<!-- Node3 -->
<g id="Node000003" class="node">
<title>Node3</title>
<g id="a_Node000003"><a xlink:href="classxeno__rat__server_1_1_forms_1_1_custom_picture_box.html#ab76cecaae3d3e1b0201bbc9dac019e64" target="_top" xlink:title="Overrides the WndProc method to handle window messages and sends corresponding data to the client.">
<polygon fill="white" stroke="#666666" points="523.5,-192.5 370.25,-192.5 370.25,-162 523.5,-162 523.5,-192.5"/>
<text text-anchor="start" x="378.25" y="-179" font-family="Helvetica,sans-Serif" font-size="10.00">xeno_rat_server.Forms.Custom</text>
<text text-anchor="middle" x="446.88" y="-167.75" font-family="Helvetica,sans-Serif" font-size="10.00">PictureBox.WndProc</text>
</a>
</g>
</g>
<!-- Node2&#45;&gt;Node3 -->
<g id="edge2_Node000002_Node000003" class="edge">
<title>Node2&#45;&gt;Node3</title>
<g id="a_edge2_Node000002_Node000003"><a xlink:title=" ">
<path fill="none" stroke="#63b8ff" d="M334.52,-177.25C342.44,-177.25 350.54,-177.25 358.58,-177.25"/>
<polygon fill="#63b8ff" stroke="#63b8ff" points="358.36,-180.75 368.36,-177.25 358.36,-173.75 358.36,-180.75"/>
</a>
</g>
</g>
<!-- Node4 -->
<g id="Node000004" class="node">
<title>Node4</title>
<g id="a_Node000004"><a xlink:href="classxeno__rat__server_1_1_socket_handler.html#a4f2e993b63cf1bba877781c9be2ed496" target="_top" xlink:title="Concatenates two byte arrays and returns the result.">
<polygon fill="white" stroke="#666666" points="1132.12,-404.5 977.38,-404.5 977.38,-374 1132.12,-374 1132.12,-404.5"/>
<text text-anchor="start" x="985.38" y="-391" font-family="Helvetica,sans-Serif" font-size="10.00">xeno_rat_server.SocketHandler.</text>
<text text-anchor="middle" x="1054.75" y="-379.75" font-family="Helvetica,sans-Serif" font-size="10.00">Concat</text>
</a>
</g>
</g>
<!-- Node3&#45;&gt;Node4 -->
<g id="edge3_Node000003_Node000004" class="edge">
<title>Node3&#45;&gt;Node4</title>
<g id="a_edge3_Node000003_Node000004"><a xlink:title=" ">
<path fill="none" stroke="#63b8ff" d="M456.76,-192.88C473.31,-220.58 511.6,-278.31 559.5,-309.25 683.66,-389.46 860.96,-398.41 966.01,-395.38"/>
<polygon fill="#63b8ff" stroke="#63b8ff" points="965.81,-398.88 975.69,-395.05 965.58,-391.89 965.81,-398.88"/>
</a>
</g>
</g>
<!-- Node5 -->
<g id="Node000005" class="node">
<title>Node5</title>
<g id="a_Node000005"><a xlink:href="classxeno__rat__server_1_1_forms_1_1_custom_picture_box.html#a6fd202b56bb2a04df9637483ef1b2f9c" target="_top" xlink:title="Retrieves the status of the specified virtual key. The status specifies whether the key is up,...">
<polygon fill="white" stroke="#666666" points="716.12,-214.5 562.88,-214.5 562.88,-184 716.12,-184 716.12,-214.5"/>
<text text-anchor="start" x="570.88" y="-201" font-family="Helvetica,sans-Serif" font-size="10.00">xeno_rat_server.Forms.Custom</text>
<text text-anchor="middle" x="639.5" y="-189.75" font-family="Helvetica,sans-Serif" font-size="10.00">PictureBox.GetKeyState</text>
</a>
</g>
</g>
<!-- Node3&#45;&gt;Node5 -->
<g id="edge4_Node000003_Node000005" class="edge">
<title>Node3&#45;&gt;Node5</title>
<g id="a_edge4_Node000003_Node000005"><a xlink:title=" ">
<path fill="none" stroke="#63b8ff" d="M523.76,-186.01C532.84,-187.06 542.17,-188.13 551.39,-189.2"/>
<polygon fill="#63b8ff" stroke="#63b8ff" points="550.72,-192.64 561.06,-190.31 551.53,-185.69 550.72,-192.64"/>
</a>
</g>
</g>
<!-- Node6 -->
<g id="Node000006" class="node">
<title>Node6</title>
<g id="a_Node000006"><a xlink:href="classxeno__rat__server_1_1_forms_1_1_custom_picture_box.html#a42d8fa8741cbda40c8784fc9ce8b2db7" target="_top" xlink:title="Gets the modified key corresponding to the input character.">
<polygon fill="white" stroke="#666666" points="716.12,-128.5 562.88,-128.5 562.88,-98 716.12,-98 716.12,-128.5"/>
<text text-anchor="start" x="570.88" y="-115" font-family="Helvetica,sans-Serif" font-size="10.00">xeno_rat_server.Forms.Custom</text>
<text text-anchor="middle" x="639.5" y="-103.75" font-family="Helvetica,sans-Serif" font-size="10.00">PictureBox.GetModifiedKey</text>
</a>
</g>
</g>
<!-- Node3&#45;&gt;Node6 -->
<g id="edge5_Node000003_Node000006" class="edge">
<title>Node3&#45;&gt;Node6</title>
<g id="a_edge5_Node000003_Node000006"><a xlink:title=" ">
<path fill="none" stroke="#63b8ff" d="M494.51,-161.59C520.59,-152.84 553.31,-141.85 580.97,-132.57"/>
<polygon fill="#63b8ff" stroke="#63b8ff" points="581.89,-135.95 590.25,-129.45 579.66,-129.31 581.89,-135.95"/>
</a>
</g>
</g>
<!-- Node7 -->
<g id="Node000007" class="node">
<title>Node7</title>
<g id="a_Node000007"><a xlink:href="classxeno__rat__server_1_1_forms_1_1_custom_picture_box.html#a7ef096a40399d0a57be5ccf36b2d469e" target="_top" xlink:title="Translates the specified virtual&#45;key code and keyboard state to the corresponding character or charac...">
<polygon fill="white" stroke="#666666" points="917,-171.5 763.75,-171.5 763.75,-141 917,-141 917,-171.5"/>
<text text-anchor="start" x="771.75" y="-158" font-family="Helvetica,sans-Serif" font-size="10.00">xeno_rat_server.Forms.Custom</text>
<text text-anchor="middle" x="840.38" y="-146.75" font-family="Helvetica,sans-Serif" font-size="10.00">PictureBox.ToAscii</text>
</a>
</g>
</g>
<!-- Node3&#45;&gt;Node7 -->
<g id="edge22_Node000003_Node000007" class="edge">
<title>Node3&#45;&gt;Node7</title>
<g id="a_edge22_Node000003_Node000007"><a xlink:title=" ">
<path fill="none" stroke="#63b8ff" d="M523.82,-173.18C589.23,-169.67 683.62,-164.6 752.11,-160.93"/>
<polygon fill="#63b8ff" stroke="#63b8ff" points="751.99,-164.44 761.79,-160.41 751.62,-157.45 751.99,-164.44"/>
</a>
</g>
</g>
<!-- Node9 -->
<g id="Node000009" class="node">
<title>Node9</title>
<g id="a_Node000009"><a xlink:href="classxeno__rat__server_1_1_socket_handler.html#a7d019c5e4cbd0138d155156c7a7c5a8f" target="_top" xlink:title="Converts an integer to a byte array.">
<polygon fill="white" stroke="#666666" points="1132.12,-257.5 977.38,-257.5 977.38,-227 1132.12,-227 1132.12,-257.5"/>
<text text-anchor="start" x="985.38" y="-244" font-family="Helvetica,sans-Serif" font-size="10.00">xeno_rat_server.SocketHandler.</text>
<text text-anchor="middle" x="1054.75" y="-232.75" font-family="Helvetica,sans-Serif" font-size="10.00">IntToBytes</text>
</a>
</g>
</g>
<!-- Node3&#45;&gt;Node9 -->
<g id="edge8_Node000003_Node000009" class="edge">
<title>Node3&#45;&gt;Node9</title>
<g id="a_edge8_Node000003_Node000009"><a xlink:title=" ">
<path fill="none" stroke="#63b8ff" d="M477.73,-192.95C499.69,-203.64 530.62,-216.95 559.5,-223.25 699.06,-253.68 865.93,-252.58 965.69,-248.09"/>
<polygon fill="#63b8ff" stroke="#63b8ff" points="965.59,-251.6 975.41,-247.63 965.26,-244.6 965.59,-251.6"/>
</a>
</g>
</g>
<!-- Node10 -->
<g id="Node000010" class="node">
<title>Node10</title>
<g id="a_Node000010"><a xlink:href="classxeno__rat__server_1_1_forms_1_1_custom_picture_box.html#abf78a3c35658cf3e755285c3d59ddd59" target="_top" xlink:title="Checks if the input character is alphanumeric.">
<polygon fill="white" stroke="#666666" points="716.12,-79.5 562.88,-79.5 562.88,-49 716.12,-49 716.12,-79.5"/>
<text text-anchor="start" x="570.88" y="-66" font-family="Helvetica,sans-Serif" font-size="10.00">xeno_rat_server.Forms.Custom</text>
<text text-anchor="middle" x="639.5" y="-54.75" font-family="Helvetica,sans-Serif" font-size="10.00">PictureBox.IsAlphaNumeric</text>
</a>
</g>
</g>
<!-- Node3&#45;&gt;Node10 -->
<g id="edge9_Node000003_Node000010" class="edge">
<title>Node3&#45;&gt;Node10</title>
<g id="a_edge9_Node000003_Node000010"><a xlink:title=" ">
<path fill="none" stroke="#63b8ff" d="M463.57,-161.8C484.06,-142.39 521.77,-109.23 559.5,-89.25 562.91,-87.44 566.47,-85.74 570.11,-84.14"/>
<polygon fill="#63b8ff" stroke="#63b8ff" points="571.2,-87.48 579.15,-80.47 568.56,-81 571.2,-87.48"/>
</a>
</g>
</g>
<!-- Node11 -->
<g id="Node000011" class="node">
<title>Node11</title>
<g id="a_Node000011"><a xlink:href="classxeno__rat__server_1_1_node.html#a816e267eb31862d38c21e5faaae3061d" target="_top" xlink:title="Sends the provided data asynchronously and returns a boolean indicating the success of the operation.">
<polygon fill="white" stroke="#666666" points="707.88,-300.5 571.12,-300.5 571.12,-270 707.88,-270 707.88,-300.5"/>
<text text-anchor="start" x="579.12" y="-287" font-family="Helvetica,sans-Serif" font-size="10.00">xeno_rat_server.Node.Send</text>
<text text-anchor="middle" x="639.5" y="-275.75" font-family="Helvetica,sans-Serif" font-size="10.00">Async</text>
</a>
</g>
</g>
<!-- Node3&#45;&gt;Node11 -->
<g id="edge10_Node000003_Node000011" class="edge">
<title>Node3&#45;&gt;Node11</title>
<g id="a_edge10_Node000003_Node000011"><a xlink:title=" ">
<path fill="none" stroke="#63b8ff" d="M466.63,-192.88C488.03,-210.14 524.61,-237.92 559.5,-256.25 565.7,-259.51 572.34,-262.56 579.05,-265.37"/>
<polygon fill="#63b8ff" stroke="#63b8ff" points="577.59,-268.56 588.18,-269.02 580.19,-262.06 577.59,-268.56"/>
</a>
</g>
</g>
<!-- Node20 -->
<g id="Node000020" class="node">
<title>Node20</title>
<g id="a_Node000020"><a xlink:href="classxeno__rat__server_1_1_forms_1_1_custom_picture_box.html#a9ba6bd36eae383838cebee58ef3e56ed" target="_top" xlink:title="Translates the coordinates from the original screen size to the target control&#39;s image size and retur...">
<polygon fill="white" stroke="#666666" points="719.5,-30.5 559.5,-30.5 559.5,0 719.5,0 719.5,-30.5"/>
<text text-anchor="start" x="567.5" y="-17" font-family="Helvetica,sans-Serif" font-size="10.00">xeno_rat_server.Forms.Custom</text>
<text text-anchor="middle" x="639.5" y="-5.75" font-family="Helvetica,sans-Serif" font-size="10.00">PictureBox.TranslateCoordinates</text>
</a>
</g>
</g>
<!-- Node3&#45;&gt;Node20 -->
<g id="edge23_Node000003_Node000020" class="edge">
<title>Node3&#45;&gt;Node20</title>
<g id="a_edge23_Node000003_Node000020"><a xlink:title=" ">
<path fill="none" stroke="#63b8ff" d="M456.44,-161.61C472.75,-133.24 511.03,-73.18 559.5,-40.25 561.71,-38.75 564.01,-37.33 566.39,-36"/>
<polygon fill="#63b8ff" stroke="#63b8ff" points="567.73,-39.24 575.12,-31.65 564.61,-32.98 567.73,-39.24"/>
</a>
</g>
</g>
<!-- Node6&#45;&gt;Node7 -->
<g id="edge6_Node000006_Node000007" class="edge">
<title>Node6&#45;&gt;Node7</title>
<g id="a_edge6_Node000006_Node000007"><a xlink:title=" ">
<path fill="none" stroke="#63b8ff" d="M713.14,-128.96C726.89,-131.93 741.37,-135.06 755.43,-138.1"/>
<polygon fill="#63b8ff" stroke="#63b8ff" points="754.6,-141.5 765.12,-140.19 756.08,-134.66 754.6,-141.5"/>
</a>
</g>
</g>
<!-- Node8 -->
<g id="Node000008" class="node">
<title>Node8</title>
<g id="a_Node000008"><a xlink:href="classxeno__rat__server_1_1_forms_1_1_custom_picture_box.html#ada0c260322500d4349f18549ab012077" target="_top" xlink:title="Translates a Unicode character to the corresponding virtual&#45;key code and shift state for the current ...">
<polygon fill="white" stroke="#666666" points="917,-122.5 763.75,-122.5 763.75,-92 917,-92 917,-122.5"/>
<text text-anchor="start" x="771.75" y="-109" font-family="Helvetica,sans-Serif" font-size="10.00">xeno_rat_server.Forms.Custom</text>
<text text-anchor="middle" x="840.38" y="-97.75" font-family="Helvetica,sans-Serif" font-size="10.00">PictureBox.VkKeyScan</text>
</a>
</g>
</g>
<!-- Node6&#45;&gt;Node8 -->
<g id="edge7_Node000006_Node000008" class="edge">
<title>Node6&#45;&gt;Node8</title>
<g id="a_edge7_Node000006_Node000008"><a xlink:title=" ">
<path fill="none" stroke="#63b8ff" d="M716.54,-110.96C728.17,-110.6 740.26,-110.24 752.11,-109.88"/>
<polygon fill="#63b8ff" stroke="#63b8ff" points="751.98,-113.39 761.87,-109.59 751.77,-106.39 751.98,-113.39"/>
</a>
</g>
</g>
<!-- Node12 -->
<g id="Node000012" class="node">
<title>Node12</title>
<g id="a_Node000012"><a xlink:href="classxeno__rat__server_1_1_node.html#a8814edd98b6463f49812be32d5928763" target="_top" xlink:title="Sets the isDisposed flag to true and disconnects the socket, disposes resources, and triggers the OnD...">
<polygon fill="white" stroke="#666666" points="922.25,-289.88 758.5,-289.88 758.5,-270.62 922.25,-270.62 922.25,-289.88"/>
<text text-anchor="middle" x="840.38" y="-276.38" font-family="Helvetica,sans-Serif" font-size="10.00">xeno_rat_server.Node.Disconnect</text>
</a>
</g>
</g>
<!-- Node11&#45;&gt;Node12 -->
<g id="edge11_Node000011_Node000012" class="edge">
<title>Node11&#45;&gt;Node12</title>
<g id="a_edge11_Node000011_Node000012"><a xlink:title=" ">
<path fill="none" stroke="#63b8ff" d="M708.11,-283.55C720.56,-283.24 733.76,-282.91 746.8,-282.58"/>
<polygon fill="#63b8ff" stroke="#63b8ff" points="746.78,-286.08 756.69,-282.33 746.6,-279.08 746.78,-286.08"/>
</a>
</g>
</g>
<!-- Node13 -->
<g id="Node000013" class="node">
<title>Node13</title>
<g id="a_Node000013"><a xlink:href="classxeno__rat__server_1_1_socket_handler.html#a85ca8385d023521cdb86ff8ae688adee" target="_top" xlink:title="Sends the provided data asynchronously over the socket.">
<polygon fill="white" stroke="#666666" points="917.75,-356.5 763,-356.5 763,-326 917.75,-326 917.75,-356.5"/>
<text text-anchor="start" x="771" y="-343" font-family="Helvetica,sans-Serif" font-size="10.00">xeno_rat_server.SocketHandler.</text>
<text text-anchor="middle" x="840.38" y="-331.75" font-family="Helvetica,sans-Serif" font-size="10.00">SendAsync</text>
</a>
</g>
</g>
<!-- Node11&#45;&gt;Node13 -->
<g id="edge13_Node000011_Node000013" class="edge">
<title>Node11&#45;&gt;Node13</title>
<g id="a_edge13_Node000011_Node000013"><a xlink:title=" ">
<path fill="none" stroke="#63b8ff" d="M696.43,-301C720.15,-307.68 747.98,-315.51 772.75,-322.49"/>
<polygon fill="#63b8ff" stroke="#63b8ff" points="771.49,-325.77 782.07,-325.11 773.39,-319.03 771.49,-325.77"/>
</a>
</g>
</g>
<!-- Node12&#45;&gt;Node12 -->
<g id="edge12_Node000012_Node000012" class="edge">
<title>Node12&#45;&gt;Node12</title>
<g id="a_edge12_Node000012_Node000012"><a xlink:title=" ">
<path fill="none" stroke="#63b8ff" d="M808.93,-290.16C794.58,-298.77 805.06,-307.88 840.38,-307.88 861.34,-307.88 873.55,-304.67 877.01,-300.26"/>
<polygon fill="#63b8ff" stroke="#63b8ff" points="880.2,-298.8 872.52,-291.51 873.98,-302 880.2,-298.8"/>
</a>
</g>
</g>
<!-- Node13&#45;&gt;Node4 -->
<g id="edge19_Node000013_Node000004" class="edge">
<title>Node13&#45;&gt;Node4</title>
<g id="a_edge19_Node000013_Node000004"><a xlink:title=" ">
<path fill="none" stroke="#63b8ff" d="M910.91,-356.97C930.91,-361.49 952.88,-366.45 973.47,-371.11"/>
<polygon fill="#63b8ff" stroke="#63b8ff" points="972.42,-374.46 982.94,-373.25 973.96,-367.63 972.42,-374.46"/>
</a>
</g>
</g>
<!-- Node13&#45;&gt;Node9 -->
<g id="edge21_Node000013_Node000009" class="edge">
<title>Node13&#45;&gt;Node9</title>
<g id="a_edge21_Node000013_Node000009"><a xlink:title=" ">
<path fill="none" stroke="#63b8ff" d="M910.43,-325.68C915.65,-323.27 920.67,-320.47 925.25,-317.25 947.65,-301.5 938.73,-282.83 961.25,-267.25 963.36,-265.79 965.56,-264.41 967.81,-263.12"/>
<polygon fill="#63b8ff" stroke="#63b8ff" points="969.37,-266.25 976.72,-258.62 966.21,-260 969.37,-266.25"/>
</a>
</g>
</g>
<!-- Node14 -->
<g id="Node000014" class="node">
<title>Node14</title>
<g id="a_Node000014"><a xlink:href="classxeno__rat__server_1_1_compression.html#a0f3f31a2fe34d92bf04538b2fdf529e0" target="_top" xlink:title="Compresses the input buffer using the LZNT1 compression format and returns the compressed data.">
<polygon fill="white" stroke="#666666" points="1129.12,-355.5 980.38,-355.5 980.38,-325 1129.12,-325 1129.12,-355.5"/>
<text text-anchor="start" x="988.38" y="-342" font-family="Helvetica,sans-Serif" font-size="10.00">xeno_rat_server.Compression.</text>
<text text-anchor="middle" x="1054.75" y="-330.75" font-family="Helvetica,sans-Serif" font-size="10.00">Compress</text>
</a>
</g>
</g>
<!-- Node13&#45;&gt;Node14 -->
<g id="edge14_Node000013_Node000014" class="edge">
<title>Node13&#45;&gt;Node14</title>
<g id="a_edge14_Node000013_Node000014"><a xlink:title=" ">
<path fill="none" stroke="#63b8ff" d="M918.05,-340.89C934.46,-340.81 951.89,-340.73 968.6,-340.65"/>
<polygon fill="#63b8ff" stroke="#63b8ff" points="968.53,-344.15 978.52,-340.6 968.5,-337.15 968.53,-344.15"/>
</a>
</g>
</g>
<!-- Node19 -->
<g id="Node000019" class="node">
<title>Node19</title>
<g id="a_Node000019"><a xlink:href="classxeno__rat__server_1_1_encryption.html#a0fafecaba804cb57663bdbb4dcc4e93f" target="_top" xlink:title="Encrypts the input data using the provided key and returns the encrypted result.">
<polygon fill="white" stroke="#666666" points="1123.5,-306.5 986,-306.5 986,-276 1123.5,-276 1123.5,-306.5"/>
<text text-anchor="start" x="994" y="-293" font-family="Helvetica,sans-Serif" font-size="10.00">xeno_rat_server.Encryption.</text>
<text text-anchor="middle" x="1054.75" y="-281.75" font-family="Helvetica,sans-Serif" font-size="10.00">Encrypt</text>
</a>
</g>
</g>
<!-- Node13&#45;&gt;Node19 -->
<g id="edge20_Node000013_Node000019" class="edge">
<title>Node13&#45;&gt;Node19</title>
<g id="a_edge20_Node000013_Node000019"><a xlink:title=" ">
<path fill="none" stroke="#63b8ff" d="M907.99,-325.57C929.53,-320.5 953.61,-314.83 975.89,-309.58"/>
<polygon fill="#63b8ff" stroke="#63b8ff" points="976.6,-313.01 985.53,-307.31 975,-306.2 976.6,-313.01"/>
</a>
</g>
</g>
<!-- Node15 -->
<g id="Node000015" class="node">
<title>Node15</title>
<g id="a_Node000015"><a xlink:href="classxeno__rat__server_1_1_compression.html#ae86c8cb19fb340173e6b06816907c485" target="_top" xlink:title="Allocates the specified number of bytes in the local heap and returns a pointer to the allocated memo...">
<polygon fill="white" stroke="#666666" points="1344.62,-428.5 1195.88,-428.5 1195.88,-398 1344.62,-398 1344.62,-428.5"/>
<text text-anchor="start" x="1203.88" y="-415" font-family="Helvetica,sans-Serif" font-size="10.00">xeno_rat_server.Compression.</text>
<text text-anchor="middle" x="1270.25" y="-403.75" font-family="Helvetica,sans-Serif" font-size="10.00">LocalAlloc</text>
</a>
</g>
</g>
<!-- Node14&#45;&gt;Node15 -->
<g id="edge15_Node000014_Node000015" class="edge">
<title>Node14&#45;&gt;Node15</title>
<g id="a_edge15_Node000014_Node000015"><a xlink:title=" ">
<path fill="none" stroke="#63b8ff" d="M1123.28,-355.91C1131.82,-358.64 1140.34,-361.75 1148.25,-365.25 1165.62,-372.93 1166.97,-380.38 1184.25,-388.25 1188.5,-390.19 1192.94,-392.01 1197.47,-393.73"/>
<polygon fill="#63b8ff" stroke="#63b8ff" points="1196.1,-396.96 1206.7,-397.04 1198.46,-390.37 1196.1,-396.96"/>
</a>
</g>
</g>
<!-- Node16 -->
<g id="Node000016" class="node">
<title>Node16</title>
<g id="a_Node000016"><a xlink:href="classxeno__rat__server_1_1_compression.html#ab527e0a594d96bbaa1a4b1541888aa74" target="_top" xlink:title="Frees the memory block allocated by LocalAlloc and LocalReAlloc and invalidates the handle.">
<polygon fill="white" stroke="#666666" points="1344.62,-379.5 1195.88,-379.5 1195.88,-349 1344.62,-349 1344.62,-379.5"/>
<text text-anchor="start" x="1203.88" y="-366" font-family="Helvetica,sans-Serif" font-size="10.00">xeno_rat_server.Compression.</text>
<text text-anchor="middle" x="1270.25" y="-354.75" font-family="Helvetica,sans-Serif" font-size="10.00">LocalFree</text>
</a>
</g>
</g>
<!-- Node14&#45;&gt;Node16 -->
<g id="edge16_Node000014_Node000016" class="edge">
<title>Node14&#45;&gt;Node16</title>
<g id="a_edge16_Node000014_Node000016"><a xlink:title=" ">
<path fill="none" stroke="#63b8ff" d="M1129.52,-348.54C1147.11,-350.52 1166.01,-352.65 1184.06,-354.67"/>
<polygon fill="#63b8ff" stroke="#63b8ff" points="1183.64,-358.15 1193.97,-355.79 1184.42,-351.19 1183.64,-358.15"/>
</a>
</g>
</g>
<!-- Node17 -->
<g id="Node000017" class="node">
<title>Node17</title>
<g id="a_Node000017"><a xlink:href="classxeno__rat__server_1_1_compression.html#a1f9bb20d96d13bdc4d0f90e2b68d4343" target="_top" xlink:title="Compresses the input buffer using the specified compression format and returns the compressed data in...">
<polygon fill="white" stroke="#666666" points="1344.62,-330.5 1195.88,-330.5 1195.88,-300 1344.62,-300 1344.62,-330.5"/>
<text text-anchor="start" x="1203.88" y="-317" font-family="Helvetica,sans-Serif" font-size="10.00">xeno_rat_server.Compression.</text>
<text text-anchor="middle" x="1270.25" y="-305.75" font-family="Helvetica,sans-Serif" font-size="10.00">RtlCompressBuffer</text>
</a>
</g>
</g>
<!-- Node14&#45;&gt;Node17 -->
<g id="edge17_Node000014_Node000017" class="edge">
<title>Node14&#45;&gt;Node17</title>
<g id="a_edge17_Node000014_Node000017"><a xlink:title=" ">
<path fill="none" stroke="#63b8ff" d="M1129.52,-331.61C1147.11,-329.55 1166.01,-327.34 1184.06,-325.22"/>
<polygon fill="#63b8ff" stroke="#63b8ff" points="1184.45,-328.7 1193.97,-324.06 1183.63,-321.75 1184.45,-328.7"/>
</a>
</g>
</g>
<!-- Node18 -->
<g id="Node000018" class="node">
<title>Node18</title>
<g id="a_Node000018"><a xlink:href="classxeno__rat__server_1_1_compression.html#a5ca090d7b0887e40753bad9800c321e7" target="_top" xlink:title="Retrieves the size of the workspace required for compression.">
<polygon fill="white" stroke="#666666" points="1356.25,-281.5 1184.25,-281.5 1184.25,-251 1356.25,-251 1356.25,-281.5"/>
<text text-anchor="start" x="1192.25" y="-268" font-family="Helvetica,sans-Serif" font-size="10.00">xeno_rat_server.Compression.</text>
<text text-anchor="middle" x="1270.25" y="-256.75" font-family="Helvetica,sans-Serif" font-size="10.00">RtlGetCompressionWorkSpaceSize</text>
</a>
</g>
</g>
<!-- Node14&#45;&gt;Node18 -->
<g id="edge18_Node000014_Node000018" class="edge">
<title>Node14&#45;&gt;Node18</title>
<g id="a_edge18_Node000014_Node000018"><a xlink:title=" ">
<path fill="none" stroke="#63b8ff" d="M1123.84,-324.58C1132.21,-321.86 1140.52,-318.76 1148.25,-315.25 1165.76,-307.3 1166.83,-299.39 1184.25,-291.25 1188.29,-289.36 1192.5,-287.58 1196.8,-285.91"/>
<polygon fill="#63b8ff" stroke="#63b8ff" points="1197.99,-289.2 1206.18,-282.49 1195.59,-282.63 1197.99,-289.2"/>
</a>
</g>
</g>
<!-- Node21 -->
<g id="Node000021" class="node">
<title>Node21</title>
<g id="a_Node000021"><a xlink:href="classxeno__rat__server_1_1_forms_1_1_custom_picture_box.html#ad2d6181322edfc502c03b929df4383c2" target="_top" xlink:title="Translates and unzooms the given point based on the zoom factor and displayed image rectangle of the ...">
<polygon fill="white" stroke="#666666" points="925.25,-30.5 755.5,-30.5 755.5,0 925.25,0 925.25,-30.5"/>
<text text-anchor="start" x="763.5" y="-17" font-family="Helvetica,sans-Serif" font-size="10.00">xeno_rat_server.Forms.Custom</text>
<text text-anchor="middle" x="840.38" y="-5.75" font-family="Helvetica,sans-Serif" font-size="10.00">PictureBox.UnzoomedAndAdjusted</text>
</a>
</g>
</g>
<!-- Node20&#45;&gt;Node21 -->
<g id="edge24_Node000020_Node000021" class="edge">
<title>Node20&#45;&gt;Node21</title>
<g id="a_edge24_Node000020_Node000021"><a xlink:title=" ">
<path fill="none" stroke="#63b8ff" d="M719.96,-15.25C727.83,-15.25 735.87,-15.25 743.88,-15.25"/>
<polygon fill="#63b8ff" stroke="#63b8ff" points="743.64,-18.75 753.64,-15.25 743.64,-11.75 743.64,-18.75"/>
</a>
</g>
</g>
<!-- Node22 -->
<g id="Node000022" class="node">
<title>Node22</title>
<g id="a_Node000022"><a xlink:href="classxeno__rat__server_1_1_forms_1_1_custom_picture_box.html#aa7addce06628519cadac2c853023fe97" target="_top" xlink:title="Gets the display rectangle for the image in the specified PictureBox.">
<polygon fill="white" stroke="#666666" points="1148.25,-30.5 961.25,-30.5 961.25,0 1148.25,0 1148.25,-30.5"/>
<text text-anchor="start" x="969.25" y="-17" font-family="Helvetica,sans-Serif" font-size="10.00">xeno_rat_server.Forms.Custom</text>
<text text-anchor="middle" x="1054.75" y="-5.75" font-family="Helvetica,sans-Serif" font-size="10.00">PictureBox.GetImageDisplayRectangle</text>
</a>
</g>
</g>
<!-- Node21&#45;&gt;Node22 -->
<g id="edge25_Node000021_Node000022" class="edge">
<title>Node21&#45;&gt;Node22</title>
<g id="a_edge25_Node000021_Node000022"><a xlink:title=" ">
<path fill="none" stroke="#63b8ff" d="M925.62,-15.25C933.49,-15.25 941.53,-15.25 949.55,-15.25"/>
<polygon fill="#63b8ff" stroke="#63b8ff" points="949.35,-18.75 959.35,-15.25 949.35,-11.75 949.35,-18.75"/>
</a>
</g>
</g>
</g>
</svg>

<g id="navigator" transform="translate(0 0)" fill="#404254">
  <rect fill="#f2f5e9" fill-opacity="0.5" stroke="#606060" stroke-width=".5" x="0" y="0" width="60" height="60"/>
  <use id="zoomplus" xlink:href="#zoomPlus" x="17" y="9" onmousedown="handleZoom(evt,'in')"/>
  <use id="zoomminus" xlink:href="#zoomMin" x="42" y="9" onmousedown="handleZoom(evt,'out')"/>
  <use id="reset" xlink:href="#resetDef" x="30" y="36" onmousedown="handleReset()"/>
   <use id="arrowup" xlink:href="#arrowUp" x="0" y="0" onmousedown="handlePan(0,-1)"/>
  <use id="arrowright" xlink:href="#arrowRight" x="0" y="0" onmousedown="handlePan(1,0)"/>
  <use id="arrowdown" xlink:href="#arrowDown" x="0" y="0" onmousedown="handlePan(0,1)"/>
  <use id="arrowleft" xlink:href="#arrowLeft" x="0" y="0" onmousedown="handlePan(-1,0)"/>
</g>
<svg viewBox="0 0 15 15" width="100%" height="30px" preserveAspectRatio="xMaxYMin meet">
 <g id="arrow_out" transform="scale(0.3 0.3)">
  <a xlink:href="classxeno__rat__server_1_1_forms_1_1_hvnc_a2d6f5b72f78d1a580135a4a704f387d1_cgraph_org.svg" target="_base">
   <rect id="button" ry="5" rx="5" y="6" x="6" height="38" width="38"
        fill="#f2f5e9" fill-opacity="0.5" stroke="#606060" stroke-width="1.0"/>
   <path id="arrow"
     d="M 11.500037,31.436501 C 11.940474,20.09759 22.043105,11.32322 32.158766,21.979434 L 37.068811,17.246167 C 37.068811,17.246167 37.088388,32 37.088388,32 L 22.160133,31.978069 C 22.160133,31.978069 26.997745,27.140456 26.997745,27.140456 C 18.528582,18.264221 13.291696,25.230495 11.500037,31.436501 z"
     style="fill:#404040;"/>
  </a>
 </g>
</svg>

<style type='text/css'>
<![CDATA[
[data-mouse-over-selected='false'] { opacity: 0.7; }
[data-mouse-over-selected='true']  { opacity: 1.0; }
]]>
</style>
<script type="application/ecmascript"><![CDATA[
document.addEventListener('DOMContentLoaded', (event) => {
  highlightEdges();
  highlightAdjacentNodes();
});
]]></script>
</svg>
