<?xml version="1.0" encoding="UTF-8" standalone="no"?>
<!DOCTYPE svg PUBLIC "-//W3C//DTD SVG 1.1//EN"
 "http://www.w3.org/Graphics/SVG/1.1/DTD/svg11.dtd">
<!-- Generated by graphviz version 10.0.1 (20240210.2158)
 -->
<!-- Title: NAudio.Wave.AiffFileWriter.Flush Pages: 1 -->
<svg width="666pt" height="39pt"
 viewBox="0.00 0.00 666.00 38.50" xmlns="http://www.w3.org/2000/svg" xmlns:xlink="http://www.w3.org/1999/xlink">
<g id="graph0" class="graph" transform="scale(1 1) rotate(0) translate(4 34.5)">
<title>NAudio.Wave.AiffFileWriter.Flush</title>
<!-- Node1 -->
<g id="Node000001" class="node">
<title>Node1</title>
<g id="a_Node000001"><a xlink:title="Flushes the buffer of the writer.">
<polygon fill="#999999" stroke="#666666" points="658,-30.5 520.5,-30.5 520.5,0 658,0 658,-30.5"/>
<text text-anchor="start" x="528.5" y="-17" font-family="Helvetica,sans-Serif" font-size="10.00">NAudio.Wave.AiffFileWriter.</text>
<text text-anchor="middle" x="589.25" y="-5.75" font-family="Helvetica,sans-Serif" font-size="10.00">Flush</text>
</a>
</g>
</g>
<!-- Node2 -->
<g id="Node000002" class="node">
<title>Node2</title>
<g id="a_Node000002"><a xlink:href="class_n_audio_1_1_wave_1_1_aiff_file_writer.html#aa534036d067bd80fa227aec89c79f480" target="_top" xlink:title="Updates the header of the binary writer.">
<polygon fill="white" stroke="#666666" points="484.5,-30.5 347,-30.5 347,0 484.5,0 484.5,-30.5"/>
<text text-anchor="start" x="355" y="-17" font-family="Helvetica,sans-Serif" font-size="10.00">NAudio.Wave.AiffFileWriter.</text>
<text text-anchor="middle" x="415.75" y="-5.75" font-family="Helvetica,sans-Serif" font-size="10.00">UpdateHeader</text>
</a>
</g>
</g>
<!-- Node1&#45;&gt;Node2 -->
<g id="edge1_Node000001_Node000002" class="edge">
<title>Node1&#45;&gt;Node2</title>
<g id="a_edge1_Node000001_Node000002"><a xlink:title=" ">
<path fill="none" stroke="#63b8ff" d="M509.11,-15.25C501.02,-15.25 492.84,-15.25 484.88,-15.25"/>
<polygon fill="#63b8ff" stroke="#63b8ff" points="508.96,-18.75 518.96,-15.25 508.96,-11.75 508.96,-18.75"/>
</a>
</g>
</g>
<!-- Node3 -->
<g id="Node000003" class="node">
<title>Node3</title>
<g id="a_Node000003"><a xlink:href="class_n_audio_1_1_wave_1_1_aiff_file_writer.html#a951d80d62f43e145de362ccd1d08a46b" target="_top" xlink:title="Releases the unmanaged resources used by the ClassName and optionally releases the managed resources.">
<polygon fill="white" stroke="#666666" points="311,-30.5 173.5,-30.5 173.5,0 311,0 311,-30.5"/>
<text text-anchor="start" x="181.5" y="-17" font-family="Helvetica,sans-Serif" font-size="10.00">NAudio.Wave.AiffFileWriter.</text>
<text text-anchor="middle" x="242.25" y="-5.75" font-family="Helvetica,sans-Serif" font-size="10.00">Dispose</text>
</a>
</g>
</g>
<!-- Node2&#45;&gt;Node3 -->
<g id="edge2_Node000002_Node000003" class="edge">
<title>Node2&#45;&gt;Node3</title>
<g id="a_edge2_Node000002_Node000003"><a xlink:title=" ">
<path fill="none" stroke="#63b8ff" d="M335.61,-15.25C327.52,-15.25 319.34,-15.25 311.38,-15.25"/>
<polygon fill="#63b8ff" stroke="#63b8ff" points="335.46,-18.75 345.46,-15.25 335.46,-11.75 335.46,-18.75"/>
</a>
</g>
</g>
<!-- Node4 -->
<g id="Node000004" class="node">
<title>Node4</title>
<g id="a_Node000004"><a xlink:href="class_n_audio_1_1_wave_1_1_aiff_file_writer.html#aa3d2d3667ef23a234498e0bc46225d8a" target="_top" xlink:title="Finaliser &#45; should only be called if the user forgot to close this AiffFileWriter.">
<polygon fill="white" stroke="#666666" points="137.5,-30.5 0,-30.5 0,0 137.5,0 137.5,-30.5"/>
<text text-anchor="start" x="8" y="-17" font-family="Helvetica,sans-Serif" font-size="10.00">NAudio.Wave.AiffFileWriter.</text>
<text text-anchor="middle" x="68.75" y="-5.75" font-family="Helvetica,sans-Serif" font-size="10.00">~AiffFileWriter</text>
</a>
</g>
</g>
<!-- Node3&#45;&gt;Node4 -->
<g id="edge3_Node000003_Node000004" class="edge">
<title>Node3&#45;&gt;Node4</title>
<g id="a_edge3_Node000003_Node000004"><a xlink:title=" ">
<path fill="none" stroke="#63b8ff" d="M162.11,-15.25C154.02,-15.25 145.84,-15.25 137.88,-15.25"/>
<polygon fill="#63b8ff" stroke="#63b8ff" points="161.96,-18.75 171.96,-15.25 161.96,-11.75 161.96,-18.75"/>
</a>
</g>
</g>
</g>
</svg>
