<?xml version="1.0" encoding="UTF-8" standalone="no"?>
<!DOCTYPE svg PUBLIC "-//W3C//DTD SVG 1.1//EN"
 "http://www.w3.org/Graphics/SVG/1.1/DTD/svg11.dtd">
<!-- Generated by graphviz version 10.0.1 (20240210.2158)
 -->
<!-- Title: NAudio.Wave.BufferedWaveProvider.AddSamples Pages: 1 -->
<!--zoomable 88 -->

<svg id="main" version="1.1" xmlns="http://www.w3.org/2000/svg" xmlns:xlink="http://www.w3.org/1999/xlink" xml:space="preserve" onload="init(evt)">
<style type="text/css"><![CDATA[
.node, .edge {opacity: 0.7;}
.node.selected, .edge.selected {opacity: 1;}
.edge:hover path { stroke: red; }
.edge:hover polygon { stroke: red; fill: red; }
]]></style>

<defs>
  <circle id="rim" cx="0" cy="0" r="7"/>
  <circle id="rim2" cx="0" cy="0" r="3.5"/>
  <g id="zoomPlus">
    <use xlink:href="#rim" fill="#404040"><set attributeName="fill" to="#808080" begin="zoomplus.mouseover" end="zoomplus.mouseout"/></use>
    <path d="M-4,0h8M0,-4v8" fill="none" stroke="white" stroke-width="1.5" pointer-events="none"/>
  </g>
  <g id="zoomMin">
    <use xlink:href="#rim" fill="#404040"><set attributeName="fill" to="#808080" begin="zoomminus.mouseover" end="zoomminus.mouseout"/></use>
    <path d="M-4,0h8" fill="none" stroke="white" stroke-width="1.5" pointer-events="none"/>
  </g>
  <g id="arrowUp" transform="translate(30 24)">
    <use xlink:href="#rim"/>
    <path pointer-events="none" fill="none" stroke="white" stroke-width="1.5" d="M0,-3.0v7 M-2.5,-0.5L0,-3.0L2.5,-0.5"/>
  </g>
  <g id="arrowRight" transform="rotate(90) translate(36 -43)">
    <use xlink:href="#rim"/>
    <path pointer-events="none" fill="none" stroke="white" stroke-width="1.5" d="M0,-3.0v7 M-2.5,-0.5L0,-3.0L2.5,-0.5"/>
  </g>
  <g id="arrowDown" transform="rotate(180) translate(-30 -48)">
    <use xlink:href="#rim"/>
    <path pointer-events="none" fill="none" stroke="white" stroke-width="1.5" d="M0,-3.0v7 M-2.5,-0.5L0,-3.0L2.5,-0.5"/>
  </g>
  <g id="arrowLeft" transform="rotate(270) translate(-36 17)">
    <use xlink:href="#rim"/>
    <path pointer-events="none" fill="none" stroke="white" stroke-width="1.5" d="M0,-3.0v7 M-2.5,-0.5L0,-3.0L2.5,-0.5"/>
  </g>
  <g id="resetDef">
    <use xlink:href="#rim2" fill="#404040"><set attributeName="fill" to="#808080" begin="reset.mouseover" end="reset.mouseout"/></use>
  </g>
</defs>
<script type="application/ecmascript">
var viewWidth = 879;
var viewHeight = 88;
var sectionId = 'dynsection-3';
</script>
<script type="application/ecmascript" xlink:href="svg.min.js"/>
<svg id="graph" class="graph">
<g id="viewport">
<title>NAudio.Wave.BufferedWaveProvider.AddSamples</title>
<!-- Node1 -->
<g id="Node000001" class="node">
<title>Node1</title>
<g id="a_Node000001"><a xlink:title="Adds the specified samples to the circular buffer.">
<polygon fill="#999999" stroke="#666666" points="871.25,-54.5 730.75,-54.5 730.75,-24 871.25,-24 871.25,-54.5"/>
<text text-anchor="start" x="738.75" y="-41" font-family="Helvetica,sans-Serif" font-size="10.00">NAudio.Wave.BufferedWave</text>
<text text-anchor="middle" x="801" y="-29.75" font-family="Helvetica,sans-Serif" font-size="10.00">Provider.AddSamples</text>
</a>
</g>
</g>
<!-- Node2 -->
<g id="Node000002" class="node">
<title>Node2</title>
<g id="a_Node000002"><a xlink:href="classxeno__rat__server_1_1_forms_1_1_audio_player.html#a6b5f37399f6ffc2b7fb0cacea8e30aad" target="_top" xlink:title="Adds audio samples to the wave provider.">
<polygon fill="white" stroke="#666666" points="691.38,-79.5 547.88,-79.5 547.88,-49 691.38,-49 691.38,-79.5"/>
<text text-anchor="start" x="555.88" y="-66" font-family="Helvetica,sans-Serif" font-size="10.00">xeno_rat_server.Forms.Audio</text>
<text text-anchor="middle" x="619.62" y="-54.75" font-family="Helvetica,sans-Serif" font-size="10.00">Player.AddAudio</text>
</a>
</g>
</g>
<!-- Node1&#45;&gt;Node2 -->
<g id="edge1_Node000001_Node000002" class="edge">
<title>Node1&#45;&gt;Node2</title>
<g id="a_edge1_Node000001_Node000002"><a xlink:title=" ">
<path fill="none" stroke="#63b8ff" d="M719.26,-50.5C710.06,-51.79 700.73,-53.08 691.67,-54.35"/>
<polygon fill="#63b8ff" stroke="#63b8ff" points="719.47,-54.01 728.89,-49.16 718.51,-47.07 719.47,-54.01"/>
</a>
</g>
</g>
<!-- Node6 -->
<g id="Node000006" class="node">
<title>Node6</title>
<g id="a_Node000006"><a xlink:href="class_n_audio_1_1_wave_1_1_wave_in_provider.html#a9deedb92c7239b323b26d24d3f72c758" target="_top" xlink:title="Adds the available data to the buffered wave provider.">
<polygon fill="white" stroke="#666666" points="694.75,-30.5 544.5,-30.5 544.5,0 694.75,0 694.75,-30.5"/>
<text text-anchor="start" x="552.5" y="-17" font-family="Helvetica,sans-Serif" font-size="10.00">NAudio.Wave.WaveInProvider.</text>
<text text-anchor="middle" x="619.62" y="-5.75" font-family="Helvetica,sans-Serif" font-size="10.00">OnDataAvailable</text>
</a>
</g>
</g>
<!-- Node1&#45;&gt;Node6 -->
<g id="edge5_Node000001_Node000006" class="edge">
<title>Node1&#45;&gt;Node6</title>
<g id="a_edge5_Node000001_Node000006"><a xlink:title=" ">
<path fill="none" stroke="#63b8ff" d="M719.2,-28.44C711.23,-27.37 703.15,-26.29 695.24,-25.23"/>
<polygon fill="#63b8ff" stroke="#63b8ff" points="718.52,-31.88 728.89,-29.74 719.44,-24.94 718.52,-31.88"/>
</a>
</g>
</g>
<!-- Node3 -->
<g id="Node000003" class="node">
<title>Node3</title>
<g id="a_Node000003"><a xlink:href="classxeno__rat__server_1_1_forms_1_1_live___microphone.html#af17318ea1a2f4c983f73421462165202" target="_top" xlink:title="Asynchronously receives data from MicNode and adds audio to the player if playing.">
<polygon fill="white" stroke="#666666" points="501.75,-79.5 365,-79.5 365,-49 501.75,-49 501.75,-79.5"/>
<text text-anchor="start" x="373" y="-66" font-family="Helvetica,sans-Serif" font-size="10.00">xeno_rat_server.Forms.Live</text>
<text text-anchor="middle" x="433.38" y="-54.75" font-family="Helvetica,sans-Serif" font-size="10.00">_Microphone.RecvThread</text>
</a>
</g>
</g>
<!-- Node2&#45;&gt;Node3 -->
<g id="edge2_Node000002_Node000003" class="edge">
<title>Node2&#45;&gt;Node3</title>
<g id="a_edge2_Node000002_Node000003"><a xlink:title=" ">
<path fill="none" stroke="#63b8ff" d="M536.11,-64.25C524.73,-64.25 513.16,-64.25 502.09,-64.25"/>
<polygon fill="#63b8ff" stroke="#63b8ff" points="535.88,-67.75 545.88,-64.25 535.88,-60.75 535.88,-67.75"/>
</a>
</g>
</g>
<!-- Node4 -->
<g id="Node000004" class="node">
<title>Node4</title>
<g id="a_Node000004"><a xlink:href="classxeno__rat__server_1_1_forms_1_1_live___microphone.html#abd381cbaa6846b8f2cde2591d3908429" target="_top" xlink:title="Initializes the asynchronous task by creating a mic node, adding temporary on disconnect,...">
<polygon fill="white" stroke="#666666" points="322.25,-79.5 184,-79.5 184,-49 322.25,-49 322.25,-79.5"/>
<text text-anchor="start" x="192" y="-66" font-family="Helvetica,sans-Serif" font-size="10.00">xeno_rat_server.Forms.Live</text>
<text text-anchor="middle" x="253.12" y="-54.75" font-family="Helvetica,sans-Serif" font-size="10.00">_Microphone.InitializeAsync</text>
</a>
</g>
</g>
<!-- Node3&#45;&gt;Node4 -->
<g id="edge3_Node000003_Node000004" class="edge">
<title>Node3&#45;&gt;Node4</title>
<g id="a_edge3_Node000003_Node000004"><a xlink:title=" ">
<path fill="none" stroke="#63b8ff" d="M353.29,-64.25C343.06,-64.25 332.65,-64.25 322.61,-64.25"/>
<polygon fill="#63b8ff" stroke="#63b8ff" points="353.22,-67.75 363.22,-64.25 353.22,-60.75 353.22,-67.75"/>
</a>
</g>
</g>
<!-- Node5 -->
<g id="Node000005" class="node">
<title>Node5</title>
<g id="a_Node000005"><a xlink:href="classxeno__rat__server_1_1_forms_1_1_live___microphone.html#af759c97b5673c55be1690f19df16e179" target="_top" xlink:title=" ">
<polygon fill="white" stroke="#666666" points="148,-79.5 0,-79.5 0,-49 148,-49 148,-79.5"/>
<text text-anchor="start" x="8" y="-66" font-family="Helvetica,sans-Serif" font-size="10.00">xeno_rat_server.Forms.Live</text>
<text text-anchor="middle" x="74" y="-54.75" font-family="Helvetica,sans-Serif" font-size="10.00">_Microphone.Live_Microphone</text>
</a>
</g>
</g>
<!-- Node4&#45;&gt;Node5 -->
<g id="edge4_Node000004_Node000005" class="edge">
<title>Node4&#45;&gt;Node5</title>
<g id="a_edge4_Node000004_Node000005"><a xlink:title=" ">
<path fill="none" stroke="#63b8ff" d="M172.39,-64.25C164.37,-64.25 156.24,-64.25 148.29,-64.25"/>
<polygon fill="#63b8ff" stroke="#63b8ff" points="172.13,-67.75 182.13,-64.25 172.13,-60.75 172.13,-67.75"/>
</a>
</g>
</g>
<!-- Node7 -->
<g id="Node000007" class="node">
<title>Node7</title>
<g id="a_Node000007"><a xlink:href="class_n_audio_1_1_wave_1_1_wave_in_provider.html#a5d9d51cf0bb2486531e7b10153cbad3d" target="_top" xlink:title="Creates a new WaveInProvider n.b. Should make sure the WaveFormat is set correctly on IWaveIn before ...">
<polygon fill="white" stroke="#666666" points="508.5,-30.5 358.25,-30.5 358.25,0 508.5,0 508.5,-30.5"/>
<text text-anchor="start" x="366.25" y="-17" font-family="Helvetica,sans-Serif" font-size="10.00">NAudio.Wave.WaveInProvider.</text>
<text text-anchor="middle" x="433.38" y="-5.75" font-family="Helvetica,sans-Serif" font-size="10.00">WaveInProvider</text>
</a>
</g>
</g>
<!-- Node6&#45;&gt;Node7 -->
<g id="edge6_Node000006_Node000007" class="edge">
<title>Node6&#45;&gt;Node7</title>
<g id="a_edge6_Node000006_Node000007"><a xlink:title=" ">
<path fill="none" stroke="#63b8ff" d="M532.89,-15.25C524.83,-15.25 516.71,-15.25 508.76,-15.25"/>
<polygon fill="#63b8ff" stroke="#63b8ff" points="532.7,-18.75 542.7,-15.25 532.7,-11.75 532.7,-18.75"/>
</a>
</g>
</g>
</g>
</svg>

<g id="navigator" transform="translate(0 0)" fill="#404254">
  <rect fill="#f2f5e9" fill-opacity="0.5" stroke="#606060" stroke-width=".5" x="0" y="0" width="60" height="60"/>
  <use id="zoomplus" xlink:href="#zoomPlus" x="17" y="9" onmousedown="handleZoom(evt,'in')"/>
  <use id="zoomminus" xlink:href="#zoomMin" x="42" y="9" onmousedown="handleZoom(evt,'out')"/>
  <use id="reset" xlink:href="#resetDef" x="30" y="36" onmousedown="handleReset()"/>
   <use id="arrowup" xlink:href="#arrowUp" x="0" y="0" onmousedown="handlePan(0,-1)"/>
  <use id="arrowright" xlink:href="#arrowRight" x="0" y="0" onmousedown="handlePan(1,0)"/>
  <use id="arrowdown" xlink:href="#arrowDown" x="0" y="0" onmousedown="handlePan(0,1)"/>
  <use id="arrowleft" xlink:href="#arrowLeft" x="0" y="0" onmousedown="handlePan(-1,0)"/>
</g>
<svg viewBox="0 0 15 15" width="100%" height="30px" preserveAspectRatio="xMaxYMin meet">
 <g id="arrow_out" transform="scale(0.3 0.3)">
  <a xlink:href="class_n_audio_1_1_wave_1_1_buffered_wave_provider_a2f65eef2dec3b49b9f1ce760a940b627_icgraph_org.svg" target="_base">
   <rect id="button" ry="5" rx="5" y="6" x="6" height="38" width="38"
        fill="#f2f5e9" fill-opacity="0.5" stroke="#606060" stroke-width="1.0"/>
   <path id="arrow"
     d="M 11.500037,31.436501 C 11.940474,20.09759 22.043105,11.32322 32.158766,21.979434 L 37.068811,17.246167 C 37.068811,17.246167 37.088388,32 37.088388,32 L 22.160133,31.978069 C 22.160133,31.978069 26.997745,27.140456 26.997745,27.140456 C 18.528582,18.264221 13.291696,25.230495 11.500037,31.436501 z"
     style="fill:#404040;"/>
  </a>
 </g>
</svg>

<style type='text/css'>
<![CDATA[
[data-mouse-over-selected='false'] { opacity: 0.7; }
[data-mouse-over-selected='true']  { opacity: 1.0; }
]]>
</style>
<script type="application/ecmascript"><![CDATA[
document.addEventListener('DOMContentLoaded', (event) => {
  highlightEdges();
  highlightAdjacentNodes();
});
]]></script>
</svg>
