<?xml version="1.0" encoding="UTF-8" standalone="no"?>
<!DOCTYPE svg PUBLIC "-//W3C//DTD SVG 1.1//EN"
 "http://www.w3.org/Graphics/SVG/1.1/DTD/svg11.dtd">
<!-- Generated by graphviz version 10.0.1 (20240210.2158)
 -->
<!-- Title: NAudio.SoundFont.ZoneBuilder Pages: 1 -->
<svg width="155pt" height="277pt"
 viewBox="0.00 0.00 155.00 277.00" xmlns="http://www.w3.org/2000/svg" xmlns:xlink="http://www.w3.org/1999/xlink">
<g id="graph0" class="graph" transform="scale(1 1) rotate(0) translate(4 273)">
<title>NAudio.SoundFont.ZoneBuilder</title>
<!-- Node1 -->
<g id="Node000001" class="node">
<title>Node1</title>
<g id="a_Node000001"><a xlink:title=" ">
<polygon fill="#999999" stroke="none" points="147,-109 0,-109 0,0 147,0 147,-109"/>
<text text-anchor="start" x="4.88" y="-95.5" font-family="Helvetica,sans-Serif" font-size="10.00">NAudio.SoundFont.ZoneBuilder</text>
<text text-anchor="start" x="27" y="-80.5" font-family="Helvetica,sans-Serif" font-size="10.00">+</text>
<text text-anchor="start" x="60" y="-80.5" font-family="Helvetica,sans-Serif" font-size="10.00">Zones</text>
<text text-anchor="start" x="27" y="-65.5" font-family="Helvetica,sans-Serif" font-size="10.00">+</text>
<text text-anchor="start" x="60" y="-65.5" font-family="Helvetica,sans-Serif" font-size="10.00">Length</text>
<text text-anchor="start" x="28.5" y="-50.5" font-family="Helvetica,sans-Serif" font-size="10.00">&#45;</text>
<text text-anchor="start" x="60" y="-50.5" font-family="Helvetica,sans-Serif" font-size="10.00">lastZone</text>
<text text-anchor="start" x="27" y="-35.5" font-family="Helvetica,sans-Serif" font-size="10.00">+</text>
<text text-anchor="start" x="60" y="-35.5" font-family="Helvetica,sans-Serif" font-size="10.00">Read()</text>
<text text-anchor="start" x="27" y="-20.5" font-family="Helvetica,sans-Serif" font-size="10.00">+</text>
<text text-anchor="start" x="60" y="-20.5" font-family="Helvetica,sans-Serif" font-size="10.00">Write()</text>
<text text-anchor="start" x="27" y="-5.5" font-family="Helvetica,sans-Serif" font-size="10.00">+</text>
<text text-anchor="start" x="60" y="-5.5" font-family="Helvetica,sans-Serif" font-size="10.00">Load()</text>
<polygon fill="#666666" stroke="#666666" points="0,-92 0,-92 147,-92 147,-92 0,-92"/>
<polygon fill="#666666" stroke="#666666" points="0,-47 0,-47 58,-47 58,-47 0,-47"/>
<polygon fill="#666666" stroke="#666666" points="58,-47 58,-47 147,-47 147,-47 58,-47"/>
<polygon fill="none" stroke="#666666" points="0,0 0,-109 147,-109 147,0 0,0"/>
</a>
</g>
</g>
<!-- Node2 -->
<g id="Node000002" class="node">
<title>Node2</title>
<g id="a_Node000002"><a xlink:title=" ">
<polygon fill="white" stroke="none" points="133,-269 14,-269 14,-145 133,-145 133,-269"/>
<text text-anchor="start" x="18.75" y="-255.5" font-family="Helvetica,sans-Serif" font-size="10.00">StructureBuilder&lt; Zone &gt;</text>
<text text-anchor="start" x="24.5" y="-240.5" font-family="Helvetica,sans-Serif" font-size="10.00">+</text>
<text text-anchor="start" x="41" y="-240.5" font-family="Helvetica,sans-Serif" font-size="10.00">Length</text>
<text text-anchor="start" x="24.5" y="-225.5" font-family="Helvetica,sans-Serif" font-size="10.00">+</text>
<text text-anchor="start" x="41" y="-225.5" font-family="Helvetica,sans-Serif" font-size="10.00">Data</text>
<text text-anchor="start" x="24.88" y="-210.5" font-family="Helvetica,sans-Serif" font-size="10.00">#</text>
<text text-anchor="start" x="41" y="-210.5" font-family="Helvetica,sans-Serif" font-size="10.00">data</text>
<text text-anchor="start" x="24.5" y="-195.5" font-family="Helvetica,sans-Serif" font-size="10.00">+</text>
<text text-anchor="start" x="41" y="-195.5" font-family="Helvetica,sans-Serif" font-size="10.00">StructureBuilder()</text>
<text text-anchor="start" x="24.5" y="-180.5" font-family="Helvetica,sans-Serif" font-size="10.00">+</text>
<text text-anchor="start" x="41" y="-180.5" font-family="Helvetica,sans-Serif" font-size="10.00">Read()</text>
<text text-anchor="start" x="24.5" y="-165.5" font-family="Helvetica,sans-Serif" font-size="10.00">+</text>
<text text-anchor="start" x="41" y="-165.5" font-family="Helvetica,sans-Serif" font-size="10.00">Write()</text>
<text text-anchor="start" x="24.5" y="-150.5" font-family="Helvetica,sans-Serif" font-size="10.00">+</text>
<text text-anchor="start" x="41" y="-150.5" font-family="Helvetica,sans-Serif" font-size="10.00">Reset()</text>
<polygon fill="#666666" stroke="#666666" points="14,-252 14,-252 133,-252 133,-252 14,-252"/>
<polygon fill="#666666" stroke="#666666" points="14,-207 14,-207 39,-207 39,-207 14,-207"/>
<polygon fill="#666666" stroke="#666666" points="39,-207 39,-207 133,-207 133,-207 39,-207"/>
<polygon fill="none" stroke="#666666" points="14,-145 14,-269 133,-269 133,-145 14,-145"/>
</a>
</g>
</g>
<!-- Node2&#45;&gt;Node1 -->
<g id="edge1_Node000001_Node000002" class="edge">
<title>Node2&#45;&gt;Node1</title>
<g id="a_edge1_Node000001_Node000002"><a xlink:title=" ">
<path fill="none" stroke="#63b8ff" d="M73.5,-133.79C73.5,-125.35 73.5,-116.87 73.5,-108.76"/>
<polygon fill="none" stroke="#63b8ff" points="70,-133.71 73.5,-143.71 77,-133.71 70,-133.71"/>
</a>
</g>
</g>
</g>
</svg>
