<?xml version="1.0" encoding="UTF-8" standalone="no"?>
<!DOCTYPE svg PUBLIC "-//W3C//DTD SVG 1.1//EN"
 "http://www.w3.org/Graphics/SVG/1.1/DTD/svg11.dtd">
<!-- Generated by graphviz version 10.0.1 (20240210.2158)
 -->
<!-- Title: NAudio.Wave.AiffFileReader Pages: 1 -->
<!--zoomable 778 -->

<svg id="main" version="1.1" xmlns="http://www.w3.org/2000/svg" xmlns:xlink="http://www.w3.org/1999/xlink" xml:space="preserve" onload="init(evt)">
<style type="text/css"><![CDATA[
.node, .edge {opacity: 0.7;}
.node.selected, .edge.selected {opacity: 1;}
.edge:hover path { stroke: red; }
.edge:hover polygon { stroke: red; fill: red; }
]]></style>

<defs>
  <circle id="rim" cx="0" cy="0" r="7"/>
  <circle id="rim2" cx="0" cy="0" r="3.5"/>
  <g id="zoomPlus">
    <use xlink:href="#rim" fill="#404040"><set attributeName="fill" to="#808080" begin="zoomplus.mouseover" end="zoomplus.mouseout"/></use>
    <path d="M-4,0h8M0,-4v8" fill="none" stroke="white" stroke-width="1.5" pointer-events="none"/>
  </g>
  <g id="zoomMin">
    <use xlink:href="#rim" fill="#404040"><set attributeName="fill" to="#808080" begin="zoomminus.mouseover" end="zoomminus.mouseout"/></use>
    <path d="M-4,0h8" fill="none" stroke="white" stroke-width="1.5" pointer-events="none"/>
  </g>
  <g id="arrowUp" transform="translate(30 24)">
    <use xlink:href="#rim"/>
    <path pointer-events="none" fill="none" stroke="white" stroke-width="1.5" d="M0,-3.0v7 M-2.5,-0.5L0,-3.0L2.5,-0.5"/>
  </g>
  <g id="arrowRight" transform="rotate(90) translate(36 -43)">
    <use xlink:href="#rim"/>
    <path pointer-events="none" fill="none" stroke="white" stroke-width="1.5" d="M0,-3.0v7 M-2.5,-0.5L0,-3.0L2.5,-0.5"/>
  </g>
  <g id="arrowDown" transform="rotate(180) translate(-30 -48)">
    <use xlink:href="#rim"/>
    <path pointer-events="none" fill="none" stroke="white" stroke-width="1.5" d="M0,-3.0v7 M-2.5,-0.5L0,-3.0L2.5,-0.5"/>
  </g>
  <g id="arrowLeft" transform="rotate(270) translate(-36 17)">
    <use xlink:href="#rim"/>
    <path pointer-events="none" fill="none" stroke="white" stroke-width="1.5" d="M0,-3.0v7 M-2.5,-0.5L0,-3.0L2.5,-0.5"/>
  </g>
  <g id="resetDef">
    <use xlink:href="#rim2" fill="#404040"><set attributeName="fill" to="#808080" begin="reset.mouseover" end="reset.mouseout"/></use>
  </g>
</defs>
<script type="application/ecmascript">
var viewWidth = 949;
var viewHeight = 778;
var sectionId = 'dynsection-1';
</script>
<script type="application/ecmascript" xlink:href="svg.min.js"/>
<svg id="graph" class="graph">
<g id="viewport">
<title>NAudio.Wave.AiffFileReader</title>
<!-- Node1 -->
<g id="Node000001" class="node">
<title>Node1</title>
<g id="a_Node000001"><a xlink:title="A read&#45;only stream of AIFF data based on an aiff file with an associated WaveFormat originally contri...">
<polygon fill="#999999" stroke="none" points="669.2,-214 534.2,-214 534.2,0 669.2,0 669.2,-214"/>
<text text-anchor="start" x="539.07" y="-200.5" font-family="Helvetica,sans-Serif" font-size="10.00">NAudio.Wave.AiffFileReader</text>
<text text-anchor="start" x="545.2" y="-185.5" font-family="Helvetica,sans-Serif" font-size="10.00">+</text>
<text text-anchor="start" x="562.2" y="-185.5" font-family="Helvetica,sans-Serif" font-size="10.00">WaveFormat</text>
<text text-anchor="start" x="545.2" y="-170.5" font-family="Helvetica,sans-Serif" font-size="10.00">+</text>
<text text-anchor="start" x="562.2" y="-170.5" font-family="Helvetica,sans-Serif" font-size="10.00">Length</text>
<text text-anchor="start" x="545.2" y="-155.5" font-family="Helvetica,sans-Serif" font-size="10.00">+</text>
<text text-anchor="start" x="562.2" y="-155.5" font-family="Helvetica,sans-Serif" font-size="10.00">SampleCount</text>
<text text-anchor="start" x="545.2" y="-140.5" font-family="Helvetica,sans-Serif" font-size="10.00">+</text>
<text text-anchor="start" x="562.2" y="-140.5" font-family="Helvetica,sans-Serif" font-size="10.00">Position</text>
<text text-anchor="start" x="545.2" y="-125.5" font-family="Helvetica,sans-Serif" font-size="10.00">+</text>
<text text-anchor="start" x="562.2" y="-125.5" font-family="Helvetica,sans-Serif" font-size="10.00">AiffFileReader()</text>
<text text-anchor="start" x="545.2" y="-110.5" font-family="Helvetica,sans-Serif" font-size="10.00">+</text>
<text text-anchor="start" x="562.2" y="-110.5" font-family="Helvetica,sans-Serif" font-size="10.00">AiffFileReader()</text>
<text text-anchor="start" x="545.2" y="-95.5" font-family="Helvetica,sans-Serif" font-size="10.00">+</text>
<text text-anchor="start" x="562.2" y="-95.5" font-family="Helvetica,sans-Serif" font-size="10.00">Read()</text>
<text text-anchor="start" x="545.2" y="-80.5" font-family="Helvetica,sans-Serif" font-size="10.00">+</text>
<text text-anchor="start" x="562.2" y="-80.5" font-family="Helvetica,sans-Serif" font-size="10.00">ReadAiffHeader()</text>
<text text-anchor="start" x="545.57" y="-65.5" font-family="Helvetica,sans-Serif" font-size="10.00">#</text>
<text text-anchor="start" x="562.2" y="-65.5" font-family="Helvetica,sans-Serif" font-size="10.00">Dispose()</text>
<text text-anchor="start" x="546.7" y="-50.5" font-family="Helvetica,sans-Serif" font-size="10.00">&#45;</text>
<text text-anchor="start" x="562.2" y="-50.5" font-family="Helvetica,sans-Serif" font-size="10.00">ConvertInt()</text>
<text text-anchor="start" x="546.7" y="-35.5" font-family="Helvetica,sans-Serif" font-size="10.00">&#45;</text>
<text text-anchor="start" x="562.2" y="-35.5" font-family="Helvetica,sans-Serif" font-size="10.00">ConvertShort()</text>
<text text-anchor="start" x="546.7" y="-20.5" font-family="Helvetica,sans-Serif" font-size="10.00">&#45;</text>
<text text-anchor="start" x="562.2" y="-20.5" font-family="Helvetica,sans-Serif" font-size="10.00">ReadChunkHeader()</text>
<text text-anchor="start" x="546.7" y="-5.5" font-family="Helvetica,sans-Serif" font-size="10.00">&#45;</text>
<text text-anchor="start" x="562.2" y="-5.5" font-family="Helvetica,sans-Serif" font-size="10.00">ReadChunkName()</text>
<polygon fill="#666666" stroke="#666666" points="534.2,-197 534.2,-197 669.2,-197 669.2,-197 534.2,-197"/>
<polygon fill="#666666" stroke="#666666" points="534.2,-137 534.2,-137 560.2,-137 560.2,-137 534.2,-137"/>
<polygon fill="#666666" stroke="#666666" points="560.2,-137 560.2,-137 669.2,-137 669.2,-137 560.2,-137"/>
<polygon fill="none" stroke="#666666" points="534.2,0 534.2,-214 669.2,-214 669.2,0 534.2,0"/>
</a>
</g>
</g>
<!-- Node2 -->
<g id="Node000002" class="node">
<title>Node2</title>
<g id="a_Node000002"><a xlink:href="class_n_audio_1_1_wave_1_1_wave_stream.html" target="_top" xlink:title="Base class for all WaveStream classes. Derives from stream.">
<polygon fill="white" stroke="none" points="204.2,-557.75 131.2,-557.75 131.2,-343.75 204.2,-343.75 204.2,-557.75"/>
<text text-anchor="start" x="139.57" y="-544.25" font-family="Helvetica,sans-Serif" font-size="10.00">WaveStream</text>
<text text-anchor="start" x="135.2" y="-529.25" font-family="Helvetica,sans-Serif" font-size="10.00">+</text>
<text text-anchor="start" x="145.2" y="-529.25" font-family="Helvetica,sans-Serif" font-size="10.00">WaveFormat</text>
<text text-anchor="start" x="135.2" y="-514.25" font-family="Helvetica,sans-Serif" font-size="10.00">+</text>
<text text-anchor="start" x="145.2" y="-514.25" font-family="Helvetica,sans-Serif" font-size="10.00">CanRead</text>
<text text-anchor="start" x="135.2" y="-499.25" font-family="Helvetica,sans-Serif" font-size="10.00">+</text>
<text text-anchor="start" x="145.2" y="-499.25" font-family="Helvetica,sans-Serif" font-size="10.00">CanSeek</text>
<text text-anchor="start" x="135.2" y="-484.25" font-family="Helvetica,sans-Serif" font-size="10.00">+</text>
<text text-anchor="start" x="145.2" y="-484.25" font-family="Helvetica,sans-Serif" font-size="10.00">CanWrite</text>
<text text-anchor="start" x="135.2" y="-469.25" font-family="Helvetica,sans-Serif" font-size="10.00">+</text>
<text text-anchor="start" x="145.2" y="-469.25" font-family="Helvetica,sans-Serif" font-size="10.00">BlockAlign</text>
<text text-anchor="start" x="135.2" y="-454.25" font-family="Helvetica,sans-Serif" font-size="10.00">+</text>
<text text-anchor="start" x="145.2" y="-454.25" font-family="Helvetica,sans-Serif" font-size="10.00">CurrentTime</text>
<text text-anchor="start" x="135.2" y="-439.25" font-family="Helvetica,sans-Serif" font-size="10.00">+</text>
<text text-anchor="start" x="145.2" y="-439.25" font-family="Helvetica,sans-Serif" font-size="10.00">TotalTime</text>
<text text-anchor="start" x="135.2" y="-424.25" font-family="Helvetica,sans-Serif" font-size="10.00">+</text>
<text text-anchor="start" x="145.2" y="-424.25" font-family="Helvetica,sans-Serif" font-size="10.00">Flush()</text>
<text text-anchor="start" x="135.2" y="-409.25" font-family="Helvetica,sans-Serif" font-size="10.00">+</text>
<text text-anchor="start" x="145.2" y="-409.25" font-family="Helvetica,sans-Serif" font-size="10.00">Seek()</text>
<text text-anchor="start" x="135.2" y="-394.25" font-family="Helvetica,sans-Serif" font-size="10.00">+</text>
<text text-anchor="start" x="145.2" y="-394.25" font-family="Helvetica,sans-Serif" font-size="10.00">SetLength()</text>
<text text-anchor="start" x="135.2" y="-379.25" font-family="Helvetica,sans-Serif" font-size="10.00">+</text>
<text text-anchor="start" x="145.2" y="-379.25" font-family="Helvetica,sans-Serif" font-size="10.00">Write()</text>
<text text-anchor="start" x="135.2" y="-364.25" font-family="Helvetica,sans-Serif" font-size="10.00">+</text>
<text text-anchor="start" x="145.2" y="-364.25" font-family="Helvetica,sans-Serif" font-size="10.00">Skip()</text>
<text text-anchor="start" x="135.2" y="-349.25" font-family="Helvetica,sans-Serif" font-size="10.00">+</text>
<text text-anchor="start" x="145.2" y="-349.25" font-family="Helvetica,sans-Serif" font-size="10.00">HasData()</text>
<polygon fill="#666666" stroke="#666666" points="131.2,-540.75 131.2,-540.75 204.2,-540.75 204.2,-540.75 131.2,-540.75"/>
<polygon fill="#666666" stroke="#666666" points="131.2,-435.75 131.2,-435.75 143.2,-435.75 143.2,-435.75 131.2,-435.75"/>
<polygon fill="#666666" stroke="#666666" points="143.2,-435.75 143.2,-435.75 204.2,-435.75 204.2,-435.75 143.2,-435.75"/>
<polygon fill="none" stroke="#666666" points="131.2,-343.75 131.2,-557.75 204.2,-557.75 204.2,-343.75 131.2,-343.75"/>
</a>
</g>
</g>
<!-- Node2&#45;&gt;Node1 -->
<g id="edge1_Node000001_Node000002" class="edge">
<title>Node2&#45;&gt;Node1</title>
<g id="a_edge1_Node000001_Node000002"><a xlink:title=" ">
<path fill="none" stroke="#63b8ff" d="M209.74,-367.73C231.19,-331.72 259.92,-290.97 293.7,-261.25 365.44,-198.12 467.82,-154.04 534.51,-129.86"/>
<polygon fill="none" stroke="#63b8ff" points="206.95,-365.56 204.92,-375.96 212.99,-369.09 206.95,-365.56"/>
</a>
</g>
</g>
<!-- Node3 -->
<g id="Node000003" class="node">
<title>Node3</title>
<g id="a_Node000003"><a xlink:title=" ">
<polygon fill="white" stroke="none" points="73.2,-770.25 32.2,-770.25 32.2,-721.25 73.2,-721.25 73.2,-770.25"/>
<text text-anchor="start" x="36.95" y="-756.75" font-family="Helvetica,sans-Serif" font-size="10.00">Stream</text>
<text text-anchor="start" x="51.2" y="-741.75" font-family="Helvetica,sans-Serif" font-size="10.00"> </text>
<text text-anchor="start" x="51.2" y="-726.75" font-family="Helvetica,sans-Serif" font-size="10.00"> </text>
<polygon fill="#666666" stroke="#666666" points="32.2,-753.25 32.2,-753.25 73.2,-753.25 73.2,-753.25 32.2,-753.25"/>
<polygon fill="#666666" stroke="#666666" points="32.2,-738.25 32.2,-738.25 73.2,-738.25 73.2,-738.25 32.2,-738.25"/>
<polygon fill="none" stroke="#666666" points="32.2,-721.25 32.2,-770.25 73.2,-770.25 73.2,-721.25 32.2,-721.25"/>
</a>
</g>
</g>
<!-- Node3&#45;&gt;Node1 -->
<g id="edge12_Node000001_Node000003" class="edge">
<title>Node3&#45;&gt;Node1</title>
<g id="a_edge12_Node000001_Node000003"><a xlink:title=" ">
<path fill="none" stroke="#63b8ff" d="M44.44,-721.48C19.23,-645.84 -48.61,-403.64 60.95,-261.25 117.19,-188.16 385.2,-139.45 521.58,-118.97"/>
<polygon fill="none" stroke="#63b8ff" points="521.6,-118.97 526.94,-114.13 533.47,-117.21 528.12,-122.05 521.6,-118.97"/>
</a>
</g>
<text text-anchor="middle" x="92.07" y="-446.88" font-family="Helvetica,sans-Serif" font-size="10.00" fill="grey"> &#45;waveStream</text>
</g>
<!-- Node3&#45;&gt;Node2 -->
<g id="edge2_Node000002_Node000003" class="edge">
<title>Node3&#45;&gt;Node2</title>
<g id="a_edge2_Node000002_Node000003"><a xlink:title=" ">
<path fill="none" stroke="#63b8ff" d="M76.5,-712.15C90.15,-692.2 106.7,-665.7 117.7,-640.25 128.98,-614.14 138.24,-584.87 145.59,-557.33"/>
<polygon fill="none" stroke="#63b8ff" points="73.78,-709.93 70.94,-720.14 79.53,-713.93 73.78,-709.93"/>
</a>
</g>
</g>
<!-- Node4 -->
<g id="Node000004" class="node">
<title>Node4</title>
<g id="a_Node000004"><a xlink:href="interface_n_audio_1_1_wave_1_1_i_wave_provider.html" target="_top" xlink:title="Generic interface for all WaveProviders.">
<polygon fill="white" stroke="none" points="164.2,-770.25 91.2,-770.25 91.2,-721.25 164.2,-721.25 164.2,-770.25"/>
<text text-anchor="start" x="95.82" y="-756.75" font-family="Helvetica,sans-Serif" font-size="10.00">IWaveProvider</text>
<text text-anchor="start" x="95.2" y="-741.75" font-family="Helvetica,sans-Serif" font-size="10.00">+</text>
<text text-anchor="start" x="105.2" y="-741.75" font-family="Helvetica,sans-Serif" font-size="10.00">WaveFormat</text>
<text text-anchor="start" x="95.2" y="-726.75" font-family="Helvetica,sans-Serif" font-size="10.00">+</text>
<text text-anchor="start" x="105.2" y="-726.75" font-family="Helvetica,sans-Serif" font-size="10.00">Read()</text>
<polygon fill="#666666" stroke="#666666" points="91.2,-753.25 91.2,-753.25 164.2,-753.25 164.2,-753.25 91.2,-753.25"/>
<polygon fill="#666666" stroke="#666666" points="91.2,-738.25 91.2,-738.25 103.2,-738.25 103.2,-738.25 91.2,-738.25"/>
<polygon fill="#666666" stroke="#666666" points="103.2,-738.25 103.2,-738.25 164.2,-738.25 164.2,-738.25 103.2,-738.25"/>
<polygon fill="none" stroke="#666666" points="91.2,-721.25 91.2,-770.25 164.2,-770.25 164.2,-721.25 91.2,-721.25"/>
</a>
</g>
</g>
<!-- Node4&#45;&gt;Node2 -->
<g id="edge3_Node000002_Node000004" class="edge">
<title>Node4&#45;&gt;Node2</title>
<g id="a_edge3_Node000002_Node000004"><a xlink:title=" ">
<path fill="none" stroke="#63b8ff" d="M132.44,-710C137.55,-672.59 145.93,-611.22 153.24,-557.69"/>
<polygon fill="none" stroke="#63b8ff" points="128.99,-709.39 131.11,-719.77 135.93,-710.33 128.99,-709.39"/>
</a>
</g>
</g>
<!-- Node5 -->
<g id="Node000005" class="node">
<title>Node5</title>
<g id="a_Node000005"><a xlink:href="class_n_audio_1_1_wave_1_1_wave_format.html" target="_top" xlink:title="Represents a Wave file format.">
<polygon fill="white" stroke="none" points="452.2,-640.25 303.2,-640.25 303.2,-261.25 452.2,-261.25 452.2,-640.25"/>
<text text-anchor="start" x="318.45" y="-626.75" font-family="Helvetica,sans-Serif" font-size="10.00">NAudio.Wave.WaveFormat</text>
<text text-anchor="start" x="307.2" y="-611.75" font-family="Helvetica,sans-Serif" font-size="10.00">+</text>
<text text-anchor="start" x="317.2" y="-611.75" font-family="Helvetica,sans-Serif" font-size="10.00">Encoding</text>
<text text-anchor="start" x="307.2" y="-596.75" font-family="Helvetica,sans-Serif" font-size="10.00">+</text>
<text text-anchor="start" x="317.2" y="-596.75" font-family="Helvetica,sans-Serif" font-size="10.00">Channels</text>
<text text-anchor="start" x="307.2" y="-581.75" font-family="Helvetica,sans-Serif" font-size="10.00">+</text>
<text text-anchor="start" x="317.2" y="-581.75" font-family="Helvetica,sans-Serif" font-size="10.00">SampleRate</text>
<text text-anchor="start" x="307.2" y="-566.75" font-family="Helvetica,sans-Serif" font-size="10.00">+</text>
<text text-anchor="start" x="317.2" y="-566.75" font-family="Helvetica,sans-Serif" font-size="10.00">AverageBytesPerSecond</text>
<text text-anchor="start" x="307.2" y="-551.75" font-family="Helvetica,sans-Serif" font-size="10.00">+</text>
<text text-anchor="start" x="317.2" y="-551.75" font-family="Helvetica,sans-Serif" font-size="10.00">BlockAlign</text>
<text text-anchor="start" x="307.2" y="-536.75" font-family="Helvetica,sans-Serif" font-size="10.00">+</text>
<text text-anchor="start" x="317.2" y="-536.75" font-family="Helvetica,sans-Serif" font-size="10.00">BitsPerSample</text>
<text text-anchor="start" x="307.2" y="-521.75" font-family="Helvetica,sans-Serif" font-size="10.00">+</text>
<text text-anchor="start" x="317.2" y="-521.75" font-family="Helvetica,sans-Serif" font-size="10.00">ExtraSize</text>
<text text-anchor="start" x="307.2" y="-506.75" font-family="Helvetica,sans-Serif" font-size="10.00">+</text>
<text text-anchor="start" x="317.2" y="-506.75" font-family="Helvetica,sans-Serif" font-size="10.00">WaveFormat()</text>
<text text-anchor="start" x="307.2" y="-491.75" font-family="Helvetica,sans-Serif" font-size="10.00">+</text>
<text text-anchor="start" x="317.2" y="-491.75" font-family="Helvetica,sans-Serif" font-size="10.00">WaveFormat()</text>
<text text-anchor="start" x="307.2" y="-476.75" font-family="Helvetica,sans-Serif" font-size="10.00">+</text>
<text text-anchor="start" x="317.2" y="-476.75" font-family="Helvetica,sans-Serif" font-size="10.00">ConvertLatencyToByteSize()</text>
<text text-anchor="start" x="307.2" y="-461.75" font-family="Helvetica,sans-Serif" font-size="10.00">+</text>
<text text-anchor="start" x="317.2" y="-461.75" font-family="Helvetica,sans-Serif" font-size="10.00">WaveFormat()</text>
<text text-anchor="start" x="307.2" y="-446.75" font-family="Helvetica,sans-Serif" font-size="10.00">+</text>
<text text-anchor="start" x="317.2" y="-446.75" font-family="Helvetica,sans-Serif" font-size="10.00">WaveFormat()</text>
<text text-anchor="start" x="307.2" y="-431.75" font-family="Helvetica,sans-Serif" font-size="10.00">+</text>
<text text-anchor="start" x="317.2" y="-431.75" font-family="Helvetica,sans-Serif" font-size="10.00">ToString()</text>
<text text-anchor="start" x="307.2" y="-416.75" font-family="Helvetica,sans-Serif" font-size="10.00">+</text>
<text text-anchor="start" x="317.2" y="-416.75" font-family="Helvetica,sans-Serif" font-size="10.00">Equals()</text>
<text text-anchor="start" x="307.2" y="-401.75" font-family="Helvetica,sans-Serif" font-size="10.00">+</text>
<text text-anchor="start" x="317.2" y="-401.75" font-family="Helvetica,sans-Serif" font-size="10.00">GetHashCode()</text>
<text text-anchor="start" x="307.2" y="-386.75" font-family="Helvetica,sans-Serif" font-size="10.00">+</text>
<text text-anchor="start" x="317.2" y="-386.75" font-family="Helvetica,sans-Serif" font-size="10.00">Serialize()</text>
<text text-anchor="start" x="307.2" y="-371.75" font-family="Helvetica,sans-Serif" font-size="10.00">+</text>
<text text-anchor="start" x="317.2" y="-371.75" font-family="Helvetica,sans-Serif" font-size="10.00">CreateCustomFormat()</text>
<text text-anchor="start" x="307.2" y="-356.75" font-family="Helvetica,sans-Serif" font-size="10.00">+</text>
<text text-anchor="start" x="317.2" y="-356.75" font-family="Helvetica,sans-Serif" font-size="10.00">CreateALawFormat()</text>
<text text-anchor="start" x="307.2" y="-341.75" font-family="Helvetica,sans-Serif" font-size="10.00">+</text>
<text text-anchor="start" x="317.2" y="-341.75" font-family="Helvetica,sans-Serif" font-size="10.00">CreateMuLawFormat()</text>
<text text-anchor="start" x="307.2" y="-326.75" font-family="Helvetica,sans-Serif" font-size="10.00">+</text>
<text text-anchor="start" x="317.2" y="-326.75" font-family="Helvetica,sans-Serif" font-size="10.00">CreateIeeeFloatWaveFormat()</text>
<text text-anchor="start" x="307.2" y="-311.75" font-family="Helvetica,sans-Serif" font-size="10.00">+</text>
<text text-anchor="start" x="317.2" y="-311.75" font-family="Helvetica,sans-Serif" font-size="10.00">MarshalFromPtr()</text>
<text text-anchor="start" x="307.2" y="-296.75" font-family="Helvetica,sans-Serif" font-size="10.00">+</text>
<text text-anchor="start" x="317.2" y="-296.75" font-family="Helvetica,sans-Serif" font-size="10.00">MarshalToPtr()</text>
<text text-anchor="start" x="307.2" y="-281.75" font-family="Helvetica,sans-Serif" font-size="10.00">+</text>
<text text-anchor="start" x="317.2" y="-281.75" font-family="Helvetica,sans-Serif" font-size="10.00">FromFormatChunk()</text>
<text text-anchor="start" x="308.7" y="-266.75" font-family="Helvetica,sans-Serif" font-size="10.00">&#45;</text>
<text text-anchor="start" x="317.2" y="-266.75" font-family="Helvetica,sans-Serif" font-size="10.00">ReadWaveFormat()</text>
<polygon fill="#666666" stroke="#666666" points="303.2,-623.25 303.2,-623.25 452.2,-623.25 452.2,-623.25 303.2,-623.25"/>
<polygon fill="#666666" stroke="#666666" points="303.2,-518.25 303.2,-518.25 315.2,-518.25 315.2,-518.25 303.2,-518.25"/>
<polygon fill="#666666" stroke="#666666" points="315.2,-518.25 315.2,-518.25 452.2,-518.25 452.2,-518.25 315.2,-518.25"/>
<polygon fill="none" stroke="#666666" points="303.2,-261.25 303.2,-640.25 452.2,-640.25 452.2,-261.25 303.2,-261.25"/>
</a>
</g>
</g>
<!-- Node5&#45;&gt;Node1 -->
<g id="edge4_Node000001_Node000005" class="edge">
<title>Node5&#45;&gt;Node1</title>
<g id="a_edge4_Node000001_Node000005"><a xlink:title=" ">
<path fill="none" stroke="#63b8ff" d="M452.05,-279.94C461.32,-263.32 471.24,-247.05 481.7,-232 494.46,-213.63 509.99,-195.43 525.58,-178.85"/>
<polygon fill="none" stroke="#63b8ff" points="525.31,-179.14 526.57,-172.04 533.61,-170.48 532.35,-177.58 525.31,-179.14"/>
</a>
</g>
<text text-anchor="middle" x="511.7" y="-233.75" font-family="Helvetica,sans-Serif" font-size="10.00" fill="grey"> &#45;waveFormat</text>
</g>
<!-- Node6 -->
<g id="Node000006" class="node">
<title>Node6</title>
<g id="a_Node000006"><a xlink:title=" ">
<polygon fill="white" stroke="none" points="288.7,-770.25 182.7,-770.25 182.7,-721.25 288.7,-721.25 288.7,-770.25"/>
<text text-anchor="start" x="187.7" y="-756.75" font-family="Helvetica,sans-Serif" font-size="10.00">WaveFormatEncoding</text>
<text text-anchor="start" x="234.2" y="-741.75" font-family="Helvetica,sans-Serif" font-size="10.00"> </text>
<text text-anchor="start" x="234.2" y="-726.75" font-family="Helvetica,sans-Serif" font-size="10.00"> </text>
<polygon fill="#666666" stroke="#666666" points="182.7,-753.25 182.7,-753.25 288.7,-753.25 288.7,-753.25 182.7,-753.25"/>
<polygon fill="#666666" stroke="#666666" points="182.7,-738.25 182.7,-738.25 288.7,-738.25 288.7,-738.25 182.7,-738.25"/>
<polygon fill="none" stroke="#666666" points="182.7,-721.25 182.7,-770.25 288.7,-770.25 288.7,-721.25 182.7,-721.25"/>
</a>
</g>
</g>
<!-- Node6&#45;&gt;Node5 -->
<g id="edge5_Node000005_Node000006" class="edge">
<title>Node6&#45;&gt;Node5</title>
<g id="a_edge5_Node000005_Node000006"><a xlink:title=" ">
<path fill="none" stroke="#63b8ff" d="M235.93,-721.34C236.75,-703.56 239.31,-678.76 246.7,-658.25 258.87,-624.49 277.28,-590.5 296.49,-560.13"/>
<polygon fill="none" stroke="#63b8ff" points="296.33,-560.39 296.21,-553.18 302.82,-550.3 302.94,-557.51 296.33,-560.39"/>
</a>
</g>
<text text-anchor="middle" x="285.7" y="-676.88" font-family="Helvetica,sans-Serif" font-size="10.00" fill="grey"> #waveFormatTag</text>
</g>
<!-- Node7 -->
<g id="Node000007" class="node">
<title>Node7</title>
<g id="a_Node000007"><a xlink:title=" ">
<polygon fill="white" stroke="none" points="345.2,-770.25 314.2,-770.25 314.2,-721.25 345.2,-721.25 345.2,-770.25"/>
<text text-anchor="start" x="318.82" y="-756.75" font-family="Helvetica,sans-Serif" font-size="10.00">short</text>
<text text-anchor="start" x="328.2" y="-741.75" font-family="Helvetica,sans-Serif" font-size="10.00"> </text>
<text text-anchor="start" x="328.2" y="-726.75" font-family="Helvetica,sans-Serif" font-size="10.00"> </text>
<polygon fill="#666666" stroke="#666666" points="314.2,-753.25 314.2,-753.25 345.2,-753.25 345.2,-753.25 314.2,-753.25"/>
<polygon fill="#666666" stroke="#666666" points="314.2,-738.25 314.2,-738.25 345.2,-738.25 345.2,-738.25 314.2,-738.25"/>
<polygon fill="none" stroke="#666666" points="314.2,-721.25 314.2,-770.25 345.2,-770.25 345.2,-721.25 314.2,-721.25"/>
</a>
</g>
</g>
<!-- Node7&#45;&gt;Node5 -->
<g id="edge6_Node000005_Node000007" class="edge">
<title>Node7&#45;&gt;Node5</title>
<g id="a_edge6_Node000005_Node000007"><a xlink:title=" ">
<path fill="none" stroke="#63b8ff" d="M328.64,-721.53C328.16,-704.07 328.18,-679.58 330.7,-658.25 330.91,-656.49 331.12,-654.72 331.35,-652.95"/>
<polygon fill="none" stroke="#63b8ff" points="331.34,-653.03 328.19,-646.54 332.97,-641.14 336.11,-647.63 331.34,-653.03"/>
</a>
</g>
<text text-anchor="middle" x="366.7" y="-693.75" font-family="Helvetica,sans-Serif" font-size="10.00" fill="grey"> #bitsPerSample</text>
<text text-anchor="middle" x="366.7" y="-682.5" font-family="Helvetica,sans-Serif" font-size="10.00" fill="grey">#blockAlign</text>
<text text-anchor="middle" x="366.7" y="-671.25" font-family="Helvetica,sans-Serif" font-size="10.00" fill="grey">#channels</text>
<text text-anchor="middle" x="366.7" y="-660" font-family="Helvetica,sans-Serif" font-size="10.00" fill="grey">#extraSize</text>
</g>
<!-- Node8 -->
<g id="Node000008" class="node">
<title>Node8</title>
<g id="a_Node000008"><a xlink:title=" ">
<polygon fill="white" stroke="none" points="499.7,-770.25 479.7,-770.25 479.7,-721.25 499.7,-721.25 499.7,-770.25"/>
<text text-anchor="start" x="484.45" y="-756.75" font-family="Helvetica,sans-Serif" font-size="10.00">int</text>
<text text-anchor="start" x="488.2" y="-741.75" font-family="Helvetica,sans-Serif" font-size="10.00"> </text>
<text text-anchor="start" x="488.2" y="-726.75" font-family="Helvetica,sans-Serif" font-size="10.00"> </text>
<polygon fill="#666666" stroke="#666666" points="479.7,-753.25 479.7,-753.25 499.7,-753.25 499.7,-753.25 479.7,-753.25"/>
<polygon fill="#666666" stroke="#666666" points="479.7,-738.25 479.7,-738.25 499.7,-738.25 499.7,-738.25 479.7,-738.25"/>
<polygon fill="none" stroke="#666666" points="479.7,-721.25 479.7,-770.25 499.7,-770.25 499.7,-721.25 479.7,-721.25"/>
</a>
</g>
</g>
<!-- Node8&#45;&gt;Node1 -->
<g id="edge10_Node000001_Node000008" class="edge">
<title>Node8&#45;&gt;Node1</title>
<g id="a_edge10_Node000001_Node000008"><a xlink:title=" ">
<path fill="none" stroke="#63b8ff" d="M499.46,-740.2C511.79,-733.87 532.5,-721.12 541.7,-703.25 564.2,-659.52 558.17,-309.93 565.2,-261.25 566.83,-249.92 568.91,-238.2 571.24,-226.51"/>
<polygon fill="none" stroke="#63b8ff" points="571.24,-226.5 568.54,-219.82 573.68,-214.75 576.38,-221.44 571.24,-226.5"/>
</a>
</g>
<text text-anchor="middle" x="605.95" y="-446.88" font-family="Helvetica,sans-Serif" font-size="10.00" fill="grey"> &#45;dataChunkLength</text>
</g>
<!-- Node8&#45;&gt;Node5 -->
<g id="edge7_Node000005_Node000008" class="edge">
<title>Node8&#45;&gt;Node5</title>
<g id="a_edge7_Node000005_Node000008"><a xlink:title=" ">
<path fill="none" stroke="#63b8ff" d="M480.08,-741.38C465.72,-735.82 438.94,-723.3 425.45,-703.25 418.41,-692.79 412.14,-674.61 406.65,-652.65"/>
<polygon fill="none" stroke="#63b8ff" points="406.65,-652.64 401.38,-647.72 403.89,-640.96 409.16,-645.88 406.65,-652.64"/>
</a>
</g>
<text text-anchor="middle" x="483.82" y="-682.5" font-family="Helvetica,sans-Serif" font-size="10.00" fill="grey"> #averageBytesPerSecond</text>
<text text-anchor="middle" x="483.82" y="-671.25" font-family="Helvetica,sans-Serif" font-size="10.00" fill="grey">#sampleRate</text>
</g>
<!-- Node9 -->
<g id="Node000009" class="node">
<title>Node9</title>
<g id="a_Node000009"><a xlink:title=" ">
<polygon fill="white" stroke="none" points="684.7,-475.25 656.7,-475.25 656.7,-426.25 684.7,-426.25 684.7,-475.25"/>
<text text-anchor="start" x="661.7" y="-461.75" font-family="Helvetica,sans-Serif" font-size="10.00">bool</text>
<text text-anchor="start" x="669.2" y="-446.75" font-family="Helvetica,sans-Serif" font-size="10.00"> </text>
<text text-anchor="start" x="669.2" y="-431.75" font-family="Helvetica,sans-Serif" font-size="10.00"> </text>
<polygon fill="#666666" stroke="#666666" points="656.7,-458.25 656.7,-458.25 684.7,-458.25 684.7,-458.25 656.7,-458.25"/>
<polygon fill="#666666" stroke="#666666" points="656.7,-443.25 656.7,-443.25 684.7,-443.25 684.7,-443.25 656.7,-443.25"/>
<polygon fill="none" stroke="#666666" points="656.7,-426.25 656.7,-475.25 684.7,-475.25 684.7,-426.25 656.7,-426.25"/>
</a>
</g>
</g>
<!-- Node9&#45;&gt;Node1 -->
<g id="edge8_Node000001_Node000009" class="edge">
<title>Node9&#45;&gt;Node1</title>
<g id="a_edge8_Node000001_Node000009"><a xlink:title=" ">
<path fill="none" stroke="#63b8ff" d="M668.1,-426.38C663.92,-390.61 654.92,-320.21 642.7,-261.25 640.36,-249.96 637.69,-238.27 634.85,-226.6"/>
<polygon fill="none" stroke="#63b8ff" points="634.83,-226.5 629.5,-221.64 631.94,-214.85 637.27,-219.71 634.83,-226.5"/>
</a>
</g>
<text text-anchor="middle" x="660.57" y="-233.75" font-family="Helvetica,sans-Serif" font-size="10.00" fill="grey"> &#45;ownInput</text>
</g>
<!-- Node10 -->
<g id="Node000010" class="node">
<title>Node10</title>
<g id="a_Node000010"><a xlink:title=" ">
<polygon fill="white" stroke="none" points="730.7,-475.25 702.7,-475.25 702.7,-426.25 730.7,-426.25 730.7,-475.25"/>
<text text-anchor="start" x="707.7" y="-461.75" font-family="Helvetica,sans-Serif" font-size="10.00">long</text>
<text text-anchor="start" x="715.2" y="-446.75" font-family="Helvetica,sans-Serif" font-size="10.00"> </text>
<text text-anchor="start" x="715.2" y="-431.75" font-family="Helvetica,sans-Serif" font-size="10.00"> </text>
<polygon fill="#666666" stroke="#666666" points="702.7,-458.25 702.7,-458.25 730.7,-458.25 730.7,-458.25 702.7,-458.25"/>
<polygon fill="#666666" stroke="#666666" points="702.7,-443.25 702.7,-443.25 730.7,-443.25 730.7,-443.25 702.7,-443.25"/>
<polygon fill="none" stroke="#666666" points="702.7,-426.25 702.7,-475.25 730.7,-475.25 730.7,-426.25 702.7,-426.25"/>
</a>
</g>
</g>
<!-- Node10&#45;&gt;Node1 -->
<g id="edge9_Node000001_Node000010" class="edge">
<title>Node10&#45;&gt;Node1</title>
<g id="a_edge9_Node000001_Node000010"><a xlink:title=" ">
<path fill="none" stroke="#63b8ff" d="M717.61,-426.43C718.35,-385.37 716.06,-298.27 687.7,-232 684.2,-223.81 680.11,-215.62 675.65,-207.56"/>
<polygon fill="none" stroke="#63b8ff" points="675.58,-207.43 669.12,-204.24 669.58,-197.04 676.04,-200.24 675.58,-207.43"/>
</a>
</g>
<text text-anchor="middle" x="721.7" y="-233.75" font-family="Helvetica,sans-Serif" font-size="10.00" fill="grey"> &#45;dataPosition</text>
</g>
<!-- Node11 -->
<g id="Node000011" class="node">
<title>Node11</title>
<g id="a_Node000011"><a xlink:title=" ">
<polygon fill="white" stroke="none" points="886.2,-480.75 749.2,-480.75 749.2,-420.75 886.2,-420.75 886.2,-480.75"/>
<text text-anchor="start" x="753.95" y="-467.25" font-family="Helvetica,sans-Serif" font-size="10.00">readonly List&lt; NAudio.Wave.</text>
<text text-anchor="start" x="759.2" y="-456" font-family="Helvetica,sans-Serif" font-size="10.00">AiffFileReader.AiffChunk &gt;</text>
<text text-anchor="start" x="816.2" y="-441.25" font-family="Helvetica,sans-Serif" font-size="10.00"> </text>
<text text-anchor="start" x="816.2" y="-426.25" font-family="Helvetica,sans-Serif" font-size="10.00"> </text>
<polygon fill="#666666" stroke="#666666" points="749.2,-452.75 749.2,-452.75 886.2,-452.75 886.2,-452.75 749.2,-452.75"/>
<polygon fill="#666666" stroke="#666666" points="749.2,-437.75 749.2,-437.75 886.2,-437.75 886.2,-437.75 749.2,-437.75"/>
<polygon fill="none" stroke="#666666" points="749.2,-420.75 749.2,-480.75 886.2,-480.75 886.2,-420.75 749.2,-420.75"/>
</a>
</g>
</g>
<!-- Node11&#45;&gt;Node1 -->
<g id="edge11_Node000001_Node000011" class="edge">
<title>Node11&#45;&gt;Node1</title>
<g id="a_edge11_Node000001_Node000011"><a xlink:title=" ">
<path fill="none" stroke="#63b8ff" d="M815.1,-421C809.96,-377 795.32,-291.8 755.7,-232 736.03,-202.31 707.01,-176.32 679.45,-155.91"/>
<polygon fill="none" stroke="#63b8ff" points="679.45,-155.91 672.24,-155.64 669.71,-148.89 676.92,-149.15 679.45,-155.91"/>
</a>
</g>
<text text-anchor="middle" x="780.45" y="-233.75" font-family="Helvetica,sans-Serif" font-size="10.00" fill="grey"> &#45;chunks</text>
</g>
<!-- Node12 -->
<g id="Node000012" class="node">
<title>Node12</title>
<g id="a_Node000012"><a xlink:title=" ">
<polygon fill="white" stroke="none" points="940.7,-475.25 904.7,-475.25 904.7,-426.25 940.7,-426.25 940.7,-475.25"/>
<text text-anchor="start" x="909.57" y="-461.75" font-family="Helvetica,sans-Serif" font-size="10.00">object</text>
<text text-anchor="start" x="921.2" y="-446.75" font-family="Helvetica,sans-Serif" font-size="10.00"> </text>
<text text-anchor="start" x="921.2" y="-431.75" font-family="Helvetica,sans-Serif" font-size="10.00"> </text>
<polygon fill="#666666" stroke="#666666" points="904.7,-458.25 904.7,-458.25 940.7,-458.25 940.7,-458.25 904.7,-458.25"/>
<polygon fill="#666666" stroke="#666666" points="904.7,-443.25 904.7,-443.25 940.7,-443.25 940.7,-443.25 904.7,-443.25"/>
<polygon fill="none" stroke="#666666" points="904.7,-426.25 904.7,-475.25 940.7,-475.25 940.7,-426.25 904.7,-426.25"/>
</a>
</g>
</g>
<!-- Node12&#45;&gt;Node1 -->
<g id="edge13_Node000001_Node000012" class="edge">
<title>Node12&#45;&gt;Node1</title>
<g id="a_edge13_Node000001_Node000012"><a xlink:title=" ">
<path fill="none" stroke="#63b8ff" d="M925.72,-426.43C929.39,-388.2 931.24,-311.43 895.7,-261.25 844.8,-189.39 749.75,-148.69 681.49,-127.57"/>
<polygon fill="none" stroke="#63b8ff" points="681.43,-127.55 674.53,-129.66 669.93,-124.11 676.83,-122 681.43,-127.55"/>
</a>
</g>
<text text-anchor="middle" x="904.95" y="-233.75" font-family="Helvetica,sans-Serif" font-size="10.00" fill="grey"> &#45;lockObject</text>
</g>
</g>
</svg>

<g id="navigator" transform="translate(0 0)" fill="#404254">
  <rect fill="#f2f5e9" fill-opacity="0.5" stroke="#606060" stroke-width=".5" x="0" y="0" width="60" height="60"/>
  <use id="zoomplus" xlink:href="#zoomPlus" x="17" y="9" onmousedown="handleZoom(evt,'in')"/>
  <use id="zoomminus" xlink:href="#zoomMin" x="42" y="9" onmousedown="handleZoom(evt,'out')"/>
  <use id="reset" xlink:href="#resetDef" x="30" y="36" onmousedown="handleReset()"/>
   <use id="arrowup" xlink:href="#arrowUp" x="0" y="0" onmousedown="handlePan(0,-1)"/>
  <use id="arrowright" xlink:href="#arrowRight" x="0" y="0" onmousedown="handlePan(1,0)"/>
  <use id="arrowdown" xlink:href="#arrowDown" x="0" y="0" onmousedown="handlePan(0,1)"/>
  <use id="arrowleft" xlink:href="#arrowLeft" x="0" y="0" onmousedown="handlePan(-1,0)"/>
</g>
<svg viewBox="0 0 15 15" width="100%" height="30px" preserveAspectRatio="xMaxYMin meet">
 <g id="arrow_out" transform="scale(0.3 0.3)">
  <a xlink:href="class_n_audio_1_1_wave_1_1_aiff_file_reader__coll__graph_org.svg" target="_base">
   <rect id="button" ry="5" rx="5" y="6" x="6" height="38" width="38"
        fill="#f2f5e9" fill-opacity="0.5" stroke="#606060" stroke-width="1.0"/>
   <path id="arrow"
     d="M 11.500037,31.436501 C 11.940474,20.09759 22.043105,11.32322 32.158766,21.979434 L 37.068811,17.246167 C 37.068811,17.246167 37.088388,32 37.088388,32 L 22.160133,31.978069 C 22.160133,31.978069 26.997745,27.140456 26.997745,27.140456 C 18.528582,18.264221 13.291696,25.230495 11.500037,31.436501 z"
     style="fill:#404040;"/>
  </a>
 </g>
</svg>

<style type='text/css'>
<![CDATA[
[data-mouse-over-selected='false'] { opacity: 0.7; }
[data-mouse-over-selected='true']  { opacity: 1.0; }
]]>
</style>
<script type="application/ecmascript"><![CDATA[
document.addEventListener('DOMContentLoaded', (event) => {
  highlightEdges();
  highlightAdjacentNodes();
});
]]></script>
</svg>
