<?xml version="1.0" encoding="UTF-8" standalone="no"?>
<!DOCTYPE svg PUBLIC "-//W3C//DTD SVG 1.1//EN"
 "http://www.w3.org/Graphics/SVG/1.1/DTD/svg11.dtd">
<!-- Generated by graphviz version 10.0.1 (20240210.2158)
 -->
<!-- Title: NAudio.Midi.MidiEventComparer Pages: 1 -->
<svg width="160pt" height="142pt"
 viewBox="0.00 0.00 160.00 142.00" xmlns="http://www.w3.org/2000/svg" xmlns:xlink="http://www.w3.org/1999/xlink">

<svg id="main" version="1.1" xmlns="http://www.w3.org/2000/svg" xmlns:xlink="http://www.w3.org/1999/xlink" xml:space="preserve" onload="init(evt)">
<style type="text/css"><![CDATA[
.node, .edge {opacity: 0.7;}
.node.selected, .edge.selected {opacity: 1;}
.edge:hover path { stroke: red; }
.edge:hover polygon { stroke: red; fill: red; }
]]></style>
<script type="application/ecmascript" xlink:href="svg.min.js"/>
<svg id="graph" class="graph">
<g id="graph0" class="graph" transform="scale(1 1) rotate(0) translate(4 138)">
<title>NAudio.Midi.MidiEventComparer</title>
<!-- Node1 -->
<g id="Node000001" class="node">
<title>Node1</title>
<g id="a_Node000001"><a xlink:title="Utility class for comparing MidiEvent objects.">
<polygon fill="#999999" stroke="none" points="152,-49 0,-49 0,0 152,0 152,-49"/>
<text text-anchor="start" x="4.75" y="-35.5" font-family="Helvetica,sans-Serif" font-size="10.00">NAudio.Midi.MidiEventComparer</text>
<text text-anchor="start" x="74.5" y="-20.5" font-family="Helvetica,sans-Serif" font-size="10.00"> </text>
<text text-anchor="start" x="26" y="-5.5" font-family="Helvetica,sans-Serif" font-size="10.00">+</text>
<text text-anchor="start" x="58" y="-5.5" font-family="Helvetica,sans-Serif" font-size="10.00">Compare()</text>
<polygon fill="#666666" stroke="#666666" points="0,-32 0,-32 152,-32 152,-32 0,-32"/>
<polygon fill="#666666" stroke="#666666" points="0,-17 0,-17 152,-17 152,-17 0,-17"/>
<polygon fill="none" stroke="#666666" points="0,0 0,-49 152,-49 152,0 0,0"/>
</a>
</g>
</g>
<!-- Node2 -->
<g id="Node000002" class="node">
<title>Node2</title>
<g id="a_Node000002"><a xlink:href="class_i_comparer.html" target="_top" xlink:title=" ">
<polygon fill="white" stroke="none" points="134.5,-134 17.5,-134 17.5,-85 134.5,-85 134.5,-134"/>
<text text-anchor="start" x="22.38" y="-120.5" font-family="Helvetica,sans-Serif" font-size="10.00">IComparer&lt; MidiEvent &gt;</text>
<text text-anchor="start" x="74.5" y="-105.5" font-family="Helvetica,sans-Serif" font-size="10.00"> </text>
<text text-anchor="start" x="74.5" y="-90.5" font-family="Helvetica,sans-Serif" font-size="10.00"> </text>
<polygon fill="#666666" stroke="#666666" points="17.5,-117 17.5,-117 134.5,-117 134.5,-117 17.5,-117"/>
<polygon fill="#666666" stroke="#666666" points="17.5,-102 17.5,-102 134.5,-102 134.5,-102 17.5,-102"/>
<polygon fill="none" stroke="#666666" points="17.5,-85 17.5,-134 134.5,-134 134.5,-85 17.5,-85"/>
</a>
</g>
</g>
<!-- Node2&#45;&gt;Node1 -->
<g id="edge1_Node000001_Node000002" class="edge">
<title>Node2&#45;&gt;Node1</title>
<g id="a_edge1_Node000001_Node000002"><a xlink:title=" ">
<path fill="none" stroke="#63b8ff" d="M76,-74.14C76,-65.6 76,-56.65 76,-48.78"/>
<polygon fill="none" stroke="#63b8ff" points="72.5,-73.87 76,-83.87 79.5,-73.87 72.5,-73.87"/>
</a>
</g>
</g>
</g>
</svg>
</svg>

<style type='text/css'>
<![CDATA[
[data-mouse-over-selected='false'] { opacity: 0.7; }
[data-mouse-over-selected='true']  { opacity: 1.0; }
]]>
</style>
<script type="application/ecmascript"><![CDATA[
document.addEventListener('DOMContentLoaded', (event) => {
  highlightEdges();
  highlightAdjacentNodes();
});
]]></script>
</svg>
