<?xml version="1.0" encoding="UTF-8" standalone="no"?>
<!DOCTYPE svg PUBLIC "-//W3C//DTD SVG 1.1//EN"
 "http://www.w3.org/Graphics/SVG/1.1/DTD/svg11.dtd">
<!-- Generated by graphviz version 10.0.1 (20240210.2158)
 -->
<!-- Title: NAudio.Wave.Asio.AsioDriverExt.SetSampleRate Pages: 1 -->
<svg width="712pt" height="312pt"
 viewBox="0.00 0.00 711.75 311.61" xmlns="http://www.w3.org/2000/svg" xmlns:xlink="http://www.w3.org/1999/xlink">
<g id="graph0" class="graph" transform="scale(1 1) rotate(0) translate(4 307.61)">
<title>NAudio.Wave.Asio.AsioDriverExt.SetSampleRate</title>
<!-- Node1 -->
<g id="Node000001" class="node">
<title>Node1</title>
<g id="a_Node000001"><a xlink:title="Sets the sample rate for the driver and updates the capabilities.">
<polygon fill="#999999" stroke="#666666" points="147.25,-85.61 0,-85.61 0,-55.11 147.25,-55.11 147.25,-85.61"/>
<text text-anchor="start" x="8" y="-72.11" font-family="Helvetica,sans-Serif" font-size="10.00">NAudio.Wave.Asio.AsioDriver</text>
<text text-anchor="middle" x="73.62" y="-60.86" font-family="Helvetica,sans-Serif" font-size="10.00">Ext.SetSampleRate</text>
</a>
</g>
</g>
<!-- Node2 -->
<g id="Node000002" class="node">
<title>Node2</title>
<g id="a_Node000002"><a xlink:href="class_n_audio_1_1_wave_1_1_asio_1_1_asio_driver_ext.html#a4d8c8082920803501cfe51095064209a" target="_top" xlink:title="Builds the capabilities of the ASIO driver, including driver name, input/output channels,...">
<polygon fill="white" stroke="#666666" points="331.62,-156.61 184.38,-156.61 184.38,-126.11 331.62,-126.11 331.62,-156.61"/>
<text text-anchor="start" x="192.38" y="-143.11" font-family="Helvetica,sans-Serif" font-size="10.00">NAudio.Wave.Asio.AsioDriver</text>
<text text-anchor="middle" x="258" y="-131.86" font-family="Helvetica,sans-Serif" font-size="10.00">Ext.BuildCapabilities</text>
</a>
</g>
</g>
<!-- Node1&#45;&gt;Node2 -->
<g id="edge1_Node000001_Node000002" class="edge">
<title>Node1&#45;&gt;Node2</title>
<g id="a_edge1_Node000001_Node000002"><a xlink:title=" ">
<path fill="none" stroke="#63b8ff" d="M114.65,-85.95C141.52,-96.41 177.15,-110.28 206.04,-121.53"/>
<polygon fill="#63b8ff" stroke="#63b8ff" points="204.76,-124.78 215.35,-125.15 207.3,-118.26 204.76,-124.78"/>
</a>
</g>
</g>
<!-- Node10 -->
<g id="Node000010" class="node">
<title>Node10</title>
<g id="a_Node000010"><a xlink:href="class_n_audio_1_1_wave_1_1_asio_1_1_asio_driver.html#a9ab5496ddf3f7572a1c9ea967432f8e4" target="_top" xlink:title="Sets the sample rate for the ASIO driver.">
<polygon fill="white" stroke="#666666" points="332.75,-61.61 183.25,-61.61 183.25,-31.11 332.75,-31.11 332.75,-61.61"/>
<text text-anchor="start" x="191.25" y="-48.11" font-family="Helvetica,sans-Serif" font-size="10.00">NAudio.Wave.Asio.AsioDriver.</text>
<text text-anchor="middle" x="258" y="-36.86" font-family="Helvetica,sans-Serif" font-size="10.00">SetSampleRate</text>
</a>
</g>
</g>
<!-- Node1&#45;&gt;Node10 -->
<g id="edge12_Node000001_Node000010" class="edge">
<title>Node1&#45;&gt;Node10</title>
<g id="a_edge12_Node000001_Node000010"><a xlink:title=" ">
<path fill="none" stroke="#63b8ff" d="M147.49,-60.78C155.38,-59.74 163.46,-58.67 171.48,-57.62"/>
<polygon fill="#63b8ff" stroke="#63b8ff" points="171.8,-61.11 181.26,-56.33 170.89,-54.17 171.8,-61.11"/>
</a>
</g>
</g>
<!-- Node3 -->
<g id="Node000003" class="node">
<title>Node3</title>
<g id="a_Node000003"><a xlink:href="class_n_audio_1_1_wave_1_1_asio_1_1_asio_driver.html#ae71d8b791f4be3c4e68ad2fbe7c5dd88" target="_top" xlink:title="Retrieves the buffer size information from the ASIO driver.">
<polygon fill="white" stroke="#666666" points="518.25,-303.61 368.75,-303.61 368.75,-273.11 518.25,-273.11 518.25,-303.61"/>
<text text-anchor="start" x="376.75" y="-290.11" font-family="Helvetica,sans-Serif" font-size="10.00">NAudio.Wave.Asio.AsioDriver.</text>
<text text-anchor="middle" x="443.5" y="-278.86" font-family="Helvetica,sans-Serif" font-size="10.00">GetBufferSize</text>
</a>
</g>
</g>
<!-- Node2&#45;&gt;Node3 -->
<g id="edge2_Node000002_Node000003" class="edge">
<title>Node2&#45;&gt;Node3</title>
<g id="a_edge2_Node000002_Node000003"><a xlink:title=" ">
<path fill="none" stroke="#63b8ff" d="M268.92,-156.79C286.21,-182.47 324.26,-234.06 368.75,-263.36 371.12,-264.93 373.6,-266.4 376.15,-267.79"/>
<polygon fill="#63b8ff" stroke="#63b8ff" points="374.41,-270.83 384.93,-272.08 377.48,-264.54 374.41,-270.83"/>
</a>
</g>
</g>
<!-- Node5 -->
<g id="Node000005" class="node">
<title>Node5</title>
<g id="a_Node000005"><a xlink:href="class_n_audio_1_1_wave_1_1_asio_1_1_asio_driver.html#a0097264cfac08cc18b7a7b68c0d2245e" target="_top" xlink:title="Retrieves the information about the specified channel.">
<polygon fill="white" stroke="#666666" points="518.25,-254.61 368.75,-254.61 368.75,-224.11 518.25,-224.11 518.25,-254.61"/>
<text text-anchor="start" x="376.75" y="-241.11" font-family="Helvetica,sans-Serif" font-size="10.00">NAudio.Wave.Asio.AsioDriver.</text>
<text text-anchor="middle" x="443.5" y="-229.86" font-family="Helvetica,sans-Serif" font-size="10.00">GetChannelInfo</text>
</a>
</g>
</g>
<!-- Node2&#45;&gt;Node5 -->
<g id="edge4_Node000002_Node000005" class="edge">
<title>Node2&#45;&gt;Node5</title>
<g id="a_edge4_Node000002_Node000005"><a xlink:title=" ">
<path fill="none" stroke="#63b8ff" d="M279.07,-157.05C300.37,-173.12 335.48,-198.01 368.75,-214.36 372.42,-216.17 376.26,-217.9 380.17,-219.54"/>
<polygon fill="#63b8ff" stroke="#63b8ff" points="378.63,-222.7 389.22,-223.14 381.22,-216.19 378.63,-222.7"/>
</a>
</g>
</g>
<!-- Node6 -->
<g id="Node000006" class="node">
<title>Node6</title>
<g id="a_Node000006"><a xlink:href="class_n_audio_1_1_wave_1_1_asio_1_1_asio_driver.html#a6b1146266c5a2417ed80be6411b98ad4" target="_top" xlink:title="Retrieves the number of input and output channels available.">
<polygon fill="white" stroke="#666666" points="518.25,-205.61 368.75,-205.61 368.75,-175.11 518.25,-175.11 518.25,-205.61"/>
<text text-anchor="start" x="376.75" y="-192.11" font-family="Helvetica,sans-Serif" font-size="10.00">NAudio.Wave.Asio.AsioDriver.</text>
<text text-anchor="middle" x="443.5" y="-180.86" font-family="Helvetica,sans-Serif" font-size="10.00">GetChannels</text>
</a>
</g>
</g>
<!-- Node2&#45;&gt;Node6 -->
<g id="edge6_Node000002_Node000006" class="edge">
<title>Node2&#45;&gt;Node6</title>
<g id="a_edge6_Node000002_Node000006"><a xlink:title=" ">
<path fill="none" stroke="#63b8ff" d="M317.82,-157.07C335.27,-161.73 354.55,-166.88 372.63,-171.71"/>
<polygon fill="#63b8ff" stroke="#63b8ff" points="371.67,-175.07 382.24,-174.27 373.48,-168.31 371.67,-175.07"/>
</a>
</g>
</g>
<!-- Node7 -->
<g id="Node000007" class="node">
<title>Node7</title>
<g id="a_Node000007"><a xlink:href="class_n_audio_1_1_wave_1_1_asio_1_1_asio_driver.html#ae07aee2172b0a429129a05c7844e05c9" target="_top" xlink:title="Retrieves the name of the ASIO driver.">
<polygon fill="white" stroke="#666666" points="518.25,-156.61 368.75,-156.61 368.75,-126.11 518.25,-126.11 518.25,-156.61"/>
<text text-anchor="start" x="376.75" y="-143.11" font-family="Helvetica,sans-Serif" font-size="10.00">NAudio.Wave.Asio.AsioDriver.</text>
<text text-anchor="middle" x="443.5" y="-131.86" font-family="Helvetica,sans-Serif" font-size="10.00">GetDriverName</text>
</a>
</g>
</g>
<!-- Node2&#45;&gt;Node7 -->
<g id="edge8_Node000002_Node000007" class="edge">
<title>Node2&#45;&gt;Node7</title>
<g id="a_edge8_Node000002_Node000007"><a xlink:title=" ">
<path fill="none" stroke="#63b8ff" d="M332.05,-141.36C340.3,-141.36 348.75,-141.36 357.14,-141.36"/>
<polygon fill="#63b8ff" stroke="#63b8ff" points="356.99,-144.86 366.99,-141.36 356.99,-137.86 356.99,-144.86"/>
</a>
</g>
</g>
<!-- Node8 -->
<g id="Node000008" class="node">
<title>Node8</title>
<g id="a_Node000008"><a xlink:href="class_n_audio_1_1_wave_1_1_asio_1_1_asio_driver.html#a5cd7dfeb49a5aa1a77d35aba9ca55acc" target="_top" xlink:title="Retrieves the input and output latencies of the ASIO driver.">
<polygon fill="white" stroke="#666666" points="518.25,-107.61 368.75,-107.61 368.75,-77.11 518.25,-77.11 518.25,-107.61"/>
<text text-anchor="start" x="376.75" y="-94.11" font-family="Helvetica,sans-Serif" font-size="10.00">NAudio.Wave.Asio.AsioDriver.</text>
<text text-anchor="middle" x="443.5" y="-82.86" font-family="Helvetica,sans-Serif" font-size="10.00">GetLatencies</text>
</a>
</g>
</g>
<!-- Node2&#45;&gt;Node8 -->
<g id="edge9_Node000002_Node000008" class="edge">
<title>Node2&#45;&gt;Node8</title>
<g id="a_edge9_Node000002_Node000008"><a xlink:title=" ">
<path fill="none" stroke="#63b8ff" d="M317.82,-125.66C335.27,-121 354.55,-115.85 372.63,-111.02"/>
<polygon fill="#63b8ff" stroke="#63b8ff" points="373.48,-114.42 382.24,-108.46 371.67,-107.65 373.48,-114.42"/>
</a>
</g>
</g>
<!-- Node9 -->
<g id="Node000009" class="node">
<title>Node9</title>
<g id="a_Node000009"><a xlink:href="class_n_audio_1_1_wave_1_1_asio_1_1_asio_driver.html#a9b675df63cb0492a589581316375f7e8" target="_top" xlink:title="Retrieves the sample rate from the ASIO driver.">
<polygon fill="white" stroke="#666666" points="518.25,-58.61 368.75,-58.61 368.75,-28.11 518.25,-28.11 518.25,-58.61"/>
<text text-anchor="start" x="376.75" y="-45.11" font-family="Helvetica,sans-Serif" font-size="10.00">NAudio.Wave.Asio.AsioDriver.</text>
<text text-anchor="middle" x="443.5" y="-33.86" font-family="Helvetica,sans-Serif" font-size="10.00">GetSampleRate</text>
</a>
</g>
</g>
<!-- Node2&#45;&gt;Node9 -->
<g id="edge10_Node000002_Node000009" class="edge">
<title>Node2&#45;&gt;Node9</title>
<g id="a_edge10_Node000002_Node000009"><a xlink:title=" ">
<path fill="none" stroke="#63b8ff" d="M279.07,-125.68C300.37,-109.61 335.48,-84.72 368.75,-68.36 372.42,-66.56 376.26,-64.83 380.17,-63.19"/>
<polygon fill="#63b8ff" stroke="#63b8ff" points="381.22,-66.54 389.22,-59.59 378.63,-60.03 381.22,-66.54"/>
</a>
</g>
</g>
<!-- Node4 -->
<g id="Node000004" class="node">
<title>Node4</title>
<g id="a_Node000004"><a xlink:href="class_n_audio_1_1_wave_1_1_asio_1_1_asio_driver.html#a76105cefc713c3dcc7e9bfd8dba74735" target="_top" xlink:title="Handles the exception for the ASIO method.">
<polygon fill="white" stroke="#666666" points="703.75,-205.61 554.25,-205.61 554.25,-175.11 703.75,-175.11 703.75,-205.61"/>
<text text-anchor="start" x="562.25" y="-192.11" font-family="Helvetica,sans-Serif" font-size="10.00">NAudio.Wave.Asio.AsioDriver.</text>
<text text-anchor="middle" x="629" y="-180.86" font-family="Helvetica,sans-Serif" font-size="10.00">HandleException</text>
</a>
</g>
</g>
<!-- Node3&#45;&gt;Node4 -->
<g id="edge3_Node000003_Node000004" class="edge">
<title>Node3&#45;&gt;Node4</title>
<g id="a_edge3_Node000003_Node000004"><a xlink:title=" ">
<path fill="none" stroke="#63b8ff" d="M496.37,-272.69C503.84,-269.89 511.33,-266.76 518.25,-263.36 547.1,-249.18 577.34,-228.58 598.75,-212.88"/>
<polygon fill="#63b8ff" stroke="#63b8ff" points="600.78,-215.73 606.72,-206.95 596.6,-210.11 600.78,-215.73"/>
</a>
</g>
</g>
<!-- Node5&#45;&gt;Node4 -->
<g id="edge5_Node000005_Node000004" class="edge">
<title>Node5&#45;&gt;Node4</title>
<g id="a_edge5_Node000005_Node000004"><a xlink:title=" ">
<path fill="none" stroke="#63b8ff" d="M503.32,-223.66C520.77,-219 540.05,-213.85 558.13,-209.02"/>
<polygon fill="#63b8ff" stroke="#63b8ff" points="558.98,-212.42 567.74,-206.46 557.17,-205.65 558.98,-212.42"/>
</a>
</g>
</g>
<!-- Node6&#45;&gt;Node4 -->
<g id="edge7_Node000006_Node000004" class="edge">
<title>Node6&#45;&gt;Node4</title>
<g id="a_edge7_Node000006_Node000004"><a xlink:title=" ">
<path fill="none" stroke="#63b8ff" d="M518.61,-190.36C526.52,-190.36 534.61,-190.36 542.64,-190.36"/>
<polygon fill="#63b8ff" stroke="#63b8ff" points="542.4,-193.86 552.4,-190.36 542.4,-186.86 542.4,-193.86"/>
</a>
</g>
</g>
<!-- Node9&#45;&gt;Node4 -->
<g id="edge11_Node000009_Node000004" class="edge">
<title>Node9&#45;&gt;Node4</title>
<g id="a_edge11_Node000009_Node000004"><a xlink:title=" ">
<path fill="none" stroke="#63b8ff" d="M500.71,-58.99C506.85,-61.68 512.83,-64.79 518.25,-68.36 557.87,-94.47 592.39,-138.24 611.68,-165.65"/>
<polygon fill="#63b8ff" stroke="#63b8ff" points="608.66,-167.44 617.22,-173.69 614.43,-163.47 608.66,-167.44"/>
</a>
</g>
</g>
<!-- Node10&#45;&gt;Node4 -->
<g id="edge13_Node000010_Node000004" class="edge">
<title>Node10&#45;&gt;Node4</title>
<g id="a_edge13_Node000010_Node000004"><a xlink:title=" ">
<path fill="none" stroke="#63b8ff" d="M294.21,-30.66C346.54,-9.85 446.37,19.91 518.25,-19.36 574.76,-50.24 606.48,-124.04 620.04,-163.84"/>
<polygon fill="#63b8ff" stroke="#63b8ff" points="616.71,-164.92 623.13,-173.35 623.36,-162.75 616.71,-164.92"/>
</a>
</g>
</g>
</g>
</svg>
