<?xml version="1.0" encoding="UTF-8" standalone="no"?>
<!DOCTYPE svg PUBLIC "-//W3C//DTD SVG 1.1//EN"
 "http://www.w3.org/Graphics/SVG/1.1/DTD/svg11.dtd">
<!-- Generated by graphviz version 10.0.1 (20240210.2158)
 -->
<!-- Title: xeno_rat_server.Forms.InfoGrab.richTextBox1_TextChanged Pages: 1 -->
<svg width="511pt" height="39pt"
 viewBox="0.00 0.00 510.50 38.50" xmlns="http://www.w3.org/2000/svg" xmlns:xlink="http://www.w3.org/1999/xlink">
<g id="graph0" class="graph" transform="scale(1 1) rotate(0) translate(4 34.5)">
<title>xeno_rat_server.Forms.InfoGrab.richTextBox1_TextChanged</title>
<!-- Node1 -->
<g id="Node000001" class="node">
<title>Node1</title>
<g id="a_Node000001"><a xlink:title="Event handler for the TextChanged event of the richTextBox1 control.">
<polygon fill="#999999" stroke="#666666" points="502.5,-30.5 342.5,-30.5 342.5,0 502.5,0 502.5,-30.5"/>
<text text-anchor="start" x="350.5" y="-17" font-family="Helvetica,sans-Serif" font-size="10.00">xeno_rat_server.Forms.Info</text>
<text text-anchor="middle" x="422.5" y="-5.75" font-family="Helvetica,sans-Serif" font-size="10.00">Grab.richTextBox1_TextChanged</text>
</a>
</g>
</g>
<!-- Node2 -->
<g id="Node000002" class="node">
<title>Node2</title>
<g id="a_Node000002"><a xlink:href="classxeno__rat__server_1_1_forms_1_1_info_grab.html#a4d2a351c38d239200fcbb840d6bb45af" target="_top" xlink:title="Initializes the components of the form.">
<polygon fill="white" stroke="#666666" points="306.5,-30.5 171.25,-30.5 171.25,0 306.5,0 306.5,-30.5"/>
<text text-anchor="start" x="179.25" y="-17" font-family="Helvetica,sans-Serif" font-size="10.00">xeno_rat_server.Forms.Info</text>
<text text-anchor="middle" x="238.88" y="-5.75" font-family="Helvetica,sans-Serif" font-size="10.00">Grab.InitializeComponent</text>
</a>
</g>
</g>
<!-- Node1&#45;&gt;Node2 -->
<g id="edge1_Node000001_Node000002" class="edge">
<title>Node1&#45;&gt;Node2</title>
<g id="a_edge1_Node000001_Node000002"><a xlink:title=" ">
<path fill="none" stroke="#63b8ff" d="M330.77,-15.25C322.73,-15.25 314.69,-15.25 306.9,-15.25"/>
<polygon fill="#63b8ff" stroke="#63b8ff" points="330.59,-18.75 340.59,-15.25 330.59,-11.75 330.59,-18.75"/>
</a>
</g>
</g>
<!-- Node3 -->
<g id="Node000003" class="node">
<title>Node3</title>
<g id="a_Node000003"><a xlink:href="classxeno__rat__server_1_1_forms_1_1_info_grab.html#ada9eaf7fdd60b9f454b68a93da59a024" target="_top" xlink:title=" ">
<polygon fill="white" stroke="#666666" points="135.25,-30.5 0,-30.5 0,0 135.25,0 135.25,-30.5"/>
<text text-anchor="start" x="8" y="-17" font-family="Helvetica,sans-Serif" font-size="10.00">xeno_rat_server.Forms.Info</text>
<text text-anchor="middle" x="67.62" y="-5.75" font-family="Helvetica,sans-Serif" font-size="10.00">Grab.InfoGrab</text>
</a>
</g>
</g>
<!-- Node2&#45;&gt;Node3 -->
<g id="edge2_Node000002_Node000003" class="edge">
<title>Node2&#45;&gt;Node3</title>
<g id="a_edge2_Node000002_Node000003"><a xlink:title=" ">
<path fill="none" stroke="#63b8ff" d="M159.68,-15.25C151.63,-15.25 143.5,-15.25 135.59,-15.25"/>
<polygon fill="#63b8ff" stroke="#63b8ff" points="159.47,-18.75 169.47,-15.25 159.47,-11.75 159.47,-18.75"/>
</a>
</g>
</g>
</g>
</svg>
