<?xml version="1.0" encoding="UTF-8" standalone="no"?>
<!DOCTYPE svg PUBLIC "-//W3C//DTD SVG 1.1//EN"
 "http://www.w3.org/Graphics/SVG/1.1/DTD/svg11.dtd">
<!-- Generated by graphviz version 10.0.1 (20240210.2158)
 -->
<!-- Title: NAudio.Wave.WaveOutBuffer.WaveOutBuffer Pages: 1 -->
<svg width="562pt" height="76pt"
 viewBox="0.00 0.00 562.25 75.88" xmlns="http://www.w3.org/2000/svg" xmlns:xlink="http://www.w3.org/1999/xlink">
<g id="graph0" class="graph" transform="scale(1 1) rotate(0) translate(4 71.88)">
<title>NAudio.Wave.WaveOutBuffer.WaveOutBuffer</title>
<!-- Node1 -->
<g id="Node000001" class="node">
<title>Node1</title>
<g id="a_Node000001"><a xlink:title="creates a new wavebuffer">
<polygon fill="#999999" stroke="#666666" points="148,-51.5 0,-51.5 0,-21 148,-21 148,-51.5"/>
<text text-anchor="start" x="8" y="-38" font-family="Helvetica,sans-Serif" font-size="10.00">NAudio.Wave.WaveOutBuffer.</text>
<text text-anchor="middle" x="74" y="-26.75" font-family="Helvetica,sans-Serif" font-size="10.00">WaveOutBuffer</text>
</a>
</g>
</g>
<!-- Node2 -->
<g id="Node000002" class="node">
<title>Node2</title>
<g id="a_Node000002"><a xlink:href="class_n_audio_1_1_mm_exception.html#a1ca263e295226b2dff8fda80043242d2" target="_top" xlink:title="Throws an exception if the specified result is not equal to MmResult.NoError.">
<polygon fill="white" stroke="#666666" points="328.25,-67.88 199.75,-67.88 199.75,-48.62 328.25,-48.62 328.25,-67.88"/>
<text text-anchor="middle" x="264" y="-54.38" font-family="Helvetica,sans-Serif" font-size="10.00">NAudio.MmException.Try</text>
</a>
</g>
</g>
<!-- Node1&#45;&gt;Node2 -->
<g id="edge1_Node000001_Node000002" class="edge">
<title>Node1&#45;&gt;Node2</title>
<g id="a_edge1_Node000001_Node000002"><a xlink:title=" ">
<path fill="none" stroke="#63b8ff" d="M148.49,-44.85C161.48,-46.37 175.01,-47.95 188.03,-49.48"/>
<polygon fill="#63b8ff" stroke="#63b8ff" points="187.48,-52.94 197.82,-50.62 188.29,-45.98 187.48,-52.94"/>
</a>
</g>
</g>
<!-- Node4 -->
<g id="Node000004" class="node">
<title>Node4</title>
<g id="a_Node000004"><a xlink:href="class_n_audio_1_1_wave_1_1_wave_interop.html#a1dbecc07cd3ba339b3c36302ae64a640" target="_top" xlink:title="Prepares the header for playback on a waveform&#45;audio output device.">
<polygon fill="white" stroke="#666666" points="344,-30.5 184,-30.5 184,0 344,0 344,-30.5"/>
<text text-anchor="start" x="192" y="-17" font-family="Helvetica,sans-Serif" font-size="10.00">NAudio.Wave.WaveInterop.wave</text>
<text text-anchor="middle" x="264" y="-5.75" font-family="Helvetica,sans-Serif" font-size="10.00">OutPrepareHeader</text>
</a>
</g>
</g>
<!-- Node1&#45;&gt;Node4 -->
<g id="edge3_Node000001_Node000004" class="edge">
<title>Node1&#45;&gt;Node4</title>
<g id="a_edge3_Node000001_Node000004"><a xlink:title=" ">
<path fill="none" stroke="#63b8ff" d="M148.49,-28.04C156.33,-27.16 164.37,-26.27 172.38,-25.37"/>
<polygon fill="#63b8ff" stroke="#63b8ff" points="172.6,-28.87 182.15,-24.28 171.82,-21.91 172.6,-28.87"/>
</a>
</g>
</g>
<!-- Node3 -->
<g id="Node000003" class="node">
<title>Node3</title>
<g id="a_Node000003"><a xlink:href="class_n_audio_1_1_mm_exception.html#a674e0bb89c4e2aeb1f4ea96514710947" target="_top" xlink:title="Creates a new MmException.">
<polygon fill="white" stroke="#666666" points="554.25,-67.88 380,-67.88 380,-48.62 554.25,-48.62 554.25,-67.88"/>
<text text-anchor="middle" x="467.12" y="-54.38" font-family="Helvetica,sans-Serif" font-size="10.00">NAudio.MmException.MmException</text>
</a>
</g>
</g>
<!-- Node2&#45;&gt;Node3 -->
<g id="edge2_Node000002_Node000003" class="edge">
<title>Node2&#45;&gt;Node3</title>
<g id="a_edge2_Node000002_Node000003"><a xlink:title=" ">
<path fill="none" stroke="#63b8ff" d="M328.64,-58.25C341.31,-58.25 354.9,-58.25 368.42,-58.25"/>
<polygon fill="#63b8ff" stroke="#63b8ff" points="368.22,-61.75 378.22,-58.25 368.22,-54.75 368.22,-61.75"/>
</a>
</g>
</g>
</g>
</svg>
