<?xml version="1.0" encoding="UTF-8" standalone="no"?>
<!DOCTYPE svg PUBLIC "-//W3C//DTD SVG 1.1//EN"
 "http://www.w3.org/Graphics/SVG/1.1/DTD/svg11.dtd">
<!-- Generated by graphviz version 10.0.1 (20240210.2158)
 -->
<!-- Title: NAudio.Mixer.MixerControl.GetMixerControls Pages: 1 -->
<svg width="511pt" height="284pt"
 viewBox="0.00 0.00 510.50 283.50" xmlns="http://www.w3.org/2000/svg" xmlns:xlink="http://www.w3.org/1999/xlink">
<g id="graph0" class="graph" transform="scale(1 1) rotate(0) translate(4 279.5)">
<title>NAudio.Mixer.MixerControl.GetMixerControls</title>
<!-- Node1 -->
<g id="Node000001" class="node">
<title>Node1</title>
<g id="a_Node000001"><a xlink:title="Retrieves the mixer controls associated with the specified mixer line.">
<polygon fill="#999999" stroke="#666666" points="136,-79.5 0,-79.5 0,-49 136,-49 136,-79.5"/>
<text text-anchor="start" x="8" y="-66" font-family="Helvetica,sans-Serif" font-size="10.00">NAudio.Mixer.MixerControl.</text>
<text text-anchor="middle" x="68" y="-54.75" font-family="Helvetica,sans-Serif" font-size="10.00">GetMixerControls</text>
</a>
</g>
</g>
<!-- Node2 -->
<g id="Node000002" class="node">
<title>Node2</title>
<g id="a_Node000002"><a xlink:href="class_n_audio_1_1_mixer_1_1_mixer_control.html#a1bf06341334b698003b7f510ebf563ae" target="_top" xlink:title="Retrieves the specified mixer control.">
<polygon fill="white" stroke="#666666" points="308,-128.5 172,-128.5 172,-98 308,-98 308,-128.5"/>
<text text-anchor="start" x="180" y="-115" font-family="Helvetica,sans-Serif" font-size="10.00">NAudio.Mixer.MixerControl.</text>
<text text-anchor="middle" x="240" y="-103.75" font-family="Helvetica,sans-Serif" font-size="10.00">GetMixerControl</text>
</a>
</g>
</g>
<!-- Node1&#45;&gt;Node2 -->
<g id="edge1_Node000001_Node000002" class="edge">
<title>Node1&#45;&gt;Node2</title>
<g id="a_edge1_Node000001_Node000002"><a xlink:title=" ">
<path fill="none" stroke="#63b8ff" d="M123.26,-79.89C139.28,-84.51 156.98,-89.61 173.63,-94.41"/>
<polygon fill="#63b8ff" stroke="#63b8ff" points="172.35,-97.68 182.93,-97.09 174.29,-90.96 172.35,-97.68"/>
</a>
</g>
</g>
<!-- Node8 -->
<g id="Node000008" class="node">
<title>Node8</title>
<g id="a_Node000008"><a xlink:href="class_n_audio_1_1_mixer_1_1_mixer_interop.html#abdb52bd5c1e2a003570592acf49309a9" target="_top" xlink:title="Retrieves the controls for a specified audio mixer line.">
<polygon fill="white" stroke="#666666" points="502.5,-30.5 344,-30.5 344,0 502.5,0 502.5,-30.5"/>
<text text-anchor="start" x="352" y="-17" font-family="Helvetica,sans-Serif" font-size="10.00">NAudio.Mixer.MixerInterop.mixer</text>
<text text-anchor="middle" x="423.25" y="-5.75" font-family="Helvetica,sans-Serif" font-size="10.00">GetLineControls</text>
</a>
</g>
</g>
<!-- Node1&#45;&gt;Node8 -->
<g id="edge8_Node000001_Node000008" class="edge">
<title>Node1&#45;&gt;Node8</title>
<g id="a_edge8_Node000001_Node000008"><a xlink:title=" ">
<path fill="none" stroke="#63b8ff" d="M136.28,-54.92C191.87,-47.21 271.29,-36.19 332.33,-27.72"/>
<polygon fill="#63b8ff" stroke="#63b8ff" points="332.58,-31.22 342.01,-26.38 331.62,-24.29 332.58,-31.22"/>
</a>
</g>
</g>
<!-- Node3 -->
<g id="Node000003" class="node">
<title>Node3</title>
<g id="a_Node000003"><a xlink:href="class_n_audio_1_1_mixer_1_1_mixer_control.html#aa5f03a6c7f9d1d7008fbcda445aee114" target="_top" xlink:title="Checks if the given MixerControlType is a boolean control type.">
<polygon fill="white" stroke="#666666" points="491.25,-275.5 355.25,-275.5 355.25,-245 491.25,-245 491.25,-275.5"/>
<text text-anchor="start" x="363.25" y="-262" font-family="Helvetica,sans-Serif" font-size="10.00">NAudio.Mixer.MixerControl.</text>
<text text-anchor="middle" x="423.25" y="-250.75" font-family="Helvetica,sans-Serif" font-size="10.00">IsControlBoolean</text>
</a>
</g>
</g>
<!-- Node2&#45;&gt;Node3 -->
<g id="edge2_Node000002_Node000003" class="edge">
<title>Node2&#45;&gt;Node3</title>
<g id="a_edge2_Node000002_Node000003"><a xlink:title=" ">
<path fill="none" stroke="#63b8ff" d="M250.02,-128.78C265.81,-154.62 300.91,-206.43 344,-235.25 346.25,-236.76 348.6,-238.17 351.01,-239.51"/>
<polygon fill="#63b8ff" stroke="#63b8ff" points="349.4,-242.62 359.92,-243.9 352.49,-236.34 349.4,-242.62"/>
</a>
</g>
</g>
<!-- Node4 -->
<g id="Node000004" class="node">
<title>Node4</title>
<g id="a_Node000004"><a xlink:href="class_n_audio_1_1_mixer_1_1_mixer_control.html#a3581f0fa357b1857154fc6af849c316d" target="_top" xlink:title="Checks if the given MixerControlType is custom.">
<polygon fill="white" stroke="#666666" points="491.25,-226.5 355.25,-226.5 355.25,-196 491.25,-196 491.25,-226.5"/>
<text text-anchor="start" x="363.25" y="-213" font-family="Helvetica,sans-Serif" font-size="10.00">NAudio.Mixer.MixerControl.</text>
<text text-anchor="middle" x="423.25" y="-201.75" font-family="Helvetica,sans-Serif" font-size="10.00">IsControlCustom</text>
</a>
</g>
</g>
<!-- Node2&#45;&gt;Node4 -->
<g id="edge3_Node000002_Node000004" class="edge">
<title>Node2&#45;&gt;Node4</title>
<g id="a_edge3_Node000002_Node000004"><a xlink:title=" ">
<path fill="none" stroke="#63b8ff" d="M259.25,-128.84C279.02,-145.06 312.03,-170.3 344,-186.25 347.66,-188.08 351.48,-189.81 355.39,-191.44"/>
<polygon fill="#63b8ff" stroke="#63b8ff" points="353.85,-194.6 364.44,-194.99 356.4,-188.08 353.85,-194.6"/>
</a>
</g>
</g>
<!-- Node5 -->
<g id="Node000005" class="node">
<title>Node5</title>
<g id="a_Node000005"><a xlink:href="class_n_audio_1_1_mixer_1_1_mixer_control.html#a71701b30dec3033b5043242ecd6db7d6" target="_top" xlink:title="Checks if the given MixerControlType is a type of control list text.">
<polygon fill="white" stroke="#666666" points="491.25,-177.5 355.25,-177.5 355.25,-147 491.25,-147 491.25,-177.5"/>
<text text-anchor="start" x="363.25" y="-164" font-family="Helvetica,sans-Serif" font-size="10.00">NAudio.Mixer.MixerControl.</text>
<text text-anchor="middle" x="423.25" y="-152.75" font-family="Helvetica,sans-Serif" font-size="10.00">IsControlListText</text>
</a>
</g>
</g>
<!-- Node2&#45;&gt;Node5 -->
<g id="edge4_Node000002_Node000005" class="edge">
<title>Node2&#45;&gt;Node5</title>
<g id="a_edge4_Node000002_Node000005"><a xlink:title=" ">
<path fill="none" stroke="#63b8ff" d="M298.85,-128.89C316.09,-133.55 335.17,-138.71 353.06,-143.54"/>
<polygon fill="#63b8ff" stroke="#63b8ff" points="351.99,-146.88 362.56,-146.11 353.82,-140.12 351.99,-146.88"/>
</a>
</g>
</g>
<!-- Node6 -->
<g id="Node000006" class="node">
<title>Node6</title>
<g id="a_Node000006"><a xlink:href="class_n_audio_1_1_mixer_1_1_mixer_control.html#a38099bab907b13dd473681fc72bc706a" target="_top" xlink:title="Checks if the given MixerControlType is signed.">
<polygon fill="white" stroke="#666666" points="491.25,-128.5 355.25,-128.5 355.25,-98 491.25,-98 491.25,-128.5"/>
<text text-anchor="start" x="363.25" y="-115" font-family="Helvetica,sans-Serif" font-size="10.00">NAudio.Mixer.MixerControl.</text>
<text text-anchor="middle" x="423.25" y="-103.75" font-family="Helvetica,sans-Serif" font-size="10.00">IsControlSigned</text>
</a>
</g>
</g>
<!-- Node2&#45;&gt;Node6 -->
<g id="edge5_Node000002_Node000006" class="edge">
<title>Node2&#45;&gt;Node6</title>
<g id="a_edge5_Node000002_Node000006"><a xlink:title=" ">
<path fill="none" stroke="#63b8ff" d="M308.49,-113.25C320.01,-113.25 332.06,-113.25 343.83,-113.25"/>
<polygon fill="#63b8ff" stroke="#63b8ff" points="343.49,-116.75 353.49,-113.25 343.49,-109.75 343.49,-116.75"/>
</a>
</g>
</g>
<!-- Node7 -->
<g id="Node000007" class="node">
<title>Node7</title>
<g id="a_Node000007"><a xlink:href="class_n_audio_1_1_mixer_1_1_mixer_control.html#a53db43551b5e40ef607ec9d622931415" target="_top" xlink:title="Determines if the given MixerControlType is of an unsigned type.">
<polygon fill="white" stroke="#666666" points="491.25,-79.5 355.25,-79.5 355.25,-49 491.25,-49 491.25,-79.5"/>
<text text-anchor="start" x="363.25" y="-66" font-family="Helvetica,sans-Serif" font-size="10.00">NAudio.Mixer.MixerControl.</text>
<text text-anchor="middle" x="423.25" y="-54.75" font-family="Helvetica,sans-Serif" font-size="10.00">IsControlUnsigned</text>
</a>
</g>
</g>
<!-- Node2&#45;&gt;Node7 -->
<g id="edge6_Node000002_Node000007" class="edge">
<title>Node2&#45;&gt;Node7</title>
<g id="a_edge6_Node000002_Node000007"><a xlink:title=" ">
<path fill="none" stroke="#63b8ff" d="M298.85,-97.61C316.09,-92.95 335.17,-87.79 353.06,-82.96"/>
<polygon fill="#63b8ff" stroke="#63b8ff" points="353.82,-86.38 362.56,-80.39 351.99,-79.62 353.82,-86.38"/>
</a>
</g>
</g>
<!-- Node2&#45;&gt;Node8 -->
<g id="edge7_Node000002_Node000008" class="edge">
<title>Node2&#45;&gt;Node8</title>
<g id="a_edge7_Node000002_Node000008"><a xlink:title=" ">
<path fill="none" stroke="#63b8ff" d="M259.25,-97.66C279.02,-81.44 312.03,-56.2 344,-40.25 347.66,-38.42 351.48,-36.69 355.39,-35.06"/>
<polygon fill="#63b8ff" stroke="#63b8ff" points="356.4,-38.42 364.44,-31.51 353.85,-31.9 356.4,-38.42"/>
</a>
</g>
</g>
</g>
</svg>
