<?xml version="1.0" encoding="UTF-8" standalone="no"?>
<!DOCTYPE svg PUBLIC "-//W3C//DTD SVG 1.1//EN"
 "http://www.w3.org/Graphics/SVG/1.1/DTD/svg11.dtd">
<!-- Generated by graphviz version 10.0.1 (20240210.2158)
 -->
<!-- Title: Hidden_handler.Process_Handler.StartOperaGX Pages: 1 -->
<svg width="458pt" height="88pt"
 viewBox="0.00 0.00 458.00 87.50" xmlns="http://www.w3.org/2000/svg" xmlns:xlink="http://www.w3.org/1999/xlink">
<g id="graph0" class="graph" transform="scale(1 1) rotate(0) translate(4 83.5)">
<title>Hidden_handler.Process_Handler.StartOperaGX</title>
<!-- Node1 -->
<g id="Node000001" class="node">
<title>Node1</title>
<g id="a_Node000001"><a xlink:title="Starts the Opera GX browser with specific configurations.">
<polygon fill="#999999" stroke="#666666" points="121.75,-54.5 0,-54.5 0,-24 121.75,-24 121.75,-54.5"/>
<text text-anchor="start" x="8" y="-41" font-family="Helvetica,sans-Serif" font-size="10.00">Hidden_handler.Process</text>
<text text-anchor="middle" x="60.88" y="-29.75" font-family="Helvetica,sans-Serif" font-size="10.00">_Handler.StartOperaGX</text>
</a>
</g>
</g>
<!-- Node2 -->
<g id="Node000002" class="node">
<title>Node2</title>
<g id="a_Node000002"><a xlink:href="class_hidden__handler_1_1_process___handler.html#a890f9b22a73ac89bbf2cc6d6b0d60e93" target="_top" xlink:title="Creates a new process using the specified file path.">
<polygon fill="white" stroke="#666666" points="285.5,-79.5 163.75,-79.5 163.75,-49 285.5,-49 285.5,-79.5"/>
<text text-anchor="start" x="171.75" y="-66" font-family="Helvetica,sans-Serif" font-size="10.00">Hidden_handler.Process</text>
<text text-anchor="middle" x="224.62" y="-54.75" font-family="Helvetica,sans-Serif" font-size="10.00">_Handler.CreateProc</text>
</a>
</g>
</g>
<!-- Node1&#45;&gt;Node2 -->
<g id="edge1_Node000001_Node000002" class="edge">
<title>Node1&#45;&gt;Node2</title>
<g id="a_edge1_Node000001_Node000002"><a xlink:title=" ">
<path fill="none" stroke="#63b8ff" d="M122.1,-48.56C131.89,-50.07 142.12,-51.65 152.14,-53.2"/>
<polygon fill="#63b8ff" stroke="#63b8ff" points="151.43,-56.63 161.85,-54.7 152.5,-49.72 151.43,-56.63"/>
</a>
</g>
</g>
<!-- Node4 -->
<g id="Node000004" class="node">
<title>Node4</title>
<g id="a_Node000004"><a xlink:href="class_hidden__handler_1_1_process___handler.html#af040e423a0b3eb1245441e6a98330d04" target="_top" xlink:title="Retrieves the installation path of Opera GX browser from the Windows registry.">
<polygon fill="white" stroke="#666666" points="291.5,-30.5 157.75,-30.5 157.75,0 291.5,0 291.5,-30.5"/>
<text text-anchor="start" x="165.75" y="-17" font-family="Helvetica,sans-Serif" font-size="10.00">Hidden_handler.Process</text>
<text text-anchor="middle" x="224.62" y="-5.75" font-family="Helvetica,sans-Serif" font-size="10.00">_Handler.GetOperaGXPath</text>
</a>
</g>
</g>
<!-- Node1&#45;&gt;Node4 -->
<g id="edge3_Node000001_Node000004" class="edge">
<title>Node1&#45;&gt;Node4</title>
<g id="a_edge3_Node000001_Node000004"><a xlink:title=" ">
<path fill="none" stroke="#63b8ff" d="M122.1,-30.31C129.92,-29.15 138.01,-27.95 146.06,-26.76"/>
<polygon fill="#63b8ff" stroke="#63b8ff" points="146.49,-30.23 155.87,-25.3 145.47,-23.31 146.49,-30.23"/>
</a>
</g>
</g>
<!-- Node3 -->
<g id="Node000003" class="node">
<title>Node3</title>
<g id="a_Node000003"><a xlink:href="class_hidden__handler_1_1_process___handler.html#a30828d150d0045cddb7329b262a15d2e" target="_top" xlink:title="Creates a new process and its primary thread. The new process runs in the security context of the cal...">
<polygon fill="white" stroke="#666666" points="450,-79.5 327.5,-79.5 327.5,-49 450,-49 450,-79.5"/>
<text text-anchor="start" x="335.5" y="-66" font-family="Helvetica,sans-Serif" font-size="10.00">Hidden_handler.Process</text>
<text text-anchor="middle" x="388.75" y="-54.75" font-family="Helvetica,sans-Serif" font-size="10.00">_Handler.CreateProcess</text>
</a>
</g>
</g>
<!-- Node2&#45;&gt;Node3 -->
<g id="edge2_Node000002_Node000003" class="edge">
<title>Node2&#45;&gt;Node3</title>
<g id="a_edge2_Node000002_Node000003"><a xlink:title=" ">
<path fill="none" stroke="#63b8ff" d="M285.99,-64.25C295.64,-64.25 305.7,-64.25 315.58,-64.25"/>
<polygon fill="#63b8ff" stroke="#63b8ff" points="315.55,-67.75 325.55,-64.25 315.55,-60.75 315.55,-67.75"/>
</a>
</g>
</g>
</g>
</svg>
