<?xml version="1.0" encoding="UTF-8" standalone="no"?>
<!DOCTYPE svg PUBLIC "-//W3C//DTD SVG 1.1//EN"
 "http://www.w3.org/Graphics/SVG/1.1/DTD/svg11.dtd">
<!-- Generated by graphviz version 10.0.1 (20240210.2158)
 -->
<!-- Title: NAudio.Wave.WaveMixerStream32.WaveMixerStream32 Pages: 1 -->
<svg width="791pt" height="76pt"
 viewBox="0.00 0.00 791.25 75.88" xmlns="http://www.w3.org/2000/svg" xmlns:xlink="http://www.w3.org/1999/xlink">
<g id="graph0" class="graph" transform="scale(1 1) rotate(0) translate(4 71.88)">
<title>NAudio.Wave.WaveMixerStream32.WaveMixerStream32</title>
<!-- Node1 -->
<g id="Node000001" class="node">
<title>Node1</title>
<g id="a_Node000001"><a xlink:title="Creates a new 32 bit WaveMixerStream.">
<polygon fill="#999999" stroke="#666666" points="172.75,-45.88 0,-45.88 0,-15.37 172.75,-15.37 172.75,-45.88"/>
<text text-anchor="start" x="8" y="-32.38" font-family="Helvetica,sans-Serif" font-size="10.00">NAudio.Wave.WaveMixerStream32.</text>
<text text-anchor="middle" x="86.38" y="-21.12" font-family="Helvetica,sans-Serif" font-size="10.00">WaveMixerStream32</text>
</a>
</g>
</g>
<!-- Node2 -->
<g id="Node000002" class="node">
<title>Node2</title>
<g id="a_Node000002"><a xlink:href="class_n_audio_1_1_wave_1_1_wave_mixer_stream32.html#a80c4032e16125acba88f0a7b5c28d48e" target="_top" xlink:title="Adds an input audio stream to the mixer.">
<polygon fill="white" stroke="#666666" points="381.5,-45.88 208.75,-45.88 208.75,-15.37 381.5,-15.37 381.5,-45.88"/>
<text text-anchor="start" x="216.75" y="-32.38" font-family="Helvetica,sans-Serif" font-size="10.00">NAudio.Wave.WaveMixerStream32.</text>
<text text-anchor="middle" x="295.12" y="-21.12" font-family="Helvetica,sans-Serif" font-size="10.00">AddInputStream</text>
</a>
</g>
</g>
<!-- Node1&#45;&gt;Node2 -->
<g id="edge1_Node000001_Node000002" class="edge">
<title>Node1&#45;&gt;Node2</title>
<g id="a_edge1_Node000001_Node000002"><a xlink:title=" ">
<path fill="none" stroke="#63b8ff" d="M172.96,-30.62C180.89,-30.62 188.96,-30.62 196.98,-30.62"/>
<polygon fill="#63b8ff" stroke="#63b8ff" points="196.76,-34.13 206.76,-30.63 196.76,-27.13 196.76,-34.13"/>
</a>
</g>
</g>
<!-- Node3 -->
<g id="Node000003" class="node">
<title>Node3</title>
<g id="a_Node000003"><a xlink:href="class_n_audio_1_1_wave_1_1_wave_format.html#a2dd0e9ea4097e54981725d6ad7c3290d" target="_top" xlink:title="Creates a new IEEE float wave format with the specified sample rate and number of channels.">
<polygon fill="white" stroke="#666666" points="584.62,-67.88 417.88,-67.88 417.88,-37.38 584.62,-37.38 584.62,-67.88"/>
<text text-anchor="start" x="425.88" y="-54.38" font-family="Helvetica,sans-Serif" font-size="10.00">NAudio.Wave.WaveFormat.Create</text>
<text text-anchor="middle" x="501.25" y="-43.12" font-family="Helvetica,sans-Serif" font-size="10.00">IeeeFloatWaveFormat</text>
</a>
</g>
</g>
<!-- Node2&#45;&gt;Node3 -->
<g id="edge2_Node000002_Node000003" class="edge">
<title>Node2&#45;&gt;Node3</title>
<g id="a_edge2_Node000002_Node000003"><a xlink:title=" ">
<path fill="none" stroke="#63b8ff" d="M381.81,-39.86C389.81,-40.72 397.96,-41.6 406.04,-42.47"/>
<polygon fill="#63b8ff" stroke="#63b8ff" points="405.58,-45.94 415.9,-43.53 406.33,-38.98 405.58,-45.94"/>
</a>
</g>
</g>
<!-- Node5 -->
<g id="Node000005" class="node">
<title>Node5</title>
<g id="a_Node000005"><a xlink:href="class_n_audio_1_1_wave_1_1_wave_format.html#ad0c3a21355da530c5f0d41289d53e236" target="_top" xlink:title="Determines whether the current WaveFormat object is equal to another object.">
<polygon fill="white" stroke="#666666" points="585,-19.25 417.5,-19.25 417.5,0 585,0 585,-19.25"/>
<text text-anchor="middle" x="501.25" y="-5.75" font-family="Helvetica,sans-Serif" font-size="10.00">NAudio.Wave.WaveFormat.Equals</text>
</a>
</g>
</g>
<!-- Node2&#45;&gt;Node5 -->
<g id="edge4_Node000002_Node000005" class="edge">
<title>Node2&#45;&gt;Node5</title>
<g id="a_edge4_Node000002_Node000005"><a xlink:title=" ">
<path fill="none" stroke="#63b8ff" d="M381.81,-21.81C389.74,-20.99 397.81,-20.16 405.82,-19.34"/>
<polygon fill="#63b8ff" stroke="#63b8ff" points="405.98,-22.84 415.57,-18.34 405.26,-15.88 405.98,-22.84"/>
</a>
</g>
</g>
<!-- Node4 -->
<g id="Node000004" class="node">
<title>Node4</title>
<g id="a_Node000004"><a xlink:href="class_n_audio_1_1_wave_1_1_wave_format.html#a9efee93326fe1770b4e474c7afa3dc72" target="_top" xlink:title="Creates a new PCM 44.1Khz stereo 16 bit format.">
<polygon fill="white" stroke="#666666" points="783.25,-45.88 621,-45.88 621,-15.37 783.25,-15.37 783.25,-45.88"/>
<text text-anchor="start" x="629" y="-32.38" font-family="Helvetica,sans-Serif" font-size="10.00">NAudio.Wave.WaveFormat.Wave</text>
<text text-anchor="middle" x="702.12" y="-21.12" font-family="Helvetica,sans-Serif" font-size="10.00">Format</text>
</a>
</g>
</g>
<!-- Node3&#45;&gt;Node4 -->
<g id="edge3_Node000003_Node000004" class="edge">
<title>Node3&#45;&gt;Node4</title>
<g id="a_edge3_Node000003_Node000004"><a xlink:title=" ">
<path fill="none" stroke="#63b8ff" d="M584.86,-43.49C592.91,-42.6 601.12,-41.69 609.25,-40.79"/>
<polygon fill="#63b8ff" stroke="#63b8ff" points="609.63,-44.27 619.18,-39.69 608.86,-37.31 609.63,-44.27"/>
</a>
</g>
</g>
<!-- Node5&#45;&gt;Node4 -->
<g id="edge5_Node000005_Node000004" class="edge">
<title>Node5&#45;&gt;Node4</title>
<g id="a_edge5_Node000005_Node000004"><a xlink:title=" ">
<path fill="none" stroke="#63b8ff" d="M585.44,-18.41C593.4,-19.25 601.5,-20.1 609.53,-20.95"/>
<polygon fill="#63b8ff" stroke="#63b8ff" points="609,-24.42 619.31,-21.99 609.73,-17.46 609,-24.42"/>
</a>
</g>
</g>
</g>
</svg>
