<?xml version="1.0" encoding="UTF-8" standalone="no"?>
<!DOCTYPE svg PUBLIC "-//W3C//DTD SVG 1.1//EN"
 "http://www.w3.org/Graphics/SVG/1.1/DTD/svg11.dtd">
<!-- Generated by graphviz version 10.0.1 (20240210.2158)
 -->
<!-- Title: NAudio.Wave.WaveInEvent.CloseWaveInDevice Pages: 1 -->
<svg width="345pt" height="155pt"
 viewBox="0.00 0.00 344.50 154.50" xmlns="http://www.w3.org/2000/svg" xmlns:xlink="http://www.w3.org/1999/xlink">
<g id="graph0" class="graph" transform="scale(1 1) rotate(0) translate(4 150.5)">
<title>NAudio.Wave.WaveInEvent.CloseWaveInDevice</title>
<!-- Node1 -->
<g id="Node000001" class="node">
<title>Node1</title>
<g id="a_Node000001"><a xlink:title="Closes the wave input device and releases associated resources.">
<polygon fill="#999999" stroke="#666666" points="140.5,-79.5 0,-79.5 0,-49 140.5,-49 140.5,-79.5"/>
<text text-anchor="start" x="8" y="-66" font-family="Helvetica,sans-Serif" font-size="10.00">NAudio.Wave.WaveInEvent.</text>
<text text-anchor="middle" x="70.25" y="-54.75" font-family="Helvetica,sans-Serif" font-size="10.00">CloseWaveInDevice</text>
</a>
</g>
</g>
<!-- Node2 -->
<g id="Node000002" class="node">
<title>Node2</title>
<g id="a_Node000002"><a xlink:href="class_n_audio_1_1_wave_1_1_wave_in_buffer.html#aa64a1d38381ae46017fdd67388405d1c" target="_top" xlink:title="Releases the managed and unmanaged resources used by the WaveInRecorder.">
<polygon fill="white" stroke="#666666" points="326.75,-128.5 186.25,-128.5 186.25,-98 326.75,-98 326.75,-128.5"/>
<text text-anchor="start" x="194.25" y="-115" font-family="Helvetica,sans-Serif" font-size="10.00">NAudio.Wave.WaveInBuffer.</text>
<text text-anchor="middle" x="256.5" y="-103.75" font-family="Helvetica,sans-Serif" font-size="10.00">Dispose</text>
</a>
</g>
</g>
<!-- Node1&#45;&gt;Node2 -->
<g id="edge1_Node000001_Node000002" class="edge">
<title>Node1&#45;&gt;Node2</title>
<g id="a_edge1_Node000001_Node000002"><a xlink:title=" ">
<path fill="none" stroke="#63b8ff" d="M130.31,-79.96C147.83,-84.62 167.19,-89.76 185.34,-94.59"/>
<polygon fill="#63b8ff" stroke="#63b8ff" points="184.43,-97.97 195,-97.16 186.23,-91.21 184.43,-97.97"/>
</a>
</g>
</g>
<!-- Node3 -->
<g id="Node000003" class="node">
<title>Node3</title>
<g id="a_Node000003"><a xlink:href="class_n_audio_1_1_wave_1_1_wave_interop.html#a700f666e57095399600aeb93c05150e2" target="_top" xlink:title="Closes the specified waveform&#45;audio input device.">
<polygon fill="white" stroke="#666666" points="336.5,-79.5 176.5,-79.5 176.5,-49 336.5,-49 336.5,-79.5"/>
<text text-anchor="start" x="184.5" y="-66" font-family="Helvetica,sans-Serif" font-size="10.00">NAudio.Wave.WaveInterop.wave</text>
<text text-anchor="middle" x="256.5" y="-54.75" font-family="Helvetica,sans-Serif" font-size="10.00">InClose</text>
</a>
</g>
</g>
<!-- Node1&#45;&gt;Node3 -->
<g id="edge3_Node000001_Node000003" class="edge">
<title>Node1&#45;&gt;Node3</title>
<g id="a_edge3_Node000001_Node000003"><a xlink:title=" ">
<path fill="none" stroke="#63b8ff" d="M140.91,-64.25C148.73,-64.25 156.79,-64.25 164.83,-64.25"/>
<polygon fill="#63b8ff" stroke="#63b8ff" points="164.66,-67.75 174.66,-64.25 164.66,-60.75 164.66,-67.75"/>
</a>
</g>
</g>
<!-- Node4 -->
<g id="Node000004" class="node">
<title>Node4</title>
<g id="a_Node000004"><a xlink:href="class_n_audio_1_1_wave_1_1_wave_interop.html#af3d2e5654fc9d1235350d9867e429293" target="_top" xlink:title="Resets the specified waveform&#45;audio input device.">
<polygon fill="white" stroke="#666666" points="336.5,-30.5 176.5,-30.5 176.5,0 336.5,0 336.5,-30.5"/>
<text text-anchor="start" x="184.5" y="-17" font-family="Helvetica,sans-Serif" font-size="10.00">NAudio.Wave.WaveInterop.wave</text>
<text text-anchor="middle" x="256.5" y="-5.75" font-family="Helvetica,sans-Serif" font-size="10.00">InReset</text>
</a>
</g>
</g>
<!-- Node1&#45;&gt;Node4 -->
<g id="edge4_Node000001_Node000004" class="edge">
<title>Node1&#45;&gt;Node4</title>
<g id="a_edge4_Node000001_Node000004"><a xlink:title=" ">
<path fill="none" stroke="#63b8ff" d="M130.31,-48.54C147.83,-43.88 167.19,-38.74 185.34,-33.91"/>
<polygon fill="#63b8ff" stroke="#63b8ff" points="186.23,-37.29 195,-31.34 184.43,-30.53 186.23,-37.29"/>
</a>
</g>
</g>
<!-- Node2&#45;&gt;Node2 -->
<g id="edge2_Node000002_Node000002" class="edge">
<title>Node2&#45;&gt;Node2</title>
<g id="a_edge2_Node000002_Node000002"><a xlink:title=" ">
<path fill="none" stroke="#63b8ff" d="M223.5,-128.99C216.76,-138.06 227.76,-146.5 256.5,-146.5 272.22,-146.5 282.63,-143.97 287.73,-140.2"/>
<polygon fill="#63b8ff" stroke="#63b8ff" points="291.17,-140.9 289.27,-130.48 284.25,-139.81 291.17,-140.9"/>
</a>
</g>
</g>
</g>
</svg>
