<?xml version="1.0" encoding="UTF-8" standalone="no"?>
<!DOCTYPE svg PUBLIC "-//W3C//DTD SVG 1.1//EN"
 "http://www.w3.org/Graphics/SVG/1.1/DTD/svg11.dtd">
<!-- Generated by graphviz version 10.0.1 (20240210.2158)
 -->
<!-- Title: NAudio.Wave.Compression.AcmStreamHeader.~AcmStreamHeader Pages: 1 -->
<svg width="375pt" height="57pt"
 viewBox="0.00 0.00 374.50 56.50" xmlns="http://www.w3.org/2000/svg" xmlns:xlink="http://www.w3.org/1999/xlink">
<g id="graph0" class="graph" transform="scale(1 1) rotate(0) translate(4 52.5)">
<title>NAudio.Wave.Compression.AcmStreamHeader.~AcmStreamHeader</title>
<!-- Node1 -->
<g id="Node000001" class="node">
<title>Node1</title>
<g id="a_Node000001"><a xlink:title=" ">
<polygon fill="#999999" stroke="#666666" points="190.75,-30.5 0,-30.5 0,0 190.75,0 190.75,-30.5"/>
<text text-anchor="start" x="8" y="-17" font-family="Helvetica,sans-Serif" font-size="10.00">NAudio.Wave.Compression.</text>
<text text-anchor="middle" x="95.38" y="-5.75" font-family="Helvetica,sans-Serif" font-size="10.00">AcmStreamHeader.~AcmStreamHeader</text>
</a>
</g>
</g>
<!-- Node2 -->
<g id="Node000002" class="node">
<title>Node2</title>
<g id="a_Node000002"><a xlink:href="class_n_audio_1_1_wave_1_1_compression_1_1_acm_stream_header.html#a76628b57de7d0fe82c014ccf3e0e19bd" target="_top" xlink:title="Disposes of the allocated resources.">
<polygon fill="white" stroke="#666666" points="366.5,-30.5 226.75,-30.5 226.75,0 366.5,0 366.5,-30.5"/>
<text text-anchor="start" x="234.75" y="-17" font-family="Helvetica,sans-Serif" font-size="10.00">NAudio.Wave.Compression.</text>
<text text-anchor="middle" x="296.62" y="-5.75" font-family="Helvetica,sans-Serif" font-size="10.00">AcmStreamHeader.Dispose</text>
</a>
</g>
</g>
<!-- Node1&#45;&gt;Node2 -->
<g id="edge1_Node000001_Node000002" class="edge">
<title>Node1&#45;&gt;Node2</title>
<g id="a_edge1_Node000001_Node000002"><a xlink:title=" ">
<path fill="none" stroke="#63b8ff" d="M191.04,-15.25C199.07,-15.25 207.14,-15.25 215.04,-15.25"/>
<polygon fill="#63b8ff" stroke="#63b8ff" points="214.97,-18.75 224.97,-15.25 214.97,-11.75 214.97,-18.75"/>
</a>
</g>
</g>
<!-- Node2&#45;&gt;Node2 -->
<g id="edge2_Node000002_Node000002" class="edge">
<title>Node2&#45;&gt;Node2</title>
<g id="a_edge2_Node000002_Node000002"><a xlink:title=" ">
<path fill="none" stroke="#63b8ff" d="M260.96,-30.99C253.69,-40.06 265.57,-48.5 296.62,-48.5 313.61,-48.5 324.86,-45.97 330.37,-42.2"/>
<polygon fill="#63b8ff" stroke="#63b8ff" points="333.8,-42.92 332.03,-32.48 326.9,-41.75 333.8,-42.92"/>
</a>
</g>
</g>
</g>
</svg>
