<?xml version="1.0" encoding="UTF-8" standalone="no"?>
<!DOCTYPE svg PUBLIC "-//W3C//DTD SVG 1.1//EN"
 "http://www.w3.org/Graphics/SVG/1.1/DTD/svg11.dtd">
<!-- Generated by graphviz version 10.0.1 (20240210.2158)
 -->
<!-- Title: NAudio.Wave.AsioOut.~AsioOut Pages: 1 -->
<svg width="704pt" height="134pt"
 viewBox="0.00 0.00 703.50 133.50" xmlns="http://www.w3.org/2000/svg" xmlns:xlink="http://www.w3.org/1999/xlink">
<g id="graph0" class="graph" transform="scale(1 1) rotate(0) translate(4 129.5)">
<title>NAudio.Wave.AsioOut.~AsioOut</title>
<!-- Node1 -->
<g id="Node000001" class="node">
<title>Node1</title>
<g id="a_Node000001"><a xlink:title="Releases unmanaged resources and performs other cleanup operations before the AsioOut is reclaimed by...">
<polygon fill="#999999" stroke="#666666" points="117.25,-54.5 0,-54.5 0,-24 117.25,-24 117.25,-54.5"/>
<text text-anchor="start" x="8" y="-41" font-family="Helvetica,sans-Serif" font-size="10.00">NAudio.Wave.AsioOut.</text>
<text text-anchor="middle" x="58.62" y="-29.75" font-family="Helvetica,sans-Serif" font-size="10.00">~AsioOut</text>
</a>
</g>
</g>
<!-- Node2 -->
<g id="Node000002" class="node">
<title>Node2</title>
<g id="a_Node000002"><a xlink:href="class_n_audio_1_1_wave_1_1_asio_out.html#a7ad3ac0c9287493dc00c97a5f42fac99" target="_top" xlink:title="Releases the resources used by the driver and sets the driver to null.">
<polygon fill="white" stroke="#666666" points="306.5,-48.88 153.25,-48.88 153.25,-29.62 306.5,-29.62 306.5,-48.88"/>
<text text-anchor="middle" x="229.88" y="-35.38" font-family="Helvetica,sans-Serif" font-size="10.00">NAudio.Wave.AsioOut.Dispose</text>
</a>
</g>
</g>
<!-- Node1&#45;&gt;Node2 -->
<g id="edge1_Node000001_Node000002" class="edge">
<title>Node1&#45;&gt;Node2</title>
<g id="a_edge1_Node000001_Node000002"><a xlink:title=" ">
<path fill="none" stroke="#63b8ff" d="M117.4,-39.25C125.14,-39.25 133.22,-39.25 141.34,-39.25"/>
<polygon fill="#63b8ff" stroke="#63b8ff" points="141.29,-42.75 151.29,-39.25 141.29,-35.75 141.29,-42.75"/>
</a>
</g>
</g>
<!-- Node3 -->
<g id="Node000003" class="node">
<title>Node3</title>
<g id="a_Node000003"><a xlink:href="class_n_audio_1_1_wave_1_1_asio_1_1_asio_driver_ext.html#a624a3e2671bf91e71d0ceace11574e6c" target="_top" xlink:title="Releases the driver resources and COM ASIO driver.">
<polygon fill="white" stroke="#666666" points="489.75,-79.5 342.5,-79.5 342.5,-49 489.75,-49 489.75,-79.5"/>
<text text-anchor="start" x="350.5" y="-66" font-family="Helvetica,sans-Serif" font-size="10.00">NAudio.Wave.Asio.AsioDriver</text>
<text text-anchor="middle" x="416.12" y="-54.75" font-family="Helvetica,sans-Serif" font-size="10.00">Ext.ReleaseDriver</text>
</a>
</g>
</g>
<!-- Node2&#45;&gt;Node3 -->
<g id="edge2_Node000002_Node000003" class="edge">
<title>Node2&#45;&gt;Node3</title>
<g id="a_edge2_Node000002_Node000003"><a xlink:title=" ">
<path fill="none" stroke="#63b8ff" d="M305.29,-49.35C313.76,-50.5 322.44,-51.67 331.02,-52.84"/>
<polygon fill="#63b8ff" stroke="#63b8ff" points="330.35,-56.28 340.73,-54.16 331.29,-49.34 330.35,-56.28"/>
</a>
</g>
</g>
<!-- Node6 -->
<g id="Node000006" class="node">
<title>Node6</title>
<g id="a_Node000006"><a xlink:href="class_n_audio_1_1_wave_1_1_asio_1_1_asio_driver_ext.html#a2a766495e3da6cf139ba6da1e5cddb0a" target="_top" xlink:title="Stops the driver.">
<polygon fill="white" stroke="#666666" points="489.75,-30.5 342.5,-30.5 342.5,0 489.75,0 489.75,-30.5"/>
<text text-anchor="start" x="350.5" y="-17" font-family="Helvetica,sans-Serif" font-size="10.00">NAudio.Wave.Asio.AsioDriver</text>
<text text-anchor="middle" x="416.12" y="-5.75" font-family="Helvetica,sans-Serif" font-size="10.00">Ext.Stop</text>
</a>
</g>
</g>
<!-- Node2&#45;&gt;Node6 -->
<g id="edge5_Node000002_Node000006" class="edge">
<title>Node2&#45;&gt;Node6</title>
<g id="a_edge5_Node000002_Node000006"><a xlink:title=" ">
<path fill="none" stroke="#63b8ff" d="M306.88,-29.35C314.83,-28.31 322.95,-27.26 330.98,-26.21"/>
<polygon fill="#63b8ff" stroke="#63b8ff" points="331.29,-29.7 340.76,-24.94 330.39,-22.76 331.29,-29.7"/>
</a>
</g>
</g>
<!-- Node4 -->
<g id="Node000004" class="node">
<title>Node4</title>
<g id="a_Node000004"><a xlink:href="class_n_audio_1_1_wave_1_1_asio_1_1_asio_driver.html#abf9d5ce17b2e7ff0f993b8349a18dc11" target="_top" xlink:title="Disposes the ASIO buffers and frees the allocated memory.">
<polygon fill="white" stroke="#666666" points="685.38,-125.5 535.88,-125.5 535.88,-95 685.38,-95 685.38,-125.5"/>
<text text-anchor="start" x="543.88" y="-112" font-family="Helvetica,sans-Serif" font-size="10.00">NAudio.Wave.Asio.AsioDriver.</text>
<text text-anchor="middle" x="610.62" y="-100.75" font-family="Helvetica,sans-Serif" font-size="10.00">DisposeBuffers</text>
</a>
</g>
</g>
<!-- Node3&#45;&gt;Node4 -->
<g id="edge3_Node000003_Node000004" class="edge">
<title>Node3&#45;&gt;Node4</title>
<g id="a_edge3_Node000003_Node000004"><a xlink:title=" ">
<path fill="none" stroke="#63b8ff" d="M482.83,-79.95C499.01,-83.82 516.46,-87.99 533.09,-91.96"/>
<polygon fill="#63b8ff" stroke="#63b8ff" points="531.87,-95.27 542.41,-94.19 533.5,-88.46 531.87,-95.27"/>
</a>
</g>
</g>
<!-- Node5 -->
<g id="Node000005" class="node">
<title>Node5</title>
<g id="a_Node000005"><a xlink:href="class_n_audio_1_1_wave_1_1_asio_1_1_asio_driver.html#aaa33751c9601d711e0e90adf20434ff7" target="_top" xlink:title="Releases the COM object associated with the ASIO driver.">
<polygon fill="white" stroke="#666666" points="685.38,-76.5 535.88,-76.5 535.88,-46 685.38,-46 685.38,-76.5"/>
<text text-anchor="start" x="543.88" y="-63" font-family="Helvetica,sans-Serif" font-size="10.00">NAudio.Wave.Asio.AsioDriver.</text>
<text text-anchor="middle" x="610.62" y="-51.75" font-family="Helvetica,sans-Serif" font-size="10.00">ReleaseComAsioDriver</text>
</a>
</g>
</g>
<!-- Node3&#45;&gt;Node5 -->
<g id="edge4_Node000003_Node000005" class="edge">
<title>Node3&#45;&gt;Node5</title>
<g id="a_edge4_Node000003_Node000005"><a xlink:title=" ">
<path fill="none" stroke="#63b8ff" d="M490.18,-63.11C501.34,-62.94 512.95,-62.76 524.36,-62.58"/>
<polygon fill="#63b8ff" stroke="#63b8ff" points="524.21,-66.08 534.15,-62.43 524.1,-59.08 524.21,-66.08"/>
</a>
</g>
</g>
<!-- Node7 -->
<g id="Node000007" class="node">
<title>Node7</title>
<g id="a_Node000007"><a xlink:href="class_n_audio_1_1_wave_1_1_asio_1_1_asio_driver.html#a15c87a396c55cfe0d357689331b75055" target="_top" xlink:title="Stops the ASIO driver and returns any error that occurred during the operation.">
<polygon fill="white" stroke="#666666" points="695.5,-24.88 525.75,-24.88 525.75,-5.62 695.5,-5.62 695.5,-24.88"/>
<text text-anchor="middle" x="610.62" y="-11.38" font-family="Helvetica,sans-Serif" font-size="10.00">NAudio.Wave.Asio.AsioDriver.Stop</text>
</a>
</g>
</g>
<!-- Node6&#45;&gt;Node7 -->
<g id="edge6_Node000006_Node000007" class="edge">
<title>Node6&#45;&gt;Node7</title>
<g id="a_edge6_Node000006_Node000007"><a xlink:title=" ">
<path fill="none" stroke="#63b8ff" d="M490.18,-15.25C497.98,-15.25 506.01,-15.25 514.03,-15.25"/>
<polygon fill="#63b8ff" stroke="#63b8ff" points="513.82,-18.75 523.82,-15.25 513.82,-11.75 513.82,-18.75"/>
</a>
</g>
</g>
</g>
</svg>
