<?xml version="1.0" encoding="UTF-8" standalone="no"?>
<!DOCTYPE svg PUBLIC "-//W3C//DTD SVG 1.1//EN"
 "http://www.w3.org/Graphics/SVG/1.1/DTD/svg11.dtd">
<!-- Generated by graphviz version 10.0.1 (20240210.2158)
 -->
<!-- Title: Hidden_handler._ProcessHelper.CloseHandle Pages: 1 -->
<!--zoomable 60 -->

<svg id="main" version="1.1" xmlns="http://www.w3.org/2000/svg" xmlns:xlink="http://www.w3.org/1999/xlink" xml:space="preserve" onload="init(evt)">
<style type="text/css"><![CDATA[
.node, .edge {opacity: 0.7;}
.node.selected, .edge.selected {opacity: 1;}
.edge:hover path { stroke: red; }
.edge:hover polygon { stroke: red; fill: red; }
]]></style>

<defs>
  <circle id="rim" cx="0" cy="0" r="7"/>
  <circle id="rim2" cx="0" cy="0" r="3.5"/>
  <g id="zoomPlus">
    <use xlink:href="#rim" fill="#404040"><set attributeName="fill" to="#808080" begin="zoomplus.mouseover" end="zoomplus.mouseout"/></use>
    <path d="M-4,0h8M0,-4v8" fill="none" stroke="white" stroke-width="1.5" pointer-events="none"/>
  </g>
  <g id="zoomMin">
    <use xlink:href="#rim" fill="#404040"><set attributeName="fill" to="#808080" begin="zoomminus.mouseover" end="zoomminus.mouseout"/></use>
    <path d="M-4,0h8" fill="none" stroke="white" stroke-width="1.5" pointer-events="none"/>
  </g>
  <g id="arrowUp" transform="translate(30 24)">
    <use xlink:href="#rim"/>
    <path pointer-events="none" fill="none" stroke="white" stroke-width="1.5" d="M0,-3.0v7 M-2.5,-0.5L0,-3.0L2.5,-0.5"/>
  </g>
  <g id="arrowRight" transform="rotate(90) translate(36 -43)">
    <use xlink:href="#rim"/>
    <path pointer-events="none" fill="none" stroke="white" stroke-width="1.5" d="M0,-3.0v7 M-2.5,-0.5L0,-3.0L2.5,-0.5"/>
  </g>
  <g id="arrowDown" transform="rotate(180) translate(-30 -48)">
    <use xlink:href="#rim"/>
    <path pointer-events="none" fill="none" stroke="white" stroke-width="1.5" d="M0,-3.0v7 M-2.5,-0.5L0,-3.0L2.5,-0.5"/>
  </g>
  <g id="arrowLeft" transform="rotate(270) translate(-36 17)">
    <use xlink:href="#rim"/>
    <path pointer-events="none" fill="none" stroke="white" stroke-width="1.5" d="M0,-3.0v7 M-2.5,-0.5L0,-3.0L2.5,-0.5"/>
  </g>
  <g id="resetDef">
    <use xlink:href="#rim2" fill="#404040"><set attributeName="fill" to="#808080" begin="reset.mouseover" end="reset.mouseout"/></use>
  </g>
</defs>
<script type="application/ecmascript">
var viewWidth = 1030;
var viewHeight = 60;
var sectionId = 'dynsection-1';
</script>
<script type="application/ecmascript" xlink:href="svg.min.js"/>
<svg id="graph" class="graph">
<g id="viewport">
<title>Hidden_handler._ProcessHelper.CloseHandle</title>
<!-- Node1 -->
<g id="Node000001" class="node">
<title>Node1</title>
<g id="a_Node000001"><a xlink:title="Closes an open object handle.">
<polygon fill="#999999" stroke="#666666" points="1022.25,-51.5 864.5,-51.5 864.5,-21 1022.25,-21 1022.25,-51.5"/>
<text text-anchor="start" x="872.5" y="-38" font-family="Helvetica,sans-Serif" font-size="10.00">Hidden_handler._ProcessHelper.</text>
<text text-anchor="middle" x="943.38" y="-26.75" font-family="Helvetica,sans-Serif" font-size="10.00">CloseHandle</text>
</a>
</g>
</g>
<!-- Node2 -->
<g id="Node000002" class="node">
<title>Node2</title>
<g id="a_Node000002"><a xlink:href="class_hidden__handler_1_1___process_helper.html#a4a7e7860333785f282419b62936989de" target="_top" xlink:title="Runs the specified file as a restricted user in a separate desktop session.">
<polygon fill="white" stroke="#666666" points="439.5,-51.5 281.75,-51.5 281.75,-21 439.5,-21 439.5,-51.5"/>
<text text-anchor="start" x="289.75" y="-38" font-family="Helvetica,sans-Serif" font-size="10.00">Hidden_handler._ProcessHelper.</text>
<text text-anchor="middle" x="360.62" y="-26.75" font-family="Helvetica,sans-Serif" font-size="10.00">RunAsRestrictedUser</text>
</a>
</g>
</g>
<!-- Node1&#45;&gt;Node2 -->
<g id="edge1_Node000001_Node000002" class="edge">
<title>Node1&#45;&gt;Node2</title>
<g id="a_edge1_Node000001_Node000002"><a xlink:title=" ">
<path fill="none" stroke="#63b8ff" d="M853,-38.83C844.72,-39 836.45,-39.15 828.5,-39.25 671.62,-41.32 632.38,-41.32 475.5,-39.25 463.93,-39.1 451.7,-38.86 439.72,-38.58"/>
<polygon fill="#63b8ff" stroke="#63b8ff" points="852.84,-42.33 862.76,-38.61 852.69,-35.33 852.84,-42.33"/>
</a>
</g>
</g>
<!-- Node5 -->
<g id="Node000005" class="node">
<title>Node5</title>
<g id="a_Node000005"><a xlink:href="class_hidden__handler_1_1___process_helper.html#a34637f16b886e4b38c1086cd27ce8162" target="_top" xlink:title="Safely closes the specified handle if it is not a null pointer and returns a boolean value indicating...">
<polygon fill="white" stroke="#666666" points="828.5,-30.5 670.75,-30.5 670.75,0 828.5,0 828.5,-30.5"/>
<text text-anchor="start" x="678.75" y="-17" font-family="Helvetica,sans-Serif" font-size="10.00">Hidden_handler._ProcessHelper.</text>
<text text-anchor="middle" x="749.62" y="-5.75" font-family="Helvetica,sans-Serif" font-size="10.00">SafeCloseHandle</text>
</a>
</g>
</g>
<!-- Node1&#45;&gt;Node5 -->
<g id="edge4_Node000001_Node000005" class="edge">
<title>Node1&#45;&gt;Node5</title>
<g id="a_edge4_Node000001_Node000005"><a xlink:title=" ">
<path fill="none" stroke="#63b8ff" d="M852.87,-26.45C844.89,-25.57 836.84,-24.69 828.95,-23.83"/>
<polygon fill="#63b8ff" stroke="#63b8ff" points="852.28,-29.9 862.6,-27.51 853.04,-22.95 852.28,-29.9"/>
</a>
</g>
</g>
<!-- Node3 -->
<g id="Node000003" class="node">
<title>Node3</title>
<g id="a_Node000003"><a xlink:href="class_hidden__handler_1_1_process___handler.html#a2a64e868fdecaaa3ec30821e41d44360" target="_top" xlink:title="Starts the Windows Explorer process and returns a boolean indicating success.">
<polygon fill="white" stroke="#666666" points="245.75,-51.5 124,-51.5 124,-21 245.75,-21 245.75,-51.5"/>
<text text-anchor="start" x="132" y="-38" font-family="Helvetica,sans-Serif" font-size="10.00">Hidden_handler.Process</text>
<text text-anchor="middle" x="184.88" y="-26.75" font-family="Helvetica,sans-Serif" font-size="10.00">_Handler.StartExplorer</text>
</a>
</g>
</g>
<!-- Node2&#45;&gt;Node3 -->
<g id="edge2_Node000002_Node000003" class="edge">
<title>Node2&#45;&gt;Node3</title>
<g id="a_edge2_Node000002_Node000003"><a xlink:title=" ">
<path fill="none" stroke="#63b8ff" d="M270.02,-36.25C261.96,-36.25 253.94,-36.25 246.23,-36.25"/>
<polygon fill="#63b8ff" stroke="#63b8ff" points="269.88,-39.75 279.88,-36.25 269.88,-32.75 269.88,-39.75"/>
</a>
</g>
</g>
<!-- Node4 -->
<g id="Node000004" class="node">
<title>Node4</title>
<g id="a_Node000004"><a xlink:href="class_plugin_1_1_main.html#ae51f6500ea51e702d748ba9c59cfad01" target="_top" xlink:title="Runs the specified node and performs various operations based on the received data.">
<polygon fill="white" stroke="#666666" points="88,-45.88 0,-45.88 0,-26.62 88,-26.62 88,-45.88"/>
<text text-anchor="middle" x="44" y="-32.38" font-family="Helvetica,sans-Serif" font-size="10.00">Plugin.Main.Run</text>
</a>
</g>
</g>
<!-- Node3&#45;&gt;Node4 -->
<g id="edge3_Node000003_Node000004" class="edge">
<title>Node3&#45;&gt;Node4</title>
<g id="a_edge3_Node000003_Node000004"><a xlink:title=" ">
<path fill="none" stroke="#63b8ff" d="M112.29,-36.25C104.16,-36.25 96.06,-36.25 88.45,-36.25"/>
<polygon fill="#63b8ff" stroke="#63b8ff" points="112.26,-39.75 122.26,-36.25 112.26,-32.75 112.26,-39.75"/>
</a>
</g>
</g>
<!-- Node6 -->
<g id="Node000006" class="node">
<title>Node6</title>
<g id="a_Node000006"><a xlink:href="class_hidden__handler_1_1___process_helper.html#a71b728a87d93b62a21f422a707be8a9e" target="_top" xlink:title="Retrieves a restricted session user token and returns it.">
<polygon fill="white" stroke="#666666" points="634.75,-30.5 475.5,-30.5 475.5,0 634.75,0 634.75,-30.5"/>
<text text-anchor="start" x="483.5" y="-17" font-family="Helvetica,sans-Serif" font-size="10.00">Hidden_handler._ProcessHelper.</text>
<text text-anchor="middle" x="555.12" y="-5.75" font-family="Helvetica,sans-Serif" font-size="10.00">GetRestrictedSessionUserToken</text>
</a>
</g>
</g>
<!-- Node5&#45;&gt;Node6 -->
<g id="edge5_Node000005_Node000006" class="edge">
<title>Node5&#45;&gt;Node6</title>
<g id="a_edge5_Node000005_Node000006"><a xlink:title=" ">
<path fill="none" stroke="#63b8ff" d="M659.04,-15.25C651,-15.25 642.91,-15.25 634.98,-15.25"/>
<polygon fill="#63b8ff" stroke="#63b8ff" points="658.81,-18.75 668.81,-15.25 658.81,-11.75 658.81,-18.75"/>
</a>
</g>
</g>
<!-- Node6&#45;&gt;Node2 -->
<g id="edge6_Node000006_Node000002" class="edge">
<title>Node6&#45;&gt;Node2</title>
<g id="a_edge6_Node000006_Node000002"><a xlink:title=" ">
<path fill="none" stroke="#63b8ff" d="M463.91,-25.09C455.83,-25.97 447.7,-26.86 439.73,-27.73"/>
<polygon fill="#63b8ff" stroke="#63b8ff" points="464.21,-28.58 473.77,-24.02 463.45,-21.62 464.21,-28.58"/>
</a>
</g>
</g>
</g>
</svg>

<g id="navigator" transform="translate(0 0)" fill="#404254">
  <rect fill="#f2f5e9" fill-opacity="0.5" stroke="#606060" stroke-width=".5" x="0" y="0" width="60" height="60"/>
  <use id="zoomplus" xlink:href="#zoomPlus" x="17" y="9" onmousedown="handleZoom(evt,'in')"/>
  <use id="zoomminus" xlink:href="#zoomMin" x="42" y="9" onmousedown="handleZoom(evt,'out')"/>
  <use id="reset" xlink:href="#resetDef" x="30" y="36" onmousedown="handleReset()"/>
   <use id="arrowup" xlink:href="#arrowUp" x="0" y="0" onmousedown="handlePan(0,-1)"/>
  <use id="arrowright" xlink:href="#arrowRight" x="0" y="0" onmousedown="handlePan(1,0)"/>
  <use id="arrowdown" xlink:href="#arrowDown" x="0" y="0" onmousedown="handlePan(0,1)"/>
  <use id="arrowleft" xlink:href="#arrowLeft" x="0" y="0" onmousedown="handlePan(-1,0)"/>
</g>
<svg viewBox="0 0 15 15" width="100%" height="30px" preserveAspectRatio="xMaxYMin meet">
 <g id="arrow_out" transform="scale(0.3 0.3)">
  <a xlink:href="class_hidden__handler_1_1___process_helper_a663ea20e04ca87e424a9ba029c1b7eba_icgraph_org.svg" target="_base">
   <rect id="button" ry="5" rx="5" y="6" x="6" height="38" width="38"
        fill="#f2f5e9" fill-opacity="0.5" stroke="#606060" stroke-width="1.0"/>
   <path id="arrow"
     d="M 11.500037,31.436501 C 11.940474,20.09759 22.043105,11.32322 32.158766,21.979434 L 37.068811,17.246167 C 37.068811,17.246167 37.088388,32 37.088388,32 L 22.160133,31.978069 C 22.160133,31.978069 26.997745,27.140456 26.997745,27.140456 C 18.528582,18.264221 13.291696,25.230495 11.500037,31.436501 z"
     style="fill:#404040;"/>
  </a>
 </g>
</svg>

<style type='text/css'>
<![CDATA[
[data-mouse-over-selected='false'] { opacity: 0.7; }
[data-mouse-over-selected='true']  { opacity: 1.0; }
]]>
</style>
<script type="application/ecmascript"><![CDATA[
document.addEventListener('DOMContentLoaded', (event) => {
  highlightEdges();
  highlightAdjacentNodes();
});
]]></script>
</svg>
