<?xml version="1.0" encoding="UTF-8" standalone="no"?>
<!DOCTYPE svg PUBLIC "-//W3C//DTD SVG 1.1//EN"
 "http://www.w3.org/Graphics/SVG/1.1/DTD/svg11.dtd">
<!-- Generated by graphviz version 10.0.1 (20240210.2158)
 -->
<!-- Title: xeno_rat_client.Program.CurrentDomain_UnhandledException Pages: 1 -->
<svg width="948pt" height="210pt"
 viewBox="0.00 0.00 947.50 209.50" xmlns="http://www.w3.org/2000/svg" xmlns:xlink="http://www.w3.org/1999/xlink">
<g id="graph0" class="graph" transform="scale(1 1) rotate(0) translate(4 205.5)">
<title>xeno_rat_client.Program.CurrentDomain_UnhandledException</title>
<!-- Node1 -->
<g id="Node000001" class="node">
<title>Node1</title>
<g id="a_Node000001"><a xlink:title="Handles the unhandled exceptions in the current application domain.">
<polygon fill="#999999" stroke="#666666" points="177.25,-150.5 0,-150.5 0,-120 177.25,-120 177.25,-150.5"/>
<text text-anchor="start" x="8" y="-137" font-family="Helvetica,sans-Serif" font-size="10.00">xeno_rat_client.Program.</text>
<text text-anchor="middle" x="88.62" y="-125.75" font-family="Helvetica,sans-Serif" font-size="10.00">CurrentDomain_UnhandledException</text>
</a>
</g>
</g>
<!-- Node2 -->
<g id="Node000002" class="node">
<title>Node2</title>
<g id="a_Node000002"><a xlink:href="classxeno__rat__client_1_1_socket_handler.html#aff56eb3e00bf2bb85e2d7696318b4468" target="_top" xlink:title="Concatenates two byte arrays and returns the result.">
<polygon fill="white" stroke="#666666" points="731.5,-178.5 579.75,-178.5 579.75,-148 731.5,-148 731.5,-178.5"/>
<text text-anchor="start" x="587.75" y="-165" font-family="Helvetica,sans-Serif" font-size="10.00">xeno_rat_client.SocketHandler.</text>
<text text-anchor="middle" x="655.62" y="-153.75" font-family="Helvetica,sans-Serif" font-size="10.00">Concat</text>
</a>
</g>
</g>
<!-- Node1&#45;&gt;Node2 -->
<g id="edge1_Node000001_Node000002" class="edge">
<title>Node1&#45;&gt;Node2</title>
<g id="a_edge1_Node000001_Node000002"><a xlink:title=" ">
<path fill="none" stroke="#63b8ff" d="M177.6,-139.61C284.13,-144.89 462.42,-153.72 568.24,-158.97"/>
<polygon fill="#63b8ff" stroke="#63b8ff" points="567.84,-162.45 578,-159.45 568.18,-155.46 567.84,-162.45"/>
</a>
</g>
</g>
<!-- Node3 -->
<g id="Node000003" class="node">
<title>Node3</title>
<g id="a_Node000003"><a xlink:href="classxeno__rat__client_1_1_node.html#afe8db11f190f0a3b146e16a7b14ef490" target="_top" xlink:title="Asynchronously sends the specified data over the socket connection.">
<polygon fill="white" stroke="#666666" points="347,-122.5 213.25,-122.5 213.25,-92 347,-92 347,-122.5"/>
<text text-anchor="start" x="221.25" y="-109" font-family="Helvetica,sans-Serif" font-size="10.00">xeno_rat_client.Node.Send</text>
<text text-anchor="middle" x="280.12" y="-97.75" font-family="Helvetica,sans-Serif" font-size="10.00">Async</text>
</a>
</g>
</g>
<!-- Node1&#45;&gt;Node3 -->
<g id="edge2_Node000001_Node000003" class="edge">
<title>Node1&#45;&gt;Node3</title>
<g id="a_edge2_Node000001_Node000003"><a xlink:title=" ">
<path fill="none" stroke="#63b8ff" d="M177.72,-122.23C185.64,-121.06 193.63,-119.88 201.45,-118.73"/>
<polygon fill="#63b8ff" stroke="#63b8ff" points="201.89,-122.2 211.27,-117.28 200.87,-115.27 201.89,-122.2"/>
</a>
</g>
</g>
<!-- Node4 -->
<g id="Node000004" class="node">
<title>Node4</title>
<g id="a_Node000004"><a xlink:href="classxeno__rat__client_1_1_node.html#aed8a6b3de6ee0efa48945c8b1e6c763e" target="_top" xlink:title="Disconnects the current socket and clears the subNodes list, and invokes the OnDisconnect event if it...">
<polygon fill="white" stroke="#666666" points="543.75,-116.88 383,-116.88 383,-97.62 543.75,-97.62 543.75,-116.88"/>
<text text-anchor="middle" x="463.38" y="-103.38" font-family="Helvetica,sans-Serif" font-size="10.00">xeno_rat_client.Node.Disconnect</text>
</a>
</g>
</g>
<!-- Node3&#45;&gt;Node4 -->
<g id="edge3_Node000003_Node000004" class="edge">
<title>Node3&#45;&gt;Node4</title>
<g id="a_edge3_Node000003_Node000004"><a xlink:title=" ">
<path fill="none" stroke="#63b8ff" d="M347.33,-107.25C355.17,-107.25 363.26,-107.25 371.37,-107.25"/>
<polygon fill="#63b8ff" stroke="#63b8ff" points="371.29,-110.75 381.29,-107.25 371.29,-103.75 371.29,-110.75"/>
</a>
</g>
</g>
<!-- Node5 -->
<g id="Node000005" class="node">
<title>Node5</title>
<g id="a_Node000005"><a xlink:href="classxeno__rat__client_1_1_socket_handler.html#a4970cfbc960dd288436a9fe80814531d" target="_top" xlink:title="Asynchronously sends the specified data over the socket after compressing, encrypting,...">
<polygon fill="white" stroke="#666666" points="539.25,-79.5 387.5,-79.5 387.5,-49 539.25,-49 539.25,-79.5"/>
<text text-anchor="start" x="395.5" y="-66" font-family="Helvetica,sans-Serif" font-size="10.00">xeno_rat_client.SocketHandler.</text>
<text text-anchor="middle" x="463.38" y="-54.75" font-family="Helvetica,sans-Serif" font-size="10.00">SendAsync</text>
</a>
</g>
</g>
<!-- Node3&#45;&gt;Node5 -->
<g id="edge5_Node000003_Node000005" class="edge">
<title>Node3&#45;&gt;Node5</title>
<g id="a_edge5_Node000003_Node000005"><a xlink:title=" ">
<path fill="none" stroke="#63b8ff" d="M347.33,-91.54C359.61,-88.63 372.54,-85.56 385.11,-82.58"/>
<polygon fill="#63b8ff" stroke="#63b8ff" points="385.65,-86.05 394.57,-80.34 384.04,-79.24 385.65,-86.05"/>
</a>
</g>
</g>
<!-- Node4&#45;&gt;Node4 -->
<g id="edge4_Node000004_Node000004" class="edge">
<title>Node4&#45;&gt;Node4</title>
<g id="a_edge4_Node000004_Node000004"><a xlink:title=" ">
<path fill="none" stroke="#63b8ff" d="M434.69,-117.16C421.6,-125.77 431.16,-134.88 463.38,-134.88 482,-134.88 493.05,-131.83 496.53,-127.6"/>
<polygon fill="#63b8ff" stroke="#63b8ff" points="499.81,-126.37 492.66,-118.55 493.38,-129.12 499.81,-126.37"/>
</a>
</g>
</g>
<!-- Node5&#45;&gt;Node2 -->
<g id="edge11_Node000005_Node000002" class="edge">
<title>Node5&#45;&gt;Node2</title>
<g id="a_edge11_Node000005_Node000002"><a xlink:title=" ">
<path fill="none" stroke="#63b8ff" d="M529.3,-79.95C534.39,-82.34 539.28,-85.09 543.75,-88.25 565.82,-103.85 558.01,-121.21 579.75,-137.25 582.21,-139.06 584.8,-140.76 587.49,-142.34"/>
<polygon fill="#63b8ff" stroke="#63b8ff" points="585.74,-145.38 596.23,-146.9 588.98,-139.17 585.74,-145.38"/>
</a>
</g>
</g>
<!-- Node6 -->
<g id="Node000006" class="node">
<title>Node6</title>
<g id="a_Node000006"><a xlink:href="classxeno__rat__client_1_1_compression.html#ab25c4ae61c5c162bdb353676a7d01ca6" target="_top" xlink:title="Compresses the input buffer using the LZNT1 compression format and returns the compressed data.">
<polygon fill="white" stroke="#666666" points="728.5,-128.5 582.75,-128.5 582.75,-98 728.5,-98 728.5,-128.5"/>
<text text-anchor="start" x="590.75" y="-115" font-family="Helvetica,sans-Serif" font-size="10.00">xeno_rat_client.Compression.</text>
<text text-anchor="middle" x="655.62" y="-103.75" font-family="Helvetica,sans-Serif" font-size="10.00">Compress</text>
</a>
</g>
</g>
<!-- Node5&#45;&gt;Node6 -->
<g id="edge6_Node000005_Node000006" class="edge">
<title>Node5&#45;&gt;Node6</title>
<g id="a_edge6_Node000005_Node000006"><a xlink:title=" ">
<path fill="none" stroke="#63b8ff" d="M525.36,-79.96C543.62,-84.66 563.82,-89.86 582.71,-94.73"/>
<polygon fill="#63b8ff" stroke="#63b8ff" points="581.64,-98.07 592.2,-97.17 583.39,-91.29 581.64,-98.07"/>
</a>
</g>
</g>
<!-- Node11 -->
<g id="Node000011" class="node">
<title>Node11</title>
<g id="a_Node000011"><a xlink:href="classxeno__rat__client_1_1_encryption.html#a807a6407c09f993138a2684be0899cb3" target="_top" xlink:title="Encrypts the input data using the provided key and returns the encrypted result.">
<polygon fill="white" stroke="#666666" points="722.88,-79.5 588.38,-79.5 588.38,-49 722.88,-49 722.88,-79.5"/>
<text text-anchor="start" x="596.38" y="-66" font-family="Helvetica,sans-Serif" font-size="10.00">xeno_rat_client.Encryption.</text>
<text text-anchor="middle" x="655.62" y="-54.75" font-family="Helvetica,sans-Serif" font-size="10.00">Encrypt</text>
</a>
</g>
</g>
<!-- Node5&#45;&gt;Node11 -->
<g id="edge12_Node000005_Node000011" class="edge">
<title>Node5&#45;&gt;Node11</title>
<g id="a_edge12_Node000005_Node000011"><a xlink:title=" ">
<path fill="none" stroke="#63b8ff" d="M539.57,-64.25C551.81,-64.25 564.52,-64.25 576.83,-64.25"/>
<polygon fill="#63b8ff" stroke="#63b8ff" points="576.48,-67.75 586.48,-64.25 576.48,-60.75 576.48,-67.75"/>
</a>
</g>
</g>
<!-- Node12 -->
<g id="Node000012" class="node">
<title>Node12</title>
<g id="a_Node000012"><a xlink:href="classxeno__rat__client_1_1_socket_handler.html#a9b4df15d86fe97e366771e3c0568761d" target="_top" xlink:title="Converts an integer to a byte array.">
<polygon fill="white" stroke="#666666" points="731.5,-30.5 579.75,-30.5 579.75,0 731.5,0 731.5,-30.5"/>
<text text-anchor="start" x="587.75" y="-17" font-family="Helvetica,sans-Serif" font-size="10.00">xeno_rat_client.SocketHandler.</text>
<text text-anchor="middle" x="655.62" y="-5.75" font-family="Helvetica,sans-Serif" font-size="10.00">IntToBytes</text>
</a>
</g>
</g>
<!-- Node5&#45;&gt;Node12 -->
<g id="edge13_Node000005_Node000012" class="edge">
<title>Node5&#45;&gt;Node12</title>
<g id="a_edge13_Node000005_Node000012"><a xlink:title=" ">
<path fill="none" stroke="#63b8ff" d="M525.36,-48.54C543.62,-43.84 563.82,-38.64 582.71,-33.77"/>
<polygon fill="#63b8ff" stroke="#63b8ff" points="583.39,-37.21 592.2,-31.33 581.64,-30.43 583.39,-37.21"/>
</a>
</g>
</g>
<!-- Node7 -->
<g id="Node000007" class="node">
<title>Node7</title>
<g id="a_Node000007"><a xlink:href="classxeno__rat__client_1_1_compression.html#abc065f053d0258dd1a7acae93f8332d0" target="_top" xlink:title="Allocates memory in the local heap.">
<polygon fill="white" stroke="#666666" points="926.38,-201.5 780.62,-201.5 780.62,-171 926.38,-171 926.38,-201.5"/>
<text text-anchor="start" x="788.62" y="-188" font-family="Helvetica,sans-Serif" font-size="10.00">xeno_rat_client.Compression.</text>
<text text-anchor="middle" x="853.5" y="-176.75" font-family="Helvetica,sans-Serif" font-size="10.00">LocalAlloc</text>
</a>
</g>
</g>
<!-- Node6&#45;&gt;Node7 -->
<g id="edge7_Node000006_Node000007" class="edge">
<title>Node6&#45;&gt;Node7</title>
<g id="a_edge7_Node000006_Node000007"><a xlink:title=" ">
<path fill="none" stroke="#63b8ff" d="M706.76,-128.99C715.15,-132.09 723.66,-135.55 731.5,-139.25 748.45,-147.26 750.36,-153.65 767.5,-161.25 771.97,-163.23 776.64,-165.11 781.4,-166.87"/>
<polygon fill="#63b8ff" stroke="#63b8ff" points="779.87,-170.04 790.46,-170.06 782.18,-163.44 779.87,-170.04"/>
</a>
</g>
</g>
<!-- Node8 -->
<g id="Node000008" class="node">
<title>Node8</title>
<g id="a_Node000008"><a xlink:href="classxeno__rat__client_1_1_compression.html#a0d2aafc746f145f698a8f1d310ccfbb2" target="_top" xlink:title="Frees the memory block allocated by the LocalAlloc or LocalReAlloc function.">
<polygon fill="white" stroke="#666666" points="926.38,-152.5 780.62,-152.5 780.62,-122 926.38,-122 926.38,-152.5"/>
<text text-anchor="start" x="788.62" y="-139" font-family="Helvetica,sans-Serif" font-size="10.00">xeno_rat_client.Compression.</text>
<text text-anchor="middle" x="853.5" y="-127.75" font-family="Helvetica,sans-Serif" font-size="10.00">LocalFree</text>
</a>
</g>
</g>
<!-- Node6&#45;&gt;Node8 -->
<g id="edge8_Node000006_Node000008" class="edge">
<title>Node6&#45;&gt;Node8</title>
<g id="a_edge8_Node000006_Node000008"><a xlink:title=" ">
<path fill="none" stroke="#63b8ff" d="M728.73,-122.08C741.85,-123.69 755.64,-125.38 769.06,-127.03"/>
<polygon fill="#63b8ff" stroke="#63b8ff" points="768.37,-130.47 778.72,-128.21 769.22,-123.52 768.37,-130.47"/>
</a>
</g>
</g>
<!-- Node9 -->
<g id="Node000009" class="node">
<title>Node9</title>
<g id="a_Node000009"><a xlink:href="classxeno__rat__client_1_1_compression.html#a9f7d50afed4c3c988eb3e7691cb94581" target="_top" xlink:title="Compresses the input buffer using the specified compression format and returns the compressed data in...">
<polygon fill="white" stroke="#666666" points="926.38,-103.5 780.62,-103.5 780.62,-73 926.38,-73 926.38,-103.5"/>
<text text-anchor="start" x="788.62" y="-90" font-family="Helvetica,sans-Serif" font-size="10.00">xeno_rat_client.Compression.</text>
<text text-anchor="middle" x="853.5" y="-78.75" font-family="Helvetica,sans-Serif" font-size="10.00">RtlCompressBuffer</text>
</a>
</g>
</g>
<!-- Node6&#45;&gt;Node9 -->
<g id="edge9_Node000006_Node000009" class="edge">
<title>Node6&#45;&gt;Node9</title>
<g id="a_edge9_Node000006_Node000009"><a xlink:title=" ">
<path fill="none" stroke="#63b8ff" d="M728.73,-104.05C741.85,-102.37 755.64,-100.61 769.06,-98.9"/>
<polygon fill="#63b8ff" stroke="#63b8ff" points="769.25,-102.4 778.72,-97.67 768.36,-95.46 769.25,-102.4"/>
</a>
</g>
</g>
<!-- Node10 -->
<g id="Node000010" class="node">
<title>Node10</title>
<g id="a_Node000010"><a xlink:href="classxeno__rat__client_1_1_compression.html#ae6d3ee0c8538f67cd80635e6bc1bad03" target="_top" xlink:title="Retrieves the size of the workspace required for compression.">
<polygon fill="white" stroke="#666666" points="939.5,-54.5 767.5,-54.5 767.5,-24 939.5,-24 939.5,-54.5"/>
<text text-anchor="start" x="775.5" y="-41" font-family="Helvetica,sans-Serif" font-size="10.00">xeno_rat_client.Compression.</text>
<text text-anchor="middle" x="853.5" y="-29.75" font-family="Helvetica,sans-Serif" font-size="10.00">RtlGetCompressionWorkSpaceSize</text>
</a>
</g>
</g>
<!-- Node6&#45;&gt;Node10 -->
<g id="edge10_Node000006_Node000010" class="edge">
<title>Node6&#45;&gt;Node10</title>
<g id="a_edge10_Node000006_Node000010"><a xlink:title=" ">
<path fill="none" stroke="#63b8ff" d="M709.3,-97.64C716.88,-94.83 724.48,-91.68 731.5,-88.25 748.77,-79.8 750.08,-72.39 767.5,-64.25 771.54,-62.36 775.75,-60.58 780.05,-58.91"/>
<polygon fill="#63b8ff" stroke="#63b8ff" points="781.24,-62.2 789.43,-55.49 778.84,-55.63 781.24,-62.2"/>
</a>
</g>
</g>
</g>
</svg>
