<?xml version="1.0" encoding="UTF-8" standalone="no"?>
<!DOCTYPE svg PUBLIC "-//W3C//DTD SVG 1.1//EN"
 "http://www.w3.org/Graphics/SVG/1.1/DTD/svg11.dtd">
<!-- Generated by graphviz version 10.0.1 (20240210.2158)
 -->
<!-- Title: NAudio.Wave.Compression.AcmDriver.DriverEnumCallback Pages: 1 -->
<svg width="730pt" height="76pt"
 viewBox="0.00 0.00 729.75 75.88" xmlns="http://www.w3.org/2000/svg" xmlns:xlink="http://www.w3.org/1999/xlink">
<g id="graph0" class="graph" transform="scale(1 1) rotate(0) translate(4 71.88)">
<title>NAudio.Wave.Compression.AcmDriver.DriverEnumCallback</title>
<!-- Node1 -->
<g id="Node000001" class="node">
<title>Node1</title>
<g id="a_Node000001"><a xlink:title="Callback function for enumerating ACM drivers.">
<polygon fill="#999999" stroke="#666666" points="154.75,-45.88 0,-45.88 0,-15.37 154.75,-15.37 154.75,-45.88"/>
<text text-anchor="start" x="8" y="-32.38" font-family="Helvetica,sans-Serif" font-size="10.00">NAudio.Wave.Compression.</text>
<text text-anchor="middle" x="77.38" y="-21.12" font-family="Helvetica,sans-Serif" font-size="10.00">AcmDriver.DriverEnumCallback</text>
</a>
</g>
</g>
<!-- Node2 -->
<g id="Node000002" class="node">
<title>Node2</title>
<g id="a_Node000002"><a xlink:href="class_n_audio_1_1_wave_1_1_compression_1_1_acm_driver.html#aa4d323709deb552385d8c28c195ceb01" target="_top" xlink:title="Creates a new ACM Driver object.">
<polygon fill="white" stroke="#666666" points="330.5,-45.88 190.75,-45.88 190.75,-15.37 330.5,-15.37 330.5,-45.88"/>
<text text-anchor="start" x="198.75" y="-32.38" font-family="Helvetica,sans-Serif" font-size="10.00">NAudio.Wave.Compression.</text>
<text text-anchor="middle" x="260.62" y="-21.12" font-family="Helvetica,sans-Serif" font-size="10.00">AcmDriver.AcmDriver</text>
</a>
</g>
</g>
<!-- Node1&#45;&gt;Node2 -->
<g id="edge1_Node000001_Node000002" class="edge">
<title>Node1&#45;&gt;Node2</title>
<g id="a_edge1_Node000001_Node000002"><a xlink:title=" ">
<path fill="none" stroke="#63b8ff" d="M155.24,-30.62C163.09,-30.62 171.07,-30.62 178.95,-30.62"/>
<polygon fill="#63b8ff" stroke="#63b8ff" points="178.89,-34.13 188.89,-30.63 178.89,-27.13 178.89,-34.13"/>
</a>
</g>
</g>
<!-- Node3 -->
<g id="Node000003" class="node">
<title>Node3</title>
<g id="a_Node000003"><a xlink:href="class_n_audio_1_1_wave_1_1_compression_1_1_acm_interop.html#a274a894b0cc0ec82be0cfd6b620d41a6" target="_top" xlink:title="Retrieves details about an Audio Compression Manager (ACM) driver.">
<polygon fill="white" stroke="#666666" points="511.5,-67.88 366.5,-67.88 366.5,-37.38 511.5,-37.38 511.5,-67.88"/>
<text text-anchor="start" x="374.5" y="-54.38" font-family="Helvetica,sans-Serif" font-size="10.00">NAudio.Wave.Compression.</text>
<text text-anchor="middle" x="439" y="-43.12" font-family="Helvetica,sans-Serif" font-size="10.00">AcmInterop.acmDriverDetails</text>
</a>
</g>
</g>
<!-- Node2&#45;&gt;Node3 -->
<g id="edge2_Node000002_Node000003" class="edge">
<title>Node2&#45;&gt;Node3</title>
<g id="a_edge2_Node000002_Node000003"><a xlink:title=" ">
<path fill="none" stroke="#63b8ff" d="M330.83,-39.26C338.7,-40.24 346.78,-41.25 354.81,-42.25"/>
<polygon fill="#63b8ff" stroke="#63b8ff" points="354.24,-45.7 364.59,-43.47 355.1,-38.76 354.24,-45.7"/>
</a>
</g>
</g>
<!-- Node4 -->
<g id="Node000004" class="node">
<title>Node4</title>
<g id="a_Node000004"><a xlink:href="class_n_audio_1_1_mm_exception.html#a1ca263e295226b2dff8fda80043242d2" target="_top" xlink:title="Throws an exception if the specified result is not equal to MmResult.NoError.">
<polygon fill="white" stroke="#666666" points="503.25,-19.25 374.75,-19.25 374.75,0 503.25,0 503.25,-19.25"/>
<text text-anchor="middle" x="439" y="-5.75" font-family="Helvetica,sans-Serif" font-size="10.00">NAudio.MmException.Try</text>
</a>
</g>
</g>
<!-- Node2&#45;&gt;Node4 -->
<g id="edge3_Node000002_Node000004" class="edge">
<title>Node2&#45;&gt;Node4</title>
<g id="a_edge3_Node000002_Node000004"><a xlink:title=" ">
<path fill="none" stroke="#63b8ff" d="M330.83,-22.39C341.5,-21.11 352.56,-19.8 363.35,-18.51"/>
<polygon fill="#63b8ff" stroke="#63b8ff" points="363.44,-22.03 372.96,-17.37 362.61,-15.08 363.44,-22.03"/>
</a>
</g>
</g>
<!-- Node5 -->
<g id="Node000005" class="node">
<title>Node5</title>
<g id="a_Node000005"><a xlink:href="class_n_audio_1_1_mm_exception.html#a674e0bb89c4e2aeb1f4ea96514710947" target="_top" xlink:title="Creates a new MmException.">
<polygon fill="white" stroke="#666666" points="721.75,-19.25 547.5,-19.25 547.5,0 721.75,0 721.75,-19.25"/>
<text text-anchor="middle" x="634.62" y="-5.75" font-family="Helvetica,sans-Serif" font-size="10.00">NAudio.MmException.MmException</text>
</a>
</g>
</g>
<!-- Node4&#45;&gt;Node5 -->
<g id="edge4_Node000004_Node000005" class="edge">
<title>Node4&#45;&gt;Node5</title>
<g id="a_edge4_Node000004_Node000005"><a xlink:title=" ">
<path fill="none" stroke="#63b8ff" d="M503.67,-9.62C513.98,-9.62 524.85,-9.62 535.75,-9.62"/>
<polygon fill="#63b8ff" stroke="#63b8ff" points="535.57,-13.13 545.57,-9.63 535.57,-6.13 535.57,-13.13"/>
</a>
</g>
</g>
</g>
</svg>
