<?xml version="1.0" encoding="UTF-8" standalone="no"?>
<!DOCTYPE svg PUBLIC "-//W3C//DTD SVG 1.1//EN"
 "http://www.w3.org/Graphics/SVG/1.1/DTD/svg11.dtd">
<!-- Generated by graphviz version 10.0.1 (20240210.2158)
 -->
<!-- Title: NAudio.Wave.SimpleCompressorEffect.Read Pages: 1 -->
<svg width="787pt" height="125pt"
 viewBox="0.00 0.00 786.75 124.88" xmlns="http://www.w3.org/2000/svg" xmlns:xlink="http://www.w3.org/1999/xlink">
<g id="graph0" class="graph" transform="scale(1 1) rotate(0) translate(4 120.88)">
<title>NAudio.Wave.SimpleCompressorEffect.Read</title>
<!-- Node1 -->
<g id="Node000001" class="node">
<title>Node1</title>
<g id="a_Node000001"><a xlink:title="Reads audio samples from the source stream into the specified array.">
<polygon fill="#999999" stroke="#666666" points="162.25,-45.88 0,-45.88 0,-15.37 162.25,-15.37 162.25,-45.88"/>
<text text-anchor="start" x="8" y="-32.38" font-family="Helvetica,sans-Serif" font-size="10.00">NAudio.Wave.SimpleCompressor</text>
<text text-anchor="middle" x="81.12" y="-21.12" font-family="Helvetica,sans-Serif" font-size="10.00">Effect.Read</text>
</a>
</g>
</g>
<!-- Node2 -->
<g id="Node000002" class="node">
<title>Node2</title>
<g id="a_Node000002"><a xlink:href="class_n_audio_1_1_dsp_1_1_simple_compressor.html#adf64c414bce58e81b790a15c126154c7" target="_top" xlink:title="Processes the input signals using a dynamic range compressor.">
<polygon fill="white" stroke="#666666" points="365.38,-67.88 207.62,-67.88 207.62,-37.38 365.38,-37.38 365.38,-67.88"/>
<text text-anchor="start" x="215.62" y="-54.38" font-family="Helvetica,sans-Serif" font-size="10.00">NAudio.Dsp.SimpleCompressor.</text>
<text text-anchor="middle" x="286.5" y="-43.12" font-family="Helvetica,sans-Serif" font-size="10.00">Process</text>
</a>
</g>
</g>
<!-- Node1&#45;&gt;Node2 -->
<g id="edge1_Node000001_Node000002" class="edge">
<title>Node1&#45;&gt;Node2</title>
<g id="a_edge1_Node000001_Node000002"><a xlink:title=" ">
<path fill="none" stroke="#63b8ff" d="M162.5,-39.32C173.58,-40.52 185.01,-41.75 196.23,-42.97"/>
<polygon fill="#63b8ff" stroke="#63b8ff" points="195.54,-46.41 205.86,-44.01 196.29,-39.45 195.54,-46.41"/>
</a>
</g>
</g>
<!-- Node7 -->
<g id="Node000007" class="node">
<title>Node7</title>
<g id="a_Node000007"><a xlink:href="interface_n_audio_1_1_wave_1_1_i_sample_provider.html#a5d289f74be04dfee607e40fa967072ca" target="_top" xlink:title="Fill the specified buffer with 32 bit floating point samples.">
<polygon fill="white" stroke="#666666" points="374.75,-19.25 198.25,-19.25 198.25,0 374.75,0 374.75,-19.25"/>
<text text-anchor="middle" x="286.5" y="-5.75" font-family="Helvetica,sans-Serif" font-size="10.00">NAudio.Wave.ISampleProvider.Read</text>
</a>
</g>
</g>
<!-- Node1&#45;&gt;Node7 -->
<g id="edge6_Node000001_Node000007" class="edge">
<title>Node1&#45;&gt;Node7</title>
<g id="a_edge6_Node000001_Node000007"><a xlink:title=" ">
<path fill="none" stroke="#63b8ff" d="M162.5,-22.33C170.43,-21.51 178.53,-20.67 186.61,-19.84"/>
<polygon fill="#63b8ff" stroke="#63b8ff" points="186.91,-23.32 196.5,-18.82 186.19,-16.36 186.91,-23.32"/>
</a>
</g>
</g>
<!-- Node3 -->
<g id="Node000003" class="node">
<title>Node3</title>
<g id="a_Node000003"><a xlink:href="class_n_audio_1_1_utils_1_1_decibels.html#a32dc24c81e00ffeeebab7171a358a56b" target="_top" xlink:title="Converts a decibel value to its linear equivalent.">
<polygon fill="white" stroke="#666666" points="568.5,-116.88 414.5,-116.88 414.5,-86.38 568.5,-86.38 568.5,-116.88"/>
<text text-anchor="start" x="422.5" y="-103.38" font-family="Helvetica,sans-Serif" font-size="10.00">NAudio.Utils.Decibels.Decibels</text>
<text text-anchor="middle" x="491.5" y="-92.12" font-family="Helvetica,sans-Serif" font-size="10.00">ToLinear</text>
</a>
</g>
</g>
<!-- Node2&#45;&gt;Node3 -->
<g id="edge2_Node000002_Node000003" class="edge">
<title>Node2&#45;&gt;Node3</title>
<g id="a_edge2_Node000002_Node000003"><a xlink:title=" ">
<path fill="none" stroke="#63b8ff" d="M352.57,-68.33C372.24,-73.08 394.01,-78.33 414.33,-83.24"/>
<polygon fill="#63b8ff" stroke="#63b8ff" points="413.44,-86.62 423.98,-85.57 415.08,-79.82 413.44,-86.62"/>
</a>
</g>
</g>
<!-- Node4 -->
<g id="Node000004" class="node">
<title>Node4</title>
<g id="a_Node000004"><a xlink:href="class_n_audio_1_1_utils_1_1_decibels.html#ad902812de74ac5ecca36949e908c4136" target="_top" xlink:title="Converts a linear value to decibels.">
<polygon fill="white" stroke="#666666" points="562.5,-67.88 420.5,-67.88 420.5,-37.38 562.5,-37.38 562.5,-67.88"/>
<text text-anchor="start" x="428.5" y="-54.38" font-family="Helvetica,sans-Serif" font-size="10.00">NAudio.Utils.Decibels.Linear</text>
<text text-anchor="middle" x="491.5" y="-43.12" font-family="Helvetica,sans-Serif" font-size="10.00">ToDecibels</text>
</a>
</g>
</g>
<!-- Node2&#45;&gt;Node4 -->
<g id="edge3_Node000002_Node000004" class="edge">
<title>Node2&#45;&gt;Node4</title>
<g id="a_edge3_Node000002_Node000004"><a xlink:title=" ">
<path fill="none" stroke="#63b8ff" d="M365.69,-52.62C379.88,-52.62 394.72,-52.62 409,-52.62"/>
<polygon fill="#63b8ff" stroke="#63b8ff" points="408.8,-56.13 418.8,-52.63 408.8,-49.13 408.8,-56.13"/>
</a>
</g>
</g>
<!-- Node5 -->
<g id="Node000005" class="node">
<title>Node5</title>
<g id="a_Node000005"><a xlink:href="class_n_audio_1_1_dsp_1_1_att_rel_envelope.html#ad0f68a53e5b1acd573af8099a999a5a0" target="_top" xlink:title=" ">
<polygon fill="white" stroke="#666666" points="572.25,-19.25 410.75,-19.25 410.75,0 572.25,0 572.25,-19.25"/>
<text text-anchor="middle" x="491.5" y="-5.75" font-family="Helvetica,sans-Serif" font-size="10.00">NAudio.Dsp.AttRelEnvelope.Run</text>
</a>
</g>
</g>
<!-- Node2&#45;&gt;Node5 -->
<g id="edge4_Node000002_Node000005" class="edge">
<title>Node2&#45;&gt;Node5</title>
<g id="a_edge4_Node000002_Node000005"><a xlink:title=" ">
<path fill="none" stroke="#63b8ff" d="M361.65,-36.92C384.7,-32.04 409.79,-26.72 431.65,-22.09"/>
<polygon fill="#63b8ff" stroke="#63b8ff" points="432.22,-25.55 441.27,-20.05 430.77,-18.7 432.22,-25.55"/>
</a>
</g>
</g>
<!-- Node6 -->
<g id="Node000006" class="node">
<title>Node6</title>
<g id="a_Node000006"><a xlink:href="class_n_audio_1_1_dsp_1_1_envelope_detector.html#a8248db0fc70556b3a9bf43029c7dd8c5" target="_top" xlink:title="Runs the attack or release process based on the input value and state, and returns the result.">
<polygon fill="white" stroke="#666666" points="778.75,-19.25 608.25,-19.25 608.25,0 778.75,0 778.75,-19.25"/>
<text text-anchor="middle" x="693.5" y="-5.75" font-family="Helvetica,sans-Serif" font-size="10.00">NAudio.Dsp.EnvelopeDetector.Run</text>
</a>
</g>
</g>
<!-- Node5&#45;&gt;Node6 -->
<g id="edge5_Node000005_Node000006" class="edge">
<title>Node5&#45;&gt;Node6</title>
<g id="a_edge5_Node000005_Node000006"><a xlink:title=" ">
<path fill="none" stroke="#63b8ff" d="M572.7,-9.62C580.6,-9.62 588.67,-9.62 596.71,-9.62"/>
<polygon fill="#63b8ff" stroke="#63b8ff" points="596.52,-13.13 606.52,-9.63 596.52,-6.13 596.52,-13.13"/>
</a>
</g>
</g>
</g>
</svg>
