<?xml version="1.0" encoding="UTF-8" standalone="no"?>
<!DOCTYPE svg PUBLIC "-//W3C//DTD SVG 1.1//EN"
 "http://www.w3.org/Graphics/SVG/1.1/DTD/svg11.dtd">
<!-- Generated by graphviz version 10.0.1 (20240210.2158)
 -->
<!-- Title: NAudio.Wave.Id3v2Tag.ReadTag Pages: 1 -->
<svg width="356pt" height="76pt"
 viewBox="0.00 0.00 355.75 75.88" xmlns="http://www.w3.org/2000/svg" xmlns:xlink="http://www.w3.org/1999/xlink">
<g id="graph0" class="graph" transform="scale(1 1) rotate(0) translate(4 71.88)">
<title>NAudio.Wave.Id3v2Tag.ReadTag</title>
<!-- Node1 -->
<g id="Node000001" class="node">
<title>Node1</title>
<g id="a_Node000001"><a xlink:title="Reads an ID3v2 tag from the input stream and returns the tag.">
<polygon fill="#999999" stroke="#666666" points="347.75,-45.88 187,-45.88 187,-26.62 347.75,-26.62 347.75,-45.88"/>
<text text-anchor="middle" x="267.38" y="-32.38" font-family="Helvetica,sans-Serif" font-size="10.00">NAudio.Wave.Id3v2Tag.ReadTag</text>
</a>
</g>
</g>
<!-- Node2 -->
<g id="Node000002" class="node">
<title>Node2</title>
<g id="a_Node000002"><a xlink:href="class_n_audio_1_1_wave_1_1_id3v2_tag.html#a7b8a11cb9080c3cfc8d0c4a3e25d372b" target="_top" xlink:title="Creates an ID3v2 tag from the given collection of key&#45;value pairs and returns the created tag.">
<polygon fill="white" stroke="#666666" points="151,-67.88 0,-67.88 0,-48.62 151,-48.62 151,-67.88"/>
<text text-anchor="middle" x="75.5" y="-54.38" font-family="Helvetica,sans-Serif" font-size="10.00">NAudio.Wave.Id3v2Tag.Create</text>
</a>
</g>
</g>
<!-- Node1&#45;&gt;Node2 -->
<g id="edge1_Node000001_Node000002" class="edge">
<title>Node1&#45;&gt;Node2</title>
<g id="a_edge1_Node000001_Node000002"><a xlink:title=" ">
<path fill="none" stroke="#63b8ff" d="M175.39,-46.79C167.37,-47.72 159.31,-48.65 151.45,-49.57"/>
<polygon fill="#63b8ff" stroke="#63b8ff" points="175.64,-50.29 185.17,-45.66 174.84,-43.33 175.64,-50.29"/>
</a>
</g>
</g>
<!-- Node3 -->
<g id="Node000003" class="node">
<title>Node3</title>
<g id="a_Node000003"><a xlink:href="class_n_audio_1_1_wave_1_1_mp3_file_reader_base.html#a4ef942cc623142a9827edcff17f55e12" target="_top" xlink:title=" ">
<polygon fill="white" stroke="#666666" points="148,-30.5 3,-30.5 3,0 148,0 148,-30.5"/>
<text text-anchor="start" x="11" y="-17" font-family="Helvetica,sans-Serif" font-size="10.00">NAudio.Wave.Mp3FileReader</text>
<text text-anchor="middle" x="75.5" y="-5.75" font-family="Helvetica,sans-Serif" font-size="10.00">Base.Mp3FileReaderBase</text>
</a>
</g>
</g>
<!-- Node1&#45;&gt;Node3 -->
<g id="edge2_Node000001_Node000003" class="edge">
<title>Node1&#45;&gt;Node3</title>
<g id="a_edge2_Node000001_Node000003"><a xlink:title=" ">
<path fill="none" stroke="#63b8ff" d="M175.3,-26.18C166.29,-25.18 157.22,-24.18 148.44,-23.21"/>
<polygon fill="#63b8ff" stroke="#63b8ff" points="174.85,-29.65 185.17,-27.27 175.62,-22.69 174.85,-29.65"/>
</a>
</g>
</g>
</g>
</svg>
