<?xml version="1.0" encoding="UTF-8" standalone="no"?>
<!DOCTYPE svg PUBLIC "-//W3C//DTD SVG 1.1//EN"
 "http://www.w3.org/Graphics/SVG/1.1/DTD/svg11.dtd">
<!-- Generated by graphviz version 10.0.1 (20240210.2158)
 -->
<!-- Title: xeno_rat_server.Forms.WebCam Pages: 1 -->
<svg width="1103pt" height="1073pt"
 viewBox="0.00 0.00 1102.50 1073.25" xmlns="http://www.w3.org/2000/svg" xmlns:xlink="http://www.w3.org/1999/xlink">
<g id="graph0" class="graph" transform="scale(1 1) rotate(0) translate(4 1069.25)">
<title>xeno_rat_server.Forms.WebCam</title>
<!-- Node1 -->
<g id="Node000001" class="node">
<title>Node1</title>
<g id="a_Node000001"><a xlink:title=" ">
<polygon fill="#999999" stroke="none" points="533.5,-289 351.5,-289 351.5,0 533.5,0 533.5,-289"/>
<text text-anchor="start" x="370.88" y="-275.5" font-family="Helvetica,sans-Serif" font-size="10.00">xeno_rat_server.Forms.WebCam</text>
<text text-anchor="start" x="441" y="-260.5" font-family="Helvetica,sans-Serif" font-size="10.00"> </text>
<text text-anchor="start" x="355.5" y="-245.5" font-family="Helvetica,sans-Serif" font-size="10.00">+</text>
<text text-anchor="start" x="365.5" y="-245.5" font-family="Helvetica,sans-Serif" font-size="10.00">WebCam()</text>
<text text-anchor="start" x="355.5" y="-230.5" font-family="Helvetica,sans-Serif" font-size="10.00">+</text>
<text text-anchor="start" x="365.5" y="-230.5" font-family="Helvetica,sans-Serif" font-size="10.00">RecvThread()</text>
<text text-anchor="start" x="355.5" y="-215.5" font-family="Helvetica,sans-Serif" font-size="10.00">+</text>
<text text-anchor="start" x="365.5" y="-215.5" font-family="Helvetica,sans-Serif" font-size="10.00">RefreshCams()</text>
<text text-anchor="start" x="355.5" y="-200.5" font-family="Helvetica,sans-Serif" font-size="10.00">+</text>
<text text-anchor="start" x="365.5" y="-200.5" font-family="Helvetica,sans-Serif" font-size="10.00">SetCamera()</text>
<text text-anchor="start" x="355.5" y="-185.5" font-family="Helvetica,sans-Serif" font-size="10.00">+</text>
<text text-anchor="start" x="365.5" y="-185.5" font-family="Helvetica,sans-Serif" font-size="10.00">SetQuality()</text>
<text text-anchor="start" x="355.5" y="-170.5" font-family="Helvetica,sans-Serif" font-size="10.00">+</text>
<text text-anchor="start" x="365.5" y="-170.5" font-family="Helvetica,sans-Serif" font-size="10.00">GetCamera()</text>
<text text-anchor="start" x="355.5" y="-155.5" font-family="Helvetica,sans-Serif" font-size="10.00">+</text>
<text text-anchor="start" x="365.5" y="-155.5" font-family="Helvetica,sans-Serif" font-size="10.00">TempOnDisconnect()</text>
<text text-anchor="start" x="355.88" y="-140.5" font-family="Helvetica,sans-Serif" font-size="10.00">#</text>
<text text-anchor="start" x="365.5" y="-140.5" font-family="Helvetica,sans-Serif" font-size="10.00">Dispose()</text>
<text text-anchor="start" x="357" y="-125.5" font-family="Helvetica,sans-Serif" font-size="10.00">&#45;</text>
<text text-anchor="start" x="365.5" y="-125.5" font-family="Helvetica,sans-Serif" font-size="10.00">InitializeAsync()</text>
<text text-anchor="start" x="357" y="-110.5" font-family="Helvetica,sans-Serif" font-size="10.00">&#45;</text>
<text text-anchor="start" x="365.5" y="-110.5" font-family="Helvetica,sans-Serif" font-size="10.00">CreateImageNode()</text>
<text text-anchor="start" x="357" y="-95.5" font-family="Helvetica,sans-Serif" font-size="10.00">&#45;</text>
<text text-anchor="start" x="365.5" y="-95.5" font-family="Helvetica,sans-Serif" font-size="10.00">WebCam_Load()</text>
<text text-anchor="start" x="357" y="-80.5" font-family="Helvetica,sans-Serif" font-size="10.00">&#45;</text>
<text text-anchor="start" x="365.5" y="-80.5" font-family="Helvetica,sans-Serif" font-size="10.00">button2_Click()</text>
<text text-anchor="start" x="357" y="-65.5" font-family="Helvetica,sans-Serif" font-size="10.00">&#45;</text>
<text text-anchor="start" x="365.5" y="-65.5" font-family="Helvetica,sans-Serif" font-size="10.00">button3_Click()</text>
<text text-anchor="start" x="357" y="-50.5" font-family="Helvetica,sans-Serif" font-size="10.00">&#45;</text>
<text text-anchor="start" x="365.5" y="-50.5" font-family="Helvetica,sans-Serif" font-size="10.00">button1_Click()</text>
<text text-anchor="start" x="357" y="-35.5" font-family="Helvetica,sans-Serif" font-size="10.00">&#45;</text>
<text text-anchor="start" x="365.5" y="-35.5" font-family="Helvetica,sans-Serif" font-size="10.00">comboBox1_SelectedIndexChanged()</text>
<text text-anchor="start" x="357" y="-20.5" font-family="Helvetica,sans-Serif" font-size="10.00">&#45;</text>
<text text-anchor="start" x="365.5" y="-20.5" font-family="Helvetica,sans-Serif" font-size="10.00">comboBox2_SelectedIndexChanged()</text>
<text text-anchor="start" x="357" y="-5.5" font-family="Helvetica,sans-Serif" font-size="10.00">&#45;</text>
<text text-anchor="start" x="365.5" y="-5.5" font-family="Helvetica,sans-Serif" font-size="10.00">InitializeComponent()</text>
<polygon fill="#666666" stroke="#666666" points="351.5,-272 351.5,-272 533.5,-272 533.5,-272 351.5,-272"/>
<polygon fill="#666666" stroke="#666666" points="351.5,-257 351.5,-257 533.5,-257 533.5,-257 351.5,-257"/>
<polygon fill="none" stroke="#666666" points="351.5,0 351.5,-289 533.5,-289 533.5,0 351.5,0"/>
</a>
</g>
</g>
<!-- Node2 -->
<g id="Node000002" class="node">
<title>Node2</title>
<g id="a_Node000002"><a xlink:href="class_form.html" target="_top" xlink:title=" ">
<polygon fill="white" stroke="none" points="131.5,-580.25 99.5,-580.25 99.5,-531.25 131.5,-531.25 131.5,-580.25"/>
<text text-anchor="start" x="104.25" y="-566.75" font-family="Helvetica,sans-Serif" font-size="10.00">Form</text>
<text text-anchor="start" x="114" y="-551.75" font-family="Helvetica,sans-Serif" font-size="10.00"> </text>
<text text-anchor="start" x="114" y="-536.75" font-family="Helvetica,sans-Serif" font-size="10.00"> </text>
<polygon fill="#666666" stroke="#666666" points="99.5,-563.25 99.5,-563.25 131.5,-563.25 131.5,-563.25 99.5,-563.25"/>
<polygon fill="#666666" stroke="#666666" points="99.5,-548.25 99.5,-548.25 131.5,-548.25 131.5,-548.25 99.5,-548.25"/>
<polygon fill="none" stroke="#666666" points="99.5,-531.25 99.5,-580.25 131.5,-580.25 131.5,-531.25 99.5,-531.25"/>
</a>
</g>
</g>
<!-- Node2&#45;&gt;Node1 -->
<g id="edge1_Node000001_Node000002" class="edge">
<title>Node2&#45;&gt;Node1</title>
<g id="a_edge1_Node000001_Node000002"><a xlink:title=" ">
<path fill="none" stroke="#63b8ff" d="M110.37,-520.11C104.69,-468.85 101.44,-371.87 145.5,-307 193.65,-236.11 283.48,-193.55 351.79,-170.07"/>
<polygon fill="none" stroke="#63b8ff" points="106.89,-520.51 111.58,-530.02 113.84,-519.67 106.89,-520.51"/>
</a>
</g>
</g>
<!-- Node3 -->
<g id="Node000003" class="node">
<title>Node3</title>
<g id="a_Node000003"><a xlink:href="classxeno__rat__server_1_1_node.html" target="_top" xlink:title=" ">
<polygon fill="white" stroke="none" points="516,-707.75 369,-707.75 369,-403.75 516,-403.75 516,-707.75"/>
<text text-anchor="start" x="394.88" y="-694.25" font-family="Helvetica,sans-Serif" font-size="10.00">xeno_rat_server.Node</text>
<text text-anchor="start" x="441" y="-679.25" font-family="Helvetica,sans-Serif" font-size="10.00"> </text>
<text text-anchor="start" x="373" y="-664.25" font-family="Helvetica,sans-Serif" font-size="10.00">+</text>
<text text-anchor="start" x="383" y="-664.25" font-family="Helvetica,sans-Serif" font-size="10.00">Node()</text>
<text text-anchor="start" x="373" y="-649.25" font-family="Helvetica,sans-Serif" font-size="10.00">+</text>
<text text-anchor="start" x="383" y="-649.25" font-family="Helvetica,sans-Serif" font-size="10.00">SetID()</text>
<text text-anchor="start" x="373" y="-634.25" font-family="Helvetica,sans-Serif" font-size="10.00">+</text>
<text text-anchor="start" x="383" y="-634.25" font-family="Helvetica,sans-Serif" font-size="10.00">Disconnect()</text>
<text text-anchor="start" x="373" y="-619.25" font-family="Helvetica,sans-Serif" font-size="10.00">+</text>
<text text-anchor="start" x="383" y="-619.25" font-family="Helvetica,sans-Serif" font-size="10.00">SetRecvTimeout()</text>
<text text-anchor="start" x="373" y="-604.25" font-family="Helvetica,sans-Serif" font-size="10.00">+</text>
<text text-anchor="start" x="383" y="-604.25" font-family="Helvetica,sans-Serif" font-size="10.00">ResetRecvTimeout()</text>
<text text-anchor="start" x="373" y="-589.25" font-family="Helvetica,sans-Serif" font-size="10.00">+</text>
<text text-anchor="start" x="383" y="-589.25" font-family="Helvetica,sans-Serif" font-size="10.00">Connected()</text>
<text text-anchor="start" x="373" y="-574.25" font-family="Helvetica,sans-Serif" font-size="10.00">+</text>
<text text-anchor="start" x="383" y="-574.25" font-family="Helvetica,sans-Serif" font-size="10.00">ReceiveAsync()</text>
<text text-anchor="start" x="373" y="-559.25" font-family="Helvetica,sans-Serif" font-size="10.00">+</text>
<text text-anchor="start" x="383" y="-559.25" font-family="Helvetica,sans-Serif" font-size="10.00">SendAsync()</text>
<text text-anchor="start" x="373" y="-544.25" font-family="Helvetica,sans-Serif" font-size="10.00">+</text>
<text text-anchor="start" x="383" y="-544.25" font-family="Helvetica,sans-Serif" font-size="10.00">GetIp()</text>
<text text-anchor="start" x="373" y="-529.25" font-family="Helvetica,sans-Serif" font-size="10.00">+</text>
<text text-anchor="start" x="383" y="-529.25" font-family="Helvetica,sans-Serif" font-size="10.00">CreateSubNodeAsync()</text>
<text text-anchor="start" x="373" y="-514.25" font-family="Helvetica,sans-Serif" font-size="10.00">+</text>
<text text-anchor="start" x="383" y="-514.25" font-family="Helvetica,sans-Serif" font-size="10.00">AddTempOnDisconnect()</text>
<text text-anchor="start" x="373" y="-499.25" font-family="Helvetica,sans-Serif" font-size="10.00">+</text>
<text text-anchor="start" x="383" y="-499.25" font-family="Helvetica,sans-Serif" font-size="10.00">RemoveTempOnDisconnect()</text>
<text text-anchor="start" x="373" y="-484.25" font-family="Helvetica,sans-Serif" font-size="10.00">+</text>
<text text-anchor="start" x="383" y="-484.25" font-family="Helvetica,sans-Serif" font-size="10.00">AddSubNode()</text>
<text text-anchor="start" x="373" y="-469.25" font-family="Helvetica,sans-Serif" font-size="10.00">+</text>
<text text-anchor="start" x="383" y="-469.25" font-family="Helvetica,sans-Serif" font-size="10.00">AuthenticateAsync()</text>
<text text-anchor="start" x="374.5" y="-454.25" font-family="Helvetica,sans-Serif" font-size="10.00">&#45;</text>
<text text-anchor="start" x="383" y="-454.25" font-family="Helvetica,sans-Serif" font-size="10.00">memcmp()</text>
<text text-anchor="start" x="374.5" y="-439.25" font-family="Helvetica,sans-Serif" font-size="10.00">&#45;</text>
<text text-anchor="start" x="383" y="-439.25" font-family="Helvetica,sans-Serif" font-size="10.00">GetByteArray()</text>
<text text-anchor="start" x="374.5" y="-424.25" font-family="Helvetica,sans-Serif" font-size="10.00">&#45;</text>
<text text-anchor="start" x="383" y="-424.25" font-family="Helvetica,sans-Serif" font-size="10.00">ByteArrayCompare()</text>
<text text-anchor="start" x="374.5" y="-409.25" font-family="Helvetica,sans-Serif" font-size="10.00">&#45;</text>
<text text-anchor="start" x="383" y="-409.25" font-family="Helvetica,sans-Serif" font-size="10.00">GetSocketType()</text>
<polygon fill="#666666" stroke="#666666" points="369,-690.75 369,-690.75 516,-690.75 516,-690.75 369,-690.75"/>
<polygon fill="#666666" stroke="#666666" points="369,-675.75 369,-675.75 516,-675.75 516,-675.75 369,-675.75"/>
<polygon fill="none" stroke="#666666" points="369,-403.75 369,-707.75 516,-707.75 516,-403.75 369,-403.75"/>
</a>
</g>
</g>
<!-- Node3&#45;&gt;Node1 -->
<g id="edge2_Node000001_Node000003" class="edge">
<title>Node3&#45;&gt;Node1</title>
<g id="a_edge2_Node000001_Node000003"><a xlink:title=" ">
<path fill="none" stroke="#63b8ff" d="M442.5,-403.81C442.5,-370.48 442.5,-335.11 442.5,-301.58"/>
<polygon fill="none" stroke="#63b8ff" points="442.5,-301.73 438.5,-295.73 442.5,-289.73 446.5,-295.73 442.5,-301.73"/>
</a>
</g>
<text text-anchor="middle" x="470.62" y="-348.12" font-family="Helvetica,sans-Serif" font-size="10.00" fill="grey"> &#45;ImageNode</text>
<text text-anchor="middle" x="470.62" y="-336.88" font-family="Helvetica,sans-Serif" font-size="10.00" fill="grey">&#45;client</text>
</g>
<!-- Node3&#45;&gt;Node3 -->
<g id="edge14_Node000003_Node000003" class="edge">
<title>Node3&#45;&gt;Node3</title>
<g id="a_edge14_Node000003_Node000003"><a xlink:title=" ">
<path fill="none" stroke="#63b8ff" d="M515.73,-585.62C526.63,-580.97 534,-571.01 534,-555.75 534,-546.21 531.12,-538.74 526.3,-533.35"/>
<polygon fill="none" stroke="#63b8ff" points="526.26,-533.32 519.05,-533.13 516.46,-526.4 523.67,-526.59 526.26,-533.32"/>
</a>
</g>
<text text-anchor="middle" x="552.75" y="-551.88" font-family="Helvetica,sans-Serif" font-size="10.00" fill="grey"> +Parent</text>
</g>
<!-- Node4 -->
<g id="Node000004" class="node">
<title>Node4</title>
<g id="a_Node000004"><a xlink:title=" ">
<polygon fill="white" stroke="none" points="79,-886.5 0,-886.5 0,-837.5 79,-837.5 79,-886.5"/>
<text text-anchor="start" x="5" y="-873" font-family="Helvetica,sans-Serif" font-size="10.00">SemaphoreSlim</text>
<text text-anchor="start" x="38" y="-858" font-family="Helvetica,sans-Serif" font-size="10.00"> </text>
<text text-anchor="start" x="38" y="-843" font-family="Helvetica,sans-Serif" font-size="10.00"> </text>
<polygon fill="#666666" stroke="#666666" points="0,-869.5 0,-869.5 79,-869.5 79,-869.5 0,-869.5"/>
<polygon fill="#666666" stroke="#666666" points="0,-854.5 0,-854.5 79,-854.5 79,-854.5 0,-854.5"/>
<polygon fill="none" stroke="#666666" points="0,-837.5 0,-886.5 79,-886.5 79,-837.5 0,-837.5"/>
</a>
</g>
</g>
<!-- Node4&#45;&gt;Node3 -->
<g id="edge3_Node000003_Node000004" class="edge">
<title>Node4&#45;&gt;Node3</title>
<g id="a_edge3_Node000003_Node000004"><a xlink:title=" ">
<path fill="none" stroke="#63b8ff" d="M31.62,-837.62C23.24,-807.94 14.48,-756.89 40.75,-725.75 69.8,-691.32 97.75,-721.97 140.5,-707.75 217.18,-682.24 298.86,-640.42 357.91,-607.25"/>
<polygon fill="none" stroke="#63b8ff" points="357.81,-607.3 361.06,-600.86 368.26,-601.39 365,-607.83 357.81,-607.3"/>
</a>
</g>
<text text-anchor="middle" x="89.88" y="-727.5" font-family="Helvetica,sans-Serif" font-size="10.00" fill="grey"> &#45;OneRecieveAtATime</text>
</g>
<!-- Node5 -->
<g id="Node000005" class="node">
<title>Node5</title>
<g id="a_Node000005"><a xlink:title=" ">
<polygon fill="white" stroke="none" points="198.5,-1065.25 170.5,-1065.25 170.5,-1016.25 198.5,-1016.25 198.5,-1065.25"/>
<text text-anchor="start" x="175.5" y="-1051.75" font-family="Helvetica,sans-Serif" font-size="10.00">bool</text>
<text text-anchor="start" x="183" y="-1036.75" font-family="Helvetica,sans-Serif" font-size="10.00"> </text>
<text text-anchor="start" x="183" y="-1021.75" font-family="Helvetica,sans-Serif" font-size="10.00"> </text>
<polygon fill="#666666" stroke="#666666" points="170.5,-1048.25 170.5,-1048.25 198.5,-1048.25 198.5,-1048.25 170.5,-1048.25"/>
<polygon fill="#666666" stroke="#666666" points="170.5,-1033.25 170.5,-1033.25 198.5,-1033.25 198.5,-1033.25 170.5,-1033.25"/>
<polygon fill="none" stroke="#666666" points="170.5,-1016.25 170.5,-1065.25 198.5,-1065.25 198.5,-1016.25 170.5,-1016.25"/>
</a>
</g>
</g>
<!-- Node5&#45;&gt;Node1 -->
<g id="edge16_Node000001_Node000005" class="edge">
<title>Node5&#45;&gt;Node1</title>
<g id="a_edge16_Node000001_Node000005"><a xlink:title=" ">
<path fill="none" stroke="#63b8ff" d="M180.69,-1016.55C173.38,-967.59 159.8,-850.39 179.5,-755 213.06,-592.5 292.07,-419.99 354.78,-300.13"/>
<polygon fill="none" stroke="#63b8ff" points="354.79,-300.12 354.04,-292.94 360.37,-289.5 361.12,-296.67 354.79,-300.12"/>
</a>
</g>
<text text-anchor="middle" x="203.88" y="-727.5" font-family="Helvetica,sans-Serif" font-size="10.00" fill="grey"> &#45;playing</text>
</g>
<!-- Node5&#45;&gt;Node3 -->
<g id="edge4_Node000003_Node000005" class="edge">
<title>Node5&#45;&gt;Node3</title>
<g id="a_edge4_Node000003_Node000005"><a xlink:title=" ">
<path fill="none" stroke="#63b8ff" d="M183.14,-1016.38C181.21,-965.59 182.14,-842.69 228.75,-755 259.23,-697.66 312.84,-648 358.75,-612.73"/>
<polygon fill="none" stroke="#63b8ff" points="358.72,-612.75 361.1,-605.94 368.3,-605.51 365.92,-612.32 358.72,-612.75"/>
</a>
</g>
<text text-anchor="middle" x="258.38" y="-858.12" font-family="Helvetica,sans-Serif" font-size="10.00" fill="grey"> +isDisposed</text>
</g>
<!-- Node10 -->
<g id="Node000010" class="node">
<title>Node10</title>
<g id="a_Node000010"><a xlink:href="classxeno__rat__server_1_1_socket_handler.html" target="_top" xlink:title=" ">
<polygon fill="white" stroke="none" points="445.5,-969 295.5,-969 295.5,-755 445.5,-755 445.5,-969"/>
<text text-anchor="start" x="302.25" y="-955.5" font-family="Helvetica,sans-Serif" font-size="10.00">xeno_rat_server.SocketHandler</text>
<text text-anchor="start" x="369" y="-940.5" font-family="Helvetica,sans-Serif" font-size="10.00"> </text>
<text text-anchor="start" x="299.5" y="-925.5" font-family="Helvetica,sans-Serif" font-size="10.00">+</text>
<text text-anchor="start" x="309.5" y="-925.5" font-family="Helvetica,sans-Serif" font-size="10.00">SocketHandler()</text>
<text text-anchor="start" x="299.5" y="-910.5" font-family="Helvetica,sans-Serif" font-size="10.00">+</text>
<text text-anchor="start" x="309.5" y="-910.5" font-family="Helvetica,sans-Serif" font-size="10.00">SendAsync()</text>
<text text-anchor="start" x="299.5" y="-895.5" font-family="Helvetica,sans-Serif" font-size="10.00">+</text>
<text text-anchor="start" x="309.5" y="-895.5" font-family="Helvetica,sans-Serif" font-size="10.00">ReceiveAsync()</text>
<text text-anchor="start" x="299.5" y="-880.5" font-family="Helvetica,sans-Serif" font-size="10.00">+</text>
<text text-anchor="start" x="309.5" y="-880.5" font-family="Helvetica,sans-Serif" font-size="10.00">Concat()</text>
<text text-anchor="start" x="299.5" y="-865.5" font-family="Helvetica,sans-Serif" font-size="10.00">+</text>
<text text-anchor="start" x="309.5" y="-865.5" font-family="Helvetica,sans-Serif" font-size="10.00">BTruncate()</text>
<text text-anchor="start" x="299.5" y="-850.5" font-family="Helvetica,sans-Serif" font-size="10.00">+</text>
<text text-anchor="start" x="309.5" y="-850.5" font-family="Helvetica,sans-Serif" font-size="10.00">BytesToInt()</text>
<text text-anchor="start" x="299.5" y="-835.5" font-family="Helvetica,sans-Serif" font-size="10.00">+</text>
<text text-anchor="start" x="309.5" y="-835.5" font-family="Helvetica,sans-Serif" font-size="10.00">IntToBytes()</text>
<text text-anchor="start" x="299.5" y="-820.5" font-family="Helvetica,sans-Serif" font-size="10.00">+</text>
<text text-anchor="start" x="309.5" y="-820.5" font-family="Helvetica,sans-Serif" font-size="10.00">SetRecvTimeout()</text>
<text text-anchor="start" x="299.5" y="-805.5" font-family="Helvetica,sans-Serif" font-size="10.00">+</text>
<text text-anchor="start" x="309.5" y="-805.5" font-family="Helvetica,sans-Serif" font-size="10.00">ResetRecvTimeout()</text>
<text text-anchor="start" x="301" y="-790.5" font-family="Helvetica,sans-Serif" font-size="10.00">&#45;</text>
<text text-anchor="start" x="309.5" y="-790.5" font-family="Helvetica,sans-Serif" font-size="10.00">RecvAllAsync_ddos_unsafer()</text>
<text text-anchor="start" x="301" y="-775.5" font-family="Helvetica,sans-Serif" font-size="10.00">&#45;</text>
<text text-anchor="start" x="309.5" y="-775.5" font-family="Helvetica,sans-Serif" font-size="10.00">RecvAllAsync_ddos_safer()</text>
<text text-anchor="start" x="301" y="-760.5" font-family="Helvetica,sans-Serif" font-size="10.00">&#45;</text>
<text text-anchor="start" x="309.5" y="-760.5" font-family="Helvetica,sans-Serif" font-size="10.00">ParseHeader()</text>
<polygon fill="#666666" stroke="#666666" points="295.5,-952 295.5,-952 445.5,-952 445.5,-952 295.5,-952"/>
<polygon fill="#666666" stroke="#666666" points="295.5,-937 295.5,-937 445.5,-937 445.5,-937 295.5,-937"/>
<polygon fill="none" stroke="#666666" points="295.5,-755 295.5,-969 445.5,-969 445.5,-755 295.5,-755"/>
</a>
</g>
</g>
<!-- Node5&#45;&gt;Node10 -->
<g id="edge13_Node000010_Node000005" class="edge">
<title>Node5&#45;&gt;Node10</title>
<g id="a_edge13_Node000010_Node000005"><a xlink:title=" ">
<path fill="none" stroke="#63b8ff" d="M198.49,-1027.32C210.86,-1016.45 229.49,-1000.35 246.25,-987 256.75,-978.64 260.47,-977.92 270.5,-969 275.89,-964.21 281.32,-959.17 286.72,-954"/>
<polygon fill="none" stroke="#63b8ff" points="286.51,-954.2 288.01,-947.15 295.1,-945.82 293.6,-952.87 286.51,-954.2"/>
</a>
</g>
<text text-anchor="middle" x="291.12" y="-988.75" font-family="Helvetica,sans-Serif" font-size="10.00" fill="grey"> &#45;doProtocolUpgrade</text>
</g>
<!-- Node6 -->
<g id="Node000006" class="node">
<title>Node6</title>
<g id="a_Node000006"><a xlink:title=" ">
<polygon fill="white" stroke="none" points="698.5,-892 580.5,-892 580.5,-832 698.5,-832 698.5,-892"/>
<text text-anchor="start" x="585.12" y="-878.5" font-family="Helvetica,sans-Serif" font-size="10.00">Action&lt; xeno_rat_server.</text>
<text text-anchor="start" x="623.38" y="-867.25" font-family="Helvetica,sans-Serif" font-size="10.00">Node &gt;</text>
<text text-anchor="start" x="638" y="-852.5" font-family="Helvetica,sans-Serif" font-size="10.00"> </text>
<text text-anchor="start" x="638" y="-837.5" font-family="Helvetica,sans-Serif" font-size="10.00"> </text>
<polygon fill="#666666" stroke="#666666" points="580.5,-864 580.5,-864 698.5,-864 698.5,-864 580.5,-864"/>
<polygon fill="#666666" stroke="#666666" points="580.5,-849 580.5,-849 698.5,-849 698.5,-849 580.5,-849"/>
<polygon fill="none" stroke="#666666" points="580.5,-832 580.5,-892 698.5,-892 698.5,-832 580.5,-832"/>
</a>
</g>
</g>
<!-- Node6&#45;&gt;Node3 -->
<g id="edge5_Node000003_Node000006" class="edge">
<title>Node6&#45;&gt;Node3</title>
<g id="a_edge5_Node000003_Node000006"><a xlink:title=" ">
<path fill="none" stroke="#63b8ff" d="M620.79,-832.1C598.23,-797.26 558.85,-736.45 522.83,-680.82"/>
<polygon fill="none" stroke="#63b8ff" points="522.93,-680.96 516.31,-678.1 516.41,-670.89 523.02,-673.75 522.93,-680.96"/>
</a>
</g>
<text text-anchor="middle" x="592.62" y="-727.5" font-family="Helvetica,sans-Serif" font-size="10.00" fill="grey"> &#45;OnDisconnect</text>
</g>
<!-- Node7 -->
<g id="Node000007" class="node">
<title>Node7</title>
<g id="a_Node000007"><a xlink:title=" ">
<polygon fill="white" stroke="none" points="818.5,-892 716.5,-892 716.5,-832 818.5,-832 818.5,-892"/>
<text text-anchor="start" x="721.38" y="-878.5" font-family="Helvetica,sans-Serif" font-size="10.00">List&lt; Action&lt; xeno</text>
<text text-anchor="start" x="721.38" y="-867.25" font-family="Helvetica,sans-Serif" font-size="10.00">_rat_server.Node &gt; &gt;</text>
<text text-anchor="start" x="766" y="-852.5" font-family="Helvetica,sans-Serif" font-size="10.00"> </text>
<text text-anchor="start" x="766" y="-837.5" font-family="Helvetica,sans-Serif" font-size="10.00"> </text>
<polygon fill="#666666" stroke="#666666" points="716.5,-864 716.5,-864 818.5,-864 818.5,-864 716.5,-864"/>
<polygon fill="#666666" stroke="#666666" points="716.5,-849 716.5,-849 818.5,-849 818.5,-849 716.5,-849"/>
<polygon fill="none" stroke="#666666" points="716.5,-832 716.5,-892 818.5,-892 818.5,-832 716.5,-832"/>
</a>
</g>
</g>
<!-- Node7&#45;&gt;Node3 -->
<g id="edge6_Node000003_Node000007" class="edge">
<title>Node7&#45;&gt;Node3</title>
<g id="a_edge6_Node000003_Node000007"><a xlink:title=" ">
<path fill="none" stroke="#63b8ff" d="M757.54,-832.16C748.03,-808.5 731.57,-775.66 707.5,-755 679.72,-731.15 664.83,-738.45 630.5,-725.75 608.35,-717.56 600.15,-720.85 580.5,-707.75 560.62,-694.5 541.66,-677.78 524.51,-660.34"/>
<polygon fill="none" stroke="#63b8ff" points="524.64,-660.48 517.6,-658.92 516.33,-651.82 523.37,-653.38 524.64,-660.48"/>
</a>
</g>
<text text-anchor="middle" x="722.25" y="-727.5" font-family="Helvetica,sans-Serif" font-size="10.00" fill="grey"> &#45;TempOnDisconnects</text>
</g>
<!-- Node8 -->
<g id="Node000008" class="node">
<title>Node8</title>
<g id="a_Node000008"><a xlink:title=" ">
<polygon fill="white" stroke="none" points="976,-886.5 837,-886.5 837,-837.5 976,-837.5 976,-886.5"/>
<text text-anchor="start" x="842" y="-873" font-family="Helvetica,sans-Serif" font-size="10.00">List&lt; xeno_rat_server.Node &gt;</text>
<text text-anchor="start" x="905" y="-858" font-family="Helvetica,sans-Serif" font-size="10.00"> </text>
<text text-anchor="start" x="905" y="-843" font-family="Helvetica,sans-Serif" font-size="10.00"> </text>
<polygon fill="#666666" stroke="#666666" points="837,-869.5 837,-869.5 976,-869.5 976,-869.5 837,-869.5"/>
<polygon fill="#666666" stroke="#666666" points="837,-854.5 837,-854.5 976,-854.5 976,-854.5 837,-854.5"/>
<polygon fill="none" stroke="#666666" points="837,-837.5 837,-886.5 976,-886.5 976,-837.5 837,-837.5"/>
</a>
</g>
</g>
<!-- Node8&#45;&gt;Node3 -->
<g id="edge7_Node000003_Node000008" class="edge">
<title>Node8&#45;&gt;Node3</title>
<g id="a_edge7_Node000003_Node000008"><a xlink:title=" ">
<path fill="none" stroke="#63b8ff" d="M893.14,-837.69C879.04,-814.59 855.08,-779.25 827.5,-755 807.59,-737.49 800.81,-733.64 775.5,-725.75 692.41,-699.84 658.44,-746.48 580.5,-707.75 560.24,-697.68 541.52,-683.27 524.82,-667.31"/>
<polygon fill="none" stroke="#63b8ff" points="524.91,-667.4 517.83,-666 516.4,-658.93 523.47,-660.33 524.91,-667.4"/>
</a>
</g>
<text text-anchor="middle" x="830.12" y="-727.5" font-family="Helvetica,sans-Serif" font-size="10.00" fill="grey"> +subNodes</text>
</g>
<!-- Node9 -->
<g id="Node000009" class="node">
<title>Node9</title>
<g id="a_Node000009"><a xlink:title=" ">
<polygon fill="white" stroke="none" points="1094.5,-892 994.5,-892 994.5,-832 1094.5,-832 1094.5,-892"/>
<text text-anchor="start" x="999.12" y="-878.5" font-family="Helvetica,sans-Serif" font-size="10.00">Dictionary&lt; int, xeno</text>
<text text-anchor="start" x="1002.88" y="-867.25" font-family="Helvetica,sans-Serif" font-size="10.00">_rat_server.Node &gt;</text>
<text text-anchor="start" x="1043" y="-852.5" font-family="Helvetica,sans-Serif" font-size="10.00"> </text>
<text text-anchor="start" x="1043" y="-837.5" font-family="Helvetica,sans-Serif" font-size="10.00"> </text>
<polygon fill="#666666" stroke="#666666" points="994.5,-864 994.5,-864 1094.5,-864 1094.5,-864 994.5,-864"/>
<polygon fill="#666666" stroke="#666666" points="994.5,-849 994.5,-849 1094.5,-849 1094.5,-849 994.5,-849"/>
<polygon fill="none" stroke="#666666" points="994.5,-832 994.5,-892 1094.5,-892 1094.5,-832 994.5,-832"/>
</a>
</g>
</g>
<!-- Node9&#45;&gt;Node3 -->
<g id="edge8_Node000003_Node000009" class="edge">
<title>Node9&#45;&gt;Node3</title>
<g id="a_edge8_Node000003_Node000009"><a xlink:title=" ">
<path fill="none" stroke="#63b8ff" d="M1035.85,-832.28C1027.06,-808.04 1011.06,-774.28 985.5,-755 939.95,-720.63 916.94,-734.11 860.5,-725.75 798.82,-716.62 636.72,-734.72 580.5,-707.75 560.24,-698.03 541.56,-683.89 524.92,-668.11"/>
<polygon fill="none" stroke="#63b8ff" points="525.07,-668.25 517.99,-666.88 516.53,-659.82 523.61,-661.19 525.07,-668.25"/>
</a>
</g>
<text text-anchor="middle" x="985.75" y="-727.5" font-family="Helvetica,sans-Serif" font-size="10.00" fill="grey"> &#45;subNodeWait</text>
</g>
<!-- Node10&#45;&gt;Node3 -->
<g id="edge9_Node000003_Node000010" class="edge">
<title>Node10&#45;&gt;Node3</title>
<g id="a_edge9_Node000003_Node000010"><a xlink:title=" ">
<path fill="none" stroke="#63b8ff" d="M395.58,-755.02C398.28,-743.62 401.06,-731.85 403.87,-719.99"/>
<polygon fill="none" stroke="#63b8ff" points="403.83,-720.16 401.32,-713.4 406.59,-708.48 409.1,-715.24 403.83,-720.16"/>
</a>
</g>
<text text-anchor="middle" x="417.5" y="-727.5" font-family="Helvetica,sans-Serif" font-size="10.00" fill="grey"> +sock</text>
</g>
<!-- Node11 -->
<g id="Node000011" class="node">
<title>Node11</title>
<g id="a_Node000011"><a xlink:title=" ">
<polygon fill="white" stroke="none" points="349.5,-1065.25 309.5,-1065.25 309.5,-1016.25 349.5,-1016.25 349.5,-1065.25"/>
<text text-anchor="start" x="314.12" y="-1051.75" font-family="Helvetica,sans-Serif" font-size="10.00">Socket</text>
<text text-anchor="start" x="328" y="-1036.75" font-family="Helvetica,sans-Serif" font-size="10.00"> </text>
<text text-anchor="start" x="328" y="-1021.75" font-family="Helvetica,sans-Serif" font-size="10.00"> </text>
<polygon fill="#666666" stroke="#666666" points="309.5,-1048.25 309.5,-1048.25 349.5,-1048.25 349.5,-1048.25 309.5,-1048.25"/>
<polygon fill="#666666" stroke="#666666" points="309.5,-1033.25 309.5,-1033.25 349.5,-1033.25 349.5,-1033.25 309.5,-1033.25"/>
<polygon fill="none" stroke="#666666" points="309.5,-1016.25 309.5,-1065.25 349.5,-1065.25 349.5,-1016.25 309.5,-1016.25"/>
</a>
</g>
</g>
<!-- Node11&#45;&gt;Node10 -->
<g id="edge10_Node000010_Node000011" class="edge">
<title>Node11&#45;&gt;Node10</title>
<g id="a_edge10_Node000010_Node000011"><a xlink:title=" ">
<path fill="none" stroke="#63b8ff" d="M334.94,-1016.28C337.19,-1006.6 339.97,-994.61 342.98,-981.63"/>
<polygon fill="none" stroke="#63b8ff" points="343.02,-981.48 340.47,-974.74 345.73,-969.8 348.27,-976.54 343.02,-981.48"/>
</a>
</g>
<text text-anchor="middle" x="357.5" y="-988.75" font-family="Helvetica,sans-Serif" font-size="10.00" fill="grey"> +sock</text>
</g>
<!-- Node12 -->
<g id="Node000012" class="node">
<title>Node12</title>
<g id="a_Node000012"><a xlink:title=" ">
<polygon fill="white" stroke="none" points="396.5,-1065.25 368.5,-1065.25 368.5,-1016.25 396.5,-1016.25 396.5,-1065.25"/>
<text text-anchor="start" x="373.12" y="-1051.75" font-family="Helvetica,sans-Serif" font-size="10.00">byte</text>
<text text-anchor="start" x="381" y="-1036.75" font-family="Helvetica,sans-Serif" font-size="10.00"> </text>
<text text-anchor="start" x="381" y="-1021.75" font-family="Helvetica,sans-Serif" font-size="10.00"> </text>
<polygon fill="#666666" stroke="#666666" points="368.5,-1048.25 368.5,-1048.25 396.5,-1048.25 396.5,-1048.25 368.5,-1048.25"/>
<polygon fill="#666666" stroke="#666666" points="368.5,-1033.25 368.5,-1033.25 396.5,-1033.25 396.5,-1033.25 368.5,-1033.25"/>
<polygon fill="none" stroke="#666666" points="368.5,-1016.25 368.5,-1065.25 396.5,-1065.25 396.5,-1016.25 368.5,-1016.25"/>
</a>
</g>
</g>
<!-- Node12&#45;&gt;Node10 -->
<g id="edge11_Node000010_Node000012" class="edge">
<title>Node12&#45;&gt;Node10</title>
<g id="a_edge11_Node000010_Node000012"><a xlink:title=" ">
<path fill="none" stroke="#63b8ff" d="M380.91,-1016.28C380.25,-1006.6 379.44,-994.61 378.55,-981.63"/>
<polygon fill="none" stroke="#63b8ff" points="378.56,-981.79 374.17,-976.07 377.75,-969.82 382.15,-975.53 378.56,-981.79"/>
</a>
</g>
<text text-anchor="middle" x="416.88" y="-988.75" font-family="Helvetica,sans-Serif" font-size="10.00" fill="grey"> +EncryptionKey</text>
</g>
<!-- Node13 -->
<g id="Node000013" class="node">
<title>Node13</title>
<g id="a_Node000013"><a xlink:title=" ">
<polygon fill="white" stroke="none" points="526.5,-1065.25 506.5,-1065.25 506.5,-1016.25 526.5,-1016.25 526.5,-1065.25"/>
<text text-anchor="start" x="511.25" y="-1051.75" font-family="Helvetica,sans-Serif" font-size="10.00">int</text>
<text text-anchor="start" x="515" y="-1036.75" font-family="Helvetica,sans-Serif" font-size="10.00"> </text>
<text text-anchor="start" x="515" y="-1021.75" font-family="Helvetica,sans-Serif" font-size="10.00"> </text>
<polygon fill="#666666" stroke="#666666" points="506.5,-1048.25 506.5,-1048.25 526.5,-1048.25 526.5,-1048.25 506.5,-1048.25"/>
<polygon fill="#666666" stroke="#666666" points="506.5,-1033.25 506.5,-1033.25 526.5,-1033.25 526.5,-1033.25 506.5,-1033.25"/>
<polygon fill="none" stroke="#666666" points="506.5,-1016.25 506.5,-1065.25 526.5,-1065.25 526.5,-1016.25 506.5,-1016.25"/>
</a>
</g>
</g>
<!-- Node13&#45;&gt;Node3 -->
<g id="edge15_Node000003_Node000013" class="edge">
<title>Node13&#45;&gt;Node3</title>
<g id="a_edge15_Node000003_Node000013"><a xlink:title=" ">
<path fill="none" stroke="#63b8ff" d="M526.44,-1030.65C537.16,-1019.71 551.45,-1001.06 541.5,-987 527.62,-967.38 505.5,-987.79 490.5,-969 474.71,-949.22 461.79,-826.91 453.35,-720.61"/>
<polygon fill="none" stroke="#63b8ff" points="453.35,-720.6 448.89,-714.93 452.41,-708.64 456.87,-714.31 453.35,-720.6"/>
</a>
</g>
<text text-anchor="middle" x="531" y="-869.38" font-family="Helvetica,sans-Serif" font-size="10.00" fill="grey"> +ID</text>
<text text-anchor="middle" x="531" y="-858.12" font-family="Helvetica,sans-Serif" font-size="10.00" fill="grey">+SockType</text>
<text text-anchor="middle" x="531" y="-846.88" font-family="Helvetica,sans-Serif" font-size="10.00" fill="grey">+SubNodeIdCount</text>
</g>
<!-- Node13&#45;&gt;Node10 -->
<g id="edge12_Node000010_Node000013" class="edge">
<title>Node13&#45;&gt;Node10</title>
<g id="a_edge12_Node000010_Node000013"><a xlink:title=" ">
<path fill="none" stroke="#63b8ff" d="M506.53,-1028.97C498.94,-1020.68 488.28,-1008.87 479.25,-998.25 470.82,-988.33 462.14,-977.91 453.54,-967.44"/>
<polygon fill="none" stroke="#63b8ff" points="453.49,-967.38 446.59,-965.27 445.89,-958.09 452.78,-960.2 453.49,-967.38"/>
</a>
</g>
<text text-anchor="middle" x="509.62" y="-988.75" font-family="Helvetica,sans-Serif" font-size="10.00" fill="grey"> +socktimeout</text>
</g>
<!-- Node14 -->
<g id="Node000014" class="node">
<title>Node14</title>
<g id="a_Node000014"><a xlink:title=" ">
<polygon fill="white" stroke="none" points="623.5,-580.25 589.5,-580.25 589.5,-531.25 623.5,-531.25 623.5,-580.25"/>
<text text-anchor="start" x="594.5" y="-566.75" font-family="Helvetica,sans-Serif" font-size="10.00">string</text>
<text text-anchor="start" x="605" y="-551.75" font-family="Helvetica,sans-Serif" font-size="10.00"> </text>
<text text-anchor="start" x="605" y="-536.75" font-family="Helvetica,sans-Serif" font-size="10.00"> </text>
<polygon fill="#666666" stroke="#666666" points="589.5,-563.25 589.5,-563.25 623.5,-563.25 623.5,-563.25 589.5,-563.25"/>
<polygon fill="#666666" stroke="#666666" points="589.5,-548.25 589.5,-548.25 623.5,-548.25 623.5,-548.25 589.5,-548.25"/>
<polygon fill="none" stroke="#666666" points="589.5,-531.25 589.5,-580.25 623.5,-580.25 623.5,-531.25 589.5,-531.25"/>
</a>
</g>
</g>
<!-- Node14&#45;&gt;Node1 -->
<g id="edge17_Node000001_Node000014" class="edge">
<title>Node14&#45;&gt;Node1</title>
<g id="a_edge17_Node000001_Node000014"><a xlink:title=" ">
<path fill="none" stroke="#63b8ff" d="M604.81,-531.41C602.1,-501.24 595.48,-447.4 580.5,-403.75 568.6,-369.08 552.46,-333.46 535.41,-300.17"/>
<polygon fill="none" stroke="#63b8ff" points="535.54,-300.42 529.22,-296.94 530.01,-289.77 536.32,-293.25 535.54,-300.42"/>
</a>
</g>
<text text-anchor="middle" x="594.38" y="-348.12" font-family="Helvetica,sans-Serif" font-size="10.00" fill="grey"> &#45;Cameras</text>
<text text-anchor="middle" x="594.38" y="-336.88" font-family="Helvetica,sans-Serif" font-size="10.00" fill="grey">&#45;qualitys</text>
</g>
<!-- Node15 -->
<g id="Node000015" class="node">
<title>Node15</title>
<g id="a_Node000015"><a xlink:title=" ">
<polygon fill="white" stroke="none" points="691,-580.25 648,-580.25 648,-531.25 691,-531.25 691,-580.25"/>
<text text-anchor="start" x="652.62" y="-566.75" font-family="Helvetica,sans-Serif" font-size="10.00">System</text>
<text text-anchor="start" x="668" y="-551.75" font-family="Helvetica,sans-Serif" font-size="10.00"> </text>
<text text-anchor="start" x="668" y="-536.75" font-family="Helvetica,sans-Serif" font-size="10.00"> </text>
<polygon fill="#666666" stroke="#666666" points="648,-563.25 648,-563.25 691,-563.25 691,-563.25 648,-563.25"/>
<polygon fill="#666666" stroke="#666666" points="648,-548.25 648,-548.25 691,-548.25 691,-548.25 648,-548.25"/>
<polygon fill="none" stroke="#666666" points="648,-531.25 648,-580.25 691,-580.25 691,-531.25 648,-531.25"/>
</a>
</g>
</g>
<!-- Node15&#45;&gt;Node1 -->
<g id="edge18_Node000001_Node000015" class="edge">
<title>Node15&#45;&gt;Node1</title>
<g id="a_edge18_Node000001_Node000015"><a xlink:title=" ">
<path fill="none" stroke="#63b8ff" d="M669.78,-531.57C669.34,-485.66 663.4,-381.2 621.5,-307 602.08,-272.62 572.67,-241.65 543.27,-216.24"/>
<polygon fill="none" stroke="#63b8ff" points="543.17,-216.16 536,-215.35 534,-208.42 541.16,-209.23 543.17,-216.16"/>
</a>
</g>
<text text-anchor="middle" x="678.62" y="-376.25" font-family="Helvetica,sans-Serif" font-size="10.00" fill="grey"> &#45;button1</text>
<text text-anchor="middle" x="678.62" y="-365" font-family="Helvetica,sans-Serif" font-size="10.00" fill="grey">&#45;button2</text>
<text text-anchor="middle" x="678.62" y="-353.75" font-family="Helvetica,sans-Serif" font-size="10.00" fill="grey">&#45;button3</text>
<text text-anchor="middle" x="678.62" y="-342.5" font-family="Helvetica,sans-Serif" font-size="10.00" fill="grey">&#45;comboBox1</text>
<text text-anchor="middle" x="678.62" y="-331.25" font-family="Helvetica,sans-Serif" font-size="10.00" fill="grey">&#45;comboBox2</text>
<text text-anchor="middle" x="678.62" y="-320" font-family="Helvetica,sans-Serif" font-size="10.00" fill="grey">&#45;components</text>
<text text-anchor="middle" x="678.62" y="-308.75" font-family="Helvetica,sans-Serif" font-size="10.00" fill="grey">&#45;pictureBox1</text>
</g>
</g>
</svg>
