<?xml version="1.0" encoding="UTF-8" standalone="no"?>
<!DOCTYPE svg PUBLIC "-//W3C//DTD SVG 1.1//EN"
 "http://www.w3.org/Graphics/SVG/1.1/DTD/svg11.dtd">
<!-- Generated by graphviz version 10.0.1 (20240210.2158)
 -->
<!-- Title: xeno_rat_client.SocketHandler.SendAsync Pages: 1 -->
<svg width="556pt" height="260pt"
 viewBox="0.00 0.00 555.50 259.50" xmlns="http://www.w3.org/2000/svg" xmlns:xlink="http://www.w3.org/1999/xlink">
<g id="graph0" class="graph" transform="scale(1 1) rotate(0) translate(4 255.5)">
<title>xeno_rat_client.SocketHandler.SendAsync</title>
<!-- Node1 -->
<g id="Node000001" class="node">
<title>Node1</title>
<g id="a_Node000001"><a xlink:title="Asynchronously sends the specified data over the socket after compressing, encrypting,...">
<polygon fill="#999999" stroke="#666666" points="151.75,-103.5 0,-103.5 0,-73 151.75,-73 151.75,-103.5"/>
<text text-anchor="start" x="8" y="-90" font-family="Helvetica,sans-Serif" font-size="10.00">xeno_rat_client.SocketHandler.</text>
<text text-anchor="middle" x="75.88" y="-78.75" font-family="Helvetica,sans-Serif" font-size="10.00">SendAsync</text>
</a>
</g>
</g>
<!-- Node2 -->
<g id="Node000002" class="node">
<title>Node2</title>
<g id="a_Node000002"><a xlink:href="classxeno__rat__client_1_1_compression.html#ab25c4ae61c5c162bdb353676a7d01ca6" target="_top" xlink:title="Compresses the input buffer using the LZNT1 compression format and returns the compressed data.">
<polygon fill="white" stroke="#666666" points="336.5,-177.5 190.75,-177.5 190.75,-147 336.5,-147 336.5,-177.5"/>
<text text-anchor="start" x="198.75" y="-164" font-family="Helvetica,sans-Serif" font-size="10.00">xeno_rat_client.Compression.</text>
<text text-anchor="middle" x="263.62" y="-152.75" font-family="Helvetica,sans-Serif" font-size="10.00">Compress</text>
</a>
</g>
</g>
<!-- Node1&#45;&gt;Node2 -->
<g id="edge1_Node000001_Node000002" class="edge">
<title>Node1&#45;&gt;Node2</title>
<g id="a_edge1_Node000001_Node000002"><a xlink:title=" ">
<path fill="none" stroke="#63b8ff" d="M110.01,-103.87C131.87,-113.93 161.25,-127 187.75,-137.25 192.68,-139.16 197.83,-141.06 203.01,-142.91"/>
<polygon fill="#63b8ff" stroke="#63b8ff" points="201.63,-146.14 212.23,-146.14 203.94,-139.53 201.63,-146.14"/>
</a>
</g>
</g>
<!-- Node7 -->
<g id="Node000007" class="node">
<title>Node7</title>
<g id="a_Node000007"><a xlink:href="classxeno__rat__client_1_1_socket_handler.html#aff56eb3e00bf2bb85e2d7696318b4468" target="_top" xlink:title="Concatenates two byte arrays and returns the result.">
<polygon fill="white" stroke="#666666" points="339.5,-128.5 187.75,-128.5 187.75,-98 339.5,-98 339.5,-128.5"/>
<text text-anchor="start" x="195.75" y="-115" font-family="Helvetica,sans-Serif" font-size="10.00">xeno_rat_client.SocketHandler.</text>
<text text-anchor="middle" x="263.62" y="-103.75" font-family="Helvetica,sans-Serif" font-size="10.00">Concat</text>
</a>
</g>
</g>
<!-- Node1&#45;&gt;Node7 -->
<g id="edge6_Node000001_Node000007" class="edge">
<title>Node1&#45;&gt;Node7</title>
<g id="a_edge6_Node000001_Node000007"><a xlink:title=" ">
<path fill="none" stroke="#63b8ff" d="M152.16,-98.38C160.09,-99.45 168.19,-100.54 176.24,-101.62"/>
<polygon fill="#63b8ff" stroke="#63b8ff" points="175.66,-105.08 186.04,-102.94 176.59,-98.14 175.66,-105.08"/>
</a>
</g>
</g>
<!-- Node8 -->
<g id="Node000008" class="node">
<title>Node8</title>
<g id="a_Node000008"><a xlink:href="classxeno__rat__client_1_1_encryption.html#a807a6407c09f993138a2684be0899cb3" target="_top" xlink:title="Encrypts the input data using the provided key and returns the encrypted result.">
<polygon fill="white" stroke="#666666" points="330.88,-79.5 196.38,-79.5 196.38,-49 330.88,-49 330.88,-79.5"/>
<text text-anchor="start" x="204.38" y="-66" font-family="Helvetica,sans-Serif" font-size="10.00">xeno_rat_client.Encryption.</text>
<text text-anchor="middle" x="263.62" y="-54.75" font-family="Helvetica,sans-Serif" font-size="10.00">Encrypt</text>
</a>
</g>
</g>
<!-- Node1&#45;&gt;Node8 -->
<g id="edge7_Node000001_Node000008" class="edge">
<title>Node1&#45;&gt;Node8</title>
<g id="a_edge7_Node000001_Node000008"><a xlink:title=" ">
<path fill="none" stroke="#63b8ff" d="M152.16,-78.52C162.91,-77.13 173.98,-75.7 184.78,-74.31"/>
<polygon fill="#63b8ff" stroke="#63b8ff" points="184.93,-77.82 194.4,-73.07 184.03,-70.88 184.93,-77.82"/>
</a>
</g>
</g>
<!-- Node9 -->
<g id="Node000009" class="node">
<title>Node9</title>
<g id="a_Node000009"><a xlink:href="classxeno__rat__client_1_1_socket_handler.html#a9b4df15d86fe97e366771e3c0568761d" target="_top" xlink:title="Converts an integer to a byte array.">
<polygon fill="white" stroke="#666666" points="339.5,-30.5 187.75,-30.5 187.75,0 339.5,0 339.5,-30.5"/>
<text text-anchor="start" x="195.75" y="-17" font-family="Helvetica,sans-Serif" font-size="10.00">xeno_rat_client.SocketHandler.</text>
<text text-anchor="middle" x="263.62" y="-5.75" font-family="Helvetica,sans-Serif" font-size="10.00">IntToBytes</text>
</a>
</g>
</g>
<!-- Node1&#45;&gt;Node9 -->
<g id="edge8_Node000001_Node000009" class="edge">
<title>Node1&#45;&gt;Node9</title>
<g id="a_edge8_Node000001_Node000009"><a xlink:title=" ">
<path fill="none" stroke="#63b8ff" d="M111.02,-72.56C132.79,-62.78 161.69,-50.22 187.75,-40.25 192.69,-38.36 197.84,-36.47 203.03,-34.63"/>
<polygon fill="#63b8ff" stroke="#63b8ff" points="203.95,-38.01 212.24,-31.42 201.65,-31.4 203.95,-38.01"/>
</a>
</g>
</g>
<!-- Node3 -->
<g id="Node000003" class="node">
<title>Node3</title>
<g id="a_Node000003"><a xlink:href="classxeno__rat__client_1_1_compression.html#abc065f053d0258dd1a7acae93f8332d0" target="_top" xlink:title="Allocates memory in the local heap.">
<polygon fill="white" stroke="#666666" points="534.38,-251.5 388.62,-251.5 388.62,-221 534.38,-221 534.38,-251.5"/>
<text text-anchor="start" x="396.62" y="-238" font-family="Helvetica,sans-Serif" font-size="10.00">xeno_rat_client.Compression.</text>
<text text-anchor="middle" x="461.5" y="-226.75" font-family="Helvetica,sans-Serif" font-size="10.00">LocalAlloc</text>
</a>
</g>
</g>
<!-- Node2&#45;&gt;Node3 -->
<g id="edge2_Node000002_Node000003" class="edge">
<title>Node2&#45;&gt;Node3</title>
<g id="a_edge2_Node000002_Node000003"><a xlink:title=" ">
<path fill="none" stroke="#63b8ff" d="M297.16,-177.97C319.01,-188.19 348.62,-201.41 375.5,-211.25 381.1,-213.3 386.95,-215.3 392.85,-217.22"/>
<polygon fill="#63b8ff" stroke="#63b8ff" points="391.44,-220.45 402.03,-220.13 393.55,-213.78 391.44,-220.45"/>
</a>
</g>
</g>
<!-- Node4 -->
<g id="Node000004" class="node">
<title>Node4</title>
<g id="a_Node000004"><a xlink:href="classxeno__rat__client_1_1_compression.html#a0d2aafc746f145f698a8f1d310ccfbb2" target="_top" xlink:title="Frees the memory block allocated by the LocalAlloc or LocalReAlloc function.">
<polygon fill="white" stroke="#666666" points="534.38,-202.5 388.62,-202.5 388.62,-172 534.38,-172 534.38,-202.5"/>
<text text-anchor="start" x="396.62" y="-189" font-family="Helvetica,sans-Serif" font-size="10.00">xeno_rat_client.Compression.</text>
<text text-anchor="middle" x="461.5" y="-177.75" font-family="Helvetica,sans-Serif" font-size="10.00">LocalFree</text>
</a>
</g>
</g>
<!-- Node2&#45;&gt;Node4 -->
<g id="edge3_Node000002_Node000004" class="edge">
<title>Node2&#45;&gt;Node4</title>
<g id="a_edge3_Node000002_Node000004"><a xlink:title=" ">
<path fill="none" stroke="#63b8ff" d="M336.73,-171.45C349.85,-173.13 363.64,-174.89 377.06,-176.6"/>
<polygon fill="#63b8ff" stroke="#63b8ff" points="376.36,-180.04 386.72,-177.83 377.25,-173.1 376.36,-180.04"/>
</a>
</g>
</g>
<!-- Node5 -->
<g id="Node000005" class="node">
<title>Node5</title>
<g id="a_Node000005"><a xlink:href="classxeno__rat__client_1_1_compression.html#a9f7d50afed4c3c988eb3e7691cb94581" target="_top" xlink:title="Compresses the input buffer using the specified compression format and returns the compressed data in...">
<polygon fill="white" stroke="#666666" points="534.38,-153.5 388.62,-153.5 388.62,-123 534.38,-123 534.38,-153.5"/>
<text text-anchor="start" x="396.62" y="-140" font-family="Helvetica,sans-Serif" font-size="10.00">xeno_rat_client.Compression.</text>
<text text-anchor="middle" x="461.5" y="-128.75" font-family="Helvetica,sans-Serif" font-size="10.00">RtlCompressBuffer</text>
</a>
</g>
</g>
<!-- Node2&#45;&gt;Node5 -->
<g id="edge4_Node000002_Node000005" class="edge">
<title>Node2&#45;&gt;Node5</title>
<g id="a_edge4_Node000002_Node000005"><a xlink:title=" ">
<path fill="none" stroke="#63b8ff" d="M336.73,-153.42C349.85,-151.81 363.64,-150.12 377.06,-148.47"/>
<polygon fill="#63b8ff" stroke="#63b8ff" points="377.22,-151.98 386.72,-147.29 376.37,-145.03 377.22,-151.98"/>
</a>
</g>
</g>
<!-- Node6 -->
<g id="Node000006" class="node">
<title>Node6</title>
<g id="a_Node000006"><a xlink:href="classxeno__rat__client_1_1_compression.html#ae6d3ee0c8538f67cd80635e6bc1bad03" target="_top" xlink:title="Retrieves the size of the workspace required for compression.">
<polygon fill="white" stroke="#666666" points="547.5,-104.5 375.5,-104.5 375.5,-74 547.5,-74 547.5,-104.5"/>
<text text-anchor="start" x="383.5" y="-91" font-family="Helvetica,sans-Serif" font-size="10.00">xeno_rat_client.Compression.</text>
<text text-anchor="middle" x="461.5" y="-79.75" font-family="Helvetica,sans-Serif" font-size="10.00">RtlGetCompressionWorkSpaceSize</text>
</a>
</g>
</g>
<!-- Node2&#45;&gt;Node6 -->
<g id="edge5_Node000002_Node000006" class="edge">
<title>Node2&#45;&gt;Node6</title>
<g id="a_edge5_Node000002_Node000006"><a xlink:title=" ">
<path fill="none" stroke="#63b8ff" d="M317.24,-146.52C324.83,-143.72 332.45,-140.62 339.5,-137.25 356.63,-129.07 358.22,-122.12 375.5,-114.25 379.75,-112.31 384.19,-110.49 388.72,-108.77"/>
<polygon fill="#63b8ff" stroke="#63b8ff" points="389.71,-112.13 397.95,-105.46 387.35,-105.54 389.71,-112.13"/>
</a>
</g>
</g>
</g>
</svg>
