<?xml version="1.0" encoding="UTF-8" standalone="no"?>
<!DOCTYPE svg PUBLIC "-//W3C//DTD SVG 1.1//EN"
 "http://www.w3.org/Graphics/SVG/1.1/DTD/svg11.dtd">
<!-- Generated by graphviz version 10.0.1 (20240210.2158)
 -->
<!-- Title: xeno_rat_server.Forms.Registry_Manager.GetRegInfo Pages: 1 -->
<svg width="754pt" height="125pt"
 viewBox="0.00 0.00 753.75 124.50" xmlns="http://www.w3.org/2000/svg" xmlns:xlink="http://www.w3.org/1999/xlink">
<g id="graph0" class="graph" transform="scale(1 1) rotate(0) translate(4 120.5)">
<title>xeno_rat_server.Forms.Registry_Manager.GetRegInfo</title>
<!-- Node1 -->
<g id="Node000001" class="node">
<title>Node1</title>
<g id="a_Node000001"><a xlink:title="Retrieves registration information for the specified path.">
<polygon fill="#999999" stroke="#666666" points="745.75,-54.5 590.25,-54.5 590.25,-24 745.75,-24 745.75,-54.5"/>
<text text-anchor="start" x="598.25" y="-41" font-family="Helvetica,sans-Serif" font-size="10.00">xeno_rat_server.Forms.Registry</text>
<text text-anchor="middle" x="668" y="-29.75" font-family="Helvetica,sans-Serif" font-size="10.00">_Manager.GetRegInfo</text>
</a>
</g>
</g>
<!-- Node2 -->
<g id="Node000002" class="node">
<title>Node2</title>
<g id="a_Node000002"><a xlink:href="classxeno__rat__server_1_1_forms_1_1_registry___manager.html#a5c85e48cc9a980538c39527ce84be05c" target="_top" xlink:title="Asynchronously starts the process of adding registry information to the tree view.">
<polygon fill="white" stroke="#666666" points="546.38,-79.5 390.88,-79.5 390.88,-49 546.38,-49 546.38,-79.5"/>
<text text-anchor="start" x="398.88" y="-66" font-family="Helvetica,sans-Serif" font-size="10.00">xeno_rat_server.Forms.Registry</text>
<text text-anchor="middle" x="468.62" y="-54.75" font-family="Helvetica,sans-Serif" font-size="10.00">_Manager.StartAdd</text>
</a>
</g>
</g>
<!-- Node1&#45;&gt;Node2 -->
<g id="edge1_Node000001_Node000002" class="edge">
<title>Node1&#45;&gt;Node2</title>
<g id="a_edge1_Node000001_Node000002"><a xlink:title=" ">
<path fill="none" stroke="#63b8ff" d="M578.45,-50.47C567.87,-51.81 557.13,-53.17 546.73,-54.48"/>
<polygon fill="#63b8ff" stroke="#63b8ff" points="578.86,-53.94 588.34,-49.21 577.98,-47 578.86,-53.94"/>
</a>
</g>
</g>
<!-- Node5 -->
<g id="Node000005" class="node">
<title>Node5</title>
<g id="a_Node000005"><a xlink:href="classxeno__rat__server_1_1_forms_1_1_registry___manager.html#a371086faec3a668187cfd94ce08bd828" target="_top" xlink:title="Handles the BeforeExpand event of the treeView1 control.">
<polygon fill="white" stroke="#666666" points="554.25,-30.5 383,-30.5 383,0 554.25,0 554.25,-30.5"/>
<text text-anchor="start" x="391" y="-17" font-family="Helvetica,sans-Serif" font-size="10.00">xeno_rat_server.Forms.Registry</text>
<text text-anchor="middle" x="468.62" y="-5.75" font-family="Helvetica,sans-Serif" font-size="10.00">_Manager.treeView1_BeforeExpand</text>
</a>
</g>
</g>
<!-- Node1&#45;&gt;Node5 -->
<g id="edge4_Node000001_Node000005" class="edge">
<title>Node1&#45;&gt;Node5</title>
<g id="a_edge4_Node000001_Node000005"><a xlink:title=" ">
<path fill="none" stroke="#63b8ff" d="M578.62,-28.5C570.62,-27.53 562.53,-26.55 554.57,-25.58"/>
<polygon fill="#63b8ff" stroke="#63b8ff" points="577.99,-31.95 588.34,-29.69 578.83,-25 577.99,-31.95"/>
</a>
</g>
</g>
<!-- Node3 -->
<g id="Node000003" class="node">
<title>Node3</title>
<g id="a_Node000003"><a xlink:href="classxeno__rat__server_1_1_forms_1_1_registry___manager.html#a08fce7cf1593b0345876938460a9424f" target="_top" xlink:title="Clears the text in textBox1, clears the items in listView1, clears the nodes in treeView1,...">
<polygon fill="white" stroke="#666666" points="347,-116.5 191.5,-116.5 191.5,-86 347,-86 347,-116.5"/>
<text text-anchor="start" x="199.5" y="-103" font-family="Helvetica,sans-Serif" font-size="10.00">xeno_rat_server.Forms.Registry</text>
<text text-anchor="middle" x="269.25" y="-91.75" font-family="Helvetica,sans-Serif" font-size="10.00">_Manager.button1_Click</text>
</a>
</g>
</g>
<!-- Node2&#45;&gt;Node3 -->
<g id="edge2_Node000002_Node000003" class="edge">
<title>Node2&#45;&gt;Node3</title>
<g id="a_edge2_Node000002_Node000003"><a xlink:title=" ">
<path fill="none" stroke="#63b8ff" d="M379.41,-80.79C368.72,-82.79 357.87,-84.83 347.35,-86.8"/>
<polygon fill="#63b8ff" stroke="#63b8ff" points="379.8,-84.28 388.98,-78.99 378.51,-77.4 379.8,-84.28"/>
</a>
</g>
</g>
<!-- Node4 -->
<g id="Node000004" class="node">
<title>Node4</title>
<g id="a_Node000004"><a xlink:href="classxeno__rat__server_1_1_forms_1_1_registry___manager.html#a2746ea04ea3ae64d1f5764316741da37" target="_top" xlink:title=" ">
<polygon fill="white" stroke="#666666" points="155.5,-51.5 0,-51.5 0,-21 155.5,-21 155.5,-51.5"/>
<text text-anchor="start" x="8" y="-38" font-family="Helvetica,sans-Serif" font-size="10.00">xeno_rat_server.Forms.Registry</text>
<text text-anchor="middle" x="77.75" y="-26.75" font-family="Helvetica,sans-Serif" font-size="10.00">_Manager.Registry_Manager</text>
</a>
</g>
</g>
<!-- Node2&#45;&gt;Node4 -->
<g id="edge3_Node000002_Node000004" class="edge">
<title>Node2&#45;&gt;Node4</title>
<g id="a_edge3_Node000002_Node000004"><a xlink:title=" ">
<path fill="none" stroke="#63b8ff" d="M379.36,-57.89C312.01,-53.05 220.14,-46.43 155.75,-41.79"/>
<polygon fill="#63b8ff" stroke="#63b8ff" points="379.06,-61.38 389.29,-58.61 379.56,-54.4 379.06,-61.38"/>
</a>
</g>
</g>
<!-- Node6 -->
<g id="Node000006" class="node">
<title>Node6</title>
<g id="a_Node000006"><a xlink:href="classxeno__rat__server_1_1_forms_1_1_registry___manager.html#a82caca77ae11efcf479f6d18d511d71f" target="_top" xlink:title="Initializes the components of the form, setting up the tree view, list view, labels,...">
<polygon fill="white" stroke="#666666" points="347,-30.5 191.5,-30.5 191.5,0 347,0 347,-30.5"/>
<text text-anchor="start" x="199.5" y="-17" font-family="Helvetica,sans-Serif" font-size="10.00">xeno_rat_server.Forms.Registry</text>
<text text-anchor="middle" x="269.25" y="-5.75" font-family="Helvetica,sans-Serif" font-size="10.00">_Manager.InitializeComponent</text>
</a>
</g>
</g>
<!-- Node5&#45;&gt;Node6 -->
<g id="edge5_Node000005_Node000006" class="edge">
<title>Node5&#45;&gt;Node6</title>
<g id="a_edge5_Node000005_Node000006"><a xlink:title=" ">
<path fill="none" stroke="#63b8ff" d="M371.37,-15.25C363.28,-15.25 355.16,-15.25 347.24,-15.25"/>
<polygon fill="#63b8ff" stroke="#63b8ff" points="371.26,-18.75 381.26,-15.25 371.26,-11.75 371.26,-18.75"/>
</a>
</g>
</g>
<!-- Node6&#45;&gt;Node4 -->
<g id="edge6_Node000006_Node000004" class="edge">
<title>Node6&#45;&gt;Node4</title>
<g id="a_edge6_Node000006_Node000004"><a xlink:title=" ">
<path fill="none" stroke="#63b8ff" d="M179.86,-25.05C171.81,-25.94 163.7,-26.84 155.76,-27.72"/>
<polygon fill="#63b8ff" stroke="#63b8ff" points="180.12,-28.54 189.67,-23.96 179.34,-21.58 180.12,-28.54"/>
</a>
</g>
</g>
</g>
</svg>
