<?xml version="1.0" encoding="UTF-8" standalone="no"?>
<!DOCTYPE svg PUBLIC "-//W3C//DTD SVG 1.1//EN"
 "http://www.w3.org/Graphics/SVG/1.1/DTD/svg11.dtd">
<!-- Generated by graphviz version 10.0.1 (20240210.2158)
 -->
<!-- Title: NAudio.Wave.WaveOutEvent.PlaybackThread Pages: 1 -->
<!--zoomable 39 -->

<svg id="main" version="1.1" xmlns="http://www.w3.org/2000/svg" xmlns:xlink="http://www.w3.org/1999/xlink" xml:space="preserve" onload="init(evt)">
<style type="text/css"><![CDATA[
.node, .edge {opacity: 0.7;}
.node.selected, .edge.selected {opacity: 1;}
.edge:hover path { stroke: red; }
.edge:hover polygon { stroke: red; fill: red; }
]]></style>

<defs>
  <circle id="rim" cx="0" cy="0" r="7"/>
  <circle id="rim2" cx="0" cy="0" r="3.5"/>
  <g id="zoomPlus">
    <use xlink:href="#rim" fill="#404040"><set attributeName="fill" to="#808080" begin="zoomplus.mouseover" end="zoomplus.mouseout"/></use>
    <path d="M-4,0h8M0,-4v8" fill="none" stroke="white" stroke-width="1.5" pointer-events="none"/>
  </g>
  <g id="zoomMin">
    <use xlink:href="#rim" fill="#404040"><set attributeName="fill" to="#808080" begin="zoomminus.mouseover" end="zoomminus.mouseout"/></use>
    <path d="M-4,0h8" fill="none" stroke="white" stroke-width="1.5" pointer-events="none"/>
  </g>
  <g id="arrowUp" transform="translate(30 24)">
    <use xlink:href="#rim"/>
    <path pointer-events="none" fill="none" stroke="white" stroke-width="1.5" d="M0,-3.0v7 M-2.5,-0.5L0,-3.0L2.5,-0.5"/>
  </g>
  <g id="arrowRight" transform="rotate(90) translate(36 -43)">
    <use xlink:href="#rim"/>
    <path pointer-events="none" fill="none" stroke="white" stroke-width="1.5" d="M0,-3.0v7 M-2.5,-0.5L0,-3.0L2.5,-0.5"/>
  </g>
  <g id="arrowDown" transform="rotate(180) translate(-30 -48)">
    <use xlink:href="#rim"/>
    <path pointer-events="none" fill="none" stroke="white" stroke-width="1.5" d="M0,-3.0v7 M-2.5,-0.5L0,-3.0L2.5,-0.5"/>
  </g>
  <g id="arrowLeft" transform="rotate(270) translate(-36 17)">
    <use xlink:href="#rim"/>
    <path pointer-events="none" fill="none" stroke="white" stroke-width="1.5" d="M0,-3.0v7 M-2.5,-0.5L0,-3.0L2.5,-0.5"/>
  </g>
  <g id="resetDef">
    <use xlink:href="#rim2" fill="#404040"><set attributeName="fill" to="#808080" begin="reset.mouseover" end="reset.mouseout"/></use>
  </g>
</defs>
<script type="application/ecmascript">
var viewWidth = 1093;
var viewHeight = 39;
var sectionId = 'dynsection-16';
</script>
<script type="application/ecmascript" xlink:href="svg.min.js"/>
<svg id="graph" class="graph">
<g id="viewport">
<title>NAudio.Wave.WaveOutEvent.PlaybackThread</title>
<!-- Node1 -->
<g id="Node000001" class="node">
<title>Node1</title>
<g id="a_Node000001"><a xlink:title="Executes the DoPlayback method in a separate thread and raises the PlaybackStopped event upon complet...">
<polygon fill="#999999" stroke="#666666" points="1084.5,-30.5 936.5,-30.5 936.5,0 1084.5,0 1084.5,-30.5"/>
<text text-anchor="start" x="944.5" y="-17" font-family="Helvetica,sans-Serif" font-size="10.00">NAudio.Wave.WaveOutEvent.</text>
<text text-anchor="middle" x="1010.5" y="-5.75" font-family="Helvetica,sans-Serif" font-size="10.00">PlaybackThread</text>
</a>
</g>
</g>
<!-- Node2 -->
<g id="Node000002" class="node">
<title>Node2</title>
<g id="a_Node000002"><a xlink:href="class_n_audio_1_1_wave_1_1_wave_out_event.html#a48d131f28d34800e5455fb6997401c57" target="_top" xlink:title="Plays the audio.">
<polygon fill="white" stroke="#666666" points="900.5,-24.88 733,-24.88 733,-5.63 900.5,-5.63 900.5,-24.88"/>
<text text-anchor="middle" x="816.75" y="-11.38" font-family="Helvetica,sans-Serif" font-size="10.00">NAudio.Wave.WaveOutEvent.Play</text>
</a>
</g>
</g>
<!-- Node1&#45;&gt;Node2 -->
<g id="edge1_Node000001_Node000002" class="edge">
<title>Node1&#45;&gt;Node2</title>
<g id="a_edge1_Node000001_Node000002"><a xlink:title=" ">
<path fill="none" stroke="#63b8ff" d="M924.72,-15.25C916.83,-15.25 908.83,-15.25 900.95,-15.25"/>
<polygon fill="#63b8ff" stroke="#63b8ff" points="924.67,-18.75 934.67,-15.25 924.67,-11.75 924.67,-18.75"/>
</a>
</g>
</g>
<!-- Node3 -->
<g id="Node000003" class="node">
<title>Node3</title>
<g id="a_Node000003"><a xlink:href="classxeno__rat__server_1_1_forms_1_1_audio_player.html#afe0ffdc5908bbd0d94fc7ae95224d7eb" target="_top" xlink:title="Clears the buffer and starts playing audio.">
<polygon fill="white" stroke="#666666" points="697,-30.5 553.5,-30.5 553.5,0 697,0 697,-30.5"/>
<text text-anchor="start" x="561.5" y="-17" font-family="Helvetica,sans-Serif" font-size="10.00">xeno_rat_server.Forms.Audio</text>
<text text-anchor="middle" x="625.25" y="-5.75" font-family="Helvetica,sans-Serif" font-size="10.00">Player.Start</text>
</a>
</g>
</g>
<!-- Node2&#45;&gt;Node3 -->
<g id="edge2_Node000002_Node000003" class="edge">
<title>Node2&#45;&gt;Node3</title>
<g id="a_edge2_Node000002_Node000003"><a xlink:title=" ">
<path fill="none" stroke="#63b8ff" d="M721.31,-15.25C713.28,-15.25 705.24,-15.25 697.44,-15.25"/>
<polygon fill="#63b8ff" stroke="#63b8ff" points="721.12,-18.75 731.12,-15.25 721.12,-11.75 721.12,-18.75"/>
</a>
</g>
</g>
<!-- Node4 -->
<g id="Node000004" class="node">
<title>Node4</title>
<g id="a_Node000004"><a xlink:href="classxeno__rat__server_1_1_forms_1_1_live___microphone.html#a3eb48a241f160315b9974191a26929c9" target="_top" xlink:title="Starts the player and sends a signal to the client to start playing.">
<polygon fill="white" stroke="#666666" points="517.5,-30.5 380.75,-30.5 380.75,0 517.5,0 517.5,-30.5"/>
<text text-anchor="start" x="388.75" y="-17" font-family="Helvetica,sans-Serif" font-size="10.00">xeno_rat_server.Forms.Live</text>
<text text-anchor="middle" x="449.12" y="-5.75" font-family="Helvetica,sans-Serif" font-size="10.00">_Microphone.button2_Click</text>
</a>
</g>
</g>
<!-- Node3&#45;&gt;Node4 -->
<g id="edge3_Node000003_Node000004" class="edge">
<title>Node3&#45;&gt;Node4</title>
<g id="a_edge3_Node000003_Node000004"><a xlink:title=" ">
<path fill="none" stroke="#63b8ff" d="M541.88,-15.25C533.84,-15.25 525.75,-15.25 517.88,-15.25"/>
<polygon fill="#63b8ff" stroke="#63b8ff" points="541.66,-18.75 551.66,-15.25 541.66,-11.75 541.66,-18.75"/>
</a>
</g>
</g>
<!-- Node5 -->
<g id="Node000005" class="node">
<title>Node5</title>
<g id="a_Node000005"><a xlink:href="classxeno__rat__server_1_1_forms_1_1_live___microphone.html#aa22c949501255089648411e3411d8a46" target="_top" xlink:title="Initializes the components of the form including the combo box, labels, and buttons.">
<polygon fill="white" stroke="#666666" points="344.75,-30.5 184,-30.5 184,0 344.75,0 344.75,-30.5"/>
<text text-anchor="start" x="192" y="-17" font-family="Helvetica,sans-Serif" font-size="10.00">xeno_rat_server.Forms.Live</text>
<text text-anchor="middle" x="264.38" y="-5.75" font-family="Helvetica,sans-Serif" font-size="10.00">_Microphone.InitializeComponent</text>
</a>
</g>
</g>
<!-- Node4&#45;&gt;Node5 -->
<g id="edge4_Node000004_Node000005" class="edge">
<title>Node4&#45;&gt;Node5</title>
<g id="a_edge4_Node000004_Node000005"><a xlink:title=" ">
<path fill="none" stroke="#63b8ff" d="M368.89,-15.25C361,-15.25 352.99,-15.25 345.1,-15.25"/>
<polygon fill="#63b8ff" stroke="#63b8ff" points="368.82,-18.75 378.82,-15.25 368.82,-11.75 368.82,-18.75"/>
</a>
</g>
</g>
<!-- Node6 -->
<g id="Node000006" class="node">
<title>Node6</title>
<g id="a_Node000006"><a xlink:href="classxeno__rat__server_1_1_forms_1_1_live___microphone.html#af759c97b5673c55be1690f19df16e179" target="_top" xlink:title=" ">
<polygon fill="white" stroke="#666666" points="148,-30.5 0,-30.5 0,0 148,0 148,-30.5"/>
<text text-anchor="start" x="8" y="-17" font-family="Helvetica,sans-Serif" font-size="10.00">xeno_rat_server.Forms.Live</text>
<text text-anchor="middle" x="74" y="-5.75" font-family="Helvetica,sans-Serif" font-size="10.00">_Microphone.Live_Microphone</text>
</a>
</g>
</g>
<!-- Node5&#45;&gt;Node6 -->
<g id="edge5_Node000005_Node000006" class="edge">
<title>Node5&#45;&gt;Node6</title>
<g id="a_edge5_Node000005_Node000006"><a xlink:title=" ">
<path fill="none" stroke="#63b8ff" d="M172.4,-15.25C164.33,-15.25 156.23,-15.25 148.34,-15.25"/>
<polygon fill="#63b8ff" stroke="#63b8ff" points="172.25,-18.75 182.25,-15.25 172.25,-11.75 172.25,-18.75"/>
</a>
</g>
</g>
</g>
</svg>

<g id="navigator" transform="translate(0 0)" fill="#404254">
  <rect fill="#f2f5e9" fill-opacity="0.5" stroke="#606060" stroke-width=".5" x="0" y="0" width="60" height="60"/>
  <use id="zoomplus" xlink:href="#zoomPlus" x="17" y="9" onmousedown="handleZoom(evt,'in')"/>
  <use id="zoomminus" xlink:href="#zoomMin" x="42" y="9" onmousedown="handleZoom(evt,'out')"/>
  <use id="reset" xlink:href="#resetDef" x="30" y="36" onmousedown="handleReset()"/>
   <use id="arrowup" xlink:href="#arrowUp" x="0" y="0" onmousedown="handlePan(0,-1)"/>
  <use id="arrowright" xlink:href="#arrowRight" x="0" y="0" onmousedown="handlePan(1,0)"/>
  <use id="arrowdown" xlink:href="#arrowDown" x="0" y="0" onmousedown="handlePan(0,1)"/>
  <use id="arrowleft" xlink:href="#arrowLeft" x="0" y="0" onmousedown="handlePan(-1,0)"/>
</g>
<svg viewBox="0 0 15 15" width="100%" height="30px" preserveAspectRatio="xMaxYMin meet">
 <g id="arrow_out" transform="scale(0.3 0.3)">
  <a xlink:href="class_n_audio_1_1_wave_1_1_wave_out_event_a9c282c7977098920ae1c7adf1bd59934_icgraph_org.svg" target="_base">
   <rect id="button" ry="5" rx="5" y="6" x="6" height="38" width="38"
        fill="#f2f5e9" fill-opacity="0.5" stroke="#606060" stroke-width="1.0"/>
   <path id="arrow"
     d="M 11.500037,31.436501 C 11.940474,20.09759 22.043105,11.32322 32.158766,21.979434 L 37.068811,17.246167 C 37.068811,17.246167 37.088388,32 37.088388,32 L 22.160133,31.978069 C 22.160133,31.978069 26.997745,27.140456 26.997745,27.140456 C 18.528582,18.264221 13.291696,25.230495 11.500037,31.436501 z"
     style="fill:#404040;"/>
  </a>
 </g>
</svg>

<style type='text/css'>
<![CDATA[
[data-mouse-over-selected='false'] { opacity: 0.7; }
[data-mouse-over-selected='true']  { opacity: 1.0; }
]]>
</style>
<script type="application/ecmascript"><![CDATA[
document.addEventListener('DOMContentLoaded', (event) => {
  highlightEdges();
  highlightAdjacentNodes();
});
]]></script>
</svg>
