<?xml version="1.0" encoding="UTF-8" standalone="no"?>
<!DOCTYPE svg PUBLIC "-//W3C//DTD SVG 1.1//EN"
 "http://www.w3.org/Graphics/SVG/1.1/DTD/svg11.dtd">
<!-- Generated by graphviz version 10.0.1 (20240210.2158)
 -->
<!-- Title: NAudio.Wave.Mp3FileReaderBase.Mp3FileReaderBase Pages: 1 -->
<svg width="547pt" height="299pt"
 viewBox="0.00 0.00 547.25 298.50" xmlns="http://www.w3.org/2000/svg" xmlns:xlink="http://www.w3.org/1999/xlink">
<g id="graph0" class="graph" transform="scale(1 1) rotate(0) translate(4 294.5)">
<title>NAudio.Wave.Mp3FileReaderBase.Mp3FileReaderBase</title>
<!-- Node1 -->
<g id="Node000001" class="node">
<title>Node1</title>
<g id="a_Node000001"><a xlink:title=" ">
<polygon fill="#999999" stroke="#666666" points="145,-116.5 0,-116.5 0,-86 145,-86 145,-116.5"/>
<text text-anchor="start" x="8" y="-103" font-family="Helvetica,sans-Serif" font-size="10.00">NAudio.Wave.Mp3FileReader</text>
<text text-anchor="middle" x="72.5" y="-91.75" font-family="Helvetica,sans-Serif" font-size="10.00">Base.Mp3FileReaderBase</text>
</a>
</g>
</g>
<!-- Node2 -->
<g id="Node000002" class="node">
<title>Node2</title>
<g id="a_Node000002"><a xlink:href="class_n_audio_1_1_wave_1_1_mp3_file_reader_base.html#a1c78303cd515a3b9c7f7a0133b7703a5" target="_top" xlink:title="Creates a table of contents for the MP3 file by reading the frames and populating the table of conten...">
<polygon fill="white" stroke="#666666" points="333.88,-232.5 188.88,-232.5 188.88,-202 333.88,-202 333.88,-232.5"/>
<text text-anchor="start" x="196.88" y="-219" font-family="Helvetica,sans-Serif" font-size="10.00">NAudio.Wave.Mp3FileReader</text>
<text text-anchor="middle" x="261.38" y="-207.75" font-family="Helvetica,sans-Serif" font-size="10.00">Base.CreateTableOfContents</text>
</a>
</g>
</g>
<!-- Node1&#45;&gt;Node2 -->
<g id="edge1_Node000001_Node000002" class="edge">
<title>Node1&#45;&gt;Node2</title>
<g id="a_edge1_Node000001_Node000002"><a xlink:title=" ">
<path fill="none" stroke="#63b8ff" d="M88.05,-116.96C107.47,-137.05 143.74,-171.71 181,-192.25 184.16,-193.99 187.47,-195.64 190.85,-197.18"/>
<polygon fill="#63b8ff" stroke="#63b8ff" points="189.22,-200.29 199.79,-200.93 191.93,-193.83 189.22,-200.29"/>
</a>
</g>
</g>
<!-- Node5 -->
<g id="Node000005" class="node">
<title>Node5</title>
<g id="a_Node000005"><a xlink:href="class_n_audio_1_1_wave_1_1_mp3_frame.html#aacebf32e12cd788f543c16aa388c827f" target="_top" xlink:title="Loads an MP3 frame from the given input stream and returns the frame.">
<polygon fill="white" stroke="#666666" points="336.12,-165.5 186.62,-165.5 186.62,-135 336.12,-135 336.12,-165.5"/>
<text text-anchor="start" x="194.62" y="-152" font-family="Helvetica,sans-Serif" font-size="10.00">NAudio.Wave.Mp3Frame.Load</text>
<text text-anchor="middle" x="261.38" y="-140.75" font-family="Helvetica,sans-Serif" font-size="10.00">FromStream</text>
</a>
</g>
</g>
<!-- Node1&#45;&gt;Node5 -->
<g id="edge5_Node000001_Node000005" class="edge">
<title>Node1&#45;&gt;Node5</title>
<g id="a_edge5_Node000001_Node000005"><a xlink:title=" ">
<path fill="none" stroke="#63b8ff" d="M133.4,-116.96C151.25,-121.64 170.99,-126.81 189.48,-131.66"/>
<polygon fill="#63b8ff" stroke="#63b8ff" points="188.47,-135.01 199.03,-134.16 190.24,-128.24 188.47,-135.01"/>
</a>
</g>
</g>
<!-- Node6 -->
<g id="Node000006" class="node">
<title>Node6</title>
<g id="a_Node000006"><a xlink:href="class_n_audio_1_1_wave_1_1_xing_header.html#a8360d4066fe6e494ff7ebf6c688d7beb" target="_top" xlink:title="Loads the Xing header from the provided Mp3Frame.">
<polygon fill="white" stroke="#666666" points="338,-116.5 184.75,-116.5 184.75,-86 338,-86 338,-116.5"/>
<text text-anchor="start" x="192.75" y="-103" font-family="Helvetica,sans-Serif" font-size="10.00">NAudio.Wave.XingHeader.Load</text>
<text text-anchor="middle" x="261.38" y="-91.75" font-family="Helvetica,sans-Serif" font-size="10.00">XingHeader</text>
</a>
</g>
</g>
<!-- Node1&#45;&gt;Node6 -->
<g id="edge7_Node000001_Node000006" class="edge">
<title>Node1&#45;&gt;Node6</title>
<g id="a_edge7_Node000001_Node000006"><a xlink:title=" ">
<path fill="none" stroke="#63b8ff" d="M145.48,-101.25C154.55,-101.25 163.9,-101.25 173.16,-101.25"/>
<polygon fill="#63b8ff" stroke="#63b8ff" points="172.89,-104.75 182.89,-101.25 172.89,-97.75 172.89,-104.75"/>
</a>
</g>
</g>
<!-- Node9 -->
<g id="Node000009" class="node">
<title>Node9</title>
<g id="a_Node000009"><a xlink:href="class_n_audio_1_1_wave_1_1_id3v2_tag.html#a402d29d71aa5d32148f5370e01714e7c" target="_top" xlink:title="Reads an ID3v2 tag from the input stream and returns the tag.">
<polygon fill="white" stroke="#666666" points="341.75,-67.88 181,-67.88 181,-48.62 341.75,-48.62 341.75,-67.88"/>
<text text-anchor="middle" x="261.38" y="-54.38" font-family="Helvetica,sans-Serif" font-size="10.00">NAudio.Wave.Id3v2Tag.ReadTag</text>
</a>
</g>
</g>
<!-- Node1&#45;&gt;Node9 -->
<g id="edge10_Node000001_Node000009" class="edge">
<title>Node1&#45;&gt;Node9</title>
<g id="a_edge10_Node000001_Node000009"><a xlink:title=" ">
<path fill="none" stroke="#63b8ff" d="M141.76,-85.54C162.69,-80.73 185.44,-75.49 205.36,-70.91"/>
<polygon fill="#63b8ff" stroke="#63b8ff" points="205.99,-74.36 214.95,-68.7 204.42,-67.53 205.99,-74.36"/>
</a>
</g>
</g>
<!-- Node11 -->
<g id="Node000011" class="node">
<title>Node11</title>
<g id="a_Node000011"><a xlink:href="class_n_audio_1_1_wave_1_1_mp3_file_reader_base.html#af88057a5f4bcdc21619aae08f319ab7c" target="_top" xlink:title="Calculates the total seconds based on the total samples and sample rate.">
<polygon fill="white" stroke="#666666" points="333.88,-30.5 188.88,-30.5 188.88,0 333.88,0 333.88,-30.5"/>
<text text-anchor="start" x="196.88" y="-17" font-family="Helvetica,sans-Serif" font-size="10.00">NAudio.Wave.Mp3FileReader</text>
<text text-anchor="middle" x="261.38" y="-5.75" font-family="Helvetica,sans-Serif" font-size="10.00">Base.TotalSeconds</text>
</a>
</g>
</g>
<!-- Node1&#45;&gt;Node11 -->
<g id="edge12_Node000001_Node000011" class="edge">
<title>Node1&#45;&gt;Node11</title>
<g id="a_edge12_Node000001_Node000011"><a xlink:title=" ">
<path fill="none" stroke="#63b8ff" d="M97.01,-85.57C118.26,-71.93 150.75,-52.34 181,-39.25 184.72,-37.64 188.58,-36.09 192.51,-34.62"/>
<polygon fill="#63b8ff" stroke="#63b8ff" points="193.34,-38.04 201.58,-31.38 190.99,-31.44 193.34,-38.04"/>
</a>
</g>
</g>
<!-- Node3 -->
<g id="Node000003" class="node">
<title>Node3</title>
<g id="a_Node000003"><a xlink:href="class_n_audio_1_1_wave_1_1_mp3_file_reader_base.html#a3e0ccd190d85f58fc98568e9fcaf5a46" target="_top" xlink:title="Reads the next MP3 frame from the stream and advances the position by one frame.">
<polygon fill="white" stroke="#666666" points="531,-272.5 386,-272.5 386,-242 531,-242 531,-272.5"/>
<text text-anchor="start" x="394" y="-259" font-family="Helvetica,sans-Serif" font-size="10.00">NAudio.Wave.Mp3FileReader</text>
<text text-anchor="middle" x="458.5" y="-247.75" font-family="Helvetica,sans-Serif" font-size="10.00">Base.ReadNextFrame</text>
</a>
</g>
</g>
<!-- Node2&#45;&gt;Node3 -->
<g id="edge2_Node000002_Node000003" class="edge">
<title>Node2&#45;&gt;Node3</title>
<g id="a_edge2_Node000002_Node000003"><a xlink:title=" ">
<path fill="none" stroke="#63b8ff" d="M334.2,-231.97C347.36,-234.67 361.19,-237.51 374.64,-240.26"/>
<polygon fill="#63b8ff" stroke="#63b8ff" points="373.84,-243.67 384.34,-242.25 375.25,-236.82 373.84,-243.67"/>
</a>
</g>
</g>
<!-- Node4 -->
<g id="Node000004" class="node">
<title>Node4</title>
<g id="a_Node000004"><a xlink:href="class_n_audio_1_1_wave_1_1_mp3_file_reader_base.html#ad9f2cd188d2e55f4e4f24307d98a4da5" target="_top" xlink:title="Validates the format of the MP3 frame.">
<polygon fill="white" stroke="#666666" points="531,-223.5 386,-223.5 386,-193 531,-193 531,-223.5"/>
<text text-anchor="start" x="394" y="-210" font-family="Helvetica,sans-Serif" font-size="10.00">NAudio.Wave.Mp3FileReader</text>
<text text-anchor="middle" x="458.5" y="-198.75" font-family="Helvetica,sans-Serif" font-size="10.00">Base.ValidateFrameFormat</text>
</a>
</g>
</g>
<!-- Node2&#45;&gt;Node4 -->
<g id="edge4_Node000002_Node000004" class="edge">
<title>Node2&#45;&gt;Node4</title>
<g id="a_edge4_Node000002_Node000004"><a xlink:title=" ">
<path fill="none" stroke="#63b8ff" d="M334.2,-213.94C347.36,-213.33 361.19,-212.69 374.64,-212.07"/>
<polygon fill="#63b8ff" stroke="#63b8ff" points="374.49,-215.58 384.31,-211.63 374.16,-208.59 374.49,-215.58"/>
</a>
</g>
</g>
<!-- Node3&#45;&gt;Node3 -->
<g id="edge3_Node000003_Node000003" class="edge">
<title>Node3&#45;&gt;Node3</title>
<g id="a_edge3_Node000003_Node000003"><a xlink:title=" ">
<path fill="none" stroke="#63b8ff" d="M423.57,-272.99C416.44,-282.06 428.08,-290.5 458.5,-290.5 475.13,-290.5 486.15,-287.97 491.56,-284.2"/>
<polygon fill="#63b8ff" stroke="#63b8ff" points="494.99,-284.92 493.18,-274.48 488.08,-283.77 494.99,-284.92"/>
</a>
</g>
</g>
<!-- Node5&#45;&gt;Node5 -->
<g id="edge6_Node000005_Node000005" class="edge">
<title>Node5&#45;&gt;Node5</title>
<g id="a_edge6_Node000005_Node000005"><a xlink:title=" ">
<path fill="none" stroke="#63b8ff" d="M227.91,-165.99C221.08,-175.06 232.23,-183.5 261.38,-183.5 277.31,-183.5 287.87,-180.97 293.05,-177.2"/>
<polygon fill="#63b8ff" stroke="#63b8ff" points="296.48,-177.91 294.6,-167.48 289.57,-176.8 296.48,-177.91"/>
</a>
</g>
</g>
<!-- Node7 -->
<g id="Node000007" class="node">
<title>Node7</title>
<g id="a_Node000007"><a xlink:href="class_n_audio_1_1_wave_1_1_xing_header.html#a79596ac097f7c3e5b33af43e5518c6f4" target="_top" xlink:title="Reads a 32&#45;bit integer from the specified buffer in big&#45;endian format.">
<polygon fill="white" stroke="#666666" points="536.25,-165.5 380.75,-165.5 380.75,-135 536.25,-135 536.25,-165.5"/>
<text text-anchor="start" x="388.75" y="-152" font-family="Helvetica,sans-Serif" font-size="10.00">NAudio.Wave.XingHeader.Read</text>
<text text-anchor="middle" x="458.5" y="-140.75" font-family="Helvetica,sans-Serif" font-size="10.00">BigEndian</text>
</a>
</g>
</g>
<!-- Node6&#45;&gt;Node7 -->
<g id="edge8_Node000006_Node000007" class="edge">
<title>Node6&#45;&gt;Node7</title>
<g id="a_edge8_Node000006_Node000007"><a xlink:title=" ">
<path fill="none" stroke="#63b8ff" d="M324.92,-116.96C343.74,-121.68 364.56,-126.91 384.02,-131.8"/>
<polygon fill="#63b8ff" stroke="#63b8ff" points="382.96,-135.14 393.51,-134.18 384.66,-128.35 382.96,-135.14"/>
</a>
</g>
</g>
<!-- Node8 -->
<g id="Node000008" class="node">
<title>Node8</title>
<g id="a_Node000008"><a xlink:href="class_n_audio_1_1_wave_1_1_xing_header.html#a541bbfd1063c3accc85660a1ebf1ca75" target="_top" xlink:title="Sees if a frame contains a Xing header.">
<polygon fill="white" stroke="#666666" points="534.38,-116.5 382.62,-116.5 382.62,-86 534.38,-86 534.38,-116.5"/>
<text text-anchor="start" x="390.62" y="-103" font-family="Helvetica,sans-Serif" font-size="10.00">NAudio.Wave.XingHeader.Xing</text>
<text text-anchor="middle" x="458.5" y="-91.75" font-family="Helvetica,sans-Serif" font-size="10.00">Header</text>
</a>
</g>
</g>
<!-- Node6&#45;&gt;Node8 -->
<g id="edge9_Node000006_Node000008" class="edge">
<title>Node6&#45;&gt;Node8</title>
<g id="a_edge9_Node000006_Node000008"><a xlink:title=" ">
<path fill="none" stroke="#63b8ff" d="M338.37,-101.25C349.1,-101.25 360.18,-101.25 371.08,-101.25"/>
<polygon fill="#63b8ff" stroke="#63b8ff" points="370.84,-104.75 380.84,-101.25 370.84,-97.75 370.84,-104.75"/>
</a>
</g>
</g>
<!-- Node10 -->
<g id="Node000010" class="node">
<title>Node10</title>
<g id="a_Node000010"><a xlink:href="class_n_audio_1_1_wave_1_1_id3v2_tag.html#a91dd0a39bebbb29b61a147d93cabf84c" target="_top" xlink:title=" ">
<polygon fill="white" stroke="#666666" points="539.25,-67.88 377.75,-67.88 377.75,-48.62 539.25,-48.62 539.25,-67.88"/>
<text text-anchor="middle" x="458.5" y="-54.38" font-family="Helvetica,sans-Serif" font-size="10.00">NAudio.Wave.Id3v2Tag.Id3v2Tag</text>
</a>
</g>
</g>
<!-- Node9&#45;&gt;Node10 -->
<g id="edge11_Node000009_Node000010" class="edge">
<title>Node9&#45;&gt;Node10</title>
<g id="a_edge11_Node000009_Node000010"><a xlink:title=" ">
<path fill="none" stroke="#63b8ff" d="M342.02,-58.25C349.97,-58.25 358.09,-58.25 366.14,-58.25"/>
<polygon fill="#63b8ff" stroke="#63b8ff" points="365.96,-61.75 375.96,-58.25 365.96,-54.75 365.96,-61.75"/>
</a>
</g>
</g>
</g>
</svg>
