<?xml version="1.0" encoding="UTF-8" standalone="no"?>
<!DOCTYPE svg PUBLIC "-//W3C//DTD SVG 1.1//EN"
 "http://www.w3.org/Graphics/SVG/1.1/DTD/svg11.dtd">
<!-- Generated by graphviz version 10.0.1 (20240210.2158)
 -->
<!-- Title: xeno_rat_server.Forms.File_manager.InitializeAsync Pages: 1 -->
<!--zoomable 518 -->

<svg id="main" version="1.1" xmlns="http://www.w3.org/2000/svg" xmlns:xlink="http://www.w3.org/1999/xlink" xml:space="preserve" onload="init(evt)">
<style type="text/css"><![CDATA[
.node, .edge {opacity: 0.7;}
.node.selected, .edge.selected {opacity: 1;}
.edge:hover path { stroke: red; }
.edge:hover polygon { stroke: red; fill: red; }
]]></style>

<defs>
  <circle id="rim" cx="0" cy="0" r="7"/>
  <circle id="rim2" cx="0" cy="0" r="3.5"/>
  <g id="zoomPlus">
    <use xlink:href="#rim" fill="#404040"><set attributeName="fill" to="#808080" begin="zoomplus.mouseover" end="zoomplus.mouseout"/></use>
    <path d="M-4,0h8M0,-4v8" fill="none" stroke="white" stroke-width="1.5" pointer-events="none"/>
  </g>
  <g id="zoomMin">
    <use xlink:href="#rim" fill="#404040"><set attributeName="fill" to="#808080" begin="zoomminus.mouseover" end="zoomminus.mouseout"/></use>
    <path d="M-4,0h8" fill="none" stroke="white" stroke-width="1.5" pointer-events="none"/>
  </g>
  <g id="arrowUp" transform="translate(30 24)">
    <use xlink:href="#rim"/>
    <path pointer-events="none" fill="none" stroke="white" stroke-width="1.5" d="M0,-3.0v7 M-2.5,-0.5L0,-3.0L2.5,-0.5"/>
  </g>
  <g id="arrowRight" transform="rotate(90) translate(36 -43)">
    <use xlink:href="#rim"/>
    <path pointer-events="none" fill="none" stroke="white" stroke-width="1.5" d="M0,-3.0v7 M-2.5,-0.5L0,-3.0L2.5,-0.5"/>
  </g>
  <g id="arrowDown" transform="rotate(180) translate(-30 -48)">
    <use xlink:href="#rim"/>
    <path pointer-events="none" fill="none" stroke="white" stroke-width="1.5" d="M0,-3.0v7 M-2.5,-0.5L0,-3.0L2.5,-0.5"/>
  </g>
  <g id="arrowLeft" transform="rotate(270) translate(-36 17)">
    <use xlink:href="#rim"/>
    <path pointer-events="none" fill="none" stroke="white" stroke-width="1.5" d="M0,-3.0v7 M-2.5,-0.5L0,-3.0L2.5,-0.5"/>
  </g>
  <g id="resetDef">
    <use xlink:href="#rim2" fill="#404040"><set attributeName="fill" to="#808080" begin="reset.mouseover" end="reset.mouseout"/></use>
  </g>
</defs>
<script type="application/ecmascript">
var viewWidth = 1350;
var viewHeight = 518;
var sectionId = 'dynsection-19';
</script>
<script type="application/ecmascript" xlink:href="svg.min.js"/>
<svg id="graph" class="graph">
<g id="viewport">
<title>xeno_rat_server.Forms.File_manager.InitializeAsync</title>
<!-- Node1 -->
<g id="Node000001" class="node">
<title>Node1</title>
<g id="a_Node000001"><a xlink:title="Initializes the object asynchronously by creating a FileViewer, sending type, and updating the list v...">
<polygon fill="#999999" stroke="#666666" points="134.5,-367.22 0,-367.22 0,-336.72 134.5,-336.72 134.5,-367.22"/>
<text text-anchor="start" x="8" y="-353.72" font-family="Helvetica,sans-Serif" font-size="10.00">xeno_rat_server.Forms.File</text>
<text text-anchor="middle" x="67.25" y="-342.47" font-family="Helvetica,sans-Serif" font-size="10.00">_manager.InitializeAsync</text>
</a>
</g>
</g>
<!-- Node2 -->
<g id="Node000002" class="node">
<title>Node2</title>
<g id="a_Node000002"><a xlink:href="classxeno__rat__server_1_1_forms_1_1_file__manager.html#a0bb0d51607854ad0bc4f05d05892167b" target="_top" xlink:title="Creates a sub&#45;sub node for the given client node and returns the created node.">
<polygon fill="white" stroke="#666666" points="333.12,-367.22 185.12,-367.22 185.12,-336.72 333.12,-336.72 333.12,-367.22"/>
<text text-anchor="start" x="193.12" y="-353.72" font-family="Helvetica,sans-Serif" font-size="10.00">xeno_rat_server.Forms.File</text>
<text text-anchor="middle" x="259.12" y="-342.47" font-family="Helvetica,sans-Serif" font-size="10.00">_manager.CreateSubSubNode</text>
</a>
</g>
</g>
<!-- Node1&#45;&gt;Node2 -->
<g id="edge1_Node000001_Node000002" class="edge">
<title>Node1&#45;&gt;Node2</title>
<g id="a_edge1_Node000001_Node000002"><a xlink:title=" ">
<path fill="none" stroke="#63b8ff" d="M134.93,-351.97C147.41,-351.97 160.6,-351.97 173.54,-351.97"/>
<polygon fill="#63b8ff" stroke="#63b8ff" points="173.3,-355.47 183.3,-351.97 173.3,-348.47 173.3,-355.47"/>
</a>
</g>
</g>
<!-- Node27 -->
<g id="Node000027" class="node">
<title>Node27</title>
<g id="a_Node000027"><a xlink:href="classxeno__rat__server_1_1_forms_1_1_file_view.html#a9eb6b698d4d699536f31c6b0d6ded9e3" target="_top" xlink:title="Sends the specified type using the client&#39;s SendAsync method.">
<polygon fill="white" stroke="#666666" points="326.38,-475.22 191.88,-475.22 191.88,-444.72 326.38,-444.72 326.38,-475.22"/>
<text text-anchor="start" x="199.88" y="-461.72" font-family="Helvetica,sans-Serif" font-size="10.00">xeno_rat_server.Forms.File</text>
<text text-anchor="middle" x="259.12" y="-450.47" font-family="Helvetica,sans-Serif" font-size="10.00">View.SendType</text>
</a>
</g>
</g>
<!-- Node1&#45;&gt;Node27 -->
<g id="edge38_Node000001_Node000027" class="edge">
<title>Node1&#45;&gt;Node27</title>
<g id="a_edge38_Node000001_Node000027"><a xlink:title=" ">
<path fill="none" stroke="#63b8ff" d="M95.86,-367.67C128.76,-386.39 183.9,-417.75 220.64,-438.65"/>
<polygon fill="#63b8ff" stroke="#63b8ff" points="218.74,-441.6 229.17,-443.5 222.2,-435.51 218.74,-441.6"/>
</a>
</g>
</g>
<!-- Node28 -->
<g id="Node000028" class="node">
<title>Node28</title>
<g id="a_Node000028"><a xlink:href="classxeno__rat__server_1_1_forms_1_1_file__manager.html#a083a998d5ecaef109c8d416336dfa32a" target="_top" xlink:title="Updates the list view without invoking the UI thread, using the provided file path.">
<polygon fill="white" stroke="#666666" points="347.75,-257.22 170.5,-257.22 170.5,-226.72 347.75,-226.72 347.75,-257.22"/>
<text text-anchor="start" x="178.5" y="-243.72" font-family="Helvetica,sans-Serif" font-size="10.00">xeno_rat_server.Forms.File</text>
<text text-anchor="middle" x="259.12" y="-232.47" font-family="Helvetica,sans-Serif" font-size="10.00">_manager.UpdateListViewNonInvoke</text>
</a>
</g>
</g>
<!-- Node1&#45;&gt;Node28 -->
<g id="edge40_Node000001_Node000028" class="edge">
<title>Node1&#45;&gt;Node28</title>
<g id="a_edge40_Node000001_Node000028"><a xlink:title=" ">
<path fill="none" stroke="#63b8ff" d="M95.05,-336.44C128.04,-317.33 184.21,-284.79 221.25,-263.33"/>
<polygon fill="#63b8ff" stroke="#63b8ff" points="222.94,-266.4 229.84,-258.35 219.44,-260.34 222.94,-266.4"/>
</a>
</g>
</g>
<!-- Node3 -->
<g id="Node000003" class="node">
<title>Node3</title>
<g id="a_Node000003"><a xlink:href="classxeno__rat__server_1_1_node.html#a74e11089eb6a14e6921d8f024e40f85b" target="_top" xlink:title="Creates a sub node asynchronously and returns the created node.">
<polygon fill="white" stroke="#666666" points="536.62,-281.22 393.12,-281.22 393.12,-250.72 536.62,-250.72 536.62,-281.22"/>
<text text-anchor="start" x="401.12" y="-267.72" font-family="Helvetica,sans-Serif" font-size="10.00">xeno_rat_server.Node.Create</text>
<text text-anchor="middle" x="464.88" y="-256.47" font-family="Helvetica,sans-Serif" font-size="10.00">SubNodeAsync</text>
</a>
</g>
</g>
<!-- Node2&#45;&gt;Node3 -->
<g id="edge2_Node000002_Node000003" class="edge">
<title>Node2&#45;&gt;Node3</title>
<g id="a_edge2_Node000002_Node000003"><a xlink:title=" ">
<path fill="none" stroke="#63b8ff" d="M292.07,-336.33C316.84,-324.43 352.16,-307.94 383.75,-294.97 391.46,-291.8 399.65,-288.63 407.75,-285.6"/>
<polygon fill="#63b8ff" stroke="#63b8ff" points="408.69,-288.98 416.86,-282.24 406.26,-282.42 408.69,-288.98"/>
</a>
</g>
</g>
<!-- Node5 -->
<g id="Node000005" class="node">
<title>Node5</title>
<g id="a_Node000005"><a xlink:href="classxeno__rat__server_1_1_node.html#a3dcb832502d4cd1dd580897265b2da7b" target="_top" xlink:title="Asynchronously receives data from the socket and returns the received data as a byte array.">
<polygon fill="white" stroke="#666666" points="737.88,-238.22 587.62,-238.22 587.62,-207.72 737.88,-207.72 737.88,-238.22"/>
<text text-anchor="start" x="595.62" y="-224.72" font-family="Helvetica,sans-Serif" font-size="10.00">xeno_rat_server.Node.Receive</text>
<text text-anchor="middle" x="662.75" y="-213.47" font-family="Helvetica,sans-Serif" font-size="10.00">Async</text>
</a>
</g>
</g>
<!-- Node2&#45;&gt;Node5 -->
<g id="edge29_Node000002_Node000005" class="edge">
<title>Node2&#45;&gt;Node5</title>
<g id="a_edge29_Node000002_Node000005"><a xlink:title=" ">
<path fill="none" stroke="#63b8ff" d="M275.1,-336.35C302.09,-308.6 358.46,-252.6 383.75,-241.97 444.46,-216.47 519.21,-212.71 575.9,-214.79"/>
<polygon fill="#63b8ff" stroke="#63b8ff" points="575.69,-218.28 585.84,-215.23 576,-211.29 575.69,-218.28"/>
</a>
</g>
</g>
<!-- Node6 -->
<g id="Node000006" class="node">
<title>Node6</title>
<g id="a_Node000006"><a xlink:href="classxeno__rat__server_1_1_node.html#a8814edd98b6463f49812be32d5928763" target="_top" xlink:title="Sets the isDisposed flag to true and disconnects the socket, disposes resources, and triggers the OnD...">
<polygon fill="white" stroke="#666666" points="943.25,-310.59 779.5,-310.59 779.5,-291.34 943.25,-291.34 943.25,-310.59"/>
<text text-anchor="middle" x="861.38" y="-297.09" font-family="Helvetica,sans-Serif" font-size="10.00">xeno_rat_server.Node.Disconnect</text>
</a>
</g>
</g>
<!-- Node2&#45;&gt;Node6 -->
<g id="edge27_Node000002_Node000006" class="edge">
<title>Node2&#45;&gt;Node6</title>
<g id="a_edge27_Node000002_Node000006"><a xlink:title=" ">
<path fill="none" stroke="#63b8ff" d="M332.42,-336.24C349.2,-333.06 367.04,-330.05 383.75,-327.97 516.52,-311.4 671.38,-304.99 767.67,-302.52"/>
<polygon fill="#63b8ff" stroke="#63b8ff" points="767.69,-306.02 777.6,-302.27 767.52,-299.02 767.69,-306.02"/>
</a>
</g>
</g>
<!-- Node15 -->
<g id="Node000015" class="node">
<title>Node15</title>
<g id="a_Node000015"><a xlink:href="classxeno__rat__server_1_1_node.html#a816e267eb31862d38c21e5faaae3061d" target="_top" xlink:title="Sends the provided data asynchronously and returns a boolean indicating the success of the operation.">
<polygon fill="white" stroke="#666666" points="731.12,-372.22 594.38,-372.22 594.38,-341.72 731.12,-341.72 731.12,-372.22"/>
<text text-anchor="start" x="602.38" y="-358.72" font-family="Helvetica,sans-Serif" font-size="10.00">xeno_rat_server.Node.Send</text>
<text text-anchor="middle" x="662.75" y="-347.47" font-family="Helvetica,sans-Serif" font-size="10.00">Async</text>
</a>
</g>
</g>
<!-- Node2&#45;&gt;Node15 -->
<g id="edge30_Node000002_Node000015" class="edge">
<title>Node2&#45;&gt;Node15</title>
<g id="a_edge30_Node000002_Node000015"><a xlink:title=" ">
<path fill="none" stroke="#63b8ff" d="M328.77,-367.72C346.57,-371.14 365.8,-374.24 383.75,-375.97 455.53,-382.87 474.13,-381.83 546,-375.97 557.97,-374.99 570.56,-373.46 582.86,-371.68"/>
<polygon fill="#63b8ff" stroke="#63b8ff" points="583.18,-375.17 592.54,-370.21 582.13,-368.25 583.18,-375.17"/>
</a>
</g>
</g>
<!-- Node24 -->
<g id="Node000024" class="node">
<title>Node24</title>
<g id="a_Node000024"><a xlink:href="classxeno__rat__server_1_1_socket_handler.html#a7d019c5e4cbd0138d155156c7a7c5a8f" target="_top" xlink:title="Converts an integer to a byte array.">
<polygon fill="white" stroke="#666666" points="1134,-475.22 979.25,-475.22 979.25,-444.72 1134,-444.72 1134,-475.22"/>
<text text-anchor="start" x="987.25" y="-461.72" font-family="Helvetica,sans-Serif" font-size="10.00">xeno_rat_server.SocketHandler.</text>
<text text-anchor="middle" x="1056.62" y="-450.47" font-family="Helvetica,sans-Serif" font-size="10.00">IntToBytes</text>
</a>
</g>
</g>
<!-- Node2&#45;&gt;Node24 -->
<g id="edge28_Node000002_Node000024" class="edge">
<title>Node2&#45;&gt;Node24</title>
<g id="a_edge28_Node000002_Node000024"><a xlink:title=" ">
<path fill="none" stroke="#63b8ff" d="M276.08,-367.32C306.46,-396.37 370.75,-456.95 383.75,-461.97 585.96,-540.08 848.64,-503.73 977.44,-477.94"/>
<polygon fill="#63b8ff" stroke="#63b8ff" points="977.78,-481.45 986.88,-476.02 976.38,-474.59 977.78,-481.45"/>
</a>
</g>
</g>
<!-- Node25 -->
<g id="Node000025" class="node">
<title>Node25</title>
<g id="a_Node000025"><a xlink:href="classxeno__rat__server_1_1_utils.html#a030bdf9f1fd71038666ffc036e855412" target="_top" xlink:title="Asynchronously sets the ID for type 2 node and returns the set ID.">
<polygon fill="white" stroke="#666666" points="528,-453.22 401.75,-453.22 401.75,-422.72 528,-422.72 528,-453.22"/>
<text text-anchor="start" x="409.75" y="-439.72" font-family="Helvetica,sans-Serif" font-size="10.00">xeno_rat_server.Utils.Set</text>
<text text-anchor="middle" x="464.88" y="-428.47" font-family="Helvetica,sans-Serif" font-size="10.00">Type2setIdAsync</text>
</a>
</g>
</g>
<!-- Node2&#45;&gt;Node25 -->
<g id="edge31_Node000002_Node000025" class="edge">
<title>Node2&#45;&gt;Node25</title>
<g id="a_edge31_Node000002_Node000025"><a xlink:title=" ">
<path fill="none" stroke="#63b8ff" d="M292.07,-367.61C316.84,-379.51 352.16,-396 383.75,-408.97 391.46,-412.13 399.65,-415.31 407.75,-418.34"/>
<polygon fill="#63b8ff" stroke="#63b8ff" points="406.26,-421.52 416.86,-421.7 408.69,-414.96 406.26,-421.52"/>
</a>
</g>
</g>
<!-- Node26 -->
<g id="Node000026" class="node">
<title>Node26</title>
<g id="a_Node000026"><a xlink:href="classxeno__rat__server_1_1_utils.html#aa71da7ab50cb922a86010128ab2b94f1" target="_top" xlink:title="Sends a byte array with opcode 3 to the specified subNode if the SockType is 2.">
<polygon fill="white" stroke="#666666" points="546,-367.22 383.75,-367.22 383.75,-336.72 546,-336.72 546,-367.22"/>
<text text-anchor="start" x="391.75" y="-353.72" font-family="Helvetica,sans-Serif" font-size="10.00">xeno_rat_server.Utils.Type2return</text>
<text text-anchor="middle" x="464.88" y="-342.47" font-family="Helvetica,sans-Serif" font-size="10.00">Async</text>
</a>
</g>
</g>
<!-- Node2&#45;&gt;Node26 -->
<g id="edge36_Node000002_Node000026" class="edge">
<title>Node2&#45;&gt;Node26</title>
<g id="a_edge36_Node000002_Node000026"><a xlink:title=" ">
<path fill="none" stroke="#63b8ff" d="M333.4,-351.97C345.93,-351.97 359.08,-351.97 372.02,-351.97"/>
<polygon fill="#63b8ff" stroke="#63b8ff" points="371.81,-355.47 381.81,-351.97 371.81,-348.47 371.81,-355.47"/>
</a>
</g>
</g>
<!-- Node4 -->
<g id="Node000004" class="node">
<title>Node4</title>
<g id="a_Node000004"><a xlink:href="classxeno__rat__server_1_1_node.html#a18e3b7528d2c6e45bb38ce24e319484e" target="_top" xlink:title="Checks if the socket is connected and returns a boolean value indicating the connection status.">
<polygon fill="white" stroke="#666666" points="743.5,-275.59 582,-275.59 582,-256.34 743.5,-256.34 743.5,-275.59"/>
<text text-anchor="middle" x="662.75" y="-262.09" font-family="Helvetica,sans-Serif" font-size="10.00">xeno_rat_server.Node.Connected</text>
</a>
</g>
</g>
<!-- Node3&#45;&gt;Node4 -->
<g id="edge3_Node000003_Node000004" class="edge">
<title>Node3&#45;&gt;Node4</title>
<g id="a_edge3_Node000003_Node000004"><a xlink:title=" ">
<path fill="none" stroke="#63b8ff" d="M536.87,-265.97C547.79,-265.97 559.19,-265.97 570.48,-265.97"/>
<polygon fill="#63b8ff" stroke="#63b8ff" points="570.19,-269.47 580.19,-265.97 570.19,-262.47 570.19,-269.47"/>
</a>
</g>
</g>
<!-- Node3&#45;&gt;Node5 -->
<g id="edge4_Node000003_Node000005" class="edge">
<title>Node3&#45;&gt;Node5</title>
<g id="a_edge4_Node000003_Node000005"><a xlink:title=" ">
<path fill="none" stroke="#63b8ff" d="M536.87,-250.38C550.52,-247.39 564.92,-244.23 578.91,-241.16"/>
<polygon fill="#63b8ff" stroke="#63b8ff" points="579.52,-244.61 588.54,-239.04 578.02,-237.77 579.52,-244.61"/>
</a>
</g>
</g>
<!-- Node3&#45;&gt;Node15 -->
<g id="edge16_Node000003_Node000015" class="edge">
<title>Node3&#45;&gt;Node15</title>
<g id="a_edge16_Node000003_Node000015"><a xlink:title=" ">
<path fill="none" stroke="#63b8ff" d="M499.55,-281.61C532.2,-296.78 581.92,-319.88 617.7,-336.51"/>
<polygon fill="#63b8ff" stroke="#63b8ff" points="615.95,-339.55 626.49,-340.59 618.89,-333.2 615.95,-339.55"/>
</a>
</g>
</g>
<!-- Node5&#45;&gt;Node6 -->
<g id="edge5_Node000005_Node000006" class="edge">
<title>Node5&#45;&gt;Node6</title>
<g id="a_edge5_Node000005_Node000006"><a xlink:title=" ">
<path fill="none" stroke="#63b8ff" d="M719.43,-238.63C727.57,-241.24 735.79,-244.05 743.5,-246.97 773.81,-258.47 807.29,-274.27 830.62,-285.81"/>
<polygon fill="#63b8ff" stroke="#63b8ff" points="829.02,-288.92 839.53,-290.26 832.15,-282.66 829.02,-288.92"/>
</a>
</g>
</g>
<!-- Node7 -->
<g id="Node000007" class="node">
<title>Node7</title>
<g id="a_Node000007"><a xlink:href="classxeno__rat__server_1_1_socket_handler.html#a40a6f3b7eb555e8d688ea5c0074ffa2c" target="_top" xlink:title="Asynchronously receives data and processes it according to the protocol, then returns the processed d...">
<polygon fill="white" stroke="#666666" points="938.75,-187.22 784,-187.22 784,-156.72 938.75,-156.72 938.75,-187.22"/>
<text text-anchor="start" x="792" y="-173.72" font-family="Helvetica,sans-Serif" font-size="10.00">xeno_rat_server.SocketHandler.</text>
<text text-anchor="middle" x="861.38" y="-162.47" font-family="Helvetica,sans-Serif" font-size="10.00">ReceiveAsync</text>
</a>
</g>
</g>
<!-- Node5&#45;&gt;Node7 -->
<g id="edge7_Node000005_Node000007" class="edge">
<title>Node5&#45;&gt;Node7</title>
<g id="a_edge7_Node000005_Node000007"><a xlink:title=" ">
<path fill="none" stroke="#63b8ff" d="M724.35,-207.25C744.82,-201.94 767.85,-195.97 789.07,-190.46"/>
<polygon fill="#63b8ff" stroke="#63b8ff" points="789.71,-193.91 798.51,-188.02 787.95,-187.14 789.71,-193.91"/>
</a>
</g>
</g>
<!-- Node6&#45;&gt;Node6 -->
<g id="edge6_Node000006_Node000006" class="edge">
<title>Node6&#45;&gt;Node6</title>
<g id="a_edge6_Node000006_Node000006"><a xlink:title=" ">
<path fill="none" stroke="#63b8ff" d="M830.81,-310.88C816.86,-319.49 827.05,-328.59 861.38,-328.59 881.22,-328.59 892.99,-325.55 896.7,-321.32"/>
<polygon fill="#63b8ff" stroke="#63b8ff" points="899.91,-319.91 892.57,-312.26 893.54,-322.81 899.91,-319.91"/>
</a>
</g>
</g>
<!-- Node8 -->
<g id="Node000008" class="node">
<title>Node8</title>
<g id="a_Node000008"><a xlink:href="classxeno__rat__server_1_1_socket_handler.html#a53169a2098514698865b69c8fab12f77" target="_top" xlink:title="Truncates the input byte array starting from the specified offset and returns the truncated byte arra...">
<polygon fill="white" stroke="#666666" points="1134,-230.22 979.25,-230.22 979.25,-199.72 1134,-199.72 1134,-230.22"/>
<text text-anchor="start" x="987.25" y="-216.72" font-family="Helvetica,sans-Serif" font-size="10.00">xeno_rat_server.SocketHandler.</text>
<text text-anchor="middle" x="1056.62" y="-205.47" font-family="Helvetica,sans-Serif" font-size="10.00">BTruncate</text>
</a>
</g>
</g>
<!-- Node7&#45;&gt;Node8 -->
<g id="edge8_Node000007_Node000008" class="edge">
<title>Node7&#45;&gt;Node8</title>
<g id="a_edge8_Node000007_Node000008"><a xlink:title=" ">
<path fill="none" stroke="#63b8ff" d="M932.96,-187.68C946.32,-190.65 960.39,-193.78 974.06,-196.82"/>
<polygon fill="#63b8ff" stroke="#63b8ff" points="972.91,-200.15 983.43,-198.9 974.43,-193.32 972.91,-200.15"/>
</a>
</g>
</g>
<!-- Node9 -->
<g id="Node000009" class="node">
<title>Node9</title>
<g id="a_Node000009"><a xlink:href="classxeno__rat__server_1_1_socket_handler.html#a68836e871124cbda8a644223a73421d0" target="_top" xlink:title="Converts the specified byte array to an integer value.">
<polygon fill="white" stroke="#666666" points="1333.38,-46.22 1178.62,-46.22 1178.62,-15.72 1333.38,-15.72 1333.38,-46.22"/>
<text text-anchor="start" x="1186.62" y="-32.72" font-family="Helvetica,sans-Serif" font-size="10.00">xeno_rat_server.SocketHandler.</text>
<text text-anchor="middle" x="1256" y="-21.47" font-family="Helvetica,sans-Serif" font-size="10.00">BytesToInt</text>
</a>
</g>
</g>
<!-- Node7&#45;&gt;Node9 -->
<g id="edge9_Node000007_Node000009" class="edge">
<title>Node7&#45;&gt;Node9</title>
<g id="a_edge9_Node000007_Node000009"><a xlink:title=" ">
<path fill="none" stroke="#63b8ff" d="M939.1,-180.63C995.53,-183.74 1072.76,-181.03 1134,-152.97 1180.09,-131.85 1218.32,-85 1238.8,-55.89"/>
<polygon fill="#63b8ff" stroke="#63b8ff" points="1241.68,-57.89 1244.44,-47.66 1235.9,-53.93 1241.68,-57.89"/>
</a>
</g>
</g>
<!-- Node10 -->
<g id="Node000010" class="node">
<title>Node10</title>
<g id="a_Node000010"><a xlink:href="classxeno__rat__server_1_1_compression.html#ad992bb75126d7c346fe7884dbbcf8ad8" target="_top" xlink:title="Decompresses the input buffer using the LZNT1 compression format and returns the decompressed data.">
<polygon fill="white" stroke="#666666" points="1131,-279.22 982.25,-279.22 982.25,-248.72 1131,-248.72 1131,-279.22"/>
<text text-anchor="start" x="990.25" y="-265.72" font-family="Helvetica,sans-Serif" font-size="10.00">xeno_rat_server.Compression.</text>
<text text-anchor="middle" x="1056.62" y="-254.47" font-family="Helvetica,sans-Serif" font-size="10.00">Decompress</text>
</a>
</g>
</g>
<!-- Node7&#45;&gt;Node10 -->
<g id="edge10_Node000007_Node000010" class="edge">
<title>Node7&#45;&gt;Node10</title>
<g id="a_edge10_Node000007_Node000010"><a xlink:title=" ">
<path fill="none" stroke="#63b8ff" d="M886.24,-187.59C909.34,-202.23 945.7,-224.05 979.25,-238.97 983.48,-240.85 987.9,-242.66 992.38,-244.4"/>
<polygon fill="#63b8ff" stroke="#63b8ff" points="990.9,-247.58 1001.49,-247.76 993.32,-241.01 990.9,-247.58"/>
</a>
</g>
</g>
<!-- Node12 -->
<g id="Node000012" class="node">
<title>Node12</title>
<g id="a_Node000012"><a xlink:href="classxeno__rat__server_1_1_encryption.html#ae2a6537578e2140511afe92f8ad5e964" target="_top" xlink:title="Decrypts the input data using the provided key and returns the decrypted result.">
<polygon fill="white" stroke="#666666" points="1125.38,-144.22 987.88,-144.22 987.88,-113.72 1125.38,-113.72 1125.38,-144.22"/>
<text text-anchor="start" x="995.88" y="-130.72" font-family="Helvetica,sans-Serif" font-size="10.00">xeno_rat_server.Encryption.</text>
<text text-anchor="middle" x="1056.62" y="-119.47" font-family="Helvetica,sans-Serif" font-size="10.00">Decrypt</text>
</a>
</g>
</g>
<!-- Node7&#45;&gt;Node12 -->
<g id="edge12_Node000007_Node000012" class="edge">
<title>Node7&#45;&gt;Node12</title>
<g id="a_edge12_Node000007_Node000012"><a xlink:title=" ">
<path fill="none" stroke="#63b8ff" d="M932.96,-156.26C947.14,-153.11 962.12,-149.77 976.57,-146.56"/>
<polygon fill="#63b8ff" stroke="#63b8ff" points="977.01,-150.05 986.01,-144.46 975.49,-143.22 977.01,-150.05"/>
</a>
</g>
</g>
<!-- Node13 -->
<g id="Node000013" class="node">
<title>Node13</title>
<g id="a_Node000013"><a xlink:href="classxeno__rat__server_1_1_socket_handler.html#aeefcafd750efab21954bd772b8ae565d" target="_top" xlink:title="Parses the header from the provided byte array and returns the parsed header object.">
<polygon fill="white" stroke="#666666" points="1134,-46.22 979.25,-46.22 979.25,-15.72 1134,-15.72 1134,-46.22"/>
<text text-anchor="start" x="987.25" y="-32.72" font-family="Helvetica,sans-Serif" font-size="10.00">xeno_rat_server.SocketHandler.</text>
<text text-anchor="middle" x="1056.62" y="-21.47" font-family="Helvetica,sans-Serif" font-size="10.00">ParseHeader</text>
</a>
</g>
</g>
<!-- Node7&#45;&gt;Node13 -->
<g id="edge13_Node000007_Node000013" class="edge">
<title>Node7&#45;&gt;Node13</title>
<g id="a_edge13_Node000007_Node000013"><a xlink:title=" ">
<path fill="none" stroke="#63b8ff" d="M873.95,-156.52C893.19,-131.86 934.13,-83.57 979.25,-55.97 981.98,-54.3 984.84,-52.72 987.78,-51.25"/>
<polygon fill="#63b8ff" stroke="#63b8ff" points="988.99,-54.54 996.64,-47.2 986.08,-48.17 988.99,-54.54"/>
</a>
</g>
</g>
<!-- Node14 -->
<g id="Node000014" class="node">
<title>Node14</title>
<g id="a_Node000014"><a xlink:href="classxeno__rat__server_1_1_socket_handler.html#acc7e34649fee5060867a2321dd15d854" target="_top" xlink:title="Asynchronously receives all the data of the specified size from the connected socket and returns the ...">
<polygon fill="white" stroke="#666666" points="1134,-95.22 979.25,-95.22 979.25,-64.72 1134,-64.72 1134,-95.22"/>
<text text-anchor="start" x="987.25" y="-81.72" font-family="Helvetica,sans-Serif" font-size="10.00">xeno_rat_server.SocketHandler.</text>
<text text-anchor="middle" x="1056.62" y="-70.47" font-family="Helvetica,sans-Serif" font-size="10.00">RecvAllAsync_ddos_unsafer</text>
</a>
</g>
</g>
<!-- Node7&#45;&gt;Node14 -->
<g id="edge15_Node000007_Node000014" class="edge">
<title>Node7&#45;&gt;Node14</title>
<g id="a_edge15_Node000007_Node000014"><a xlink:title=" ">
<path fill="none" stroke="#63b8ff" d="M886.24,-156.35C909.34,-141.71 945.7,-119.89 979.25,-104.97 983.48,-103.09 987.9,-101.27 992.38,-99.54"/>
<polygon fill="#63b8ff" stroke="#63b8ff" points="993.32,-102.93 1001.49,-96.18 990.9,-96.36 993.32,-102.93"/>
</a>
</g>
</g>
<!-- Node11 -->
<g id="Node000011" class="node">
<title>Node11</title>
<g id="a_Node000011"><a xlink:href="classxeno__rat__server_1_1_compression.html#a1c901d319793d3855012549e6a18fe53" target="_top" xlink:title="Decompresses a buffer using the specified compression format and returns the decompressed data.">
<polygon fill="white" stroke="#666666" points="1330.38,-230.22 1181.62,-230.22 1181.62,-199.72 1330.38,-199.72 1330.38,-230.22"/>
<text text-anchor="start" x="1189.62" y="-216.72" font-family="Helvetica,sans-Serif" font-size="10.00">xeno_rat_server.Compression.</text>
<text text-anchor="middle" x="1256" y="-205.47" font-family="Helvetica,sans-Serif" font-size="10.00">RtlDecompressBuffer</text>
</a>
</g>
</g>
<!-- Node10&#45;&gt;Node11 -->
<g id="edge11_Node000010_Node000011" class="edge">
<title>Node10&#45;&gt;Node11</title>
<g id="a_edge11_Node000010_Node000011"><a xlink:title=" ">
<path fill="none" stroke="#63b8ff" d="M1120.89,-248.26C1139.92,-243.54 1160.99,-238.31 1180.67,-233.42"/>
<polygon fill="#63b8ff" stroke="#63b8ff" points="1181.42,-236.84 1190.29,-231.04 1179.74,-230.05 1181.42,-236.84"/>
</a>
</g>
</g>
<!-- Node13&#45;&gt;Node9 -->
<g id="edge14_Node000013_Node000009" class="edge">
<title>Node13&#45;&gt;Node9</title>
<g id="a_edge14_Node000013_Node000009"><a xlink:title=" ">
<path fill="none" stroke="#63b8ff" d="M1134.22,-30.97C1144.91,-30.97 1155.98,-30.97 1166.86,-30.97"/>
<polygon fill="#63b8ff" stroke="#63b8ff" points="1166.61,-34.47 1176.61,-30.97 1166.61,-27.47 1166.61,-34.47"/>
</a>
</g>
</g>
<!-- Node15&#45;&gt;Node6 -->
<g id="edge17_Node000015_Node000006" class="edge">
<title>Node15&#45;&gt;Node6</title>
<g id="a_edge17_Node000015_Node000006"><a xlink:title=" ">
<path fill="none" stroke="#63b8ff" d="M719.04,-341.22C749.03,-332.68 785.66,-322.25 814.12,-314.14"/>
<polygon fill="#63b8ff" stroke="#63b8ff" points="814.87,-317.57 823.52,-311.46 812.95,-310.84 814.87,-317.57"/>
</a>
</g>
</g>
<!-- Node16 -->
<g id="Node000016" class="node">
<title>Node16</title>
<g id="a_Node000016"><a xlink:href="classxeno__rat__server_1_1_socket_handler.html#a85ca8385d023521cdb86ff8ae688adee" target="_top" xlink:title="Sends the provided data asynchronously over the socket.">
<polygon fill="white" stroke="#666666" points="938.75,-377.22 784,-377.22 784,-346.72 938.75,-346.72 938.75,-377.22"/>
<text text-anchor="start" x="792" y="-363.72" font-family="Helvetica,sans-Serif" font-size="10.00">xeno_rat_server.SocketHandler.</text>
<text text-anchor="middle" x="861.38" y="-352.47" font-family="Helvetica,sans-Serif" font-size="10.00">SendAsync</text>
</a>
</g>
</g>
<!-- Node15&#45;&gt;Node16 -->
<g id="edge18_Node000015_Node000016" class="edge">
<title>Node15&#45;&gt;Node16</title>
<g id="a_edge18_Node000015_Node000016"><a xlink:title=" ">
<path fill="none" stroke="#63b8ff" d="M731.42,-358.69C744.61,-359.03 758.62,-359.38 772.36,-359.73"/>
<polygon fill="#63b8ff" stroke="#63b8ff" points="772.21,-363.23 782.3,-359.98 772.39,-356.23 772.21,-363.23"/>
</a>
</g>
</g>
<!-- Node17 -->
<g id="Node000017" class="node">
<title>Node17</title>
<g id="a_Node000017"><a xlink:href="classxeno__rat__server_1_1_compression.html#a0f3f31a2fe34d92bf04538b2fdf529e0" target="_top" xlink:title="Compresses the input buffer using the LZNT1 compression format and returns the compressed data.">
<polygon fill="white" stroke="#666666" points="1131,-328.22 982.25,-328.22 982.25,-297.72 1131,-297.72 1131,-328.22"/>
<text text-anchor="start" x="990.25" y="-314.72" font-family="Helvetica,sans-Serif" font-size="10.00">xeno_rat_server.Compression.</text>
<text text-anchor="middle" x="1056.62" y="-303.47" font-family="Helvetica,sans-Serif" font-size="10.00">Compress</text>
</a>
</g>
</g>
<!-- Node16&#45;&gt;Node17 -->
<g id="edge19_Node000016_Node000017" class="edge">
<title>Node16&#45;&gt;Node17</title>
<g id="a_edge19_Node000016_Node000017"><a xlink:title=" ">
<path fill="none" stroke="#63b8ff" d="M924.32,-346.26C942.87,-341.56 963.38,-336.36 982.58,-331.49"/>
<polygon fill="#63b8ff" stroke="#63b8ff" points="983.4,-334.89 992.23,-329.04 981.68,-328.11 983.4,-334.89"/>
</a>
</g>
</g>
<!-- Node22 -->
<g id="Node000022" class="node">
<title>Node22</title>
<g id="a_Node000022"><a xlink:href="classxeno__rat__server_1_1_socket_handler.html#a4f2e993b63cf1bba877781c9be2ed496" target="_top" xlink:title="Concatenates two byte arrays and returns the result.">
<polygon fill="white" stroke="#666666" points="1134,-426.22 979.25,-426.22 979.25,-395.72 1134,-395.72 1134,-426.22"/>
<text text-anchor="start" x="987.25" y="-412.72" font-family="Helvetica,sans-Serif" font-size="10.00">xeno_rat_server.SocketHandler.</text>
<text text-anchor="middle" x="1056.62" y="-401.47" font-family="Helvetica,sans-Serif" font-size="10.00">Concat</text>
</a>
</g>
</g>
<!-- Node16&#45;&gt;Node22 -->
<g id="edge24_Node000016_Node000022" class="edge">
<title>Node16&#45;&gt;Node22</title>
<g id="a_edge24_Node000016_Node000022"><a xlink:title=" ">
<path fill="none" stroke="#63b8ff" d="M924.32,-377.68C942.87,-382.38 963.38,-387.58 982.58,-392.45"/>
<polygon fill="#63b8ff" stroke="#63b8ff" points="981.68,-395.83 992.23,-394.9 983.4,-389.05 981.68,-395.83"/>
</a>
</g>
</g>
<!-- Node23 -->
<g id="Node000023" class="node">
<title>Node23</title>
<g id="a_Node000023"><a xlink:href="classxeno__rat__server_1_1_encryption.html#a0fafecaba804cb57663bdbb4dcc4e93f" target="_top" xlink:title="Encrypts the input data using the provided key and returns the encrypted result.">
<polygon fill="white" stroke="#666666" points="1125.38,-377.22 987.88,-377.22 987.88,-346.72 1125.38,-346.72 1125.38,-377.22"/>
<text text-anchor="start" x="995.88" y="-363.72" font-family="Helvetica,sans-Serif" font-size="10.00">xeno_rat_server.Encryption.</text>
<text text-anchor="middle" x="1056.62" y="-352.47" font-family="Helvetica,sans-Serif" font-size="10.00">Encrypt</text>
</a>
</g>
</g>
<!-- Node16&#45;&gt;Node23 -->
<g id="edge25_Node000016_Node000023" class="edge">
<title>Node16&#45;&gt;Node23</title>
<g id="a_edge25_Node000016_Node000023"><a xlink:title=" ">
<path fill="none" stroke="#63b8ff" d="M939.03,-361.97C951.29,-361.97 964.01,-361.97 976.33,-361.97"/>
<polygon fill="#63b8ff" stroke="#63b8ff" points="976,-365.47 986,-361.97 976,-358.47 976,-365.47"/>
</a>
</g>
</g>
<!-- Node16&#45;&gt;Node24 -->
<g id="edge26_Node000016_Node000024" class="edge">
<title>Node16&#45;&gt;Node24</title>
<g id="a_edge26_Node000016_Node000024"><a xlink:title=" ">
<path fill="none" stroke="#63b8ff" d="M883.88,-377.63C906.66,-393.68 944.14,-418.56 979.25,-434.97 983.19,-436.81 987.3,-438.58 991.49,-440.25"/>
<polygon fill="#63b8ff" stroke="#63b8ff" points="989.98,-443.42 1000.57,-443.7 992.46,-436.88 989.98,-443.42"/>
</a>
</g>
</g>
<!-- Node18 -->
<g id="Node000018" class="node">
<title>Node18</title>
<g id="a_Node000018"><a xlink:href="classxeno__rat__server_1_1_compression.html#ae86c8cb19fb340173e6b06816907c485" target="_top" xlink:title="Allocates the specified number of bytes in the local heap and returns a pointer to the allocated memo...">
<polygon fill="white" stroke="#666666" points="1330.38,-426.22 1181.62,-426.22 1181.62,-395.72 1330.38,-395.72 1330.38,-426.22"/>
<text text-anchor="start" x="1189.62" y="-412.72" font-family="Helvetica,sans-Serif" font-size="10.00">xeno_rat_server.Compression.</text>
<text text-anchor="middle" x="1256" y="-401.47" font-family="Helvetica,sans-Serif" font-size="10.00">LocalAlloc</text>
</a>
</g>
</g>
<!-- Node17&#45;&gt;Node18 -->
<g id="edge20_Node000017_Node000018" class="edge">
<title>Node17&#45;&gt;Node18</title>
<g id="a_edge20_Node000017_Node000018"><a xlink:title=" ">
<path fill="none" stroke="#63b8ff" d="M1117.74,-328.65C1123.48,-331.31 1129.01,-334.39 1134,-337.97 1155.68,-353.5 1148.09,-370.77 1170,-385.97 1172.1,-387.43 1174.3,-388.81 1176.55,-390.1"/>
<polygon fill="#63b8ff" stroke="#63b8ff" points="1174.95,-393.22 1185.46,-394.61 1178.12,-386.97 1174.95,-393.22"/>
</a>
</g>
</g>
<!-- Node19 -->
<g id="Node000019" class="node">
<title>Node19</title>
<g id="a_Node000019"><a xlink:href="classxeno__rat__server_1_1_compression.html#ab527e0a594d96bbaa1a4b1541888aa74" target="_top" xlink:title="Frees the memory block allocated by LocalAlloc and LocalReAlloc and invalidates the handle.">
<polygon fill="white" stroke="#666666" points="1330.38,-377.22 1181.62,-377.22 1181.62,-346.72 1330.38,-346.72 1330.38,-377.22"/>
<text text-anchor="start" x="1189.62" y="-363.72" font-family="Helvetica,sans-Serif" font-size="10.00">xeno_rat_server.Compression.</text>
<text text-anchor="middle" x="1256" y="-352.47" font-family="Helvetica,sans-Serif" font-size="10.00">LocalFree</text>
</a>
</g>
</g>
<!-- Node17&#45;&gt;Node19 -->
<g id="edge21_Node000017_Node000019" class="edge">
<title>Node17&#45;&gt;Node19</title>
<g id="a_edge21_Node000017_Node000019"><a xlink:title=" ">
<path fill="none" stroke="#63b8ff" d="M1120.89,-328.68C1139.92,-333.4 1160.99,-338.63 1180.67,-343.52"/>
<polygon fill="#63b8ff" stroke="#63b8ff" points="1179.74,-346.89 1190.29,-345.9 1181.42,-340.1 1179.74,-346.89"/>
</a>
</g>
</g>
<!-- Node20 -->
<g id="Node000020" class="node">
<title>Node20</title>
<g id="a_Node000020"><a xlink:href="classxeno__rat__server_1_1_compression.html#a1f9bb20d96d13bdc4d0f90e2b68d4343" target="_top" xlink:title="Compresses the input buffer using the specified compression format and returns the compressed data in...">
<polygon fill="white" stroke="#666666" points="1330.38,-328.22 1181.62,-328.22 1181.62,-297.72 1330.38,-297.72 1330.38,-328.22"/>
<text text-anchor="start" x="1189.62" y="-314.72" font-family="Helvetica,sans-Serif" font-size="10.00">xeno_rat_server.Compression.</text>
<text text-anchor="middle" x="1256" y="-303.47" font-family="Helvetica,sans-Serif" font-size="10.00">RtlCompressBuffer</text>
</a>
</g>
</g>
<!-- Node17&#45;&gt;Node20 -->
<g id="edge22_Node000017_Node000020" class="edge">
<title>Node17&#45;&gt;Node20</title>
<g id="a_edge22_Node000017_Node000020"><a xlink:title=" ">
<path fill="none" stroke="#63b8ff" d="M1131.4,-312.97C1144.02,-312.97 1157.22,-312.97 1170.1,-312.97"/>
<polygon fill="#63b8ff" stroke="#63b8ff" points="1169.8,-316.47 1179.8,-312.97 1169.8,-309.47 1169.8,-316.47"/>
</a>
</g>
</g>
<!-- Node21 -->
<g id="Node000021" class="node">
<title>Node21</title>
<g id="a_Node000021"><a xlink:href="classxeno__rat__server_1_1_compression.html#a5ca090d7b0887e40753bad9800c321e7" target="_top" xlink:title="Retrieves the size of the workspace required for compression.">
<polygon fill="white" stroke="#666666" points="1342,-279.22 1170,-279.22 1170,-248.72 1342,-248.72 1342,-279.22"/>
<text text-anchor="start" x="1178" y="-265.72" font-family="Helvetica,sans-Serif" font-size="10.00">xeno_rat_server.Compression.</text>
<text text-anchor="middle" x="1256" y="-254.47" font-family="Helvetica,sans-Serif" font-size="10.00">RtlGetCompressionWorkSpaceSize</text>
</a>
</g>
</g>
<!-- Node17&#45;&gt;Node21 -->
<g id="edge23_Node000017_Node000021" class="edge">
<title>Node17&#45;&gt;Node21</title>
<g id="a_edge23_Node000017_Node000021"><a xlink:title=" ">
<path fill="none" stroke="#63b8ff" d="M1120.89,-297.26C1139.92,-292.54 1160.99,-287.31 1180.67,-282.42"/>
<polygon fill="#63b8ff" stroke="#63b8ff" points="1181.42,-285.84 1190.29,-280.04 1179.74,-279.05 1181.42,-285.84"/>
</a>
</g>
</g>
<!-- Node25&#45;&gt;Node5 -->
<g id="edge34_Node000025_Node000005" class="edge">
<title>Node25&#45;&gt;Node5</title>
<g id="a_edge34_Node000025_Node000005"><a xlink:title=" ">
<path fill="none" stroke="#63b8ff" d="M494.55,-422.23C511.83,-411.36 532.94,-395.38 546,-375.97 579.23,-326.58 540.34,-289.48 582,-246.97 582.49,-246.47 582.99,-245.98 583.5,-245.5"/>
<polygon fill="#63b8ff" stroke="#63b8ff" points="585.5,-248.37 591.3,-239.5 581.24,-242.83 585.5,-248.37"/>
</a>
</g>
</g>
<!-- Node25&#45;&gt;Node15 -->
<g id="edge35_Node000025_Node000015" class="edge">
<title>Node25&#45;&gt;Node15</title>
<g id="a_edge35_Node000025_Node000015"><a xlink:title=" ">
<path fill="none" stroke="#63b8ff" d="M512,-422.31C523.22,-418.22 535.12,-413.64 546,-408.97 562.44,-401.91 565.76,-398.48 582,-390.97 592.04,-386.33 602.88,-381.55 613.24,-377.09"/>
<polygon fill="#63b8ff" stroke="#63b8ff" points="614.6,-380.32 622.42,-373.18 611.85,-373.88 614.6,-380.32"/>
</a>
</g>
</g>
<!-- Node25&#45;&gt;Node22 -->
<g id="edge32_Node000025_Node000022" class="edge">
<title>Node25&#45;&gt;Node22</title>
<g id="a_edge32_Node000025_Node000022"><a xlink:title=" ">
<path fill="none" stroke="#63b8ff" d="M528.43,-435.11C633.83,-430.28 847.05,-420.52 967.54,-415"/>
<polygon fill="#63b8ff" stroke="#63b8ff" points="967.56,-418.51 977.39,-414.55 967.24,-411.51 967.56,-418.51"/>
</a>
</g>
</g>
<!-- Node25&#45;&gt;Node24 -->
<g id="edge33_Node000025_Node000024" class="edge">
<title>Node25&#45;&gt;Node24</title>
<g id="a_edge33_Node000025_Node000024"><a xlink:title=" ">
<path fill="none" stroke="#63b8ff" d="M528.43,-440.3C633.83,-444.23 847.05,-452.19 967.54,-456.68"/>
<polygon fill="#63b8ff" stroke="#63b8ff" points="967.27,-460.18 977.39,-457.05 967.53,-453.18 967.27,-460.18"/>
</a>
</g>
</g>
<!-- Node26&#45;&gt;Node15 -->
<g id="edge37_Node000026_Node000015" class="edge">
<title>Node26&#45;&gt;Node15</title>
<g id="a_edge37_Node000026_Node000015"><a xlink:title=" ">
<path fill="none" stroke="#63b8ff" d="M546.39,-354.02C558.39,-354.33 570.74,-354.65 582.71,-354.95"/>
<polygon fill="#63b8ff" stroke="#63b8ff" points="582.43,-358.45 592.52,-355.2 582.61,-351.45 582.43,-358.45"/>
</a>
</g>
</g>
<!-- Node27&#45;&gt;Node15 -->
<g id="edge39_Node000027_Node000015" class="edge">
<title>Node27&#45;&gt;Node15</title>
<g id="a_edge39_Node000027_Node000015"><a xlink:title=" ">
<path fill="none" stroke="#63b8ff" d="M326.73,-473.87C386.3,-483.22 474.93,-489.4 546,-461.97 587.7,-445.87 623.67,-407 644.02,-381.34"/>
<polygon fill="#63b8ff" stroke="#63b8ff" points="646.53,-383.81 649.86,-373.75 640.99,-379.54 646.53,-383.81"/>
</a>
</g>
</g>
<!-- Node29 -->
<g id="Node000029" class="node">
<title>Node29</title>
<g id="a_Node000029"><a xlink:href="classxeno__rat__server_1_1_forms_1_1_file_view.html#a5ce44efa20d5f3a71da3260cbfe2e80f" target="_top" xlink:title="Retrieves information about the files and directories at the specified path.">
<polygon fill="white" stroke="#666666" points="532.12,-195.22 397.62,-195.22 397.62,-164.72 532.12,-164.72 532.12,-195.22"/>
<text text-anchor="start" x="405.62" y="-181.72" font-family="Helvetica,sans-Serif" font-size="10.00">xeno_rat_server.Forms.File</text>
<text text-anchor="middle" x="464.88" y="-170.47" font-family="Helvetica,sans-Serif" font-size="10.00">View.GetInfo</text>
</a>
</g>
</g>
<!-- Node28&#45;&gt;Node29 -->
<g id="edge41_Node000028_Node000029" class="edge">
<title>Node28&#45;&gt;Node29</title>
<g id="a_edge41_Node000028_Node000029"><a xlink:title=" ">
<path fill="none" stroke="#63b8ff" d="M311.8,-226.24C339.09,-217.94 372.78,-207.69 401.51,-198.95"/>
<polygon fill="#63b8ff" stroke="#63b8ff" points="402.26,-202.38 410.8,-196.12 400.22,-195.68 402.26,-202.38"/>
</a>
</g>
</g>
<!-- Node29&#45;&gt;Node5 -->
<g id="edge43_Node000029_Node000005" class="edge">
<title>Node29&#45;&gt;Node5</title>
<g id="a_edge43_Node000029_Node000005"><a xlink:title=" ">
<path fill="none" stroke="#63b8ff" d="M532.46,-194.59C547.46,-197.88 563.55,-201.41 579.11,-204.83"/>
<polygon fill="#63b8ff" stroke="#63b8ff" points="578.32,-208.24 588.84,-206.96 579.82,-201.4 578.32,-208.24"/>
</a>
</g>
</g>
<!-- Node29&#45;&gt;Node9 -->
<g id="edge42_Node000029_Node000009" class="edge">
<title>Node29&#45;&gt;Node9</title>
<g id="a_edge42_Node000029_Node000009"><a xlink:title=" ">
<path fill="none" stroke="#63b8ff" d="M499.74,-164.23C580.52,-127.65 791.77,-37.71 979.25,-6.97 1047.12,4.16 1065.55,-0.25 1134,-6.97 1147.87,-8.33 1162.52,-10.55 1176.64,-13.11"/>
<polygon fill="#63b8ff" stroke="#63b8ff" points="1175.87,-16.53 1186.34,-14.94 1177.16,-9.65 1175.87,-16.53"/>
</a>
</g>
</g>
<!-- Node29&#45;&gt;Node15 -->
<g id="edge44_Node000029_Node000015" class="edge">
<title>Node29&#45;&gt;Node15</title>
<g id="a_edge44_Node000029_Node000015"><a xlink:title=" ">
<path fill="none" stroke="#63b8ff" d="M488.68,-195.6C505.32,-207.47 528,-224.65 546,-241.97 563.96,-259.25 564.71,-267.02 582,-284.97 598.71,-302.31 618.84,-320.47 634.7,-334.22"/>
<polygon fill="#63b8ff" stroke="#63b8ff" points="632.01,-336.52 641.88,-340.38 636.57,-331.21 632.01,-336.52"/>
</a>
</g>
</g>
</g>
</svg>

<g id="navigator" transform="translate(0 0)" fill="#404254">
  <rect fill="#f2f5e9" fill-opacity="0.5" stroke="#606060" stroke-width=".5" x="0" y="0" width="60" height="60"/>
  <use id="zoomplus" xlink:href="#zoomPlus" x="17" y="9" onmousedown="handleZoom(evt,'in')"/>
  <use id="zoomminus" xlink:href="#zoomMin" x="42" y="9" onmousedown="handleZoom(evt,'out')"/>
  <use id="reset" xlink:href="#resetDef" x="30" y="36" onmousedown="handleReset()"/>
   <use id="arrowup" xlink:href="#arrowUp" x="0" y="0" onmousedown="handlePan(0,-1)"/>
  <use id="arrowright" xlink:href="#arrowRight" x="0" y="0" onmousedown="handlePan(1,0)"/>
  <use id="arrowdown" xlink:href="#arrowDown" x="0" y="0" onmousedown="handlePan(0,1)"/>
  <use id="arrowleft" xlink:href="#arrowLeft" x="0" y="0" onmousedown="handlePan(-1,0)"/>
</g>
<svg viewBox="0 0 15 15" width="100%" height="30px" preserveAspectRatio="xMaxYMin meet">
 <g id="arrow_out" transform="scale(0.3 0.3)">
  <a xlink:href="classxeno__rat__server_1_1_forms_1_1_file__manager_aea9c6d166f9c6f554e8aaa3db9783ab3_cgraph_org.svg" target="_base">
   <rect id="button" ry="5" rx="5" y="6" x="6" height="38" width="38"
        fill="#f2f5e9" fill-opacity="0.5" stroke="#606060" stroke-width="1.0"/>
   <path id="arrow"
     d="M 11.500037,31.436501 C 11.940474,20.09759 22.043105,11.32322 32.158766,21.979434 L 37.068811,17.246167 C 37.068811,17.246167 37.088388,32 37.088388,32 L 22.160133,31.978069 C 22.160133,31.978069 26.997745,27.140456 26.997745,27.140456 C 18.528582,18.264221 13.291696,25.230495 11.500037,31.436501 z"
     style="fill:#404040;"/>
  </a>
 </g>
</svg>

<style type='text/css'>
<![CDATA[
[data-mouse-over-selected='false'] { opacity: 0.7; }
[data-mouse-over-selected='true']  { opacity: 1.0; }
]]>
</style>
<script type="application/ecmascript"><![CDATA[
document.addEventListener('DOMContentLoaded', (event) => {
  highlightEdges();
  highlightAdjacentNodes();
});
]]></script>
</svg>
