<?xml version="1.0" encoding="UTF-8" standalone="no"?>
<!DOCTYPE svg PUBLIC "-//W3C//DTD SVG 1.1//EN"
 "http://www.w3.org/Graphics/SVG/1.1/DTD/svg11.dtd">
<!-- Generated by graphviz version 10.0.1 (20240210.2158)
 -->
<!-- Title: xeno_rat_client.Utils.GetCaptionOfActiveWindowAsync Pages: 1 -->
<svg width="481pt" height="186pt"
 viewBox="0.00 0.00 480.50 185.50" xmlns="http://www.w3.org/2000/svg" xmlns:xlink="http://www.w3.org/1999/xlink">
<g id="graph0" class="graph" transform="scale(1 1) rotate(0) translate(4 181.5)">
<title>xeno_rat_client.Utils.GetCaptionOfActiveWindowAsync</title>
<!-- Node1 -->
<g id="Node000001" class="node">
<title>Node1</title>
<g id="a_Node000001"><a xlink:title="Retrieves the caption of the active window asynchronously.">
<polygon fill="#999999" stroke="#666666" points="151,-103.5 0,-103.5 0,-73 151,-73 151,-103.5"/>
<text text-anchor="start" x="8" y="-90" font-family="Helvetica,sans-Serif" font-size="10.00">xeno_rat_client.Utils.Get</text>
<text text-anchor="middle" x="75.5" y="-78.75" font-family="Helvetica,sans-Serif" font-size="10.00">CaptionOfActiveWindowAsync</text>
</a>
</g>
</g>
<!-- Node2 -->
<g id="Node000002" class="node">
<title>Node2</title>
<g id="a_Node000002"><a xlink:href="classxeno__rat__client_1_1_utils.html#aec913c555ee2a11dcb25de79d50b00e8" target="_top" xlink:title="Retrieves the caption of the active window.">
<polygon fill="white" stroke="#666666" points="311,-103.5 187,-103.5 187,-73 311,-73 311,-103.5"/>
<text text-anchor="start" x="195" y="-90" font-family="Helvetica,sans-Serif" font-size="10.00">xeno_rat_client.Utils.Get</text>
<text text-anchor="middle" x="249" y="-78.75" font-family="Helvetica,sans-Serif" font-size="10.00">CaptionOfActiveWindow</text>
</a>
</g>
</g>
<!-- Node1&#45;&gt;Node2 -->
<g id="edge1_Node000001_Node000002" class="edge">
<title>Node1&#45;&gt;Node2</title>
<g id="a_edge1_Node000001_Node000002"><a xlink:title=" ">
<path fill="none" stroke="#63b8ff" d="M151.22,-88.25C159.17,-88.25 167.24,-88.25 175.16,-88.25"/>
<polygon fill="#63b8ff" stroke="#63b8ff" points="175.12,-91.75 185.12,-88.25 175.12,-84.75 175.12,-91.75"/>
</a>
</g>
</g>
<!-- Node3 -->
<g id="Node000003" class="node">
<title>Node3</title>
<g id="a_Node000003"><a xlink:href="classxeno__rat__client_1_1_utils.html#a76137e2513dc3ef6548266819d1e12d4" target="_top" xlink:title="Retrieves a handle to the foreground window (the window with which the user is currently working).">
<polygon fill="white" stroke="#666666" points="471.75,-177.5 347.75,-177.5 347.75,-147 471.75,-147 471.75,-177.5"/>
<text text-anchor="start" x="355.75" y="-164" font-family="Helvetica,sans-Serif" font-size="10.00">xeno_rat_client.Utils.Get</text>
<text text-anchor="middle" x="409.75" y="-152.75" font-family="Helvetica,sans-Serif" font-size="10.00">ForegroundWindow</text>
</a>
</g>
</g>
<!-- Node2&#45;&gt;Node3 -->
<g id="edge2_Node000002_Node000003" class="edge">
<title>Node2&#45;&gt;Node3</title>
<g id="a_edge2_Node000002_Node000003"><a xlink:title=" ">
<path fill="none" stroke="#63b8ff" d="M279.41,-103.91C298.48,-113.86 323.98,-126.8 347,-137.25 350.69,-138.93 354.53,-140.61 358.41,-142.27"/>
<polygon fill="#63b8ff" stroke="#63b8ff" points="356.71,-145.36 367.29,-146.01 359.42,-138.91 356.71,-145.36"/>
</a>
</g>
</g>
<!-- Node4 -->
<g id="Node000004" class="node">
<title>Node4</title>
<g id="a_Node000004"><a xlink:href="classxeno__rat__client_1_1_utils.html#ae967900f3a46d43ed0aafdd011bb542f" target="_top" xlink:title="Retrieves the text of the specified window&#39;s title bar, if it has one.">
<polygon fill="white" stroke="#666666" points="471.75,-128.5 347.75,-128.5 347.75,-98 471.75,-98 471.75,-128.5"/>
<text text-anchor="start" x="355.75" y="-115" font-family="Helvetica,sans-Serif" font-size="10.00">xeno_rat_client.Utils.Get</text>
<text text-anchor="middle" x="409.75" y="-103.75" font-family="Helvetica,sans-Serif" font-size="10.00">WindowText</text>
</a>
</g>
</g>
<!-- Node2&#45;&gt;Node4 -->
<g id="edge3_Node000002_Node000004" class="edge">
<title>Node2&#45;&gt;Node4</title>
<g id="a_edge3_Node000002_Node000004"><a xlink:title=" ">
<path fill="none" stroke="#63b8ff" d="M311.38,-97.92C319.47,-99.19 327.84,-100.51 336.1,-101.81"/>
<polygon fill="#63b8ff" stroke="#63b8ff" points="335.36,-105.24 345.78,-103.33 336.45,-98.32 335.36,-105.24"/>
</a>
</g>
</g>
<!-- Node5 -->
<g id="Node000005" class="node">
<title>Node5</title>
<g id="a_Node000005"><a xlink:href="classxeno__rat__client_1_1_utils.html#a72857744df54899f7e2c6f254a97fa83" target="_top" xlink:title="Retrieves the length, in characters, of the specified window&#39;s title bar text (if it has one)....">
<polygon fill="white" stroke="#666666" points="471.75,-79.5 347.75,-79.5 347.75,-49 471.75,-49 471.75,-79.5"/>
<text text-anchor="start" x="355.75" y="-66" font-family="Helvetica,sans-Serif" font-size="10.00">xeno_rat_client.Utils.Get</text>
<text text-anchor="middle" x="409.75" y="-54.75" font-family="Helvetica,sans-Serif" font-size="10.00">WindowTextLength</text>
</a>
</g>
</g>
<!-- Node2&#45;&gt;Node5 -->
<g id="edge4_Node000002_Node000005" class="edge">
<title>Node2&#45;&gt;Node5</title>
<g id="a_edge4_Node000002_Node000005"><a xlink:title=" ">
<path fill="none" stroke="#63b8ff" d="M311.38,-78.97C319.47,-77.75 327.84,-76.48 336.1,-75.23"/>
<polygon fill="#63b8ff" stroke="#63b8ff" points="336.41,-78.73 345.78,-73.77 335.37,-71.8 336.41,-78.73"/>
</a>
</g>
</g>
<!-- Node6 -->
<g id="Node000006" class="node">
<title>Node6</title>
<g id="a_Node000006"><a xlink:href="classxeno__rat__client_1_1_utils.html#ac3b7483f24930357220d8ee361da4fae" target="_top" xlink:title="Retrieves the identifier of the thread that created the specified window and, optionally,...">
<polygon fill="white" stroke="#666666" points="472.5,-30.5 347,-30.5 347,0 472.5,0 472.5,-30.5"/>
<text text-anchor="start" x="355" y="-17" font-family="Helvetica,sans-Serif" font-size="10.00">xeno_rat_client.Utils.Get</text>
<text text-anchor="middle" x="409.75" y="-5.75" font-family="Helvetica,sans-Serif" font-size="10.00">WindowThreadProcessId</text>
</a>
</g>
</g>
<!-- Node2&#45;&gt;Node6 -->
<g id="edge5_Node000002_Node000006" class="edge">
<title>Node2&#45;&gt;Node6</title>
<g id="a_edge5_Node000002_Node000006"><a xlink:title=" ">
<path fill="none" stroke="#63b8ff" d="M280.3,-72.53C299.29,-62.86 324.37,-50.41 347,-40.25 350.7,-38.59 354.54,-36.91 358.42,-35.26"/>
<polygon fill="#63b8ff" stroke="#63b8ff" points="359.44,-38.63 367.31,-31.54 356.73,-32.17 359.44,-38.63"/>
</a>
</g>
</g>
</g>
</svg>
