<?xml version="1.0" encoding="UTF-8" standalone="no"?>
<!DOCTYPE svg PUBLIC "-//W3C//DTD SVG 1.1//EN"
 "http://www.w3.org/Graphics/SVG/1.1/DTD/svg11.dtd">
<!-- Generated by graphviz version 10.0.1 (20240210.2158)
 -->
<!-- Title: xeno_rat_client.Node.Connected Pages: 1 -->
<svg width="883pt" height="560pt"
 viewBox="0.00 0.00 883.00 560.19" xmlns="http://www.w3.org/2000/svg" xmlns:xlink="http://www.w3.org/1999/xlink">
<g id="graph0" class="graph" transform="scale(1 1) rotate(0) translate(4 556.19)">
<title>xeno_rat_client.Node.Connected</title>
<!-- Node1 -->
<g id="Node000001" class="node">
<title>Node1</title>
<g id="a_Node000001"><a xlink:title="Checks if the socket is connected and returns a boolean value indicating the connection status.">
<polygon fill="#999999" stroke="#666666" points="875,-307.19 716.5,-307.19 716.5,-287.94 875,-287.94 875,-307.19"/>
<text text-anchor="middle" x="795.75" y="-293.69" font-family="Helvetica,sans-Serif" font-size="10.00">xeno_rat_client.Node.Connected</text>
</a>
</g>
</g>
<!-- Node2 -->
<g id="Node000002" class="node">
<title>Node2</title>
<g id="a_Node000002"><a xlink:href="class_plugin_1_1_main.html#af9b221ceac69986fcf58eeee66b687cf" target="_top" xlink:title="Asynchronously retrieves and sends directory and file information to the connected node.">
<polygon fill="white" stroke="#666666" points="668.5,-363.19 552.75,-363.19 552.75,-343.94 668.5,-343.94 668.5,-363.19"/>
<text text-anchor="middle" x="610.62" y="-349.69" font-family="Helvetica,sans-Serif" font-size="10.00">Plugin.Main.FileViewer</text>
</a>
</g>
</g>
<!-- Node1&#45;&gt;Node2 -->
<g id="edge1_Node000001_Node000002" class="edge">
<title>Node1&#45;&gt;Node2</title>
<g id="a_edge1_Node000001_Node000002"><a xlink:title=" ">
<path fill="none" stroke="#63b8ff" d="M755.39,-311.37C733.46,-318.88 705.59,-328.13 680.5,-335.57 671.38,-338.28 661.51,-340.98 652.17,-343.45"/>
<polygon fill="#63b8ff" stroke="#63b8ff" points="756.53,-314.68 764.84,-308.11 754.25,-308.06 756.53,-314.68"/>
</a>
</g>
</g>
<!-- Node4 -->
<g id="Node000004" class="node">
<title>Node4</title>
<g id="a_Node000004"><a xlink:href="class_plugin_1_1_main.html#ae51f6500ea51e702d748ba9c59cfad01" target="_top" xlink:title="Asynchronously runs the node and handles communication with connected nodes.">
<polygon fill="white" stroke="#666666" points="290.75,-288.19 202.75,-288.19 202.75,-268.94 290.75,-268.94 290.75,-288.19"/>
<text text-anchor="middle" x="246.75" y="-274.69" font-family="Helvetica,sans-Serif" font-size="10.00">Plugin.Main.Run</text>
</a>
</g>
</g>
<!-- Node1&#45;&gt;Node4 -->
<g id="edge17_Node000001_Node000004" class="edge">
<title>Node1&#45;&gt;Node4</title>
<g id="a_edge17_Node000001_Node000004"><a xlink:title=" ">
<path fill="none" stroke="#63b8ff" d="M704.83,-294.45C585.63,-290.31 380,-283.16 290.95,-280.07"/>
<polygon fill="#63b8ff" stroke="#63b8ff" points="704.46,-297.94 714.57,-294.79 704.7,-290.94 704.46,-297.94"/>
</a>
</g>
</g>
<!-- Node5 -->
<g id="Node000005" class="node">
<title>Node5</title>
<g id="a_Node000005"><a xlink:href="class_chat_1_1_chat_form.html#a5f81e8f70ee4d766f8febd5ac8221769" target="_top" xlink:title="Waits for the heartbeat from the server and disconnects if not received within a specified time.">
<polygon fill="white" stroke="#666666" points="675.25,-552.19 546,-552.19 546,-532.94 675.25,-532.94 675.25,-552.19"/>
<text text-anchor="middle" x="610.62" y="-538.69" font-family="Helvetica,sans-Serif" font-size="10.00">Chat.ChatForm.Heartbeat</text>
</a>
</g>
</g>
<!-- Node1&#45;&gt;Node5 -->
<g id="edge4_Node000001_Node000005" class="edge">
<title>Node1&#45;&gt;Node5</title>
<g id="a_edge4_Node000001_Node000005"><a xlink:title=" ">
<path fill="none" stroke="#63b8ff" d="M790.33,-318.55C779.73,-363.51 748.54,-469.54 680.5,-524.57 676.56,-527.76 672.12,-530.38 667.43,-532.55"/>
<polygon fill="#63b8ff" stroke="#63b8ff" points="793.69,-319.58 792.46,-309.05 786.85,-318.05 793.69,-319.58"/>
</a>
</g>
</g>
<!-- Node8 -->
<g id="Node000008" class="node">
<title>Node8</title>
<g id="a_Node000008"><a xlink:href="classxeno__rat__client_1_1_program.html#a03ac83b9e39d78b5df4df44e5b32f6a3" target="_top" xlink:title="Prints the connection status of the main node to the console.">
<polygon fill="white" stroke="#666666" points="309.12,-409.82 184.38,-409.82 184.38,-379.32 309.12,-379.32 309.12,-409.82"/>
<text text-anchor="start" x="192.38" y="-396.32" font-family="Helvetica,sans-Serif" font-size="10.00">xeno_rat_client.Program.</text>
<text text-anchor="middle" x="246.75" y="-385.07" font-family="Helvetica,sans-Serif" font-size="10.00">OnDisconnect</text>
</a>
</g>
</g>
<!-- Node1&#45;&gt;Node8 -->
<g id="edge7_Node000001_Node000008" class="edge">
<title>Node1&#45;&gt;Node8</title>
<g id="a_edge7_Node000001_Node000008"><a xlink:title=" ">
<path fill="none" stroke="#63b8ff" d="M783.64,-317.42C766,-346.82 728.6,-401.2 680.5,-426.57 549.4,-495.7 491.44,-484.89 347.75,-448.57 318.48,-441.17 288.48,-423.33 269.07,-410.17"/>
<polygon fill="#63b8ff" stroke="#63b8ff" points="786.65,-319.2 788.65,-308.79 780.6,-315.68 786.65,-319.2"/>
</a>
</g>
</g>
<!-- Node10 -->
<g id="Node000010" class="node">
<title>Node10</title>
<g id="a_Node000010"><a xlink:href="class_plugin_1_1_socks5_handler.html#ab8f78f7ae0a2ac192b96ddcaabfd9360" target="_top" xlink:title="Asynchronously receives and sends data between the remote socket and subnode using the specified buff...">
<polygon fill="white" stroke="#666666" points="679.75,-174.82 541.5,-174.82 541.5,-144.32 679.75,-144.32 679.75,-174.82"/>
<text text-anchor="start" x="549.5" y="-161.32" font-family="Helvetica,sans-Serif" font-size="10.00">Plugin.Socks5Handler.Recv</text>
<text text-anchor="middle" x="610.62" y="-150.07" font-family="Helvetica,sans-Serif" font-size="10.00">SendLoop</text>
</a>
</g>
</g>
<!-- Node1&#45;&gt;Node10 -->
<g id="edge9_Node000001_Node000010" class="edge">
<title>Node1&#45;&gt;Node10</title>
<g id="a_edge9_Node000001_Node000010"><a xlink:title=" ">
<path fill="none" stroke="#63b8ff" d="M779.07,-278.88C758.46,-255.27 720.2,-214.59 680.5,-188.57 672.8,-183.52 664.07,-179.04 655.48,-175.2"/>
<polygon fill="#63b8ff" stroke="#63b8ff" points="776.38,-281.13 785.55,-286.44 781.7,-276.57 776.38,-281.13"/>
</a>
</g>
</g>
<!-- Node12 -->
<g id="Node000012" class="node">
<title>Node12</title>
<g id="a_Node000012"><a xlink:href="class_chat_1_1_chat_form.html#a1b537d412a1f6730c92a2d1022488fd6" target="_top" xlink:title="Asynchronously receives data from the server and updates the UI with the received message.">
<polygon fill="white" stroke="#666666" points="680.5,-515.19 540.75,-515.19 540.75,-495.94 680.5,-495.94 680.5,-515.19"/>
<text text-anchor="middle" x="610.62" y="-501.69" font-family="Helvetica,sans-Serif" font-size="10.00">Chat.ChatForm.RecvThread</text>
</a>
</g>
</g>
<!-- Node1&#45;&gt;Node12 -->
<g id="edge12_Node000001_Node000012" class="edge">
<title>Node1&#45;&gt;Node12</title>
<g id="a_edge12_Node000001_Node000012"><a xlink:title=" ">
<path fill="none" stroke="#63b8ff" d="M787.3,-318.27C772.68,-356.1 736.65,-436.61 680.5,-481.57 673.09,-487.51 664.11,-492.02 655.11,-495.45"/>
<polygon fill="#63b8ff" stroke="#63b8ff" points="790.54,-319.6 790.77,-309.01 783.99,-317.15 790.54,-319.6"/>
</a>
</g>
</g>
<!-- Node13 -->
<g id="Node000013" class="node">
<title>Node13</title>
<g id="a_Node000013"><a xlink:href="class_plugin_1_1_main.html#ad3edeeb801a9b8d82ad07c5a7de4da5b" target="_top" xlink:title="Asynchronously receives data from the specified node and processes it based on the received commands.">
<polygon fill="white" stroke="#666666" points="670,-326.19 551.25,-326.19 551.25,-306.94 670,-306.94 670,-326.19"/>
<text text-anchor="middle" x="610.62" y="-312.69" font-family="Helvetica,sans-Serif" font-size="10.00">Plugin.Main.recvThread</text>
</a>
</g>
</g>
<!-- Node1&#45;&gt;Node13 -->
<g id="edge14_Node000001_Node000013" class="edge">
<title>Node1&#45;&gt;Node13</title>
<g id="a_edge14_Node000001_Node000013"><a xlink:title=" ">
<path fill="none" stroke="#63b8ff" d="M704.84,-306.9C693.13,-308.11 681.38,-309.33 670.37,-310.47"/>
<polygon fill="#63b8ff" stroke="#63b8ff" points="704.93,-310.41 714.52,-305.89 704.21,-303.44 704.93,-310.41"/>
</a>
</g>
</g>
<!-- Node14 -->
<g id="Node000014" class="node">
<title>Node14</title>
<g id="a_Node000014"><a xlink:href="class_plugin_1_1_main.html#a3b672ab007c36dceaf59d07b7e6b8698" target="_top" xlink:title="Asynchronously receives data from the specified node and processes it accordingly.">
<polygon fill="white" stroke="#666666" points="487.88,-439.19 364.62,-439.19 364.62,-419.94 487.88,-419.94 487.88,-439.19"/>
<text text-anchor="middle" x="426.25" y="-425.69" font-family="Helvetica,sans-Serif" font-size="10.00">Plugin.Main.RecvThread</text>
</a>
</g>
</g>
<!-- Node1&#45;&gt;Node14 -->
<g id="edge15_Node000001_Node000014" class="edge">
<title>Node1&#45;&gt;Node14</title>
<g id="a_edge15_Node000001_Node000014"><a xlink:title=" ">
<path fill="none" stroke="#63b8ff" d="M779.68,-316.34C759.71,-339.72 722.13,-378.86 680.5,-397.57 619.06,-425.18 541.3,-431.29 488.26,-431.69"/>
<polygon fill="#63b8ff" stroke="#63b8ff" points="782.22,-318.75 785.92,-308.83 776.84,-314.28 782.22,-318.75"/>
</a>
</g>
</g>
<!-- Node15 -->
<g id="Node000015" class="node">
<title>Node15</title>
<g id="a_Node000015"><a xlink:href="class_plugin_1_1_main.html#a8ff102f9e5edba6134e0ba5d8ddf6e2e" target="_top" xlink:title="Takes a screenshot and sends it to the ImageNode asynchronously.">
<polygon fill="white" stroke="#666666" points="501.75,-401.19 350.75,-401.19 350.75,-381.94 501.75,-381.94 501.75,-401.19"/>
<text text-anchor="middle" x="426.25" y="-387.69" font-family="Helvetica,sans-Serif" font-size="10.00">Plugin.Main.ScreenShotThread</text>
</a>
</g>
</g>
<!-- Node1&#45;&gt;Node15 -->
<g id="edge18_Node000001_Node000015" class="edge">
<title>Node1&#45;&gt;Node15</title>
<g id="a_edge18_Node000001_Node000015"><a xlink:title=" ">
<path fill="none" stroke="#63b8ff" d="M775.27,-314.89C753.76,-332.86 717.29,-360.06 680.5,-372.57 622.79,-392.2 553.56,-396.17 502.07,-395.67"/>
<polygon fill="#63b8ff" stroke="#63b8ff" points="777.32,-317.74 782.64,-308.58 772.77,-312.42 777.32,-317.74"/>
</a>
</g>
</g>
<!-- Node16 -->
<g id="Node000016" class="node">
<title>Node16</title>
<g id="a_Node000016"><a xlink:href="class_plugin_1_1_main.html#a8396452299df14406bb46055e320babb" target="_top" xlink:title="Sends the specified key data to the connected node asynchronously.">
<polygon fill="white" stroke="#666666" points="490.88,-250.19 361.62,-250.19 361.62,-230.94 490.88,-230.94 490.88,-250.19"/>
<text text-anchor="middle" x="426.25" y="-236.69" font-family="Helvetica,sans-Serif" font-size="10.00">Plugin.Main.sendKeyData</text>
</a>
</g>
</g>
<!-- Node1&#45;&gt;Node16 -->
<g id="edge20_Node000001_Node000016" class="edge">
<title>Node1&#45;&gt;Node16</title>
<g id="a_edge20_Node000001_Node000016"><a xlink:title=" ">
<path fill="none" stroke="#63b8ff" d="M754.73,-284.02C733.01,-277.18 705.54,-269.33 680.5,-264.57 616.72,-252.45 542.68,-246.33 491.2,-243.32"/>
<polygon fill="#63b8ff" stroke="#63b8ff" points="753.49,-287.3 764.09,-287.03 755.64,-280.64 753.49,-287.3"/>
</a>
</g>
</g>
<!-- Node17 -->
<g id="Node000017" class="node">
<title>Node17</title>
<g id="a_Node000017"><a xlink:href="class_plugin_1_1_main.html#a0e6e68e33adc30ba69d88b3a02dca906" target="_top" xlink:title="Starts a loop to continuously receive and process commands from the specified node.">
<polygon fill="white" stroke="#666666" points="482.25,-212.19 370.25,-212.19 370.25,-192.94 482.25,-192.94 482.25,-212.19"/>
<text text-anchor="middle" x="426.25" y="-198.69" font-family="Helvetica,sans-Serif" font-size="10.00">Plugin.Main.StartLoop</text>
</a>
</g>
</g>
<!-- Node1&#45;&gt;Node17 -->
<g id="edge22_Node000001_Node000017" class="edge">
<title>Node1&#45;&gt;Node17</title>
<g id="a_edge22_Node000001_Node000017"><a xlink:title=" ">
<path fill="none" stroke="#63b8ff" d="M768.12,-281.99C745.53,-269.45 711.88,-252.37 680.5,-242.57 614.22,-221.87 534.68,-211.55 482.65,-206.64"/>
<polygon fill="#63b8ff" stroke="#63b8ff" points="766.23,-284.94 776.65,-286.81 769.67,-278.84 766.23,-284.94"/>
</a>
</g>
</g>
<!-- Node18 -->
<g id="Node000018" class="node">
<title>Node18</title>
<g id="a_Node000018"><a xlink:href="classxeno__rat__client_1_1_handler.html#af958615880e2daf8a8d0ede5f4c53363" target="_top" xlink:title="Asynchronously receives data and performs different actions based on the received opcode.">
<polygon fill="white" stroke="#666666" points="307.25,-100.82 186.25,-100.82 186.25,-70.32 307.25,-70.32 307.25,-100.82"/>
<text text-anchor="start" x="194.25" y="-87.32" font-family="Helvetica,sans-Serif" font-size="10.00">xeno_rat_client.Handler.</text>
<text text-anchor="middle" x="246.75" y="-76.07" font-family="Helvetica,sans-Serif" font-size="10.00">Type0Receive</text>
</a>
</g>
</g>
<!-- Node1&#45;&gt;Node18 -->
<g id="edge24_Node000001_Node000018" class="edge">
<title>Node1&#45;&gt;Node18</title>
<g id="a_edge24_Node000001_Node000018"><a xlink:title=" ">
<path fill="none" stroke="#63b8ff" d="M792.93,-276.35C787.21,-224.67 764.61,-92.48 680.5,-37.57 551.53,46.63 353.73,-33.61 278.36,-69.87"/>
<polygon fill="#63b8ff" stroke="#63b8ff" points="789.43,-276.55 793.89,-286.15 796.39,-275.86 789.43,-276.55"/>
</a>
</g>
</g>
<!-- Node19 -->
<g id="Node000019" class="node">
<title>Node19</title>
<g id="a_Node000019"><a xlink:href="classxeno__rat__client_1_1_handler.html#a465e861a4d3ea4abcb82e33678598d1f" target="_top" xlink:title="Asynchronously receives heartbeat messages from the specified subServer and sends a heartbeat reply i...">
<polygon fill="white" stroke="#666666" points="671.12,-125.82 550.12,-125.82 550.12,-95.32 671.12,-95.32 671.12,-125.82"/>
<text text-anchor="start" x="558.12" y="-112.32" font-family="Helvetica,sans-Serif" font-size="10.00">xeno_rat_client.Handler.</text>
<text text-anchor="middle" x="610.62" y="-101.07" font-family="Helvetica,sans-Serif" font-size="10.00">Type1Receive</text>
</a>
</g>
</g>
<!-- Node1&#45;&gt;Node19 -->
<g id="edge26_Node000001_Node000019" class="edge">
<title>Node1&#45;&gt;Node19</title>
<g id="a_edge26_Node000001_Node000019"><a xlink:title=" ">
<path fill="none" stroke="#63b8ff" d="M785.67,-277.54C769.34,-243.64 731.85,-174.8 680.5,-135.57 675.85,-132.02 670.65,-128.93 665.24,-126.27"/>
<polygon fill="#63b8ff" stroke="#63b8ff" points="782.34,-278.67 789.75,-286.24 788.67,-275.7 782.34,-278.67"/>
</a>
</g>
</g>
<!-- Node21 -->
<g id="Node000021" class="node">
<title>Node21</title>
<g id="a_Node000021"><a xlink:href="classxeno__rat__client_1_1_handler.html#ad419768db746814c3500009dd29101b8" target="_top" xlink:title="Asynchronously receives data from the specified subServer node and processes it based on the received...">
<polygon fill="white" stroke="#666666" points="671.12,-76.82 550.12,-76.82 550.12,-46.32 671.12,-46.32 671.12,-76.82"/>
<text text-anchor="start" x="558.12" y="-63.32" font-family="Helvetica,sans-Serif" font-size="10.00">xeno_rat_client.Handler.</text>
<text text-anchor="middle" x="610.62" y="-52.07" font-family="Helvetica,sans-Serif" font-size="10.00">Type2Receive</text>
</a>
</g>
</g>
<!-- Node1&#45;&gt;Node21 -->
<g id="edge29_Node000001_Node000021" class="edge">
<title>Node1&#45;&gt;Node21</title>
<g id="a_edge29_Node000001_Node000021"><a xlink:title=" ">
<path fill="none" stroke="#63b8ff" d="M788.91,-276.54C776.21,-234.53 742.11,-139.67 680.5,-86.57 676.36,-83 671.66,-79.92 666.72,-77.27"/>
<polygon fill="#63b8ff" stroke="#63b8ff" points="785.54,-277.49 791.7,-286.11 792.26,-275.53 785.54,-277.49"/>
</a>
</g>
</g>
<!-- Node3 -->
<g id="Node000003" class="node">
<title>Node3</title>
<g id="a_Node000003"><a xlink:href="class_plugin_1_1_main.html#ae17a6824e13f8994fa8203747ef5e008" target="_top" xlink:title="Handles file management operations based on the type of request received from the node.">
<polygon fill="white" stroke="#666666" points="504.75,-345.19 347.75,-345.19 347.75,-325.94 504.75,-325.94 504.75,-345.19"/>
<text text-anchor="middle" x="426.25" y="-331.69" font-family="Helvetica,sans-Serif" font-size="10.00">Plugin.Main.FileManagerHandler</text>
</a>
</g>
</g>
<!-- Node2&#45;&gt;Node3 -->
<g id="edge2_Node000002_Node000003" class="edge">
<title>Node2&#45;&gt;Node3</title>
<g id="a_edge2_Node000002_Node000003"><a xlink:title=" ">
<path fill="none" stroke="#63b8ff" d="M541.27,-346.82C529.43,-345.65 517.04,-344.43 504.97,-343.24"/>
<polygon fill="#63b8ff" stroke="#63b8ff" points="540.62,-350.28 550.91,-347.78 541.31,-343.31 540.62,-350.28"/>
</a>
</g>
</g>
<!-- Node3&#45;&gt;Node4 -->
<g id="edge3_Node000003_Node000004" class="edge">
<title>Node3&#45;&gt;Node4</title>
<g id="a_edge3_Node000003_Node000004"><a xlink:title=" ">
<path fill="none" stroke="#63b8ff" d="M383.14,-322.05C351.19,-311.79 307.99,-297.91 279.06,-288.62"/>
<polygon fill="#63b8ff" stroke="#63b8ff" points="381.89,-325.32 392.48,-325.05 384.03,-318.66 381.89,-325.32"/>
</a>
</g>
</g>
<!-- Node6 -->
<g id="Node000006" class="node">
<title>Node6</title>
<g id="a_Node000006"><a xlink:href="class_chat_1_1_chat_form.html#a9926347bab99ceaacd2173799af2e901" target="_top" xlink:title="Initializes the asynchronous operations by calling the Heartbeat method and awaiting the RecvThread m...">
<polygon fill="white" stroke="#666666" points="487.5,-525.82 365,-525.82 365,-495.32 487.5,-495.32 487.5,-525.82"/>
<text text-anchor="start" x="373" y="-512.32" font-family="Helvetica,sans-Serif" font-size="10.00">Chat.ChatForm.Initialize</text>
<text text-anchor="middle" x="426.25" y="-501.07" font-family="Helvetica,sans-Serif" font-size="10.00">Async</text>
</a>
</g>
</g>
<!-- Node5&#45;&gt;Node6 -->
<g id="edge5_Node000005_Node000006" class="edge">
<title>Node5&#45;&gt;Node6</title>
<g id="a_edge5_Node000005_Node000006"><a xlink:title=" ">
<path fill="none" stroke="#63b8ff" d="M540.67,-530.47C523.26,-527.42 504.69,-524.16 487.72,-521.18"/>
<polygon fill="#63b8ff" stroke="#63b8ff" points="539.98,-533.9 550.43,-532.18 541.19,-527.01 539.98,-533.9"/>
</a>
</g>
</g>
<!-- Node7 -->
<g id="Node000007" class="node">
<title>Node7</title>
<g id="a_Node000007"><a xlink:href="class_chat_1_1_chat_form.html#a2410965bff10ab9e4b1dce9d09a5104e" target="_top" xlink:title=" ">
<polygon fill="white" stroke="#666666" points="311.75,-520.19 181.75,-520.19 181.75,-500.94 311.75,-500.94 311.75,-520.19"/>
<text text-anchor="middle" x="246.75" y="-506.69" font-family="Helvetica,sans-Serif" font-size="10.00">Chat.ChatForm.ChatForm</text>
</a>
</g>
</g>
<!-- Node6&#45;&gt;Node7 -->
<g id="edge6_Node000006_Node000007" class="edge">
<title>Node6&#45;&gt;Node7</title>
<g id="a_edge6_Node000006_Node000007"><a xlink:title=" ">
<path fill="none" stroke="#63b8ff" d="M353.33,-510.57C339.66,-510.57 325.42,-510.57 312.01,-510.57"/>
<polygon fill="#63b8ff" stroke="#63b8ff" points="353.15,-514.07 363.15,-510.57 353.15,-507.07 353.15,-514.07"/>
</a>
</g>
</g>
<!-- Node9 -->
<g id="Node000009" class="node">
<title>Node9</title>
<g id="a_Node000009"><a xlink:href="classxeno__rat__client_1_1_program.html#a8e01c4689de41166b75a03fda71d12f0" target="_top" xlink:title="Main function for the XenoUpdateManager application.">
<polygon fill="white" stroke="#666666" points="145.75,-298.19 0,-298.19 0,-278.94 145.75,-278.94 145.75,-298.19"/>
<text text-anchor="middle" x="72.88" y="-284.69" font-family="Helvetica,sans-Serif" font-size="10.00">xeno_rat_client.Program.Main</text>
</a>
</g>
</g>
<!-- Node8&#45;&gt;Node9 -->
<g id="edge8_Node000008_Node000009" class="edge">
<title>Node8&#45;&gt;Node9</title>
<g id="a_edge8_Node000008_Node000009"><a xlink:title=" ">
<path fill="none" stroke="#63b8ff" d="M211.02,-373.15C174.18,-350.43 117.59,-315.53 90.04,-298.54"/>
<polygon fill="#63b8ff" stroke="#63b8ff" points="208.75,-375.86 219.1,-378.13 212.43,-369.91 208.75,-375.86"/>
</a>
</g>
</g>
<!-- Node11 -->
<g id="Node000011" class="node">
<title>Node11</title>
<g id="a_Node000011"><a xlink:href="class_plugin_1_1_socks5_handler.html#a547513c97f841935dd30a4939fd11ded" target="_top" xlink:title="Asynchronously starts the communication process with the specified destination address and port.">
<polygon fill="white" stroke="#666666" points="494.25,-172.19 358.25,-172.19 358.25,-152.94 494.25,-152.94 494.25,-172.19"/>
<text text-anchor="middle" x="426.25" y="-158.69" font-family="Helvetica,sans-Serif" font-size="10.00">Plugin.Socks5Handler.Start</text>
</a>
</g>
</g>
<!-- Node10&#45;&gt;Node11 -->
<g id="edge10_Node000010_Node000011" class="edge">
<title>Node10&#45;&gt;Node11</title>
<g id="a_edge10_Node000010_Node000011"><a xlink:title=" ">
<path fill="none" stroke="#63b8ff" d="M529.97,-160.88C518.16,-161.07 506.08,-161.27 494.55,-161.46"/>
<polygon fill="#63b8ff" stroke="#63b8ff" points="529.74,-164.38 539.68,-160.72 529.63,-157.39 529.74,-164.38"/>
</a>
</g>
</g>
<!-- Node11&#45;&gt;Node4 -->
<g id="edge11_Node000011_Node000004" class="edge">
<title>Node11&#45;&gt;Node4</title>
<g id="a_edge11_Node000011_Node000004"><a xlink:title=" ">
<path fill="none" stroke="#63b8ff" d="M363.3,-176.32C357.9,-178.42 352.64,-180.82 347.75,-183.57 307.26,-206.34 270.71,-249.15 255.38,-268.56"/>
<polygon fill="#63b8ff" stroke="#63b8ff" points="364.09,-179.76 372.37,-173.15 361.78,-173.15 364.09,-179.76"/>
</a>
</g>
</g>
<!-- Node12&#45;&gt;Node6 -->
<g id="edge13_Node000012_Node000006" class="edge">
<title>Node12&#45;&gt;Node6</title>
<g id="a_edge13_Node000012_Node000006"><a xlink:title=" ">
<path fill="none" stroke="#63b8ff" d="M528.91,-507.78C515.09,-508.16 500.94,-508.55 487.75,-508.91"/>
<polygon fill="#63b8ff" stroke="#63b8ff" points="529,-511.28 538.9,-507.51 528.81,-504.28 529,-511.28"/>
</a>
</g>
</g>
<!-- Node14&#45;&gt;Node4 -->
<g id="edge16_Node000014_Node000004" class="edge">
<title>Node14&#45;&gt;Node4</title>
<g id="a_edge16_Node000014_Node000004"><a xlink:title=" ">
<path fill="none" stroke="#63b8ff" d="M355.37,-414.97C352.73,-413.63 350.18,-412.17 347.75,-410.57 335.08,-402.24 275.36,-317.97 254.76,-288.6"/>
<polygon fill="#63b8ff" stroke="#63b8ff" points="353.95,-418.17 364.52,-418.95 356.75,-411.75 353.95,-418.17"/>
</a>
</g>
</g>
<!-- Node15&#45;&gt;Node4 -->
<g id="edge19_Node000015_Node000004" class="edge">
<title>Node15&#45;&gt;Node4</title>
<g id="a_edge19_Node000015_Node000004"><a xlink:title=" ">
<path fill="none" stroke="#63b8ff" d="M390.4,-376.78C376.77,-370.52 361.21,-362.78 347.75,-354.57 313.68,-333.79 277.22,-303.88 259.2,-288.52"/>
<polygon fill="#63b8ff" stroke="#63b8ff" points="388.91,-379.94 399.46,-380.84 391.77,-373.55 388.91,-379.94"/>
</a>
</g>
</g>
<!-- Node16&#45;&gt;Node4 -->
<g id="edge21_Node000016_Node000004" class="edge">
<title>Node16&#45;&gt;Node4</title>
<g id="a_edge21_Node000016_Node000004"><a xlink:title=" ">
<path fill="none" stroke="#63b8ff" d="M367.07,-253.03C342.32,-258.32 313.97,-264.39 291.11,-269.29"/>
<polygon fill="#63b8ff" stroke="#63b8ff" points="367.62,-256.49 376.67,-250.97 366.16,-249.64 367.62,-256.49"/>
</a>
</g>
</g>
<!-- Node17&#45;&gt;Node4 -->
<g id="edge23_Node000017_Node000004" class="edge">
<title>Node17&#45;&gt;Node4</title>
<g id="a_edge23_Node000017_Node000004"><a xlink:title=" ">
<path fill="none" stroke="#63b8ff" d="M364.42,-215.76C358.72,-217.51 353.08,-219.44 347.75,-221.57 315.64,-234.37 281.26,-255.9 262.34,-268.52"/>
<polygon fill="#63b8ff" stroke="#63b8ff" points="365.3,-219.15 373.95,-213.03 363.38,-212.42 365.3,-219.15"/>
</a>
</g>
</g>
<!-- Node18&#45;&gt;Node9 -->
<g id="edge25_Node000018_Node000009" class="edge">
<title>Node18&#45;&gt;Node9</title>
<g id="a_edge25_Node000018_Node000009"><a xlink:title=" ">
<path fill="none" stroke="#63b8ff" d="M225.12,-109.94C187.21,-154.72 107.97,-248.3 82.18,-278.76"/>
<polygon fill="#63b8ff" stroke="#63b8ff" points="227.78,-112.21 231.57,-102.32 222.44,-107.69 227.78,-112.21"/>
</a>
</g>
</g>
<!-- Node20 -->
<g id="Node000020" class="node">
<title>Node20</title>
<g id="a_Node000020"><a xlink:href="classxeno__rat__client_1_1_handler.html#ad71391058f264e78c9c31d0dcbc19007" target="_top" xlink:title="Asynchronously creates a sub socket based on the provided data.">
<polygon fill="white" stroke="#666666" points="486.75,-100.82 365.75,-100.82 365.75,-70.32 486.75,-70.32 486.75,-100.82"/>
<text text-anchor="start" x="373.75" y="-87.32" font-family="Helvetica,sans-Serif" font-size="10.00">xeno_rat_client.Handler.</text>
<text text-anchor="middle" x="426.25" y="-76.07" font-family="Helvetica,sans-Serif" font-size="10.00">CreateSubSock</text>
</a>
</g>
</g>
<!-- Node19&#45;&gt;Node20 -->
<g id="edge27_Node000019_Node000020" class="edge">
<title>Node19&#45;&gt;Node20</title>
<g id="a_edge27_Node000019_Node000020"><a xlink:title=" ">
<path fill="none" stroke="#63b8ff" d="M538.6,-100.83C521.52,-98.49 503.45,-96.02 486.94,-93.75"/>
<polygon fill="#63b8ff" stroke="#63b8ff" points="537.77,-104.25 548.16,-102.14 538.72,-97.32 537.77,-104.25"/>
</a>
</g>
</g>
<!-- Node20&#45;&gt;Node18 -->
<g id="edge28_Node000020_Node000018" class="edge">
<title>Node20&#45;&gt;Node18</title>
<g id="a_edge28_Node000020_Node000018"><a xlink:title=" ">
<path fill="none" stroke="#63b8ff" d="M354.48,-85.57C338.91,-85.57 322.58,-85.57 307.49,-85.57"/>
<polygon fill="#63b8ff" stroke="#63b8ff" points="354.14,-89.07 364.14,-85.57 354.14,-82.07 354.14,-89.07"/>
</a>
</g>
</g>
<!-- Node21&#45;&gt;Node20 -->
<g id="edge30_Node000021_Node000020" class="edge">
<title>Node21&#45;&gt;Node20</title>
<g id="a_edge30_Node000021_Node000020"><a xlink:title=" ">
<path fill="none" stroke="#63b8ff" d="M538.6,-70.92C521.52,-73.16 503.45,-75.54 486.94,-77.71"/>
<polygon fill="#63b8ff" stroke="#63b8ff" points="538.7,-74.43 548.16,-69.66 537.78,-67.49 538.7,-74.43"/>
</a>
</g>
</g>
</g>
</svg>
