<?xml version="1.0" encoding="UTF-8" standalone="no"?>
<!DOCTYPE svg PUBLIC "-//W3C//DTD SVG 1.1//EN"
 "http://www.w3.org/Graphics/SVG/1.1/DTD/svg11.dtd">
<!-- Generated by graphviz version 10.0.1 (20240210.2158)
 -->
<!-- Title: NAudio.CoreAudioApi.AudioSessionEventsCallback Pages: 1 -->
<svg width="337pt" height="370pt"
 viewBox="0.00 0.00 337.00 370.25" xmlns="http://www.w3.org/2000/svg" xmlns:xlink="http://www.w3.org/1999/xlink">
<g id="graph0" class="graph" transform="scale(1 1) rotate(0) translate(4 366.25)">
<title>NAudio.CoreAudioApi.AudioSessionEventsCallback</title>
<!-- Node1 -->
<g id="Node000001" class="node">
<title>Node1</title>
<g id="a_Node000001"><a xlink:title="AudioSessionEvents callback implementation.">
<polygon fill="#999999" stroke="none" points="231.5,-165 78.5,-165 78.5,0 231.5,0 231.5,-165"/>
<text text-anchor="start" x="93.5" y="-151.5" font-family="Helvetica,sans-Serif" font-size="10.00">NAudio.CoreAudioApi.Audio</text>
<text text-anchor="start" x="102.88" y="-140.25" font-family="Helvetica,sans-Serif" font-size="10.00">SessionEventsCallback</text>
<text text-anchor="start" x="153.5" y="-125.5" font-family="Helvetica,sans-Serif" font-size="10.00"> </text>
<text text-anchor="start" x="82.5" y="-110.5" font-family="Helvetica,sans-Serif" font-size="10.00">+</text>
<text text-anchor="start" x="92.5" y="-110.5" font-family="Helvetica,sans-Serif" font-size="10.00">AudioSessionEventsCallback()</text>
<text text-anchor="start" x="82.5" y="-95.5" font-family="Helvetica,sans-Serif" font-size="10.00">+</text>
<text text-anchor="start" x="92.5" y="-95.5" font-family="Helvetica,sans-Serif" font-size="10.00">OnDisplayNameChanged()</text>
<text text-anchor="start" x="82.5" y="-80.5" font-family="Helvetica,sans-Serif" font-size="10.00">+</text>
<text text-anchor="start" x="92.5" y="-80.5" font-family="Helvetica,sans-Serif" font-size="10.00">OnIconPathChanged()</text>
<text text-anchor="start" x="82.5" y="-65.5" font-family="Helvetica,sans-Serif" font-size="10.00">+</text>
<text text-anchor="start" x="92.5" y="-65.5" font-family="Helvetica,sans-Serif" font-size="10.00">OnSimpleVolumeChanged()</text>
<text text-anchor="start" x="82.5" y="-50.5" font-family="Helvetica,sans-Serif" font-size="10.00">+</text>
<text text-anchor="start" x="92.5" y="-50.5" font-family="Helvetica,sans-Serif" font-size="10.00">OnChannelVolumeChanged()</text>
<text text-anchor="start" x="82.5" y="-35.5" font-family="Helvetica,sans-Serif" font-size="10.00">+</text>
<text text-anchor="start" x="92.5" y="-35.5" font-family="Helvetica,sans-Serif" font-size="10.00">OnGroupingParamChanged()</text>
<text text-anchor="start" x="82.5" y="-20.5" font-family="Helvetica,sans-Serif" font-size="10.00">+</text>
<text text-anchor="start" x="92.5" y="-20.5" font-family="Helvetica,sans-Serif" font-size="10.00">OnStateChanged()</text>
<text text-anchor="start" x="82.5" y="-5.5" font-family="Helvetica,sans-Serif" font-size="10.00">+</text>
<text text-anchor="start" x="92.5" y="-5.5" font-family="Helvetica,sans-Serif" font-size="10.00">OnSessionDisconnected()</text>
<polygon fill="#666666" stroke="#666666" points="78.5,-137 78.5,-137 231.5,-137 231.5,-137 78.5,-137"/>
<polygon fill="#666666" stroke="#666666" points="78.5,-122 78.5,-122 231.5,-122 231.5,-122 78.5,-122"/>
<polygon fill="none" stroke="#666666" points="78.5,0 78.5,-165 231.5,-165 231.5,0 78.5,0"/>
</a>
</g>
</g>
<!-- Node2 -->
<g id="Node000002" class="node">
<title>Node2</title>
<g id="a_Node000002"><a xlink:href="interface_n_audio_1_1_core_audio_api_1_1_interfaces_1_1_i_audio_session_events.html" target="_top" xlink:title="Windows CoreAudio IAudioSessionControl interface Defined in AudioPolicy.h.">
<polygon fill="white" stroke="none" points="144,-356.75 0,-356.75 0,-217.75 144,-217.75 144,-356.75"/>
<text text-anchor="start" x="25.12" y="-343.25" font-family="Helvetica,sans-Serif" font-size="10.00">IAudioSessionEvents</text>
<text text-anchor="start" x="70.5" y="-328.25" font-family="Helvetica,sans-Serif" font-size="10.00"> </text>
<text text-anchor="start" x="4" y="-313.25" font-family="Helvetica,sans-Serif" font-size="10.00">+</text>
<text text-anchor="start" x="14" y="-313.25" font-family="Helvetica,sans-Serif" font-size="10.00">OnDisplayNameChanged()</text>
<text text-anchor="start" x="4" y="-298.25" font-family="Helvetica,sans-Serif" font-size="10.00">+</text>
<text text-anchor="start" x="14" y="-298.25" font-family="Helvetica,sans-Serif" font-size="10.00">OnIconPathChanged()</text>
<text text-anchor="start" x="4" y="-283.25" font-family="Helvetica,sans-Serif" font-size="10.00">+</text>
<text text-anchor="start" x="14" y="-283.25" font-family="Helvetica,sans-Serif" font-size="10.00">OnSimpleVolumeChanged()</text>
<text text-anchor="start" x="4" y="-268.25" font-family="Helvetica,sans-Serif" font-size="10.00">+</text>
<text text-anchor="start" x="14" y="-268.25" font-family="Helvetica,sans-Serif" font-size="10.00">OnChannelVolumeChanged()</text>
<text text-anchor="start" x="4" y="-253.25" font-family="Helvetica,sans-Serif" font-size="10.00">+</text>
<text text-anchor="start" x="14" y="-253.25" font-family="Helvetica,sans-Serif" font-size="10.00">OnGroupingParamChanged()</text>
<text text-anchor="start" x="4" y="-238.25" font-family="Helvetica,sans-Serif" font-size="10.00">+</text>
<text text-anchor="start" x="14" y="-238.25" font-family="Helvetica,sans-Serif" font-size="10.00">OnStateChanged()</text>
<text text-anchor="start" x="4" y="-223.25" font-family="Helvetica,sans-Serif" font-size="10.00">+</text>
<text text-anchor="start" x="14" y="-223.25" font-family="Helvetica,sans-Serif" font-size="10.00">OnSessionDisconnected()</text>
<polygon fill="#666666" stroke="#666666" points="0,-339.75 0,-339.75 144,-339.75 144,-339.75 0,-339.75"/>
<polygon fill="#666666" stroke="#666666" points="0,-324.75 0,-324.75 144,-324.75 144,-324.75 0,-324.75"/>
<polygon fill="none" stroke="#666666" points="0,-217.75 0,-356.75 144,-356.75 144,-217.75 0,-217.75"/>
</a>
</g>
</g>
<!-- Node2&#45;&gt;Node1 -->
<g id="edge1_Node000001_Node000002" class="edge">
<title>Node2&#45;&gt;Node1</title>
<g id="a_edge1_Node000001_Node000002"><a xlink:title=" ">
<path fill="none" stroke="#63b8ff" d="M104.29,-207.37C110,-193.43 115.95,-178.9 121.68,-164.9"/>
<polygon fill="none" stroke="#63b8ff" points="101.11,-205.91 100.56,-216.49 107.59,-208.56 101.11,-205.91"/>
</a>
</g>
</g>
<!-- Node3 -->
<g id="Node000003" class="node">
<title>Node3</title>
<g id="a_Node000003"><a xlink:href="interface_n_audio_1_1_core_audio_api_1_1_interfaces_1_1_i_audio_session_events_handler.html" target="_top" xlink:title="interface to receive session related events">
<polygon fill="white" stroke="none" points="316,-362.25 162,-362.25 162,-212.25 316,-212.25 316,-362.25"/>
<text text-anchor="start" x="166.62" y="-348.75" font-family="Helvetica,sans-Serif" font-size="10.00">NAudio.CoreAudioApi.Interfaces.</text>
<text text-anchor="start" x="175.25" y="-337.5" font-family="Helvetica,sans-Serif" font-size="10.00">IAudioSessionEventsHandler</text>
<text text-anchor="start" x="237.5" y="-322.75" font-family="Helvetica,sans-Serif" font-size="10.00"> </text>
<text text-anchor="start" x="168.5" y="-307.75" font-family="Helvetica,sans-Serif" font-size="10.00">+</text>
<text text-anchor="start" x="181" y="-307.75" font-family="Helvetica,sans-Serif" font-size="10.00">OnVolumeChanged()</text>
<text text-anchor="start" x="168.5" y="-292.75" font-family="Helvetica,sans-Serif" font-size="10.00">+</text>
<text text-anchor="start" x="181" y="-292.75" font-family="Helvetica,sans-Serif" font-size="10.00">OnDisplayNameChanged()</text>
<text text-anchor="start" x="168.5" y="-277.75" font-family="Helvetica,sans-Serif" font-size="10.00">+</text>
<text text-anchor="start" x="181" y="-277.75" font-family="Helvetica,sans-Serif" font-size="10.00">OnIconPathChanged()</text>
<text text-anchor="start" x="168.5" y="-262.75" font-family="Helvetica,sans-Serif" font-size="10.00">+</text>
<text text-anchor="start" x="181" y="-262.75" font-family="Helvetica,sans-Serif" font-size="10.00">OnChannelVolumeChanged()</text>
<text text-anchor="start" x="168.5" y="-247.75" font-family="Helvetica,sans-Serif" font-size="10.00">+</text>
<text text-anchor="start" x="181" y="-247.75" font-family="Helvetica,sans-Serif" font-size="10.00">OnGroupingParamChanged()</text>
<text text-anchor="start" x="168.5" y="-232.75" font-family="Helvetica,sans-Serif" font-size="10.00">+</text>
<text text-anchor="start" x="181" y="-232.75" font-family="Helvetica,sans-Serif" font-size="10.00">OnStateChanged()</text>
<text text-anchor="start" x="168.5" y="-217.75" font-family="Helvetica,sans-Serif" font-size="10.00">+</text>
<text text-anchor="start" x="181" y="-217.75" font-family="Helvetica,sans-Serif" font-size="10.00">OnSessionDisconnected()</text>
<polygon fill="#666666" stroke="#666666" points="162,-334.25 162,-334.25 316,-334.25 316,-334.25 162,-334.25"/>
<polygon fill="#666666" stroke="#666666" points="162,-319.25 162,-319.25 316,-319.25 316,-319.25 162,-319.25"/>
<polygon fill="none" stroke="#666666" points="162,-212.25 162,-362.25 316,-362.25 316,-212.25 162,-212.25"/>
</a>
</g>
</g>
<!-- Node3&#45;&gt;Node1 -->
<g id="edge2_Node000001_Node000003" class="edge">
<title>Node3&#45;&gt;Node1</title>
<g id="a_edge2_Node000001_Node000003"><a xlink:title=" ">
<path fill="none" stroke="#63b8ff" d="M208.44,-212.48C203.62,-200.85 198.58,-188.69 193.61,-176.68"/>
<polygon fill="none" stroke="#63b8ff" points="193.6,-176.67 187.61,-172.66 189.01,-165.59 195,-169.6 193.6,-176.67"/>
</a>
</g>
<text text-anchor="middle" x="264.5" y="-184.75" font-family="Helvetica,sans-Serif" font-size="10.00" fill="grey"> &#45;audioSessionEventsHandler</text>
</g>
</g>
</svg>
