<?xml version="1.0" encoding="UTF-8" standalone="no"?>
<!DOCTYPE svg PUBLIC "-//W3C//DTD SVG 1.1//EN"
 "http://www.w3.org/Graphics/SVG/1.1/DTD/svg11.dtd">
<!-- Generated by graphviz version 10.0.1 (20240210.2158)
 -->
<!-- Title: NAudio.Wave.AsioOut.Pause Pages: 1 -->
<svg width="542pt" height="39pt"
 viewBox="0.00 0.00 542.00 38.50" xmlns="http://www.w3.org/2000/svg" xmlns:xlink="http://www.w3.org/1999/xlink">
<g id="graph0" class="graph" transform="scale(1 1) rotate(0) translate(4 34.5)">
<title>NAudio.Wave.AsioOut.Pause</title>
<!-- Node1 -->
<g id="Node000001" class="node">
<title>Node1</title>
<g id="a_Node000001"><a xlink:title="Pauses the playback.">
<polygon fill="#999999" stroke="#666666" points="145,-24.88 0,-24.88 0,-5.63 145,-5.63 145,-24.88"/>
<text text-anchor="middle" x="72.5" y="-11.38" font-family="Helvetica,sans-Serif" font-size="10.00">NAudio.Wave.AsioOut.Pause</text>
</a>
</g>
</g>
<!-- Node2 -->
<g id="Node000002" class="node">
<title>Node2</title>
<g id="a_Node000002"><a xlink:href="class_n_audio_1_1_wave_1_1_asio_1_1_asio_driver_ext.html#a2a766495e3da6cf139ba6da1e5cddb0a" target="_top" xlink:title="Stops the driver.">
<polygon fill="white" stroke="#666666" points="328.25,-30.5 181,-30.5 181,0 328.25,0 328.25,-30.5"/>
<text text-anchor="start" x="189" y="-17" font-family="Helvetica,sans-Serif" font-size="10.00">NAudio.Wave.Asio.AsioDriver</text>
<text text-anchor="middle" x="254.62" y="-5.75" font-family="Helvetica,sans-Serif" font-size="10.00">Ext.Stop</text>
</a>
</g>
</g>
<!-- Node1&#45;&gt;Node2 -->
<g id="edge1_Node000001_Node000002" class="edge">
<title>Node1&#45;&gt;Node2</title>
<g id="a_edge1_Node000001_Node000002"><a xlink:title=" ">
<path fill="none" stroke="#63b8ff" d="M145.47,-15.25C153.24,-15.25 161.19,-15.25 169.09,-15.25"/>
<polygon fill="#63b8ff" stroke="#63b8ff" points="169.08,-18.75 179.08,-15.25 169.08,-11.75 169.08,-18.75"/>
</a>
</g>
</g>
<!-- Node3 -->
<g id="Node000003" class="node">
<title>Node3</title>
<g id="a_Node000003"><a xlink:href="class_n_audio_1_1_wave_1_1_asio_1_1_asio_driver.html#a15c87a396c55cfe0d357689331b75055" target="_top" xlink:title="Stops the ASIO driver and returns any error that occurred during the operation.">
<polygon fill="white" stroke="#666666" points="534,-24.88 364.25,-24.88 364.25,-5.63 534,-5.63 534,-24.88"/>
<text text-anchor="middle" x="449.12" y="-11.38" font-family="Helvetica,sans-Serif" font-size="10.00">NAudio.Wave.Asio.AsioDriver.Stop</text>
</a>
</g>
</g>
<!-- Node2&#45;&gt;Node3 -->
<g id="edge2_Node000002_Node000003" class="edge">
<title>Node2&#45;&gt;Node3</title>
<g id="a_edge2_Node000002_Node000003"><a xlink:title=" ">
<path fill="none" stroke="#63b8ff" d="M328.68,-15.25C336.48,-15.25 344.51,-15.25 352.53,-15.25"/>
<polygon fill="#63b8ff" stroke="#63b8ff" points="352.32,-18.75 362.32,-15.25 352.32,-11.75 352.32,-18.75"/>
</a>
</g>
</g>
</g>
</svg>
