<?xml version="1.0" encoding="UTF-8" standalone="no"?>
<!DOCTYPE svg PUBLIC "-//W3C//DTD SVG 1.1//EN"
 "http://www.w3.org/Graphics/SVG/1.1/DTD/svg11.dtd">
<!-- Generated by graphviz version 10.0.1 (20240210.2158)
 -->
<!-- Title: xeno_rat_server.Forms.File_manager.DeleteMenuItem_Click Pages: 1 -->
<svg width="1560pt" height="535pt"
 viewBox="0.00 0.00 1560.25 535.44" xmlns="http://www.w3.org/2000/svg" xmlns:xlink="http://www.w3.org/1999/xlink">
<g id="graph0" class="graph" transform="scale(1 1) rotate(0) translate(4 531.44)">
<title>xeno_rat_server.Forms.File_manager.DeleteMenuItem_Click</title>
<!-- Node1 -->
<g id="Node000001" class="node">
<title>Node1</title>
<g id="a_Node000001"><a xlink:title="Deletes the file associated with the selected menu item and updates the list view.">
<polygon fill="#999999" stroke="#666666" points="160.75,-206.64 0,-206.64 0,-176.14 160.75,-176.14 160.75,-206.64"/>
<text text-anchor="start" x="8" y="-193.14" font-family="Helvetica,sans-Serif" font-size="10.00">xeno_rat_server.Forms.File</text>
<text text-anchor="middle" x="80.38" y="-181.89" font-family="Helvetica,sans-Serif" font-size="10.00">_manager.DeleteMenuItem_Click</text>
</a>
</g>
</g>
<!-- Node2 -->
<g id="Node000002" class="node">
<title>Node2</title>
<g id="a_Node000002"><a xlink:href="classxeno__rat__server_1_1_forms_1_1_file__manager.html#a80e0d60e11d5db4978539e5a4ede2f1d" target="_top" xlink:title="Deletes a file at the specified path.">
<polygon fill="white" stroke="#666666" points="352.62,-287.64 218.12,-287.64 218.12,-257.14 352.62,-257.14 352.62,-287.64"/>
<text text-anchor="start" x="226.12" y="-274.14" font-family="Helvetica,sans-Serif" font-size="10.00">xeno_rat_server.Forms.File</text>
<text text-anchor="middle" x="285.38" y="-262.89" font-family="Helvetica,sans-Serif" font-size="10.00">_manager.DeleteFile</text>
</a>
</g>
</g>
<!-- Node1&#45;&gt;Node2 -->
<g id="edge1_Node000001_Node000002" class="edge">
<title>Node1&#45;&gt;Node2</title>
<g id="a_edge1_Node000001_Node000002"><a xlink:title=" ">
<path fill="none" stroke="#63b8ff" d="M120.52,-207.01C152.99,-219.97 199.36,-238.47 234.49,-252.49"/>
<polygon fill="#63b8ff" stroke="#63b8ff" points="233.02,-255.67 243.6,-256.12 235.61,-249.17 233.02,-255.67"/>
</a>
</g>
</g>
<!-- Node28 -->
<g id="Node000028" class="node">
<title>Node28</title>
<g id="a_Node000028"><a xlink:href="classxeno__rat__server_1_1_forms_1_1_file__manager.html#a083a998d5ecaef109c8d416336dfa32a" target="_top" xlink:title="Updates the list view without invoking the UI thread, using the provided file path.">
<polygon fill="white" stroke="#666666" points="374,-182.64 196.75,-182.64 196.75,-152.14 374,-152.14 374,-182.64"/>
<text text-anchor="start" x="204.75" y="-169.14" font-family="Helvetica,sans-Serif" font-size="10.00">xeno_rat_server.Forms.File</text>
<text text-anchor="middle" x="285.38" y="-157.89" font-family="Helvetica,sans-Serif" font-size="10.00">_manager.UpdateListViewNonInvoke</text>
</a>
</g>
</g>
<!-- Node1&#45;&gt;Node28 -->
<g id="edge42_Node000001_Node000028" class="edge">
<title>Node1&#45;&gt;Node28</title>
<g id="a_edge42_Node000001_Node000028"><a xlink:title=" ">
<path fill="none" stroke="#63b8ff" d="M161.02,-181.97C168.95,-181.04 177.06,-180.08 185.16,-179.12"/>
<polygon fill="#63b8ff" stroke="#63b8ff" points="185.55,-182.6 195.07,-177.95 184.72,-175.65 185.55,-182.6"/>
</a>
</g>
</g>
<!-- Node3 -->
<g id="Node000003" class="node">
<title>Node3</title>
<g id="a_Node000003"><a xlink:href="classxeno__rat__server_1_1_forms_1_1_file__manager.html#a0bb0d51607854ad0bc4f05d05892167b" target="_top" xlink:title="Creates a sub&#45;sub node for the given client node and returns the created node.">
<polygon fill="white" stroke="#666666" points="558,-349.64 410,-349.64 410,-319.14 558,-319.14 558,-349.64"/>
<text text-anchor="start" x="418" y="-336.14" font-family="Helvetica,sans-Serif" font-size="10.00">xeno_rat_server.Forms.File</text>
<text text-anchor="middle" x="484" y="-324.89" font-family="Helvetica,sans-Serif" font-size="10.00">_manager.CreateSubSubNode</text>
</a>
</g>
</g>
<!-- Node2&#45;&gt;Node3 -->
<g id="edge2_Node000002_Node000003" class="edge">
<title>Node2&#45;&gt;Node3</title>
<g id="a_edge2_Node000002_Node000003"><a xlink:title=" ">
<path fill="none" stroke="#63b8ff" d="M336.25,-288.12C362.46,-296.38 394.8,-306.58 422.45,-315.3"/>
<polygon fill="#63b8ff" stroke="#63b8ff" points="421.15,-318.56 431.74,-318.23 423.25,-311.88 421.15,-318.56"/>
</a>
</g>
</g>
<!-- Node6 -->
<g id="Node000006" class="node">
<title>Node6</title>
<g id="a_Node000006"><a xlink:href="classxeno__rat__server_1_1_node.html#a3dcb832502d4cd1dd580897265b2da7b" target="_top" xlink:title="Asynchronously receives data from the socket and returns the received data as a byte array.">
<polygon fill="white" stroke="#666666" points="948.12,-201.64 797.88,-201.64 797.88,-171.14 948.12,-171.14 948.12,-201.64"/>
<text text-anchor="start" x="805.88" y="-188.14" font-family="Helvetica,sans-Serif" font-size="10.00">xeno_rat_server.Node.Receive</text>
<text text-anchor="middle" x="873" y="-176.89" font-family="Helvetica,sans-Serif" font-size="10.00">Async</text>
</a>
</g>
</g>
<!-- Node2&#45;&gt;Node6 -->
<g id="edge40_Node000002_Node000006" class="edge">
<title>Node2&#45;&gt;Node6</title>
<g id="a_edge40_Node000002_Node000006"><a xlink:title=" ">
<path fill="none" stroke="#63b8ff" d="M321.45,-256.79C377.63,-232.76 491.87,-187.73 594,-171.39 665.21,-160 684.29,-166.75 756.25,-171.39 765.95,-172.02 776.07,-172.93 786.13,-174.01"/>
<polygon fill="#63b8ff" stroke="#63b8ff" points="785.58,-177.47 795.91,-175.12 786.37,-170.52 785.58,-177.47"/>
</a>
</g>
</g>
<!-- Node7 -->
<g id="Node000007" class="node">
<title>Node7</title>
<g id="a_Node000007"><a xlink:href="classxeno__rat__server_1_1_node.html#a8814edd98b6463f49812be32d5928763" target="_top" xlink:title="Sets the isDisposed flag to true and disconnects the socket, disposes resources, and triggers the OnD...">
<polygon fill="white" stroke="#666666" points="1153.5,-363.02 989.75,-363.02 989.75,-343.77 1153.5,-343.77 1153.5,-363.02"/>
<text text-anchor="middle" x="1071.62" y="-349.52" font-family="Helvetica,sans-Serif" font-size="10.00">xeno_rat_server.Node.Disconnect</text>
</a>
</g>
</g>
<!-- Node2&#45;&gt;Node7 -->
<g id="edge39_Node000002_Node000007" class="edge">
<title>Node2&#45;&gt;Node7</title>
<g id="a_edge39_Node000002_Node000007"><a xlink:title=" ">
<path fill="none" stroke="#63b8ff" d="M304.46,-288.14C349.49,-326.08 471.79,-421.54 594,-450.39 749.75,-487.16 803.09,-489.33 953.75,-435.39 992.75,-421.43 1030.64,-390.75 1052.25,-371.13"/>
<polygon fill="#63b8ff" stroke="#63b8ff" points="1054.42,-373.89 1059.36,-364.51 1049.65,-368.76 1054.42,-373.89"/>
</a>
</g>
</g>
<!-- Node16 -->
<g id="Node000016" class="node">
<title>Node16</title>
<g id="a_Node000016"><a xlink:href="classxeno__rat__server_1_1_node.html#a816e267eb31862d38c21e5faaae3061d" target="_top" xlink:title="Sends the provided data asynchronously and returns a boolean indicating the success of the operation.">
<polygon fill="white" stroke="#666666" points="941.38,-325.64 804.62,-325.64 804.62,-295.14 941.38,-295.14 941.38,-325.64"/>
<text text-anchor="start" x="812.62" y="-312.14" font-family="Helvetica,sans-Serif" font-size="10.00">xeno_rat_server.Node.Send</text>
<text text-anchor="middle" x="873" y="-300.89" font-family="Helvetica,sans-Serif" font-size="10.00">Async</text>
</a>
</g>
</g>
<!-- Node2&#45;&gt;Node16 -->
<g id="edge41_Node000002_Node000016" class="edge">
<title>Node2&#45;&gt;Node16</title>
<g id="a_edge41_Node000002_Node000016"><a xlink:title=" ">
<path fill="none" stroke="#63b8ff" d="M352.98,-276.71C461.78,-283.77 677.11,-297.75 793.28,-305.28"/>
<polygon fill="#63b8ff" stroke="#63b8ff" points="792.84,-308.76 803.04,-305.92 793.29,-301.78 792.84,-308.76"/>
</a>
</g>
</g>
<!-- Node4 -->
<g id="Node000004" class="node">
<title>Node4</title>
<g id="a_Node000004"><a xlink:href="classxeno__rat__server_1_1_node.html#a74e11089eb6a14e6921d8f024e40f85b" target="_top" xlink:title="Creates a sub node asynchronously and returns the created node.">
<polygon fill="white" stroke="#666666" points="746.88,-244.64 603.38,-244.64 603.38,-214.14 746.88,-214.14 746.88,-244.64"/>
<text text-anchor="start" x="611.38" y="-231.14" font-family="Helvetica,sans-Serif" font-size="10.00">xeno_rat_server.Node.Create</text>
<text text-anchor="middle" x="675.12" y="-219.89" font-family="Helvetica,sans-Serif" font-size="10.00">SubNodeAsync</text>
</a>
</g>
</g>
<!-- Node3&#45;&gt;Node4 -->
<g id="edge3_Node000003_Node000004" class="edge">
<title>Node3&#45;&gt;Node4</title>
<g id="a_edge3_Node000003_Node000004"><a xlink:title=" ">
<path fill="none" stroke="#63b8ff" d="M513.31,-318.67C546,-300.53 599.9,-270.6 636.19,-250.45"/>
<polygon fill="#63b8ff" stroke="#63b8ff" points="637.56,-253.7 644.6,-245.78 634.16,-247.58 637.56,-253.7"/>
</a>
</g>
</g>
<!-- Node3&#45;&gt;Node6 -->
<g id="edge30_Node000003_Node000006" class="edge">
<title>Node3&#45;&gt;Node6</title>
<g id="a_edge30_Node000003_Node000006"><a xlink:title=" ">
<path fill="none" stroke="#63b8ff" d="M492.61,-319C507.58,-290.67 543.78,-230.82 594,-205.39 653.28,-175.38 728.97,-172.1 786.4,-175.51"/>
<polygon fill="#63b8ff" stroke="#63b8ff" points="785.9,-178.98 796.12,-176.17 786.38,-172 785.9,-178.98"/>
</a>
</g>
</g>
<!-- Node3&#45;&gt;Node7 -->
<g id="edge28_Node000003_Node000007" class="edge">
<title>Node3&#45;&gt;Node7</title>
<g id="a_edge28_Node000003_Node000007"><a xlink:title=" ">
<path fill="none" stroke="#63b8ff" d="M497.05,-349.86C515.26,-371.82 552.14,-411.09 594,-426.39 754.74,-485.16 962.73,-403.5 1039.98,-368.23"/>
<polygon fill="#63b8ff" stroke="#63b8ff" points="1041.44,-371.41 1049.03,-364.02 1038.49,-365.06 1041.44,-371.41"/>
</a>
</g>
</g>
<!-- Node3&#45;&gt;Node16 -->
<g id="edge31_Node000003_Node000016" class="edge">
<title>Node3&#45;&gt;Node16</title>
<g id="a_edge31_Node000003_Node000016"><a xlink:title=" ">
<path fill="none" stroke="#63b8ff" d="M558.25,-329.85C625.29,-325.69 724.25,-319.55 793.04,-315.29"/>
<polygon fill="#63b8ff" stroke="#63b8ff" points="792.96,-318.8 802.73,-314.69 792.53,-311.81 792.96,-318.8"/>
</a>
</g>
</g>
<!-- Node25 -->
<g id="Node000025" class="node">
<title>Node25</title>
<g id="a_Node000025"><a xlink:href="classxeno__rat__server_1_1_socket_handler.html#a7d019c5e4cbd0138d155156c7a7c5a8f" target="_top" xlink:title="Converts an integer to a byte array.">
<polygon fill="white" stroke="#666666" points="1344.25,-472.64 1189.5,-472.64 1189.5,-442.14 1344.25,-442.14 1344.25,-472.64"/>
<text text-anchor="start" x="1197.5" y="-459.14" font-family="Helvetica,sans-Serif" font-size="10.00">xeno_rat_server.SocketHandler.</text>
<text text-anchor="middle" x="1266.88" y="-447.89" font-family="Helvetica,sans-Serif" font-size="10.00">IntToBytes</text>
</a>
</g>
</g>
<!-- Node3&#45;&gt;Node25 -->
<g id="edge29_Node000003_Node000025" class="edge">
<title>Node3&#45;&gt;Node25</title>
<g id="a_edge29_Node000003_Node000025"><a xlink:title=" ">
<path fill="none" stroke="#63b8ff" d="M540.58,-349.99C546.95,-353.37 552.95,-357.46 558,-362.39 588.21,-391.94 559.1,-426.57 594,-450.39 785.04,-580.76 1083.17,-513.39 1207.92,-476.38"/>
<polygon fill="#63b8ff" stroke="#63b8ff" points="1208.72,-479.79 1217.29,-473.55 1206.7,-473.09 1208.72,-479.79"/>
</a>
</g>
</g>
<!-- Node26 -->
<g id="Node000026" class="node">
<title>Node26</title>
<g id="a_Node000026"><a xlink:href="classxeno__rat__server_1_1_utils.html#a030bdf9f1fd71038666ffc036e855412" target="_top" xlink:title="Asynchronously sets the ID for type 2 node and returns the set ID.">
<polygon fill="white" stroke="#666666" points="738.25,-417.64 612,-417.64 612,-387.14 738.25,-387.14 738.25,-417.64"/>
<text text-anchor="start" x="620" y="-404.14" font-family="Helvetica,sans-Serif" font-size="10.00">xeno_rat_server.Utils.Set</text>
<text text-anchor="middle" x="675.12" y="-392.89" font-family="Helvetica,sans-Serif" font-size="10.00">Type2setIdAsync</text>
</a>
</g>
</g>
<!-- Node3&#45;&gt;Node26 -->
<g id="edge32_Node000003_Node000026" class="edge">
<title>Node3&#45;&gt;Node26</title>
<g id="a_edge32_Node000003_Node000026"><a xlink:title=" ">
<path fill="none" stroke="#63b8ff" d="M522.83,-350.1C543.68,-358.57 570.12,-368.97 594,-377.39 599.58,-379.36 605.41,-381.33 611.27,-383.26"/>
<polygon fill="#63b8ff" stroke="#63b8ff" points="609.76,-386.45 620.35,-386.2 611.92,-379.79 609.76,-386.45"/>
</a>
</g>
</g>
<!-- Node27 -->
<g id="Node000027" class="node">
<title>Node27</title>
<g id="a_Node000027"><a xlink:href="classxeno__rat__server_1_1_utils.html#aa71da7ab50cb922a86010128ab2b94f1" target="_top" xlink:title="Sends a byte array with opcode 3 to the specified subNode if the SockType is 2.">
<polygon fill="white" stroke="#666666" points="756.25,-368.64 594,-368.64 594,-338.14 756.25,-338.14 756.25,-368.64"/>
<text text-anchor="start" x="602" y="-355.14" font-family="Helvetica,sans-Serif" font-size="10.00">xeno_rat_server.Utils.Type2return</text>
<text text-anchor="middle" x="675.12" y="-343.89" font-family="Helvetica,sans-Serif" font-size="10.00">Async</text>
</a>
</g>
</g>
<!-- Node3&#45;&gt;Node27 -->
<g id="edge37_Node000003_Node000027" class="edge">
<title>Node3&#45;&gt;Node27</title>
<g id="a_edge37_Node000003_Node000027"><a xlink:title=" ">
<path fill="none" stroke="#63b8ff" d="M558.39,-341.76C566.22,-342.55 574.26,-343.36 582.27,-344.16"/>
<polygon fill="#63b8ff" stroke="#63b8ff" points="581.75,-347.63 592.05,-345.15 582.45,-340.66 581.75,-347.63"/>
</a>
</g>
</g>
<!-- Node5 -->
<g id="Node000005" class="node">
<title>Node5</title>
<g id="a_Node000005"><a xlink:href="classxeno__rat__server_1_1_node.html#a18e3b7528d2c6e45bb38ce24e319484e" target="_top" xlink:title="Checks if the socket is connected and returns a boolean value indicating the connection status.">
<polygon fill="white" stroke="#666666" points="953.75,-239.02 792.25,-239.02 792.25,-219.77 953.75,-219.77 953.75,-239.02"/>
<text text-anchor="middle" x="873" y="-225.52" font-family="Helvetica,sans-Serif" font-size="10.00">xeno_rat_server.Node.Connected</text>
</a>
</g>
</g>
<!-- Node4&#45;&gt;Node5 -->
<g id="edge4_Node000004_Node000005" class="edge">
<title>Node4&#45;&gt;Node5</title>
<g id="a_edge4_Node000004_Node000005"><a xlink:title=" ">
<path fill="none" stroke="#63b8ff" d="M747.12,-229.39C758.04,-229.39 769.44,-229.39 780.73,-229.39"/>
<polygon fill="#63b8ff" stroke="#63b8ff" points="780.44,-232.89 790.44,-229.39 780.44,-225.89 780.44,-232.89"/>
</a>
</g>
</g>
<!-- Node4&#45;&gt;Node6 -->
<g id="edge5_Node000004_Node000006" class="edge">
<title>Node4&#45;&gt;Node6</title>
<g id="a_edge5_Node000004_Node000006"><a xlink:title=" ">
<path fill="none" stroke="#63b8ff" d="M747.12,-213.81C760.77,-210.81 775.17,-207.65 789.16,-204.58"/>
<polygon fill="#63b8ff" stroke="#63b8ff" points="789.77,-208.03 798.79,-202.46 788.27,-201.19 789.77,-208.03"/>
</a>
</g>
</g>
<!-- Node4&#45;&gt;Node16 -->
<g id="edge17_Node000004_Node000016" class="edge">
<title>Node4&#45;&gt;Node16</title>
<g id="a_edge17_Node000004_Node000016"><a xlink:title=" ">
<path fill="none" stroke="#63b8ff" d="M721.27,-245.06C732.74,-249.23 745.01,-253.84 756.25,-258.39 780.47,-268.2 807.09,-280.08 828.69,-290.01"/>
<polygon fill="#63b8ff" stroke="#63b8ff" points="826.93,-293.05 837.48,-294.07 829.87,-286.7 826.93,-293.05"/>
</a>
</g>
</g>
<!-- Node6&#45;&gt;Node7 -->
<g id="edge6_Node000006_Node000007" class="edge">
<title>Node6&#45;&gt;Node7</title>
<g id="a_edge6_Node000006_Node000007"><a xlink:title=" ">
<path fill="none" stroke="#63b8ff" d="M943.22,-202.04C947.04,-204.44 950.6,-207.21 953.75,-210.39 994.13,-251.17 948.13,-294.88 989.75,-334.39 990.81,-335.4 991.91,-336.35 993.05,-337.26"/>
<polygon fill="#63b8ff" stroke="#63b8ff" points="990.87,-340.02 1001.17,-342.51 994.67,-334.14 990.87,-340.02"/>
</a>
</g>
</g>
<!-- Node8 -->
<g id="Node000008" class="node">
<title>Node8</title>
<g id="a_Node000008"><a xlink:href="classxeno__rat__server_1_1_socket_handler.html#a40a6f3b7eb555e8d688ea5c0074ffa2c" target="_top" xlink:title="Asynchronously receives data and processes it according to the protocol, then returns the processed d...">
<polygon fill="white" stroke="#666666" points="1149,-184.64 994.25,-184.64 994.25,-154.14 1149,-154.14 1149,-184.64"/>
<text text-anchor="start" x="1002.25" y="-171.14" font-family="Helvetica,sans-Serif" font-size="10.00">xeno_rat_server.SocketHandler.</text>
<text text-anchor="middle" x="1071.62" y="-159.89" font-family="Helvetica,sans-Serif" font-size="10.00">ReceiveAsync</text>
</a>
</g>
</g>
<!-- Node6&#45;&gt;Node8 -->
<g id="edge8_Node000006_Node000008" class="edge">
<title>Node6&#45;&gt;Node8</title>
<g id="a_edge8_Node000006_Node000008"><a xlink:title=" ">
<path fill="none" stroke="#63b8ff" d="M948.62,-179.94C959.7,-178.98 971.21,-177.99 982.53,-177.01"/>
<polygon fill="#63b8ff" stroke="#63b8ff" points="982.6,-180.51 992.27,-176.17 982,-173.54 982.6,-180.51"/>
</a>
</g>
</g>
<!-- Node7&#45;&gt;Node7 -->
<g id="edge7_Node000007_Node000007" class="edge">
<title>Node7&#45;&gt;Node7</title>
<g id="a_edge7_Node000007_Node000007"><a xlink:title=" ">
<path fill="none" stroke="#63b8ff" d="M1041.06,-363.3C1027.11,-371.91 1037.3,-381.02 1071.62,-381.02 1091.47,-381.02 1103.24,-377.97 1106.95,-373.74"/>
<polygon fill="#63b8ff" stroke="#63b8ff" points="1110.16,-372.33 1102.82,-364.68 1103.79,-375.23 1110.16,-372.33"/>
</a>
</g>
</g>
<!-- Node9 -->
<g id="Node000009" class="node">
<title>Node9</title>
<g id="a_Node000009"><a xlink:href="classxeno__rat__server_1_1_socket_handler.html#a53169a2098514698865b69c8fab12f77" target="_top" xlink:title="Truncates the input byte array starting from the specified offset and returns the truncated byte arra...">
<polygon fill="white" stroke="#666666" points="1344.25,-227.64 1189.5,-227.64 1189.5,-197.14 1344.25,-197.14 1344.25,-227.64"/>
<text text-anchor="start" x="1197.5" y="-214.14" font-family="Helvetica,sans-Serif" font-size="10.00">xeno_rat_server.SocketHandler.</text>
<text text-anchor="middle" x="1266.88" y="-202.89" font-family="Helvetica,sans-Serif" font-size="10.00">BTruncate</text>
</a>
</g>
</g>
<!-- Node8&#45;&gt;Node9 -->
<g id="edge9_Node000008_Node000009" class="edge">
<title>Node8&#45;&gt;Node9</title>
<g id="a_edge9_Node000008_Node000009"><a xlink:title=" ">
<path fill="none" stroke="#63b8ff" d="M1143.21,-185.1C1156.57,-188.07 1170.64,-191.2 1184.31,-194.24"/>
<polygon fill="#63b8ff" stroke="#63b8ff" points="1183.16,-197.57 1193.68,-196.33 1184.68,-190.74 1183.16,-197.57"/>
</a>
</g>
</g>
<!-- Node10 -->
<g id="Node000010" class="node">
<title>Node10</title>
<g id="a_Node000010"><a xlink:href="classxeno__rat__server_1_1_socket_handler.html#a68836e871124cbda8a644223a73421d0" target="_top" xlink:title="Converts the specified byte array to an integer value.">
<polygon fill="white" stroke="#666666" points="1543.62,-43.64 1388.88,-43.64 1388.88,-13.14 1543.62,-13.14 1543.62,-43.64"/>
<text text-anchor="start" x="1396.88" y="-30.14" font-family="Helvetica,sans-Serif" font-size="10.00">xeno_rat_server.SocketHandler.</text>
<text text-anchor="middle" x="1466.25" y="-18.89" font-family="Helvetica,sans-Serif" font-size="10.00">BytesToInt</text>
</a>
</g>
</g>
<!-- Node8&#45;&gt;Node10 -->
<g id="edge10_Node000008_Node000010" class="edge">
<title>Node8&#45;&gt;Node10</title>
<g id="a_edge10_Node000008_Node000010"><a xlink:title=" ">
<path fill="none" stroke="#63b8ff" d="M1149.35,-178.05C1205.78,-181.16 1283.01,-178.45 1344.25,-150.39 1390.34,-129.27 1428.57,-82.42 1449.05,-53.31"/>
<polygon fill="#63b8ff" stroke="#63b8ff" points="1451.93,-55.31 1454.69,-45.08 1446.15,-51.35 1451.93,-55.31"/>
</a>
</g>
</g>
<!-- Node11 -->
<g id="Node000011" class="node">
<title>Node11</title>
<g id="a_Node000011"><a xlink:href="classxeno__rat__server_1_1_compression.html#ad992bb75126d7c346fe7884dbbcf8ad8" target="_top" xlink:title="Decompresses the input buffer using the LZNT1 compression format and returns the decompressed data.">
<polygon fill="white" stroke="#666666" points="1341.25,-276.64 1192.5,-276.64 1192.5,-246.14 1341.25,-246.14 1341.25,-276.64"/>
<text text-anchor="start" x="1200.5" y="-263.14" font-family="Helvetica,sans-Serif" font-size="10.00">xeno_rat_server.Compression.</text>
<text text-anchor="middle" x="1266.88" y="-251.89" font-family="Helvetica,sans-Serif" font-size="10.00">Decompress</text>
</a>
</g>
</g>
<!-- Node8&#45;&gt;Node11 -->
<g id="edge11_Node000008_Node000011" class="edge">
<title>Node8&#45;&gt;Node11</title>
<g id="a_edge11_Node000008_Node000011"><a xlink:title=" ">
<path fill="none" stroke="#63b8ff" d="M1096.49,-185.01C1119.59,-199.65 1155.95,-221.47 1189.5,-236.39 1193.73,-238.27 1198.15,-240.09 1202.63,-241.82"/>
<polygon fill="#63b8ff" stroke="#63b8ff" points="1201.15,-245 1211.74,-245.18 1203.57,-238.43 1201.15,-245"/>
</a>
</g>
</g>
<!-- Node13 -->
<g id="Node000013" class="node">
<title>Node13</title>
<g id="a_Node000013"><a xlink:href="classxeno__rat__server_1_1_encryption.html#ae2a6537578e2140511afe92f8ad5e964" target="_top" xlink:title="Decrypts the input data using the provided key and returns the decrypted result.">
<polygon fill="white" stroke="#666666" points="1335.62,-141.64 1198.12,-141.64 1198.12,-111.14 1335.62,-111.14 1335.62,-141.64"/>
<text text-anchor="start" x="1206.12" y="-128.14" font-family="Helvetica,sans-Serif" font-size="10.00">xeno_rat_server.Encryption.</text>
<text text-anchor="middle" x="1266.88" y="-116.89" font-family="Helvetica,sans-Serif" font-size="10.00">Decrypt</text>
</a>
</g>
</g>
<!-- Node8&#45;&gt;Node13 -->
<g id="edge13_Node000008_Node000013" class="edge">
<title>Node8&#45;&gt;Node13</title>
<g id="a_edge13_Node000008_Node000013"><a xlink:title=" ">
<path fill="none" stroke="#63b8ff" d="M1143.21,-153.69C1157.39,-150.53 1172.37,-147.2 1186.82,-143.98"/>
<polygon fill="#63b8ff" stroke="#63b8ff" points="1187.26,-147.47 1196.26,-141.88 1185.74,-140.64 1187.26,-147.47"/>
</a>
</g>
</g>
<!-- Node14 -->
<g id="Node000014" class="node">
<title>Node14</title>
<g id="a_Node000014"><a xlink:href="classxeno__rat__server_1_1_socket_handler.html#aeefcafd750efab21954bd772b8ae565d" target="_top" xlink:title="Parses the header from the provided byte array and returns the parsed header object.">
<polygon fill="white" stroke="#666666" points="1344.25,-43.64 1189.5,-43.64 1189.5,-13.14 1344.25,-13.14 1344.25,-43.64"/>
<text text-anchor="start" x="1197.5" y="-30.14" font-family="Helvetica,sans-Serif" font-size="10.00">xeno_rat_server.SocketHandler.</text>
<text text-anchor="middle" x="1266.88" y="-18.89" font-family="Helvetica,sans-Serif" font-size="10.00">ParseHeader</text>
</a>
</g>
</g>
<!-- Node8&#45;&gt;Node14 -->
<g id="edge14_Node000008_Node000014" class="edge">
<title>Node8&#45;&gt;Node14</title>
<g id="a_edge14_Node000008_Node000014"><a xlink:title=" ">
<path fill="none" stroke="#63b8ff" d="M1084.2,-153.94C1103.44,-129.28 1144.38,-80.99 1189.5,-53.39 1192.23,-51.72 1195.09,-50.15 1198.03,-48.67"/>
<polygon fill="#63b8ff" stroke="#63b8ff" points="1199.24,-51.96 1206.89,-44.63 1196.33,-45.59 1199.24,-51.96"/>
</a>
</g>
</g>
<!-- Node15 -->
<g id="Node000015" class="node">
<title>Node15</title>
<g id="a_Node000015"><a xlink:href="classxeno__rat__server_1_1_socket_handler.html#acc7e34649fee5060867a2321dd15d854" target="_top" xlink:title="Asynchronously receives all the data of the specified size from the connected socket and returns the ...">
<polygon fill="white" stroke="#666666" points="1344.25,-92.64 1189.5,-92.64 1189.5,-62.14 1344.25,-62.14 1344.25,-92.64"/>
<text text-anchor="start" x="1197.5" y="-79.14" font-family="Helvetica,sans-Serif" font-size="10.00">xeno_rat_server.SocketHandler.</text>
<text text-anchor="middle" x="1266.88" y="-67.89" font-family="Helvetica,sans-Serif" font-size="10.00">RecvAllAsync_ddos_unsafer</text>
</a>
</g>
</g>
<!-- Node8&#45;&gt;Node15 -->
<g id="edge16_Node000008_Node000015" class="edge">
<title>Node8&#45;&gt;Node15</title>
<g id="a_edge16_Node000008_Node000015"><a xlink:title=" ">
<path fill="none" stroke="#63b8ff" d="M1096.49,-153.78C1119.59,-139.13 1155.95,-117.31 1189.5,-102.39 1193.73,-100.51 1198.15,-98.7 1202.63,-96.96"/>
<polygon fill="#63b8ff" stroke="#63b8ff" points="1203.57,-100.35 1211.74,-93.6 1201.15,-93.78 1203.57,-100.35"/>
</a>
</g>
</g>
<!-- Node12 -->
<g id="Node000012" class="node">
<title>Node12</title>
<g id="a_Node000012"><a xlink:href="classxeno__rat__server_1_1_compression.html#a1c901d319793d3855012549e6a18fe53" target="_top" xlink:title="Decompresses a buffer using the specified compression format and returns the decompressed data.">
<polygon fill="white" stroke="#666666" points="1540.62,-276.64 1391.88,-276.64 1391.88,-246.14 1540.62,-246.14 1540.62,-276.64"/>
<text text-anchor="start" x="1399.88" y="-263.14" font-family="Helvetica,sans-Serif" font-size="10.00">xeno_rat_server.Compression.</text>
<text text-anchor="middle" x="1466.25" y="-251.89" font-family="Helvetica,sans-Serif" font-size="10.00">RtlDecompressBuffer</text>
</a>
</g>
</g>
<!-- Node11&#45;&gt;Node12 -->
<g id="edge12_Node000011_Node000012" class="edge">
<title>Node11&#45;&gt;Node12</title>
<g id="a_edge12_Node000011_Node000012"><a xlink:title=" ">
<path fill="none" stroke="#63b8ff" d="M1341.65,-261.39C1354.27,-261.39 1367.47,-261.39 1380.35,-261.39"/>
<polygon fill="#63b8ff" stroke="#63b8ff" points="1380.05,-264.89 1390.05,-261.39 1380.05,-257.89 1380.05,-264.89"/>
</a>
</g>
</g>
<!-- Node14&#45;&gt;Node10 -->
<g id="edge15_Node000014_Node000010" class="edge">
<title>Node14&#45;&gt;Node10</title>
<g id="a_edge15_Node000014_Node000010"><a xlink:title=" ">
<path fill="none" stroke="#63b8ff" d="M1344.47,-28.39C1355.16,-28.39 1366.23,-28.39 1377.11,-28.39"/>
<polygon fill="#63b8ff" stroke="#63b8ff" points="1376.86,-31.89 1386.86,-28.39 1376.86,-24.89 1376.86,-31.89"/>
</a>
</g>
</g>
<!-- Node16&#45;&gt;Node7 -->
<g id="edge18_Node000016_Node000007" class="edge">
<title>Node16&#45;&gt;Node7</title>
<g id="a_edge18_Node000016_Node000007"><a xlink:title=" ">
<path fill="none" stroke="#63b8ff" d="M941.67,-325.19C965.04,-330.3 990.99,-335.98 1013.45,-340.89"/>
<polygon fill="#63b8ff" stroke="#63b8ff" points="1012.5,-344.26 1023.02,-342.98 1014,-337.42 1012.5,-344.26"/>
</a>
</g>
</g>
<!-- Node17 -->
<g id="Node000017" class="node">
<title>Node17</title>
<g id="a_Node000017"><a xlink:href="classxeno__rat__server_1_1_socket_handler.html#a85ca8385d023521cdb86ff8ae688adee" target="_top" xlink:title="Sends the provided data asynchronously over the socket.">
<polygon fill="white" stroke="#666666" points="1149,-325.64 994.25,-325.64 994.25,-295.14 1149,-295.14 1149,-325.64"/>
<text text-anchor="start" x="1002.25" y="-312.14" font-family="Helvetica,sans-Serif" font-size="10.00">xeno_rat_server.SocketHandler.</text>
<text text-anchor="middle" x="1071.62" y="-300.89" font-family="Helvetica,sans-Serif" font-size="10.00">SendAsync</text>
</a>
</g>
</g>
<!-- Node16&#45;&gt;Node17 -->
<g id="edge19_Node000016_Node000017" class="edge">
<title>Node16&#45;&gt;Node17</title>
<g id="a_edge19_Node000016_Node000017"><a xlink:title=" ">
<path fill="none" stroke="#63b8ff" d="M941.67,-310.39C954.86,-310.39 968.87,-310.39 982.61,-310.39"/>
<polygon fill="#63b8ff" stroke="#63b8ff" points="982.55,-313.89 992.55,-310.39 982.55,-306.89 982.55,-313.89"/>
</a>
</g>
</g>
<!-- Node18 -->
<g id="Node000018" class="node">
<title>Node18</title>
<g id="a_Node000018"><a xlink:href="classxeno__rat__server_1_1_compression.html#a0f3f31a2fe34d92bf04538b2fdf529e0" target="_top" xlink:title="Compresses the input buffer using the LZNT1 compression format and returns the compressed data.">
<polygon fill="white" stroke="#666666" points="1341.25,-374.64 1192.5,-374.64 1192.5,-344.14 1341.25,-344.14 1341.25,-374.64"/>
<text text-anchor="start" x="1200.5" y="-361.14" font-family="Helvetica,sans-Serif" font-size="10.00">xeno_rat_server.Compression.</text>
<text text-anchor="middle" x="1266.88" y="-349.89" font-family="Helvetica,sans-Serif" font-size="10.00">Compress</text>
</a>
</g>
</g>
<!-- Node17&#45;&gt;Node18 -->
<g id="edge20_Node000017_Node000018" class="edge">
<title>Node17&#45;&gt;Node18</title>
<g id="a_edge20_Node000017_Node000018"><a xlink:title=" ">
<path fill="none" stroke="#63b8ff" d="M1134.57,-326.1C1153.12,-330.8 1173.63,-336 1192.83,-340.87"/>
<polygon fill="#63b8ff" stroke="#63b8ff" points="1191.93,-344.25 1202.48,-343.32 1193.65,-337.47 1191.93,-344.25"/>
</a>
</g>
</g>
<!-- Node23 -->
<g id="Node000023" class="node">
<title>Node23</title>
<g id="a_Node000023"><a xlink:href="classxeno__rat__server_1_1_socket_handler.html#a4f2e993b63cf1bba877781c9be2ed496" target="_top" xlink:title="Concatenates two byte arrays and returns the result.">
<polygon fill="white" stroke="#666666" points="1344.25,-423.64 1189.5,-423.64 1189.5,-393.14 1344.25,-393.14 1344.25,-423.64"/>
<text text-anchor="start" x="1197.5" y="-410.14" font-family="Helvetica,sans-Serif" font-size="10.00">xeno_rat_server.SocketHandler.</text>
<text text-anchor="middle" x="1266.88" y="-398.89" font-family="Helvetica,sans-Serif" font-size="10.00">Concat</text>
</a>
</g>
</g>
<!-- Node17&#45;&gt;Node23 -->
<g id="edge25_Node000017_Node000023" class="edge">
<title>Node17&#45;&gt;Node23</title>
<g id="a_edge25_Node000017_Node000023"><a xlink:title=" ">
<path fill="none" stroke="#63b8ff" d="M1138.78,-326C1143.96,-328.41 1148.95,-331.19 1153.5,-334.39 1175.61,-349.93 1167.61,-367.54 1189.5,-383.39 1191.44,-384.8 1193.47,-386.13 1195.56,-387.39"/>
<polygon fill="#63b8ff" stroke="#63b8ff" points="1193.91,-390.47 1204.38,-392.05 1197.18,-384.29 1193.91,-390.47"/>
</a>
</g>
</g>
<!-- Node24 -->
<g id="Node000024" class="node">
<title>Node24</title>
<g id="a_Node000024"><a xlink:href="classxeno__rat__server_1_1_encryption.html#a0fafecaba804cb57663bdbb4dcc4e93f" target="_top" xlink:title="Encrypts the input data using the provided key and returns the encrypted result.">
<polygon fill="white" stroke="#666666" points="1335.62,-325.64 1198.12,-325.64 1198.12,-295.14 1335.62,-295.14 1335.62,-325.64"/>
<text text-anchor="start" x="1206.12" y="-312.14" font-family="Helvetica,sans-Serif" font-size="10.00">xeno_rat_server.Encryption.</text>
<text text-anchor="middle" x="1266.88" y="-300.89" font-family="Helvetica,sans-Serif" font-size="10.00">Encrypt</text>
</a>
</g>
</g>
<!-- Node17&#45;&gt;Node24 -->
<g id="edge26_Node000017_Node000024" class="edge">
<title>Node17&#45;&gt;Node24</title>
<g id="a_edge26_Node000017_Node000024"><a xlink:title=" ">
<path fill="none" stroke="#63b8ff" d="M1149.28,-310.39C1161.54,-310.39 1174.26,-310.39 1186.58,-310.39"/>
<polygon fill="#63b8ff" stroke="#63b8ff" points="1186.25,-313.89 1196.25,-310.39 1186.25,-306.89 1186.25,-313.89"/>
</a>
</g>
</g>
<!-- Node17&#45;&gt;Node25 -->
<g id="edge27_Node000017_Node000025" class="edge">
<title>Node17&#45;&gt;Node25</title>
<g id="a_edge27_Node000017_Node000025"><a xlink:title=" ">
<path fill="none" stroke="#63b8ff" d="M1142.17,-325.99C1146.26,-328.4 1150.08,-331.18 1153.5,-334.39 1187.34,-366.14 1156.11,-400.17 1189.5,-432.39 1190.54,-433.4 1191.63,-434.37 1192.75,-435.3"/>
<polygon fill="#63b8ff" stroke="#63b8ff" points="1190.52,-438.01 1200.74,-440.82 1194.5,-432.25 1190.52,-438.01"/>
</a>
</g>
</g>
<!-- Node19 -->
<g id="Node000019" class="node">
<title>Node19</title>
<g id="a_Node000019"><a xlink:href="classxeno__rat__server_1_1_compression.html#ae86c8cb19fb340173e6b06816907c485" target="_top" xlink:title="Allocates the specified number of bytes in the local heap and returns a pointer to the allocated memo...">
<polygon fill="white" stroke="#666666" points="1540.62,-374.64 1391.88,-374.64 1391.88,-344.14 1540.62,-344.14 1540.62,-374.64"/>
<text text-anchor="start" x="1399.88" y="-361.14" font-family="Helvetica,sans-Serif" font-size="10.00">xeno_rat_server.Compression.</text>
<text text-anchor="middle" x="1466.25" y="-349.89" font-family="Helvetica,sans-Serif" font-size="10.00">LocalAlloc</text>
</a>
</g>
</g>
<!-- Node18&#45;&gt;Node19 -->
<g id="edge21_Node000018_Node000019" class="edge">
<title>Node18&#45;&gt;Node19</title>
<g id="a_edge21_Node000018_Node000019"><a xlink:title=" ">
<path fill="none" stroke="#63b8ff" d="M1341.65,-359.39C1354.27,-359.39 1367.47,-359.39 1380.35,-359.39"/>
<polygon fill="#63b8ff" stroke="#63b8ff" points="1380.05,-362.89 1390.05,-359.39 1380.05,-355.89 1380.05,-362.89"/>
</a>
</g>
</g>
<!-- Node20 -->
<g id="Node000020" class="node">
<title>Node20</title>
<g id="a_Node000020"><a xlink:href="classxeno__rat__server_1_1_compression.html#ab527e0a594d96bbaa1a4b1541888aa74" target="_top" xlink:title="Frees the memory block allocated by LocalAlloc and LocalReAlloc and invalidates the handle.">
<polygon fill="white" stroke="#666666" points="1540.62,-325.64 1391.88,-325.64 1391.88,-295.14 1540.62,-295.14 1540.62,-325.64"/>
<text text-anchor="start" x="1399.88" y="-312.14" font-family="Helvetica,sans-Serif" font-size="10.00">xeno_rat_server.Compression.</text>
<text text-anchor="middle" x="1466.25" y="-300.89" font-family="Helvetica,sans-Serif" font-size="10.00">LocalFree</text>
</a>
</g>
</g>
<!-- Node18&#45;&gt;Node20 -->
<g id="edge22_Node000018_Node000020" class="edge">
<title>Node18&#45;&gt;Node20</title>
<g id="a_edge22_Node000018_Node000020"><a xlink:title=" ">
<path fill="none" stroke="#63b8ff" d="M1331.14,-343.69C1350.17,-338.96 1371.24,-333.73 1390.92,-328.85"/>
<polygon fill="#63b8ff" stroke="#63b8ff" points="1391.67,-332.26 1400.54,-326.46 1389.99,-325.47 1391.67,-332.26"/>
</a>
</g>
</g>
<!-- Node21 -->
<g id="Node000021" class="node">
<title>Node21</title>
<g id="a_Node000021"><a xlink:href="classxeno__rat__server_1_1_compression.html#a1f9bb20d96d13bdc4d0f90e2b68d4343" target="_top" xlink:title="Compresses the input buffer using the specified compression format and returns the compressed data in...">
<polygon fill="white" stroke="#666666" points="1540.62,-472.64 1391.88,-472.64 1391.88,-442.14 1540.62,-442.14 1540.62,-472.64"/>
<text text-anchor="start" x="1399.88" y="-459.14" font-family="Helvetica,sans-Serif" font-size="10.00">xeno_rat_server.Compression.</text>
<text text-anchor="middle" x="1466.25" y="-447.89" font-family="Helvetica,sans-Serif" font-size="10.00">RtlCompressBuffer</text>
</a>
</g>
</g>
<!-- Node18&#45;&gt;Node21 -->
<g id="edge23_Node000018_Node000021" class="edge">
<title>Node18&#45;&gt;Node21</title>
<g id="a_edge23_Node000018_Node000021"><a xlink:title=" ">
<path fill="none" stroke="#63b8ff" d="M1327.99,-375.07C1333.73,-377.73 1339.26,-380.82 1344.25,-384.39 1365.93,-399.93 1358.34,-417.19 1380.25,-432.39 1382.35,-433.85 1384.55,-435.23 1386.8,-436.53"/>
<polygon fill="#63b8ff" stroke="#63b8ff" points="1385.2,-439.64 1395.71,-441.03 1388.37,-433.39 1385.2,-439.64"/>
</a>
</g>
</g>
<!-- Node22 -->
<g id="Node000022" class="node">
<title>Node22</title>
<g id="a_Node000022"><a xlink:href="classxeno__rat__server_1_1_compression.html#a5ca090d7b0887e40753bad9800c321e7" target="_top" xlink:title="Retrieves the size of the workspace required for compression.">
<polygon fill="white" stroke="#666666" points="1552.25,-423.64 1380.25,-423.64 1380.25,-393.14 1552.25,-393.14 1552.25,-423.64"/>
<text text-anchor="start" x="1388.25" y="-410.14" font-family="Helvetica,sans-Serif" font-size="10.00">xeno_rat_server.Compression.</text>
<text text-anchor="middle" x="1466.25" y="-398.89" font-family="Helvetica,sans-Serif" font-size="10.00">RtlGetCompressionWorkSpaceSize</text>
</a>
</g>
</g>
<!-- Node18&#45;&gt;Node22 -->
<g id="edge24_Node000018_Node000022" class="edge">
<title>Node18&#45;&gt;Node22</title>
<g id="a_edge24_Node000018_Node000022"><a xlink:title=" ">
<path fill="none" stroke="#63b8ff" d="M1331.14,-375.1C1350.17,-379.82 1371.24,-385.05 1390.92,-389.94"/>
<polygon fill="#63b8ff" stroke="#63b8ff" points="1389.99,-393.31 1400.54,-392.33 1391.67,-386.52 1389.99,-393.31"/>
</a>
</g>
</g>
<!-- Node26&#45;&gt;Node6 -->
<g id="edge35_Node000026_Node000006" class="edge">
<title>Node26&#45;&gt;Node6</title>
<g id="a_edge35_Node000026_Node000006"><a xlink:title=" ">
<path fill="none" stroke="#63b8ff" d="M738.73,-390.33C745.28,-387 751.34,-382.77 756.25,-377.39 807.47,-321.34 740.75,-266.18 792.25,-210.39 792.62,-209.99 792.99,-209.6 793.37,-209.22"/>
<polygon fill="#63b8ff" stroke="#63b8ff" points="795.46,-212.03 800.99,-202.99 791.03,-206.61 795.46,-212.03"/>
</a>
</g>
</g>
<!-- Node26&#45;&gt;Node16 -->
<g id="edge36_Node000026_Node000016" class="edge">
<title>Node26&#45;&gt;Node16</title>
<g id="a_edge36_Node000026_Node000016"><a xlink:title=" ">
<path fill="none" stroke="#63b8ff" d="M731.89,-386.76C740.17,-383.93 748.51,-380.79 756.25,-377.39 764.5,-373.77 805.29,-349.91 836.13,-331.69"/>
<polygon fill="#63b8ff" stroke="#63b8ff" points="837.62,-334.88 844.44,-326.77 834.05,-328.85 837.62,-334.88"/>
</a>
</g>
</g>
<!-- Node26&#45;&gt;Node23 -->
<g id="edge33_Node000026_Node000023" class="edge">
<title>Node26&#45;&gt;Node23</title>
<g id="a_edge33_Node000026_Node000023"><a xlink:title=" ">
<path fill="none" stroke="#63b8ff" d="M738.68,-403.03C844.08,-404.1 1057.3,-406.27 1177.79,-407.5"/>
<polygon fill="#63b8ff" stroke="#63b8ff" points="1177.6,-410.99 1187.64,-407.6 1177.68,-403.99 1177.6,-410.99"/>
</a>
</g>
</g>
<!-- Node26&#45;&gt;Node25 -->
<g id="edge34_Node000026_Node000025" class="edge">
<title>Node26&#45;&gt;Node25</title>
<g id="a_edge34_Node000026_Node000025"><a xlink:title=" ">
<path fill="none" stroke="#63b8ff" d="M738.74,-411C756.06,-413.23 774.87,-415.54 792.25,-417.39 926.49,-431.72 1082.58,-444.07 1177.77,-451.12"/>
<polygon fill="#63b8ff" stroke="#63b8ff" points="1177.34,-454.6 1187.57,-451.84 1177.85,-447.62 1177.34,-454.6"/>
</a>
</g>
</g>
<!-- Node27&#45;&gt;Node16 -->
<g id="edge38_Node000027_Node000016" class="edge">
<title>Node27&#45;&gt;Node16</title>
<g id="a_edge38_Node000027_Node000016"><a xlink:title=" ">
<path fill="none" stroke="#63b8ff" d="M747.67,-337.69C762.53,-334.42 778.27,-330.97 793.37,-327.65"/>
<polygon fill="#63b8ff" stroke="#63b8ff" points="793.74,-331.16 802.76,-325.59 792.24,-324.32 793.74,-331.16"/>
</a>
</g>
</g>
<!-- Node29 -->
<g id="Node000029" class="node">
<title>Node29</title>
<g id="a_Node000029"><a xlink:href="classxeno__rat__server_1_1_forms_1_1_file_view.html#a5ce44efa20d5f3a71da3260cbfe2e80f" target="_top" xlink:title="Retrieves information about the files and directories at the specified path.">
<polygon fill="white" stroke="#666666" points="742.38,-120.64 607.88,-120.64 607.88,-90.14 742.38,-90.14 742.38,-120.64"/>
<text text-anchor="start" x="615.88" y="-107.14" font-family="Helvetica,sans-Serif" font-size="10.00">xeno_rat_server.Forms.File</text>
<text text-anchor="middle" x="675.12" y="-95.89" font-family="Helvetica,sans-Serif" font-size="10.00">View.GetInfo</text>
</a>
</g>
</g>
<!-- Node28&#45;&gt;Node29 -->
<g id="edge43_Node000028_Node000029" class="edge">
<title>Node28&#45;&gt;Node29</title>
<g id="a_edge43_Node000028_Node000029"><a xlink:title=" ">
<path fill="none" stroke="#63b8ff" d="M338.31,-151.65C360.26,-145.49 386.2,-138.85 410,-134.39 472.1,-122.76 543.34,-115.28 596.18,-110.83"/>
<polygon fill="#63b8ff" stroke="#63b8ff" points="596.31,-114.33 605.99,-110.02 595.74,-107.35 596.31,-114.33"/>
</a>
</g>
</g>
<!-- Node29&#45;&gt;Node6 -->
<g id="edge45_Node000029_Node000006" class="edge">
<title>Node29&#45;&gt;Node6</title>
<g id="a_edge45_Node000029_Node000006"><a xlink:title=" ">
<path fill="none" stroke="#63b8ff" d="M721.27,-121.06C732.74,-125.23 745.01,-129.84 756.25,-134.39 780.47,-144.2 807.09,-156.08 828.69,-166.01"/>
<polygon fill="#63b8ff" stroke="#63b8ff" points="826.93,-169.05 837.48,-170.07 829.87,-162.7 826.93,-169.05"/>
</a>
</g>
</g>
<!-- Node29&#45;&gt;Node10 -->
<g id="edge44_Node000029_Node000010" class="edge">
<title>Node29&#45;&gt;Node10</title>
<g id="a_edge44_Node000029_Node000010"><a xlink:title=" ">
<path fill="none" stroke="#63b8ff" d="M724.53,-89.71C834.3,-56 1110.75,18.54 1344.25,-4.39 1358.12,-5.75 1372.77,-7.98 1386.89,-10.53"/>
<polygon fill="#63b8ff" stroke="#63b8ff" points="1386.12,-13.95 1396.59,-12.36 1387.41,-7.07 1386.12,-13.95"/>
</a>
</g>
</g>
<!-- Node29&#45;&gt;Node16 -->
<g id="edge46_Node000029_Node000016" class="edge">
<title>Node29&#45;&gt;Node16</title>
<g id="a_edge46_Node000029_Node000016"><a xlink:title=" ">
<path fill="none" stroke="#63b8ff" d="M688.68,-121.04C717.51,-156.97 786.48,-242.74 792.25,-248.39 806.99,-262.82 825.01,-277.07 840.2,-288.27"/>
<polygon fill="#63b8ff" stroke="#63b8ff" points="837.85,-290.89 848,-293.93 841.96,-285.23 837.85,-290.89"/>
</a>
</g>
</g>
</g>
</svg>
