<?xml version="1.0" encoding="UTF-8" standalone="no"?>
<!DOCTYPE svg PUBLIC "-//W3C//DTD SVG 1.1//EN"
 "http://www.w3.org/Graphics/SVG/1.1/DTD/svg11.dtd">
<!-- Generated by graphviz version 10.0.1 (20240210.2158)
 -->
<!-- Title: NAudio.Midi.RawMetaEvent Pages: 1 -->
<!--zoomable 707 -->

<svg id="main" version="1.1" xmlns="http://www.w3.org/2000/svg" xmlns:xlink="http://www.w3.org/1999/xlink" xml:space="preserve" onload="init(evt)">
<style type="text/css"><![CDATA[
.node, .edge {opacity: 0.7;}
.node.selected, .edge.selected {opacity: 1;}
.edge:hover path { stroke: red; }
.edge:hover polygon { stroke: red; fill: red; }
]]></style>

<defs>
  <circle id="rim" cx="0" cy="0" r="7"/>
  <circle id="rim2" cx="0" cy="0" r="3.5"/>
  <g id="zoomPlus">
    <use xlink:href="#rim" fill="#404040"><set attributeName="fill" to="#808080" begin="zoomplus.mouseover" end="zoomplus.mouseout"/></use>
    <path d="M-4,0h8M0,-4v8" fill="none" stroke="white" stroke-width="1.5" pointer-events="none"/>
  </g>
  <g id="zoomMin">
    <use xlink:href="#rim" fill="#404040"><set attributeName="fill" to="#808080" begin="zoomminus.mouseover" end="zoomminus.mouseout"/></use>
    <path d="M-4,0h8" fill="none" stroke="white" stroke-width="1.5" pointer-events="none"/>
  </g>
  <g id="arrowUp" transform="translate(30 24)">
    <use xlink:href="#rim"/>
    <path pointer-events="none" fill="none" stroke="white" stroke-width="1.5" d="M0,-3.0v7 M-2.5,-0.5L0,-3.0L2.5,-0.5"/>
  </g>
  <g id="arrowRight" transform="rotate(90) translate(36 -43)">
    <use xlink:href="#rim"/>
    <path pointer-events="none" fill="none" stroke="white" stroke-width="1.5" d="M0,-3.0v7 M-2.5,-0.5L0,-3.0L2.5,-0.5"/>
  </g>
  <g id="arrowDown" transform="rotate(180) translate(-30 -48)">
    <use xlink:href="#rim"/>
    <path pointer-events="none" fill="none" stroke="white" stroke-width="1.5" d="M0,-3.0v7 M-2.5,-0.5L0,-3.0L2.5,-0.5"/>
  </g>
  <g id="arrowLeft" transform="rotate(270) translate(-36 17)">
    <use xlink:href="#rim"/>
    <path pointer-events="none" fill="none" stroke="white" stroke-width="1.5" d="M0,-3.0v7 M-2.5,-0.5L0,-3.0L2.5,-0.5"/>
  </g>
  <g id="resetDef">
    <use xlink:href="#rim2" fill="#404040"><set attributeName="fill" to="#808080" begin="reset.mouseover" end="reset.mouseout"/></use>
  </g>
</defs>
<script type="application/ecmascript">
var viewWidth = 340;
var viewHeight = 707;
var sectionId = 'dynsection-1';
</script>
<script type="application/ecmascript" xlink:href="svg.min.js"/>
<svg id="graph" class="graph">
<g id="viewport">
<title>NAudio.Midi.RawMetaEvent</title>
<!-- Node1 -->
<g id="Node000001" class="node">
<title>Node1</title>
<g id="a_Node000001"><a xlink:title="Represents a MIDI meta event with raw data.">
<polygon fill="#999999" stroke="none" points="245.79,-94 112.79,-94 112.79,0 245.79,0 245.79,-94"/>
<text text-anchor="start" x="117.41" y="-80.5" font-family="Helvetica,sans-Serif" font-size="10.00">NAudio.Midi.RawMetaEvent</text>
<text text-anchor="start" x="127.29" y="-65.5" font-family="Helvetica,sans-Serif" font-size="10.00">+</text>
<text text-anchor="start" x="147.79" y="-65.5" font-family="Helvetica,sans-Serif" font-size="10.00">Data</text>
<text text-anchor="start" x="127.29" y="-50.5" font-family="Helvetica,sans-Serif" font-size="10.00">+</text>
<text text-anchor="start" x="147.79" y="-50.5" font-family="Helvetica,sans-Serif" font-size="10.00">RawMetaEvent()</text>
<text text-anchor="start" x="127.29" y="-35.5" font-family="Helvetica,sans-Serif" font-size="10.00">+</text>
<text text-anchor="start" x="147.79" y="-35.5" font-family="Helvetica,sans-Serif" font-size="10.00">Clone()</text>
<text text-anchor="start" x="127.29" y="-20.5" font-family="Helvetica,sans-Serif" font-size="10.00">+</text>
<text text-anchor="start" x="147.79" y="-20.5" font-family="Helvetica,sans-Serif" font-size="10.00">ToString()</text>
<text text-anchor="start" x="127.29" y="-5.5" font-family="Helvetica,sans-Serif" font-size="10.00">+</text>
<text text-anchor="start" x="147.79" y="-5.5" font-family="Helvetica,sans-Serif" font-size="10.00">Export()</text>
<polygon fill="#666666" stroke="#666666" points="112.79,-77 112.79,-77 245.79,-77 245.79,-77 112.79,-77"/>
<polygon fill="#666666" stroke="#666666" points="112.79,-62 112.79,-62 145.79,-62 145.79,-62 112.79,-62"/>
<polygon fill="#666666" stroke="#666666" points="145.79,-62 145.79,-62 245.79,-62 245.79,-62 145.79,-62"/>
<polygon fill="none" stroke="#666666" points="112.79,0 112.79,-94 245.79,-94 245.79,0 112.79,0"/>
</a>
</g>
</g>
<!-- Node2 -->
<g id="Node000002" class="node">
<title>Node2</title>
<g id="a_Node000002"><a xlink:href="class_n_audio_1_1_midi_1_1_meta_event.html" target="_top" xlink:title="Represents a MIDI meta event.">
<polygon fill="white" stroke="none" points="226.29,-255 132.29,-255 132.29,-131 226.29,-131 226.29,-255"/>
<text text-anchor="start" x="155.66" y="-241.5" font-family="Helvetica,sans-Serif" font-size="10.00">MetaEvent</text>
<text text-anchor="start" x="136.29" y="-226.5" font-family="Helvetica,sans-Serif" font-size="10.00">+</text>
<text text-anchor="start" x="146.29" y="-226.5" font-family="Helvetica,sans-Serif" font-size="10.00">MetaEventType</text>
<text text-anchor="start" x="136.29" y="-211.5" font-family="Helvetica,sans-Serif" font-size="10.00">+</text>
<text text-anchor="start" x="146.29" y="-211.5" font-family="Helvetica,sans-Serif" font-size="10.00">MetaEvent()</text>
<text text-anchor="start" x="136.29" y="-196.5" font-family="Helvetica,sans-Serif" font-size="10.00">+</text>
<text text-anchor="start" x="146.29" y="-196.5" font-family="Helvetica,sans-Serif" font-size="10.00">Clone()</text>
<text text-anchor="start" x="136.29" y="-181.5" font-family="Helvetica,sans-Serif" font-size="10.00">+</text>
<text text-anchor="start" x="146.29" y="-181.5" font-family="Helvetica,sans-Serif" font-size="10.00">ToString()</text>
<text text-anchor="start" x="136.29" y="-166.5" font-family="Helvetica,sans-Serif" font-size="10.00">+</text>
<text text-anchor="start" x="146.29" y="-166.5" font-family="Helvetica,sans-Serif" font-size="10.00">Export()</text>
<text text-anchor="start" x="136.29" y="-151.5" font-family="Helvetica,sans-Serif" font-size="10.00">+</text>
<text text-anchor="start" x="146.29" y="-151.5" font-family="Helvetica,sans-Serif" font-size="10.00">ReadMetaEvent()</text>
<text text-anchor="start" x="136.66" y="-136.5" font-family="Helvetica,sans-Serif" font-size="10.00">#</text>
<text text-anchor="start" x="146.29" y="-136.5" font-family="Helvetica,sans-Serif" font-size="10.00">MetaEvent()</text>
<polygon fill="#666666" stroke="#666666" points="132.29,-238 132.29,-238 226.29,-238 226.29,-238 132.29,-238"/>
<polygon fill="#666666" stroke="#666666" points="132.29,-223 132.29,-223 144.29,-223 144.29,-223 132.29,-223"/>
<polygon fill="#666666" stroke="#666666" points="144.29,-223 144.29,-223 226.29,-223 226.29,-223 144.29,-223"/>
<polygon fill="none" stroke="#666666" points="132.29,-131 132.29,-255 226.29,-255 226.29,-131 132.29,-131"/>
</a>
</g>
</g>
<!-- Node2&#45;&gt;Node1 -->
<g id="edge1_Node000001_Node000002" class="edge">
<title>Node2&#45;&gt;Node1</title>
<g id="a_edge1_Node000001_Node000002"><a xlink:title=" ">
<path fill="none" stroke="#63b8ff" d="M179.29,-120.04C179.29,-111.07 179.29,-102.11 179.29,-93.7"/>
<polygon fill="none" stroke="#63b8ff" points="175.79,-119.83 179.29,-129.83 182.79,-119.83 175.79,-119.83"/>
</a>
</g>
</g>
<!-- Node3 -->
<g id="Node000003" class="node">
<title>Node3</title>
<g id="a_Node000003"><a xlink:href="class_n_audio_1_1_midi_1_1_midi_event.html" target="_top" xlink:title="Represents an individual MIDI event.">
<polygon fill="white" stroke="none" points="236.29,-591.25 122.29,-591.25 122.29,-302.25 236.29,-302.25 236.29,-591.25"/>
<text text-anchor="start" x="157.54" y="-577.75" font-family="Helvetica,sans-Serif" font-size="10.00">MidiEvent</text>
<text text-anchor="start" x="126.29" y="-562.75" font-family="Helvetica,sans-Serif" font-size="10.00">+</text>
<text text-anchor="start" x="136.29" y="-562.75" font-family="Helvetica,sans-Serif" font-size="10.00">Channel</text>
<text text-anchor="start" x="126.29" y="-547.75" font-family="Helvetica,sans-Serif" font-size="10.00">+</text>
<text text-anchor="start" x="136.29" y="-547.75" font-family="Helvetica,sans-Serif" font-size="10.00">DeltaTime</text>
<text text-anchor="start" x="126.29" y="-532.75" font-family="Helvetica,sans-Serif" font-size="10.00">+</text>
<text text-anchor="start" x="136.29" y="-532.75" font-family="Helvetica,sans-Serif" font-size="10.00">AbsoluteTime</text>
<text text-anchor="start" x="126.29" y="-517.75" font-family="Helvetica,sans-Serif" font-size="10.00">+</text>
<text text-anchor="start" x="136.29" y="-517.75" font-family="Helvetica,sans-Serif" font-size="10.00">CommandCode</text>
<text text-anchor="start" x="126.29" y="-502.75" font-family="Helvetica,sans-Serif" font-size="10.00">+</text>
<text text-anchor="start" x="136.29" y="-502.75" font-family="Helvetica,sans-Serif" font-size="10.00">GetAsShortMessage()</text>
<text text-anchor="start" x="126.29" y="-487.75" font-family="Helvetica,sans-Serif" font-size="10.00">+</text>
<text text-anchor="start" x="136.29" y="-487.75" font-family="Helvetica,sans-Serif" font-size="10.00">MidiEvent()</text>
<text text-anchor="start" x="126.29" y="-472.75" font-family="Helvetica,sans-Serif" font-size="10.00">+</text>
<text text-anchor="start" x="136.29" y="-472.75" font-family="Helvetica,sans-Serif" font-size="10.00">Clone()</text>
<text text-anchor="start" x="126.29" y="-457.75" font-family="Helvetica,sans-Serif" font-size="10.00">+</text>
<text text-anchor="start" x="136.29" y="-457.75" font-family="Helvetica,sans-Serif" font-size="10.00">ToString()</text>
<text text-anchor="start" x="126.29" y="-442.75" font-family="Helvetica,sans-Serif" font-size="10.00">+</text>
<text text-anchor="start" x="136.29" y="-442.75" font-family="Helvetica,sans-Serif" font-size="10.00">Export()</text>
<text text-anchor="start" x="126.29" y="-427.75" font-family="Helvetica,sans-Serif" font-size="10.00">+</text>
<text text-anchor="start" x="136.29" y="-427.75" font-family="Helvetica,sans-Serif" font-size="10.00">FromRawMessage()</text>
<text text-anchor="start" x="126.29" y="-412.75" font-family="Helvetica,sans-Serif" font-size="10.00">+</text>
<text text-anchor="start" x="136.29" y="-412.75" font-family="Helvetica,sans-Serif" font-size="10.00">ReadNextEvent()</text>
<text text-anchor="start" x="126.29" y="-397.75" font-family="Helvetica,sans-Serif" font-size="10.00">+</text>
<text text-anchor="start" x="136.29" y="-397.75" font-family="Helvetica,sans-Serif" font-size="10.00">IsNoteOff()</text>
<text text-anchor="start" x="126.29" y="-382.75" font-family="Helvetica,sans-Serif" font-size="10.00">+</text>
<text text-anchor="start" x="136.29" y="-382.75" font-family="Helvetica,sans-Serif" font-size="10.00">IsNoteOn()</text>
<text text-anchor="start" x="126.29" y="-367.75" font-family="Helvetica,sans-Serif" font-size="10.00">+</text>
<text text-anchor="start" x="136.29" y="-367.75" font-family="Helvetica,sans-Serif" font-size="10.00">IsEndTrack()</text>
<text text-anchor="start" x="126.29" y="-352.75" font-family="Helvetica,sans-Serif" font-size="10.00">+</text>
<text text-anchor="start" x="136.29" y="-352.75" font-family="Helvetica,sans-Serif" font-size="10.00">ReadVarInt()</text>
<text text-anchor="start" x="126.29" y="-337.75" font-family="Helvetica,sans-Serif" font-size="10.00">+</text>
<text text-anchor="start" x="136.29" y="-337.75" font-family="Helvetica,sans-Serif" font-size="10.00">WriteVarInt()</text>
<text text-anchor="start" x="126.66" y="-322.75" font-family="Helvetica,sans-Serif" font-size="10.00">#</text>
<text text-anchor="start" x="136.29" y="-322.75" font-family="Helvetica,sans-Serif" font-size="10.00">MidiEvent()</text>
<text text-anchor="start" x="127.79" y="-307.75" font-family="Helvetica,sans-Serif" font-size="10.00">&#45;</text>
<text text-anchor="start" x="136.29" y="-307.75" font-family="Helvetica,sans-Serif" font-size="10.00">Clone()</text>
<polygon fill="#666666" stroke="#666666" points="122.29,-574.25 122.29,-574.25 236.29,-574.25 236.29,-574.25 122.29,-574.25"/>
<polygon fill="#666666" stroke="#666666" points="122.29,-514.25 122.29,-514.25 134.29,-514.25 134.29,-514.25 122.29,-514.25"/>
<polygon fill="#666666" stroke="#666666" points="134.29,-514.25 134.29,-514.25 236.29,-514.25 236.29,-514.25 134.29,-514.25"/>
<polygon fill="none" stroke="#666666" points="122.29,-302.25 122.29,-591.25 236.29,-591.25 236.29,-302.25 122.29,-302.25"/>
</a>
</g>
</g>
<!-- Node3&#45;&gt;Node2 -->
<g id="edge2_Node000002_Node000003" class="edge">
<title>Node3&#45;&gt;Node2</title>
<g id="a_edge2_Node000002_Node000003"><a xlink:title=" ">
<path fill="none" stroke="#63b8ff" d="M179.29,-291.31C179.29,-278.57 179.29,-266.25 179.29,-254.9"/>
<polygon fill="none" stroke="#63b8ff" points="175.79,-291.08 179.29,-301.08 182.79,-291.08 175.79,-291.08"/>
</a>
</g>
</g>
<!-- Node4 -->
<g id="Node000004" class="node">
<title>Node4</title>
<g id="a_Node000004"><a xlink:href="class_i_cloneable.html" target="_top" xlink:title=" ">
<polygon fill="white" stroke="none" points="328.29,-698.75 272.29,-698.75 272.29,-649.75 328.29,-649.75 328.29,-698.75"/>
<text text-anchor="start" x="277.04" y="-685.25" font-family="Helvetica,sans-Serif" font-size="10.00">ICloneable</text>
<text text-anchor="start" x="298.79" y="-670.25" font-family="Helvetica,sans-Serif" font-size="10.00"> </text>
<text text-anchor="start" x="298.79" y="-655.25" font-family="Helvetica,sans-Serif" font-size="10.00"> </text>
<polygon fill="#666666" stroke="#666666" points="272.29,-681.75 272.29,-681.75 328.29,-681.75 328.29,-681.75 272.29,-681.75"/>
<polygon fill="#666666" stroke="#666666" points="272.29,-666.75 272.29,-666.75 328.29,-666.75 328.29,-666.75 272.29,-666.75"/>
<polygon fill="none" stroke="#666666" points="272.29,-649.75 272.29,-698.75 328.29,-698.75 328.29,-649.75 272.29,-649.75"/>
</a>
</g>
</g>
<!-- Node4&#45;&gt;Node3 -->
<g id="edge3_Node000003_Node000004" class="edge">
<title>Node4&#45;&gt;Node3</title>
<g id="a_edge3_Node000003_Node000004"><a xlink:title=" ">
<path fill="none" stroke="#63b8ff" d="M296.14,-638.8C293.52,-628.42 289.24,-617.58 282.29,-609.25 270.56,-595.22 258.08,-604.32 245.29,-591.25 242.12,-588.02 239.09,-584.6 236.19,-581.05"/>
<polygon fill="none" stroke="#63b8ff" points="292.65,-639.18 298.09,-648.27 299.5,-637.77 292.65,-639.18"/>
</a>
</g>
</g>
<!-- Node5 -->
<g id="Node000005" class="node">
<title>Node5</title>
<g id="a_Node000005"><a xlink:title=" ">
<polygon fill="white" stroke="none" points="173.29,-698.75 77.29,-698.75 77.29,-649.75 173.29,-649.75 173.29,-698.75"/>
<text text-anchor="start" x="82.16" y="-685.25" font-family="Helvetica,sans-Serif" font-size="10.00">MidiCommandCode</text>
<text text-anchor="start" x="123.79" y="-670.25" font-family="Helvetica,sans-Serif" font-size="10.00"> </text>
<text text-anchor="start" x="123.79" y="-655.25" font-family="Helvetica,sans-Serif" font-size="10.00"> </text>
<polygon fill="#666666" stroke="#666666" points="77.29,-681.75 77.29,-681.75 173.29,-681.75 173.29,-681.75 77.29,-681.75"/>
<polygon fill="#666666" stroke="#666666" points="77.29,-666.75 77.29,-666.75 173.29,-666.75 173.29,-666.75 77.29,-666.75"/>
<polygon fill="none" stroke="#666666" points="77.29,-649.75 77.29,-698.75 173.29,-698.75 173.29,-649.75 77.29,-649.75"/>
</a>
</g>
</g>
<!-- Node5&#45;&gt;Node3 -->
<g id="edge4_Node000003_Node000005" class="edge">
<title>Node5&#45;&gt;Node3</title>
<g id="a_edge4_Node000003_Node000005"><a xlink:title=" ">
<path fill="none" stroke="#63b8ff" d="M127.8,-650.02C129.31,-637.81 131.49,-622.65 134.29,-609.25 134.68,-607.38 135.08,-605.5 135.48,-603.61"/>
<polygon fill="none" stroke="#63b8ff" points="135.48,-603.63 132.89,-596.9 138.1,-591.92 140.69,-598.65 135.48,-603.63"/>
</a>
</g>
<text text-anchor="middle" x="170.29" y="-616.62" font-family="Helvetica,sans-Serif" font-size="10.00" fill="grey"> &#45;commandCode</text>
</g>
<!-- Node6 -->
<g id="Node000006" class="node">
<title>Node6</title>
<g id="a_Node000006"><a xlink:title=" ">
<polygon fill="white" stroke="none" points="46.29,-698.75 26.29,-698.75 26.29,-649.75 46.29,-649.75 46.29,-698.75"/>
<text text-anchor="start" x="31.04" y="-685.25" font-family="Helvetica,sans-Serif" font-size="10.00">int</text>
<text text-anchor="start" x="34.79" y="-670.25" font-family="Helvetica,sans-Serif" font-size="10.00"> </text>
<text text-anchor="start" x="34.79" y="-655.25" font-family="Helvetica,sans-Serif" font-size="10.00"> </text>
<polygon fill="#666666" stroke="#666666" points="26.29,-681.75 26.29,-681.75 46.29,-681.75 46.29,-681.75 26.29,-681.75"/>
<polygon fill="#666666" stroke="#666666" points="26.29,-666.75 26.29,-666.75 46.29,-666.75 46.29,-666.75 26.29,-666.75"/>
<polygon fill="none" stroke="#666666" points="26.29,-649.75 26.29,-698.75 46.29,-698.75 46.29,-649.75 26.29,-649.75"/>
</a>
</g>
</g>
<!-- Node6&#45;&gt;Node2 -->
<g id="edge8_Node000002_Node000006" class="edge">
<title>Node6&#45;&gt;Node2</title>
<g id="a_edge8_Node000002_Node000006"><a xlink:title=" ">
<path fill="none" stroke="#63b8ff" d="M29.04,-649.87C11.49,-588.74 -27.58,-420.67 32.29,-302.25 50.89,-265.44 88.58,-238.07 121.13,-220.07"/>
<polygon fill="none" stroke="#63b8ff" points="121,-220.14 124.42,-213.79 131.6,-214.51 128.17,-220.86 121,-220.14"/>
</a>
</g>
<text text-anchor="middle" x="72.79" y="-442.88" font-family="Helvetica,sans-Serif" font-size="10.00" fill="grey"> ~metaDataLength</text>
</g>
<!-- Node6&#45;&gt;Node3 -->
<g id="edge5_Node000003_Node000006" class="edge">
<title>Node6&#45;&gt;Node3</title>
<g id="a_edge5_Node000003_Node000006"><a xlink:title=" ">
<path fill="none" stroke="#63b8ff" d="M46.13,-655.93C54.43,-642.26 67.23,-623.23 81.54,-609.25 91.78,-599.24 98.85,-602.03 108.29,-591.25 110.45,-588.78 112.56,-586.23 114.63,-583.62"/>
<polygon fill="none" stroke="#63b8ff" points="114.65,-583.59 115.02,-576.39 121.82,-573.96 121.44,-581.17 114.65,-583.59"/>
</a>
</g>
<text text-anchor="middle" x="105.16" y="-622.25" font-family="Helvetica,sans-Serif" font-size="10.00" fill="grey"> &#45;channel</text>
<text text-anchor="middle" x="105.16" y="-611" font-family="Helvetica,sans-Serif" font-size="10.00" fill="grey">&#45;deltaTime</text>
</g>
<!-- Node7 -->
<g id="Node000007" class="node">
<title>Node7</title>
<g id="a_Node000007"><a xlink:title=" ">
<polygon fill="white" stroke="none" points="234.29,-698.75 206.29,-698.75 206.29,-649.75 234.29,-649.75 234.29,-698.75"/>
<text text-anchor="start" x="211.29" y="-685.25" font-family="Helvetica,sans-Serif" font-size="10.00">long</text>
<text text-anchor="start" x="218.79" y="-670.25" font-family="Helvetica,sans-Serif" font-size="10.00"> </text>
<text text-anchor="start" x="218.79" y="-655.25" font-family="Helvetica,sans-Serif" font-size="10.00"> </text>
<polygon fill="#666666" stroke="#666666" points="206.29,-681.75 206.29,-681.75 234.29,-681.75 234.29,-681.75 206.29,-681.75"/>
<polygon fill="#666666" stroke="#666666" points="206.29,-666.75 206.29,-666.75 234.29,-666.75 234.29,-666.75 206.29,-666.75"/>
<polygon fill="none" stroke="#666666" points="206.29,-649.75 206.29,-698.75 234.29,-698.75 234.29,-649.75 206.29,-649.75"/>
</a>
</g>
</g>
<!-- Node7&#45;&gt;Node3 -->
<g id="edge6_Node000003_Node000007" class="edge">
<title>Node7&#45;&gt;Node3</title>
<g id="a_edge6_Node000003_Node000007"><a xlink:title=" ">
<path fill="none" stroke="#63b8ff" d="M216.05,-649.97C213.82,-637.72 210.88,-621.53 207.63,-603.64"/>
<polygon fill="none" stroke="#63b8ff" points="207.64,-603.7 202.63,-598.51 205.49,-591.89 210.5,-597.08 207.64,-603.7"/>
</a>
</g>
<text text-anchor="middle" x="245.54" y="-616.62" font-family="Helvetica,sans-Serif" font-size="10.00" fill="grey"> &#45;absoluteTime</text>
</g>
<!-- Node8 -->
<g id="Node000008" class="node">
<title>Node8</title>
<g id="a_Node000008"><a xlink:title=" ">
<polygon fill="white" stroke="none" points="332.29,-471.25 254.29,-471.25 254.29,-422.25 332.29,-422.25 332.29,-471.25"/>
<text text-anchor="start" x="259.16" y="-457.75" font-family="Helvetica,sans-Serif" font-size="10.00">MetaEventType</text>
<text text-anchor="start" x="291.79" y="-442.75" font-family="Helvetica,sans-Serif" font-size="10.00"> </text>
<text text-anchor="start" x="291.79" y="-427.75" font-family="Helvetica,sans-Serif" font-size="10.00"> </text>
<polygon fill="#666666" stroke="#666666" points="254.29,-454.25 254.29,-454.25 332.29,-454.25 332.29,-454.25 254.29,-454.25"/>
<polygon fill="#666666" stroke="#666666" points="254.29,-439.25 254.29,-439.25 332.29,-439.25 332.29,-439.25 254.29,-439.25"/>
<polygon fill="none" stroke="#666666" points="254.29,-422.25 254.29,-471.25 332.29,-471.25 332.29,-422.25 254.29,-422.25"/>
</a>
</g>
</g>
<!-- Node8&#45;&gt;Node2 -->
<g id="edge7_Node000002_Node000008" class="edge">
<title>Node8&#45;&gt;Node2</title>
<g id="a_edge7_Node000002_Node000008"><a xlink:title=" ">
<path fill="none" stroke="#63b8ff" d="M287.19,-422.27C279.28,-393.33 264.22,-342.99 245.29,-302.25 239.7,-290.23 233.08,-277.86 226.23,-265.99"/>
<polygon fill="none" stroke="#63b8ff" points="226.18,-265.9 219.69,-262.76 220.08,-255.56 226.58,-258.7 226.18,-265.9"/>
</a>
</g>
<text text-anchor="middle" x="261.91" y="-274.75" font-family="Helvetica,sans-Serif" font-size="10.00" fill="grey"> &#45;metaEvent</text>
</g>
</g>
</svg>

<g id="navigator" transform="translate(0 0)" fill="#404254">
  <rect fill="#f2f5e9" fill-opacity="0.5" stroke="#606060" stroke-width=".5" x="0" y="0" width="60" height="60"/>
  <use id="zoomplus" xlink:href="#zoomPlus" x="17" y="9" onmousedown="handleZoom(evt,'in')"/>
  <use id="zoomminus" xlink:href="#zoomMin" x="42" y="9" onmousedown="handleZoom(evt,'out')"/>
  <use id="reset" xlink:href="#resetDef" x="30" y="36" onmousedown="handleReset()"/>
   <use id="arrowup" xlink:href="#arrowUp" x="0" y="0" onmousedown="handlePan(0,-1)"/>
  <use id="arrowright" xlink:href="#arrowRight" x="0" y="0" onmousedown="handlePan(1,0)"/>
  <use id="arrowdown" xlink:href="#arrowDown" x="0" y="0" onmousedown="handlePan(0,1)"/>
  <use id="arrowleft" xlink:href="#arrowLeft" x="0" y="0" onmousedown="handlePan(-1,0)"/>
</g>
<svg viewBox="0 0 15 15" width="100%" height="30px" preserveAspectRatio="xMaxYMin meet">
 <g id="arrow_out" transform="scale(0.3 0.3)">
  <a xlink:href="class_n_audio_1_1_midi_1_1_raw_meta_event__coll__graph_org.svg" target="_base">
   <rect id="button" ry="5" rx="5" y="6" x="6" height="38" width="38"
        fill="#f2f5e9" fill-opacity="0.5" stroke="#606060" stroke-width="1.0"/>
   <path id="arrow"
     d="M 11.500037,31.436501 C 11.940474,20.09759 22.043105,11.32322 32.158766,21.979434 L 37.068811,17.246167 C 37.068811,17.246167 37.088388,32 37.088388,32 L 22.160133,31.978069 C 22.160133,31.978069 26.997745,27.140456 26.997745,27.140456 C 18.528582,18.264221 13.291696,25.230495 11.500037,31.436501 z"
     style="fill:#404040;"/>
  </a>
 </g>
</svg>

<style type='text/css'>
<![CDATA[
[data-mouse-over-selected='false'] { opacity: 0.7; }
[data-mouse-over-selected='true']  { opacity: 1.0; }
]]>
</style>
<script type="application/ecmascript"><![CDATA[
document.addEventListener('DOMContentLoaded', (event) => {
  highlightEdges();
  highlightAdjacentNodes();
});
]]></script>
</svg>
