<?xml version="1.0" encoding="UTF-8" standalone="no"?>
<!DOCTYPE svg PUBLIC "-//W3C//DTD SVG 1.1//EN"
 "http://www.w3.org/Graphics/SVG/1.1/DTD/svg11.dtd">
<!-- Generated by graphviz version 10.0.1 (20240210.2158)
 -->
<!-- Title: NAudio.Wave.Compression.AcmStream.Dispose Pages: 1 -->
<!--zoomable 186 -->

<svg id="main" version="1.1" xmlns="http://www.w3.org/2000/svg" xmlns:xlink="http://www.w3.org/1999/xlink" xml:space="preserve" onload="init(evt)">
<style type="text/css"><![CDATA[
.node, .edge {opacity: 0.7;}
.node.selected, .edge.selected {opacity: 1;}
.edge:hover path { stroke: red; }
.edge:hover polygon { stroke: red; fill: red; }
]]></style>

<defs>
  <circle id="rim" cx="0" cy="0" r="7"/>
  <circle id="rim2" cx="0" cy="0" r="3.5"/>
  <g id="zoomPlus">
    <use xlink:href="#rim" fill="#404040"><set attributeName="fill" to="#808080" begin="zoomplus.mouseover" end="zoomplus.mouseout"/></use>
    <path d="M-4,0h8M0,-4v8" fill="none" stroke="white" stroke-width="1.5" pointer-events="none"/>
  </g>
  <g id="zoomMin">
    <use xlink:href="#rim" fill="#404040"><set attributeName="fill" to="#808080" begin="zoomminus.mouseover" end="zoomminus.mouseout"/></use>
    <path d="M-4,0h8" fill="none" stroke="white" stroke-width="1.5" pointer-events="none"/>
  </g>
  <g id="arrowUp" transform="translate(30 24)">
    <use xlink:href="#rim"/>
    <path pointer-events="none" fill="none" stroke="white" stroke-width="1.5" d="M0,-3.0v7 M-2.5,-0.5L0,-3.0L2.5,-0.5"/>
  </g>
  <g id="arrowRight" transform="rotate(90) translate(36 -43)">
    <use xlink:href="#rim"/>
    <path pointer-events="none" fill="none" stroke="white" stroke-width="1.5" d="M0,-3.0v7 M-2.5,-0.5L0,-3.0L2.5,-0.5"/>
  </g>
  <g id="arrowDown" transform="rotate(180) translate(-30 -48)">
    <use xlink:href="#rim"/>
    <path pointer-events="none" fill="none" stroke="white" stroke-width="1.5" d="M0,-3.0v7 M-2.5,-0.5L0,-3.0L2.5,-0.5"/>
  </g>
  <g id="arrowLeft" transform="rotate(270) translate(-36 17)">
    <use xlink:href="#rim"/>
    <path pointer-events="none" fill="none" stroke="white" stroke-width="1.5" d="M0,-3.0v7 M-2.5,-0.5L0,-3.0L2.5,-0.5"/>
  </g>
  <g id="resetDef">
    <use xlink:href="#rim2" fill="#404040"><set attributeName="fill" to="#808080" begin="reset.mouseover" end="reset.mouseout"/></use>
  </g>
</defs>
<script type="application/ecmascript">
var viewWidth = 643;
var viewHeight = 186;
var sectionId = 'dynsection-9';
</script>
<script type="application/ecmascript" xlink:href="svg.min.js"/>
<svg id="graph" class="graph">
<g id="viewport">
<title>NAudio.Wave.Compression.AcmStream.Dispose</title>
<!-- Node1 -->
<g id="Node000001" class="node">
<title>Node1</title>
<g id="a_Node000001"><a xlink:title="Releases the unmanaged resources used by the WaveFormatConverter and optionally releases the managed ...">
<polygon fill="#999999" stroke="#666666" points="635.25,-103.5 495.5,-103.5 495.5,-73 635.25,-73 635.25,-103.5"/>
<text text-anchor="start" x="503.5" y="-90" font-family="Helvetica,sans-Serif" font-size="10.00">NAudio.Wave.Compression.</text>
<text text-anchor="middle" x="565.38" y="-78.75" font-family="Helvetica,sans-Serif" font-size="10.00">AcmStream.Dispose</text>
</a>
</g>
</g>
<!-- Node1&#45;&gt;Node1 -->
<g id="edge2_Node000001_Node000001" class="edge">
<title>Node1&#45;&gt;Node1</title>
<g id="a_edge2_Node000001_Node000001"><a xlink:title=" ">
<path fill="none" stroke="#63b8ff" d="M600.89,-115.2C595.08,-118.97 583.24,-121.5 565.38,-121.5 532.7,-121.5 520.2,-113.06 527.85,-103.99"/>
<polygon fill="#63b8ff" stroke="#63b8ff" points="604.31,-115.94 602.63,-105.48 597.42,-114.7 604.31,-115.94"/>
</a>
</g>
</g>
<!-- Node2 -->
<g id="Node000002" class="node">
<title>Node2</title>
<g id="a_Node000002"><a xlink:href="class_n_audio_1_1_wave_1_1_compression_1_1_acm_stream.html#a63db5a6e10bee35b5796bf199cc5e203" target="_top" xlink:title="Creates a new ACM stream to convert one format to another. Note that not all conversions can be done ...">
<polygon fill="white" stroke="#666666" points="423.5,-177.5 283.75,-177.5 283.75,-147 423.5,-147 423.5,-177.5"/>
<text text-anchor="start" x="291.75" y="-164" font-family="Helvetica,sans-Serif" font-size="10.00">NAudio.Wave.Compression.</text>
<text text-anchor="middle" x="353.62" y="-152.75" font-family="Helvetica,sans-Serif" font-size="10.00">AcmStream.AcmStream</text>
</a>
</g>
</g>
<!-- Node1&#45;&gt;Node2 -->
<g id="edge1_Node000001_Node000002" class="edge">
<title>Node1&#45;&gt;Node2</title>
<g id="a_edge1_Node000001_Node000002"><a xlink:title=" ">
<path fill="none" stroke="#63b8ff" d="M524.97,-108.98C505.63,-118.55 481.76,-129.49 459.5,-137.25 448.1,-141.23 435.79,-144.78 423.75,-147.88"/>
<polygon fill="#63b8ff" stroke="#63b8ff" points="526.49,-112.13 533.86,-104.52 523.35,-105.88 526.49,-112.13"/>
</a>
</g>
</g>
<!-- Node3 -->
<g id="Node000003" class="node">
<title>Node3</title>
<g id="a_Node000003"><a xlink:href="class_n_audio_1_1_wave_1_1_acm_mp3_frame_decompressor.html#a7519e310e179c34d843e369237dc4757" target="_top" xlink:title="Performs application&#45;defined tasks associated with freeing, releasing, or resetting unmanaged resourc...">
<polygon fill="white" stroke="#666666" points="459.5,-128.5 247.75,-128.5 247.75,-98 459.5,-98 459.5,-128.5"/>
<text text-anchor="start" x="255.75" y="-115" font-family="Helvetica,sans-Serif" font-size="10.00">NAudio.Wave.AcmMp3FrameDecompressor.</text>
<text text-anchor="middle" x="353.62" y="-103.75" font-family="Helvetica,sans-Serif" font-size="10.00">Dispose</text>
</a>
</g>
</g>
<!-- Node1&#45;&gt;Node3 -->
<g id="edge3_Node000001_Node000003" class="edge">
<title>Node1&#45;&gt;Node3</title>
<g id="a_edge3_Node000001_Node000003"><a xlink:title=" ">
<path fill="none" stroke="#63b8ff" d="M483.77,-97.86C475.92,-98.79 467.88,-99.75 459.84,-100.71"/>
<polygon fill="#63b8ff" stroke="#63b8ff" points="484.1,-101.34 493.61,-96.68 483.27,-94.39 484.1,-101.34"/>
</a>
</g>
</g>
<!-- Node5 -->
<g id="Node000005" class="node">
<title>Node5</title>
<g id="a_Node000005"><a xlink:href="class_n_audio_1_1_wave_1_1_wave_format_conversion_provider.html#a2ff8faa9b4d0380997fdcf12e09695ba" target="_top" xlink:title="Performs application&#45;defined tasks associated with freeing, releasing, or resetting unmanaged resourc...">
<polygon fill="white" stroke="#666666" points="445.62,-79.5 261.62,-79.5 261.62,-49 445.62,-49 445.62,-79.5"/>
<text text-anchor="start" x="269.62" y="-66" font-family="Helvetica,sans-Serif" font-size="10.00">NAudio.Wave.WaveFormatConversion</text>
<text text-anchor="middle" x="353.62" y="-54.75" font-family="Helvetica,sans-Serif" font-size="10.00">Provider.Dispose</text>
</a>
</g>
</g>
<!-- Node1&#45;&gt;Node5 -->
<g id="edge5_Node000001_Node000005" class="edge">
<title>Node1&#45;&gt;Node5</title>
<g id="a_edge5_Node000001_Node000005"><a xlink:title=" ">
<path fill="none" stroke="#63b8ff" d="M483.86,-79.04C471.43,-77.62 458.53,-76.14 445.89,-74.69"/>
<polygon fill="#63b8ff" stroke="#63b8ff" points="483.28,-82.49 493.61,-80.15 484.07,-75.54 483.28,-82.49"/>
</a>
</g>
</g>
<!-- Node7 -->
<g id="Node000007" class="node">
<title>Node7</title>
<g id="a_Node000007"><a xlink:href="class_n_audio_1_1_wave_1_1_compression_1_1_acm_stream.html#ae1c4716f728a3d286e5c6af600b24b8f" target="_top" xlink:title="Frees resources associated with this ACM Stream.">
<polygon fill="white" stroke="#666666" points="423.5,-30.5 283.75,-30.5 283.75,0 423.5,0 423.5,-30.5"/>
<text text-anchor="start" x="291.75" y="-17" font-family="Helvetica,sans-Serif" font-size="10.00">NAudio.Wave.Compression.</text>
<text text-anchor="middle" x="353.62" y="-5.75" font-family="Helvetica,sans-Serif" font-size="10.00">AcmStream.~AcmStream</text>
</a>
</g>
</g>
<!-- Node1&#45;&gt;Node7 -->
<g id="edge7_Node000001_Node000007" class="edge">
<title>Node1&#45;&gt;Node7</title>
<g id="a_edge7_Node000001_Node000007"><a xlink:title=" ">
<path fill="none" stroke="#63b8ff" d="M524.09,-67.57C504.89,-58.3 481.39,-47.79 459.5,-40.25 448.17,-36.35 435.96,-32.84 424,-29.76"/>
<polygon fill="#63b8ff" stroke="#63b8ff" points="522.39,-70.64 532.91,-71.9 525.48,-64.36 522.39,-70.64"/>
</a>
</g>
</g>
<!-- Node4 -->
<g id="Node000004" class="node">
<title>Node4</title>
<g id="a_Node000004"><a xlink:href="class_n_audio_1_1_wave_1_1_acm_mp3_frame_decompressor.html#ad8be6f92cdc32435ecd3dafd32fc204f" target="_top" xlink:title="Finalizer ensuring that resources get released properly.">
<polygon fill="white" stroke="#666666" points="211.75,-128.5 0,-128.5 0,-98 211.75,-98 211.75,-128.5"/>
<text text-anchor="start" x="8" y="-115" font-family="Helvetica,sans-Serif" font-size="10.00">NAudio.Wave.AcmMp3FrameDecompressor.</text>
<text text-anchor="middle" x="105.88" y="-103.75" font-family="Helvetica,sans-Serif" font-size="10.00">~AcmMp3FrameDecompressor</text>
</a>
</g>
</g>
<!-- Node3&#45;&gt;Node4 -->
<g id="edge4_Node000003_Node000004" class="edge">
<title>Node3&#45;&gt;Node4</title>
<g id="a_edge4_Node000003_Node000004"><a xlink:title=" ">
<path fill="none" stroke="#63b8ff" d="M236.02,-113.25C227.98,-113.25 219.91,-113.25 211.95,-113.25"/>
<polygon fill="#63b8ff" stroke="#63b8ff" points="235.82,-116.75 245.82,-113.25 235.82,-109.75 235.82,-116.75"/>
</a>
</g>
</g>
<!-- Node6 -->
<g id="Node000006" class="node">
<title>Node6</title>
<g id="a_Node000006"><a xlink:href="class_n_audio_1_1_wave_1_1_wave_format_conversion_stream.html#a275453c06d738c39bad434602752ade3" target="_top" xlink:title="Releases the unmanaged resources used by the WaveFormatConversionStream and optionally releases the m...">
<polygon fill="white" stroke="#666666" points="197.88,-79.5 13.88,-79.5 13.88,-49 197.88,-49 197.88,-79.5"/>
<text text-anchor="start" x="21.88" y="-66" font-family="Helvetica,sans-Serif" font-size="10.00">NAudio.Wave.WaveFormatConversion</text>
<text text-anchor="middle" x="105.88" y="-54.75" font-family="Helvetica,sans-Serif" font-size="10.00">Stream.Dispose</text>
</a>
</g>
</g>
<!-- Node5&#45;&gt;Node6 -->
<g id="edge6_Node000005_Node000006" class="edge">
<title>Node5&#45;&gt;Node6</title>
<g id="a_edge6_Node000005_Node000006"><a xlink:title=" ">
<path fill="none" stroke="#63b8ff" d="M250.24,-64.25C233.01,-64.25 215.23,-64.25 198.3,-64.25"/>
<polygon fill="#63b8ff" stroke="#63b8ff" points="249.95,-67.75 259.95,-64.25 249.95,-60.75 249.95,-67.75"/>
</a>
</g>
</g>
</g>
</svg>

<g id="navigator" transform="translate(0 0)" fill="#404254">
  <rect fill="#f2f5e9" fill-opacity="0.5" stroke="#606060" stroke-width=".5" x="0" y="0" width="60" height="60"/>
  <use id="zoomplus" xlink:href="#zoomPlus" x="17" y="9" onmousedown="handleZoom(evt,'in')"/>
  <use id="zoomminus" xlink:href="#zoomMin" x="42" y="9" onmousedown="handleZoom(evt,'out')"/>
  <use id="reset" xlink:href="#resetDef" x="30" y="36" onmousedown="handleReset()"/>
   <use id="arrowup" xlink:href="#arrowUp" x="0" y="0" onmousedown="handlePan(0,-1)"/>
  <use id="arrowright" xlink:href="#arrowRight" x="0" y="0" onmousedown="handlePan(1,0)"/>
  <use id="arrowdown" xlink:href="#arrowDown" x="0" y="0" onmousedown="handlePan(0,1)"/>
  <use id="arrowleft" xlink:href="#arrowLeft" x="0" y="0" onmousedown="handlePan(-1,0)"/>
</g>
<svg viewBox="0 0 15 15" width="100%" height="30px" preserveAspectRatio="xMaxYMin meet">
 <g id="arrow_out" transform="scale(0.3 0.3)">
  <a xlink:href="class_n_audio_1_1_wave_1_1_compression_1_1_acm_stream_a9037fe64d3d79067ae4068ffb16ba430_icgraph_org.svg" target="_base">
   <rect id="button" ry="5" rx="5" y="6" x="6" height="38" width="38"
        fill="#f2f5e9" fill-opacity="0.5" stroke="#606060" stroke-width="1.0"/>
   <path id="arrow"
     d="M 11.500037,31.436501 C 11.940474,20.09759 22.043105,11.32322 32.158766,21.979434 L 37.068811,17.246167 C 37.068811,17.246167 37.088388,32 37.088388,32 L 22.160133,31.978069 C 22.160133,31.978069 26.997745,27.140456 26.997745,27.140456 C 18.528582,18.264221 13.291696,25.230495 11.500037,31.436501 z"
     style="fill:#404040;"/>
  </a>
 </g>
</svg>

<style type='text/css'>
<![CDATA[
[data-mouse-over-selected='false'] { opacity: 0.7; }
[data-mouse-over-selected='true']  { opacity: 1.0; }
]]>
</style>
<script type="application/ecmascript"><![CDATA[
document.addEventListener('DOMContentLoaded', (event) => {
  highlightEdges();
  highlightAdjacentNodes();
});
]]></script>
</svg>
