<?xml version="1.0" encoding="UTF-8" standalone="no"?>
<!DOCTYPE svg PUBLIC "-//W3C//DTD SVG 1.1//EN"
 "http://www.w3.org/Graphics/SVG/1.1/DTD/svg11.dtd">
<!-- Generated by graphviz version 10.0.1 (20240210.2158)
 -->
<!-- Title: xeno_rat_server.SocketHandler Pages: 1 -->
<svg width="327pt" height="318pt"
 viewBox="0.00 0.00 327.25 318.25" xmlns="http://www.w3.org/2000/svg" xmlns:xlink="http://www.w3.org/1999/xlink">

<svg id="main" version="1.1" xmlns="http://www.w3.org/2000/svg" xmlns:xlink="http://www.w3.org/1999/xlink" xml:space="preserve" onload="init(evt)">
<style type="text/css"><![CDATA[
.node, .edge {opacity: 0.7;}
.node.selected, .edge.selected {opacity: 1;}
.edge:hover path { stroke: red; }
.edge:hover polygon { stroke: red; fill: red; }
]]></style>
<script type="application/ecmascript" xlink:href="svg.min.js"/>
<svg id="graph" class="graph">
<g id="graph0" class="graph" transform="scale(1 1) rotate(0) translate(4 314.25)">
<title>xeno_rat_server.SocketHandler</title>
<!-- Node1 -->
<g id="Node000001" class="node">
<title>Node1</title>
<g id="a_Node000001"><a xlink:title=" ">
<polygon fill="#999999" stroke="none" points="196,-214 46,-214 46,0 196,0 196,-214"/>
<text text-anchor="start" x="52.75" y="-200.5" font-family="Helvetica,sans-Serif" font-size="10.00">xeno_rat_server.SocketHandler</text>
<text text-anchor="start" x="119.5" y="-185.5" font-family="Helvetica,sans-Serif" font-size="10.00"> </text>
<text text-anchor="start" x="50" y="-170.5" font-family="Helvetica,sans-Serif" font-size="10.00">+</text>
<text text-anchor="start" x="60" y="-170.5" font-family="Helvetica,sans-Serif" font-size="10.00">SocketHandler()</text>
<text text-anchor="start" x="50" y="-155.5" font-family="Helvetica,sans-Serif" font-size="10.00">+</text>
<text text-anchor="start" x="60" y="-155.5" font-family="Helvetica,sans-Serif" font-size="10.00">SendAsync()</text>
<text text-anchor="start" x="50" y="-140.5" font-family="Helvetica,sans-Serif" font-size="10.00">+</text>
<text text-anchor="start" x="60" y="-140.5" font-family="Helvetica,sans-Serif" font-size="10.00">ReceiveAsync()</text>
<text text-anchor="start" x="50" y="-125.5" font-family="Helvetica,sans-Serif" font-size="10.00">+</text>
<text text-anchor="start" x="60" y="-125.5" font-family="Helvetica,sans-Serif" font-size="10.00">Concat()</text>
<text text-anchor="start" x="50" y="-110.5" font-family="Helvetica,sans-Serif" font-size="10.00">+</text>
<text text-anchor="start" x="60" y="-110.5" font-family="Helvetica,sans-Serif" font-size="10.00">BTruncate()</text>
<text text-anchor="start" x="50" y="-95.5" font-family="Helvetica,sans-Serif" font-size="10.00">+</text>
<text text-anchor="start" x="60" y="-95.5" font-family="Helvetica,sans-Serif" font-size="10.00">BytesToInt()</text>
<text text-anchor="start" x="50" y="-80.5" font-family="Helvetica,sans-Serif" font-size="10.00">+</text>
<text text-anchor="start" x="60" y="-80.5" font-family="Helvetica,sans-Serif" font-size="10.00">IntToBytes()</text>
<text text-anchor="start" x="50" y="-65.5" font-family="Helvetica,sans-Serif" font-size="10.00">+</text>
<text text-anchor="start" x="60" y="-65.5" font-family="Helvetica,sans-Serif" font-size="10.00">SetRecvTimeout()</text>
<text text-anchor="start" x="50" y="-50.5" font-family="Helvetica,sans-Serif" font-size="10.00">+</text>
<text text-anchor="start" x="60" y="-50.5" font-family="Helvetica,sans-Serif" font-size="10.00">ResetRecvTimeout()</text>
<text text-anchor="start" x="51.5" y="-35.5" font-family="Helvetica,sans-Serif" font-size="10.00">&#45;</text>
<text text-anchor="start" x="60" y="-35.5" font-family="Helvetica,sans-Serif" font-size="10.00">RecvAllAsync_ddos_unsafer()</text>
<text text-anchor="start" x="51.5" y="-20.5" font-family="Helvetica,sans-Serif" font-size="10.00">&#45;</text>
<text text-anchor="start" x="60" y="-20.5" font-family="Helvetica,sans-Serif" font-size="10.00">RecvAllAsync_ddos_safer()</text>
<text text-anchor="start" x="51.5" y="-5.5" font-family="Helvetica,sans-Serif" font-size="10.00">&#45;</text>
<text text-anchor="start" x="60" y="-5.5" font-family="Helvetica,sans-Serif" font-size="10.00">ParseHeader()</text>
<polygon fill="#666666" stroke="#666666" points="46,-197 46,-197 196,-197 196,-197 46,-197"/>
<polygon fill="#666666" stroke="#666666" points="46,-182 46,-182 196,-182 196,-182 46,-182"/>
<polygon fill="none" stroke="#666666" points="46,0 46,-214 196,-214 196,0 46,0"/>
</a>
</g>
</g>
<!-- Node2 -->
<g id="Node000002" class="node">
<title>Node2</title>
<g id="a_Node000002"><a xlink:title=" ">
<polygon fill="white" stroke="none" points="40,-310.25 0,-310.25 0,-261.25 40,-261.25 40,-310.25"/>
<text text-anchor="start" x="4.62" y="-296.75" font-family="Helvetica,sans-Serif" font-size="10.00">Socket</text>
<text text-anchor="start" x="18.5" y="-281.75" font-family="Helvetica,sans-Serif" font-size="10.00"> </text>
<text text-anchor="start" x="18.5" y="-266.75" font-family="Helvetica,sans-Serif" font-size="10.00"> </text>
<polygon fill="#666666" stroke="#666666" points="0,-293.25 0,-293.25 40,-293.25 40,-293.25 0,-293.25"/>
<polygon fill="#666666" stroke="#666666" points="0,-278.25 0,-278.25 40,-278.25 40,-278.25 0,-278.25"/>
<polygon fill="none" stroke="#666666" points="0,-261.25 0,-310.25 40,-310.25 40,-261.25 0,-261.25"/>
</a>
</g>
</g>
<!-- Node2&#45;&gt;Node1 -->
<g id="edge1_Node000001_Node000002" class="edge">
<title>Node2&#45;&gt;Node1</title>
<g id="a_edge1_Node000001_Node000002"><a xlink:title=" ">
<path fill="none" stroke="#63b8ff" d="M27.07,-261.4C30.24,-252.05 34.33,-241.31 39,-232 40.13,-229.75 41.29,-227.49 42.48,-225.23"/>
<polygon fill="none" stroke="#63b8ff" points="42.48,-225.23 41.84,-218.05 48.22,-214.69 48.86,-221.87 42.48,-225.23"/>
</a>
</g>
<text text-anchor="middle" x="54" y="-233.75" font-family="Helvetica,sans-Serif" font-size="10.00" fill="grey"> +sock</text>
</g>
<!-- Node3 -->
<g id="Node000003" class="node">
<title>Node3</title>
<g id="a_Node000003"><a xlink:title=" ">
<polygon fill="white" stroke="none" points="87,-310.25 59,-310.25 59,-261.25 87,-261.25 87,-310.25"/>
<text text-anchor="start" x="63.62" y="-296.75" font-family="Helvetica,sans-Serif" font-size="10.00">byte</text>
<text text-anchor="start" x="71.5" y="-281.75" font-family="Helvetica,sans-Serif" font-size="10.00"> </text>
<text text-anchor="start" x="71.5" y="-266.75" font-family="Helvetica,sans-Serif" font-size="10.00"> </text>
<polygon fill="#666666" stroke="#666666" points="59,-293.25 59,-293.25 87,-293.25 87,-293.25 59,-293.25"/>
<polygon fill="#666666" stroke="#666666" points="59,-278.25 59,-278.25 87,-278.25 87,-278.25 59,-278.25"/>
<polygon fill="none" stroke="#666666" points="59,-261.25 59,-310.25 87,-310.25 87,-261.25 59,-261.25"/>
</a>
</g>
</g>
<!-- Node3&#45;&gt;Node1 -->
<g id="edge2_Node000001_Node000003" class="edge">
<title>Node3&#45;&gt;Node1</title>
<g id="a_edge2_Node000001_Node000003"><a xlink:title=" ">
<path fill="none" stroke="#63b8ff" d="M71.87,-261.46C71.86,-252.21 72.4,-241.53 74.25,-232 74.61,-230.13 75,-228.25 75.42,-226.37"/>
<polygon fill="none" stroke="#63b8ff" points="75.41,-226.4 72.94,-219.62 78.24,-214.74 80.71,-221.51 75.41,-226.4"/>
</a>
</g>
<text text-anchor="middle" x="111.38" y="-233.75" font-family="Helvetica,sans-Serif" font-size="10.00" fill="grey"> +EncryptionKey</text>
</g>
<!-- Node4 -->
<g id="Node000004" class="node">
<title>Node4</title>
<g id="a_Node000004"><a xlink:title=" ">
<polygon fill="white" stroke="none" points="179,-310.25 159,-310.25 159,-261.25 179,-261.25 179,-310.25"/>
<text text-anchor="start" x="163.75" y="-296.75" font-family="Helvetica,sans-Serif" font-size="10.00">int</text>
<text text-anchor="start" x="167.5" y="-281.75" font-family="Helvetica,sans-Serif" font-size="10.00"> </text>
<text text-anchor="start" x="167.5" y="-266.75" font-family="Helvetica,sans-Serif" font-size="10.00"> </text>
<polygon fill="#666666" stroke="#666666" points="159,-293.25 159,-293.25 179,-293.25 179,-293.25 159,-293.25"/>
<polygon fill="#666666" stroke="#666666" points="159,-278.25 159,-278.25 179,-278.25 179,-278.25 159,-278.25"/>
<polygon fill="none" stroke="#666666" points="159,-261.25 159,-310.25 179,-310.25 179,-261.25 159,-261.25"/>
</a>
</g>
</g>
<!-- Node4&#45;&gt;Node1 -->
<g id="edge3_Node000001_Node000004" class="edge">
<title>Node4&#45;&gt;Node1</title>
<g id="a_edge3_Node000001_Node000004"><a xlink:title=" ">
<path fill="none" stroke="#63b8ff" d="M162.63,-261.28C159.97,-251.5 156.67,-239.36 153.11,-226.22"/>
<polygon fill="none" stroke="#63b8ff" points="153.15,-226.37 147.71,-221.63 150,-214.79 155.43,-219.53 153.15,-226.37"/>
</a>
</g>
<text text-anchor="middle" x="188.12" y="-233.75" font-family="Helvetica,sans-Serif" font-size="10.00" fill="grey"> +socktimeout</text>
</g>
<!-- Node5 -->
<g id="Node000005" class="node">
<title>Node5</title>
<g id="a_Node000005"><a xlink:title=" ">
<polygon fill="white" stroke="none" points="268,-310.25 240,-310.25 240,-261.25 268,-261.25 268,-310.25"/>
<text text-anchor="start" x="245" y="-296.75" font-family="Helvetica,sans-Serif" font-size="10.00">bool</text>
<text text-anchor="start" x="252.5" y="-281.75" font-family="Helvetica,sans-Serif" font-size="10.00"> </text>
<text text-anchor="start" x="252.5" y="-266.75" font-family="Helvetica,sans-Serif" font-size="10.00"> </text>
<polygon fill="#666666" stroke="#666666" points="240,-293.25 240,-293.25 268,-293.25 268,-293.25 240,-293.25"/>
<polygon fill="#666666" stroke="#666666" points="240,-278.25 240,-278.25 268,-278.25 268,-278.25 240,-278.25"/>
<polygon fill="none" stroke="#666666" points="240,-261.25 240,-310.25 268,-310.25 268,-261.25 240,-261.25"/>
</a>
</g>
</g>
<!-- Node5&#45;&gt;Node1 -->
<g id="edge4_Node000001_Node000005" class="edge">
<title>Node5&#45;&gt;Node1</title>
<g id="a_edge4_Node000001_Node000005"><a xlink:title=" ">
<path fill="none" stroke="#63b8ff" d="M241.34,-261.41C235.99,-252.06 229.51,-241.32 223,-232 216.92,-223.3 210.39,-214.44 203.68,-205.66"/>
<polygon fill="none" stroke="#63b8ff" points="203.64,-205.61 196.8,-203.32 196.29,-196.12 203.12,-198.41 203.64,-205.61"/>
</a>
</g>
<text text-anchor="middle" x="274.62" y="-233.75" font-family="Helvetica,sans-Serif" font-size="10.00" fill="grey"> &#45;doProtocolUpgrade</text>
</g>
</g>
</svg>
</svg>

<style type='text/css'>
<![CDATA[
[data-mouse-over-selected='false'] { opacity: 0.7; }
[data-mouse-over-selected='true']  { opacity: 1.0; }
]]>
</style>
<script type="application/ecmascript"><![CDATA[
document.addEventListener('DOMContentLoaded', (event) => {
  highlightEdges();
  highlightAdjacentNodes();
});
]]></script>
</svg>
