<?xml version="1.0" encoding="UTF-8" standalone="no"?>
<!DOCTYPE svg PUBLIC "-//W3C//DTD SVG 1.1//EN"
 "http://www.w3.org/Graphics/SVG/1.1/DTD/svg11.dtd">
<!-- Generated by graphviz version 10.0.1 (20240210.2158)
 -->
<!-- Title: NAudio.Midi.MidiEventCollection.FlattenToOneTrack Pages: 1 -->
<svg width="567pt" height="97pt"
 viewBox="0.00 0.00 566.75 96.50" xmlns="http://www.w3.org/2000/svg" xmlns:xlink="http://www.w3.org/1999/xlink">
<g id="graph0" class="graph" transform="scale(1 1) rotate(0) translate(4 92.5)">
<title>NAudio.Midi.MidiEventCollection.FlattenToOneTrack</title>
<!-- Node1 -->
<g id="Node000001" class="node">
<title>Node1</title>
<g id="a_Node000001"><a xlink:title="Flattens the multiple tracks into a single track.">
<polygon fill="#999999" stroke="#666666" points="162.25,-55.5 0,-55.5 0,-25 162.25,-25 162.25,-55.5"/>
<text text-anchor="start" x="8" y="-42" font-family="Helvetica,sans-Serif" font-size="10.00">NAudio.Midi.MidiEventCollection.</text>
<text text-anchor="middle" x="81.12" y="-30.75" font-family="Helvetica,sans-Serif" font-size="10.00">FlattenToOneTrack</text>
</a>
</g>
</g>
<!-- Node2 -->
<g id="Node000002" class="node">
<title>Node2</title>
<g id="a_Node000002"><a xlink:href="class_n_audio_1_1_midi_1_1_midi_event.html#abc5dddfff2cac0fa2003ca9a0af50fb1" target="_top" xlink:title="Checks if the provided MIDI event is an end track event.">
<polygon fill="white" stroke="#666666" points="541.12,-88.5 414.12,-88.5 414.12,-58 541.12,-58 541.12,-88.5"/>
<text text-anchor="start" x="422.12" y="-75" font-family="Helvetica,sans-Serif" font-size="10.00">NAudio.Midi.MidiEvent.Is</text>
<text text-anchor="middle" x="477.62" y="-63.75" font-family="Helvetica,sans-Serif" font-size="10.00">EndTrack</text>
</a>
</g>
</g>
<!-- Node1&#45;&gt;Node2 -->
<g id="edge1_Node000001_Node000002" class="edge">
<title>Node1&#45;&gt;Node2</title>
<g id="a_edge1_Node000001_Node000002"><a xlink:title=" ">
<path fill="none" stroke="#63b8ff" d="M148.43,-55.99C164.64,-59.28 182,-62.32 198.25,-64.25 267.09,-72.42 346.14,-74.26 402.37,-74.3"/>
<polygon fill="#63b8ff" stroke="#63b8ff" points="402.14,-77.8 412.14,-74.28 402.13,-70.8 402.14,-77.8"/>
</a>
</g>
</g>
<!-- Node3 -->
<g id="Node000003" class="node">
<title>Node3</title>
<g id="a_Node000003"><a xlink:href="class_n_audio_1_1_midi_1_1_midi_event_collection.html#a0896cf22b6fc88dd8f3c4f34555cafde" target="_top" xlink:title="Prepares the MIDI data for export by performing the following steps:">
<polygon fill="white" stroke="#666666" points="360.5,-55.5 198.25,-55.5 198.25,-25 360.5,-25 360.5,-55.5"/>
<text text-anchor="start" x="206.25" y="-42" font-family="Helvetica,sans-Serif" font-size="10.00">NAudio.Midi.MidiEventCollection.</text>
<text text-anchor="middle" x="279.38" y="-30.75" font-family="Helvetica,sans-Serif" font-size="10.00">PrepareForExport</text>
</a>
</g>
</g>
<!-- Node1&#45;&gt;Node3 -->
<g id="edge2_Node000001_Node000003" class="edge">
<title>Node1&#45;&gt;Node3</title>
<g id="a_edge2_Node000001_Node000003"><a xlink:title=" ">
<path fill="none" stroke="#63b8ff" d="M162.51,-40.25C170.43,-40.25 178.5,-40.25 186.52,-40.25"/>
<polygon fill="#63b8ff" stroke="#63b8ff" points="186.28,-43.75 196.28,-40.25 186.28,-36.75 186.28,-43.75"/>
</a>
</g>
</g>
<!-- Node4 -->
<g id="Node000004" class="node">
<title>Node4</title>
<g id="a_Node000004"><a xlink:href="class_n_audio_1_1_midi_1_1_midi_event_collection.html#a2a5898ba654bdd5deef14538a7616cba" target="_top" xlink:title="Removes the track at the specified index from the track events collection.">
<polygon fill="white" stroke="#666666" points="558.75,-30.5 396.5,-30.5 396.5,0 558.75,0 558.75,-30.5"/>
<text text-anchor="start" x="404.5" y="-17" font-family="Helvetica,sans-Serif" font-size="10.00">NAudio.Midi.MidiEventCollection.</text>
<text text-anchor="middle" x="477.62" y="-5.75" font-family="Helvetica,sans-Serif" font-size="10.00">RemoveTrack</text>
</a>
</g>
</g>
<!-- Node1&#45;&gt;Node4 -->
<g id="edge5_Node000001_Node000004" class="edge">
<title>Node1&#45;&gt;Node4</title>
<g id="a_edge5_Node000001_Node000004"><a xlink:title=" ">
<path fill="none" stroke="#63b8ff" d="M146.56,-24.54C163.29,-21.13 181.36,-18.01 198.25,-16.25 260.29,-9.79 330.54,-9.59 384.94,-10.98"/>
<polygon fill="#63b8ff" stroke="#63b8ff" points="384.69,-14.48 394.79,-11.26 384.89,-7.48 384.69,-14.48"/>
</a>
</g>
</g>
<!-- Node3&#45;&gt;Node2 -->
<g id="edge3_Node000003_Node000002" class="edge">
<title>Node3&#45;&gt;Node2</title>
<g id="a_edge3_Node000003_Node000002"><a xlink:title=" ">
<path fill="none" stroke="#63b8ff" d="M360.76,-53.77C374.57,-56.09 388.87,-58.49 402.51,-60.79"/>
<polygon fill="#63b8ff" stroke="#63b8ff" points="401.85,-64.22 412.29,-62.43 403.01,-57.32 401.85,-64.22"/>
</a>
</g>
</g>
<!-- Node3&#45;&gt;Node4 -->
<g id="edge4_Node000003_Node000004" class="edge">
<title>Node3&#45;&gt;Node4</title>
<g id="a_edge4_Node000003_Node000004"><a xlink:title=" ">
<path fill="none" stroke="#63b8ff" d="M360.76,-30.01C368.68,-29 376.75,-27.97 384.77,-26.95"/>
<polygon fill="#63b8ff" stroke="#63b8ff" points="385.06,-30.44 394.54,-25.71 384.18,-23.5 385.06,-30.44"/>
</a>
</g>
</g>
</g>
</svg>
