<?xml version="1.0" encoding="UTF-8" standalone="no"?>
<!DOCTYPE svg PUBLIC "-//W3C//DTD SVG 1.1//EN"
 "http://www.w3.org/Graphics/SVG/1.1/DTD/svg11.dtd">
<!-- Generated by graphviz version 10.0.1 (20240210.2158)
 -->
<!-- Title: NAudio.MediaFoundation.MediaFoundationTransform.Read Pages: 1 -->
<svg width="868pt" height="390pt"
 viewBox="0.00 0.00 867.75 389.75" xmlns="http://www.w3.org/2000/svg" xmlns:xlink="http://www.w3.org/1999/xlink">
<g id="graph0" class="graph" transform="scale(1 1) rotate(0) translate(4 385.75)">
<title>NAudio.MediaFoundation.MediaFoundationTransform.Read</title>
<!-- Node1 -->
<g id="Node000001" class="node">
<title>Node1</title>
<g id="a_Node000001"><a xlink:title="Reads data from the input buffer and processes it using the transform, returning the number of bytes ...">
<polygon fill="#999999" stroke="#666666" points="154.75,-192.12 0,-192.12 0,-161.62 154.75,-161.62 154.75,-192.12"/>
<text text-anchor="start" x="8" y="-178.62" font-family="Helvetica,sans-Serif" font-size="10.00">NAudio.MediaFoundation.Media</text>
<text text-anchor="middle" x="77.38" y="-167.38" font-family="Helvetica,sans-Serif" font-size="10.00">FoundationTransform.Read</text>
</a>
</g>
</g>
<!-- Node2 -->
<g id="Node000002" class="node">
<title>Node2</title>
<g id="a_Node000002"><a xlink:href="class_n_audio_1_1_media_foundation_1_1_media_foundation_transform.html#adfd1a9a41d78fd6898c0ae3fbba98d2c" target="_top" xlink:title="Clears the output buffer by resetting the count and offset to zero.">
<polygon fill="white" stroke="#666666" points="372.88,-381.75 209.12,-381.75 209.12,-340 372.88,-340 372.88,-381.75"/>
<text text-anchor="start" x="217.12" y="-368.25" font-family="Helvetica,sans-Serif" font-size="10.00">NAudio.MediaFoundation.Media</text>
<text text-anchor="start" x="217.12" y="-357" font-family="Helvetica,sans-Serif" font-size="10.00">FoundationTransform.ClearOutput</text>
<text text-anchor="middle" x="291" y="-345.75" font-family="Helvetica,sans-Serif" font-size="10.00">Buffer</text>
</a>
</g>
</g>
<!-- Node1&#45;&gt;Node2 -->
<g id="edge1_Node000001_Node000002" class="edge">
<title>Node1&#45;&gt;Node2</title>
<g id="a_edge1_Node000001_Node000002"><a xlink:title=" ">
<path fill="none" stroke="#63b8ff" d="M85.51,-192.58C100.46,-223.73 138.11,-293.53 190.75,-330.88 193.28,-332.67 195.92,-334.36 198.63,-335.94"/>
<polygon fill="#63b8ff" stroke="#63b8ff" points="196.98,-339.03 207.46,-340.57 200.23,-332.83 196.98,-339.03"/>
</a>
</g>
</g>
<!-- Node3 -->
<g id="Node000003" class="node">
<title>Node3</title>
<g id="a_Node000003"><a xlink:href="class_n_audio_1_1_media_foundation_1_1_media_foundation_transform.html#aca97b4a24f2bdc81ff1b39d161c4097b" target="_top" xlink:title="Creates and returns a new IMFTransform object.">
<polygon fill="white" stroke="#666666" points="383.38,-322.12 198.62,-322.12 198.62,-291.62 383.38,-291.62 383.38,-322.12"/>
<text text-anchor="start" x="206.62" y="-308.62" font-family="Helvetica,sans-Serif" font-size="10.00">NAudio.MediaFoundation.Media</text>
<text text-anchor="middle" x="291" y="-297.38" font-family="Helvetica,sans-Serif" font-size="10.00">FoundationTransform.CreateTransform</text>
</a>
</g>
</g>
<!-- Node1&#45;&gt;Node3 -->
<g id="edge2_Node000001_Node000003" class="edge">
<title>Node1&#45;&gt;Node3</title>
<g id="a_edge2_Node000001_Node000003"><a xlink:title=" ">
<path fill="none" stroke="#63b8ff" d="M90.36,-192.49C109.14,-215.85 147.84,-259.61 190.75,-282.88 193.4,-284.31 196.13,-285.66 198.93,-286.93"/>
<polygon fill="#63b8ff" stroke="#63b8ff" points="197.31,-290.05 207.89,-290.62 199.97,-283.58 197.31,-290.05"/>
</a>
</g>
</g>
<!-- Node4 -->
<g id="Node000004" class="node">
<title>Node4</title>
<g id="a_Node000004"><a xlink:href="class_n_audio_1_1_media_foundation_1_1_media_foundation_transform.html#a4e0410a804ef3b6d090a6f4e4f04d1a7" target="_top" xlink:title="Ends the stream and drains the transform.">
<polygon fill="white" stroke="#666666" points="391.25,-214.12 190.75,-214.12 190.75,-183.62 391.25,-183.62 391.25,-214.12"/>
<text text-anchor="start" x="198.75" y="-200.62" font-family="Helvetica,sans-Serif" font-size="10.00">NAudio.MediaFoundation.Media</text>
<text text-anchor="middle" x="291" y="-189.38" font-family="Helvetica,sans-Serif" font-size="10.00">FoundationTransform.EndStreamAndDrain</text>
</a>
</g>
</g>
<!-- Node1&#45;&gt;Node4 -->
<g id="edge3_Node000001_Node000004" class="edge">
<title>Node1&#45;&gt;Node4</title>
<g id="a_edge3_Node000001_Node000004"><a xlink:title=" ">
<path fill="none" stroke="#63b8ff" d="M155.08,-184.85C162.87,-185.66 170.9,-186.49 178.97,-187.33"/>
<polygon fill="#63b8ff" stroke="#63b8ff" points="178.57,-190.81 188.88,-188.36 179.29,-183.85 178.57,-190.81"/>
</a>
</g>
</g>
<!-- Node6 -->
<g id="Node000006" class="node">
<title>Node6</title>
<g id="a_Node000006"><a xlink:href="class_n_audio_1_1_media_foundation_1_1_media_foundation_transform.html#adf0d8d3679e677e3ea3b64dbef65b195" target="_top" xlink:title="Reads data from the transform and returns the length of the output buffer.">
<polygon fill="white" stroke="#666666" points="628.5,-214.12 427.25,-214.12 427.25,-183.62 628.5,-183.62 628.5,-214.12"/>
<text text-anchor="start" x="435.25" y="-200.62" font-family="Helvetica,sans-Serif" font-size="10.00">NAudio.MediaFoundation.Media</text>
<text text-anchor="middle" x="527.88" y="-189.38" font-family="Helvetica,sans-Serif" font-size="10.00">FoundationTransform.ReadFromTransform</text>
</a>
</g>
</g>
<!-- Node1&#45;&gt;Node6 -->
<g id="edge22_Node000001_Node000006" class="edge">
<title>Node1&#45;&gt;Node6</title>
<g id="a_edge22_Node000001_Node000006"><a xlink:title=" ">
<path fill="none" stroke="#63b8ff" d="M155.14,-175.33C167.06,-175.14 179.24,-174.98 190.75,-174.88 279.86,-174.08 302.48,-167.08 391.25,-174.88 407.31,-176.29 424.33,-178.62 440.67,-181.29"/>
<polygon fill="#63b8ff" stroke="#63b8ff" points="439.93,-184.71 450.37,-182.93 441.1,-177.81 439.93,-184.71"/>
</a>
</g>
</g>
<!-- Node14 -->
<g id="Node000014" class="node">
<title>Node14</title>
<g id="a_Node000014"><a xlink:href="class_n_audio_1_1_media_foundation_1_1_media_foundation_transform.html#ac0e0c080dbb0cce7bfb5b0a4041769d7" target="_top" xlink:title="Initializes the transform for streaming by processing specific messages and setting the initializedFo...">
<polygon fill="white" stroke="#666666" points="386.75,-273.75 195.25,-273.75 195.25,-232 386.75,-232 386.75,-273.75"/>
<text text-anchor="start" x="203.25" y="-260.25" font-family="Helvetica,sans-Serif" font-size="10.00">NAudio.MediaFoundation.Media</text>
<text text-anchor="start" x="203.25" y="-249" font-family="Helvetica,sans-Serif" font-size="10.00">FoundationTransform.InitializeTransform</text>
<text text-anchor="middle" x="291" y="-237.75" font-family="Helvetica,sans-Serif" font-size="10.00">ForStreaming</text>
</a>
</g>
</g>
<!-- Node1&#45;&gt;Node14 -->
<g id="edge13_Node000001_Node000014" class="edge">
<title>Node1&#45;&gt;Node14</title>
<g id="a_edge13_Node000001_Node000014"><a xlink:title=" ">
<path fill="none" stroke="#63b8ff" d="M114.22,-192.57C136.13,-201.9 164.82,-213.67 190.75,-222.88 195.69,-224.63 200.78,-226.37 205.94,-228.08"/>
<polygon fill="#63b8ff" stroke="#63b8ff" points="204.54,-231.3 215.13,-231.07 206.71,-224.65 204.54,-231.3"/>
</a>
</g>
</g>
<!-- Node15 -->
<g id="Node000015" class="node">
<title>Node15</title>
<g id="a_Node000015"><a xlink:href="interface_n_audio_1_1_media_foundation_1_1_i_m_f_transform.html#a6656f55c1878f30f8edfe2c564665e8a" target="_top" xlink:title="Delivers data to an input stream on this Media Foundation transform (MFT).">
<polygon fill="white" stroke="#666666" points="387.5,-90.12 194.5,-90.12 194.5,-59.62 387.5,-59.62 387.5,-90.12"/>
<text text-anchor="start" x="202.5" y="-76.62" font-family="Helvetica,sans-Serif" font-size="10.00">NAudio.MediaFoundation.IMFTransform.</text>
<text text-anchor="middle" x="291" y="-65.38" font-family="Helvetica,sans-Serif" font-size="10.00">ProcessInput</text>
</a>
</g>
</g>
<!-- Node1&#45;&gt;Node15 -->
<g id="edge15_Node000001_Node000015" class="edge">
<title>Node1&#45;&gt;Node15</title>
<g id="a_edge15_Node000001_Node000015"><a xlink:title=" ">
<path fill="none" stroke="#63b8ff" d="M98.45,-161.23C120.15,-144.96 156.28,-119.69 190.75,-103.88 198.55,-100.3 206.9,-97.04 215.32,-94.12"/>
<polygon fill="#63b8ff" stroke="#63b8ff" points="216.16,-97.53 224.55,-91.06 213.96,-90.88 216.16,-97.53"/>
</a>
</g>
</g>
<!-- Node16 -->
<g id="Node000016" class="node">
<title>Node16</title>
<g id="a_Node000016"><a xlink:href="class_n_audio_1_1_media_foundation_1_1_media_foundation_transform.html#a21ce056838ce3a6cfb65a9e7694d3177" target="_top" xlink:title="Reads bytes from the output buffer into the provided buffer and returns the number of bytes read.">
<polygon fill="white" stroke="#666666" points="384.12,-41.75 197.88,-41.75 197.88,0 384.12,0 384.12,-41.75"/>
<text text-anchor="start" x="205.88" y="-28.25" font-family="Helvetica,sans-Serif" font-size="10.00">NAudio.MediaFoundation.Media</text>
<text text-anchor="start" x="205.88" y="-17" font-family="Helvetica,sans-Serif" font-size="10.00">FoundationTransform.ReadFromOutput</text>
<text text-anchor="middle" x="291" y="-5.75" font-family="Helvetica,sans-Serif" font-size="10.00">Buffer</text>
</a>
</g>
</g>
<!-- Node1&#45;&gt;Node16 -->
<g id="edge16_Node000001_Node000016" class="edge">
<title>Node1&#45;&gt;Node16</title>
<g id="a_edge16_Node000001_Node000016"><a xlink:title=" ">
<path fill="none" stroke="#63b8ff" d="M88.12,-161.2C105.47,-134.58 144.3,-80.52 190.75,-50.88 192.63,-49.68 194.56,-48.52 196.53,-47.42"/>
<polygon fill="#63b8ff" stroke="#63b8ff" points="198.01,-50.59 205.32,-42.92 194.83,-44.35 198.01,-50.59"/>
</a>
</g>
</g>
<!-- Node17 -->
<g id="Node000017" class="node">
<title>Node17</title>
<g id="a_Node000017"><a xlink:href="class_n_audio_1_1_media_foundation_1_1_media_foundation_transform.html#abe03f9a99a95fda9d8919b0a0172772a" target="_top" xlink:title="Reads data from the source provider and creates an IMFSample object.">
<polygon fill="white" stroke="#666666" points="621.75,-125.12 434,-125.12 434,-94.62 621.75,-94.62 621.75,-125.12"/>
<text text-anchor="start" x="442" y="-111.62" font-family="Helvetica,sans-Serif" font-size="10.00">NAudio.MediaFoundation.Media</text>
<text text-anchor="middle" x="527.88" y="-100.38" font-family="Helvetica,sans-Serif" font-size="10.00">FoundationTransform.ReadFromSource</text>
</a>
</g>
</g>
<!-- Node1&#45;&gt;Node17 -->
<g id="edge17_Node000001_Node000017" class="edge">
<title>Node1&#45;&gt;Node17</title>
<g id="a_edge17_Node000001_Node000017"><a xlink:title=" ">
<path fill="none" stroke="#63b8ff" d="M155.22,-165.4C228.86,-154.4 340.56,-137.71 422.28,-125.5"/>
<polygon fill="#63b8ff" stroke="#63b8ff" points="422.74,-128.97 432.11,-124.03 421.7,-122.05 422.74,-128.97"/>
</a>
</g>
</g>
<!-- Node5 -->
<g id="Node000005" class="node">
<title>Node5</title>
<g id="a_Node000005"><a xlink:href="interface_n_audio_1_1_media_foundation_1_1_i_m_f_transform.html#a3a72ff2388586a9855c48aedc86acf62" target="_top" xlink:title="Sends a message to the Media Foundation transform (MFT).">
<polygon fill="white" stroke="#666666" points="624.38,-265.12 431.38,-265.12 431.38,-234.62 624.38,-234.62 624.38,-265.12"/>
<text text-anchor="start" x="439.38" y="-251.62" font-family="Helvetica,sans-Serif" font-size="10.00">NAudio.MediaFoundation.IMFTransform.</text>
<text text-anchor="middle" x="527.88" y="-240.38" font-family="Helvetica,sans-Serif" font-size="10.00">ProcessMessage</text>
</a>
</g>
</g>
<!-- Node4&#45;&gt;Node5 -->
<g id="edge4_Node000004_Node000005" class="edge">
<title>Node4&#45;&gt;Node5</title>
<g id="a_edge4_Node000004_Node000005"><a xlink:title=" ">
<path fill="none" stroke="#63b8ff" d="M364.39,-214.59C389.51,-220.05 417.87,-226.21 443.79,-231.83"/>
<polygon fill="#63b8ff" stroke="#63b8ff" points="442.73,-235.19 453.25,-233.89 444.22,-228.35 442.73,-235.19"/>
</a>
</g>
</g>
<!-- Node4&#45;&gt;Node6 -->
<g id="edge5_Node000004_Node000006" class="edge">
<title>Node4&#45;&gt;Node6</title>
<g id="a_edge5_Node000004_Node000006"><a xlink:title=" ">
<path fill="none" stroke="#63b8ff" d="M391.61,-198.88C399.6,-198.88 407.7,-198.88 415.76,-198.88"/>
<polygon fill="#63b8ff" stroke="#63b8ff" points="415.6,-202.38 425.6,-198.88 415.6,-195.38 415.6,-202.38"/>
</a>
</g>
</g>
<!-- Node7 -->
<g id="Node000007" class="node">
<title>Node7</title>
<g id="a_Node000007"><a xlink:href="class_n_audio_1_1_media_foundation_1_1_media_foundation_transform.html#a6db3bcdd706d2be46cda93d7be46e3cc" target="_top" xlink:title="Converts the given number of bytes to the corresponding position in nanoseconds based on the provided...">
<polygon fill="white" stroke="#666666" points="859.75,-76.12 664.5,-76.12 664.5,-45.62 859.75,-45.62 859.75,-76.12"/>
<text text-anchor="start" x="672.5" y="-62.62" font-family="Helvetica,sans-Serif" font-size="10.00">NAudio.MediaFoundation.Media</text>
<text text-anchor="middle" x="762.12" y="-51.38" font-family="Helvetica,sans-Serif" font-size="10.00">FoundationTransform.BytesToNsPosition</text>
</a>
</g>
</g>
<!-- Node6&#45;&gt;Node7 -->
<g id="edge6_Node000006_Node000007" class="edge">
<title>Node6&#45;&gt;Node7</title>
<g id="a_edge6_Node000006_Node000007"><a xlink:title=" ">
<path fill="none" stroke="#63b8ff" d="M558.26,-183.36C579.18,-171.48 607.25,-153.78 628.5,-133.88 647.96,-115.65 642.35,-100.72 664.5,-85.88 666.89,-84.27 669.38,-82.77 671.95,-81.37"/>
<polygon fill="#63b8ff" stroke="#63b8ff" points="673.33,-84.59 680.79,-77.07 670.27,-78.29 673.33,-84.59"/>
</a>
</g>
</g>
<!-- Node8 -->
<g id="Node000008" class="node">
<title>Node8</title>
<g id="a_Node000008"><a xlink:href="class_n_audio_1_1_media_foundation_1_1_media_foundation_api.html#a10e796baf1844183c986b2c88397228a" target="_top" xlink:title="Creates a memory buffer of the specified size and returns it.">
<polygon fill="white" stroke="#666666" points="848.12,-174.12 676.12,-174.12 676.12,-143.62 848.12,-143.62 848.12,-174.12"/>
<text text-anchor="start" x="684.12" y="-160.62" font-family="Helvetica,sans-Serif" font-size="10.00">NAudio.MediaFoundation.Media</text>
<text text-anchor="middle" x="762.12" y="-149.38" font-family="Helvetica,sans-Serif" font-size="10.00">FoundationApi.CreateMemoryBuffer</text>
</a>
</g>
</g>
<!-- Node6&#45;&gt;Node8 -->
<g id="edge7_Node000006_Node000008" class="edge">
<title>Node6&#45;&gt;Node8</title>
<g id="a_edge7_Node000006_Node000008"><a xlink:title=" ">
<path fill="none" stroke="#63b8ff" d="M620,-183.18C634.68,-180.65 649.93,-178.03 664.73,-175.48"/>
<polygon fill="#63b8ff" stroke="#63b8ff" points="665.2,-178.95 674.46,-173.8 664.01,-172.05 665.2,-178.95"/>
</a>
</g>
</g>
<!-- Node9 -->
<g id="Node000009" class="node">
<title>Node9</title>
<g id="a_Node000009"><a xlink:href="class_n_audio_1_1_media_foundation_1_1_media_foundation_api.html#acf45f8cc1d8dbc17ee152df0c7ffef34" target="_top" xlink:title="Creates a new Media Foundation sample.">
<polygon fill="white" stroke="#666666" points="839.5,-125.12 684.75,-125.12 684.75,-94.62 839.5,-94.62 839.5,-125.12"/>
<text text-anchor="start" x="692.75" y="-111.62" font-family="Helvetica,sans-Serif" font-size="10.00">NAudio.MediaFoundation.Media</text>
<text text-anchor="middle" x="762.12" y="-100.38" font-family="Helvetica,sans-Serif" font-size="10.00">FoundationApi.CreateSample</text>
</a>
</g>
</g>
<!-- Node6&#45;&gt;Node9 -->
<g id="edge8_Node000006_Node000009" class="edge">
<title>Node6&#45;&gt;Node9</title>
<g id="a_edge8_Node000006_Node000009"><a xlink:title=" ">
<path fill="none" stroke="#63b8ff" d="M557.83,-183.26C584.84,-169.17 626.55,-148.6 664.5,-134.88 670.45,-132.72 676.67,-130.68 682.96,-128.75"/>
<polygon fill="#63b8ff" stroke="#63b8ff" points="683.52,-132.23 692.12,-126.05 681.54,-125.52 683.52,-132.23"/>
</a>
</g>
</g>
<!-- Node10 -->
<g id="Node000010" class="node">
<title>Node10</title>
<g id="a_Node000010"><a xlink:href="class_n_audio_1_1_utils_1_1_buffer_helpers.html#a6fcf5a452e6779e71f5dfa9b51a74f1e" target="_top" xlink:title="Ensures that the input buffer has at least the specified number of samples and returns the buffer.">
<polygon fill="white" stroke="#666666" points="830.88,-370.12 693.38,-370.12 693.38,-339.62 830.88,-339.62 830.88,-370.12"/>
<text text-anchor="start" x="701.38" y="-356.62" font-family="Helvetica,sans-Serif" font-size="10.00">NAudio.Utils.BufferHelpers.</text>
<text text-anchor="middle" x="762.12" y="-345.38" font-family="Helvetica,sans-Serif" font-size="10.00">Ensure</text>
</a>
</g>
</g>
<!-- Node6&#45;&gt;Node10 -->
<g id="edge9_Node000006_Node000010" class="edge">
<title>Node6&#45;&gt;Node10</title>
<g id="a_edge9_Node000006_Node000010"><a xlink:title=" ">
<path fill="none" stroke="#63b8ff" d="M612.22,-214.41C618.13,-217.57 623.65,-221.35 628.5,-225.88 664.25,-259.26 628.56,-296.7 664.5,-329.88 669.98,-334.93 676.34,-338.99 683.13,-342.25"/>
<polygon fill="#63b8ff" stroke="#63b8ff" points="681.37,-345.31 691.95,-345.9 684.05,-338.84 681.37,-345.31"/>
</a>
</g>
</g>
<!-- Node11 -->
<g id="Node000011" class="node">
<title>Node11</title>
<g id="a_Node000011"><a xlink:href="interface_n_audio_1_1_media_foundation_1_1_i_m_f_media_buffer.html#a1af64854b06c4a042646213b10832302" target="_top" xlink:title="Gives the caller access to the memory in the buffer.">
<polygon fill="white" stroke="#666666" points="848.12,-321.12 676.12,-321.12 676.12,-290.62 848.12,-290.62 848.12,-321.12"/>
<text text-anchor="start" x="684.12" y="-307.62" font-family="Helvetica,sans-Serif" font-size="10.00">NAudio.MediaFoundation.IMFMedia</text>
<text text-anchor="middle" x="762.12" y="-296.38" font-family="Helvetica,sans-Serif" font-size="10.00">Buffer.Lock</text>
</a>
</g>
</g>
<!-- Node6&#45;&gt;Node11 -->
<g id="edge10_Node000006_Node000011" class="edge">
<title>Node6&#45;&gt;Node11</title>
<g id="a_edge10_Node000006_Node000011"><a xlink:title=" ">
<path fill="none" stroke="#63b8ff" d="M608.31,-214.55C615.47,-217.67 622.34,-221.4 628.5,-225.88 652.14,-243.04 640.76,-263.85 664.5,-280.88 666.56,-282.35 668.7,-283.74 670.9,-285.05"/>
<polygon fill="#63b8ff" stroke="#63b8ff" points="669.1,-288.06 679.58,-289.57 672.33,-281.85 669.1,-288.06"/>
</a>
</g>
</g>
<!-- Node12 -->
<g id="Node000012" class="node">
<title>Node12</title>
<g id="a_Node000012"><a xlink:href="interface_n_audio_1_1_media_foundation_1_1_i_m_f_transform.html#ae38bc27a19d67ebc4d8cc275bfe2de3f" target="_top" xlink:title="Generates output from the current input data.">
<polygon fill="white" stroke="#666666" points="858.62,-272.12 665.62,-272.12 665.62,-241.62 858.62,-241.62 858.62,-272.12"/>
<text text-anchor="start" x="673.62" y="-258.62" font-family="Helvetica,sans-Serif" font-size="10.00">NAudio.MediaFoundation.IMFTransform.</text>
<text text-anchor="middle" x="762.12" y="-247.38" font-family="Helvetica,sans-Serif" font-size="10.00">ProcessOutput</text>
</a>
</g>
</g>
<!-- Node6&#45;&gt;Node12 -->
<g id="edge11_Node000006_Node000012" class="edge">
<title>Node6&#45;&gt;Node12</title>
<g id="a_edge11_Node000006_Node000012"><a xlink:title=" ">
<path fill="none" stroke="#63b8ff" d="M591.73,-214.57C621.16,-221.92 656.42,-230.73 687.13,-238.4"/>
<polygon fill="#63b8ff" stroke="#63b8ff" points="686.21,-241.77 696.76,-240.8 687.9,-234.98 686.21,-241.77"/>
</a>
</g>
</g>
<!-- Node13 -->
<g id="Node000013" class="node">
<title>Node13</title>
<g id="a_Node000013"><a xlink:href="interface_n_audio_1_1_media_foundation_1_1_i_m_f_media_buffer.html#a0d299795ca9afd20128108c9d6522557" target="_top" xlink:title="Unlocks a buffer that was previously locked.">
<polygon fill="white" stroke="#666666" points="848.12,-223.12 676.12,-223.12 676.12,-192.62 848.12,-192.62 848.12,-223.12"/>
<text text-anchor="start" x="684.12" y="-209.62" font-family="Helvetica,sans-Serif" font-size="10.00">NAudio.MediaFoundation.IMFMedia</text>
<text text-anchor="middle" x="762.12" y="-198.38" font-family="Helvetica,sans-Serif" font-size="10.00">Buffer.Unlock</text>
</a>
</g>
</g>
<!-- Node6&#45;&gt;Node13 -->
<g id="edge12_Node000006_Node000013" class="edge">
<title>Node6&#45;&gt;Node13</title>
<g id="a_edge12_Node000006_Node000013"><a xlink:title=" ">
<path fill="none" stroke="#63b8ff" d="M628.72,-202.74C640.64,-203.21 652.8,-203.68 664.68,-204.14"/>
<polygon fill="#63b8ff" stroke="#63b8ff" points="664.32,-207.63 674.45,-204.52 664.59,-200.63 664.32,-207.63"/>
</a>
</g>
</g>
<!-- Node14&#45;&gt;Node5 -->
<g id="edge14_Node000014_Node000005" class="edge">
<title>Node14&#45;&gt;Node5</title>
<g id="a_edge14_Node000014_Node000005"><a xlink:title=" ">
<path fill="none" stroke="#63b8ff" d="M387.19,-251.66C397.95,-251.52 408.97,-251.38 419.87,-251.24"/>
<polygon fill="#63b8ff" stroke="#63b8ff" points="419.7,-254.74 429.65,-251.12 419.61,-247.74 419.7,-254.74"/>
</a>
</g>
</g>
<!-- Node17&#45;&gt;Node7 -->
<g id="edge18_Node000017_Node000007" class="edge">
<title>Node17&#45;&gt;Node7</title>
<g id="a_edge18_Node000017_Node000007"><a xlink:title=" ">
<path fill="none" stroke="#63b8ff" d="M603.32,-94.17C626.34,-89.31 651.88,-83.92 675.59,-78.92"/>
<polygon fill="#63b8ff" stroke="#63b8ff" points="676.16,-82.38 685.22,-76.89 674.72,-75.53 676.16,-82.38"/>
</a>
</g>
</g>
<!-- Node17&#45;&gt;Node8 -->
<g id="edge19_Node000017_Node000008" class="edge">
<title>Node17&#45;&gt;Node8</title>
<g id="a_edge19_Node000017_Node000008"><a xlink:title=" ">
<path fill="none" stroke="#63b8ff" d="M603.32,-125.58C626.34,-130.44 651.88,-135.83 675.59,-140.83"/>
<polygon fill="#63b8ff" stroke="#63b8ff" points="674.72,-144.22 685.22,-142.86 676.16,-137.37 674.72,-144.22"/>
</a>
</g>
</g>
<!-- Node17&#45;&gt;Node9 -->
<g id="edge20_Node000017_Node000009" class="edge">
<title>Node17&#45;&gt;Node9</title>
<g id="a_edge20_Node000017_Node000009"><a xlink:title=" ">
<path fill="none" stroke="#63b8ff" d="M622,-109.88C638.82,-109.88 656.3,-109.88 672.97,-109.88"/>
<polygon fill="#63b8ff" stroke="#63b8ff" points="672.85,-113.38 682.85,-109.88 672.85,-106.38 672.85,-113.38"/>
</a>
</g>
</g>
<!-- Node18 -->
<g id="Node000018" class="node">
<title>Node18</title>
<g id="a_Node000018"><a xlink:href="interface_n_audio_1_1_wave_1_1_i_wave_provider.html#a1592be8cd7da05cc1a773b8d4ed979c0" target="_top" xlink:title="Fill the specified buffer with wave data.">
<polygon fill="white" stroke="#666666" points="846.25,-27.5 678,-27.5 678,-8.25 846.25,-8.25 846.25,-27.5"/>
<text text-anchor="middle" x="762.12" y="-14" font-family="Helvetica,sans-Serif" font-size="10.00">NAudio.Wave.IWaveProvider.Read</text>
</a>
</g>
</g>
<!-- Node17&#45;&gt;Node18 -->
<g id="edge21_Node000017_Node000018" class="edge">
<title>Node17&#45;&gt;Node18</title>
<g id="a_edge21_Node000017_Node000018"><a xlink:title=" ">
<path fill="none" stroke="#63b8ff" d="M552.36,-94.4C578.63,-77.78 622.96,-51.75 664.5,-36.88 671,-34.55 677.85,-32.48 684.77,-30.65"/>
<polygon fill="#63b8ff" stroke="#63b8ff" points="685.35,-34.12 694.22,-28.33 683.68,-27.32 685.35,-34.12"/>
</a>
</g>
</g>
</g>
</svg>
