<?xml version="1.0" encoding="UTF-8" standalone="no"?>
<!DOCTYPE svg PUBLIC "-//W3C//DTD SVG 1.1//EN"
 "http://www.w3.org/Graphics/SVG/1.1/DTD/svg11.dtd">
<!-- Generated by graphviz version 10.0.1 (20240210.2158)
 -->
<!-- Title: NAudio.Wave.WaveInterop.waveInGetDevCaps Pages: 1 -->
<svg width="541pt" height="76pt"
 viewBox="0.00 0.00 540.50 75.88" xmlns="http://www.w3.org/2000/svg" xmlns:xlink="http://www.w3.org/1999/xlink">
<g id="graph0" class="graph" transform="scale(1 1) rotate(0) translate(4 71.88)">
<title>NAudio.Wave.WaveInterop.waveInGetDevCaps</title>
<!-- Node1 -->
<g id="Node000001" class="node">
<title>Node1</title>
<g id="a_Node000001"><a xlink:title="Retrieves the capabilities of a specified input device.">
<polygon fill="#999999" stroke="#666666" points="532.5,-51.5 372.5,-51.5 372.5,-21 532.5,-21 532.5,-51.5"/>
<text text-anchor="start" x="380.5" y="-38" font-family="Helvetica,sans-Serif" font-size="10.00">NAudio.Wave.WaveInterop.wave</text>
<text text-anchor="middle" x="452.5" y="-26.75" font-family="Helvetica,sans-Serif" font-size="10.00">InGetDevCaps</text>
</a>
</g>
</g>
<!-- Node2 -->
<g id="Node000002" class="node">
<title>Node2</title>
<g id="a_Node000002"><a xlink:href="class_n_audio_1_1_wave_1_1_wave_in.html#a195de81ee0766e6c345980f88689349a" target="_top" xlink:title="Retrieves the capabilities of the specified audio input device.">
<polygon fill="white" stroke="#666666" points="336.5,-67.88 154.75,-67.88 154.75,-48.62 336.5,-48.62 336.5,-67.88"/>
<text text-anchor="middle" x="245.62" y="-54.38" font-family="Helvetica,sans-Serif" font-size="10.00">NAudio.Wave.WaveIn.GetCapabilities</text>
</a>
</g>
</g>
<!-- Node1&#45;&gt;Node2 -->
<g id="edge1_Node000001_Node000002" class="edge">
<title>Node1&#45;&gt;Node2</title>
<g id="a_edge1_Node000001_Node000002"><a xlink:title=" ">
<path fill="none" stroke="#63b8ff" d="M361.04,-45.96C353.02,-46.83 344.9,-47.7 336.88,-48.56"/>
<polygon fill="#63b8ff" stroke="#63b8ff" points="361.22,-49.47 370.79,-44.92 360.47,-42.51 361.22,-49.47"/>
</a>
</g>
</g>
<!-- Node3 -->
<g id="Node000003" class="node">
<title>Node3</title>
<g id="a_Node000003"><a xlink:href="class_n_audio_1_1_wave_1_1_wave_in_event.html#ae8183df5d6794e0ddcf8237b5a7446cb" target="_top" xlink:title="Retrieves the capabilities of the specified audio input device.">
<polygon fill="white" stroke="#666666" points="315.88,-30.5 175.38,-30.5 175.38,0 315.88,0 315.88,-30.5"/>
<text text-anchor="start" x="183.38" y="-17" font-family="Helvetica,sans-Serif" font-size="10.00">NAudio.Wave.WaveInEvent.</text>
<text text-anchor="middle" x="245.62" y="-5.75" font-family="Helvetica,sans-Serif" font-size="10.00">GetCapabilities</text>
</a>
</g>
</g>
<!-- Node1&#45;&gt;Node3 -->
<g id="edge2_Node000001_Node000003" class="edge">
<title>Node1&#45;&gt;Node3</title>
<g id="a_edge2_Node000001_Node000003"><a xlink:title=" ">
<path fill="none" stroke="#63b8ff" d="M360.93,-26.97C345.95,-25.43 330.63,-23.86 316.28,-22.39"/>
<polygon fill="#63b8ff" stroke="#63b8ff" points="360.48,-30.44 370.78,-27.98 361.19,-23.47 360.48,-30.44"/>
</a>
</g>
</g>
<!-- Node4 -->
<g id="Node000004" class="node">
<title>Node4</title>
<g id="a_Node000004"><a xlink:href="class_plugin_1_1_main.html#ad3edeeb801a9b8d82ad07c5a7de4da5b" target="_top" xlink:title="Asynchronously receives data from the specified node and processes it based on the received commands.">
<polygon fill="white" stroke="#666666" points="118.75,-24.88 0,-24.88 0,-5.63 118.75,-5.63 118.75,-24.88"/>
<text text-anchor="middle" x="59.38" y="-11.38" font-family="Helvetica,sans-Serif" font-size="10.00">Plugin.Main.recvThread</text>
</a>
</g>
</g>
<!-- Node3&#45;&gt;Node4 -->
<g id="edge3_Node000003_Node000004" class="edge">
<title>Node3&#45;&gt;Node4</title>
<g id="a_edge3_Node000003_Node000004"><a xlink:title=" ">
<path fill="none" stroke="#63b8ff" d="M163.6,-15.25C148.59,-15.25 133.18,-15.25 119,-15.25"/>
<polygon fill="#63b8ff" stroke="#63b8ff" points="163.45,-18.75 173.45,-15.25 163.45,-11.75 163.45,-18.75"/>
</a>
</g>
</g>
</g>
</svg>
