<?xml version="1.0" encoding="UTF-8" standalone="no"?>
<!DOCTYPE svg PUBLIC "-//W3C//DTD SVG 1.1//EN"
 "http://www.w3.org/Graphics/SVG/1.1/DTD/svg11.dtd">
<!-- Generated by graphviz version 10.0.1 (20240210.2158)
 -->
<!-- Title: xeno_rat_client.Node.ReceiveAsync Pages: 1 -->
<!--zoomable 741 -->

<svg id="main" version="1.1" xmlns="http://www.w3.org/2000/svg" xmlns:xlink="http://www.w3.org/1999/xlink" xml:space="preserve" onload="init(evt)">
<style type="text/css"><![CDATA[
.node, .edge {opacity: 0.7;}
.node.selected, .edge.selected {opacity: 1;}
.edge:hover path { stroke: red; }
.edge:hover polygon { stroke: red; fill: red; }
]]></style>

<defs>
  <circle id="rim" cx="0" cy="0" r="7"/>
  <circle id="rim2" cx="0" cy="0" r="3.5"/>
  <g id="zoomPlus">
    <use xlink:href="#rim" fill="#404040"><set attributeName="fill" to="#808080" begin="zoomplus.mouseover" end="zoomplus.mouseout"/></use>
    <path d="M-4,0h8M0,-4v8" fill="none" stroke="white" stroke-width="1.5" pointer-events="none"/>
  </g>
  <g id="zoomMin">
    <use xlink:href="#rim" fill="#404040"><set attributeName="fill" to="#808080" begin="zoomminus.mouseover" end="zoomminus.mouseout"/></use>
    <path d="M-4,0h8" fill="none" stroke="white" stroke-width="1.5" pointer-events="none"/>
  </g>
  <g id="arrowUp" transform="translate(30 24)">
    <use xlink:href="#rim"/>
    <path pointer-events="none" fill="none" stroke="white" stroke-width="1.5" d="M0,-3.0v7 M-2.5,-0.5L0,-3.0L2.5,-0.5"/>
  </g>
  <g id="arrowRight" transform="rotate(90) translate(36 -43)">
    <use xlink:href="#rim"/>
    <path pointer-events="none" fill="none" stroke="white" stroke-width="1.5" d="M0,-3.0v7 M-2.5,-0.5L0,-3.0L2.5,-0.5"/>
  </g>
  <g id="arrowDown" transform="rotate(180) translate(-30 -48)">
    <use xlink:href="#rim"/>
    <path pointer-events="none" fill="none" stroke="white" stroke-width="1.5" d="M0,-3.0v7 M-2.5,-0.5L0,-3.0L2.5,-0.5"/>
  </g>
  <g id="arrowLeft" transform="rotate(270) translate(-36 17)">
    <use xlink:href="#rim"/>
    <path pointer-events="none" fill="none" stroke="white" stroke-width="1.5" d="M0,-3.0v7 M-2.5,-0.5L0,-3.0L2.5,-0.5"/>
  </g>
  <g id="resetDef">
    <use xlink:href="#rim2" fill="#404040"><set attributeName="fill" to="#808080" begin="reset.mouseover" end="reset.mouseout"/></use>
  </g>
</defs>
<script type="application/ecmascript">
var viewWidth = 1030;
var viewHeight = 741;
var sectionId = 'dynsection-13';
</script>
<script type="application/ecmascript" xlink:href="svg.min.js"/>
<svg id="graph" class="graph">
<g id="viewport">
<title>xeno_rat_client.Node.ReceiveAsync</title>
<!-- Node1 -->
<g id="Node000001" class="node">
<title>Node1</title>
<g id="a_Node000001"><a xlink:title="Asynchronously receives data from the socket and returns the received data as a byte array.">
<polygon fill="#999999" stroke="#666666" points="1022.25,-371.9 875,-371.9 875,-341.4 1022.25,-341.4 1022.25,-371.9"/>
<text text-anchor="start" x="883" y="-358.4" font-family="Helvetica,sans-Serif" font-size="10.00">xeno_rat_client.Node.Receive</text>
<text text-anchor="middle" x="948.62" y="-347.15" font-family="Helvetica,sans-Serif" font-size="10.00">Async</text>
</a>
</g>
</g>
<!-- Node2 -->
<g id="Node000002" class="node">
<title>Node2</title>
<g id="a_Node000002"><a xlink:href="class_plugin_1_1_main.html#a4c91e07145615a0b386f6fa9c8e22c9f" target="_top" xlink:title="Asynchronously accepts a sub&#45;node and adds it to the current node&#39;s sub&#45;nodes.">
<polygon fill="white" stroke="#666666" points="663.25,-516.27 504.75,-516.27 504.75,-497.02 663.25,-497.02 663.25,-516.27"/>
<text text-anchor="middle" x="584" y="-502.77" font-family="Helvetica,sans-Serif" font-size="10.00">Plugin.Main.AcceptSubSubNode</text>
</a>
</g>
</g>
<!-- Node1&#45;&gt;Node2 -->
<g id="edge1_Node000001_Node000002" class="edge">
<title>Node1&#45;&gt;Node2</title>
<g id="a_edge1_Node000001_Node000002"><a xlink:title=" ">
<path fill="none" stroke="#63b8ff" d="M934.12,-381.68C916.55,-411.46 882.84,-460 839,-482.65 785.08,-510.5 716.13,-515.41 663.68,-513.96"/>
<polygon fill="#63b8ff" stroke="#63b8ff" points="936.98,-383.73 938.9,-373.31 930.9,-380.26 936.98,-383.73"/>
</a>
</g>
</g>
<!-- Node3 -->
<g id="Node000003" class="node">
<title>Node3</title>
<g id="a_Node000003"><a xlink:href="class_plugin_1_1_main.html#ae51f6500ea51e702d748ba9c59cfad01" target="_top" xlink:title="Runs the specified node and performs various operations based on the received data.">
<polygon fill="white" stroke="#666666" points="447.75,-516.27 359.75,-516.27 359.75,-497.02 447.75,-497.02 447.75,-516.27"/>
<text text-anchor="middle" x="403.75" y="-502.77" font-family="Helvetica,sans-Serif" font-size="10.00">Plugin.Main.Run</text>
</a>
</g>
</g>
<!-- Node1&#45;&gt;Node3 -->
<g id="edge27_Node000001_Node000003" class="edge">
<title>Node1&#45;&gt;Node3</title>
<g id="a_edge27_Node000001_Node000003"><a xlink:title=" ">
<path fill="none" stroke="#63b8ff" d="M927.28,-380.87C907.26,-402.86 874.61,-434.14 839,-449.65 701.92,-509.33 652.57,-465.23 504.75,-487.65 486.05,-490.48 465.52,-494.27 447.94,-497.71"/>
<polygon fill="#63b8ff" stroke="#63b8ff" points="929.79,-383.31 933.8,-373.51 924.55,-378.67 929.79,-383.31"/>
</a>
</g>
</g>
<!-- Node4 -->
<g id="Node000004" class="node">
<title>Node4</title>
<g id="a_Node000004"><a xlink:href="class_plugin_1_1_main.html#a4bde254856f1641e9514ad25ef538962" target="_top" xlink:title="Asynchronously deletes a file from the specified path and sends a success signal if the operation is ...">
<polygon fill="white" stroke="#666666" points="826.25,-366.27 712,-366.27 712,-347.02 826.25,-347.02 826.25,-366.27"/>
<text text-anchor="middle" x="769.12" y="-352.77" font-family="Helvetica,sans-Serif" font-size="10.00">Plugin.Main.DeleteFile</text>
</a>
</g>
</g>
<!-- Node1&#45;&gt;Node4 -->
<g id="edge3_Node000001_Node000004" class="edge">
<title>Node1&#45;&gt;Node4</title>
<g id="a_edge3_Node000001_Node000004"><a xlink:title=" ">
<path fill="none" stroke="#63b8ff" d="M863.28,-356.65C850.81,-356.65 838.24,-356.65 826.53,-356.65"/>
<polygon fill="#63b8ff" stroke="#63b8ff" points="863.15,-360.15 873.15,-356.65 863.15,-353.15 863.15,-360.15"/>
</a>
</g>
</g>
<!-- Node5 -->
<g id="Node000005" class="node">
<title>Node5</title>
<g id="a_Node000005"><a xlink:href="class_plugin_1_1_main.html#ae17a6824e13f8994fa8203747ef5e008" target="_top" xlink:title="Handles file management operations based on the type of request received from the node.">
<polygon fill="white" stroke="#666666" points="662.5,-366.27 505.5,-366.27 505.5,-347.02 662.5,-347.02 662.5,-366.27"/>
<text text-anchor="middle" x="584" y="-352.77" font-family="Helvetica,sans-Serif" font-size="10.00">Plugin.Main.FileManagerHandler</text>
</a>
</g>
</g>
<!-- Node1&#45;&gt;Node5 -->
<g id="edge13_Node000001_Node000005" class="edge">
<title>Node1&#45;&gt;Node5</title>
<g id="a_edge13_Node000001_Node000005"><a xlink:title=" ">
<path fill="none" stroke="#63b8ff" d="M863.36,-340.44C855.16,-339.3 846.93,-338.34 839,-337.65 777.12,-332.28 761.15,-332.54 699.25,-337.65 678.01,-339.4 654.77,-342.96 634.83,-346.53"/>
<polygon fill="#63b8ff" stroke="#63b8ff" points="862.62,-343.87 873.02,-341.86 863.64,-336.94 862.62,-343.87"/>
</a>
</g>
</g>
<!-- Node6 -->
<g id="Node000006" class="node">
<title>Node6</title>
<g id="a_Node000006"><a xlink:href="classxeno__rat__client_1_1_dll_handler.html#aa28cc98e44e6f05ee0109d4211d69f67" target="_top" xlink:title="Handles the DLL node by receiving, loading, and invoking the specified DLL.">
<polygon fill="white" stroke="#666666" points="835.62,-64.9 702.62,-64.9 702.62,-34.4 835.62,-34.4 835.62,-64.9"/>
<text text-anchor="start" x="710.62" y="-51.4" font-family="Helvetica,sans-Serif" font-size="10.00">xeno_rat_client.DllHandler.</text>
<text text-anchor="middle" x="769.12" y="-40.15" font-family="Helvetica,sans-Serif" font-size="10.00">DllNodeHandler</text>
</a>
</g>
</g>
<!-- Node1&#45;&gt;Node6 -->
<g id="edge6_Node000001_Node000006" class="edge">
<title>Node1&#45;&gt;Node6</title>
<g id="a_edge6_Node000001_Node000006"><a xlink:title=" ">
<path fill="none" stroke="#63b8ff" d="M944.17,-329.78C935.83,-275.39 909.78,-151.3 839,-78.65 833.84,-73.35 827.56,-68.98 820.92,-65.37"/>
<polygon fill="#63b8ff" stroke="#63b8ff" points="940.7,-330.26 945.59,-339.66 947.63,-329.26 940.7,-330.26"/>
</a>
</g>
</g>
<!-- Node7 -->
<g id="Node000007" class="node">
<title>Node7</title>
<g id="a_Node000007"><a xlink:href="classxeno__rat__client_1_1_handler.html#ad419768db746814c3500009dd29101b8" target="_top" xlink:title="Asynchronously receives data from the specified subServer node and processes it based on the received...">
<polygon fill="white" stroke="#666666" points="644.5,-58.9 523.5,-58.9 523.5,-28.4 644.5,-28.4 644.5,-58.9"/>
<text text-anchor="start" x="531.5" y="-45.4" font-family="Helvetica,sans-Serif" font-size="10.00">xeno_rat_client.Handler.</text>
<text text-anchor="middle" x="584" y="-34.15" font-family="Helvetica,sans-Serif" font-size="10.00">Type2Receive</text>
</a>
</g>
</g>
<!-- Node1&#45;&gt;Node7 -->
<g id="edge38_Node000001_Node000007" class="edge">
<title>Node1&#45;&gt;Node7</title>
<g id="a_edge38_Node000001_Node000007"><a xlink:title=" ">
<path fill="none" stroke="#63b8ff" d="M948.37,-329.6C948.51,-264.24 938.63,-97.81 839,-25.65 774.02,21.42 673.5,-7.3 620.5,-28"/>
<polygon fill="#63b8ff" stroke="#63b8ff" points="944.87,-329.37 948.26,-339.41 951.87,-329.45 944.87,-329.37"/>
</a>
</g>
</g>
<!-- Node9 -->
<g id="Node000009" class="node">
<title>Node9</title>
<g id="a_Node000009"><a xlink:href="classxeno__rat__client_1_1_handler.html#af958615880e2daf8a8d0ede5f4c53363" target="_top" xlink:title="Asynchronously receives data and performs different actions based on the received opcode.">
<polygon fill="white" stroke="#666666" points="302.75,-414.9 181.75,-414.9 181.75,-384.4 302.75,-384.4 302.75,-414.9"/>
<text text-anchor="start" x="189.75" y="-401.4" font-family="Helvetica,sans-Serif" font-size="10.00">xeno_rat_client.Handler.</text>
<text text-anchor="middle" x="242.25" y="-390.15" font-family="Helvetica,sans-Serif" font-size="10.00">Type0Receive</text>
</a>
</g>
</g>
<!-- Node1&#45;&gt;Node9 -->
<g id="edge35_Node000001_Node000009" class="edge">
<title>Node1&#45;&gt;Node9</title>
<g id="a_edge35_Node000001_Node000009"><a xlink:title=" ">
<path fill="none" stroke="#63b8ff" d="M947.97,-383.5C947.13,-446.95 935.09,-605.93 839,-674.65 650.3,-809.59 504.96,-687.49 338.75,-525.65 302.37,-490.22 268.7,-440.2 252.82,-415.17"/>
<polygon fill="#63b8ff" stroke="#63b8ff" points="951.47,-383.67 948,-373.66 944.47,-383.65 951.47,-383.67"/>
</a>
</g>
</g>
<!-- Node11 -->
<g id="Node000011" class="node">
<title>Node11</title>
<g id="a_Node000011"><a xlink:href="class_plugin_1_1_main.html#aaa393e2cb3b72c100332f223fb64e352" target="_top" xlink:title="Downloads a file from the specified node and saves it to the specified path.">
<polygon fill="white" stroke="#666666" points="837.88,-290.27 700.38,-290.27 700.38,-271.02 837.88,-271.02 837.88,-290.27"/>
<text text-anchor="middle" x="769.12" y="-276.77" font-family="Helvetica,sans-Serif" font-size="10.00">Plugin.Main.FileDownloader</text>
</a>
</g>
</g>
<!-- Node1&#45;&gt;Node11 -->
<g id="edge11_Node000001_Node000011" class="edge">
<title>Node1&#45;&gt;Node11</title>
<g id="a_edge11_Node000001_Node000011"><a xlink:title=" ">
<path fill="none" stroke="#63b8ff" d="M907.03,-335.9C886.83,-325.9 861.88,-314.08 839,-304.65 826.82,-299.63 813.17,-294.73 801.26,-290.68"/>
<polygon fill="#63b8ff" stroke="#63b8ff" points="905.27,-338.93 915.78,-340.25 908.39,-332.66 905.27,-338.93"/>
</a>
</g>
</g>
<!-- Node12 -->
<g id="Node000012" class="node">
<title>Node12</title>
<g id="a_Node000012"><a xlink:href="class_plugin_1_1_main.html#a9cefbf6142aea997fd2ebfe27847d8d3" target="_top" xlink:title="Asynchronously uploads a file to the specified node.">
<polygon fill="white" stroke="#666666" points="831.5,-253.27 706.75,-253.27 706.75,-234.02 831.5,-234.02 831.5,-253.27"/>
<text text-anchor="middle" x="769.12" y="-239.77" font-family="Helvetica,sans-Serif" font-size="10.00">Plugin.Main.FileUploader</text>
</a>
</g>
</g>
<!-- Node1&#45;&gt;Node12 -->
<g id="edge14_Node000001_Node000012" class="edge">
<title>Node1&#45;&gt;Node12</title>
<g id="a_edge14_Node000001_Node000012"><a xlink:title=" ">
<path fill="none" stroke="#63b8ff" d="M926.49,-332.68C906.14,-311.04 873.44,-279.89 839,-261.65 833.1,-258.52 826.63,-255.92 820.08,-253.75"/>
<polygon fill="#63b8ff" stroke="#63b8ff" points="923.8,-334.92 933.15,-339.91 928.95,-330.18 923.8,-334.92"/>
</a>
</g>
</g>
<!-- Node13 -->
<g id="Node000013" class="node">
<title>Node13</title>
<g id="a_Node000013"><a xlink:href="class_plugin_1_1_main.html#af9b221ceac69986fcf58eeee66b687cf" target="_top" xlink:title="Asynchronously retrieves and sends directory and file information to the connected node.">
<polygon fill="white" stroke="#666666" points="827,-440.27 711.25,-440.27 711.25,-421.02 827,-421.02 827,-440.27"/>
<text text-anchor="middle" x="769.12" y="-426.77" font-family="Helvetica,sans-Serif" font-size="10.00">Plugin.Main.FileViewer</text>
</a>
</g>
</g>
<!-- Node1&#45;&gt;Node13 -->
<g id="edge16_Node000001_Node000013" class="edge">
<title>Node1&#45;&gt;Node13</title>
<g id="a_edge16_Node000001_Node000013"><a xlink:title=" ">
<path fill="none" stroke="#63b8ff" d="M911.23,-377.97C890.56,-389.42 863.92,-403.1 839,-412.65 831.27,-415.61 822.86,-418.25 814.67,-420.55"/>
<polygon fill="#63b8ff" stroke="#63b8ff" points="912.84,-381.09 919.84,-373.13 909.41,-374.98 912.84,-381.09"/>
</a>
</g>
</g>
<!-- Node14 -->
<g id="Node000014" class="node">
<title>Node14</title>
<g id="a_Node000014"><a xlink:href="class_plugin_1_1_socks5_handler.html#ab8f78f7ae0a2ac192b96ddcaabfd9360" target="_top" xlink:title="Asynchronously receives and sends data between the remote socket and subnode using the specified buff...">
<polygon fill="white" stroke="#666666" points="838.25,-640.9 700,-640.9 700,-610.4 838.25,-610.4 838.25,-640.9"/>
<text text-anchor="start" x="708" y="-627.4" font-family="Helvetica,sans-Serif" font-size="10.00">Plugin.Socks5Handler.Recv</text>
<text text-anchor="middle" x="769.12" y="-616.15" font-family="Helvetica,sans-Serif" font-size="10.00">SendLoop</text>
</a>
</g>
</g>
<!-- Node1&#45;&gt;Node14 -->
<g id="edge18_Node000001_Node000014" class="edge">
<title>Node1&#45;&gt;Node14</title>
<g id="a_edge18_Node000001_Node000014"><a xlink:title=" ">
<path fill="none" stroke="#63b8ff" d="M942.33,-383.2C931.34,-431.79 901.68,-535.61 839,-596.65 833.52,-601.99 826.9,-606.41 819.97,-610.05"/>
<polygon fill="#63b8ff" stroke="#63b8ff" points="945.71,-384.09 944.41,-373.58 938.87,-382.61 945.71,-384.09"/>
</a>
</g>
</g>
<!-- Node15 -->
<g id="Node000015" class="node">
<title>Node15</title>
<g id="a_Node000015"><a xlink:href="class_plugin_1_1_socks5_handler.html#a547513c97f841935dd30a4939fd11ded" target="_top" xlink:title="Asynchronously starts the communication process with the specified destination address and port.">
<polygon fill="white" stroke="#666666" points="652,-635.27 516,-635.27 516,-616.02 652,-616.02 652,-635.27"/>
<text text-anchor="middle" x="584" y="-621.77" font-family="Helvetica,sans-Serif" font-size="10.00">Plugin.Socks5Handler.Start</text>
</a>
</g>
</g>
<!-- Node1&#45;&gt;Node15 -->
<g id="edge30_Node000001_Node000015" class="edge">
<title>Node1&#45;&gt;Node15</title>
<g id="a_edge30_Node000001_Node000015"><a xlink:title=" ">
<path fill="none" stroke="#63b8ff" d="M947.08,-383.87C944.23,-444.01 927.97,-587.74 839,-649.65 766.1,-700.37 651.59,-656.92 605.36,-635.7"/>
<polygon fill="#63b8ff" stroke="#63b8ff" points="950.58,-384 947.45,-373.88 943.58,-383.74 950.58,-384"/>
</a>
</g>
</g>
<!-- Node16 -->
<g id="Node000016" class="node">
<title>Node16</title>
<g id="a_Node000016"><a xlink:href="class_chat_1_1_chat_form.html#a1b537d412a1f6730c92a2d1022488fd6" target="_top" xlink:title="Asynchronously receives data from the server and updates the UI with the received message.">
<polygon fill="white" stroke="#666666" points="839,-140.27 699.25,-140.27 699.25,-121.02 839,-121.02 839,-140.27"/>
<text text-anchor="middle" x="769.12" y="-126.77" font-family="Helvetica,sans-Serif" font-size="10.00">Chat.ChatForm.RecvThread</text>
</a>
</g>
</g>
<!-- Node1&#45;&gt;Node16 -->
<g id="edge21_Node000001_Node000016" class="edge">
<title>Node1&#45;&gt;Node16</title>
<g id="a_edge21_Node000001_Node000016"><a xlink:title=" ">
<path fill="none" stroke="#63b8ff" d="M940.24,-330.07C927,-287.17 895.21,-202.6 839,-154.65 831.97,-148.65 823.35,-144.12 814.61,-140.71"/>
<polygon fill="#63b8ff" stroke="#63b8ff" points="936.86,-330.97 943.06,-339.55 943.57,-328.97 936.86,-330.97"/>
</a>
</g>
</g>
<!-- Node19 -->
<g id="Node000019" class="node">
<title>Node19</title>
<g id="a_Node000019"><a xlink:href="class_plugin_1_1_main.html#ad3edeeb801a9b8d82ad07c5a7de4da5b" target="_top" xlink:title="Asynchronously receives data from the specified node and processes it based on the received commands.">
<polygon fill="white" stroke="#666666" points="828.5,-216.27 709.75,-216.27 709.75,-197.02 828.5,-197.02 828.5,-216.27"/>
<text text-anchor="middle" x="769.12" y="-202.77" font-family="Helvetica,sans-Serif" font-size="10.00">Plugin.Main.recvThread</text>
</a>
</g>
</g>
<!-- Node1&#45;&gt;Node19 -->
<g id="edge24_Node000001_Node000019" class="edge">
<title>Node1&#45;&gt;Node19</title>
<g id="a_edge24_Node000001_Node000019"><a xlink:title=" ">
<path fill="none" stroke="#63b8ff" d="M933.46,-331.15C915.44,-301.1 881.5,-251.82 839,-224.65 834,-221.45 828.46,-218.82 822.75,-216.66"/>
<polygon fill="#63b8ff" stroke="#63b8ff" points="930.33,-332.73 938.4,-339.6 936.38,-329.2 930.33,-332.73"/>
</a>
</g>
</g>
<!-- Node20 -->
<g id="Node000020" class="node">
<title>Node20</title>
<g id="a_Node000020"><a xlink:href="class_plugin_1_1_main.html#a3b672ab007c36dceaf59d07b7e6b8698" target="_top" xlink:title="Asynchronously receives data from the specified node and processes it accordingly.">
<polygon fill="white" stroke="#666666" points="645.62,-592.27 522.38,-592.27 522.38,-573.02 645.62,-573.02 645.62,-592.27"/>
<text text-anchor="middle" x="584" y="-578.77" font-family="Helvetica,sans-Serif" font-size="10.00">Plugin.Main.RecvThread</text>
</a>
</g>
</g>
<!-- Node1&#45;&gt;Node20 -->
<g id="edge25_Node000001_Node000020" class="edge">
<title>Node1&#45;&gt;Node20</title>
<g id="a_edge25_Node000001_Node000020"><a xlink:title=" ">
<path fill="none" stroke="#63b8ff" d="M940.28,-383.3C927.3,-424.94 896.15,-504.68 839,-543.65 781.96,-582.54 701.06,-588.67 646,-587.42"/>
<polygon fill="#63b8ff" stroke="#63b8ff" points="943.59,-384.43 943.1,-373.85 936.89,-382.43 943.59,-384.43"/>
</a>
</g>
</g>
<!-- Node21 -->
<g id="Node000021" class="node">
<title>Node21</title>
<g id="a_Node000021"><a xlink:href="class_plugin_1_1_main.html#a77e32ee26efec350dcd99f36a14a929a" target="_top" xlink:title="Displays a message box with the specified text.">
<polygon fill="white" stroke="#666666" points="659.88,-554.27 508.12,-554.27 508.12,-535.02 659.88,-535.02 659.88,-554.27"/>
<text text-anchor="middle" x="584" y="-540.77" font-family="Helvetica,sans-Serif" font-size="10.00">Plugin.Main.ShowMessageBox</text>
</a>
</g>
</g>
<!-- Node1&#45;&gt;Node21 -->
<g id="edge28_Node000001_Node000021" class="edge">
<title>Node1&#45;&gt;Node21</title>
<g id="a_edge28_Node000001_Node000021"><a xlink:title=" ">
<path fill="none" stroke="#63b8ff" d="M937.39,-382.76C921.92,-418.42 888.97,-481.4 839,-511.65 785.36,-544.12 713.76,-550.83 660.25,-550.31"/>
<polygon fill="#63b8ff" stroke="#63b8ff" points="940.59,-384.18 941.22,-373.61 934.13,-381.48 940.59,-384.18"/>
</a>
</g>
</g>
<!-- Node22 -->
<g id="Node000022" class="node">
<title>Node22</title>
<g id="a_Node000022"><a xlink:href="class_plugin_1_1_main.html#a3b39782a6964bd214686773f154a5bb9" target="_top" xlink:title="Asynchronously starts a file specified by the path received from the node and sends a success signal ...">
<polygon fill="white" stroke="#666666" points="822.5,-403.27 715.75,-403.27 715.75,-384.02 822.5,-384.02 822.5,-403.27"/>
<text text-anchor="middle" x="769.12" y="-389.77" font-family="Helvetica,sans-Serif" font-size="10.00">Plugin.Main.StartFile</text>
</a>
</g>
</g>
<!-- Node1&#45;&gt;Node22 -->
<g id="edge31_Node000001_Node000022" class="edge">
<title>Node1&#45;&gt;Node22</title>
<g id="a_edge31_Node000001_Node000022"><a xlink:title=" ">
<path fill="none" stroke="#63b8ff" d="M863.48,-374.19C848.05,-377.41 832.42,-380.66 818.49,-383.57"/>
<polygon fill="#63b8ff" stroke="#63b8ff" points="864.1,-377.63 873.18,-372.17 862.68,-370.78 864.1,-377.63"/>
</a>
</g>
</g>
<!-- Node23 -->
<g id="Node000023" class="node">
<title>Node23</title>
<g id="a_Node000023"><a xlink:href="class_plugin_1_1_main.html#a0e6e68e33adc30ba69d88b3a02dca906" target="_top" xlink:title="Starts a loop to continuously receive and process commands from the specified node.">
<polygon fill="white" stroke="#666666" points="640,-262.27 528,-262.27 528,-243.02 640,-243.02 640,-262.27"/>
<text text-anchor="middle" x="584" y="-248.77" font-family="Helvetica,sans-Serif" font-size="10.00">Plugin.Main.StartLoop</text>
</a>
</g>
</g>
<!-- Node1&#45;&gt;Node23 -->
<g id="edge33_Node000001_Node000023" class="edge">
<title>Node1&#45;&gt;Node23</title>
<g id="a_edge33_Node000001_Node000023"><a xlink:title=" ">
<path fill="none" stroke="#63b8ff" d="M939.63,-330.14C926.15,-290.73 894.74,-218.08 839,-187.65 784.49,-157.88 759.3,-171.76 699.25,-187.65 658.66,-198.39 617.39,-227.27 597.4,-242.66"/>
<polygon fill="#63b8ff" stroke="#63b8ff" points="936.27,-331.13 942.71,-339.55 942.93,-328.96 936.27,-331.13"/>
</a>
</g>
</g>
<!-- Node24 -->
<g id="Node000024" class="node">
<title>Node24</title>
<g id="a_Node000024"><a xlink:href="classxeno__rat__client_1_1_handler.html#a465e861a4d3ea4abcb82e33678598d1f" target="_top" xlink:title="Asynchronously receives heartbeat messages from the specified subServer and sends a heartbeat reply i...">
<polygon fill="white" stroke="#666666" points="644.5,-107.9 523.5,-107.9 523.5,-77.4 644.5,-77.4 644.5,-107.9"/>
<text text-anchor="start" x="531.5" y="-94.4" font-family="Helvetica,sans-Serif" font-size="10.00">xeno_rat_client.Handler.</text>
<text text-anchor="middle" x="584" y="-83.15" font-family="Helvetica,sans-Serif" font-size="10.00">Type1Receive</text>
</a>
</g>
</g>
<!-- Node1&#45;&gt;Node24 -->
<g id="edge36_Node000001_Node000024" class="edge">
<title>Node1&#45;&gt;Node24</title>
<g id="a_edge36_Node000001_Node000024"><a xlink:title=" ">
<path fill="none" stroke="#63b8ff" d="M944.63,-329.98C937.22,-278.03 912.93,-163.77 839,-111.65 782.53,-71.84 700.37,-73.54 644.92,-80.92"/>
<polygon fill="#63b8ff" stroke="#63b8ff" points="941.13,-330.25 945.9,-339.71 948.07,-329.34 941.13,-330.25"/>
</a>
</g>
</g>
<!-- Node2&#45;&gt;Node3 -->
<g id="edge2_Node000002_Node000003" class="edge">
<title>Node2&#45;&gt;Node3</title>
<g id="a_edge2_Node000002_Node000003"><a xlink:title=" ">
<path fill="none" stroke="#63b8ff" d="M492.88,-506.65C477.18,-506.65 461.51,-506.65 447.84,-506.65"/>
<polygon fill="#63b8ff" stroke="#63b8ff" points="492.78,-510.15 502.78,-506.65 492.78,-503.15 492.78,-510.15"/>
</a>
</g>
</g>
<!-- Node4&#45;&gt;Node5 -->
<g id="edge4_Node000004_Node000005" class="edge">
<title>Node4&#45;&gt;Node5</title>
<g id="a_edge4_Node000004_Node000005"><a xlink:title=" ">
<path fill="none" stroke="#63b8ff" d="M700.22,-356.65C688.03,-356.65 675.24,-356.65 662.8,-356.65"/>
<polygon fill="#63b8ff" stroke="#63b8ff" points="700.17,-360.15 710.17,-356.65 700.17,-353.15 700.17,-360.15"/>
</a>
</g>
</g>
<!-- Node5&#45;&gt;Node3 -->
<g id="edge5_Node000005_Node000003" class="edge">
<title>Node5&#45;&gt;Node3</title>
<g id="a_edge5_Node000005_Node000003"><a xlink:title=" ">
<path fill="none" stroke="#63b8ff" d="M562.43,-373.96C524.92,-405.52 446.55,-471.47 416.67,-496.62"/>
<polygon fill="#63b8ff" stroke="#63b8ff" points="564.47,-376.81 569.87,-367.7 559.96,-371.46 564.47,-376.81"/>
</a>
</g>
</g>
<!-- Node6&#45;&gt;Node7 -->
<g id="edge7_Node000006_Node000007" class="edge">
<title>Node6&#45;&gt;Node7</title>
<g id="a_edge7_Node000006_Node000007"><a xlink:title=" ">
<path fill="none" stroke="#63b8ff" d="M691.12,-47.13C675.64,-46.62 659.58,-46.09 644.79,-45.61"/>
<polygon fill="#63b8ff" stroke="#63b8ff" points="690.65,-50.61 700.76,-47.44 690.88,-43.62 690.65,-50.61"/>
</a>
</g>
</g>
<!-- Node8 -->
<g id="Node000008" class="node">
<title>Node8</title>
<g id="a_Node000008"><a xlink:href="classxeno__rat__client_1_1_handler.html#ad71391058f264e78c9c31d0dcbc19007" target="_top" xlink:title="Asynchronously creates a sub socket based on the provided data.">
<polygon fill="white" stroke="#666666" points="464.25,-107.9 343.25,-107.9 343.25,-77.4 464.25,-77.4 464.25,-107.9"/>
<text text-anchor="start" x="351.25" y="-94.4" font-family="Helvetica,sans-Serif" font-size="10.00">xeno_rat_client.Handler.</text>
<text text-anchor="middle" x="403.75" y="-83.15" font-family="Helvetica,sans-Serif" font-size="10.00">CreateSubSock</text>
</a>
</g>
</g>
<!-- Node7&#45;&gt;Node8 -->
<g id="edge8_Node000007_Node000008" class="edge">
<title>Node7&#45;&gt;Node8</title>
<g id="a_edge8_Node000007_Node000008"><a xlink:title=" ">
<path fill="none" stroke="#63b8ff" d="M515.34,-62.25C497.77,-67.08 479,-72.24 462.02,-76.91"/>
<polygon fill="#63b8ff" stroke="#63b8ff" points="515.94,-65.71 524.65,-59.69 514.08,-58.96 515.94,-65.71"/>
</a>
</g>
</g>
<!-- Node8&#45;&gt;Node9 -->
<g id="edge9_Node000008_Node000009" class="edge">
<title>Node8&#45;&gt;Node9</title>
<g id="a_edge9_Node000008_Node000009"><a xlink:title=" ">
<path fill="none" stroke="#63b8ff" d="M347.67,-114.54C344.43,-116.99 341.41,-119.68 338.75,-122.65 267.17,-202.28 248.73,-338.24 244.44,-384.05"/>
<polygon fill="#63b8ff" stroke="#63b8ff" points="349.54,-117.5 356.01,-109.11 345.72,-111.64 349.54,-117.5"/>
</a>
</g>
</g>
<!-- Node10 -->
<g id="Node000010" class="node">
<title>Node10</title>
<g id="a_Node000010"><a xlink:href="classxeno__rat__client_1_1_program.html#a8e01c4689de41166b75a03fda71d12f0" target="_top" xlink:title="Main function for the XenoUpdateManager application.">
<polygon fill="white" stroke="#666666" points="145.75,-409.27 0,-409.27 0,-390.02 145.75,-390.02 145.75,-409.27"/>
<text text-anchor="middle" x="72.88" y="-395.77" font-family="Helvetica,sans-Serif" font-size="10.00">xeno_rat_client.Program.Main</text>
</a>
</g>
</g>
<!-- Node9&#45;&gt;Node10 -->
<g id="edge10_Node000009_Node000010" class="edge">
<title>Node9&#45;&gt;Node10</title>
<g id="a_edge10_Node000009_Node000010"><a xlink:title=" ">
<path fill="none" stroke="#63b8ff" d="M169.86,-399.65C161.95,-399.65 153.9,-399.65 145.99,-399.65"/>
<polygon fill="#63b8ff" stroke="#63b8ff" points="169.78,-403.15 179.78,-399.65 169.78,-396.15 169.78,-403.15"/>
</a>
</g>
</g>
<!-- Node11&#45;&gt;Node5 -->
<g id="edge12_Node000011_Node000005" class="edge">
<title>Node11&#45;&gt;Node5</title>
<g id="a_edge12_Node000011_Node000005"><a xlink:title=" ">
<path fill="none" stroke="#63b8ff" d="M726.61,-294.42C717.54,-297.63 708.02,-301.13 699.25,-304.65 665.87,-318.03 628.06,-335.76 605.39,-346.68"/>
<polygon fill="#63b8ff" stroke="#63b8ff" points="727.66,-297.76 735.96,-291.18 725.36,-291.15 727.66,-297.76"/>
</a>
</g>
</g>
<!-- Node12&#45;&gt;Node5 -->
<g id="edge15_Node000012_Node000005" class="edge">
<title>Node12&#45;&gt;Node5</title>
<g id="a_edge15_Node000012_Node000005"><a xlink:title=" ">
<path fill="none" stroke="#63b8ff" d="M708.08,-257.6C705.05,-258.85 702.08,-260.19 699.25,-261.65 654.74,-284.52 612.08,-327.28 594.03,-346.66"/>
<polygon fill="#63b8ff" stroke="#63b8ff" points="708.99,-261 717.18,-254.29 706.59,-254.42 708.99,-261"/>
</a>
</g>
</g>
<!-- Node13&#45;&gt;Node5 -->
<g id="edge17_Node000013_Node000005" class="edge">
<title>Node13&#45;&gt;Node5</title>
<g id="a_edge17_Node000013_Node000005"><a xlink:title=" ">
<path fill="none" stroke="#63b8ff" d="M713.63,-417.49C708.73,-415.98 703.87,-414.37 699.25,-412.65 663.84,-399.49 624.76,-378.93 602.71,-366.72"/>
<polygon fill="#63b8ff" stroke="#63b8ff" points="712.33,-420.76 722.91,-420.2 714.28,-414.04 712.33,-420.76"/>
</a>
</g>
</g>
<!-- Node14&#45;&gt;Node15 -->
<g id="edge19_Node000014_Node000015" class="edge">
<title>Node14&#45;&gt;Node15</title>
<g id="a_edge19_Node000014_Node000015"><a xlink:title=" ">
<path fill="none" stroke="#63b8ff" d="M688.32,-625.65C676.36,-625.65 664.12,-625.65 652.45,-625.65"/>
<polygon fill="#63b8ff" stroke="#63b8ff" points="688.16,-629.15 698.16,-625.65 688.16,-622.15 688.16,-629.15"/>
</a>
</g>
</g>
<!-- Node15&#45;&gt;Node3 -->
<g id="edge20_Node000015_Node000003" class="edge">
<title>Node15&#45;&gt;Node3</title>
<g id="a_edge20_Node000015_Node000003"><a xlink:title=" ">
<path fill="none" stroke="#63b8ff" d="M526.82,-611.9C519.16,-609.04 511.59,-605.64 504.75,-601.65 464.64,-578.22 427.89,-535.74 412.45,-516.54"/>
<polygon fill="#63b8ff" stroke="#63b8ff" points="525.61,-615.19 536.2,-615.11 527.88,-608.56 525.61,-615.19"/>
</a>
</g>
</g>
<!-- Node17 -->
<g id="Node000017" class="node">
<title>Node17</title>
<g id="a_Node000017"><a xlink:href="class_chat_1_1_chat_form.html#a9926347bab99ceaacd2173799af2e901" target="_top" xlink:title="Initializes the asynchronous operations by calling the Heartbeat method and awaiting the RecvThread m...">
<polygon fill="white" stroke="#666666" points="645.25,-156.9 522.75,-156.9 522.75,-126.4 645.25,-126.4 645.25,-156.9"/>
<text text-anchor="start" x="530.75" y="-143.4" font-family="Helvetica,sans-Serif" font-size="10.00">Chat.ChatForm.Initialize</text>
<text text-anchor="middle" x="584" y="-132.15" font-family="Helvetica,sans-Serif" font-size="10.00">Async</text>
</a>
</g>
</g>
<!-- Node16&#45;&gt;Node17 -->
<g id="edge22_Node000016_Node000017" class="edge">
<title>Node16&#45;&gt;Node17</title>
<g id="a_edge22_Node000016_Node000017"><a xlink:title=" ">
<path fill="none" stroke="#63b8ff" d="M687.68,-135.48C673.56,-136.33 659.09,-137.2 645.63,-138.01"/>
<polygon fill="#63b8ff" stroke="#63b8ff" points="687.61,-138.99 697.38,-134.9 687.19,-132 687.61,-138.99"/>
</a>
</g>
</g>
<!-- Node18 -->
<g id="Node000018" class="node">
<title>Node18</title>
<g id="a_Node000018"><a xlink:href="class_chat_1_1_chat_form.html#a2410965bff10ab9e4b1dce9d09a5104e" target="_top" xlink:title=" ">
<polygon fill="white" stroke="#666666" points="468.75,-151.27 338.75,-151.27 338.75,-132.02 468.75,-132.02 468.75,-151.27"/>
<text text-anchor="middle" x="403.75" y="-137.77" font-family="Helvetica,sans-Serif" font-size="10.00">Chat.ChatForm.ChatForm</text>
</a>
</g>
</g>
<!-- Node17&#45;&gt;Node18 -->
<g id="edge23_Node000017_Node000018" class="edge">
<title>Node17&#45;&gt;Node18</title>
<g id="a_edge23_Node000017_Node000018"><a xlink:title=" ">
<path fill="none" stroke="#63b8ff" d="M511.54,-141.65C497.48,-141.65 482.81,-141.65 469,-141.65"/>
<polygon fill="#63b8ff" stroke="#63b8ff" points="511.14,-145.15 521.14,-141.65 511.14,-138.15 511.14,-145.15"/>
</a>
</g>
</g>
<!-- Node20&#45;&gt;Node3 -->
<g id="edge26_Node000020_Node000003" class="edge">
<title>Node20&#45;&gt;Node3</title>
<g id="a_edge26_Node000020_Node000003"><a xlink:title=" ">
<path fill="none" stroke="#63b8ff" d="M521.33,-569.41C515.66,-567.67 510.05,-565.76 504.75,-563.65 472.62,-550.89 438.25,-529.34 419.34,-516.71"/>
<polygon fill="#63b8ff" stroke="#63b8ff" points="520.23,-572.74 530.8,-572.11 522.15,-566 520.23,-572.74"/>
</a>
</g>
</g>
<!-- Node21&#45;&gt;Node3 -->
<g id="edge29_Node000021_Node000003" class="edge">
<title>Node21&#45;&gt;Node3</title>
<g id="a_edge29_Node000021_Node000003"><a xlink:title=" ">
<path fill="none" stroke="#63b8ff" d="M524.53,-532.18C499.58,-526.86 470.99,-520.77 447.99,-515.87"/>
<polygon fill="#63b8ff" stroke="#63b8ff" points="523.71,-535.59 534.22,-534.25 525.17,-528.74 523.71,-535.59"/>
</a>
</g>
</g>
<!-- Node22&#45;&gt;Node5 -->
<g id="edge32_Node000022_Node000005" class="edge">
<title>Node22&#45;&gt;Node5</title>
<g id="a_edge32_Node000022_Node000005"><a xlink:title=" ">
<path fill="none" stroke="#63b8ff" d="M706.88,-381.27C683.52,-376.55 657.18,-371.23 634.98,-366.75"/>
<polygon fill="#63b8ff" stroke="#63b8ff" points="706.11,-384.69 716.6,-383.24 707.49,-377.83 706.11,-384.69"/>
</a>
</g>
</g>
<!-- Node23&#45;&gt;Node3 -->
<g id="edge34_Node000023_Node000003" class="edge">
<title>Node23&#45;&gt;Node3</title>
<g id="a_edge34_Node000023_Node000003"><a xlink:title=" ">
<path fill="none" stroke="#63b8ff" d="M564.45,-270.53C547.79,-287.09 523.19,-312.84 504.75,-337.65 462.65,-394.29 423.25,-469.83 409.71,-496.67"/>
<polygon fill="#63b8ff" stroke="#63b8ff" points="566.6,-273.32 571.28,-263.82 561.7,-268.33 566.6,-273.32"/>
</a>
</g>
</g>
<!-- Node24&#45;&gt;Node8 -->
<g id="edge37_Node000024_Node000008" class="edge">
<title>Node24&#45;&gt;Node8</title>
<g id="a_edge37_Node000024_Node000008"><a xlink:title=" ">
<path fill="none" stroke="#63b8ff" d="M511.93,-92.65C496.3,-92.65 479.89,-92.65 464.75,-92.65"/>
<polygon fill="#63b8ff" stroke="#63b8ff" points="511.64,-96.15 521.64,-92.65 511.64,-89.15 511.64,-96.15"/>
</a>
</g>
</g>
</g>
</svg>

<g id="navigator" transform="translate(0 0)" fill="#404254">
  <rect fill="#f2f5e9" fill-opacity="0.5" stroke="#606060" stroke-width=".5" x="0" y="0" width="60" height="60"/>
  <use id="zoomplus" xlink:href="#zoomPlus" x="17" y="9" onmousedown="handleZoom(evt,'in')"/>
  <use id="zoomminus" xlink:href="#zoomMin" x="42" y="9" onmousedown="handleZoom(evt,'out')"/>
  <use id="reset" xlink:href="#resetDef" x="30" y="36" onmousedown="handleReset()"/>
   <use id="arrowup" xlink:href="#arrowUp" x="0" y="0" onmousedown="handlePan(0,-1)"/>
  <use id="arrowright" xlink:href="#arrowRight" x="0" y="0" onmousedown="handlePan(1,0)"/>
  <use id="arrowdown" xlink:href="#arrowDown" x="0" y="0" onmousedown="handlePan(0,1)"/>
  <use id="arrowleft" xlink:href="#arrowLeft" x="0" y="0" onmousedown="handlePan(-1,0)"/>
</g>
<svg viewBox="0 0 15 15" width="100%" height="30px" preserveAspectRatio="xMaxYMin meet">
 <g id="arrow_out" transform="scale(0.3 0.3)">
  <a xlink:href="classxeno__rat__client_1_1_node_a5e2f1397fe3500c1f49ae17e4b91cde4_icgraph_org.svg" target="_base">
   <rect id="button" ry="5" rx="5" y="6" x="6" height="38" width="38"
        fill="#f2f5e9" fill-opacity="0.5" stroke="#606060" stroke-width="1.0"/>
   <path id="arrow"
     d="M 11.500037,31.436501 C 11.940474,20.09759 22.043105,11.32322 32.158766,21.979434 L 37.068811,17.246167 C 37.068811,17.246167 37.088388,32 37.088388,32 L 22.160133,31.978069 C 22.160133,31.978069 26.997745,27.140456 26.997745,27.140456 C 18.528582,18.264221 13.291696,25.230495 11.500037,31.436501 z"
     style="fill:#404040;"/>
  </a>
 </g>
</svg>

<style type='text/css'>
<![CDATA[
[data-mouse-over-selected='false'] { opacity: 0.7; }
[data-mouse-over-selected='true']  { opacity: 1.0; }
]]>
</style>
<script type="application/ecmascript"><![CDATA[
document.addEventListener('DOMContentLoaded', (event) => {
  highlightEdges();
  highlightAdjacentNodes();
});
]]></script>
</svg>
