<?xml version="1.0" encoding="UTF-8" standalone="no"?>
<!DOCTYPE svg PUBLIC "-//W3C//DTD SVG 1.1//EN"
 "http://www.w3.org/Graphics/SVG/1.1/DTD/svg11.dtd">
<!-- Generated by graphviz version 10.0.1 (20240210.2158)
 -->
<!-- Title: NAudio.Dmo.DmoEnumerator.GetAudioEffectNames Pages: 1 -->
<svg width="374pt" height="431pt"
 viewBox="0.00 0.00 373.75 430.50" xmlns="http://www.w3.org/2000/svg" xmlns:xlink="http://www.w3.org/1999/xlink">

<svg id="main" version="1.1" xmlns="http://www.w3.org/2000/svg" xmlns:xlink="http://www.w3.org/1999/xlink" xml:space="preserve" onload="init(evt)">
<style type="text/css"><![CDATA[
.node, .edge {opacity: 0.7;}
.node.selected, .edge.selected {opacity: 1;}
.edge:hover path { stroke: red; }
.edge:hover polygon { stroke: red; fill: red; }
]]></style>
<script type="application/ecmascript" xlink:href="svg.min.js"/>
<svg id="graph" class="graph">
<g id="graph0" class="graph" transform="scale(1 1) rotate(0) translate(4 426.5)">
<title>NAudio.Dmo.DmoEnumerator.GetAudioEffectNames</title>
<!-- Node1 -->
<g id="Node000001" class="node">
<title>Node1</title>
<g id="a_Node000001"><a xlink:title="Retrieves the names of audio effects available and returns them as an enumerable collection of DmoDes...">
<polygon fill="#999999" stroke="#666666" points="365.75,-226.5 217,-226.5 217,-196 365.75,-196 365.75,-226.5"/>
<text text-anchor="start" x="225" y="-213" font-family="Helvetica,sans-Serif" font-size="10.00">NAudio.Dmo.DmoEnumerator.</text>
<text text-anchor="middle" x="291.38" y="-201.75" font-family="Helvetica,sans-Serif" font-size="10.00">GetAudioEffectNames</text>
</a>
</g>
</g>
<!-- Node2 -->
<g id="Node000002" class="node">
<title>Node2</title>
<g id="a_Node000002"><a xlink:href="class_n_audio_1_1_dmo_1_1_effect_1_1_dmo_chorus.html#ada86ca690a7767be764e11b7eee6fa32" target="_top" xlink:title="Create new DMO Chorus.">
<polygon fill="white" stroke="#666666" points="170.5,-422.5 10.5,-422.5 10.5,-392 170.5,-392 170.5,-422.5"/>
<text text-anchor="start" x="18.5" y="-409" font-family="Helvetica,sans-Serif" font-size="10.00">NAudio.Dmo.Effect.DmoChorus.</text>
<text text-anchor="middle" x="90.5" y="-397.75" font-family="Helvetica,sans-Serif" font-size="10.00">DmoChorus</text>
</a>
</g>
</g>
<!-- Node1&#45;&gt;Node2 -->
<g id="edge1_Node000001_Node000002" class="edge">
<title>Node1&#45;&gt;Node2</title>
<g id="a_edge1_Node000001_Node000002"><a xlink:title=" ">
<path fill="none" stroke="#63b8ff" d="M280.63,-237.61C265.31,-275.39 231.96,-344.54 181,-382.25 176.07,-385.9 170.64,-389.01 164.95,-391.67"/>
<polygon fill="#63b8ff" stroke="#63b8ff" points="283.86,-238.95 284.26,-228.37 277.35,-236.4 283.86,-238.95"/>
</a>
</g>
</g>
<!-- Node3 -->
<g id="Node000003" class="node">
<title>Node3</title>
<g id="a_Node000003"><a xlink:href="class_n_audio_1_1_dmo_1_1_effect_1_1_dmo_compressor.html#a9af41e6ab5d6c2ed937c67af1aaec3f1" target="_top" xlink:title="Create new DMO Compressor.">
<polygon fill="white" stroke="#666666" points="181,-373.5 0,-373.5 0,-343 181,-343 181,-373.5"/>
<text text-anchor="start" x="8" y="-360" font-family="Helvetica,sans-Serif" font-size="10.00">NAudio.Dmo.Effect.DmoCompressor.</text>
<text text-anchor="middle" x="90.5" y="-348.75" font-family="Helvetica,sans-Serif" font-size="10.00">DmoCompressor</text>
</a>
</g>
</g>
<!-- Node1&#45;&gt;Node3 -->
<g id="edge2_Node000001_Node000003" class="edge">
<title>Node1&#45;&gt;Node3</title>
<g id="a_edge2_Node000001_Node000003"><a xlink:title=" ">
<path fill="none" stroke="#63b8ff" d="M274.38,-236.37C255.41,-264.14 221.24,-308.24 181,-333.25 175.25,-336.83 168.97,-339.9 162.5,-342.55"/>
<polygon fill="#63b8ff" stroke="#63b8ff" points="277.19,-238.46 279.83,-228.2 271.37,-234.58 277.19,-238.46"/>
</a>
</g>
</g>
<!-- Node4 -->
<g id="Node000004" class="node">
<title>Node4</title>
<g id="a_Node000004"><a xlink:href="class_n_audio_1_1_dmo_1_1_effect_1_1_dmo_distortion.html#a67693f1bcc493d99a012ca2ad7ab116b" target="_top" xlink:title="Create new DMO Distortion.">
<polygon fill="white" stroke="#666666" points="175.75,-324.5 5.25,-324.5 5.25,-294 175.75,-294 175.75,-324.5"/>
<text text-anchor="start" x="13.25" y="-311" font-family="Helvetica,sans-Serif" font-size="10.00">NAudio.Dmo.Effect.DmoDistortion.</text>
<text text-anchor="middle" x="90.5" y="-299.75" font-family="Helvetica,sans-Serif" font-size="10.00">DmoDistortion</text>
</a>
</g>
</g>
<!-- Node1&#45;&gt;Node4 -->
<g id="edge3_Node000001_Node000004" class="edge">
<title>Node1&#45;&gt;Node4</title>
<g id="a_edge3_Node000001_Node000004"><a xlink:title=" ">
<path fill="none" stroke="#63b8ff" d="M262.25,-233.66C240.98,-249.68 210.51,-270.7 181,-284.25 173.38,-287.75 165.16,-290.86 156.9,-293.59"/>
<polygon fill="#63b8ff" stroke="#63b8ff" points="264.32,-236.48 270.13,-227.62 260.07,-230.93 264.32,-236.48"/>
</a>
</g>
</g>
<!-- Node5 -->
<g id="Node000005" class="node">
<title>Node5</title>
<g id="a_Node000005"><a xlink:href="class_n_audio_1_1_dmo_1_1_effect_1_1_dmo_echo.html#ab29a7b3a25ca4cc986aa79aa4b61ad71" target="_top" xlink:title="Create new DMO Echo.">
<polygon fill="white" stroke="#666666" points="166,-275.5 15,-275.5 15,-245 166,-245 166,-275.5"/>
<text text-anchor="start" x="23" y="-262" font-family="Helvetica,sans-Serif" font-size="10.00">NAudio.Dmo.Effect.DmoEcho.</text>
<text text-anchor="middle" x="90.5" y="-250.75" font-family="Helvetica,sans-Serif" font-size="10.00">DmoEcho</text>
</a>
</g>
</g>
<!-- Node1&#45;&gt;Node5 -->
<g id="edge4_Node000001_Node000005" class="edge">
<title>Node1&#45;&gt;Node5</title>
<g id="a_edge4_Node000001_Node000005"><a xlink:title=" ">
<path fill="none" stroke="#63b8ff" d="M215.46,-229.71C195.62,-234.6 174.4,-239.82 155.23,-244.55"/>
<polygon fill="#63b8ff" stroke="#63b8ff" points="216.29,-233.11 225.16,-227.32 214.61,-226.31 216.29,-233.11"/>
</a>
</g>
</g>
<!-- Node6 -->
<g id="Node000006" class="node">
<title>Node6</title>
<g id="a_Node000006"><a xlink:href="class_n_audio_1_1_dmo_1_1_effect_1_1_dmo_flanger.html#a550f5c8559d6333de8cec0755ecc691f" target="_top" xlink:title="Create new DMO Flanger.">
<polygon fill="white" stroke="#666666" points="170.5,-226.5 10.5,-226.5 10.5,-196 170.5,-196 170.5,-226.5"/>
<text text-anchor="start" x="18.5" y="-213" font-family="Helvetica,sans-Serif" font-size="10.00">NAudio.Dmo.Effect.DmoFlanger.</text>
<text text-anchor="middle" x="90.5" y="-201.75" font-family="Helvetica,sans-Serif" font-size="10.00">DmoFlanger</text>
</a>
</g>
</g>
<!-- Node1&#45;&gt;Node6 -->
<g id="edge5_Node000001_Node000006" class="edge">
<title>Node1&#45;&gt;Node6</title>
<g id="a_edge5_Node000001_Node000006"><a xlink:title=" ">
<path fill="none" stroke="#63b8ff" d="M205.28,-211.25C193.85,-211.25 182.15,-211.25 170.82,-211.25"/>
<polygon fill="#63b8ff" stroke="#63b8ff" points="205.09,-214.75 215.09,-211.25 205.09,-207.75 205.09,-214.75"/>
</a>
</g>
</g>
<!-- Node7 -->
<g id="Node000007" class="node">
<title>Node7</title>
<g id="a_Node000007"><a xlink:href="class_n_audio_1_1_dmo_1_1_effect_1_1_dmo_gargle.html#ad911aa679e363874d59ffa7136eb9acc" target="_top" xlink:title="Create new DMO Gargle.">
<polygon fill="white" stroke="#666666" points="169,-177.5 12,-177.5 12,-147 169,-147 169,-177.5"/>
<text text-anchor="start" x="20" y="-164" font-family="Helvetica,sans-Serif" font-size="10.00">NAudio.Dmo.Effect.DmoGargle.</text>
<text text-anchor="middle" x="90.5" y="-152.75" font-family="Helvetica,sans-Serif" font-size="10.00">DmoGargle</text>
</a>
</g>
</g>
<!-- Node1&#45;&gt;Node7 -->
<g id="edge6_Node000001_Node000007" class="edge">
<title>Node1&#45;&gt;Node7</title>
<g id="a_edge6_Node000001_Node000007"><a xlink:title=" ">
<path fill="none" stroke="#63b8ff" d="M215.46,-192.79C195.62,-187.9 174.4,-182.68 155.23,-177.95"/>
<polygon fill="#63b8ff" stroke="#63b8ff" points="214.61,-196.19 225.16,-195.18 216.29,-189.39 214.61,-196.19"/>
</a>
</g>
</g>
<!-- Node8 -->
<g id="Node000008" class="node">
<title>Node8</title>
<g id="a_Node000008"><a xlink:href="class_n_audio_1_1_dmo_1_1_effect_1_1_dmo_i3_d_l2_reverb.html#ab52a4d5893bbe7ad1077b671cf9b49b6" target="_top" xlink:title="Create new DMO I3DL2Reverb.">
<polygon fill="white" stroke="#666666" points="166.38,-128.5 14.62,-128.5 14.62,-98 166.38,-98 166.38,-128.5"/>
<text text-anchor="start" x="22.62" y="-115" font-family="Helvetica,sans-Serif" font-size="10.00">NAudio.Dmo.Effect.DmoI3DL2</text>
<text text-anchor="middle" x="90.5" y="-103.75" font-family="Helvetica,sans-Serif" font-size="10.00">Reverb.DmoI3DL2Reverb</text>
</a>
</g>
</g>
<!-- Node1&#45;&gt;Node8 -->
<g id="edge7_Node000001_Node000008" class="edge">
<title>Node1&#45;&gt;Node8</title>
<g id="a_edge7_Node000001_Node000008"><a xlink:title=" ">
<path fill="none" stroke="#63b8ff" d="M262.25,-188.84C240.98,-172.82 210.51,-151.8 181,-138.25 173.38,-134.75 165.16,-131.64 156.9,-128.91"/>
<polygon fill="#63b8ff" stroke="#63b8ff" points="260.07,-191.57 270.13,-194.88 264.32,-186.02 260.07,-191.57"/>
</a>
</g>
</g>
<!-- Node9 -->
<g id="Node000009" class="node">
<title>Node9</title>
<g id="a_Node000009"><a xlink:href="class_n_audio_1_1_dmo_1_1_effect_1_1_dmo_param_eq.html#ae1f5dfc11208514813df4d866e5d52eb" target="_top" xlink:title="Create new DMO ParamEq.">
<polygon fill="white" stroke="#666666" points="167.5,-79.5 13.5,-79.5 13.5,-49 167.5,-49 167.5,-79.5"/>
<text text-anchor="start" x="21.5" y="-66" font-family="Helvetica,sans-Serif" font-size="10.00">NAudio.Dmo.Effect.DmoParam</text>
<text text-anchor="middle" x="90.5" y="-54.75" font-family="Helvetica,sans-Serif" font-size="10.00">Eq.DmoParamEq</text>
</a>
</g>
</g>
<!-- Node1&#45;&gt;Node9 -->
<g id="edge8_Node000001_Node000009" class="edge">
<title>Node1&#45;&gt;Node9</title>
<g id="a_edge8_Node000001_Node000009"><a xlink:title=" ">
<path fill="none" stroke="#63b8ff" d="M274.38,-186.13C255.41,-158.36 221.24,-114.26 181,-89.25 175.25,-85.67 168.97,-82.6 162.5,-79.95"/>
<polygon fill="#63b8ff" stroke="#63b8ff" points="271.37,-187.92 279.83,-194.3 277.19,-184.04 271.37,-187.92"/>
</a>
</g>
</g>
<!-- Node10 -->
<g id="Node000010" class="node">
<title>Node10</title>
<g id="a_Node000010"><a xlink:href="class_n_audio_1_1_dmo_1_1_effect_1_1_dmo_waves_reverb.html#aaed8ce2b0ecd54a946914d92668ce965" target="_top" xlink:title="Create new DMO WavesReverb.">
<polygon fill="white" stroke="#666666" points="168.25,-30.5 12.75,-30.5 12.75,0 168.25,0 168.25,-30.5"/>
<text text-anchor="start" x="20.75" y="-17" font-family="Helvetica,sans-Serif" font-size="10.00">NAudio.Dmo.Effect.DmoWaves</text>
<text text-anchor="middle" x="90.5" y="-5.75" font-family="Helvetica,sans-Serif" font-size="10.00">Reverb.DmoWavesReverb</text>
</a>
</g>
</g>
<!-- Node1&#45;&gt;Node10 -->
<g id="edge9_Node000001_Node000010" class="edge">
<title>Node1&#45;&gt;Node10</title>
<g id="a_edge9_Node000001_Node000010"><a xlink:title=" ">
<path fill="none" stroke="#63b8ff" d="M280.63,-184.89C265.31,-147.11 231.96,-77.96 181,-40.25 176.07,-36.6 170.64,-33.49 164.95,-30.83"/>
<polygon fill="#63b8ff" stroke="#63b8ff" points="277.35,-186.1 284.26,-194.13 283.86,-183.55 277.35,-186.1"/>
</a>
</g>
</g>
</g>
</svg>
</svg>

<style type='text/css'>
<![CDATA[
[data-mouse-over-selected='false'] { opacity: 0.7; }
[data-mouse-over-selected='true']  { opacity: 1.0; }
]]>
</style>
<script type="application/ecmascript"><![CDATA[
document.addEventListener('DOMContentLoaded', (event) => {
  highlightEdges();
  highlightAdjacentNodes();
});
]]></script>
</svg>
