<?xml version="1.0" encoding="UTF-8" standalone="no"?>
<!DOCTYPE svg PUBLIC "-//W3C//DTD SVG 1.1//EN"
 "http://www.w3.org/Graphics/SVG/1.1/DTD/svg11.dtd">
<!-- Generated by graphviz version 10.0.1 (20240210.2158)
 -->
<!-- Title: xeno_rat_server.Forms.CustomPictureBox Pages: 1 -->
<svg width="1144pt" height="1036pt"
 viewBox="0.00 0.00 1143.50 1035.50" xmlns="http://www.w3.org/2000/svg" xmlns:xlink="http://www.w3.org/1999/xlink">
<g id="graph0" class="graph" transform="scale(1 1) rotate(0) translate(4 1031.5)">
<title>xeno_rat_server.Forms.CustomPictureBox</title>
<!-- Node1 -->
<g id="Node000001" class="node">
<title>Node1</title>
<g id="a_Node000001"><a xlink:title=" ">
<polygon fill="#999999" stroke="none" points="675,-285 528,-285 528,0 675,0 675,-285"/>
<text text-anchor="start" x="532.88" y="-271.5" font-family="Helvetica,sans-Serif" font-size="10.00">xeno_rat_server.Forms.Custom</text>
<text text-anchor="start" x="577.5" y="-260.25" font-family="Helvetica,sans-Serif" font-size="10.00">PictureBox</text>
<text text-anchor="start" x="600" y="-245.5" font-family="Helvetica,sans-Serif" font-size="10.00"> </text>
<text text-anchor="start" x="532.5" y="-230.5" font-family="Helvetica,sans-Serif" font-size="10.00">+</text>
<text text-anchor="start" x="543" y="-230.5" font-family="Helvetica,sans-Serif" font-size="10.00">CustomPictureBox()</text>
<text text-anchor="start" x="532.5" y="-215.5" font-family="Helvetica,sans-Serif" font-size="10.00">+</text>
<text text-anchor="start" x="543" y="-215.5" font-family="Helvetica,sans-Serif" font-size="10.00">GetKeyState()</text>
<text text-anchor="start" x="532.5" y="-200.5" font-family="Helvetica,sans-Serif" font-size="10.00">+</text>
<text text-anchor="start" x="543" y="-200.5" font-family="Helvetica,sans-Serif" font-size="10.00">IsClipboardFormatAvailable()</text>
<text text-anchor="start" x="532.5" y="-185.5" font-family="Helvetica,sans-Serif" font-size="10.00">+</text>
<text text-anchor="start" x="543" y="-185.5" font-family="Helvetica,sans-Serif" font-size="10.00">OpenClipboard()</text>
<text text-anchor="start" x="532.5" y="-170.5" font-family="Helvetica,sans-Serif" font-size="10.00">+</text>
<text text-anchor="start" x="543" y="-170.5" font-family="Helvetica,sans-Serif" font-size="10.00">GetClipboardData()</text>
<text text-anchor="start" x="532.5" y="-155.5" font-family="Helvetica,sans-Serif" font-size="10.00">+</text>
<text text-anchor="start" x="543" y="-155.5" font-family="Helvetica,sans-Serif" font-size="10.00">CloseClipboard()</text>
<text text-anchor="start" x="532.5" y="-140.5" font-family="Helvetica,sans-Serif" font-size="10.00">+</text>
<text text-anchor="start" x="543" y="-140.5" font-family="Helvetica,sans-Serif" font-size="10.00">ToAscii()</text>
<text text-anchor="start" x="532.5" y="-125.5" font-family="Helvetica,sans-Serif" font-size="10.00">+</text>
<text text-anchor="start" x="543" y="-125.5" font-family="Helvetica,sans-Serif" font-size="10.00">TranslateCoordinates()</text>
<text text-anchor="start" x="532.5" y="-110.5" font-family="Helvetica,sans-Serif" font-size="10.00">+</text>
<text text-anchor="start" x="543" y="-110.5" font-family="Helvetica,sans-Serif" font-size="10.00">TriggerWndProc()</text>
<text text-anchor="start" x="532.5" y="-95.5" font-family="Helvetica,sans-Serif" font-size="10.00">+</text>
<text text-anchor="start" x="543" y="-95.5" font-family="Helvetica,sans-Serif" font-size="10.00">GetClipboardFormat()</text>
<text text-anchor="start" x="532.5" y="-80.5" font-family="Helvetica,sans-Serif" font-size="10.00">+</text>
<text text-anchor="start" x="543" y="-80.5" font-family="Helvetica,sans-Serif" font-size="10.00">GetModifiedKey()</text>
<text text-anchor="start" x="532.5" y="-65.5" font-family="Helvetica,sans-Serif" font-size="10.00">+</text>
<text text-anchor="start" x="543" y="-65.5" font-family="Helvetica,sans-Serif" font-size="10.00">IsAlphaNumeric()</text>
<text text-anchor="start" x="532.88" y="-50.5" font-family="Helvetica,sans-Serif" font-size="10.00">#</text>
<text text-anchor="start" x="543" y="-50.5" font-family="Helvetica,sans-Serif" font-size="10.00">WndProc()</text>
<text text-anchor="start" x="534" y="-35.5" font-family="Helvetica,sans-Serif" font-size="10.00">&#45;</text>
<text text-anchor="start" x="543" y="-35.5" font-family="Helvetica,sans-Serif" font-size="10.00">VkKeyScan()</text>
<text text-anchor="start" x="534" y="-20.5" font-family="Helvetica,sans-Serif" font-size="10.00">&#45;</text>
<text text-anchor="start" x="543" y="-20.5" font-family="Helvetica,sans-Serif" font-size="10.00">UnzoomedAndAdjusted()</text>
<text text-anchor="start" x="534" y="-5.5" font-family="Helvetica,sans-Serif" font-size="10.00">&#45;</text>
<text text-anchor="start" x="543" y="-5.5" font-family="Helvetica,sans-Serif" font-size="10.00">GetImageDisplayRectangle()</text>
<polygon fill="#666666" stroke="#666666" points="528,-257 528,-257 675,-257 675,-257 528,-257"/>
<polygon fill="#666666" stroke="#666666" points="528,-242 528,-242 675,-242 675,-242 528,-242"/>
<polygon fill="none" stroke="#666666" points="528,0 528,-285 675,-285 675,0 528,0"/>
</a>
</g>
</g>
<!-- Node2 -->
<g id="Node000002" class="node">
<title>Node2</title>
<g id="a_Node000002"><a xlink:href="class_picture_box.html" target="_top" xlink:title=" ">
<polygon fill="white" stroke="none" points="509.5,-542.5 451.5,-542.5 451.5,-493.5 509.5,-493.5 509.5,-542.5"/>
<text text-anchor="start" x="456.5" y="-529" font-family="Helvetica,sans-Serif" font-size="10.00">PictureBox</text>
<text text-anchor="start" x="479" y="-514" font-family="Helvetica,sans-Serif" font-size="10.00"> </text>
<text text-anchor="start" x="479" y="-499" font-family="Helvetica,sans-Serif" font-size="10.00"> </text>
<polygon fill="#666666" stroke="#666666" points="451.5,-525.5 451.5,-525.5 509.5,-525.5 509.5,-525.5 451.5,-525.5"/>
<polygon fill="#666666" stroke="#666666" points="451.5,-510.5 451.5,-510.5 509.5,-510.5 509.5,-510.5 451.5,-510.5"/>
<polygon fill="none" stroke="#666666" points="451.5,-493.5 451.5,-542.5 509.5,-542.5 509.5,-493.5 451.5,-493.5"/>
</a>
</g>
</g>
<!-- Node2&#45;&gt;Node1 -->
<g id="edge1_Node000001_Node000002" class="edge">
<title>Node2&#45;&gt;Node1</title>
<g id="a_edge1_Node000001_Node000002"><a xlink:title=" ">
<path fill="none" stroke="#63b8ff" d="M487.98,-482.76C494.98,-451.96 506.17,-405.59 518.5,-366 526.74,-339.53 536.38,-311.61 546.11,-284.83"/>
<polygon fill="none" stroke="#63b8ff" points="484.62,-481.75 485.84,-492.28 491.45,-483.29 484.62,-481.75"/>
</a>
</g>
</g>
<!-- Node3 -->
<g id="Node000003" class="node">
<title>Node3</title>
<g id="a_Node000003"><a xlink:href="classxeno__rat__server_1_1_node.html" target="_top" xlink:title=" ">
<polygon fill="white" stroke="none" points="675,-670 528,-670 528,-366 675,-366 675,-670"/>
<text text-anchor="start" x="553.88" y="-656.5" font-family="Helvetica,sans-Serif" font-size="10.00">xeno_rat_server.Node</text>
<text text-anchor="start" x="600" y="-641.5" font-family="Helvetica,sans-Serif" font-size="10.00"> </text>
<text text-anchor="start" x="532" y="-626.5" font-family="Helvetica,sans-Serif" font-size="10.00">+</text>
<text text-anchor="start" x="542" y="-626.5" font-family="Helvetica,sans-Serif" font-size="10.00">Node()</text>
<text text-anchor="start" x="532" y="-611.5" font-family="Helvetica,sans-Serif" font-size="10.00">+</text>
<text text-anchor="start" x="542" y="-611.5" font-family="Helvetica,sans-Serif" font-size="10.00">SetID()</text>
<text text-anchor="start" x="532" y="-596.5" font-family="Helvetica,sans-Serif" font-size="10.00">+</text>
<text text-anchor="start" x="542" y="-596.5" font-family="Helvetica,sans-Serif" font-size="10.00">Disconnect()</text>
<text text-anchor="start" x="532" y="-581.5" font-family="Helvetica,sans-Serif" font-size="10.00">+</text>
<text text-anchor="start" x="542" y="-581.5" font-family="Helvetica,sans-Serif" font-size="10.00">SetRecvTimeout()</text>
<text text-anchor="start" x="532" y="-566.5" font-family="Helvetica,sans-Serif" font-size="10.00">+</text>
<text text-anchor="start" x="542" y="-566.5" font-family="Helvetica,sans-Serif" font-size="10.00">ResetRecvTimeout()</text>
<text text-anchor="start" x="532" y="-551.5" font-family="Helvetica,sans-Serif" font-size="10.00">+</text>
<text text-anchor="start" x="542" y="-551.5" font-family="Helvetica,sans-Serif" font-size="10.00">Connected()</text>
<text text-anchor="start" x="532" y="-536.5" font-family="Helvetica,sans-Serif" font-size="10.00">+</text>
<text text-anchor="start" x="542" y="-536.5" font-family="Helvetica,sans-Serif" font-size="10.00">ReceiveAsync()</text>
<text text-anchor="start" x="532" y="-521.5" font-family="Helvetica,sans-Serif" font-size="10.00">+</text>
<text text-anchor="start" x="542" y="-521.5" font-family="Helvetica,sans-Serif" font-size="10.00">SendAsync()</text>
<text text-anchor="start" x="532" y="-506.5" font-family="Helvetica,sans-Serif" font-size="10.00">+</text>
<text text-anchor="start" x="542" y="-506.5" font-family="Helvetica,sans-Serif" font-size="10.00">GetIp()</text>
<text text-anchor="start" x="532" y="-491.5" font-family="Helvetica,sans-Serif" font-size="10.00">+</text>
<text text-anchor="start" x="542" y="-491.5" font-family="Helvetica,sans-Serif" font-size="10.00">CreateSubNodeAsync()</text>
<text text-anchor="start" x="532" y="-476.5" font-family="Helvetica,sans-Serif" font-size="10.00">+</text>
<text text-anchor="start" x="542" y="-476.5" font-family="Helvetica,sans-Serif" font-size="10.00">AddTempOnDisconnect()</text>
<text text-anchor="start" x="532" y="-461.5" font-family="Helvetica,sans-Serif" font-size="10.00">+</text>
<text text-anchor="start" x="542" y="-461.5" font-family="Helvetica,sans-Serif" font-size="10.00">RemoveTempOnDisconnect()</text>
<text text-anchor="start" x="532" y="-446.5" font-family="Helvetica,sans-Serif" font-size="10.00">+</text>
<text text-anchor="start" x="542" y="-446.5" font-family="Helvetica,sans-Serif" font-size="10.00">AddSubNode()</text>
<text text-anchor="start" x="532" y="-431.5" font-family="Helvetica,sans-Serif" font-size="10.00">+</text>
<text text-anchor="start" x="542" y="-431.5" font-family="Helvetica,sans-Serif" font-size="10.00">AuthenticateAsync()</text>
<text text-anchor="start" x="533.5" y="-416.5" font-family="Helvetica,sans-Serif" font-size="10.00">&#45;</text>
<text text-anchor="start" x="542" y="-416.5" font-family="Helvetica,sans-Serif" font-size="10.00">memcmp()</text>
<text text-anchor="start" x="533.5" y="-401.5" font-family="Helvetica,sans-Serif" font-size="10.00">&#45;</text>
<text text-anchor="start" x="542" y="-401.5" font-family="Helvetica,sans-Serif" font-size="10.00">GetByteArray()</text>
<text text-anchor="start" x="533.5" y="-386.5" font-family="Helvetica,sans-Serif" font-size="10.00">&#45;</text>
<text text-anchor="start" x="542" y="-386.5" font-family="Helvetica,sans-Serif" font-size="10.00">ByteArrayCompare()</text>
<text text-anchor="start" x="533.5" y="-371.5" font-family="Helvetica,sans-Serif" font-size="10.00">&#45;</text>
<text text-anchor="start" x="542" y="-371.5" font-family="Helvetica,sans-Serif" font-size="10.00">GetSocketType()</text>
<polygon fill="#666666" stroke="#666666" points="528,-653 528,-653 675,-653 675,-653 528,-653"/>
<polygon fill="#666666" stroke="#666666" points="528,-638 528,-638 675,-638 675,-638 528,-638"/>
<polygon fill="none" stroke="#666666" points="528,-366 528,-670 675,-670 675,-366 528,-366"/>
</a>
</g>
</g>
<!-- Node3&#45;&gt;Node1 -->
<g id="edge2_Node000001_Node000003" class="edge">
<title>Node3&#45;&gt;Node1</title>
<g id="a_edge2_Node000001_Node000003"><a xlink:title=" ">
<path fill="none" stroke="#63b8ff" d="M601.5,-366.16C601.5,-343.63 601.5,-320.38 601.5,-297.78"/>
<polygon fill="none" stroke="#63b8ff" points="601.5,-297.83 597.5,-291.83 601.5,-285.83 605.5,-291.83 601.5,-297.83"/>
</a>
</g>
<text text-anchor="middle" x="616.12" y="-321.62" font-family="Helvetica,sans-Serif" font-size="10.00" fill="grey"> &#45;client</text>
</g>
<!-- Node3&#45;&gt;Node3 -->
<g id="edge14_Node000003_Node000003" class="edge">
<title>Node3&#45;&gt;Node3</title>
<g id="a_edge14_Node000003_Node000003"><a xlink:title=" ">
<path fill="none" stroke="#63b8ff" d="M674.73,-547.87C685.63,-543.22 693,-533.26 693,-518 693,-508.46 690.12,-500.99 685.3,-495.6"/>
<polygon fill="none" stroke="#63b8ff" points="685.26,-495.57 678.05,-495.38 675.46,-488.65 682.67,-488.84 685.26,-495.57"/>
</a>
</g>
<text text-anchor="middle" x="711.75" y="-514.12" font-family="Helvetica,sans-Serif" font-size="10.00" fill="grey"> +Parent</text>
</g>
<!-- Node4 -->
<g id="Node000004" class="node">
<title>Node4</title>
<g id="a_Node000004"><a xlink:title=" ">
<polygon fill="white" stroke="none" points="79,-848.75 0,-848.75 0,-799.75 79,-799.75 79,-848.75"/>
<text text-anchor="start" x="5" y="-835.25" font-family="Helvetica,sans-Serif" font-size="10.00">SemaphoreSlim</text>
<text text-anchor="start" x="38" y="-820.25" font-family="Helvetica,sans-Serif" font-size="10.00"> </text>
<text text-anchor="start" x="38" y="-805.25" font-family="Helvetica,sans-Serif" font-size="10.00"> </text>
<polygon fill="#666666" stroke="#666666" points="0,-831.75 0,-831.75 79,-831.75 79,-831.75 0,-831.75"/>
<polygon fill="#666666" stroke="#666666" points="0,-816.75 0,-816.75 79,-816.75 79,-816.75 0,-816.75"/>
<polygon fill="none" stroke="#666666" points="0,-799.75 0,-848.75 79,-848.75 79,-799.75 0,-799.75"/>
</a>
</g>
</g>
<!-- Node4&#45;&gt;Node3 -->
<g id="edge3_Node000003_Node000004" class="edge">
<title>Node4&#45;&gt;Node3</title>
<g id="a_edge3_Node000003_Node000004"><a xlink:title=" ">
<path fill="none" stroke="#63b8ff" d="M31.12,-799.79C21.98,-769.55 12.19,-717.38 40.75,-688 75.75,-651.99 431.11,-692.91 516.14,-668.31"/>
<polygon fill="none" stroke="#63b8ff" points="516.15,-668.3 520.16,-662.3 527.23,-663.7 523.23,-669.69 516.15,-668.3"/>
</a>
</g>
<text text-anchor="middle" x="89.88" y="-689.75" font-family="Helvetica,sans-Serif" font-size="10.00" fill="grey"> &#45;OneRecieveAtATime</text>
</g>
<!-- Node5 -->
<g id="Node000005" class="node">
<title>Node5</title>
<g id="a_Node000005"><a xlink:title=" ">
<polygon fill="white" stroke="none" points="182.5,-1027.5 154.5,-1027.5 154.5,-978.5 182.5,-978.5 182.5,-1027.5"/>
<text text-anchor="start" x="159.5" y="-1014" font-family="Helvetica,sans-Serif" font-size="10.00">bool</text>
<text text-anchor="start" x="167" y="-999" font-family="Helvetica,sans-Serif" font-size="10.00"> </text>
<text text-anchor="start" x="167" y="-984" font-family="Helvetica,sans-Serif" font-size="10.00"> </text>
<polygon fill="#666666" stroke="#666666" points="154.5,-1010.5 154.5,-1010.5 182.5,-1010.5 182.5,-1010.5 154.5,-1010.5"/>
<polygon fill="#666666" stroke="#666666" points="154.5,-995.5 154.5,-995.5 182.5,-995.5 182.5,-995.5 154.5,-995.5"/>
<polygon fill="none" stroke="#666666" points="154.5,-978.5 154.5,-1027.5 182.5,-1027.5 182.5,-978.5 154.5,-978.5"/>
</a>
</g>
</g>
<!-- Node5&#45;&gt;Node3 -->
<g id="edge4_Node000003_Node000005" class="edge">
<title>Node5&#45;&gt;Node3</title>
<g id="a_edge4_Node000003_Node000005"><a xlink:title=" ">
<path fill="none" stroke="#63b8ff" d="M163.48,-978.51C153.37,-924.15 137.14,-788.85 207.75,-717.25 254.31,-670.04 440.87,-705.91 516.87,-669.11"/>
<polygon fill="none" stroke="#63b8ff" points="516.94,-669.07 520.1,-662.59 527.3,-663.02 524.14,-669.5 516.94,-669.07"/>
</a>
</g>
<text text-anchor="middle" x="237.38" y="-820.38" font-family="Helvetica,sans-Serif" font-size="10.00" fill="grey"> +isDisposed</text>
</g>
<!-- Node10 -->
<g id="Node000010" class="node">
<title>Node10</title>
<g id="a_Node000010"><a xlink:href="classxeno__rat__server_1_1_socket_handler.html" target="_top" xlink:title=" ">
<polygon fill="white" stroke="none" points="424.5,-931.25 274.5,-931.25 274.5,-717.25 424.5,-717.25 424.5,-931.25"/>
<text text-anchor="start" x="281.25" y="-917.75" font-family="Helvetica,sans-Serif" font-size="10.00">xeno_rat_server.SocketHandler</text>
<text text-anchor="start" x="348" y="-902.75" font-family="Helvetica,sans-Serif" font-size="10.00"> </text>
<text text-anchor="start" x="278.5" y="-887.75" font-family="Helvetica,sans-Serif" font-size="10.00">+</text>
<text text-anchor="start" x="288.5" y="-887.75" font-family="Helvetica,sans-Serif" font-size="10.00">SocketHandler()</text>
<text text-anchor="start" x="278.5" y="-872.75" font-family="Helvetica,sans-Serif" font-size="10.00">+</text>
<text text-anchor="start" x="288.5" y="-872.75" font-family="Helvetica,sans-Serif" font-size="10.00">SendAsync()</text>
<text text-anchor="start" x="278.5" y="-857.75" font-family="Helvetica,sans-Serif" font-size="10.00">+</text>
<text text-anchor="start" x="288.5" y="-857.75" font-family="Helvetica,sans-Serif" font-size="10.00">ReceiveAsync()</text>
<text text-anchor="start" x="278.5" y="-842.75" font-family="Helvetica,sans-Serif" font-size="10.00">+</text>
<text text-anchor="start" x="288.5" y="-842.75" font-family="Helvetica,sans-Serif" font-size="10.00">Concat()</text>
<text text-anchor="start" x="278.5" y="-827.75" font-family="Helvetica,sans-Serif" font-size="10.00">+</text>
<text text-anchor="start" x="288.5" y="-827.75" font-family="Helvetica,sans-Serif" font-size="10.00">BTruncate()</text>
<text text-anchor="start" x="278.5" y="-812.75" font-family="Helvetica,sans-Serif" font-size="10.00">+</text>
<text text-anchor="start" x="288.5" y="-812.75" font-family="Helvetica,sans-Serif" font-size="10.00">BytesToInt()</text>
<text text-anchor="start" x="278.5" y="-797.75" font-family="Helvetica,sans-Serif" font-size="10.00">+</text>
<text text-anchor="start" x="288.5" y="-797.75" font-family="Helvetica,sans-Serif" font-size="10.00">IntToBytes()</text>
<text text-anchor="start" x="278.5" y="-782.75" font-family="Helvetica,sans-Serif" font-size="10.00">+</text>
<text text-anchor="start" x="288.5" y="-782.75" font-family="Helvetica,sans-Serif" font-size="10.00">SetRecvTimeout()</text>
<text text-anchor="start" x="278.5" y="-767.75" font-family="Helvetica,sans-Serif" font-size="10.00">+</text>
<text text-anchor="start" x="288.5" y="-767.75" font-family="Helvetica,sans-Serif" font-size="10.00">ResetRecvTimeout()</text>
<text text-anchor="start" x="280" y="-752.75" font-family="Helvetica,sans-Serif" font-size="10.00">&#45;</text>
<text text-anchor="start" x="288.5" y="-752.75" font-family="Helvetica,sans-Serif" font-size="10.00">RecvAllAsync_ddos_unsafer()</text>
<text text-anchor="start" x="280" y="-737.75" font-family="Helvetica,sans-Serif" font-size="10.00">&#45;</text>
<text text-anchor="start" x="288.5" y="-737.75" font-family="Helvetica,sans-Serif" font-size="10.00">RecvAllAsync_ddos_safer()</text>
<text text-anchor="start" x="280" y="-722.75" font-family="Helvetica,sans-Serif" font-size="10.00">&#45;</text>
<text text-anchor="start" x="288.5" y="-722.75" font-family="Helvetica,sans-Serif" font-size="10.00">ParseHeader()</text>
<polygon fill="#666666" stroke="#666666" points="274.5,-914.25 274.5,-914.25 424.5,-914.25 424.5,-914.25 274.5,-914.25"/>
<polygon fill="#666666" stroke="#666666" points="274.5,-899.25 274.5,-899.25 424.5,-899.25 424.5,-899.25 274.5,-899.25"/>
<polygon fill="none" stroke="#666666" points="274.5,-717.25 274.5,-931.25 424.5,-931.25 424.5,-717.25 274.5,-717.25"/>
</a>
</g>
</g>
<!-- Node5&#45;&gt;Node10 -->
<g id="edge13_Node000010_Node000005" class="edge">
<title>Node5&#45;&gt;Node10</title>
<g id="a_edge13_Node000010_Node000005"><a xlink:title=" ">
<path fill="none" stroke="#63b8ff" d="M182.36,-985.98C191.71,-975.35 204.45,-961.21 216.25,-949.25 231.88,-933.4 249.01,-916.88 265.61,-901.26"/>
<polygon fill="none" stroke="#63b8ff" points="265.35,-901.51 267,-894.49 274.11,-893.31 272.47,-900.33 265.35,-901.51"/>
</a>
</g>
<text text-anchor="middle" x="261.12" y="-951" font-family="Helvetica,sans-Serif" font-size="10.00" fill="grey"> &#45;doProtocolUpgrade</text>
</g>
<!-- Node6 -->
<g id="Node000006" class="node">
<title>Node6</title>
<g id="a_Node000006"><a xlink:title=" ">
<polygon fill="white" stroke="none" points="739.5,-854.25 621.5,-854.25 621.5,-794.25 739.5,-794.25 739.5,-854.25"/>
<text text-anchor="start" x="626.12" y="-840.75" font-family="Helvetica,sans-Serif" font-size="10.00">Action&lt; xeno_rat_server.</text>
<text text-anchor="start" x="664.38" y="-829.5" font-family="Helvetica,sans-Serif" font-size="10.00">Node &gt;</text>
<text text-anchor="start" x="679" y="-814.75" font-family="Helvetica,sans-Serif" font-size="10.00"> </text>
<text text-anchor="start" x="679" y="-799.75" font-family="Helvetica,sans-Serif" font-size="10.00"> </text>
<polygon fill="#666666" stroke="#666666" points="621.5,-826.25 621.5,-826.25 739.5,-826.25 739.5,-826.25 621.5,-826.25"/>
<polygon fill="#666666" stroke="#666666" points="621.5,-811.25 621.5,-811.25 739.5,-811.25 739.5,-811.25 621.5,-811.25"/>
<polygon fill="none" stroke="#666666" points="621.5,-794.25 621.5,-854.25 739.5,-854.25 739.5,-794.25 621.5,-794.25"/>
</a>
</g>
</g>
<!-- Node6&#45;&gt;Node3 -->
<g id="edge5_Node000003_Node000006" class="edge">
<title>Node6&#45;&gt;Node3</title>
<g id="a_edge5_Node000003_Node000006"><a xlink:title=" ">
<path fill="none" stroke="#63b8ff" d="M673,-794.35C666.06,-767.63 655.15,-725.63 643.93,-682.4"/>
<polygon fill="none" stroke="#63b8ff" points="643.92,-682.37 638.54,-677.57 640.9,-670.76 646.28,-675.56 643.92,-682.37"/>
</a>
</g>
<text text-anchor="middle" x="682.62" y="-689.75" font-family="Helvetica,sans-Serif" font-size="10.00" fill="grey"> &#45;OnDisconnect</text>
</g>
<!-- Node7 -->
<g id="Node000007" class="node">
<title>Node7</title>
<g id="a_Node000007"><a xlink:title=" ">
<polygon fill="white" stroke="none" points="859.5,-854.25 757.5,-854.25 757.5,-794.25 859.5,-794.25 859.5,-854.25"/>
<text text-anchor="start" x="762.38" y="-840.75" font-family="Helvetica,sans-Serif" font-size="10.00">List&lt; Action&lt; xeno</text>
<text text-anchor="start" x="762.38" y="-829.5" font-family="Helvetica,sans-Serif" font-size="10.00">_rat_server.Node &gt; &gt;</text>
<text text-anchor="start" x="807" y="-814.75" font-family="Helvetica,sans-Serif" font-size="10.00"> </text>
<text text-anchor="start" x="807" y="-799.75" font-family="Helvetica,sans-Serif" font-size="10.00"> </text>
<polygon fill="#666666" stroke="#666666" points="757.5,-826.25 757.5,-826.25 859.5,-826.25 859.5,-826.25 757.5,-826.25"/>
<polygon fill="#666666" stroke="#666666" points="757.5,-811.25 757.5,-811.25 859.5,-811.25 859.5,-811.25 757.5,-811.25"/>
<polygon fill="none" stroke="#666666" points="757.5,-794.25 757.5,-854.25 859.5,-854.25 859.5,-794.25 757.5,-794.25"/>
</a>
</g>
</g>
<!-- Node7&#45;&gt;Node3 -->
<g id="edge6_Node000003_Node000007" class="edge">
<title>Node7&#45;&gt;Node3</title>
<g id="a_edge6_Node000003_Node000007"><a xlink:title=" ">
<path fill="none" stroke="#63b8ff" d="M793.38,-794.34C781.77,-772.71 764.98,-742.6 748.5,-717.25 728.23,-686.08 704.82,-653.27 682.71,-623.5"/>
<polygon fill="none" stroke="#63b8ff" points="682.67,-623.45 675.88,-621.03 675.5,-613.83 682.29,-616.25 682.67,-623.45"/>
</a>
</g>
<text text-anchor="middle" x="782.25" y="-689.75" font-family="Helvetica,sans-Serif" font-size="10.00" fill="grey"> &#45;TempOnDisconnects</text>
</g>
<!-- Node8 -->
<g id="Node000008" class="node">
<title>Node8</title>
<g id="a_Node000008"><a xlink:title=" ">
<polygon fill="white" stroke="none" points="1017,-848.75 878,-848.75 878,-799.75 1017,-799.75 1017,-848.75"/>
<text text-anchor="start" x="883" y="-835.25" font-family="Helvetica,sans-Serif" font-size="10.00">List&lt; xeno_rat_server.Node &gt;</text>
<text text-anchor="start" x="946" y="-820.25" font-family="Helvetica,sans-Serif" font-size="10.00"> </text>
<text text-anchor="start" x="946" y="-805.25" font-family="Helvetica,sans-Serif" font-size="10.00"> </text>
<polygon fill="#666666" stroke="#666666" points="878,-831.75 878,-831.75 1017,-831.75 1017,-831.75 878,-831.75"/>
<polygon fill="#666666" stroke="#666666" points="878,-816.75 878,-816.75 1017,-816.75 1017,-816.75 878,-816.75"/>
<polygon fill="none" stroke="#666666" points="878,-799.75 878,-848.75 1017,-848.75 1017,-799.75 878,-799.75"/>
</a>
</g>
</g>
<!-- Node8&#45;&gt;Node3 -->
<g id="edge7_Node000003_Node000008" class="edge">
<title>Node8&#45;&gt;Node3</title>
<g id="a_edge7_Node000003_Node000008"><a xlink:title=" ">
<path fill="none" stroke="#63b8ff" d="M932.13,-799.86C917.07,-777.64 892.88,-743.79 868.5,-717.25 855.24,-702.82 853.09,-696.63 835.5,-688 796.92,-669.07 778.07,-690.87 740.5,-670 719.94,-658.58 700.75,-643.02 683.58,-626.2"/>
<polygon fill="none" stroke="#63b8ff" points="683.86,-626.48 676.79,-625.03 675.42,-617.95 682.48,-619.4 683.86,-626.48"/>
</a>
</g>
<text text-anchor="middle" x="878.12" y="-689.75" font-family="Helvetica,sans-Serif" font-size="10.00" fill="grey"> +subNodes</text>
</g>
<!-- Node9 -->
<g id="Node000009" class="node">
<title>Node9</title>
<g id="a_Node000009"><a xlink:title=" ">
<polygon fill="white" stroke="none" points="1135.5,-854.25 1035.5,-854.25 1035.5,-794.25 1135.5,-794.25 1135.5,-854.25"/>
<text text-anchor="start" x="1040.12" y="-840.75" font-family="Helvetica,sans-Serif" font-size="10.00">Dictionary&lt; int, xeno</text>
<text text-anchor="start" x="1043.88" y="-829.5" font-family="Helvetica,sans-Serif" font-size="10.00">_rat_server.Node &gt;</text>
<text text-anchor="start" x="1084" y="-814.75" font-family="Helvetica,sans-Serif" font-size="10.00"> </text>
<text text-anchor="start" x="1084" y="-799.75" font-family="Helvetica,sans-Serif" font-size="10.00"> </text>
<polygon fill="#666666" stroke="#666666" points="1035.5,-826.25 1035.5,-826.25 1135.5,-826.25 1135.5,-826.25 1035.5,-826.25"/>
<polygon fill="#666666" stroke="#666666" points="1035.5,-811.25 1035.5,-811.25 1135.5,-811.25 1135.5,-811.25 1035.5,-811.25"/>
<polygon fill="none" stroke="#666666" points="1035.5,-794.25 1035.5,-854.25 1135.5,-854.25 1135.5,-794.25 1035.5,-794.25"/>
</a>
</g>
</g>
<!-- Node9&#45;&gt;Node3 -->
<g id="edge8_Node000003_Node000009" class="edge">
<title>Node9&#45;&gt;Node3</title>
<g id="a_edge8_Node000003_Node000009"><a xlink:title=" ">
<path fill="none" stroke="#63b8ff" d="M1076.79,-794.61C1067.96,-770.42 1051.93,-736.7 1026.5,-717.25 983.58,-684.42 961.71,-697.4 908.5,-688 834.55,-674.94 807.56,-703.79 740.5,-670 719.96,-659.65 700.94,-644.92 683.98,-628.68"/>
<polygon fill="none" stroke="#63b8ff" points="683.92,-628.62 676.85,-627.22 675.42,-620.15 682.49,-621.55 683.92,-628.62"/>
</a>
</g>
<text text-anchor="middle" x="1025.75" y="-689.75" font-family="Helvetica,sans-Serif" font-size="10.00" fill="grey"> &#45;subNodeWait</text>
</g>
<!-- Node10&#45;&gt;Node3 -->
<g id="edge9_Node000003_Node000010" class="edge">
<title>Node10&#45;&gt;Node3</title>
<g id="a_edge9_Node000003_Node000010"><a xlink:title=" ">
<path fill="none" stroke="#63b8ff" d="M424.42,-734.64C441.14,-717.87 459.56,-701.4 478.5,-688 494.41,-676.74 504.18,-683.22 518.5,-670 518.71,-669.81 518.91,-669.62 519.12,-669.43"/>
<polygon fill="none" stroke="#63b8ff" points="518.99,-669.56 520.38,-662.48 527.45,-661.05 526.05,-668.13 518.99,-669.56"/>
</a>
</g>
<text text-anchor="middle" x="493.5" y="-689.75" font-family="Helvetica,sans-Serif" font-size="10.00" fill="grey"> +sock</text>
</g>
<!-- Node11 -->
<g id="Node000011" class="node">
<title>Node11</title>
<g id="a_Node000011"><a xlink:title=" ">
<polygon fill="white" stroke="none" points="316.5,-1027.5 276.5,-1027.5 276.5,-978.5 316.5,-978.5 316.5,-1027.5"/>
<text text-anchor="start" x="281.12" y="-1014" font-family="Helvetica,sans-Serif" font-size="10.00">Socket</text>
<text text-anchor="start" x="295" y="-999" font-family="Helvetica,sans-Serif" font-size="10.00"> </text>
<text text-anchor="start" x="295" y="-984" font-family="Helvetica,sans-Serif" font-size="10.00"> </text>
<polygon fill="#666666" stroke="#666666" points="276.5,-1010.5 276.5,-1010.5 316.5,-1010.5 316.5,-1010.5 276.5,-1010.5"/>
<polygon fill="#666666" stroke="#666666" points="276.5,-995.5 276.5,-995.5 316.5,-995.5 316.5,-995.5 276.5,-995.5"/>
<polygon fill="none" stroke="#666666" points="276.5,-978.5 276.5,-1027.5 316.5,-1027.5 316.5,-978.5 276.5,-978.5"/>
</a>
</g>
</g>
<!-- Node11&#45;&gt;Node10 -->
<g id="edge10_Node000010_Node000011" class="edge">
<title>Node11&#45;&gt;Node10</title>
<g id="a_edge10_Node000010_Node000011"><a xlink:title=" ">
<path fill="none" stroke="#63b8ff" d="M303.54,-978.53C306.47,-968.75 310.11,-956.61 314.05,-943.47"/>
<polygon fill="none" stroke="#63b8ff" points="314.03,-943.52 311.93,-936.63 317.48,-932.03 319.59,-938.93 314.03,-943.52"/>
</a>
</g>
<text text-anchor="middle" x="327.5" y="-951" font-family="Helvetica,sans-Serif" font-size="10.00" fill="grey"> +sock</text>
</g>
<!-- Node12 -->
<g id="Node000012" class="node">
<title>Node12</title>
<g id="a_Node000012"><a xlink:title=" ">
<polygon fill="white" stroke="none" points="363.5,-1027.5 335.5,-1027.5 335.5,-978.5 363.5,-978.5 363.5,-1027.5"/>
<text text-anchor="start" x="340.12" y="-1014" font-family="Helvetica,sans-Serif" font-size="10.00">byte</text>
<text text-anchor="start" x="348" y="-999" font-family="Helvetica,sans-Serif" font-size="10.00"> </text>
<text text-anchor="start" x="348" y="-984" font-family="Helvetica,sans-Serif" font-size="10.00"> </text>
<polygon fill="#666666" stroke="#666666" points="335.5,-1010.5 335.5,-1010.5 363.5,-1010.5 363.5,-1010.5 335.5,-1010.5"/>
<polygon fill="#666666" stroke="#666666" points="335.5,-995.5 335.5,-995.5 363.5,-995.5 363.5,-995.5 335.5,-995.5"/>
<polygon fill="none" stroke="#666666" points="335.5,-978.5 335.5,-1027.5 363.5,-1027.5 363.5,-978.5 335.5,-978.5"/>
</a>
</g>
</g>
<!-- Node12&#45;&gt;Node10 -->
<g id="edge11_Node000010_Node000012" class="edge">
<title>Node12&#45;&gt;Node10</title>
<g id="a_edge11_Node000010_Node000012"><a xlink:title=" ">
<path fill="none" stroke="#63b8ff" d="M349.5,-978.53C349.5,-968.85 349.5,-956.86 349.5,-943.88"/>
<polygon fill="none" stroke="#63b8ff" points="349.5,-944.07 345.5,-938.07 349.5,-932.07 353.5,-938.07 349.5,-944.07"/>
</a>
</g>
<text text-anchor="middle" x="385.88" y="-951" font-family="Helvetica,sans-Serif" font-size="10.00" fill="grey"> +EncryptionKey</text>
</g>
<!-- Node13 -->
<g id="Node000013" class="node">
<title>Node13</title>
<g id="a_Node000013"><a xlink:title=" ">
<polygon fill="white" stroke="none" points="493.5,-1027.5 473.5,-1027.5 473.5,-978.5 493.5,-978.5 493.5,-1027.5"/>
<text text-anchor="start" x="478.25" y="-1014" font-family="Helvetica,sans-Serif" font-size="10.00">int</text>
<text text-anchor="start" x="482" y="-999" font-family="Helvetica,sans-Serif" font-size="10.00"> </text>
<text text-anchor="start" x="482" y="-984" font-family="Helvetica,sans-Serif" font-size="10.00"> </text>
<polygon fill="#666666" stroke="#666666" points="473.5,-1010.5 473.5,-1010.5 493.5,-1010.5 493.5,-1010.5 473.5,-1010.5"/>
<polygon fill="#666666" stroke="#666666" points="473.5,-995.5 473.5,-995.5 493.5,-995.5 493.5,-995.5 473.5,-995.5"/>
<polygon fill="none" stroke="#666666" points="473.5,-978.5 473.5,-1027.5 493.5,-1027.5 493.5,-978.5 473.5,-978.5"/>
</a>
</g>
</g>
<!-- Node13&#45;&gt;Node3 -->
<g id="edge15_Node000003_Node000013" class="edge">
<title>Node13&#45;&gt;Node3</title>
<g id="a_edge15_Node000003_Node000013"><a xlink:title=" ">
<path fill="none" stroke="#63b8ff" d="M493.47,-988.92C498.88,-981.1 505.13,-970.73 508.5,-960.5 542.48,-857.36 508.14,-823.3 531.5,-717.25 534.04,-705.74 537.04,-693.98 540.37,-682.22"/>
<polygon fill="none" stroke="#63b8ff" points="540.33,-682.36 538.17,-675.48 543.69,-670.84 545.85,-677.72 540.33,-682.36"/>
</a>
</g>
<text text-anchor="middle" x="572" y="-831.62" font-family="Helvetica,sans-Serif" font-size="10.00" fill="grey"> +ID</text>
<text text-anchor="middle" x="572" y="-820.38" font-family="Helvetica,sans-Serif" font-size="10.00" fill="grey">+SockType</text>
<text text-anchor="middle" x="572" y="-809.12" font-family="Helvetica,sans-Serif" font-size="10.00" fill="grey">+SubNodeIdCount</text>
</g>
<!-- Node13&#45;&gt;Node10 -->
<g id="edge12_Node000010_Node000013" class="edge">
<title>Node13&#45;&gt;Node10</title>
<g id="a_edge12_Node000010_Node000013"><a xlink:title=" ">
<path fill="none" stroke="#63b8ff" d="M473.68,-991.7C465.97,-983.47 455.1,-971.52 446.25,-960.5 441.27,-954.29 436.24,-947.86 431.23,-941.31"/>
<polygon fill="none" stroke="#63b8ff" points="431.17,-941.23 424.36,-938.86 423.93,-931.67 430.74,-934.03 431.17,-941.23"/>
</a>
</g>
<text text-anchor="middle" x="477.62" y="-951" font-family="Helvetica,sans-Serif" font-size="10.00" fill="grey"> +socktimeout</text>
</g>
<!-- Node14 -->
<g id="Node000014" class="node">
<title>Node14</title>
<g id="a_Node000014"><a xlink:title=" ">
<polygon fill="white" stroke="none" points="774,-542.5 749,-542.5 749,-493.5 774,-493.5 774,-542.5"/>
<text text-anchor="start" x="753.62" y="-529" font-family="Helvetica,sans-Serif" font-size="10.00">uint</text>
<text text-anchor="start" x="760" y="-514" font-family="Helvetica,sans-Serif" font-size="10.00"> </text>
<text text-anchor="start" x="760" y="-499" font-family="Helvetica,sans-Serif" font-size="10.00"> </text>
<polygon fill="#666666" stroke="#666666" points="749,-525.5 749,-525.5 774,-525.5 774,-525.5 749,-525.5"/>
<polygon fill="#666666" stroke="#666666" points="749,-510.5 749,-510.5 774,-510.5 774,-510.5 749,-510.5"/>
<polygon fill="none" stroke="#666666" points="749,-493.5 749,-542.5 774,-542.5 774,-493.5 749,-493.5"/>
</a>
</g>
</g>
<!-- Node14&#45;&gt;Node1 -->
<g id="edge16_Node000001_Node000014" class="edge">
<title>Node14&#45;&gt;Node1</title>
<g id="a_edge16_Node000001_Node000014"><a xlink:title=" ">
<path fill="none" stroke="#63b8ff" d="M761.03,-493.51C759.76,-463.19 755.26,-409.18 739.5,-366 725.27,-327.01 703.64,-287.53 681.69,-252.87"/>
<polygon fill="none" stroke="#63b8ff" points="681.86,-253.13 675.25,-250.24 675.37,-243.03 681.98,-245.92 681.86,-253.13"/>
</a>
</g>
<text text-anchor="middle" x="780.25" y="-338.5" font-family="Helvetica,sans-Serif" font-size="10.00" fill="grey"> +CF_BITMAP</text>
<text text-anchor="middle" x="780.25" y="-327.25" font-family="Helvetica,sans-Serif" font-size="10.00" fill="grey">+CF_HDROP</text>
<text text-anchor="middle" x="780.25" y="-316" font-family="Helvetica,sans-Serif" font-size="10.00" fill="grey">+CF_TEXT</text>
<text text-anchor="middle" x="780.25" y="-304.75" font-family="Helvetica,sans-Serif" font-size="10.00" fill="grey">+CF_UNICODETEXT</text>
</g>
</g>
</svg>
