<?xml version="1.0" encoding="UTF-8" standalone="no"?>
<!DOCTYPE svg PUBLIC "-//W3C//DTD SVG 1.1//EN"
 "http://www.w3.org/Graphics/SVG/1.1/DTD/svg11.dtd">
<!-- Generated by graphviz version 10.0.1 (20240210.2158)
 -->
<!-- Title: NAudio.Wave.BwfWriter Pages: 1 -->
<svg width="504pt" height="700pt"
 viewBox="0.00 0.00 503.75 699.50" xmlns="http://www.w3.org/2000/svg" xmlns:xlink="http://www.w3.org/1999/xlink">
<g id="graph0" class="graph" transform="scale(1 1) rotate(0) translate(4 695.5)">
<title>NAudio.Wave.BwfWriter</title>
<!-- Node1 -->
<g id="Node000001" class="node">
<title>Node1</title>
<g id="a_Node000001"><a xlink:title="Broadcast WAVE File Writer.">
<polygon fill="#999999" stroke="none" points="335.5,-124 220.5,-124 220.5,0 335.5,0 335.5,-124"/>
<text text-anchor="start" x="225.12" y="-110.5" font-family="Helvetica,sans-Serif" font-size="10.00">NAudio.Wave.BwfWriter</text>
<text text-anchor="start" x="276.5" y="-95.5" font-family="Helvetica,sans-Serif" font-size="10.00"> </text>
<text text-anchor="start" x="227.5" y="-80.5" font-family="Helvetica,sans-Serif" font-size="10.00">+</text>
<text text-anchor="start" x="240.5" y="-80.5" font-family="Helvetica,sans-Serif" font-size="10.00">BwfWriter()</text>
<text text-anchor="start" x="227.5" y="-65.5" font-family="Helvetica,sans-Serif" font-size="10.00">+</text>
<text text-anchor="start" x="240.5" y="-65.5" font-family="Helvetica,sans-Serif" font-size="10.00">Write()</text>
<text text-anchor="start" x="227.5" y="-50.5" font-family="Helvetica,sans-Serif" font-size="10.00">+</text>
<text text-anchor="start" x="240.5" y="-50.5" font-family="Helvetica,sans-Serif" font-size="10.00">Flush()</text>
<text text-anchor="start" x="227.5" y="-35.5" font-family="Helvetica,sans-Serif" font-size="10.00">+</text>
<text text-anchor="start" x="240.5" y="-35.5" font-family="Helvetica,sans-Serif" font-size="10.00">Dispose()</text>
<text text-anchor="start" x="229" y="-20.5" font-family="Helvetica,sans-Serif" font-size="10.00">&#45;</text>
<text text-anchor="start" x="240.5" y="-20.5" font-family="Helvetica,sans-Serif" font-size="10.00">FixUpChunkSizes()</text>
<text text-anchor="start" x="229" y="-5.5" font-family="Helvetica,sans-Serif" font-size="10.00">&#45;</text>
<text text-anchor="start" x="240.5" y="-5.5" font-family="Helvetica,sans-Serif" font-size="10.00">GetAsBytes()</text>
<polygon fill="#666666" stroke="#666666" points="220.5,-107 220.5,-107 335.5,-107 335.5,-107 220.5,-107"/>
<polygon fill="#666666" stroke="#666666" points="220.5,-92 220.5,-92 335.5,-92 335.5,-92 220.5,-92"/>
<polygon fill="none" stroke="#666666" points="220.5,0 220.5,-124 335.5,-124 335.5,0 220.5,0"/>
</a>
</g>
</g>
<!-- Node2 -->
<g id="Node000002" class="node">
<title>Node2</title>
<g id="a_Node000002"><a xlink:href="class_i_disposable.html" target="_top" xlink:title=" ">
<polygon fill="white" stroke="none" points="61.5,-396.5 0.5,-396.5 0.5,-347.5 61.5,-347.5 61.5,-396.5"/>
<text text-anchor="start" x="5.12" y="-383" font-family="Helvetica,sans-Serif" font-size="10.00">IDisposable</text>
<text text-anchor="start" x="29.5" y="-368" font-family="Helvetica,sans-Serif" font-size="10.00"> </text>
<text text-anchor="start" x="29.5" y="-353" font-family="Helvetica,sans-Serif" font-size="10.00"> </text>
<polygon fill="#666666" stroke="#666666" points="0.5,-379.5 0.5,-379.5 61.5,-379.5 61.5,-379.5 0.5,-379.5"/>
<polygon fill="#666666" stroke="#666666" points="0.5,-364.5 0.5,-364.5 61.5,-364.5 61.5,-364.5 0.5,-364.5"/>
<polygon fill="none" stroke="#666666" points="0.5,-347.5 0.5,-396.5 61.5,-396.5 61.5,-347.5 0.5,-347.5"/>
</a>
</g>
</g>
<!-- Node2&#45;&gt;Node1 -->
<g id="edge1_Node000001_Node000002" class="edge">
<title>Node2&#45;&gt;Node1</title>
<g id="a_edge1_Node000001_Node000002"><a xlink:title=" ">
<path fill="none" stroke="#63b8ff" d="M29.98,-336.28C30.5,-295.68 36.89,-228.23 70,-182.5 107,-131.39 173.06,-98.93 220.82,-80.93"/>
<polygon fill="none" stroke="#63b8ff" points="26.48,-336.21 29.98,-346.21 33.48,-336.21 26.48,-336.21"/>
</a>
</g>
</g>
<!-- Node3 -->
<g id="Node000003" class="node">
<title>Node3</title>
<g id="a_Node000003"><a xlink:href="class_n_audio_1_1_wave_1_1_wave_format.html" target="_top" xlink:title="Represents a Wave file format.">
<polygon fill="white" stroke="none" points="228.5,-561.5 79.5,-561.5 79.5,-182.5 228.5,-182.5 228.5,-561.5"/>
<text text-anchor="start" x="94.75" y="-548" font-family="Helvetica,sans-Serif" font-size="10.00">NAudio.Wave.WaveFormat</text>
<text text-anchor="start" x="83.5" y="-533" font-family="Helvetica,sans-Serif" font-size="10.00">+</text>
<text text-anchor="start" x="93.5" y="-533" font-family="Helvetica,sans-Serif" font-size="10.00">Encoding</text>
<text text-anchor="start" x="83.5" y="-518" font-family="Helvetica,sans-Serif" font-size="10.00">+</text>
<text text-anchor="start" x="93.5" y="-518" font-family="Helvetica,sans-Serif" font-size="10.00">Channels</text>
<text text-anchor="start" x="83.5" y="-503" font-family="Helvetica,sans-Serif" font-size="10.00">+</text>
<text text-anchor="start" x="93.5" y="-503" font-family="Helvetica,sans-Serif" font-size="10.00">SampleRate</text>
<text text-anchor="start" x="83.5" y="-488" font-family="Helvetica,sans-Serif" font-size="10.00">+</text>
<text text-anchor="start" x="93.5" y="-488" font-family="Helvetica,sans-Serif" font-size="10.00">AverageBytesPerSecond</text>
<text text-anchor="start" x="83.5" y="-473" font-family="Helvetica,sans-Serif" font-size="10.00">+</text>
<text text-anchor="start" x="93.5" y="-473" font-family="Helvetica,sans-Serif" font-size="10.00">BlockAlign</text>
<text text-anchor="start" x="83.5" y="-458" font-family="Helvetica,sans-Serif" font-size="10.00">+</text>
<text text-anchor="start" x="93.5" y="-458" font-family="Helvetica,sans-Serif" font-size="10.00">BitsPerSample</text>
<text text-anchor="start" x="83.5" y="-443" font-family="Helvetica,sans-Serif" font-size="10.00">+</text>
<text text-anchor="start" x="93.5" y="-443" font-family="Helvetica,sans-Serif" font-size="10.00">ExtraSize</text>
<text text-anchor="start" x="83.5" y="-428" font-family="Helvetica,sans-Serif" font-size="10.00">+</text>
<text text-anchor="start" x="93.5" y="-428" font-family="Helvetica,sans-Serif" font-size="10.00">WaveFormat()</text>
<text text-anchor="start" x="83.5" y="-413" font-family="Helvetica,sans-Serif" font-size="10.00">+</text>
<text text-anchor="start" x="93.5" y="-413" font-family="Helvetica,sans-Serif" font-size="10.00">WaveFormat()</text>
<text text-anchor="start" x="83.5" y="-398" font-family="Helvetica,sans-Serif" font-size="10.00">+</text>
<text text-anchor="start" x="93.5" y="-398" font-family="Helvetica,sans-Serif" font-size="10.00">ConvertLatencyToByteSize()</text>
<text text-anchor="start" x="83.5" y="-383" font-family="Helvetica,sans-Serif" font-size="10.00">+</text>
<text text-anchor="start" x="93.5" y="-383" font-family="Helvetica,sans-Serif" font-size="10.00">WaveFormat()</text>
<text text-anchor="start" x="83.5" y="-368" font-family="Helvetica,sans-Serif" font-size="10.00">+</text>
<text text-anchor="start" x="93.5" y="-368" font-family="Helvetica,sans-Serif" font-size="10.00">WaveFormat()</text>
<text text-anchor="start" x="83.5" y="-353" font-family="Helvetica,sans-Serif" font-size="10.00">+</text>
<text text-anchor="start" x="93.5" y="-353" font-family="Helvetica,sans-Serif" font-size="10.00">ToString()</text>
<text text-anchor="start" x="83.5" y="-338" font-family="Helvetica,sans-Serif" font-size="10.00">+</text>
<text text-anchor="start" x="93.5" y="-338" font-family="Helvetica,sans-Serif" font-size="10.00">Equals()</text>
<text text-anchor="start" x="83.5" y="-323" font-family="Helvetica,sans-Serif" font-size="10.00">+</text>
<text text-anchor="start" x="93.5" y="-323" font-family="Helvetica,sans-Serif" font-size="10.00">GetHashCode()</text>
<text text-anchor="start" x="83.5" y="-308" font-family="Helvetica,sans-Serif" font-size="10.00">+</text>
<text text-anchor="start" x="93.5" y="-308" font-family="Helvetica,sans-Serif" font-size="10.00">Serialize()</text>
<text text-anchor="start" x="83.5" y="-293" font-family="Helvetica,sans-Serif" font-size="10.00">+</text>
<text text-anchor="start" x="93.5" y="-293" font-family="Helvetica,sans-Serif" font-size="10.00">CreateCustomFormat()</text>
<text text-anchor="start" x="83.5" y="-278" font-family="Helvetica,sans-Serif" font-size="10.00">+</text>
<text text-anchor="start" x="93.5" y="-278" font-family="Helvetica,sans-Serif" font-size="10.00">CreateALawFormat()</text>
<text text-anchor="start" x="83.5" y="-263" font-family="Helvetica,sans-Serif" font-size="10.00">+</text>
<text text-anchor="start" x="93.5" y="-263" font-family="Helvetica,sans-Serif" font-size="10.00">CreateMuLawFormat()</text>
<text text-anchor="start" x="83.5" y="-248" font-family="Helvetica,sans-Serif" font-size="10.00">+</text>
<text text-anchor="start" x="93.5" y="-248" font-family="Helvetica,sans-Serif" font-size="10.00">CreateIeeeFloatWaveFormat()</text>
<text text-anchor="start" x="83.5" y="-233" font-family="Helvetica,sans-Serif" font-size="10.00">+</text>
<text text-anchor="start" x="93.5" y="-233" font-family="Helvetica,sans-Serif" font-size="10.00">MarshalFromPtr()</text>
<text text-anchor="start" x="83.5" y="-218" font-family="Helvetica,sans-Serif" font-size="10.00">+</text>
<text text-anchor="start" x="93.5" y="-218" font-family="Helvetica,sans-Serif" font-size="10.00">MarshalToPtr()</text>
<text text-anchor="start" x="83.5" y="-203" font-family="Helvetica,sans-Serif" font-size="10.00">+</text>
<text text-anchor="start" x="93.5" y="-203" font-family="Helvetica,sans-Serif" font-size="10.00">FromFormatChunk()</text>
<text text-anchor="start" x="85" y="-188" font-family="Helvetica,sans-Serif" font-size="10.00">&#45;</text>
<text text-anchor="start" x="93.5" y="-188" font-family="Helvetica,sans-Serif" font-size="10.00">ReadWaveFormat()</text>
<polygon fill="#666666" stroke="#666666" points="79.5,-544.5 79.5,-544.5 228.5,-544.5 228.5,-544.5 79.5,-544.5"/>
<polygon fill="#666666" stroke="#666666" points="79.5,-439.5 79.5,-439.5 91.5,-439.5 91.5,-439.5 79.5,-439.5"/>
<polygon fill="#666666" stroke="#666666" points="91.5,-439.5 91.5,-439.5 228.5,-439.5 228.5,-439.5 91.5,-439.5"/>
<polygon fill="none" stroke="#666666" points="79.5,-182.5 79.5,-561.5 228.5,-561.5 228.5,-182.5 79.5,-182.5"/>
</a>
</g>
</g>
<!-- Node3&#45;&gt;Node1 -->
<g id="edge2_Node000001_Node000003" class="edge">
<title>Node3&#45;&gt;Node1</title>
<g id="a_edge2_Node000001_Node000003"><a xlink:title=" ">
<path fill="none" stroke="#63b8ff" d="M223.43,-182.71C228.99,-168.88 234.63,-155.19 240.25,-142 241.17,-139.84 242.12,-137.65 243.09,-135.45"/>
<polygon fill="none" stroke="#63b8ff" points="243.13,-135.35 241.94,-128.23 248.04,-124.4 249.24,-131.51 243.13,-135.35"/>
</a>
</g>
<text text-anchor="middle" x="256.88" y="-149.38" font-family="Helvetica,sans-Serif" font-size="10.00" fill="grey"> &#45;format</text>
</g>
<!-- Node4 -->
<g id="Node000004" class="node">
<title>Node4</title>
<g id="a_Node000004"><a xlink:title=" ">
<polygon fill="white" stroke="none" points="106,-691.5 0,-691.5 0,-642.5 106,-642.5 106,-691.5"/>
<text text-anchor="start" x="5" y="-678" font-family="Helvetica,sans-Serif" font-size="10.00">WaveFormatEncoding</text>
<text text-anchor="start" x="51.5" y="-663" font-family="Helvetica,sans-Serif" font-size="10.00"> </text>
<text text-anchor="start" x="51.5" y="-648" font-family="Helvetica,sans-Serif" font-size="10.00"> </text>
<polygon fill="#666666" stroke="#666666" points="0,-674.5 0,-674.5 106,-674.5 106,-674.5 0,-674.5"/>
<polygon fill="#666666" stroke="#666666" points="0,-659.5 0,-659.5 106,-659.5 106,-659.5 0,-659.5"/>
<polygon fill="none" stroke="#666666" points="0,-642.5 0,-691.5 106,-691.5 106,-642.5 0,-642.5"/>
</a>
</g>
</g>
<!-- Node4&#45;&gt;Node3 -->
<g id="edge3_Node000003_Node000004" class="edge">
<title>Node4&#45;&gt;Node3</title>
<g id="a_edge3_Node000003_Node000004"><a xlink:title=" ">
<path fill="none" stroke="#63b8ff" d="M57.08,-642.61C60.39,-625.05 65.56,-600.52 72,-579.5 73.15,-575.75 74.34,-571.97 75.56,-568.17"/>
<polygon fill="none" stroke="#63b8ff" points="75.53,-568.24 73.61,-561.29 79.28,-556.83 81.21,-563.78 75.53,-568.24"/>
</a>
</g>
<text text-anchor="middle" x="111" y="-598.12" font-family="Helvetica,sans-Serif" font-size="10.00" fill="grey"> #waveFormatTag</text>
</g>
<!-- Node5 -->
<g id="Node000005" class="node">
<title>Node5</title>
<g id="a_Node000005"><a xlink:title=" ">
<polygon fill="white" stroke="none" points="169.5,-691.5 138.5,-691.5 138.5,-642.5 169.5,-642.5 169.5,-691.5"/>
<text text-anchor="start" x="143.12" y="-678" font-family="Helvetica,sans-Serif" font-size="10.00">short</text>
<text text-anchor="start" x="152.5" y="-663" font-family="Helvetica,sans-Serif" font-size="10.00"> </text>
<text text-anchor="start" x="152.5" y="-648" font-family="Helvetica,sans-Serif" font-size="10.00"> </text>
<polygon fill="#666666" stroke="#666666" points="138.5,-674.5 138.5,-674.5 169.5,-674.5 169.5,-674.5 138.5,-674.5"/>
<polygon fill="#666666" stroke="#666666" points="138.5,-659.5 138.5,-659.5 169.5,-659.5 169.5,-659.5 138.5,-659.5"/>
<polygon fill="none" stroke="#666666" points="138.5,-642.5 138.5,-691.5 169.5,-691.5 169.5,-642.5 138.5,-642.5"/>
</a>
</g>
</g>
<!-- Node5&#45;&gt;Node3 -->
<g id="edge4_Node000003_Node000005" class="edge">
<title>Node5&#45;&gt;Node3</title>
<g id="a_edge4_Node000003_Node000005"><a xlink:title=" ">
<path fill="none" stroke="#63b8ff" d="M154,-642.52C154,-625.74 154,-601.36 154,-574.02"/>
<polygon fill="none" stroke="#63b8ff" points="154,-574.17 150,-568.17 154,-562.17 158,-568.17 154,-574.17"/>
</a>
</g>
<text text-anchor="middle" x="190" y="-615" font-family="Helvetica,sans-Serif" font-size="10.00" fill="grey"> #bitsPerSample</text>
<text text-anchor="middle" x="190" y="-603.75" font-family="Helvetica,sans-Serif" font-size="10.00" fill="grey">#blockAlign</text>
<text text-anchor="middle" x="190" y="-592.5" font-family="Helvetica,sans-Serif" font-size="10.00" fill="grey">#channels</text>
<text text-anchor="middle" x="190" y="-581.25" font-family="Helvetica,sans-Serif" font-size="10.00" fill="grey">#extraSize</text>
</g>
<!-- Node6 -->
<g id="Node000006" class="node">
<title>Node6</title>
<g id="a_Node000006"><a xlink:title=" ">
<polygon fill="white" stroke="none" points="259,-691.5 239,-691.5 239,-642.5 259,-642.5 259,-691.5"/>
<text text-anchor="start" x="243.75" y="-678" font-family="Helvetica,sans-Serif" font-size="10.00">int</text>
<text text-anchor="start" x="247.5" y="-663" font-family="Helvetica,sans-Serif" font-size="10.00"> </text>
<text text-anchor="start" x="247.5" y="-648" font-family="Helvetica,sans-Serif" font-size="10.00"> </text>
<polygon fill="#666666" stroke="#666666" points="239,-674.5 239,-674.5 259,-674.5 259,-674.5 239,-674.5"/>
<polygon fill="#666666" stroke="#666666" points="239,-659.5 239,-659.5 259,-659.5 259,-659.5 239,-659.5"/>
<polygon fill="none" stroke="#666666" points="239,-642.5 239,-691.5 259,-691.5 259,-642.5 239,-642.5"/>
</a>
</g>
</g>
<!-- Node6&#45;&gt;Node3 -->
<g id="edge5_Node000003_Node000006" class="edge">
<title>Node6&#45;&gt;Node3</title>
<g id="a_edge5_Node000003_Node000006"><a xlink:title=" ">
<path fill="none" stroke="#63b8ff" d="M243.68,-642.71C239.54,-625.21 233.43,-600.7 227,-579.5 226.4,-577.53 225.8,-575.55 225.19,-573.56"/>
<polygon fill="none" stroke="#63b8ff" points="225.19,-573.59 219.59,-569.05 221.62,-562.13 227.22,-566.67 225.19,-573.59"/>
</a>
</g>
<text text-anchor="middle" x="297.12" y="-603.75" font-family="Helvetica,sans-Serif" font-size="10.00" fill="grey"> #averageBytesPerSecond</text>
<text text-anchor="middle" x="297.12" y="-592.5" font-family="Helvetica,sans-Serif" font-size="10.00" fill="grey">#sampleRate</text>
</g>
<!-- Node7 -->
<g id="Node000007" class="node">
<title>Node7</title>
<g id="a_Node000007"><a xlink:title=" ">
<polygon fill="white" stroke="none" points="309.5,-396.5 246.5,-396.5 246.5,-347.5 309.5,-347.5 309.5,-396.5"/>
<text text-anchor="start" x="251.38" y="-383" font-family="Helvetica,sans-Serif" font-size="10.00">BinaryWriter</text>
<text text-anchor="start" x="276.5" y="-368" font-family="Helvetica,sans-Serif" font-size="10.00"> </text>
<text text-anchor="start" x="276.5" y="-353" font-family="Helvetica,sans-Serif" font-size="10.00"> </text>
<polygon fill="#666666" stroke="#666666" points="246.5,-379.5 246.5,-379.5 309.5,-379.5 309.5,-379.5 246.5,-379.5"/>
<polygon fill="#666666" stroke="#666666" points="246.5,-364.5 246.5,-364.5 309.5,-364.5 309.5,-364.5 246.5,-364.5"/>
<polygon fill="none" stroke="#666666" points="246.5,-347.5 246.5,-396.5 309.5,-396.5 309.5,-347.5 246.5,-347.5"/>
</a>
</g>
</g>
<!-- Node7&#45;&gt;Node1 -->
<g id="edge6_Node000001_Node000007" class="edge">
<title>Node7&#45;&gt;Node1</title>
<g id="a_edge6_Node000001_Node000007"><a xlink:title=" ">
<path fill="none" stroke="#63b8ff" d="M278,-347.6C278,-303.22 278,-205.15 278,-136.6"/>
<polygon fill="none" stroke="#63b8ff" points="278,-136.64 274,-130.64 278,-124.64 282,-130.64 278,-136.64"/>
</a>
</g>
<text text-anchor="middle" x="293" y="-149.38" font-family="Helvetica,sans-Serif" font-size="10.00" fill="grey"> &#45;writer</text>
</g>
<!-- Node8 -->
<g id="Node000008" class="node">
<title>Node8</title>
<g id="a_Node000008"><a xlink:title=" ">
<polygon fill="white" stroke="none" points="356,-396.5 328,-396.5 328,-347.5 356,-347.5 356,-396.5"/>
<text text-anchor="start" x="333" y="-383" font-family="Helvetica,sans-Serif" font-size="10.00">long</text>
<text text-anchor="start" x="340.5" y="-368" font-family="Helvetica,sans-Serif" font-size="10.00"> </text>
<text text-anchor="start" x="340.5" y="-353" font-family="Helvetica,sans-Serif" font-size="10.00"> </text>
<polygon fill="#666666" stroke="#666666" points="328,-379.5 328,-379.5 356,-379.5 356,-379.5 328,-379.5"/>
<polygon fill="#666666" stroke="#666666" points="328,-364.5 328,-364.5 356,-364.5 356,-364.5 328,-364.5"/>
<polygon fill="none" stroke="#666666" points="328,-347.5 328,-396.5 356,-396.5 356,-347.5 328,-347.5"/>
</a>
</g>
</g>
<!-- Node8&#45;&gt;Node1 -->
<g id="edge7_Node000001_Node000008" class="edge">
<title>Node8&#45;&gt;Node1</title>
<g id="a_edge7_Node000001_Node000008"><a xlink:title=" ">
<path fill="none" stroke="#63b8ff" d="M341.37,-347.75C339.71,-305.8 333.7,-215.03 312,-142 311.39,-139.93 310.73,-137.85 310.05,-135.75"/>
<polygon fill="none" stroke="#63b8ff" points="310.09,-135.89 304.33,-131.55 306.11,-124.57 311.88,-128.9 310.09,-135.89"/>
</a>
</g>
<text text-anchor="middle" x="370" y="-155" font-family="Helvetica,sans-Serif" font-size="10.00" fill="grey"> &#45;dataChunkSizePosition</text>
<text text-anchor="middle" x="370" y="-143.75" font-family="Helvetica,sans-Serif" font-size="10.00" fill="grey">&#45;dataLength</text>
</g>
<!-- Node9 -->
<g id="Node000009" class="node">
<title>Node9</title>
<g id="a_Node000009"><a xlink:title=" ">
<polygon fill="white" stroke="none" points="481,-396.5 453,-396.5 453,-347.5 481,-347.5 481,-396.5"/>
<text text-anchor="start" x="458" y="-383" font-family="Helvetica,sans-Serif" font-size="10.00">bool</text>
<text text-anchor="start" x="465.5" y="-368" font-family="Helvetica,sans-Serif" font-size="10.00"> </text>
<text text-anchor="start" x="465.5" y="-353" font-family="Helvetica,sans-Serif" font-size="10.00"> </text>
<polygon fill="#666666" stroke="#666666" points="453,-379.5 453,-379.5 481,-379.5 481,-379.5 453,-379.5"/>
<polygon fill="#666666" stroke="#666666" points="453,-364.5 453,-364.5 481,-364.5 481,-364.5 453,-364.5"/>
<polygon fill="none" stroke="#666666" points="453,-347.5 453,-396.5 481,-396.5 481,-347.5 453,-347.5"/>
</a>
</g>
</g>
<!-- Node9&#45;&gt;Node1 -->
<g id="edge8_Node000001_Node000009" class="edge">
<title>Node9&#45;&gt;Node1</title>
<g id="a_edge8_Node000001_Node000009"><a xlink:title=" ">
<path fill="none" stroke="#63b8ff" d="M469.38,-347.67C472.65,-303.17 473.69,-205.01 428,-142 408.34,-114.88 376.51,-96.26 347.22,-83.94"/>
<polygon fill="none" stroke="#63b8ff" points="347.28,-83.97 340.23,-85.47 336.13,-79.53 343.18,-78.03 347.28,-83.97"/>
</a>
</g>
<text text-anchor="middle" x="468.38" y="-149.38" font-family="Helvetica,sans-Serif" font-size="10.00" fill="grey"> &#45;isDisposed</text>
</g>
</g>
</svg>
