<?xml version="1.0" encoding="UTF-8" standalone="no"?>
<!DOCTYPE svg PUBLIC "-//W3C//DTD SVG 1.1//EN"
 "http://www.w3.org/Graphics/SVG/1.1/DTD/svg11.dtd">
<!-- Generated by graphviz version 10.0.1 (20240210.2158)
 -->
<!-- Title: Plugin.Main.StartLoop Pages: 1 -->
<!--zoomable 361 -->

<svg id="main" version="1.1" xmlns="http://www.w3.org/2000/svg" xmlns:xlink="http://www.w3.org/1999/xlink" xml:space="preserve" onload="init(evt)">
<style type="text/css"><![CDATA[
.node, .edge {opacity: 0.7;}
.node.selected, .edge.selected {opacity: 1;}
.edge:hover path { stroke: red; }
.edge:hover polygon { stroke: red; fill: red; }
]]></style>

<defs>
  <circle id="rim" cx="0" cy="0" r="7"/>
  <circle id="rim2" cx="0" cy="0" r="3.5"/>
  <g id="zoomPlus">
    <use xlink:href="#rim" fill="#404040"><set attributeName="fill" to="#808080" begin="zoomplus.mouseover" end="zoomplus.mouseout"/></use>
    <path d="M-4,0h8M0,-4v8" fill="none" stroke="white" stroke-width="1.5" pointer-events="none"/>
  </g>
  <g id="zoomMin">
    <use xlink:href="#rim" fill="#404040"><set attributeName="fill" to="#808080" begin="zoomminus.mouseover" end="zoomminus.mouseout"/></use>
    <path d="M-4,0h8" fill="none" stroke="white" stroke-width="1.5" pointer-events="none"/>
  </g>
  <g id="arrowUp" transform="translate(30 24)">
    <use xlink:href="#rim"/>
    <path pointer-events="none" fill="none" stroke="white" stroke-width="1.5" d="M0,-3.0v7 M-2.5,-0.5L0,-3.0L2.5,-0.5"/>
  </g>
  <g id="arrowRight" transform="rotate(90) translate(36 -43)">
    <use xlink:href="#rim"/>
    <path pointer-events="none" fill="none" stroke="white" stroke-width="1.5" d="M0,-3.0v7 M-2.5,-0.5L0,-3.0L2.5,-0.5"/>
  </g>
  <g id="arrowDown" transform="rotate(180) translate(-30 -48)">
    <use xlink:href="#rim"/>
    <path pointer-events="none" fill="none" stroke="white" stroke-width="1.5" d="M0,-3.0v7 M-2.5,-0.5L0,-3.0L2.5,-0.5"/>
  </g>
  <g id="arrowLeft" transform="rotate(270) translate(-36 17)">
    <use xlink:href="#rim"/>
    <path pointer-events="none" fill="none" stroke="white" stroke-width="1.5" d="M0,-3.0v7 M-2.5,-0.5L0,-3.0L2.5,-0.5"/>
  </g>
  <g id="resetDef">
    <use xlink:href="#rim2" fill="#404040"><set attributeName="fill" to="#808080" begin="reset.mouseover" end="reset.mouseout"/></use>
  </g>
</defs>
<script type="application/ecmascript">
var viewWidth = 887;
var viewHeight = 361;
var sectionId = 'dynsection-136';
</script>
<script type="application/ecmascript" xlink:href="svg.min.js"/>
<svg id="graph" class="graph">
<g id="viewport">
<title>Plugin.Main.StartLoop</title>
<!-- Node1 -->
<g id="Node000001" class="node">
<title>Node1</title>
<g id="a_Node000001"><a xlink:title="Starts a loop to continuously receive and process commands from the specified node.">
<polygon fill="#999999" stroke="#666666" points="112,-241.88 0,-241.88 0,-222.62 112,-222.62 112,-241.88"/>
<text text-anchor="middle" x="56" y="-228.38" font-family="Helvetica,sans-Serif" font-size="10.00">Plugin.Main.StartLoop</text>
</a>
</g>
</g>
<!-- Node2 -->
<g id="Node000002" class="node">
<title>Node2</title>
<g id="a_Node000002"><a xlink:href="class_plugin_1_1_main.html#a2b8f62d0b36080f1d1d36bda82d832f0" target="_top" xlink:title="Closes the CD tray.">
<polygon fill="white" stroke="#666666" points="289.62,-352.88 164.88,-352.88 164.88,-333.62 289.62,-333.62 289.62,-352.88"/>
<text text-anchor="middle" x="227.25" y="-339.38" font-family="Helvetica,sans-Serif" font-size="10.00">Plugin.Main.CloseCdtray</text>
</a>
</g>
</g>
<!-- Node1&#45;&gt;Node2 -->
<g id="edge1_Node000001_Node000002" class="edge">
<title>Node1&#45;&gt;Node2</title>
<g id="a_edge1_Node000001_Node000002"><a xlink:title=" ">
<path fill="none" stroke="#63b8ff" d="M63.7,-242.2C77.23,-261.46 109.78,-303.81 148,-325.25 150.5,-326.65 153.1,-327.95 155.78,-329.14"/>
<polygon fill="#63b8ff" stroke="#63b8ff" points="154.37,-332.35 164.96,-332.71 156.91,-325.82 154.37,-332.35"/>
</a>
</g>
</g>
<!-- Node4 -->
<g id="Node000004" class="node">
<title>Node4</title>
<g id="a_Node000004"><a xlink:href="classxeno__rat__client_1_1_node.html#ae4ae581752fcdbda5191a2a55270e88b" target="_top" xlink:title="Checks if the socket is connected and returns a boolean value indicating the connection status.">
<polygon fill="white" stroke="#666666" points="306.5,-315.88 148,-315.88 148,-296.62 306.5,-296.62 306.5,-315.88"/>
<text text-anchor="middle" x="227.25" y="-302.38" font-family="Helvetica,sans-Serif" font-size="10.00">xeno_rat_client.Node.Connected</text>
</a>
</g>
</g>
<!-- Node1&#45;&gt;Node4 -->
<g id="edge3_Node000001_Node000004" class="edge">
<title>Node1&#45;&gt;Node4</title>
<g id="a_edge3_Node000001_Node000004"><a xlink:title=" ">
<path fill="none" stroke="#63b8ff" d="M70.13,-242.26C87.19,-254.79 118.3,-276.08 148,-288.25 152.28,-290 156.77,-291.61 161.33,-293.07"/>
<polygon fill="#63b8ff" stroke="#63b8ff" points="160.04,-296.33 170.62,-295.79 162.01,-289.62 160.04,-296.33"/>
</a>
</g>
</g>
<!-- Node5 -->
<g id="Node000005" class="node">
<title>Node5</title>
<g id="a_Node000005"><a xlink:href="class_plugin_1_1_main.html#af8104405e0250de9b48283b2c5085503" target="_top" xlink:title="Turns off the monitor.">
<polygon fill="white" stroke="#666666" points="285.12,-241.88 169.38,-241.88 169.38,-222.62 285.12,-222.62 285.12,-241.88"/>
<text text-anchor="middle" x="227.25" y="-228.38" font-family="Helvetica,sans-Serif" font-size="10.00">Plugin.Main.MonitorOff</text>
</a>
</g>
</g>
<!-- Node1&#45;&gt;Node5 -->
<g id="edge4_Node000001_Node000005" class="edge">
<title>Node1&#45;&gt;Node5</title>
<g id="a_edge4_Node000001_Node000005"><a xlink:title=" ">
<path fill="none" stroke="#63b8ff" d="M112.42,-232.25C126.86,-232.25 142.6,-232.25 157.64,-232.25"/>
<polygon fill="#63b8ff" stroke="#63b8ff" points="157.45,-235.75 167.45,-232.25 157.45,-228.75 157.45,-235.75"/>
</a>
</g>
</g>
<!-- Node7 -->
<g id="Node000007" class="node">
<title>Node7</title>
<g id="a_Node000007"><a xlink:href="class_plugin_1_1_main.html#a148a05c364ed100869fb7a27a9956bad" target="_top" xlink:title="Turns on the monitor.">
<polygon fill="white" stroke="#666666" points="284.75,-204.88 169.75,-204.88 169.75,-185.62 284.75,-185.62 284.75,-204.88"/>
<text text-anchor="middle" x="227.25" y="-191.38" font-family="Helvetica,sans-Serif" font-size="10.00">Plugin.Main.MonitorOn</text>
</a>
</g>
</g>
<!-- Node1&#45;&gt;Node7 -->
<g id="edge6_Node000001_Node000007" class="edge">
<title>Node1&#45;&gt;Node7</title>
<g id="a_edge6_Node000001_Node000007"><a xlink:title=" ">
<path fill="none" stroke="#63b8ff" d="M103.25,-222.14C123.49,-217.71 147.45,-212.48 168.82,-207.8"/>
<polygon fill="#63b8ff" stroke="#63b8ff" points="169.56,-211.23 178.58,-205.67 168.06,-204.39 169.56,-211.23"/>
</a>
</g>
</g>
<!-- Node8 -->
<g id="Node000008" class="node">
<title>Node8</title>
<g id="a_Node000008"><a xlink:href="class_plugin_1_1_main.html#a06056189b04437b375629861d5af36ec" target="_top" xlink:title="Opens the CD tray.">
<polygon fill="white" stroke="#666666" points="289.62,-278.88 164.88,-278.88 164.88,-259.62 289.62,-259.62 289.62,-278.88"/>
<text text-anchor="middle" x="227.25" y="-265.38" font-family="Helvetica,sans-Serif" font-size="10.00">Plugin.Main.OpenCDtray</text>
</a>
</g>
</g>
<!-- Node1&#45;&gt;Node8 -->
<g id="edge8_Node000001_Node000008" class="edge">
<title>Node1&#45;&gt;Node8</title>
<g id="a_edge8_Node000001_Node000008"><a xlink:title=" ">
<path fill="none" stroke="#63b8ff" d="M103.25,-242.36C123.49,-246.79 147.45,-252.02 168.82,-256.7"/>
<polygon fill="#63b8ff" stroke="#63b8ff" points="168.06,-260.11 178.58,-258.83 169.56,-253.27 168.06,-260.11"/>
</a>
</g>
</g>
<!-- Node9 -->
<g id="Node000009" class="node">
<title>Node9</title>
<g id="a_Node000009"><a xlink:href="classxeno__rat__client_1_1_node.html#a5e2f1397fe3500c1f49ae17e4b91cde4" target="_top" xlink:title="Asynchronously receives data from the socket and returns the received data as a byte array.">
<polygon fill="white" stroke="#666666" points="300.88,-167.5 153.62,-167.5 153.62,-137 300.88,-137 300.88,-167.5"/>
<text text-anchor="start" x="161.62" y="-154" font-family="Helvetica,sans-Serif" font-size="10.00">xeno_rat_client.Node.Receive</text>
<text text-anchor="middle" x="227.25" y="-142.75" font-family="Helvetica,sans-Serif" font-size="10.00">Async</text>
</a>
</g>
</g>
<!-- Node1&#45;&gt;Node9 -->
<g id="edge10_Node000001_Node000009" class="edge">
<title>Node1&#45;&gt;Node9</title>
<g id="a_edge10_Node000001_Node000009"><a xlink:title=" ">
<path fill="none" stroke="#63b8ff" d="M70.88,-222.15C88.2,-209.91 119.1,-189.32 148,-176.25 151.37,-174.73 154.86,-173.27 158.41,-171.87"/>
<polygon fill="#63b8ff" stroke="#63b8ff" points="159.61,-175.16 167.78,-168.41 157.19,-168.59 159.61,-175.16"/>
</a>
</g>
</g>
<!-- Node19 -->
<g id="Node000019" class="node">
<title>Node19</title>
<g id="a_Node000019"><a xlink:href="class_plugin_1_1_main.html#a1c02b83e4e68945ab3b59d5355522e65" target="_top" xlink:title="Sets the volume level of the default audio endpoint device.">
<polygon fill="white" stroke="#666666" points="286.25,-100.88 168.25,-100.88 168.25,-81.62 286.25,-81.62 286.25,-100.88"/>
<text text-anchor="middle" x="227.25" y="-87.38" font-family="Helvetica,sans-Serif" font-size="10.00">Plugin.Main.SetVolume</text>
</a>
</g>
</g>
<!-- Node1&#45;&gt;Node19 -->
<g id="edge22_Node000001_Node000019" class="edge">
<title>Node1&#45;&gt;Node19</title>
<g id="a_edge22_Node000001_Node000019"><a xlink:title=" ">
<path fill="none" stroke="#63b8ff" d="M63.68,-222.15C77.41,-202.03 110.67,-156.44 148,-128.25 159.92,-119.25 174.39,-111.66 187.62,-105.74"/>
<polygon fill="#63b8ff" stroke="#63b8ff" points="188.68,-109.09 196.5,-101.95 185.93,-102.65 188.68,-109.09"/>
</a>
</g>
</g>
<!-- Node3 -->
<g id="Node000003" class="node">
<title>Node3</title>
<g id="a_Node000003"><a xlink:href="class_plugin_1_1_main.html#a9333998125c3ae0001e480a6ce641b62" target="_top" xlink:title="Sends a command string to the MCI (Media Control Interface) device driver.">
<polygon fill="white" stroke="#666666" points="489.75,-315.88 356,-315.88 356,-296.62 489.75,-296.62 489.75,-315.88"/>
<text text-anchor="middle" x="422.88" y="-302.38" font-family="Helvetica,sans-Serif" font-size="10.00">Plugin.Main.mciSendString</text>
</a>
</g>
</g>
<!-- Node2&#45;&gt;Node3 -->
<g id="edge2_Node000002_Node000003" class="edge">
<title>Node2&#45;&gt;Node3</title>
<g id="a_edge2_Node000002_Node000003"><a xlink:title=" ">
<path fill="none" stroke="#63b8ff" d="M281.16,-333.14C304.85,-328.61 332.99,-323.23 357.86,-318.48"/>
<polygon fill="#63b8ff" stroke="#63b8ff" points="358.38,-321.95 367.54,-316.63 357.06,-315.07 358.38,-321.95"/>
</a>
</g>
</g>
<!-- Node6 -->
<g id="Node000006" class="node">
<title>Node6</title>
<g id="a_Node000006"><a xlink:href="class_plugin_1_1_main.html#a63d69d054d2ab57a64c3207e7a802390" target="_top" xlink:title="Sends the specified message to a window or windows. The SendMessage function calls the window procedu...">
<polygon fill="white" stroke="#666666" points="489,-241.88 356.75,-241.88 356.75,-222.62 489,-222.62 489,-241.88"/>
<text text-anchor="middle" x="422.88" y="-228.38" font-family="Helvetica,sans-Serif" font-size="10.00">Plugin.Main.SendMessage</text>
</a>
</g>
</g>
<!-- Node5&#45;&gt;Node6 -->
<g id="edge5_Node000005_Node000006" class="edge">
<title>Node5&#45;&gt;Node6</title>
<g id="a_edge5_Node000005_Node000006"><a xlink:title=" ">
<path fill="none" stroke="#63b8ff" d="M285.56,-232.25C304.29,-232.25 325.4,-232.25 345.32,-232.25"/>
<polygon fill="#63b8ff" stroke="#63b8ff" points="345.04,-235.75 355.04,-232.25 345.04,-228.75 345.04,-235.75"/>
</a>
</g>
</g>
<!-- Node7&#45;&gt;Node6 -->
<g id="edge7_Node000007_Node000006" class="edge">
<title>Node7&#45;&gt;Node6</title>
<g id="a_edge7_Node000007_Node000006"><a xlink:title=" ">
<path fill="none" stroke="#63b8ff" d="M281.16,-205.36C304.85,-209.89 332.99,-215.27 357.86,-220.02"/>
<polygon fill="#63b8ff" stroke="#63b8ff" points="357.06,-223.43 367.54,-221.87 358.38,-216.55 357.06,-223.43"/>
</a>
</g>
</g>
<!-- Node8&#45;&gt;Node3 -->
<g id="edge9_Node000008_Node000003" class="edge">
<title>Node8&#45;&gt;Node3</title>
<g id="a_edge9_Node000008_Node000003"><a xlink:title=" ">
<path fill="none" stroke="#63b8ff" d="M281.16,-279.36C304.85,-283.89 332.99,-289.27 357.86,-294.02"/>
<polygon fill="#63b8ff" stroke="#63b8ff" points="357.06,-297.43 367.54,-295.87 358.38,-290.55 357.06,-297.43"/>
</a>
</g>
</g>
<!-- Node10 -->
<g id="Node000010" class="node">
<title>Node10</title>
<g id="a_Node000010"><a xlink:href="classxeno__rat__client_1_1_node.html#aed8a6b3de6ee0efa48945c8b1e6c763e" target="_top" xlink:title="Disconnects the current socket and clears the subNodes list, and invokes the OnDisconnect event if it...">
<polygon fill="white" stroke="#666666" points="503.25,-186.88 342.5,-186.88 342.5,-167.62 503.25,-167.62 503.25,-186.88"/>
<text text-anchor="middle" x="422.88" y="-173.38" font-family="Helvetica,sans-Serif" font-size="10.00">xeno_rat_client.Node.Disconnect</text>
</a>
</g>
</g>
<!-- Node9&#45;&gt;Node10 -->
<g id="edge11_Node000009_Node000010" class="edge">
<title>Node9&#45;&gt;Node10</title>
<g id="a_edge11_Node000009_Node000010"><a xlink:title=" ">
<path fill="none" stroke="#63b8ff" d="M301.18,-161.67C311.33,-162.98 321.86,-164.34 332.28,-165.68"/>
<polygon fill="#63b8ff" stroke="#63b8ff" points="331.65,-169.13 342.01,-166.94 332.54,-162.19 331.65,-169.13"/>
</a>
</g>
</g>
<!-- Node11 -->
<g id="Node000011" class="node">
<title>Node11</title>
<g id="a_Node000011"><a xlink:href="classxeno__rat__client_1_1_socket_handler.html#ac05e4943d4ffdb6a72fa80e8f4bbede6" target="_top" xlink:title="Asynchronously receives data and performs various operations on it, such as decryption,...">
<polygon fill="white" stroke="#666666" points="498.75,-149.5 347,-149.5 347,-119 498.75,-119 498.75,-149.5"/>
<text text-anchor="start" x="355" y="-136" font-family="Helvetica,sans-Serif" font-size="10.00">xeno_rat_client.SocketHandler.</text>
<text text-anchor="middle" x="422.88" y="-124.75" font-family="Helvetica,sans-Serif" font-size="10.00">ReceiveAsync</text>
</a>
</g>
</g>
<!-- Node9&#45;&gt;Node11 -->
<g id="edge13_Node000009_Node000011" class="edge">
<title>Node9&#45;&gt;Node11</title>
<g id="a_edge13_Node000009_Node000011"><a xlink:title=" ">
<path fill="none" stroke="#63b8ff" d="M301.18,-145.47C312.35,-144.43 323.98,-143.35 335.41,-142.29"/>
<polygon fill="#63b8ff" stroke="#63b8ff" points="335.62,-145.78 345.25,-141.37 334.97,-138.81 335.62,-145.78"/>
</a>
</g>
</g>
<!-- Node10&#45;&gt;Node10 -->
<g id="edge12_Node000010_Node000010" class="edge">
<title>Node10&#45;&gt;Node10</title>
<g id="a_edge12_Node000010_Node000010"><a xlink:title=" ">
<path fill="none" stroke="#63b8ff" d="M392.78,-187.16C379.05,-195.77 389.08,-204.88 422.88,-204.88 442.41,-204.88 454.01,-201.83 457.66,-197.6"/>
<polygon fill="#63b8ff" stroke="#63b8ff" points="460.88,-196.23 453.59,-188.54 454.5,-199.1 460.88,-196.23"/>
</a>
</g>
</g>
<!-- Node12 -->
<g id="Node000012" class="node">
<title>Node12</title>
<g id="a_Node000012"><a xlink:href="classxeno__rat__client_1_1_socket_handler.html#a08263821429a6c263085688a2b716f44" target="_top" xlink:title="Truncates the input byte array from the specified offset and returns the truncated byte array.">
<polygon fill="white" stroke="#666666" points="691,-263.5 539.25,-263.5 539.25,-233 691,-233 691,-263.5"/>
<text text-anchor="start" x="547.25" y="-250" font-family="Helvetica,sans-Serif" font-size="10.00">xeno_rat_client.SocketHandler.</text>
<text text-anchor="middle" x="615.12" y="-238.75" font-family="Helvetica,sans-Serif" font-size="10.00">BTruncate</text>
</a>
</g>
</g>
<!-- Node11&#45;&gt;Node12 -->
<g id="edge14_Node000011_Node000012" class="edge">
<title>Node11&#45;&gt;Node12</title>
<g id="a_edge14_Node000011_Node000012"><a xlink:title=" ">
<path fill="none" stroke="#63b8ff" d="M490.44,-149.95C495,-152.34 499.33,-155.08 503.25,-158.25 528.94,-179 513.86,-202.14 539.25,-223.25 540.74,-224.48 542.28,-225.66 543.88,-226.78"/>
<polygon fill="#63b8ff" stroke="#63b8ff" points="541.87,-229.65 552.24,-231.79 545.47,-223.64 541.87,-229.65"/>
</a>
</g>
</g>
<!-- Node13 -->
<g id="Node000013" class="node">
<title>Node13</title>
<g id="a_Node000013"><a xlink:href="classxeno__rat__client_1_1_socket_handler.html#a14771b2d7d9b62c512e15fbd3f7eed2d" target="_top" xlink:title="Converts the specified byte array to an integer.">
<polygon fill="white" stroke="#666666" points="878.75,-122.5 727,-122.5 727,-92 878.75,-92 878.75,-122.5"/>
<text text-anchor="start" x="735" y="-109" font-family="Helvetica,sans-Serif" font-size="10.00">xeno_rat_client.SocketHandler.</text>
<text text-anchor="middle" x="802.88" y="-97.75" font-family="Helvetica,sans-Serif" font-size="10.00">BytesToInt</text>
</a>
</g>
</g>
<!-- Node11&#45;&gt;Node13 -->
<g id="edge15_Node000011_Node000013" class="edge">
<title>Node11&#45;&gt;Node13</title>
<g id="a_edge15_Node000011_Node000013"><a xlink:title=" ">
<path fill="none" stroke="#63b8ff" d="M499.06,-140.81C552.78,-144.1 626.64,-145.8 691,-137.25 708.43,-134.93 727.01,-130.65 743.88,-126.04"/>
<polygon fill="#63b8ff" stroke="#63b8ff" points="744.56,-129.48 753.23,-123.38 742.65,-122.75 744.56,-129.48"/>
</a>
</g>
</g>
<!-- Node14 -->
<g id="Node000014" class="node">
<title>Node14</title>
<g id="a_Node000014"><a xlink:href="classxeno__rat__client_1_1_compression.html#a77db1a3658cab9e1ded20775b02584ad" target="_top" xlink:title="Decompresses the input buffer using the LZNT1 compression format and returns the decompressed data.">
<polygon fill="white" stroke="#666666" points="688,-214.5 542.25,-214.5 542.25,-184 688,-184 688,-214.5"/>
<text text-anchor="start" x="550.25" y="-201" font-family="Helvetica,sans-Serif" font-size="10.00">xeno_rat_client.Compression.</text>
<text text-anchor="middle" x="615.12" y="-189.75" font-family="Helvetica,sans-Serif" font-size="10.00">Decompress</text>
</a>
</g>
</g>
<!-- Node11&#45;&gt;Node14 -->
<g id="edge16_Node000011_Node000014" class="edge">
<title>Node11&#45;&gt;Node14</title>
<g id="a_edge16_Node000011_Node000014"><a xlink:title=" ">
<path fill="none" stroke="#63b8ff" d="M477.39,-149.95C486.06,-152.63 494.92,-155.45 503.25,-158.25 522.85,-164.83 544.19,-172.58 562.87,-179.56"/>
<polygon fill="#63b8ff" stroke="#63b8ff" points="561.52,-182.79 572.11,-183.03 563.98,-176.24 561.52,-182.79"/>
</a>
</g>
</g>
<!-- Node16 -->
<g id="Node000016" class="node">
<title>Node16</title>
<g id="a_Node000016"><a xlink:href="classxeno__rat__client_1_1_encryption.html#ae86cb9fa23f767be0a3c99e369ecbd30" target="_top" xlink:title="Decrypts the input data using the provided key and returns the decrypted result.">
<polygon fill="white" stroke="#666666" points="682.38,-128.5 547.88,-128.5 547.88,-98 682.38,-98 682.38,-128.5"/>
<text text-anchor="start" x="555.88" y="-115" font-family="Helvetica,sans-Serif" font-size="10.00">xeno_rat_client.Encryption.</text>
<text text-anchor="middle" x="615.12" y="-103.75" font-family="Helvetica,sans-Serif" font-size="10.00">Decrypt</text>
</a>
</g>
</g>
<!-- Node11&#45;&gt;Node16 -->
<g id="edge18_Node000011_Node000016" class="edge">
<title>Node11&#45;&gt;Node16</title>
<g id="a_edge18_Node000011_Node000016"><a xlink:title=" ">
<path fill="none" stroke="#63b8ff" d="M499.07,-125.95C511.31,-124.6 524.02,-123.2 536.33,-121.84"/>
<polygon fill="#63b8ff" stroke="#63b8ff" points="536.43,-125.35 545.99,-120.77 535.66,-118.39 536.43,-125.35"/>
</a>
</g>
</g>
<!-- Node17 -->
<g id="Node000017" class="node">
<title>Node17</title>
<g id="a_Node000017"><a xlink:href="classxeno__rat__client_1_1_socket_handler.html#a77529cf89708fc6f487cd2aaac7e9bac" target="_top" xlink:title="Parses the header from the given byte array and returns the header information.">
<polygon fill="white" stroke="#666666" points="691,-79.5 539.25,-79.5 539.25,-49 691,-49 691,-79.5"/>
<text text-anchor="start" x="547.25" y="-66" font-family="Helvetica,sans-Serif" font-size="10.00">xeno_rat_client.SocketHandler.</text>
<text text-anchor="middle" x="615.12" y="-54.75" font-family="Helvetica,sans-Serif" font-size="10.00">ParseHeader</text>
</a>
</g>
</g>
<!-- Node11&#45;&gt;Node17 -->
<g id="edge19_Node000011_Node000017" class="edge">
<title>Node11&#45;&gt;Node17</title>
<g id="a_edge19_Node000011_Node000017"><a xlink:title=" ">
<path fill="none" stroke="#63b8ff" d="M481.68,-118.51C489.04,-116.01 496.39,-113.24 503.25,-110.25 520.23,-102.85 522.38,-96.89 539.25,-89.25 543.28,-87.43 547.48,-85.66 551.75,-83.98"/>
<polygon fill="#63b8ff" stroke="#63b8ff" points="552.89,-87.29 561.02,-80.49 550.43,-80.74 552.89,-87.29"/>
</a>
</g>
</g>
<!-- Node18 -->
<g id="Node000018" class="node">
<title>Node18</title>
<g id="a_Node000018"><a xlink:href="classxeno__rat__client_1_1_socket_handler.html#a8be64178ac717030dea4dbcea7937a83" target="_top" xlink:title="Asynchronously receives all the data of the specified size from the connected socket and returns it a...">
<polygon fill="white" stroke="#666666" points="691,-30.5 539.25,-30.5 539.25,0 691,0 691,-30.5"/>
<text text-anchor="start" x="547.25" y="-17" font-family="Helvetica,sans-Serif" font-size="10.00">xeno_rat_client.SocketHandler.</text>
<text text-anchor="middle" x="615.12" y="-5.75" font-family="Helvetica,sans-Serif" font-size="10.00">RecvAllAsync_ddos_unsafer</text>
</a>
</g>
</g>
<!-- Node11&#45;&gt;Node18 -->
<g id="edge21_Node000011_Node000018" class="edge">
<title>Node11&#45;&gt;Node18</title>
<g id="a_edge21_Node000011_Node000018"><a xlink:title=" ">
<path fill="none" stroke="#63b8ff" d="M490.55,-118.68C495.08,-116.27 499.38,-113.48 503.25,-110.25 530.13,-87.85 512.7,-63.03 539.25,-40.25 540.55,-39.13 541.9,-38.07 543.3,-37.05"/>
<polygon fill="#63b8ff" stroke="#63b8ff" points="545.12,-40.04 551.76,-31.79 541.42,-34.09 545.12,-40.04"/>
</a>
</g>
</g>
<!-- Node15 -->
<g id="Node000015" class="node">
<title>Node15</title>
<g id="a_Node000015"><a xlink:href="classxeno__rat__client_1_1_compression.html#a9fe0a6ed3a221d799c7e1a7ba004d5fd" target="_top" xlink:title="Decompresses a buffer using the specified compression format and returns the decompressed data.">
<polygon fill="white" stroke="#666666" points="875.75,-214.5 730,-214.5 730,-184 875.75,-184 875.75,-214.5"/>
<text text-anchor="start" x="738" y="-201" font-family="Helvetica,sans-Serif" font-size="10.00">xeno_rat_client.Compression.</text>
<text text-anchor="middle" x="802.88" y="-189.75" font-family="Helvetica,sans-Serif" font-size="10.00">RtlDecompressBuffer</text>
</a>
</g>
</g>
<!-- Node14&#45;&gt;Node15 -->
<g id="edge17_Node000014_Node000015" class="edge">
<title>Node14&#45;&gt;Node15</title>
<g id="a_edge17_Node000014_Node000015"><a xlink:title=" ">
<path fill="none" stroke="#63b8ff" d="M688.47,-199.25C698.32,-199.25 708.48,-199.25 718.5,-199.25"/>
<polygon fill="#63b8ff" stroke="#63b8ff" points="718.21,-202.75 728.21,-199.25 718.21,-195.75 718.21,-202.75"/>
</a>
</g>
</g>
<!-- Node17&#45;&gt;Node13 -->
<g id="edge20_Node000017_Node000013" class="edge">
<title>Node17&#45;&gt;Node13</title>
<g id="a_edge20_Node000017_Node000013"><a xlink:title=" ">
<path fill="none" stroke="#63b8ff" d="M683.97,-79.96C696.56,-82.87 709.81,-85.94 722.69,-88.92"/>
<polygon fill="#63b8ff" stroke="#63b8ff" points="721.89,-92.33 732.43,-91.17 723.47,-85.51 721.89,-92.33"/>
</a>
</g>
</g>
<!-- Node20 -->
<g id="Node000020" class="node">
<title>Node20</title>
<g id="a_Node000020"><a xlink:href="interface_plugin_1_1_i_m_m_device.html#aabac56df04525da89366f6ea06fef5a8" target="_top" xlink:title=" ">
<polygon fill="white" stroke="#666666" points="490.5,-100.88 355.25,-100.88 355.25,-81.62 490.5,-81.62 490.5,-100.88"/>
<text text-anchor="middle" x="422.88" y="-87.38" font-family="Helvetica,sans-Serif" font-size="10.00">Plugin.IMMDevice.Activate</text>
</a>
</g>
</g>
<!-- Node19&#45;&gt;Node20 -->
<g id="edge23_Node000019_Node000020" class="edge">
<title>Node19&#45;&gt;Node20</title>
<g id="a_edge23_Node000019_Node000020"><a xlink:title=" ">
<path fill="none" stroke="#63b8ff" d="M286.61,-91.25C304.49,-91.25 324.46,-91.25 343.45,-91.25"/>
<polygon fill="#63b8ff" stroke="#63b8ff" points="343.29,-94.75 353.29,-91.25 343.29,-87.75 343.29,-94.75"/>
</a>
</g>
</g>
<!-- Node21 -->
<g id="Node000021" class="node">
<title>Node21</title>
<g id="a_Node000021"><a xlink:href="interface_plugin_1_1_i_audio_endpoint_volume.html#ae7920f36d492961914fbf2237708aed5" target="_top" xlink:title=" ">
<polygon fill="white" stroke="#666666" points="496.88,-63.5 348.88,-63.5 348.88,-33 496.88,-33 496.88,-63.5"/>
<text text-anchor="start" x="356.88" y="-50" font-family="Helvetica,sans-Serif" font-size="10.00">Plugin.IAudioEndpointVolume.</text>
<text text-anchor="middle" x="422.88" y="-38.75" font-family="Helvetica,sans-Serif" font-size="10.00">SetMasterVolumeLevelScalar</text>
</a>
</g>
</g>
<!-- Node19&#45;&gt;Node21 -->
<g id="edge24_Node000019_Node000021" class="edge">
<title>Node19&#45;&gt;Node21</title>
<g id="a_edge24_Node000019_Node000021"><a xlink:title=" ">
<path fill="none" stroke="#63b8ff" d="M273.65,-81.17C293.43,-76.77 317.26,-71.48 339.96,-66.44"/>
<polygon fill="#63b8ff" stroke="#63b8ff" points="340.52,-69.9 349.52,-64.32 339,-63.07 340.52,-69.9"/>
</a>
</g>
</g>
</g>
</svg>

<g id="navigator" transform="translate(0 0)" fill="#404254">
  <rect fill="#f2f5e9" fill-opacity="0.5" stroke="#606060" stroke-width=".5" x="0" y="0" width="60" height="60"/>
  <use id="zoomplus" xlink:href="#zoomPlus" x="17" y="9" onmousedown="handleZoom(evt,'in')"/>
  <use id="zoomminus" xlink:href="#zoomMin" x="42" y="9" onmousedown="handleZoom(evt,'out')"/>
  <use id="reset" xlink:href="#resetDef" x="30" y="36" onmousedown="handleReset()"/>
   <use id="arrowup" xlink:href="#arrowUp" x="0" y="0" onmousedown="handlePan(0,-1)"/>
  <use id="arrowright" xlink:href="#arrowRight" x="0" y="0" onmousedown="handlePan(1,0)"/>
  <use id="arrowdown" xlink:href="#arrowDown" x="0" y="0" onmousedown="handlePan(0,1)"/>
  <use id="arrowleft" xlink:href="#arrowLeft" x="0" y="0" onmousedown="handlePan(-1,0)"/>
</g>
<svg viewBox="0 0 15 15" width="100%" height="30px" preserveAspectRatio="xMaxYMin meet">
 <g id="arrow_out" transform="scale(0.3 0.3)">
  <a xlink:href="class_plugin_1_1_main_a0e6e68e33adc30ba69d88b3a02dca906_cgraph_org.svg" target="_base">
   <rect id="button" ry="5" rx="5" y="6" x="6" height="38" width="38"
        fill="#f2f5e9" fill-opacity="0.5" stroke="#606060" stroke-width="1.0"/>
   <path id="arrow"
     d="M 11.500037,31.436501 C 11.940474,20.09759 22.043105,11.32322 32.158766,21.979434 L 37.068811,17.246167 C 37.068811,17.246167 37.088388,32 37.088388,32 L 22.160133,31.978069 C 22.160133,31.978069 26.997745,27.140456 26.997745,27.140456 C 18.528582,18.264221 13.291696,25.230495 11.500037,31.436501 z"
     style="fill:#404040;"/>
  </a>
 </g>
</svg>

<style type='text/css'>
<![CDATA[
[data-mouse-over-selected='false'] { opacity: 0.7; }
[data-mouse-over-selected='true']  { opacity: 1.0; }
]]>
</style>
<script type="application/ecmascript"><![CDATA[
document.addEventListener('DOMContentLoaded', (event) => {
  highlightEdges();
  highlightAdjacentNodes();
});
]]></script>
</svg>
