<?xml version="1.0" encoding="UTF-8" standalone="no"?>
<!DOCTYPE svg PUBLIC "-//W3C//DTD SVG 1.1//EN"
 "http://www.w3.org/Graphics/SVG/1.1/DTD/svg11.dtd">
<!-- Generated by graphviz version 10.0.1 (20240210.2158)
 -->
<!-- Title: xeno_rat_server.Forms.ScreenControl.InitializeComponent Pages: 1 -->
<svg width="384pt" height="893pt"
 viewBox="0.00 0.00 383.50 892.50" xmlns="http://www.w3.org/2000/svg" xmlns:xlink="http://www.w3.org/1999/xlink">
<g id="graph0" class="graph" transform="scale(1 1) rotate(0) translate(4 888.5)">
<title>xeno_rat_server.Forms.ScreenControl.InitializeComponent</title>
<!-- Node1 -->
<g id="Node000001" class="node">
<title>Node1</title>
<g id="a_Node000001"><a xlink:title="Initializes the components of the form including picture box, combo boxes, buttons,...">
<polygon fill="#999999" stroke="#666666" points="149.5,-446.5 0,-446.5 0,-416 149.5,-416 149.5,-446.5"/>
<text text-anchor="start" x="8" y="-433" font-family="Helvetica,sans-Serif" font-size="10.00">xeno_rat_server.Forms.Screen</text>
<text text-anchor="middle" x="74.75" y="-421.75" font-family="Helvetica,sans-Serif" font-size="10.00">Control.InitializeComponent</text>
</a>
</g>
</g>
<!-- Node2 -->
<g id="Node000002" class="node">
<title>Node2</title>
<g id="a_Node000002"><a xlink:href="classxeno__rat__server_1_1_forms_1_1_screen_control.html#aae33bcd840368837fce393af3459b05e" target="_top" xlink:title="Asynchronously refreshes the monsters.">
<polygon fill="white" stroke="#666666" points="355.25,-884.5 205.75,-884.5 205.75,-854 355.25,-854 355.25,-884.5"/>
<text text-anchor="start" x="213.75" y="-871" font-family="Helvetica,sans-Serif" font-size="10.00">xeno_rat_server.Forms.Screen</text>
<text text-anchor="middle" x="280.5" y="-859.75" font-family="Helvetica,sans-Serif" font-size="10.00">Control.button1_Click</text>
</a>
</g>
</g>
<!-- Node1&#45;&gt;Node2 -->
<g id="edge1_Node000001_Node000002" class="edge">
<title>Node1&#45;&gt;Node2</title>
<g id="a_edge1_Node000001_Node000002"><a xlink:title=" ">
<path fill="none" stroke="#63b8ff" d="M77.77,-446.69C86.96,-514.57 126.88,-785.62 185.5,-844.25 188.54,-847.3 191.92,-849.98 195.52,-852.35"/>
<polygon fill="#63b8ff" stroke="#63b8ff" points="193.76,-855.38 204.2,-857.17 197.16,-849.26 193.76,-855.38"/>
</a>
</g>
</g>
<!-- Node3 -->
<g id="Node000003" class="node">
<title>Node3</title>
<g id="a_Node000003"><a xlink:href="classxeno__rat__server_1_1_forms_1_1_screen_control.html#a6ba5e20df4cde7efe76101aabdb2f6e2" target="_top" xlink:title="Initiates the start method asynchronously and sets the &#39;playing&#39; flag to true.">
<polygon fill="white" stroke="#666666" points="355.25,-835.5 205.75,-835.5 205.75,-805 355.25,-805 355.25,-835.5"/>
<text text-anchor="start" x="213.75" y="-822" font-family="Helvetica,sans-Serif" font-size="10.00">xeno_rat_server.Forms.Screen</text>
<text text-anchor="middle" x="280.5" y="-810.75" font-family="Helvetica,sans-Serif" font-size="10.00">Control.button2_Click</text>
</a>
</g>
</g>
<!-- Node1&#45;&gt;Node3 -->
<g id="edge2_Node000001_Node000003" class="edge">
<title>Node1&#45;&gt;Node3</title>
<g id="a_edge2_Node000001_Node000003"><a xlink:title=" ">
<path fill="none" stroke="#63b8ff" d="M75.45,-446.7C75.25,-502.48 82.33,-695.42 185.5,-795.25 188.59,-798.24 192.01,-800.89 195.64,-803.23"/>
<polygon fill="#63b8ff" stroke="#63b8ff" points="193.93,-806.28 204.38,-808 197.28,-800.14 193.93,-806.28"/>
</a>
</g>
</g>
<!-- Node4 -->
<g id="Node000004" class="node">
<title>Node4</title>
<g id="a_Node000004"><a xlink:href="classxeno__rat__server_1_1_forms_1_1_screen_control.html#ad97f01a0c239ea9166fb56b2bbd6ec5f" target="_top" xlink:title="Stops the current operation and sets the &#39;playing&#39; flag to false.">
<polygon fill="white" stroke="#666666" points="355.25,-786.5 205.75,-786.5 205.75,-756 355.25,-756 355.25,-786.5"/>
<text text-anchor="start" x="213.75" y="-773" font-family="Helvetica,sans-Serif" font-size="10.00">xeno_rat_server.Forms.Screen</text>
<text text-anchor="middle" x="280.5" y="-761.75" font-family="Helvetica,sans-Serif" font-size="10.00">Control.button3_Click</text>
</a>
</g>
</g>
<!-- Node1&#45;&gt;Node4 -->
<g id="edge3_Node000001_Node000004" class="edge">
<title>Node1&#45;&gt;Node4</title>
<g id="a_edge3_Node000001_Node000004"><a xlink:title=" ">
<path fill="none" stroke="#63b8ff" d="M76.29,-446.74C78.92,-497.71 94.42,-661.78 185.5,-746.25 188.59,-749.12 191.97,-751.66 195.56,-753.92"/>
<polygon fill="#63b8ff" stroke="#63b8ff" points="193.68,-756.88 204.15,-758.54 197,-750.72 193.68,-756.88"/>
</a>
</g>
</g>
<!-- Node5 -->
<g id="Node000005" class="node">
<title>Node5</title>
<g id="a_Node000005"><a xlink:href="classxeno__rat__server_1_1_forms_1_1_screen_control.html#a24dec7c956afd18d163da2aa7a9bc912" target="_top" xlink:title="Handles the CheckedChanged event of checkBox1 and updates the text based on the checked state.">
<polygon fill="white" stroke="#666666" points="371.75,-737.5 189.25,-737.5 189.25,-707 371.75,-707 371.75,-737.5"/>
<text text-anchor="start" x="197.25" y="-724" font-family="Helvetica,sans-Serif" font-size="10.00">xeno_rat_server.Forms.Screen</text>
<text text-anchor="middle" x="280.5" y="-712.75" font-family="Helvetica,sans-Serif" font-size="10.00">Control.checkBox1_CheckedChanged</text>
</a>
</g>
</g>
<!-- Node1&#45;&gt;Node5 -->
<g id="edge4_Node000001_Node000005" class="edge">
<title>Node1&#45;&gt;Node5</title>
<g id="a_edge4_Node000001_Node000005"><a xlink:title=" ">
<path fill="none" stroke="#63b8ff" d="M77.37,-447C82.99,-493.13 105.87,-629.05 185.5,-698.25 186.31,-698.95 187.13,-699.63 187.97,-700.29"/>
<polygon fill="#63b8ff" stroke="#63b8ff" points="186.02,-703.2 196.28,-705.82 189.9,-697.37 186.02,-703.2"/>
</a>
</g>
</g>
<!-- Node6 -->
<g id="Node000006" class="node">
<title>Node6</title>
<g id="a_Node000006"><a xlink:href="classxeno__rat__server_1_1_forms_1_1_screen_control.html#af7cd3256850e15a95d6f91908cb23dcd" target="_top" xlink:title="Handles the SelectedIndexChanged event of comboBox1.">
<polygon fill="white" stroke="#666666" points="365.38,-689.12 195.62,-689.12 195.62,-647.38 365.38,-647.38 365.38,-689.12"/>
<text text-anchor="start" x="203.62" y="-675.62" font-family="Helvetica,sans-Serif" font-size="10.00">xeno_rat_server.Forms.Screen</text>
<text text-anchor="start" x="203.62" y="-664.38" font-family="Helvetica,sans-Serif" font-size="10.00">Control.comboBox1_SelectedIndex</text>
<text text-anchor="middle" x="280.5" y="-653.12" font-family="Helvetica,sans-Serif" font-size="10.00">Changed</text>
</a>
</g>
</g>
<!-- Node1&#45;&gt;Node6 -->
<g id="edge5_Node000001_Node000006" class="edge">
<title>Node1&#45;&gt;Node6</title>
<g id="a_edge5_Node000001_Node000006"><a xlink:title=" ">
<path fill="none" stroke="#63b8ff" d="M79.61,-446.82C89.94,-485.19 121.83,-585.04 185.5,-638.25 186.61,-639.18 187.75,-640.08 188.91,-640.95"/>
<polygon fill="#63b8ff" stroke="#63b8ff" points="186.74,-643.71 197.02,-646.26 190.58,-637.85 186.74,-643.71"/>
</a>
</g>
</g>
<!-- Node7 -->
<g id="Node000007" class="node">
<title>Node7</title>
<g id="a_Node000007"><a xlink:href="classxeno__rat__server_1_1_forms_1_1_screen_control.html#ab29d17cb1e30fa824fe9120ed9a9d921" target="_top" xlink:title="Handles the SelectedIndexChanged event of comboBox2. Sets the quality based on the selected index in ...">
<polygon fill="white" stroke="#666666" points="365.38,-629.12 195.62,-629.12 195.62,-587.38 365.38,-587.38 365.38,-629.12"/>
<text text-anchor="start" x="203.62" y="-615.62" font-family="Helvetica,sans-Serif" font-size="10.00">xeno_rat_server.Forms.Screen</text>
<text text-anchor="start" x="203.62" y="-604.38" font-family="Helvetica,sans-Serif" font-size="10.00">Control.comboBox2_SelectedIndex</text>
<text text-anchor="middle" x="280.5" y="-593.12" font-family="Helvetica,sans-Serif" font-size="10.00">Changed</text>
</a>
</g>
</g>
<!-- Node1&#45;&gt;Node7 -->
<g id="edge6_Node000001_Node000007" class="edge">
<title>Node1&#45;&gt;Node7</title>
<g id="a_edge6_Node000001_Node000007"><a xlink:title=" ">
<path fill="none" stroke="#63b8ff" d="M83.09,-446.63C98.1,-476.46 135.18,-542.39 185.5,-578.25 187.08,-579.38 188.71,-580.46 190.37,-581.51"/>
<polygon fill="#63b8ff" stroke="#63b8ff" points="188.51,-584.48 198.94,-586.34 191.95,-578.38 188.51,-584.48"/>
</a>
</g>
</g>
<!-- Node8 -->
<g id="Node000008" class="node">
<title>Node8</title>
<g id="a_Node000008"><a xlink:href="classxeno__rat__server_1_1_forms_1_1_screen_control.html#a350c17defcad07a8733a0599a4a87543" target="_top" xlink:title="Event handler for the Click event of pictureBox1.">
<polygon fill="white" stroke="#666666" points="355.25,-569.5 205.75,-569.5 205.75,-539 355.25,-539 355.25,-569.5"/>
<text text-anchor="start" x="213.75" y="-556" font-family="Helvetica,sans-Serif" font-size="10.00">xeno_rat_server.Forms.Screen</text>
<text text-anchor="middle" x="280.5" y="-544.75" font-family="Helvetica,sans-Serif" font-size="10.00">Control.pictureBox1_Click</text>
</a>
</g>
</g>
<!-- Node1&#45;&gt;Node8 -->
<g id="edge7_Node000001_Node000008" class="edge">
<title>Node1&#45;&gt;Node8</title>
<g id="a_edge7_Node000001_Node000008"><a xlink:title=" ">
<path fill="none" stroke="#63b8ff" d="M88.96,-446.99C108.05,-468.72 145.48,-507.67 185.5,-529.25 188.95,-531.11 192.55,-532.84 196.23,-534.44"/>
<polygon fill="#63b8ff" stroke="#63b8ff" points="194.83,-537.65 205.42,-538.09 197.41,-531.14 194.83,-537.65"/>
</a>
</g>
</g>
<!-- Node9 -->
<g id="Node000009" class="node">
<title>Node9</title>
<g id="a_Node000009"><a xlink:href="classxeno__rat__server_1_1_forms_1_1_screen_control.html#a01c3958ce7af9dbf49c3a18cceec631f" target="_top" xlink:title="Handles the mouse click event on pictureBox1 by sending the coordinates and opcode to the server.">
<polygon fill="white" stroke="#666666" points="360.12,-520.5 200.88,-520.5 200.88,-490 360.12,-490 360.12,-520.5"/>
<text text-anchor="start" x="208.88" y="-507" font-family="Helvetica,sans-Serif" font-size="10.00">xeno_rat_server.Forms.Screen</text>
<text text-anchor="middle" x="280.5" y="-495.75" font-family="Helvetica,sans-Serif" font-size="10.00">Control.pictureBox1_MouseClick</text>
</a>
</g>
</g>
<!-- Node1&#45;&gt;Node9 -->
<g id="edge8_Node000001_Node000009" class="edge">
<title>Node1&#45;&gt;Node9</title>
<g id="a_edge8_Node000001_Node000009"><a xlink:title=" ">
<path fill="none" stroke="#63b8ff" d="M107.38,-446.99C129.01,-457.36 158.55,-470.72 185.5,-480.25 191.52,-482.38 197.81,-484.42 204.16,-486.36"/>
<polygon fill="#63b8ff" stroke="#63b8ff" points="202.83,-489.62 213.41,-489.09 204.81,-482.91 202.83,-489.62"/>
</a>
</g>
</g>
<!-- Node10 -->
<g id="Node000010" class="node">
<title>Node10</title>
<g id="a_Node000010"><a xlink:href="classxeno__rat__server_1_1_forms_1_1_screen_control.html#a9d901f8e439d8e7f89d1ec0e1b2b0834" target="_top" xlink:title="Handles the double&#45;click event on the picture box.">
<polygon fill="white" stroke="#666666" points="375.5,-471.5 185.5,-471.5 185.5,-441 375.5,-441 375.5,-471.5"/>
<text text-anchor="start" x="193.5" y="-458" font-family="Helvetica,sans-Serif" font-size="10.00">xeno_rat_server.Forms.Screen</text>
<text text-anchor="middle" x="280.5" y="-446.75" font-family="Helvetica,sans-Serif" font-size="10.00">Control.pictureBox1_MouseDoubleClick</text>
</a>
</g>
</g>
<!-- Node1&#45;&gt;Node10 -->
<g id="edge9_Node000001_Node000010" class="edge">
<title>Node1&#45;&gt;Node10</title>
<g id="a_edge9_Node000001_Node000010"><a xlink:title=" ">
<path fill="none" stroke="#63b8ff" d="M149.88,-440.35C157.7,-441.3 165.74,-442.29 173.82,-443.28"/>
<polygon fill="#63b8ff" stroke="#63b8ff" points="173.39,-446.76 183.74,-444.5 174.24,-439.81 173.39,-446.76"/>
</a>
</g>
</g>
<!-- Node11 -->
<g id="Node000011" class="node">
<title>Node11</title>
<g id="a_Node000011"><a xlink:href="classxeno__rat__server_1_1_forms_1_1_screen_control.html#a985c13f859ad71ccf4dbb544fa797073" target="_top" xlink:title="Handles the mouse down event for pictureBox1.">
<polygon fill="white" stroke="#666666" points="361.62,-422.5 199.38,-422.5 199.38,-392 361.62,-392 361.62,-422.5"/>
<text text-anchor="start" x="207.38" y="-409" font-family="Helvetica,sans-Serif" font-size="10.00">xeno_rat_server.Forms.Screen</text>
<text text-anchor="middle" x="280.5" y="-397.75" font-family="Helvetica,sans-Serif" font-size="10.00">Control.pictureBox1_MouseDown</text>
</a>
</g>
</g>
<!-- Node1&#45;&gt;Node11 -->
<g id="edge10_Node000001_Node000011" class="edge">
<title>Node1&#45;&gt;Node11</title>
<g id="a_edge10_Node000001_Node000011"><a xlink:title=" ">
<path fill="none" stroke="#63b8ff" d="M149.88,-422.52C162.21,-421.07 175.11,-419.55 187.81,-418.05"/>
<polygon fill="#63b8ff" stroke="#63b8ff" points="187.86,-421.57 197.38,-416.92 187.04,-414.62 187.86,-421.57"/>
</a>
</g>
</g>
<!-- Node12 -->
<g id="Node000012" class="node">
<title>Node12</title>
<g id="a_Node000012"><a xlink:href="classxeno__rat__server_1_1_forms_1_1_screen_control.html#a4d5a3289d3fb3448f98bfc340b69232d" target="_top" xlink:title="Handles the mouse movement event for pictureBox1.">
<polygon fill="white" stroke="#666666" points="360.88,-373.5 200.12,-373.5 200.12,-343 360.88,-343 360.88,-373.5"/>
<text text-anchor="start" x="208.12" y="-360" font-family="Helvetica,sans-Serif" font-size="10.00">xeno_rat_server.Forms.Screen</text>
<text text-anchor="middle" x="280.5" y="-348.75" font-family="Helvetica,sans-Serif" font-size="10.00">Control.pictureBox1_MouseMove</text>
</a>
</g>
</g>
<!-- Node1&#45;&gt;Node12 -->
<g id="edge11_Node000001_Node000012" class="edge">
<title>Node1&#45;&gt;Node12</title>
<g id="a_edge11_Node000001_Node000012"><a xlink:title=" ">
<path fill="none" stroke="#63b8ff" d="M107.89,-415.65C129.49,-405.54 158.8,-392.58 185.5,-383.25 191.58,-381.13 197.93,-379.08 204.34,-377.14"/>
<polygon fill="#63b8ff" stroke="#63b8ff" points="205.08,-380.57 213.69,-374.39 203.11,-373.85 205.08,-380.57"/>
</a>
</g>
</g>
<!-- Node13 -->
<g id="Node000013" class="node">
<title>Node13</title>
<g id="a_Node000013"><a xlink:href="classxeno__rat__server_1_1_forms_1_1_screen_control.html#ac45807ad2b43717c2dcbad2064c37046" target="_top" xlink:title="Handles the mouse up event for pictureBox1.">
<polygon fill="white" stroke="#666666" points="355.25,-324.5 205.75,-324.5 205.75,-294 355.25,-294 355.25,-324.5"/>
<text text-anchor="start" x="213.75" y="-311" font-family="Helvetica,sans-Serif" font-size="10.00">xeno_rat_server.Forms.Screen</text>
<text text-anchor="middle" x="280.5" y="-299.75" font-family="Helvetica,sans-Serif" font-size="10.00">Control.pictureBox1_MouseUp</text>
</a>
</g>
</g>
<!-- Node1&#45;&gt;Node13 -->
<g id="edge12_Node000001_Node000013" class="edge">
<title>Node1&#45;&gt;Node13</title>
<g id="a_edge12_Node000001_Node000013"><a xlink:title=" ">
<path fill="none" stroke="#63b8ff" d="M89,-415.68C108.13,-394.17 145.6,-355.63 185.5,-334.25 188.95,-332.4 192.55,-330.68 196.24,-329.08"/>
<polygon fill="#63b8ff" stroke="#63b8ff" points="197.42,-332.38 205.44,-325.45 194.85,-325.87 197.42,-332.38"/>
</a>
</g>
</g>
<!-- Node14 -->
<g id="Node000014" class="node">
<title>Node14</title>
<g id="a_Node000014"><a xlink:href="classxeno__rat__server_1_1_forms_1_1_screen_control.html#a17c93dd18ed1317eb8b99ab238e22607" target="_top" xlink:title="Handles the PreviewKeyDown event for the pictureBox1 control.">
<polygon fill="white" stroke="#666666" points="373.25,-275.5 187.75,-275.5 187.75,-245 373.25,-245 373.25,-275.5"/>
<text text-anchor="start" x="195.75" y="-262" font-family="Helvetica,sans-Serif" font-size="10.00">xeno_rat_server.Forms.Screen</text>
<text text-anchor="middle" x="280.5" y="-250.75" font-family="Helvetica,sans-Serif" font-size="10.00">Control.pictureBox1_PreviewKeyDown</text>
</a>
</g>
</g>
<!-- Node1&#45;&gt;Node14 -->
<g id="edge13_Node000001_Node000014" class="edge">
<title>Node1&#45;&gt;Node14</title>
<g id="a_edge13_Node000001_Node000014"><a xlink:title=" ">
<path fill="none" stroke="#63b8ff" d="M82.97,-415.76C97.76,-385.75 134.49,-319.63 185.5,-285.25 187.74,-283.74 190.08,-282.32 192.48,-280.98"/>
<polygon fill="#63b8ff" stroke="#63b8ff" points="193.89,-284.18 201.32,-276.63 190.8,-277.9 193.89,-284.18"/>
</a>
</g>
</g>
<!-- Node15 -->
<g id="Node000015" class="node">
<title>Node15</title>
<g id="a_Node000015"><a xlink:href="classxeno__rat__server_1_1_forms_1_1_screen_control.html#a8b3f20ffca0b0627b68b258f0003585b" target="_top" xlink:title="Updates the scale size when the size of the picture box changes.">
<polygon fill="white" stroke="#666666" points="363.5,-226.5 197.5,-226.5 197.5,-196 363.5,-196 363.5,-226.5"/>
<text text-anchor="start" x="205.5" y="-213" font-family="Helvetica,sans-Serif" font-size="10.00">xeno_rat_server.Forms.Screen</text>
<text text-anchor="middle" x="280.5" y="-201.75" font-family="Helvetica,sans-Serif" font-size="10.00">Control.pictureBox1_SizeChanged</text>
</a>
</g>
</g>
<!-- Node1&#45;&gt;Node15 -->
<g id="edge14_Node000001_Node000015" class="edge">
<title>Node1&#45;&gt;Node15</title>
<g id="a_edge14_Node000001_Node000015"><a xlink:title=" ">
<path fill="none" stroke="#63b8ff" d="M79.98,-415.57C90.83,-378.4 123.31,-284.42 185.5,-236.25 187.25,-234.89 189.07,-233.61 190.95,-232.39"/>
<polygon fill="#63b8ff" stroke="#63b8ff" points="192.42,-235.58 199.42,-227.63 188.99,-229.48 192.42,-235.58"/>
</a>
</g>
</g>
<!-- Node16 -->
<g id="Node000016" class="node">
<title>Node16</title>
<g id="a_Node000016"><a xlink:href="classxeno__rat__server_1_1_forms_1_1_screen_control.html#a3f03406a78ff99c6307e02354c3e36a2" target="_top" xlink:title="Handles the KeyDown event for the screen control.">
<polygon fill="white" stroke="#666666" points="360.88,-177.5 200.12,-177.5 200.12,-147 360.88,-147 360.88,-177.5"/>
<text text-anchor="start" x="208.12" y="-164" font-family="Helvetica,sans-Serif" font-size="10.00">xeno_rat_server.Forms.Screen</text>
<text text-anchor="middle" x="280.5" y="-152.75" font-family="Helvetica,sans-Serif" font-size="10.00">Control.ScreenControl_KeyDown</text>
</a>
</g>
</g>
<!-- Node1&#45;&gt;Node16 -->
<g id="edge15_Node000001_Node000016" class="edge">
<title>Node1&#45;&gt;Node16</title>
<g id="a_edge15_Node000001_Node000016"><a xlink:title=" ">
<path fill="none" stroke="#63b8ff" d="M78.06,-415.64C85.3,-372.37 111.68,-249.94 185.5,-187.25 187,-185.97 188.57,-184.76 190.18,-183.61"/>
<polygon fill="#63b8ff" stroke="#63b8ff" points="191.91,-186.65 198.62,-178.45 188.26,-180.68 191.91,-186.65"/>
</a>
</g>
</g>
<!-- Node17 -->
<g id="Node000017" class="node">
<title>Node17</title>
<g id="a_Node000017"><a xlink:href="classxeno__rat__server_1_1_forms_1_1_screen_control.html#a3f79295f273ea16c56d29fa6797c1ece" target="_top" xlink:title="Handles the KeyPress event for the screen control.">
<polygon fill="white" stroke="#666666" points="360.88,-128.5 200.12,-128.5 200.12,-98 360.88,-98 360.88,-128.5"/>
<text text-anchor="start" x="208.12" y="-115" font-family="Helvetica,sans-Serif" font-size="10.00">xeno_rat_server.Forms.Screen</text>
<text text-anchor="middle" x="280.5" y="-103.75" font-family="Helvetica,sans-Serif" font-size="10.00">Control.ScreenControl_KeyPress</text>
</a>
</g>
</g>
<!-- Node1&#45;&gt;Node17 -->
<g id="edge16_Node000001_Node000017" class="edge">
<title>Node1&#45;&gt;Node17</title>
<g id="a_edge16_Node000001_Node000017"><a xlink:title=" ">
<path fill="none" stroke="#63b8ff" d="M76.74,-415.8C80.72,-367.19 99.76,-215.94 185.5,-138.25 186.96,-136.92 188.49,-135.67 190.07,-134.48"/>
<polygon fill="#63b8ff" stroke="#63b8ff" points="191.83,-137.51 198.36,-129.16 188.05,-131.61 191.83,-137.51"/>
</a>
</g>
</g>
<!-- Node18 -->
<g id="Node000018" class="node">
<title>Node18</title>
<g id="a_Node000018"><a xlink:href="classxeno__rat__server_1_1_forms_1_1_screen_control.html#a843ddacc3b2c63f9e762ae1e206bb5d9" target="_top" xlink:title="Handles the KeyUp event for screen control.">
<polygon fill="white" stroke="#666666" points="355.25,-79.5 205.75,-79.5 205.75,-49 355.25,-49 355.25,-79.5"/>
<text text-anchor="start" x="213.75" y="-66" font-family="Helvetica,sans-Serif" font-size="10.00">xeno_rat_server.Forms.Screen</text>
<text text-anchor="middle" x="280.5" y="-54.75" font-family="Helvetica,sans-Serif" font-size="10.00">Control.ScreenControl_KeyUp</text>
</a>
</g>
</g>
<!-- Node1&#45;&gt;Node18 -->
<g id="edge17_Node000001_Node000018" class="edge">
<title>Node1&#45;&gt;Node18</title>
<g id="a_edge17_Node000001_Node000018"><a xlink:title=" ">
<path fill="none" stroke="#63b8ff" d="M75.8,-415.61C76.86,-361.73 87.88,-182.05 185.5,-89.25 188.56,-86.34 191.91,-83.77 195.47,-81.48"/>
<polygon fill="#63b8ff" stroke="#63b8ff" points="196.92,-84.69 204.02,-76.82 193.56,-78.54 196.92,-84.69"/>
</a>
</g>
</g>
<!-- Node19 -->
<g id="Node000019" class="node">
<title>Node19</title>
<g id="a_Node000019"><a xlink:href="classxeno__rat__server_1_1_forms_1_1_screen_control.html#ad4332350d740c3d7a2ab6e8244552968" target="_top" xlink:title="Called when the screen control is loaded.">
<polygon fill="white" stroke="#666666" points="355.25,-30.5 205.75,-30.5 205.75,0 355.25,0 355.25,-30.5"/>
<text text-anchor="start" x="213.75" y="-17" font-family="Helvetica,sans-Serif" font-size="10.00">xeno_rat_server.Forms.Screen</text>
<text text-anchor="middle" x="280.5" y="-5.75" font-family="Helvetica,sans-Serif" font-size="10.00">Control.ScreenControl_Load</text>
</a>
</g>
</g>
<!-- Node1&#45;&gt;Node19 -->
<g id="edge18_Node000001_Node000019" class="edge">
<title>Node1&#45;&gt;Node19</title>
<g id="a_edge18_Node000001_Node000019"><a xlink:title=" ">
<path fill="none" stroke="#63b8ff" d="M75.06,-415.5C73.42,-356.78 75.82,-148.43 185.5,-40.25 188.57,-37.23 191.95,-34.56 195.57,-32.2"/>
<polygon fill="#63b8ff" stroke="#63b8ff" points="197.21,-35.29 204.28,-27.4 193.83,-29.16 197.21,-35.29"/>
</a>
</g>
</g>
</g>
</svg>
