<?xml version="1.0" encoding="UTF-8" standalone="no"?>
<!DOCTYPE svg PUBLIC "-//W3C//DTD SVG 1.1//EN"
 "http://www.w3.org/Graphics/SVG/1.1/DTD/svg11.dtd">
<!-- Generated by graphviz version 10.0.1 (20240210.2158)
 -->
<!-- Title: xeno_rat_server.Utils.Type2returnAsync Pages: 1 -->
<!--zoomable 260 -->

<svg id="main" version="1.1" xmlns="http://www.w3.org/2000/svg" xmlns:xlink="http://www.w3.org/1999/xlink" xml:space="preserve" onload="init(evt)">
<style type="text/css"><![CDATA[
.node, .edge {opacity: 0.7;}
.node.selected, .edge.selected {opacity: 1;}
.edge:hover path { stroke: red; }
.edge:hover polygon { stroke: red; fill: red; }
]]></style>

<defs>
  <circle id="rim" cx="0" cy="0" r="7"/>
  <circle id="rim2" cx="0" cy="0" r="3.5"/>
  <g id="zoomPlus">
    <use xlink:href="#rim" fill="#404040"><set attributeName="fill" to="#808080" begin="zoomplus.mouseover" end="zoomplus.mouseout"/></use>
    <path d="M-4,0h8M0,-4v8" fill="none" stroke="white" stroke-width="1.5" pointer-events="none"/>
  </g>
  <g id="zoomMin">
    <use xlink:href="#rim" fill="#404040"><set attributeName="fill" to="#808080" begin="zoomminus.mouseover" end="zoomminus.mouseout"/></use>
    <path d="M-4,0h8" fill="none" stroke="white" stroke-width="1.5" pointer-events="none"/>
  </g>
  <g id="arrowUp" transform="translate(30 24)">
    <use xlink:href="#rim"/>
    <path pointer-events="none" fill="none" stroke="white" stroke-width="1.5" d="M0,-3.0v7 M-2.5,-0.5L0,-3.0L2.5,-0.5"/>
  </g>
  <g id="arrowRight" transform="rotate(90) translate(36 -43)">
    <use xlink:href="#rim"/>
    <path pointer-events="none" fill="none" stroke="white" stroke-width="1.5" d="M0,-3.0v7 M-2.5,-0.5L0,-3.0L2.5,-0.5"/>
  </g>
  <g id="arrowDown" transform="rotate(180) translate(-30 -48)">
    <use xlink:href="#rim"/>
    <path pointer-events="none" fill="none" stroke="white" stroke-width="1.5" d="M0,-3.0v7 M-2.5,-0.5L0,-3.0L2.5,-0.5"/>
  </g>
  <g id="arrowLeft" transform="rotate(270) translate(-36 17)">
    <use xlink:href="#rim"/>
    <path pointer-events="none" fill="none" stroke="white" stroke-width="1.5" d="M0,-3.0v7 M-2.5,-0.5L0,-3.0L2.5,-0.5"/>
  </g>
  <g id="resetDef">
    <use xlink:href="#rim2" fill="#404040"><set attributeName="fill" to="#808080" begin="reset.mouseover" end="reset.mouseout"/></use>
  </g>
</defs>
<script type="application/ecmascript">
var viewWidth = 942;
var viewHeight = 260;
var sectionId = 'dynsection-10';
</script>
<script type="application/ecmascript" xlink:href="svg.min.js"/>
<svg id="graph" class="graph">
<g id="viewport">
<title>xeno_rat_server.Utils.Type2returnAsync</title>
<!-- Node1 -->
<g id="Node000001" class="node">
<title>Node1</title>
<g id="a_Node000001"><a xlink:title="Sends a byte array with opcode 3 to the specified subNode if the SockType is 2.">
<polygon fill="#999999" stroke="#666666" points="162.25,-124.5 0,-124.5 0,-94 162.25,-94 162.25,-124.5"/>
<text text-anchor="start" x="8" y="-111" font-family="Helvetica,sans-Serif" font-size="10.00">xeno_rat_server.Utils.Type2return</text>
<text text-anchor="middle" x="81.12" y="-99.75" font-family="Helvetica,sans-Serif" font-size="10.00">Async</text>
</a>
</g>
</g>
<!-- Node2 -->
<g id="Node000002" class="node">
<title>Node2</title>
<g id="a_Node000002"><a xlink:href="classxeno__rat__server_1_1_node.html#a816e267eb31862d38c21e5faaae3061d" target="_top" xlink:title="Sends the provided data asynchronously and returns a boolean indicating the success of the operation.">
<polygon fill="white" stroke="#666666" points="335,-124.5 198.25,-124.5 198.25,-94 335,-94 335,-124.5"/>
<text text-anchor="start" x="206.25" y="-111" font-family="Helvetica,sans-Serif" font-size="10.00">xeno_rat_server.Node.Send</text>
<text text-anchor="middle" x="266.62" y="-99.75" font-family="Helvetica,sans-Serif" font-size="10.00">Async</text>
</a>
</g>
</g>
<!-- Node1&#45;&gt;Node2 -->
<g id="edge1_Node000001_Node000002" class="edge">
<title>Node1&#45;&gt;Node2</title>
<g id="a_edge1_Node000001_Node000002"><a xlink:title=" ">
<path fill="none" stroke="#63b8ff" d="M162.61,-109.25C170.5,-109.25 178.51,-109.25 186.39,-109.25"/>
<polygon fill="#63b8ff" stroke="#63b8ff" points="186.31,-112.75 196.31,-109.25 186.31,-105.75 186.31,-112.75"/>
</a>
</g>
</g>
<!-- Node3 -->
<g id="Node000003" class="node">
<title>Node3</title>
<g id="a_Node000003"><a xlink:href="classxeno__rat__server_1_1_node.html#a8814edd98b6463f49812be32d5928763" target="_top" xlink:title="Sets the isDisposed flag to true and disconnects the socket, disposes resources, and triggers the OnD...">
<polygon fill="white" stroke="#666666" points="534.75,-140.88 371,-140.88 371,-121.62 534.75,-121.62 534.75,-140.88"/>
<text text-anchor="middle" x="452.88" y="-127.38" font-family="Helvetica,sans-Serif" font-size="10.00">xeno_rat_server.Node.Disconnect</text>
</a>
</g>
</g>
<!-- Node2&#45;&gt;Node3 -->
<g id="edge2_Node000002_Node000003" class="edge">
<title>Node2&#45;&gt;Node3</title>
<g id="a_edge2_Node000002_Node000003"><a xlink:title=" ">
<path fill="none" stroke="#63b8ff" d="M335.45,-117.35C343.26,-118.28 351.32,-119.24 359.39,-120.21"/>
<polygon fill="#63b8ff" stroke="#63b8ff" points="358.92,-123.68 369.26,-121.39 359.75,-116.73 358.92,-123.68"/>
</a>
</g>
</g>
<!-- Node4 -->
<g id="Node000004" class="node">
<title>Node4</title>
<g id="a_Node000004"><a xlink:href="classxeno__rat__server_1_1_socket_handler.html#a85ca8385d023521cdb86ff8ae688adee" target="_top" xlink:title="Sends the provided data asynchronously over the socket.">
<polygon fill="white" stroke="#666666" points="530.25,-103.5 375.5,-103.5 375.5,-73 530.25,-73 530.25,-103.5"/>
<text text-anchor="start" x="383.5" y="-90" font-family="Helvetica,sans-Serif" font-size="10.00">xeno_rat_server.SocketHandler.</text>
<text text-anchor="middle" x="452.88" y="-78.75" font-family="Helvetica,sans-Serif" font-size="10.00">SendAsync</text>
</a>
</g>
</g>
<!-- Node2&#45;&gt;Node4 -->
<g id="edge4_Node000002_Node000004" class="edge">
<title>Node2&#45;&gt;Node4</title>
<g id="a_edge4_Node000002_Node000004"><a xlink:title=" ">
<path fill="none" stroke="#63b8ff" d="M335.45,-101.52C344.74,-100.46 354.39,-99.36 363.97,-98.27"/>
<polygon fill="#63b8ff" stroke="#63b8ff" points="364.13,-101.77 373.67,-97.16 363.34,-94.82 364.13,-101.77"/>
</a>
</g>
</g>
<!-- Node3&#45;&gt;Node3 -->
<g id="edge3_Node000003_Node000003" class="edge">
<title>Node3&#45;&gt;Node3</title>
<g id="a_edge3_Node000003_Node000003"><a xlink:title=" ">
<path fill="none" stroke="#63b8ff" d="M423.72,-141.16C410.42,-149.77 420.14,-158.88 452.88,-158.88 471.8,-158.88 483.04,-155.83 486.58,-151.6"/>
<polygon fill="#63b8ff" stroke="#63b8ff" points="489.84,-150.32 482.64,-142.55 483.42,-153.12 489.84,-150.32"/>
</a>
</g>
</g>
<!-- Node5 -->
<g id="Node000005" class="node">
<title>Node5</title>
<g id="a_Node000005"><a xlink:href="classxeno__rat__server_1_1_compression.html#a0f3f31a2fe34d92bf04538b2fdf529e0" target="_top" xlink:title="Compresses the input buffer using the LZNT1 compression format and returns the compressed data.">
<polygon fill="white" stroke="#666666" points="722.5,-177.5 573.75,-177.5 573.75,-147 722.5,-147 722.5,-177.5"/>
<text text-anchor="start" x="581.75" y="-164" font-family="Helvetica,sans-Serif" font-size="10.00">xeno_rat_server.Compression.</text>
<text text-anchor="middle" x="648.12" y="-152.75" font-family="Helvetica,sans-Serif" font-size="10.00">Compress</text>
</a>
</g>
</g>
<!-- Node4&#45;&gt;Node5 -->
<g id="edge5_Node000004_Node000005" class="edge">
<title>Node4&#45;&gt;Node5</title>
<g id="a_edge5_Node000004_Node000005"><a xlink:title=" ">
<path fill="none" stroke="#63b8ff" d="M514.31,-103.85C521.33,-106.35 528.28,-109.14 534.75,-112.25 552.31,-120.68 553.31,-128.57 570.75,-137.25 574.4,-139.07 578.21,-140.79 582.1,-142.43"/>
<polygon fill="#63b8ff" stroke="#63b8ff" points="580.52,-145.57 591.11,-145.98 583.09,-139.06 580.52,-145.57"/>
</a>
</g>
</g>
<!-- Node10 -->
<g id="Node000010" class="node">
<title>Node10</title>
<g id="a_Node000010"><a xlink:href="classxeno__rat__server_1_1_socket_handler.html#a4f2e993b63cf1bba877781c9be2ed496" target="_top" xlink:title="Concatenates two byte arrays and returns the result.">
<polygon fill="white" stroke="#666666" points="725.5,-128.5 570.75,-128.5 570.75,-98 725.5,-98 725.5,-128.5"/>
<text text-anchor="start" x="578.75" y="-115" font-family="Helvetica,sans-Serif" font-size="10.00">xeno_rat_server.SocketHandler.</text>
<text text-anchor="middle" x="648.12" y="-103.75" font-family="Helvetica,sans-Serif" font-size="10.00">Concat</text>
</a>
</g>
</g>
<!-- Node4&#45;&gt;Node10 -->
<g id="edge10_Node000004_Node000010" class="edge">
<title>Node4&#45;&gt;Node10</title>
<g id="a_edge10_Node000004_Node000010"><a xlink:title=" ">
<path fill="none" stroke="#63b8ff" d="M530.53,-98.17C540,-99.39 549.73,-100.65 559.35,-101.89"/>
<polygon fill="#63b8ff" stroke="#63b8ff" points="558.7,-105.34 569.06,-103.15 559.59,-98.4 558.7,-105.34"/>
</a>
</g>
</g>
<!-- Node11 -->
<g id="Node000011" class="node">
<title>Node11</title>
<g id="a_Node000011"><a xlink:href="classxeno__rat__server_1_1_encryption.html#a0fafecaba804cb57663bdbb4dcc4e93f" target="_top" xlink:title="Encrypts the input data using the provided key and returns the encrypted result.">
<polygon fill="white" stroke="#666666" points="716.88,-79.5 579.38,-79.5 579.38,-49 716.88,-49 716.88,-79.5"/>
<text text-anchor="start" x="587.38" y="-66" font-family="Helvetica,sans-Serif" font-size="10.00">xeno_rat_server.Encryption.</text>
<text text-anchor="middle" x="648.12" y="-54.75" font-family="Helvetica,sans-Serif" font-size="10.00">Encrypt</text>
</a>
</g>
</g>
<!-- Node4&#45;&gt;Node11 -->
<g id="edge11_Node000004_Node000011" class="edge">
<title>Node4&#45;&gt;Node11</title>
<g id="a_edge11_Node000004_Node000011"><a xlink:title=" ">
<path fill="none" stroke="#63b8ff" d="M530.53,-78.73C542.79,-77.21 555.51,-75.63 567.83,-74.1"/>
<polygon fill="#63b8ff" stroke="#63b8ff" points="568.02,-77.6 577.51,-72.9 567.16,-70.65 568.02,-77.6"/>
</a>
</g>
</g>
<!-- Node12 -->
<g id="Node000012" class="node">
<title>Node12</title>
<g id="a_Node000012"><a xlink:href="classxeno__rat__server_1_1_socket_handler.html#a7d019c5e4cbd0138d155156c7a7c5a8f" target="_top" xlink:title="Converts an integer to a byte array.">
<polygon fill="white" stroke="#666666" points="725.5,-30.5 570.75,-30.5 570.75,0 725.5,0 725.5,-30.5"/>
<text text-anchor="start" x="578.75" y="-17" font-family="Helvetica,sans-Serif" font-size="10.00">xeno_rat_server.SocketHandler.</text>
<text text-anchor="middle" x="648.12" y="-5.75" font-family="Helvetica,sans-Serif" font-size="10.00">IntToBytes</text>
</a>
</g>
</g>
<!-- Node4&#45;&gt;Node12 -->
<g id="edge12_Node000004_Node000012" class="edge">
<title>Node4&#45;&gt;Node12</title>
<g id="a_edge12_Node000004_Node000012"><a xlink:title=" ">
<path fill="none" stroke="#63b8ff" d="M490.19,-72.53C513.13,-62.8 543.48,-50.3 570.75,-40.25 575.8,-38.39 581.07,-36.52 586.37,-34.69"/>
<polygon fill="#63b8ff" stroke="#63b8ff" points="587.46,-38.02 595.8,-31.48 585.2,-31.39 587.46,-38.02"/>
</a>
</g>
</g>
<!-- Node6 -->
<g id="Node000006" class="node">
<title>Node6</title>
<g id="a_Node000006"><a xlink:href="classxeno__rat__server_1_1_compression.html#ae86c8cb19fb340173e6b06816907c485" target="_top" xlink:title="Allocates the specified number of bytes in the local heap and returns a pointer to the allocated memo...">
<polygon fill="white" stroke="#666666" points="921.88,-251.5 773.12,-251.5 773.12,-221 921.88,-221 921.88,-251.5"/>
<text text-anchor="start" x="781.12" y="-238" font-family="Helvetica,sans-Serif" font-size="10.00">xeno_rat_server.Compression.</text>
<text text-anchor="middle" x="847.5" y="-226.75" font-family="Helvetica,sans-Serif" font-size="10.00">LocalAlloc</text>
</a>
</g>
</g>
<!-- Node5&#45;&gt;Node6 -->
<g id="edge6_Node000005_Node000006" class="edge">
<title>Node5&#45;&gt;Node6</title>
<g id="a_edge6_Node000005_Node000006"><a xlink:title=" ">
<path fill="none" stroke="#63b8ff" d="M682.12,-177.94C704.28,-188.15 734.3,-201.36 761.5,-211.25 767.1,-213.29 772.96,-215.28 778.86,-217.19"/>
<polygon fill="#63b8ff" stroke="#63b8ff" points="777.45,-220.42 788.04,-220.1 779.56,-213.75 777.45,-220.42"/>
</a>
</g>
</g>
<!-- Node7 -->
<g id="Node000007" class="node">
<title>Node7</title>
<g id="a_Node000007"><a xlink:href="classxeno__rat__server_1_1_compression.html#ab527e0a594d96bbaa1a4b1541888aa74" target="_top" xlink:title="Frees the memory block allocated by LocalAlloc and LocalReAlloc and invalidates the handle.">
<polygon fill="white" stroke="#666666" points="921.88,-202.5 773.12,-202.5 773.12,-172 921.88,-172 921.88,-202.5"/>
<text text-anchor="start" x="781.12" y="-189" font-family="Helvetica,sans-Serif" font-size="10.00">xeno_rat_server.Compression.</text>
<text text-anchor="middle" x="847.5" y="-177.75" font-family="Helvetica,sans-Serif" font-size="10.00">LocalFree</text>
</a>
</g>
</g>
<!-- Node5&#45;&gt;Node7 -->
<g id="edge7_Node000005_Node000007" class="edge">
<title>Node5&#45;&gt;Node7</title>
<g id="a_edge7_Node000005_Node000007"><a xlink:title=" ">
<path fill="none" stroke="#63b8ff" d="M722.9,-171.59C735.52,-173.19 748.72,-174.86 761.6,-176.5"/>
<polygon fill="#63b8ff" stroke="#63b8ff" points="760.95,-179.94 771.31,-177.73 761.83,-173 760.95,-179.94"/>
</a>
</g>
</g>
<!-- Node8 -->
<g id="Node000008" class="node">
<title>Node8</title>
<g id="a_Node000008"><a xlink:href="classxeno__rat__server_1_1_compression.html#a1f9bb20d96d13bdc4d0f90e2b68d4343" target="_top" xlink:title="Compresses the input buffer using the specified compression format and returns the compressed data in...">
<polygon fill="white" stroke="#666666" points="921.88,-153.5 773.12,-153.5 773.12,-123 921.88,-123 921.88,-153.5"/>
<text text-anchor="start" x="781.12" y="-140" font-family="Helvetica,sans-Serif" font-size="10.00">xeno_rat_server.Compression.</text>
<text text-anchor="middle" x="847.5" y="-128.75" font-family="Helvetica,sans-Serif" font-size="10.00">RtlCompressBuffer</text>
</a>
</g>
</g>
<!-- Node5&#45;&gt;Node8 -->
<g id="edge8_Node000005_Node000008" class="edge">
<title>Node5&#45;&gt;Node8</title>
<g id="a_edge8_Node000005_Node000008"><a xlink:title=" ">
<path fill="none" stroke="#63b8ff" d="M722.9,-153.28C735.52,-151.74 748.72,-150.14 761.6,-148.57"/>
<polygon fill="#63b8ff" stroke="#63b8ff" points="761.81,-152.07 771.31,-147.39 760.96,-145.13 761.81,-152.07"/>
</a>
</g>
</g>
<!-- Node9 -->
<g id="Node000009" class="node">
<title>Node9</title>
<g id="a_Node000009"><a xlink:href="classxeno__rat__server_1_1_compression.html#a5ca090d7b0887e40753bad9800c321e7" target="_top" xlink:title="Retrieves the size of the workspace required for compression.">
<polygon fill="white" stroke="#666666" points="933.5,-104.5 761.5,-104.5 761.5,-74 933.5,-74 933.5,-104.5"/>
<text text-anchor="start" x="769.5" y="-91" font-family="Helvetica,sans-Serif" font-size="10.00">xeno_rat_server.Compression.</text>
<text text-anchor="middle" x="847.5" y="-79.75" font-family="Helvetica,sans-Serif" font-size="10.00">RtlGetCompressionWorkSpaceSize</text>
</a>
</g>
</g>
<!-- Node5&#45;&gt;Node9 -->
<g id="edge9_Node000005_Node000009" class="edge">
<title>Node5&#45;&gt;Node9</title>
<g id="a_edge9_Node000005_Node000009"><a xlink:title=" ">
<path fill="none" stroke="#63b8ff" d="M702.8,-146.59C710.54,-143.78 718.31,-140.65 725.5,-137.25 742.66,-129.12 744.22,-122.12 761.5,-114.25 765.75,-112.31 770.19,-110.49 774.72,-108.77"/>
<polygon fill="#63b8ff" stroke="#63b8ff" points="775.71,-112.13 783.95,-105.46 773.35,-105.54 775.71,-112.13"/>
</a>
</g>
</g>
</g>
</svg>

<g id="navigator" transform="translate(0 0)" fill="#404254">
  <rect fill="#f2f5e9" fill-opacity="0.5" stroke="#606060" stroke-width=".5" x="0" y="0" width="60" height="60"/>
  <use id="zoomplus" xlink:href="#zoomPlus" x="17" y="9" onmousedown="handleZoom(evt,'in')"/>
  <use id="zoomminus" xlink:href="#zoomMin" x="42" y="9" onmousedown="handleZoom(evt,'out')"/>
  <use id="reset" xlink:href="#resetDef" x="30" y="36" onmousedown="handleReset()"/>
   <use id="arrowup" xlink:href="#arrowUp" x="0" y="0" onmousedown="handlePan(0,-1)"/>
  <use id="arrowright" xlink:href="#arrowRight" x="0" y="0" onmousedown="handlePan(1,0)"/>
  <use id="arrowdown" xlink:href="#arrowDown" x="0" y="0" onmousedown="handlePan(0,1)"/>
  <use id="arrowleft" xlink:href="#arrowLeft" x="0" y="0" onmousedown="handlePan(-1,0)"/>
</g>
<svg viewBox="0 0 15 15" width="100%" height="30px" preserveAspectRatio="xMaxYMin meet">
 <g id="arrow_out" transform="scale(0.3 0.3)">
  <a xlink:href="classxeno__rat__server_1_1_utils_aa71da7ab50cb922a86010128ab2b94f1_cgraph_org.svg" target="_base">
   <rect id="button" ry="5" rx="5" y="6" x="6" height="38" width="38"
        fill="#f2f5e9" fill-opacity="0.5" stroke="#606060" stroke-width="1.0"/>
   <path id="arrow"
     d="M 11.500037,31.436501 C 11.940474,20.09759 22.043105,11.32322 32.158766,21.979434 L 37.068811,17.246167 C 37.068811,17.246167 37.088388,32 37.088388,32 L 22.160133,31.978069 C 22.160133,31.978069 26.997745,27.140456 26.997745,27.140456 C 18.528582,18.264221 13.291696,25.230495 11.500037,31.436501 z"
     style="fill:#404040;"/>
  </a>
 </g>
</svg>

<style type='text/css'>
<![CDATA[
[data-mouse-over-selected='false'] { opacity: 0.7; }
[data-mouse-over-selected='true']  { opacity: 1.0; }
]]>
</style>
<script type="application/ecmascript"><![CDATA[
document.addEventListener('DOMContentLoaded', (event) => {
  highlightEdges();
  highlightAdjacentNodes();
});
]]></script>
</svg>
