<?xml version="1.0" encoding="UTF-8" standalone="no"?>
<!DOCTYPE svg PUBLIC "-//W3C//DTD SVG 1.1//EN"
 "http://www.w3.org/Graphics/SVG/1.1/DTD/svg11.dtd">
<!-- Generated by graphviz version 10.0.1 (20240210.2158)
 -->
<!-- Title: NAudio.Wave.AiffFileWriter.UpdateHeader Pages: 1 -->
<svg width="493pt" height="174pt"
 viewBox="0.00 0.00 492.50 173.50" xmlns="http://www.w3.org/2000/svg" xmlns:xlink="http://www.w3.org/1999/xlink">

<svg id="main" version="1.1" xmlns="http://www.w3.org/2000/svg" xmlns:xlink="http://www.w3.org/1999/xlink" xml:space="preserve" onload="init(evt)">
<style type="text/css"><![CDATA[
.node, .edge {opacity: 0.7;}
.node.selected, .edge.selected {opacity: 1;}
.edge:hover path { stroke: red; }
.edge:hover polygon { stroke: red; fill: red; }
]]></style>
<script type="application/ecmascript" xlink:href="svg.min.js"/>
<svg id="graph" class="graph">
<g id="graph0" class="graph" transform="scale(1 1) rotate(0) translate(4 169.5)">
<title>NAudio.Wave.AiffFileWriter.UpdateHeader</title>
<!-- Node1 -->
<g id="Node000001" class="node">
<title>Node1</title>
<g id="a_Node000001"><a xlink:title="Updates the header of the binary writer.">
<polygon fill="#999999" stroke="#666666" points="137.5,-100.5 0,-100.5 0,-70 137.5,-70 137.5,-100.5"/>
<text text-anchor="start" x="8" y="-87" font-family="Helvetica,sans-Serif" font-size="10.00">NAudio.Wave.AiffFileWriter.</text>
<text text-anchor="middle" x="68.75" y="-75.75" font-family="Helvetica,sans-Serif" font-size="10.00">UpdateHeader</text>
</a>
</g>
</g>
<!-- Node2 -->
<g id="Node000002" class="node">
<title>Node2</title>
<g id="a_Node000002"><a xlink:href="class_n_audio_1_1_wave_1_1_aiff_file_writer.html#a2a7b642efd5e50f84c18d7ee61e78ac1" target="_top" xlink:title="Flushes the buffer of the writer.">
<polygon fill="white" stroke="#666666" points="311,-165.5 173.5,-165.5 173.5,-135 311,-135 311,-165.5"/>
<text text-anchor="start" x="181.5" y="-152" font-family="Helvetica,sans-Serif" font-size="10.00">NAudio.Wave.AiffFileWriter.</text>
<text text-anchor="middle" x="242.25" y="-140.75" font-family="Helvetica,sans-Serif" font-size="10.00">Flush</text>
</a>
</g>
</g>
<!-- Node1&#45;&gt;Node2 -->
<g id="edge1_Node000001_Node000002" class="edge">
<title>Node1&#45;&gt;Node2</title>
<g id="a_edge1_Node000001_Node000002"><a xlink:title=" ">
<path fill="none" stroke="#63b8ff" d="M111.27,-100.98C134.67,-109.85 164.12,-121.02 189.07,-130.47"/>
<polygon fill="#63b8ff" stroke="#63b8ff" points="187.81,-133.74 198.4,-134.01 190.29,-127.19 187.81,-133.74"/>
</a>
</g>
</g>
<!-- Node3 -->
<g id="Node000003" class="node">
<title>Node3</title>
<g id="a_Node000003"><a xlink:href="class_n_audio_1_1_wave_1_1_aiff_file_writer.html#aa752886f7a9c0749b5d62c10cbed4e3c" target="_top" xlink:title="Swaps the endianness of the input integer and returns the result as a byte array.">
<polygon fill="white" stroke="#666666" points="484.5,-79.5 347,-79.5 347,-49 484.5,-49 484.5,-79.5"/>
<text text-anchor="start" x="355" y="-66" font-family="Helvetica,sans-Serif" font-size="10.00">NAudio.Wave.AiffFileWriter.</text>
<text text-anchor="middle" x="415.75" y="-54.75" font-family="Helvetica,sans-Serif" font-size="10.00">SwapEndian</text>
</a>
</g>
</g>
<!-- Node1&#45;&gt;Node3 -->
<g id="edge2_Node000001_Node000003" class="edge">
<title>Node1&#45;&gt;Node3</title>
<g id="a_edge2_Node000001_Node000003"><a xlink:title=" ">
<path fill="none" stroke="#63b8ff" d="M137.83,-90.65C186.29,-93.39 252.84,-94.89 311,-88.25 322.48,-86.94 334.55,-84.84 346.22,-82.41"/>
<polygon fill="#63b8ff" stroke="#63b8ff" points="346.76,-85.87 355.78,-80.32 345.27,-79.03 346.76,-85.87"/>
</a>
</g>
</g>
<!-- Node4 -->
<g id="Node000004" class="node">
<title>Node4</title>
<g id="a_Node000004"><a xlink:href="class_n_audio_1_1_wave_1_1_aiff_file_writer.html#a6ce3fa9c0ac009ecd0adaff4c08f000a" target="_top" xlink:title="Updates the communication chunk in the binary writer.">
<polygon fill="white" stroke="#666666" points="311,-79.5 173.5,-79.5 173.5,-49 311,-49 311,-79.5"/>
<text text-anchor="start" x="181.5" y="-66" font-family="Helvetica,sans-Serif" font-size="10.00">NAudio.Wave.AiffFileWriter.</text>
<text text-anchor="middle" x="242.25" y="-54.75" font-family="Helvetica,sans-Serif" font-size="10.00">UpdateCommChunk</text>
</a>
</g>
</g>
<!-- Node1&#45;&gt;Node4 -->
<g id="edge3_Node000001_Node000004" class="edge">
<title>Node1&#45;&gt;Node4</title>
<g id="a_edge3_Node000001_Node000004"><a xlink:title=" ">
<path fill="none" stroke="#63b8ff" d="M137.53,-76.95C145.49,-75.98 153.66,-74.98 161.75,-73.98"/>
<polygon fill="#63b8ff" stroke="#63b8ff" points="162.12,-77.47 171.62,-72.78 161.26,-70.52 162.12,-77.47"/>
</a>
</g>
</g>
<!-- Node5 -->
<g id="Node000005" class="node">
<title>Node5</title>
<g id="a_Node000005"><a xlink:href="class_n_audio_1_1_wave_1_1_aiff_file_writer.html#ac7a2fd4f47a543f922d3bef5bfee59cf" target="_top" xlink:title="Updates the SSND chunk in the WAV file by writing the data chunk size in little&#45;endian format.">
<polygon fill="white" stroke="#666666" points="311,-30.5 173.5,-30.5 173.5,0 311,0 311,-30.5"/>
<text text-anchor="start" x="181.5" y="-17" font-family="Helvetica,sans-Serif" font-size="10.00">NAudio.Wave.AiffFileWriter.</text>
<text text-anchor="middle" x="242.25" y="-5.75" font-family="Helvetica,sans-Serif" font-size="10.00">UpdateSsndChunk</text>
</a>
</g>
</g>
<!-- Node1&#45;&gt;Node5 -->
<g id="edge5_Node000001_Node000005" class="edge">
<title>Node1&#45;&gt;Node5</title>
<g id="a_edge5_Node000001_Node000005"><a xlink:title=" ">
<path fill="none" stroke="#63b8ff" d="M104.6,-69.56C124.64,-60.68 150.36,-49.53 173.5,-40.25 177.89,-38.49 182.45,-36.71 187.04,-34.95"/>
<polygon fill="#63b8ff" stroke="#63b8ff" points="188.21,-38.25 196.33,-31.43 185.73,-31.7 188.21,-38.25"/>
</a>
</g>
</g>
<!-- Node4&#45;&gt;Node3 -->
<g id="edge4_Node000004_Node000003" class="edge">
<title>Node4&#45;&gt;Node3</title>
<g id="a_edge4_Node000004_Node000003"><a xlink:title=" ">
<path fill="none" stroke="#63b8ff" d="M311.03,-64.25C318.99,-64.25 327.16,-64.25 335.25,-64.25"/>
<polygon fill="#63b8ff" stroke="#63b8ff" points="335.1,-67.75 345.1,-64.25 335.1,-60.75 335.1,-67.75"/>
</a>
</g>
</g>
<!-- Node5&#45;&gt;Node3 -->
<g id="edge6_Node000005_Node000003" class="edge">
<title>Node5&#45;&gt;Node3</title>
<g id="a_edge6_Node000005_Node000003"><a xlink:title=" ">
<path fill="none" stroke="#63b8ff" d="M297.99,-30.89C314.15,-35.51 332.01,-40.61 348.8,-45.41"/>
<polygon fill="#63b8ff" stroke="#63b8ff" points="347.62,-48.71 358.2,-48.09 349.54,-41.98 347.62,-48.71"/>
</a>
</g>
</g>
</g>
</svg>
</svg>

<style type='text/css'>
<![CDATA[
[data-mouse-over-selected='false'] { opacity: 0.7; }
[data-mouse-over-selected='true']  { opacity: 1.0; }
]]>
</style>
<script type="application/ecmascript"><![CDATA[
document.addEventListener('DOMContentLoaded', (event) => {
  highlightEdges();
  highlightAdjacentNodes();
});
]]></script>
</svg>
