<?xml version="1.0" encoding="UTF-8" standalone="no"?>
<!DOCTYPE svg PUBLIC "-//W3C//DTD SVG 1.1//EN"
 "http://www.w3.org/Graphics/SVG/1.1/DTD/svg11.dtd">
<!-- Generated by graphviz version 10.0.1 (20240210.2158)
 -->
<!-- Title: NAudio.MediaFoundation.MediaFoundationInterop.MFStartup Pages: 1 -->
<!--zoomable 113 -->

<svg id="main" version="1.1" xmlns="http://www.w3.org/2000/svg" xmlns:xlink="http://www.w3.org/1999/xlink" xml:space="preserve" onload="init(evt)">
<style type="text/css"><![CDATA[
.node, .edge {opacity: 0.7;}
.node.selected, .edge.selected {opacity: 1;}
.edge:hover path { stroke: red; }
.edge:hover polygon { stroke: red; fill: red; }
]]></style>

<defs>
  <circle id="rim" cx="0" cy="0" r="7"/>
  <circle id="rim2" cx="0" cy="0" r="3.5"/>
  <g id="zoomPlus">
    <use xlink:href="#rim" fill="#404040"><set attributeName="fill" to="#808080" begin="zoomplus.mouseover" end="zoomplus.mouseout"/></use>
    <path d="M-4,0h8M0,-4v8" fill="none" stroke="white" stroke-width="1.5" pointer-events="none"/>
  </g>
  <g id="zoomMin">
    <use xlink:href="#rim" fill="#404040"><set attributeName="fill" to="#808080" begin="zoomminus.mouseover" end="zoomminus.mouseout"/></use>
    <path d="M-4,0h8" fill="none" stroke="white" stroke-width="1.5" pointer-events="none"/>
  </g>
  <g id="arrowUp" transform="translate(30 24)">
    <use xlink:href="#rim"/>
    <path pointer-events="none" fill="none" stroke="white" stroke-width="1.5" d="M0,-3.0v7 M-2.5,-0.5L0,-3.0L2.5,-0.5"/>
  </g>
  <g id="arrowRight" transform="rotate(90) translate(36 -43)">
    <use xlink:href="#rim"/>
    <path pointer-events="none" fill="none" stroke="white" stroke-width="1.5" d="M0,-3.0v7 M-2.5,-0.5L0,-3.0L2.5,-0.5"/>
  </g>
  <g id="arrowDown" transform="rotate(180) translate(-30 -48)">
    <use xlink:href="#rim"/>
    <path pointer-events="none" fill="none" stroke="white" stroke-width="1.5" d="M0,-3.0v7 M-2.5,-0.5L0,-3.0L2.5,-0.5"/>
  </g>
  <g id="arrowLeft" transform="rotate(270) translate(-36 17)">
    <use xlink:href="#rim"/>
    <path pointer-events="none" fill="none" stroke="white" stroke-width="1.5" d="M0,-3.0v7 M-2.5,-0.5L0,-3.0L2.5,-0.5"/>
  </g>
  <g id="resetDef">
    <use xlink:href="#rim2" fill="#404040"><set attributeName="fill" to="#808080" begin="reset.mouseover" end="reset.mouseout"/></use>
  </g>
</defs>
<script type="application/ecmascript">
var viewWidth = 800;
var viewHeight = 113;
var sectionId = 'dynsection-6';
</script>
<script type="application/ecmascript" xlink:href="svg.min.js"/>
<svg id="graph" class="graph">
<g id="viewport">
<title>NAudio.MediaFoundation.MediaFoundationInterop.MFStartup</title>
<!-- Node1 -->
<g id="Node000001" class="node">
<title>Node1</title>
<g id="a_Node000001"><a xlink:title="Initializes the Media Foundation platform.">
<polygon fill="#999999" stroke="#666666" points="791.5,-54.5 636.75,-54.5 636.75,-24 791.5,-24 791.5,-54.5"/>
<text text-anchor="start" x="644.75" y="-41" font-family="Helvetica,sans-Serif" font-size="10.00">NAudio.MediaFoundation.Media</text>
<text text-anchor="middle" x="714.12" y="-29.75" font-family="Helvetica,sans-Serif" font-size="10.00">FoundationInterop.MFStartup</text>
</a>
</g>
</g>
<!-- Node2 -->
<g id="Node000002" class="node">
<title>Node2</title>
<g id="a_Node000002"><a xlink:href="class_n_audio_1_1_media_foundation_1_1_media_foundation_api.html#a64dbbb824199204c5a8cf57515732a0f" target="_top" xlink:title="Initializes the Media Foundation platform if not already initialized.">
<polygon fill="white" stroke="#666666" points="600.75,-54.5 446,-54.5 446,-24 600.75,-24 600.75,-54.5"/>
<text text-anchor="start" x="454" y="-41" font-family="Helvetica,sans-Serif" font-size="10.00">NAudio.MediaFoundation.Media</text>
<text text-anchor="middle" x="523.38" y="-29.75" font-family="Helvetica,sans-Serif" font-size="10.00">FoundationApi.Startup</text>
</a>
</g>
</g>
<!-- Node1&#45;&gt;Node2 -->
<g id="edge1_Node000001_Node000002" class="edge">
<title>Node1&#45;&gt;Node2</title>
<g id="a_edge1_Node000001_Node000002"><a xlink:title=" ">
<path fill="none" stroke="#63b8ff" d="M625.08,-39.25C617.07,-39.25 608.99,-39.25 601.08,-39.25"/>
<polygon fill="#63b8ff" stroke="#63b8ff" points="624.84,-42.75 634.84,-39.25 624.84,-35.75 624.84,-42.75"/>
</a>
</g>
</g>
<!-- Node3 -->
<g id="Node000003" class="node">
<title>Node3</title>
<g id="a_Node000003"><a xlink:href="class_n_audio_1_1_wave_1_1_media_foundation_reader.html#a030e2baaaa4d3a16ebe5430fdc06332f" target="_top" xlink:title="Initializes the MediaFoundationReader with the specified settings.">
<polygon fill="white" stroke="#666666" points="393.12,-79.5 239.88,-79.5 239.88,-49 393.12,-49 393.12,-79.5"/>
<text text-anchor="start" x="247.88" y="-66" font-family="Helvetica,sans-Serif" font-size="10.00">NAudio.Wave.MediaFoundation</text>
<text text-anchor="middle" x="316.5" y="-54.75" font-family="Helvetica,sans-Serif" font-size="10.00">Reader.Init</text>
</a>
</g>
</g>
<!-- Node2&#45;&gt;Node3 -->
<g id="edge2_Node000002_Node000003" class="edge">
<title>Node2&#45;&gt;Node3</title>
<g id="a_edge2_Node000002_Node000003"><a xlink:title=" ">
<path fill="none" stroke="#63b8ff" d="M434.2,-50.01C420.63,-51.67 406.72,-53.36 393.44,-54.98"/>
<polygon fill="#63b8ff" stroke="#63b8ff" points="434.5,-53.5 444,-48.81 433.65,-46.55 434.5,-53.5"/>
</a>
</g>
</g>
<!-- Node6 -->
<g id="Node000006" class="node">
<title>Node6</title>
<g id="a_Node000006"><a xlink:href="class_n_audio_1_1_wave_1_1_media_foundation_resampler.html#ab7e85318c5cc7b4040e847577a73ee5a" target="_top" xlink:title="Creates the Media Foundation Resampler, allowing modifying of sample rate, bit depth and channel coun...">
<polygon fill="white" stroke="#666666" points="410,-30.5 223,-30.5 223,0 410,0 410,-30.5"/>
<text text-anchor="start" x="231" y="-17" font-family="Helvetica,sans-Serif" font-size="10.00">NAudio.Wave.MediaFoundation</text>
<text text-anchor="middle" x="316.5" y="-5.75" font-family="Helvetica,sans-Serif" font-size="10.00">Resampler.MediaFoundationResampler</text>
</a>
</g>
</g>
<!-- Node2&#45;&gt;Node6 -->
<g id="edge5_Node000002_Node000006" class="edge">
<title>Node2&#45;&gt;Node6</title>
<g id="a_edge5_Node000002_Node000006"><a xlink:title=" ">
<path fill="none" stroke="#63b8ff" d="M434.09,-28.91C426.23,-27.99 418.25,-27.05 410.36,-26.13"/>
<polygon fill="#63b8ff" stroke="#63b8ff" points="433.66,-32.38 444,-30.07 434.48,-25.43 433.66,-32.38"/>
</a>
</g>
</g>
<!-- Node4 -->
<g id="Node000004" class="node">
<title>Node4</title>
<g id="a_Node000004"><a xlink:href="class_n_audio_1_1_wave_1_1_media_foundation_reader.html#a478c60af06406213cd899a93ec6c51ab" target="_top" xlink:title="Creates a new MediaFoundationReader based on the supplied file.">
<polygon fill="white" stroke="#666666" points="171.25,-104.5 15.75,-104.5 15.75,-74 171.25,-74 171.25,-104.5"/>
<text text-anchor="start" x="23.75" y="-91" font-family="Helvetica,sans-Serif" font-size="10.00">NAudio.Wave.MediaFoundation</text>
<text text-anchor="middle" x="93.5" y="-79.75" font-family="Helvetica,sans-Serif" font-size="10.00">Reader.MediaFoundationReader</text>
</a>
</g>
</g>
<!-- Node3&#45;&gt;Node4 -->
<g id="edge3_Node000003_Node000004" class="edge">
<title>Node3&#45;&gt;Node4</title>
<g id="a_edge3_Node000003_Node000004"><a xlink:title=" ">
<path fill="none" stroke="#63b8ff" d="M228.22,-74.12C209.46,-76.25 189.77,-78.47 171.45,-80.55"/>
<polygon fill="#63b8ff" stroke="#63b8ff" points="228.4,-77.63 237.94,-73.02 227.61,-70.67 228.4,-77.63"/>
</a>
</g>
</g>
<!-- Node5 -->
<g id="Node000005" class="node">
<title>Node5</title>
<g id="a_Node000005"><a xlink:href="class_n_audio_1_1_wave_1_1_stream_media_foundation_reader.html#ad4b042f9d2fb5e83ae115deac0a104ac" target="_top" xlink:title="Constructs a new media foundation reader from a stream.">
<polygon fill="white" stroke="#666666" points="187,-55.5 0,-55.5 0,-25 187,-25 187,-55.5"/>
<text text-anchor="start" x="8" y="-42" font-family="Helvetica,sans-Serif" font-size="10.00">NAudio.Wave.StreamMediaFoundation</text>
<text text-anchor="middle" x="93.5" y="-30.75" font-family="Helvetica,sans-Serif" font-size="10.00">Reader.StreamMediaFoundationReader</text>
</a>
</g>
</g>
<!-- Node3&#45;&gt;Node5 -->
<g id="edge4_Node000003_Node000005" class="edge">
<title>Node3&#45;&gt;Node5</title>
<g id="a_edge4_Node000003_Node000005"><a xlink:title=" ">
<path fill="none" stroke="#63b8ff" d="M228.31,-54.78C214.91,-53.33 201.02,-51.82 187.5,-50.35"/>
<polygon fill="#63b8ff" stroke="#63b8ff" points="227.62,-58.23 237.94,-55.83 228.38,-51.27 227.62,-58.23"/>
</a>
</g>
</g>
</g>
</svg>

<g id="navigator" transform="translate(0 0)" fill="#404254">
  <rect fill="#f2f5e9" fill-opacity="0.5" stroke="#606060" stroke-width=".5" x="0" y="0" width="60" height="60"/>
  <use id="zoomplus" xlink:href="#zoomPlus" x="17" y="9" onmousedown="handleZoom(evt,'in')"/>
  <use id="zoomminus" xlink:href="#zoomMin" x="42" y="9" onmousedown="handleZoom(evt,'out')"/>
  <use id="reset" xlink:href="#resetDef" x="30" y="36" onmousedown="handleReset()"/>
   <use id="arrowup" xlink:href="#arrowUp" x="0" y="0" onmousedown="handlePan(0,-1)"/>
  <use id="arrowright" xlink:href="#arrowRight" x="0" y="0" onmousedown="handlePan(1,0)"/>
  <use id="arrowdown" xlink:href="#arrowDown" x="0" y="0" onmousedown="handlePan(0,1)"/>
  <use id="arrowleft" xlink:href="#arrowLeft" x="0" y="0" onmousedown="handlePan(-1,0)"/>
</g>
<svg viewBox="0 0 15 15" width="100%" height="30px" preserveAspectRatio="xMaxYMin meet">
 <g id="arrow_out" transform="scale(0.3 0.3)">
  <a xlink:href="class_n_audio_1_1_media_foundation_1_1_media_foundation_interop_a97a12e88647b8859903e5be40b3c6b1c_icgraph_org.svg" target="_base">
   <rect id="button" ry="5" rx="5" y="6" x="6" height="38" width="38"
        fill="#f2f5e9" fill-opacity="0.5" stroke="#606060" stroke-width="1.0"/>
   <path id="arrow"
     d="M 11.500037,31.436501 C 11.940474,20.09759 22.043105,11.32322 32.158766,21.979434 L 37.068811,17.246167 C 37.068811,17.246167 37.088388,32 37.088388,32 L 22.160133,31.978069 C 22.160133,31.978069 26.997745,27.140456 26.997745,27.140456 C 18.528582,18.264221 13.291696,25.230495 11.500037,31.436501 z"
     style="fill:#404040;"/>
  </a>
 </g>
</svg>

<style type='text/css'>
<![CDATA[
[data-mouse-over-selected='false'] { opacity: 0.7; }
[data-mouse-over-selected='true']  { opacity: 1.0; }
]]>
</style>
<script type="application/ecmascript"><![CDATA[
document.addEventListener('DOMContentLoaded', (event) => {
  highlightEdges();
  highlightAdjacentNodes();
});
]]></script>
</svg>
