<?xml version="1.0" encoding="UTF-8" standalone="no"?>
<!DOCTYPE svg PUBLIC "-//W3C//DTD SVG 1.1//EN"
 "http://www.w3.org/Graphics/SVG/1.1/DTD/svg11.dtd">
<!-- Generated by graphviz version 10.0.1 (20240210.2158)
 -->
<!-- Title: NAudio.Wave.MixingWaveProvider32.MixingWaveProvider32 Pages: 1 -->
<svg width="591pt" height="39pt"
 viewBox="0.00 0.00 590.75 38.50" xmlns="http://www.w3.org/2000/svg" xmlns:xlink="http://www.w3.org/1999/xlink">
<g id="graph0" class="graph" transform="scale(1 1) rotate(0) translate(4 34.5)">
<title>NAudio.Wave.MixingWaveProvider32.MixingWaveProvider32</title>
<!-- Node1 -->
<g id="Node000001" class="node">
<title>Node1</title>
<g id="a_Node000001"><a xlink:title="Creates a new MixingWaveProvider32.">
<polygon fill="#999999" stroke="#666666" points="181.75,-30.5 0,-30.5 0,0 181.75,0 181.75,-30.5"/>
<text text-anchor="start" x="8" y="-17" font-family="Helvetica,sans-Serif" font-size="10.00">NAudio.Wave.MixingWaveProvider32.</text>
<text text-anchor="middle" x="90.88" y="-5.75" font-family="Helvetica,sans-Serif" font-size="10.00">MixingWaveProvider32</text>
</a>
</g>
</g>
<!-- Node2 -->
<g id="Node000002" class="node">
<title>Node2</title>
<g id="a_Node000002"><a xlink:href="class_n_audio_1_1_wave_1_1_wave_format.html#a2dd0e9ea4097e54981725d6ad7c3290d" target="_top" xlink:title="Creates a new IEEE float wave format with the specified sample rate and number of channels.">
<polygon fill="white" stroke="#666666" points="384.5,-30.5 217.75,-30.5 217.75,0 384.5,0 384.5,-30.5"/>
<text text-anchor="start" x="225.75" y="-17" font-family="Helvetica,sans-Serif" font-size="10.00">NAudio.Wave.WaveFormat.Create</text>
<text text-anchor="middle" x="301.12" y="-5.75" font-family="Helvetica,sans-Serif" font-size="10.00">IeeeFloatWaveFormat</text>
</a>
</g>
</g>
<!-- Node1&#45;&gt;Node2 -->
<g id="edge1_Node000001_Node000002" class="edge">
<title>Node1&#45;&gt;Node2</title>
<g id="a_edge1_Node000001_Node000002"><a xlink:title=" ">
<path fill="none" stroke="#63b8ff" d="M182.01,-15.25C190,-15.25 198.11,-15.25 206.13,-15.25"/>
<polygon fill="#63b8ff" stroke="#63b8ff" points="205.89,-18.75 215.89,-15.25 205.89,-11.75 205.89,-18.75"/>
</a>
</g>
</g>
<!-- Node3 -->
<g id="Node000003" class="node">
<title>Node3</title>
<g id="a_Node000003"><a xlink:href="class_n_audio_1_1_wave_1_1_wave_format.html#a9efee93326fe1770b4e474c7afa3dc72" target="_top" xlink:title="Creates a new PCM 44.1Khz stereo 16 bit format.">
<polygon fill="white" stroke="#666666" points="582.75,-30.5 420.5,-30.5 420.5,0 582.75,0 582.75,-30.5"/>
<text text-anchor="start" x="428.5" y="-17" font-family="Helvetica,sans-Serif" font-size="10.00">NAudio.Wave.WaveFormat.Wave</text>
<text text-anchor="middle" x="501.62" y="-5.75" font-family="Helvetica,sans-Serif" font-size="10.00">Format</text>
</a>
</g>
</g>
<!-- Node2&#45;&gt;Node3 -->
<g id="edge2_Node000002_Node000003" class="edge">
<title>Node2&#45;&gt;Node3</title>
<g id="a_edge2_Node000002_Node000003"><a xlink:title=" ">
<path fill="none" stroke="#63b8ff" d="M384.87,-15.25C392.82,-15.25 400.92,-15.25 408.95,-15.25"/>
<polygon fill="#63b8ff" stroke="#63b8ff" points="408.73,-18.75 418.73,-15.25 408.73,-11.75 408.73,-18.75"/>
</a>
</g>
</g>
</g>
</svg>
