<?xml version="1.0" encoding="UTF-8" standalone="no"?>
<!DOCTYPE svg PUBLIC "-//W3C//DTD SVG 1.1//EN"
 "http://www.w3.org/Graphics/SVG/1.1/DTD/svg11.dtd">
<!-- Generated by graphviz version 10.0.1 (20240210.2158)
 -->
<!-- Title: NAudio.Dmo.Effect.DmoDistortion Pages: 1 -->
<svg width="775pt" height="816pt"
 viewBox="0.00 0.00 774.75 815.50" xmlns="http://www.w3.org/2000/svg" xmlns:xlink="http://www.w3.org/1999/xlink">
<g id="graph0" class="graph" transform="scale(1 1) rotate(0) translate(4 811.5)">
<title>NAudio.Dmo.Effect.DmoDistortion</title>
<!-- Node1 -->
<g id="Node000001" class="node">
<title>Node1</title>
<g id="a_Node000001"><a xlink:title="DMO Distortion Effect.">
<polygon fill="#999999" stroke="none" points="388,-94 227,-94 227,0 388,0 388,-94"/>
<text text-anchor="start" x="231.75" y="-80.5" font-family="Helvetica,sans-Serif" font-size="10.00">NAudio.Dmo.Effect.DmoDistortion</text>
<text text-anchor="start" x="245" y="-65.5" font-family="Helvetica,sans-Serif" font-size="10.00">+</text>
<text text-anchor="start" x="269" y="-65.5" font-family="Helvetica,sans-Serif" font-size="10.00">MediaObject</text>
<text text-anchor="start" x="245" y="-50.5" font-family="Helvetica,sans-Serif" font-size="10.00">+</text>
<text text-anchor="start" x="269" y="-50.5" font-family="Helvetica,sans-Serif" font-size="10.00">MediaObjectInPlace</text>
<text text-anchor="start" x="245" y="-35.5" font-family="Helvetica,sans-Serif" font-size="10.00">+</text>
<text text-anchor="start" x="269" y="-35.5" font-family="Helvetica,sans-Serif" font-size="10.00">EffectParams</text>
<text text-anchor="start" x="245" y="-20.5" font-family="Helvetica,sans-Serif" font-size="10.00">+</text>
<text text-anchor="start" x="269" y="-20.5" font-family="Helvetica,sans-Serif" font-size="10.00">DmoDistortion()</text>
<text text-anchor="start" x="245" y="-5.5" font-family="Helvetica,sans-Serif" font-size="10.00">+</text>
<text text-anchor="start" x="269" y="-5.5" font-family="Helvetica,sans-Serif" font-size="10.00">Dispose()</text>
<polygon fill="#666666" stroke="#666666" points="227,-77 227,-77 388,-77 388,-77 227,-77"/>
<polygon fill="#666666" stroke="#666666" points="227,-32 227,-32 267,-32 267,-32 227,-32"/>
<polygon fill="#666666" stroke="#666666" points="267,-32 267,-32 388,-32 388,-32 267,-32"/>
<polygon fill="none" stroke="#666666" points="227,0 227,-94 388,-94 388,0 227,0"/>
</a>
</g>
</g>
<!-- Node2 -->
<g id="Node000002" class="node">
<title>Node2</title>
<g id="a_Node000002"><a xlink:href="interface_n_audio_1_1_dmo_1_1_effect_1_1_i_dmo_effector.html" target="_top" xlink:title=" ">
<polygon fill="white" stroke="none" points="143,-328.75 0,-328.75 0,-238.75 143,-238.75 143,-328.75"/>
<text text-anchor="start" x="4.75" y="-315.25" font-family="Helvetica,sans-Serif" font-size="10.00">IDmoEffector&lt; DmoDistortion.</text>
<text text-anchor="start" x="50.12" y="-304" font-family="Helvetica,sans-Serif" font-size="10.00">Params &gt;</text>
<text text-anchor="start" x="13.5" y="-289.25" font-family="Helvetica,sans-Serif" font-size="10.00">+</text>
<text text-anchor="start" x="33" y="-289.25" font-family="Helvetica,sans-Serif" font-size="10.00">MediaObject</text>
<text text-anchor="start" x="13.5" y="-274.25" font-family="Helvetica,sans-Serif" font-size="10.00">+</text>
<text text-anchor="start" x="33" y="-274.25" font-family="Helvetica,sans-Serif" font-size="10.00">MediaObjectInPlace</text>
<text text-anchor="start" x="13.5" y="-259.25" font-family="Helvetica,sans-Serif" font-size="10.00">+</text>
<text text-anchor="start" x="33" y="-259.25" font-family="Helvetica,sans-Serif" font-size="10.00">EffectParams</text>
<text text-anchor="start" x="70" y="-244.25" font-family="Helvetica,sans-Serif" font-size="10.00"> </text>
<polygon fill="#666666" stroke="#666666" points="0,-300.75 0,-300.75 143,-300.75 143,-300.75 0,-300.75"/>
<polygon fill="#666666" stroke="#666666" points="0,-255.75 0,-255.75 31,-255.75 31,-255.75 0,-255.75"/>
<polygon fill="#666666" stroke="#666666" points="31,-255.75 31,-255.75 143,-255.75 143,-255.75 31,-255.75"/>
<polygon fill="none" stroke="#666666" points="0,-238.75 0,-328.75 143,-328.75 143,-238.75 0,-238.75"/>
</a>
</g>
</g>
<!-- Node2&#45;&gt;Node1 -->
<g id="edge1_Node000001_Node000002" class="edge">
<title>Node2&#45;&gt;Node1</title>
<g id="a_edge1_Node000001_Node000002"><a xlink:title=" ">
<path fill="none" stroke="#63b8ff" d="M94.24,-228.86C108.1,-200.45 127.9,-166.39 152.5,-141.25 173.8,-119.48 201.22,-100.82 227.05,-86.04"/>
<polygon fill="none" stroke="#63b8ff" points="91.18,-227.14 90.05,-237.68 97.5,-230.15 91.18,-227.14"/>
</a>
</g>
</g>
<!-- Node3 -->
<g id="Node000003" class="node">
<title>Node3</title>
<g id="a_Node000003"><a xlink:href="class_n_audio_1_1_dmo_1_1_media_object.html" target="_top" xlink:title="Media Object.">
<polygon fill="white" stroke="none" points="465.5,-426.25 311.5,-426.25 311.5,-141.25 465.5,-141.25 465.5,-426.25"/>
<text text-anchor="start" x="331.5" y="-412.75" font-family="Helvetica,sans-Serif" font-size="10.00">NAudio.Dmo.MediaObject</text>
<text text-anchor="start" x="315.5" y="-397.75" font-family="Helvetica,sans-Serif" font-size="10.00">+</text>
<text text-anchor="start" x="325.5" y="-397.75" font-family="Helvetica,sans-Serif" font-size="10.00">InputStreamCount</text>
<text text-anchor="start" x="315.5" y="-382.75" font-family="Helvetica,sans-Serif" font-size="10.00">+</text>
<text text-anchor="start" x="325.5" y="-382.75" font-family="Helvetica,sans-Serif" font-size="10.00">OutputStreamCount</text>
<text text-anchor="start" x="315.5" y="-367.75" font-family="Helvetica,sans-Serif" font-size="10.00">+</text>
<text text-anchor="start" x="325.5" y="-367.75" font-family="Helvetica,sans-Serif" font-size="10.00">GetInputType()</text>
<text text-anchor="start" x="315.5" y="-352.75" font-family="Helvetica,sans-Serif" font-size="10.00">+</text>
<text text-anchor="start" x="325.5" y="-352.75" font-family="Helvetica,sans-Serif" font-size="10.00">GetOutputType()</text>
<text text-anchor="start" x="315.5" y="-337.75" font-family="Helvetica,sans-Serif" font-size="10.00">+</text>
<text text-anchor="start" x="325.5" y="-337.75" font-family="Helvetica,sans-Serif" font-size="10.00">GetOutputCurrentType()</text>
<text text-anchor="start" x="315.5" y="-322.75" font-family="Helvetica,sans-Serif" font-size="10.00">+</text>
<text text-anchor="start" x="325.5" y="-322.75" font-family="Helvetica,sans-Serif" font-size="10.00">GetInputTypes()</text>
<text text-anchor="start" x="315.5" y="-307.75" font-family="Helvetica,sans-Serif" font-size="10.00">+</text>
<text text-anchor="start" x="325.5" y="-307.75" font-family="Helvetica,sans-Serif" font-size="10.00">GetOutputTypes()</text>
<text text-anchor="start" x="315.5" y="-292.75" font-family="Helvetica,sans-Serif" font-size="10.00">+</text>
<text text-anchor="start" x="325.5" y="-292.75" font-family="Helvetica,sans-Serif" font-size="10.00">SupportsInputType()</text>
<text text-anchor="start" x="315.5" y="-277.75" font-family="Helvetica,sans-Serif" font-size="10.00">+</text>
<text text-anchor="start" x="325.5" y="-277.75" font-family="Helvetica,sans-Serif" font-size="10.00">SetInputType()</text>
<text text-anchor="start" x="315.5" y="-262.75" font-family="Helvetica,sans-Serif" font-size="10.00">+</text>
<text text-anchor="start" x="325.5" y="-262.75" font-family="Helvetica,sans-Serif" font-size="10.00">SetInputWaveFormat()</text>
<text text-anchor="start" x="315.5" y="-247.75" font-family="Helvetica,sans-Serif" font-size="10.00">+</text>
<text text-anchor="start" x="325.5" y="-247.75" font-family="Helvetica,sans-Serif" font-size="10.00">SupportsInputWaveFormat()</text>
<text text-anchor="start" x="315.5" y="-232.75" font-family="Helvetica,sans-Serif" font-size="10.00">+</text>
<text text-anchor="start" x="325.5" y="-232.75" font-family="Helvetica,sans-Serif" font-size="10.00">SupportsOutputType()</text>
<text text-anchor="start" x="325.5" y="-217.75" font-family="Helvetica,sans-Serif" font-size="10.00">and 14 more...</text>
<text text-anchor="start" x="315.5" y="-202.75" font-family="Helvetica,sans-Serif" font-size="10.00">~</text>
<text text-anchor="start" x="325.5" y="-202.75" font-family="Helvetica,sans-Serif" font-size="10.00">MediaObject()</text>
<text text-anchor="start" x="317" y="-187.75" font-family="Helvetica,sans-Serif" font-size="10.00">&#45;</text>
<text text-anchor="start" x="325.5" y="-187.75" font-family="Helvetica,sans-Serif" font-size="10.00">SetInputType()</text>
<text text-anchor="start" x="317" y="-172.75" font-family="Helvetica,sans-Serif" font-size="10.00">&#45;</text>
<text text-anchor="start" x="325.5" y="-172.75" font-family="Helvetica,sans-Serif" font-size="10.00">CreateDmoMediaTypeForWave</text>
<text text-anchor="start" x="325.5" y="-161.5" font-family="Helvetica,sans-Serif" font-size="10.00">Format()</text>
<text text-anchor="start" x="317" y="-146.75" font-family="Helvetica,sans-Serif" font-size="10.00">&#45;</text>
<text text-anchor="start" x="325.5" y="-146.75" font-family="Helvetica,sans-Serif" font-size="10.00">SetOutputType()</text>
<polygon fill="#666666" stroke="#666666" points="311.5,-409.25 311.5,-409.25 465.5,-409.25 465.5,-409.25 311.5,-409.25"/>
<polygon fill="#666666" stroke="#666666" points="311.5,-379.25 311.5,-379.25 323.5,-379.25 323.5,-379.25 311.5,-379.25"/>
<polygon fill="#666666" stroke="#666666" points="323.5,-379.25 323.5,-379.25 465.5,-379.25 465.5,-379.25 323.5,-379.25"/>
<polygon fill="none" stroke="#666666" points="311.5,-141.25 311.5,-426.25 465.5,-426.25 465.5,-141.25 311.5,-141.25"/>
</a>
</g>
</g>
<!-- Node3&#45;&gt;Node1 -->
<g id="edge2_Node000001_Node000003" class="edge">
<title>Node3&#45;&gt;Node1</title>
<g id="a_edge2_Node000001_Node000003"><a xlink:title=" ">
<path fill="none" stroke="#63b8ff" d="M366.48,-141.41C363.3,-131.29 359.66,-121.38 355.5,-112 354.42,-109.57 353.24,-107.14 351.97,-104.74"/>
<polygon fill="none" stroke="#63b8ff" points="352,-104.8 345.52,-101.64 345.94,-94.44 352.43,-97.6 352,-104.8"/>
</a>
</g>
<text text-anchor="middle" x="389.88" y="-113.75" font-family="Helvetica,sans-Serif" font-size="10.00" fill="grey"> &#45;mediaObject</text>
</g>
<!-- Node4 -->
<g id="Node000004" class="node">
<title>Node4</title>
<g id="a_Node000004"><a xlink:href="class_i_disposable.html" target="_top" xlink:title=" ">
<polygon fill="white" stroke="none" points="303,-732.5 242,-732.5 242,-683.5 303,-683.5 303,-732.5"/>
<text text-anchor="start" x="246.62" y="-719" font-family="Helvetica,sans-Serif" font-size="10.00">IDisposable</text>
<text text-anchor="start" x="271" y="-704" font-family="Helvetica,sans-Serif" font-size="10.00"> </text>
<text text-anchor="start" x="271" y="-689" font-family="Helvetica,sans-Serif" font-size="10.00"> </text>
<polygon fill="#666666" stroke="#666666" points="242,-715.5 242,-715.5 303,-715.5 303,-715.5 242,-715.5"/>
<polygon fill="#666666" stroke="#666666" points="242,-700.5 242,-700.5 303,-700.5 303,-700.5 242,-700.5"/>
<polygon fill="none" stroke="#666666" points="242,-683.5 242,-732.5 303,-732.5 303,-683.5 242,-683.5"/>
</a>
</g>
</g>
<!-- Node4&#45;&gt;Node3 -->
<g id="edge3_Node000003_Node000004" class="edge">
<title>Node4&#45;&gt;Node3</title>
<g id="a_edge3_Node000003_Node000004"><a xlink:title=" ">
<path fill="none" stroke="#63b8ff" d="M281.88,-672.86C296.5,-619.63 325.56,-513.87 349.65,-426.18"/>
<polygon fill="none" stroke="#63b8ff" points="278.58,-671.67 279.3,-682.24 285.33,-673.52 278.58,-671.67"/>
</a>
</g>
</g>
<!-- Node7 -->
<g id="Node000007" class="node">
<title>Node7</title>
<g id="a_Node000007"><a xlink:href="class_n_audio_1_1_dmo_1_1_media_object_in_place.html" target="_top" xlink:title="Media Object InPlace.">
<polygon fill="white" stroke="none" points="293.5,-351.25 161.5,-351.25 161.5,-216.25 293.5,-216.25 293.5,-351.25"/>
<text text-anchor="start" x="166.38" y="-337.75" font-family="Helvetica,sans-Serif" font-size="10.00">NAudio.Dmo.MediaObjectIn</text>
<text text-anchor="start" x="215.12" y="-326.5" font-family="Helvetica,sans-Serif" font-size="10.00">Place</text>
<text text-anchor="start" x="226" y="-311.75" font-family="Helvetica,sans-Serif" font-size="10.00"> </text>
<text text-anchor="start" x="170.5" y="-296.75" font-family="Helvetica,sans-Serif" font-size="10.00">+</text>
<text text-anchor="start" x="185.5" y="-296.75" font-family="Helvetica,sans-Serif" font-size="10.00">Process()</text>
<text text-anchor="start" x="170.5" y="-281.75" font-family="Helvetica,sans-Serif" font-size="10.00">+</text>
<text text-anchor="start" x="185.5" y="-281.75" font-family="Helvetica,sans-Serif" font-size="10.00">Clone()</text>
<text text-anchor="start" x="170.5" y="-266.75" font-family="Helvetica,sans-Serif" font-size="10.00">+</text>
<text text-anchor="start" x="185.5" y="-266.75" font-family="Helvetica,sans-Serif" font-size="10.00">GetLatency()</text>
<text text-anchor="start" x="170.5" y="-251.75" font-family="Helvetica,sans-Serif" font-size="10.00">+</text>
<text text-anchor="start" x="185.5" y="-251.75" font-family="Helvetica,sans-Serif" font-size="10.00">GetMediaObject()</text>
<text text-anchor="start" x="170.5" y="-236.75" font-family="Helvetica,sans-Serif" font-size="10.00">+</text>
<text text-anchor="start" x="185.5" y="-236.75" font-family="Helvetica,sans-Serif" font-size="10.00">Dispose()</text>
<text text-anchor="start" x="170.5" y="-221.75" font-family="Helvetica,sans-Serif" font-size="10.00">~</text>
<text text-anchor="start" x="185.5" y="-221.75" font-family="Helvetica,sans-Serif" font-size="10.00">MediaObjectInPlace()</text>
<polygon fill="#666666" stroke="#666666" points="161.5,-323.25 161.5,-323.25 293.5,-323.25 293.5,-323.25 161.5,-323.25"/>
<polygon fill="#666666" stroke="#666666" points="161.5,-308.25 161.5,-308.25 293.5,-308.25 293.5,-308.25 161.5,-308.25"/>
<polygon fill="none" stroke="#666666" points="161.5,-216.25 161.5,-351.25 293.5,-351.25 293.5,-216.25 161.5,-216.25"/>
</a>
</g>
</g>
<!-- Node4&#45;&gt;Node7 -->
<g id="edge7_Node000007_Node000004" class="edge">
<title>Node4&#45;&gt;Node7</title>
<g id="a_edge7_Node000007_Node000004"><a xlink:title=" ">
<path fill="none" stroke="#63b8ff" d="M271.22,-672.23C269.11,-621.84 264.15,-525.63 254.5,-444.25 250.85,-413.43 245.31,-379.5 240.21,-350.89"/>
<polygon fill="none" stroke="#63b8ff" points="267.72,-672.37 271.62,-682.22 274.71,-672.08 267.72,-672.37"/>
</a>
</g>
</g>
<!-- Node5 -->
<g id="Node000005" class="node">
<title>Node5</title>
<g id="a_Node000005"><a xlink:href="interface_n_audio_1_1_dmo_1_1_i_media_object.html" target="_top" xlink:title="defined in mediaobj.h">
<polygon fill="white" stroke="none" points="448,-807.5 321,-807.5 321,-608.5 448,-608.5 448,-807.5"/>
<text text-anchor="start" x="326" y="-794" font-family="Helvetica,sans-Serif" font-size="10.00">NAudio.Dmo.IMediaObject</text>
<text text-anchor="start" x="383" y="-779" font-family="Helvetica,sans-Serif" font-size="10.00"> </text>
<text text-anchor="start" x="326" y="-764" font-family="Helvetica,sans-Serif" font-size="10.00">+</text>
<text text-anchor="start" x="337" y="-764" font-family="Helvetica,sans-Serif" font-size="10.00">GetStreamCount()</text>
<text text-anchor="start" x="326" y="-749" font-family="Helvetica,sans-Serif" font-size="10.00">+</text>
<text text-anchor="start" x="337" y="-749" font-family="Helvetica,sans-Serif" font-size="10.00">GetInputStreamInfo()</text>
<text text-anchor="start" x="326" y="-734" font-family="Helvetica,sans-Serif" font-size="10.00">+</text>
<text text-anchor="start" x="337" y="-734" font-family="Helvetica,sans-Serif" font-size="10.00">GetOutputStreamInfo()</text>
<text text-anchor="start" x="326" y="-719" font-family="Helvetica,sans-Serif" font-size="10.00">+</text>
<text text-anchor="start" x="337" y="-719" font-family="Helvetica,sans-Serif" font-size="10.00">GetInputType()</text>
<text text-anchor="start" x="326" y="-704" font-family="Helvetica,sans-Serif" font-size="10.00">+</text>
<text text-anchor="start" x="337" y="-704" font-family="Helvetica,sans-Serif" font-size="10.00">GetOutputType()</text>
<text text-anchor="start" x="326" y="-689" font-family="Helvetica,sans-Serif" font-size="10.00">+</text>
<text text-anchor="start" x="337" y="-689" font-family="Helvetica,sans-Serif" font-size="10.00">SetInputType()</text>
<text text-anchor="start" x="326" y="-674" font-family="Helvetica,sans-Serif" font-size="10.00">+</text>
<text text-anchor="start" x="337" y="-674" font-family="Helvetica,sans-Serif" font-size="10.00">SetOutputType()</text>
<text text-anchor="start" x="326" y="-659" font-family="Helvetica,sans-Serif" font-size="10.00">+</text>
<text text-anchor="start" x="337" y="-659" font-family="Helvetica,sans-Serif" font-size="10.00">GetInputCurrentType()</text>
<text text-anchor="start" x="326" y="-644" font-family="Helvetica,sans-Serif" font-size="10.00">+</text>
<text text-anchor="start" x="337" y="-644" font-family="Helvetica,sans-Serif" font-size="10.00">GetOutputCurrentType()</text>
<text text-anchor="start" x="326" y="-629" font-family="Helvetica,sans-Serif" font-size="10.00">+</text>
<text text-anchor="start" x="337" y="-629" font-family="Helvetica,sans-Serif" font-size="10.00">GetInputSizeInfo()</text>
<text text-anchor="start" x="337" y="-614" font-family="Helvetica,sans-Serif" font-size="10.00">and 11 more...</text>
<polygon fill="#666666" stroke="#666666" points="321,-790.5 321,-790.5 448,-790.5 448,-790.5 321,-790.5"/>
<polygon fill="#666666" stroke="#666666" points="321,-775.5 321,-775.5 448,-775.5 448,-775.5 321,-775.5"/>
<polygon fill="none" stroke="#666666" points="321,-608.5 321,-807.5 448,-807.5 448,-608.5 321,-608.5"/>
</a>
</g>
</g>
<!-- Node5&#45;&gt;Node3 -->
<g id="edge4_Node000003_Node000005" class="edge">
<title>Node5&#45;&gt;Node3</title>
<g id="a_edge4_Node000003_Node000005"><a xlink:title=" ">
<path fill="none" stroke="#63b8ff" d="M385.43,-608.53C385.91,-558.12 386.5,-495.6 387.04,-438.97"/>
<polygon fill="none" stroke="#63b8ff" points="387.04,-439.13 383.09,-433.1 387.15,-427.13 391.09,-433.17 387.04,-439.13"/>
</a>
</g>
<text text-anchor="middle" x="417.88" y="-513.5" font-family="Helvetica,sans-Serif" font-size="10.00" fill="grey"> &#45;mediaObject</text>
</g>
<!-- Node6 -->
<g id="Node000006" class="node">
<title>Node6</title>
<g id="a_Node000006"><a xlink:title=" ">
<polygon fill="white" stroke="none" points="486.5,-732.5 466.5,-732.5 466.5,-683.5 486.5,-683.5 486.5,-732.5"/>
<text text-anchor="start" x="471.25" y="-719" font-family="Helvetica,sans-Serif" font-size="10.00">int</text>
<text text-anchor="start" x="475" y="-704" font-family="Helvetica,sans-Serif" font-size="10.00"> </text>
<text text-anchor="start" x="475" y="-689" font-family="Helvetica,sans-Serif" font-size="10.00"> </text>
<polygon fill="#666666" stroke="#666666" points="466.5,-715.5 466.5,-715.5 486.5,-715.5 486.5,-715.5 466.5,-715.5"/>
<polygon fill="#666666" stroke="#666666" points="466.5,-700.5 466.5,-700.5 486.5,-700.5 486.5,-700.5 466.5,-700.5"/>
<polygon fill="none" stroke="#666666" points="466.5,-683.5 466.5,-732.5 486.5,-732.5 486.5,-683.5 466.5,-683.5"/>
</a>
</g>
</g>
<!-- Node6&#45;&gt;Node3 -->
<g id="edge5_Node000003_Node000006" class="edge">
<title>Node6&#45;&gt;Node3</title>
<g id="a_edge5_Node000003_Node000006"><a xlink:title=" ">
<path fill="none" stroke="#63b8ff" d="M476.62,-683.79C476.38,-637.54 473.36,-530.87 452.5,-444.25 452.05,-442.39 451.59,-440.53 451.11,-438.66"/>
<polygon fill="none" stroke="#63b8ff" points="451.11,-438.69 445.67,-433.96 447.94,-427.12 453.38,-431.84 451.11,-438.69"/>
</a>
</g>
<text text-anchor="middle" x="506.88" y="-519.12" font-family="Helvetica,sans-Serif" font-size="10.00" fill="grey"> &#45;inputStreams</text>
<text text-anchor="middle" x="506.88" y="-507.88" font-family="Helvetica,sans-Serif" font-size="10.00" fill="grey">&#45;outputStreams</text>
</g>
<!-- Node7&#45;&gt;Node1 -->
<g id="edge6_Node000001_Node000007" class="edge">
<title>Node7&#45;&gt;Node1</title>
<g id="a_edge6_Node000001_Node000007"><a xlink:title=" ">
<path fill="none" stroke="#63b8ff" d="M234.19,-216.33C239.1,-183.89 247.49,-144.87 261.75,-112 262.75,-109.7 263.84,-107.4 265,-105.11"/>
<polygon fill="none" stroke="#63b8ff" points="265.03,-105.06 264.49,-97.87 270.92,-94.61 271.46,-101.8 265.03,-105.06"/>
</a>
</g>
<text text-anchor="middle" x="309.38" y="-113.75" font-family="Helvetica,sans-Serif" font-size="10.00" fill="grey"> &#45;mediaObjectInPlace</text>
</g>
<!-- Node8 -->
<g id="Node000008" class="node">
<title>Node8</title>
<g id="a_Node000008"><a xlink:title=" ">
<polygon fill="white" stroke="none" points="224,-753 89,-753 89,-663 224,-663 224,-753"/>
<text text-anchor="start" x="93.88" y="-739.5" font-family="Helvetica,sans-Serif" font-size="10.00">NAudio.Dmo.IMediaObjectIn</text>
<text text-anchor="start" x="144.12" y="-728.25" font-family="Helvetica,sans-Serif" font-size="10.00">Place</text>
<text text-anchor="start" x="155" y="-713.5" font-family="Helvetica,sans-Serif" font-size="10.00"> </text>
<text text-anchor="start" x="108" y="-698.5" font-family="Helvetica,sans-Serif" font-size="10.00">+</text>
<text text-anchor="start" x="133" y="-698.5" font-family="Helvetica,sans-Serif" font-size="10.00">Process()</text>
<text text-anchor="start" x="108" y="-683.5" font-family="Helvetica,sans-Serif" font-size="10.00">+</text>
<text text-anchor="start" x="133" y="-683.5" font-family="Helvetica,sans-Serif" font-size="10.00">Clone()</text>
<text text-anchor="start" x="108" y="-668.5" font-family="Helvetica,sans-Serif" font-size="10.00">+</text>
<text text-anchor="start" x="133" y="-668.5" font-family="Helvetica,sans-Serif" font-size="10.00">GetLatency()</text>
<polygon fill="#666666" stroke="#666666" points="89,-725 89,-725 224,-725 224,-725 89,-725"/>
<polygon fill="#666666" stroke="#666666" points="89,-710 89,-710 224,-710 224,-710 89,-710"/>
<polygon fill="none" stroke="#666666" points="89,-663 89,-753 224,-753 224,-663 89,-663"/>
</a>
</g>
</g>
<!-- Node8&#45;&gt;Node7 -->
<g id="edge8_Node000007_Node000008" class="edge">
<title>Node8&#45;&gt;Node7</title>
<g id="a_edge8_Node000007_Node000008"><a xlink:title=" ">
<path fill="none" stroke="#63b8ff" d="M151.07,-663.18C145.79,-610.55 140.69,-519.88 156.75,-444.25 162.62,-416.62 173.59,-387.96 185.18,-362.69"/>
<polygon fill="none" stroke="#63b8ff" points="185.21,-362.62 184.15,-355.49 190.33,-351.77 191.39,-358.9 185.21,-362.62"/>
</a>
</g>
<text text-anchor="middle" x="204.38" y="-513.5" font-family="Helvetica,sans-Serif" font-size="10.00" fill="grey"> &#45;mediaObjectInPlace</text>
</g>
<!-- Node9 -->
<g id="Node000009" class="node">
<title>Node9</title>
<g id="a_Node000009"><a xlink:href="struct_n_audio_1_1_dmo_1_1_effect_1_1_dmo_distortion_1_1_params.html" target="_top" xlink:title="DMO Distortion Params.">
<polygon fill="white" stroke="none" points="650.5,-396.25 486.5,-396.25 486.5,-171.25 650.5,-171.25 650.5,-396.25"/>
<text text-anchor="start" x="491.25" y="-382.75" font-family="Helvetica,sans-Serif" font-size="10.00">NAudio.Dmo.Effect.DmoDistortion.</text>
<text text-anchor="start" x="551.62" y="-371.5" font-family="Helvetica,sans-Serif" font-size="10.00">Params</text>
<text text-anchor="start" x="495.5" y="-356.75" font-family="Helvetica,sans-Serif" font-size="10.00">+</text>
<text text-anchor="start" x="510.5" y="-356.75" font-family="Helvetica,sans-Serif" font-size="10.00">PostEqCenterFrequencyMin</text>
<text text-anchor="start" x="495.5" y="-341.75" font-family="Helvetica,sans-Serif" font-size="10.00">+</text>
<text text-anchor="start" x="510.5" y="-341.75" font-family="Helvetica,sans-Serif" font-size="10.00">PostEqCenterFrequencyMax</text>
<text text-anchor="start" x="495.5" y="-326.75" font-family="Helvetica,sans-Serif" font-size="10.00">+</text>
<text text-anchor="start" x="510.5" y="-326.75" font-family="Helvetica,sans-Serif" font-size="10.00">PreLowPassCutoffMin</text>
<text text-anchor="start" x="495.5" y="-311.75" font-family="Helvetica,sans-Serif" font-size="10.00">+</text>
<text text-anchor="start" x="510.5" y="-311.75" font-family="Helvetica,sans-Serif" font-size="10.00">PreLowPassCutoffMax</text>
<text text-anchor="start" x="495.5" y="-296.75" font-family="Helvetica,sans-Serif" font-size="10.00">+</text>
<text text-anchor="start" x="510.5" y="-296.75" font-family="Helvetica,sans-Serif" font-size="10.00">PreLowPassCutoffDefault</text>
<text text-anchor="start" x="495.5" y="-281.75" font-family="Helvetica,sans-Serif" font-size="10.00">+</text>
<text text-anchor="start" x="510.5" y="-281.75" font-family="Helvetica,sans-Serif" font-size="10.00">Gain</text>
<text text-anchor="start" x="495.5" y="-266.75" font-family="Helvetica,sans-Serif" font-size="10.00">+</text>
<text text-anchor="start" x="510.5" y="-266.75" font-family="Helvetica,sans-Serif" font-size="10.00">Edge</text>
<text text-anchor="start" x="495.5" y="-251.75" font-family="Helvetica,sans-Serif" font-size="10.00">+</text>
<text text-anchor="start" x="510.5" y="-251.75" font-family="Helvetica,sans-Serif" font-size="10.00">PostEqCenterFrequency</text>
<text text-anchor="start" x="495.5" y="-236.75" font-family="Helvetica,sans-Serif" font-size="10.00">+</text>
<text text-anchor="start" x="510.5" y="-236.75" font-family="Helvetica,sans-Serif" font-size="10.00">PostEqBandWidth</text>
<text text-anchor="start" x="495.5" y="-221.75" font-family="Helvetica,sans-Serif" font-size="10.00">+</text>
<text text-anchor="start" x="510.5" y="-221.75" font-family="Helvetica,sans-Serif" font-size="10.00">PreLowPassCutoff</text>
<text text-anchor="start" x="495.5" y="-206.75" font-family="Helvetica,sans-Serif" font-size="10.00">~</text>
<text text-anchor="start" x="510.5" y="-206.75" font-family="Helvetica,sans-Serif" font-size="10.00">Params()</text>
<text text-anchor="start" x="497" y="-191.75" font-family="Helvetica,sans-Serif" font-size="10.00">&#45;</text>
<text text-anchor="start" x="510.5" y="-191.75" font-family="Helvetica,sans-Serif" font-size="10.00">SetAllParameters()</text>
<text text-anchor="start" x="497" y="-176.75" font-family="Helvetica,sans-Serif" font-size="10.00">&#45;</text>
<text text-anchor="start" x="510.5" y="-176.75" font-family="Helvetica,sans-Serif" font-size="10.00">GetAllParameters()</text>
<polygon fill="#666666" stroke="#666666" points="486.5,-368.25 486.5,-368.25 650.5,-368.25 650.5,-368.25 486.5,-368.25"/>
<polygon fill="#666666" stroke="#666666" points="486.5,-218.25 486.5,-218.25 508.5,-218.25 508.5,-218.25 486.5,-218.25"/>
<polygon fill="#666666" stroke="#666666" points="508.5,-218.25 508.5,-218.25 650.5,-218.25 650.5,-218.25 508.5,-218.25"/>
<polygon fill="none" stroke="#666666" points="486.5,-171.25 486.5,-396.25 650.5,-396.25 650.5,-171.25 486.5,-171.25"/>
</a>
</g>
</g>
<!-- Node9&#45;&gt;Node1 -->
<g id="edge9_Node000001_Node000009" class="edge">
<title>Node9&#45;&gt;Node1</title>
<g id="a_edge9_Node000001_Node000009"><a xlink:title=" ">
<path fill="none" stroke="#63b8ff" d="M501.86,-171.4C493.31,-160.64 484.15,-150.36 474.5,-141.25 452.63,-120.59 425.32,-102.88 399.17,-88.61"/>
<polygon fill="none" stroke="#63b8ff" points="399.05,-88.55 391.88,-89.27 388.45,-82.93 395.63,-82.2 399.05,-88.55"/>
</a>
</g>
<text text-anchor="middle" x="483.75" y="-113.75" font-family="Helvetica,sans-Serif" font-size="10.00" fill="grey"> &#45;effectParams</text>
</g>
<!-- Node10 -->
<g id="Node000010" class="node">
<title>Node10</title>
<g id="a_Node000010"><a xlink:title=" ">
<polygon fill="white" stroke="none" points="678.5,-732.5 650.5,-732.5 650.5,-683.5 678.5,-683.5 678.5,-732.5"/>
<text text-anchor="start" x="655.12" y="-719" font-family="Helvetica,sans-Serif" font-size="10.00">float</text>
<text text-anchor="start" x="663" y="-704" font-family="Helvetica,sans-Serif" font-size="10.00"> </text>
<text text-anchor="start" x="663" y="-689" font-family="Helvetica,sans-Serif" font-size="10.00"> </text>
<polygon fill="#666666" stroke="#666666" points="650.5,-715.5 650.5,-715.5 678.5,-715.5 678.5,-715.5 650.5,-715.5"/>
<polygon fill="#666666" stroke="#666666" points="650.5,-700.5 650.5,-700.5 678.5,-700.5 678.5,-700.5 650.5,-700.5"/>
<polygon fill="none" stroke="#666666" points="650.5,-683.5 650.5,-732.5 678.5,-732.5 678.5,-683.5 650.5,-683.5"/>
</a>
</g>
</g>
<!-- Node10&#45;&gt;Node9 -->
<g id="edge10_Node000009_Node000010" class="edge">
<title>Node10&#45;&gt;Node9</title>
<g id="a_edge10_Node000009_Node000010"><a xlink:title=" ">
<path fill="none" stroke="#63b8ff" d="M663.07,-683.82C659.84,-637.63 650.48,-531.06 628.5,-444.25 625.5,-432.42 621.92,-420.26 618,-408.19"/>
<polygon fill="none" stroke="#63b8ff" points="618.07,-408.39 612.38,-403.97 614.28,-397.01 619.97,-401.44 618.07,-408.39"/>
</a>
</g>
<text text-anchor="middle" x="710.12" y="-581" font-family="Helvetica,sans-Serif" font-size="10.00" fill="grey"> +EdgeDefault</text>
<text text-anchor="middle" x="710.12" y="-569.75" font-family="Helvetica,sans-Serif" font-size="10.00" fill="grey">+EdgeMax</text>
<text text-anchor="middle" x="710.12" y="-558.5" font-family="Helvetica,sans-Serif" font-size="10.00" fill="grey">+EdgeMin</text>
<text text-anchor="middle" x="710.12" y="-547.25" font-family="Helvetica,sans-Serif" font-size="10.00" fill="grey">+GainDefault</text>
<text text-anchor="middle" x="710.12" y="-536" font-family="Helvetica,sans-Serif" font-size="10.00" fill="grey">+GainMax</text>
<text text-anchor="middle" x="710.12" y="-524.75" font-family="Helvetica,sans-Serif" font-size="10.00" fill="grey">+GainMin</text>
<text text-anchor="start" x="653.5" y="-513.5" font-family="Helvetica,sans-Serif" font-size="10.00" fill="grey">+PostEqBandWidth</text>
<text text-anchor="middle" x="710.12" y="-502.25" font-family="Helvetica,sans-Serif" font-size="10.00" fill="grey">Default</text>
<text text-anchor="middle" x="710.12" y="-491" font-family="Helvetica,sans-Serif" font-size="10.00" fill="grey">+PostEqBandWidthMax</text>
<text text-anchor="middle" x="710.12" y="-479.75" font-family="Helvetica,sans-Serif" font-size="10.00" fill="grey">+PostEqBandWidthMin</text>
<text text-anchor="start" x="653.5" y="-468.5" font-family="Helvetica,sans-Serif" font-size="10.00" fill="grey">+PostEqCenterFrequency</text>
<text text-anchor="middle" x="710.12" y="-457.25" font-family="Helvetica,sans-Serif" font-size="10.00" fill="grey">Default</text>
<text text-anchor="middle" x="710.12" y="-446" font-family="Helvetica,sans-Serif" font-size="10.00" fill="grey">...</text>
</g>
<!-- Node11 -->
<g id="Node000011" class="node">
<title>Node11</title>
<g id="a_Node000011"><a xlink:href="interface_n_audio_1_1_dmo_1_1_effect_1_1_i_direct_sound_f_x_distortion.html" target="_top" xlink:title=" ">
<polygon fill="white" stroke="none" points="632,-745.5 505,-745.5 505,-670.5 632,-670.5 632,-745.5"/>
<text text-anchor="start" x="509.62" y="-732" font-family="Helvetica,sans-Serif" font-size="10.00">NAudio.Dmo.Effect.IDirect</text>
<text text-anchor="start" x="527.25" y="-720.75" font-family="Helvetica,sans-Serif" font-size="10.00">SoundFXDistortion</text>
<text text-anchor="start" x="567" y="-706" font-family="Helvetica,sans-Serif" font-size="10.00"> </text>
<text text-anchor="start" x="515.5" y="-691" font-family="Helvetica,sans-Serif" font-size="10.00">+</text>
<text text-anchor="start" x="532" y="-691" font-family="Helvetica,sans-Serif" font-size="10.00">SetAllParameters()</text>
<text text-anchor="start" x="515.5" y="-676" font-family="Helvetica,sans-Serif" font-size="10.00">+</text>
<text text-anchor="start" x="532" y="-676" font-family="Helvetica,sans-Serif" font-size="10.00">GetAllParameters()</text>
<polygon fill="#666666" stroke="#666666" points="505,-717.5 505,-717.5 632,-717.5 632,-717.5 505,-717.5"/>
<polygon fill="#666666" stroke="#666666" points="505,-702.5 505,-702.5 632,-702.5 632,-702.5 505,-702.5"/>
<polygon fill="none" stroke="#666666" points="505,-670.5 505,-745.5 632,-745.5 632,-670.5 505,-670.5"/>
</a>
</g>
</g>
<!-- Node11&#45;&gt;Node9 -->
<g id="edge11_Node000009_Node000011" class="edge">
<title>Node11&#45;&gt;Node9</title>
<g id="a_edge11_Node000009_Node000011"><a xlink:title=" ">
<path fill="none" stroke="#63b8ff" d="M568.5,-670.63C568.5,-613.15 568.5,-498.63 568.5,-409.21"/>
<polygon fill="none" stroke="#63b8ff" points="568.5,-409.11 564.5,-403.11 568.5,-397.11 572.5,-403.11 568.5,-409.11"/>
</a>
</g>
<text text-anchor="middle" x="596.62" y="-513.5" font-family="Helvetica,sans-Serif" font-size="10.00" fill="grey"> &#45;fxDistortion</text>
</g>
</g>
</svg>
