<?xml version="1.0" encoding="UTF-8" standalone="no"?>
<!DOCTYPE svg PUBLIC "-//W3C//DTD SVG 1.1//EN"
 "http://www.w3.org/Graphics/SVG/1.1/DTD/svg11.dtd">
<!-- Generated by graphviz version 10.0.1 (20240210.2158)
 -->
<!-- Title: xeno_rat_server.Forms.Hvnc.stop Pages: 1 -->
<svg width="943pt" height="260pt"
 viewBox="0.00 0.00 943.00 259.50" xmlns="http://www.w3.org/2000/svg" xmlns:xlink="http://www.w3.org/1999/xlink">
<g id="graph0" class="graph" transform="scale(1 1) rotate(0) translate(4 255.5)">
<title>xeno_rat_server.Forms.Hvnc.stop</title>
<!-- Node1 -->
<g id="Node000001" class="node">
<title>Node1</title>
<g id="a_Node000001"><a xlink:title="Stops the asynchronous operation and sends a byte with value 1 using the client.">
<polygon fill="#999999" stroke="#666666" points="163.75,-118.88 0,-118.88 0,-99.62 163.75,-99.62 163.75,-118.88"/>
<text text-anchor="middle" x="81.88" y="-105.38" font-family="Helvetica,sans-Serif" font-size="10.00">xeno_rat_server.Forms.Hvnc.stop</text>
</a>
</g>
</g>
<!-- Node2 -->
<g id="Node000002" class="node">
<title>Node2</title>
<g id="a_Node000002"><a xlink:href="classxeno__rat__server_1_1_node.html#a816e267eb31862d38c21e5faaae3061d" target="_top" xlink:title="Sends the provided data asynchronously and returns a boolean indicating the success of the operation.">
<polygon fill="white" stroke="#666666" points="336.5,-124.5 199.75,-124.5 199.75,-94 336.5,-94 336.5,-124.5"/>
<text text-anchor="start" x="207.75" y="-111" font-family="Helvetica,sans-Serif" font-size="10.00">xeno_rat_server.Node.Send</text>
<text text-anchor="middle" x="268.12" y="-99.75" font-family="Helvetica,sans-Serif" font-size="10.00">Async</text>
</a>
</g>
</g>
<!-- Node1&#45;&gt;Node2 -->
<g id="edge1_Node000001_Node000002" class="edge">
<title>Node1&#45;&gt;Node2</title>
<g id="a_edge1_Node000001_Node000002"><a xlink:title=" ">
<path fill="none" stroke="#63b8ff" d="M164.23,-109.25C172.13,-109.25 180.14,-109.25 188.02,-109.25"/>
<polygon fill="#63b8ff" stroke="#63b8ff" points="187.93,-112.75 197.93,-109.25 187.93,-105.75 187.93,-112.75"/>
</a>
</g>
</g>
<!-- Node3 -->
<g id="Node000003" class="node">
<title>Node3</title>
<g id="a_Node000003"><a xlink:href="classxeno__rat__server_1_1_node.html#a8814edd98b6463f49812be32d5928763" target="_top" xlink:title="Sets the isDisposed flag to true and disconnects the socket, disposes resources, and triggers the OnD...">
<polygon fill="white" stroke="#666666" points="536.25,-140.88 372.5,-140.88 372.5,-121.62 536.25,-121.62 536.25,-140.88"/>
<text text-anchor="middle" x="454.38" y="-127.38" font-family="Helvetica,sans-Serif" font-size="10.00">xeno_rat_server.Node.Disconnect</text>
</a>
</g>
</g>
<!-- Node2&#45;&gt;Node3 -->
<g id="edge2_Node000002_Node000003" class="edge">
<title>Node2&#45;&gt;Node3</title>
<g id="a_edge2_Node000002_Node000003"><a xlink:title=" ">
<path fill="none" stroke="#63b8ff" d="M336.95,-117.35C344.76,-118.28 352.82,-119.24 360.89,-120.21"/>
<polygon fill="#63b8ff" stroke="#63b8ff" points="360.42,-123.68 370.76,-121.39 361.25,-116.73 360.42,-123.68"/>
</a>
</g>
</g>
<!-- Node4 -->
<g id="Node000004" class="node">
<title>Node4</title>
<g id="a_Node000004"><a xlink:href="classxeno__rat__server_1_1_socket_handler.html#a85ca8385d023521cdb86ff8ae688adee" target="_top" xlink:title="Sends the provided data asynchronously over the socket.">
<polygon fill="white" stroke="#666666" points="531.75,-103.5 377,-103.5 377,-73 531.75,-73 531.75,-103.5"/>
<text text-anchor="start" x="385" y="-90" font-family="Helvetica,sans-Serif" font-size="10.00">xeno_rat_server.SocketHandler.</text>
<text text-anchor="middle" x="454.38" y="-78.75" font-family="Helvetica,sans-Serif" font-size="10.00">SendAsync</text>
</a>
</g>
</g>
<!-- Node2&#45;&gt;Node4 -->
<g id="edge4_Node000002_Node000004" class="edge">
<title>Node2&#45;&gt;Node4</title>
<g id="a_edge4_Node000002_Node000004"><a xlink:title=" ">
<path fill="none" stroke="#63b8ff" d="M336.95,-101.52C346.24,-100.46 355.89,-99.36 365.47,-98.27"/>
<polygon fill="#63b8ff" stroke="#63b8ff" points="365.63,-101.77 375.17,-97.16 364.84,-94.82 365.63,-101.77"/>
</a>
</g>
</g>
<!-- Node3&#45;&gt;Node3 -->
<g id="edge3_Node000003_Node000003" class="edge">
<title>Node3&#45;&gt;Node3</title>
<g id="a_edge3_Node000003_Node000003"><a xlink:title=" ">
<path fill="none" stroke="#63b8ff" d="M425.22,-141.16C411.92,-149.77 421.64,-158.88 454.38,-158.88 473.3,-158.88 484.54,-155.83 488.08,-151.6"/>
<polygon fill="#63b8ff" stroke="#63b8ff" points="491.34,-150.32 484.14,-142.55 484.92,-153.12 491.34,-150.32"/>
</a>
</g>
</g>
<!-- Node5 -->
<g id="Node000005" class="node">
<title>Node5</title>
<g id="a_Node000005"><a xlink:href="classxeno__rat__server_1_1_compression.html#a0f3f31a2fe34d92bf04538b2fdf529e0" target="_top" xlink:title="Compresses the input buffer using the LZNT1 compression format and returns the compressed data.">
<polygon fill="white" stroke="#666666" points="724,-177.5 575.25,-177.5 575.25,-147 724,-147 724,-177.5"/>
<text text-anchor="start" x="583.25" y="-164" font-family="Helvetica,sans-Serif" font-size="10.00">xeno_rat_server.Compression.</text>
<text text-anchor="middle" x="649.62" y="-152.75" font-family="Helvetica,sans-Serif" font-size="10.00">Compress</text>
</a>
</g>
</g>
<!-- Node4&#45;&gt;Node5 -->
<g id="edge5_Node000004_Node000005" class="edge">
<title>Node4&#45;&gt;Node5</title>
<g id="a_edge5_Node000004_Node000005"><a xlink:title=" ">
<path fill="none" stroke="#63b8ff" d="M515.81,-103.85C522.83,-106.35 529.78,-109.14 536.25,-112.25 553.81,-120.68 554.81,-128.57 572.25,-137.25 575.9,-139.07 579.71,-140.79 583.6,-142.43"/>
<polygon fill="#63b8ff" stroke="#63b8ff" points="582.02,-145.57 592.61,-145.98 584.59,-139.06 582.02,-145.57"/>
</a>
</g>
</g>
<!-- Node10 -->
<g id="Node000010" class="node">
<title>Node10</title>
<g id="a_Node000010"><a xlink:href="classxeno__rat__server_1_1_socket_handler.html#a4f2e993b63cf1bba877781c9be2ed496" target="_top" xlink:title="Concatenates two byte arrays and returns the result.">
<polygon fill="white" stroke="#666666" points="727,-128.5 572.25,-128.5 572.25,-98 727,-98 727,-128.5"/>
<text text-anchor="start" x="580.25" y="-115" font-family="Helvetica,sans-Serif" font-size="10.00">xeno_rat_server.SocketHandler.</text>
<text text-anchor="middle" x="649.62" y="-103.75" font-family="Helvetica,sans-Serif" font-size="10.00">Concat</text>
</a>
</g>
</g>
<!-- Node4&#45;&gt;Node10 -->
<g id="edge10_Node000004_Node000010" class="edge">
<title>Node4&#45;&gt;Node10</title>
<g id="a_edge10_Node000004_Node000010"><a xlink:title=" ">
<path fill="none" stroke="#63b8ff" d="M532.03,-98.17C541.5,-99.39 551.23,-100.65 560.85,-101.89"/>
<polygon fill="#63b8ff" stroke="#63b8ff" points="560.2,-105.34 570.56,-103.15 561.09,-98.4 560.2,-105.34"/>
</a>
</g>
</g>
<!-- Node11 -->
<g id="Node000011" class="node">
<title>Node11</title>
<g id="a_Node000011"><a xlink:href="classxeno__rat__server_1_1_encryption.html#a0fafecaba804cb57663bdbb4dcc4e93f" target="_top" xlink:title="Encrypts the input data using the provided key and returns the encrypted result.">
<polygon fill="white" stroke="#666666" points="718.38,-79.5 580.88,-79.5 580.88,-49 718.38,-49 718.38,-79.5"/>
<text text-anchor="start" x="588.88" y="-66" font-family="Helvetica,sans-Serif" font-size="10.00">xeno_rat_server.Encryption.</text>
<text text-anchor="middle" x="649.62" y="-54.75" font-family="Helvetica,sans-Serif" font-size="10.00">Encrypt</text>
</a>
</g>
</g>
<!-- Node4&#45;&gt;Node11 -->
<g id="edge11_Node000004_Node000011" class="edge">
<title>Node4&#45;&gt;Node11</title>
<g id="a_edge11_Node000004_Node000011"><a xlink:title=" ">
<path fill="none" stroke="#63b8ff" d="M532.03,-78.73C544.29,-77.21 557.01,-75.63 569.33,-74.1"/>
<polygon fill="#63b8ff" stroke="#63b8ff" points="569.52,-77.6 579.01,-72.9 568.66,-70.65 569.52,-77.6"/>
</a>
</g>
</g>
<!-- Node12 -->
<g id="Node000012" class="node">
<title>Node12</title>
<g id="a_Node000012"><a xlink:href="classxeno__rat__server_1_1_socket_handler.html#a7d019c5e4cbd0138d155156c7a7c5a8f" target="_top" xlink:title="Converts an integer to a byte array.">
<polygon fill="white" stroke="#666666" points="727,-30.5 572.25,-30.5 572.25,0 727,0 727,-30.5"/>
<text text-anchor="start" x="580.25" y="-17" font-family="Helvetica,sans-Serif" font-size="10.00">xeno_rat_server.SocketHandler.</text>
<text text-anchor="middle" x="649.62" y="-5.75" font-family="Helvetica,sans-Serif" font-size="10.00">IntToBytes</text>
</a>
</g>
</g>
<!-- Node4&#45;&gt;Node12 -->
<g id="edge12_Node000004_Node000012" class="edge">
<title>Node4&#45;&gt;Node12</title>
<g id="a_edge12_Node000004_Node000012"><a xlink:title=" ">
<path fill="none" stroke="#63b8ff" d="M491.69,-72.53C514.63,-62.8 544.98,-50.3 572.25,-40.25 577.3,-38.39 582.57,-36.52 587.87,-34.69"/>
<polygon fill="#63b8ff" stroke="#63b8ff" points="588.96,-38.02 597.3,-31.48 586.7,-31.39 588.96,-38.02"/>
</a>
</g>
</g>
<!-- Node6 -->
<g id="Node000006" class="node">
<title>Node6</title>
<g id="a_Node000006"><a xlink:href="classxeno__rat__server_1_1_compression.html#ae86c8cb19fb340173e6b06816907c485" target="_top" xlink:title="Allocates the specified number of bytes in the local heap and returns a pointer to the allocated memo...">
<polygon fill="white" stroke="#666666" points="923.38,-251.5 774.62,-251.5 774.62,-221 923.38,-221 923.38,-251.5"/>
<text text-anchor="start" x="782.62" y="-238" font-family="Helvetica,sans-Serif" font-size="10.00">xeno_rat_server.Compression.</text>
<text text-anchor="middle" x="849" y="-226.75" font-family="Helvetica,sans-Serif" font-size="10.00">LocalAlloc</text>
</a>
</g>
</g>
<!-- Node5&#45;&gt;Node6 -->
<g id="edge6_Node000005_Node000006" class="edge">
<title>Node5&#45;&gt;Node6</title>
<g id="a_edge6_Node000005_Node000006"><a xlink:title=" ">
<path fill="none" stroke="#63b8ff" d="M683.62,-177.94C705.78,-188.15 735.8,-201.36 763,-211.25 768.6,-213.29 774.46,-215.28 780.36,-217.19"/>
<polygon fill="#63b8ff" stroke="#63b8ff" points="778.95,-220.42 789.54,-220.1 781.06,-213.75 778.95,-220.42"/>
</a>
</g>
</g>
<!-- Node7 -->
<g id="Node000007" class="node">
<title>Node7</title>
<g id="a_Node000007"><a xlink:href="classxeno__rat__server_1_1_compression.html#ab527e0a594d96bbaa1a4b1541888aa74" target="_top" xlink:title="Frees the memory block allocated by LocalAlloc and LocalReAlloc and invalidates the handle.">
<polygon fill="white" stroke="#666666" points="923.38,-202.5 774.62,-202.5 774.62,-172 923.38,-172 923.38,-202.5"/>
<text text-anchor="start" x="782.62" y="-189" font-family="Helvetica,sans-Serif" font-size="10.00">xeno_rat_server.Compression.</text>
<text text-anchor="middle" x="849" y="-177.75" font-family="Helvetica,sans-Serif" font-size="10.00">LocalFree</text>
</a>
</g>
</g>
<!-- Node5&#45;&gt;Node7 -->
<g id="edge7_Node000005_Node000007" class="edge">
<title>Node5&#45;&gt;Node7</title>
<g id="a_edge7_Node000005_Node000007"><a xlink:title=" ">
<path fill="none" stroke="#63b8ff" d="M724.4,-171.59C737.02,-173.19 750.22,-174.86 763.1,-176.5"/>
<polygon fill="#63b8ff" stroke="#63b8ff" points="762.45,-179.94 772.81,-177.73 763.33,-173 762.45,-179.94"/>
</a>
</g>
</g>
<!-- Node8 -->
<g id="Node000008" class="node">
<title>Node8</title>
<g id="a_Node000008"><a xlink:href="classxeno__rat__server_1_1_compression.html#a1f9bb20d96d13bdc4d0f90e2b68d4343" target="_top" xlink:title="Compresses the input buffer using the specified compression format and returns the compressed data in...">
<polygon fill="white" stroke="#666666" points="923.38,-153.5 774.62,-153.5 774.62,-123 923.38,-123 923.38,-153.5"/>
<text text-anchor="start" x="782.62" y="-140" font-family="Helvetica,sans-Serif" font-size="10.00">xeno_rat_server.Compression.</text>
<text text-anchor="middle" x="849" y="-128.75" font-family="Helvetica,sans-Serif" font-size="10.00">RtlCompressBuffer</text>
</a>
</g>
</g>
<!-- Node5&#45;&gt;Node8 -->
<g id="edge8_Node000005_Node000008" class="edge">
<title>Node5&#45;&gt;Node8</title>
<g id="a_edge8_Node000005_Node000008"><a xlink:title=" ">
<path fill="none" stroke="#63b8ff" d="M724.4,-153.28C737.02,-151.74 750.22,-150.14 763.1,-148.57"/>
<polygon fill="#63b8ff" stroke="#63b8ff" points="763.31,-152.07 772.81,-147.39 762.46,-145.13 763.31,-152.07"/>
</a>
</g>
</g>
<!-- Node9 -->
<g id="Node000009" class="node">
<title>Node9</title>
<g id="a_Node000009"><a xlink:href="classxeno__rat__server_1_1_compression.html#a5ca090d7b0887e40753bad9800c321e7" target="_top" xlink:title="Retrieves the size of the workspace required for compression.">
<polygon fill="white" stroke="#666666" points="935,-104.5 763,-104.5 763,-74 935,-74 935,-104.5"/>
<text text-anchor="start" x="771" y="-91" font-family="Helvetica,sans-Serif" font-size="10.00">xeno_rat_server.Compression.</text>
<text text-anchor="middle" x="849" y="-79.75" font-family="Helvetica,sans-Serif" font-size="10.00">RtlGetCompressionWorkSpaceSize</text>
</a>
</g>
</g>
<!-- Node5&#45;&gt;Node9 -->
<g id="edge9_Node000005_Node000009" class="edge">
<title>Node5&#45;&gt;Node9</title>
<g id="a_edge9_Node000005_Node000009"><a xlink:title=" ">
<path fill="none" stroke="#63b8ff" d="M704.3,-146.59C712.04,-143.78 719.81,-140.65 727,-137.25 744.16,-129.12 745.72,-122.12 763,-114.25 767.25,-112.31 771.69,-110.49 776.22,-108.77"/>
<polygon fill="#63b8ff" stroke="#63b8ff" points="777.21,-112.13 785.45,-105.46 774.85,-105.54 777.21,-112.13"/>
</a>
</g>
</g>
</g>
</svg>
