<?xml version="1.0" encoding="UTF-8" standalone="no"?>
<!DOCTYPE svg PUBLIC "-//W3C//DTD SVG 1.1//EN"
 "http://www.w3.org/Graphics/SVG/1.1/DTD/svg11.dtd">
<!-- Generated by graphviz version 10.0.1 (20240210.2158)
 -->
<!-- Title: NAudio.Wave.Compression.AcmInterop.acmFormatSuggest2 Pages: 1 -->
<!--zoomable 88 -->

<svg id="main" version="1.1" xmlns="http://www.w3.org/2000/svg" xmlns:xlink="http://www.w3.org/1999/xlink" xml:space="preserve" onload="init(evt)">
<style type="text/css"><![CDATA[
.node, .edge {opacity: 0.7;}
.node.selected, .edge.selected {opacity: 1;}
.edge:hover path { stroke: red; }
.edge:hover polygon { stroke: red; fill: red; }
]]></style>

<defs>
  <circle id="rim" cx="0" cy="0" r="7"/>
  <circle id="rim2" cx="0" cy="0" r="3.5"/>
  <g id="zoomPlus">
    <use xlink:href="#rim" fill="#404040"><set attributeName="fill" to="#808080" begin="zoomplus.mouseover" end="zoomplus.mouseout"/></use>
    <path d="M-4,0h8M0,-4v8" fill="none" stroke="white" stroke-width="1.5" pointer-events="none"/>
  </g>
  <g id="zoomMin">
    <use xlink:href="#rim" fill="#404040"><set attributeName="fill" to="#808080" begin="zoomminus.mouseover" end="zoomminus.mouseout"/></use>
    <path d="M-4,0h8" fill="none" stroke="white" stroke-width="1.5" pointer-events="none"/>
  </g>
  <g id="arrowUp" transform="translate(30 24)">
    <use xlink:href="#rim"/>
    <path pointer-events="none" fill="none" stroke="white" stroke-width="1.5" d="M0,-3.0v7 M-2.5,-0.5L0,-3.0L2.5,-0.5"/>
  </g>
  <g id="arrowRight" transform="rotate(90) translate(36 -43)">
    <use xlink:href="#rim"/>
    <path pointer-events="none" fill="none" stroke="white" stroke-width="1.5" d="M0,-3.0v7 M-2.5,-0.5L0,-3.0L2.5,-0.5"/>
  </g>
  <g id="arrowDown" transform="rotate(180) translate(-30 -48)">
    <use xlink:href="#rim"/>
    <path pointer-events="none" fill="none" stroke="white" stroke-width="1.5" d="M0,-3.0v7 M-2.5,-0.5L0,-3.0L2.5,-0.5"/>
  </g>
  <g id="arrowLeft" transform="rotate(270) translate(-36 17)">
    <use xlink:href="#rim"/>
    <path pointer-events="none" fill="none" stroke="white" stroke-width="1.5" d="M0,-3.0v7 M-2.5,-0.5L0,-3.0L2.5,-0.5"/>
  </g>
  <g id="resetDef">
    <use xlink:href="#rim2" fill="#404040"><set attributeName="fill" to="#808080" begin="reset.mouseover" end="reset.mouseout"/></use>
  </g>
</defs>
<script type="application/ecmascript">
var viewWidth = 610;
var viewHeight = 88;
var sectionId = 'dynsection-10';
</script>
<script type="application/ecmascript" xlink:href="svg.min.js"/>
<svg id="graph" class="graph">
<g id="viewport">
<title>NAudio.Wave.Compression.AcmInterop.acmFormatSuggest2</title>
<!-- Node1 -->
<g id="Node000001" class="node">
<title>Node1</title>
<g id="a_Node000001"><a xlink:title="Suggests a destination format for converting an audio format.">
<polygon fill="#999999" stroke="#666666" points="601.5,-54.5 441.5,-54.5 441.5,-24 601.5,-24 601.5,-54.5"/>
<text text-anchor="start" x="449.5" y="-41" font-family="Helvetica,sans-Serif" font-size="10.00">NAudio.Wave.Compression.</text>
<text text-anchor="middle" x="521.5" y="-29.75" font-family="Helvetica,sans-Serif" font-size="10.00">AcmInterop.acmFormatSuggest2</text>
</a>
</g>
</g>
<!-- Node2 -->
<g id="Node000002" class="node">
<title>Node2</title>
<g id="a_Node000002"><a xlink:href="class_n_audio_1_1_wave_1_1_compression_1_1_acm_stream.html#a8560106a6c931d00eca5a850b6cb8fb7" target="_top" xlink:title="Suggests a PCM format based on the given compressed format.">
<polygon fill="white" stroke="#666666" points="405.5,-54.5 247.75,-54.5 247.75,-24 405.5,-24 405.5,-54.5"/>
<text text-anchor="start" x="255.75" y="-41" font-family="Helvetica,sans-Serif" font-size="10.00">NAudio.Wave.Compression.</text>
<text text-anchor="middle" x="326.62" y="-29.75" font-family="Helvetica,sans-Serif" font-size="10.00">AcmStream.SuggestPcmFormat</text>
</a>
</g>
</g>
<!-- Node1&#45;&gt;Node2 -->
<g id="edge1_Node000001_Node000002" class="edge">
<title>Node1&#45;&gt;Node2</title>
<g id="a_edge1_Node000001_Node000002"><a xlink:title=" ">
<path fill="none" stroke="#63b8ff" d="M429.95,-39.25C421.94,-39.25 413.88,-39.25 405.98,-39.25"/>
<polygon fill="#63b8ff" stroke="#63b8ff" points="429.7,-42.75 439.7,-39.25 429.7,-35.75 429.7,-42.75"/>
</a>
</g>
</g>
<!-- Node3 -->
<g id="Node000003" class="node">
<title>Node3</title>
<g id="a_Node000003"><a xlink:href="class_n_audio_1_1_wave_1_1_acm_mp3_frame_decompressor.html#ad3e5eb993d92babbfe51b30952e086bf" target="_top" xlink:title="Creates a new ACM frame decompressor.">
<polygon fill="white" stroke="#666666" points="211.75,-79.5 0,-79.5 0,-49 211.75,-49 211.75,-79.5"/>
<text text-anchor="start" x="8" y="-66" font-family="Helvetica,sans-Serif" font-size="10.00">NAudio.Wave.AcmMp3FrameDecompressor.</text>
<text text-anchor="middle" x="105.88" y="-54.75" font-family="Helvetica,sans-Serif" font-size="10.00">AcmMp3FrameDecompressor</text>
</a>
</g>
</g>
<!-- Node2&#45;&gt;Node3 -->
<g id="edge2_Node000002_Node000003" class="edge">
<title>Node2&#45;&gt;Node3</title>
<g id="a_edge2_Node000002_Node000003"><a xlink:title=" ">
<path fill="none" stroke="#63b8ff" d="M235.91,-49.5C228.07,-50.4 220.1,-51.31 212.15,-52.22"/>
<polygon fill="#63b8ff" stroke="#63b8ff" points="236.23,-52.99 245.77,-48.38 235.43,-46.04 236.23,-52.99"/>
</a>
</g>
</g>
<!-- Node4 -->
<g id="Node000004" class="node">
<title>Node4</title>
<g id="a_Node000004"><a xlink:href="class_n_audio_1_1_wave_1_1_wave_format_conversion_stream.html#a1d996e11940523e891d0fbe86731daca" target="_top" xlink:title="Creates a PCM stream from the given source stream.">
<polygon fill="white" stroke="#666666" points="197.88,-30.5 13.88,-30.5 13.88,0 197.88,0 197.88,-30.5"/>
<text text-anchor="start" x="21.88" y="-17" font-family="Helvetica,sans-Serif" font-size="10.00">NAudio.Wave.WaveFormatConversion</text>
<text text-anchor="middle" x="105.88" y="-5.75" font-family="Helvetica,sans-Serif" font-size="10.00">Stream.CreatePcmStream</text>
</a>
</g>
</g>
<!-- Node2&#45;&gt;Node4 -->
<g id="edge3_Node000002_Node000004" class="edge">
<title>Node2&#45;&gt;Node4</title>
<g id="a_edge3_Node000002_Node000004"><a xlink:title=" ">
<path fill="none" stroke="#63b8ff" d="M235.92,-29.41C223.44,-28.04 210.61,-26.63 198.1,-25.26"/>
<polygon fill="#63b8ff" stroke="#63b8ff" points="235.44,-32.88 245.76,-30.49 236.21,-25.92 235.44,-32.88"/>
</a>
</g>
</g>
</g>
</svg>

<g id="navigator" transform="translate(0 0)" fill="#404254">
  <rect fill="#f2f5e9" fill-opacity="0.5" stroke="#606060" stroke-width=".5" x="0" y="0" width="60" height="60"/>
  <use id="zoomplus" xlink:href="#zoomPlus" x="17" y="9" onmousedown="handleZoom(evt,'in')"/>
  <use id="zoomminus" xlink:href="#zoomMin" x="42" y="9" onmousedown="handleZoom(evt,'out')"/>
  <use id="reset" xlink:href="#resetDef" x="30" y="36" onmousedown="handleReset()"/>
   <use id="arrowup" xlink:href="#arrowUp" x="0" y="0" onmousedown="handlePan(0,-1)"/>
  <use id="arrowright" xlink:href="#arrowRight" x="0" y="0" onmousedown="handlePan(1,0)"/>
  <use id="arrowdown" xlink:href="#arrowDown" x="0" y="0" onmousedown="handlePan(0,1)"/>
  <use id="arrowleft" xlink:href="#arrowLeft" x="0" y="0" onmousedown="handlePan(-1,0)"/>
</g>
<svg viewBox="0 0 15 15" width="100%" height="30px" preserveAspectRatio="xMaxYMin meet">
 <g id="arrow_out" transform="scale(0.3 0.3)">
  <a xlink:href="class_n_audio_1_1_wave_1_1_compression_1_1_acm_interop_a14ba02700b84dcc9265515d80d2b63db_icgraph_org.svg" target="_base">
   <rect id="button" ry="5" rx="5" y="6" x="6" height="38" width="38"
        fill="#f2f5e9" fill-opacity="0.5" stroke="#606060" stroke-width="1.0"/>
   <path id="arrow"
     d="M 11.500037,31.436501 C 11.940474,20.09759 22.043105,11.32322 32.158766,21.979434 L 37.068811,17.246167 C 37.068811,17.246167 37.088388,32 37.088388,32 L 22.160133,31.978069 C 22.160133,31.978069 26.997745,27.140456 26.997745,27.140456 C 18.528582,18.264221 13.291696,25.230495 11.500037,31.436501 z"
     style="fill:#404040;"/>
  </a>
 </g>
</svg>

<style type='text/css'>
<![CDATA[
[data-mouse-over-selected='false'] { opacity: 0.7; }
[data-mouse-over-selected='true']  { opacity: 1.0; }
]]>
</style>
<script type="application/ecmascript"><![CDATA[
document.addEventListener('DOMContentLoaded', (event) => {
  highlightEdges();
  highlightAdjacentNodes();
});
]]></script>
</svg>
