<?xml version="1.0" encoding="UTF-8" standalone="no"?>
<!DOCTYPE svg PUBLIC "-//W3C//DTD SVG 1.1//EN"
 "http://www.w3.org/Graphics/SVG/1.1/DTD/svg11.dtd">
<!-- Generated by graphviz version 10.0.1 (20240210.2158)
 -->
<!-- Title: AForge.Video.NewFrameEventArgs Pages: 1 -->
<svg width="174pt" height="153pt"
 viewBox="0.00 0.00 174.00 153.25" xmlns="http://www.w3.org/2000/svg" xmlns:xlink="http://www.w3.org/1999/xlink">

<svg id="main" version="1.1" xmlns="http://www.w3.org/2000/svg" xmlns:xlink="http://www.w3.org/1999/xlink" xml:space="preserve" onload="init(evt)">
<style type="text/css"><![CDATA[
.node, .edge {opacity: 0.7;}
.node.selected, .edge.selected {opacity: 1;}
.edge:hover path { stroke: red; }
.edge:hover polygon { stroke: red; fill: red; }
]]></style>
<script type="application/ecmascript" xlink:href="svg.min.js"/>
<svg id="graph" class="graph">
<g id="graph0" class="graph" transform="scale(1 1) rotate(0) translate(4 149.25)">
<title>AForge.Video.NewFrameEventArgs</title>
<!-- Node1 -->
<g id="Node000001" class="node">
<title>Node1</title>
<g id="a_Node000001"><a xlink:title="Arguments for new frame event from video source.">
<polygon fill="#999999" stroke="none" points="166,-49 0,-49 0,0 166,0 166,-49"/>
<text text-anchor="start" x="5" y="-35.5" font-family="Helvetica,sans-Serif" font-size="10.00">AForge.Video.NewFrameEventArgs</text>
<text text-anchor="start" x="16" y="-20.5" font-family="Helvetica,sans-Serif" font-size="10.00">+</text>
<text text-anchor="start" x="38" y="-20.5" font-family="Helvetica,sans-Serif" font-size="10.00">Frame</text>
<text text-anchor="start" x="16" y="-5.5" font-family="Helvetica,sans-Serif" font-size="10.00">+</text>
<text text-anchor="start" x="38" y="-5.5" font-family="Helvetica,sans-Serif" font-size="10.00">NewFrameEventArgs()</text>
<polygon fill="#666666" stroke="#666666" points="0,-32 0,-32 166,-32 166,-32 0,-32"/>
<polygon fill="#666666" stroke="#666666" points="0,-17 0,-17 36,-17 36,-17 0,-17"/>
<polygon fill="#666666" stroke="#666666" points="36,-17 36,-17 166,-17 166,-17 36,-17"/>
<polygon fill="none" stroke="#666666" points="0,0 0,-49 166,-49 166,0 0,0"/>
</a>
</g>
</g>
<!-- Node2 -->
<g id="Node000002" class="node">
<title>Node2</title>
<g id="a_Node000002"><a xlink:href="class_event_args.html" target="_top" xlink:title=" ">
<polygon fill="white" stroke="none" points="77.5,-145.25 22.5,-145.25 22.5,-96.25 77.5,-96.25 77.5,-145.25"/>
<text text-anchor="start" x="27.12" y="-131.75" font-family="Helvetica,sans-Serif" font-size="10.00">EventArgs</text>
<text text-anchor="start" x="48.5" y="-116.75" font-family="Helvetica,sans-Serif" font-size="10.00"> </text>
<text text-anchor="start" x="48.5" y="-101.75" font-family="Helvetica,sans-Serif" font-size="10.00"> </text>
<polygon fill="#666666" stroke="#666666" points="22.5,-128.25 22.5,-128.25 77.5,-128.25 77.5,-128.25 22.5,-128.25"/>
<polygon fill="#666666" stroke="#666666" points="22.5,-113.25 22.5,-113.25 77.5,-113.25 77.5,-113.25 22.5,-113.25"/>
<polygon fill="none" stroke="#666666" points="22.5,-96.25 22.5,-145.25 77.5,-145.25 77.5,-96.25 22.5,-96.25"/>
</a>
</g>
</g>
<!-- Node2&#45;&gt;Node1 -->
<g id="edge1_Node000001_Node000002" class="edge">
<title>Node2&#45;&gt;Node1</title>
<g id="a_edge1_Node000001_Node000002"><a xlink:title=" ">
<path fill="none" stroke="#63b8ff" d="M61.93,-85.69C66.21,-73.46 70.93,-59.97 74.82,-48.86"/>
<polygon fill="none" stroke="#63b8ff" points="58.66,-84.43 58.66,-95.02 65.27,-86.74 58.66,-84.43"/>
</a>
</g>
</g>
<!-- Node3 -->
<g id="Node000003" class="node">
<title>Node3</title>
<g id="a_Node000003"><a xlink:title=" ">
<polygon fill="white" stroke="none" points="138.5,-145.25 95.5,-145.25 95.5,-96.25 138.5,-96.25 138.5,-145.25"/>
<text text-anchor="start" x="100.12" y="-131.75" font-family="Helvetica,sans-Serif" font-size="10.00">System</text>
<text text-anchor="start" x="115.5" y="-116.75" font-family="Helvetica,sans-Serif" font-size="10.00"> </text>
<text text-anchor="start" x="115.5" y="-101.75" font-family="Helvetica,sans-Serif" font-size="10.00"> </text>
<polygon fill="#666666" stroke="#666666" points="95.5,-128.25 95.5,-128.25 138.5,-128.25 138.5,-128.25 95.5,-128.25"/>
<polygon fill="#666666" stroke="#666666" points="95.5,-113.25 95.5,-113.25 138.5,-113.25 138.5,-113.25 95.5,-113.25"/>
<polygon fill="none" stroke="#666666" points="95.5,-96.25 95.5,-145.25 138.5,-145.25 138.5,-96.25 95.5,-96.25"/>
</a>
</g>
</g>
<!-- Node3&#45;&gt;Node1 -->
<g id="edge2_Node000001_Node000003" class="edge">
<title>Node3&#45;&gt;Node1</title>
<g id="a_edge2_Node000001_Node000003"><a xlink:title=" ">
<path fill="none" stroke="#63b8ff" d="M108.6,-96.45C104.75,-85.8 100.12,-72.95 95.85,-61.13"/>
<polygon fill="none" stroke="#63b8ff" points="95.8,-60.99 90,-56.71 91.73,-49.7 97.53,-53.99 95.8,-60.99"/>
</a>
</g>
<text text-anchor="middle" x="116.38" y="-68.75" font-family="Helvetica,sans-Serif" font-size="10.00" fill="grey"> &#45;frame</text>
</g>
</g>
</svg>
</svg>

<style type='text/css'>
<![CDATA[
[data-mouse-over-selected='false'] { opacity: 0.7; }
[data-mouse-over-selected='true']  { opacity: 1.0; }
]]>
</style>
<script type="application/ecmascript"><![CDATA[
document.addEventListener('DOMContentLoaded', (event) => {
  highlightEdges();
  highlightAdjacentNodes();
});
]]></script>
</svg>
