<?xml version="1.0" encoding="UTF-8" standalone="no"?>
<!DOCTYPE svg PUBLIC "-//W3C//DTD SVG 1.1//EN"
 "http://www.w3.org/Graphics/SVG/1.1/DTD/svg11.dtd">
<!-- Generated by graphviz version 10.0.1 (20240210.2158)
 -->
<!-- Title: xeno_rat_server.Forms.DebugInfo.PopulateConsoleOutput Pages: 1 -->
<!--zoomable 492 -->

<svg id="main" version="1.1" xmlns="http://www.w3.org/2000/svg" xmlns:xlink="http://www.w3.org/1999/xlink" xml:space="preserve" onload="init(evt)">
<style type="text/css"><![CDATA[
.node, .edge {opacity: 0.7;}
.node.selected, .edge.selected {opacity: 1;}
.edge:hover path { stroke: red; }
.edge:hover polygon { stroke: red; fill: red; }
]]></style>

<defs>
  <circle id="rim" cx="0" cy="0" r="7"/>
  <circle id="rim2" cx="0" cy="0" r="3.5"/>
  <g id="zoomPlus">
    <use xlink:href="#rim" fill="#404040"><set attributeName="fill" to="#808080" begin="zoomplus.mouseover" end="zoomplus.mouseout"/></use>
    <path d="M-4,0h8M0,-4v8" fill="none" stroke="white" stroke-width="1.5" pointer-events="none"/>
  </g>
  <g id="zoomMin">
    <use xlink:href="#rim" fill="#404040"><set attributeName="fill" to="#808080" begin="zoomminus.mouseover" end="zoomminus.mouseout"/></use>
    <path d="M-4,0h8" fill="none" stroke="white" stroke-width="1.5" pointer-events="none"/>
  </g>
  <g id="arrowUp" transform="translate(30 24)">
    <use xlink:href="#rim"/>
    <path pointer-events="none" fill="none" stroke="white" stroke-width="1.5" d="M0,-3.0v7 M-2.5,-0.5L0,-3.0L2.5,-0.5"/>
  </g>
  <g id="arrowRight" transform="rotate(90) translate(36 -43)">
    <use xlink:href="#rim"/>
    <path pointer-events="none" fill="none" stroke="white" stroke-width="1.5" d="M0,-3.0v7 M-2.5,-0.5L0,-3.0L2.5,-0.5"/>
  </g>
  <g id="arrowDown" transform="rotate(180) translate(-30 -48)">
    <use xlink:href="#rim"/>
    <path pointer-events="none" fill="none" stroke="white" stroke-width="1.5" d="M0,-3.0v7 M-2.5,-0.5L0,-3.0L2.5,-0.5"/>
  </g>
  <g id="arrowLeft" transform="rotate(270) translate(-36 17)">
    <use xlink:href="#rim"/>
    <path pointer-events="none" fill="none" stroke="white" stroke-width="1.5" d="M0,-3.0v7 M-2.5,-0.5L0,-3.0L2.5,-0.5"/>
  </g>
  <g id="resetDef">
    <use xlink:href="#rim2" fill="#404040"><set attributeName="fill" to="#808080" begin="reset.mouseover" end="reset.mouseout"/></use>
  </g>
</defs>
<script type="application/ecmascript">
var viewWidth = 1123;
var viewHeight = 492;
var sectionId = 'dynsection-19';
</script>
<script type="application/ecmascript" xlink:href="svg.min.js"/>
<svg id="graph" class="graph">
<g id="viewport">
<title>xeno_rat_server.Forms.DebugInfo.PopulateConsoleOutput</title>
<!-- Node1 -->
<g id="Node000001" class="node">
<title>Node1</title>
<g id="a_Node000001"><a xlink:title="Populates the console output in the RichTextBox control asynchronously.">
<polygon fill="#999999" stroke="#666666" points="147.25,-234.5 0,-234.5 0,-204 147.25,-204 147.25,-234.5"/>
<text text-anchor="start" x="8" y="-221" font-family="Helvetica,sans-Serif" font-size="10.00">xeno_rat_server.Forms.Debug</text>
<text text-anchor="middle" x="73.62" y="-209.75" font-family="Helvetica,sans-Serif" font-size="10.00">Info.PopulateConsoleOutput</text>
</a>
</g>
</g>
<!-- Node2 -->
<g id="Node000002" class="node">
<title>Node2</title>
<g id="a_Node000002"><a xlink:href="classxeno__rat__server_1_1_forms_1_1_debug_info.html#a8b026bb65ad1846af68d43778bb62a74" target="_top" xlink:title="Asynchronously sends a byte array to the client and receives the console output as a string.">
<polygon fill="white" stroke="#666666" points="330.5,-234.5 183.25,-234.5 183.25,-204 330.5,-204 330.5,-234.5"/>
<text text-anchor="start" x="191.25" y="-221" font-family="Helvetica,sans-Serif" font-size="10.00">xeno_rat_server.Forms.Debug</text>
<text text-anchor="middle" x="256.88" y="-209.75" font-family="Helvetica,sans-Serif" font-size="10.00">Info.getConsoleOutput</text>
</a>
</g>
</g>
<!-- Node1&#45;&gt;Node2 -->
<g id="edge1_Node000001_Node000002" class="edge">
<title>Node1&#45;&gt;Node2</title>
<g id="a_edge1_Node000001_Node000002"><a xlink:title=" ">
<path fill="none" stroke="#63b8ff" d="M147.56,-219.25C155.45,-219.25 163.53,-219.25 171.54,-219.25"/>
<polygon fill="#63b8ff" stroke="#63b8ff" points="171.28,-222.75 181.28,-219.25 171.28,-215.75 171.28,-222.75"/>
</a>
</g>
</g>
<!-- Node3 -->
<g id="Node000003" class="node">
<title>Node3</title>
<g id="a_Node000003"><a xlink:href="classxeno__rat__server_1_1_node.html#a3dcb832502d4cd1dd580897265b2da7b" target="_top" xlink:title="Asynchronously receives data from the socket and returns the received data as a byte array.">
<polygon fill="white" stroke="#666666" points="516.75,-259.5 366.5,-259.5 366.5,-229 516.75,-229 516.75,-259.5"/>
<text text-anchor="start" x="374.5" y="-246" font-family="Helvetica,sans-Serif" font-size="10.00">xeno_rat_server.Node.Receive</text>
<text text-anchor="middle" x="441.62" y="-234.75" font-family="Helvetica,sans-Serif" font-size="10.00">Async</text>
</a>
</g>
</g>
<!-- Node2&#45;&gt;Node3 -->
<g id="edge2_Node000002_Node000003" class="edge">
<title>Node2&#45;&gt;Node3</title>
<g id="a_edge2_Node000002_Node000003"><a xlink:title=" ">
<path fill="none" stroke="#63b8ff" d="M330.89,-229.24C338.8,-230.32 346.89,-231.43 354.93,-232.53"/>
<polygon fill="#63b8ff" stroke="#63b8ff" points="354.35,-235.98 364.73,-233.87 355.3,-229.04 354.35,-235.98"/>
</a>
</g>
</g>
<!-- Node13 -->
<g id="Node000013" class="node">
<title>Node13</title>
<g id="a_Node000013"><a xlink:href="classxeno__rat__server_1_1_node.html#a816e267eb31862d38c21e5faaae3061d" target="_top" xlink:title="Sends the provided data asynchronously and returns a boolean indicating the success of the operation.">
<polygon fill="white" stroke="#666666" points="510,-210.5 373.25,-210.5 373.25,-180 510,-180 510,-210.5"/>
<text text-anchor="start" x="381.25" y="-197" font-family="Helvetica,sans-Serif" font-size="10.00">xeno_rat_server.Node.Send</text>
<text text-anchor="middle" x="441.62" y="-185.75" font-family="Helvetica,sans-Serif" font-size="10.00">Async</text>
</a>
</g>
</g>
<!-- Node2&#45;&gt;Node13 -->
<g id="edge14_Node000002_Node000013" class="edge">
<title>Node2&#45;&gt;Node13</title>
<g id="a_edge14_Node000002_Node000013"><a xlink:title=" ">
<path fill="none" stroke="#63b8ff" d="M330.89,-209.66C340.93,-208.34 351.28,-206.98 361.43,-205.65"/>
<polygon fill="#63b8ff" stroke="#63b8ff" points="361.81,-209.13 371.27,-204.36 360.89,-202.19 361.81,-209.13"/>
</a>
</g>
</g>
<!-- Node4 -->
<g id="Node000004" class="node">
<title>Node4</title>
<g id="a_Node000004"><a xlink:href="classxeno__rat__server_1_1_node.html#a8814edd98b6463f49812be32d5928763" target="_top" xlink:title="Sets the isDisposed flag to true and disconnects the socket, disposes resources, and triggers the OnD...">
<polygon fill="white" stroke="#666666" points="716.5,-229.88 552.75,-229.88 552.75,-210.62 716.5,-210.62 716.5,-229.88"/>
<text text-anchor="middle" x="634.62" y="-216.38" font-family="Helvetica,sans-Serif" font-size="10.00">xeno_rat_server.Node.Disconnect</text>
</a>
</g>
</g>
<!-- Node3&#45;&gt;Node4 -->
<g id="edge3_Node000003_Node000004" class="edge">
<title>Node3&#45;&gt;Node4</title>
<g id="a_edge3_Node000003_Node000004"><a xlink:title=" ">
<path fill="none" stroke="#63b8ff" d="M517.02,-234.9C525.15,-233.88 533.51,-232.83 541.82,-231.79"/>
<polygon fill="#63b8ff" stroke="#63b8ff" points="542.13,-235.27 551.61,-230.56 541.25,-228.33 542.13,-235.27"/>
</a>
</g>
</g>
<!-- Node5 -->
<g id="Node000005" class="node">
<title>Node5</title>
<g id="a_Node000005"><a xlink:href="classxeno__rat__server_1_1_socket_handler.html#a40a6f3b7eb555e8d688ea5c0074ffa2c" target="_top" xlink:title="Asynchronously receives data and processes it according to the protocol, then returns the processed d...">
<polygon fill="white" stroke="#666666" points="712,-336.5 557.25,-336.5 557.25,-306 712,-306 712,-336.5"/>
<text text-anchor="start" x="565.25" y="-323" font-family="Helvetica,sans-Serif" font-size="10.00">xeno_rat_server.SocketHandler.</text>
<text text-anchor="middle" x="634.62" y="-311.75" font-family="Helvetica,sans-Serif" font-size="10.00">ReceiveAsync</text>
</a>
</g>
</g>
<!-- Node3&#45;&gt;Node5 -->
<g id="edge5_Node000003_Node000005" class="edge">
<title>Node3&#45;&gt;Node5</title>
<g id="a_edge5_Node000003_Node000005"><a xlink:title=" ">
<path fill="none" stroke="#63b8ff" d="M481.28,-259.83C510.95,-271.79 552.14,-288.4 584.21,-301.33"/>
<polygon fill="#63b8ff" stroke="#63b8ff" points="582.72,-304.5 593.3,-304.99 585.33,-298.01 582.72,-304.5"/>
</a>
</g>
</g>
<!-- Node4&#45;&gt;Node4 -->
<g id="edge4_Node000004_Node000004" class="edge">
<title>Node4&#45;&gt;Node4</title>
<g id="a_edge4_Node000004_Node000004"><a xlink:title=" ">
<path fill="none" stroke="#63b8ff" d="M604.41,-230.16C590.63,-238.77 600.7,-247.88 634.62,-247.88 654.24,-247.88 665.88,-244.83 669.55,-240.6"/>
<polygon fill="#63b8ff" stroke="#63b8ff" points="672.76,-239.22 665.46,-231.54 666.38,-242.1 672.76,-239.22"/>
</a>
</g>
</g>
<!-- Node6 -->
<g id="Node000006" class="node">
<title>Node6</title>
<g id="a_Node000006"><a xlink:href="classxeno__rat__server_1_1_socket_handler.html#a53169a2098514698865b69c8fab12f77" target="_top" xlink:title="Truncates the input byte array starting from the specified offset and returns the truncated byte arra...">
<polygon fill="white" stroke="#666666" points="907.25,-287.5 752.5,-287.5 752.5,-257 907.25,-257 907.25,-287.5"/>
<text text-anchor="start" x="760.5" y="-274" font-family="Helvetica,sans-Serif" font-size="10.00">xeno_rat_server.SocketHandler.</text>
<text text-anchor="middle" x="829.88" y="-262.75" font-family="Helvetica,sans-Serif" font-size="10.00">BTruncate</text>
</a>
</g>
</g>
<!-- Node5&#45;&gt;Node6 -->
<g id="edge6_Node000005_Node000006" class="edge">
<title>Node5&#45;&gt;Node6</title>
<g id="a_edge6_Node000005_Node000006"><a xlink:title=" ">
<path fill="none" stroke="#63b8ff" d="M697.57,-305.54C716.12,-300.84 736.63,-295.64 755.83,-290.77"/>
<polygon fill="#63b8ff" stroke="#63b8ff" points="756.65,-294.17 765.48,-288.32 754.93,-287.39 756.65,-294.17"/>
</a>
</g>
</g>
<!-- Node7 -->
<g id="Node000007" class="node">
<title>Node7</title>
<g id="a_Node000007"><a xlink:href="classxeno__rat__server_1_1_socket_handler.html#a68836e871124cbda8a644223a73421d0" target="_top" xlink:title="Converts the specified byte array to an integer value.">
<polygon fill="white" stroke="#666666" points="1106.62,-318.5 951.88,-318.5 951.88,-288 1106.62,-288 1106.62,-318.5"/>
<text text-anchor="start" x="959.88" y="-305" font-family="Helvetica,sans-Serif" font-size="10.00">xeno_rat_server.SocketHandler.</text>
<text text-anchor="middle" x="1029.25" y="-293.75" font-family="Helvetica,sans-Serif" font-size="10.00">BytesToInt</text>
</a>
</g>
</g>
<!-- Node5&#45;&gt;Node7 -->
<g id="edge7_Node000005_Node000007" class="edge">
<title>Node5&#45;&gt;Node7</title>
<g id="a_edge7_Node000005_Node000007"><a xlink:title=" ">
<path fill="none" stroke="#63b8ff" d="M653.48,-305.55C675.15,-287.64 713.63,-259.39 752.5,-248.25 818.62,-229.3 840.03,-233.69 907.25,-248.25 937.5,-254.8 969.28,-269.59 992.67,-282.18"/>
<polygon fill="#63b8ff" stroke="#63b8ff" points="990.7,-285.1 1001.15,-286.86 994.08,-278.97 990.7,-285.1"/>
</a>
</g>
</g>
<!-- Node8 -->
<g id="Node000008" class="node">
<title>Node8</title>
<g id="a_Node000008"><a xlink:href="classxeno__rat__server_1_1_compression.html#ad992bb75126d7c346fe7884dbbcf8ad8" target="_top" xlink:title="Decompresses the input buffer using the LZNT1 compression format and returns the decompressed data.">
<polygon fill="white" stroke="#666666" points="904.25,-483.5 755.5,-483.5 755.5,-453 904.25,-453 904.25,-483.5"/>
<text text-anchor="start" x="763.5" y="-470" font-family="Helvetica,sans-Serif" font-size="10.00">xeno_rat_server.Compression.</text>
<text text-anchor="middle" x="829.88" y="-458.75" font-family="Helvetica,sans-Serif" font-size="10.00">Decompress</text>
</a>
</g>
</g>
<!-- Node5&#45;&gt;Node8 -->
<g id="edge8_Node000005_Node000008" class="edge">
<title>Node5&#45;&gt;Node8</title>
<g id="a_edge8_Node000005_Node000008"><a xlink:title=" ">
<path fill="none" stroke="#63b8ff" d="M646.4,-336.7C665.11,-362.41 706.07,-414.04 752.5,-443.25 755.07,-444.87 757.75,-446.39 760.51,-447.82"/>
<polygon fill="#63b8ff" stroke="#63b8ff" points="758.86,-450.91 769.4,-451.98 761.83,-444.57 758.86,-450.91"/>
</a>
</g>
</g>
<!-- Node10 -->
<g id="Node000010" class="node">
<title>Node10</title>
<g id="a_Node000010"><a xlink:href="classxeno__rat__server_1_1_encryption.html#ae2a6537578e2140511afe92f8ad5e964" target="_top" xlink:title="Decrypts the input data using the provided key and returns the decrypted result.">
<polygon fill="white" stroke="#666666" points="898.62,-434.5 761.12,-434.5 761.12,-404 898.62,-404 898.62,-434.5"/>
<text text-anchor="start" x="769.12" y="-421" font-family="Helvetica,sans-Serif" font-size="10.00">xeno_rat_server.Encryption.</text>
<text text-anchor="middle" x="829.88" y="-409.75" font-family="Helvetica,sans-Serif" font-size="10.00">Decrypt</text>
</a>
</g>
</g>
<!-- Node5&#45;&gt;Node10 -->
<g id="edge10_Node000005_Node000010" class="edge">
<title>Node5&#45;&gt;Node10</title>
<g id="a_edge10_Node000005_Node000010"><a xlink:title=" ">
<path fill="none" stroke="#63b8ff" d="M657.13,-336.91C679.91,-352.96 717.39,-377.84 752.5,-394.25 756.44,-396.09 760.55,-397.86 764.74,-399.53"/>
<polygon fill="#63b8ff" stroke="#63b8ff" points="763.23,-402.7 773.82,-402.98 765.71,-396.16 763.23,-402.7"/>
</a>
</g>
</g>
<!-- Node11 -->
<g id="Node000011" class="node">
<title>Node11</title>
<g id="a_Node000011"><a xlink:href="classxeno__rat__server_1_1_socket_handler.html#aeefcafd750efab21954bd772b8ae565d" target="_top" xlink:title="Parses the header from the provided byte array and returns the parsed header object.">
<polygon fill="white" stroke="#666666" points="907.25,-385.5 752.5,-385.5 752.5,-355 907.25,-355 907.25,-385.5"/>
<text text-anchor="start" x="760.5" y="-372" font-family="Helvetica,sans-Serif" font-size="10.00">xeno_rat_server.SocketHandler.</text>
<text text-anchor="middle" x="829.88" y="-360.75" font-family="Helvetica,sans-Serif" font-size="10.00">ParseHeader</text>
</a>
</g>
</g>
<!-- Node5&#45;&gt;Node11 -->
<g id="edge11_Node000005_Node000011" class="edge">
<title>Node5&#45;&gt;Node11</title>
<g id="a_edge11_Node000005_Node000011"><a xlink:title=" ">
<path fill="none" stroke="#63b8ff" d="M697.57,-336.96C716.12,-341.66 736.63,-346.86 755.83,-351.73"/>
<polygon fill="#63b8ff" stroke="#63b8ff" points="754.93,-355.11 765.48,-354.18 756.65,-348.33 754.93,-355.11"/>
</a>
</g>
</g>
<!-- Node12 -->
<g id="Node000012" class="node">
<title>Node12</title>
<g id="a_Node000012"><a xlink:href="classxeno__rat__server_1_1_socket_handler.html#acc7e34649fee5060867a2321dd15d854" target="_top" xlink:title="Asynchronously receives all the data of the specified size from the connected socket and returns the ...">
<polygon fill="white" stroke="#666666" points="907.25,-336.5 752.5,-336.5 752.5,-306 907.25,-306 907.25,-336.5"/>
<text text-anchor="start" x="760.5" y="-323" font-family="Helvetica,sans-Serif" font-size="10.00">xeno_rat_server.SocketHandler.</text>
<text text-anchor="middle" x="829.88" y="-311.75" font-family="Helvetica,sans-Serif" font-size="10.00">RecvAllAsync_ddos_unsafer</text>
</a>
</g>
</g>
<!-- Node5&#45;&gt;Node12 -->
<g id="edge13_Node000005_Node000012" class="edge">
<title>Node5&#45;&gt;Node12</title>
<g id="a_edge13_Node000005_Node000012"><a xlink:title=" ">
<path fill="none" stroke="#63b8ff" d="M712.28,-321.25C721.75,-321.25 731.48,-321.25 741.1,-321.25"/>
<polygon fill="#63b8ff" stroke="#63b8ff" points="740.8,-324.75 750.8,-321.25 740.8,-317.75 740.8,-324.75"/>
</a>
</g>
</g>
<!-- Node9 -->
<g id="Node000009" class="node">
<title>Node9</title>
<g id="a_Node000009"><a xlink:href="classxeno__rat__server_1_1_compression.html#a1c901d319793d3855012549e6a18fe53" target="_top" xlink:title="Decompresses a buffer using the specified compression format and returns the decompressed data.">
<polygon fill="white" stroke="#666666" points="1103.62,-483.5 954.88,-483.5 954.88,-453 1103.62,-453 1103.62,-483.5"/>
<text text-anchor="start" x="962.88" y="-470" font-family="Helvetica,sans-Serif" font-size="10.00">xeno_rat_server.Compression.</text>
<text text-anchor="middle" x="1029.25" y="-458.75" font-family="Helvetica,sans-Serif" font-size="10.00">RtlDecompressBuffer</text>
</a>
</g>
</g>
<!-- Node8&#45;&gt;Node9 -->
<g id="edge9_Node000008_Node000009" class="edge">
<title>Node8&#45;&gt;Node9</title>
<g id="a_edge9_Node000008_Node000009"><a xlink:title=" ">
<path fill="none" stroke="#63b8ff" d="M904.65,-468.25C917.27,-468.25 930.47,-468.25 943.35,-468.25"/>
<polygon fill="#63b8ff" stroke="#63b8ff" points="943.05,-471.75 953.05,-468.25 943.05,-464.75 943.05,-471.75"/>
</a>
</g>
</g>
<!-- Node11&#45;&gt;Node7 -->
<g id="edge12_Node000011_Node000007" class="edge">
<title>Node11&#45;&gt;Node7</title>
<g id="a_edge12_Node000011_Node000007"><a xlink:title=" ">
<path fill="none" stroke="#63b8ff" d="M879.4,-354.51C888.66,-351.47 898.26,-348.28 907.25,-345.25 928.68,-338.02 952.19,-329.91 972.73,-322.75"/>
<polygon fill="#63b8ff" stroke="#63b8ff" points="973.78,-326.1 982.06,-319.5 971.47,-319.49 973.78,-326.1"/>
</a>
</g>
</g>
<!-- Node13&#45;&gt;Node4 -->
<g id="edge15_Node000013_Node000004" class="edge">
<title>Node13&#45;&gt;Node4</title>
<g id="a_edge15_Node000013_Node000004"><a xlink:title=" ">
<path fill="none" stroke="#63b8ff" d="M510.23,-204.1C521.54,-205.58 533.41,-207.13 545.15,-208.67"/>
<polygon fill="#63b8ff" stroke="#63b8ff" points="544.46,-212.11 554.83,-209.94 545.37,-205.17 544.46,-212.11"/>
</a>
</g>
</g>
<!-- Node14 -->
<g id="Node000014" class="node">
<title>Node14</title>
<g id="a_Node000014"><a xlink:href="classxeno__rat__server_1_1_socket_handler.html#a85ca8385d023521cdb86ff8ae688adee" target="_top" xlink:title="Sends the provided data asynchronously over the socket.">
<polygon fill="white" stroke="#666666" points="712,-152.5 557.25,-152.5 557.25,-122 712,-122 712,-152.5"/>
<text text-anchor="start" x="565.25" y="-139" font-family="Helvetica,sans-Serif" font-size="10.00">xeno_rat_server.SocketHandler.</text>
<text text-anchor="middle" x="634.62" y="-127.75" font-family="Helvetica,sans-Serif" font-size="10.00">SendAsync</text>
</a>
</g>
</g>
<!-- Node13&#45;&gt;Node14 -->
<g id="edge16_Node000013_Node000014" class="edge">
<title>Node13&#45;&gt;Node14</title>
<g id="a_edge16_Node000013_Node000014"><a xlink:title=" ">
<path fill="none" stroke="#63b8ff" d="M494.31,-179.55C517.99,-172.37 546.25,-163.78 571.11,-156.23"/>
<polygon fill="#63b8ff" stroke="#63b8ff" points="571.9,-159.65 580.45,-153.4 569.86,-152.95 571.9,-159.65"/>
</a>
</g>
</g>
<!-- Node15 -->
<g id="Node000015" class="node">
<title>Node15</title>
<g id="a_Node000015"><a xlink:href="classxeno__rat__server_1_1_compression.html#a0f3f31a2fe34d92bf04538b2fdf529e0" target="_top" xlink:title="Compresses the input buffer using the LZNT1 compression format and returns the compressed data.">
<polygon fill="white" stroke="#666666" points="904.25,-103.5 755.5,-103.5 755.5,-73 904.25,-73 904.25,-103.5"/>
<text text-anchor="start" x="763.5" y="-90" font-family="Helvetica,sans-Serif" font-size="10.00">xeno_rat_server.Compression.</text>
<text text-anchor="middle" x="829.88" y="-78.75" font-family="Helvetica,sans-Serif" font-size="10.00">Compress</text>
</a>
</g>
</g>
<!-- Node14&#45;&gt;Node15 -->
<g id="edge17_Node000014_Node000015" class="edge">
<title>Node14&#45;&gt;Node15</title>
<g id="a_edge17_Node000014_Node000015"><a xlink:title=" ">
<path fill="none" stroke="#63b8ff" d="M697.57,-121.54C716.12,-116.84 736.63,-111.64 755.83,-106.77"/>
<polygon fill="#63b8ff" stroke="#63b8ff" points="756.65,-110.17 765.48,-104.32 754.93,-103.39 756.65,-110.17"/>
</a>
</g>
</g>
<!-- Node20 -->
<g id="Node000020" class="node">
<title>Node20</title>
<g id="a_Node000020"><a xlink:href="classxeno__rat__server_1_1_socket_handler.html#a4f2e993b63cf1bba877781c9be2ed496" target="_top" xlink:title="Concatenates two byte arrays and returns the result.">
<polygon fill="white" stroke="#666666" points="907.25,-54.5 752.5,-54.5 752.5,-24 907.25,-24 907.25,-54.5"/>
<text text-anchor="start" x="760.5" y="-41" font-family="Helvetica,sans-Serif" font-size="10.00">xeno_rat_server.SocketHandler.</text>
<text text-anchor="middle" x="829.88" y="-29.75" font-family="Helvetica,sans-Serif" font-size="10.00">Concat</text>
</a>
</g>
</g>
<!-- Node14&#45;&gt;Node20 -->
<g id="edge22_Node000014_Node000020" class="edge">
<title>Node14&#45;&gt;Node20</title>
<g id="a_edge22_Node000014_Node000020"><a xlink:title=" ">
<path fill="none" stroke="#63b8ff" d="M657.13,-121.59C679.91,-105.54 717.39,-80.66 752.5,-64.25 756.44,-62.41 760.55,-60.64 764.74,-58.97"/>
<polygon fill="#63b8ff" stroke="#63b8ff" points="765.71,-62.34 773.82,-55.52 763.23,-55.8 765.71,-62.34"/>
</a>
</g>
</g>
<!-- Node21 -->
<g id="Node000021" class="node">
<title>Node21</title>
<g id="a_Node000021"><a xlink:href="classxeno__rat__server_1_1_encryption.html#a0fafecaba804cb57663bdbb4dcc4e93f" target="_top" xlink:title="Encrypts the input data using the provided key and returns the encrypted result.">
<polygon fill="white" stroke="#666666" points="898.62,-201.5 761.12,-201.5 761.12,-171 898.62,-171 898.62,-201.5"/>
<text text-anchor="start" x="769.12" y="-188" font-family="Helvetica,sans-Serif" font-size="10.00">xeno_rat_server.Encryption.</text>
<text text-anchor="middle" x="829.88" y="-176.75" font-family="Helvetica,sans-Serif" font-size="10.00">Encrypt</text>
</a>
</g>
</g>
<!-- Node14&#45;&gt;Node21 -->
<g id="edge23_Node000014_Node000021" class="edge">
<title>Node14&#45;&gt;Node21</title>
<g id="a_edge23_Node000014_Node000021"><a xlink:title=" ">
<path fill="none" stroke="#63b8ff" d="M697.57,-152.96C716.12,-157.66 736.63,-162.86 755.83,-167.73"/>
<polygon fill="#63b8ff" stroke="#63b8ff" points="754.93,-171.11 765.48,-170.18 756.65,-164.33 754.93,-171.11"/>
</a>
</g>
</g>
<!-- Node22 -->
<g id="Node000022" class="node">
<title>Node22</title>
<g id="a_Node000022"><a xlink:href="classxeno__rat__server_1_1_socket_handler.html#a7d019c5e4cbd0138d155156c7a7c5a8f" target="_top" xlink:title="Converts an integer to a byte array.">
<polygon fill="white" stroke="#666666" points="907.25,-152.5 752.5,-152.5 752.5,-122 907.25,-122 907.25,-152.5"/>
<text text-anchor="start" x="760.5" y="-139" font-family="Helvetica,sans-Serif" font-size="10.00">xeno_rat_server.SocketHandler.</text>
<text text-anchor="middle" x="829.88" y="-127.75" font-family="Helvetica,sans-Serif" font-size="10.00">IntToBytes</text>
</a>
</g>
</g>
<!-- Node14&#45;&gt;Node22 -->
<g id="edge24_Node000014_Node000022" class="edge">
<title>Node14&#45;&gt;Node22</title>
<g id="a_edge24_Node000014_Node000022"><a xlink:title=" ">
<path fill="none" stroke="#63b8ff" d="M712.28,-137.25C721.75,-137.25 731.48,-137.25 741.1,-137.25"/>
<polygon fill="#63b8ff" stroke="#63b8ff" points="740.8,-140.75 750.8,-137.25 740.8,-133.75 740.8,-140.75"/>
</a>
</g>
</g>
<!-- Node16 -->
<g id="Node000016" class="node">
<title>Node16</title>
<g id="a_Node000016"><a xlink:href="classxeno__rat__server_1_1_compression.html#ae86c8cb19fb340173e6b06816907c485" target="_top" xlink:title="Allocates the specified number of bytes in the local heap and returns a pointer to the allocated memo...">
<polygon fill="white" stroke="#666666" points="1103.62,-79.5 954.88,-79.5 954.88,-49 1103.62,-49 1103.62,-79.5"/>
<text text-anchor="start" x="962.88" y="-66" font-family="Helvetica,sans-Serif" font-size="10.00">xeno_rat_server.Compression.</text>
<text text-anchor="middle" x="1029.25" y="-54.75" font-family="Helvetica,sans-Serif" font-size="10.00">LocalAlloc</text>
</a>
</g>
</g>
<!-- Node15&#45;&gt;Node16 -->
<g id="edge18_Node000015_Node000016" class="edge">
<title>Node15&#45;&gt;Node16</title>
<g id="a_edge18_Node000015_Node000016"><a xlink:title=" ">
<path fill="none" stroke="#63b8ff" d="M904.65,-79.28C917.27,-77.74 930.47,-76.14 943.35,-74.57"/>
<polygon fill="#63b8ff" stroke="#63b8ff" points="943.56,-78.07 953.06,-73.39 942.71,-71.13 943.56,-78.07"/>
</a>
</g>
</g>
<!-- Node17 -->
<g id="Node000017" class="node">
<title>Node17</title>
<g id="a_Node000017"><a xlink:href="classxeno__rat__server_1_1_compression.html#ab527e0a594d96bbaa1a4b1541888aa74" target="_top" xlink:title="Frees the memory block allocated by LocalAlloc and LocalReAlloc and invalidates the handle.">
<polygon fill="white" stroke="#666666" points="1103.62,-30.5 954.88,-30.5 954.88,0 1103.62,0 1103.62,-30.5"/>
<text text-anchor="start" x="962.88" y="-17" font-family="Helvetica,sans-Serif" font-size="10.00">xeno_rat_server.Compression.</text>
<text text-anchor="middle" x="1029.25" y="-5.75" font-family="Helvetica,sans-Serif" font-size="10.00">LocalFree</text>
</a>
</g>
</g>
<!-- Node15&#45;&gt;Node17 -->
<g id="edge19_Node000015_Node000017" class="edge">
<title>Node15&#45;&gt;Node17</title>
<g id="a_edge19_Node000015_Node000017"><a xlink:title=" ">
<path fill="none" stroke="#63b8ff" d="M884.55,-72.59C892.29,-69.78 900.06,-66.65 907.25,-63.25 924.41,-55.12 925.97,-48.12 943.25,-40.25 947.5,-38.31 951.94,-36.49 956.47,-34.77"/>
<polygon fill="#63b8ff" stroke="#63b8ff" points="957.46,-38.13 965.7,-31.46 955.1,-31.54 957.46,-38.13"/>
</a>
</g>
</g>
<!-- Node18 -->
<g id="Node000018" class="node">
<title>Node18</title>
<g id="a_Node000018"><a xlink:href="classxeno__rat__server_1_1_compression.html#a1f9bb20d96d13bdc4d0f90e2b68d4343" target="_top" xlink:title="Compresses the input buffer using the specified compression format and returns the compressed data in...">
<polygon fill="white" stroke="#666666" points="1103.62,-177.5 954.88,-177.5 954.88,-147 1103.62,-147 1103.62,-177.5"/>
<text text-anchor="start" x="962.88" y="-164" font-family="Helvetica,sans-Serif" font-size="10.00">xeno_rat_server.Compression.</text>
<text text-anchor="middle" x="1029.25" y="-152.75" font-family="Helvetica,sans-Serif" font-size="10.00">RtlCompressBuffer</text>
</a>
</g>
</g>
<!-- Node15&#45;&gt;Node18 -->
<g id="edge20_Node000015_Node000018" class="edge">
<title>Node15&#45;&gt;Node18</title>
<g id="a_edge20_Node000015_Node000018"><a xlink:title=" ">
<path fill="none" stroke="#63b8ff" d="M885.02,-103.93C892.61,-106.72 900.22,-109.84 907.25,-113.25 924.55,-121.65 925.83,-129.11 943.25,-137.25 947.29,-139.14 951.5,-140.92 955.8,-142.59"/>
<polygon fill="#63b8ff" stroke="#63b8ff" points="954.59,-145.87 965.18,-146.01 956.99,-139.3 954.59,-145.87"/>
</a>
</g>
</g>
<!-- Node19 -->
<g id="Node000019" class="node">
<title>Node19</title>
<g id="a_Node000019"><a xlink:href="classxeno__rat__server_1_1_compression.html#a5ca090d7b0887e40753bad9800c321e7" target="_top" xlink:title="Retrieves the size of the workspace required for compression.">
<polygon fill="white" stroke="#666666" points="1115.25,-128.5 943.25,-128.5 943.25,-98 1115.25,-98 1115.25,-128.5"/>
<text text-anchor="start" x="951.25" y="-115" font-family="Helvetica,sans-Serif" font-size="10.00">xeno_rat_server.Compression.</text>
<text text-anchor="middle" x="1029.25" y="-103.75" font-family="Helvetica,sans-Serif" font-size="10.00">RtlGetCompressionWorkSpaceSize</text>
</a>
</g>
</g>
<!-- Node15&#45;&gt;Node19 -->
<g id="edge21_Node000015_Node000019" class="edge">
<title>Node15&#45;&gt;Node19</title>
<g id="a_edge21_Node000015_Node000019"><a xlink:title=" ">
<path fill="none" stroke="#63b8ff" d="M904.65,-97.59C913.43,-98.71 922.49,-99.85 931.52,-101"/>
<polygon fill="#63b8ff" stroke="#63b8ff" points="931.07,-104.47 941.43,-102.25 931.95,-97.52 931.07,-104.47"/>
</a>
</g>
</g>
</g>
</svg>

<g id="navigator" transform="translate(0 0)" fill="#404254">
  <rect fill="#f2f5e9" fill-opacity="0.5" stroke="#606060" stroke-width=".5" x="0" y="0" width="60" height="60"/>
  <use id="zoomplus" xlink:href="#zoomPlus" x="17" y="9" onmousedown="handleZoom(evt,'in')"/>
  <use id="zoomminus" xlink:href="#zoomMin" x="42" y="9" onmousedown="handleZoom(evt,'out')"/>
  <use id="reset" xlink:href="#resetDef" x="30" y="36" onmousedown="handleReset()"/>
   <use id="arrowup" xlink:href="#arrowUp" x="0" y="0" onmousedown="handlePan(0,-1)"/>
  <use id="arrowright" xlink:href="#arrowRight" x="0" y="0" onmousedown="handlePan(1,0)"/>
  <use id="arrowdown" xlink:href="#arrowDown" x="0" y="0" onmousedown="handlePan(0,1)"/>
  <use id="arrowleft" xlink:href="#arrowLeft" x="0" y="0" onmousedown="handlePan(-1,0)"/>
</g>
<svg viewBox="0 0 15 15" width="100%" height="30px" preserveAspectRatio="xMaxYMin meet">
 <g id="arrow_out" transform="scale(0.3 0.3)">
  <a xlink:href="classxeno__rat__server_1_1_forms_1_1_debug_info_a41d9a1cc6bfb11af2cfb0d982d973d29_cgraph_org.svg" target="_base">
   <rect id="button" ry="5" rx="5" y="6" x="6" height="38" width="38"
        fill="#f2f5e9" fill-opacity="0.5" stroke="#606060" stroke-width="1.0"/>
   <path id="arrow"
     d="M 11.500037,31.436501 C 11.940474,20.09759 22.043105,11.32322 32.158766,21.979434 L 37.068811,17.246167 C 37.068811,17.246167 37.088388,32 37.088388,32 L 22.160133,31.978069 C 22.160133,31.978069 26.997745,27.140456 26.997745,27.140456 C 18.528582,18.264221 13.291696,25.230495 11.500037,31.436501 z"
     style="fill:#404040;"/>
  </a>
 </g>
</svg>

<style type='text/css'>
<![CDATA[
[data-mouse-over-selected='false'] { opacity: 0.7; }
[data-mouse-over-selected='true']  { opacity: 1.0; }
]]>
</style>
<script type="application/ecmascript"><![CDATA[
document.addEventListener('DOMContentLoaded', (event) => {
  highlightEdges();
  highlightAdjacentNodes();
});
]]></script>
</svg>
