<?xml version="1.0" encoding="UTF-8" standalone="no"?>
<!DOCTYPE svg PUBLIC "-//W3C//DTD SVG 1.1//EN"
 "http://www.w3.org/Graphics/SVG/1.1/DTD/svg11.dtd">
<!-- Generated by graphviz version 10.0.1 (20240210.2158)
 -->
<!-- Title: NAudio.Dmo.DmoMediaTypeGuids Pages: 1 -->
<svg width="210pt" height="232pt"
 viewBox="0.00 0.00 209.50 232.00" xmlns="http://www.w3.org/2000/svg" xmlns:xlink="http://www.w3.org/1999/xlink">

<svg id="main" version="1.1" xmlns="http://www.w3.org/2000/svg" xmlns:xlink="http://www.w3.org/1999/xlink" xml:space="preserve" onload="init(evt)">
<style type="text/css"><![CDATA[
.node, .edge {opacity: 0.7;}
.node.selected, .edge.selected {opacity: 1;}
.edge:hover path { stroke: red; }
.edge:hover polygon { stroke: red; fill: red; }
]]></style>
<script type="application/ecmascript" xlink:href="svg.min.js"/>
<svg id="graph" class="graph">
<g id="graph0" class="graph" transform="scale(1 1) rotate(0) translate(4 228)">
<title>NAudio.Dmo.DmoMediaTypeGuids</title>
<!-- Node1 -->
<g id="Node000001" class="node">
<title>Node1</title>
<g id="a_Node000001"><a xlink:title=" ">
<polygon fill="#999999" stroke="none" points="163,-49 0,-49 0,0 163,0 163,-49"/>
<text text-anchor="start" x="5" y="-35.5" font-family="Helvetica,sans-Serif" font-size="10.00">NAudio.Dmo.DmoMediaTypeGuids</text>
<text text-anchor="start" x="80" y="-20.5" font-family="Helvetica,sans-Serif" font-size="10.00"> </text>
<text text-anchor="start" x="80" y="-5.5" font-family="Helvetica,sans-Serif" font-size="10.00"> </text>
<polygon fill="#666666" stroke="#666666" points="0,-32 0,-32 163,-32 163,-32 0,-32"/>
<polygon fill="#666666" stroke="#666666" points="0,-17 0,-17 163,-17 163,-17 0,-17"/>
<polygon fill="none" stroke="#666666" points="0,0 0,-49 163,-49 163,0 0,0"/>
</a>
</g>
</g>
<!-- Node2 -->
<g id="Node000002" class="node">
<title>Node2</title>
<g id="a_Node000002"><a xlink:title=" ">
<polygon fill="white" stroke="none" points="98.5,-224 64.5,-224 64.5,-175 98.5,-175 98.5,-224"/>
<text text-anchor="start" x="69.5" y="-210.5" font-family="Helvetica,sans-Serif" font-size="10.00">static</text>
<text text-anchor="start" x="80" y="-195.5" font-family="Helvetica,sans-Serif" font-size="10.00"> </text>
<text text-anchor="start" x="80" y="-180.5" font-family="Helvetica,sans-Serif" font-size="10.00"> </text>
<polygon fill="#666666" stroke="#666666" points="64.5,-207 64.5,-207 98.5,-207 98.5,-207 64.5,-207"/>
<polygon fill="#666666" stroke="#666666" points="64.5,-192 64.5,-192 98.5,-192 98.5,-192 64.5,-192"/>
<polygon fill="none" stroke="#666666" points="64.5,-175 64.5,-224 98.5,-224 98.5,-175 64.5,-175"/>
</a>
</g>
</g>
<!-- Node2&#45;&gt;Node1 -->
<g id="edge1_Node000001_Node000002" class="edge">
<title>Node2&#45;&gt;Node1</title>
<g id="a_edge1_Node000001_Node000002"><a xlink:title=" ">
<path fill="none" stroke="#63b8ff" d="M81.5,-175.17C81.5,-145.94 81.5,-95.55 81.5,-61.39"/>
<polygon fill="none" stroke="#63b8ff" points="81.5,-61.64 77.5,-55.64 81.5,-49.64 85.5,-55.64 81.5,-61.64"/>
</a>
</g>
<text text-anchor="middle" x="141.5" y="-147.5" font-family="Helvetica,sans-Serif" font-size="10.00" fill="grey"> +FORMAT_525WSS</text>
<text text-anchor="middle" x="141.5" y="-136.25" font-family="Helvetica,sans-Serif" font-size="10.00" fill="grey">+FORMAT_DvInfo</text>
<text text-anchor="middle" x="141.5" y="-125" font-family="Helvetica,sans-Serif" font-size="10.00" fill="grey">+FORMAT_MPEGStreams</text>
<text text-anchor="middle" x="141.5" y="-113.75" font-family="Helvetica,sans-Serif" font-size="10.00" fill="grey">+FORMAT_MPEGVideo</text>
<text text-anchor="middle" x="141.5" y="-102.5" font-family="Helvetica,sans-Serif" font-size="10.00" fill="grey">+FORMAT_None</text>
<text text-anchor="middle" x="141.5" y="-91.25" font-family="Helvetica,sans-Serif" font-size="10.00" fill="grey">+FORMAT_VideoInfo</text>
<text text-anchor="middle" x="141.5" y="-80" font-family="Helvetica,sans-Serif" font-size="10.00" fill="grey">+FORMAT_VideoInfo2</text>
<text text-anchor="middle" x="141.5" y="-68.75" font-family="Helvetica,sans-Serif" font-size="10.00" fill="grey">+FORMAT_WaveFormatEx</text>
</g>
</g>
</svg>
</svg>

<style type='text/css'>
<![CDATA[
[data-mouse-over-selected='false'] { opacity: 0.7; }
[data-mouse-over-selected='true']  { opacity: 1.0; }
]]>
</style>
<script type="application/ecmascript"><![CDATA[
document.addEventListener('DOMContentLoaded', (event) => {
  highlightEdges();
  highlightAdjacentNodes();
});
]]></script>
</svg>
