<?xml version="1.0" encoding="UTF-8" standalone="no"?>
<!DOCTYPE svg PUBLIC "-//W3C//DTD SVG 1.1//EN"
 "http://www.w3.org/Graphics/SVG/1.1/DTD/svg11.dtd">
<!-- Generated by graphviz version 10.0.1 (20240210.2158)
 -->
<!-- Title: NAudio.SoundFont.Generator Pages: 1 -->
<svg width="146pt" height="147pt"
 viewBox="0.00 0.00 146.00 147.00" xmlns="http://www.w3.org/2000/svg" xmlns:xlink="http://www.w3.org/1999/xlink">
<g id="graph0" class="graph" transform="scale(1 1) rotate(0) translate(4 143)">
<title>NAudio.SoundFont.Generator</title>
<!-- Node1 -->
<g id="Node000001" class="node">
<title>Node1</title>
<g id="a_Node000001"><a xlink:title="Soundfont generator.">
<polygon fill="#999999" stroke="none" points="138,-139 0,-139 0,0 138,0 138,-139"/>
<text text-anchor="start" x="4.88" y="-125.5" font-family="Helvetica,sans-Serif" font-size="10.00">NAudio.SoundFont.Generator</text>
<text text-anchor="start" x="15.5" y="-110.5" font-family="Helvetica,sans-Serif" font-size="10.00">+</text>
<text text-anchor="start" x="37" y="-110.5" font-family="Helvetica,sans-Serif" font-size="10.00">GeneratorType</text>
<text text-anchor="start" x="15.5" y="-95.5" font-family="Helvetica,sans-Serif" font-size="10.00">+</text>
<text text-anchor="start" x="37" y="-95.5" font-family="Helvetica,sans-Serif" font-size="10.00">UInt16Amount</text>
<text text-anchor="start" x="15.5" y="-80.5" font-family="Helvetica,sans-Serif" font-size="10.00">+</text>
<text text-anchor="start" x="37" y="-80.5" font-family="Helvetica,sans-Serif" font-size="10.00">Int16Amount</text>
<text text-anchor="start" x="15.5" y="-65.5" font-family="Helvetica,sans-Serif" font-size="10.00">+</text>
<text text-anchor="start" x="37" y="-65.5" font-family="Helvetica,sans-Serif" font-size="10.00">LowByteAmount</text>
<text text-anchor="start" x="15.5" y="-50.5" font-family="Helvetica,sans-Serif" font-size="10.00">+</text>
<text text-anchor="start" x="37" y="-50.5" font-family="Helvetica,sans-Serif" font-size="10.00">HighByteAmount</text>
<text text-anchor="start" x="15.5" y="-35.5" font-family="Helvetica,sans-Serif" font-size="10.00">+</text>
<text text-anchor="start" x="37" y="-35.5" font-family="Helvetica,sans-Serif" font-size="10.00">Instrument</text>
<text text-anchor="start" x="15.5" y="-20.5" font-family="Helvetica,sans-Serif" font-size="10.00">+</text>
<text text-anchor="start" x="37" y="-20.5" font-family="Helvetica,sans-Serif" font-size="10.00">SampleHeader</text>
<text text-anchor="start" x="15.5" y="-5.5" font-family="Helvetica,sans-Serif" font-size="10.00">+</text>
<text text-anchor="start" x="37" y="-5.5" font-family="Helvetica,sans-Serif" font-size="10.00">ToString()</text>
<polygon fill="#666666" stroke="#666666" points="0,-122 0,-122 138,-122 138,-122 0,-122"/>
<polygon fill="#666666" stroke="#666666" points="0,-17 0,-17 35,-17 35,-17 0,-17"/>
<polygon fill="#666666" stroke="#666666" points="35,-17 35,-17 138,-17 138,-17 35,-17"/>
<polygon fill="none" stroke="#666666" points="0,0 0,-139 138,-139 138,0 0,0"/>
</a>
</g>
</g>
</g>
</svg>
