<?xml version="1.0" encoding="UTF-8" standalone="no"?>
<!DOCTYPE svg PUBLIC "-//W3C//DTD SVG 1.1//EN"
 "http://www.w3.org/Graphics/SVG/1.1/DTD/svg11.dtd">
<!-- Generated by graphviz version 10.0.1 (20240210.2158)
 -->
<!-- Title: xeno_rat_client.Handler.SendUpdateInfo Pages: 1 -->
<!--zoomable 382 -->

<svg id="main" version="1.1" xmlns="http://www.w3.org/2000/svg" xmlns:xlink="http://www.w3.org/1999/xlink" xml:space="preserve" onload="init(evt)">
<style type="text/css"><![CDATA[
.node, .edge {opacity: 0.7;}
.node.selected, .edge.selected {opacity: 1;}
.edge:hover path { stroke: red; }
.edge:hover polygon { stroke: red; fill: red; }
]]></style>

<defs>
  <circle id="rim" cx="0" cy="0" r="7"/>
  <circle id="rim2" cx="0" cy="0" r="3.5"/>
  <g id="zoomPlus">
    <use xlink:href="#rim" fill="#404040"><set attributeName="fill" to="#808080" begin="zoomplus.mouseover" end="zoomplus.mouseout"/></use>
    <path d="M-4,0h8M0,-4v8" fill="none" stroke="white" stroke-width="1.5" pointer-events="none"/>
  </g>
  <g id="zoomMin">
    <use xlink:href="#rim" fill="#404040"><set attributeName="fill" to="#808080" begin="zoomminus.mouseover" end="zoomminus.mouseout"/></use>
    <path d="M-4,0h8" fill="none" stroke="white" stroke-width="1.5" pointer-events="none"/>
  </g>
  <g id="arrowUp" transform="translate(30 24)">
    <use xlink:href="#rim"/>
    <path pointer-events="none" fill="none" stroke="white" stroke-width="1.5" d="M0,-3.0v7 M-2.5,-0.5L0,-3.0L2.5,-0.5"/>
  </g>
  <g id="arrowRight" transform="rotate(90) translate(36 -43)">
    <use xlink:href="#rim"/>
    <path pointer-events="none" fill="none" stroke="white" stroke-width="1.5" d="M0,-3.0v7 M-2.5,-0.5L0,-3.0L2.5,-0.5"/>
  </g>
  <g id="arrowDown" transform="rotate(180) translate(-30 -48)">
    <use xlink:href="#rim"/>
    <path pointer-events="none" fill="none" stroke="white" stroke-width="1.5" d="M0,-3.0v7 M-2.5,-0.5L0,-3.0L2.5,-0.5"/>
  </g>
  <g id="arrowLeft" transform="rotate(270) translate(-36 17)">
    <use xlink:href="#rim"/>
    <path pointer-events="none" fill="none" stroke="white" stroke-width="1.5" d="M0,-3.0v7 M-2.5,-0.5L0,-3.0L2.5,-0.5"/>
  </g>
  <g id="resetDef">
    <use xlink:href="#rim2" fill="#404040"><set attributeName="fill" to="#808080" begin="reset.mouseover" end="reset.mouseout"/></use>
  </g>
</defs>
<script type="application/ecmascript">
var viewWidth = 909;
var viewHeight = 382;
var sectionId = 'dynsection-8';
</script>
<script type="application/ecmascript" xlink:href="svg.min.js"/>
<svg id="graph" class="graph">
<g id="viewport">
<title>xeno_rat_client.Handler.SendUpdateInfo</title>
<!-- Node1 -->
<g id="Node000001" class="node">
<title>Node1</title>
<g id="a_Node000001"><a xlink:title="Sends update information to the specified node asynchronously.">
<polygon fill="#999999" stroke="#666666" points="121,-224.5 0,-224.5 0,-194 121,-194 121,-224.5"/>
<text text-anchor="start" x="8" y="-211" font-family="Helvetica,sans-Serif" font-size="10.00">xeno_rat_client.Handler.</text>
<text text-anchor="middle" x="60.5" y="-199.75" font-family="Helvetica,sans-Serif" font-size="10.00">SendUpdateInfo</text>
</a>
</g>
</g>
<!-- Node2 -->
<g id="Node000002" class="node">
<title>Node2</title>
<g id="a_Node000002"><a xlink:href="classxeno__rat__client_1_1_utils.html#a0449728a100f4afb94eea58ad8b1d859" target="_top" xlink:title="Retrieves the caption of the active window asynchronously.">
<polygon fill="white" stroke="#666666" points="308,-274.5 157,-274.5 157,-244 308,-244 308,-274.5"/>
<text text-anchor="start" x="165" y="-261" font-family="Helvetica,sans-Serif" font-size="10.00">xeno_rat_client.Utils.Get</text>
<text text-anchor="middle" x="232.5" y="-249.75" font-family="Helvetica,sans-Serif" font-size="10.00">CaptionOfActiveWindowAsync</text>
</a>
</g>
</g>
<!-- Node1&#45;&gt;Node2 -->
<g id="edge1_Node000001_Node000002" class="edge">
<title>Node1&#45;&gt;Node2</title>
<g id="a_edge1_Node000001_Node000002"><a xlink:title=" ">
<path fill="none" stroke="#63b8ff" d="M114.82,-224.93C131.51,-229.84 150.11,-235.31 167.46,-240.41"/>
<polygon fill="#63b8ff" stroke="#63b8ff" points="166.04,-243.65 176.62,-243.11 168.02,-236.93 166.04,-243.65"/>
</a>
</g>
</g>
<!-- Node8 -->
<g id="Node000008" class="node">
<title>Node8</title>
<g id="a_Node000008"><a xlink:href="classxeno__rat__client_1_1_utils.html#a9bbbb1cc7cf7d7ac8bde9dae8d663220" target="_top" xlink:title="Asynchronously retrieves the system&#39;s idle time in milliseconds.">
<polygon fill="white" stroke="#666666" points="294.5,-224.5 170.5,-224.5 170.5,-194 294.5,-194 294.5,-224.5"/>
<text text-anchor="start" x="178.5" y="-211" font-family="Helvetica,sans-Serif" font-size="10.00">xeno_rat_client.Utils.Get</text>
<text text-anchor="middle" x="232.5" y="-199.75" font-family="Helvetica,sans-Serif" font-size="10.00">IdleTimeAsync</text>
</a>
</g>
</g>
<!-- Node1&#45;&gt;Node8 -->
<g id="edge7_Node000001_Node000008" class="edge">
<title>Node1&#45;&gt;Node8</title>
<g id="a_edge7_Node000001_Node000008"><a xlink:title=" ">
<path fill="none" stroke="#63b8ff" d="M121.44,-209.25C133.51,-209.25 146.33,-209.25 158.79,-209.25"/>
<polygon fill="#63b8ff" stroke="#63b8ff" points="158.58,-212.75 168.58,-209.25 158.58,-205.75 158.58,-212.75"/>
</a>
</g>
</g>
<!-- Node9 -->
<g id="Node000009" class="node">
<title>Node9</title>
<g id="a_Node000009"><a xlink:href="classxeno__rat__client_1_1_node.html#afe8db11f190f0a3b146e16a7b14ef490" target="_top" xlink:title="Asynchronously sends the specified data over the socket connection.">
<polygon fill="white" stroke="#666666" points="299.38,-172.5 165.62,-172.5 165.62,-142 299.38,-142 299.38,-172.5"/>
<text text-anchor="start" x="173.62" y="-159" font-family="Helvetica,sans-Serif" font-size="10.00">xeno_rat_client.Node.Send</text>
<text text-anchor="middle" x="232.5" y="-147.75" font-family="Helvetica,sans-Serif" font-size="10.00">Async</text>
</a>
</g>
</g>
<!-- Node1&#45;&gt;Node9 -->
<g id="edge8_Node000001_Node000009" class="edge">
<title>Node1&#45;&gt;Node9</title>
<g id="a_edge8_Node000001_Node000009"><a xlink:title=" ">
<path fill="none" stroke="#63b8ff" d="M112.97,-193.51C130.69,-188.09 150.74,-181.95 169.23,-176.3"/>
<polygon fill="#63b8ff" stroke="#63b8ff" points="170.22,-179.65 178.76,-173.38 168.17,-172.96 170.22,-179.65"/>
</a>
</g>
</g>
<!-- Node3 -->
<g id="Node000003" class="node">
<title>Node3</title>
<g id="a_Node000003"><a xlink:href="classxeno__rat__client_1_1_utils.html#aec913c555ee2a11dcb25de79d50b00e8" target="_top" xlink:title="Retrieves the caption of the active window.">
<polygon fill="white" stroke="#666666" points="486.38,-275.5 362.38,-275.5 362.38,-245 486.38,-245 486.38,-275.5"/>
<text text-anchor="start" x="370.38" y="-262" font-family="Helvetica,sans-Serif" font-size="10.00">xeno_rat_client.Utils.Get</text>
<text text-anchor="middle" x="424.38" y="-250.75" font-family="Helvetica,sans-Serif" font-size="10.00">CaptionOfActiveWindow</text>
</a>
</g>
</g>
<!-- Node2&#45;&gt;Node3 -->
<g id="edge2_Node000002_Node000003" class="edge">
<title>Node2&#45;&gt;Node3</title>
<g id="a_edge2_Node000002_Node000003"><a xlink:title=" ">
<path fill="none" stroke="#63b8ff" d="M308.27,-259.64C322.22,-259.72 336.77,-259.79 350.65,-259.87"/>
<polygon fill="#63b8ff" stroke="#63b8ff" points="350.6,-263.37 360.61,-259.92 350.63,-256.37 350.6,-263.37"/>
</a>
</g>
</g>
<!-- Node4 -->
<g id="Node000004" class="node">
<title>Node4</title>
<g id="a_Node000004"><a xlink:href="classxeno__rat__client_1_1_utils.html#a76137e2513dc3ef6548266819d1e12d4" target="_top" xlink:title="Retrieves a handle to the foreground window (the window with which the user is currently working).">
<polygon fill="white" stroke="#666666" points="678.62,-373.5 554.62,-373.5 554.62,-343 678.62,-343 678.62,-373.5"/>
<text text-anchor="start" x="562.62" y="-360" font-family="Helvetica,sans-Serif" font-size="10.00">xeno_rat_client.Utils.Get</text>
<text text-anchor="middle" x="616.62" y="-348.75" font-family="Helvetica,sans-Serif" font-size="10.00">ForegroundWindow</text>
</a>
</g>
</g>
<!-- Node3&#45;&gt;Node4 -->
<g id="edge3_Node000003_Node000004" class="edge">
<title>Node3&#45;&gt;Node4</title>
<g id="a_edge3_Node000003_Node000004"><a xlink:title=" ">
<path fill="none" stroke="#63b8ff" d="M446.59,-275.89C469.07,-291.92 506.06,-316.78 540.75,-333.25 544.68,-335.11 548.78,-336.9 552.96,-338.6"/>
<polygon fill="#63b8ff" stroke="#63b8ff" points="551.42,-341.76 562.01,-342.09 553.94,-335.23 551.42,-341.76"/>
</a>
</g>
</g>
<!-- Node5 -->
<g id="Node000005" class="node">
<title>Node5</title>
<g id="a_Node000005"><a xlink:href="classxeno__rat__client_1_1_utils.html#ae967900f3a46d43ed0aafdd011bb542f" target="_top" xlink:title="Retrieves the text of the specified window&#39;s title bar, if it has one.">
<polygon fill="white" stroke="#666666" points="678.62,-324.5 554.62,-324.5 554.62,-294 678.62,-294 678.62,-324.5"/>
<text text-anchor="start" x="562.62" y="-311" font-family="Helvetica,sans-Serif" font-size="10.00">xeno_rat_client.Utils.Get</text>
<text text-anchor="middle" x="616.62" y="-299.75" font-family="Helvetica,sans-Serif" font-size="10.00">WindowText</text>
</a>
</g>
</g>
<!-- Node3&#45;&gt;Node5 -->
<g id="edge4_Node000003_Node000005" class="edge">
<title>Node3&#45;&gt;Node5</title>
<g id="a_edge4_Node000003_Node000005"><a xlink:title=" ">
<path fill="none" stroke="#63b8ff" d="M486.36,-275.96C504.62,-280.66 524.82,-285.86 543.71,-290.73"/>
<polygon fill="#63b8ff" stroke="#63b8ff" points="542.64,-294.07 553.2,-293.17 544.39,-287.29 542.64,-294.07"/>
</a>
</g>
</g>
<!-- Node6 -->
<g id="Node000006" class="node">
<title>Node6</title>
<g id="a_Node000006"><a xlink:href="classxeno__rat__client_1_1_utils.html#a72857744df54899f7e2c6f254a97fa83" target="_top" xlink:title="Retrieves the length, in characters, of the specified window&#39;s title bar text (if it has one)....">
<polygon fill="white" stroke="#666666" points="678.62,-275.5 554.62,-275.5 554.62,-245 678.62,-245 678.62,-275.5"/>
<text text-anchor="start" x="562.62" y="-262" font-family="Helvetica,sans-Serif" font-size="10.00">xeno_rat_client.Utils.Get</text>
<text text-anchor="middle" x="616.62" y="-250.75" font-family="Helvetica,sans-Serif" font-size="10.00">WindowTextLength</text>
</a>
</g>
</g>
<!-- Node3&#45;&gt;Node6 -->
<g id="edge5_Node000003_Node000006" class="edge">
<title>Node3&#45;&gt;Node6</title>
<g id="a_edge5_Node000003_Node000006"><a xlink:title=" ">
<path fill="none" stroke="#63b8ff" d="M486.62,-260.25C504.52,-260.25 524.26,-260.25 542.81,-260.25"/>
<polygon fill="#63b8ff" stroke="#63b8ff" points="542.66,-263.75 552.66,-260.25 542.66,-256.75 542.66,-263.75"/>
</a>
</g>
</g>
<!-- Node7 -->
<g id="Node000007" class="node">
<title>Node7</title>
<g id="a_Node000007"><a xlink:href="classxeno__rat__client_1_1_utils.html#ac3b7483f24930357220d8ee361da4fae" target="_top" xlink:title="Retrieves the identifier of the thread that created the specified window and, optionally,...">
<polygon fill="white" stroke="#666666" points="679.38,-226.5 553.88,-226.5 553.88,-196 679.38,-196 679.38,-226.5"/>
<text text-anchor="start" x="561.88" y="-213" font-family="Helvetica,sans-Serif" font-size="10.00">xeno_rat_client.Utils.Get</text>
<text text-anchor="middle" x="616.62" y="-201.75" font-family="Helvetica,sans-Serif" font-size="10.00">WindowThreadProcessId</text>
</a>
</g>
</g>
<!-- Node3&#45;&gt;Node7 -->
<g id="edge6_Node000003_Node000007" class="edge">
<title>Node3&#45;&gt;Node7</title>
<g id="a_edge6_Node000003_Node000007"><a xlink:title=" ">
<path fill="none" stroke="#63b8ff" d="M486.36,-244.54C504.62,-239.84 524.82,-234.64 543.71,-229.77"/>
<polygon fill="#63b8ff" stroke="#63b8ff" points="544.39,-233.21 553.2,-227.33 542.64,-226.43 544.39,-233.21"/>
</a>
</g>
</g>
<!-- Node10 -->
<g id="Node000010" class="node">
<title>Node10</title>
<g id="a_Node000010"><a xlink:href="classxeno__rat__client_1_1_node.html#aed8a6b3de6ee0efa48945c8b1e6c763e" target="_top" xlink:title="Disconnects the current socket and clears the subNodes list, and invokes the OnDisconnect event if it...">
<polygon fill="white" stroke="#666666" points="504.75,-166.88 344,-166.88 344,-147.62 504.75,-147.62 504.75,-166.88"/>
<text text-anchor="middle" x="424.38" y="-153.38" font-family="Helvetica,sans-Serif" font-size="10.00">xeno_rat_client.Node.Disconnect</text>
</a>
</g>
</g>
<!-- Node9&#45;&gt;Node10 -->
<g id="edge9_Node000009_Node000010" class="edge">
<title>Node9&#45;&gt;Node10</title>
<g id="a_edge9_Node000009_Node000010"><a xlink:title=" ">
<path fill="none" stroke="#63b8ff" d="M299.64,-157.25C310.21,-157.25 321.3,-157.25 332.32,-157.25"/>
<polygon fill="#63b8ff" stroke="#63b8ff" points="332.24,-160.75 342.24,-157.25 332.24,-153.75 332.24,-160.75"/>
</a>
</g>
</g>
<!-- Node11 -->
<g id="Node000011" class="node">
<title>Node11</title>
<g id="a_Node000011"><a xlink:href="classxeno__rat__client_1_1_socket_handler.html#a4970cfbc960dd288436a9fe80814531d" target="_top" xlink:title="Asynchronously sends the specified data over the socket after compressing, encrypting,...">
<polygon fill="white" stroke="#666666" points="500.25,-128.5 348.5,-128.5 348.5,-98 500.25,-98 500.25,-128.5"/>
<text text-anchor="start" x="356.5" y="-115" font-family="Helvetica,sans-Serif" font-size="10.00">xeno_rat_client.SocketHandler.</text>
<text text-anchor="middle" x="424.38" y="-103.75" font-family="Helvetica,sans-Serif" font-size="10.00">SendAsync</text>
</a>
</g>
</g>
<!-- Node9&#45;&gt;Node11 -->
<g id="edge11_Node000009_Node000011" class="edge">
<title>Node9&#45;&gt;Node11</title>
<g id="a_edge11_Node000009_Node000011"><a xlink:title=" ">
<path fill="none" stroke="#63b8ff" d="M299.64,-141.92C314.2,-138.55 329.75,-134.95 344.74,-131.47"/>
<polygon fill="#63b8ff" stroke="#63b8ff" points="345.11,-134.98 354.06,-129.31 343.53,-128.16 345.11,-134.98"/>
</a>
</g>
</g>
<!-- Node10&#45;&gt;Node10 -->
<g id="edge10_Node000010_Node000010" class="edge">
<title>Node10&#45;&gt;Node10</title>
<g id="a_edge10_Node000010_Node000010"><a xlink:title=" ">
<path fill="none" stroke="#63b8ff" d="M394.34,-167.16C380.63,-175.77 390.65,-184.88 424.38,-184.88 443.87,-184.88 455.45,-181.83 459.09,-177.6"/>
<polygon fill="#63b8ff" stroke="#63b8ff" points="462.32,-176.24 455.03,-168.54 455.93,-179.1 462.32,-176.24"/>
</a>
</g>
</g>
<!-- Node12 -->
<g id="Node000012" class="node">
<title>Node12</title>
<g id="a_Node000012"><a xlink:href="classxeno__rat__client_1_1_compression.html#ab25c4ae61c5c162bdb353676a7d01ca6" target="_top" xlink:title="Compresses the input buffer using the LZNT1 compression format and returns the compressed data.">
<polygon fill="white" stroke="#666666" points="689.5,-177.5 543.75,-177.5 543.75,-147 689.5,-147 689.5,-177.5"/>
<text text-anchor="start" x="551.75" y="-164" font-family="Helvetica,sans-Serif" font-size="10.00">xeno_rat_client.Compression.</text>
<text text-anchor="middle" x="616.62" y="-152.75" font-family="Helvetica,sans-Serif" font-size="10.00">Compress</text>
</a>
</g>
</g>
<!-- Node11&#45;&gt;Node12 -->
<g id="edge12_Node000011_Node000012" class="edge">
<title>Node11&#45;&gt;Node12</title>
<g id="a_edge12_Node000011_Node000012"><a xlink:title=" ">
<path fill="none" stroke="#63b8ff" d="M486.36,-128.96C504.62,-133.66 524.82,-138.86 543.71,-143.73"/>
<polygon fill="#63b8ff" stroke="#63b8ff" points="542.64,-147.07 553.2,-146.17 544.39,-140.29 542.64,-147.07"/>
</a>
</g>
</g>
<!-- Node17 -->
<g id="Node000017" class="node">
<title>Node17</title>
<g id="a_Node000017"><a xlink:href="classxeno__rat__client_1_1_socket_handler.html#aff56eb3e00bf2bb85e2d7696318b4468" target="_top" xlink:title="Concatenates two byte arrays and returns the result.">
<polygon fill="white" stroke="#666666" points="692.5,-128.5 540.75,-128.5 540.75,-98 692.5,-98 692.5,-128.5"/>
<text text-anchor="start" x="548.75" y="-115" font-family="Helvetica,sans-Serif" font-size="10.00">xeno_rat_client.SocketHandler.</text>
<text text-anchor="middle" x="616.62" y="-103.75" font-family="Helvetica,sans-Serif" font-size="10.00">Concat</text>
</a>
</g>
</g>
<!-- Node11&#45;&gt;Node17 -->
<g id="edge17_Node000011_Node000017" class="edge">
<title>Node11&#45;&gt;Node17</title>
<g id="a_edge17_Node000011_Node000017"><a xlink:title=" ">
<path fill="none" stroke="#63b8ff" d="M500.57,-113.25C509.87,-113.25 519.44,-113.25 528.9,-113.25"/>
<polygon fill="#63b8ff" stroke="#63b8ff" points="528.84,-116.75 538.84,-113.25 528.84,-109.75 528.84,-116.75"/>
</a>
</g>
</g>
<!-- Node18 -->
<g id="Node000018" class="node">
<title>Node18</title>
<g id="a_Node000018"><a xlink:href="classxeno__rat__client_1_1_encryption.html#a807a6407c09f993138a2684be0899cb3" target="_top" xlink:title="Encrypts the input data using the provided key and returns the encrypted result.">
<polygon fill="white" stroke="#666666" points="683.88,-79.5 549.38,-79.5 549.38,-49 683.88,-49 683.88,-79.5"/>
<text text-anchor="start" x="557.38" y="-66" font-family="Helvetica,sans-Serif" font-size="10.00">xeno_rat_client.Encryption.</text>
<text text-anchor="middle" x="616.62" y="-54.75" font-family="Helvetica,sans-Serif" font-size="10.00">Encrypt</text>
</a>
</g>
</g>
<!-- Node11&#45;&gt;Node18 -->
<g id="edge18_Node000011_Node000018" class="edge">
<title>Node11&#45;&gt;Node18</title>
<g id="a_edge18_Node000011_Node000018"><a xlink:title=" ">
<path fill="none" stroke="#63b8ff" d="M486.36,-97.54C504.62,-92.84 524.82,-87.64 543.71,-82.77"/>
<polygon fill="#63b8ff" stroke="#63b8ff" points="544.39,-86.21 553.2,-80.33 542.64,-79.43 544.39,-86.21"/>
</a>
</g>
</g>
<!-- Node19 -->
<g id="Node000019" class="node">
<title>Node19</title>
<g id="a_Node000019"><a xlink:href="classxeno__rat__client_1_1_socket_handler.html#a9b4df15d86fe97e366771e3c0568761d" target="_top" xlink:title="Converts an integer to a byte array.">
<polygon fill="white" stroke="#666666" points="692.5,-30.5 540.75,-30.5 540.75,0 692.5,0 692.5,-30.5"/>
<text text-anchor="start" x="548.75" y="-17" font-family="Helvetica,sans-Serif" font-size="10.00">xeno_rat_client.SocketHandler.</text>
<text text-anchor="middle" x="616.62" y="-5.75" font-family="Helvetica,sans-Serif" font-size="10.00">IntToBytes</text>
</a>
</g>
</g>
<!-- Node11&#45;&gt;Node19 -->
<g id="edge19_Node000011_Node000019" class="edge">
<title>Node11&#45;&gt;Node19</title>
<g id="a_edge19_Node000011_Node000019"><a xlink:title=" ">
<path fill="none" stroke="#63b8ff" d="M446.59,-97.61C469.07,-81.58 506.06,-56.72 540.75,-40.25 544.68,-38.39 548.78,-36.6 552.96,-34.9"/>
<polygon fill="#63b8ff" stroke="#63b8ff" points="553.94,-38.27 562.01,-31.41 551.42,-31.74 553.94,-38.27"/>
</a>
</g>
</g>
<!-- Node13 -->
<g id="Node000013" class="node">
<title>Node13</title>
<g id="a_Node000013"><a xlink:href="classxeno__rat__client_1_1_compression.html#abc065f053d0258dd1a7acae93f8332d0" target="_top" xlink:title="Allocates memory in the local heap.">
<polygon fill="white" stroke="#666666" points="887.38,-250.5 741.62,-250.5 741.62,-220 887.38,-220 887.38,-250.5"/>
<text text-anchor="start" x="749.62" y="-237" font-family="Helvetica,sans-Serif" font-size="10.00">xeno_rat_client.Compression.</text>
<text text-anchor="middle" x="814.5" y="-225.75" font-family="Helvetica,sans-Serif" font-size="10.00">LocalAlloc</text>
</a>
</g>
</g>
<!-- Node12&#45;&gt;Node13 -->
<g id="edge13_Node000012_Node000013" class="edge">
<title>Node12&#45;&gt;Node13</title>
<g id="a_edge13_Node000012_Node000013"><a xlink:title=" ">
<path fill="none" stroke="#63b8ff" d="M670.24,-177.98C677.83,-180.78 685.45,-183.88 692.5,-187.25 709.63,-195.43 711.22,-202.38 728.5,-210.25 732.75,-212.19 737.19,-214.01 741.72,-215.73"/>
<polygon fill="#63b8ff" stroke="#63b8ff" points="740.35,-218.96 750.95,-219.04 742.71,-212.37 740.35,-218.96"/>
</a>
</g>
</g>
<!-- Node14 -->
<g id="Node000014" class="node">
<title>Node14</title>
<g id="a_Node000014"><a xlink:href="classxeno__rat__client_1_1_compression.html#a0d2aafc746f145f698a8f1d310ccfbb2" target="_top" xlink:title="Frees the memory block allocated by the LocalAlloc or LocalReAlloc function.">
<polygon fill="white" stroke="#666666" points="887.38,-201.5 741.62,-201.5 741.62,-171 887.38,-171 887.38,-201.5"/>
<text text-anchor="start" x="749.62" y="-188" font-family="Helvetica,sans-Serif" font-size="10.00">xeno_rat_client.Compression.</text>
<text text-anchor="middle" x="814.5" y="-176.75" font-family="Helvetica,sans-Serif" font-size="10.00">LocalFree</text>
</a>
</g>
</g>
<!-- Node12&#45;&gt;Node14 -->
<g id="edge14_Node000012_Node000014" class="edge">
<title>Node12&#45;&gt;Node14</title>
<g id="a_edge14_Node000012_Node000014"><a xlink:title=" ">
<path fill="none" stroke="#63b8ff" d="M689.73,-171.08C702.85,-172.69 716.64,-174.38 730.06,-176.03"/>
<polygon fill="#63b8ff" stroke="#63b8ff" points="729.37,-179.47 739.72,-177.21 730.22,-172.52 729.37,-179.47"/>
</a>
</g>
</g>
<!-- Node15 -->
<g id="Node000015" class="node">
<title>Node15</title>
<g id="a_Node000015"><a xlink:href="classxeno__rat__client_1_1_compression.html#a9f7d50afed4c3c988eb3e7691cb94581" target="_top" xlink:title="Compresses the input buffer using the specified compression format and returns the compressed data in...">
<polygon fill="white" stroke="#666666" points="887.38,-152.5 741.62,-152.5 741.62,-122 887.38,-122 887.38,-152.5"/>
<text text-anchor="start" x="749.62" y="-139" font-family="Helvetica,sans-Serif" font-size="10.00">xeno_rat_client.Compression.</text>
<text text-anchor="middle" x="814.5" y="-127.75" font-family="Helvetica,sans-Serif" font-size="10.00">RtlCompressBuffer</text>
</a>
</g>
</g>
<!-- Node12&#45;&gt;Node15 -->
<g id="edge15_Node000012_Node000015" class="edge">
<title>Node12&#45;&gt;Node15</title>
<g id="a_edge15_Node000012_Node000015"><a xlink:title=" ">
<path fill="none" stroke="#63b8ff" d="M689.73,-153.05C702.85,-151.37 716.64,-149.61 730.06,-147.9"/>
<polygon fill="#63b8ff" stroke="#63b8ff" points="730.25,-151.4 739.72,-146.67 729.36,-144.46 730.25,-151.4"/>
</a>
</g>
</g>
<!-- Node16 -->
<g id="Node000016" class="node">
<title>Node16</title>
<g id="a_Node000016"><a xlink:href="classxeno__rat__client_1_1_compression.html#ae6d3ee0c8538f67cd80635e6bc1bad03" target="_top" xlink:title="Retrieves the size of the workspace required for compression.">
<polygon fill="white" stroke="#666666" points="900.5,-103.5 728.5,-103.5 728.5,-73 900.5,-73 900.5,-103.5"/>
<text text-anchor="start" x="736.5" y="-90" font-family="Helvetica,sans-Serif" font-size="10.00">xeno_rat_client.Compression.</text>
<text text-anchor="middle" x="814.5" y="-78.75" font-family="Helvetica,sans-Serif" font-size="10.00">RtlGetCompressionWorkSpaceSize</text>
</a>
</g>
</g>
<!-- Node12&#45;&gt;Node16 -->
<g id="edge16_Node000012_Node000016" class="edge">
<title>Node12&#45;&gt;Node16</title>
<g id="a_edge16_Node000012_Node000016"><a xlink:title=" ">
<path fill="none" stroke="#63b8ff" d="M670.3,-146.64C677.88,-143.83 685.48,-140.68 692.5,-137.25 709.77,-128.8 711.08,-121.39 728.5,-113.25 732.54,-111.36 736.75,-109.58 741.05,-107.91"/>
<polygon fill="#63b8ff" stroke="#63b8ff" points="742.24,-111.2 750.43,-104.49 739.84,-104.63 742.24,-111.2"/>
</a>
</g>
</g>
</g>
</svg>

<g id="navigator" transform="translate(0 0)" fill="#404254">
  <rect fill="#f2f5e9" fill-opacity="0.5" stroke="#606060" stroke-width=".5" x="0" y="0" width="60" height="60"/>
  <use id="zoomplus" xlink:href="#zoomPlus" x="17" y="9" onmousedown="handleZoom(evt,'in')"/>
  <use id="zoomminus" xlink:href="#zoomMin" x="42" y="9" onmousedown="handleZoom(evt,'out')"/>
  <use id="reset" xlink:href="#resetDef" x="30" y="36" onmousedown="handleReset()"/>
   <use id="arrowup" xlink:href="#arrowUp" x="0" y="0" onmousedown="handlePan(0,-1)"/>
  <use id="arrowright" xlink:href="#arrowRight" x="0" y="0" onmousedown="handlePan(1,0)"/>
  <use id="arrowdown" xlink:href="#arrowDown" x="0" y="0" onmousedown="handlePan(0,1)"/>
  <use id="arrowleft" xlink:href="#arrowLeft" x="0" y="0" onmousedown="handlePan(-1,0)"/>
</g>
<svg viewBox="0 0 15 15" width="100%" height="30px" preserveAspectRatio="xMaxYMin meet">
 <g id="arrow_out" transform="scale(0.3 0.3)">
  <a xlink:href="classxeno__rat__client_1_1_handler_a3e4202f33d90fe492b78342e136136ec_cgraph_org.svg" target="_base">
   <rect id="button" ry="5" rx="5" y="6" x="6" height="38" width="38"
        fill="#f2f5e9" fill-opacity="0.5" stroke="#606060" stroke-width="1.0"/>
   <path id="arrow"
     d="M 11.500037,31.436501 C 11.940474,20.09759 22.043105,11.32322 32.158766,21.979434 L 37.068811,17.246167 C 37.068811,17.246167 37.088388,32 37.088388,32 L 22.160133,31.978069 C 22.160133,31.978069 26.997745,27.140456 26.997745,27.140456 C 18.528582,18.264221 13.291696,25.230495 11.500037,31.436501 z"
     style="fill:#404040;"/>
  </a>
 </g>
</svg>

<style type='text/css'>
<![CDATA[
[data-mouse-over-selected='false'] { opacity: 0.7; }
[data-mouse-over-selected='true']  { opacity: 1.0; }
]]>
</style>
<script type="application/ecmascript"><![CDATA[
document.addEventListener('DOMContentLoaded', (event) => {
  highlightEdges();
  highlightAdjacentNodes();
});
]]></script>
</svg>
