<?xml version="1.0" encoding="UTF-8" standalone="no"?>
<!DOCTYPE svg PUBLIC "-//W3C//DTD SVG 1.1//EN"
 "http://www.w3.org/Graphics/SVG/1.1/DTD/svg11.dtd">
<!-- Generated by graphviz version 10.0.1 (20240210.2158)
 -->
<!-- Title: NAudio.MediaFoundation.MediaFoundationApi.CreateAttributes Pages: 1 -->
<svg width="541pt" height="112pt"
 viewBox="0.00 0.00 541.25 111.50" xmlns="http://www.w3.org/2000/svg" xmlns:xlink="http://www.w3.org/1999/xlink">
<g id="graph0" class="graph" transform="scale(1 1) rotate(0) translate(4 107.5)">
<title>NAudio.MediaFoundation.MediaFoundationApi.CreateAttributes</title>
<!-- Node1 -->
<g id="Node000001" class="node">
<title>Node1</title>
<g id="a_Node000001"><a xlink:title="Creates a new instance of IMFAttributes with the specified initial size.">
<polygon fill="#999999" stroke="#666666" points="533.25,-78.5 378.5,-78.5 378.5,-48 533.25,-48 533.25,-78.5"/>
<text text-anchor="start" x="386.5" y="-65" font-family="Helvetica,sans-Serif" font-size="10.00">NAudio.MediaFoundation.Media</text>
<text text-anchor="middle" x="455.88" y="-53.75" font-family="Helvetica,sans-Serif" font-size="10.00">FoundationApi.CreateAttributes</text>
</a>
</g>
</g>
<!-- Node2 -->
<g id="Node000002" class="node">
<title>Node2</title>
<g id="a_Node000002"><a xlink:href="class_n_audio_1_1_wave_1_1_media_foundation_encoder.html#a848810bce9785fd7039a6969fba91c08" target="_top" xlink:title=" ">
<polygon fill="white" stroke="#666666" points="342.5,-103.5 189.25,-103.5 189.25,-73 342.5,-73 342.5,-103.5"/>
<text text-anchor="start" x="197.25" y="-90" font-family="Helvetica,sans-Serif" font-size="10.00">NAudio.Wave.MediaFoundation</text>
<text text-anchor="middle" x="265.88" y="-78.75" font-family="Helvetica,sans-Serif" font-size="10.00">Encoder.CreateSinkWriter</text>
</a>
</g>
</g>
<!-- Node1&#45;&gt;Node2 -->
<g id="edge1_Node000001_Node000002" class="edge">
<title>Node1&#45;&gt;Node2</title>
<g id="a_edge1_Node000001_Node000002"><a xlink:title=" ">
<path fill="none" stroke="#63b8ff" d="M366.83,-74.96C358.78,-76.03 350.68,-77.11 342.76,-78.16"/>
<polygon fill="#63b8ff" stroke="#63b8ff" points="367.19,-78.44 376.64,-73.65 366.26,-71.5 367.19,-78.44"/>
</a>
</g>
</g>
<!-- Node3 -->
<g id="Node000003" class="node">
<title>Node3</title>
<g id="a_Node000003"><a xlink:href="class_n_audio_1_1_wave_1_1_media_foundation_encoder.html#a4b1a69cd09122c174671717702b60e2f" target="_top" xlink:title="Creates a sink writer for writing media data to the specified output stream with the given transcode ...">
<polygon fill="white" stroke="#666666" points="342.5,-54.5 189.25,-54.5 189.25,-24 342.5,-24 342.5,-54.5"/>
<text text-anchor="start" x="197.25" y="-41" font-family="Helvetica,sans-Serif" font-size="10.00">NAudio.Wave.MediaFoundation</text>
<text text-anchor="middle" x="265.88" y="-29.75" font-family="Helvetica,sans-Serif" font-size="10.00">Encoder.CreateSinkWriter</text>
</a>
</g>
</g>
<!-- Node1&#45;&gt;Node3 -->
<g id="edge2_Node000001_Node000003" class="edge">
<title>Node1&#45;&gt;Node3</title>
<g id="a_edge2_Node000001_Node000003"><a xlink:title=" ">
<path fill="none" stroke="#63b8ff" d="M366.83,-52.01C358.78,-50.98 350.68,-49.95 342.76,-48.94"/>
<polygon fill="#63b8ff" stroke="#63b8ff" points="366.27,-55.47 376.64,-53.26 367.16,-48.52 366.27,-55.47"/>
</a>
</g>
</g>
<!-- Node4 -->
<g id="Node000004" class="node">
<title>Node4</title>
<g id="a_Node000004"><a xlink:href="class_n_audio_1_1_wave_1_1_media_foundation_encoder.html#a56428796df5aa6b97bdd8120ee45f8da" target="_top" xlink:title="Encodes a file.">
<polygon fill="white" stroke="#666666" points="153.25,-79.5 0,-79.5 0,-49 153.25,-49 153.25,-79.5"/>
<text text-anchor="start" x="8" y="-66" font-family="Helvetica,sans-Serif" font-size="10.00">NAudio.Wave.MediaFoundation</text>
<text text-anchor="middle" x="76.62" y="-54.75" font-family="Helvetica,sans-Serif" font-size="10.00">Encoder.Encode</text>
</a>
</g>
</g>
<!-- Node3&#45;&gt;Node4 -->
<g id="edge3_Node000003_Node000004" class="edge">
<title>Node3&#45;&gt;Node4</title>
<g id="a_edge3_Node000003_Node000004"><a xlink:title=" ">
<path fill="none" stroke="#63b8ff" d="M177.69,-50.89C169.65,-51.96 161.55,-53.04 153.62,-54.1"/>
<polygon fill="#63b8ff" stroke="#63b8ff" points="178.03,-54.38 187.48,-49.58 177.11,-47.44 178.03,-54.38"/>
</a>
</g>
</g>
<!-- Node5 -->
<g id="Node000005" class="node">
<title>Node5</title>
<g id="a_Node000005"><a xlink:href="class_n_audio_1_1_wave_1_1_media_foundation_encoder.html#aebccd4140a11632dc259156dea1f4018" target="_top" xlink:title="Encodes the input audio data from inputProvider &#160;into the specified transcodeContainerType &#160;and write...">
<polygon fill="white" stroke="#666666" points="153.25,-30.5 0,-30.5 0,0 153.25,0 153.25,-30.5"/>
<text text-anchor="start" x="8" y="-17" font-family="Helvetica,sans-Serif" font-size="10.00">NAudio.Wave.MediaFoundation</text>
<text text-anchor="middle" x="76.62" y="-5.75" font-family="Helvetica,sans-Serif" font-size="10.00">Encoder.Encode</text>
</a>
</g>
</g>
<!-- Node3&#45;&gt;Node5 -->
<g id="edge4_Node000003_Node000005" class="edge">
<title>Node3&#45;&gt;Node5</title>
<g id="a_edge4_Node000003_Node000005"><a xlink:title=" ">
<path fill="none" stroke="#63b8ff" d="M177.69,-28.08C169.65,-27.05 161.55,-26.01 153.62,-24.99"/>
<polygon fill="#63b8ff" stroke="#63b8ff" points="177.12,-31.53 187.48,-29.33 178.01,-24.59 177.12,-31.53"/>
</a>
</g>
</g>
</g>
</svg>
