<?xml version="1.0" encoding="UTF-8" standalone="no"?>
<!DOCTYPE svg PUBLIC "-//W3C//DTD SVG 1.1//EN"
 "http://www.w3.org/Graphics/SVG/1.1/DTD/svg11.dtd">
<!-- Generated by graphviz version 10.0.1 (20240210.2158)
 -->
<!-- Title: xeno_rat_server.Forms.File_manager.CreateSubSubNode Pages: 1 -->
<svg width="903pt" height="227pt"
 viewBox="0.00 0.00 902.50 226.50" xmlns="http://www.w3.org/2000/svg" xmlns:xlink="http://www.w3.org/1999/xlink">
<g id="graph0" class="graph" transform="scale(1 1) rotate(0) translate(4 222.5)">
<title>xeno_rat_server.Forms.File_manager.CreateSubSubNode</title>
<!-- Node1 -->
<g id="Node000001" class="node">
<title>Node1</title>
<g id="a_Node000001"><a xlink:title="Creates a sub&#45;sub node for the given client node and returns the created node.">
<polygon fill="#999999" stroke="#666666" points="894.5,-120.5 746.5,-120.5 746.5,-90 894.5,-90 894.5,-120.5"/>
<text text-anchor="start" x="754.5" y="-107" font-family="Helvetica,sans-Serif" font-size="10.00">xeno_rat_server.Forms.File</text>
<text text-anchor="middle" x="820.5" y="-95.75" font-family="Helvetica,sans-Serif" font-size="10.00">_manager.CreateSubSubNode</text>
</a>
</g>
</g>
<!-- Node2 -->
<g id="Node000002" class="node">
<title>Node2</title>
<g id="a_Node000002"><a xlink:href="classxeno__rat__server_1_1_forms_1_1_file__manager.html#a80e0d60e11d5db4978539e5a4ede2f1d" target="_top" xlink:title="Deletes a file at the specified path.">
<polygon fill="white" stroke="#666666" points="710.5,-120.5 576,-120.5 576,-90 710.5,-90 710.5,-120.5"/>
<text text-anchor="start" x="584" y="-107" font-family="Helvetica,sans-Serif" font-size="10.00">xeno_rat_server.Forms.File</text>
<text text-anchor="middle" x="643.25" y="-95.75" font-family="Helvetica,sans-Serif" font-size="10.00">_manager.DeleteFile</text>
</a>
</g>
</g>
<!-- Node1&#45;&gt;Node2 -->
<g id="edge1_Node000001_Node000002" class="edge">
<title>Node1&#45;&gt;Node2</title>
<g id="a_edge1_Node000001_Node000002"><a xlink:title=" ">
<path fill="none" stroke="#63b8ff" d="M734.85,-105.25C726.79,-105.25 718.69,-105.25 710.84,-105.25"/>
<polygon fill="#63b8ff" stroke="#63b8ff" points="734.68,-108.75 744.68,-105.25 734.68,-101.75 734.68,-108.75"/>
</a>
</g>
</g>
<!-- Node5 -->
<g id="Node000005" class="node">
<title>Node5</title>
<g id="a_Node000005"><a xlink:href="classxeno__rat__server_1_1_forms_1_1_file__manager.html#a89858edc1fbfd6913d05475aaf895aa4" target="_top" xlink:title="Downloads a file from the specified path and saves it to the provided save path.">
<polygon fill="white" stroke="#666666" points="710.5,-218.5 576,-218.5 576,-188 710.5,-188 710.5,-218.5"/>
<text text-anchor="start" x="584" y="-205" font-family="Helvetica,sans-Serif" font-size="10.00">xeno_rat_server.Forms.File</text>
<text text-anchor="middle" x="643.25" y="-193.75" font-family="Helvetica,sans-Serif" font-size="10.00">_manager.FileDownload</text>
</a>
</g>
</g>
<!-- Node1&#45;&gt;Node5 -->
<g id="edge4_Node000001_Node000005" class="edge">
<title>Node1&#45;&gt;Node5</title>
<g id="a_edge4_Node000001_Node000005"><a xlink:title=" ">
<path fill="none" stroke="#63b8ff" d="M790.32,-127.48C769,-143.05 738.95,-163.6 710.5,-178.25 704.05,-181.57 697.06,-184.69 690.11,-187.52"/>
<polygon fill="#63b8ff" stroke="#63b8ff" points="792.29,-130.38 798.26,-121.62 788.13,-124.75 792.29,-130.38"/>
</a>
</g>
</g>
<!-- Node7 -->
<g id="Node000007" class="node">
<title>Node7</title>
<g id="a_Node000007"><a xlink:href="classxeno__rat__server_1_1_forms_1_1_file__manager.html#a117fdf27335484f96a14505e7cb38f4e" target="_top" xlink:title="Uploads a file from the specified filepath to the given savepath using the asynchronous protocol.">
<polygon fill="white" stroke="#666666" points="710.5,-34.5 576,-34.5 576,-4 710.5,-4 710.5,-34.5"/>
<text text-anchor="start" x="584" y="-21" font-family="Helvetica,sans-Serif" font-size="10.00">xeno_rat_server.Forms.File</text>
<text text-anchor="middle" x="643.25" y="-9.75" font-family="Helvetica,sans-Serif" font-size="10.00">_manager.FileUpload</text>
</a>
</g>
</g>
<!-- Node1&#45;&gt;Node7 -->
<g id="edge7_Node000001_Node000007" class="edge">
<title>Node1&#45;&gt;Node7</title>
<g id="a_edge7_Node000001_Node000007"><a xlink:title=" ">
<path fill="none" stroke="#63b8ff" d="M781.08,-84.33C760.35,-73.25 734.22,-59.63 710.5,-48.25 701.1,-43.74 690.84,-39.11 681.25,-34.91"/>
<polygon fill="#63b8ff" stroke="#63b8ff" points="779.29,-87.34 789.75,-88.99 782.6,-81.17 779.29,-87.34"/>
</a>
</g>
</g>
<!-- Node11 -->
<g id="Node000011" class="node">
<title>Node11</title>
<g id="a_Node000011"><a xlink:href="classxeno__rat__server_1_1_forms_1_1_file__manager.html#aea9c6d166f9c6f554e8aaa3db9783ab3" target="_top" xlink:title="Initializes the object asynchronously by creating a FileViewer, sending type, and updating the list v...">
<polygon fill="white" stroke="#666666" points="316.62,-79.5 182.12,-79.5 182.12,-49 316.62,-49 316.62,-79.5"/>
<text text-anchor="start" x="190.12" y="-66" font-family="Helvetica,sans-Serif" font-size="10.00">xeno_rat_server.Forms.File</text>
<text text-anchor="middle" x="249.38" y="-54.75" font-family="Helvetica,sans-Serif" font-size="10.00">_manager.InitializeAsync</text>
</a>
</g>
</g>
<!-- Node1&#45;&gt;Node11 -->
<g id="edge11_Node000001_Node000011" class="edge">
<title>Node1&#45;&gt;Node11</title>
<g id="a_edge11_Node000001_Node000011"><a xlink:title=" ">
<path fill="none" stroke="#63b8ff" d="M746.08,-87.2C734.25,-84.84 722.08,-82.73 710.5,-81.25 571.34,-63.51 406.73,-62.1 316.97,-62.97"/>
<polygon fill="#63b8ff" stroke="#63b8ff" points="745.31,-90.62 755.82,-89.23 746.74,-83.76 745.31,-90.62"/>
</a>
</g>
</g>
<!-- Node12 -->
<g id="Node000012" class="node">
<title>Node12</title>
<g id="a_Node000012"><a xlink:href="classxeno__rat__server_1_1_forms_1_1_file__manager.html#ad234d6a37f11002ea01f2e22de698e85" target="_top" xlink:title="Starts a file operation using the specified path.">
<polygon fill="white" stroke="#666666" points="710.5,-169.5 576,-169.5 576,-139 710.5,-139 710.5,-169.5"/>
<text text-anchor="start" x="584" y="-156" font-family="Helvetica,sans-Serif" font-size="10.00">xeno_rat_server.Forms.File</text>
<text text-anchor="middle" x="643.25" y="-144.75" font-family="Helvetica,sans-Serif" font-size="10.00">_manager.StartFile</text>
</a>
</g>
</g>
<!-- Node1&#45;&gt;Node12 -->
<g id="edge13_Node000001_Node000012" class="edge">
<title>Node1&#45;&gt;Node12</title>
<g id="a_edge13_Node000001_Node000012"><a xlink:title=" ">
<path fill="none" stroke="#63b8ff" d="M752.49,-123.98C735.35,-128.78 717.09,-133.88 700.55,-138.51"/>
<polygon fill="#63b8ff" stroke="#63b8ff" points="753.42,-127.36 762.11,-121.3 751.54,-120.62 753.42,-127.36"/>
</a>
</g>
</g>
<!-- Node3 -->
<g id="Node000003" class="node">
<title>Node3</title>
<g id="a_Node000003"><a xlink:href="classxeno__rat__server_1_1_forms_1_1_file__manager.html#aca28d2353ab43040e4910f115f3888e8" target="_top" xlink:title="Deletes the file associated with the selected menu item and updates the list view.">
<polygon fill="white" stroke="#666666" points="532.5,-120.5 371.75,-120.5 371.75,-90 532.5,-90 532.5,-120.5"/>
<text text-anchor="start" x="379.75" y="-107" font-family="Helvetica,sans-Serif" font-size="10.00">xeno_rat_server.Forms.File</text>
<text text-anchor="middle" x="452.12" y="-95.75" font-family="Helvetica,sans-Serif" font-size="10.00">_manager.DeleteMenuItem_Click</text>
</a>
</g>
</g>
<!-- Node2&#45;&gt;Node3 -->
<g id="edge2_Node000002_Node000003" class="edge">
<title>Node2&#45;&gt;Node3</title>
<g id="a_edge2_Node000002_Node000003"><a xlink:title=" ">
<path fill="none" stroke="#63b8ff" d="M564.06,-105.25C553.74,-105.25 543.15,-105.25 532.81,-105.25"/>
<polygon fill="#63b8ff" stroke="#63b8ff" points="564.06,-108.75 574.06,-105.25 564.06,-101.75 564.06,-108.75"/>
</a>
</g>
</g>
<!-- Node4 -->
<g id="Node000004" class="node">
<title>Node4</title>
<g id="a_Node000004"><a xlink:href="classxeno__rat__server_1_1_forms_1_1_file__manager.html#aa875185f0c0df6b530838d86fff9a442" target="_top" xlink:title="Handles the mouse click event on the listView1 control, and displays a context menu with options base...">
<polygon fill="white" stroke="#666666" points="328.25,-169.5 170.5,-169.5 170.5,-139 328.25,-139 328.25,-169.5"/>
<text text-anchor="start" x="178.5" y="-156" font-family="Helvetica,sans-Serif" font-size="10.00">xeno_rat_server.Forms.File</text>
<text text-anchor="middle" x="249.38" y="-144.75" font-family="Helvetica,sans-Serif" font-size="10.00">_manager.listView1_MouseClick</text>
</a>
</g>
</g>
<!-- Node3&#45;&gt;Node4 -->
<g id="edge3_Node000003_Node000004" class="edge">
<title>Node3&#45;&gt;Node4</title>
<g id="a_edge3_Node000003_Node000004"><a xlink:title=" ">
<path fill="none" stroke="#63b8ff" d="M375.78,-123.64C355.68,-128.55 334.15,-133.8 314.7,-138.55"/>
<polygon fill="#63b8ff" stroke="#63b8ff" points="376.42,-127.09 385.31,-121.31 374.76,-120.29 376.42,-127.09"/>
</a>
</g>
</g>
<!-- Node6 -->
<g id="Node000006" class="node">
<title>Node6</title>
<g id="a_Node000006"><a xlink:href="classxeno__rat__server_1_1_forms_1_1_file__manager.html#a569ad48eb4707915ae3f4351f9c259d7" target="_top" xlink:title="Handles the click event of the download menu item by initiating the file download process.">
<polygon fill="white" stroke="#666666" points="540,-218.5 364.25,-218.5 364.25,-188 540,-188 540,-218.5"/>
<text text-anchor="start" x="372.25" y="-205" font-family="Helvetica,sans-Serif" font-size="10.00">xeno_rat_server.Forms.File</text>
<text text-anchor="middle" x="452.12" y="-193.75" font-family="Helvetica,sans-Serif" font-size="10.00">_manager.DownloadMenuItem_Click</text>
</a>
</g>
</g>
<!-- Node5&#45;&gt;Node6 -->
<g id="edge5_Node000005_Node000006" class="edge">
<title>Node5&#45;&gt;Node6</title>
<g id="a_edge5_Node000005_Node000006"><a xlink:title=" ">
<path fill="none" stroke="#63b8ff" d="M564.21,-203.25C556.35,-203.25 548.34,-203.25 540.4,-203.25"/>
<polygon fill="#63b8ff" stroke="#63b8ff" points="564.06,-206.75 574.06,-203.25 564.06,-199.75 564.06,-206.75"/>
</a>
</g>
</g>
<!-- Node6&#45;&gt;Node4 -->
<g id="edge6_Node000006_Node000004" class="edge">
<title>Node6&#45;&gt;Node4</title>
<g id="a_edge6_Node000006_Node000004"><a xlink:title=" ">
<path fill="none" stroke="#63b8ff" d="M375.78,-184.86C355.68,-179.95 334.15,-174.7 314.7,-169.95"/>
<polygon fill="#63b8ff" stroke="#63b8ff" points="374.76,-188.21 385.31,-187.19 376.42,-181.41 374.76,-188.21"/>
</a>
</g>
</g>
<!-- Node8 -->
<g id="Node000008" class="node">
<title>Node8</title>
<g id="a_Node000008"><a xlink:href="classxeno__rat__server_1_1_forms_1_1_file__manager.html#a1f007b6d533c00f8b63d05ea0a2f6d41" target="_top" xlink:title="Handles the click event of button2. Launches a new thread to open a file dialog, select a file,...">
<polygon fill="white" stroke="#666666" points="519.38,-33.5 384.88,-33.5 384.88,-3 519.38,-3 519.38,-33.5"/>
<text text-anchor="start" x="392.88" y="-20" font-family="Helvetica,sans-Serif" font-size="10.00">xeno_rat_server.Forms.File</text>
<text text-anchor="middle" x="452.12" y="-8.75" font-family="Helvetica,sans-Serif" font-size="10.00">_manager.button2_Click</text>
</a>
</g>
</g>
<!-- Node7&#45;&gt;Node8 -->
<g id="edge8_Node000007_Node000008" class="edge">
<title>Node7&#45;&gt;Node8</title>
<g id="a_edge8_Node000007_Node000008"><a xlink:title=" ">
<path fill="none" stroke="#63b8ff" d="M564.39,-18.84C549.6,-18.76 534.25,-18.68 519.84,-18.6"/>
<polygon fill="#63b8ff" stroke="#63b8ff" points="564.04,-22.34 574.06,-18.89 564.08,-15.34 564.04,-22.34"/>
</a>
</g>
</g>
<!-- Node9 -->
<g id="Node000009" class="node">
<title>Node9</title>
<g id="a_Node000009"><a xlink:href="classxeno__rat__server_1_1_forms_1_1_file__manager.html#a5494a4a5c5c535545adc45ee3a0d438a" target="_top" xlink:title="Initializes the components of the form, including tab controls, buttons, text boxes,...">
<polygon fill="white" stroke="#666666" points="323,-30.5 175.75,-30.5 175.75,0 323,0 323,-30.5"/>
<text text-anchor="start" x="183.75" y="-17" font-family="Helvetica,sans-Serif" font-size="10.00">xeno_rat_server.Forms.File</text>
<text text-anchor="middle" x="249.38" y="-5.75" font-family="Helvetica,sans-Serif" font-size="10.00">_manager.InitializeComponent</text>
</a>
</g>
</g>
<!-- Node8&#45;&gt;Node9 -->
<g id="edge9_Node000008_Node000009" class="edge">
<title>Node8&#45;&gt;Node9</title>
<g id="a_edge9_Node000008_Node000009"><a xlink:title=" ">
<path fill="none" stroke="#63b8ff" d="M373.33,-17.09C356.89,-16.84 339.59,-16.58 323.33,-16.34"/>
<polygon fill="#63b8ff" stroke="#63b8ff" points="372.99,-20.58 383.04,-17.23 373.1,-13.58 372.99,-20.58"/>
</a>
</g>
</g>
<!-- Node10 -->
<g id="Node000010" class="node">
<title>Node10</title>
<g id="a_Node000010"><a xlink:href="classxeno__rat__server_1_1_forms_1_1_file__manager.html#a7ed7c5b7981d18cefff899f885faa89b" target="_top" xlink:title=" ">
<polygon fill="white" stroke="#666666" points="134.5,-54.5 0,-54.5 0,-24 134.5,-24 134.5,-54.5"/>
<text text-anchor="start" x="8" y="-41" font-family="Helvetica,sans-Serif" font-size="10.00">xeno_rat_server.Forms.File</text>
<text text-anchor="middle" x="67.25" y="-29.75" font-family="Helvetica,sans-Serif" font-size="10.00">_manager.File_manager</text>
</a>
</g>
</g>
<!-- Node9&#45;&gt;Node10 -->
<g id="edge10_Node000009_Node000010" class="edge">
<title>Node9&#45;&gt;Node10</title>
<g id="a_edge10_Node000009_Node000010"><a xlink:title=" ">
<path fill="none" stroke="#63b8ff" d="M164,-26.49C154.26,-27.79 144.43,-29.1 134.97,-30.36"/>
<polygon fill="#63b8ff" stroke="#63b8ff" points="164.42,-29.97 173.87,-25.18 163.5,-23.03 164.42,-29.97"/>
</a>
</g>
</g>
<!-- Node11&#45;&gt;Node10 -->
<g id="edge12_Node000011_Node000010" class="edge">
<title>Node11&#45;&gt;Node10</title>
<g id="a_edge12_Node000011_Node000010"><a xlink:title=" ">
<path fill="none" stroke="#63b8ff" d="M170.53,-53.45C158.64,-51.8 146.46,-50.1 134.84,-48.49"/>
<polygon fill="#63b8ff" stroke="#63b8ff" points="169.93,-56.9 180.32,-54.8 170.89,-49.96 169.93,-56.9"/>
</a>
</g>
</g>
<!-- Node13 -->
<g id="Node000013" class="node">
<title>Node13</title>
<g id="a_Node000013"><a xlink:href="classxeno__rat__server_1_1_forms_1_1_file__manager.html#ae14c8558b1bb02012558562875d61f83" target="_top" xlink:title="Opens the file associated with the selected menu item.">
<polygon fill="white" stroke="#666666" points="529.88,-169.5 374.38,-169.5 374.38,-139 529.88,-139 529.88,-169.5"/>
<text text-anchor="start" x="382.38" y="-156" font-family="Helvetica,sans-Serif" font-size="10.00">xeno_rat_server.Forms.File</text>
<text text-anchor="middle" x="452.12" y="-144.75" font-family="Helvetica,sans-Serif" font-size="10.00">_manager.OpenMenuItem_Click</text>
</a>
</g>
</g>
<!-- Node12&#45;&gt;Node13 -->
<g id="edge14_Node000012_Node000013" class="edge">
<title>Node12&#45;&gt;Node13</title>
<g id="a_edge14_Node000012_Node000013"><a xlink:title=" ">
<path fill="none" stroke="#63b8ff" d="M564.41,-154.25C553.1,-154.25 541.47,-154.25 530.19,-154.25"/>
<polygon fill="#63b8ff" stroke="#63b8ff" points="564.06,-157.75 574.06,-154.25 564.06,-150.75 564.06,-157.75"/>
</a>
</g>
</g>
<!-- Node13&#45;&gt;Node4 -->
<g id="edge15_Node000013_Node000004" class="edge">
<title>Node13&#45;&gt;Node4</title>
<g id="a_edge15_Node000013_Node000004"><a xlink:title=" ">
<path fill="none" stroke="#63b8ff" d="M362.77,-154.25C351.37,-154.25 339.76,-154.25 328.54,-154.25"/>
<polygon fill="#63b8ff" stroke="#63b8ff" points="362.57,-157.75 372.57,-154.25 362.57,-150.75 362.57,-157.75"/>
</a>
</g>
</g>
</g>
</svg>
