<?xml version="1.0" encoding="UTF-8" standalone="no"?>
<!DOCTYPE svg PUBLIC "-//W3C//DTD SVG 1.1//EN"
 "http://www.w3.org/Graphics/SVG/1.1/DTD/svg11.dtd">
<!-- Generated by graphviz version 10.0.1 (20240210.2158)
 -->
<!-- Title: xeno_rat_server.Forms.ScreenControl.TempOnDisconnect Pages: 1 -->
<svg width="357pt" height="51pt"
 viewBox="0.00 0.00 357.25 50.88" xmlns="http://www.w3.org/2000/svg" xmlns:xlink="http://www.w3.org/1999/xlink">
<g id="graph0" class="graph" transform="scale(1 1) rotate(0) translate(4 46.88)">
<title>xeno_rat_server.Forms.ScreenControl.TempOnDisconnect</title>
<!-- Node1 -->
<g id="Node000001" class="node">
<title>Node1</title>
<g id="a_Node000001"><a xlink:title="Disconnects the client and image node if the provided node &#160;is equal to the client or the image node,...">
<polygon fill="#999999" stroke="#666666" points="149.5,-30.5 0,-30.5 0,0 149.5,0 149.5,-30.5"/>
<text text-anchor="start" x="8" y="-17" font-family="Helvetica,sans-Serif" font-size="10.00">xeno_rat_server.Forms.Screen</text>
<text text-anchor="middle" x="74.75" y="-5.75" font-family="Helvetica,sans-Serif" font-size="10.00">Control.TempOnDisconnect</text>
</a>
</g>
</g>
<!-- Node2 -->
<g id="Node000002" class="node">
<title>Node2</title>
<g id="a_Node000002"><a xlink:href="classxeno__rat__server_1_1_node.html#a8814edd98b6463f49812be32d5928763" target="_top" xlink:title="Sets the isDisposed flag to true and disconnects the socket, disposes resources, and triggers the OnD...">
<polygon fill="white" stroke="#666666" points="349.25,-24.88 185.5,-24.88 185.5,-5.63 349.25,-5.63 349.25,-24.88"/>
<text text-anchor="middle" x="267.38" y="-11.38" font-family="Helvetica,sans-Serif" font-size="10.00">xeno_rat_server.Node.Disconnect</text>
</a>
</g>
</g>
<!-- Node1&#45;&gt;Node2 -->
<g id="edge1_Node000001_Node000002" class="edge">
<title>Node1&#45;&gt;Node2</title>
<g id="a_edge1_Node000001_Node000002"><a xlink:title=" ">
<path fill="none" stroke="#63b8ff" d="M150,-15.25C157.81,-15.25 165.83,-15.25 173.82,-15.25"/>
<polygon fill="#63b8ff" stroke="#63b8ff" points="173.56,-18.75 183.56,-15.25 173.56,-11.75 173.56,-18.75"/>
</a>
</g>
</g>
<!-- Node2&#45;&gt;Node2 -->
<g id="edge2_Node000002_Node000002" class="edge">
<title>Node2&#45;&gt;Node2</title>
<g id="a_edge2_Node000002_Node000002"><a xlink:title=" ">
<path fill="none" stroke="#63b8ff" d="M237.22,-25.16C223.46,-33.77 233.52,-42.88 267.38,-42.88 286.95,-42.88 298.57,-39.83 302.23,-35.6"/>
<polygon fill="#63b8ff" stroke="#63b8ff" points="305.45,-34.23 298.15,-26.54 299.06,-37.1 305.45,-34.23"/>
</a>
</g>
</g>
</g>
</svg>
