<?xml version="1.0" encoding="UTF-8" standalone="no"?>
<!DOCTYPE svg PUBLIC "-//W3C//DTD SVG 1.1//EN"
 "http://www.w3.org/Graphics/SVG/1.1/DTD/svg11.dtd">
<!-- Generated by graphviz version 10.0.1 (20240210.2158)
 -->
<!-- Title: NAudio.Midi.TextEvent Pages: 1 -->
<svg width="122pt" height="807pt"
 viewBox="0.00 0.00 122.00 807.00" xmlns="http://www.w3.org/2000/svg" xmlns:xlink="http://www.w3.org/1999/xlink">
<g id="graph0" class="graph" transform="scale(1 1) rotate(0) translate(4 803)">
<title>NAudio.Midi.TextEvent</title>
<!-- Node1 -->
<g id="Node000001" class="node">
<title>Node1</title>
<g id="a_Node000001"><a xlink:title="Represents a MIDI text event.">
<polygon fill="#999999" stroke="none" points="112,-139 2,-139 2,0 112,0 112,-139"/>
<text text-anchor="start" x="6.75" y="-125.5" font-family="Helvetica,sans-Serif" font-size="10.00">NAudio.Midi.TextEvent</text>
<text text-anchor="start" x="16.5" y="-110.5" font-family="Helvetica,sans-Serif" font-size="10.00">+</text>
<text text-anchor="start" x="37" y="-110.5" font-family="Helvetica,sans-Serif" font-size="10.00">Text</text>
<text text-anchor="start" x="16.5" y="-95.5" font-family="Helvetica,sans-Serif" font-size="10.00">+</text>
<text text-anchor="start" x="37" y="-95.5" font-family="Helvetica,sans-Serif" font-size="10.00">Data</text>
<text text-anchor="start" x="18" y="-80.5" font-family="Helvetica,sans-Serif" font-size="10.00">&#45;</text>
<text text-anchor="start" x="37" y="-80.5" font-family="Helvetica,sans-Serif" font-size="10.00">data</text>
<text text-anchor="start" x="16.5" y="-65.5" font-family="Helvetica,sans-Serif" font-size="10.00">+</text>
<text text-anchor="start" x="37" y="-65.5" font-family="Helvetica,sans-Serif" font-size="10.00">TextEvent()</text>
<text text-anchor="start" x="16.5" y="-50.5" font-family="Helvetica,sans-Serif" font-size="10.00">+</text>
<text text-anchor="start" x="37" y="-50.5" font-family="Helvetica,sans-Serif" font-size="10.00">TextEvent()</text>
<text text-anchor="start" x="16.5" y="-35.5" font-family="Helvetica,sans-Serif" font-size="10.00">+</text>
<text text-anchor="start" x="37" y="-35.5" font-family="Helvetica,sans-Serif" font-size="10.00">Clone()</text>
<text text-anchor="start" x="16.5" y="-20.5" font-family="Helvetica,sans-Serif" font-size="10.00">+</text>
<text text-anchor="start" x="37" y="-20.5" font-family="Helvetica,sans-Serif" font-size="10.00">ToString()</text>
<text text-anchor="start" x="16.5" y="-5.5" font-family="Helvetica,sans-Serif" font-size="10.00">+</text>
<text text-anchor="start" x="37" y="-5.5" font-family="Helvetica,sans-Serif" font-size="10.00">Export()</text>
<polygon fill="#666666" stroke="#666666" points="2,-122 2,-122 112,-122 112,-122 2,-122"/>
<polygon fill="#666666" stroke="#666666" points="2,-77 2,-77 35,-77 35,-77 2,-77"/>
<polygon fill="#666666" stroke="#666666" points="35,-77 35,-77 112,-77 112,-77 35,-77"/>
<polygon fill="none" stroke="#666666" points="2,0 2,-139 112,-139 112,0 2,0"/>
</a>
</g>
</g>
<!-- Node2 -->
<g id="Node000002" class="node">
<title>Node2</title>
<g id="a_Node000002"><a xlink:href="class_n_audio_1_1_midi_1_1_meta_event.html" target="_top" xlink:title="Represents a MIDI meta event.">
<polygon fill="white" stroke="none" points="104,-329 10,-329 10,-175 104,-175 104,-329"/>
<text text-anchor="start" x="33.38" y="-315.5" font-family="Helvetica,sans-Serif" font-size="10.00">MetaEvent</text>
<text text-anchor="start" x="14" y="-300.5" font-family="Helvetica,sans-Serif" font-size="10.00">+</text>
<text text-anchor="start" x="24" y="-300.5" font-family="Helvetica,sans-Serif" font-size="10.00">MetaEventType</text>
<text text-anchor="start" x="14" y="-285.5" font-family="Helvetica,sans-Serif" font-size="10.00">~</text>
<text text-anchor="start" x="24" y="-285.5" font-family="Helvetica,sans-Serif" font-size="10.00">metaDataLength</text>
<text text-anchor="start" x="15.5" y="-270.5" font-family="Helvetica,sans-Serif" font-size="10.00">&#45;</text>
<text text-anchor="start" x="24" y="-270.5" font-family="Helvetica,sans-Serif" font-size="10.00">metaEvent</text>
<text text-anchor="start" x="14" y="-255.5" font-family="Helvetica,sans-Serif" font-size="10.00">+</text>
<text text-anchor="start" x="24" y="-255.5" font-family="Helvetica,sans-Serif" font-size="10.00">MetaEvent()</text>
<text text-anchor="start" x="14" y="-240.5" font-family="Helvetica,sans-Serif" font-size="10.00">+</text>
<text text-anchor="start" x="24" y="-240.5" font-family="Helvetica,sans-Serif" font-size="10.00">Clone()</text>
<text text-anchor="start" x="14" y="-225.5" font-family="Helvetica,sans-Serif" font-size="10.00">+</text>
<text text-anchor="start" x="24" y="-225.5" font-family="Helvetica,sans-Serif" font-size="10.00">ToString()</text>
<text text-anchor="start" x="14" y="-210.5" font-family="Helvetica,sans-Serif" font-size="10.00">+</text>
<text text-anchor="start" x="24" y="-210.5" font-family="Helvetica,sans-Serif" font-size="10.00">Export()</text>
<text text-anchor="start" x="14" y="-195.5" font-family="Helvetica,sans-Serif" font-size="10.00">+</text>
<text text-anchor="start" x="24" y="-195.5" font-family="Helvetica,sans-Serif" font-size="10.00">ReadMetaEvent()</text>
<text text-anchor="start" x="14.38" y="-180.5" font-family="Helvetica,sans-Serif" font-size="10.00">#</text>
<text text-anchor="start" x="24" y="-180.5" font-family="Helvetica,sans-Serif" font-size="10.00">MetaEvent()</text>
<polygon fill="#666666" stroke="#666666" points="10,-312 10,-312 104,-312 104,-312 10,-312"/>
<polygon fill="#666666" stroke="#666666" points="10,-267 10,-267 22,-267 22,-267 10,-267"/>
<polygon fill="#666666" stroke="#666666" points="22,-267 22,-267 104,-267 104,-267 22,-267"/>
<polygon fill="none" stroke="#666666" points="10,-175 10,-329 104,-329 104,-175 10,-175"/>
</a>
</g>
</g>
<!-- Node2&#45;&gt;Node1 -->
<g id="edge1_Node000001_Node000002" class="edge">
<title>Node2&#45;&gt;Node1</title>
<g id="a_edge1_Node000001_Node000002"><a xlink:title=" ">
<path fill="none" stroke="#63b8ff" d="M57,-163.85C57,-155.47 57,-147.05 57,-138.89"/>
<polygon fill="none" stroke="#63b8ff" points="53.5,-163.72 57,-173.72 60.5,-163.72 53.5,-163.72"/>
</a>
</g>
</g>
<!-- Node3 -->
<g id="Node000003" class="node">
<title>Node3</title>
<g id="a_Node000003"><a xlink:href="class_n_audio_1_1_midi_1_1_midi_event.html" target="_top" xlink:title="Represents an individual MIDI event.">
<polygon fill="white" stroke="none" points="114,-714 0,-714 0,-365 114,-365 114,-714"/>
<text text-anchor="start" x="35.25" y="-700.5" font-family="Helvetica,sans-Serif" font-size="10.00">MidiEvent</text>
<text text-anchor="start" x="4" y="-685.5" font-family="Helvetica,sans-Serif" font-size="10.00">+</text>
<text text-anchor="start" x="14" y="-685.5" font-family="Helvetica,sans-Serif" font-size="10.00">Channel</text>
<text text-anchor="start" x="4" y="-670.5" font-family="Helvetica,sans-Serif" font-size="10.00">+</text>
<text text-anchor="start" x="14" y="-670.5" font-family="Helvetica,sans-Serif" font-size="10.00">DeltaTime</text>
<text text-anchor="start" x="4" y="-655.5" font-family="Helvetica,sans-Serif" font-size="10.00">+</text>
<text text-anchor="start" x="14" y="-655.5" font-family="Helvetica,sans-Serif" font-size="10.00">AbsoluteTime</text>
<text text-anchor="start" x="4" y="-640.5" font-family="Helvetica,sans-Serif" font-size="10.00">+</text>
<text text-anchor="start" x="14" y="-640.5" font-family="Helvetica,sans-Serif" font-size="10.00">CommandCode</text>
<text text-anchor="start" x="5.5" y="-625.5" font-family="Helvetica,sans-Serif" font-size="10.00">&#45;</text>
<text text-anchor="start" x="14" y="-625.5" font-family="Helvetica,sans-Serif" font-size="10.00">commandCode</text>
<text text-anchor="start" x="5.5" y="-610.5" font-family="Helvetica,sans-Serif" font-size="10.00">&#45;</text>
<text text-anchor="start" x="14" y="-610.5" font-family="Helvetica,sans-Serif" font-size="10.00">channel</text>
<text text-anchor="start" x="5.5" y="-595.5" font-family="Helvetica,sans-Serif" font-size="10.00">&#45;</text>
<text text-anchor="start" x="14" y="-595.5" font-family="Helvetica,sans-Serif" font-size="10.00">deltaTime</text>
<text text-anchor="start" x="5.5" y="-580.5" font-family="Helvetica,sans-Serif" font-size="10.00">&#45;</text>
<text text-anchor="start" x="14" y="-580.5" font-family="Helvetica,sans-Serif" font-size="10.00">absoluteTime</text>
<text text-anchor="start" x="4" y="-565.5" font-family="Helvetica,sans-Serif" font-size="10.00">+</text>
<text text-anchor="start" x="14" y="-565.5" font-family="Helvetica,sans-Serif" font-size="10.00">GetAsShortMessage()</text>
<text text-anchor="start" x="4" y="-550.5" font-family="Helvetica,sans-Serif" font-size="10.00">+</text>
<text text-anchor="start" x="14" y="-550.5" font-family="Helvetica,sans-Serif" font-size="10.00">MidiEvent()</text>
<text text-anchor="start" x="4" y="-535.5" font-family="Helvetica,sans-Serif" font-size="10.00">+</text>
<text text-anchor="start" x="14" y="-535.5" font-family="Helvetica,sans-Serif" font-size="10.00">Clone()</text>
<text text-anchor="start" x="4" y="-520.5" font-family="Helvetica,sans-Serif" font-size="10.00">+</text>
<text text-anchor="start" x="14" y="-520.5" font-family="Helvetica,sans-Serif" font-size="10.00">ToString()</text>
<text text-anchor="start" x="4" y="-505.5" font-family="Helvetica,sans-Serif" font-size="10.00">+</text>
<text text-anchor="start" x="14" y="-505.5" font-family="Helvetica,sans-Serif" font-size="10.00">Export()</text>
<text text-anchor="start" x="4" y="-490.5" font-family="Helvetica,sans-Serif" font-size="10.00">+</text>
<text text-anchor="start" x="14" y="-490.5" font-family="Helvetica,sans-Serif" font-size="10.00">FromRawMessage()</text>
<text text-anchor="start" x="4" y="-475.5" font-family="Helvetica,sans-Serif" font-size="10.00">+</text>
<text text-anchor="start" x="14" y="-475.5" font-family="Helvetica,sans-Serif" font-size="10.00">ReadNextEvent()</text>
<text text-anchor="start" x="4" y="-460.5" font-family="Helvetica,sans-Serif" font-size="10.00">+</text>
<text text-anchor="start" x="14" y="-460.5" font-family="Helvetica,sans-Serif" font-size="10.00">IsNoteOff()</text>
<text text-anchor="start" x="4" y="-445.5" font-family="Helvetica,sans-Serif" font-size="10.00">+</text>
<text text-anchor="start" x="14" y="-445.5" font-family="Helvetica,sans-Serif" font-size="10.00">IsNoteOn()</text>
<text text-anchor="start" x="4" y="-430.5" font-family="Helvetica,sans-Serif" font-size="10.00">+</text>
<text text-anchor="start" x="14" y="-430.5" font-family="Helvetica,sans-Serif" font-size="10.00">IsEndTrack()</text>
<text text-anchor="start" x="4" y="-415.5" font-family="Helvetica,sans-Serif" font-size="10.00">+</text>
<text text-anchor="start" x="14" y="-415.5" font-family="Helvetica,sans-Serif" font-size="10.00">ReadVarInt()</text>
<text text-anchor="start" x="4" y="-400.5" font-family="Helvetica,sans-Serif" font-size="10.00">+</text>
<text text-anchor="start" x="14" y="-400.5" font-family="Helvetica,sans-Serif" font-size="10.00">WriteVarInt()</text>
<text text-anchor="start" x="4.38" y="-385.5" font-family="Helvetica,sans-Serif" font-size="10.00">#</text>
<text text-anchor="start" x="14" y="-385.5" font-family="Helvetica,sans-Serif" font-size="10.00">MidiEvent()</text>
<text text-anchor="start" x="5.5" y="-370.5" font-family="Helvetica,sans-Serif" font-size="10.00">&#45;</text>
<text text-anchor="start" x="14" y="-370.5" font-family="Helvetica,sans-Serif" font-size="10.00">Clone()</text>
<polygon fill="#666666" stroke="#666666" points="0,-697 0,-697 114,-697 114,-697 0,-697"/>
<polygon fill="#666666" stroke="#666666" points="0,-577 0,-577 12,-577 12,-577 0,-577"/>
<polygon fill="#666666" stroke="#666666" points="12,-577 12,-577 114,-577 114,-577 12,-577"/>
<polygon fill="none" stroke="#666666" points="0,-365 0,-714 114,-714 114,-365 0,-365"/>
</a>
</g>
</g>
<!-- Node3&#45;&gt;Node2 -->
<g id="edge2_Node000002_Node000003" class="edge">
<title>Node3&#45;&gt;Node2</title>
<g id="a_edge2_Node000002_Node000003"><a xlink:title=" ">
<path fill="none" stroke="#63b8ff" d="M57,-353.7C57,-345.18 57,-336.88 57,-328.93"/>
<polygon fill="none" stroke="#63b8ff" points="53.5,-353.5 57,-363.5 60.5,-353.5 53.5,-353.5"/>
</a>
</g>
</g>
<!-- Node4 -->
<g id="Node000004" class="node">
<title>Node4</title>
<g id="a_Node000004"><a xlink:href="class_i_cloneable.html" target="_top" xlink:title=" ">
<polygon fill="white" stroke="none" points="85,-799 29,-799 29,-750 85,-750 85,-799"/>
<text text-anchor="start" x="33.75" y="-785.5" font-family="Helvetica,sans-Serif" font-size="10.00">ICloneable</text>
<text text-anchor="start" x="55.5" y="-770.5" font-family="Helvetica,sans-Serif" font-size="10.00"> </text>
<text text-anchor="start" x="55.5" y="-755.5" font-family="Helvetica,sans-Serif" font-size="10.00"> </text>
<polygon fill="#666666" stroke="#666666" points="29,-782 29,-782 85,-782 85,-782 29,-782"/>
<polygon fill="#666666" stroke="#666666" points="29,-767 29,-767 85,-767 85,-767 29,-767"/>
<polygon fill="none" stroke="#666666" points="29,-750 29,-799 85,-799 85,-750 29,-750"/>
</a>
</g>
</g>
<!-- Node4&#45;&gt;Node3 -->
<g id="edge3_Node000003_Node000004" class="edge">
<title>Node4&#45;&gt;Node3</title>
<g id="a_edge3_Node000003_Node000004"><a xlink:title=" ">
<path fill="none" stroke="#63b8ff" d="M57,-738.95C57,-731.45 57,-723.02 57,-713.98"/>
<polygon fill="none" stroke="#63b8ff" points="53.5,-738.79 57,-748.79 60.5,-738.79 53.5,-738.79"/>
</a>
</g>
</g>
</g>
</svg>
