<?xml version="1.0" encoding="UTF-8" standalone="no"?>
<!DOCTYPE svg PUBLIC "-//W3C//DTD SVG 1.1//EN"
 "http://www.w3.org/Graphics/SVG/1.1/DTD/svg11.dtd">
<!-- Generated by graphviz version 10.0.1 (20240210.2158)
 -->
<!-- Title: NAudio.Midi.TrackSequenceNumberEvent Pages: 1 -->
<svg width="160pt" height="788pt"
 viewBox="0.00 0.00 160.00 788.00" xmlns="http://www.w3.org/2000/svg" xmlns:xlink="http://www.w3.org/1999/xlink">
<g id="graph0" class="graph" transform="scale(1 1) rotate(0) translate(4 784)">
<title>NAudio.Midi.TrackSequenceNumberEvent</title>
<!-- Node1 -->
<g id="Node000001" class="node">
<title>Node1</title>
<g id="a_Node000001"><a xlink:title="Represents a MIDI track sequence number event event.">
<polygon fill="#999999" stroke="none" points="152,-120 0,-120 0,0 152,0 152,-120"/>
<text text-anchor="start" x="13.75" y="-106.5" font-family="Helvetica,sans-Serif" font-size="10.00">NAudio.Midi.TrackSequence</text>
<text text-anchor="start" x="46" y="-95.25" font-family="Helvetica,sans-Serif" font-size="10.00">NumberEvent</text>
<text text-anchor="start" x="5.5" y="-80.5" font-family="Helvetica,sans-Serif" font-size="10.00">&#45;</text>
<text text-anchor="start" x="14" y="-80.5" font-family="Helvetica,sans-Serif" font-size="10.00">sequenceNumber</text>
<text text-anchor="start" x="4" y="-65.5" font-family="Helvetica,sans-Serif" font-size="10.00">+</text>
<text text-anchor="start" x="14" y="-65.5" font-family="Helvetica,sans-Serif" font-size="10.00">TrackSequenceNumberEvent()</text>
<text text-anchor="start" x="4" y="-50.5" font-family="Helvetica,sans-Serif" font-size="10.00">+</text>
<text text-anchor="start" x="14" y="-50.5" font-family="Helvetica,sans-Serif" font-size="10.00">TrackSequenceNumberEvent()</text>
<text text-anchor="start" x="4" y="-35.5" font-family="Helvetica,sans-Serif" font-size="10.00">+</text>
<text text-anchor="start" x="14" y="-35.5" font-family="Helvetica,sans-Serif" font-size="10.00">Clone()</text>
<text text-anchor="start" x="4" y="-20.5" font-family="Helvetica,sans-Serif" font-size="10.00">+</text>
<text text-anchor="start" x="14" y="-20.5" font-family="Helvetica,sans-Serif" font-size="10.00">ToString()</text>
<text text-anchor="start" x="4" y="-5.5" font-family="Helvetica,sans-Serif" font-size="10.00">+</text>
<text text-anchor="start" x="14" y="-5.5" font-family="Helvetica,sans-Serif" font-size="10.00">Export()</text>
<polygon fill="#666666" stroke="#666666" points="0,-92 0,-92 152,-92 152,-92 0,-92"/>
<polygon fill="#666666" stroke="#666666" points="0,-77 0,-77 12,-77 12,-77 0,-77"/>
<polygon fill="#666666" stroke="#666666" points="12,-77 12,-77 152,-77 152,-77 12,-77"/>
<polygon fill="none" stroke="#666666" points="0,0 0,-120 152,-120 152,0 0,0"/>
</a>
</g>
</g>
<!-- Node2 -->
<g id="Node000002" class="node">
<title>Node2</title>
<g id="a_Node000002"><a xlink:href="class_n_audio_1_1_midi_1_1_meta_event.html" target="_top" xlink:title="Represents a MIDI meta event.">
<polygon fill="white" stroke="none" points="123,-310 29,-310 29,-156 123,-156 123,-310"/>
<text text-anchor="start" x="52.38" y="-296.5" font-family="Helvetica,sans-Serif" font-size="10.00">MetaEvent</text>
<text text-anchor="start" x="33" y="-281.5" font-family="Helvetica,sans-Serif" font-size="10.00">+</text>
<text text-anchor="start" x="43" y="-281.5" font-family="Helvetica,sans-Serif" font-size="10.00">MetaEventType</text>
<text text-anchor="start" x="33" y="-266.5" font-family="Helvetica,sans-Serif" font-size="10.00">~</text>
<text text-anchor="start" x="43" y="-266.5" font-family="Helvetica,sans-Serif" font-size="10.00">metaDataLength</text>
<text text-anchor="start" x="34.5" y="-251.5" font-family="Helvetica,sans-Serif" font-size="10.00">&#45;</text>
<text text-anchor="start" x="43" y="-251.5" font-family="Helvetica,sans-Serif" font-size="10.00">metaEvent</text>
<text text-anchor="start" x="33" y="-236.5" font-family="Helvetica,sans-Serif" font-size="10.00">+</text>
<text text-anchor="start" x="43" y="-236.5" font-family="Helvetica,sans-Serif" font-size="10.00">MetaEvent()</text>
<text text-anchor="start" x="33" y="-221.5" font-family="Helvetica,sans-Serif" font-size="10.00">+</text>
<text text-anchor="start" x="43" y="-221.5" font-family="Helvetica,sans-Serif" font-size="10.00">Clone()</text>
<text text-anchor="start" x="33" y="-206.5" font-family="Helvetica,sans-Serif" font-size="10.00">+</text>
<text text-anchor="start" x="43" y="-206.5" font-family="Helvetica,sans-Serif" font-size="10.00">ToString()</text>
<text text-anchor="start" x="33" y="-191.5" font-family="Helvetica,sans-Serif" font-size="10.00">+</text>
<text text-anchor="start" x="43" y="-191.5" font-family="Helvetica,sans-Serif" font-size="10.00">Export()</text>
<text text-anchor="start" x="33" y="-176.5" font-family="Helvetica,sans-Serif" font-size="10.00">+</text>
<text text-anchor="start" x="43" y="-176.5" font-family="Helvetica,sans-Serif" font-size="10.00">ReadMetaEvent()</text>
<text text-anchor="start" x="33.38" y="-161.5" font-family="Helvetica,sans-Serif" font-size="10.00">#</text>
<text text-anchor="start" x="43" y="-161.5" font-family="Helvetica,sans-Serif" font-size="10.00">MetaEvent()</text>
<polygon fill="#666666" stroke="#666666" points="29,-293 29,-293 123,-293 123,-293 29,-293"/>
<polygon fill="#666666" stroke="#666666" points="29,-248 29,-248 41,-248 41,-248 29,-248"/>
<polygon fill="#666666" stroke="#666666" points="41,-248 41,-248 123,-248 123,-248 41,-248"/>
<polygon fill="none" stroke="#666666" points="29,-156 29,-310 123,-310 123,-156 29,-156"/>
</a>
</g>
</g>
<!-- Node2&#45;&gt;Node1 -->
<g id="edge1_Node000001_Node000002" class="edge">
<title>Node2&#45;&gt;Node1</title>
<g id="a_edge1_Node000001_Node000002"><a xlink:title=" ">
<path fill="none" stroke="#63b8ff" d="M76,-144.58C76,-136.2 76,-127.84 76,-119.83"/>
<polygon fill="none" stroke="#63b8ff" points="72.5,-144.49 76,-154.49 79.5,-144.49 72.5,-144.49"/>
</a>
</g>
</g>
<!-- Node3 -->
<g id="Node000003" class="node">
<title>Node3</title>
<g id="a_Node000003"><a xlink:href="class_n_audio_1_1_midi_1_1_midi_event.html" target="_top" xlink:title="Represents an individual MIDI event.">
<polygon fill="white" stroke="none" points="133,-695 19,-695 19,-346 133,-346 133,-695"/>
<text text-anchor="start" x="54.25" y="-681.5" font-family="Helvetica,sans-Serif" font-size="10.00">MidiEvent</text>
<text text-anchor="start" x="23" y="-666.5" font-family="Helvetica,sans-Serif" font-size="10.00">+</text>
<text text-anchor="start" x="33" y="-666.5" font-family="Helvetica,sans-Serif" font-size="10.00">Channel</text>
<text text-anchor="start" x="23" y="-651.5" font-family="Helvetica,sans-Serif" font-size="10.00">+</text>
<text text-anchor="start" x="33" y="-651.5" font-family="Helvetica,sans-Serif" font-size="10.00">DeltaTime</text>
<text text-anchor="start" x="23" y="-636.5" font-family="Helvetica,sans-Serif" font-size="10.00">+</text>
<text text-anchor="start" x="33" y="-636.5" font-family="Helvetica,sans-Serif" font-size="10.00">AbsoluteTime</text>
<text text-anchor="start" x="23" y="-621.5" font-family="Helvetica,sans-Serif" font-size="10.00">+</text>
<text text-anchor="start" x="33" y="-621.5" font-family="Helvetica,sans-Serif" font-size="10.00">CommandCode</text>
<text text-anchor="start" x="24.5" y="-606.5" font-family="Helvetica,sans-Serif" font-size="10.00">&#45;</text>
<text text-anchor="start" x="33" y="-606.5" font-family="Helvetica,sans-Serif" font-size="10.00">commandCode</text>
<text text-anchor="start" x="24.5" y="-591.5" font-family="Helvetica,sans-Serif" font-size="10.00">&#45;</text>
<text text-anchor="start" x="33" y="-591.5" font-family="Helvetica,sans-Serif" font-size="10.00">channel</text>
<text text-anchor="start" x="24.5" y="-576.5" font-family="Helvetica,sans-Serif" font-size="10.00">&#45;</text>
<text text-anchor="start" x="33" y="-576.5" font-family="Helvetica,sans-Serif" font-size="10.00">deltaTime</text>
<text text-anchor="start" x="24.5" y="-561.5" font-family="Helvetica,sans-Serif" font-size="10.00">&#45;</text>
<text text-anchor="start" x="33" y="-561.5" font-family="Helvetica,sans-Serif" font-size="10.00">absoluteTime</text>
<text text-anchor="start" x="23" y="-546.5" font-family="Helvetica,sans-Serif" font-size="10.00">+</text>
<text text-anchor="start" x="33" y="-546.5" font-family="Helvetica,sans-Serif" font-size="10.00">GetAsShortMessage()</text>
<text text-anchor="start" x="23" y="-531.5" font-family="Helvetica,sans-Serif" font-size="10.00">+</text>
<text text-anchor="start" x="33" y="-531.5" font-family="Helvetica,sans-Serif" font-size="10.00">MidiEvent()</text>
<text text-anchor="start" x="23" y="-516.5" font-family="Helvetica,sans-Serif" font-size="10.00">+</text>
<text text-anchor="start" x="33" y="-516.5" font-family="Helvetica,sans-Serif" font-size="10.00">Clone()</text>
<text text-anchor="start" x="23" y="-501.5" font-family="Helvetica,sans-Serif" font-size="10.00">+</text>
<text text-anchor="start" x="33" y="-501.5" font-family="Helvetica,sans-Serif" font-size="10.00">ToString()</text>
<text text-anchor="start" x="23" y="-486.5" font-family="Helvetica,sans-Serif" font-size="10.00">+</text>
<text text-anchor="start" x="33" y="-486.5" font-family="Helvetica,sans-Serif" font-size="10.00">Export()</text>
<text text-anchor="start" x="23" y="-471.5" font-family="Helvetica,sans-Serif" font-size="10.00">+</text>
<text text-anchor="start" x="33" y="-471.5" font-family="Helvetica,sans-Serif" font-size="10.00">FromRawMessage()</text>
<text text-anchor="start" x="23" y="-456.5" font-family="Helvetica,sans-Serif" font-size="10.00">+</text>
<text text-anchor="start" x="33" y="-456.5" font-family="Helvetica,sans-Serif" font-size="10.00">ReadNextEvent()</text>
<text text-anchor="start" x="23" y="-441.5" font-family="Helvetica,sans-Serif" font-size="10.00">+</text>
<text text-anchor="start" x="33" y="-441.5" font-family="Helvetica,sans-Serif" font-size="10.00">IsNoteOff()</text>
<text text-anchor="start" x="23" y="-426.5" font-family="Helvetica,sans-Serif" font-size="10.00">+</text>
<text text-anchor="start" x="33" y="-426.5" font-family="Helvetica,sans-Serif" font-size="10.00">IsNoteOn()</text>
<text text-anchor="start" x="23" y="-411.5" font-family="Helvetica,sans-Serif" font-size="10.00">+</text>
<text text-anchor="start" x="33" y="-411.5" font-family="Helvetica,sans-Serif" font-size="10.00">IsEndTrack()</text>
<text text-anchor="start" x="23" y="-396.5" font-family="Helvetica,sans-Serif" font-size="10.00">+</text>
<text text-anchor="start" x="33" y="-396.5" font-family="Helvetica,sans-Serif" font-size="10.00">ReadVarInt()</text>
<text text-anchor="start" x="23" y="-381.5" font-family="Helvetica,sans-Serif" font-size="10.00">+</text>
<text text-anchor="start" x="33" y="-381.5" font-family="Helvetica,sans-Serif" font-size="10.00">WriteVarInt()</text>
<text text-anchor="start" x="23.38" y="-366.5" font-family="Helvetica,sans-Serif" font-size="10.00">#</text>
<text text-anchor="start" x="33" y="-366.5" font-family="Helvetica,sans-Serif" font-size="10.00">MidiEvent()</text>
<text text-anchor="start" x="24.5" y="-351.5" font-family="Helvetica,sans-Serif" font-size="10.00">&#45;</text>
<text text-anchor="start" x="33" y="-351.5" font-family="Helvetica,sans-Serif" font-size="10.00">Clone()</text>
<polygon fill="#666666" stroke="#666666" points="19,-678 19,-678 133,-678 133,-678 19,-678"/>
<polygon fill="#666666" stroke="#666666" points="19,-558 19,-558 31,-558 31,-558 19,-558"/>
<polygon fill="#666666" stroke="#666666" points="31,-558 31,-558 133,-558 133,-558 31,-558"/>
<polygon fill="none" stroke="#666666" points="19,-346 19,-695 133,-695 133,-346 19,-346"/>
</a>
</g>
</g>
<!-- Node3&#45;&gt;Node2 -->
<g id="edge2_Node000002_Node000003" class="edge">
<title>Node3&#45;&gt;Node2</title>
<g id="a_edge2_Node000002_Node000003"><a xlink:title=" ">
<path fill="none" stroke="#63b8ff" d="M76,-334.7C76,-326.18 76,-317.88 76,-309.93"/>
<polygon fill="none" stroke="#63b8ff" points="72.5,-334.5 76,-344.5 79.5,-334.5 72.5,-334.5"/>
</a>
</g>
</g>
<!-- Node4 -->
<g id="Node000004" class="node">
<title>Node4</title>
<g id="a_Node000004"><a xlink:href="class_i_cloneable.html" target="_top" xlink:title=" ">
<polygon fill="white" stroke="none" points="104,-780 48,-780 48,-731 104,-731 104,-780"/>
<text text-anchor="start" x="52.75" y="-766.5" font-family="Helvetica,sans-Serif" font-size="10.00">ICloneable</text>
<text text-anchor="start" x="74.5" y="-751.5" font-family="Helvetica,sans-Serif" font-size="10.00"> </text>
<text text-anchor="start" x="74.5" y="-736.5" font-family="Helvetica,sans-Serif" font-size="10.00"> </text>
<polygon fill="#666666" stroke="#666666" points="48,-763 48,-763 104,-763 104,-763 48,-763"/>
<polygon fill="#666666" stroke="#666666" points="48,-748 48,-748 104,-748 104,-748 48,-748"/>
<polygon fill="none" stroke="#666666" points="48,-731 48,-780 104,-780 104,-731 48,-731"/>
</a>
</g>
</g>
<!-- Node4&#45;&gt;Node3 -->
<g id="edge3_Node000003_Node000004" class="edge">
<title>Node4&#45;&gt;Node3</title>
<g id="a_edge3_Node000003_Node000004"><a xlink:title=" ">
<path fill="none" stroke="#63b8ff" d="M76,-719.95C76,-712.45 76,-704.02 76,-694.98"/>
<polygon fill="none" stroke="#63b8ff" points="72.5,-719.79 76,-729.79 79.5,-719.79 72.5,-719.79"/>
</a>
</g>
</g>
</g>
</svg>
