<?xml version="1.0" encoding="UTF-8" standalone="no"?>
<!DOCTYPE svg PUBLIC "-//W3C//DTD SVG 1.1//EN"
 "http://www.w3.org/Graphics/SVG/1.1/DTD/svg11.dtd">
<!-- Generated by graphviz version 10.0.1 (20240210.2158)
 -->
<!-- Title: Plugin.Main.ShowMessageBox Pages: 1 -->
<!--zoomable 272 -->

<svg id="main" version="1.1" xmlns="http://www.w3.org/2000/svg" xmlns:xlink="http://www.w3.org/1999/xlink" xml:space="preserve" onload="init(evt)">
<style type="text/css"><![CDATA[
.node, .edge {opacity: 0.7;}
.node.selected, .edge.selected {opacity: 1;}
.edge:hover path { stroke: red; }
.edge:hover polygon { stroke: red; fill: red; }
]]></style>

<defs>
  <circle id="rim" cx="0" cy="0" r="7"/>
  <circle id="rim2" cx="0" cy="0" r="3.5"/>
  <g id="zoomPlus">
    <use xlink:href="#rim" fill="#404040"><set attributeName="fill" to="#808080" begin="zoomplus.mouseover" end="zoomplus.mouseout"/></use>
    <path d="M-4,0h8M0,-4v8" fill="none" stroke="white" stroke-width="1.5" pointer-events="none"/>
  </g>
  <g id="zoomMin">
    <use xlink:href="#rim" fill="#404040"><set attributeName="fill" to="#808080" begin="zoomminus.mouseover" end="zoomminus.mouseout"/></use>
    <path d="M-4,0h8" fill="none" stroke="white" stroke-width="1.5" pointer-events="none"/>
  </g>
  <g id="arrowUp" transform="translate(30 24)">
    <use xlink:href="#rim"/>
    <path pointer-events="none" fill="none" stroke="white" stroke-width="1.5" d="M0,-3.0v7 M-2.5,-0.5L0,-3.0L2.5,-0.5"/>
  </g>
  <g id="arrowRight" transform="rotate(90) translate(36 -43)">
    <use xlink:href="#rim"/>
    <path pointer-events="none" fill="none" stroke="white" stroke-width="1.5" d="M0,-3.0v7 M-2.5,-0.5L0,-3.0L2.5,-0.5"/>
  </g>
  <g id="arrowDown" transform="rotate(180) translate(-30 -48)">
    <use xlink:href="#rim"/>
    <path pointer-events="none" fill="none" stroke="white" stroke-width="1.5" d="M0,-3.0v7 M-2.5,-0.5L0,-3.0L2.5,-0.5"/>
  </g>
  <g id="arrowLeft" transform="rotate(270) translate(-36 17)">
    <use xlink:href="#rim"/>
    <path pointer-events="none" fill="none" stroke="white" stroke-width="1.5" d="M0,-3.0v7 M-2.5,-0.5L0,-3.0L2.5,-0.5"/>
  </g>
  <g id="resetDef">
    <use xlink:href="#rim2" fill="#404040"><set attributeName="fill" to="#808080" begin="reset.mouseover" end="reset.mouseout"/></use>
  </g>
</defs>
<script type="application/ecmascript">
var viewWidth = 915;
var viewHeight = 272;
var sectionId = 'dynsection-131';
</script>
<script type="application/ecmascript" xlink:href="svg.min.js"/>
<svg id="graph" class="graph">
<g id="viewport">
<title>Plugin.Main.ShowMessageBox</title>
<!-- Node1 -->
<g id="Node000001" class="node">
<title>Node1</title>
<g id="a_Node000001"><a xlink:title="Displays a message box with the specified text.">
<polygon fill="#999999" stroke="#666666" points="151.75,-164.88 0,-164.88 0,-145.62 151.75,-145.62 151.75,-164.88"/>
<text text-anchor="middle" x="75.88" y="-151.38" font-family="Helvetica,sans-Serif" font-size="10.00">Plugin.Main.ShowMessageBox</text>
</a>
</g>
</g>
<!-- Node2 -->
<g id="Node000002" class="node">
<title>Node2</title>
<g id="a_Node000002"><a xlink:href="classxeno__rat__client_1_1_node.html#a5e2f1397fe3500c1f49ae17e4b91cde4" target="_top" xlink:title="Asynchronously receives data from the socket and returns the received data as a byte array.">
<polygon fill="white" stroke="#666666" points="335,-170.5 187.75,-170.5 187.75,-140 335,-140 335,-170.5"/>
<text text-anchor="start" x="195.75" y="-157" font-family="Helvetica,sans-Serif" font-size="10.00">xeno_rat_client.Node.Receive</text>
<text text-anchor="middle" x="261.38" y="-145.75" font-family="Helvetica,sans-Serif" font-size="10.00">Async</text>
</a>
</g>
</g>
<!-- Node1&#45;&gt;Node2 -->
<g id="edge1_Node000001_Node000002" class="edge">
<title>Node1&#45;&gt;Node2</title>
<g id="a_edge1_Node000001_Node000002"><a xlink:title=" ">
<path fill="none" stroke="#63b8ff" d="M152.04,-155.25C159.98,-155.25 168.09,-155.25 176.12,-155.25"/>
<polygon fill="#63b8ff" stroke="#63b8ff" points="175.89,-158.75 185.89,-155.25 175.89,-151.75 175.89,-158.75"/>
</a>
</g>
</g>
<!-- Node3 -->
<g id="Node000003" class="node">
<title>Node3</title>
<g id="a_Node000003"><a xlink:href="classxeno__rat__client_1_1_node.html#aed8a6b3de6ee0efa48945c8b1e6c763e" target="_top" xlink:title="Disconnects the current socket and clears the subNodes list, and invokes the OnDisconnect event if it...">
<polygon fill="white" stroke="#666666" points="531.75,-186.88 371,-186.88 371,-167.62 531.75,-167.62 531.75,-186.88"/>
<text text-anchor="middle" x="451.38" y="-173.38" font-family="Helvetica,sans-Serif" font-size="10.00">xeno_rat_client.Node.Disconnect</text>
</a>
</g>
</g>
<!-- Node2&#45;&gt;Node3 -->
<g id="edge2_Node000002_Node000003" class="edge">
<title>Node2&#45;&gt;Node3</title>
<g id="a_edge2_Node000002_Node000003"><a xlink:title=" ">
<path fill="none" stroke="#63b8ff" d="M335.33,-163.79C343.19,-164.71 351.25,-165.65 359.29,-166.59"/>
<polygon fill="#63b8ff" stroke="#63b8ff" points="358.76,-170.05 369.1,-167.74 359.57,-163.1 358.76,-170.05"/>
</a>
</g>
</g>
<!-- Node4 -->
<g id="Node000004" class="node">
<title>Node4</title>
<g id="a_Node000004"><a xlink:href="classxeno__rat__client_1_1_socket_handler.html#ac05e4943d4ffdb6a72fa80e8f4bbede6" target="_top" xlink:title="Asynchronously receives data and performs various operations on it, such as decryption,...">
<polygon fill="white" stroke="#666666" points="527.25,-149.5 375.5,-149.5 375.5,-119 527.25,-119 527.25,-149.5"/>
<text text-anchor="start" x="383.5" y="-136" font-family="Helvetica,sans-Serif" font-size="10.00">xeno_rat_client.SocketHandler.</text>
<text text-anchor="middle" x="451.38" y="-124.75" font-family="Helvetica,sans-Serif" font-size="10.00">ReceiveAsync</text>
</a>
</g>
</g>
<!-- Node2&#45;&gt;Node4 -->
<g id="edge4_Node000002_Node000004" class="edge">
<title>Node2&#45;&gt;Node4</title>
<g id="a_edge4_Node000002_Node000004"><a xlink:title=" ">
<path fill="none" stroke="#63b8ff" d="M335.33,-147.1C344.75,-146.05 354.47,-144.96 364.08,-143.89"/>
<polygon fill="#63b8ff" stroke="#63b8ff" points="364.24,-147.39 373.78,-142.81 363.46,-140.44 364.24,-147.39"/>
</a>
</g>
</g>
<!-- Node3&#45;&gt;Node3 -->
<g id="edge3_Node000003_Node000003" class="edge">
<title>Node3&#45;&gt;Node3</title>
<g id="a_edge3_Node000003_Node000003"><a xlink:title=" ">
<path fill="none" stroke="#63b8ff" d="M421.63,-187.16C408.06,-195.77 417.98,-204.88 451.38,-204.88 470.68,-204.88 482.14,-201.83 485.75,-197.6"/>
<polygon fill="#63b8ff" stroke="#63b8ff" points="488.99,-196.27 481.73,-188.55 482.59,-199.11 488.99,-196.27"/>
</a>
</g>
</g>
<!-- Node5 -->
<g id="Node000005" class="node">
<title>Node5</title>
<g id="a_Node000005"><a xlink:href="classxeno__rat__client_1_1_socket_handler.html#a08263821429a6c263085688a2b716f44" target="_top" xlink:title="Truncates the input byte array from the specified offset and returns the truncated byte array.">
<polygon fill="white" stroke="#666666" points="719.5,-263.5 567.75,-263.5 567.75,-233 719.5,-233 719.5,-263.5"/>
<text text-anchor="start" x="575.75" y="-250" font-family="Helvetica,sans-Serif" font-size="10.00">xeno_rat_client.SocketHandler.</text>
<text text-anchor="middle" x="643.62" y="-238.75" font-family="Helvetica,sans-Serif" font-size="10.00">BTruncate</text>
</a>
</g>
</g>
<!-- Node4&#45;&gt;Node5 -->
<g id="edge5_Node000004_Node000005" class="edge">
<title>Node4&#45;&gt;Node5</title>
<g id="a_edge5_Node000004_Node000005"><a xlink:title=" ">
<path fill="none" stroke="#63b8ff" d="M518.94,-149.95C523.5,-152.34 527.83,-155.08 531.75,-158.25 557.44,-179 542.36,-202.14 567.75,-223.25 569.24,-224.48 570.78,-225.66 572.38,-226.78"/>
<polygon fill="#63b8ff" stroke="#63b8ff" points="570.37,-229.65 580.74,-231.79 573.97,-223.64 570.37,-229.65"/>
</a>
</g>
</g>
<!-- Node6 -->
<g id="Node000006" class="node">
<title>Node6</title>
<g id="a_Node000006"><a xlink:href="classxeno__rat__client_1_1_socket_handler.html#a14771b2d7d9b62c512e15fbd3f7eed2d" target="_top" xlink:title="Converts the specified byte array to an integer.">
<polygon fill="white" stroke="#666666" points="907.25,-122.5 755.5,-122.5 755.5,-92 907.25,-92 907.25,-122.5"/>
<text text-anchor="start" x="763.5" y="-109" font-family="Helvetica,sans-Serif" font-size="10.00">xeno_rat_client.SocketHandler.</text>
<text text-anchor="middle" x="831.38" y="-97.75" font-family="Helvetica,sans-Serif" font-size="10.00">BytesToInt</text>
</a>
</g>
</g>
<!-- Node4&#45;&gt;Node6 -->
<g id="edge6_Node000004_Node000006" class="edge">
<title>Node4&#45;&gt;Node6</title>
<g id="a_edge6_Node000004_Node000006"><a xlink:title=" ">
<path fill="none" stroke="#63b8ff" d="M527.56,-140.81C581.28,-144.1 655.14,-145.8 719.5,-137.25 736.93,-134.93 755.51,-130.65 772.38,-126.04"/>
<polygon fill="#63b8ff" stroke="#63b8ff" points="773.06,-129.48 781.73,-123.38 771.15,-122.75 773.06,-129.48"/>
</a>
</g>
</g>
<!-- Node7 -->
<g id="Node000007" class="node">
<title>Node7</title>
<g id="a_Node000007"><a xlink:href="classxeno__rat__client_1_1_compression.html#a77db1a3658cab9e1ded20775b02584ad" target="_top" xlink:title="Decompresses the input buffer using the LZNT1 compression format and returns the decompressed data.">
<polygon fill="white" stroke="#666666" points="716.5,-214.5 570.75,-214.5 570.75,-184 716.5,-184 716.5,-214.5"/>
<text text-anchor="start" x="578.75" y="-201" font-family="Helvetica,sans-Serif" font-size="10.00">xeno_rat_client.Compression.</text>
<text text-anchor="middle" x="643.62" y="-189.75" font-family="Helvetica,sans-Serif" font-size="10.00">Decompress</text>
</a>
</g>
</g>
<!-- Node4&#45;&gt;Node7 -->
<g id="edge7_Node000004_Node000007" class="edge">
<title>Node4&#45;&gt;Node7</title>
<g id="a_edge7_Node000004_Node000007"><a xlink:title=" ">
<path fill="none" stroke="#63b8ff" d="M505.89,-149.95C514.56,-152.63 523.42,-155.45 531.75,-158.25 551.35,-164.83 572.69,-172.58 591.37,-179.56"/>
<polygon fill="#63b8ff" stroke="#63b8ff" points="590.02,-182.79 600.61,-183.03 592.48,-176.24 590.02,-182.79"/>
</a>
</g>
</g>
<!-- Node9 -->
<g id="Node000009" class="node">
<title>Node9</title>
<g id="a_Node000009"><a xlink:href="classxeno__rat__client_1_1_encryption.html#ae86cb9fa23f767be0a3c99e369ecbd30" target="_top" xlink:title="Decrypts the input data using the provided key and returns the decrypted result.">
<polygon fill="white" stroke="#666666" points="710.88,-128.5 576.38,-128.5 576.38,-98 710.88,-98 710.88,-128.5"/>
<text text-anchor="start" x="584.38" y="-115" font-family="Helvetica,sans-Serif" font-size="10.00">xeno_rat_client.Encryption.</text>
<text text-anchor="middle" x="643.62" y="-103.75" font-family="Helvetica,sans-Serif" font-size="10.00">Decrypt</text>
</a>
</g>
</g>
<!-- Node4&#45;&gt;Node9 -->
<g id="edge9_Node000004_Node000009" class="edge">
<title>Node4&#45;&gt;Node9</title>
<g id="a_edge9_Node000004_Node000009"><a xlink:title=" ">
<path fill="none" stroke="#63b8ff" d="M527.57,-125.95C539.81,-124.6 552.52,-123.2 564.83,-121.84"/>
<polygon fill="#63b8ff" stroke="#63b8ff" points="564.93,-125.35 574.49,-120.77 564.16,-118.39 564.93,-125.35"/>
</a>
</g>
</g>
<!-- Node10 -->
<g id="Node000010" class="node">
<title>Node10</title>
<g id="a_Node000010"><a xlink:href="classxeno__rat__client_1_1_socket_handler.html#a77529cf89708fc6f487cd2aaac7e9bac" target="_top" xlink:title="Parses the header from the given byte array and returns the header information.">
<polygon fill="white" stroke="#666666" points="719.5,-79.5 567.75,-79.5 567.75,-49 719.5,-49 719.5,-79.5"/>
<text text-anchor="start" x="575.75" y="-66" font-family="Helvetica,sans-Serif" font-size="10.00">xeno_rat_client.SocketHandler.</text>
<text text-anchor="middle" x="643.62" y="-54.75" font-family="Helvetica,sans-Serif" font-size="10.00">ParseHeader</text>
</a>
</g>
</g>
<!-- Node4&#45;&gt;Node10 -->
<g id="edge10_Node000004_Node000010" class="edge">
<title>Node4&#45;&gt;Node10</title>
<g id="a_edge10_Node000004_Node000010"><a xlink:title=" ">
<path fill="none" stroke="#63b8ff" d="M491.18,-118.56C513.48,-109.69 542.07,-98.54 567.75,-89.25 573.01,-87.35 578.5,-85.41 584.01,-83.51"/>
<polygon fill="#63b8ff" stroke="#63b8ff" points="584.81,-86.94 593.14,-80.39 582.54,-80.31 584.81,-86.94"/>
</a>
</g>
</g>
<!-- Node11 -->
<g id="Node000011" class="node">
<title>Node11</title>
<g id="a_Node000011"><a xlink:href="classxeno__rat__client_1_1_socket_handler.html#a8be64178ac717030dea4dbcea7937a83" target="_top" xlink:title="Asynchronously receives all the data of the specified size from the connected socket and returns it a...">
<polygon fill="white" stroke="#666666" points="719.5,-30.5 567.75,-30.5 567.75,0 719.5,0 719.5,-30.5"/>
<text text-anchor="start" x="575.75" y="-17" font-family="Helvetica,sans-Serif" font-size="10.00">xeno_rat_client.SocketHandler.</text>
<text text-anchor="middle" x="643.62" y="-5.75" font-family="Helvetica,sans-Serif" font-size="10.00">RecvAllAsync_ddos_unsafer</text>
</a>
</g>
</g>
<!-- Node4&#45;&gt;Node11 -->
<g id="edge12_Node000004_Node000011" class="edge">
<title>Node4&#45;&gt;Node11</title>
<g id="a_edge12_Node000004_Node000011"><a xlink:title=" ">
<path fill="none" stroke="#63b8ff" d="M467.82,-118.52C488.77,-97.97 528.13,-62.04 567.75,-40.25 570.93,-38.5 574.26,-36.84 577.66,-35.28"/>
<polygon fill="#63b8ff" stroke="#63b8ff" points="578.82,-38.59 586.66,-31.47 576.09,-32.15 578.82,-38.59"/>
</a>
</g>
</g>
<!-- Node8 -->
<g id="Node000008" class="node">
<title>Node8</title>
<g id="a_Node000008"><a xlink:href="classxeno__rat__client_1_1_compression.html#a9fe0a6ed3a221d799c7e1a7ba004d5fd" target="_top" xlink:title="Decompresses a buffer using the specified compression format and returns the decompressed data.">
<polygon fill="white" stroke="#666666" points="904.25,-214.5 758.5,-214.5 758.5,-184 904.25,-184 904.25,-214.5"/>
<text text-anchor="start" x="766.5" y="-201" font-family="Helvetica,sans-Serif" font-size="10.00">xeno_rat_client.Compression.</text>
<text text-anchor="middle" x="831.38" y="-189.75" font-family="Helvetica,sans-Serif" font-size="10.00">RtlDecompressBuffer</text>
</a>
</g>
</g>
<!-- Node7&#45;&gt;Node8 -->
<g id="edge8_Node000007_Node000008" class="edge">
<title>Node7&#45;&gt;Node8</title>
<g id="a_edge8_Node000007_Node000008"><a xlink:title=" ">
<path fill="none" stroke="#63b8ff" d="M716.97,-199.25C726.82,-199.25 736.98,-199.25 747,-199.25"/>
<polygon fill="#63b8ff" stroke="#63b8ff" points="746.71,-202.75 756.71,-199.25 746.71,-195.75 746.71,-202.75"/>
</a>
</g>
</g>
<!-- Node10&#45;&gt;Node6 -->
<g id="edge11_Node000010_Node000006" class="edge">
<title>Node10&#45;&gt;Node6</title>
<g id="a_edge11_Node000010_Node000006"><a xlink:title=" ">
<path fill="none" stroke="#63b8ff" d="M712.47,-79.96C725.06,-82.87 738.31,-85.94 751.19,-88.92"/>
<polygon fill="#63b8ff" stroke="#63b8ff" points="750.39,-92.33 760.93,-91.17 751.97,-85.51 750.39,-92.33"/>
</a>
</g>
</g>
</g>
</svg>

<g id="navigator" transform="translate(0 0)" fill="#404254">
  <rect fill="#f2f5e9" fill-opacity="0.5" stroke="#606060" stroke-width=".5" x="0" y="0" width="60" height="60"/>
  <use id="zoomplus" xlink:href="#zoomPlus" x="17" y="9" onmousedown="handleZoom(evt,'in')"/>
  <use id="zoomminus" xlink:href="#zoomMin" x="42" y="9" onmousedown="handleZoom(evt,'out')"/>
  <use id="reset" xlink:href="#resetDef" x="30" y="36" onmousedown="handleReset()"/>
   <use id="arrowup" xlink:href="#arrowUp" x="0" y="0" onmousedown="handlePan(0,-1)"/>
  <use id="arrowright" xlink:href="#arrowRight" x="0" y="0" onmousedown="handlePan(1,0)"/>
  <use id="arrowdown" xlink:href="#arrowDown" x="0" y="0" onmousedown="handlePan(0,1)"/>
  <use id="arrowleft" xlink:href="#arrowLeft" x="0" y="0" onmousedown="handlePan(-1,0)"/>
</g>
<svg viewBox="0 0 15 15" width="100%" height="30px" preserveAspectRatio="xMaxYMin meet">
 <g id="arrow_out" transform="scale(0.3 0.3)">
  <a xlink:href="class_plugin_1_1_main_a77e32ee26efec350dcd99f36a14a929a_cgraph_org.svg" target="_base">
   <rect id="button" ry="5" rx="5" y="6" x="6" height="38" width="38"
        fill="#f2f5e9" fill-opacity="0.5" stroke="#606060" stroke-width="1.0"/>
   <path id="arrow"
     d="M 11.500037,31.436501 C 11.940474,20.09759 22.043105,11.32322 32.158766,21.979434 L 37.068811,17.246167 C 37.068811,17.246167 37.088388,32 37.088388,32 L 22.160133,31.978069 C 22.160133,31.978069 26.997745,27.140456 26.997745,27.140456 C 18.528582,18.264221 13.291696,25.230495 11.500037,31.436501 z"
     style="fill:#404040;"/>
  </a>
 </g>
</svg>

<style type='text/css'>
<![CDATA[
[data-mouse-over-selected='false'] { opacity: 0.7; }
[data-mouse-over-selected='true']  { opacity: 1.0; }
]]>
</style>
<script type="application/ecmascript"><![CDATA[
document.addEventListener('DOMContentLoaded', (event) => {
  highlightEdges();
  highlightAdjacentNodes();
});
]]></script>
</svg>
