<?xml version="1.0" encoding="UTF-8" standalone="no"?>
<!DOCTYPE svg PUBLIC "-//W3C//DTD SVG 1.1//EN"
 "http://www.w3.org/Graphics/SVG/1.1/DTD/svg11.dtd">
<!-- Generated by graphviz version 10.0.1 (20240210.2158)
 -->
<!-- Title: xeno_rat_server.Forms.Hvnc.button7_Click Pages: 1 -->
<svg width="1138pt" height="260pt"
 viewBox="0.00 0.00 1137.50 259.50" xmlns="http://www.w3.org/2000/svg" xmlns:xlink="http://www.w3.org/1999/xlink">
<g id="graph0" class="graph" transform="scale(1 1) rotate(0) translate(4 255.5)">
<title>xeno_rat_server.Forms.Hvnc.button7_Click</title>
<!-- Node1 -->
<g id="Node000001" class="node">
<title>Node1</title>
<g id="a_Node000001"><a xlink:title="Starts a new instance of Firefox browser and displays a message if the browser profile data is being ...">
<polygon fill="#999999" stroke="#666666" points="177.25,-124.5 0,-124.5 0,-94 177.25,-94 177.25,-124.5"/>
<text text-anchor="start" x="8" y="-111" font-family="Helvetica,sans-Serif" font-size="10.00">xeno_rat_server.Forms.Hvnc.button7</text>
<text text-anchor="middle" x="88.62" y="-99.75" font-family="Helvetica,sans-Serif" font-size="10.00">_Click</text>
</a>
</g>
</g>
<!-- Node2 -->
<g id="Node000002" class="node">
<title>Node2</title>
<g id="a_Node000002"><a xlink:href="classxeno__rat__server_1_1_forms_1_1_hvnc.html#a5c06b3b57fd7bb580199dcd336efe5b9" target="_top" xlink:title="Starts the Firefox application asynchronously.">
<polygon fill="white" stroke="#666666" points="358.25,-124.5 213.25,-124.5 213.25,-94 358.25,-94 358.25,-124.5"/>
<text text-anchor="start" x="221.25" y="-111" font-family="Helvetica,sans-Serif" font-size="10.00">xeno_rat_server.Forms.Hvnc.</text>
<text text-anchor="middle" x="285.75" y="-99.75" font-family="Helvetica,sans-Serif" font-size="10.00">StartFirefox</text>
</a>
</g>
</g>
<!-- Node1&#45;&gt;Node2 -->
<g id="edge1_Node000001_Node000002" class="edge">
<title>Node1&#45;&gt;Node2</title>
<g id="a_edge1_Node000001_Node000002"><a xlink:title=" ">
<path fill="none" stroke="#63b8ff" d="M177.48,-109.25C185.44,-109.25 193.47,-109.25 201.39,-109.25"/>
<polygon fill="#63b8ff" stroke="#63b8ff" points="201.35,-112.75 211.35,-109.25 201.35,-105.75 201.35,-112.75"/>
</a>
</g>
</g>
<!-- Node3 -->
<g id="Node000003" class="node">
<title>Node3</title>
<g id="a_Node000003"><a xlink:href="classxeno__rat__server_1_1_node.html#a816e267eb31862d38c21e5faaae3061d" target="_top" xlink:title="Sends the provided data asynchronously and returns a boolean indicating the success of the operation.">
<polygon fill="white" stroke="#666666" points="531,-124.5 394.25,-124.5 394.25,-94 531,-94 531,-124.5"/>
<text text-anchor="start" x="402.25" y="-111" font-family="Helvetica,sans-Serif" font-size="10.00">xeno_rat_server.Node.Send</text>
<text text-anchor="middle" x="462.62" y="-99.75" font-family="Helvetica,sans-Serif" font-size="10.00">Async</text>
</a>
</g>
</g>
<!-- Node2&#45;&gt;Node3 -->
<g id="edge2_Node000002_Node000003" class="edge">
<title>Node2&#45;&gt;Node3</title>
<g id="a_edge2_Node000002_Node000003"><a xlink:title=" ">
<path fill="none" stroke="#63b8ff" d="M358.64,-109.25C366.58,-109.25 374.69,-109.25 382.71,-109.25"/>
<polygon fill="#63b8ff" stroke="#63b8ff" points="382.44,-112.75 392.44,-109.25 382.44,-105.75 382.44,-112.75"/>
</a>
</g>
</g>
<!-- Node4 -->
<g id="Node000004" class="node">
<title>Node4</title>
<g id="a_Node000004"><a xlink:href="classxeno__rat__server_1_1_node.html#a8814edd98b6463f49812be32d5928763" target="_top" xlink:title="Sets the isDisposed flag to true and disconnects the socket, disposes resources, and triggers the OnD...">
<polygon fill="white" stroke="#666666" points="730.75,-140.88 567,-140.88 567,-121.62 730.75,-121.62 730.75,-140.88"/>
<text text-anchor="middle" x="648.88" y="-127.38" font-family="Helvetica,sans-Serif" font-size="10.00">xeno_rat_server.Node.Disconnect</text>
</a>
</g>
</g>
<!-- Node3&#45;&gt;Node4 -->
<g id="edge3_Node000003_Node000004" class="edge">
<title>Node3&#45;&gt;Node4</title>
<g id="a_edge3_Node000003_Node000004"><a xlink:title=" ">
<path fill="none" stroke="#63b8ff" d="M531.45,-117.35C539.26,-118.28 547.32,-119.24 555.39,-120.21"/>
<polygon fill="#63b8ff" stroke="#63b8ff" points="554.92,-123.68 565.26,-121.39 555.75,-116.73 554.92,-123.68"/>
</a>
</g>
</g>
<!-- Node5 -->
<g id="Node000005" class="node">
<title>Node5</title>
<g id="a_Node000005"><a xlink:href="classxeno__rat__server_1_1_socket_handler.html#a85ca8385d023521cdb86ff8ae688adee" target="_top" xlink:title="Sends the provided data asynchronously over the socket.">
<polygon fill="white" stroke="#666666" points="726.25,-103.5 571.5,-103.5 571.5,-73 726.25,-73 726.25,-103.5"/>
<text text-anchor="start" x="579.5" y="-90" font-family="Helvetica,sans-Serif" font-size="10.00">xeno_rat_server.SocketHandler.</text>
<text text-anchor="middle" x="648.88" y="-78.75" font-family="Helvetica,sans-Serif" font-size="10.00">SendAsync</text>
</a>
</g>
</g>
<!-- Node3&#45;&gt;Node5 -->
<g id="edge5_Node000003_Node000005" class="edge">
<title>Node3&#45;&gt;Node5</title>
<g id="a_edge5_Node000003_Node000005"><a xlink:title=" ">
<path fill="none" stroke="#63b8ff" d="M531.45,-101.52C540.74,-100.46 550.39,-99.36 559.97,-98.27"/>
<polygon fill="#63b8ff" stroke="#63b8ff" points="560.13,-101.77 569.67,-97.16 559.34,-94.82 560.13,-101.77"/>
</a>
</g>
</g>
<!-- Node4&#45;&gt;Node4 -->
<g id="edge4_Node000004_Node000004" class="edge">
<title>Node4&#45;&gt;Node4</title>
<g id="a_edge4_Node000004_Node000004"><a xlink:title=" ">
<path fill="none" stroke="#63b8ff" d="M619.72,-141.16C606.42,-149.77 616.14,-158.88 648.88,-158.88 667.8,-158.88 679.04,-155.83 682.58,-151.6"/>
<polygon fill="#63b8ff" stroke="#63b8ff" points="685.84,-150.32 678.64,-142.55 679.42,-153.12 685.84,-150.32"/>
</a>
</g>
</g>
<!-- Node6 -->
<g id="Node000006" class="node">
<title>Node6</title>
<g id="a_Node000006"><a xlink:href="classxeno__rat__server_1_1_compression.html#a0f3f31a2fe34d92bf04538b2fdf529e0" target="_top" xlink:title="Compresses the input buffer using the LZNT1 compression format and returns the compressed data.">
<polygon fill="white" stroke="#666666" points="918.5,-177.5 769.75,-177.5 769.75,-147 918.5,-147 918.5,-177.5"/>
<text text-anchor="start" x="777.75" y="-164" font-family="Helvetica,sans-Serif" font-size="10.00">xeno_rat_server.Compression.</text>
<text text-anchor="middle" x="844.12" y="-152.75" font-family="Helvetica,sans-Serif" font-size="10.00">Compress</text>
</a>
</g>
</g>
<!-- Node5&#45;&gt;Node6 -->
<g id="edge6_Node000005_Node000006" class="edge">
<title>Node5&#45;&gt;Node6</title>
<g id="a_edge6_Node000005_Node000006"><a xlink:title=" ">
<path fill="none" stroke="#63b8ff" d="M710.31,-103.85C717.33,-106.35 724.28,-109.14 730.75,-112.25 748.31,-120.68 749.31,-128.57 766.75,-137.25 770.4,-139.07 774.21,-140.79 778.1,-142.43"/>
<polygon fill="#63b8ff" stroke="#63b8ff" points="776.52,-145.57 787.11,-145.98 779.09,-139.06 776.52,-145.57"/>
</a>
</g>
</g>
<!-- Node11 -->
<g id="Node000011" class="node">
<title>Node11</title>
<g id="a_Node000011"><a xlink:href="classxeno__rat__server_1_1_socket_handler.html#a4f2e993b63cf1bba877781c9be2ed496" target="_top" xlink:title="Concatenates two byte arrays and returns the result.">
<polygon fill="white" stroke="#666666" points="921.5,-128.5 766.75,-128.5 766.75,-98 921.5,-98 921.5,-128.5"/>
<text text-anchor="start" x="774.75" y="-115" font-family="Helvetica,sans-Serif" font-size="10.00">xeno_rat_server.SocketHandler.</text>
<text text-anchor="middle" x="844.12" y="-103.75" font-family="Helvetica,sans-Serif" font-size="10.00">Concat</text>
</a>
</g>
</g>
<!-- Node5&#45;&gt;Node11 -->
<g id="edge11_Node000005_Node000011" class="edge">
<title>Node5&#45;&gt;Node11</title>
<g id="a_edge11_Node000005_Node000011"><a xlink:title=" ">
<path fill="none" stroke="#63b8ff" d="M726.53,-98.17C736,-99.39 745.73,-100.65 755.35,-101.89"/>
<polygon fill="#63b8ff" stroke="#63b8ff" points="754.7,-105.34 765.06,-103.15 755.59,-98.4 754.7,-105.34"/>
</a>
</g>
</g>
<!-- Node12 -->
<g id="Node000012" class="node">
<title>Node12</title>
<g id="a_Node000012"><a xlink:href="classxeno__rat__server_1_1_encryption.html#a0fafecaba804cb57663bdbb4dcc4e93f" target="_top" xlink:title="Encrypts the input data using the provided key and returns the encrypted result.">
<polygon fill="white" stroke="#666666" points="912.88,-79.5 775.38,-79.5 775.38,-49 912.88,-49 912.88,-79.5"/>
<text text-anchor="start" x="783.38" y="-66" font-family="Helvetica,sans-Serif" font-size="10.00">xeno_rat_server.Encryption.</text>
<text text-anchor="middle" x="844.12" y="-54.75" font-family="Helvetica,sans-Serif" font-size="10.00">Encrypt</text>
</a>
</g>
</g>
<!-- Node5&#45;&gt;Node12 -->
<g id="edge12_Node000005_Node000012" class="edge">
<title>Node5&#45;&gt;Node12</title>
<g id="a_edge12_Node000005_Node000012"><a xlink:title=" ">
<path fill="none" stroke="#63b8ff" d="M726.53,-78.73C738.79,-77.21 751.51,-75.63 763.83,-74.1"/>
<polygon fill="#63b8ff" stroke="#63b8ff" points="764.02,-77.6 773.51,-72.9 763.16,-70.65 764.02,-77.6"/>
</a>
</g>
</g>
<!-- Node13 -->
<g id="Node000013" class="node">
<title>Node13</title>
<g id="a_Node000013"><a xlink:href="classxeno__rat__server_1_1_socket_handler.html#a7d019c5e4cbd0138d155156c7a7c5a8f" target="_top" xlink:title="Converts an integer to a byte array.">
<polygon fill="white" stroke="#666666" points="921.5,-30.5 766.75,-30.5 766.75,0 921.5,0 921.5,-30.5"/>
<text text-anchor="start" x="774.75" y="-17" font-family="Helvetica,sans-Serif" font-size="10.00">xeno_rat_server.SocketHandler.</text>
<text text-anchor="middle" x="844.12" y="-5.75" font-family="Helvetica,sans-Serif" font-size="10.00">IntToBytes</text>
</a>
</g>
</g>
<!-- Node5&#45;&gt;Node13 -->
<g id="edge13_Node000005_Node000013" class="edge">
<title>Node5&#45;&gt;Node13</title>
<g id="a_edge13_Node000005_Node000013"><a xlink:title=" ">
<path fill="none" stroke="#63b8ff" d="M686.19,-72.53C709.13,-62.8 739.48,-50.3 766.75,-40.25 771.8,-38.39 777.07,-36.52 782.37,-34.69"/>
<polygon fill="#63b8ff" stroke="#63b8ff" points="783.46,-38.02 791.8,-31.48 781.2,-31.39 783.46,-38.02"/>
</a>
</g>
</g>
<!-- Node7 -->
<g id="Node000007" class="node">
<title>Node7</title>
<g id="a_Node000007"><a xlink:href="classxeno__rat__server_1_1_compression.html#ae86c8cb19fb340173e6b06816907c485" target="_top" xlink:title="Allocates the specified number of bytes in the local heap and returns a pointer to the allocated memo...">
<polygon fill="white" stroke="#666666" points="1117.88,-251.5 969.12,-251.5 969.12,-221 1117.88,-221 1117.88,-251.5"/>
<text text-anchor="start" x="977.12" y="-238" font-family="Helvetica,sans-Serif" font-size="10.00">xeno_rat_server.Compression.</text>
<text text-anchor="middle" x="1043.5" y="-226.75" font-family="Helvetica,sans-Serif" font-size="10.00">LocalAlloc</text>
</a>
</g>
</g>
<!-- Node6&#45;&gt;Node7 -->
<g id="edge7_Node000006_Node000007" class="edge">
<title>Node6&#45;&gt;Node7</title>
<g id="a_edge7_Node000006_Node000007"><a xlink:title=" ">
<path fill="none" stroke="#63b8ff" d="M878.12,-177.94C900.28,-188.15 930.3,-201.36 957.5,-211.25 963.1,-213.29 968.96,-215.28 974.86,-217.19"/>
<polygon fill="#63b8ff" stroke="#63b8ff" points="973.45,-220.42 984.04,-220.1 975.56,-213.75 973.45,-220.42"/>
</a>
</g>
</g>
<!-- Node8 -->
<g id="Node000008" class="node">
<title>Node8</title>
<g id="a_Node000008"><a xlink:href="classxeno__rat__server_1_1_compression.html#ab527e0a594d96bbaa1a4b1541888aa74" target="_top" xlink:title="Frees the memory block allocated by LocalAlloc and LocalReAlloc and invalidates the handle.">
<polygon fill="white" stroke="#666666" points="1117.88,-202.5 969.12,-202.5 969.12,-172 1117.88,-172 1117.88,-202.5"/>
<text text-anchor="start" x="977.12" y="-189" font-family="Helvetica,sans-Serif" font-size="10.00">xeno_rat_server.Compression.</text>
<text text-anchor="middle" x="1043.5" y="-177.75" font-family="Helvetica,sans-Serif" font-size="10.00">LocalFree</text>
</a>
</g>
</g>
<!-- Node6&#45;&gt;Node8 -->
<g id="edge8_Node000006_Node000008" class="edge">
<title>Node6&#45;&gt;Node8</title>
<g id="a_edge8_Node000006_Node000008"><a xlink:title=" ">
<path fill="none" stroke="#63b8ff" d="M918.9,-171.59C931.52,-173.19 944.72,-174.86 957.6,-176.5"/>
<polygon fill="#63b8ff" stroke="#63b8ff" points="956.95,-179.94 967.31,-177.73 957.83,-173 956.95,-179.94"/>
</a>
</g>
</g>
<!-- Node9 -->
<g id="Node000009" class="node">
<title>Node9</title>
<g id="a_Node000009"><a xlink:href="classxeno__rat__server_1_1_compression.html#a1f9bb20d96d13bdc4d0f90e2b68d4343" target="_top" xlink:title="Compresses the input buffer using the specified compression format and returns the compressed data in...">
<polygon fill="white" stroke="#666666" points="1117.88,-153.5 969.12,-153.5 969.12,-123 1117.88,-123 1117.88,-153.5"/>
<text text-anchor="start" x="977.12" y="-140" font-family="Helvetica,sans-Serif" font-size="10.00">xeno_rat_server.Compression.</text>
<text text-anchor="middle" x="1043.5" y="-128.75" font-family="Helvetica,sans-Serif" font-size="10.00">RtlCompressBuffer</text>
</a>
</g>
</g>
<!-- Node6&#45;&gt;Node9 -->
<g id="edge9_Node000006_Node000009" class="edge">
<title>Node6&#45;&gt;Node9</title>
<g id="a_edge9_Node000006_Node000009"><a xlink:title=" ">
<path fill="none" stroke="#63b8ff" d="M918.9,-153.28C931.52,-151.74 944.72,-150.14 957.6,-148.57"/>
<polygon fill="#63b8ff" stroke="#63b8ff" points="957.81,-152.07 967.31,-147.39 956.96,-145.13 957.81,-152.07"/>
</a>
</g>
</g>
<!-- Node10 -->
<g id="Node000010" class="node">
<title>Node10</title>
<g id="a_Node000010"><a xlink:href="classxeno__rat__server_1_1_compression.html#a5ca090d7b0887e40753bad9800c321e7" target="_top" xlink:title="Retrieves the size of the workspace required for compression.">
<polygon fill="white" stroke="#666666" points="1129.5,-104.5 957.5,-104.5 957.5,-74 1129.5,-74 1129.5,-104.5"/>
<text text-anchor="start" x="965.5" y="-91" font-family="Helvetica,sans-Serif" font-size="10.00">xeno_rat_server.Compression.</text>
<text text-anchor="middle" x="1043.5" y="-79.75" font-family="Helvetica,sans-Serif" font-size="10.00">RtlGetCompressionWorkSpaceSize</text>
</a>
</g>
</g>
<!-- Node6&#45;&gt;Node10 -->
<g id="edge10_Node000006_Node000010" class="edge">
<title>Node6&#45;&gt;Node10</title>
<g id="a_edge10_Node000006_Node000010"><a xlink:title=" ">
<path fill="none" stroke="#63b8ff" d="M898.8,-146.59C906.54,-143.78 914.31,-140.65 921.5,-137.25 938.66,-129.12 940.22,-122.12 957.5,-114.25 961.75,-112.31 966.19,-110.49 970.72,-108.77"/>
<polygon fill="#63b8ff" stroke="#63b8ff" points="971.71,-112.13 979.95,-105.46 969.35,-105.54 971.71,-112.13"/>
</a>
</g>
</g>
</g>
</svg>
