<?xml version="1.0" encoding="UTF-8" standalone="no"?>
<!DOCTYPE svg PUBLIC "-//W3C//DTD SVG 1.1//EN"
 "http://www.w3.org/Graphics/SVG/1.1/DTD/svg11.dtd">
<!-- Generated by graphviz version 10.0.1 (20240210.2158)
 -->
<!-- Title: NAudio.Wave.WaveFileReader Pages: 1 -->
<!--zoomable 790 -->

<svg id="main" version="1.1" xmlns="http://www.w3.org/2000/svg" xmlns:xlink="http://www.w3.org/1999/xlink" xml:space="preserve" onload="init(evt)">
<style type="text/css"><![CDATA[
.node, .edge {opacity: 0.7;}
.node.selected, .edge.selected {opacity: 1;}
.edge:hover path { stroke: red; }
.edge:hover polygon { stroke: red; fill: red; }
]]></style>

<defs>
  <circle id="rim" cx="0" cy="0" r="7"/>
  <circle id="rim2" cx="0" cy="0" r="3.5"/>
  <g id="zoomPlus">
    <use xlink:href="#rim" fill="#404040"><set attributeName="fill" to="#808080" begin="zoomplus.mouseover" end="zoomplus.mouseout"/></use>
    <path d="M-4,0h8M0,-4v8" fill="none" stroke="white" stroke-width="1.5" pointer-events="none"/>
  </g>
  <g id="zoomMin">
    <use xlink:href="#rim" fill="#404040"><set attributeName="fill" to="#808080" begin="zoomminus.mouseover" end="zoomminus.mouseout"/></use>
    <path d="M-4,0h8" fill="none" stroke="white" stroke-width="1.5" pointer-events="none"/>
  </g>
  <g id="arrowUp" transform="translate(30 24)">
    <use xlink:href="#rim"/>
    <path pointer-events="none" fill="none" stroke="white" stroke-width="1.5" d="M0,-3.0v7 M-2.5,-0.5L0,-3.0L2.5,-0.5"/>
  </g>
  <g id="arrowRight" transform="rotate(90) translate(36 -43)">
    <use xlink:href="#rim"/>
    <path pointer-events="none" fill="none" stroke="white" stroke-width="1.5" d="M0,-3.0v7 M-2.5,-0.5L0,-3.0L2.5,-0.5"/>
  </g>
  <g id="arrowDown" transform="rotate(180) translate(-30 -48)">
    <use xlink:href="#rim"/>
    <path pointer-events="none" fill="none" stroke="white" stroke-width="1.5" d="M0,-3.0v7 M-2.5,-0.5L0,-3.0L2.5,-0.5"/>
  </g>
  <g id="arrowLeft" transform="rotate(270) translate(-36 17)">
    <use xlink:href="#rim"/>
    <path pointer-events="none" fill="none" stroke="white" stroke-width="1.5" d="M0,-3.0v7 M-2.5,-0.5L0,-3.0L2.5,-0.5"/>
  </g>
  <g id="resetDef">
    <use xlink:href="#rim2" fill="#404040"><set attributeName="fill" to="#808080" begin="reset.mouseover" end="reset.mouseout"/></use>
  </g>
</defs>
<script type="application/ecmascript">
var viewWidth = 574;
var viewHeight = 790;
var sectionId = 'dynsection-1';
</script>
<script type="application/ecmascript" xlink:href="svg.min.js"/>
<svg id="graph" class="graph">
<g id="viewport">
<title>NAudio.Wave.WaveFileReader</title>
<!-- Node1 -->
<g id="Node000001" class="node">
<title>Node1</title>
<g id="a_Node000001"><a xlink:title="This class supports the reading of WAV files, providing a repositionable WaveStream that returns the ...">
<polygon fill="#999999" stroke="none" points="394.72,-214 249.72,-214 249.72,0 394.72,0 394.72,-214"/>
<text text-anchor="start" x="254.72" y="-200.5" font-family="Helvetica,sans-Serif" font-size="10.00">NAudio.Wave.WaveFileReader</text>
<text text-anchor="start" x="257.72" y="-185.5" font-family="Helvetica,sans-Serif" font-size="10.00">+</text>
<text text-anchor="start" x="271.72" y="-185.5" font-family="Helvetica,sans-Serif" font-size="10.00">ExtraChunks</text>
<text text-anchor="start" x="257.72" y="-170.5" font-family="Helvetica,sans-Serif" font-size="10.00">+</text>
<text text-anchor="start" x="271.72" y="-170.5" font-family="Helvetica,sans-Serif" font-size="10.00">WaveFormat</text>
<text text-anchor="start" x="257.72" y="-155.5" font-family="Helvetica,sans-Serif" font-size="10.00">+</text>
<text text-anchor="start" x="271.72" y="-155.5" font-family="Helvetica,sans-Serif" font-size="10.00">Length</text>
<text text-anchor="start" x="257.72" y="-140.5" font-family="Helvetica,sans-Serif" font-size="10.00">+</text>
<text text-anchor="start" x="271.72" y="-140.5" font-family="Helvetica,sans-Serif" font-size="10.00">SampleCount</text>
<text text-anchor="start" x="257.72" y="-125.5" font-family="Helvetica,sans-Serif" font-size="10.00">+</text>
<text text-anchor="start" x="271.72" y="-125.5" font-family="Helvetica,sans-Serif" font-size="10.00">Position</text>
<text text-anchor="start" x="257.72" y="-110.5" font-family="Helvetica,sans-Serif" font-size="10.00">+</text>
<text text-anchor="start" x="271.72" y="-110.5" font-family="Helvetica,sans-Serif" font-size="10.00">WaveFileReader()</text>
<text text-anchor="start" x="257.72" y="-95.5" font-family="Helvetica,sans-Serif" font-size="10.00">+</text>
<text text-anchor="start" x="271.72" y="-95.5" font-family="Helvetica,sans-Serif" font-size="10.00">WaveFileReader()</text>
<text text-anchor="start" x="257.72" y="-80.5" font-family="Helvetica,sans-Serif" font-size="10.00">+</text>
<text text-anchor="start" x="271.72" y="-80.5" font-family="Helvetica,sans-Serif" font-size="10.00">GetChunkData()</text>
<text text-anchor="start" x="257.72" y="-65.5" font-family="Helvetica,sans-Serif" font-size="10.00">+</text>
<text text-anchor="start" x="271.72" y="-65.5" font-family="Helvetica,sans-Serif" font-size="10.00">Read()</text>
<text text-anchor="start" x="257.72" y="-50.5" font-family="Helvetica,sans-Serif" font-size="10.00">+</text>
<text text-anchor="start" x="271.72" y="-50.5" font-family="Helvetica,sans-Serif" font-size="10.00">ReadNextSampleFrame()</text>
<text text-anchor="start" x="257.72" y="-35.5" font-family="Helvetica,sans-Serif" font-size="10.00">+</text>
<text text-anchor="start" x="271.72" y="-35.5" font-family="Helvetica,sans-Serif" font-size="10.00">TryReadFloat()</text>
<text text-anchor="start" x="258.09" y="-20.5" font-family="Helvetica,sans-Serif" font-size="10.00">#</text>
<text text-anchor="start" x="271.72" y="-20.5" font-family="Helvetica,sans-Serif" font-size="10.00">Dispose()</text>
<text text-anchor="start" x="259.22" y="-5.5" font-family="Helvetica,sans-Serif" font-size="10.00">&#45;</text>
<text text-anchor="start" x="271.72" y="-5.5" font-family="Helvetica,sans-Serif" font-size="10.00">WaveFileReader()</text>
<polygon fill="#666666" stroke="#666666" points="249.72,-197 249.72,-197 394.72,-197 394.72,-197 249.72,-197"/>
<polygon fill="#666666" stroke="#666666" points="249.72,-122 249.72,-122 269.72,-122 269.72,-122 249.72,-122"/>
<polygon fill="#666666" stroke="#666666" points="269.72,-122 269.72,-122 394.72,-122 394.72,-122 269.72,-122"/>
<polygon fill="none" stroke="#666666" points="249.72,0 249.72,-214 394.72,-214 394.72,0 249.72,0"/>
</a>
</g>
</g>
<!-- Node2 -->
<g id="Node000002" class="node">
<title>Node2</title>
<g id="a_Node000002"><a xlink:href="class_n_audio_1_1_wave_1_1_wave_stream.html" target="_top" xlink:title="Base class for all WaveStream classes. Derives from stream.">
<polygon fill="white" stroke="none" points="187.72,-569 114.72,-569 114.72,-355 187.72,-355 187.72,-569"/>
<text text-anchor="start" x="123.09" y="-555.5" font-family="Helvetica,sans-Serif" font-size="10.00">WaveStream</text>
<text text-anchor="start" x="118.72" y="-540.5" font-family="Helvetica,sans-Serif" font-size="10.00">+</text>
<text text-anchor="start" x="128.72" y="-540.5" font-family="Helvetica,sans-Serif" font-size="10.00">WaveFormat</text>
<text text-anchor="start" x="118.72" y="-525.5" font-family="Helvetica,sans-Serif" font-size="10.00">+</text>
<text text-anchor="start" x="128.72" y="-525.5" font-family="Helvetica,sans-Serif" font-size="10.00">CanRead</text>
<text text-anchor="start" x="118.72" y="-510.5" font-family="Helvetica,sans-Serif" font-size="10.00">+</text>
<text text-anchor="start" x="128.72" y="-510.5" font-family="Helvetica,sans-Serif" font-size="10.00">CanSeek</text>
<text text-anchor="start" x="118.72" y="-495.5" font-family="Helvetica,sans-Serif" font-size="10.00">+</text>
<text text-anchor="start" x="128.72" y="-495.5" font-family="Helvetica,sans-Serif" font-size="10.00">CanWrite</text>
<text text-anchor="start" x="118.72" y="-480.5" font-family="Helvetica,sans-Serif" font-size="10.00">+</text>
<text text-anchor="start" x="128.72" y="-480.5" font-family="Helvetica,sans-Serif" font-size="10.00">BlockAlign</text>
<text text-anchor="start" x="118.72" y="-465.5" font-family="Helvetica,sans-Serif" font-size="10.00">+</text>
<text text-anchor="start" x="128.72" y="-465.5" font-family="Helvetica,sans-Serif" font-size="10.00">CurrentTime</text>
<text text-anchor="start" x="118.72" y="-450.5" font-family="Helvetica,sans-Serif" font-size="10.00">+</text>
<text text-anchor="start" x="128.72" y="-450.5" font-family="Helvetica,sans-Serif" font-size="10.00">TotalTime</text>
<text text-anchor="start" x="118.72" y="-435.5" font-family="Helvetica,sans-Serif" font-size="10.00">+</text>
<text text-anchor="start" x="128.72" y="-435.5" font-family="Helvetica,sans-Serif" font-size="10.00">Flush()</text>
<text text-anchor="start" x="118.72" y="-420.5" font-family="Helvetica,sans-Serif" font-size="10.00">+</text>
<text text-anchor="start" x="128.72" y="-420.5" font-family="Helvetica,sans-Serif" font-size="10.00">Seek()</text>
<text text-anchor="start" x="118.72" y="-405.5" font-family="Helvetica,sans-Serif" font-size="10.00">+</text>
<text text-anchor="start" x="128.72" y="-405.5" font-family="Helvetica,sans-Serif" font-size="10.00">SetLength()</text>
<text text-anchor="start" x="118.72" y="-390.5" font-family="Helvetica,sans-Serif" font-size="10.00">+</text>
<text text-anchor="start" x="128.72" y="-390.5" font-family="Helvetica,sans-Serif" font-size="10.00">Write()</text>
<text text-anchor="start" x="118.72" y="-375.5" font-family="Helvetica,sans-Serif" font-size="10.00">+</text>
<text text-anchor="start" x="128.72" y="-375.5" font-family="Helvetica,sans-Serif" font-size="10.00">Skip()</text>
<text text-anchor="start" x="118.72" y="-360.5" font-family="Helvetica,sans-Serif" font-size="10.00">+</text>
<text text-anchor="start" x="128.72" y="-360.5" font-family="Helvetica,sans-Serif" font-size="10.00">HasData()</text>
<polygon fill="#666666" stroke="#666666" points="114.72,-552 114.72,-552 187.72,-552 187.72,-552 114.72,-552"/>
<polygon fill="#666666" stroke="#666666" points="114.72,-447 114.72,-447 126.72,-447 126.72,-447 114.72,-447"/>
<polygon fill="#666666" stroke="#666666" points="126.72,-447 126.72,-447 187.72,-447 187.72,-447 126.72,-447"/>
<polygon fill="none" stroke="#666666" points="114.72,-355 114.72,-569 187.72,-569 187.72,-355 114.72,-355"/>
</a>
</g>
</g>
<!-- Node2&#45;&gt;Node1 -->
<g id="edge1_Node000001_Node000002" class="edge">
<title>Node2&#45;&gt;Node1</title>
<g id="a_edge1_Node000001_Node000002"><a xlink:title=" ">
<path fill="none" stroke="#63b8ff" d="M171.08,-344.02C177.41,-319.73 185.63,-294.76 196.22,-272.5 210.2,-243.1 230.05,-213.93 249.86,-188.5"/>
<polygon fill="none" stroke="#63b8ff" points="167.71,-343.1 168.67,-353.65 174.5,-344.8 167.71,-343.1"/>
</a>
</g>
</g>
<!-- Node3 -->
<g id="Node000003" class="node">
<title>Node3</title>
<g id="a_Node000003"><a xlink:title=" ">
<polygon fill="white" stroke="none" points="76.72,-781.5 35.72,-781.5 35.72,-732.5 76.72,-732.5 76.72,-781.5"/>
<text text-anchor="start" x="40.47" y="-768" font-family="Helvetica,sans-Serif" font-size="10.00">Stream</text>
<text text-anchor="start" x="54.72" y="-753" font-family="Helvetica,sans-Serif" font-size="10.00"> </text>
<text text-anchor="start" x="54.72" y="-738" font-family="Helvetica,sans-Serif" font-size="10.00"> </text>
<polygon fill="#666666" stroke="#666666" points="35.72,-764.5 35.72,-764.5 76.72,-764.5 76.72,-764.5 35.72,-764.5"/>
<polygon fill="#666666" stroke="#666666" points="35.72,-749.5 35.72,-749.5 76.72,-749.5 76.72,-749.5 35.72,-749.5"/>
<polygon fill="none" stroke="#666666" points="35.72,-732.5 35.72,-781.5 76.72,-781.5 76.72,-732.5 35.72,-732.5"/>
</a>
</g>
</g>
<!-- Node3&#45;&gt;Node1 -->
<g id="edge11_Node000001_Node000003" class="edge">
<title>Node3&#45;&gt;Node1</title>
<g id="a_edge11_Node000001_Node000003"><a xlink:title=" ">
<path fill="none" stroke="#63b8ff" d="M47.75,-732.55C22.7,-658.87 -43.99,-427.7 44.47,-272.5 85.62,-200.31 172.27,-156.56 237.92,-132.52"/>
<polygon fill="none" stroke="#63b8ff" points="237.76,-132.58 242.07,-126.8 249.07,-128.56 244.75,-134.34 237.76,-132.58"/>
</a>
</g>
<text text-anchor="middle" x="75.59" y="-458.12" font-family="Helvetica,sans-Serif" font-size="10.00" fill="grey"> &#45;waveStream</text>
</g>
<!-- Node3&#45;&gt;Node2 -->
<g id="edge2_Node000002_Node000003" class="edge">
<title>Node3&#45;&gt;Node2</title>
<g id="a_edge2_Node000002_Node000003"><a xlink:title=" ">
<path fill="none" stroke="#63b8ff" d="M72.16,-722.47C81.41,-702.21 92.85,-675.71 101.22,-651.5 110.4,-624.94 118.89,-595.79 126.16,-568.52"/>
<polygon fill="none" stroke="#63b8ff" points="69.07,-720.81 68.05,-731.36 75.42,-723.75 69.07,-720.81"/>
</a>
</g>
</g>
<!-- Node4 -->
<g id="Node000004" class="node">
<title>Node4</title>
<g id="a_Node000004"><a xlink:href="interface_n_audio_1_1_wave_1_1_i_wave_provider.html" target="_top" xlink:title="Generic interface for all WaveProviders.">
<polygon fill="white" stroke="none" points="177.72,-781.5 104.72,-781.5 104.72,-732.5 177.72,-732.5 177.72,-781.5"/>
<text text-anchor="start" x="109.34" y="-768" font-family="Helvetica,sans-Serif" font-size="10.00">IWaveProvider</text>
<text text-anchor="start" x="108.72" y="-753" font-family="Helvetica,sans-Serif" font-size="10.00">+</text>
<text text-anchor="start" x="118.72" y="-753" font-family="Helvetica,sans-Serif" font-size="10.00">WaveFormat</text>
<text text-anchor="start" x="108.72" y="-738" font-family="Helvetica,sans-Serif" font-size="10.00">+</text>
<text text-anchor="start" x="118.72" y="-738" font-family="Helvetica,sans-Serif" font-size="10.00">Read()</text>
<polygon fill="#666666" stroke="#666666" points="104.72,-764.5 104.72,-764.5 177.72,-764.5 177.72,-764.5 104.72,-764.5"/>
<polygon fill="#666666" stroke="#666666" points="104.72,-749.5 104.72,-749.5 116.72,-749.5 116.72,-749.5 104.72,-749.5"/>
<polygon fill="#666666" stroke="#666666" points="116.72,-749.5 116.72,-749.5 177.72,-749.5 177.72,-749.5 116.72,-749.5"/>
<polygon fill="none" stroke="#666666" points="104.72,-732.5 104.72,-781.5 177.72,-781.5 177.72,-732.5 104.72,-732.5"/>
</a>
</g>
</g>
<!-- Node4&#45;&gt;Node2 -->
<g id="edge3_Node000002_Node000004" class="edge">
<title>Node4&#45;&gt;Node2</title>
<g id="a_edge3_Node000002_Node000004"><a xlink:title=" ">
<path fill="none" stroke="#63b8ff" d="M142.41,-721.25C143.68,-683.84 145.78,-622.47 147.6,-568.94"/>
<polygon fill="none" stroke="#63b8ff" points="138.92,-720.89 142.07,-731.01 145.91,-721.13 138.92,-720.89"/>
</a>
</g>
</g>
<!-- Node5 -->
<g id="Node000005" class="node">
<title>Node5</title>
<g id="a_Node000005"><a xlink:href="class_n_audio_1_1_wave_1_1_wave_format.html" target="_top" xlink:title="Represents a Wave file format.">
<polygon fill="white" stroke="none" points="354.72,-651.5 205.72,-651.5 205.72,-272.5 354.72,-272.5 354.72,-651.5"/>
<text text-anchor="start" x="220.97" y="-638" font-family="Helvetica,sans-Serif" font-size="10.00">NAudio.Wave.WaveFormat</text>
<text text-anchor="start" x="209.72" y="-623" font-family="Helvetica,sans-Serif" font-size="10.00">+</text>
<text text-anchor="start" x="219.72" y="-623" font-family="Helvetica,sans-Serif" font-size="10.00">Encoding</text>
<text text-anchor="start" x="209.72" y="-608" font-family="Helvetica,sans-Serif" font-size="10.00">+</text>
<text text-anchor="start" x="219.72" y="-608" font-family="Helvetica,sans-Serif" font-size="10.00">Channels</text>
<text text-anchor="start" x="209.72" y="-593" font-family="Helvetica,sans-Serif" font-size="10.00">+</text>
<text text-anchor="start" x="219.72" y="-593" font-family="Helvetica,sans-Serif" font-size="10.00">SampleRate</text>
<text text-anchor="start" x="209.72" y="-578" font-family="Helvetica,sans-Serif" font-size="10.00">+</text>
<text text-anchor="start" x="219.72" y="-578" font-family="Helvetica,sans-Serif" font-size="10.00">AverageBytesPerSecond</text>
<text text-anchor="start" x="209.72" y="-563" font-family="Helvetica,sans-Serif" font-size="10.00">+</text>
<text text-anchor="start" x="219.72" y="-563" font-family="Helvetica,sans-Serif" font-size="10.00">BlockAlign</text>
<text text-anchor="start" x="209.72" y="-548" font-family="Helvetica,sans-Serif" font-size="10.00">+</text>
<text text-anchor="start" x="219.72" y="-548" font-family="Helvetica,sans-Serif" font-size="10.00">BitsPerSample</text>
<text text-anchor="start" x="209.72" y="-533" font-family="Helvetica,sans-Serif" font-size="10.00">+</text>
<text text-anchor="start" x="219.72" y="-533" font-family="Helvetica,sans-Serif" font-size="10.00">ExtraSize</text>
<text text-anchor="start" x="209.72" y="-518" font-family="Helvetica,sans-Serif" font-size="10.00">+</text>
<text text-anchor="start" x="219.72" y="-518" font-family="Helvetica,sans-Serif" font-size="10.00">WaveFormat()</text>
<text text-anchor="start" x="209.72" y="-503" font-family="Helvetica,sans-Serif" font-size="10.00">+</text>
<text text-anchor="start" x="219.72" y="-503" font-family="Helvetica,sans-Serif" font-size="10.00">WaveFormat()</text>
<text text-anchor="start" x="209.72" y="-488" font-family="Helvetica,sans-Serif" font-size="10.00">+</text>
<text text-anchor="start" x="219.72" y="-488" font-family="Helvetica,sans-Serif" font-size="10.00">ConvertLatencyToByteSize()</text>
<text text-anchor="start" x="209.72" y="-473" font-family="Helvetica,sans-Serif" font-size="10.00">+</text>
<text text-anchor="start" x="219.72" y="-473" font-family="Helvetica,sans-Serif" font-size="10.00">WaveFormat()</text>
<text text-anchor="start" x="209.72" y="-458" font-family="Helvetica,sans-Serif" font-size="10.00">+</text>
<text text-anchor="start" x="219.72" y="-458" font-family="Helvetica,sans-Serif" font-size="10.00">WaveFormat()</text>
<text text-anchor="start" x="209.72" y="-443" font-family="Helvetica,sans-Serif" font-size="10.00">+</text>
<text text-anchor="start" x="219.72" y="-443" font-family="Helvetica,sans-Serif" font-size="10.00">ToString()</text>
<text text-anchor="start" x="209.72" y="-428" font-family="Helvetica,sans-Serif" font-size="10.00">+</text>
<text text-anchor="start" x="219.72" y="-428" font-family="Helvetica,sans-Serif" font-size="10.00">Equals()</text>
<text text-anchor="start" x="209.72" y="-413" font-family="Helvetica,sans-Serif" font-size="10.00">+</text>
<text text-anchor="start" x="219.72" y="-413" font-family="Helvetica,sans-Serif" font-size="10.00">GetHashCode()</text>
<text text-anchor="start" x="209.72" y="-398" font-family="Helvetica,sans-Serif" font-size="10.00">+</text>
<text text-anchor="start" x="219.72" y="-398" font-family="Helvetica,sans-Serif" font-size="10.00">Serialize()</text>
<text text-anchor="start" x="209.72" y="-383" font-family="Helvetica,sans-Serif" font-size="10.00">+</text>
<text text-anchor="start" x="219.72" y="-383" font-family="Helvetica,sans-Serif" font-size="10.00">CreateCustomFormat()</text>
<text text-anchor="start" x="209.72" y="-368" font-family="Helvetica,sans-Serif" font-size="10.00">+</text>
<text text-anchor="start" x="219.72" y="-368" font-family="Helvetica,sans-Serif" font-size="10.00">CreateALawFormat()</text>
<text text-anchor="start" x="209.72" y="-353" font-family="Helvetica,sans-Serif" font-size="10.00">+</text>
<text text-anchor="start" x="219.72" y="-353" font-family="Helvetica,sans-Serif" font-size="10.00">CreateMuLawFormat()</text>
<text text-anchor="start" x="209.72" y="-338" font-family="Helvetica,sans-Serif" font-size="10.00">+</text>
<text text-anchor="start" x="219.72" y="-338" font-family="Helvetica,sans-Serif" font-size="10.00">CreateIeeeFloatWaveFormat()</text>
<text text-anchor="start" x="209.72" y="-323" font-family="Helvetica,sans-Serif" font-size="10.00">+</text>
<text text-anchor="start" x="219.72" y="-323" font-family="Helvetica,sans-Serif" font-size="10.00">MarshalFromPtr()</text>
<text text-anchor="start" x="209.72" y="-308" font-family="Helvetica,sans-Serif" font-size="10.00">+</text>
<text text-anchor="start" x="219.72" y="-308" font-family="Helvetica,sans-Serif" font-size="10.00">MarshalToPtr()</text>
<text text-anchor="start" x="209.72" y="-293" font-family="Helvetica,sans-Serif" font-size="10.00">+</text>
<text text-anchor="start" x="219.72" y="-293" font-family="Helvetica,sans-Serif" font-size="10.00">FromFormatChunk()</text>
<text text-anchor="start" x="211.22" y="-278" font-family="Helvetica,sans-Serif" font-size="10.00">&#45;</text>
<text text-anchor="start" x="219.72" y="-278" font-family="Helvetica,sans-Serif" font-size="10.00">ReadWaveFormat()</text>
<polygon fill="#666666" stroke="#666666" points="205.72,-634.5 205.72,-634.5 354.72,-634.5 354.72,-634.5 205.72,-634.5"/>
<polygon fill="#666666" stroke="#666666" points="205.72,-529.5 205.72,-529.5 217.72,-529.5 217.72,-529.5 205.72,-529.5"/>
<polygon fill="#666666" stroke="#666666" points="217.72,-529.5 217.72,-529.5 354.72,-529.5 354.72,-529.5 217.72,-529.5"/>
<polygon fill="none" stroke="#666666" points="205.72,-272.5 205.72,-651.5 354.72,-651.5 354.72,-272.5 205.72,-272.5"/>
</a>
</g>
</g>
<!-- Node5&#45;&gt;Node1 -->
<g id="edge4_Node000001_Node000005" class="edge">
<title>Node5&#45;&gt;Node1</title>
<g id="a_edge4_Node000001_Node000005"><a xlink:title=" ">
<path fill="none" stroke="#63b8ff" d="M277.31,-272.53C278.49,-258.78 280.09,-245.15 282.22,-232 282.52,-230.12 282.85,-228.22 283.2,-226.32"/>
<polygon fill="none" stroke="#63b8ff" points="283.2,-226.32 280.49,-219.63 285.62,-214.56 288.33,-221.25 283.2,-226.32"/>
</a>
</g>
<text text-anchor="middle" x="312.22" y="-239.38" font-family="Helvetica,sans-Serif" font-size="10.00" fill="grey"> &#45;waveFormat</text>
</g>
<!-- Node6 -->
<g id="Node000006" class="node">
<title>Node6</title>
<g id="a_Node000006"><a xlink:title=" ">
<polygon fill="white" stroke="none" points="302.22,-781.5 196.22,-781.5 196.22,-732.5 302.22,-732.5 302.22,-781.5"/>
<text text-anchor="start" x="201.22" y="-768" font-family="Helvetica,sans-Serif" font-size="10.00">WaveFormatEncoding</text>
<text text-anchor="start" x="247.72" y="-753" font-family="Helvetica,sans-Serif" font-size="10.00"> </text>
<text text-anchor="start" x="247.72" y="-738" font-family="Helvetica,sans-Serif" font-size="10.00"> </text>
<polygon fill="#666666" stroke="#666666" points="196.22,-764.5 196.22,-764.5 302.22,-764.5 302.22,-764.5 196.22,-764.5"/>
<polygon fill="#666666" stroke="#666666" points="196.22,-749.5 196.22,-749.5 302.22,-749.5 302.22,-749.5 196.22,-749.5"/>
<polygon fill="none" stroke="#666666" points="196.22,-732.5 196.22,-781.5 302.22,-781.5 302.22,-732.5 196.22,-732.5"/>
</a>
</g>
</g>
<!-- Node6&#45;&gt;Node5 -->
<g id="edge5_Node000005_Node000006" class="edge">
<title>Node6&#45;&gt;Node5</title>
<g id="a_edge5_Node000005_Node000006"><a xlink:title=" ">
<path fill="none" stroke="#63b8ff" d="M248.66,-732.83C248.43,-715.39 248.55,-690.91 250.22,-669.5 250.36,-667.73 250.5,-665.95 250.65,-664.17"/>
<polygon fill="none" stroke="#63b8ff" points="250.64,-664.24 247.2,-657.91 251.72,-652.29 255.17,-658.62 250.64,-664.24"/>
</a>
</g>
<text text-anchor="middle" x="289.22" y="-688.12" font-family="Helvetica,sans-Serif" font-size="10.00" fill="grey"> #waveFormatTag</text>
</g>
<!-- Node7 -->
<g id="Node000007" class="node">
<title>Node7</title>
<g id="a_Node000007"><a xlink:title=" ">
<polygon fill="white" stroke="none" points="365.72,-781.5 334.72,-781.5 334.72,-732.5 365.72,-732.5 365.72,-781.5"/>
<text text-anchor="start" x="339.34" y="-768" font-family="Helvetica,sans-Serif" font-size="10.00">short</text>
<text text-anchor="start" x="348.72" y="-753" font-family="Helvetica,sans-Serif" font-size="10.00"> </text>
<text text-anchor="start" x="348.72" y="-738" font-family="Helvetica,sans-Serif" font-size="10.00"> </text>
<polygon fill="#666666" stroke="#666666" points="334.72,-764.5 334.72,-764.5 365.72,-764.5 365.72,-764.5 334.72,-764.5"/>
<polygon fill="#666666" stroke="#666666" points="334.72,-749.5 334.72,-749.5 365.72,-749.5 365.72,-749.5 334.72,-749.5"/>
<polygon fill="none" stroke="#666666" points="334.72,-732.5 334.72,-781.5 365.72,-781.5 365.72,-732.5 334.72,-732.5"/>
</a>
</g>
</g>
<!-- Node7&#45;&gt;Node5 -->
<g id="edge6_Node000005_Node000007" class="edge">
<title>Node7&#45;&gt;Node5</title>
<g id="a_edge6_Node000005_Node000007"><a xlink:title=" ">
<path fill="none" stroke="#63b8ff" d="M344.61,-732.52C340.58,-715.66 334.72,-691.14 328.16,-663.65"/>
<polygon fill="none" stroke="#63b8ff" points="328.2,-663.82 322.91,-658.91 325.41,-652.15 330.69,-657.05 328.2,-663.82"/>
</a>
</g>
<text text-anchor="middle" x="375.22" y="-705" font-family="Helvetica,sans-Serif" font-size="10.00" fill="grey"> #bitsPerSample</text>
<text text-anchor="middle" x="375.22" y="-693.75" font-family="Helvetica,sans-Serif" font-size="10.00" fill="grey">#blockAlign</text>
<text text-anchor="middle" x="375.22" y="-682.5" font-family="Helvetica,sans-Serif" font-size="10.00" fill="grey">#channels</text>
<text text-anchor="middle" x="375.22" y="-671.25" font-family="Helvetica,sans-Serif" font-size="10.00" fill="grey">#extraSize</text>
</g>
<!-- Node8 -->
<g id="Node000008" class="node">
<title>Node8</title>
<g id="a_Node000008"><a xlink:title=" ">
<polygon fill="white" stroke="none" points="455.22,-781.5 435.22,-781.5 435.22,-732.5 455.22,-732.5 455.22,-781.5"/>
<text text-anchor="start" x="439.97" y="-768" font-family="Helvetica,sans-Serif" font-size="10.00">int</text>
<text text-anchor="start" x="443.72" y="-753" font-family="Helvetica,sans-Serif" font-size="10.00"> </text>
<text text-anchor="start" x="443.72" y="-738" font-family="Helvetica,sans-Serif" font-size="10.00"> </text>
<polygon fill="#666666" stroke="#666666" points="435.22,-764.5 435.22,-764.5 455.22,-764.5 455.22,-764.5 435.22,-764.5"/>
<polygon fill="#666666" stroke="#666666" points="435.22,-749.5 435.22,-749.5 455.22,-749.5 455.22,-749.5 435.22,-749.5"/>
<polygon fill="none" stroke="#666666" points="435.22,-732.5 435.22,-781.5 455.22,-781.5 455.22,-732.5 435.22,-732.5"/>
</a>
</g>
</g>
<!-- Node8&#45;&gt;Node5 -->
<g id="edge7_Node000005_Node000008" class="edge">
<title>Node8&#45;&gt;Node5</title>
<g id="a_edge7_Node000005_Node000008"><a xlink:title=" ">
<path fill="none" stroke="#63b8ff" d="M442.76,-732.87C439.54,-713.55 432.14,-686.52 415.22,-669.5 398.27,-652.46 381.88,-667.8 364.22,-651.5 364.01,-651.31 363.81,-651.12 363.6,-650.93"/>
<polygon fill="none" stroke="#63b8ff" points="363.79,-651.11 356.72,-649.67 355.34,-642.59 362.41,-644.04 363.79,-651.11"/>
</a>
</g>
<text text-anchor="middle" x="495.34" y="-693.75" font-family="Helvetica,sans-Serif" font-size="10.00" fill="grey"> #averageBytesPerSecond</text>
<text text-anchor="middle" x="495.34" y="-682.5" font-family="Helvetica,sans-Serif" font-size="10.00" fill="grey">#sampleRate</text>
</g>
<!-- Node9 -->
<g id="Node000009" class="node">
<title>Node9</title>
<g id="a_Node000009"><a xlink:title=" ">
<polygon fill="white" stroke="none" points="401.22,-486.5 373.22,-486.5 373.22,-437.5 401.22,-437.5 401.22,-486.5"/>
<text text-anchor="start" x="378.22" y="-473" font-family="Helvetica,sans-Serif" font-size="10.00">bool</text>
<text text-anchor="start" x="385.72" y="-458" font-family="Helvetica,sans-Serif" font-size="10.00"> </text>
<text text-anchor="start" x="385.72" y="-443" font-family="Helvetica,sans-Serif" font-size="10.00"> </text>
<polygon fill="#666666" stroke="#666666" points="373.22,-469.5 373.22,-469.5 401.22,-469.5 401.22,-469.5 373.22,-469.5"/>
<polygon fill="#666666" stroke="#666666" points="373.22,-454.5 373.22,-454.5 401.22,-454.5 401.22,-454.5 373.22,-454.5"/>
<polygon fill="none" stroke="#666666" points="373.22,-437.5 373.22,-486.5 401.22,-486.5 401.22,-437.5 373.22,-437.5"/>
</a>
</g>
</g>
<!-- Node9&#45;&gt;Node1 -->
<g id="edge8_Node000001_Node000009" class="edge">
<title>Node9&#45;&gt;Node1</title>
<g id="a_edge8_Node000001_Node000009"><a xlink:title=" ">
<path fill="none" stroke="#63b8ff" d="M385.34,-437.64C382.25,-401.87 375.3,-331.47 364.22,-272.5 361.39,-257.41 357.97,-241.66 354.32,-226.13"/>
<polygon fill="none" stroke="#63b8ff" points="354.36,-226.29 349.07,-221.38 351.56,-214.62 356.85,-219.52 354.36,-226.29"/>
</a>
</g>
<text text-anchor="middle" x="383.09" y="-239.38" font-family="Helvetica,sans-Serif" font-size="10.00" fill="grey"> &#45;ownInput</text>
</g>
<!-- Node10 -->
<g id="Node000010" class="node">
<title>Node10</title>
<g id="a_Node000010"><a xlink:title=" ">
<polygon fill="white" stroke="none" points="447.22,-486.5 419.22,-486.5 419.22,-437.5 447.22,-437.5 447.22,-486.5"/>
<text text-anchor="start" x="424.22" y="-473" font-family="Helvetica,sans-Serif" font-size="10.00">long</text>
<text text-anchor="start" x="431.72" y="-458" font-family="Helvetica,sans-Serif" font-size="10.00"> </text>
<text text-anchor="start" x="431.72" y="-443" font-family="Helvetica,sans-Serif" font-size="10.00"> </text>
<polygon fill="#666666" stroke="#666666" points="419.22,-469.5 419.22,-469.5 447.22,-469.5 447.22,-469.5 419.22,-469.5"/>
<polygon fill="#666666" stroke="#666666" points="419.22,-454.5 419.22,-454.5 447.22,-454.5 447.22,-454.5 419.22,-454.5"/>
<polygon fill="none" stroke="#666666" points="419.22,-437.5 419.22,-486.5 447.22,-486.5 447.22,-437.5 419.22,-437.5"/>
</a>
</g>
</g>
<!-- Node10&#45;&gt;Node1 -->
<g id="edge9_Node000001_Node000010" class="edge">
<title>Node10&#45;&gt;Node1</title>
<g id="a_edge9_Node000001_Node000010"><a xlink:title=" ">
<path fill="none" stroke="#63b8ff" d="M434.72,-437.7C436.63,-395.28 436.94,-303.27 410.22,-232 407.52,-224.79 404.29,-217.61 400.68,-210.55"/>
<polygon fill="none" stroke="#63b8ff" points="400.67,-210.52 394.29,-207.16 394.95,-199.98 401.33,-203.34 400.67,-210.52"/>
</a>
</g>
<text text-anchor="middle" x="456.47" y="-245" font-family="Helvetica,sans-Serif" font-size="10.00" fill="grey"> &#45;dataChunkLength</text>
<text text-anchor="middle" x="456.47" y="-233.75" font-family="Helvetica,sans-Serif" font-size="10.00" fill="grey">&#45;dataPosition</text>
</g>
<!-- Node11 -->
<g id="Node000011" class="node">
<title>Node11</title>
<g id="a_Node000011"><a xlink:title=" ">
<polygon fill="white" stroke="none" points="557.22,-486.5 521.22,-486.5 521.22,-437.5 557.22,-437.5 557.22,-486.5"/>
<text text-anchor="start" x="526.09" y="-473" font-family="Helvetica,sans-Serif" font-size="10.00">object</text>
<text text-anchor="start" x="537.72" y="-458" font-family="Helvetica,sans-Serif" font-size="10.00"> </text>
<text text-anchor="start" x="537.72" y="-443" font-family="Helvetica,sans-Serif" font-size="10.00"> </text>
<polygon fill="#666666" stroke="#666666" points="521.22,-469.5 521.22,-469.5 557.22,-469.5 557.22,-469.5 521.22,-469.5"/>
<polygon fill="#666666" stroke="#666666" points="521.22,-454.5 521.22,-454.5 557.22,-454.5 557.22,-454.5 521.22,-454.5"/>
<polygon fill="none" stroke="#666666" points="521.22,-437.5 521.22,-486.5 557.22,-486.5 557.22,-437.5 521.22,-437.5"/>
</a>
</g>
</g>
<!-- Node11&#45;&gt;Node1 -->
<g id="edge10_Node000001_Node000011" class="edge">
<title>Node11&#45;&gt;Node1</title>
<g id="a_edge10_Node000001_Node000011"><a xlink:title=" ">
<path fill="none" stroke="#63b8ff" d="M541.17,-437.81C543.7,-393.99 543.65,-297.52 502.22,-232 479.16,-195.53 441.08,-167 405.87,-146.55"/>
<polygon fill="none" stroke="#63b8ff" points="405.81,-146.51 398.61,-147.06 395.34,-140.63 402.54,-140.08 405.81,-146.51"/>
</a>
</g>
<text text-anchor="middle" x="539.47" y="-239.38" font-family="Helvetica,sans-Serif" font-size="10.00" fill="grey"> &#45;lockObject</text>
</g>
</g>
</svg>

<g id="navigator" transform="translate(0 0)" fill="#404254">
  <rect fill="#f2f5e9" fill-opacity="0.5" stroke="#606060" stroke-width=".5" x="0" y="0" width="60" height="60"/>
  <use id="zoomplus" xlink:href="#zoomPlus" x="17" y="9" onmousedown="handleZoom(evt,'in')"/>
  <use id="zoomminus" xlink:href="#zoomMin" x="42" y="9" onmousedown="handleZoom(evt,'out')"/>
  <use id="reset" xlink:href="#resetDef" x="30" y="36" onmousedown="handleReset()"/>
   <use id="arrowup" xlink:href="#arrowUp" x="0" y="0" onmousedown="handlePan(0,-1)"/>
  <use id="arrowright" xlink:href="#arrowRight" x="0" y="0" onmousedown="handlePan(1,0)"/>
  <use id="arrowdown" xlink:href="#arrowDown" x="0" y="0" onmousedown="handlePan(0,1)"/>
  <use id="arrowleft" xlink:href="#arrowLeft" x="0" y="0" onmousedown="handlePan(-1,0)"/>
</g>
<svg viewBox="0 0 15 15" width="100%" height="30px" preserveAspectRatio="xMaxYMin meet">
 <g id="arrow_out" transform="scale(0.3 0.3)">
  <a xlink:href="class_n_audio_1_1_wave_1_1_wave_file_reader__coll__graph_org.svg" target="_base">
   <rect id="button" ry="5" rx="5" y="6" x="6" height="38" width="38"
        fill="#f2f5e9" fill-opacity="0.5" stroke="#606060" stroke-width="1.0"/>
   <path id="arrow"
     d="M 11.500037,31.436501 C 11.940474,20.09759 22.043105,11.32322 32.158766,21.979434 L 37.068811,17.246167 C 37.068811,17.246167 37.088388,32 37.088388,32 L 22.160133,31.978069 C 22.160133,31.978069 26.997745,27.140456 26.997745,27.140456 C 18.528582,18.264221 13.291696,25.230495 11.500037,31.436501 z"
     style="fill:#404040;"/>
  </a>
 </g>
</svg>

<style type='text/css'>
<![CDATA[
[data-mouse-over-selected='false'] { opacity: 0.7; }
[data-mouse-over-selected='true']  { opacity: 1.0; }
]]>
</style>
<script type="application/ecmascript"><![CDATA[
document.addEventListener('DOMContentLoaded', (event) => {
  highlightEdges();
  highlightAdjacentNodes();
});
]]></script>
</svg>
