<?xml version="1.0" encoding="UTF-8" standalone="no"?>
<!DOCTYPE svg PUBLIC "-//W3C//DTD SVG 1.1//EN"
 "http://www.w3.org/Graphics/SVG/1.1/DTD/svg11.dtd">
<!-- Generated by graphviz version 10.0.1 (20240210.2158)
 -->
<!-- Title: Plugin.Chromium.GetCreditCards Pages: 1 -->
<!--zoomable 223 -->

<svg id="main" version="1.1" xmlns="http://www.w3.org/2000/svg" xmlns:xlink="http://www.w3.org/1999/xlink" xml:space="preserve" onload="init(evt)">
<style type="text/css"><![CDATA[
.node, .edge {opacity: 0.7;}
.node.selected, .edge.selected {opacity: 1;}
.edge:hover path { stroke: red; }
.edge:hover polygon { stroke: red; fill: red; }
]]></style>

<defs>
  <circle id="rim" cx="0" cy="0" r="7"/>
  <circle id="rim2" cx="0" cy="0" r="3.5"/>
  <g id="zoomPlus">
    <use xlink:href="#rim" fill="#404040"><set attributeName="fill" to="#808080" begin="zoomplus.mouseover" end="zoomplus.mouseout"/></use>
    <path d="M-4,0h8M0,-4v8" fill="none" stroke="white" stroke-width="1.5" pointer-events="none"/>
  </g>
  <g id="zoomMin">
    <use xlink:href="#rim" fill="#404040"><set attributeName="fill" to="#808080" begin="zoomminus.mouseover" end="zoomminus.mouseout"/></use>
    <path d="M-4,0h8" fill="none" stroke="white" stroke-width="1.5" pointer-events="none"/>
  </g>
  <g id="arrowUp" transform="translate(30 24)">
    <use xlink:href="#rim"/>
    <path pointer-events="none" fill="none" stroke="white" stroke-width="1.5" d="M0,-3.0v7 M-2.5,-0.5L0,-3.0L2.5,-0.5"/>
  </g>
  <g id="arrowRight" transform="rotate(90) translate(36 -43)">
    <use xlink:href="#rim"/>
    <path pointer-events="none" fill="none" stroke="white" stroke-width="1.5" d="M0,-3.0v7 M-2.5,-0.5L0,-3.0L2.5,-0.5"/>
  </g>
  <g id="arrowDown" transform="rotate(180) translate(-30 -48)">
    <use xlink:href="#rim"/>
    <path pointer-events="none" fill="none" stroke="white" stroke-width="1.5" d="M0,-3.0v7 M-2.5,-0.5L0,-3.0L2.5,-0.5"/>
  </g>
  <g id="arrowLeft" transform="rotate(270) translate(-36 17)">
    <use xlink:href="#rim"/>
    <path pointer-events="none" fill="none" stroke="white" stroke-width="1.5" d="M0,-3.0v7 M-2.5,-0.5L0,-3.0L2.5,-0.5"/>
  </g>
  <g id="resetDef">
    <use xlink:href="#rim2" fill="#404040"><set attributeName="fill" to="#808080" begin="reset.mouseover" end="reset.mouseout"/></use>
  </g>
</defs>
<script type="application/ecmascript">
var viewWidth = 727;
var viewHeight = 223;
var sectionId = 'dynsection-7';
</script>
<script type="application/ecmascript" xlink:href="svg.min.js"/>
<svg id="graph" class="graph">
<g id="viewport">
<title>Plugin.Chromium.GetCreditCards</title>
<!-- Node1 -->
<g id="Node000001" class="node">
<title>Node1</title>
<g id="a_Node000001"><a xlink:title=" ">
<polygon fill="#999999" stroke="#666666" points="136,-152.88 0,-152.88 0,-122.38 136,-122.38 136,-152.88"/>
<text text-anchor="start" x="8" y="-139.38" font-family="Helvetica,sans-Serif" font-size="10.00">Plugin.Chromium.GetCredit</text>
<text text-anchor="middle" x="68" y="-128.12" font-family="Helvetica,sans-Serif" font-size="10.00">Cards</text>
</a>
</g>
</g>
<!-- Node2 -->
<g id="Node000002" class="node">
<title>Node2</title>
<g id="a_Node000002"><a xlink:href="class_plugin_1_1_chromium.html#a41192d52211640dc8c58deac897d0c94" target="_top" xlink:title="Decrypts the password using the provided buffer and master key.">
<polygon fill="white" stroke="#666666" points="344,-215.25 172,-215.25 172,-196 344,-196 344,-215.25"/>
<text text-anchor="middle" x="258" y="-201.75" font-family="Helvetica,sans-Serif" font-size="10.00">Plugin.Chromium.DecryptPassword</text>
</a>
</g>
</g>
<!-- Node1&#45;&gt;Node2 -->
<g id="edge1_Node000001_Node000002" class="edge">
<title>Node1&#45;&gt;Node2</title>
<g id="a_edge1_Node000001_Node000002"><a xlink:title=" ">
<path fill="none" stroke="#63b8ff" d="M97.57,-153.35C117.85,-163.98 145.98,-177.65 172,-186.62 178.57,-188.89 185.51,-190.95 192.49,-192.81"/>
<polygon fill="#63b8ff" stroke="#63b8ff" points="191.42,-196.15 201.97,-195.2 193.13,-189.36 191.42,-196.15"/>
</a>
</g>
</g>
<!-- Node3 -->
<g id="Node000003" class="node">
<title>Node3</title>
<g id="a_Node000003"><a xlink:href="class_info_grab_1_1_s_q_lite_handler.html#acf694b14619cc5cd016fbfa79012a34a" target="_top" xlink:title="Gets the number of rows in the table.">
<polygon fill="white" stroke="#666666" points="327.12,-177.88 188.88,-177.88 188.88,-147.38 327.12,-147.38 327.12,-177.88"/>
<text text-anchor="start" x="196.88" y="-164.38" font-family="Helvetica,sans-Serif" font-size="10.00">InfoGrab.SQLiteHandler.Get</text>
<text text-anchor="middle" x="258" y="-153.12" font-family="Helvetica,sans-Serif" font-size="10.00">RowCount</text>
</a>
</g>
</g>
<!-- Node1&#45;&gt;Node3 -->
<g id="edge2_Node000001_Node000003" class="edge">
<title>Node1&#45;&gt;Node3</title>
<g id="a_edge2_Node000001_Node000003"><a xlink:title=" ">
<path fill="none" stroke="#63b8ff" d="M136.34,-146.58C149.59,-148.34 163.62,-150.21 177.23,-152.02"/>
<polygon fill="#63b8ff" stroke="#63b8ff" points="176.67,-155.47 187.05,-153.32 177.6,-148.53 176.67,-155.47"/>
</a>
</g>
</g>
<!-- Node4 -->
<g id="Node000004" class="node">
<title>Node4</title>
<g id="a_Node000004"><a xlink:href="class_info_grab_1_1_s_q_lite_handler.html#af61c386365604d6c3652b44b548c3c3c" target="_top" xlink:title="Retrieves the value at the specified row and field.">
<polygon fill="white" stroke="#666666" points="327.12,-128.88 188.88,-128.88 188.88,-98.38 327.12,-98.38 327.12,-128.88"/>
<text text-anchor="start" x="196.88" y="-115.38" font-family="Helvetica,sans-Serif" font-size="10.00">InfoGrab.SQLiteHandler.Get</text>
<text text-anchor="middle" x="258" y="-104.12" font-family="Helvetica,sans-Serif" font-size="10.00">Value</text>
</a>
</g>
</g>
<!-- Node1&#45;&gt;Node4 -->
<g id="edge3_Node000001_Node000004" class="edge">
<title>Node1&#45;&gt;Node4</title>
<g id="a_edge3_Node000001_Node000004"><a xlink:title=" ">
<path fill="none" stroke="#63b8ff" d="M136.34,-129.03C149.59,-127.34 163.62,-125.55 177.23,-123.81"/>
<polygon fill="#63b8ff" stroke="#63b8ff" points="177.57,-127.29 187.05,-122.56 176.68,-120.35 177.57,-127.29"/>
</a>
</g>
</g>
<!-- Node5 -->
<g id="Node000005" class="node">
<title>Node5</title>
<g id="a_Node000005"><a xlink:href="class_info_grab_1_1_s_q_lite_handler.html#a2ede45dfc58996a373e0159446a881e2" target="_top" xlink:title="Reads the specified table and returns a boolean indicating success or failure.">
<polygon fill="white" stroke="#666666" points="330.88,-79.88 185.12,-79.88 185.12,-49.38 330.88,-49.38 330.88,-79.88"/>
<text text-anchor="start" x="193.12" y="-66.38" font-family="Helvetica,sans-Serif" font-size="10.00">InfoGrab.SQLiteHandler.Read</text>
<text text-anchor="middle" x="258" y="-55.12" font-family="Helvetica,sans-Serif" font-size="10.00">Table</text>
</a>
</g>
</g>
<!-- Node1&#45;&gt;Node5 -->
<g id="edge4_Node000001_Node000005" class="edge">
<title>Node1&#45;&gt;Node5</title>
<g id="a_edge4_Node000001_Node000005"><a xlink:title=" ">
<path fill="none" stroke="#63b8ff" d="M99.58,-121.9C119.8,-111.87 147.08,-99.03 172,-89.62 177.35,-87.61 182.94,-85.64 188.58,-83.77"/>
<polygon fill="#63b8ff" stroke="#63b8ff" points="189.57,-87.13 198.02,-80.74 187.43,-80.46 189.57,-87.13"/>
</a>
</g>
</g>
<!-- Node6 -->
<g id="Node000006" class="node">
<title>Node6</title>
<g id="a_Node000006"><a xlink:href="class_info_grab_1_1_s_q_lite_handler.html#a50ac748c0c8463acd55e8767c2abfaf6" target="_top" xlink:title="Reads a table from the specified offset and populates the table entries.">
<polygon fill="white" stroke="#666666" points="525.75,-79.88 380,-79.88 380,-49.38 525.75,-49.38 525.75,-79.88"/>
<text text-anchor="start" x="388" y="-66.38" font-family="Helvetica,sans-Serif" font-size="10.00">InfoGrab.SQLiteHandler.Read</text>
<text text-anchor="middle" x="452.88" y="-55.12" font-family="Helvetica,sans-Serif" font-size="10.00">TableFromOffset</text>
</a>
</g>
</g>
<!-- Node5&#45;&gt;Node6 -->
<g id="edge5_Node000005_Node000006" class="edge">
<title>Node5&#45;&gt;Node6</title>
<g id="a_edge5_Node000005_Node000006"><a xlink:title=" ">
<path fill="none" stroke="#63b8ff" d="M331.37,-64.62C343.48,-64.62 356.13,-64.62 368.5,-64.62"/>
<polygon fill="#63b8ff" stroke="#63b8ff" points="368.23,-68.13 378.23,-64.63 368.23,-61.13 368.23,-68.13"/>
</a>
</g>
</g>
<!-- Node6&#45;&gt;Node6 -->
<g id="edge10_Node000006_Node000006" class="edge">
<title>Node6&#45;&gt;Node6</title>
<g id="a_edge10_Node000006_Node000006"><a xlink:title=" ">
<path fill="none" stroke="#63b8ff" d="M419.67,-80.36C412.9,-89.43 423.96,-97.88 452.88,-97.88 468.69,-97.88 479.16,-95.35 484.3,-91.58"/>
<polygon fill="#63b8ff" stroke="#63b8ff" points="487.73,-92.28 485.84,-81.86 480.82,-91.18 487.73,-92.28"/>
</a>
</g>
</g>
<!-- Node7 -->
<g id="Node000007" class="node">
<title>Node7</title>
<g id="a_Node000007"><a xlink:href="class_info_grab_1_1_s_q_lite_handler.html#a49875eb1d8c88c7c501d4f6cdf231f2b" target="_top" xlink:title="Converts a sequence of bytes to an unsigned integer.">
<polygon fill="white" stroke="#666666" points="718.75,-141.88 561.75,-141.88 561.75,-111.38 718.75,-111.38 718.75,-141.88"/>
<text text-anchor="start" x="569.75" y="-128.38" font-family="Helvetica,sans-Serif" font-size="10.00">InfoGrab.SQLiteHandler.Convert</text>
<text text-anchor="middle" x="640.25" y="-117.12" font-family="Helvetica,sans-Serif" font-size="10.00">ToInteger</text>
</a>
</g>
</g>
<!-- Node6&#45;&gt;Node7 -->
<g id="edge6_Node000006_Node000007" class="edge">
<title>Node6&#45;&gt;Node7</title>
<g id="a_edge6_Node000006_Node000007"><a xlink:title=" ">
<path fill="none" stroke="#63b8ff" d="M497.31,-80.35C516.93,-87.35 540.45,-95.58 561.75,-102.62 566.54,-104.21 571.51,-105.82 576.52,-107.42"/>
<polygon fill="#63b8ff" stroke="#63b8ff" points="575.44,-110.75 586.03,-110.43 577.55,-104.08 575.44,-110.75"/>
</a>
</g>
</g>
<!-- Node8 -->
<g id="Node000008" class="node">
<title>Node8</title>
<g id="a_Node000008"><a xlink:href="class_info_grab_1_1_s_q_lite_handler.html#a633e4f2a42497bab44077194ca88656f" target="_top" xlink:title="Converts a range of bytes to a long integer and returns the result.">
<polygon fill="white" stroke="#666666" points="711.25,-93.25 569.25,-93.25 569.25,-74 711.25,-74 711.25,-93.25"/>
<text text-anchor="middle" x="640.25" y="-79.75" font-family="Helvetica,sans-Serif" font-size="10.00">InfoGrab.SQLiteHandler.CVL</text>
</a>
</g>
</g>
<!-- Node6&#45;&gt;Node8 -->
<g id="edge7_Node000006_Node000008" class="edge">
<title>Node6&#45;&gt;Node8</title>
<g id="a_edge7_Node000006_Node000008"><a xlink:title=" ">
<path fill="none" stroke="#63b8ff" d="M526.08,-72.03C536.38,-73.08 547.04,-74.17 557.51,-75.25"/>
<polygon fill="#63b8ff" stroke="#63b8ff" points="556.96,-78.71 567.26,-76.25 557.67,-71.75 556.96,-78.71"/>
</a>
</g>
</g>
<!-- Node9 -->
<g id="Node000009" class="node">
<title>Node9</title>
<g id="a_Node000009"><a xlink:href="class_info_grab_1_1_s_q_lite_handler.html#afea6448b1f2f481398b3d8f911049112" target="_top" xlink:title="Returns the index of the first non&#45;128 byte in the array starting from the specified index.">
<polygon fill="white" stroke="#666666" points="711.25,-56.25 569.25,-56.25 569.25,-37 711.25,-37 711.25,-56.25"/>
<text text-anchor="middle" x="640.25" y="-42.75" font-family="Helvetica,sans-Serif" font-size="10.00">InfoGrab.SQLiteHandler.GVL</text>
</a>
</g>
</g>
<!-- Node6&#45;&gt;Node9 -->
<g id="edge8_Node000006_Node000009" class="edge">
<title>Node6&#45;&gt;Node9</title>
<g id="a_edge8_Node000006_Node000009"><a xlink:title=" ">
<path fill="none" stroke="#63b8ff" d="M526.08,-57.61C536.38,-56.61 547.04,-55.58 557.51,-54.56"/>
<polygon fill="#63b8ff" stroke="#63b8ff" points="557.65,-58.07 567.26,-53.62 556.97,-51.1 557.65,-58.07"/>
</a>
</g>
</g>
<!-- Node10 -->
<g id="Node000010" class="node">
<title>Node10</title>
<g id="a_Node000010"><a xlink:href="class_info_grab_1_1_s_q_lite_handler.html#a475267e2c0435ef96e6342edd1492fa6" target="_top" xlink:title="Determines if the given value is odd.">
<polygon fill="white" stroke="#666666" points="714.62,-19.25 565.88,-19.25 565.88,0 714.62,0 714.62,-19.25"/>
<text text-anchor="middle" x="640.25" y="-5.75" font-family="Helvetica,sans-Serif" font-size="10.00">InfoGrab.SQLiteHandler.IsOdd</text>
</a>
</g>
</g>
<!-- Node6&#45;&gt;Node10 -->
<g id="edge9_Node000006_Node000010" class="edge">
<title>Node6&#45;&gt;Node10</title>
<g id="a_edge9_Node000006_Node000010"><a xlink:title=" ">
<path fill="none" stroke="#63b8ff" d="M496.34,-48.94C516.08,-41.94 539.96,-33.88 561.75,-27.62 568.04,-25.82 574.67,-24.07 581.28,-22.41"/>
<polygon fill="#63b8ff" stroke="#63b8ff" points="581.98,-25.84 590.86,-20.07 580.32,-19.04 581.98,-25.84"/>
</a>
</g>
</g>
</g>
</svg>

<g id="navigator" transform="translate(0 0)" fill="#404254">
  <rect fill="#f2f5e9" fill-opacity="0.5" stroke="#606060" stroke-width=".5" x="0" y="0" width="60" height="60"/>
  <use id="zoomplus" xlink:href="#zoomPlus" x="17" y="9" onmousedown="handleZoom(evt,'in')"/>
  <use id="zoomminus" xlink:href="#zoomMin" x="42" y="9" onmousedown="handleZoom(evt,'out')"/>
  <use id="reset" xlink:href="#resetDef" x="30" y="36" onmousedown="handleReset()"/>
   <use id="arrowup" xlink:href="#arrowUp" x="0" y="0" onmousedown="handlePan(0,-1)"/>
  <use id="arrowright" xlink:href="#arrowRight" x="0" y="0" onmousedown="handlePan(1,0)"/>
  <use id="arrowdown" xlink:href="#arrowDown" x="0" y="0" onmousedown="handlePan(0,1)"/>
  <use id="arrowleft" xlink:href="#arrowLeft" x="0" y="0" onmousedown="handlePan(-1,0)"/>
</g>
<svg viewBox="0 0 15 15" width="100%" height="30px" preserveAspectRatio="xMaxYMin meet">
 <g id="arrow_out" transform="scale(0.3 0.3)">
  <a xlink:href="class_plugin_1_1_chromium_a83d5541d95f12fe32767b63d8a0dbd63_cgraph_org.svg" target="_base">
   <rect id="button" ry="5" rx="5" y="6" x="6" height="38" width="38"
        fill="#f2f5e9" fill-opacity="0.5" stroke="#606060" stroke-width="1.0"/>
   <path id="arrow"
     d="M 11.500037,31.436501 C 11.940474,20.09759 22.043105,11.32322 32.158766,21.979434 L 37.068811,17.246167 C 37.068811,17.246167 37.088388,32 37.088388,32 L 22.160133,31.978069 C 22.160133,31.978069 26.997745,27.140456 26.997745,27.140456 C 18.528582,18.264221 13.291696,25.230495 11.500037,31.436501 z"
     style="fill:#404040;"/>
  </a>
 </g>
</svg>

<style type='text/css'>
<![CDATA[
[data-mouse-over-selected='false'] { opacity: 0.7; }
[data-mouse-over-selected='true']  { opacity: 1.0; }
]]>
</style>
<script type="application/ecmascript"><![CDATA[
document.addEventListener('DOMContentLoaded', (event) => {
  highlightEdges();
  highlightAdjacentNodes();
});
]]></script>
</svg>
