<?xml version="1.0" encoding="UTF-8" standalone="no"?>
<!DOCTYPE svg PUBLIC "-//W3C//DTD SVG 1.1//EN"
 "http://www.w3.org/Graphics/SVG/1.1/DTD/svg11.dtd">
<!-- Generated by graphviz version 10.0.1 (20240210.2158)
 -->
<!-- Title: NAudio.Dsp.WdlResampler.ResampleOut Pages: 1 -->
<!--zoomable 289 -->

<svg id="main" version="1.1" xmlns="http://www.w3.org/2000/svg" xmlns:xlink="http://www.w3.org/1999/xlink" xml:space="preserve" onload="init(evt)">
<style type="text/css"><![CDATA[
.node, .edge {opacity: 0.7;}
.node.selected, .edge.selected {opacity: 1;}
.edge:hover path { stroke: red; }
.edge:hover polygon { stroke: red; fill: red; }
]]></style>

<defs>
  <circle id="rim" cx="0" cy="0" r="7"/>
  <circle id="rim2" cx="0" cy="0" r="3.5"/>
  <g id="zoomPlus">
    <use xlink:href="#rim" fill="#404040"><set attributeName="fill" to="#808080" begin="zoomplus.mouseover" end="zoomplus.mouseout"/></use>
    <path d="M-4,0h8M0,-4v8" fill="none" stroke="white" stroke-width="1.5" pointer-events="none"/>
  </g>
  <g id="zoomMin">
    <use xlink:href="#rim" fill="#404040"><set attributeName="fill" to="#808080" begin="zoomminus.mouseover" end="zoomminus.mouseout"/></use>
    <path d="M-4,0h8" fill="none" stroke="white" stroke-width="1.5" pointer-events="none"/>
  </g>
  <g id="arrowUp" transform="translate(30 24)">
    <use xlink:href="#rim"/>
    <path pointer-events="none" fill="none" stroke="white" stroke-width="1.5" d="M0,-3.0v7 M-2.5,-0.5L0,-3.0L2.5,-0.5"/>
  </g>
  <g id="arrowRight" transform="rotate(90) translate(36 -43)">
    <use xlink:href="#rim"/>
    <path pointer-events="none" fill="none" stroke="white" stroke-width="1.5" d="M0,-3.0v7 M-2.5,-0.5L0,-3.0L2.5,-0.5"/>
  </g>
  <g id="arrowDown" transform="rotate(180) translate(-30 -48)">
    <use xlink:href="#rim"/>
    <path pointer-events="none" fill="none" stroke="white" stroke-width="1.5" d="M0,-3.0v7 M-2.5,-0.5L0,-3.0L2.5,-0.5"/>
  </g>
  <g id="arrowLeft" transform="rotate(270) translate(-36 17)">
    <use xlink:href="#rim"/>
    <path pointer-events="none" fill="none" stroke="white" stroke-width="1.5" d="M0,-3.0v7 M-2.5,-0.5L0,-3.0L2.5,-0.5"/>
  </g>
  <g id="resetDef">
    <use xlink:href="#rim2" fill="#404040"><set attributeName="fill" to="#808080" begin="reset.mouseover" end="reset.mouseout"/></use>
  </g>
</defs>
<script type="application/ecmascript">
var viewWidth = 568;
var viewHeight = 289;
var sectionId = 'dynsection-3';
</script>
<script type="application/ecmascript" xlink:href="svg.min.js"/>
<svg id="graph" class="graph">
<g id="viewport">
<title>NAudio.Dsp.WdlResampler.ResampleOut</title>
<!-- Node1 -->
<g id="Node000001" class="node">
<title>Node1</title>
<g id="a_Node000001"><a xlink:title="Resamples the input buffer to the output buffer based on the given parameters and returns the number ...">
<polygon fill="#999999" stroke="#666666" points="139,-152.5 0,-152.5 0,-122 139,-122 139,-152.5"/>
<text text-anchor="start" x="8" y="-139" font-family="Helvetica,sans-Serif" font-size="10.00">NAudio.Dsp.WdlResampler.</text>
<text text-anchor="middle" x="69.5" y="-127.75" font-family="Helvetica,sans-Serif" font-size="10.00">ResampleOut</text>
</a>
</g>
</g>
<!-- Node2 -->
<g id="Node000002" class="node">
<title>Node2</title>
<g id="a_Node000002"><a xlink:href="class_n_audio_1_1_dsp_1_1_wdl_resampler_1_1_w_d_l___resampler___i_i_r_filter.html#ac7881f23e3aea7b35774e35bbc417e8f" target="_top" xlink:title="Applies a filter to the input buffer and stores the result in the output buffer.">
<polygon fill="white" stroke="#666666" points="342.12,-275.5 183.62,-275.5 183.62,-245 342.12,-245 342.12,-275.5"/>
<text text-anchor="start" x="191.62" y="-262" font-family="Helvetica,sans-Serif" font-size="10.00">NAudio.Dsp.WdlResampler.</text>
<text text-anchor="middle" x="262.88" y="-250.75" font-family="Helvetica,sans-Serif" font-size="10.00">WDL_Resampler_IIRFilter.Apply</text>
</a>
</g>
</g>
<!-- Node1&#45;&gt;Node2 -->
<g id="edge1_Node000001_Node000002" class="edge">
<title>Node1&#45;&gt;Node2</title>
<g id="a_edge1_Node000001_Node000002"><a xlink:title=" ">
<path fill="none" stroke="#63b8ff" d="M82.97,-152.91C101.02,-174.54 136.51,-213.38 175,-235.25 178.14,-237.03 181.41,-238.7 184.78,-240.25"/>
<polygon fill="#63b8ff" stroke="#63b8ff" points="183.11,-243.35 193.68,-244 185.82,-236.89 183.11,-243.35"/>
</a>
</g>
</g>
<!-- Node4 -->
<g id="Node000004" class="node">
<title>Node4</title>
<g id="a_Node000004"><a xlink:href="class_n_audio_1_1_dsp_1_1_wdl_resampler.html#aa60e6a4f8c5057ec8e302cf2fa35cd86" target="_top" xlink:title="Builds a lowpass filter based on the given filter position.">
<polygon fill="white" stroke="#666666" points="332.38,-226.5 193.38,-226.5 193.38,-196 332.38,-196 332.38,-226.5"/>
<text text-anchor="start" x="201.38" y="-213" font-family="Helvetica,sans-Serif" font-size="10.00">NAudio.Dsp.WdlResampler.</text>
<text text-anchor="middle" x="262.88" y="-201.75" font-family="Helvetica,sans-Serif" font-size="10.00">BuildLowPass</text>
</a>
</g>
</g>
<!-- Node1&#45;&gt;Node4 -->
<g id="edge3_Node000001_Node000004" class="edge">
<title>Node1&#45;&gt;Node4</title>
<g id="a_edge3_Node000001_Node000004"><a xlink:title=" ">
<path fill="none" stroke="#63b8ff" d="M100.59,-152.91C121.18,-163.24 149.3,-176.6 175,-186.25 180.37,-188.27 185.98,-190.22 191.65,-192.08"/>
<polygon fill="#63b8ff" stroke="#63b8ff" points="190.55,-195.4 201.14,-195.09 192.67,-188.73 190.55,-195.4"/>
</a>
</g>
</g>
<!-- Node5 -->
<g id="Node000005" class="node">
<title>Node5</title>
<g id="a_Node000005"><a xlink:href="class_n_audio_1_1_dsp_1_1_wdl_resampler_1_1_w_d_l___resampler___i_i_r_filter.html#a3a8818d6e72312920ad0832573772904" target="_top" xlink:title="Sets the parameters for the filter.">
<polygon fill="white" stroke="#666666" points="350.75,-177.5 175,-177.5 175,-147 350.75,-147 350.75,-177.5"/>
<text text-anchor="start" x="183" y="-164" font-family="Helvetica,sans-Serif" font-size="10.00">NAudio.Dsp.WdlResampler.</text>
<text text-anchor="middle" x="262.88" y="-152.75" font-family="Helvetica,sans-Serif" font-size="10.00">WDL_Resampler_IIRFilter.setParms</text>
</a>
</g>
</g>
<!-- Node1&#45;&gt;Node5 -->
<g id="edge4_Node000001_Node000005" class="edge">
<title>Node1&#45;&gt;Node5</title>
<g id="a_edge4_Node000001_Node000005"><a xlink:title=" ">
<path fill="none" stroke="#63b8ff" d="M139.32,-146.24C147.2,-147.27 155.35,-148.33 163.52,-149.4"/>
<polygon fill="#63b8ff" stroke="#63b8ff" points="162.79,-152.84 173.16,-150.66 163.7,-145.9 162.79,-152.84"/>
</a>
</g>
</g>
<!-- Node6 -->
<g id="Node000006" class="node">
<title>Node6</title>
<g id="a_Node000006"><a xlink:href="class_n_audio_1_1_dsp_1_1_wdl_resampler.html#ad03b87b375e513fedb9afc228db73cdc" target="_top" xlink:title="Performs sample rate conversion using sinc interpolation.">
<polygon fill="white" stroke="#666666" points="332.38,-128.5 193.38,-128.5 193.38,-98 332.38,-98 332.38,-128.5"/>
<text text-anchor="start" x="201.38" y="-115" font-family="Helvetica,sans-Serif" font-size="10.00">NAudio.Dsp.WdlResampler.</text>
<text text-anchor="middle" x="262.88" y="-103.75" font-family="Helvetica,sans-Serif" font-size="10.00">SincSample</text>
</a>
</g>
</g>
<!-- Node1&#45;&gt;Node6 -->
<g id="edge5_Node000001_Node000006" class="edge">
<title>Node1&#45;&gt;Node6</title>
<g id="a_edge5_Node000001_Node000006"><a xlink:title=" ">
<path fill="none" stroke="#63b8ff" d="M139.32,-128.62C153.1,-126.89 167.69,-125.06 181.82,-123.29"/>
<polygon fill="#63b8ff" stroke="#63b8ff" points="182.03,-126.79 191.52,-122.07 181.16,-119.84 182.03,-126.79"/>
</a>
</g>
</g>
<!-- Node7 -->
<g id="Node000007" class="node">
<title>Node7</title>
<g id="a_Node000007"><a xlink:href="class_n_audio_1_1_dsp_1_1_wdl_resampler.html#adeaf32603f012456f0095f7fc326e08b" target="_top" xlink:title="Performs sinc resampling on the input buffer and writes the result to the output buffer at the specif...">
<polygon fill="white" stroke="#666666" points="332.38,-79.5 193.38,-79.5 193.38,-49 332.38,-49 332.38,-79.5"/>
<text text-anchor="start" x="201.38" y="-66" font-family="Helvetica,sans-Serif" font-size="10.00">NAudio.Dsp.WdlResampler.</text>
<text text-anchor="middle" x="262.88" y="-54.75" font-family="Helvetica,sans-Serif" font-size="10.00">SincSample1</text>
</a>
</g>
</g>
<!-- Node1&#45;&gt;Node7 -->
<g id="edge6_Node000001_Node000007" class="edge">
<title>Node1&#45;&gt;Node7</title>
<g id="a_edge6_Node000001_Node000007"><a xlink:title=" ">
<path fill="none" stroke="#63b8ff" d="M101.53,-121.5C122.05,-111.46 149.73,-98.63 175,-89.25 180.61,-87.17 186.48,-85.15 192.4,-83.23"/>
<polygon fill="#63b8ff" stroke="#63b8ff" points="193.14,-86.66 201.63,-80.32 191.04,-79.99 193.14,-86.66"/>
</a>
</g>
</g>
<!-- Node8 -->
<g id="Node000008" class="node">
<title>Node8</title>
<g id="a_Node000008"><a xlink:href="class_n_audio_1_1_dsp_1_1_wdl_resampler.html#afb22bedf8c8e13d86435293889067753" target="_top" xlink:title="Performs a sinc resampling of the input buffer and stores the result in the output buffer.">
<polygon fill="white" stroke="#666666" points="332.38,-30.5 193.38,-30.5 193.38,0 332.38,0 332.38,-30.5"/>
<text text-anchor="start" x="201.38" y="-17" font-family="Helvetica,sans-Serif" font-size="10.00">NAudio.Dsp.WdlResampler.</text>
<text text-anchor="middle" x="262.88" y="-5.75" font-family="Helvetica,sans-Serif" font-size="10.00">SincSample2</text>
</a>
</g>
</g>
<!-- Node1&#45;&gt;Node8 -->
<g id="edge7_Node000001_Node000008" class="edge">
<title>Node1&#45;&gt;Node8</title>
<g id="a_edge7_Node000001_Node000008"><a xlink:title=" ">
<path fill="none" stroke="#63b8ff" d="M83.01,-121.76C101.1,-100.35 136.64,-61.92 175,-40.25 178.14,-38.47 181.42,-36.82 184.79,-35.27"/>
<polygon fill="#63b8ff" stroke="#63b8ff" points="185.83,-38.63 193.7,-31.54 183.12,-32.17 185.83,-38.63"/>
</a>
</g>
</g>
<!-- Node3 -->
<g id="Node000003" class="node">
<title>Node3</title>
<g id="a_Node000003"><a xlink:href="class_n_audio_1_1_dsp_1_1_wdl_resampler_1_1_w_d_l___resampler___i_i_r_filter.html#a37e35f342194c9b64bff423dfc244574" target="_top" xlink:title="Filters the input value to prevent denormalization and returns the filtered value.">
<polygon fill="white" stroke="#666666" points="560.25,-281.12 386.75,-281.12 386.75,-239.38 560.25,-239.38 560.25,-281.12"/>
<text text-anchor="start" x="394.75" y="-267.62" font-family="Helvetica,sans-Serif" font-size="10.00">NAudio.Dsp.WdlResampler.</text>
<text text-anchor="start" x="394.75" y="-256.38" font-family="Helvetica,sans-Serif" font-size="10.00">WDL_Resampler_IIRFilter.denormal</text>
<text text-anchor="middle" x="473.5" y="-245.12" font-family="Helvetica,sans-Serif" font-size="10.00">_filter</text>
</a>
</g>
</g>
<!-- Node2&#45;&gt;Node3 -->
<g id="edge2_Node000002_Node000003" class="edge">
<title>Node2&#45;&gt;Node3</title>
<g id="a_edge2_Node000002_Node000003"><a xlink:title=" ">
<path fill="none" stroke="#63b8ff" d="M342.45,-260.25C353.08,-260.25 364.09,-260.25 375,-260.25"/>
<polygon fill="#63b8ff" stroke="#63b8ff" points="374.8,-263.75 384.8,-260.25 374.8,-256.75 374.8,-263.75"/>
</a>
</g>
</g>
</g>
</svg>

<g id="navigator" transform="translate(0 0)" fill="#404254">
  <rect fill="#f2f5e9" fill-opacity="0.5" stroke="#606060" stroke-width=".5" x="0" y="0" width="60" height="60"/>
  <use id="zoomplus" xlink:href="#zoomPlus" x="17" y="9" onmousedown="handleZoom(evt,'in')"/>
  <use id="zoomminus" xlink:href="#zoomMin" x="42" y="9" onmousedown="handleZoom(evt,'out')"/>
  <use id="reset" xlink:href="#resetDef" x="30" y="36" onmousedown="handleReset()"/>
   <use id="arrowup" xlink:href="#arrowUp" x="0" y="0" onmousedown="handlePan(0,-1)"/>
  <use id="arrowright" xlink:href="#arrowRight" x="0" y="0" onmousedown="handlePan(1,0)"/>
  <use id="arrowdown" xlink:href="#arrowDown" x="0" y="0" onmousedown="handlePan(0,1)"/>
  <use id="arrowleft" xlink:href="#arrowLeft" x="0" y="0" onmousedown="handlePan(-1,0)"/>
</g>
<svg viewBox="0 0 15 15" width="100%" height="30px" preserveAspectRatio="xMaxYMin meet">
 <g id="arrow_out" transform="scale(0.3 0.3)">
  <a xlink:href="class_n_audio_1_1_dsp_1_1_wdl_resampler_a4e017f4e931cdc4c9a1b445064063d10_cgraph_org.svg" target="_base">
   <rect id="button" ry="5" rx="5" y="6" x="6" height="38" width="38"
        fill="#f2f5e9" fill-opacity="0.5" stroke="#606060" stroke-width="1.0"/>
   <path id="arrow"
     d="M 11.500037,31.436501 C 11.940474,20.09759 22.043105,11.32322 32.158766,21.979434 L 37.068811,17.246167 C 37.068811,17.246167 37.088388,32 37.088388,32 L 22.160133,31.978069 C 22.160133,31.978069 26.997745,27.140456 26.997745,27.140456 C 18.528582,18.264221 13.291696,25.230495 11.500037,31.436501 z"
     style="fill:#404040;"/>
  </a>
 </g>
</svg>

<style type='text/css'>
<![CDATA[
[data-mouse-over-selected='false'] { opacity: 0.7; }
[data-mouse-over-selected='true']  { opacity: 1.0; }
]]>
</style>
<script type="application/ecmascript"><![CDATA[
document.addEventListener('DOMContentLoaded', (event) => {
  highlightEdges();
  highlightAdjacentNodes();
});
]]></script>
</svg>
