<?xml version="1.0" encoding="UTF-8" standalone="no"?>
<!DOCTYPE svg PUBLIC "-//W3C//DTD SVG 1.1//EN"
 "http://www.w3.org/Graphics/SVG/1.1/DTD/svg11.dtd">
<!-- Generated by graphviz version 10.0.1 (20240210.2158)
 -->
<!-- Title: NAudio.Dmo.MediaObject.GetOutputType Pages: 1 -->
<svg width="336pt" height="88pt"
 viewBox="0.00 0.00 335.50 87.50" xmlns="http://www.w3.org/2000/svg" xmlns:xlink="http://www.w3.org/1999/xlink">
<g id="graph0" class="graph" transform="scale(1 1) rotate(0) translate(4 83.5)">
<title>NAudio.Dmo.MediaObject.GetOutputType</title>
<!-- Node1 -->
<g id="Node000001" class="node">
<title>Node1</title>
<g id="a_Node000001"><a xlink:title="Retrieves the output type for a specified output stream and output type index.">
<polygon fill="#999999" stroke="#666666" points="148.75,-54.5 0,-54.5 0,-24 148.75,-24 148.75,-54.5"/>
<text text-anchor="start" x="8" y="-41" font-family="Helvetica,sans-Serif" font-size="10.00">NAudio.Dmo.MediaObject.Get</text>
<text text-anchor="middle" x="74.38" y="-29.75" font-family="Helvetica,sans-Serif" font-size="10.00">OutputType</text>
</a>
</g>
</g>
<!-- Node2 -->
<g id="Node000002" class="node">
<title>Node2</title>
<g id="a_Node000002"><a xlink:href="interface_n_audio_1_1_dmo_1_1_i_media_object.html#a3257a93e0facfc0aabf28a048e410868" target="_top" xlink:title=" ">
<polygon fill="white" stroke="#666666" points="324.12,-79.5 188.12,-79.5 188.12,-49 324.12,-49 324.12,-79.5"/>
<text text-anchor="start" x="196.12" y="-66" font-family="Helvetica,sans-Serif" font-size="10.00">NAudio.Dmo.IMediaObject.</text>
<text text-anchor="middle" x="256.12" y="-54.75" font-family="Helvetica,sans-Serif" font-size="10.00">GetOutputType</text>
</a>
</g>
</g>
<!-- Node1&#45;&gt;Node2 -->
<g id="edge1_Node000001_Node000002" class="edge">
<title>Node1&#45;&gt;Node2</title>
<g id="a_edge1_Node000001_Node000002"><a xlink:title=" ">
<path fill="none" stroke="#63b8ff" d="M149,-49.49C158,-50.74 167.23,-52.02 176.3,-53.29"/>
<polygon fill="#63b8ff" stroke="#63b8ff" points="175.79,-56.75 186.18,-54.66 176.76,-49.82 175.79,-56.75"/>
</a>
</g>
</g>
<!-- Node3 -->
<g id="Node000003" class="node">
<title>Node3</title>
<g id="a_Node000003"><a xlink:href="class_n_audio_1_1_dmo_1_1_dmo_interop.html#ad2f97604a7b1abe4bd3071b60f53f44b" target="_top" xlink:title="Frees the memory associated with the specified Direct Media Object (DMO) media type.">
<polygon fill="white" stroke="#666666" points="327.5,-30.5 184.75,-30.5 184.75,0 327.5,0 327.5,-30.5"/>
<text text-anchor="start" x="192.75" y="-17" font-family="Helvetica,sans-Serif" font-size="10.00">NAudio.Dmo.DmoInterop.Mo</text>
<text text-anchor="middle" x="256.12" y="-5.75" font-family="Helvetica,sans-Serif" font-size="10.00">FreeMediaType</text>
</a>
</g>
</g>
<!-- Node1&#45;&gt;Node3 -->
<g id="edge2_Node000001_Node000003" class="edge">
<title>Node1&#45;&gt;Node3</title>
<g id="a_edge2_Node000001_Node000003"><a xlink:title=" ">
<path fill="none" stroke="#63b8ff" d="M149,-29.42C156.98,-28.35 165.13,-27.27 173.19,-26.19"/>
<polygon fill="#63b8ff" stroke="#63b8ff" points="173.56,-29.67 183.01,-24.88 172.63,-22.73 173.56,-29.67"/>
</a>
</g>
</g>
</g>
</svg>
