<?xml version="1.0" encoding="UTF-8" standalone="no"?>
<!DOCTYPE svg PUBLIC "-//W3C//DTD SVG 1.1//EN"
 "http://www.w3.org/Graphics/SVG/1.1/DTD/svg11.dtd">
<!-- Generated by graphviz version 10.0.1 (20240210.2158)
 -->
<!-- Title: NAudio.Wave.WaveFormatConversionProvider.~WaveFormatConversionProvider Pages: 1 -->
<svg width="429pt" height="57pt"
 viewBox="0.00 0.00 429.25 56.50" xmlns="http://www.w3.org/2000/svg" xmlns:xlink="http://www.w3.org/1999/xlink">
<g id="graph0" class="graph" transform="scale(1 1) rotate(0) translate(4 52.5)">
<title>NAudio.Wave.WaveFormatConversionProvider.~WaveFormatConversionProvider</title>
<!-- Node1 -->
<g id="Node000001" class="node">
<title>Node1</title>
<g id="a_Node000001"><a xlink:title="Finalizer.">
<polygon fill="#999999" stroke="#666666" points="201.25,-30.5 0,-30.5 0,0 201.25,0 201.25,-30.5"/>
<text text-anchor="start" x="8" y="-17" font-family="Helvetica,sans-Serif" font-size="10.00">NAudio.Wave.WaveFormatConversion</text>
<text text-anchor="middle" x="100.62" y="-5.75" font-family="Helvetica,sans-Serif" font-size="10.00">Provider.~WaveFormatConversionProvider</text>
</a>
</g>
</g>
<!-- Node2 -->
<g id="Node000002" class="node">
<title>Node2</title>
<g id="a_Node000002"><a xlink:href="class_n_audio_1_1_wave_1_1_wave_format_conversion_provider.html#a12839140eaec16fcc25324956aff724a" target="_top" xlink:title="Disposes this resource.">
<polygon fill="white" stroke="#666666" points="421.25,-30.5 237.25,-30.5 237.25,0 421.25,0 421.25,-30.5"/>
<text text-anchor="start" x="245.25" y="-17" font-family="Helvetica,sans-Serif" font-size="10.00">NAudio.Wave.WaveFormatConversion</text>
<text text-anchor="middle" x="329.25" y="-5.75" font-family="Helvetica,sans-Serif" font-size="10.00">Provider.Dispose</text>
</a>
</g>
</g>
<!-- Node1&#45;&gt;Node2 -->
<g id="edge1_Node000001_Node000002" class="edge">
<title>Node1&#45;&gt;Node2</title>
<g id="a_edge1_Node000001_Node000002"><a xlink:title=" ">
<path fill="none" stroke="#63b8ff" d="M201.69,-15.25C209.66,-15.25 217.73,-15.25 225.73,-15.25"/>
<polygon fill="#63b8ff" stroke="#63b8ff" points="225.45,-18.75 235.45,-15.25 225.45,-11.75 225.45,-18.75"/>
</a>
</g>
</g>
<!-- Node2&#45;&gt;Node2 -->
<g id="edge2_Node000002_Node000002" class="edge">
<title>Node2&#45;&gt;Node2</title>
<g id="a_edge2_Node000002_Node000002"><a xlink:title=" ">
<path fill="none" stroke="#63b8ff" d="M288.74,-30.99C280.47,-40.06 293.97,-48.5 329.25,-48.5 348.54,-48.5 361.32,-45.97 367.59,-42.2"/>
<polygon fill="#63b8ff" stroke="#63b8ff" points="371.01,-42.95 369.47,-32.47 364.14,-41.62 371.01,-42.95"/>
</a>
</g>
</g>
</g>
</svg>
