<?xml version="1.0" encoding="UTF-8" standalone="no"?>
<!DOCTYPE svg PUBLIC "-//W3C//DTD SVG 1.1//EN"
 "http://www.w3.org/Graphics/SVG/1.1/DTD/svg11.dtd">
<!-- Generated by graphviz version 10.0.1 (20240210.2158)
 -->
<!-- Title: NAudio.Wave.Mp3Frame.LoadFromStream Pages: 1 -->
<svg width="339pt" height="88pt"
 viewBox="0.00 0.00 338.50 87.50" xmlns="http://www.w3.org/2000/svg" xmlns:xlink="http://www.w3.org/1999/xlink">
<g id="graph0" class="graph" transform="scale(1 1) rotate(0) translate(4 83.5)">
<title>NAudio.Wave.Mp3Frame.LoadFromStream</title>
<!-- Node1 -->
<g id="Node000001" class="node">
<title>Node1</title>
<g id="a_Node000001"><a xlink:title="Loads an MP3 frame from the given input stream and returns the frame.">
<polygon fill="#999999" stroke="#666666" points="330.5,-54.5 181,-54.5 181,-24 330.5,-24 330.5,-54.5"/>
<text text-anchor="start" x="189" y="-41" font-family="Helvetica,sans-Serif" font-size="10.00">NAudio.Wave.Mp3Frame.Load</text>
<text text-anchor="middle" x="255.75" y="-29.75" font-family="Helvetica,sans-Serif" font-size="10.00">FromStream</text>
</a>
</g>
</g>
<!-- Node1&#45;&gt;Node1 -->
<g id="edge1_Node000001_Node000001" class="edge">
<title>Node1&#45;&gt;Node1</title>
<g id="a_edge1_Node000001_Node000001"><a xlink:title=" ">
<path fill="none" stroke="#63b8ff" d="M286.48,-66.2C281.46,-69.97 271.21,-72.5 255.75,-72.5 227.48,-72.5 216.65,-64.06 223.28,-54.99"/>
<polygon fill="#63b8ff" stroke="#63b8ff" points="289.91,-66.9 287.99,-56.48 283,-65.83 289.91,-66.9"/>
</a>
</g>
</g>
<!-- Node2 -->
<g id="Node000002" class="node">
<title>Node2</title>
<g id="a_Node000002"><a xlink:href="class_n_audio_1_1_wave_1_1_mp3_file_reader_base.html#a4ef942cc623142a9827edcff17f55e12" target="_top" xlink:title=" ">
<polygon fill="white" stroke="#666666" points="145,-79.5 0,-79.5 0,-49 145,-49 145,-79.5"/>
<text text-anchor="start" x="8" y="-66" font-family="Helvetica,sans-Serif" font-size="10.00">NAudio.Wave.Mp3FileReader</text>
<text text-anchor="middle" x="72.5" y="-54.75" font-family="Helvetica,sans-Serif" font-size="10.00">Base.Mp3FileReaderBase</text>
</a>
</g>
</g>
<!-- Node1&#45;&gt;Node2 -->
<g id="edge2_Node000001_Node000002" class="edge">
<title>Node1&#45;&gt;Node2</title>
<g id="a_edge2_Node000001_Node000002"><a xlink:title=" ">
<path fill="none" stroke="#63b8ff" d="M169.24,-51.04C161.22,-52.15 153.16,-53.26 145.29,-54.35"/>
<polygon fill="#63b8ff" stroke="#63b8ff" points="169.58,-54.53 179.01,-49.7 168.62,-47.6 169.58,-54.53"/>
</a>
</g>
</g>
<!-- Node3 -->
<g id="Node000003" class="node">
<title>Node3</title>
<g id="a_Node000003"><a xlink:href="class_n_audio_1_1_wave_1_1_mp3_file_reader_base.html#abfbcad7d50e469d028937161ec530bc0" target="_top" xlink:title="Reads the next mp3 frame.">
<polygon fill="white" stroke="#666666" points="145,-30.5 0,-30.5 0,0 145,0 145,-30.5"/>
<text text-anchor="start" x="8" y="-17" font-family="Helvetica,sans-Serif" font-size="10.00">NAudio.Wave.Mp3FileReader</text>
<text text-anchor="middle" x="72.5" y="-5.75" font-family="Helvetica,sans-Serif" font-size="10.00">Base.ReadNextFrame</text>
</a>
</g>
</g>
<!-- Node1&#45;&gt;Node3 -->
<g id="edge3_Node000001_Node000003" class="edge">
<title>Node1&#45;&gt;Node3</title>
<g id="a_edge3_Node000001_Node000003"><a xlink:title=" ">
<path fill="none" stroke="#63b8ff" d="M169.24,-27.93C161.22,-26.87 153.16,-25.8 145.29,-24.76"/>
<polygon fill="#63b8ff" stroke="#63b8ff" points="168.63,-31.38 179.01,-29.22 169.55,-24.44 168.63,-31.38"/>
</a>
</g>
</g>
</g>
</svg>
