<?xml version="1.0" encoding="UTF-8" standalone="no"?>
<!DOCTYPE svg PUBLIC "-//W3C//DTD SVG 1.1//EN"
 "http://www.w3.org/Graphics/SVG/1.1/DTD/svg11.dtd">
<!-- Generated by graphviz version 10.0.1 (20240210.2158)
 -->
<!-- Title: NAudio.Dsp.AttRelEnvelope Pages: 1 -->
<svg width="292pt" height="322pt"
 viewBox="0.00 0.00 292.00 322.00" xmlns="http://www.w3.org/2000/svg" xmlns:xlink="http://www.w3.org/1999/xlink">

<svg id="main" version="1.1" xmlns="http://www.w3.org/2000/svg" xmlns:xlink="http://www.w3.org/1999/xlink" xml:space="preserve" onload="init(evt)">
<style type="text/css"><![CDATA[
.node, .edge {opacity: 0.7;}
.node.selected, .edge.selected {opacity: 1;}
.edge:hover path { stroke: red; }
.edge:hover polygon { stroke: red; fill: red; }
]]></style>
<script type="application/ecmascript" xlink:href="svg.min.js"/>
<svg id="graph" class="graph">
<g id="graph0" class="graph" transform="scale(1 1) rotate(0) translate(4 318)">
<title>NAudio.Dsp.AttRelEnvelope</title>
<!-- Node1 -->
<g id="Node000001" class="node">
<title>Node1</title>
<g id="a_Node000001"><a xlink:title=" ">
<polygon fill="#999999" stroke="none" points="216.5,-314 82.5,-314 82.5,-175 216.5,-175 216.5,-314"/>
<text text-anchor="start" x="87.25" y="-300.5" font-family="Helvetica,sans-Serif" font-size="10.00">NAudio.Dsp.AttRelEnvelope</text>
<text text-anchor="start" x="97" y="-285.5" font-family="Helvetica,sans-Serif" font-size="10.00">+</text>
<text text-anchor="start" x="117.5" y="-285.5" font-family="Helvetica,sans-Serif" font-size="10.00">Attack</text>
<text text-anchor="start" x="97" y="-270.5" font-family="Helvetica,sans-Serif" font-size="10.00">+</text>
<text text-anchor="start" x="117.5" y="-270.5" font-family="Helvetica,sans-Serif" font-size="10.00">Release</text>
<text text-anchor="start" x="97" y="-255.5" font-family="Helvetica,sans-Serif" font-size="10.00">+</text>
<text text-anchor="start" x="117.5" y="-255.5" font-family="Helvetica,sans-Serif" font-size="10.00">SampleRate</text>
<text text-anchor="start" x="97.38" y="-240.5" font-family="Helvetica,sans-Serif" font-size="10.00">#</text>
<text text-anchor="start" x="117.5" y="-240.5" font-family="Helvetica,sans-Serif" font-size="10.00">DC_OFFSET</text>
<text text-anchor="start" x="98.5" y="-225.5" font-family="Helvetica,sans-Serif" font-size="10.00">&#45;</text>
<text text-anchor="start" x="117.5" y="-225.5" font-family="Helvetica,sans-Serif" font-size="10.00">attack</text>
<text text-anchor="start" x="98.5" y="-210.5" font-family="Helvetica,sans-Serif" font-size="10.00">&#45;</text>
<text text-anchor="start" x="117.5" y="-210.5" font-family="Helvetica,sans-Serif" font-size="10.00">release</text>
<text text-anchor="start" x="97" y="-195.5" font-family="Helvetica,sans-Serif" font-size="10.00">+</text>
<text text-anchor="start" x="117.5" y="-195.5" font-family="Helvetica,sans-Serif" font-size="10.00">AttRelEnvelope()</text>
<text text-anchor="start" x="97" y="-180.5" font-family="Helvetica,sans-Serif" font-size="10.00">+</text>
<text text-anchor="start" x="117.5" y="-180.5" font-family="Helvetica,sans-Serif" font-size="10.00">Run()</text>
<polygon fill="#666666" stroke="#666666" points="82.5,-297 82.5,-297 216.5,-297 216.5,-297 82.5,-297"/>
<polygon fill="#666666" stroke="#666666" points="82.5,-207 82.5,-207 115.5,-207 115.5,-207 82.5,-207"/>
<polygon fill="#666666" stroke="#666666" points="115.5,-207 115.5,-207 216.5,-207 216.5,-207 115.5,-207"/>
<polygon fill="none" stroke="#666666" points="82.5,-175 82.5,-314 216.5,-314 216.5,-175 82.5,-175"/>
</a>
</g>
</g>
<!-- Node2 -->
<g id="Node000002" class="node">
<title>Node2</title>
<g id="a_Node000002"><a xlink:href="class_n_audio_1_1_dsp_1_1_simple_compressor.html" target="_top" xlink:title=" ">
<polygon fill="white" stroke="none" points="149,-139 0,-139 0,0 149,0 149,-139"/>
<text text-anchor="start" x="4.75" y="-125.5" font-family="Helvetica,sans-Serif" font-size="10.00">NAudio.Dsp.SimpleCompressor</text>
<text text-anchor="start" x="14.5" y="-110.5" font-family="Helvetica,sans-Serif" font-size="10.00">+</text>
<text text-anchor="start" x="35" y="-110.5" font-family="Helvetica,sans-Serif" font-size="10.00">MakeUpGain</text>
<text text-anchor="start" x="14.5" y="-95.5" font-family="Helvetica,sans-Serif" font-size="10.00">+</text>
<text text-anchor="start" x="35" y="-95.5" font-family="Helvetica,sans-Serif" font-size="10.00">Threshold</text>
<text text-anchor="start" x="14.5" y="-80.5" font-family="Helvetica,sans-Serif" font-size="10.00">+</text>
<text text-anchor="start" x="35" y="-80.5" font-family="Helvetica,sans-Serif" font-size="10.00">Ratio</text>
<text text-anchor="start" x="16" y="-65.5" font-family="Helvetica,sans-Serif" font-size="10.00">&#45;</text>
<text text-anchor="start" x="35" y="-65.5" font-family="Helvetica,sans-Serif" font-size="10.00">envdB</text>
<text text-anchor="start" x="14.5" y="-50.5" font-family="Helvetica,sans-Serif" font-size="10.00">+</text>
<text text-anchor="start" x="35" y="-50.5" font-family="Helvetica,sans-Serif" font-size="10.00">SimpleCompressor()</text>
<text text-anchor="start" x="14.5" y="-35.5" font-family="Helvetica,sans-Serif" font-size="10.00">+</text>
<text text-anchor="start" x="35" y="-35.5" font-family="Helvetica,sans-Serif" font-size="10.00">SimpleCompressor()</text>
<text text-anchor="start" x="14.5" y="-20.5" font-family="Helvetica,sans-Serif" font-size="10.00">+</text>
<text text-anchor="start" x="35" y="-20.5" font-family="Helvetica,sans-Serif" font-size="10.00">InitRuntime()</text>
<text text-anchor="start" x="14.5" y="-5.5" font-family="Helvetica,sans-Serif" font-size="10.00">+</text>
<text text-anchor="start" x="35" y="-5.5" font-family="Helvetica,sans-Serif" font-size="10.00">Process()</text>
<polygon fill="#666666" stroke="#666666" points="0,-122 0,-122 149,-122 149,-122 0,-122"/>
<polygon fill="#666666" stroke="#666666" points="0,-62 0,-62 33,-62 33,-62 0,-62"/>
<polygon fill="#666666" stroke="#666666" points="33,-62 33,-62 149,-62 149,-62 33,-62"/>
<polygon fill="none" stroke="#666666" points="0,0 0,-139 149,-139 149,0 0,0"/>
</a>
</g>
</g>
<!-- Node1&#45;&gt;Node2 -->
<g id="edge1_Node000001_Node000002" class="edge">
<title>Node1&#45;&gt;Node2</title>
<g id="a_edge1_Node000001_Node000002"><a xlink:title=" ">
<path fill="none" stroke="#63b8ff" d="M115.34,-164.71C111.61,-156.11 107.84,-147.41 104.17,-138.94"/>
<polygon fill="none" stroke="#63b8ff" points="112.07,-165.95 119.26,-173.74 118.49,-163.17 112.07,-165.95"/>
</a>
</g>
</g>
<!-- Node3 -->
<g id="Node000003" class="node">
<title>Node3</title>
<g id="a_Node000003"><a xlink:href="class_n_audio_1_1_dsp_1_1_simple_gate.html" target="_top" xlink:title=" ">
<polygon fill="white" stroke="none" points="284,-124 167,-124 167,-15 284,-15 284,-124"/>
<text text-anchor="start" x="171.88" y="-110.5" font-family="Helvetica,sans-Serif" font-size="10.00">NAudio.Dsp.SimpleGate</text>
<text text-anchor="start" x="181.5" y="-95.5" font-family="Helvetica,sans-Serif" font-size="10.00">+</text>
<text text-anchor="start" x="202" y="-95.5" font-family="Helvetica,sans-Serif" font-size="10.00">Threshold</text>
<text text-anchor="start" x="183" y="-80.5" font-family="Helvetica,sans-Serif" font-size="10.00">&#45;</text>
<text text-anchor="start" x="202" y="-80.5" font-family="Helvetica,sans-Serif" font-size="10.00">threshdB</text>
<text text-anchor="start" x="183" y="-65.5" font-family="Helvetica,sans-Serif" font-size="10.00">&#45;</text>
<text text-anchor="start" x="202" y="-65.5" font-family="Helvetica,sans-Serif" font-size="10.00">thresh</text>
<text text-anchor="start" x="183" y="-50.5" font-family="Helvetica,sans-Serif" font-size="10.00">&#45;</text>
<text text-anchor="start" x="202" y="-50.5" font-family="Helvetica,sans-Serif" font-size="10.00">env</text>
<text text-anchor="start" x="181.5" y="-35.5" font-family="Helvetica,sans-Serif" font-size="10.00">+</text>
<text text-anchor="start" x="202" y="-35.5" font-family="Helvetica,sans-Serif" font-size="10.00">SimpleGate()</text>
<text text-anchor="start" x="181.5" y="-20.5" font-family="Helvetica,sans-Serif" font-size="10.00">+</text>
<text text-anchor="start" x="202" y="-20.5" font-family="Helvetica,sans-Serif" font-size="10.00">Process()</text>
<polygon fill="#666666" stroke="#666666" points="167,-107 167,-107 284,-107 284,-107 167,-107"/>
<polygon fill="#666666" stroke="#666666" points="167,-47 167,-47 200,-47 200,-47 167,-47"/>
<polygon fill="#666666" stroke="#666666" points="200,-47 200,-47 284,-47 284,-47 200,-47"/>
<polygon fill="none" stroke="#666666" points="167,-15 167,-124 284,-124 284,-15 167,-15"/>
</a>
</g>
</g>
<!-- Node1&#45;&gt;Node3 -->
<g id="edge2_Node000001_Node000003" class="edge">
<title>Node1&#45;&gt;Node3</title>
<g id="a_edge2_Node000001_Node000003"><a xlink:title=" ">
<path fill="none" stroke="#63b8ff" d="M184.13,-164.67C190.18,-150.9 196.35,-136.86 202.01,-123.98"/>
<polygon fill="none" stroke="#63b8ff" points="180.96,-163.18 180.15,-173.74 187.37,-165.99 180.96,-163.18"/>
</a>
</g>
</g>
</g>
</svg>
</svg>

<style type='text/css'>
<![CDATA[
[data-mouse-over-selected='false'] { opacity: 0.7; }
[data-mouse-over-selected='true']  { opacity: 1.0; }
]]>
</style>
<script type="application/ecmascript"><![CDATA[
document.addEventListener('DOMContentLoaded', (event) => {
  highlightEdges();
  highlightAdjacentNodes();
});
]]></script>
</svg>
