<?xml version="1.0" encoding="UTF-8" standalone="no"?>
<!DOCTYPE svg PUBLIC "-//W3C//DTD SVG 1.1//EN"
 "http://www.w3.org/Graphics/SVG/1.1/DTD/svg11.dtd">
<!-- Generated by graphviz version 10.0.1 (20240210.2158)
 -->
<!-- Title: xeno_rat_client.CapturingConsoleWriter Pages: 1 -->
<svg width="135pt" height="228pt"
 viewBox="0.00 0.00 135.00 228.00" xmlns="http://www.w3.org/2000/svg" xmlns:xlink="http://www.w3.org/1999/xlink">

<svg id="main" version="1.1" xmlns="http://www.w3.org/2000/svg" xmlns:xlink="http://www.w3.org/1999/xlink" xml:space="preserve" onload="init(evt)">
<style type="text/css"><![CDATA[
.node, .edge {opacity: 0.7;}
.node.selected, .edge.selected {opacity: 1;}
.edge:hover path { stroke: red; }
.edge:hover polygon { stroke: red; fill: red; }
]]></style>
<script type="application/ecmascript" xlink:href="svg.min.js"/>
<svg id="graph" class="graph">
<g id="graph0" class="graph" transform="scale(1 1) rotate(0) translate(4 224)">
<title>xeno_rat_client.CapturingConsoleWriter</title>
<!-- Node1 -->
<g id="Node000001" class="node">
<title>Node1</title>
<g id="a_Node000001"><a xlink:title=" ">
<polygon fill="#999999" stroke="none" points="127,-135 0,-135 0,0 127,0 127,-135"/>
<text text-anchor="start" x="8" y="-121.5" font-family="Helvetica,sans-Serif" font-size="10.00">xeno_rat_client.Capturing</text>
<text text-anchor="start" x="32.75" y="-110.25" font-family="Helvetica,sans-Serif" font-size="10.00">ConsoleWriter</text>
<text text-anchor="start" x="4" y="-95.5" font-family="Helvetica,sans-Serif" font-size="10.00">+</text>
<text text-anchor="start" x="14" y="-95.5" font-family="Helvetica,sans-Serif" font-size="10.00">Encoding</text>
<text text-anchor="start" x="5.5" y="-80.5" font-family="Helvetica,sans-Serif" font-size="10.00">&#45;</text>
<text text-anchor="start" x="14" y="-80.5" font-family="Helvetica,sans-Serif" font-size="10.00">originalOut</text>
<text text-anchor="start" x="4" y="-65.5" font-family="Helvetica,sans-Serif" font-size="10.00">+</text>
<text text-anchor="start" x="14" y="-65.5" font-family="Helvetica,sans-Serif" font-size="10.00">CapturingConsoleWriter()</text>
<text text-anchor="start" x="4" y="-50.5" font-family="Helvetica,sans-Serif" font-size="10.00">+</text>
<text text-anchor="start" x="14" y="-50.5" font-family="Helvetica,sans-Serif" font-size="10.00">Write()</text>
<text text-anchor="start" x="4" y="-35.5" font-family="Helvetica,sans-Serif" font-size="10.00">+</text>
<text text-anchor="start" x="14" y="-35.5" font-family="Helvetica,sans-Serif" font-size="10.00">WriteLine()</text>
<text text-anchor="start" x="4" y="-20.5" font-family="Helvetica,sans-Serif" font-size="10.00">+</text>
<text text-anchor="start" x="14" y="-20.5" font-family="Helvetica,sans-Serif" font-size="10.00">GetCapturedOutput()</text>
<text text-anchor="start" x="4" y="-5.5" font-family="Helvetica,sans-Serif" font-size="10.00">+</text>
<text text-anchor="start" x="14" y="-5.5" font-family="Helvetica,sans-Serif" font-size="10.00">ClearCapturedOutput()</text>
<polygon fill="#666666" stroke="#666666" points="0,-107 0,-107 127,-107 127,-107 0,-107"/>
<polygon fill="#666666" stroke="#666666" points="0,-77 0,-77 12,-77 12,-77 0,-77"/>
<polygon fill="#666666" stroke="#666666" points="12,-77 12,-77 127,-77 127,-77 12,-77"/>
<polygon fill="none" stroke="#666666" points="0,0 0,-135 127,-135 127,0 0,0"/>
</a>
</g>
</g>
<!-- Node2 -->
<g id="Node000002" class="node">
<title>Node2</title>
<g id="a_Node000002"><a xlink:href="class_text_writer.html" target="_top" xlink:title=" ">
<polygon fill="white" stroke="none" points="90.5,-220 36.5,-220 36.5,-171 90.5,-171 90.5,-220"/>
<text text-anchor="start" x="41.38" y="-206.5" font-family="Helvetica,sans-Serif" font-size="10.00">TextWriter</text>
<text text-anchor="start" x="62" y="-191.5" font-family="Helvetica,sans-Serif" font-size="10.00"> </text>
<text text-anchor="start" x="62" y="-176.5" font-family="Helvetica,sans-Serif" font-size="10.00"> </text>
<polygon fill="#666666" stroke="#666666" points="36.5,-203 36.5,-203 90.5,-203 90.5,-203 36.5,-203"/>
<polygon fill="#666666" stroke="#666666" points="36.5,-188 36.5,-188 90.5,-188 90.5,-188 36.5,-188"/>
<polygon fill="none" stroke="#666666" points="36.5,-171 36.5,-220 90.5,-220 90.5,-171 36.5,-171"/>
</a>
</g>
</g>
<!-- Node2&#45;&gt;Node1 -->
<g id="edge1_Node000001_Node000002" class="edge">
<title>Node2&#45;&gt;Node1</title>
<g id="a_edge1_Node000001_Node000002"><a xlink:title=" ">
<path fill="none" stroke="#63b8ff" d="M63.5,-159.61C63.5,-151.88 63.5,-143.43 63.5,-134.9"/>
<polygon fill="none" stroke="#63b8ff" points="60,-159.58 63.5,-169.58 67,-159.58 60,-159.58"/>
</a>
</g>
</g>
</g>
</svg>
</svg>

<style type='text/css'>
<![CDATA[
[data-mouse-over-selected='false'] { opacity: 0.7; }
[data-mouse-over-selected='true']  { opacity: 1.0; }
]]>
</style>
<script type="application/ecmascript"><![CDATA[
document.addEventListener('DOMContentLoaded', (event) => {
  highlightEdges();
  highlightAdjacentNodes();
});
]]></script>
</svg>
