<?xml version="1.0" encoding="UTF-8" standalone="no"?>
<!DOCTYPE svg PUBLIC "-//W3C//DTD SVG 1.1//EN"
 "http://www.w3.org/Graphics/SVG/1.1/DTD/svg11.dtd">
<!-- Generated by graphviz version 10.0.1 (20240210.2158)
 -->
<!-- Title: NAudio.Wave.WaveFormat.Equals Pages: 1 -->
<svg width="611pt" height="88pt"
 viewBox="0.00 0.00 611.00 87.50" xmlns="http://www.w3.org/2000/svg" xmlns:xlink="http://www.w3.org/1999/xlink">
<g id="graph0" class="graph" transform="scale(1 1) rotate(0) translate(4 83.5)">
<title>NAudio.Wave.WaveFormat.Equals</title>
<!-- Node1 -->
<g id="Node000001" class="node">
<title>Node1</title>
<g id="a_Node000001"><a xlink:title="Determines whether the current WaveFormat object is equal to another object.">
<polygon fill="#999999" stroke="#666666" points="603,-48.88 435.5,-48.88 435.5,-29.62 603,-29.62 603,-48.88"/>
<text text-anchor="middle" x="519.25" y="-35.38" font-family="Helvetica,sans-Serif" font-size="10.00">NAudio.Wave.WaveFormat.Equals</text>
</a>
</g>
</g>
<!-- Node2 -->
<g id="Node000002" class="node">
<title>Node2</title>
<g id="a_Node000002"><a xlink:href="class_n_audio_1_1_wave_1_1_mixing_wave_provider32.html#a36cddc41fc702b48e6730b6262e0e847" target="_top" xlink:title="Adds an input audio stream to the mixer.">
<polygon fill="white" stroke="#666666" points="399.5,-79.5 217.75,-79.5 217.75,-49 399.5,-49 399.5,-79.5"/>
<text text-anchor="start" x="225.75" y="-66" font-family="Helvetica,sans-Serif" font-size="10.00">NAudio.Wave.MixingWaveProvider32.</text>
<text text-anchor="middle" x="308.62" y="-54.75" font-family="Helvetica,sans-Serif" font-size="10.00">AddInputStream</text>
</a>
</g>
</g>
<!-- Node1&#45;&gt;Node2 -->
<g id="edge1_Node000001_Node000002" class="edge">
<title>Node1&#45;&gt;Node2</title>
<g id="a_edge1_Node000001_Node000002"><a xlink:title=" ">
<path fill="none" stroke="#63b8ff" d="M423.97,-50.55C415.97,-51.51 407.9,-52.47 399.93,-53.43"/>
<polygon fill="#63b8ff" stroke="#63b8ff" points="424.18,-54.05 433.69,-49.38 423.35,-47.1 424.18,-54.05"/>
</a>
</g>
</g>
<!-- Node4 -->
<g id="Node000004" class="node">
<title>Node4</title>
<g id="a_Node000004"><a xlink:href="class_n_audio_1_1_wave_1_1_wave_mixer_stream32.html#a80c4032e16125acba88f0a7b5c28d48e" target="_top" xlink:title="Adds an input audio stream to the mixer.">
<polygon fill="white" stroke="#666666" points="395,-30.5 222.25,-30.5 222.25,0 395,0 395,-30.5"/>
<text text-anchor="start" x="230.25" y="-17" font-family="Helvetica,sans-Serif" font-size="10.00">NAudio.Wave.WaveMixerStream32.</text>
<text text-anchor="middle" x="308.62" y="-5.75" font-family="Helvetica,sans-Serif" font-size="10.00">AddInputStream</text>
</a>
</g>
</g>
<!-- Node1&#45;&gt;Node4 -->
<g id="edge3_Node000001_Node000004" class="edge">
<title>Node1&#45;&gt;Node4</title>
<g id="a_edge3_Node000001_Node000004"><a xlink:title=" ">
<path fill="none" stroke="#63b8ff" d="M423.77,-28.38C414.34,-27.3 404.8,-26.2 395.47,-25.13"/>
<polygon fill="#63b8ff" stroke="#63b8ff" points="423.36,-31.86 433.69,-29.52 424.16,-24.9 423.36,-31.86"/>
</a>
</g>
</g>
<!-- Node3 -->
<g id="Node000003" class="node">
<title>Node3</title>
<g id="a_Node000003"><a xlink:href="class_n_audio_1_1_wave_1_1_mixing_wave_provider32.html#a9f4a7b29e35effa58de222c2d85c3b34" target="_top" xlink:title="Creates a new 32 bit MixingWaveProvider32.">
<polygon fill="white" stroke="#666666" points="181.75,-79.5 0,-79.5 0,-49 181.75,-49 181.75,-79.5"/>
<text text-anchor="start" x="8" y="-66" font-family="Helvetica,sans-Serif" font-size="10.00">NAudio.Wave.MixingWaveProvider32.</text>
<text text-anchor="middle" x="90.88" y="-54.75" font-family="Helvetica,sans-Serif" font-size="10.00">MixingWaveProvider32</text>
</a>
</g>
</g>
<!-- Node2&#45;&gt;Node3 -->
<g id="edge2_Node000002_Node000003" class="edge">
<title>Node2&#45;&gt;Node3</title>
<g id="a_edge2_Node000002_Node000003"><a xlink:title=" ">
<path fill="none" stroke="#63b8ff" d="M206.1,-64.25C198.09,-64.25 190.03,-64.25 182.11,-64.25"/>
<polygon fill="#63b8ff" stroke="#63b8ff" points="205.86,-67.75 215.86,-64.25 205.86,-60.75 205.86,-67.75"/>
</a>
</g>
</g>
<!-- Node5 -->
<g id="Node000005" class="node">
<title>Node5</title>
<g id="a_Node000005"><a xlink:href="class_n_audio_1_1_wave_1_1_wave_mixer_stream32.html#a395ec8a09ca71b0f58fc4534270faca7" target="_top" xlink:title="Creates a new 32 bit WaveMixerStream.">
<polygon fill="white" stroke="#666666" points="177.25,-30.5 4.5,-30.5 4.5,0 177.25,0 177.25,-30.5"/>
<text text-anchor="start" x="12.5" y="-17" font-family="Helvetica,sans-Serif" font-size="10.00">NAudio.Wave.WaveMixerStream32.</text>
<text text-anchor="middle" x="90.88" y="-5.75" font-family="Helvetica,sans-Serif" font-size="10.00">WaveMixerStream32</text>
</a>
</g>
</g>
<!-- Node4&#45;&gt;Node5 -->
<g id="edge4_Node000004_Node000005" class="edge">
<title>Node4&#45;&gt;Node5</title>
<g id="a_edge4_Node000004_Node000005"><a xlink:title=" ">
<path fill="none" stroke="#63b8ff" d="M210.67,-15.25C199.68,-15.25 188.54,-15.25 177.7,-15.25"/>
<polygon fill="#63b8ff" stroke="#63b8ff" points="210.53,-18.75 220.53,-15.25 210.53,-11.75 210.53,-18.75"/>
</a>
</g>
</g>
</g>
</svg>
