<?xml version="1.0" encoding="UTF-8" standalone="no"?>
<!DOCTYPE svg PUBLIC "-//W3C//DTD SVG 1.1//EN"
 "http://www.w3.org/Graphics/SVG/1.1/DTD/svg11.dtd">
<!-- Generated by graphviz version 10.0.1 (20240210.2158)
 -->
<!-- Title: AForge.Video.DirectShow.VideoCaptureDevice.Start Pages: 1 -->
<svg width="345pt" height="57pt"
 viewBox="0.00 0.00 344.50 56.50" xmlns="http://www.w3.org/2000/svg" xmlns:xlink="http://www.w3.org/1999/xlink">
<g id="graph0" class="graph" transform="scale(1 1) rotate(0) translate(4 52.5)">
<title>AForge.Video.DirectShow.VideoCaptureDevice.Start</title>
<!-- Node1 -->
<g id="Node000001" class="node">
<title>Node1</title>
<g id="a_Node000001"><a xlink:title="Starts the video capture process.">
<polygon fill="#999999" stroke="#666666" points="130.75,-30.5 0,-30.5 0,0 130.75,0 130.75,-30.5"/>
<text text-anchor="start" x="8" y="-17" font-family="Helvetica,sans-Serif" font-size="10.00">AForge.Video.DirectShow.</text>
<text text-anchor="middle" x="65.38" y="-5.75" font-family="Helvetica,sans-Serif" font-size="10.00">VideoCaptureDevice.Start</text>
</a>
</g>
</g>
<!-- Node2 -->
<g id="Node000002" class="node">
<title>Node2</title>
<g id="a_Node000002"><a xlink:href="class_a_forge_1_1_video_1_1_direct_show_1_1_video_capture_device.html#a6d0f011df4e9d566ba604e6b1522bdaf" target="_top" xlink:title="Worker thread for capturing video and snapshots from a device.">
<polygon fill="white" stroke="#666666" points="336.5,-30.5 166.75,-30.5 166.75,0 336.5,0 336.5,-30.5"/>
<text text-anchor="start" x="174.75" y="-17" font-family="Helvetica,sans-Serif" font-size="10.00">AForge.Video.DirectShow.</text>
<text text-anchor="middle" x="251.62" y="-5.75" font-family="Helvetica,sans-Serif" font-size="10.00">VideoCaptureDevice.WorkerThread</text>
</a>
</g>
</g>
<!-- Node1&#45;&gt;Node2 -->
<g id="edge1_Node000001_Node000002" class="edge">
<title>Node1&#45;&gt;Node2</title>
<g id="a_edge1_Node000001_Node000002"><a xlink:title=" ">
<path fill="none" stroke="#63b8ff" d="M131.08,-15.25C138.83,-15.25 146.87,-15.25 154.94,-15.25"/>
<polygon fill="#63b8ff" stroke="#63b8ff" points="154.84,-18.75 164.84,-15.25 154.84,-11.75 154.84,-18.75"/>
</a>
</g>
</g>
<!-- Node2&#45;&gt;Node2 -->
<g id="edge2_Node000002_Node000002" class="edge">
<title>Node2&#45;&gt;Node2</title>
<g id="a_edge2_Node000002_Node000002"><a xlink:title=" ">
<path fill="none" stroke="#63b8ff" d="M218.62,-30.99C211.89,-40.06 222.89,-48.5 251.62,-48.5 267.34,-48.5 277.75,-45.97 282.86,-42.2"/>
<polygon fill="#63b8ff" stroke="#63b8ff" points="286.29,-42.9 284.39,-32.48 279.38,-41.81 286.29,-42.9"/>
</a>
</g>
</g>
</g>
</svg>
