<?xml version="1.0" encoding="UTF-8" standalone="no"?>
<!DOCTYPE svg PUBLIC "-//W3C//DTD SVG 1.1//EN"
 "http://www.w3.org/Graphics/SVG/1.1/DTD/svg11.dtd">
<!-- Generated by graphviz version 10.0.1 (20240210.2158)
 -->
<!-- Title: NAudio.Wave.SampleProviders.FadeInOutSampleProvider Pages: 1 -->
<svg width="463pt" height="266pt"
 viewBox="0.00 0.00 463.00 265.50" xmlns="http://www.w3.org/2000/svg" xmlns:xlink="http://www.w3.org/1999/xlink">
<g id="graph0" class="graph" transform="scale(1 1) rotate(0) translate(4 261.5)">
<title>NAudio.Wave.SampleProviders.FadeInOutSampleProvider</title>
<!-- Node1 -->
<g id="Node000001" class="node">
<title>Node1</title>
<g id="a_Node000001"><a xlink:title="Sample Provider to allow fading in and out.">
<polygon fill="#999999" stroke="none" points="302,-150 152,-150 152,0 302,0 302,-150"/>
<text text-anchor="start" x="156.88" y="-136.5" font-family="Helvetica,sans-Serif" font-size="10.00">NAudio.Wave.SampleProviders.</text>
<text text-anchor="start" x="169.62" y="-125.25" font-family="Helvetica,sans-Serif" font-size="10.00">FadeInOutSampleProvider</text>
<text text-anchor="start" x="159" y="-110.5" font-family="Helvetica,sans-Serif" font-size="10.00">+</text>
<text text-anchor="start" x="172" y="-110.5" font-family="Helvetica,sans-Serif" font-size="10.00">WaveFormat</text>
<text text-anchor="start" x="159" y="-95.5" font-family="Helvetica,sans-Serif" font-size="10.00">+</text>
<text text-anchor="start" x="172" y="-95.5" font-family="Helvetica,sans-Serif" font-size="10.00">FadeInOutSampleProvider()</text>
<text text-anchor="start" x="159" y="-80.5" font-family="Helvetica,sans-Serif" font-size="10.00">+</text>
<text text-anchor="start" x="172" y="-80.5" font-family="Helvetica,sans-Serif" font-size="10.00">BeginFadeIn()</text>
<text text-anchor="start" x="159" y="-65.5" font-family="Helvetica,sans-Serif" font-size="10.00">+</text>
<text text-anchor="start" x="172" y="-65.5" font-family="Helvetica,sans-Serif" font-size="10.00">BeginFadeOut()</text>
<text text-anchor="start" x="159" y="-50.5" font-family="Helvetica,sans-Serif" font-size="10.00">+</text>
<text text-anchor="start" x="172" y="-50.5" font-family="Helvetica,sans-Serif" font-size="10.00">Read()</text>
<text text-anchor="start" x="160.5" y="-35.5" font-family="Helvetica,sans-Serif" font-size="10.00">&#45;</text>
<text text-anchor="start" x="172" y="-35.5" font-family="Helvetica,sans-Serif" font-size="10.00">FadeOut()</text>
<text text-anchor="start" x="160.5" y="-20.5" font-family="Helvetica,sans-Serif" font-size="10.00">&#45;</text>
<text text-anchor="start" x="172" y="-20.5" font-family="Helvetica,sans-Serif" font-size="10.00">FadeIn()</text>
<text text-anchor="start" x="160.5" y="-5.5" font-family="Helvetica,sans-Serif" font-size="10.00">&#45;</text>
<text text-anchor="start" x="172" y="-5.5" font-family="Helvetica,sans-Serif" font-size="10.00">ClearBuffer()</text>
<polygon fill="#666666" stroke="#666666" points="152,-122 152,-122 302,-122 302,-122 152,-122"/>
<polygon fill="#666666" stroke="#666666" points="152,-107 152,-107 170,-107 170,-107 152,-107"/>
<polygon fill="#666666" stroke="#666666" points="170,-107 170,-107 302,-107 302,-107 170,-107"/>
<polygon fill="none" stroke="#666666" points="152,0 152,-150 302,-150 302,0 152,0"/>
</a>
</g>
</g>
<!-- Node2 -->
<g id="Node000002" class="node">
<title>Node2</title>
<g id="a_Node000002"><a xlink:href="interface_n_audio_1_1_wave_1_1_i_sample_provider.html" target="_top" xlink:title="Like IWaveProvider, but makes it much simpler to put together a 32 bit floating point mixing engine.">
<polygon fill="white" stroke="none" points="82,-257.5 0,-257.5 0,-208.5 82,-208.5 82,-257.5"/>
<text text-anchor="start" x="5" y="-244" font-family="Helvetica,sans-Serif" font-size="10.00">ISampleProvider</text>
<text text-anchor="start" x="6" y="-229" font-family="Helvetica,sans-Serif" font-size="10.00">+</text>
<text text-anchor="start" x="18" y="-229" font-family="Helvetica,sans-Serif" font-size="10.00">WaveFormat</text>
<text text-anchor="start" x="6" y="-214" font-family="Helvetica,sans-Serif" font-size="10.00">+</text>
<text text-anchor="start" x="18" y="-214" font-family="Helvetica,sans-Serif" font-size="10.00">Read()</text>
<polygon fill="#666666" stroke="#666666" points="0,-240.5 0,-240.5 82,-240.5 82,-240.5 0,-240.5"/>
<polygon fill="#666666" stroke="#666666" points="0,-225.5 0,-225.5 16,-225.5 16,-225.5 0,-225.5"/>
<polygon fill="#666666" stroke="#666666" points="16,-225.5 16,-225.5 82,-225.5 82,-225.5 16,-225.5"/>
<polygon fill="none" stroke="#666666" points="0,-208.5 0,-257.5 82,-257.5 82,-208.5 0,-208.5"/>
</a>
</g>
</g>
<!-- Node2&#45;&gt;Node1 -->
<g id="edge1_Node000001_Node000002" class="edge">
<title>Node2&#45;&gt;Node1</title>
<g id="a_edge1_Node000001_Node000002"><a xlink:title=" ">
<path fill="none" stroke="#63b8ff" d="M77.57,-201.33C98.89,-183.45 126.57,-160.23 152.3,-138.65"/>
<polygon fill="none" stroke="#63b8ff" points="75.42,-198.56 70.01,-207.67 79.92,-203.93 75.42,-198.56"/>
</a>
</g>
</g>
<!-- Node3 -->
<g id="Node000003" class="node">
<title>Node3</title>
<g id="a_Node000003"><a xlink:title=" ">
<polygon fill="white" stroke="none" points="136,-257.5 100,-257.5 100,-208.5 136,-208.5 136,-257.5"/>
<text text-anchor="start" x="104.88" y="-244" font-family="Helvetica,sans-Serif" font-size="10.00">object</text>
<text text-anchor="start" x="116.5" y="-229" font-family="Helvetica,sans-Serif" font-size="10.00"> </text>
<text text-anchor="start" x="116.5" y="-214" font-family="Helvetica,sans-Serif" font-size="10.00"> </text>
<polygon fill="#666666" stroke="#666666" points="100,-240.5 100,-240.5 136,-240.5 136,-240.5 100,-240.5"/>
<polygon fill="#666666" stroke="#666666" points="100,-225.5 100,-225.5 136,-225.5 136,-225.5 100,-225.5"/>
<polygon fill="none" stroke="#666666" points="100,-208.5 100,-257.5 136,-257.5 136,-208.5 100,-208.5"/>
</a>
</g>
</g>
<!-- Node3&#45;&gt;Node1 -->
<g id="edge2_Node000001_Node000003" class="edge">
<title>Node3&#45;&gt;Node1</title>
<g id="a_edge2_Node000001_Node000003"><a xlink:title=" ">
<path fill="none" stroke="#63b8ff" d="M134.32,-208.65C143.5,-195.5 155.59,-178.19 168,-160.44"/>
<polygon fill="none" stroke="#63b8ff" points="167.93,-160.54 168.09,-153.33 174.8,-150.7 174.65,-157.91 167.93,-160.54"/>
</a>
</g>
<text text-anchor="middle" x="185.25" y="-175.38" font-family="Helvetica,sans-Serif" font-size="10.00" fill="grey"> &#45;lockObject</text>
</g>
<!-- Node4 -->
<g id="Node000004" class="node">
<title>Node4</title>
<g id="a_Node000004"><a xlink:href="interface_n_audio_1_1_wave_1_1_i_sample_provider.html" target="_top" xlink:title="Like IWaveProvider, but makes it much simpler to put together a 32 bit floating point mixing engine.">
<polygon fill="white" stroke="none" points="299.5,-257.5 154.5,-257.5 154.5,-208.5 299.5,-208.5 299.5,-257.5"/>
<text text-anchor="start" x="159.5" y="-244" font-family="Helvetica,sans-Serif" font-size="10.00">NAudio.Wave.ISampleProvider</text>
<text text-anchor="start" x="176.5" y="-229" font-family="Helvetica,sans-Serif" font-size="10.00">+</text>
<text text-anchor="start" x="204.5" y="-229" font-family="Helvetica,sans-Serif" font-size="10.00">WaveFormat</text>
<text text-anchor="start" x="176.5" y="-214" font-family="Helvetica,sans-Serif" font-size="10.00">+</text>
<text text-anchor="start" x="204.5" y="-214" font-family="Helvetica,sans-Serif" font-size="10.00">Read()</text>
<polygon fill="#666666" stroke="#666666" points="154.5,-240.5 154.5,-240.5 299.5,-240.5 299.5,-240.5 154.5,-240.5"/>
<polygon fill="#666666" stroke="#666666" points="154.5,-225.5 154.5,-225.5 202.5,-225.5 202.5,-225.5 154.5,-225.5"/>
<polygon fill="#666666" stroke="#666666" points="202.5,-225.5 202.5,-225.5 299.5,-225.5 299.5,-225.5 202.5,-225.5"/>
<polygon fill="none" stroke="#666666" points="154.5,-208.5 154.5,-257.5 299.5,-257.5 299.5,-208.5 154.5,-208.5"/>
</a>
</g>
</g>
<!-- Node4&#45;&gt;Node1 -->
<g id="edge3_Node000001_Node000004" class="edge">
<title>Node4&#45;&gt;Node1</title>
<g id="a_edge3_Node000001_Node000004"><a xlink:title=" ">
<path fill="none" stroke="#63b8ff" d="M227,-208.65C227,-196.11 227,-179.8 227,-162.93"/>
<polygon fill="none" stroke="#63b8ff" points="227,-162.87 223,-156.87 227,-150.87 231,-156.87 227,-162.87"/>
</a>
</g>
<text text-anchor="middle" x="244.62" y="-175.38" font-family="Helvetica,sans-Serif" font-size="10.00" fill="grey"> &#45;source</text>
</g>
<!-- Node5 -->
<g id="Node000005" class="node">
<title>Node5</title>
<g id="a_Node000005"><a xlink:title=" ">
<polygon fill="white" stroke="none" points="338,-257.5 318,-257.5 318,-208.5 338,-208.5 338,-257.5"/>
<text text-anchor="start" x="322.75" y="-244" font-family="Helvetica,sans-Serif" font-size="10.00">int</text>
<text text-anchor="start" x="326.5" y="-229" font-family="Helvetica,sans-Serif" font-size="10.00"> </text>
<text text-anchor="start" x="326.5" y="-214" font-family="Helvetica,sans-Serif" font-size="10.00"> </text>
<polygon fill="#666666" stroke="#666666" points="318,-240.5 318,-240.5 338,-240.5 338,-240.5 318,-240.5"/>
<polygon fill="#666666" stroke="#666666" points="318,-225.5 318,-225.5 338,-225.5 338,-225.5 318,-225.5"/>
<polygon fill="none" stroke="#666666" points="318,-208.5 318,-257.5 338,-257.5 338,-208.5 318,-208.5"/>
</a>
</g>
</g>
<!-- Node5&#45;&gt;Node1 -->
<g id="edge4_Node000001_Node000005" class="edge">
<title>Node5&#45;&gt;Node1</title>
<g id="a_edge4_Node000001_Node000005"><a xlink:title=" ">
<path fill="none" stroke="#63b8ff" d="M318.13,-216.76C309.34,-203.19 295.74,-182.17 281.7,-160.48"/>
<polygon fill="none" stroke="#63b8ff" points="281.8,-160.64 275.18,-157.78 275.28,-150.57 281.9,-153.43 281.8,-160.64"/>
</a>
</g>
<text text-anchor="middle" x="345" y="-181" font-family="Helvetica,sans-Serif" font-size="10.00" fill="grey"> &#45;fadeSampleCount</text>
<text text-anchor="middle" x="345" y="-169.75" font-family="Helvetica,sans-Serif" font-size="10.00" fill="grey">&#45;fadeSamplePosition</text>
</g>
<!-- Node6 -->
<g id="Node000006" class="node">
<title>Node6</title>
<g id="a_Node000006"><a xlink:title=" ">
<polygon fill="white" stroke="none" points="446.5,-257.5 391.5,-257.5 391.5,-208.5 446.5,-208.5 446.5,-257.5"/>
<text text-anchor="start" x="396.5" y="-244" font-family="Helvetica,sans-Serif" font-size="10.00">FadeState</text>
<text text-anchor="start" x="417.5" y="-229" font-family="Helvetica,sans-Serif" font-size="10.00"> </text>
<text text-anchor="start" x="417.5" y="-214" font-family="Helvetica,sans-Serif" font-size="10.00"> </text>
<polygon fill="#666666" stroke="#666666" points="391.5,-240.5 391.5,-240.5 446.5,-240.5 446.5,-240.5 391.5,-240.5"/>
<polygon fill="#666666" stroke="#666666" points="391.5,-225.5 391.5,-225.5 446.5,-225.5 446.5,-225.5 391.5,-225.5"/>
<polygon fill="none" stroke="#666666" points="391.5,-208.5 391.5,-257.5 446.5,-257.5 446.5,-208.5 391.5,-208.5"/>
</a>
</g>
</g>
<!-- Node6&#45;&gt;Node1 -->
<g id="edge5_Node000001_Node000006" class="edge">
<title>Node6&#45;&gt;Node1</title>
<g id="a_edge5_Node000001_Node000006"><a xlink:title=" ">
<path fill="none" stroke="#63b8ff" d="M414.05,-208.61C410.32,-195.48 404.07,-179.48 394,-168 372.13,-143.06 341.8,-123.55 312.98,-109.04"/>
<polygon fill="none" stroke="#63b8ff" points="313.21,-109.15 306.07,-110.13 302.42,-103.92 309.56,-102.94 313.21,-109.15"/>
</a>
</g>
<text text-anchor="middle" x="431" y="-175.38" font-family="Helvetica,sans-Serif" font-size="10.00" fill="grey"> &#45;fadeState</text>
</g>
</g>
</svg>
