<?xml version="1.0" encoding="UTF-8" standalone="no"?>
<!DOCTYPE svg PUBLIC "-//W3C//DTD SVG 1.1//EN"
 "http://www.w3.org/Graphics/SVG/1.1/DTD/svg11.dtd">
<!-- Generated by graphviz version 10.0.1 (20240210.2158)
 -->
<!-- Title: NAudio.Wave.MediaFoundationEncoder.MediaFoundationEncoder Pages: 1 -->
<svg width="362pt" height="284pt"
 viewBox="0.00 0.00 361.75 283.50" xmlns="http://www.w3.org/2000/svg" xmlns:xlink="http://www.w3.org/1999/xlink">
<g id="graph0" class="graph" transform="scale(1 1) rotate(0) translate(4 279.5)">
<title>NAudio.Wave.MediaFoundationEncoder.MediaFoundationEncoder</title>
<!-- Node1 -->
<g id="Node000001" class="node">
<title>Node1</title>
<g id="a_Node000001"><a xlink:title="Creates a new encoder that encodes to the specified output media type.">
<polygon fill="#999999" stroke="#666666" points="353.75,-152.5 189.25,-152.5 189.25,-122 353.75,-122 353.75,-152.5"/>
<text text-anchor="start" x="197.25" y="-139" font-family="Helvetica,sans-Serif" font-size="10.00">NAudio.Wave.MediaFoundation</text>
<text text-anchor="middle" x="271.5" y="-127.75" font-family="Helvetica,sans-Serif" font-size="10.00">Encoder.MediaFoundationEncoder</text>
</a>
</g>
</g>
<!-- Node2 -->
<g id="Node000002" class="node">
<title>Node2</title>
<g id="a_Node000002"><a xlink:href="class_n_audio_1_1_wave_1_1_media_foundation_encoder.html#aae2a75c6e5f44272a0a68646eb300187" target="_top" xlink:title="Helper function to simplify encoding to AAC By default, will only be available on Windows 7 and above...">
<polygon fill="white" stroke="#666666" points="153.25,-275.5 0,-275.5 0,-245 153.25,-245 153.25,-275.5"/>
<text text-anchor="start" x="8" y="-262" font-family="Helvetica,sans-Serif" font-size="10.00">NAudio.Wave.MediaFoundation</text>
<text text-anchor="middle" x="76.62" y="-250.75" font-family="Helvetica,sans-Serif" font-size="10.00">Encoder.EncodeToAac</text>
</a>
</g>
</g>
<!-- Node1&#45;&gt;Node2 -->
<g id="edge1_Node000001_Node000002" class="edge">
<title>Node1&#45;&gt;Node2</title>
<g id="a_edge1_Node000001_Node000002"><a xlink:title=" ">
<path fill="none" stroke="#63b8ff" d="M247.77,-160.82C225.48,-182.75 189.64,-215.01 153.25,-235.25 146.97,-238.75 140.12,-241.85 133.19,-244.59"/>
<polygon fill="#63b8ff" stroke="#63b8ff" points="249.95,-163.58 254.55,-154.04 245,-158.63 249.95,-163.58"/>
</a>
</g>
</g>
<!-- Node3 -->
<g id="Node000003" class="node">
<title>Node3</title>
<g id="a_Node000003"><a xlink:href="class_n_audio_1_1_wave_1_1_media_foundation_encoder.html#a5c204ac228989099d48fb571d9253f85" target="_top" xlink:title="Encodes the input audio data to AAC format and writes the result to the specified output stream.">
<polygon fill="white" stroke="#666666" points="153.25,-226.5 0,-226.5 0,-196 153.25,-196 153.25,-226.5"/>
<text text-anchor="start" x="8" y="-213" font-family="Helvetica,sans-Serif" font-size="10.00">NAudio.Wave.MediaFoundation</text>
<text text-anchor="middle" x="76.62" y="-201.75" font-family="Helvetica,sans-Serif" font-size="10.00">Encoder.EncodeToAac</text>
</a>
</g>
</g>
<!-- Node1&#45;&gt;Node3 -->
<g id="edge2_Node000001_Node000003" class="edge">
<title>Node1&#45;&gt;Node3</title>
<g id="a_edge2_Node000001_Node000003"><a xlink:title=" ">
<path fill="none" stroke="#63b8ff" d="M224.4,-157.48C202.92,-166.65 176.94,-177.4 153.25,-186.25 144.83,-189.4 135.81,-192.56 127.04,-195.52"/>
<polygon fill="#63b8ff" stroke="#63b8ff" points="225.67,-160.74 233.47,-153.58 222.9,-154.31 225.67,-160.74"/>
</a>
</g>
</g>
<!-- Node4 -->
<g id="Node000004" class="node">
<title>Node4</title>
<g id="a_Node000004"><a xlink:href="class_n_audio_1_1_wave_1_1_media_foundation_encoder.html#a1504579c5542275a967ec9947bbc4162" target="_top" xlink:title="Helper function to simplify encoding to MP3 By default, will only be available on Windows 8 and above...">
<polygon fill="white" stroke="#666666" points="153.25,-177.5 0,-177.5 0,-147 153.25,-147 153.25,-177.5"/>
<text text-anchor="start" x="8" y="-164" font-family="Helvetica,sans-Serif" font-size="10.00">NAudio.Wave.MediaFoundation</text>
<text text-anchor="middle" x="76.62" y="-152.75" font-family="Helvetica,sans-Serif" font-size="10.00">Encoder.EncodeToMp3</text>
</a>
</g>
</g>
<!-- Node1&#45;&gt;Node4 -->
<g id="edge3_Node000001_Node000004" class="edge">
<title>Node1&#45;&gt;Node4</title>
<g id="a_edge3_Node000001_Node000004"><a xlink:title=" ">
<path fill="none" stroke="#63b8ff" d="M177.65,-149.28C169.6,-150.33 161.52,-151.38 153.63,-152.4"/>
<polygon fill="#63b8ff" stroke="#63b8ff" points="178.02,-152.77 187.48,-148.01 177.12,-145.83 178.02,-152.77"/>
</a>
</g>
</g>
<!-- Node5 -->
<g id="Node000005" class="node">
<title>Node5</title>
<g id="a_Node000005"><a xlink:href="class_n_audio_1_1_wave_1_1_media_foundation_encoder.html#af2594cd65fab1166a71318ac108d99cd" target="_top" xlink:title="Encodes the input audio data to MP3 format and writes it to the specified output stream using the spe...">
<polygon fill="white" stroke="#666666" points="153.25,-128.5 0,-128.5 0,-98 153.25,-98 153.25,-128.5"/>
<text text-anchor="start" x="8" y="-115" font-family="Helvetica,sans-Serif" font-size="10.00">NAudio.Wave.MediaFoundation</text>
<text text-anchor="middle" x="76.62" y="-103.75" font-family="Helvetica,sans-Serif" font-size="10.00">Encoder.EncodeToMp3</text>
</a>
</g>
</g>
<!-- Node1&#45;&gt;Node5 -->
<g id="edge4_Node000001_Node000005" class="edge">
<title>Node1&#45;&gt;Node5</title>
<g id="a_edge4_Node000001_Node000005"><a xlink:title=" ">
<path fill="none" stroke="#63b8ff" d="M177.65,-125.7C169.6,-124.7 161.52,-123.69 153.63,-122.71"/>
<polygon fill="#63b8ff" stroke="#63b8ff" points="177.13,-129.16 187.48,-126.92 177.99,-122.21 177.13,-129.16"/>
</a>
</g>
</g>
<!-- Node6 -->
<g id="Node000006" class="node">
<title>Node6</title>
<g id="a_Node000006"><a xlink:href="class_n_audio_1_1_wave_1_1_media_foundation_encoder.html#a08101c6630040469930b131a3ceca671" target="_top" xlink:title="Helper function to simplify encoding Window Media Audio Should be supported on Vista and above (not t...">
<polygon fill="white" stroke="#666666" points="153.25,-79.5 0,-79.5 0,-49 153.25,-49 153.25,-79.5"/>
<text text-anchor="start" x="8" y="-66" font-family="Helvetica,sans-Serif" font-size="10.00">NAudio.Wave.MediaFoundation</text>
<text text-anchor="middle" x="76.62" y="-54.75" font-family="Helvetica,sans-Serif" font-size="10.00">Encoder.EncodeToWma</text>
</a>
</g>
</g>
<!-- Node1&#45;&gt;Node6 -->
<g id="edge5_Node000001_Node000006" class="edge">
<title>Node1&#45;&gt;Node6</title>
<g id="a_edge5_Node000001_Node000006"><a xlink:title=" ">
<path fill="none" stroke="#63b8ff" d="M223.64,-117.2C202.3,-108.29 176.64,-97.89 153.25,-89.25 144.69,-86.09 135.52,-82.89 126.61,-79.89"/>
<polygon fill="#63b8ff" stroke="#63b8ff" points="222.08,-120.34 232.66,-120.98 224.79,-113.88 222.08,-120.34"/>
</a>
</g>
</g>
<!-- Node7 -->
<g id="Node000007" class="node">
<title>Node7</title>
<g id="a_Node000007"><a xlink:href="class_n_audio_1_1_wave_1_1_media_foundation_encoder.html#a9b0abd53edf811733737cf98074ab033" target="_top" xlink:title="Encodes the input audio data to WMA format and writes it to the output stream.">
<polygon fill="white" stroke="#666666" points="153.25,-30.5 0,-30.5 0,0 153.25,0 153.25,-30.5"/>
<text text-anchor="start" x="8" y="-17" font-family="Helvetica,sans-Serif" font-size="10.00">NAudio.Wave.MediaFoundation</text>
<text text-anchor="middle" x="76.62" y="-5.75" font-family="Helvetica,sans-Serif" font-size="10.00">Encoder.EncodeToWma</text>
</a>
</g>
</g>
<!-- Node1&#45;&gt;Node7 -->
<g id="edge6_Node000001_Node000007" class="edge">
<title>Node1&#45;&gt;Node7</title>
<g id="a_edge6_Node000001_Node000007"><a xlink:title=" ">
<path fill="none" stroke="#63b8ff" d="M247.42,-113.65C225.08,-91.96 189.37,-60.23 153.25,-40.25 146.96,-36.77 140.1,-33.67 133.17,-30.94"/>
<polygon fill="#63b8ff" stroke="#63b8ff" points="244.93,-116.11 254.51,-120.64 249.85,-111.13 244.93,-116.11"/>
</a>
</g>
</g>
</g>
</svg>
