<?xml version="1.0" encoding="UTF-8" standalone="no"?>
<!DOCTYPE svg PUBLIC "-//W3C//DTD SVG 1.1//EN"
 "http://www.w3.org/Graphics/SVG/1.1/DTD/svg11.dtd">
<!-- Generated by graphviz version 10.0.1 (20240210.2158)
 -->
<!-- Title: AForge.Video.VideoSourceErrorEventArgs Pages: 1 -->
<svg width="154pt" height="164pt"
 viewBox="0.00 0.00 154.00 164.25" xmlns="http://www.w3.org/2000/svg" xmlns:xlink="http://www.w3.org/1999/xlink">

<svg id="main" version="1.1" xmlns="http://www.w3.org/2000/svg" xmlns:xlink="http://www.w3.org/1999/xlink" xml:space="preserve" onload="init(evt)">
<style type="text/css"><![CDATA[
.node, .edge {opacity: 0.7;}
.node.selected, .edge.selected {opacity: 1;}
.edge:hover path { stroke: red; }
.edge:hover polygon { stroke: red; fill: red; }
]]></style>
<script type="application/ecmascript" xlink:href="svg.min.js"/>
<svg id="graph" class="graph">
<g id="graph0" class="graph" transform="scale(1 1) rotate(0) translate(4 160.25)">
<title>AForge.Video.VideoSourceErrorEventArgs</title>
<!-- Node1 -->
<g id="Node000001" class="node">
<title>Node1</title>
<g id="a_Node000001"><a xlink:title="Arguments for video source error event from video source.">
<polygon fill="#999999" stroke="none" points="146,-60 0,-60 0,0 146,0 146,-60"/>
<text text-anchor="start" x="14.12" y="-46.5" font-family="Helvetica,sans-Serif" font-size="10.00">AForge.Video.VideoSource</text>
<text text-anchor="start" x="39.62" y="-35.25" font-family="Helvetica,sans-Serif" font-size="10.00">ErrorEventArgs</text>
<text text-anchor="start" x="4" y="-20.5" font-family="Helvetica,sans-Serif" font-size="10.00">+</text>
<text text-anchor="start" x="14" y="-20.5" font-family="Helvetica,sans-Serif" font-size="10.00">Description</text>
<text text-anchor="start" x="4" y="-5.5" font-family="Helvetica,sans-Serif" font-size="10.00">+</text>
<text text-anchor="start" x="14" y="-5.5" font-family="Helvetica,sans-Serif" font-size="10.00">VideoSourceErrorEventArgs()</text>
<polygon fill="#666666" stroke="#666666" points="0,-32 0,-32 146,-32 146,-32 0,-32"/>
<polygon fill="#666666" stroke="#666666" points="0,-17 0,-17 12,-17 12,-17 0,-17"/>
<polygon fill="#666666" stroke="#666666" points="12,-17 12,-17 146,-17 146,-17 12,-17"/>
<polygon fill="none" stroke="#666666" points="0,0 0,-60 146,-60 146,0 0,0"/>
</a>
</g>
</g>
<!-- Node2 -->
<g id="Node000002" class="node">
<title>Node2</title>
<g id="a_Node000002"><a xlink:href="class_event_args.html" target="_top" xlink:title=" ">
<polygon fill="white" stroke="none" points="69.5,-156.25 14.5,-156.25 14.5,-107.25 69.5,-107.25 69.5,-156.25"/>
<text text-anchor="start" x="19.12" y="-142.75" font-family="Helvetica,sans-Serif" font-size="10.00">EventArgs</text>
<text text-anchor="start" x="40.5" y="-127.75" font-family="Helvetica,sans-Serif" font-size="10.00"> </text>
<text text-anchor="start" x="40.5" y="-112.75" font-family="Helvetica,sans-Serif" font-size="10.00"> </text>
<polygon fill="#666666" stroke="#666666" points="14.5,-139.25 14.5,-139.25 69.5,-139.25 69.5,-139.25 14.5,-139.25"/>
<polygon fill="#666666" stroke="#666666" points="14.5,-124.25 14.5,-124.25 69.5,-124.25 69.5,-124.25 14.5,-124.25"/>
<polygon fill="none" stroke="#666666" points="14.5,-107.25 14.5,-156.25 69.5,-156.25 69.5,-107.25 14.5,-107.25"/>
</a>
</g>
</g>
<!-- Node2&#45;&gt;Node1 -->
<g id="edge1_Node000001_Node000002" class="edge">
<title>Node2&#45;&gt;Node1</title>
<g id="a_edge1_Node000001_Node000002"><a xlink:title=" ">
<path fill="none" stroke="#63b8ff" d="M52.65,-96.47C56.35,-84.57 60.46,-71.37 64,-59.95"/>
<polygon fill="none" stroke="#63b8ff" points="49.34,-95.33 49.72,-105.92 56.03,-97.41 49.34,-95.33"/>
</a>
</g>
</g>
<!-- Node3 -->
<g id="Node000003" class="node">
<title>Node3</title>
<g id="a_Node000003"><a xlink:title=" ">
<polygon fill="white" stroke="none" points="122,-156.25 88,-156.25 88,-107.25 122,-107.25 122,-156.25"/>
<text text-anchor="start" x="93" y="-142.75" font-family="Helvetica,sans-Serif" font-size="10.00">string</text>
<text text-anchor="start" x="103.5" y="-127.75" font-family="Helvetica,sans-Serif" font-size="10.00"> </text>
<text text-anchor="start" x="103.5" y="-112.75" font-family="Helvetica,sans-Serif" font-size="10.00"> </text>
<polygon fill="#666666" stroke="#666666" points="88,-139.25 88,-139.25 122,-139.25 122,-139.25 88,-139.25"/>
<polygon fill="#666666" stroke="#666666" points="88,-124.25 88,-124.25 122,-124.25 122,-124.25 88,-124.25"/>
<polygon fill="none" stroke="#666666" points="88,-107.25 88,-156.25 122,-156.25 122,-107.25 88,-107.25"/>
</a>
</g>
</g>
<!-- Node3&#45;&gt;Node1 -->
<g id="edge2_Node000001_Node000003" class="edge">
<title>Node3&#45;&gt;Node1</title>
<g id="a_edge2_Node000001_Node000003"><a xlink:title=" ">
<path fill="none" stroke="#63b8ff" d="M97.5,-107.36C94.12,-96.85 90.04,-84.12 86.19,-72.1"/>
<polygon fill="none" stroke="#63b8ff" points="86.23,-72.23 80.59,-67.74 82.56,-60.81 88.2,-65.3 86.23,-72.23"/>
</a>
</g>
<text text-anchor="middle" x="116.62" y="-79.75" font-family="Helvetica,sans-Serif" font-size="10.00" fill="grey"> &#45;description</text>
</g>
</g>
</svg>
</svg>

<style type='text/css'>
<![CDATA[
[data-mouse-over-selected='false'] { opacity: 0.7; }
[data-mouse-over-selected='true']  { opacity: 1.0; }
]]>
</style>
<script type="application/ecmascript"><![CDATA[
document.addEventListener('DOMContentLoaded', (event) => {
  highlightEdges();
  highlightAdjacentNodes();
});
]]></script>
</svg>
