<?xml version="1.0" encoding="UTF-8" standalone="no"?>
<!DOCTYPE svg PUBLIC "-//W3C//DTD SVG 1.1//EN"
 "http://www.w3.org/Graphics/SVG/1.1/DTD/svg11.dtd">
<!-- Generated by graphviz version 10.0.1 (20240210.2158)
 -->
<!-- Title: NAudio.Dmo.Effect.DmoWavesReverb Pages: 1 -->
<!--zoomable 804 -->

<svg id="main" version="1.1" xmlns="http://www.w3.org/2000/svg" xmlns:xlink="http://www.w3.org/1999/xlink" xml:space="preserve" onload="init(evt)">
<style type="text/css"><![CDATA[
.node, .edge {opacity: 0.7;}
.node.selected, .edge.selected {opacity: 1;}
.edge:hover path { stroke: red; }
.edge:hover polygon { stroke: red; fill: red; }
]]></style>

<defs>
  <circle id="rim" cx="0" cy="0" r="7"/>
  <circle id="rim2" cx="0" cy="0" r="3.5"/>
  <g id="zoomPlus">
    <use xlink:href="#rim" fill="#404040"><set attributeName="fill" to="#808080" begin="zoomplus.mouseover" end="zoomplus.mouseout"/></use>
    <path d="M-4,0h8M0,-4v8" fill="none" stroke="white" stroke-width="1.5" pointer-events="none"/>
  </g>
  <g id="zoomMin">
    <use xlink:href="#rim" fill="#404040"><set attributeName="fill" to="#808080" begin="zoomminus.mouseover" end="zoomminus.mouseout"/></use>
    <path d="M-4,0h8" fill="none" stroke="white" stroke-width="1.5" pointer-events="none"/>
  </g>
  <g id="arrowUp" transform="translate(30 24)">
    <use xlink:href="#rim"/>
    <path pointer-events="none" fill="none" stroke="white" stroke-width="1.5" d="M0,-3.0v7 M-2.5,-0.5L0,-3.0L2.5,-0.5"/>
  </g>
  <g id="arrowRight" transform="rotate(90) translate(36 -43)">
    <use xlink:href="#rim"/>
    <path pointer-events="none" fill="none" stroke="white" stroke-width="1.5" d="M0,-3.0v7 M-2.5,-0.5L0,-3.0L2.5,-0.5"/>
  </g>
  <g id="arrowDown" transform="rotate(180) translate(-30 -48)">
    <use xlink:href="#rim"/>
    <path pointer-events="none" fill="none" stroke="white" stroke-width="1.5" d="M0,-3.0v7 M-2.5,-0.5L0,-3.0L2.5,-0.5"/>
  </g>
  <g id="arrowLeft" transform="rotate(270) translate(-36 17)">
    <use xlink:href="#rim"/>
    <path pointer-events="none" fill="none" stroke="white" stroke-width="1.5" d="M0,-3.0v7 M-2.5,-0.5L0,-3.0L2.5,-0.5"/>
  </g>
  <g id="resetDef">
    <use xlink:href="#rim2" fill="#404040"><set attributeName="fill" to="#808080" begin="reset.mouseover" end="reset.mouseout"/></use>
  </g>
</defs>
<script type="application/ecmascript">
var viewWidth = 804;
var viewHeight = 804;
var sectionId = 'dynsection-1';
</script>
<script type="application/ecmascript" xlink:href="svg.min.js"/>
<svg id="graph" class="graph">
<g id="viewport">
<title>NAudio.Dmo.Effect.DmoWavesReverb</title>
<!-- Node1 -->
<g id="Node000001" class="node">
<title>Node1</title>
<g id="a_Node000001"><a xlink:title="DMO Reverb Effect.">
<polygon fill="#999999" stroke="none" points="402,-105 253,-105 253,0 402,0 402,-105"/>
<text text-anchor="start" x="257.75" y="-91.5" font-family="Helvetica,sans-Serif" font-size="10.00">NAudio.Dmo.Effect.DmoWaves</text>
<text text-anchor="start" x="311.75" y="-80.25" font-family="Helvetica,sans-Serif" font-size="10.00">Reverb</text>
<text text-anchor="start" x="267.5" y="-65.5" font-family="Helvetica,sans-Serif" font-size="10.00">+</text>
<text text-anchor="start" x="288" y="-65.5" font-family="Helvetica,sans-Serif" font-size="10.00">MediaObject</text>
<text text-anchor="start" x="267.5" y="-50.5" font-family="Helvetica,sans-Serif" font-size="10.00">+</text>
<text text-anchor="start" x="288" y="-50.5" font-family="Helvetica,sans-Serif" font-size="10.00">MediaObjectInPlace</text>
<text text-anchor="start" x="267.5" y="-35.5" font-family="Helvetica,sans-Serif" font-size="10.00">+</text>
<text text-anchor="start" x="288" y="-35.5" font-family="Helvetica,sans-Serif" font-size="10.00">EffectParams</text>
<text text-anchor="start" x="267.5" y="-20.5" font-family="Helvetica,sans-Serif" font-size="10.00">+</text>
<text text-anchor="start" x="288" y="-20.5" font-family="Helvetica,sans-Serif" font-size="10.00">DmoWavesReverb()</text>
<text text-anchor="start" x="267.5" y="-5.5" font-family="Helvetica,sans-Serif" font-size="10.00">+</text>
<text text-anchor="start" x="288" y="-5.5" font-family="Helvetica,sans-Serif" font-size="10.00">Dispose()</text>
<polygon fill="#666666" stroke="#666666" points="253,-77 253,-77 402,-77 402,-77 253,-77"/>
<polygon fill="#666666" stroke="#666666" points="253,-32 253,-32 286,-32 286,-32 253,-32"/>
<polygon fill="#666666" stroke="#666666" points="286,-32 286,-32 402,-32 402,-32 286,-32"/>
<polygon fill="none" stroke="#666666" points="253,0 253,-105 402,-105 402,0 253,0"/>
</a>
</g>
</g>
<!-- Node2 -->
<g id="Node000002" class="node">
<title>Node2</title>
<g id="a_Node000002"><a xlink:href="interface_n_audio_1_1_dmo_1_1_effect_1_1_i_dmo_effector.html" target="_top" xlink:title=" ">
<polygon fill="white" stroke="none" points="163,-339.75 0,-339.75 0,-249.75 163,-249.75 163,-339.75"/>
<text text-anchor="start" x="5" y="-326.25" font-family="Helvetica,sans-Serif" font-size="10.00">IDmoEffector&lt; DmoWavesReverb.</text>
<text text-anchor="start" x="60.12" y="-315" font-family="Helvetica,sans-Serif" font-size="10.00">Params &gt;</text>
<text text-anchor="start" x="18.5" y="-300.25" font-family="Helvetica,sans-Serif" font-size="10.00">+</text>
<text text-anchor="start" x="43" y="-300.25" font-family="Helvetica,sans-Serif" font-size="10.00">MediaObject</text>
<text text-anchor="start" x="18.5" y="-285.25" font-family="Helvetica,sans-Serif" font-size="10.00">+</text>
<text text-anchor="start" x="43" y="-285.25" font-family="Helvetica,sans-Serif" font-size="10.00">MediaObjectInPlace</text>
<text text-anchor="start" x="18.5" y="-270.25" font-family="Helvetica,sans-Serif" font-size="10.00">+</text>
<text text-anchor="start" x="43" y="-270.25" font-family="Helvetica,sans-Serif" font-size="10.00">EffectParams</text>
<text text-anchor="start" x="80" y="-255.25" font-family="Helvetica,sans-Serif" font-size="10.00"> </text>
<polygon fill="#666666" stroke="#666666" points="0,-311.75 0,-311.75 163,-311.75 163,-311.75 0,-311.75"/>
<polygon fill="#666666" stroke="#666666" points="0,-266.75 0,-266.75 41,-266.75 41,-266.75 0,-266.75"/>
<polygon fill="#666666" stroke="#666666" points="41,-266.75 41,-266.75 163,-266.75 163,-266.75 41,-266.75"/>
<polygon fill="none" stroke="#666666" points="0,-249.75 0,-339.75 163,-339.75 163,-249.75 0,-249.75"/>
</a>
</g>
</g>
<!-- Node2&#45;&gt;Node1 -->
<g id="edge1_Node000001_Node000002" class="edge">
<title>Node2&#45;&gt;Node1</title>
<g id="a_edge1_Node000001_Node000002"><a xlink:title=" ">
<path fill="none" stroke="#63b8ff" d="M108.53,-240.3C124.56,-211.99 146.77,-177.87 172.5,-152.25 196.01,-128.84 226,-108.15 253.33,-91.84"/>
<polygon fill="none" stroke="#63b8ff" points="105.65,-238.28 103.86,-248.72 111.77,-241.68 105.65,-238.28"/>
</a>
</g>
</g>
<!-- Node3 -->
<g id="Node000003" class="node">
<title>Node3</title>
<g id="a_Node000003"><a xlink:href="class_n_audio_1_1_dmo_1_1_media_object.html" target="_top" xlink:title="Media Object.">
<polygon fill="white" stroke="none" points="485.5,-437.25 331.5,-437.25 331.5,-152.25 485.5,-152.25 485.5,-437.25"/>
<text text-anchor="start" x="351.5" y="-423.75" font-family="Helvetica,sans-Serif" font-size="10.00">NAudio.Dmo.MediaObject</text>
<text text-anchor="start" x="335.5" y="-408.75" font-family="Helvetica,sans-Serif" font-size="10.00">+</text>
<text text-anchor="start" x="345.5" y="-408.75" font-family="Helvetica,sans-Serif" font-size="10.00">InputStreamCount</text>
<text text-anchor="start" x="335.5" y="-393.75" font-family="Helvetica,sans-Serif" font-size="10.00">+</text>
<text text-anchor="start" x="345.5" y="-393.75" font-family="Helvetica,sans-Serif" font-size="10.00">OutputStreamCount</text>
<text text-anchor="start" x="335.5" y="-378.75" font-family="Helvetica,sans-Serif" font-size="10.00">+</text>
<text text-anchor="start" x="345.5" y="-378.75" font-family="Helvetica,sans-Serif" font-size="10.00">GetInputType()</text>
<text text-anchor="start" x="335.5" y="-363.75" font-family="Helvetica,sans-Serif" font-size="10.00">+</text>
<text text-anchor="start" x="345.5" y="-363.75" font-family="Helvetica,sans-Serif" font-size="10.00">GetOutputType()</text>
<text text-anchor="start" x="335.5" y="-348.75" font-family="Helvetica,sans-Serif" font-size="10.00">+</text>
<text text-anchor="start" x="345.5" y="-348.75" font-family="Helvetica,sans-Serif" font-size="10.00">GetOutputCurrentType()</text>
<text text-anchor="start" x="335.5" y="-333.75" font-family="Helvetica,sans-Serif" font-size="10.00">+</text>
<text text-anchor="start" x="345.5" y="-333.75" font-family="Helvetica,sans-Serif" font-size="10.00">GetInputTypes()</text>
<text text-anchor="start" x="335.5" y="-318.75" font-family="Helvetica,sans-Serif" font-size="10.00">+</text>
<text text-anchor="start" x="345.5" y="-318.75" font-family="Helvetica,sans-Serif" font-size="10.00">GetOutputTypes()</text>
<text text-anchor="start" x="335.5" y="-303.75" font-family="Helvetica,sans-Serif" font-size="10.00">+</text>
<text text-anchor="start" x="345.5" y="-303.75" font-family="Helvetica,sans-Serif" font-size="10.00">SupportsInputType()</text>
<text text-anchor="start" x="335.5" y="-288.75" font-family="Helvetica,sans-Serif" font-size="10.00">+</text>
<text text-anchor="start" x="345.5" y="-288.75" font-family="Helvetica,sans-Serif" font-size="10.00">SetInputType()</text>
<text text-anchor="start" x="335.5" y="-273.75" font-family="Helvetica,sans-Serif" font-size="10.00">+</text>
<text text-anchor="start" x="345.5" y="-273.75" font-family="Helvetica,sans-Serif" font-size="10.00">SetInputWaveFormat()</text>
<text text-anchor="start" x="335.5" y="-258.75" font-family="Helvetica,sans-Serif" font-size="10.00">+</text>
<text text-anchor="start" x="345.5" y="-258.75" font-family="Helvetica,sans-Serif" font-size="10.00">SupportsInputWaveFormat()</text>
<text text-anchor="start" x="335.5" y="-243.75" font-family="Helvetica,sans-Serif" font-size="10.00">+</text>
<text text-anchor="start" x="345.5" y="-243.75" font-family="Helvetica,sans-Serif" font-size="10.00">SupportsOutputType()</text>
<text text-anchor="start" x="345.5" y="-228.75" font-family="Helvetica,sans-Serif" font-size="10.00">and 14 more...</text>
<text text-anchor="start" x="335.5" y="-213.75" font-family="Helvetica,sans-Serif" font-size="10.00">~</text>
<text text-anchor="start" x="345.5" y="-213.75" font-family="Helvetica,sans-Serif" font-size="10.00">MediaObject()</text>
<text text-anchor="start" x="337" y="-198.75" font-family="Helvetica,sans-Serif" font-size="10.00">&#45;</text>
<text text-anchor="start" x="345.5" y="-198.75" font-family="Helvetica,sans-Serif" font-size="10.00">SetInputType()</text>
<text text-anchor="start" x="337" y="-183.75" font-family="Helvetica,sans-Serif" font-size="10.00">&#45;</text>
<text text-anchor="start" x="345.5" y="-183.75" font-family="Helvetica,sans-Serif" font-size="10.00">CreateDmoMediaTypeForWave</text>
<text text-anchor="start" x="345.5" y="-172.5" font-family="Helvetica,sans-Serif" font-size="10.00">Format()</text>
<text text-anchor="start" x="337" y="-157.75" font-family="Helvetica,sans-Serif" font-size="10.00">&#45;</text>
<text text-anchor="start" x="345.5" y="-157.75" font-family="Helvetica,sans-Serif" font-size="10.00">SetOutputType()</text>
<polygon fill="#666666" stroke="#666666" points="331.5,-420.25 331.5,-420.25 485.5,-420.25 485.5,-420.25 331.5,-420.25"/>
<polygon fill="#666666" stroke="#666666" points="331.5,-390.25 331.5,-390.25 343.5,-390.25 343.5,-390.25 331.5,-390.25"/>
<polygon fill="#666666" stroke="#666666" points="343.5,-390.25 343.5,-390.25 485.5,-390.25 485.5,-390.25 343.5,-390.25"/>
<polygon fill="none" stroke="#666666" points="331.5,-152.25 331.5,-437.25 485.5,-437.25 485.5,-152.25 331.5,-152.25"/>
</a>
</g>
</g>
<!-- Node3&#45;&gt;Node1 -->
<g id="edge2_Node000001_Node000003" class="edge">
<title>Node3&#45;&gt;Node1</title>
<g id="a_edge2_Node000001_Node000003"><a xlink:title=" ">
<path fill="none" stroke="#63b8ff" d="M386.06,-152.59C382.98,-142.43 379.48,-132.46 375.5,-123 374.54,-120.72 373.5,-118.44 372.39,-116.16"/>
<polygon fill="none" stroke="#63b8ff" points="372.46,-116.28 366.1,-112.89 366.79,-105.71 373.15,-109.11 372.46,-116.28"/>
</a>
</g>
<text text-anchor="middle" x="409.88" y="-124.75" font-family="Helvetica,sans-Serif" font-size="10.00" fill="grey"> &#45;mediaObject</text>
</g>
<!-- Node4 -->
<g id="Node000004" class="node">
<title>Node4</title>
<g id="a_Node000004"><a xlink:href="class_i_disposable.html" target="_top" xlink:title=" ">
<polygon fill="white" stroke="none" points="320,-721 259,-721 259,-672 320,-672 320,-721"/>
<text text-anchor="start" x="263.62" y="-707.5" font-family="Helvetica,sans-Serif" font-size="10.00">IDisposable</text>
<text text-anchor="start" x="288" y="-692.5" font-family="Helvetica,sans-Serif" font-size="10.00"> </text>
<text text-anchor="start" x="288" y="-677.5" font-family="Helvetica,sans-Serif" font-size="10.00"> </text>
<polygon fill="#666666" stroke="#666666" points="259,-704 259,-704 320,-704 320,-704 259,-704"/>
<polygon fill="#666666" stroke="#666666" points="259,-689 259,-689 320,-689 320,-689 259,-689"/>
<polygon fill="none" stroke="#666666" points="259,-672 259,-721 320,-721 320,-672 259,-672"/>
</a>
</g>
</g>
<!-- Node4&#45;&gt;Node3 -->
<g id="edge3_Node000003_Node000004" class="edge">
<title>Node4&#45;&gt;Node3</title>
<g id="a_edge3_Node000003_Node000004"><a xlink:title=" ">
<path fill="none" stroke="#63b8ff" d="M299.69,-661.28C314.41,-611.82 342.5,-517.45 366.45,-436.99"/>
<polygon fill="none" stroke="#63b8ff" points="296.34,-660.25 296.84,-670.83 303.05,-662.24 296.34,-660.25"/>
</a>
</g>
</g>
<!-- Node7 -->
<g id="Node000007" class="node">
<title>Node7</title>
<g id="a_Node000007"><a xlink:href="class_n_audio_1_1_dmo_1_1_media_object_in_place.html" target="_top" xlink:title="Media Object InPlace.">
<polygon fill="white" stroke="none" points="313.5,-362.25 181.5,-362.25 181.5,-227.25 313.5,-227.25 313.5,-362.25"/>
<text text-anchor="start" x="186.38" y="-348.75" font-family="Helvetica,sans-Serif" font-size="10.00">NAudio.Dmo.MediaObjectIn</text>
<text text-anchor="start" x="235.12" y="-337.5" font-family="Helvetica,sans-Serif" font-size="10.00">Place</text>
<text text-anchor="start" x="246" y="-322.75" font-family="Helvetica,sans-Serif" font-size="10.00"> </text>
<text text-anchor="start" x="190.5" y="-307.75" font-family="Helvetica,sans-Serif" font-size="10.00">+</text>
<text text-anchor="start" x="205.5" y="-307.75" font-family="Helvetica,sans-Serif" font-size="10.00">Process()</text>
<text text-anchor="start" x="190.5" y="-292.75" font-family="Helvetica,sans-Serif" font-size="10.00">+</text>
<text text-anchor="start" x="205.5" y="-292.75" font-family="Helvetica,sans-Serif" font-size="10.00">Clone()</text>
<text text-anchor="start" x="190.5" y="-277.75" font-family="Helvetica,sans-Serif" font-size="10.00">+</text>
<text text-anchor="start" x="205.5" y="-277.75" font-family="Helvetica,sans-Serif" font-size="10.00">GetLatency()</text>
<text text-anchor="start" x="190.5" y="-262.75" font-family="Helvetica,sans-Serif" font-size="10.00">+</text>
<text text-anchor="start" x="205.5" y="-262.75" font-family="Helvetica,sans-Serif" font-size="10.00">GetMediaObject()</text>
<text text-anchor="start" x="190.5" y="-247.75" font-family="Helvetica,sans-Serif" font-size="10.00">+</text>
<text text-anchor="start" x="205.5" y="-247.75" font-family="Helvetica,sans-Serif" font-size="10.00">Dispose()</text>
<text text-anchor="start" x="190.5" y="-232.75" font-family="Helvetica,sans-Serif" font-size="10.00">~</text>
<text text-anchor="start" x="205.5" y="-232.75" font-family="Helvetica,sans-Serif" font-size="10.00">MediaObjectInPlace()</text>
<polygon fill="#666666" stroke="#666666" points="181.5,-334.25 181.5,-334.25 313.5,-334.25 313.5,-334.25 181.5,-334.25"/>
<polygon fill="#666666" stroke="#666666" points="181.5,-319.25 181.5,-319.25 313.5,-319.25 313.5,-319.25 181.5,-319.25"/>
<polygon fill="none" stroke="#666666" points="181.5,-227.25 181.5,-362.25 313.5,-362.25 313.5,-227.25 181.5,-227.25"/>
</a>
</g>
</g>
<!-- Node4&#45;&gt;Node7 -->
<g id="edge7_Node000007_Node000004" class="edge">
<title>Node4&#45;&gt;Node7</title>
<g id="a_edge7_Node000007_Node000004"><a xlink:title=" ">
<path fill="none" stroke="#63b8ff" d="M287.72,-660.97C285.13,-614.24 279.72,-528.28 271.5,-455.25 268.04,-424.5 263.09,-390.58 258.59,-361.95"/>
<polygon fill="none" stroke="#63b8ff" points="284.22,-660.95 288.25,-670.74 291.21,-660.57 284.22,-660.95"/>
</a>
</g>
</g>
<!-- Node5 -->
<g id="Node000005" class="node">
<title>Node5</title>
<g id="a_Node000005"><a xlink:href="interface_n_audio_1_1_dmo_1_1_i_media_object.html" target="_top" xlink:title="defined in mediaobj.h">
<polygon fill="white" stroke="none" points="465,-796 338,-796 338,-597 465,-597 465,-796"/>
<text text-anchor="start" x="343" y="-782.5" font-family="Helvetica,sans-Serif" font-size="10.00">NAudio.Dmo.IMediaObject</text>
<text text-anchor="start" x="400" y="-767.5" font-family="Helvetica,sans-Serif" font-size="10.00"> </text>
<text text-anchor="start" x="343" y="-752.5" font-family="Helvetica,sans-Serif" font-size="10.00">+</text>
<text text-anchor="start" x="354" y="-752.5" font-family="Helvetica,sans-Serif" font-size="10.00">GetStreamCount()</text>
<text text-anchor="start" x="343" y="-737.5" font-family="Helvetica,sans-Serif" font-size="10.00">+</text>
<text text-anchor="start" x="354" y="-737.5" font-family="Helvetica,sans-Serif" font-size="10.00">GetInputStreamInfo()</text>
<text text-anchor="start" x="343" y="-722.5" font-family="Helvetica,sans-Serif" font-size="10.00">+</text>
<text text-anchor="start" x="354" y="-722.5" font-family="Helvetica,sans-Serif" font-size="10.00">GetOutputStreamInfo()</text>
<text text-anchor="start" x="343" y="-707.5" font-family="Helvetica,sans-Serif" font-size="10.00">+</text>
<text text-anchor="start" x="354" y="-707.5" font-family="Helvetica,sans-Serif" font-size="10.00">GetInputType()</text>
<text text-anchor="start" x="343" y="-692.5" font-family="Helvetica,sans-Serif" font-size="10.00">+</text>
<text text-anchor="start" x="354" y="-692.5" font-family="Helvetica,sans-Serif" font-size="10.00">GetOutputType()</text>
<text text-anchor="start" x="343" y="-677.5" font-family="Helvetica,sans-Serif" font-size="10.00">+</text>
<text text-anchor="start" x="354" y="-677.5" font-family="Helvetica,sans-Serif" font-size="10.00">SetInputType()</text>
<text text-anchor="start" x="343" y="-662.5" font-family="Helvetica,sans-Serif" font-size="10.00">+</text>
<text text-anchor="start" x="354" y="-662.5" font-family="Helvetica,sans-Serif" font-size="10.00">SetOutputType()</text>
<text text-anchor="start" x="343" y="-647.5" font-family="Helvetica,sans-Serif" font-size="10.00">+</text>
<text text-anchor="start" x="354" y="-647.5" font-family="Helvetica,sans-Serif" font-size="10.00">GetInputCurrentType()</text>
<text text-anchor="start" x="343" y="-632.5" font-family="Helvetica,sans-Serif" font-size="10.00">+</text>
<text text-anchor="start" x="354" y="-632.5" font-family="Helvetica,sans-Serif" font-size="10.00">GetOutputCurrentType()</text>
<text text-anchor="start" x="343" y="-617.5" font-family="Helvetica,sans-Serif" font-size="10.00">+</text>
<text text-anchor="start" x="354" y="-617.5" font-family="Helvetica,sans-Serif" font-size="10.00">GetInputSizeInfo()</text>
<text text-anchor="start" x="354" y="-602.5" font-family="Helvetica,sans-Serif" font-size="10.00">and 11 more...</text>
<polygon fill="#666666" stroke="#666666" points="338,-779 338,-779 465,-779 465,-779 338,-779"/>
<polygon fill="#666666" stroke="#666666" points="338,-764 338,-764 465,-764 465,-764 338,-764"/>
<polygon fill="none" stroke="#666666" points="338,-597 338,-796 465,-796 465,-597 338,-597"/>
</a>
</g>
</g>
<!-- Node5&#45;&gt;Node3 -->
<g id="edge4_Node000003_Node000005" class="edge">
<title>Node5&#45;&gt;Node3</title>
<g id="a_edge4_Node000003_Node000005"><a xlink:title=" ">
<path fill="none" stroke="#63b8ff" d="M403.22,-597.2C404,-552.86 404.93,-499.43 405.8,-449.96"/>
<polygon fill="none" stroke="#63b8ff" points="405.8,-450.03 401.9,-443.96 406.01,-438.03 409.9,-444.1 405.8,-450.03"/>
</a>
</g>
<text text-anchor="middle" x="436.88" y="-513.25" font-family="Helvetica,sans-Serif" font-size="10.00" fill="grey"> &#45;mediaObject</text>
</g>
<!-- Node6 -->
<g id="Node000006" class="node">
<title>Node6</title>
<g id="a_Node000006"><a xlink:title=" ">
<polygon fill="white" stroke="none" points="503.5,-721 483.5,-721 483.5,-672 503.5,-672 503.5,-721"/>
<text text-anchor="start" x="488.25" y="-707.5" font-family="Helvetica,sans-Serif" font-size="10.00">int</text>
<text text-anchor="start" x="492" y="-692.5" font-family="Helvetica,sans-Serif" font-size="10.00"> </text>
<text text-anchor="start" x="492" y="-677.5" font-family="Helvetica,sans-Serif" font-size="10.00"> </text>
<polygon fill="#666666" stroke="#666666" points="483.5,-704 483.5,-704 503.5,-704 503.5,-704 483.5,-704"/>
<polygon fill="#666666" stroke="#666666" points="483.5,-689 483.5,-689 503.5,-689 503.5,-689 483.5,-689"/>
<polygon fill="none" stroke="#666666" points="483.5,-672 483.5,-721 503.5,-721 503.5,-672 483.5,-672"/>
</a>
</g>
</g>
<!-- Node6&#45;&gt;Node3 -->
<g id="edge5_Node000003_Node000006" class="edge">
<title>Node6&#45;&gt;Node3</title>
<g id="a_edge5_Node000003_Node000006"><a xlink:title=" ">
<path fill="none" stroke="#63b8ff" d="M493.55,-672.29C493.17,-629.01 490.08,-533.28 471.5,-455.25 471.02,-453.25 470.53,-451.25 470.02,-449.24"/>
<polygon fill="none" stroke="#63b8ff" points="470.03,-449.28 464.59,-444.54 466.87,-437.7 472.31,-442.44 470.03,-449.28"/>
</a>
</g>
<text text-anchor="middle" x="522.88" y="-518.88" font-family="Helvetica,sans-Serif" font-size="10.00" fill="grey"> &#45;inputStreams</text>
<text text-anchor="middle" x="522.88" y="-507.62" font-family="Helvetica,sans-Serif" font-size="10.00" fill="grey">&#45;outputStreams</text>
</g>
<!-- Node7&#45;&gt;Node1 -->
<g id="edge6_Node000001_Node000007" class="edge">
<title>Node7&#45;&gt;Node1</title>
<g id="a_edge6_Node000001_Node000007"><a xlink:title=" ">
<path fill="none" stroke="#63b8ff" d="M254.74,-227.57C259.78,-195.18 268.13,-156.14 281.75,-123 282.7,-120.7 283.73,-118.39 284.82,-116.08"/>
<polygon fill="none" stroke="#63b8ff" points="284.8,-116.11 284.02,-108.95 290.34,-105.47 291.12,-112.64 284.8,-116.11"/>
</a>
</g>
<text text-anchor="middle" x="329.38" y="-124.75" font-family="Helvetica,sans-Serif" font-size="10.00" fill="grey"> &#45;mediaObjectInPlace</text>
</g>
<!-- Node8 -->
<g id="Node000008" class="node">
<title>Node8</title>
<g id="a_Node000008"><a xlink:title=" ">
<polygon fill="white" stroke="none" points="241,-741.5 106,-741.5 106,-651.5 241,-651.5 241,-741.5"/>
<text text-anchor="start" x="110.88" y="-728" font-family="Helvetica,sans-Serif" font-size="10.00">NAudio.Dmo.IMediaObjectIn</text>
<text text-anchor="start" x="161.12" y="-716.75" font-family="Helvetica,sans-Serif" font-size="10.00">Place</text>
<text text-anchor="start" x="172" y="-702" font-family="Helvetica,sans-Serif" font-size="10.00"> </text>
<text text-anchor="start" x="125" y="-687" font-family="Helvetica,sans-Serif" font-size="10.00">+</text>
<text text-anchor="start" x="150" y="-687" font-family="Helvetica,sans-Serif" font-size="10.00">Process()</text>
<text text-anchor="start" x="125" y="-672" font-family="Helvetica,sans-Serif" font-size="10.00">+</text>
<text text-anchor="start" x="150" y="-672" font-family="Helvetica,sans-Serif" font-size="10.00">Clone()</text>
<text text-anchor="start" x="125" y="-657" font-family="Helvetica,sans-Serif" font-size="10.00">+</text>
<text text-anchor="start" x="150" y="-657" font-family="Helvetica,sans-Serif" font-size="10.00">GetLatency()</text>
<polygon fill="#666666" stroke="#666666" points="106,-713.5 106,-713.5 241,-713.5 241,-713.5 106,-713.5"/>
<polygon fill="#666666" stroke="#666666" points="106,-698.5 106,-698.5 241,-698.5 241,-698.5 106,-698.5"/>
<polygon fill="none" stroke="#666666" points="106,-651.5 106,-741.5 241,-741.5 241,-651.5 106,-651.5"/>
</a>
</g>
</g>
<!-- Node8&#45;&gt;Node7 -->
<g id="edge8_Node000007_Node000008" class="edge">
<title>Node8&#45;&gt;Node7</title>
<g id="a_edge8_Node000007_Node000008"><a xlink:title=" ">
<path fill="none" stroke="#63b8ff" d="M168,-651.93C163.13,-603.32 158.88,-522.66 173.75,-455.25 179.85,-427.6 191.22,-399.04 203.23,-373.86"/>
<polygon fill="none" stroke="#63b8ff" points="203.29,-373.75 202.34,-366.6 208.58,-362.97 209.52,-370.12 203.29,-373.75"/>
</a>
</g>
<text text-anchor="middle" x="221.38" y="-513.25" font-family="Helvetica,sans-Serif" font-size="10.00" fill="grey"> &#45;mediaObjectInPlace</text>
</g>
<!-- Node9 -->
<g id="Node000009" class="node">
<title>Node9</title>
<g id="a_Node000009"><a xlink:href="struct_n_audio_1_1_dmo_1_1_effect_1_1_dmo_waves_reverb_1_1_params.html" target="_top" xlink:title="DMO Reverb Params.">
<polygon fill="white" stroke="none" points="660,-377.25 511,-377.25 511,-212.25 660,-212.25 660,-377.25"/>
<text text-anchor="start" x="515.75" y="-363.75" font-family="Helvetica,sans-Serif" font-size="10.00">NAudio.Dmo.Effect.DmoWaves</text>
<text text-anchor="start" x="551.38" y="-352.5" font-family="Helvetica,sans-Serif" font-size="10.00">Reverb.Params</text>
<text text-anchor="start" x="527" y="-337.75" font-family="Helvetica,sans-Serif" font-size="10.00">+</text>
<text text-anchor="start" x="549" y="-337.75" font-family="Helvetica,sans-Serif" font-size="10.00">ReverbTimeMin</text>
<text text-anchor="start" x="527" y="-322.75" font-family="Helvetica,sans-Serif" font-size="10.00">+</text>
<text text-anchor="start" x="549" y="-322.75" font-family="Helvetica,sans-Serif" font-size="10.00">ReverbTimeMax</text>
<text text-anchor="start" x="527" y="-307.75" font-family="Helvetica,sans-Serif" font-size="10.00">+</text>
<text text-anchor="start" x="549" y="-307.75" font-family="Helvetica,sans-Serif" font-size="10.00">InGain</text>
<text text-anchor="start" x="527" y="-292.75" font-family="Helvetica,sans-Serif" font-size="10.00">+</text>
<text text-anchor="start" x="549" y="-292.75" font-family="Helvetica,sans-Serif" font-size="10.00">ReverbMix</text>
<text text-anchor="start" x="527" y="-277.75" font-family="Helvetica,sans-Serif" font-size="10.00">+</text>
<text text-anchor="start" x="549" y="-277.75" font-family="Helvetica,sans-Serif" font-size="10.00">ReverbTime</text>
<text text-anchor="start" x="527" y="-262.75" font-family="Helvetica,sans-Serif" font-size="10.00">+</text>
<text text-anchor="start" x="549" y="-262.75" font-family="Helvetica,sans-Serif" font-size="10.00">HighFreqRtRatio</text>
<text text-anchor="start" x="527" y="-247.75" font-family="Helvetica,sans-Serif" font-size="10.00">~</text>
<text text-anchor="start" x="549" y="-247.75" font-family="Helvetica,sans-Serif" font-size="10.00">Params()</text>
<text text-anchor="start" x="528.5" y="-232.75" font-family="Helvetica,sans-Serif" font-size="10.00">&#45;</text>
<text text-anchor="start" x="549" y="-232.75" font-family="Helvetica,sans-Serif" font-size="10.00">SetAllParameters()</text>
<text text-anchor="start" x="528.5" y="-217.75" font-family="Helvetica,sans-Serif" font-size="10.00">&#45;</text>
<text text-anchor="start" x="549" y="-217.75" font-family="Helvetica,sans-Serif" font-size="10.00">GetAllParameters()</text>
<polygon fill="#666666" stroke="#666666" points="511,-349.25 511,-349.25 660,-349.25 660,-349.25 511,-349.25"/>
<polygon fill="#666666" stroke="#666666" points="511,-259.25 511,-259.25 547,-259.25 547,-259.25 511,-259.25"/>
<polygon fill="#666666" stroke="#666666" points="547,-259.25 547,-259.25 660,-259.25 660,-259.25 547,-259.25"/>
<polygon fill="none" stroke="#666666" points="511,-212.25 511,-377.25 660,-377.25 660,-212.25 511,-212.25"/>
</a>
</g>
</g>
<!-- Node9&#45;&gt;Node1 -->
<g id="edge9_Node000001_Node000009" class="edge">
<title>Node9&#45;&gt;Node1</title>
<g id="a_edge9_Node000001_Node000009"><a xlink:title=" ">
<path fill="none" stroke="#63b8ff" d="M542.34,-212.48C528.8,-191.36 512.59,-169.68 494.5,-152.25 470.83,-129.45 440.95,-109.69 413.03,-93.96"/>
<polygon fill="none" stroke="#63b8ff" points="412.93,-93.9 405.74,-94.52 402.41,-88.13 409.59,-87.51 412.93,-93.9"/>
</a>
</g>
<text text-anchor="middle" x="503.75" y="-124.75" font-family="Helvetica,sans-Serif" font-size="10.00" fill="grey"> &#45;effectParams</text>
</g>
<!-- Node10 -->
<g id="Node000010" class="node">
<title>Node10</title>
<g id="a_Node000010"><a xlink:title=" ">
<polygon fill="white" stroke="none" points="698.5,-721 670.5,-721 670.5,-672 698.5,-672 698.5,-721"/>
<text text-anchor="start" x="675.12" y="-707.5" font-family="Helvetica,sans-Serif" font-size="10.00">float</text>
<text text-anchor="start" x="683" y="-692.5" font-family="Helvetica,sans-Serif" font-size="10.00"> </text>
<text text-anchor="start" x="683" y="-677.5" font-family="Helvetica,sans-Serif" font-size="10.00"> </text>
<polygon fill="#666666" stroke="#666666" points="670.5,-704 670.5,-704 698.5,-704 698.5,-704 670.5,-704"/>
<polygon fill="#666666" stroke="#666666" points="670.5,-689 670.5,-689 698.5,-689 698.5,-689 670.5,-689"/>
<polygon fill="none" stroke="#666666" points="670.5,-672 670.5,-721 698.5,-721 698.5,-672 670.5,-672"/>
</a>
</g>
</g>
<!-- Node10&#45;&gt;Node9 -->
<g id="edge10_Node000009_Node000010" class="edge">
<title>Node10&#45;&gt;Node9</title>
<g id="a_edge10_Node000009_Node000010"><a xlink:title=" ">
<path fill="none" stroke="#63b8ff" d="M685.1,-672.15C685.61,-628.64 683.94,-532.54 662.5,-455.25 656.33,-433 647.15,-410.08 637.27,-388.79"/>
<polygon fill="none" stroke="#63b8ff" points="637.27,-388.8 631.07,-385.1 632.1,-377.97 638.3,-381.66 637.27,-388.8"/>
</a>
</g>
<text text-anchor="middle" x="738.5" y="-569.5" font-family="Helvetica,sans-Serif" font-size="10.00" fill="grey"> +HighFreqRtRatioDefault</text>
<text text-anchor="middle" x="738.5" y="-558.25" font-family="Helvetica,sans-Serif" font-size="10.00" fill="grey">+HighFreqRtRatioMax</text>
<text text-anchor="middle" x="738.5" y="-547" font-family="Helvetica,sans-Serif" font-size="10.00" fill="grey">+HighFreqRtRatioMin</text>
<text text-anchor="middle" x="738.5" y="-535.75" font-family="Helvetica,sans-Serif" font-size="10.00" fill="grey">+InGainDefault</text>
<text text-anchor="middle" x="738.5" y="-524.5" font-family="Helvetica,sans-Serif" font-size="10.00" fill="grey">+InGainMax</text>
<text text-anchor="middle" x="738.5" y="-513.25" font-family="Helvetica,sans-Serif" font-size="10.00" fill="grey">+InGainMin</text>
<text text-anchor="middle" x="738.5" y="-502" font-family="Helvetica,sans-Serif" font-size="10.00" fill="grey">+ReverbMixDefault</text>
<text text-anchor="middle" x="738.5" y="-490.75" font-family="Helvetica,sans-Serif" font-size="10.00" fill="grey">+ReverbMixMax</text>
<text text-anchor="middle" x="738.5" y="-479.5" font-family="Helvetica,sans-Serif" font-size="10.00" fill="grey">+ReverbMixMin</text>
<text text-anchor="middle" x="738.5" y="-468.25" font-family="Helvetica,sans-Serif" font-size="10.00" fill="grey">+ReverbTimeDefault</text>
<text text-anchor="middle" x="738.5" y="-457" font-family="Helvetica,sans-Serif" font-size="10.00" fill="grey">...</text>
</g>
<!-- Node11 -->
<g id="Node000011" class="node">
<title>Node11</title>
<g id="a_Node000011"><a xlink:href="interface_n_audio_1_1_dmo_1_1_effect_1_1_i_direct_sound_f_x_waves_reverb.html" target="_top" xlink:title=" ">
<polygon fill="white" stroke="none" points="649,-734 522,-734 522,-659 649,-659 649,-734"/>
<text text-anchor="start" x="526.62" y="-720.5" font-family="Helvetica,sans-Serif" font-size="10.00">NAudio.Dmo.Effect.IDirect</text>
<text text-anchor="start" x="534.5" y="-709.25" font-family="Helvetica,sans-Serif" font-size="10.00">SoundFXWavesReverb</text>
<text text-anchor="start" x="584" y="-694.5" font-family="Helvetica,sans-Serif" font-size="10.00"> </text>
<text text-anchor="start" x="532.5" y="-679.5" font-family="Helvetica,sans-Serif" font-size="10.00">+</text>
<text text-anchor="start" x="549" y="-679.5" font-family="Helvetica,sans-Serif" font-size="10.00">SetAllParameters()</text>
<text text-anchor="start" x="532.5" y="-664.5" font-family="Helvetica,sans-Serif" font-size="10.00">+</text>
<text text-anchor="start" x="549" y="-664.5" font-family="Helvetica,sans-Serif" font-size="10.00">GetAllParameters()</text>
<polygon fill="#666666" stroke="#666666" points="522,-706 522,-706 649,-706 649,-706 522,-706"/>
<polygon fill="#666666" stroke="#666666" points="522,-691 522,-691 649,-691 649,-691 522,-691"/>
<polygon fill="none" stroke="#666666" points="522,-659 522,-734 649,-734 649,-659 522,-659"/>
</a>
</g>
</g>
<!-- Node11&#45;&gt;Node9 -->
<g id="edge11_Node000009_Node000011" class="edge">
<title>Node11&#45;&gt;Node9</title>
<g id="a_edge11_Node000009_Node000011"><a xlink:title=" ">
<path fill="none" stroke="#63b8ff" d="M585.5,-659.32C585.5,-598.99 585.5,-475.99 585.5,-389.83"/>
<polygon fill="none" stroke="#63b8ff" points="585.5,-389.77 581.5,-383.77 585.5,-377.77 589.5,-383.77 585.5,-389.77"/>
</a>
</g>
<text text-anchor="middle" x="623.38" y="-513.25" font-family="Helvetica,sans-Serif" font-size="10.00" fill="grey"> &#45;fxWavesReverb</text>
</g>
</g>
</svg>

<g id="navigator" transform="translate(0 0)" fill="#404254">
  <rect fill="#f2f5e9" fill-opacity="0.5" stroke="#606060" stroke-width=".5" x="0" y="0" width="60" height="60"/>
  <use id="zoomplus" xlink:href="#zoomPlus" x="17" y="9" onmousedown="handleZoom(evt,'in')"/>
  <use id="zoomminus" xlink:href="#zoomMin" x="42" y="9" onmousedown="handleZoom(evt,'out')"/>
  <use id="reset" xlink:href="#resetDef" x="30" y="36" onmousedown="handleReset()"/>
   <use id="arrowup" xlink:href="#arrowUp" x="0" y="0" onmousedown="handlePan(0,-1)"/>
  <use id="arrowright" xlink:href="#arrowRight" x="0" y="0" onmousedown="handlePan(1,0)"/>
  <use id="arrowdown" xlink:href="#arrowDown" x="0" y="0" onmousedown="handlePan(0,1)"/>
  <use id="arrowleft" xlink:href="#arrowLeft" x="0" y="0" onmousedown="handlePan(-1,0)"/>
</g>
<svg viewBox="0 0 15 15" width="100%" height="30px" preserveAspectRatio="xMaxYMin meet">
 <g id="arrow_out" transform="scale(0.3 0.3)">
  <a xlink:href="class_n_audio_1_1_dmo_1_1_effect_1_1_dmo_waves_reverb__coll__graph_org.svg" target="_base">
   <rect id="button" ry="5" rx="5" y="6" x="6" height="38" width="38"
        fill="#f2f5e9" fill-opacity="0.5" stroke="#606060" stroke-width="1.0"/>
   <path id="arrow"
     d="M 11.500037,31.436501 C 11.940474,20.09759 22.043105,11.32322 32.158766,21.979434 L 37.068811,17.246167 C 37.068811,17.246167 37.088388,32 37.088388,32 L 22.160133,31.978069 C 22.160133,31.978069 26.997745,27.140456 26.997745,27.140456 C 18.528582,18.264221 13.291696,25.230495 11.500037,31.436501 z"
     style="fill:#404040;"/>
  </a>
 </g>
</svg>

<style type='text/css'>
<![CDATA[
[data-mouse-over-selected='false'] { opacity: 0.7; }
[data-mouse-over-selected='true']  { opacity: 1.0; }
]]>
</style>
<script type="application/ecmascript"><![CDATA[
document.addEventListener('DOMContentLoaded', (event) => {
  highlightEdges();
  highlightAdjacentNodes();
});
]]></script>
</svg>
