<?xml version="1.0" encoding="UTF-8" standalone="no"?>
<!DOCTYPE svg PUBLIC "-//W3C//DTD SVG 1.1//EN"
 "http://www.w3.org/Graphics/SVG/1.1/DTD/svg11.dtd">
<!-- Generated by graphviz version 10.0.1 (20240210.2158)
 -->
<!-- Title: NAudio.Wave.Compression.AcmStreamHeader Pages: 1 -->
<!--zoomable 448 -->

<svg id="main" version="1.1" xmlns="http://www.w3.org/2000/svg" xmlns:xlink="http://www.w3.org/1999/xlink" xml:space="preserve" onload="init(evt)">
<style type="text/css"><![CDATA[
.node, .edge {opacity: 0.7;}
.node.selected, .edge.selected {opacity: 1;}
.edge:hover path { stroke: red; }
.edge:hover polygon { stroke: red; fill: red; }
]]></style>

<defs>
  <circle id="rim" cx="0" cy="0" r="7"/>
  <circle id="rim2" cx="0" cy="0" r="3.5"/>
  <g id="zoomPlus">
    <use xlink:href="#rim" fill="#404040"><set attributeName="fill" to="#808080" begin="zoomplus.mouseover" end="zoomplus.mouseout"/></use>
    <path d="M-4,0h8M0,-4v8" fill="none" stroke="white" stroke-width="1.5" pointer-events="none"/>
  </g>
  <g id="zoomMin">
    <use xlink:href="#rim" fill="#404040"><set attributeName="fill" to="#808080" begin="zoomminus.mouseover" end="zoomminus.mouseout"/></use>
    <path d="M-4,0h8" fill="none" stroke="white" stroke-width="1.5" pointer-events="none"/>
  </g>
  <g id="arrowUp" transform="translate(30 24)">
    <use xlink:href="#rim"/>
    <path pointer-events="none" fill="none" stroke="white" stroke-width="1.5" d="M0,-3.0v7 M-2.5,-0.5L0,-3.0L2.5,-0.5"/>
  </g>
  <g id="arrowRight" transform="rotate(90) translate(36 -43)">
    <use xlink:href="#rim"/>
    <path pointer-events="none" fill="none" stroke="white" stroke-width="1.5" d="M0,-3.0v7 M-2.5,-0.5L0,-3.0L2.5,-0.5"/>
  </g>
  <g id="arrowDown" transform="rotate(180) translate(-30 -48)">
    <use xlink:href="#rim"/>
    <path pointer-events="none" fill="none" stroke="white" stroke-width="1.5" d="M0,-3.0v7 M-2.5,-0.5L0,-3.0L2.5,-0.5"/>
  </g>
  <g id="arrowLeft" transform="rotate(270) translate(-36 17)">
    <use xlink:href="#rim"/>
    <path pointer-events="none" fill="none" stroke="white" stroke-width="1.5" d="M0,-3.0v7 M-2.5,-0.5L0,-3.0L2.5,-0.5"/>
  </g>
  <g id="resetDef">
    <use xlink:href="#rim2" fill="#404040"><set attributeName="fill" to="#808080" begin="reset.mouseover" end="reset.mouseout"/></use>
  </g>
</defs>
<script type="application/ecmascript">
var viewWidth = 547;
var viewHeight = 448;
var sectionId = 'dynsection-1';
</script>
<script type="application/ecmascript" xlink:href="svg.min.js"/>
<svg id="graph" class="graph">
<g id="viewport">
<title>NAudio.Wave.Compression.AcmStreamHeader</title>
<!-- Node1 -->
<g id="Node000001" class="node">
<title>Node1</title>
<g id="a_Node000001"><a xlink:title=" ">
<polygon fill="#999999" stroke="none" points="396.5,-180 263.5,-180 263.5,0 396.5,0 396.5,-180"/>
<text text-anchor="start" x="268.12" y="-166.5" font-family="Helvetica,sans-Serif" font-size="10.00">NAudio.Wave.Compression.</text>
<text text-anchor="start" x="288.38" y="-155.25" font-family="Helvetica,sans-Serif" font-size="10.00">AcmStreamHeader</text>
<text text-anchor="start" x="272.5" y="-140.5" font-family="Helvetica,sans-Serif" font-size="10.00">+</text>
<text text-anchor="start" x="287.5" y="-140.5" font-family="Helvetica,sans-Serif" font-size="10.00">SourceBuffer</text>
<text text-anchor="start" x="272.5" y="-125.5" font-family="Helvetica,sans-Serif" font-size="10.00">+</text>
<text text-anchor="start" x="287.5" y="-125.5" font-family="Helvetica,sans-Serif" font-size="10.00">DestBuffer</text>
<text text-anchor="start" x="272.5" y="-110.5" font-family="Helvetica,sans-Serif" font-size="10.00">+</text>
<text text-anchor="start" x="287.5" y="-110.5" font-family="Helvetica,sans-Serif" font-size="10.00">AcmStreamHeader()</text>
<text text-anchor="start" x="272.5" y="-95.5" font-family="Helvetica,sans-Serif" font-size="10.00">+</text>
<text text-anchor="start" x="287.5" y="-95.5" font-family="Helvetica,sans-Serif" font-size="10.00">Reposition()</text>
<text text-anchor="start" x="272.5" y="-80.5" font-family="Helvetica,sans-Serif" font-size="10.00">+</text>
<text text-anchor="start" x="287.5" y="-80.5" font-family="Helvetica,sans-Serif" font-size="10.00">Convert()</text>
<text text-anchor="start" x="272.5" y="-65.5" font-family="Helvetica,sans-Serif" font-size="10.00">+</text>
<text text-anchor="start" x="287.5" y="-65.5" font-family="Helvetica,sans-Serif" font-size="10.00">Dispose()</text>
<text text-anchor="start" x="272.88" y="-50.5" font-family="Helvetica,sans-Serif" font-size="10.00">#</text>
<text text-anchor="start" x="287.5" y="-50.5" font-family="Helvetica,sans-Serif" font-size="10.00">Dispose()</text>
<text text-anchor="start" x="274" y="-35.5" font-family="Helvetica,sans-Serif" font-size="10.00">&#45;</text>
<text text-anchor="start" x="287.5" y="-35.5" font-family="Helvetica,sans-Serif" font-size="10.00">Prepare()</text>
<text text-anchor="start" x="274" y="-20.5" font-family="Helvetica,sans-Serif" font-size="10.00">&#45;</text>
<text text-anchor="start" x="287.5" y="-20.5" font-family="Helvetica,sans-Serif" font-size="10.00">Unprepare()</text>
<text text-anchor="start" x="274" y="-5.5" font-family="Helvetica,sans-Serif" font-size="10.00">&#45;</text>
<text text-anchor="start" x="287.5" y="-5.5" font-family="Helvetica,sans-Serif" font-size="10.00">~AcmStreamHeader()</text>
<polygon fill="#666666" stroke="#666666" points="263.5,-152 263.5,-152 396.5,-152 396.5,-152 263.5,-152"/>
<polygon fill="#666666" stroke="#666666" points="263.5,-122 263.5,-122 285.5,-122 285.5,-122 263.5,-122"/>
<polygon fill="#666666" stroke="#666666" points="285.5,-122 285.5,-122 396.5,-122 396.5,-122 285.5,-122"/>
<polygon fill="none" stroke="#666666" points="263.5,0 263.5,-180 396.5,-180 396.5,0 263.5,0"/>
</a>
</g>
</g>
<!-- Node2 -->
<g id="Node000002" class="node">
<title>Node2</title>
<g id="a_Node000002"><a xlink:href="class_i_disposable.html" target="_top" xlink:title=" ">
<polygon fill="white" stroke="none" points="138.5,-293 77.5,-293 77.5,-244 138.5,-244 138.5,-293"/>
<text text-anchor="start" x="82.12" y="-279.5" font-family="Helvetica,sans-Serif" font-size="10.00">IDisposable</text>
<text text-anchor="start" x="106.5" y="-264.5" font-family="Helvetica,sans-Serif" font-size="10.00"> </text>
<text text-anchor="start" x="106.5" y="-249.5" font-family="Helvetica,sans-Serif" font-size="10.00"> </text>
<polygon fill="#666666" stroke="#666666" points="77.5,-276 77.5,-276 138.5,-276 138.5,-276 77.5,-276"/>
<polygon fill="#666666" stroke="#666666" points="77.5,-261 77.5,-261 138.5,-261 138.5,-261 77.5,-261"/>
<polygon fill="none" stroke="#666666" points="77.5,-244 77.5,-293 138.5,-293 138.5,-244 77.5,-244"/>
</a>
</g>
</g>
<!-- Node2&#45;&gt;Node1 -->
<g id="edge1_Node000001_Node000002" class="edge">
<title>Node2&#45;&gt;Node1</title>
<g id="a_edge1_Node000001_Node000002"><a xlink:title=" ">
<path fill="none" stroke="#63b8ff" d="M146.18,-237.15C178.48,-211.47 225.5,-174.08 263.9,-143.55"/>
<polygon fill="none" stroke="#63b8ff" points="144.31,-234.16 138.66,-243.12 148.67,-239.64 144.31,-234.16"/>
</a>
</g>
</g>
<!-- Node3 -->
<g id="Node000003" class="node">
<title>Node3</title>
<g id="a_Node000003"><a xlink:href="class_n_audio_1_1_wave_1_1_compression_1_1_acm_stream_header_struct.html" target="_top" xlink:title="Interop structure for ACM stream headers. ACMSTREAMHEADER http://msdn.microsoft.com/en&#45;us/library/dd7...">
<polygon fill="white" stroke="none" points="289.5,-298.5 156.5,-298.5 156.5,-238.5 289.5,-238.5 289.5,-298.5"/>
<text text-anchor="start" x="161.12" y="-285" font-family="Helvetica,sans-Serif" font-size="10.00">NAudio.Wave.Compression.</text>
<text text-anchor="start" x="168.25" y="-273.75" font-family="Helvetica,sans-Serif" font-size="10.00">AcmStreamHeaderStruct</text>
<text text-anchor="start" x="221.5" y="-259" font-family="Helvetica,sans-Serif" font-size="10.00"> </text>
<text text-anchor="start" x="221.5" y="-244" font-family="Helvetica,sans-Serif" font-size="10.00"> </text>
<polygon fill="#666666" stroke="#666666" points="156.5,-270.5 156.5,-270.5 289.5,-270.5 289.5,-270.5 156.5,-270.5"/>
<polygon fill="#666666" stroke="#666666" points="156.5,-255.5 156.5,-255.5 289.5,-255.5 289.5,-255.5 156.5,-255.5"/>
<polygon fill="none" stroke="#666666" points="156.5,-238.5 156.5,-298.5 289.5,-298.5 289.5,-238.5 156.5,-238.5"/>
</a>
</g>
</g>
<!-- Node3&#45;&gt;Node1 -->
<g id="edge2_Node000001_Node000003" class="edge">
<title>Node3&#45;&gt;Node1</title>
<g id="a_edge2_Node000001_Node000003"><a xlink:title=" ">
<path fill="none" stroke="#63b8ff" d="M231.45,-238.59C235.73,-225.77 241.52,-210.74 248.5,-198 251.06,-193.33 253.8,-188.65 256.69,-183.99"/>
<polygon fill="none" stroke="#63b8ff" points="256.66,-184.03 256.54,-176.82 263.15,-173.94 263.27,-181.15 256.66,-184.03"/>
</a>
</g>
<text text-anchor="middle" x="282.75" y="-205.38" font-family="Helvetica,sans-Serif" font-size="10.00" fill="grey"> &#45;streamHeader</text>
</g>
<!-- Node4 -->
<g id="Node000004" class="node">
<title>Node4</title>
<g id="a_Node000004"><a xlink:title=" ">
<polygon fill="white" stroke="none" points="20,-439.75 0,-439.75 0,-390.75 20,-390.75 20,-439.75"/>
<text text-anchor="start" x="4.75" y="-426.25" font-family="Helvetica,sans-Serif" font-size="10.00">int</text>
<text text-anchor="start" x="8.5" y="-411.25" font-family="Helvetica,sans-Serif" font-size="10.00"> </text>
<text text-anchor="start" x="8.5" y="-396.25" font-family="Helvetica,sans-Serif" font-size="10.00"> </text>
<polygon fill="#666666" stroke="#666666" points="0,-422.75 0,-422.75 20,-422.75 20,-422.75 0,-422.75"/>
<polygon fill="#666666" stroke="#666666" points="0,-407.75 0,-407.75 20,-407.75 20,-407.75 0,-407.75"/>
<polygon fill="none" stroke="#666666" points="0,-390.75 0,-439.75 20,-439.75 20,-390.75 0,-390.75"/>
</a>
</g>
</g>
<!-- Node4&#45;&gt;Node3 -->
<g id="edge3_Node000003_Node000004" class="edge">
<title>Node4&#45;&gt;Node3</title>
<g id="a_edge3_Node000003_Node000004"><a xlink:title=" ">
<path fill="none" stroke="#63b8ff" d="M6.76,-391.05C5.07,-368.75 6.53,-335.69 26,-316.5 43.28,-299.47 105.16,-303.99 143.74,-298.33"/>
<polygon fill="none" stroke="#63b8ff" points="143.88,-298.31 148.99,-293.21 155.65,-295.97 150.55,-301.06 143.88,-298.31"/>
</a>
</g>
<text text-anchor="middle" x="83" y="-363.25" font-family="Helvetica,sans-Serif" font-size="10.00" fill="grey"> +cbStruct</text>
<text text-anchor="middle" x="83" y="-352" font-family="Helvetica,sans-Serif" font-size="10.00" fill="grey">+destBufferLength</text>
<text text-anchor="middle" x="83" y="-340.75" font-family="Helvetica,sans-Serif" font-size="10.00" fill="grey">+destBufferLengthUsed</text>
<text text-anchor="middle" x="83" y="-329.5" font-family="Helvetica,sans-Serif" font-size="10.00" fill="grey">+sourceBufferLength</text>
<text text-anchor="middle" x="83" y="-318.25" font-family="Helvetica,sans-Serif" font-size="10.00" fill="grey">+sourceBufferLengthUsed</text>
</g>
<!-- Node5 -->
<g id="Node000005" class="node">
<title>Node5</title>
<g id="a_Node000005"><a xlink:title=" ">
<polygon fill="white" stroke="none" points="219.5,-439.75 74.5,-439.75 74.5,-390.75 219.5,-390.75 219.5,-439.75"/>
<text text-anchor="start" x="79.12" y="-426.25" font-family="Helvetica,sans-Serif" font-size="10.00">AcmStreamHeaderStatusFlags</text>
<text text-anchor="start" x="145.5" y="-411.25" font-family="Helvetica,sans-Serif" font-size="10.00"> </text>
<text text-anchor="start" x="145.5" y="-396.25" font-family="Helvetica,sans-Serif" font-size="10.00"> </text>
<polygon fill="#666666" stroke="#666666" points="74.5,-422.75 74.5,-422.75 219.5,-422.75 219.5,-422.75 74.5,-422.75"/>
<polygon fill="#666666" stroke="#666666" points="74.5,-407.75 74.5,-407.75 219.5,-407.75 219.5,-407.75 74.5,-407.75"/>
<polygon fill="none" stroke="#666666" points="74.5,-390.75 74.5,-439.75 219.5,-439.75 219.5,-390.75 74.5,-390.75"/>
</a>
</g>
</g>
<!-- Node5&#45;&gt;Node3 -->
<g id="edge4_Node000003_Node000005" class="edge">
<title>Node5&#45;&gt;Node3</title>
<g id="a_edge4_Node000003_Node000005"><a xlink:title=" ">
<path fill="none" stroke="#63b8ff" d="M144.12,-390.88C142.7,-369.97 143.55,-339.21 156.75,-316.5 158.61,-313.3 160.79,-310.26 163.19,-307.39"/>
<polygon fill="none" stroke="#63b8ff" points="163.12,-307.46 164.46,-300.37 171.51,-298.88 170.18,-305.97 163.12,-307.46"/>
</a>
</g>
<text text-anchor="middle" x="183.62" y="-340.75" font-family="Helvetica,sans-Serif" font-size="10.00" fill="grey"> +fdwStatus</text>
</g>
<!-- Node6 -->
<g id="Node000006" class="node">
<title>Node6</title>
<g id="a_Node000006"><a xlink:title=" ">
<polygon fill="white" stroke="none" points="309,-439.75 275,-439.75 275,-390.75 309,-390.75 309,-439.75"/>
<text text-anchor="start" x="280" y="-426.25" font-family="Helvetica,sans-Serif" font-size="10.00">IntPtr</text>
<text text-anchor="start" x="290.5" y="-411.25" font-family="Helvetica,sans-Serif" font-size="10.00"> </text>
<text text-anchor="start" x="290.5" y="-396.25" font-family="Helvetica,sans-Serif" font-size="10.00"> </text>
<polygon fill="#666666" stroke="#666666" points="275,-422.75 275,-422.75 309,-422.75 309,-422.75 275,-422.75"/>
<polygon fill="#666666" stroke="#666666" points="275,-407.75 275,-407.75 309,-407.75 309,-407.75 275,-407.75"/>
<polygon fill="none" stroke="#666666" points="275,-390.75 275,-439.75 309,-439.75 309,-390.75 275,-390.75"/>
</a>
</g>
</g>
<!-- Node6&#45;&gt;Node1 -->
<g id="edge7_Node000001_Node000006" class="edge">
<title>Node6&#45;&gt;Node1</title>
<g id="a_edge7_Node000001_Node000006"><a xlink:title=" ">
<path fill="none" stroke="#63b8ff" d="M308.01,-390.99C311.22,-385.26 314.16,-378.98 316,-372.75 333.13,-314.7 336.99,-247.03 336.39,-192.56"/>
<polygon fill="none" stroke="#63b8ff" points="336.39,-192.62 332.29,-186.7 336.18,-180.63 340.28,-186.55 336.39,-192.62"/>
</a>
</g>
<text text-anchor="middle" x="368.38" y="-264.62" font-family="Helvetica,sans-Serif" font-size="10.00" fill="grey"> &#45;streamHandle</text>
</g>
<!-- Node6&#45;&gt;Node3 -->
<g id="edge5_Node000003_Node000006" class="edge">
<title>Node6&#45;&gt;Node3</title>
<g id="a_edge5_Node000003_Node000006"><a xlink:title=" ">
<path fill="none" stroke="#63b8ff" d="M275.02,-409.26C258.62,-403.44 234.7,-392.05 223.75,-372.75 213.28,-354.29 212.34,-330.83 214.34,-310.93"/>
<polygon fill="none" stroke="#63b8ff" points="214.34,-310.93 211.18,-304.45 215.95,-299.04 219.11,-305.52 214.34,-310.93"/>
</a>
</g>
<text text-anchor="middle" x="270.12" y="-363.25" font-family="Helvetica,sans-Serif" font-size="10.00" fill="grey"> +destBufferPointer</text>
<text text-anchor="middle" x="270.12" y="-352" font-family="Helvetica,sans-Serif" font-size="10.00" fill="grey">+destUserData</text>
<text text-anchor="middle" x="270.12" y="-340.75" font-family="Helvetica,sans-Serif" font-size="10.00" fill="grey">+sourceBufferPointer</text>
<text text-anchor="middle" x="270.12" y="-329.5" font-family="Helvetica,sans-Serif" font-size="10.00" fill="grey">+sourceUserData</text>
<text text-anchor="middle" x="270.12" y="-318.25" font-family="Helvetica,sans-Serif" font-size="10.00" fill="grey">+userData</text>
</g>
<!-- Node7 -->
<g id="Node000007" class="node">
<title>Node7</title>
<g id="a_Node000007"><a xlink:title=" ">
<polygon fill="white" stroke="none" points="469.5,-293 414.5,-293 414.5,-244 469.5,-244 469.5,-293"/>
<text text-anchor="start" x="419.12" y="-279.5" font-family="Helvetica,sans-Serif" font-size="10.00">GCHandle</text>
<text text-anchor="start" x="440.5" y="-264.5" font-family="Helvetica,sans-Serif" font-size="10.00"> </text>
<text text-anchor="start" x="440.5" y="-249.5" font-family="Helvetica,sans-Serif" font-size="10.00"> </text>
<polygon fill="#666666" stroke="#666666" points="414.5,-276 414.5,-276 469.5,-276 469.5,-276 414.5,-276"/>
<polygon fill="#666666" stroke="#666666" points="414.5,-261 414.5,-261 469.5,-261 469.5,-261 414.5,-261"/>
<polygon fill="none" stroke="#666666" points="414.5,-244 414.5,-293 469.5,-293 469.5,-244 414.5,-244"/>
</a>
</g>
</g>
<!-- Node7&#45;&gt;Node1 -->
<g id="edge6_Node000001_Node000007" class="edge">
<title>Node7&#45;&gt;Node1</title>
<g id="a_edge6_Node000001_Node000007"><a xlink:title=" ">
<path fill="none" stroke="#63b8ff" d="M427.13,-244.06C418.1,-229.83 405.89,-210.6 393.18,-190.57"/>
<polygon fill="none" stroke="#63b8ff" points="393.21,-190.61 386.62,-187.69 386.78,-180.48 393.37,-183.4 393.21,-190.61"/>
</a>
</g>
<text text-anchor="middle" x="443.62" y="-211" font-family="Helvetica,sans-Serif" font-size="10.00" fill="grey"> &#45;hDestBuffer</text>
<text text-anchor="middle" x="443.62" y="-199.75" font-family="Helvetica,sans-Serif" font-size="10.00" fill="grey">&#45;hSourceBuffer</text>
</g>
<!-- Node8 -->
<g id="Node000008" class="node">
<title>Node8</title>
<g id="a_Node000008"><a xlink:title=" ">
<polygon fill="white" stroke="none" points="530,-293 502,-293 502,-244 530,-244 530,-293"/>
<text text-anchor="start" x="507" y="-279.5" font-family="Helvetica,sans-Serif" font-size="10.00">bool</text>
<text text-anchor="start" x="514.5" y="-264.5" font-family="Helvetica,sans-Serif" font-size="10.00"> </text>
<text text-anchor="start" x="514.5" y="-249.5" font-family="Helvetica,sans-Serif" font-size="10.00"> </text>
<polygon fill="#666666" stroke="#666666" points="502,-276 502,-276 530,-276 530,-276 502,-276"/>
<polygon fill="#666666" stroke="#666666" points="502,-261 502,-261 530,-261 530,-261 502,-261"/>
<polygon fill="none" stroke="#666666" points="502,-244 502,-293 530,-293 530,-244 502,-244"/>
</a>
</g>
</g>
<!-- Node8&#45;&gt;Node1 -->
<g id="edge8_Node000001_Node000008" class="edge">
<title>Node8&#45;&gt;Node1</title>
<g id="a_edge8_Node000001_Node000008"><a xlink:title=" ">
<path fill="none" stroke="#63b8ff" d="M507.26,-244.24C501.1,-229.88 491.84,-211.65 480,-198 459.37,-174.21 432.42,-152.9 407.07,-135.67"/>
<polygon fill="none" stroke="#63b8ff" points="407.08,-135.68 399.87,-135.69 397.08,-129.04 404.29,-129.03 407.08,-135.68"/>
</a>
</g>
<text text-anchor="middle" x="516.5" y="-211" font-family="Helvetica,sans-Serif" font-size="10.00" fill="grey"> &#45;disposed</text>
<text text-anchor="middle" x="516.5" y="-199.75" font-family="Helvetica,sans-Serif" font-size="10.00" fill="grey">&#45;firstTime</text>
</g>
</g>
</svg>

<g id="navigator" transform="translate(0 0)" fill="#404254">
  <rect fill="#f2f5e9" fill-opacity="0.5" stroke="#606060" stroke-width=".5" x="0" y="0" width="60" height="60"/>
  <use id="zoomplus" xlink:href="#zoomPlus" x="17" y="9" onmousedown="handleZoom(evt,'in')"/>
  <use id="zoomminus" xlink:href="#zoomMin" x="42" y="9" onmousedown="handleZoom(evt,'out')"/>
  <use id="reset" xlink:href="#resetDef" x="30" y="36" onmousedown="handleReset()"/>
   <use id="arrowup" xlink:href="#arrowUp" x="0" y="0" onmousedown="handlePan(0,-1)"/>
  <use id="arrowright" xlink:href="#arrowRight" x="0" y="0" onmousedown="handlePan(1,0)"/>
  <use id="arrowdown" xlink:href="#arrowDown" x="0" y="0" onmousedown="handlePan(0,1)"/>
  <use id="arrowleft" xlink:href="#arrowLeft" x="0" y="0" onmousedown="handlePan(-1,0)"/>
</g>
<svg viewBox="0 0 15 15" width="100%" height="30px" preserveAspectRatio="xMaxYMin meet">
 <g id="arrow_out" transform="scale(0.3 0.3)">
  <a xlink:href="class_n_audio_1_1_wave_1_1_compression_1_1_acm_stream_header__coll__graph_org.svg" target="_base">
   <rect id="button" ry="5" rx="5" y="6" x="6" height="38" width="38"
        fill="#f2f5e9" fill-opacity="0.5" stroke="#606060" stroke-width="1.0"/>
   <path id="arrow"
     d="M 11.500037,31.436501 C 11.940474,20.09759 22.043105,11.32322 32.158766,21.979434 L 37.068811,17.246167 C 37.068811,17.246167 37.088388,32 37.088388,32 L 22.160133,31.978069 C 22.160133,31.978069 26.997745,27.140456 26.997745,27.140456 C 18.528582,18.264221 13.291696,25.230495 11.500037,31.436501 z"
     style="fill:#404040;"/>
  </a>
 </g>
</svg>

<style type='text/css'>
<![CDATA[
[data-mouse-over-selected='false'] { opacity: 0.7; }
[data-mouse-over-selected='true']  { opacity: 1.0; }
]]>
</style>
<script type="application/ecmascript"><![CDATA[
document.addEventListener('DOMContentLoaded', (event) => {
  highlightEdges();
  highlightAdjacentNodes();
});
]]></script>
</svg>
