<?xml version="1.0" encoding="UTF-8" standalone="no"?>
<!DOCTYPE svg PUBLIC "-//W3C//DTD SVG 1.1//EN"
 "http://www.w3.org/Graphics/SVG/1.1/DTD/svg11.dtd">
<!-- Generated by graphviz version 10.0.1 (20240210.2158)
 -->
<!-- Title: NAudio.Wave.AsioOut.driver_BufferUpdate Pages: 1 -->
<svg width="743pt" height="94pt"
 viewBox="0.00 0.00 742.50 93.88" xmlns="http://www.w3.org/2000/svg" xmlns:xlink="http://www.w3.org/1999/xlink">
<g id="graph0" class="graph" transform="scale(1 1) rotate(0) translate(4 89.88)">
<title>NAudio.Wave.AsioOut.driver_BufferUpdate</title>
<!-- Node1 -->
<g id="Node000001" class="node">
<title>Node1</title>
<g id="a_Node000001"><a xlink:title="Updates the buffer with input and output channels for audio processing.">
<polygon fill="#999999" stroke="#666666" points="141.25,-72.5 0,-72.5 0,-42 141.25,-42 141.25,-72.5"/>
<text text-anchor="start" x="8" y="-59" font-family="Helvetica,sans-Serif" font-size="10.00">NAudio.Wave.AsioOut.driver</text>
<text text-anchor="middle" x="70.62" y="-47.75" font-family="Helvetica,sans-Serif" font-size="10.00">_BufferUpdate</text>
</a>
</g>
</g>
<!-- Node2 -->
<g id="Node000002" class="node">
<title>Node2</title>
<g id="a_Node000002"><a xlink:href="interface_n_audio_1_1_wave_1_1_i_wave_provider.html#a1592be8cd7da05cc1a773b8d4ed979c0" target="_top" xlink:title="Fill the specified buffer with wave data.">
<polygon fill="white" stroke="#666666" points="345.5,-85.88 177.25,-85.88 177.25,-66.62 345.5,-66.62 345.5,-85.88"/>
<text text-anchor="middle" x="261.38" y="-72.38" font-family="Helvetica,sans-Serif" font-size="10.00">NAudio.Wave.IWaveProvider.Read</text>
</a>
</g>
</g>
<!-- Node1&#45;&gt;Node2 -->
<g id="edge1_Node000001_Node000002" class="edge">
<title>Node1&#45;&gt;Node2</title>
<g id="a_edge1_Node000001_Node000002"><a xlink:title=" ">
<path fill="none" stroke="#63b8ff" d="M141.64,-64.3C149.48,-65.09 157.57,-65.9 165.66,-66.72"/>
<polygon fill="#63b8ff" stroke="#63b8ff" points="165.26,-70.19 175.56,-67.71 165.97,-63.23 165.26,-70.19"/>
</a>
</g>
</g>
<!-- Node3 -->
<g id="Node000003" class="node">
<title>Node3</title>
<g id="a_Node000003"><a xlink:href="class_n_audio_1_1_wave_1_1_asio_out.html#a97d84c3f3c2505e7cad7769065c4d68a" target="_top" xlink:title="Stops the playback and resets the playback state to Stopped.">
<polygon fill="white" stroke="#666666" points="330.12,-48.88 192.62,-48.88 192.62,-29.62 330.12,-29.62 330.12,-48.88"/>
<text text-anchor="middle" x="261.38" y="-35.38" font-family="Helvetica,sans-Serif" font-size="10.00">NAudio.Wave.AsioOut.Stop</text>
</a>
</g>
</g>
<!-- Node1&#45;&gt;Node3 -->
<g id="edge2_Node000001_Node000003" class="edge">
<title>Node1&#45;&gt;Node3</title>
<g id="a_edge2_Node000001_Node000003"><a xlink:title=" ">
<path fill="none" stroke="#63b8ff" d="M141.64,-50.57C154.46,-49.35 167.93,-48.07 181,-46.82"/>
<polygon fill="#63b8ff" stroke="#63b8ff" points="181.23,-50.31 190.85,-45.88 180.56,-43.35 181.23,-50.31"/>
</a>
</g>
</g>
<!-- Node4 -->
<g id="Node000004" class="node">
<title>Node4</title>
<g id="a_Node000004"><a xlink:href="class_n_audio_1_1_wave_1_1_asio_out.html#a052efe78bbe2c49c6d7ce746dd749ece" target="_top" xlink:title="Raises the PlaybackStopped event with the specified exception.">
<polygon fill="white" stroke="#666666" points="526.5,-79.5 383.75,-79.5 383.75,-49 526.5,-49 526.5,-79.5"/>
<text text-anchor="start" x="391.75" y="-66" font-family="Helvetica,sans-Serif" font-size="10.00">NAudio.Wave.AsioOut.Raise</text>
<text text-anchor="middle" x="455.12" y="-54.75" font-family="Helvetica,sans-Serif" font-size="10.00">PlaybackStopped</text>
</a>
</g>
</g>
<!-- Node3&#45;&gt;Node4 -->
<g id="edge3_Node000003_Node000004" class="edge">
<title>Node3&#45;&gt;Node4</title>
<g id="a_edge3_Node000003_Node000004"><a xlink:title=" ">
<path fill="none" stroke="#63b8ff" d="M330.52,-48.13C344.02,-49.9 358.33,-51.76 372.24,-53.57"/>
<polygon fill="#63b8ff" stroke="#63b8ff" points="371.41,-57 381.78,-54.82 372.32,-50.05 371.41,-57"/>
</a>
</g>
</g>
<!-- Node5 -->
<g id="Node000005" class="node">
<title>Node5</title>
<g id="a_Node000005"><a xlink:href="class_n_audio_1_1_wave_1_1_asio_1_1_asio_driver_ext.html#a2a766495e3da6cf139ba6da1e5cddb0a" target="_top" xlink:title="Stops the driver.">
<polygon fill="white" stroke="#666666" points="528.75,-30.5 381.5,-30.5 381.5,0 528.75,0 528.75,-30.5"/>
<text text-anchor="start" x="389.5" y="-17" font-family="Helvetica,sans-Serif" font-size="10.00">NAudio.Wave.Asio.AsioDriver</text>
<text text-anchor="middle" x="455.12" y="-5.75" font-family="Helvetica,sans-Serif" font-size="10.00">Ext.Stop</text>
</a>
</g>
</g>
<!-- Node3&#45;&gt;Node5 -->
<g id="edge4_Node000003_Node000005" class="edge">
<title>Node3&#45;&gt;Node5</title>
<g id="a_edge4_Node000003_Node000005"><a xlink:title=" ">
<path fill="none" stroke="#63b8ff" d="M330.52,-30.72C343.17,-29.14 356.53,-27.46 369.61,-25.83"/>
<polygon fill="#63b8ff" stroke="#63b8ff" points="370.01,-29.31 379.5,-24.59 369.14,-22.36 370.01,-29.31"/>
</a>
</g>
</g>
<!-- Node6 -->
<g id="Node000006" class="node">
<title>Node6</title>
<g id="a_Node000006"><a xlink:href="class_n_audio_1_1_wave_1_1_asio_1_1_asio_driver.html#a15c87a396c55cfe0d357689331b75055" target="_top" xlink:title="Stops the ASIO driver and returns any error that occurred during the operation.">
<polygon fill="white" stroke="#666666" points="734.5,-24.88 564.75,-24.88 564.75,-5.63 734.5,-5.63 734.5,-24.88"/>
<text text-anchor="middle" x="649.62" y="-11.38" font-family="Helvetica,sans-Serif" font-size="10.00">NAudio.Wave.Asio.AsioDriver.Stop</text>
</a>
</g>
</g>
<!-- Node5&#45;&gt;Node6 -->
<g id="edge5_Node000005_Node000006" class="edge">
<title>Node5&#45;&gt;Node6</title>
<g id="a_edge5_Node000005_Node000006"><a xlink:title=" ">
<path fill="none" stroke="#63b8ff" d="M529.18,-15.25C536.98,-15.25 545.01,-15.25 553.03,-15.25"/>
<polygon fill="#63b8ff" stroke="#63b8ff" points="552.82,-18.75 562.82,-15.25 552.82,-11.75 552.82,-18.75"/>
</a>
</g>
</g>
</g>
</svg>
