<?xml version="1.0" encoding="UTF-8" standalone="no"?>
<!DOCTYPE svg PUBLIC "-//W3C//DTD SVG 1.1//EN"
 "http://www.w3.org/Graphics/SVG/1.1/DTD/svg11.dtd">
<!-- Generated by graphviz version 10.0.1 (20240210.2158)
 -->
<!-- Title: xeno_rat_server.Forms.DebugInfo.button1_Click Pages: 1 -->
<svg width="1314pt" height="492pt"
 viewBox="0.00 0.00 1314.00 491.50" xmlns="http://www.w3.org/2000/svg" xmlns:xlink="http://www.w3.org/1999/xlink">
<g id="graph0" class="graph" transform="scale(1 1) rotate(0) translate(4 487.5)">
<title>xeno_rat_server.Forms.DebugInfo.button1_Click</title>
<!-- Node1 -->
<g id="Node000001" class="node">
<title>Node1</title>
<g id="a_Node000001"><a xlink:title="Resets and populates the list view asynchronously.">
<polygon fill="#999999" stroke="#666666" points="147.25,-234.5 0,-234.5 0,-204 147.25,-204 147.25,-234.5"/>
<text text-anchor="start" x="8" y="-221" font-family="Helvetica,sans-Serif" font-size="10.00">xeno_rat_server.Forms.Debug</text>
<text text-anchor="middle" x="73.62" y="-209.75" font-family="Helvetica,sans-Serif" font-size="10.00">Info.button1_Click</text>
</a>
</g>
</g>
<!-- Node2 -->
<g id="Node000002" class="node">
<title>Node2</title>
<g id="a_Node000002"><a xlink:href="classxeno__rat__server_1_1_forms_1_1_debug_info.html#aac6c8d97f44ddf7d2fb1ced329862ace" target="_top" xlink:title="Clears the items in the ListView and repopulates it with the items obtained from the GetDlls method.">
<polygon fill="white" stroke="#666666" points="338,-234.5 183.25,-234.5 183.25,-204 338,-204 338,-234.5"/>
<text text-anchor="start" x="191.25" y="-221" font-family="Helvetica,sans-Serif" font-size="10.00">xeno_rat_server.Forms.Debug</text>
<text text-anchor="middle" x="260.62" y="-209.75" font-family="Helvetica,sans-Serif" font-size="10.00">Info.ResetAndPopulateListView</text>
</a>
</g>
</g>
<!-- Node1&#45;&gt;Node2 -->
<g id="edge1_Node000001_Node000002" class="edge">
<title>Node1&#45;&gt;Node2</title>
<g id="a_edge1_Node000001_Node000002"><a xlink:title=" ">
<path fill="none" stroke="#63b8ff" d="M147.74,-219.25C155.48,-219.25 163.4,-219.25 171.29,-219.25"/>
<polygon fill="#63b8ff" stroke="#63b8ff" points="171.27,-222.75 181.27,-219.25 171.27,-215.75 171.27,-222.75"/>
</a>
</g>
</g>
<!-- Node3 -->
<g id="Node000003" class="node">
<title>Node3</title>
<g id="a_Node000003"><a xlink:href="classxeno__rat__server_1_1_forms_1_1_debug_info.html#a0aca9762819c691fb292fe8bc49c4788" target="_top" xlink:title="Asynchronously retrieves the list of DLLs from the client and returns an array of strings containing ...">
<polygon fill="white" stroke="#666666" points="521.25,-234.5 374,-234.5 374,-204 521.25,-204 521.25,-234.5"/>
<text text-anchor="start" x="382" y="-221" font-family="Helvetica,sans-Serif" font-size="10.00">xeno_rat_server.Forms.Debug</text>
<text text-anchor="middle" x="447.62" y="-209.75" font-family="Helvetica,sans-Serif" font-size="10.00">Info.GetDlls</text>
</a>
</g>
</g>
<!-- Node2&#45;&gt;Node3 -->
<g id="edge2_Node000002_Node000003" class="edge">
<title>Node2&#45;&gt;Node3</title>
<g id="a_edge2_Node000002_Node000003"><a xlink:title=" ">
<path fill="none" stroke="#63b8ff" d="M338.47,-219.25C346.28,-219.25 354.24,-219.25 362.11,-219.25"/>
<polygon fill="#63b8ff" stroke="#63b8ff" points="362.06,-222.75 372.06,-219.25 362.06,-215.75 362.06,-222.75"/>
</a>
</g>
</g>
<!-- Node4 -->
<g id="Node000004" class="node">
<title>Node4</title>
<g id="a_Node000004"><a xlink:href="classxeno__rat__server_1_1_node.html#a3dcb832502d4cd1dd580897265b2da7b" target="_top" xlink:title="Asynchronously receives data from the socket and returns the received data as a byte array.">
<polygon fill="white" stroke="#666666" points="707.5,-259.5 557.25,-259.5 557.25,-229 707.5,-229 707.5,-259.5"/>
<text text-anchor="start" x="565.25" y="-246" font-family="Helvetica,sans-Serif" font-size="10.00">xeno_rat_server.Node.Receive</text>
<text text-anchor="middle" x="632.38" y="-234.75" font-family="Helvetica,sans-Serif" font-size="10.00">Async</text>
</a>
</g>
</g>
<!-- Node3&#45;&gt;Node4 -->
<g id="edge3_Node000003_Node000004" class="edge">
<title>Node3&#45;&gt;Node4</title>
<g id="a_edge3_Node000003_Node000004"><a xlink:title=" ">
<path fill="none" stroke="#63b8ff" d="M521.64,-229.24C529.55,-230.32 537.64,-231.43 545.68,-232.53"/>
<polygon fill="#63b8ff" stroke="#63b8ff" points="545.1,-235.98 555.48,-233.87 546.05,-229.04 545.1,-235.98"/>
</a>
</g>
</g>
<!-- Node14 -->
<g id="Node000014" class="node">
<title>Node14</title>
<g id="a_Node000014"><a xlink:href="classxeno__rat__server_1_1_node.html#a816e267eb31862d38c21e5faaae3061d" target="_top" xlink:title="Sends the provided data asynchronously and returns a boolean indicating the success of the operation.">
<polygon fill="white" stroke="#666666" points="700.75,-210.5 564,-210.5 564,-180 700.75,-180 700.75,-210.5"/>
<text text-anchor="start" x="572" y="-197" font-family="Helvetica,sans-Serif" font-size="10.00">xeno_rat_server.Node.Send</text>
<text text-anchor="middle" x="632.38" y="-185.75" font-family="Helvetica,sans-Serif" font-size="10.00">Async</text>
</a>
</g>
</g>
<!-- Node3&#45;&gt;Node14 -->
<g id="edge15_Node000003_Node000014" class="edge">
<title>Node3&#45;&gt;Node14</title>
<g id="a_edge15_Node000003_Node000014"><a xlink:title=" ">
<path fill="none" stroke="#63b8ff" d="M521.64,-209.66C531.68,-208.34 542.03,-206.98 552.18,-205.65"/>
<polygon fill="#63b8ff" stroke="#63b8ff" points="552.56,-209.13 562.02,-204.36 551.64,-202.19 552.56,-209.13"/>
</a>
</g>
</g>
<!-- Node5 -->
<g id="Node000005" class="node">
<title>Node5</title>
<g id="a_Node000005"><a xlink:href="classxeno__rat__server_1_1_node.html#a8814edd98b6463f49812be32d5928763" target="_top" xlink:title="Sets the isDisposed flag to true and disconnects the socket, disposes resources, and triggers the OnD...">
<polygon fill="white" stroke="#666666" points="907.25,-229.88 743.5,-229.88 743.5,-210.62 907.25,-210.62 907.25,-229.88"/>
<text text-anchor="middle" x="825.38" y="-216.38" font-family="Helvetica,sans-Serif" font-size="10.00">xeno_rat_server.Node.Disconnect</text>
</a>
</g>
</g>
<!-- Node4&#45;&gt;Node5 -->
<g id="edge4_Node000004_Node000005" class="edge">
<title>Node4&#45;&gt;Node5</title>
<g id="a_edge4_Node000004_Node000005"><a xlink:title=" ">
<path fill="none" stroke="#63b8ff" d="M707.77,-234.9C715.9,-233.88 724.26,-232.83 732.57,-231.79"/>
<polygon fill="#63b8ff" stroke="#63b8ff" points="732.88,-235.27 742.36,-230.56 732,-228.33 732.88,-235.27"/>
</a>
</g>
</g>
<!-- Node6 -->
<g id="Node000006" class="node">
<title>Node6</title>
<g id="a_Node000006"><a xlink:href="classxeno__rat__server_1_1_socket_handler.html#a40a6f3b7eb555e8d688ea5c0074ffa2c" target="_top" xlink:title="Asynchronously receives data and processes it according to the protocol, then returns the processed d...">
<polygon fill="white" stroke="#666666" points="902.75,-336.5 748,-336.5 748,-306 902.75,-306 902.75,-336.5"/>
<text text-anchor="start" x="756" y="-323" font-family="Helvetica,sans-Serif" font-size="10.00">xeno_rat_server.SocketHandler.</text>
<text text-anchor="middle" x="825.38" y="-311.75" font-family="Helvetica,sans-Serif" font-size="10.00">ReceiveAsync</text>
</a>
</g>
</g>
<!-- Node4&#45;&gt;Node6 -->
<g id="edge6_Node000004_Node000006" class="edge">
<title>Node4&#45;&gt;Node6</title>
<g id="a_edge6_Node000004_Node000006"><a xlink:title=" ">
<path fill="none" stroke="#63b8ff" d="M672.03,-259.83C701.7,-271.79 742.89,-288.4 774.96,-301.33"/>
<polygon fill="#63b8ff" stroke="#63b8ff" points="773.47,-304.5 784.05,-304.99 776.08,-298.01 773.47,-304.5"/>
</a>
</g>
</g>
<!-- Node5&#45;&gt;Node5 -->
<g id="edge5_Node000005_Node000005" class="edge">
<title>Node5&#45;&gt;Node5</title>
<g id="a_edge5_Node000005_Node000005"><a xlink:title=" ">
<path fill="none" stroke="#63b8ff" d="M795.16,-230.16C781.38,-238.77 791.45,-247.88 825.38,-247.88 844.99,-247.88 856.63,-244.83 860.3,-240.6"/>
<polygon fill="#63b8ff" stroke="#63b8ff" points="863.51,-239.22 856.21,-231.54 857.13,-242.1 863.51,-239.22"/>
</a>
</g>
</g>
<!-- Node7 -->
<g id="Node000007" class="node">
<title>Node7</title>
<g id="a_Node000007"><a xlink:href="classxeno__rat__server_1_1_socket_handler.html#a53169a2098514698865b69c8fab12f77" target="_top" xlink:title="Truncates the input byte array starting from the specified offset and returns the truncated byte arra...">
<polygon fill="white" stroke="#666666" points="1098,-287.5 943.25,-287.5 943.25,-257 1098,-257 1098,-287.5"/>
<text text-anchor="start" x="951.25" y="-274" font-family="Helvetica,sans-Serif" font-size="10.00">xeno_rat_server.SocketHandler.</text>
<text text-anchor="middle" x="1020.62" y="-262.75" font-family="Helvetica,sans-Serif" font-size="10.00">BTruncate</text>
</a>
</g>
</g>
<!-- Node6&#45;&gt;Node7 -->
<g id="edge7_Node000006_Node000007" class="edge">
<title>Node6&#45;&gt;Node7</title>
<g id="a_edge7_Node000006_Node000007"><a xlink:title=" ">
<path fill="none" stroke="#63b8ff" d="M888.32,-305.54C906.87,-300.84 927.38,-295.64 946.58,-290.77"/>
<polygon fill="#63b8ff" stroke="#63b8ff" points="947.4,-294.17 956.23,-288.32 945.68,-287.39 947.4,-294.17"/>
</a>
</g>
</g>
<!-- Node8 -->
<g id="Node000008" class="node">
<title>Node8</title>
<g id="a_Node000008"><a xlink:href="classxeno__rat__server_1_1_socket_handler.html#a68836e871124cbda8a644223a73421d0" target="_top" xlink:title="Converts the specified byte array to an integer value.">
<polygon fill="white" stroke="#666666" points="1297.38,-318.5 1142.62,-318.5 1142.62,-288 1297.38,-288 1297.38,-318.5"/>
<text text-anchor="start" x="1150.62" y="-305" font-family="Helvetica,sans-Serif" font-size="10.00">xeno_rat_server.SocketHandler.</text>
<text text-anchor="middle" x="1220" y="-293.75" font-family="Helvetica,sans-Serif" font-size="10.00">BytesToInt</text>
</a>
</g>
</g>
<!-- Node6&#45;&gt;Node8 -->
<g id="edge8_Node000006_Node000008" class="edge">
<title>Node6&#45;&gt;Node8</title>
<g id="a_edge8_Node000006_Node000008"><a xlink:title=" ">
<path fill="none" stroke="#63b8ff" d="M844.23,-305.55C865.9,-287.64 904.38,-259.39 943.25,-248.25 1009.37,-229.3 1030.78,-233.69 1098,-248.25 1128.25,-254.8 1160.03,-269.59 1183.42,-282.18"/>
<polygon fill="#63b8ff" stroke="#63b8ff" points="1181.45,-285.1 1191.9,-286.86 1184.83,-278.97 1181.45,-285.1"/>
</a>
</g>
</g>
<!-- Node9 -->
<g id="Node000009" class="node">
<title>Node9</title>
<g id="a_Node000009"><a xlink:href="classxeno__rat__server_1_1_compression.html#ad992bb75126d7c346fe7884dbbcf8ad8" target="_top" xlink:title="Decompresses the input buffer using the LZNT1 compression format and returns the decompressed data.">
<polygon fill="white" stroke="#666666" points="1095,-483.5 946.25,-483.5 946.25,-453 1095,-453 1095,-483.5"/>
<text text-anchor="start" x="954.25" y="-470" font-family="Helvetica,sans-Serif" font-size="10.00">xeno_rat_server.Compression.</text>
<text text-anchor="middle" x="1020.62" y="-458.75" font-family="Helvetica,sans-Serif" font-size="10.00">Decompress</text>
</a>
</g>
</g>
<!-- Node6&#45;&gt;Node9 -->
<g id="edge9_Node000006_Node000009" class="edge">
<title>Node6&#45;&gt;Node9</title>
<g id="a_edge9_Node000006_Node000009"><a xlink:title=" ">
<path fill="none" stroke="#63b8ff" d="M837.15,-336.7C855.86,-362.41 896.82,-414.04 943.25,-443.25 945.82,-444.87 948.5,-446.39 951.26,-447.82"/>
<polygon fill="#63b8ff" stroke="#63b8ff" points="949.61,-450.91 960.15,-451.98 952.58,-444.57 949.61,-450.91"/>
</a>
</g>
</g>
<!-- Node11 -->
<g id="Node000011" class="node">
<title>Node11</title>
<g id="a_Node000011"><a xlink:href="classxeno__rat__server_1_1_encryption.html#ae2a6537578e2140511afe92f8ad5e964" target="_top" xlink:title="Decrypts the input data using the provided key and returns the decrypted result.">
<polygon fill="white" stroke="#666666" points="1089.38,-434.5 951.88,-434.5 951.88,-404 1089.38,-404 1089.38,-434.5"/>
<text text-anchor="start" x="959.88" y="-421" font-family="Helvetica,sans-Serif" font-size="10.00">xeno_rat_server.Encryption.</text>
<text text-anchor="middle" x="1020.62" y="-409.75" font-family="Helvetica,sans-Serif" font-size="10.00">Decrypt</text>
</a>
</g>
</g>
<!-- Node6&#45;&gt;Node11 -->
<g id="edge11_Node000006_Node000011" class="edge">
<title>Node6&#45;&gt;Node11</title>
<g id="a_edge11_Node000006_Node000011"><a xlink:title=" ">
<path fill="none" stroke="#63b8ff" d="M847.88,-336.91C870.66,-352.96 908.14,-377.84 943.25,-394.25 947.19,-396.09 951.3,-397.86 955.49,-399.53"/>
<polygon fill="#63b8ff" stroke="#63b8ff" points="953.98,-402.7 964.57,-402.98 956.46,-396.16 953.98,-402.7"/>
</a>
</g>
</g>
<!-- Node12 -->
<g id="Node000012" class="node">
<title>Node12</title>
<g id="a_Node000012"><a xlink:href="classxeno__rat__server_1_1_socket_handler.html#aeefcafd750efab21954bd772b8ae565d" target="_top" xlink:title="Parses the header from the provided byte array and returns the parsed header object.">
<polygon fill="white" stroke="#666666" points="1098,-385.5 943.25,-385.5 943.25,-355 1098,-355 1098,-385.5"/>
<text text-anchor="start" x="951.25" y="-372" font-family="Helvetica,sans-Serif" font-size="10.00">xeno_rat_server.SocketHandler.</text>
<text text-anchor="middle" x="1020.62" y="-360.75" font-family="Helvetica,sans-Serif" font-size="10.00">ParseHeader</text>
</a>
</g>
</g>
<!-- Node6&#45;&gt;Node12 -->
<g id="edge12_Node000006_Node000012" class="edge">
<title>Node6&#45;&gt;Node12</title>
<g id="a_edge12_Node000006_Node000012"><a xlink:title=" ">
<path fill="none" stroke="#63b8ff" d="M888.32,-336.96C906.87,-341.66 927.38,-346.86 946.58,-351.73"/>
<polygon fill="#63b8ff" stroke="#63b8ff" points="945.68,-355.11 956.23,-354.18 947.4,-348.33 945.68,-355.11"/>
</a>
</g>
</g>
<!-- Node13 -->
<g id="Node000013" class="node">
<title>Node13</title>
<g id="a_Node000013"><a xlink:href="classxeno__rat__server_1_1_socket_handler.html#acc7e34649fee5060867a2321dd15d854" target="_top" xlink:title="Asynchronously receives all the data of the specified size from the connected socket and returns the ...">
<polygon fill="white" stroke="#666666" points="1098,-336.5 943.25,-336.5 943.25,-306 1098,-306 1098,-336.5"/>
<text text-anchor="start" x="951.25" y="-323" font-family="Helvetica,sans-Serif" font-size="10.00">xeno_rat_server.SocketHandler.</text>
<text text-anchor="middle" x="1020.62" y="-311.75" font-family="Helvetica,sans-Serif" font-size="10.00">RecvAllAsync_ddos_unsafer</text>
</a>
</g>
</g>
<!-- Node6&#45;&gt;Node13 -->
<g id="edge14_Node000006_Node000013" class="edge">
<title>Node6&#45;&gt;Node13</title>
<g id="a_edge14_Node000006_Node000013"><a xlink:title=" ">
<path fill="none" stroke="#63b8ff" d="M903.03,-321.25C912.5,-321.25 922.23,-321.25 931.85,-321.25"/>
<polygon fill="#63b8ff" stroke="#63b8ff" points="931.55,-324.75 941.55,-321.25 931.55,-317.75 931.55,-324.75"/>
</a>
</g>
</g>
<!-- Node10 -->
<g id="Node000010" class="node">
<title>Node10</title>
<g id="a_Node000010"><a xlink:href="classxeno__rat__server_1_1_compression.html#a1c901d319793d3855012549e6a18fe53" target="_top" xlink:title="Decompresses a buffer using the specified compression format and returns the decompressed data.">
<polygon fill="white" stroke="#666666" points="1294.38,-483.5 1145.62,-483.5 1145.62,-453 1294.38,-453 1294.38,-483.5"/>
<text text-anchor="start" x="1153.62" y="-470" font-family="Helvetica,sans-Serif" font-size="10.00">xeno_rat_server.Compression.</text>
<text text-anchor="middle" x="1220" y="-458.75" font-family="Helvetica,sans-Serif" font-size="10.00">RtlDecompressBuffer</text>
</a>
</g>
</g>
<!-- Node9&#45;&gt;Node10 -->
<g id="edge10_Node000009_Node000010" class="edge">
<title>Node9&#45;&gt;Node10</title>
<g id="a_edge10_Node000009_Node000010"><a xlink:title=" ">
<path fill="none" stroke="#63b8ff" d="M1095.4,-468.25C1108.02,-468.25 1121.22,-468.25 1134.1,-468.25"/>
<polygon fill="#63b8ff" stroke="#63b8ff" points="1133.8,-471.75 1143.8,-468.25 1133.8,-464.75 1133.8,-471.75"/>
</a>
</g>
</g>
<!-- Node12&#45;&gt;Node8 -->
<g id="edge13_Node000012_Node000008" class="edge">
<title>Node12&#45;&gt;Node8</title>
<g id="a_edge13_Node000012_Node000008"><a xlink:title=" ">
<path fill="none" stroke="#63b8ff" d="M1070.15,-354.51C1079.41,-351.47 1089.01,-348.28 1098,-345.25 1119.43,-338.02 1142.94,-329.91 1163.48,-322.75"/>
<polygon fill="#63b8ff" stroke="#63b8ff" points="1164.53,-326.1 1172.81,-319.5 1162.22,-319.49 1164.53,-326.1"/>
</a>
</g>
</g>
<!-- Node14&#45;&gt;Node5 -->
<g id="edge16_Node000014_Node000005" class="edge">
<title>Node14&#45;&gt;Node5</title>
<g id="a_edge16_Node000014_Node000005"><a xlink:title=" ">
<path fill="none" stroke="#63b8ff" d="M700.98,-204.1C712.29,-205.58 724.16,-207.13 735.9,-208.67"/>
<polygon fill="#63b8ff" stroke="#63b8ff" points="735.21,-212.11 745.58,-209.94 736.12,-205.17 735.21,-212.11"/>
</a>
</g>
</g>
<!-- Node15 -->
<g id="Node000015" class="node">
<title>Node15</title>
<g id="a_Node000015"><a xlink:href="classxeno__rat__server_1_1_socket_handler.html#a85ca8385d023521cdb86ff8ae688adee" target="_top" xlink:title="Sends the provided data asynchronously over the socket.">
<polygon fill="white" stroke="#666666" points="902.75,-152.5 748,-152.5 748,-122 902.75,-122 902.75,-152.5"/>
<text text-anchor="start" x="756" y="-139" font-family="Helvetica,sans-Serif" font-size="10.00">xeno_rat_server.SocketHandler.</text>
<text text-anchor="middle" x="825.38" y="-127.75" font-family="Helvetica,sans-Serif" font-size="10.00">SendAsync</text>
</a>
</g>
</g>
<!-- Node14&#45;&gt;Node15 -->
<g id="edge17_Node000014_Node000015" class="edge">
<title>Node14&#45;&gt;Node15</title>
<g id="a_edge17_Node000014_Node000015"><a xlink:title=" ">
<path fill="none" stroke="#63b8ff" d="M685.06,-179.55C708.74,-172.37 737,-163.78 761.86,-156.23"/>
<polygon fill="#63b8ff" stroke="#63b8ff" points="762.65,-159.65 771.2,-153.4 760.61,-152.95 762.65,-159.65"/>
</a>
</g>
</g>
<!-- Node16 -->
<g id="Node000016" class="node">
<title>Node16</title>
<g id="a_Node000016"><a xlink:href="classxeno__rat__server_1_1_compression.html#a0f3f31a2fe34d92bf04538b2fdf529e0" target="_top" xlink:title="Compresses the input buffer using the LZNT1 compression format and returns the compressed data.">
<polygon fill="white" stroke="#666666" points="1095,-103.5 946.25,-103.5 946.25,-73 1095,-73 1095,-103.5"/>
<text text-anchor="start" x="954.25" y="-90" font-family="Helvetica,sans-Serif" font-size="10.00">xeno_rat_server.Compression.</text>
<text text-anchor="middle" x="1020.62" y="-78.75" font-family="Helvetica,sans-Serif" font-size="10.00">Compress</text>
</a>
</g>
</g>
<!-- Node15&#45;&gt;Node16 -->
<g id="edge18_Node000015_Node000016" class="edge">
<title>Node15&#45;&gt;Node16</title>
<g id="a_edge18_Node000015_Node000016"><a xlink:title=" ">
<path fill="none" stroke="#63b8ff" d="M888.32,-121.54C906.87,-116.84 927.38,-111.64 946.58,-106.77"/>
<polygon fill="#63b8ff" stroke="#63b8ff" points="947.4,-110.17 956.23,-104.32 945.68,-103.39 947.4,-110.17"/>
</a>
</g>
</g>
<!-- Node21 -->
<g id="Node000021" class="node">
<title>Node21</title>
<g id="a_Node000021"><a xlink:href="classxeno__rat__server_1_1_socket_handler.html#a4f2e993b63cf1bba877781c9be2ed496" target="_top" xlink:title="Concatenates two byte arrays and returns the result.">
<polygon fill="white" stroke="#666666" points="1098,-54.5 943.25,-54.5 943.25,-24 1098,-24 1098,-54.5"/>
<text text-anchor="start" x="951.25" y="-41" font-family="Helvetica,sans-Serif" font-size="10.00">xeno_rat_server.SocketHandler.</text>
<text text-anchor="middle" x="1020.62" y="-29.75" font-family="Helvetica,sans-Serif" font-size="10.00">Concat</text>
</a>
</g>
</g>
<!-- Node15&#45;&gt;Node21 -->
<g id="edge23_Node000015_Node000021" class="edge">
<title>Node15&#45;&gt;Node21</title>
<g id="a_edge23_Node000015_Node000021"><a xlink:title=" ">
<path fill="none" stroke="#63b8ff" d="M847.88,-121.59C870.66,-105.54 908.14,-80.66 943.25,-64.25 947.19,-62.41 951.3,-60.64 955.49,-58.97"/>
<polygon fill="#63b8ff" stroke="#63b8ff" points="956.46,-62.34 964.57,-55.52 953.98,-55.8 956.46,-62.34"/>
</a>
</g>
</g>
<!-- Node22 -->
<g id="Node000022" class="node">
<title>Node22</title>
<g id="a_Node000022"><a xlink:href="classxeno__rat__server_1_1_encryption.html#a0fafecaba804cb57663bdbb4dcc4e93f" target="_top" xlink:title="Encrypts the input data using the provided key and returns the encrypted result.">
<polygon fill="white" stroke="#666666" points="1089.38,-201.5 951.88,-201.5 951.88,-171 1089.38,-171 1089.38,-201.5"/>
<text text-anchor="start" x="959.88" y="-188" font-family="Helvetica,sans-Serif" font-size="10.00">xeno_rat_server.Encryption.</text>
<text text-anchor="middle" x="1020.62" y="-176.75" font-family="Helvetica,sans-Serif" font-size="10.00">Encrypt</text>
</a>
</g>
</g>
<!-- Node15&#45;&gt;Node22 -->
<g id="edge24_Node000015_Node000022" class="edge">
<title>Node15&#45;&gt;Node22</title>
<g id="a_edge24_Node000015_Node000022"><a xlink:title=" ">
<path fill="none" stroke="#63b8ff" d="M888.32,-152.96C906.87,-157.66 927.38,-162.86 946.58,-167.73"/>
<polygon fill="#63b8ff" stroke="#63b8ff" points="945.68,-171.11 956.23,-170.18 947.4,-164.33 945.68,-171.11"/>
</a>
</g>
</g>
<!-- Node23 -->
<g id="Node000023" class="node">
<title>Node23</title>
<g id="a_Node000023"><a xlink:href="classxeno__rat__server_1_1_socket_handler.html#a7d019c5e4cbd0138d155156c7a7c5a8f" target="_top" xlink:title="Converts an integer to a byte array.">
<polygon fill="white" stroke="#666666" points="1098,-152.5 943.25,-152.5 943.25,-122 1098,-122 1098,-152.5"/>
<text text-anchor="start" x="951.25" y="-139" font-family="Helvetica,sans-Serif" font-size="10.00">xeno_rat_server.SocketHandler.</text>
<text text-anchor="middle" x="1020.62" y="-127.75" font-family="Helvetica,sans-Serif" font-size="10.00">IntToBytes</text>
</a>
</g>
</g>
<!-- Node15&#45;&gt;Node23 -->
<g id="edge25_Node000015_Node000023" class="edge">
<title>Node15&#45;&gt;Node23</title>
<g id="a_edge25_Node000015_Node000023"><a xlink:title=" ">
<path fill="none" stroke="#63b8ff" d="M903.03,-137.25C912.5,-137.25 922.23,-137.25 931.85,-137.25"/>
<polygon fill="#63b8ff" stroke="#63b8ff" points="931.55,-140.75 941.55,-137.25 931.55,-133.75 931.55,-140.75"/>
</a>
</g>
</g>
<!-- Node17 -->
<g id="Node000017" class="node">
<title>Node17</title>
<g id="a_Node000017"><a xlink:href="classxeno__rat__server_1_1_compression.html#ae86c8cb19fb340173e6b06816907c485" target="_top" xlink:title="Allocates the specified number of bytes in the local heap and returns a pointer to the allocated memo...">
<polygon fill="white" stroke="#666666" points="1294.38,-79.5 1145.62,-79.5 1145.62,-49 1294.38,-49 1294.38,-79.5"/>
<text text-anchor="start" x="1153.62" y="-66" font-family="Helvetica,sans-Serif" font-size="10.00">xeno_rat_server.Compression.</text>
<text text-anchor="middle" x="1220" y="-54.75" font-family="Helvetica,sans-Serif" font-size="10.00">LocalAlloc</text>
</a>
</g>
</g>
<!-- Node16&#45;&gt;Node17 -->
<g id="edge19_Node000016_Node000017" class="edge">
<title>Node16&#45;&gt;Node17</title>
<g id="a_edge19_Node000016_Node000017"><a xlink:title=" ">
<path fill="none" stroke="#63b8ff" d="M1095.4,-79.28C1108.02,-77.74 1121.22,-76.14 1134.1,-74.57"/>
<polygon fill="#63b8ff" stroke="#63b8ff" points="1134.31,-78.07 1143.81,-73.39 1133.46,-71.13 1134.31,-78.07"/>
</a>
</g>
</g>
<!-- Node18 -->
<g id="Node000018" class="node">
<title>Node18</title>
<g id="a_Node000018"><a xlink:href="classxeno__rat__server_1_1_compression.html#ab527e0a594d96bbaa1a4b1541888aa74" target="_top" xlink:title="Frees the memory block allocated by LocalAlloc and LocalReAlloc and invalidates the handle.">
<polygon fill="white" stroke="#666666" points="1294.38,-30.5 1145.62,-30.5 1145.62,0 1294.38,0 1294.38,-30.5"/>
<text text-anchor="start" x="1153.62" y="-17" font-family="Helvetica,sans-Serif" font-size="10.00">xeno_rat_server.Compression.</text>
<text text-anchor="middle" x="1220" y="-5.75" font-family="Helvetica,sans-Serif" font-size="10.00">LocalFree</text>
</a>
</g>
</g>
<!-- Node16&#45;&gt;Node18 -->
<g id="edge20_Node000016_Node000018" class="edge">
<title>Node16&#45;&gt;Node18</title>
<g id="a_edge20_Node000016_Node000018"><a xlink:title=" ">
<path fill="none" stroke="#63b8ff" d="M1075.3,-72.59C1083.04,-69.78 1090.81,-66.65 1098,-63.25 1115.16,-55.12 1116.72,-48.12 1134,-40.25 1138.25,-38.31 1142.69,-36.49 1147.22,-34.77"/>
<polygon fill="#63b8ff" stroke="#63b8ff" points="1148.21,-38.13 1156.45,-31.46 1145.85,-31.54 1148.21,-38.13"/>
</a>
</g>
</g>
<!-- Node19 -->
<g id="Node000019" class="node">
<title>Node19</title>
<g id="a_Node000019"><a xlink:href="classxeno__rat__server_1_1_compression.html#a1f9bb20d96d13bdc4d0f90e2b68d4343" target="_top" xlink:title="Compresses the input buffer using the specified compression format and returns the compressed data in...">
<polygon fill="white" stroke="#666666" points="1294.38,-177.5 1145.62,-177.5 1145.62,-147 1294.38,-147 1294.38,-177.5"/>
<text text-anchor="start" x="1153.62" y="-164" font-family="Helvetica,sans-Serif" font-size="10.00">xeno_rat_server.Compression.</text>
<text text-anchor="middle" x="1220" y="-152.75" font-family="Helvetica,sans-Serif" font-size="10.00">RtlCompressBuffer</text>
</a>
</g>
</g>
<!-- Node16&#45;&gt;Node19 -->
<g id="edge21_Node000016_Node000019" class="edge">
<title>Node16&#45;&gt;Node19</title>
<g id="a_edge21_Node000016_Node000019"><a xlink:title=" ">
<path fill="none" stroke="#63b8ff" d="M1075.77,-103.93C1083.36,-106.72 1090.97,-109.84 1098,-113.25 1115.3,-121.65 1116.58,-129.11 1134,-137.25 1138.04,-139.14 1142.25,-140.92 1146.55,-142.59"/>
<polygon fill="#63b8ff" stroke="#63b8ff" points="1145.34,-145.87 1155.93,-146.01 1147.74,-139.3 1145.34,-145.87"/>
</a>
</g>
</g>
<!-- Node20 -->
<g id="Node000020" class="node">
<title>Node20</title>
<g id="a_Node000020"><a xlink:href="classxeno__rat__server_1_1_compression.html#a5ca090d7b0887e40753bad9800c321e7" target="_top" xlink:title="Retrieves the size of the workspace required for compression.">
<polygon fill="white" stroke="#666666" points="1306,-128.5 1134,-128.5 1134,-98 1306,-98 1306,-128.5"/>
<text text-anchor="start" x="1142" y="-115" font-family="Helvetica,sans-Serif" font-size="10.00">xeno_rat_server.Compression.</text>
<text text-anchor="middle" x="1220" y="-103.75" font-family="Helvetica,sans-Serif" font-size="10.00">RtlGetCompressionWorkSpaceSize</text>
</a>
</g>
</g>
<!-- Node16&#45;&gt;Node20 -->
<g id="edge22_Node000016_Node000020" class="edge">
<title>Node16&#45;&gt;Node20</title>
<g id="a_edge22_Node000016_Node000020"><a xlink:title=" ">
<path fill="none" stroke="#63b8ff" d="M1095.4,-97.59C1104.18,-98.71 1113.24,-99.85 1122.27,-101"/>
<polygon fill="#63b8ff" stroke="#63b8ff" points="1121.82,-104.47 1132.18,-102.25 1122.7,-97.52 1121.82,-104.47"/>
</a>
</g>
</g>
</g>
</svg>
