<?xml version="1.0" encoding="UTF-8" standalone="no"?>
<!DOCTYPE svg PUBLIC "-//W3C//DTD SVG 1.1//EN"
 "http://www.w3.org/Graphics/SVG/1.1/DTD/svg11.dtd">
<!-- Generated by graphviz version 10.0.1 (20240210.2158)
 -->
<!-- Title: NAudio.Wave.SampleProviders.NotifyingSampleProvider Pages: 1 -->
<svg width="556pt" height="280pt"
 viewBox="0.00 0.00 556.00 280.25" xmlns="http://www.w3.org/2000/svg" xmlns:xlink="http://www.w3.org/1999/xlink">
<g id="graph0" class="graph" transform="scale(1 1) rotate(0) translate(4 276.25)">
<title>NAudio.Wave.SampleProviders.NotifyingSampleProvider</title>
<!-- Node1 -->
<g id="Node000001" class="node">
<title>Node1</title>
<g id="a_Node000001"><a xlink:title="Simple class that raises an event on every sample.">
<polygon fill="#999999" stroke="none" points="343,-75 193,-75 193,0 343,0 343,-75"/>
<text text-anchor="start" x="197.88" y="-61.5" font-family="Helvetica,sans-Serif" font-size="10.00">NAudio.Wave.SampleProviders.</text>
<text text-anchor="start" x="214" y="-50.25" font-family="Helvetica,sans-Serif" font-size="10.00">NotifyingSampleProvider</text>
<text text-anchor="start" x="201.5" y="-35.5" font-family="Helvetica,sans-Serif" font-size="10.00">+</text>
<text text-anchor="start" x="216" y="-35.5" font-family="Helvetica,sans-Serif" font-size="10.00">WaveFormat</text>
<text text-anchor="start" x="201.5" y="-20.5" font-family="Helvetica,sans-Serif" font-size="10.00">+</text>
<text text-anchor="start" x="216" y="-20.5" font-family="Helvetica,sans-Serif" font-size="10.00">NotifyingSampleProvider()</text>
<text text-anchor="start" x="201.5" y="-5.5" font-family="Helvetica,sans-Serif" font-size="10.00">+</text>
<text text-anchor="start" x="216" y="-5.5" font-family="Helvetica,sans-Serif" font-size="10.00">Read()</text>
<polygon fill="#666666" stroke="#666666" points="193,-47 193,-47 343,-47 343,-47 193,-47"/>
<polygon fill="#666666" stroke="#666666" points="193,-32 193,-32 214,-32 214,-32 193,-32"/>
<polygon fill="#666666" stroke="#666666" points="214,-32 214,-32 343,-32 343,-32 214,-32"/>
<polygon fill="none" stroke="#666666" points="193,0 193,-75 343,-75 343,0 193,0"/>
</a>
</g>
</g>
<!-- Node2 -->
<g id="Node000002" class="node">
<title>Node2</title>
<g id="a_Node000002"><a xlink:href="interface_n_audio_1_1_wave_1_1_i_sample_provider.html" target="_top" xlink:title="Like IWaveProvider, but makes it much simpler to put together a 32 bit floating point mixing engine.">
<polygon fill="white" stroke="none" points="82,-178.75 0,-178.75 0,-129.75 82,-129.75 82,-178.75"/>
<text text-anchor="start" x="5" y="-165.25" font-family="Helvetica,sans-Serif" font-size="10.00">ISampleProvider</text>
<text text-anchor="start" x="6" y="-150.25" font-family="Helvetica,sans-Serif" font-size="10.00">+</text>
<text text-anchor="start" x="18" y="-150.25" font-family="Helvetica,sans-Serif" font-size="10.00">WaveFormat</text>
<text text-anchor="start" x="6" y="-135.25" font-family="Helvetica,sans-Serif" font-size="10.00">+</text>
<text text-anchor="start" x="18" y="-135.25" font-family="Helvetica,sans-Serif" font-size="10.00">Read()</text>
<polygon fill="#666666" stroke="#666666" points="0,-161.75 0,-161.75 82,-161.75 82,-161.75 0,-161.75"/>
<polygon fill="#666666" stroke="#666666" points="0,-146.75 0,-146.75 16,-146.75 16,-146.75 0,-146.75"/>
<polygon fill="#666666" stroke="#666666" points="16,-146.75 16,-146.75 82,-146.75 82,-146.75 16,-146.75"/>
<polygon fill="none" stroke="#666666" points="0,-129.75 0,-178.75 82,-178.75 82,-129.75 0,-129.75"/>
</a>
</g>
</g>
<!-- Node2&#45;&gt;Node1 -->
<g id="edge1_Node000001_Node000002" class="edge">
<title>Node2&#45;&gt;Node1</title>
<g id="a_edge1_Node000001_Node000002"><a xlink:title=" ">
<path fill="none" stroke="#63b8ff" d="M87.75,-124.04C88.84,-123.44 89.92,-122.84 91,-122.25 123.84,-104.37 161.14,-86.4 193,-71.71"/>
<polygon fill="none" stroke="#63b8ff" points="86.08,-120.97 79.17,-129 89.58,-127.03 86.08,-120.97"/>
</a>
</g>
</g>
<!-- Node3 -->
<g id="Node000003" class="node">
<title>Node3</title>
<g id="a_Node000003"><a xlink:href="interface_n_audio_1_1_wave_1_1_i_sample_notifier.html" target="_top" xlink:title="An interface for WaveStreams which can report notification of individual samples.">
<polygon fill="white" stroke="none" points="177.5,-178.75 100.5,-178.75 100.5,-129.75 177.5,-129.75 177.5,-178.75"/>
<text text-anchor="start" x="105.25" y="-165.25" font-family="Helvetica,sans-Serif" font-size="10.00">ISampleNotifier</text>
<text text-anchor="start" x="137.5" y="-150.25" font-family="Helvetica,sans-Serif" font-size="10.00"> </text>
<text text-anchor="start" x="137.5" y="-135.25" font-family="Helvetica,sans-Serif" font-size="10.00"> </text>
<polygon fill="#666666" stroke="#666666" points="100.5,-161.75 100.5,-161.75 177.5,-161.75 177.5,-161.75 100.5,-161.75"/>
<polygon fill="#666666" stroke="#666666" points="100.5,-146.75 100.5,-146.75 177.5,-146.75 177.5,-146.75 100.5,-146.75"/>
<polygon fill="none" stroke="#666666" points="100.5,-129.75 100.5,-178.75 177.5,-178.75 177.5,-129.75 100.5,-129.75"/>
</a>
</g>
</g>
<!-- Node3&#45;&gt;Node1 -->
<g id="edge2_Node000001_Node000003" class="edge">
<title>Node3&#45;&gt;Node1</title>
<g id="a_edge2_Node000001_Node000003"><a xlink:title=" ">
<path fill="none" stroke="#63b8ff" d="M173.69,-122.39C190.16,-107.74 209.95,-90.14 227.14,-74.85"/>
<polygon fill="none" stroke="#63b8ff" points="171.69,-119.48 166.55,-128.75 176.35,-124.71 171.69,-119.48"/>
</a>
</g>
</g>
<!-- Node4 -->
<g id="Node000004" class="node">
<title>Node4</title>
<g id="a_Node000004"><a xlink:href="interface_n_audio_1_1_wave_1_1_i_sample_provider.html" target="_top" xlink:title="Like IWaveProvider, but makes it much simpler to put together a 32 bit floating point mixing engine.">
<polygon fill="white" stroke="none" points="340.5,-178.75 195.5,-178.75 195.5,-129.75 340.5,-129.75 340.5,-178.75"/>
<text text-anchor="start" x="200.5" y="-165.25" font-family="Helvetica,sans-Serif" font-size="10.00">NAudio.Wave.ISampleProvider</text>
<text text-anchor="start" x="217.5" y="-150.25" font-family="Helvetica,sans-Serif" font-size="10.00">+</text>
<text text-anchor="start" x="245.5" y="-150.25" font-family="Helvetica,sans-Serif" font-size="10.00">WaveFormat</text>
<text text-anchor="start" x="217.5" y="-135.25" font-family="Helvetica,sans-Serif" font-size="10.00">+</text>
<text text-anchor="start" x="245.5" y="-135.25" font-family="Helvetica,sans-Serif" font-size="10.00">Read()</text>
<polygon fill="#666666" stroke="#666666" points="195.5,-161.75 195.5,-161.75 340.5,-161.75 340.5,-161.75 195.5,-161.75"/>
<polygon fill="#666666" stroke="#666666" points="195.5,-146.75 195.5,-146.75 243.5,-146.75 243.5,-146.75 195.5,-146.75"/>
<polygon fill="#666666" stroke="#666666" points="243.5,-146.75 243.5,-146.75 340.5,-146.75 340.5,-146.75 243.5,-146.75"/>
<polygon fill="none" stroke="#666666" points="195.5,-129.75 195.5,-178.75 340.5,-178.75 340.5,-129.75 195.5,-129.75"/>
</a>
</g>
</g>
<!-- Node4&#45;&gt;Node1 -->
<g id="edge3_Node000001_Node000004" class="edge">
<title>Node4&#45;&gt;Node1</title>
<g id="a_edge3_Node000001_Node000004"><a xlink:title=" ">
<path fill="none" stroke="#63b8ff" d="M268,-129.75C268,-117.48 268,-101.98 268,-87.26"/>
<polygon fill="none" stroke="#63b8ff" points="268,-87.53 264,-81.53 268,-75.53 272,-81.53 268,-87.53"/>
</a>
</g>
<text text-anchor="middle" x="285.62" y="-94.75" font-family="Helvetica,sans-Serif" font-size="10.00" fill="grey"> &#45;source</text>
</g>
<!-- Node5 -->
<g id="Node000005" class="node">
<title>Node5</title>
<g id="a_Node000005"><a xlink:href="class_n_audio_1_1_wave_1_1_sample_event_args.html" target="_top" xlink:title="Sample event arguments.">
<polygon fill="white" stroke="none" points="509.5,-186.25 358.5,-186.25 358.5,-122.25 509.5,-122.25 509.5,-186.25"/>
<text text-anchor="start" x="363.12" y="-172.75" font-family="Helvetica,sans-Serif" font-size="10.00">NAudio.Wave.SampleEventArgs</text>
<text text-anchor="start" x="374.5" y="-157.75" font-family="Helvetica,sans-Serif" font-size="10.00">+</text>
<text text-anchor="start" x="396.5" y="-157.75" font-family="Helvetica,sans-Serif" font-size="10.00">Left</text>
<text text-anchor="start" x="374.5" y="-142.75" font-family="Helvetica,sans-Serif" font-size="10.00">+</text>
<text text-anchor="start" x="396.5" y="-142.75" font-family="Helvetica,sans-Serif" font-size="10.00">Right</text>
<text text-anchor="start" x="374.5" y="-127.75" font-family="Helvetica,sans-Serif" font-size="10.00">+</text>
<text text-anchor="start" x="396.5" y="-127.75" font-family="Helvetica,sans-Serif" font-size="10.00">SampleEventArgs()</text>
<polygon fill="#666666" stroke="#666666" points="358.5,-169.25 358.5,-169.25 509.5,-169.25 509.5,-169.25 358.5,-169.25"/>
<polygon fill="#666666" stroke="#666666" points="358.5,-139.25 358.5,-139.25 394.5,-139.25 394.5,-139.25 358.5,-139.25"/>
<polygon fill="#666666" stroke="#666666" points="394.5,-139.25 394.5,-139.25 509.5,-139.25 509.5,-139.25 394.5,-139.25"/>
<polygon fill="none" stroke="#666666" points="358.5,-122.25 358.5,-186.25 509.5,-186.25 509.5,-122.25 358.5,-122.25"/>
</a>
</g>
</g>
<!-- Node5&#45;&gt;Node1 -->
<g id="edge4_Node000001_Node000005" class="edge">
<title>Node5&#45;&gt;Node1</title>
<g id="a_edge4_Node000001_Node000005"><a xlink:title=" ">
<path fill="none" stroke="#63b8ff" d="M389.52,-122.5C371.61,-110.12 350.63,-95.62 331.18,-82.18"/>
<polygon fill="none" stroke="#63b8ff" points="331.18,-82.18 323.97,-82.06 321.31,-75.35 328.52,-75.47 331.18,-82.18"/>
</a>
</g>
<text text-anchor="middle" x="388.88" y="-94.75" font-family="Helvetica,sans-Serif" font-size="10.00" fill="grey"> &#45;sampleArgs</text>
</g>
<!-- Node6 -->
<g id="Node000006" class="node">
<title>Node6</title>
<g id="a_Node000006"><a xlink:href="class_event_args.html" target="_top" xlink:title=" ">
<polygon fill="white" stroke="none" points="461.5,-272.25 406.5,-272.25 406.5,-223.25 461.5,-223.25 461.5,-272.25"/>
<text text-anchor="start" x="411.12" y="-258.75" font-family="Helvetica,sans-Serif" font-size="10.00">EventArgs</text>
<text text-anchor="start" x="432.5" y="-243.75" font-family="Helvetica,sans-Serif" font-size="10.00"> </text>
<text text-anchor="start" x="432.5" y="-228.75" font-family="Helvetica,sans-Serif" font-size="10.00"> </text>
<polygon fill="#666666" stroke="#666666" points="406.5,-255.25 406.5,-255.25 461.5,-255.25 461.5,-255.25 406.5,-255.25"/>
<polygon fill="#666666" stroke="#666666" points="406.5,-240.25 406.5,-240.25 461.5,-240.25 461.5,-240.25 406.5,-240.25"/>
<polygon fill="none" stroke="#666666" points="406.5,-223.25 406.5,-272.25 461.5,-272.25 461.5,-223.25 406.5,-223.25"/>
</a>
</g>
</g>
<!-- Node6&#45;&gt;Node5 -->
<g id="edge5_Node000005_Node000006" class="edge">
<title>Node6&#45;&gt;Node5</title>
<g id="a_edge5_Node000005_Node000006"><a xlink:title=" ">
<path fill="none" stroke="#63b8ff" d="M434,-212.33C434,-203.66 434,-194.41 434,-185.94"/>
<polygon fill="none" stroke="#63b8ff" points="430.5,-212.15 434,-222.15 437.5,-212.15 430.5,-212.15"/>
</a>
</g>
</g>
<!-- Node7 -->
<g id="Node000007" class="node">
<title>Node7</title>
<g id="a_Node000007"><a xlink:title=" ">
<polygon fill="white" stroke="none" points="548,-178.75 528,-178.75 528,-129.75 548,-129.75 548,-178.75"/>
<text text-anchor="start" x="532.75" y="-165.25" font-family="Helvetica,sans-Serif" font-size="10.00">int</text>
<text text-anchor="start" x="536.5" y="-150.25" font-family="Helvetica,sans-Serif" font-size="10.00"> </text>
<text text-anchor="start" x="536.5" y="-135.25" font-family="Helvetica,sans-Serif" font-size="10.00"> </text>
<polygon fill="#666666" stroke="#666666" points="528,-161.75 528,-161.75 548,-161.75 548,-161.75 528,-161.75"/>
<polygon fill="#666666" stroke="#666666" points="528,-146.75 528,-146.75 548,-146.75 548,-146.75 528,-146.75"/>
<polygon fill="none" stroke="#666666" points="528,-129.75 528,-178.75 548,-178.75 548,-129.75 528,-129.75"/>
</a>
</g>
</g>
<!-- Node7&#45;&gt;Node1 -->
<g id="edge6_Node000001_Node000007" class="edge">
<title>Node7&#45;&gt;Node1</title>
<g id="a_edge6_Node000001_Node000007"><a xlink:title=" ">
<path fill="none" stroke="#63b8ff" d="M528.18,-132.61C525.62,-128.77 522.56,-125.08 519,-122.25 471.9,-84.82 407.31,-63.77 355.45,-52.14"/>
<polygon fill="none" stroke="#63b8ff" points="355.51,-52.15 348.8,-54.8 343.78,-49.63 350.48,-46.98 355.51,-52.15"/>
</a>
</g>
<text text-anchor="middle" x="511.5" y="-94.75" font-family="Helvetica,sans-Serif" font-size="10.00" fill="grey"> &#45;channels</text>
</g>
</g>
</svg>
