<?xml version="1.0" encoding="UTF-8" standalone="no"?>
<!DOCTYPE svg PUBLIC "-//W3C//DTD SVG 1.1//EN"
 "http://www.w3.org/Graphics/SVG/1.1/DTD/svg11.dtd">
<!-- Generated by graphviz version 10.0.1 (20240210.2158)
 -->
<!-- Title: NAudio.CoreAudioApi.WasapiCapture.CaptureThread Pages: 1 -->
<!--zoomable 246 -->

<svg id="main" version="1.1" xmlns="http://www.w3.org/2000/svg" xmlns:xlink="http://www.w3.org/1999/xlink" xml:space="preserve" onload="init(evt)">
<style type="text/css"><![CDATA[
.node, .edge {opacity: 0.7;}
.node.selected, .edge.selected {opacity: 1;}
.edge:hover path { stroke: red; }
.edge:hover polygon { stroke: red; fill: red; }
]]></style>

<defs>
  <circle id="rim" cx="0" cy="0" r="7"/>
  <circle id="rim2" cx="0" cy="0" r="3.5"/>
  <g id="zoomPlus">
    <use xlink:href="#rim" fill="#404040"><set attributeName="fill" to="#808080" begin="zoomplus.mouseover" end="zoomplus.mouseout"/></use>
    <path d="M-4,0h8M0,-4v8" fill="none" stroke="white" stroke-width="1.5" pointer-events="none"/>
  </g>
  <g id="zoomMin">
    <use xlink:href="#rim" fill="#404040"><set attributeName="fill" to="#808080" begin="zoomminus.mouseover" end="zoomminus.mouseout"/></use>
    <path d="M-4,0h8" fill="none" stroke="white" stroke-width="1.5" pointer-events="none"/>
  </g>
  <g id="arrowUp" transform="translate(30 24)">
    <use xlink:href="#rim"/>
    <path pointer-events="none" fill="none" stroke="white" stroke-width="1.5" d="M0,-3.0v7 M-2.5,-0.5L0,-3.0L2.5,-0.5"/>
  </g>
  <g id="arrowRight" transform="rotate(90) translate(36 -43)">
    <use xlink:href="#rim"/>
    <path pointer-events="none" fill="none" stroke="white" stroke-width="1.5" d="M0,-3.0v7 M-2.5,-0.5L0,-3.0L2.5,-0.5"/>
  </g>
  <g id="arrowDown" transform="rotate(180) translate(-30 -48)">
    <use xlink:href="#rim"/>
    <path pointer-events="none" fill="none" stroke="white" stroke-width="1.5" d="M0,-3.0v7 M-2.5,-0.5L0,-3.0L2.5,-0.5"/>
  </g>
  <g id="arrowLeft" transform="rotate(270) translate(-36 17)">
    <use xlink:href="#rim"/>
    <path pointer-events="none" fill="none" stroke="white" stroke-width="1.5" d="M0,-3.0v7 M-2.5,-0.5L0,-3.0L2.5,-0.5"/>
  </g>
  <g id="resetDef">
    <use xlink:href="#rim2" fill="#404040"><set attributeName="fill" to="#808080" begin="reset.mouseover" end="reset.mouseout"/></use>
  </g>
</defs>
<script type="application/ecmascript">
var viewWidth = 978;
var viewHeight = 246;
var sectionId = 'dynsection-2';
</script>
<script type="application/ecmascript" xlink:href="svg.min.js"/>
<svg id="graph" class="graph">
<g id="viewport">
<title>NAudio.CoreAudioApi.WasapiCapture.CaptureThread</title>
<!-- Node1 -->
<g id="Node000001" class="node">
<title>Node1</title>
<g id="a_Node000001"><a xlink:title="Captures audio using the provided AudioClient and raises an event when recording is stopped.">
<polygon fill="#999999" stroke="#666666" points="146.5,-79.5 0,-79.5 0,-49 146.5,-49 146.5,-79.5"/>
<text text-anchor="start" x="8" y="-66" font-family="Helvetica,sans-Serif" font-size="10.00">NAudio.CoreAudioApi.Wasapi</text>
<text text-anchor="middle" x="73.25" y="-54.75" font-family="Helvetica,sans-Serif" font-size="10.00">Capture.CaptureThread</text>
</a>
</g>
</g>
<!-- Node2 -->
<g id="Node000002" class="node">
<title>Node2</title>
<g id="a_Node000002"><a xlink:href="class_n_audio_1_1_core_audio_api_1_1_wasapi_capture.html#a7cb69793688b5fe4ed40f72ea54f17a8" target="_top" xlink:title="Records audio using the provided client &#160;and manages the capture state.">
<polygon fill="white" stroke="#666666" points="335.38,-128.5 188.88,-128.5 188.88,-98 335.38,-98 335.38,-128.5"/>
<text text-anchor="start" x="196.88" y="-115" font-family="Helvetica,sans-Serif" font-size="10.00">NAudio.CoreAudioApi.Wasapi</text>
<text text-anchor="middle" x="262.12" y="-103.75" font-family="Helvetica,sans-Serif" font-size="10.00">Capture.DoRecording</text>
</a>
</g>
</g>
<!-- Node1&#45;&gt;Node2 -->
<g id="edge1_Node000001_Node000002" class="edge">
<title>Node1&#45;&gt;Node2</title>
<g id="a_edge1_Node000001_Node000002"><a xlink:title=" ">
<path fill="none" stroke="#63b8ff" d="M134.15,-79.96C152,-84.64 171.74,-89.81 190.23,-94.66"/>
<polygon fill="#63b8ff" stroke="#63b8ff" points="189.22,-98.01 199.78,-97.16 190.99,-91.24 189.22,-98.01"/>
</a>
</g>
</g>
<!-- Node12 -->
<g id="Node000012" class="node">
<title>Node12</title>
<g id="a_Node000012"><a xlink:href="class_n_audio_1_1_core_audio_api_1_1_wasapi_capture.html#ae24a2373449ff0ccad027898a99dda40" target="_top" xlink:title="Raises the RecordingStopped event with the specified exception.">
<polygon fill="white" stroke="#666666" points="341.75,-79.5 182.5,-79.5 182.5,-49 341.75,-49 341.75,-79.5"/>
<text text-anchor="start" x="190.5" y="-66" font-family="Helvetica,sans-Serif" font-size="10.00">NAudio.CoreAudioApi.Wasapi</text>
<text text-anchor="middle" x="262.12" y="-54.75" font-family="Helvetica,sans-Serif" font-size="10.00">Capture.RaiseRecordingStopped</text>
</a>
</g>
</g>
<!-- Node1&#45;&gt;Node12 -->
<g id="edge11_Node000001_Node000012" class="edge">
<title>Node1&#45;&gt;Node12</title>
<g id="a_edge11_Node000001_Node000012"><a xlink:title=" ">
<path fill="none" stroke="#63b8ff" d="M146.77,-64.25C154.65,-64.25 162.74,-64.25 170.8,-64.25"/>
<polygon fill="#63b8ff" stroke="#63b8ff" points="170.63,-67.75 180.63,-64.25 170.63,-60.75 170.63,-67.75"/>
</a>
</g>
</g>
<!-- Node13 -->
<g id="Node000013" class="node">
<title>Node13</title>
<g id="a_Node000013"><a xlink:href="class_n_audio_1_1_core_audio_api_1_1_audio_client.html#a91338b98c4658bc2765d0eb380dd48b3" target="_top" xlink:title="Stops the audio playback.">
<polygon fill="white" stroke="#666666" points="331.62,-30.5 192.62,-30.5 192.62,0 331.62,0 331.62,-30.5"/>
<text text-anchor="start" x="200.62" y="-17" font-family="Helvetica,sans-Serif" font-size="10.00">NAudio.CoreAudioApi.Audio</text>
<text text-anchor="middle" x="262.12" y="-5.75" font-family="Helvetica,sans-Serif" font-size="10.00">Client.Stop</text>
</a>
</g>
</g>
<!-- Node1&#45;&gt;Node13 -->
<g id="edge12_Node000001_Node000013" class="edge">
<title>Node1&#45;&gt;Node13</title>
<g id="a_edge12_Node000001_Node000013"><a xlink:title=" ">
<path fill="none" stroke="#63b8ff" d="M134.15,-48.54C152,-43.86 171.74,-38.69 190.23,-33.84"/>
<polygon fill="#63b8ff" stroke="#63b8ff" points="190.99,-37.26 199.78,-31.34 189.22,-30.49 190.99,-37.26"/>
</a>
</g>
</g>
<!-- Node3 -->
<g id="Node000003" class="node">
<title>Node3</title>
<g id="a_Node000003"><a xlink:href="class_n_audio_1_1_core_audio_api_1_1_wasapi_capture.html#a2216734b29bace018dea78a20c0a1d29" target="_top" xlink:title="Reads the next packet from the AudioCaptureClient and invokes the DataAvailable event with the captur...">
<polygon fill="white" stroke="#666666" points="531.38,-176.5 384.88,-176.5 384.88,-146 531.38,-146 531.38,-176.5"/>
<text text-anchor="start" x="392.88" y="-163" font-family="Helvetica,sans-Serif" font-size="10.00">NAudio.CoreAudioApi.Wasapi</text>
<text text-anchor="middle" x="458.12" y="-151.75" font-family="Helvetica,sans-Serif" font-size="10.00">Capture.ReadNextPacket</text>
</a>
</g>
</g>
<!-- Node2&#45;&gt;Node3 -->
<g id="edge2_Node000002_Node000003" class="edge">
<title>Node2&#45;&gt;Node3</title>
<g id="a_edge2_Node000002_Node000003"><a xlink:title=" ">
<path fill="none" stroke="#63b8ff" d="M326.65,-128.97C344.58,-133.4 364.25,-138.27 382.75,-142.85"/>
<polygon fill="#63b8ff" stroke="#63b8ff" points="381.77,-146.21 392.32,-145.22 383.46,-139.42 381.77,-146.21"/>
</a>
</g>
</g>
<!-- Node10 -->
<g id="Node000010" class="node">
<title>Node10</title>
<g id="a_Node000010"><a xlink:href="class_n_audio_1_1_core_audio_api_1_1_audio_client.html#ac5e52c70a7bc0ed4cf4e35b66df6a352" target="_top" xlink:title="Starts the audio client interface.">
<polygon fill="white" stroke="#666666" points="527.62,-103.5 388.62,-103.5 388.62,-73 527.62,-73 527.62,-103.5"/>
<text text-anchor="start" x="396.62" y="-90" font-family="Helvetica,sans-Serif" font-size="10.00">NAudio.CoreAudioApi.Audio</text>
<text text-anchor="middle" x="458.12" y="-78.75" font-family="Helvetica,sans-Serif" font-size="10.00">Client.Start</text>
</a>
</g>
</g>
<!-- Node2&#45;&gt;Node10 -->
<g id="edge9_Node000002_Node000010" class="edge">
<title>Node2&#45;&gt;Node10</title>
<g id="a_edge9_Node000002_Node000010"><a xlink:title=" ">
<path fill="none" stroke="#63b8ff" d="M335.64,-103.91C349.09,-102.17 363.22,-100.35 376.88,-98.59"/>
<polygon fill="#63b8ff" stroke="#63b8ff" points="377.26,-102.07 386.73,-97.32 376.37,-95.13 377.26,-102.07"/>
</a>
</g>
</g>
<!-- Node4 -->
<g id="Node000004" class="node">
<title>Node4</title>
<g id="a_Node000004"><a xlink:href="class_n_audio_1_1_core_audio_api_1_1_audio_capture_client.html#ae74d4bb48eebb73044d484c5ddce295e" target="_top" xlink:title="Retrieves a pointer to the buffer that is ready for the next capture.">
<polygon fill="white" stroke="#666666" points="727,-237.5 588,-237.5 588,-207 727,-207 727,-237.5"/>
<text text-anchor="start" x="596" y="-224" font-family="Helvetica,sans-Serif" font-size="10.00">NAudio.CoreAudioApi.Audio</text>
<text text-anchor="middle" x="657.5" y="-212.75" font-family="Helvetica,sans-Serif" font-size="10.00">CaptureClient.GetBuffer</text>
</a>
</g>
</g>
<!-- Node3&#45;&gt;Node4 -->
<g id="edge3_Node000003_Node000004" class="edge">
<title>Node3&#45;&gt;Node4</title>
<g id="a_edge3_Node000003_Node000004"><a xlink:title=" ">
<path fill="none" stroke="#63b8ff" d="M509.08,-176.91C529.37,-183.26 553.05,-190.63 574.5,-197.25 580.79,-199.19 587.35,-201.2 593.9,-203.21"/>
<polygon fill="#63b8ff" stroke="#63b8ff" points="592.83,-206.54 603.42,-206.12 594.88,-199.85 592.83,-206.54"/>
</a>
</g>
</g>
<!-- Node6 -->
<g id="Node000006" class="node">
<title>Node6</title>
<g id="a_Node000006"><a xlink:href="class_n_audio_1_1_core_audio_api_1_1_audio_capture_client.html#a3002db667f228b4eeb0176eabc316e5c" target="_top" xlink:title="Retrieves the size of the next audio packet and returns the number of frames in the packet.">
<polygon fill="white" stroke="#666666" points="740.5,-188.5 574.5,-188.5 574.5,-158 740.5,-158 740.5,-188.5"/>
<text text-anchor="start" x="582.5" y="-175" font-family="Helvetica,sans-Serif" font-size="10.00">NAudio.CoreAudioApi.Audio</text>
<text text-anchor="middle" x="657.5" y="-163.75" font-family="Helvetica,sans-Serif" font-size="10.00">CaptureClient.GetNextPacketSize</text>
</a>
</g>
</g>
<!-- Node3&#45;&gt;Node6 -->
<g id="edge5_Node000003_Node000006" class="edge">
<title>Node3&#45;&gt;Node6</title>
<g id="a_edge5_Node000003_Node000006"><a xlink:title=" ">
<path fill="none" stroke="#63b8ff" d="M531.78,-165.67C541.87,-166.28 552.35,-166.92 562.76,-167.55"/>
<polygon fill="#63b8ff" stroke="#63b8ff" points="562.3,-171.03 572.49,-168.14 562.72,-164.04 562.3,-171.03"/>
</a>
</g>
</g>
<!-- Node8 -->
<g id="Node000008" class="node">
<title>Node8</title>
<g id="a_Node000008"><a xlink:href="class_n_audio_1_1_core_audio_api_1_1_audio_capture_client.html#a556b86b5a690f64917eed058f293c865" target="_top" xlink:title="Releases the buffer containing audio data after writing a specified number of frames.">
<polygon fill="white" stroke="#666666" points="728.12,-139.5 586.88,-139.5 586.88,-109 728.12,-109 728.12,-139.5"/>
<text text-anchor="start" x="594.88" y="-126" font-family="Helvetica,sans-Serif" font-size="10.00">NAudio.CoreAudioApi.Audio</text>
<text text-anchor="middle" x="657.5" y="-114.75" font-family="Helvetica,sans-Serif" font-size="10.00">CaptureClient.ReleaseBuffer</text>
</a>
</g>
</g>
<!-- Node3&#45;&gt;Node8 -->
<g id="edge7_Node000003_Node000008" class="edge">
<title>Node3&#45;&gt;Node8</title>
<g id="a_edge7_Node000003_Node000008"><a xlink:title=" ">
<path fill="none" stroke="#63b8ff" d="M531.78,-147.63C546.06,-144.95 561.12,-142.13 575.64,-139.41"/>
<polygon fill="#63b8ff" stroke="#63b8ff" points="575.96,-142.91 585.14,-137.63 574.67,-136.03 575.96,-142.91"/>
</a>
</g>
</g>
<!-- Node5 -->
<g id="Node000005" class="node">
<title>Node5</title>
<g id="a_Node000005"><a xlink:href="interface_n_audio_1_1_core_audio_api_1_1_interfaces_1_1_i_audio_capture_client.html#ac83ebe2e1c382521185bdcab7c0a97e1" target="_top" xlink:title=" ">
<polygon fill="white" stroke="#666666" points="953.75,-237.5 793,-237.5 793,-207 953.75,-207 953.75,-237.5"/>
<text text-anchor="start" x="801" y="-224" font-family="Helvetica,sans-Serif" font-size="10.00">NAudio.CoreAudioApi.Interfaces.</text>
<text text-anchor="middle" x="873.38" y="-212.75" font-family="Helvetica,sans-Serif" font-size="10.00">IAudioCaptureClient.GetBuffer</text>
</a>
</g>
</g>
<!-- Node4&#45;&gt;Node5 -->
<g id="edge4_Node000004_Node000005" class="edge">
<title>Node4&#45;&gt;Node5</title>
<g id="a_edge4_Node000004_Node000005"><a xlink:title=" ">
<path fill="none" stroke="#63b8ff" d="M727.35,-222.25C744.56,-222.25 763.28,-222.25 781.39,-222.25"/>
<polygon fill="#63b8ff" stroke="#63b8ff" points="781.35,-225.75 791.35,-222.25 781.35,-218.75 781.35,-225.75"/>
</a>
</g>
</g>
<!-- Node7 -->
<g id="Node000007" class="node">
<title>Node7</title>
<g id="a_Node000007"><a xlink:href="interface_n_audio_1_1_core_audio_api_1_1_interfaces_1_1_i_audio_capture_client.html#a30a549766a58730b9cdf6f65f7ba131d" target="_top" xlink:title=" ">
<polygon fill="white" stroke="#666666" points="970.25,-188.5 776.5,-188.5 776.5,-158 970.25,-158 970.25,-188.5"/>
<text text-anchor="start" x="784.5" y="-175" font-family="Helvetica,sans-Serif" font-size="10.00">NAudio.CoreAudioApi.Interfaces.</text>
<text text-anchor="middle" x="873.38" y="-163.75" font-family="Helvetica,sans-Serif" font-size="10.00">IAudioCaptureClient.GetNextPacketSize</text>
</a>
</g>
</g>
<!-- Node6&#45;&gt;Node7 -->
<g id="edge6_Node000006_Node000007" class="edge">
<title>Node6&#45;&gt;Node7</title>
<g id="a_edge6_Node000006_Node000007"><a xlink:title=" ">
<path fill="none" stroke="#63b8ff" d="M740.88,-173.25C748.72,-173.25 756.75,-173.25 764.78,-173.25"/>
<polygon fill="#63b8ff" stroke="#63b8ff" points="764.6,-176.75 774.6,-173.25 764.6,-169.75 764.6,-176.75"/>
</a>
</g>
</g>
<!-- Node9 -->
<g id="Node000009" class="node">
<title>Node9</title>
<g id="a_Node000009"><a xlink:href="interface_n_audio_1_1_core_audio_api_1_1_interfaces_1_1_i_audio_capture_client.html#ab78b4108c06a95f8093334068ed53cc3" target="_top" xlink:title=" ">
<polygon fill="white" stroke="#666666" points="957.88,-139.5 788.88,-139.5 788.88,-109 957.88,-109 957.88,-139.5"/>
<text text-anchor="start" x="796.88" y="-126" font-family="Helvetica,sans-Serif" font-size="10.00">NAudio.CoreAudioApi.Interfaces.</text>
<text text-anchor="middle" x="873.38" y="-114.75" font-family="Helvetica,sans-Serif" font-size="10.00">IAudioCaptureClient.ReleaseBuffer</text>
</a>
</g>
</g>
<!-- Node8&#45;&gt;Node9 -->
<g id="edge8_Node000008_Node000009" class="edge">
<title>Node8&#45;&gt;Node9</title>
<g id="a_edge8_Node000008_Node000009"><a xlink:title=" ">
<path fill="none" stroke="#63b8ff" d="M728.53,-124.25C744.07,-124.25 760.8,-124.25 777.15,-124.25"/>
<polygon fill="#63b8ff" stroke="#63b8ff" points="776.88,-127.75 786.88,-124.25 776.88,-120.75 776.88,-127.75"/>
</a>
</g>
</g>
<!-- Node11 -->
<g id="Node000011" class="node">
<title>Node11</title>
<g id="a_Node000011"><a xlink:href="interface_n_audio_1_1_core_audio_api_1_1_interfaces_1_1_i_audio_client.html#abff4ea76715b5491ee3f2eecc60e49ae" target="_top" xlink:title=" ">
<polygon fill="white" stroke="#666666" points="737.88,-90.5 577.12,-90.5 577.12,-60 737.88,-60 737.88,-90.5"/>
<text text-anchor="start" x="585.12" y="-77" font-family="Helvetica,sans-Serif" font-size="10.00">NAudio.CoreAudioApi.Interfaces.</text>
<text text-anchor="middle" x="657.5" y="-65.75" font-family="Helvetica,sans-Serif" font-size="10.00">IAudioClient.Start</text>
</a>
</g>
</g>
<!-- Node10&#45;&gt;Node11 -->
<g id="edge10_Node000010_Node000011" class="edge">
<title>Node10&#45;&gt;Node11</title>
<g id="a_edge10_Node000010_Node000011"><a xlink:title=" ">
<path fill="none" stroke="#63b8ff" d="M527.88,-83.72C540.1,-82.92 552.99,-82.07 565.71,-81.23"/>
<polygon fill="#63b8ff" stroke="#63b8ff" points="565.56,-84.75 575.31,-80.6 565.1,-77.76 565.56,-84.75"/>
</a>
</g>
</g>
<!-- Node14 -->
<g id="Node000014" class="node">
<title>Node14</title>
<g id="a_Node000014"><a xlink:href="interface_n_audio_1_1_core_audio_api_1_1_interfaces_1_1_i_audio_client.html#a963420da96e4f2824c628a916ff98c92" target="_top" xlink:title=" ">
<polygon fill="white" stroke="#666666" points="538.5,-30.5 377.75,-30.5 377.75,0 538.5,0 538.5,-30.5"/>
<text text-anchor="start" x="385.75" y="-17" font-family="Helvetica,sans-Serif" font-size="10.00">NAudio.CoreAudioApi.Interfaces.</text>
<text text-anchor="middle" x="458.12" y="-5.75" font-family="Helvetica,sans-Serif" font-size="10.00">IAudioClient.Stop</text>
</a>
</g>
</g>
<!-- Node13&#45;&gt;Node14 -->
<g id="edge13_Node000013_Node000014" class="edge">
<title>Node13&#45;&gt;Node14</title>
<g id="a_edge13_Node000013_Node000014"><a xlink:title=" ">
<path fill="none" stroke="#63b8ff" d="M332.07,-15.25C343.1,-15.25 354.65,-15.25 366.1,-15.25"/>
<polygon fill="#63b8ff" stroke="#63b8ff" points="365.97,-18.75 375.97,-15.25 365.97,-11.75 365.97,-18.75"/>
</a>
</g>
</g>
</g>
</svg>

<g id="navigator" transform="translate(0 0)" fill="#404254">
  <rect fill="#f2f5e9" fill-opacity="0.5" stroke="#606060" stroke-width=".5" x="0" y="0" width="60" height="60"/>
  <use id="zoomplus" xlink:href="#zoomPlus" x="17" y="9" onmousedown="handleZoom(evt,'in')"/>
  <use id="zoomminus" xlink:href="#zoomMin" x="42" y="9" onmousedown="handleZoom(evt,'out')"/>
  <use id="reset" xlink:href="#resetDef" x="30" y="36" onmousedown="handleReset()"/>
   <use id="arrowup" xlink:href="#arrowUp" x="0" y="0" onmousedown="handlePan(0,-1)"/>
  <use id="arrowright" xlink:href="#arrowRight" x="0" y="0" onmousedown="handlePan(1,0)"/>
  <use id="arrowdown" xlink:href="#arrowDown" x="0" y="0" onmousedown="handlePan(0,1)"/>
  <use id="arrowleft" xlink:href="#arrowLeft" x="0" y="0" onmousedown="handlePan(-1,0)"/>
</g>
<svg viewBox="0 0 15 15" width="100%" height="30px" preserveAspectRatio="xMaxYMin meet">
 <g id="arrow_out" transform="scale(0.3 0.3)">
  <a xlink:href="class_n_audio_1_1_core_audio_api_1_1_wasapi_capture_af5115bd377ab8a0c1d17ab0b5146bafd_cgraph_org.svg" target="_base">
   <rect id="button" ry="5" rx="5" y="6" x="6" height="38" width="38"
        fill="#f2f5e9" fill-opacity="0.5" stroke="#606060" stroke-width="1.0"/>
   <path id="arrow"
     d="M 11.500037,31.436501 C 11.940474,20.09759 22.043105,11.32322 32.158766,21.979434 L 37.068811,17.246167 C 37.068811,17.246167 37.088388,32 37.088388,32 L 22.160133,31.978069 C 22.160133,31.978069 26.997745,27.140456 26.997745,27.140456 C 18.528582,18.264221 13.291696,25.230495 11.500037,31.436501 z"
     style="fill:#404040;"/>
  </a>
 </g>
</svg>

<style type='text/css'>
<![CDATA[
[data-mouse-over-selected='false'] { opacity: 0.7; }
[data-mouse-over-selected='true']  { opacity: 1.0; }
]]>
</style>
<script type="application/ecmascript"><![CDATA[
document.addEventListener('DOMContentLoaded', (event) => {
  highlightEdges();
  highlightAdjacentNodes();
});
]]></script>
</svg>
