<?xml version="1.0" encoding="UTF-8" standalone="no"?>
<!DOCTYPE svg PUBLIC "-//W3C//DTD SVG 1.1//EN"
 "http://www.w3.org/Graphics/SVG/1.1/DTD/svg11.dtd">
<!-- Generated by graphviz version 10.0.1 (20240210.2158)
 -->
<!-- Title: NAudio.Wave.WaveFormat.CreateIeeeFloatWaveFormat Pages: 1 -->
<!--zoomable 995 -->

<svg id="main" version="1.1" xmlns="http://www.w3.org/2000/svg" xmlns:xlink="http://www.w3.org/1999/xlink" xml:space="preserve" onload="init(evt)">
<style type="text/css"><![CDATA[
.node, .edge {opacity: 0.7;}
.node.selected, .edge.selected {opacity: 1;}
.edge:hover path { stroke: red; }
.edge:hover polygon { stroke: red; fill: red; }
]]></style>

<defs>
  <circle id="rim" cx="0" cy="0" r="7"/>
  <circle id="rim2" cx="0" cy="0" r="3.5"/>
  <g id="zoomPlus">
    <use xlink:href="#rim" fill="#404040"><set attributeName="fill" to="#808080" begin="zoomplus.mouseover" end="zoomplus.mouseout"/></use>
    <path d="M-4,0h8M0,-4v8" fill="none" stroke="white" stroke-width="1.5" pointer-events="none"/>
  </g>
  <g id="zoomMin">
    <use xlink:href="#rim" fill="#404040"><set attributeName="fill" to="#808080" begin="zoomminus.mouseover" end="zoomminus.mouseout"/></use>
    <path d="M-4,0h8" fill="none" stroke="white" stroke-width="1.5" pointer-events="none"/>
  </g>
  <g id="arrowUp" transform="translate(30 24)">
    <use xlink:href="#rim"/>
    <path pointer-events="none" fill="none" stroke="white" stroke-width="1.5" d="M0,-3.0v7 M-2.5,-0.5L0,-3.0L2.5,-0.5"/>
  </g>
  <g id="arrowRight" transform="rotate(90) translate(36 -43)">
    <use xlink:href="#rim"/>
    <path pointer-events="none" fill="none" stroke="white" stroke-width="1.5" d="M0,-3.0v7 M-2.5,-0.5L0,-3.0L2.5,-0.5"/>
  </g>
  <g id="arrowDown" transform="rotate(180) translate(-30 -48)">
    <use xlink:href="#rim"/>
    <path pointer-events="none" fill="none" stroke="white" stroke-width="1.5" d="M0,-3.0v7 M-2.5,-0.5L0,-3.0L2.5,-0.5"/>
  </g>
  <g id="arrowLeft" transform="rotate(270) translate(-36 17)">
    <use xlink:href="#rim"/>
    <path pointer-events="none" fill="none" stroke="white" stroke-width="1.5" d="M0,-3.0v7 M-2.5,-0.5L0,-3.0L2.5,-0.5"/>
  </g>
  <g id="resetDef">
    <use xlink:href="#rim2" fill="#404040"><set attributeName="fill" to="#808080" begin="reset.mouseover" end="reset.mouseout"/></use>
  </g>
</defs>
<script type="application/ecmascript">
var viewWidth = 842;
var viewHeight = 995;
var sectionId = 'dynsection-9';
</script>
<script type="application/ecmascript" xlink:href="svg.min.js"/>
<svg id="graph" class="graph">
<g id="viewport">
<title>NAudio.Wave.WaveFormat.CreateIeeeFloatWaveFormat</title>
<!-- Node1 -->
<g id="Node000001" class="node">
<title>Node1</title>
<g id="a_Node000001"><a xlink:title="Creates a new IEEE float wave format with the specified sample rate and number of channels.">
<polygon fill="#999999" stroke="#666666" points="834.25,-508.12 667.5,-508.12 667.5,-477.62 834.25,-477.62 834.25,-508.12"/>
<text text-anchor="start" x="675.5" y="-494.62" font-family="Helvetica,sans-Serif" font-size="10.00">NAudio.Wave.WaveFormat.Create</text>
<text text-anchor="middle" x="750.88" y="-483.38" font-family="Helvetica,sans-Serif" font-size="10.00">IeeeFloatWaveFormat</text>
</a>
</g>
</g>
<!-- Node2 -->
<g id="Node000002" class="node">
<title>Node2</title>
<g id="a_Node000002"><a xlink:href="class_n_audio_1_1_wave_1_1_mixing_wave_provider32.html#a36cddc41fc702b48e6730b6262e0e847" target="_top" xlink:title="Adds an input audio stream to the mixer.">
<polygon fill="white" stroke="#666666" points="627,-987.12 445.25,-987.12 445.25,-956.62 627,-956.62 627,-987.12"/>
<text text-anchor="start" x="453.25" y="-973.62" font-family="Helvetica,sans-Serif" font-size="10.00">NAudio.Wave.MixingWaveProvider32.</text>
<text text-anchor="middle" x="536.12" y="-962.38" font-family="Helvetica,sans-Serif" font-size="10.00">AddInputStream</text>
</a>
</g>
</g>
<!-- Node1&#45;&gt;Node2 -->
<g id="edge1_Node000001_Node000002" class="edge">
<title>Node1&#45;&gt;Node2</title>
<g id="a_edge1_Node000001_Node000002"><a xlink:title=" ">
<path fill="none" stroke="#63b8ff" d="M746.44,-519.71C734.66,-607.63 693.2,-884.93 631.5,-946.88 627.91,-950.48 623.87,-953.58 619.53,-956.25"/>
<polygon fill="#63b8ff" stroke="#63b8ff" points="749.9,-520.25 747.74,-509.88 742.96,-519.34 749.9,-520.25"/>
</a>
</g>
</g>
<!-- Node4 -->
<g id="Node000004" class="node">
<title>Node4</title>
<g id="a_Node000004"><a xlink:href="class_n_audio_1_1_wave_1_1_wave_mixer_stream32.html#a80c4032e16125acba88f0a7b5c28d48e" target="_top" xlink:title="Adds an input audio stream to the mixer.">
<polygon fill="white" stroke="#666666" points="622.5,-938.12 449.75,-938.12 449.75,-907.62 622.5,-907.62 622.5,-938.12"/>
<text text-anchor="start" x="457.75" y="-924.62" font-family="Helvetica,sans-Serif" font-size="10.00">NAudio.Wave.WaveMixerStream32.</text>
<text text-anchor="middle" x="536.12" y="-913.38" font-family="Helvetica,sans-Serif" font-size="10.00">AddInputStream</text>
</a>
</g>
</g>
<!-- Node1&#45;&gt;Node4 -->
<g id="edge3_Node000001_Node000004" class="edge">
<title>Node1&#45;&gt;Node4</title>
<g id="a_edge3_Node000001_Node000004"><a xlink:title=" ">
<path fill="none" stroke="#63b8ff" d="M750.46,-519.56C750.51,-591.6 740.34,-791.77 631.5,-897.88 627.74,-901.54 623.5,-904.69 618.96,-907.39"/>
<polygon fill="#63b8ff" stroke="#63b8ff" points="753.96,-519.86 750.38,-509.89 746.96,-519.92 753.96,-519.86"/>
</a>
</g>
</g>
<!-- Node6 -->
<g id="Node000006" class="node">
<title>Node6</title>
<g id="a_Node000006"><a xlink:href="class_n_audio_1_1_wave_1_1_media_foundation_resampler.html#a0e5d50a4dbffa871b87b6d6cb61ef141" target="_top" xlink:title="Creates a new WaveFormat for the output based on the input WaveFormat and the specified output sample...">
<polygon fill="white" stroke="#666666" points="613.5,-889.12 458.75,-889.12 458.75,-858.62 613.5,-858.62 613.5,-889.12"/>
<text text-anchor="start" x="466.75" y="-875.62" font-family="Helvetica,sans-Serif" font-size="10.00">NAudio.Wave.MediaFoundation</text>
<text text-anchor="middle" x="536.12" y="-864.38" font-family="Helvetica,sans-Serif" font-size="10.00">Resampler.CreateOutputFormat</text>
</a>
</g>
</g>
<!-- Node1&#45;&gt;Node6 -->
<g id="edge5_Node000001_Node000006" class="edge">
<title>Node1&#45;&gt;Node6</title>
<g id="a_edge5_Node000001_Node000006"><a xlink:title=" ">
<path fill="none" stroke="#63b8ff" d="M749.19,-519.85C745.98,-586.08 728.26,-757.94 631.5,-848.88 626.31,-853.75 620.29,-857.7 613.84,-860.89"/>
<polygon fill="#63b8ff" stroke="#63b8ff" points="752.68,-520.05 749.58,-509.92 745.69,-519.77 752.68,-520.05"/>
</a>
</g>
</g>
<!-- Node7 -->
<g id="Node000007" class="node">
<title>Node7</title>
<g id="a_Node000007"><a xlink:href="class_n_audio_1_1_wave_1_1_media_foundation_reader.html#aaa3e900d0b52b1ab72e069196676e99e" target="_top" xlink:title="Retrieves the current wave format from the specified IMFSourceReader.">
<polygon fill="white" stroke="#666666" points="612.75,-840.12 459.5,-840.12 459.5,-809.62 612.75,-809.62 612.75,-840.12"/>
<text text-anchor="start" x="467.5" y="-826.62" font-family="Helvetica,sans-Serif" font-size="10.00">NAudio.Wave.MediaFoundation</text>
<text text-anchor="middle" x="536.12" y="-815.38" font-family="Helvetica,sans-Serif" font-size="10.00">Reader.GetCurrentWaveFormat</text>
</a>
</g>
</g>
<!-- Node1&#45;&gt;Node7 -->
<g id="edge6_Node000001_Node000007" class="edge">
<title>Node1&#45;&gt;Node7</title>
<g id="a_edge6_Node000001_Node000007"><a xlink:title=" ">
<path fill="none" stroke="#63b8ff" d="M747.55,-519.76C740.92,-579.44 716.48,-723.69 631.5,-799.88 626.07,-804.74 619.81,-808.68 613.14,-811.86"/>
<polygon fill="#63b8ff" stroke="#63b8ff" points="751.03,-520.17 748.56,-509.87 744.06,-519.46 751.03,-520.17"/>
</a>
</g>
</g>
<!-- Node12 -->
<g id="Node000012" class="node">
<title>Node12</title>
<g id="a_Node000012"><a xlink:href="class_n_audio_1_1_wave_1_1_asio_out.html#a27922dfd8af065caf7a2a01d0c139d5f" target="_top" xlink:title="Initializes the record and playback with the specified wave provider, record channels,...">
<polygon fill="white" stroke="#666666" points="601.5,-791.12 470.75,-791.12 470.75,-760.62 601.5,-760.62 601.5,-791.12"/>
<text text-anchor="start" x="478.75" y="-777.62" font-family="Helvetica,sans-Serif" font-size="10.00">NAudio.Wave.AsioOut.Init</text>
<text text-anchor="middle" x="536.12" y="-766.38" font-family="Helvetica,sans-Serif" font-size="10.00">RecordAndPlayback</text>
</a>
</g>
</g>
<!-- Node1&#45;&gt;Node12 -->
<g id="edge11_Node000001_Node000012" class="edge">
<title>Node1&#45;&gt;Node12</title>
<g id="a_edge11_Node000001_Node000012"><a xlink:title=" ">
<path fill="none" stroke="#63b8ff" d="M745.41,-519.44C735.16,-571.89 704.95,-689.04 631.5,-750.88 622.94,-758.08 612.52,-763.23 601.77,-766.91"/>
<polygon fill="#63b8ff" stroke="#63b8ff" points="748.8,-520.37 747.18,-509.9 741.91,-519.1 748.8,-520.37"/>
</a>
</g>
</g>
<!-- Node14 -->
<g id="Node000014" class="node">
<title>Node14</title>
<g id="a_Node000014"><a xlink:href="class_n_audio_1_1_wave_1_1_mixing_wave_provider32.html#ae76bc34d9fa114e6ce893148420c2978" target="_top" xlink:title="Creates a new MixingWaveProvider32.">
<polygon fill="white" stroke="#666666" points="627,-742.12 445.25,-742.12 445.25,-711.62 627,-711.62 627,-742.12"/>
<text text-anchor="start" x="453.25" y="-728.62" font-family="Helvetica,sans-Serif" font-size="10.00">NAudio.Wave.MixingWaveProvider32.</text>
<text text-anchor="middle" x="536.12" y="-717.38" font-family="Helvetica,sans-Serif" font-size="10.00">MixingWaveProvider32</text>
</a>
</g>
</g>
<!-- Node1&#45;&gt;Node14 -->
<g id="edge13_Node000001_Node000014" class="edge">
<title>Node1&#45;&gt;Node14</title>
<g id="a_edge13_Node000001_Node000014"><a xlink:title=" ">
<path fill="none" stroke="#63b8ff" d="M742.52,-519.2C728.6,-564.04 694.04,-655.01 631.5,-702.88 627.34,-706.06 622.8,-708.83 618.04,-711.23"/>
<polygon fill="#63b8ff" stroke="#63b8ff" points="745.82,-520.38 745.33,-509.8 739.11,-518.38 745.82,-520.38"/>
</a>
</g>
</g>
<!-- Node15 -->
<g id="Node000015" class="node">
<title>Node15</title>
<g id="a_Node000015"><a xlink:href="class_n_audio_1_1_wave_1_1_sample_providers_1_1_mono_to_stereo_sample_provider.html#ac794dd60fb835102d80d1a008388bb17" target="_top" xlink:title="Initializes a new instance of MonoToStereoSampleProvider.">
<polygon fill="white" stroke="#666666" points="623.25,-693.75 449,-693.75 449,-652 623.25,-652 623.25,-693.75"/>
<text text-anchor="start" x="457" y="-680.25" font-family="Helvetica,sans-Serif" font-size="10.00">NAudio.Wave.SampleProviders.</text>
<text text-anchor="start" x="457" y="-669" font-family="Helvetica,sans-Serif" font-size="10.00">MonoToStereoSampleProvider.Mono</text>
<text text-anchor="middle" x="536.12" y="-657.75" font-family="Helvetica,sans-Serif" font-size="10.00">ToStereoSampleProvider</text>
</a>
</g>
</g>
<!-- Node1&#45;&gt;Node15 -->
<g id="edge14_Node000001_Node000015" class="edge">
<title>Node1&#45;&gt;Node15</title>
<g id="a_edge14_Node000001_Node000015"><a xlink:title=" ">
<path fill="none" stroke="#63b8ff" d="M736.18,-518.47C717.05,-551.84 679.26,-609.83 631.5,-642.88 626.83,-646.1 621.8,-649 616.58,-651.59"/>
<polygon fill="#63b8ff" stroke="#63b8ff" points="739.15,-520.32 740.98,-509.89 733.05,-516.9 739.15,-520.32"/>
</a>
</g>
</g>
<!-- Node16 -->
<g id="Node000016" class="node">
<title>Node16</title>
<g id="a_Node000016"><a xlink:href="class_n_audio_1_1_wave_1_1_sample_providers_1_1_multiplexing_sample_provider.html#a7d233143ba15b6d47c23bdfe46d32c8a" target="_top" xlink:title="Creates a multiplexing sample provider, allowing re&#45;patching of input channels to different output ch...">
<polygon fill="white" stroke="#666666" points="631.5,-633.75 440.75,-633.75 440.75,-592 631.5,-592 631.5,-633.75"/>
<text text-anchor="start" x="448.75" y="-620.25" font-family="Helvetica,sans-Serif" font-size="10.00">NAudio.Wave.SampleProviders.</text>
<text text-anchor="start" x="448.75" y="-609" font-family="Helvetica,sans-Serif" font-size="10.00">MultiplexingSampleProvider.Multiplexing</text>
<text text-anchor="middle" x="536.12" y="-597.75" font-family="Helvetica,sans-Serif" font-size="10.00">SampleProvider</text>
</a>
</g>
</g>
<!-- Node1&#45;&gt;Node16 -->
<g id="edge15_Node000001_Node000016" class="edge">
<title>Node1&#45;&gt;Node16</title>
<g id="a_edge15_Node000001_Node000016"><a xlink:title=" ">
<path fill="none" stroke="#63b8ff" d="M725.1,-515.78C702.27,-535.85 666.69,-564.6 631.5,-582.88 625.4,-586.04 618.9,-588.96 612.27,-591.61"/>
<polygon fill="#63b8ff" stroke="#63b8ff" points="727.23,-518.57 732.36,-509.3 722.57,-513.35 727.23,-518.57"/>
</a>
</g>
</g>
<!-- Node17 -->
<g id="Node000017" class="node">
<title>Node17</title>
<g id="a_Node000017"><a xlink:href="class_n_audio_1_1_wave_1_1_multiplexing_wave_provider.html#a7a8715180a7e0261e1b225e764bd8de6" target="_top" xlink:title="Creates a multiplexing wave provider, allowing re&#45;patching of input channels to different output chan...">
<polygon fill="white" stroke="#666666" points="613.88,-573.75 458.38,-573.75 458.38,-532 613.88,-532 613.88,-573.75"/>
<text text-anchor="start" x="466.38" y="-560.25" font-family="Helvetica,sans-Serif" font-size="10.00">NAudio.Wave.Multiplexing</text>
<text text-anchor="start" x="466.38" y="-549" font-family="Helvetica,sans-Serif" font-size="10.00">WaveProvider.MultiplexingWave</text>
<text text-anchor="middle" x="536.12" y="-537.75" font-family="Helvetica,sans-Serif" font-size="10.00">Provider</text>
</a>
</g>
</g>
<!-- Node1&#45;&gt;Node17 -->
<g id="edge16_Node000001_Node000017" class="edge">
<title>Node1&#45;&gt;Node17</title>
<g id="a_edge16_Node000001_Node000017"><a xlink:title=" ">
<path fill="none" stroke="#63b8ff" d="M683.19,-511.68C660.86,-517.98 635.8,-525.05 612.83,-531.52"/>
<polygon fill="#63b8ff" stroke="#63b8ff" points="684.12,-515.05 692.8,-508.97 682.22,-508.32 684.12,-515.05"/>
</a>
</g>
</g>
<!-- Node18 -->
<g id="Node000018" class="node">
<title>Node18</title>
<g id="a_Node000018"><a xlink:href="class_n_audio_1_1_wave_1_1_sample_providers_1_1_panning_sample_provider.html#a7696addde12a6057bdc8d701656d6fd9" target="_top" xlink:title="Initialises a new instance of the PanningSampleProvider.">
<polygon fill="white" stroke="#666666" points="631.5,-513.75 440.75,-513.75 440.75,-472 631.5,-472 631.5,-513.75"/>
<text text-anchor="start" x="448.75" y="-500.25" font-family="Helvetica,sans-Serif" font-size="10.00">NAudio.Wave.SampleProviders.</text>
<text text-anchor="start" x="448.75" y="-489" font-family="Helvetica,sans-Serif" font-size="10.00">PanningSampleProvider.PanningSample</text>
<text text-anchor="middle" x="536.12" y="-477.75" font-family="Helvetica,sans-Serif" font-size="10.00">Provider</text>
</a>
</g>
</g>
<!-- Node1&#45;&gt;Node18 -->
<g id="edge17_Node000001_Node000018" class="edge">
<title>Node1&#45;&gt;Node18</title>
<g id="a_edge17_Node000001_Node000018"><a xlink:title=" ">
<path fill="none" stroke="#63b8ff" d="M655.54,-492.88C647.65,-492.88 639.67,-492.88 631.77,-492.88"/>
<polygon fill="#63b8ff" stroke="#63b8ff" points="655.5,-496.38 665.5,-492.88 655.5,-489.38 655.5,-496.38"/>
</a>
</g>
</g>
<!-- Node19 -->
<g id="Node000019" class="node">
<title>Node19</title>
<g id="a_Node000019"><a xlink:href="class_n_audio_1_1_wave_1_1_sample_providers_1_1_sample_provider_converter_base.html#a21c5afb46e5e0e51881081c8f26ad11a" target="_top" xlink:title="Initialises a new instance of SampleProviderConverterBase.">
<polygon fill="white" stroke="#666666" points="629.25,-453.75 443,-453.75 443,-412 629.25,-412 629.25,-453.75"/>
<text text-anchor="start" x="451" y="-440.25" font-family="Helvetica,sans-Serif" font-size="10.00">NAudio.Wave.SampleProviders.</text>
<text text-anchor="start" x="451" y="-429" font-family="Helvetica,sans-Serif" font-size="10.00">SampleProviderConverterBase.Sample</text>
<text text-anchor="middle" x="536.12" y="-417.75" font-family="Helvetica,sans-Serif" font-size="10.00">ProviderConverterBase</text>
</a>
</g>
</g>
<!-- Node1&#45;&gt;Node19 -->
<g id="edge18_Node000001_Node000019" class="edge">
<title>Node1&#45;&gt;Node19</title>
<g id="a_edge18_Node000001_Node000019"><a xlink:title=" ">
<path fill="none" stroke="#63b8ff" d="M683.19,-474.07C660.86,-467.77 635.8,-460.7 612.83,-454.23"/>
<polygon fill="#63b8ff" stroke="#63b8ff" points="682.22,-477.43 692.8,-476.78 684.12,-470.7 682.22,-477.43"/>
</a>
</g>
</g>
<!-- Node20 -->
<g id="Node000020" class="node">
<title>Node20</title>
<g id="a_Node000020"><a xlink:href="class_n_audio_1_1_wave_1_1_wave_provider32.html#a5abc5f918b546814f10f6a4b926c27ab" target="_top" xlink:title="Sets the wave format using the specified sample rate and number of channels.">
<polygon fill="white" stroke="#666666" points="612.75,-394.12 459.5,-394.12 459.5,-363.62 612.75,-363.62 612.75,-394.12"/>
<text text-anchor="start" x="467.5" y="-380.62" font-family="Helvetica,sans-Serif" font-size="10.00">NAudio.Wave.WaveProvider32.</text>
<text text-anchor="middle" x="536.12" y="-369.38" font-family="Helvetica,sans-Serif" font-size="10.00">SetWaveFormat</text>
</a>
</g>
</g>
<!-- Node1&#45;&gt;Node20 -->
<g id="edge19_Node000001_Node000020" class="edge">
<title>Node1&#45;&gt;Node20</title>
<g id="a_edge19_Node000001_Node000020"><a xlink:title=" ">
<path fill="none" stroke="#63b8ff" d="M725.74,-469.82C703.1,-449.4 667.42,-420.21 631.5,-402.88 624.95,-399.72 617.94,-396.94 610.81,-394.51"/>
<polygon fill="#63b8ff" stroke="#63b8ff" points="723.2,-472.23 732.93,-476.42 727.93,-467.08 723.2,-472.23"/>
</a>
</g>
</g>
<!-- Node22 -->
<g id="Node000022" class="node">
<title>Node22</title>
<g id="a_Node000022"><a xlink:href="class_n_audio_1_1_wave_1_1_sample_providers_1_1_signal_generator.html#ad30c622356c8a56de9fef5cb972699a2" target="_top" xlink:title="Initializes a new instance for the Generator (UserDef SampleRate &amp; Channels)">
<polygon fill="white" stroke="#666666" points="615,-345.12 457.25,-345.12 457.25,-314.62 615,-314.62 615,-345.12"/>
<text text-anchor="start" x="465.25" y="-331.62" font-family="Helvetica,sans-Serif" font-size="10.00">NAudio.Wave.SampleProviders.</text>
<text text-anchor="middle" x="536.12" y="-320.38" font-family="Helvetica,sans-Serif" font-size="10.00">SignalGenerator.SignalGenerator</text>
</a>
</g>
</g>
<!-- Node1&#45;&gt;Node22 -->
<g id="edge21_Node000001_Node000022" class="edge">
<title>Node1&#45;&gt;Node22</title>
<g id="a_edge21_Node000001_Node000022"><a xlink:title=" ">
<path fill="none" stroke="#63b8ff" d="M735.03,-467.64C715.33,-436.41 677.62,-383.82 631.5,-354.88 625.76,-351.27 619.5,-348.18 613.04,-345.54"/>
<polygon fill="#63b8ff" stroke="#63b8ff" points="731.99,-469.38 740.21,-476.06 737.95,-465.71 731.99,-469.38"/>
</a>
</g>
</g>
<!-- Node23 -->
<g id="Node000023" class="node">
<title>Node23</title>
<g id="a_Node000023"><a xlink:href="class_n_audio_1_1_wave_1_1_sample_providers_1_1_stereo_to_mono_sample_provider.html#a3da8483621e77ce2223507f853eac3a0" target="_top" xlink:title="Creates a new mono ISampleProvider based on a stereo input.">
<polygon fill="white" stroke="#666666" points="625.5,-296.75 446.75,-296.75 446.75,-255 625.5,-255 625.5,-296.75"/>
<text text-anchor="start" x="454.75" y="-283.25" font-family="Helvetica,sans-Serif" font-size="10.00">NAudio.Wave.SampleProviders.</text>
<text text-anchor="start" x="454.75" y="-272" font-family="Helvetica,sans-Serif" font-size="10.00">StereoToMonoSampleProvider.Stereo</text>
<text text-anchor="middle" x="536.12" y="-260.75" font-family="Helvetica,sans-Serif" font-size="10.00">ToMonoSampleProvider</text>
</a>
</g>
</g>
<!-- Node1&#45;&gt;Node23 -->
<g id="edge22_Node000001_Node000023" class="edge">
<title>Node1&#45;&gt;Node23</title>
<g id="a_edge22_Node000001_Node000023"><a xlink:title=" ">
<path fill="none" stroke="#63b8ff" d="M740.16,-466.63C723.87,-426.21 687.27,-348.9 631.5,-305.88 627.28,-302.62 622.7,-299.71 617.9,-297.12"/>
<polygon fill="#63b8ff" stroke="#63b8ff" points="736.85,-467.77 743.75,-475.81 743.37,-465.22 736.85,-467.77"/>
</a>
</g>
</g>
<!-- Node24 -->
<g id="Node000024" class="node">
<title>Node24</title>
<g id="a_Node000024"><a xlink:href="class_n_audio_1_1_wave_1_1_wave_format_extensible.html#a5f1ab3ebeb48290713b76b1e055f81d5" target="_top" xlink:title="Converts the current audio format to a standard WaveFormat.">
<polygon fill="white" stroke="#666666" points="627.75,-237.12 444.5,-237.12 444.5,-206.62 627.75,-206.62 627.75,-237.12"/>
<text text-anchor="start" x="452.5" y="-223.62" font-family="Helvetica,sans-Serif" font-size="10.00">NAudio.Wave.WaveFormatExtensible.</text>
<text text-anchor="middle" x="536.12" y="-212.38" font-family="Helvetica,sans-Serif" font-size="10.00">ToStandardWaveFormat</text>
</a>
</g>
</g>
<!-- Node1&#45;&gt;Node24 -->
<g id="edge23_Node000001_Node000024" class="edge">
<title>Node1&#45;&gt;Node24</title>
<g id="a_edge23_Node000001_Node000024"><a xlink:title=" ">
<path fill="none" stroke="#63b8ff" d="M744.88,-466.32C733.88,-415.45 702.67,-304.19 631.5,-245.88 627.58,-242.66 623.28,-239.87 618.74,-237.45"/>
<polygon fill="#63b8ff" stroke="#63b8ff" points="741.39,-466.75 746.84,-475.84 748.25,-465.34 741.39,-466.75"/>
</a>
</g>
</g>
<!-- Node26 -->
<g id="Node000026" class="node">
<title>Node26</title>
<g id="a_Node000026"><a xlink:href="class_n_audio_1_1_wave_1_1_wave16_to_float_provider.html#a53c78006a0441ac9a2c85ae6f3d49e01" target="_top" xlink:title="Creates a new Wave16toFloatProvider.">
<polygon fill="white" stroke="#666666" points="615,-188.12 457.25,-188.12 457.25,-157.62 615,-157.62 615,-188.12"/>
<text text-anchor="start" x="465.25" y="-174.62" font-family="Helvetica,sans-Serif" font-size="10.00">NAudio.Wave.Wave16ToFloat</text>
<text text-anchor="middle" x="536.12" y="-163.38" font-family="Helvetica,sans-Serif" font-size="10.00">Provider.Wave16ToFloatProvider</text>
</a>
</g>
</g>
<!-- Node1&#45;&gt;Node26 -->
<g id="edge25_Node000001_Node000026" class="edge">
<title>Node1&#45;&gt;Node26</title>
<g id="a_edge25_Node000001_Node000026"><a xlink:title=" ">
<path fill="none" stroke="#63b8ff" d="M747.1,-466.21C739.63,-408.33 713.71,-270.57 631.5,-197.88 626.68,-193.61 621.2,-190.06 615.38,-187.1"/>
<polygon fill="#63b8ff" stroke="#63b8ff" points="743.59,-466.28 748.25,-475.79 750.54,-465.44 743.59,-466.28"/>
</a>
</g>
</g>
<!-- Node27 -->
<g id="Node000027" class="node">
<title>Node27</title>
<g id="a_Node000027"><a xlink:href="class_n_audio_1_1_wave_1_1_wave_channel32.html#a6cbcb644a4c757316eeab67d0c3dca02" target="_top" xlink:title="Creates a new WaveChannel32.">
<polygon fill="white" stroke="#666666" points="612.75,-139.12 459.5,-139.12 459.5,-108.62 612.75,-108.62 612.75,-139.12"/>
<text text-anchor="start" x="467.5" y="-125.62" font-family="Helvetica,sans-Serif" font-size="10.00">NAudio.Wave.WaveChannel32.</text>
<text text-anchor="middle" x="536.12" y="-114.38" font-family="Helvetica,sans-Serif" font-size="10.00">WaveChannel32</text>
</a>
</g>
</g>
<!-- Node1&#45;&gt;Node27 -->
<g id="edge26_Node000001_Node000027" class="edge">
<title>Node1&#45;&gt;Node27</title>
<g id="a_edge26_Node000001_Node000027"><a xlink:title=" ">
<path fill="none" stroke="#63b8ff" d="M748.85,-466.35C744.88,-401.97 725.57,-236.36 631.5,-148.88 626.04,-143.8 619.67,-139.72 612.86,-136.46"/>
<polygon fill="#63b8ff" stroke="#63b8ff" points="745.34,-466.17 749.36,-475.97 752.33,-465.8 745.34,-466.17"/>
</a>
</g>
</g>
<!-- Node28 -->
<g id="Node000028" class="node">
<title>Node28</title>
<g id="a_Node000028"><a xlink:href="class_n_audio_1_1_wave_1_1_wave_mixer_stream32.html#ab88e1fceb548dbe6dfccf67b6cb9ab77" target="_top" xlink:title="Creates a new 32 bit WaveMixerStream.">
<polygon fill="white" stroke="#666666" points="622.5,-90.12 449.75,-90.12 449.75,-59.62 622.5,-59.62 622.5,-90.12"/>
<text text-anchor="start" x="457.75" y="-76.62" font-family="Helvetica,sans-Serif" font-size="10.00">NAudio.Wave.WaveMixerStream32.</text>
<text text-anchor="middle" x="536.12" y="-65.38" font-family="Helvetica,sans-Serif" font-size="10.00">WaveMixerStream32</text>
</a>
</g>
</g>
<!-- Node1&#45;&gt;Node28 -->
<g id="edge27_Node000001_Node000028" class="edge">
<title>Node1&#45;&gt;Node28</title>
<g id="a_edge27_Node000001_Node000028"><a xlink:title=" ">
<path fill="none" stroke="#63b8ff" d="M750.18,-466.05C749.44,-395.32 737.33,-202.21 631.5,-99.88 627.72,-96.22 623.48,-93.09 618.93,-90.4"/>
<polygon fill="#63b8ff" stroke="#63b8ff" points="746.67,-465.91 750.2,-475.9 753.67,-465.9 746.67,-465.91"/>
</a>
</g>
</g>
<!-- Node29 -->
<g id="Node000029" class="node">
<title>Node29</title>
<g id="a_Node000029"><a xlink:href="class_n_audio_1_1_wave_1_1_sample_providers_1_1_wdl_resampling_sample_provider.html#a8ac65db56545c4569f1651e9e54fb143" target="_top" xlink:title="Constructs a new resampler.">
<polygon fill="white" stroke="#666666" points="622.88,-41.75 449.38,-41.75 449.38,0 622.88,0 622.88,-41.75"/>
<text text-anchor="start" x="457.38" y="-28.25" font-family="Helvetica,sans-Serif" font-size="10.00">NAudio.Wave.SampleProviders.</text>
<text text-anchor="start" x="457.38" y="-17" font-family="Helvetica,sans-Serif" font-size="10.00">WdlResamplingSampleProvider.Wdl</text>
<text text-anchor="middle" x="536.12" y="-5.75" font-family="Helvetica,sans-Serif" font-size="10.00">ResamplingSampleProvider</text>
</a>
</g>
</g>
<!-- Node1&#45;&gt;Node29 -->
<g id="edge28_Node000001_Node000029" class="edge">
<title>Node1&#45;&gt;Node29</title>
<g id="a_edge28_Node000001_Node000029"><a xlink:title=" ">
<path fill="none" stroke="#63b8ff" d="M746.1,-466.02C733.47,-379.85 690.2,-112.34 631.5,-50.88 628.41,-47.64 624.98,-44.76 621.3,-42.18"/>
<polygon fill="#63b8ff" stroke="#63b8ff" points="742.63,-466.48 747.52,-475.88 749.56,-465.48 742.63,-466.48"/>
</a>
</g>
</g>
<!-- Node3 -->
<g id="Node000003" class="node">
<title>Node3</title>
<g id="a_Node000003"><a xlink:href="class_n_audio_1_1_wave_1_1_mixing_wave_provider32.html#a9f4a7b29e35effa58de222c2d85c3b34" target="_top" xlink:title="Creates a new 32 bit MixingWaveProvider32.">
<polygon fill="white" stroke="#666666" points="404.75,-987.12 223,-987.12 223,-956.62 404.75,-956.62 404.75,-987.12"/>
<text text-anchor="start" x="231" y="-973.62" font-family="Helvetica,sans-Serif" font-size="10.00">NAudio.Wave.MixingWaveProvider32.</text>
<text text-anchor="middle" x="313.88" y="-962.38" font-family="Helvetica,sans-Serif" font-size="10.00">MixingWaveProvider32</text>
</a>
</g>
</g>
<!-- Node2&#45;&gt;Node3 -->
<g id="edge2_Node000002_Node000003" class="edge">
<title>Node2&#45;&gt;Node3</title>
<g id="a_edge2_Node000002_Node000003"><a xlink:title=" ">
<path fill="none" stroke="#63b8ff" d="M433.7,-971.88C424.11,-971.88 414.43,-971.88 404.95,-971.88"/>
<polygon fill="#63b8ff" stroke="#63b8ff" points="433.39,-975.38 443.39,-971.88 433.39,-968.38 433.39,-975.38"/>
</a>
</g>
</g>
<!-- Node5 -->
<g id="Node000005" class="node">
<title>Node5</title>
<g id="a_Node000005"><a xlink:href="class_n_audio_1_1_wave_1_1_wave_mixer_stream32.html#a395ec8a09ca71b0f58fc4534270faca7" target="_top" xlink:title="Creates a new 32 bit WaveMixerStream.">
<polygon fill="white" stroke="#666666" points="400.25,-938.12 227.5,-938.12 227.5,-907.62 400.25,-907.62 400.25,-938.12"/>
<text text-anchor="start" x="235.5" y="-924.62" font-family="Helvetica,sans-Serif" font-size="10.00">NAudio.Wave.WaveMixerStream32.</text>
<text text-anchor="middle" x="313.88" y="-913.38" font-family="Helvetica,sans-Serif" font-size="10.00">WaveMixerStream32</text>
</a>
</g>
</g>
<!-- Node4&#45;&gt;Node5 -->
<g id="edge4_Node000004_Node000005" class="edge">
<title>Node4&#45;&gt;Node5</title>
<g id="a_edge4_Node000004_Node000005"><a xlink:title=" ">
<path fill="none" stroke="#63b8ff" d="M437.94,-922.88C425.44,-922.88 412.72,-922.88 400.43,-922.88"/>
<polygon fill="#63b8ff" stroke="#63b8ff" points="437.83,-926.38 447.83,-922.88 437.83,-919.38 437.83,-926.38"/>
</a>
</g>
</g>
<!-- Node8 -->
<g id="Node000008" class="node">
<title>Node8</title>
<g id="a_Node000008"><a xlink:href="class_n_audio_1_1_wave_1_1_media_foundation_reader.html#a030e2baaaa4d3a16ebe5430fdc06332f" target="_top" xlink:title="Initializes the MediaFoundationReader with the specified settings.">
<polygon fill="white" stroke="#666666" points="390.5,-886.12 237.25,-886.12 237.25,-855.62 390.5,-855.62 390.5,-886.12"/>
<text text-anchor="start" x="245.25" y="-872.62" font-family="Helvetica,sans-Serif" font-size="10.00">NAudio.Wave.MediaFoundation</text>
<text text-anchor="middle" x="313.88" y="-861.38" font-family="Helvetica,sans-Serif" font-size="10.00">Reader.Init</text>
</a>
</g>
</g>
<!-- Node7&#45;&gt;Node8 -->
<g id="edge7_Node000007_Node000008" class="edge">
<title>Node7&#45;&gt;Node8</title>
<g id="a_edge7_Node000007_Node000008"><a xlink:title=" ">
<path fill="none" stroke="#63b8ff" d="M448.68,-842.93C429.33,-846.97 408.95,-851.23 390.09,-855.17"/>
<polygon fill="#63b8ff" stroke="#63b8ff" points="449.39,-846.36 458.46,-840.89 447.96,-839.5 449.39,-846.36"/>
</a>
</g>
</g>
<!-- Node11 -->
<g id="Node000011" class="node">
<title>Node11</title>
<g id="a_Node000011"><a xlink:href="class_n_audio_1_1_wave_1_1_media_foundation_reader.html#afaf4f9f9600398af89c9f57a52d78653" target="_top" xlink:title="Reads a sequence of bytes from the current stream and advances the position within the stream by the ...">
<polygon fill="white" stroke="#666666" points="390.5,-837.12 237.25,-837.12 237.25,-806.62 390.5,-806.62 390.5,-837.12"/>
<text text-anchor="start" x="245.25" y="-823.62" font-family="Helvetica,sans-Serif" font-size="10.00">NAudio.Wave.MediaFoundation</text>
<text text-anchor="middle" x="313.88" y="-812.38" font-family="Helvetica,sans-Serif" font-size="10.00">Reader.Read</text>
</a>
</g>
</g>
<!-- Node7&#45;&gt;Node11 -->
<g id="edge10_Node000007_Node000011" class="edge">
<title>Node7&#45;&gt;Node11</title>
<g id="a_edge10_Node000007_Node000011"><a xlink:title=" ">
<path fill="none" stroke="#63b8ff" d="M447.51,-823.68C428.81,-823.43 409.21,-823.16 390.98,-822.91"/>
<polygon fill="#63b8ff" stroke="#63b8ff" points="447.46,-827.18 457.51,-823.82 447.55,-820.18 447.46,-827.18"/>
</a>
</g>
</g>
<!-- Node9 -->
<g id="Node000009" class="node">
<title>Node9</title>
<g id="a_Node000009"><a xlink:href="class_n_audio_1_1_wave_1_1_media_foundation_reader.html#a478c60af06406213cd899a93ec6c51ab" target="_top" xlink:title="Creates a new MediaFoundationReader based on the supplied file.">
<polygon fill="white" stroke="#666666" points="171.25,-910.12 15.75,-910.12 15.75,-879.62 171.25,-879.62 171.25,-910.12"/>
<text text-anchor="start" x="23.75" y="-896.62" font-family="Helvetica,sans-Serif" font-size="10.00">NAudio.Wave.MediaFoundation</text>
<text text-anchor="middle" x="93.5" y="-885.38" font-family="Helvetica,sans-Serif" font-size="10.00">Reader.MediaFoundationReader</text>
</a>
</g>
</g>
<!-- Node8&#45;&gt;Node9 -->
<g id="edge8_Node000008_Node000009" class="edge">
<title>Node8&#45;&gt;Node9</title>
<g id="a_edge8_Node000008_Node000009"><a xlink:title=" ">
<path fill="none" stroke="#63b8ff" d="M225.49,-880.48C207.6,-882.45 188.9,-884.5 171.41,-886.42"/>
<polygon fill="#63b8ff" stroke="#63b8ff" points="225.74,-883.97 235.3,-879.4 224.98,-877.01 225.74,-883.97"/>
</a>
</g>
</g>
<!-- Node10 -->
<g id="Node000010" class="node">
<title>Node10</title>
<g id="a_Node000010"><a xlink:href="class_n_audio_1_1_wave_1_1_stream_media_foundation_reader.html#ad4b042f9d2fb5e83ae115deac0a104ac" target="_top" xlink:title="Constructs a new media foundation reader from a stream.">
<polygon fill="white" stroke="#666666" points="187,-861.12 0,-861.12 0,-830.62 187,-830.62 187,-861.12"/>
<text text-anchor="start" x="8" y="-847.62" font-family="Helvetica,sans-Serif" font-size="10.00">NAudio.Wave.StreamMediaFoundation</text>
<text text-anchor="middle" x="93.5" y="-836.38" font-family="Helvetica,sans-Serif" font-size="10.00">Reader.StreamMediaFoundationReader</text>
</a>
</g>
</g>
<!-- Node8&#45;&gt;Node10 -->
<g id="edge9_Node000008_Node000010" class="edge">
<title>Node8&#45;&gt;Node10</title>
<g id="a_edge9_Node000008_Node000010"><a xlink:title=" ">
<path fill="none" stroke="#63b8ff" d="M225.4,-860.86C212.84,-859.42 199.88,-857.94 187.22,-856.49"/>
<polygon fill="#63b8ff" stroke="#63b8ff" points="224.97,-864.33 235.3,-861.99 225.76,-857.38 224.97,-864.33"/>
</a>
</g>
</g>
<!-- Node13 -->
<g id="Node000013" class="node">
<title>Node13</title>
<g id="a_Node000013"><a xlink:href="class_n_audio_1_1_wave_1_1_asio_out.html#a9cb17c8419ec5fabc3bfe982974dbf59" target="_top" xlink:title="Initializes the recording and playback with the specified waveProvider .">
<polygon fill="white" stroke="#666666" points="379.25,-785.5 248.5,-785.5 248.5,-766.25 379.25,-766.25 379.25,-785.5"/>
<text text-anchor="middle" x="313.88" y="-772" font-family="Helvetica,sans-Serif" font-size="10.00">NAudio.Wave.AsioOut.Init</text>
</a>
</g>
</g>
<!-- Node12&#45;&gt;Node13 -->
<g id="edge12_Node000012_Node000013" class="edge">
<title>Node12&#45;&gt;Node13</title>
<g id="a_edge12_Node000012_Node000013"><a xlink:title=" ">
<path fill="none" stroke="#63b8ff" d="M459.21,-775.88C433.24,-775.88 404.46,-775.88 379.47,-775.88"/>
<polygon fill="#63b8ff" stroke="#63b8ff" points="459.02,-779.38 469.02,-775.88 459.02,-772.38 459.02,-779.38"/>
</a>
</g>
</g>
<!-- Node21 -->
<g id="Node000021" class="node">
<title>Node21</title>
<g id="a_Node000021"><a xlink:href="class_n_audio_1_1_wave_1_1_wave_provider32.html#a313167800d96d0e6f854e7c7b6f63e56" target="_top" xlink:title="Initializes a new instance of the WaveProvider32 class with the specified sample rate and number of c...">
<polygon fill="white" stroke="#666666" points="390.5,-394.12 237.25,-394.12 237.25,-363.62 390.5,-363.62 390.5,-394.12"/>
<text text-anchor="start" x="245.25" y="-380.62" font-family="Helvetica,sans-Serif" font-size="10.00">NAudio.Wave.WaveProvider32.</text>
<text text-anchor="middle" x="313.88" y="-369.38" font-family="Helvetica,sans-Serif" font-size="10.00">WaveProvider32</text>
</a>
</g>
</g>
<!-- Node20&#45;&gt;Node21 -->
<g id="edge20_Node000020_Node000021" class="edge">
<title>Node20&#45;&gt;Node21</title>
<g id="a_edge20_Node000020_Node000021"><a xlink:title=" ">
<path fill="none" stroke="#63b8ff" d="M447.51,-378.88C428.81,-378.88 409.21,-378.88 390.98,-378.88"/>
<polygon fill="#63b8ff" stroke="#63b8ff" points="447.51,-382.38 457.51,-378.88 447.51,-375.38 447.51,-382.38"/>
</a>
</g>
</g>
<!-- Node25 -->
<g id="Node000025" class="node">
<title>Node25</title>
<g id="a_Node000025"><a xlink:href="class_n_audio_1_1_wave_1_1_wave_extension_methods.html#a509ebdd972bca76e50c0268ef847f0b3" target="_top" xlink:title="Converts the input WaveFormat to standard WaveFormat and returns the result.">
<polygon fill="white" stroke="#666666" points="395.38,-237.12 232.38,-237.12 232.38,-206.62 395.38,-206.62 395.38,-237.12"/>
<text text-anchor="start" x="240.38" y="-223.62" font-family="Helvetica,sans-Serif" font-size="10.00">NAudio.Wave.WaveExtension</text>
<text text-anchor="middle" x="313.88" y="-212.38" font-family="Helvetica,sans-Serif" font-size="10.00">Methods.AsStandardWaveFormat</text>
</a>
</g>
</g>
<!-- Node24&#45;&gt;Node25 -->
<g id="edge24_Node000024_Node000025" class="edge">
<title>Node24&#45;&gt;Node25</title>
<g id="a_edge24_Node000024_Node000025"><a xlink:title=" ">
<path fill="none" stroke="#63b8ff" d="M432.86,-221.88C420.38,-221.88 407.76,-221.88 395.66,-221.88"/>
<polygon fill="#63b8ff" stroke="#63b8ff" points="432.76,-225.38 442.76,-221.88 432.76,-218.38 432.76,-225.38"/>
</a>
</g>
</g>
</g>
</svg>

<g id="navigator" transform="translate(0 0)" fill="#404254">
  <rect fill="#f2f5e9" fill-opacity="0.5" stroke="#606060" stroke-width=".5" x="0" y="0" width="60" height="60"/>
  <use id="zoomplus" xlink:href="#zoomPlus" x="17" y="9" onmousedown="handleZoom(evt,'in')"/>
  <use id="zoomminus" xlink:href="#zoomMin" x="42" y="9" onmousedown="handleZoom(evt,'out')"/>
  <use id="reset" xlink:href="#resetDef" x="30" y="36" onmousedown="handleReset()"/>
   <use id="arrowup" xlink:href="#arrowUp" x="0" y="0" onmousedown="handlePan(0,-1)"/>
  <use id="arrowright" xlink:href="#arrowRight" x="0" y="0" onmousedown="handlePan(1,0)"/>
  <use id="arrowdown" xlink:href="#arrowDown" x="0" y="0" onmousedown="handlePan(0,1)"/>
  <use id="arrowleft" xlink:href="#arrowLeft" x="0" y="0" onmousedown="handlePan(-1,0)"/>
</g>
<svg viewBox="0 0 15 15" width="100%" height="30px" preserveAspectRatio="xMaxYMin meet">
 <g id="arrow_out" transform="scale(0.3 0.3)">
  <a xlink:href="class_n_audio_1_1_wave_1_1_wave_format_a2dd0e9ea4097e54981725d6ad7c3290d_icgraph_org.svg" target="_base">
   <rect id="button" ry="5" rx="5" y="6" x="6" height="38" width="38"
        fill="#f2f5e9" fill-opacity="0.5" stroke="#606060" stroke-width="1.0"/>
   <path id="arrow"
     d="M 11.500037,31.436501 C 11.940474,20.09759 22.043105,11.32322 32.158766,21.979434 L 37.068811,17.246167 C 37.068811,17.246167 37.088388,32 37.088388,32 L 22.160133,31.978069 C 22.160133,31.978069 26.997745,27.140456 26.997745,27.140456 C 18.528582,18.264221 13.291696,25.230495 11.500037,31.436501 z"
     style="fill:#404040;"/>
  </a>
 </g>
</svg>

<style type='text/css'>
<![CDATA[
[data-mouse-over-selected='false'] { opacity: 0.7; }
[data-mouse-over-selected='true']  { opacity: 1.0; }
]]>
</style>
<script type="application/ecmascript"><![CDATA[
document.addEventListener('DOMContentLoaded', (event) => {
  highlightEdges();
  highlightAdjacentNodes();
});
]]></script>
</svg>
