<?xml version="1.0" encoding="UTF-8" standalone="no"?>
<!DOCTYPE svg PUBLIC "-//W3C//DTD SVG 1.1//EN"
 "http://www.w3.org/Graphics/SVG/1.1/DTD/svg11.dtd">
<!-- Generated by graphviz version 10.0.1 (20240210.2158)
 -->
<!-- Title: NAudio.Wave.MixingWaveProvider32 Pages: 1 -->
<svg width="180pt" height="277pt"
 viewBox="0.00 0.00 180.00 277.00" xmlns="http://www.w3.org/2000/svg" xmlns:xlink="http://www.w3.org/1999/xlink">

<svg id="main" version="1.1" xmlns="http://www.w3.org/2000/svg" xmlns:xlink="http://www.w3.org/1999/xlink" xml:space="preserve" onload="init(evt)">
<style type="text/css"><![CDATA[
.node, .edge {opacity: 0.7;}
.node.selected, .edge.selected {opacity: 1;}
.edge:hover path { stroke: red; }
.edge:hover polygon { stroke: red; fill: red; }
]]></style>
<script type="application/ecmascript" xlink:href="svg.min.js"/>
<svg id="graph" class="graph">
<g id="graph0" class="graph" transform="scale(1 1) rotate(0) translate(4 273)">
<title>NAudio.Wave.MixingWaveProvider32</title>
<!-- Node1 -->
<g id="Node000001" class="node">
<title>Node1</title>
<g id="a_Node000001"><a xlink:title="WaveProvider that can mix together multiple 32 bit floating point input provider All channels must ha...">
<polygon fill="#999999" stroke="none" points="172,-184 0,-184 0,0 172,0 172,-184"/>
<text text-anchor="start" x="4.62" y="-170.5" font-family="Helvetica,sans-Serif" font-size="10.00">NAudio.Wave.MixingWaveProvider32</text>
<text text-anchor="start" x="16" y="-155.5" font-family="Helvetica,sans-Serif" font-size="10.00">+</text>
<text text-anchor="start" x="38" y="-155.5" font-family="Helvetica,sans-Serif" font-size="10.00">InputCount</text>
<text text-anchor="start" x="16" y="-140.5" font-family="Helvetica,sans-Serif" font-size="10.00">+</text>
<text text-anchor="start" x="38" y="-140.5" font-family="Helvetica,sans-Serif" font-size="10.00">WaveFormat</text>
<text text-anchor="start" x="17.5" y="-125.5" font-family="Helvetica,sans-Serif" font-size="10.00">&#45;</text>
<text text-anchor="start" x="38" y="-125.5" font-family="Helvetica,sans-Serif" font-size="10.00">inputs</text>
<text text-anchor="start" x="17.5" y="-110.5" font-family="Helvetica,sans-Serif" font-size="10.00">&#45;</text>
<text text-anchor="start" x="38" y="-110.5" font-family="Helvetica,sans-Serif" font-size="10.00">waveFormat</text>
<text text-anchor="start" x="17.5" y="-95.5" font-family="Helvetica,sans-Serif" font-size="10.00">&#45;</text>
<text text-anchor="start" x="38" y="-95.5" font-family="Helvetica,sans-Serif" font-size="10.00">bytesPerSample</text>
<text text-anchor="start" x="16" y="-80.5" font-family="Helvetica,sans-Serif" font-size="10.00">+</text>
<text text-anchor="start" x="38" y="-80.5" font-family="Helvetica,sans-Serif" font-size="10.00">MixingWaveProvider32()</text>
<text text-anchor="start" x="16" y="-65.5" font-family="Helvetica,sans-Serif" font-size="10.00">+</text>
<text text-anchor="start" x="38" y="-65.5" font-family="Helvetica,sans-Serif" font-size="10.00">MixingWaveProvider32()</text>
<text text-anchor="start" x="16" y="-50.5" font-family="Helvetica,sans-Serif" font-size="10.00">+</text>
<text text-anchor="start" x="38" y="-50.5" font-family="Helvetica,sans-Serif" font-size="10.00">AddInputStream()</text>
<text text-anchor="start" x="16" y="-35.5" font-family="Helvetica,sans-Serif" font-size="10.00">+</text>
<text text-anchor="start" x="38" y="-35.5" font-family="Helvetica,sans-Serif" font-size="10.00">RemoveInputStream()</text>
<text text-anchor="start" x="16" y="-20.5" font-family="Helvetica,sans-Serif" font-size="10.00">+</text>
<text text-anchor="start" x="38" y="-20.5" font-family="Helvetica,sans-Serif" font-size="10.00">Read()</text>
<text text-anchor="start" x="17.5" y="-5.5" font-family="Helvetica,sans-Serif" font-size="10.00">&#45;</text>
<text text-anchor="start" x="38" y="-5.5" font-family="Helvetica,sans-Serif" font-size="10.00">Sum32BitAudio()</text>
<polygon fill="#666666" stroke="#666666" points="0,-167 0,-167 172,-167 172,-167 0,-167"/>
<polygon fill="#666666" stroke="#666666" points="0,-92 0,-92 36,-92 36,-92 0,-92"/>
<polygon fill="#666666" stroke="#666666" points="36,-92 36,-92 172,-92 172,-92 36,-92"/>
<polygon fill="none" stroke="#666666" points="0,0 0,-184 172,-184 172,0 0,0"/>
</a>
</g>
</g>
<!-- Node2 -->
<g id="Node000002" class="node">
<title>Node2</title>
<g id="a_Node000002"><a xlink:href="interface_n_audio_1_1_wave_1_1_i_wave_provider.html" target="_top" xlink:title="Generic interface for all WaveProviders.">
<polygon fill="white" stroke="none" points="122.5,-269 49.5,-269 49.5,-220 122.5,-220 122.5,-269"/>
<text text-anchor="start" x="54.12" y="-255.5" font-family="Helvetica,sans-Serif" font-size="10.00">IWaveProvider</text>
<text text-anchor="start" x="53.5" y="-240.5" font-family="Helvetica,sans-Serif" font-size="10.00">+</text>
<text text-anchor="start" x="63.5" y="-240.5" font-family="Helvetica,sans-Serif" font-size="10.00">WaveFormat</text>
<text text-anchor="start" x="53.5" y="-225.5" font-family="Helvetica,sans-Serif" font-size="10.00">+</text>
<text text-anchor="start" x="63.5" y="-225.5" font-family="Helvetica,sans-Serif" font-size="10.00">Read()</text>
<polygon fill="#666666" stroke="#666666" points="49.5,-252 49.5,-252 122.5,-252 122.5,-252 49.5,-252"/>
<polygon fill="#666666" stroke="#666666" points="49.5,-237 49.5,-237 61.5,-237 61.5,-237 49.5,-237"/>
<polygon fill="#666666" stroke="#666666" points="61.5,-237 61.5,-237 122.5,-237 122.5,-237 61.5,-237"/>
<polygon fill="none" stroke="#666666" points="49.5,-220 49.5,-269 122.5,-269 122.5,-220 49.5,-220"/>
</a>
</g>
</g>
<!-- Node2&#45;&gt;Node1 -->
<g id="edge1_Node000001_Node000002" class="edge">
<title>Node2&#45;&gt;Node1</title>
<g id="a_edge1_Node000001_Node000002"><a xlink:title=" ">
<path fill="none" stroke="#63b8ff" d="M86,-208.95C86,-201.25 86,-192.73 86,-183.91"/>
<polygon fill="none" stroke="#63b8ff" points="82.5,-208.8 86,-218.8 89.5,-208.8 82.5,-208.8"/>
</a>
</g>
</g>
</g>
</svg>
</svg>

<style type='text/css'>
<![CDATA[
[data-mouse-over-selected='false'] { opacity: 0.7; }
[data-mouse-over-selected='true']  { opacity: 1.0; }
]]>
</style>
<script type="application/ecmascript"><![CDATA[
document.addEventListener('DOMContentLoaded', (event) => {
  highlightEdges();
  highlightAdjacentNodes();
});
]]></script>
</svg>
