<?xml version="1.0" encoding="UTF-8" standalone="no"?>
<!DOCTYPE svg PUBLIC "-//W3C//DTD SVG 1.1//EN"
 "http://www.w3.org/Graphics/SVG/1.1/DTD/svg11.dtd">
<!-- Generated by graphviz version 10.0.1 (20240210.2158)
 -->
<!-- Title: NAudio.Wave.AiffFileWriter Pages: 1 -->
<svg width="642pt" height="1000pt"
 viewBox="0.00 0.00 641.50 999.50" xmlns="http://www.w3.org/2000/svg" xmlns:xlink="http://www.w3.org/1999/xlink">
<g id="graph0" class="graph" transform="scale(1 1) rotate(0) translate(4 995.5)">
<title>NAudio.Wave.AiffFileWriter</title>
<!-- Node1 -->
<g id="Node000001" class="node">
<title>Node1</title>
<g id="a_Node000001"><a xlink:title="This class writes audio data to a .aif file on disk.">
<polygon fill="#999999" stroke="none" points="289,-424 160,-424 160,0 289,0 289,-424"/>
<text text-anchor="start" x="164.88" y="-410.5" font-family="Helvetica,sans-Serif" font-size="10.00">NAudio.Wave.AiffFileWriter</text>
<text text-anchor="start" x="164" y="-395.5" font-family="Helvetica,sans-Serif" font-size="10.00">+</text>
<text text-anchor="start" x="174" y="-395.5" font-family="Helvetica,sans-Serif" font-size="10.00">Filename</text>
<text text-anchor="start" x="164" y="-380.5" font-family="Helvetica,sans-Serif" font-size="10.00">+</text>
<text text-anchor="start" x="174" y="-380.5" font-family="Helvetica,sans-Serif" font-size="10.00">Length</text>
<text text-anchor="start" x="164" y="-365.5" font-family="Helvetica,sans-Serif" font-size="10.00">+</text>
<text text-anchor="start" x="174" y="-365.5" font-family="Helvetica,sans-Serif" font-size="10.00">WaveFormat</text>
<text text-anchor="start" x="164" y="-350.5" font-family="Helvetica,sans-Serif" font-size="10.00">+</text>
<text text-anchor="start" x="174" y="-350.5" font-family="Helvetica,sans-Serif" font-size="10.00">CanRead</text>
<text text-anchor="start" x="164" y="-335.5" font-family="Helvetica,sans-Serif" font-size="10.00">+</text>
<text text-anchor="start" x="174" y="-335.5" font-family="Helvetica,sans-Serif" font-size="10.00">CanWrite</text>
<text text-anchor="start" x="164" y="-320.5" font-family="Helvetica,sans-Serif" font-size="10.00">+</text>
<text text-anchor="start" x="174" y="-320.5" font-family="Helvetica,sans-Serif" font-size="10.00">CanSeek</text>
<text text-anchor="start" x="164" y="-305.5" font-family="Helvetica,sans-Serif" font-size="10.00">+</text>
<text text-anchor="start" x="174" y="-305.5" font-family="Helvetica,sans-Serif" font-size="10.00">Position</text>
<text text-anchor="start" x="164" y="-290.5" font-family="Helvetica,sans-Serif" font-size="10.00">+</text>
<text text-anchor="start" x="174" y="-290.5" font-family="Helvetica,sans-Serif" font-size="10.00">AiffFileWriter()</text>
<text text-anchor="start" x="164" y="-275.5" font-family="Helvetica,sans-Serif" font-size="10.00">+</text>
<text text-anchor="start" x="174" y="-275.5" font-family="Helvetica,sans-Serif" font-size="10.00">AiffFileWriter()</text>
<text text-anchor="start" x="164" y="-260.5" font-family="Helvetica,sans-Serif" font-size="10.00">+</text>
<text text-anchor="start" x="174" y="-260.5" font-family="Helvetica,sans-Serif" font-size="10.00">Read()</text>
<text text-anchor="start" x="164" y="-245.5" font-family="Helvetica,sans-Serif" font-size="10.00">+</text>
<text text-anchor="start" x="174" y="-245.5" font-family="Helvetica,sans-Serif" font-size="10.00">Seek()</text>
<text text-anchor="start" x="164" y="-230.5" font-family="Helvetica,sans-Serif" font-size="10.00">+</text>
<text text-anchor="start" x="174" y="-230.5" font-family="Helvetica,sans-Serif" font-size="10.00">SetLength()</text>
<text text-anchor="start" x="164" y="-215.5" font-family="Helvetica,sans-Serif" font-size="10.00">+</text>
<text text-anchor="start" x="174" y="-215.5" font-family="Helvetica,sans-Serif" font-size="10.00">Write()</text>
<text text-anchor="start" x="164" y="-200.5" font-family="Helvetica,sans-Serif" font-size="10.00">+</text>
<text text-anchor="start" x="174" y="-200.5" font-family="Helvetica,sans-Serif" font-size="10.00">WriteSample()</text>
<text text-anchor="start" x="164" y="-185.5" font-family="Helvetica,sans-Serif" font-size="10.00">+</text>
<text text-anchor="start" x="174" y="-185.5" font-family="Helvetica,sans-Serif" font-size="10.00">WriteSamples()</text>
<text text-anchor="start" x="164" y="-170.5" font-family="Helvetica,sans-Serif" font-size="10.00">+</text>
<text text-anchor="start" x="174" y="-170.5" font-family="Helvetica,sans-Serif" font-size="10.00">WriteSamples()</text>
<text text-anchor="start" x="164" y="-155.5" font-family="Helvetica,sans-Serif" font-size="10.00">+</text>
<text text-anchor="start" x="174" y="-155.5" font-family="Helvetica,sans-Serif" font-size="10.00">Flush()</text>
<text text-anchor="start" x="164" y="-140.5" font-family="Helvetica,sans-Serif" font-size="10.00">+</text>
<text text-anchor="start" x="174" y="-140.5" font-family="Helvetica,sans-Serif" font-size="10.00">CreateAiffFile()</text>
<text text-anchor="start" x="164.38" y="-125.5" font-family="Helvetica,sans-Serif" font-size="10.00">#</text>
<text text-anchor="start" x="174" y="-125.5" font-family="Helvetica,sans-Serif" font-size="10.00">Dispose()</text>
<text text-anchor="start" x="164.38" y="-110.5" font-family="Helvetica,sans-Serif" font-size="10.00">#</text>
<text text-anchor="start" x="174" y="-110.5" font-family="Helvetica,sans-Serif" font-size="10.00">UpdateHeader()</text>
<text text-anchor="start" x="165.5" y="-95.5" font-family="Helvetica,sans-Serif" font-size="10.00">&#45;</text>
<text text-anchor="start" x="174" y="-95.5" font-family="Helvetica,sans-Serif" font-size="10.00">WriteSsndChunkHeader()</text>
<text text-anchor="start" x="165.5" y="-80.5" font-family="Helvetica,sans-Serif" font-size="10.00">&#45;</text>
<text text-anchor="start" x="174" y="-80.5" font-family="Helvetica,sans-Serif" font-size="10.00">SwapEndian()</text>
<text text-anchor="start" x="165.5" y="-65.5" font-family="Helvetica,sans-Serif" font-size="10.00">&#45;</text>
<text text-anchor="start" x="174" y="-65.5" font-family="Helvetica,sans-Serif" font-size="10.00">SwapEndian()</text>
<text text-anchor="start" x="165.5" y="-50.5" font-family="Helvetica,sans-Serif" font-size="10.00">&#45;</text>
<text text-anchor="start" x="174" y="-50.5" font-family="Helvetica,sans-Serif" font-size="10.00">CreateCommChunk()</text>
<text text-anchor="start" x="165.5" y="-35.5" font-family="Helvetica,sans-Serif" font-size="10.00">&#45;</text>
<text text-anchor="start" x="174" y="-35.5" font-family="Helvetica,sans-Serif" font-size="10.00">UpdateCommChunk()</text>
<text text-anchor="start" x="165.5" y="-20.5" font-family="Helvetica,sans-Serif" font-size="10.00">&#45;</text>
<text text-anchor="start" x="174" y="-20.5" font-family="Helvetica,sans-Serif" font-size="10.00">UpdateSsndChunk()</text>
<text text-anchor="start" x="165.5" y="-5.5" font-family="Helvetica,sans-Serif" font-size="10.00">&#45;</text>
<text text-anchor="start" x="174" y="-5.5" font-family="Helvetica,sans-Serif" font-size="10.00">~AiffFileWriter()</text>
<polygon fill="#666666" stroke="#666666" points="160,-407 160,-407 289,-407 289,-407 160,-407"/>
<polygon fill="#666666" stroke="#666666" points="160,-302 160,-302 172,-302 172,-302 160,-302"/>
<polygon fill="#666666" stroke="#666666" points="172,-302 172,-302 289,-302 289,-302 172,-302"/>
<polygon fill="none" stroke="#666666" points="160,0 160,-424 289,-424 289,0 160,0"/>
</a>
</g>
</g>
<!-- Node2 -->
<g id="Node000002" class="node">
<title>Node2</title>
<g id="a_Node000002"><a xlink:title=" ">
<polygon fill="white" stroke="none" points="41,-696.5 0,-696.5 0,-647.5 41,-647.5 41,-696.5"/>
<text text-anchor="start" x="4.75" y="-683" font-family="Helvetica,sans-Serif" font-size="10.00">Stream</text>
<text text-anchor="start" x="19" y="-668" font-family="Helvetica,sans-Serif" font-size="10.00"> </text>
<text text-anchor="start" x="19" y="-653" font-family="Helvetica,sans-Serif" font-size="10.00"> </text>
<polygon fill="#666666" stroke="#666666" points="0,-679.5 0,-679.5 41,-679.5 41,-679.5 0,-679.5"/>
<polygon fill="#666666" stroke="#666666" points="0,-664.5 0,-664.5 41,-664.5 41,-664.5 0,-664.5"/>
<polygon fill="none" stroke="#666666" points="0,-647.5 0,-696.5 41,-696.5 41,-647.5 0,-647.5"/>
</a>
</g>
</g>
<!-- Node2&#45;&gt;Node1 -->
<g id="edge1_Node000001_Node000002" class="edge">
<title>Node2&#45;&gt;Node1</title>
<g id="a_edge1_Node000001_Node000002"><a xlink:title=" ">
<path fill="none" stroke="#63b8ff" d="M12.06,-636.42C2.53,-590.32 -8.61,-507 16.5,-442 45.2,-367.73 110.41,-302.68 160.22,-261.08"/>
<polygon fill="none" stroke="#63b8ff" points="8.62,-637.07 14.17,-646.1 15.46,-635.58 8.62,-637.07"/>
</a>
</g>
</g>
<!-- Node2&#45;&gt;Node1 -->
<g id="edge2_Node000001_Node000002" class="edge">
<title>Node2&#45;&gt;Node1</title>
<g id="a_edge2_Node000001_Node000002"><a xlink:title=" ">
<path fill="none" stroke="#63b8ff" d="M22.52,-647.69C26.83,-605.27 39.13,-513.25 69.5,-442 90.54,-392.64 122.75,-342.73 152.37,-302.16"/>
<polygon fill="none" stroke="#63b8ff" points="152.37,-302.16 152.72,-294.95 159.51,-292.5 159.16,-299.71 152.37,-302.16"/>
</a>
</g>
<text text-anchor="middle" x="95" y="-449.38" font-family="Helvetica,sans-Serif" font-size="10.00" fill="grey"> &#45;outStream</text>
</g>
<!-- Node3 -->
<g id="Node000003" class="node">
<title>Node3</title>
<g id="a_Node000003"><a xlink:title=" ">
<polygon fill="white" stroke="none" points="135,-696.5 72,-696.5 72,-647.5 135,-647.5 135,-696.5"/>
<text text-anchor="start" x="76.88" y="-683" font-family="Helvetica,sans-Serif" font-size="10.00">BinaryWriter</text>
<text text-anchor="start" x="102" y="-668" font-family="Helvetica,sans-Serif" font-size="10.00"> </text>
<text text-anchor="start" x="102" y="-653" font-family="Helvetica,sans-Serif" font-size="10.00"> </text>
<polygon fill="#666666" stroke="#666666" points="72,-679.5 72,-679.5 135,-679.5 135,-679.5 72,-679.5"/>
<polygon fill="#666666" stroke="#666666" points="72,-664.5 72,-664.5 135,-664.5 135,-664.5 72,-664.5"/>
<polygon fill="none" stroke="#666666" points="72,-647.5 72,-696.5 135,-696.5 135,-647.5 72,-647.5"/>
</a>
</g>
</g>
<!-- Node3&#45;&gt;Node1 -->
<g id="edge3_Node000001_Node000003" class="edge">
<title>Node3&#45;&gt;Node1</title>
<g id="a_edge3_Node000001_Node000003"><a xlink:title=" ">
<path fill="none" stroke="#63b8ff" d="M103.85,-647.52C104.95,-605.6 109.54,-515.38 128.5,-442 135.42,-415.22 144.9,-387.47 155.23,-360.93"/>
<polygon fill="none" stroke="#63b8ff" points="155.27,-360.82 153.77,-353.77 159.7,-349.66 161.2,-356.72 155.27,-360.82"/>
</a>
</g>
<text text-anchor="middle" x="143.5" y="-449.38" font-family="Helvetica,sans-Serif" font-size="10.00" fill="grey"> &#45;writer</text>
</g>
<!-- Node4 -->
<g id="Node000004" class="node">
<title>Node4</title>
<g id="a_Node000004"><a xlink:title=" ">
<polygon fill="white" stroke="none" points="181.5,-696.5 153.5,-696.5 153.5,-647.5 181.5,-647.5 181.5,-696.5"/>
<text text-anchor="start" x="158.5" y="-683" font-family="Helvetica,sans-Serif" font-size="10.00">long</text>
<text text-anchor="start" x="166" y="-668" font-family="Helvetica,sans-Serif" font-size="10.00"> </text>
<text text-anchor="start" x="166" y="-653" font-family="Helvetica,sans-Serif" font-size="10.00"> </text>
<polygon fill="#666666" stroke="#666666" points="153.5,-679.5 153.5,-679.5 181.5,-679.5 181.5,-679.5 153.5,-679.5"/>
<polygon fill="#666666" stroke="#666666" points="153.5,-664.5 153.5,-664.5 181.5,-664.5 181.5,-664.5 153.5,-664.5"/>
<polygon fill="none" stroke="#666666" points="153.5,-647.5 153.5,-696.5 181.5,-696.5 181.5,-647.5 153.5,-647.5"/>
</a>
</g>
</g>
<!-- Node4&#45;&gt;Node1 -->
<g id="edge4_Node000001_Node000004" class="edge">
<title>Node4&#45;&gt;Node1</title>
<g id="a_edge4_Node000001_Node000004"><a xlink:title=" ">
<path fill="none" stroke="#63b8ff" d="M164.95,-647.8C160.88,-606.3 154.3,-516.72 164,-442 164.23,-440.21 164.47,-438.42 164.72,-436.63"/>
<polygon fill="none" stroke="#63b8ff" points="164.74,-436.54 161.68,-430.01 166.53,-424.67 169.59,-431.2 164.74,-436.54"/>
</a>
</g>
<text text-anchor="middle" x="219.25" y="-455" font-family="Helvetica,sans-Serif" font-size="10.00" fill="grey"> &#45;commSampleCountPos</text>
<text text-anchor="middle" x="219.25" y="-443.75" font-family="Helvetica,sans-Serif" font-size="10.00" fill="grey">&#45;dataSizePos</text>
</g>
<!-- Node5 -->
<g id="Node000005" class="node">
<title>Node5</title>
<g id="a_Node000005"><a xlink:title=" ">
<polygon fill="white" stroke="none" points="314.5,-991.5 294.5,-991.5 294.5,-942.5 314.5,-942.5 314.5,-991.5"/>
<text text-anchor="start" x="299.25" y="-978" font-family="Helvetica,sans-Serif" font-size="10.00">int</text>
<text text-anchor="start" x="303" y="-963" font-family="Helvetica,sans-Serif" font-size="10.00"> </text>
<text text-anchor="start" x="303" y="-948" font-family="Helvetica,sans-Serif" font-size="10.00"> </text>
<polygon fill="#666666" stroke="#666666" points="294.5,-974.5 294.5,-974.5 314.5,-974.5 314.5,-974.5 294.5,-974.5"/>
<polygon fill="#666666" stroke="#666666" points="294.5,-959.5 294.5,-959.5 314.5,-959.5 314.5,-959.5 294.5,-959.5"/>
<polygon fill="none" stroke="#666666" points="294.5,-942.5 294.5,-991.5 314.5,-991.5 314.5,-942.5 294.5,-942.5"/>
</a>
</g>
</g>
<!-- Node5&#45;&gt;Node1 -->
<g id="edge5_Node000001_Node000005" class="edge">
<title>Node5&#45;&gt;Node1</title>
<g id="a_edge5_Node000001_Node000005"><a xlink:title=" ">
<path fill="none" stroke="#63b8ff" d="M302.65,-942.77C301,-921.59 298.56,-889.46 296.75,-861.5 284.68,-675.16 298.28,-627.08 273.5,-442 273.26,-440.24 273.02,-438.46 272.77,-436.69"/>
<polygon fill="none" stroke="#63b8ff" points="272.78,-436.74 267.95,-431.38 271.04,-424.86 275.87,-430.22 272.78,-436.74"/>
</a>
</g>
<text text-anchor="middle" x="332.88" y="-668.12" font-family="Helvetica,sans-Serif" font-size="10.00" fill="grey"> &#45;dataChunkSize</text>
</g>
<!-- Node6 -->
<g id="Node000006" class="node">
<title>Node6</title>
<g id="a_Node000006"><a xlink:href="class_n_audio_1_1_wave_1_1_wave_format.html" target="_top" xlink:title="Represents a Wave file format.">
<polygon fill="white" stroke="none" points="527,-861.5 378,-861.5 378,-482.5 527,-482.5 527,-861.5"/>
<text text-anchor="start" x="393.25" y="-848" font-family="Helvetica,sans-Serif" font-size="10.00">NAudio.Wave.WaveFormat</text>
<text text-anchor="start" x="382" y="-833" font-family="Helvetica,sans-Serif" font-size="10.00">+</text>
<text text-anchor="start" x="392" y="-833" font-family="Helvetica,sans-Serif" font-size="10.00">Encoding</text>
<text text-anchor="start" x="382" y="-818" font-family="Helvetica,sans-Serif" font-size="10.00">+</text>
<text text-anchor="start" x="392" y="-818" font-family="Helvetica,sans-Serif" font-size="10.00">Channels</text>
<text text-anchor="start" x="382" y="-803" font-family="Helvetica,sans-Serif" font-size="10.00">+</text>
<text text-anchor="start" x="392" y="-803" font-family="Helvetica,sans-Serif" font-size="10.00">SampleRate</text>
<text text-anchor="start" x="382" y="-788" font-family="Helvetica,sans-Serif" font-size="10.00">+</text>
<text text-anchor="start" x="392" y="-788" font-family="Helvetica,sans-Serif" font-size="10.00">AverageBytesPerSecond</text>
<text text-anchor="start" x="382" y="-773" font-family="Helvetica,sans-Serif" font-size="10.00">+</text>
<text text-anchor="start" x="392" y="-773" font-family="Helvetica,sans-Serif" font-size="10.00">BlockAlign</text>
<text text-anchor="start" x="382" y="-758" font-family="Helvetica,sans-Serif" font-size="10.00">+</text>
<text text-anchor="start" x="392" y="-758" font-family="Helvetica,sans-Serif" font-size="10.00">BitsPerSample</text>
<text text-anchor="start" x="382" y="-743" font-family="Helvetica,sans-Serif" font-size="10.00">+</text>
<text text-anchor="start" x="392" y="-743" font-family="Helvetica,sans-Serif" font-size="10.00">ExtraSize</text>
<text text-anchor="start" x="382" y="-728" font-family="Helvetica,sans-Serif" font-size="10.00">+</text>
<text text-anchor="start" x="392" y="-728" font-family="Helvetica,sans-Serif" font-size="10.00">WaveFormat()</text>
<text text-anchor="start" x="382" y="-713" font-family="Helvetica,sans-Serif" font-size="10.00">+</text>
<text text-anchor="start" x="392" y="-713" font-family="Helvetica,sans-Serif" font-size="10.00">WaveFormat()</text>
<text text-anchor="start" x="382" y="-698" font-family="Helvetica,sans-Serif" font-size="10.00">+</text>
<text text-anchor="start" x="392" y="-698" font-family="Helvetica,sans-Serif" font-size="10.00">ConvertLatencyToByteSize()</text>
<text text-anchor="start" x="382" y="-683" font-family="Helvetica,sans-Serif" font-size="10.00">+</text>
<text text-anchor="start" x="392" y="-683" font-family="Helvetica,sans-Serif" font-size="10.00">WaveFormat()</text>
<text text-anchor="start" x="382" y="-668" font-family="Helvetica,sans-Serif" font-size="10.00">+</text>
<text text-anchor="start" x="392" y="-668" font-family="Helvetica,sans-Serif" font-size="10.00">WaveFormat()</text>
<text text-anchor="start" x="382" y="-653" font-family="Helvetica,sans-Serif" font-size="10.00">+</text>
<text text-anchor="start" x="392" y="-653" font-family="Helvetica,sans-Serif" font-size="10.00">ToString()</text>
<text text-anchor="start" x="382" y="-638" font-family="Helvetica,sans-Serif" font-size="10.00">+</text>
<text text-anchor="start" x="392" y="-638" font-family="Helvetica,sans-Serif" font-size="10.00">Equals()</text>
<text text-anchor="start" x="382" y="-623" font-family="Helvetica,sans-Serif" font-size="10.00">+</text>
<text text-anchor="start" x="392" y="-623" font-family="Helvetica,sans-Serif" font-size="10.00">GetHashCode()</text>
<text text-anchor="start" x="382" y="-608" font-family="Helvetica,sans-Serif" font-size="10.00">+</text>
<text text-anchor="start" x="392" y="-608" font-family="Helvetica,sans-Serif" font-size="10.00">Serialize()</text>
<text text-anchor="start" x="382" y="-593" font-family="Helvetica,sans-Serif" font-size="10.00">+</text>
<text text-anchor="start" x="392" y="-593" font-family="Helvetica,sans-Serif" font-size="10.00">CreateCustomFormat()</text>
<text text-anchor="start" x="382" y="-578" font-family="Helvetica,sans-Serif" font-size="10.00">+</text>
<text text-anchor="start" x="392" y="-578" font-family="Helvetica,sans-Serif" font-size="10.00">CreateALawFormat()</text>
<text text-anchor="start" x="382" y="-563" font-family="Helvetica,sans-Serif" font-size="10.00">+</text>
<text text-anchor="start" x="392" y="-563" font-family="Helvetica,sans-Serif" font-size="10.00">CreateMuLawFormat()</text>
<text text-anchor="start" x="382" y="-548" font-family="Helvetica,sans-Serif" font-size="10.00">+</text>
<text text-anchor="start" x="392" y="-548" font-family="Helvetica,sans-Serif" font-size="10.00">CreateIeeeFloatWaveFormat()</text>
<text text-anchor="start" x="382" y="-533" font-family="Helvetica,sans-Serif" font-size="10.00">+</text>
<text text-anchor="start" x="392" y="-533" font-family="Helvetica,sans-Serif" font-size="10.00">MarshalFromPtr()</text>
<text text-anchor="start" x="382" y="-518" font-family="Helvetica,sans-Serif" font-size="10.00">+</text>
<text text-anchor="start" x="392" y="-518" font-family="Helvetica,sans-Serif" font-size="10.00">MarshalToPtr()</text>
<text text-anchor="start" x="382" y="-503" font-family="Helvetica,sans-Serif" font-size="10.00">+</text>
<text text-anchor="start" x="392" y="-503" font-family="Helvetica,sans-Serif" font-size="10.00">FromFormatChunk()</text>
<text text-anchor="start" x="383.5" y="-488" font-family="Helvetica,sans-Serif" font-size="10.00">&#45;</text>
<text text-anchor="start" x="392" y="-488" font-family="Helvetica,sans-Serif" font-size="10.00">ReadWaveFormat()</text>
<polygon fill="#666666" stroke="#666666" points="378,-844.5 378,-844.5 527,-844.5 527,-844.5 378,-844.5"/>
<polygon fill="#666666" stroke="#666666" points="378,-739.5 378,-739.5 390,-739.5 390,-739.5 378,-739.5"/>
<polygon fill="#666666" stroke="#666666" points="390,-739.5 390,-739.5 527,-739.5 527,-739.5 390,-739.5"/>
<polygon fill="none" stroke="#666666" points="378,-482.5 378,-861.5 527,-861.5 527,-482.5 378,-482.5"/>
</a>
</g>
</g>
<!-- Node5&#45;&gt;Node6 -->
<g id="edge9_Node000006_Node000005" class="edge">
<title>Node5&#45;&gt;Node6</title>
<g id="a_edge9_Node000006_Node000005"><a xlink:title=" ">
<path fill="none" stroke="#63b8ff" d="M309.14,-942.71C313.78,-924.07 322.41,-898.06 337.25,-879.5 346.31,-868.16 355.02,-872.49 364.5,-861.5 366.49,-859.19 368.45,-856.83 370.37,-854.43"/>
<polygon fill="none" stroke="#63b8ff" points="370.26,-854.56 370.7,-847.37 377.51,-845 377.07,-852.2 370.26,-854.56"/>
</a>
</g>
<text text-anchor="middle" x="394.62" y="-903.75" font-family="Helvetica,sans-Serif" font-size="10.00" fill="grey"> #averageBytesPerSecond</text>
<text text-anchor="middle" x="394.62" y="-892.5" font-family="Helvetica,sans-Serif" font-size="10.00" fill="grey">#sampleRate</text>
</g>
<!-- Node6&#45;&gt;Node1 -->
<g id="edge6_Node000001_Node000006" class="edge">
<title>Node6&#45;&gt;Node1</title>
<g id="a_edge6_Node000001_Node000006"><a xlink:title=" ">
<path fill="none" stroke="#63b8ff" d="M378.07,-510.36C373.52,-500.91 368.97,-491.57 364.5,-482.5 342.41,-437.68 317.48,-389.1 294.85,-345.7"/>
<polygon fill="none" stroke="#63b8ff" points="294.82,-345.63 288.49,-342.16 289.26,-334.99 295.58,-338.46 294.82,-345.63"/>
</a>
</g>
<text text-anchor="middle" x="370.38" y="-449.38" font-family="Helvetica,sans-Serif" font-size="10.00" fill="grey"> &#45;format</text>
</g>
<!-- Node7 -->
<g id="Node000007" class="node">
<title>Node7</title>
<g id="a_Node000007"><a xlink:title=" ">
<polygon fill="white" stroke="none" points="512.5,-991.5 406.5,-991.5 406.5,-942.5 512.5,-942.5 512.5,-991.5"/>
<text text-anchor="start" x="411.5" y="-978" font-family="Helvetica,sans-Serif" font-size="10.00">WaveFormatEncoding</text>
<text text-anchor="start" x="458" y="-963" font-family="Helvetica,sans-Serif" font-size="10.00"> </text>
<text text-anchor="start" x="458" y="-948" font-family="Helvetica,sans-Serif" font-size="10.00"> </text>
<polygon fill="#666666" stroke="#666666" points="406.5,-974.5 406.5,-974.5 512.5,-974.5 512.5,-974.5 406.5,-974.5"/>
<polygon fill="#666666" stroke="#666666" points="406.5,-959.5 406.5,-959.5 512.5,-959.5 512.5,-959.5 406.5,-959.5"/>
<polygon fill="none" stroke="#666666" points="406.5,-942.5 406.5,-991.5 512.5,-991.5 512.5,-942.5 406.5,-942.5"/>
</a>
</g>
</g>
<!-- Node7&#45;&gt;Node6 -->
<g id="edge7_Node000006_Node000007" class="edge">
<title>Node7&#45;&gt;Node6</title>
<g id="a_edge7_Node000006_Node000007"><a xlink:title=" ">
<path fill="none" stroke="#63b8ff" d="M458.94,-942.52C458.54,-925.74 457.96,-901.36 457.3,-874.02"/>
<polygon fill="none" stroke="#63b8ff" points="457.31,-874.17 453.16,-868.27 457.02,-862.17 461.16,-868.08 457.31,-874.17"/>
</a>
</g>
<text text-anchor="middle" x="496.5" y="-898.12" font-family="Helvetica,sans-Serif" font-size="10.00" fill="grey"> #waveFormatTag</text>
</g>
<!-- Node8 -->
<g id="Node000008" class="node">
<title>Node8</title>
<g id="a_Node000008"><a xlink:title=" ">
<polygon fill="white" stroke="none" points="576,-991.5 545,-991.5 545,-942.5 576,-942.5 576,-991.5"/>
<text text-anchor="start" x="549.62" y="-978" font-family="Helvetica,sans-Serif" font-size="10.00">short</text>
<text text-anchor="start" x="559" y="-963" font-family="Helvetica,sans-Serif" font-size="10.00"> </text>
<text text-anchor="start" x="559" y="-948" font-family="Helvetica,sans-Serif" font-size="10.00"> </text>
<polygon fill="#666666" stroke="#666666" points="545,-974.5 545,-974.5 576,-974.5 576,-974.5 545,-974.5"/>
<polygon fill="#666666" stroke="#666666" points="545,-959.5 545,-959.5 576,-959.5 576,-959.5 545,-959.5"/>
<polygon fill="none" stroke="#666666" points="545,-942.5 545,-991.5 576,-991.5 576,-942.5 545,-942.5"/>
</a>
</g>
</g>
<!-- Node8&#45;&gt;Node6 -->
<g id="edge8_Node000006_Node000008" class="edge">
<title>Node8&#45;&gt;Node6</title>
<g id="a_edge8_Node000006_Node000008"><a xlink:title=" ">
<path fill="none" stroke="#63b8ff" d="M555.52,-942.6C551.55,-925.05 545.51,-900.52 538.5,-879.5 536.23,-872.68 533.83,-865.77 531.35,-858.81"/>
<polygon fill="none" stroke="#63b8ff" points="531.34,-858.79 525.53,-854.52 527.24,-847.51 533.05,-851.79 531.34,-858.79"/>
</a>
</g>
<text text-anchor="middle" x="586.5" y="-915" font-family="Helvetica,sans-Serif" font-size="10.00" fill="grey"> #bitsPerSample</text>
<text text-anchor="middle" x="586.5" y="-903.75" font-family="Helvetica,sans-Serif" font-size="10.00" fill="grey">#blockAlign</text>
<text text-anchor="middle" x="586.5" y="-892.5" font-family="Helvetica,sans-Serif" font-size="10.00" fill="grey">#channels</text>
<text text-anchor="middle" x="586.5" y="-881.25" font-family="Helvetica,sans-Serif" font-size="10.00" fill="grey">#extraSize</text>
</g>
<!-- Node9 -->
<g id="Node000009" class="node">
<title>Node9</title>
<g id="a_Node000009"><a xlink:title=" ">
<polygon fill="white" stroke="none" points="579.5,-696.5 545.5,-696.5 545.5,-647.5 579.5,-647.5 579.5,-696.5"/>
<text text-anchor="start" x="550.5" y="-683" font-family="Helvetica,sans-Serif" font-size="10.00">string</text>
<text text-anchor="start" x="561" y="-668" font-family="Helvetica,sans-Serif" font-size="10.00"> </text>
<text text-anchor="start" x="561" y="-653" font-family="Helvetica,sans-Serif" font-size="10.00"> </text>
<polygon fill="#666666" stroke="#666666" points="545.5,-679.5 545.5,-679.5 579.5,-679.5 579.5,-679.5 545.5,-679.5"/>
<polygon fill="#666666" stroke="#666666" points="545.5,-664.5 545.5,-664.5 579.5,-664.5 579.5,-664.5 545.5,-664.5"/>
<polygon fill="none" stroke="#666666" points="545.5,-647.5 545.5,-696.5 579.5,-696.5 579.5,-647.5 545.5,-647.5"/>
</a>
</g>
</g>
<!-- Node9&#45;&gt;Node1 -->
<g id="edge10_Node000001_Node000009" class="edge">
<title>Node9&#45;&gt;Node1</title>
<g id="a_edge10_Node000001_Node000009"><a xlink:title=" ">
<path fill="none" stroke="#63b8ff" d="M564.36,-647.63C566.26,-610.33 565.6,-536.06 536.5,-482.5 481.73,-381.7 373.25,-301.48 299.78,-255.58"/>
<polygon fill="none" stroke="#63b8ff" points="299.73,-255.56 292.53,-255.82 289.52,-249.26 296.73,-249 299.73,-255.56"/>
</a>
</g>
<text text-anchor="middle" x="545.88" y="-449.38" font-family="Helvetica,sans-Serif" font-size="10.00" fill="grey"> &#45;filename</text>
</g>
<!-- Node10 -->
<g id="Node000010" class="node">
<title>Node10</title>
<g id="a_Node000010"><a xlink:title=" ">
<polygon fill="white" stroke="none" points="633.5,-696.5 605.5,-696.5 605.5,-647.5 633.5,-647.5 633.5,-696.5"/>
<text text-anchor="start" x="610.12" y="-683" font-family="Helvetica,sans-Serif" font-size="10.00">byte</text>
<text text-anchor="start" x="618" y="-668" font-family="Helvetica,sans-Serif" font-size="10.00"> </text>
<text text-anchor="start" x="618" y="-653" font-family="Helvetica,sans-Serif" font-size="10.00"> </text>
<polygon fill="#666666" stroke="#666666" points="605.5,-679.5 605.5,-679.5 633.5,-679.5 633.5,-679.5 605.5,-679.5"/>
<polygon fill="#666666" stroke="#666666" points="605.5,-664.5 605.5,-664.5 633.5,-664.5 633.5,-664.5 605.5,-664.5"/>
<polygon fill="none" stroke="#666666" points="605.5,-647.5 605.5,-696.5 633.5,-696.5 633.5,-647.5 605.5,-647.5"/>
</a>
</g>
</g>
<!-- Node10&#45;&gt;Node1 -->
<g id="edge11_Node000001_Node000010" class="edge">
<title>Node10&#45;&gt;Node1</title>
<g id="a_edge11_Node000001_Node000010"><a xlink:title=" ">
<path fill="none" stroke="#63b8ff" d="M621.29,-647.53C623.43,-602.37 621.68,-502.5 571.5,-442 496.88,-352.03 377.81,-284.26 300.39,-246.59"/>
<polygon fill="none" stroke="#63b8ff" points="300.44,-246.62 293.3,-247.62 289.62,-241.42 296.76,-240.41 300.44,-246.62"/>
</a>
</g>
<text text-anchor="middle" x="605.38" y="-449.38" font-family="Helvetica,sans-Serif" font-size="10.00" fill="grey"> &#45;value24</text>
</g>
</g>
</svg>
