<?xml version="1.0" encoding="UTF-8" standalone="no"?>
<!DOCTYPE svg PUBLIC "-//W3C//DTD SVG 1.1//EN"
 "http://www.w3.org/Graphics/SVG/1.1/DTD/svg11.dtd">
<!-- Generated by graphviz version 10.0.1 (20240210.2158)
 -->
<!-- Title: xeno_rat_server.Forms.Hvnc.StartProc Pages: 1 -->
<svg width="752pt" height="137pt"
 viewBox="0.00 0.00 751.50 136.50" xmlns="http://www.w3.org/2000/svg" xmlns:xlink="http://www.w3.org/1999/xlink">
<g id="graph0" class="graph" transform="scale(1 1) rotate(0) translate(4 132.5)">
<title>xeno_rat_server.Forms.Hvnc.StartProc</title>
<!-- Node1 -->
<g id="Node000001" class="node">
<title>Node1</title>
<g id="a_Node000001"><a xlink:title="Starts a process by sending the specified path to the client.">
<polygon fill="#999999" stroke="#666666" points="743.5,-79.5 598.5,-79.5 598.5,-49 743.5,-49 743.5,-79.5"/>
<text text-anchor="start" x="606.5" y="-66" font-family="Helvetica,sans-Serif" font-size="10.00">xeno_rat_server.Forms.Hvnc.</text>
<text text-anchor="middle" x="671" y="-54.75" font-family="Helvetica,sans-Serif" font-size="10.00">StartProc</text>
</a>
</g>
</g>
<!-- Node2 -->
<g id="Node000002" class="node">
<title>Node2</title>
<g id="a_Node000002"><a xlink:href="classxeno__rat__server_1_1_forms_1_1_hvnc.html#aa965aed6eec12d167ccf007efbe8f286" target="_top" xlink:title="Starts a process using the specified file path.">
<polygon fill="white" stroke="#666666" points="562.5,-128.5 385.25,-128.5 385.25,-98 562.5,-98 562.5,-128.5"/>
<text text-anchor="start" x="393.25" y="-115" font-family="Helvetica,sans-Serif" font-size="10.00">xeno_rat_server.Forms.Hvnc.button4</text>
<text text-anchor="middle" x="473.88" y="-103.75" font-family="Helvetica,sans-Serif" font-size="10.00">_Click</text>
</a>
</g>
</g>
<!-- Node1&#45;&gt;Node2 -->
<g id="edge1_Node000001_Node000002" class="edge">
<title>Node1&#45;&gt;Node2</title>
<g id="a_edge1_Node000001_Node000002"><a xlink:title=" ">
<path fill="none" stroke="#63b8ff" d="M596.5,-82.71C577.04,-87.6 556.22,-92.82 537.4,-97.55"/>
<polygon fill="#63b8ff" stroke="#63b8ff" points="597.14,-86.15 605.99,-80.32 595.44,-79.37 597.14,-86.15"/>
</a>
</g>
</g>
<!-- Node5 -->
<g id="Node000005" class="node">
<title>Node5</title>
<g id="a_Node000005"><a xlink:href="classxeno__rat__server_1_1_forms_1_1_hvnc.html#ace859083498d0f66dc281e75e2af4299" target="_top" xlink:title="Initiates a new process for the command prompt.">
<polygon fill="white" stroke="#666666" points="562.5,-79.5 385.25,-79.5 385.25,-49 562.5,-49 562.5,-79.5"/>
<text text-anchor="start" x="393.25" y="-66" font-family="Helvetica,sans-Serif" font-size="10.00">xeno_rat_server.Forms.Hvnc.button8</text>
<text text-anchor="middle" x="473.88" y="-54.75" font-family="Helvetica,sans-Serif" font-size="10.00">_Click</text>
</a>
</g>
</g>
<!-- Node1&#45;&gt;Node5 -->
<g id="edge4_Node000001_Node000005" class="edge">
<title>Node1&#45;&gt;Node5</title>
<g id="a_edge4_Node000001_Node000005"><a xlink:title=" ">
<path fill="none" stroke="#63b8ff" d="M586.69,-64.25C578.78,-64.25 570.74,-64.25 562.78,-64.25"/>
<polygon fill="#63b8ff" stroke="#63b8ff" points="586.66,-67.75 596.66,-64.25 586.66,-60.75 586.66,-67.75"/>
</a>
</g>
</g>
<!-- Node6 -->
<g id="Node000006" class="node">
<title>Node6</title>
<g id="a_Node000006"><a xlink:href="classxeno__rat__server_1_1_forms_1_1_hvnc.html#acb5653bb1603ab9711bef46861f98509" target="_top" xlink:title="Initiates a PowerShell process asynchronously.">
<polygon fill="white" stroke="#666666" points="562.5,-30.5 385.25,-30.5 385.25,0 562.5,0 562.5,-30.5"/>
<text text-anchor="start" x="393.25" y="-17" font-family="Helvetica,sans-Serif" font-size="10.00">xeno_rat_server.Forms.Hvnc.button9</text>
<text text-anchor="middle" x="473.88" y="-5.75" font-family="Helvetica,sans-Serif" font-size="10.00">_Click</text>
</a>
</g>
</g>
<!-- Node1&#45;&gt;Node6 -->
<g id="edge6_Node000001_Node000006" class="edge">
<title>Node1&#45;&gt;Node6</title>
<g id="a_edge6_Node000001_Node000006"><a xlink:title=" ">
<path fill="none" stroke="#63b8ff" d="M596.5,-45.79C577.04,-40.9 556.22,-35.68 537.4,-30.95"/>
<polygon fill="#63b8ff" stroke="#63b8ff" points="595.44,-49.13 605.99,-48.18 597.14,-42.35 595.44,-49.13"/>
</a>
</g>
</g>
<!-- Node3 -->
<g id="Node000003" class="node">
<title>Node3</title>
<g id="a_Node000003"><a xlink:href="classxeno__rat__server_1_1_forms_1_1_hvnc.html#aac81e0caa44da1e51b186fb2a1f6fd6d" target="_top" xlink:title="Initializes the components of the form.">
<polygon fill="white" stroke="#666666" points="349.25,-79.5 204.25,-79.5 204.25,-49 349.25,-49 349.25,-79.5"/>
<text text-anchor="start" x="212.25" y="-66" font-family="Helvetica,sans-Serif" font-size="10.00">xeno_rat_server.Forms.Hvnc.</text>
<text text-anchor="middle" x="276.75" y="-54.75" font-family="Helvetica,sans-Serif" font-size="10.00">InitializeComponent</text>
</a>
</g>
</g>
<!-- Node2&#45;&gt;Node3 -->
<g id="edge2_Node000002_Node000003" class="edge">
<title>Node2&#45;&gt;Node3</title>
<g id="a_edge2_Node000002_Node000003"><a xlink:title=" ">
<path fill="none" stroke="#63b8ff" d="M399.37,-94.79C379.91,-89.9 359.09,-84.68 340.27,-79.95"/>
<polygon fill="#63b8ff" stroke="#63b8ff" points="398.31,-98.13 408.86,-97.18 400.02,-91.35 398.31,-98.13"/>
</a>
</g>
</g>
<!-- Node4 -->
<g id="Node000004" class="node">
<title>Node4</title>
<g id="a_Node000004"><a xlink:href="classxeno__rat__server_1_1_forms_1_1_hvnc.html#a8209e6a5de9c8c13ac4acff1fea18283" target="_top" xlink:title=" ">
<polygon fill="white" stroke="#666666" points="168.25,-73.88 0,-73.88 0,-54.62 168.25,-54.62 168.25,-73.88"/>
<text text-anchor="middle" x="84.12" y="-60.38" font-family="Helvetica,sans-Serif" font-size="10.00">xeno_rat_server.Forms.Hvnc.Hvnc</text>
</a>
</g>
</g>
<!-- Node3&#45;&gt;Node4 -->
<g id="edge3_Node000003_Node000004" class="edge">
<title>Node3&#45;&gt;Node4</title>
<g id="a_edge3_Node000003_Node000004"><a xlink:title=" ">
<path fill="none" stroke="#63b8ff" d="M192.5,-64.25C184.61,-64.25 176.6,-64.25 168.71,-64.25"/>
<polygon fill="#63b8ff" stroke="#63b8ff" points="192.44,-67.75 202.44,-64.25 192.44,-60.75 192.44,-67.75"/>
</a>
</g>
</g>
<!-- Node5&#45;&gt;Node3 -->
<g id="edge5_Node000005_Node000003" class="edge">
<title>Node5&#45;&gt;Node3</title>
<g id="a_edge5_Node000005_Node000003"><a xlink:title=" ">
<path fill="none" stroke="#63b8ff" d="M373.61,-64.25C365.53,-64.25 357.47,-64.25 349.64,-64.25"/>
<polygon fill="#63b8ff" stroke="#63b8ff" points="373.5,-67.75 383.5,-64.25 373.5,-60.75 373.5,-67.75"/>
</a>
</g>
</g>
<!-- Node6&#45;&gt;Node3 -->
<g id="edge7_Node000006_Node000003" class="edge">
<title>Node6&#45;&gt;Node3</title>
<g id="a_edge7_Node000006_Node000003"><a xlink:title=" ">
<path fill="none" stroke="#63b8ff" d="M399.37,-33.71C379.91,-38.6 359.09,-43.82 340.27,-48.55"/>
<polygon fill="#63b8ff" stroke="#63b8ff" points="400.02,-37.15 408.86,-31.32 398.31,-30.37 400.02,-37.15"/>
</a>
</g>
</g>
</g>
</svg>
