<?xml version="1.0" encoding="UTF-8" standalone="no"?>
<!DOCTYPE svg PUBLIC "-//W3C//DTD SVG 1.1//EN"
 "http://www.w3.org/Graphics/SVG/1.1/DTD/svg11.dtd">
<!-- Generated by graphviz version 10.0.1 (20240210.2158)
 -->
<!-- Title: NAudio.Wave.AsioOut.Stop Pages: 1 -->
<svg width="656pt" height="39pt"
 viewBox="0.00 0.00 656.25 38.50" xmlns="http://www.w3.org/2000/svg" xmlns:xlink="http://www.w3.org/1999/xlink">
<g id="graph0" class="graph" transform="scale(1 1) rotate(0) translate(4 34.5)">
<title>NAudio.Wave.AsioOut.Stop</title>
<!-- Node1 -->
<g id="Node000001" class="node">
<title>Node1</title>
<g id="a_Node000001"><a xlink:title="Stops the playback and resets the playback state to Stopped.">
<polygon fill="#999999" stroke="#666666" points="648.25,-24.88 510.75,-24.88 510.75,-5.63 648.25,-5.63 648.25,-24.88"/>
<text text-anchor="middle" x="579.5" y="-11.38" font-family="Helvetica,sans-Serif" font-size="10.00">NAudio.Wave.AsioOut.Stop</text>
</a>
</g>
</g>
<!-- Node2 -->
<g id="Node000002" class="node">
<title>Node2</title>
<g id="a_Node000002"><a xlink:href="class_n_audio_1_1_wave_1_1_asio_out.html#a8338462283585b521b2c37519777b62f" target="_top" xlink:title="Updates the buffer with input and output channels for audio processing.">
<polygon fill="white" stroke="#666666" points="474.75,-30.5 333.5,-30.5 333.5,0 474.75,0 474.75,-30.5"/>
<text text-anchor="start" x="341.5" y="-17" font-family="Helvetica,sans-Serif" font-size="10.00">NAudio.Wave.AsioOut.driver</text>
<text text-anchor="middle" x="404.12" y="-5.75" font-family="Helvetica,sans-Serif" font-size="10.00">_BufferUpdate</text>
</a>
</g>
</g>
<!-- Node1&#45;&gt;Node2 -->
<g id="edge1_Node000001_Node000002" class="edge">
<title>Node1&#45;&gt;Node2</title>
<g id="a_edge1_Node000001_Node000002"><a xlink:title=" ">
<path fill="none" stroke="#63b8ff" d="M498.96,-15.25C491.04,-15.25 483.05,-15.25 475.24,-15.25"/>
<polygon fill="#63b8ff" stroke="#63b8ff" points="498.96,-18.75 508.96,-15.25 498.96,-11.75 498.96,-18.75"/>
</a>
</g>
</g>
<!-- Node3 -->
<g id="Node000003" class="node">
<title>Node3</title>
<g id="a_Node000003"><a xlink:href="class_n_audio_1_1_wave_1_1_asio_out.html#a27922dfd8af065caf7a2a01d0c139d5f" target="_top" xlink:title="Initializes the record and playback with the specified wave provider, record channels,...">
<polygon fill="white" stroke="#666666" points="297.5,-30.5 166.75,-30.5 166.75,0 297.5,0 297.5,-30.5"/>
<text text-anchor="start" x="174.75" y="-17" font-family="Helvetica,sans-Serif" font-size="10.00">NAudio.Wave.AsioOut.Init</text>
<text text-anchor="middle" x="232.12" y="-5.75" font-family="Helvetica,sans-Serif" font-size="10.00">RecordAndPlayback</text>
</a>
</g>
</g>
<!-- Node2&#45;&gt;Node3 -->
<g id="edge2_Node000002_Node000003" class="edge">
<title>Node2&#45;&gt;Node3</title>
<g id="a_edge2_Node000002_Node000003"><a xlink:title=" ">
<path fill="none" stroke="#63b8ff" d="M322.03,-15.25C313.88,-15.25 305.68,-15.25 297.73,-15.25"/>
<polygon fill="#63b8ff" stroke="#63b8ff" points="321.98,-18.75 331.98,-15.25 321.98,-11.75 321.98,-18.75"/>
</a>
</g>
</g>
<!-- Node4 -->
<g id="Node000004" class="node">
<title>Node4</title>
<g id="a_Node000004"><a xlink:href="class_n_audio_1_1_wave_1_1_asio_out.html#a9cb17c8419ec5fabc3bfe982974dbf59" target="_top" xlink:title="Initializes the recording and playback with the specified waveProvider .">
<polygon fill="white" stroke="#666666" points="130.75,-24.88 0,-24.88 0,-5.63 130.75,-5.63 130.75,-24.88"/>
<text text-anchor="middle" x="65.38" y="-11.38" font-family="Helvetica,sans-Serif" font-size="10.00">NAudio.Wave.AsioOut.Init</text>
</a>
</g>
</g>
<!-- Node3&#45;&gt;Node4 -->
<g id="edge3_Node000003_Node000004" class="edge">
<title>Node3&#45;&gt;Node4</title>
<g id="a_edge3_Node000003_Node000004"><a xlink:title=" ">
<path fill="none" stroke="#63b8ff" d="M155.19,-15.25C147.14,-15.25 139.01,-15.25 131.1,-15.25"/>
<polygon fill="#63b8ff" stroke="#63b8ff" points="154.97,-18.75 164.97,-15.25 154.97,-11.75 154.97,-18.75"/>
</a>
</g>
</g>
</g>
</svg>
