<?xml version="1.0" encoding="UTF-8" standalone="no"?>
<!DOCTYPE svg PUBLIC "-//W3C//DTD SVG 1.1//EN"
 "http://www.w3.org/Graphics/SVG/1.1/DTD/svg11.dtd">
<!-- Generated by graphviz version 10.0.1 (20240210.2158)
 -->
<!-- Title: NAudio.MediaFoundation.MediaFoundationTransform.EndStreamAndDrain Pages: 1 -->
<svg width="677pt" height="333pt"
 viewBox="0.00 0.00 677.00 332.50" xmlns="http://www.w3.org/2000/svg" xmlns:xlink="http://www.w3.org/1999/xlink">
<g id="graph0" class="graph" transform="scale(1 1) rotate(0) translate(4 328.5)">
<title>NAudio.MediaFoundation.MediaFoundationTransform.EndStreamAndDrain</title>
<!-- Node1 -->
<g id="Node000001" class="node">
<title>Node1</title>
<g id="a_Node000001"><a xlink:title="Ends the stream and drains the transform.">
<polygon fill="#999999" stroke="#666666" points="200.5,-201.5 0,-201.5 0,-171 200.5,-171 200.5,-201.5"/>
<text text-anchor="start" x="8" y="-188" font-family="Helvetica,sans-Serif" font-size="10.00">NAudio.MediaFoundation.Media</text>
<text text-anchor="middle" x="100.25" y="-176.75" font-family="Helvetica,sans-Serif" font-size="10.00">FoundationTransform.EndStreamAndDrain</text>
</a>
</g>
</g>
<!-- Node2 -->
<g id="Node000002" class="node">
<title>Node2</title>
<g id="a_Node000002"><a xlink:href="interface_n_audio_1_1_media_foundation_1_1_i_m_f_transform.html#a3a72ff2388586a9855c48aedc86acf62" target="_top" xlink:title="Sends a message to the Media Foundation transform (MFT).">
<polygon fill="white" stroke="#666666" points="433.62,-226.5 240.62,-226.5 240.62,-196 433.62,-196 433.62,-226.5"/>
<text text-anchor="start" x="248.62" y="-213" font-family="Helvetica,sans-Serif" font-size="10.00">NAudio.MediaFoundation.IMFTransform.</text>
<text text-anchor="middle" x="337.12" y="-201.75" font-family="Helvetica,sans-Serif" font-size="10.00">ProcessMessage</text>
</a>
</g>
</g>
<!-- Node1&#45;&gt;Node2 -->
<g id="edge1_Node000001_Node000002" class="edge">
<title>Node1&#45;&gt;Node2</title>
<g id="a_edge1_Node000001_Node000002"><a xlink:title=" ">
<path fill="none" stroke="#63b8ff" d="M200.86,-196.85C210.19,-197.85 219.68,-198.86 229.08,-199.86"/>
<polygon fill="#63b8ff" stroke="#63b8ff" points="228.66,-203.33 238.97,-200.91 229.4,-196.37 228.66,-203.33"/>
</a>
</g>
</g>
<!-- Node3 -->
<g id="Node000003" class="node">
<title>Node3</title>
<g id="a_Node000003"><a xlink:href="class_n_audio_1_1_media_foundation_1_1_media_foundation_transform.html#adf0d8d3679e677e3ea3b64dbef65b195" target="_top" xlink:title="Reads data from the transform and returns the length of the output buffer.">
<polygon fill="white" stroke="#666666" points="437.75,-177.5 236.5,-177.5 236.5,-147 437.75,-147 437.75,-177.5"/>
<text text-anchor="start" x="244.5" y="-164" font-family="Helvetica,sans-Serif" font-size="10.00">NAudio.MediaFoundation.Media</text>
<text text-anchor="middle" x="337.12" y="-152.75" font-family="Helvetica,sans-Serif" font-size="10.00">FoundationTransform.ReadFromTransform</text>
</a>
</g>
</g>
<!-- Node1&#45;&gt;Node3 -->
<g id="edge2_Node000001_Node000003" class="edge">
<title>Node1&#45;&gt;Node3</title>
<g id="a_edge2_Node000001_Node000003"><a xlink:title=" ">
<path fill="none" stroke="#63b8ff" d="M200.86,-176.07C208.85,-175.26 216.95,-174.43 225.01,-173.6"/>
<polygon fill="#63b8ff" stroke="#63b8ff" points="225.26,-177.1 234.86,-172.6 224.55,-170.13 225.26,-177.1"/>
</a>
</g>
</g>
<!-- Node4 -->
<g id="Node000004" class="node">
<title>Node4</title>
<g id="a_Node000004"><a xlink:href="class_n_audio_1_1_media_foundation_1_1_media_foundation_transform.html#a6db3bcdd706d2be46cda93d7be46e3cc" target="_top" xlink:title="Converts the given number of bytes to the corresponding position in nanoseconds based on the provided...">
<polygon fill="white" stroke="#666666" points="669,-324.5 473.75,-324.5 473.75,-294 669,-294 669,-324.5"/>
<text text-anchor="start" x="481.75" y="-311" font-family="Helvetica,sans-Serif" font-size="10.00">NAudio.MediaFoundation.Media</text>
<text text-anchor="middle" x="571.38" y="-299.75" font-family="Helvetica,sans-Serif" font-size="10.00">FoundationTransform.BytesToNsPosition</text>
</a>
</g>
</g>
<!-- Node3&#45;&gt;Node4 -->
<g id="edge3_Node000003_Node000004" class="edge">
<title>Node3&#45;&gt;Node4</title>
<g id="a_edge3_Node000003_Node000004"><a xlink:title=" ">
<path fill="none" stroke="#63b8ff" d="M424.65,-177.95C429.35,-180.6 433.77,-183.68 437.75,-187.25 472,-217.94 439.62,-253.44 473.75,-284.25 475,-285.37 476.29,-286.45 477.62,-287.48"/>
<polygon fill="#63b8ff" stroke="#63b8ff" points="475.36,-290.18 485.63,-292.77 479.21,-284.34 475.36,-290.18"/>
</a>
</g>
</g>
<!-- Node5 -->
<g id="Node000005" class="node">
<title>Node5</title>
<g id="a_Node000005"><a xlink:href="class_n_audio_1_1_media_foundation_1_1_media_foundation_api.html#a10e796baf1844183c986b2c88397228a" target="_top" xlink:title="Creates a memory buffer of the specified size and returns it.">
<polygon fill="white" stroke="#666666" points="657.38,-275.5 485.38,-275.5 485.38,-245 657.38,-245 657.38,-275.5"/>
<text text-anchor="start" x="493.38" y="-262" font-family="Helvetica,sans-Serif" font-size="10.00">NAudio.MediaFoundation.Media</text>
<text text-anchor="middle" x="571.38" y="-250.75" font-family="Helvetica,sans-Serif" font-size="10.00">FoundationApi.CreateMemoryBuffer</text>
</a>
</g>
</g>
<!-- Node3&#45;&gt;Node5 -->
<g id="edge4_Node000003_Node000005" class="edge">
<title>Node3&#45;&gt;Node5</title>
<g id="a_edge4_Node000003_Node000005"><a xlink:title=" ">
<path fill="none" stroke="#63b8ff" d="M420.3,-177.92C426.43,-180.56 432.33,-183.65 437.75,-187.25 459.96,-202.01 451.6,-220.41 473.75,-235.25 476.14,-236.85 478.63,-238.35 481.2,-239.76"/>
<polygon fill="#63b8ff" stroke="#63b8ff" points="479.52,-242.83 490.04,-244.05 482.58,-236.54 479.52,-242.83"/>
</a>
</g>
</g>
<!-- Node6 -->
<g id="Node000006" class="node">
<title>Node6</title>
<g id="a_Node000006"><a xlink:href="class_n_audio_1_1_media_foundation_1_1_media_foundation_api.html#acf45f8cc1d8dbc17ee152df0c7ffef34" target="_top" xlink:title="Creates a new Media Foundation sample.">
<polygon fill="white" stroke="#666666" points="648.75,-226.5 494,-226.5 494,-196 648.75,-196 648.75,-226.5"/>
<text text-anchor="start" x="502" y="-213" font-family="Helvetica,sans-Serif" font-size="10.00">NAudio.MediaFoundation.Media</text>
<text text-anchor="middle" x="571.38" y="-201.75" font-family="Helvetica,sans-Serif" font-size="10.00">FoundationApi.CreateSample</text>
</a>
</g>
</g>
<!-- Node3&#45;&gt;Node6 -->
<g id="edge5_Node000003_Node000006" class="edge">
<title>Node3&#45;&gt;Node6</title>
<g id="a_edge5_Node000003_Node000006"><a xlink:title=" ">
<path fill="none" stroke="#63b8ff" d="M412.57,-177.96C435.59,-182.81 461.13,-188.2 484.84,-193.2"/>
<polygon fill="#63b8ff" stroke="#63b8ff" points="483.97,-196.6 494.47,-195.24 485.41,-189.75 483.97,-196.6"/>
</a>
</g>
</g>
<!-- Node7 -->
<g id="Node000007" class="node">
<title>Node7</title>
<g id="a_Node000007"><a xlink:href="class_n_audio_1_1_utils_1_1_buffer_helpers.html#a6fcf5a452e6779e71f5dfa9b51a74f1e" target="_top" xlink:title="Ensures that the input buffer has at least the specified number of samples and returns the buffer.">
<polygon fill="white" stroke="#666666" points="640.12,-177.5 502.62,-177.5 502.62,-147 640.12,-147 640.12,-177.5"/>
<text text-anchor="start" x="510.62" y="-164" font-family="Helvetica,sans-Serif" font-size="10.00">NAudio.Utils.BufferHelpers.</text>
<text text-anchor="middle" x="571.38" y="-152.75" font-family="Helvetica,sans-Serif" font-size="10.00">Ensure</text>
</a>
</g>
</g>
<!-- Node3&#45;&gt;Node7 -->
<g id="edge6_Node000003_Node000007" class="edge">
<title>Node3&#45;&gt;Node7</title>
<g id="a_edge6_Node000003_Node000007"><a xlink:title=" ">
<path fill="none" stroke="#63b8ff" d="M437.97,-162.25C455.82,-162.25 474.19,-162.25 491.36,-162.25"/>
<polygon fill="#63b8ff" stroke="#63b8ff" points="490.93,-165.75 500.93,-162.25 490.93,-158.75 490.93,-165.75"/>
</a>
</g>
</g>
<!-- Node8 -->
<g id="Node000008" class="node">
<title>Node8</title>
<g id="a_Node000008"><a xlink:href="interface_n_audio_1_1_media_foundation_1_1_i_m_f_media_buffer.html#a1af64854b06c4a042646213b10832302" target="_top" xlink:title="Gives the caller access to the memory in the buffer.">
<polygon fill="white" stroke="#666666" points="657.38,-128.5 485.38,-128.5 485.38,-98 657.38,-98 657.38,-128.5"/>
<text text-anchor="start" x="493.38" y="-115" font-family="Helvetica,sans-Serif" font-size="10.00">NAudio.MediaFoundation.IMFMedia</text>
<text text-anchor="middle" x="571.38" y="-103.75" font-family="Helvetica,sans-Serif" font-size="10.00">Buffer.Lock</text>
</a>
</g>
</g>
<!-- Node3&#45;&gt;Node8 -->
<g id="edge7_Node000003_Node000008" class="edge">
<title>Node3&#45;&gt;Node8</title>
<g id="a_edge7_Node000003_Node000008"><a xlink:title=" ">
<path fill="none" stroke="#63b8ff" d="M412.57,-146.54C435.59,-141.69 461.13,-136.3 484.84,-131.3"/>
<polygon fill="#63b8ff" stroke="#63b8ff" points="485.41,-134.75 494.47,-129.26 483.97,-127.9 485.41,-134.75"/>
</a>
</g>
</g>
<!-- Node9 -->
<g id="Node000009" class="node">
<title>Node9</title>
<g id="a_Node000009"><a xlink:href="interface_n_audio_1_1_media_foundation_1_1_i_m_f_transform.html#ae38bc27a19d67ebc4d8cc275bfe2de3f" target="_top" xlink:title="Generates output from the current input data.">
<polygon fill="white" stroke="#666666" points="667.88,-79.5 474.88,-79.5 474.88,-49 667.88,-49 667.88,-79.5"/>
<text text-anchor="start" x="482.88" y="-66" font-family="Helvetica,sans-Serif" font-size="10.00">NAudio.MediaFoundation.IMFTransform.</text>
<text text-anchor="middle" x="571.38" y="-54.75" font-family="Helvetica,sans-Serif" font-size="10.00">ProcessOutput</text>
</a>
</g>
</g>
<!-- Node3&#45;&gt;Node9 -->
<g id="edge8_Node000003_Node000009" class="edge">
<title>Node3&#45;&gt;Node9</title>
<g id="a_edge8_Node000003_Node000009"><a xlink:title=" ">
<path fill="none" stroke="#63b8ff" d="M362.75,-146.64C389.28,-130.4 433.17,-105.15 473.75,-89.25 479.11,-87.15 484.7,-85.17 490.38,-83.33"/>
<polygon fill="#63b8ff" stroke="#63b8ff" points="491.4,-86.67 499.92,-80.38 489.33,-79.99 491.4,-86.67"/>
</a>
</g>
</g>
<!-- Node10 -->
<g id="Node000010" class="node">
<title>Node10</title>
<g id="a_Node000010"><a xlink:href="interface_n_audio_1_1_media_foundation_1_1_i_m_f_media_buffer.html#a0d299795ca9afd20128108c9d6522557" target="_top" xlink:title="Unlocks a buffer that was previously locked.">
<polygon fill="white" stroke="#666666" points="657.38,-30.5 485.38,-30.5 485.38,0 657.38,0 657.38,-30.5"/>
<text text-anchor="start" x="493.38" y="-17" font-family="Helvetica,sans-Serif" font-size="10.00">NAudio.MediaFoundation.IMFMedia</text>
<text text-anchor="middle" x="571.38" y="-5.75" font-family="Helvetica,sans-Serif" font-size="10.00">Buffer.Unlock</text>
</a>
</g>
</g>
<!-- Node3&#45;&gt;Node10 -->
<g id="edge9_Node000003_Node000010" class="edge">
<title>Node3&#45;&gt;Node10</title>
<g id="a_edge9_Node000003_Node000010"><a xlink:title=" ">
<path fill="none" stroke="#63b8ff" d="M351,-146.55C373.26,-120.45 421.57,-68.27 473.75,-40.25 477.17,-38.41 480.74,-36.7 484.4,-35.12"/>
<polygon fill="#63b8ff" stroke="#63b8ff" points="485.48,-38.45 493.49,-31.51 482.9,-31.94 485.48,-38.45"/>
</a>
</g>
</g>
</g>
</svg>
