<?xml version="1.0" encoding="UTF-8" standalone="no"?>
<!DOCTYPE svg PUBLIC "-//W3C//DTD SVG 1.1//EN"
 "http://www.w3.org/Graphics/SVG/1.1/DTD/svg11.dtd">
<!-- Generated by graphviz version 10.0.1 (20240210.2158)
 -->
<!-- Title: xeno_rat_server.Forms.AudioPlayer.AddAudio Pages: 1 -->
<svg width="501pt" height="39pt"
 viewBox="0.00 0.00 500.75 38.50" xmlns="http://www.w3.org/2000/svg" xmlns:xlink="http://www.w3.org/1999/xlink">
<g id="graph0" class="graph" transform="scale(1 1) rotate(0) translate(4 34.5)">
<title>xeno_rat_server.Forms.AudioPlayer.AddAudio</title>
<!-- Node1 -->
<g id="Node000001" class="node">
<title>Node1</title>
<g id="a_Node000001"><a xlink:title="Adds audio samples to the wave provider.">
<polygon fill="#999999" stroke="#666666" points="143.5,-30.5 0,-30.5 0,0 143.5,0 143.5,-30.5"/>
<text text-anchor="start" x="8" y="-17" font-family="Helvetica,sans-Serif" font-size="10.00">xeno_rat_server.Forms.Audio</text>
<text text-anchor="middle" x="71.75" y="-5.75" font-family="Helvetica,sans-Serif" font-size="10.00">Player.AddAudio</text>
</a>
</g>
</g>
<!-- Node2 -->
<g id="Node000002" class="node">
<title>Node2</title>
<g id="a_Node000002"><a xlink:href="class_n_audio_1_1_wave_1_1_buffered_wave_provider.html#a2f65eef2dec3b49b9f1ce760a940b627" target="_top" xlink:title="Adds the specified samples to the circular buffer.">
<polygon fill="white" stroke="#666666" points="320,-30.5 179.5,-30.5 179.5,0 320,0 320,-30.5"/>
<text text-anchor="start" x="187.5" y="-17" font-family="Helvetica,sans-Serif" font-size="10.00">NAudio.Wave.BufferedWave</text>
<text text-anchor="middle" x="249.75" y="-5.75" font-family="Helvetica,sans-Serif" font-size="10.00">Provider.AddSamples</text>
</a>
</g>
</g>
<!-- Node1&#45;&gt;Node2 -->
<g id="edge1_Node000001_Node000002" class="edge">
<title>Node1&#45;&gt;Node2</title>
<g id="a_edge1_Node000001_Node000002"><a xlink:title=" ">
<path fill="none" stroke="#63b8ff" d="M143.83,-15.25C151.74,-15.25 159.84,-15.25 167.86,-15.25"/>
<polygon fill="#63b8ff" stroke="#63b8ff" points="167.61,-18.75 177.61,-15.25 167.61,-11.75 167.61,-18.75"/>
</a>
</g>
</g>
<!-- Node3 -->
<g id="Node000003" class="node">
<title>Node3</title>
<g id="a_Node000003"><a xlink:href="class_n_audio_1_1_utils_1_1_circular_buffer.html#ae15a838e7d3ebbded66be8eb63a65d2a" target="_top" xlink:title="Writes the specified number of bytes from the input data &#160;array to the internal buffer,...">
<polygon fill="white" stroke="#666666" points="492.75,-30.5 356,-30.5 356,0 492.75,0 492.75,-30.5"/>
<text text-anchor="start" x="364" y="-17" font-family="Helvetica,sans-Serif" font-size="10.00">NAudio.Utils.CircularBuffer.</text>
<text text-anchor="middle" x="424.38" y="-5.75" font-family="Helvetica,sans-Serif" font-size="10.00">Write</text>
</a>
</g>
</g>
<!-- Node2&#45;&gt;Node3 -->
<g id="edge2_Node000002_Node000003" class="edge">
<title>Node2&#45;&gt;Node3</title>
<g id="a_edge2_Node000002_Node000003"><a xlink:title=" ">
<path fill="none" stroke="#63b8ff" d="M320.47,-15.25C328.26,-15.25 336.25,-15.25 344.15,-15.25"/>
<polygon fill="#63b8ff" stroke="#63b8ff" points="344.13,-18.75 354.13,-15.25 344.13,-11.75 344.13,-18.75"/>
</a>
</g>
</g>
</g>
</svg>
