<?xml version="1.0" encoding="UTF-8" standalone="no"?>
<!DOCTYPE svg PUBLIC "-//W3C//DTD SVG 1.1//EN"
 "http://www.w3.org/Graphics/SVG/1.1/DTD/svg11.dtd">
<!-- Generated by graphviz version 10.0.1 (20240210.2158)
 -->
<!-- Title: NAudio.Wave.AiffFileReader.ConvertShort Pages: 1 -->
<svg width="511pt" height="39pt"
 viewBox="0.00 0.00 510.50 38.50" xmlns="http://www.w3.org/2000/svg" xmlns:xlink="http://www.w3.org/1999/xlink">
<g id="graph0" class="graph" transform="scale(1 1) rotate(0) translate(4 34.5)">
<title>NAudio.Wave.AiffFileReader.ConvertShort</title>
<!-- Node1 -->
<g id="Node000001" class="node">
<title>Node1</title>
<g id="a_Node000001"><a xlink:title="Converts a byte array to a short integer and returns the result.">
<polygon fill="#999999" stroke="#666666" points="502.5,-30.5 359,-30.5 359,0 502.5,0 502.5,-30.5"/>
<text text-anchor="start" x="367" y="-17" font-family="Helvetica,sans-Serif" font-size="10.00">NAudio.Wave.AiffFileReader.</text>
<text text-anchor="middle" x="430.75" y="-5.75" font-family="Helvetica,sans-Serif" font-size="10.00">ConvertShort</text>
</a>
</g>
</g>
<!-- Node2 -->
<g id="Node000002" class="node">
<title>Node2</title>
<g id="a_Node000002"><a xlink:href="class_n_audio_1_1_wave_1_1_aiff_file_reader.html#a5eb16b178b9d6e031efe3fe424b77601" target="_top" xlink:title="Reads the AIFF header from the provided stream and extracts the wave format, data chunk position,...">
<polygon fill="white" stroke="#666666" points="323,-30.5 179.5,-30.5 179.5,0 323,0 323,-30.5"/>
<text text-anchor="start" x="187.5" y="-17" font-family="Helvetica,sans-Serif" font-size="10.00">NAudio.Wave.AiffFileReader.</text>
<text text-anchor="middle" x="251.25" y="-5.75" font-family="Helvetica,sans-Serif" font-size="10.00">ReadAiffHeader</text>
</a>
</g>
</g>
<!-- Node1&#45;&gt;Node2 -->
<g id="edge1_Node000001_Node000002" class="edge">
<title>Node1&#45;&gt;Node2</title>
<g id="a_edge1_Node000001_Node000002"><a xlink:title=" ">
<path fill="none" stroke="#63b8ff" d="M347.08,-15.25C339.18,-15.25 331.22,-15.25 323.44,-15.25"/>
<polygon fill="#63b8ff" stroke="#63b8ff" points="347.06,-18.75 357.06,-15.25 347.06,-11.75 347.06,-18.75"/>
</a>
</g>
</g>
<!-- Node3 -->
<g id="Node000003" class="node">
<title>Node3</title>
<g id="a_Node000003"><a xlink:href="class_n_audio_1_1_wave_1_1_aiff_file_reader.html#ae9075221902376de4191d0b4bc9be7e4" target="_top" xlink:title="Creates an Aiff File Reader based on an input stream.">
<polygon fill="white" stroke="#666666" points="143.5,-30.5 0,-30.5 0,0 143.5,0 143.5,-30.5"/>
<text text-anchor="start" x="8" y="-17" font-family="Helvetica,sans-Serif" font-size="10.00">NAudio.Wave.AiffFileReader.</text>
<text text-anchor="middle" x="71.75" y="-5.75" font-family="Helvetica,sans-Serif" font-size="10.00">AiffFileReader</text>
</a>
</g>
</g>
<!-- Node2&#45;&gt;Node3 -->
<g id="edge2_Node000002_Node000003" class="edge">
<title>Node2&#45;&gt;Node3</title>
<g id="a_edge2_Node000002_Node000003"><a xlink:title=" ">
<path fill="none" stroke="#63b8ff" d="M167.58,-15.25C159.68,-15.25 151.72,-15.25 143.94,-15.25"/>
<polygon fill="#63b8ff" stroke="#63b8ff" points="167.56,-18.75 177.56,-15.25 167.56,-11.75 167.56,-18.75"/>
</a>
</g>
</g>
</g>
</svg>
