<?xml version="1.0" encoding="UTF-8" standalone="no"?>
<!DOCTYPE svg PUBLIC "-//W3C//DTD SVG 1.1//EN"
 "http://www.w3.org/Graphics/SVG/1.1/DTD/svg11.dtd">
<!-- Generated by graphviz version 10.0.1 (20240210.2158)
 -->
<!-- Title: xeno_rat_server.Forms.WebCam.SetQuality Pages: 1 -->
<svg width="918pt" height="210pt"
 viewBox="0.00 0.00 917.50 209.50" xmlns="http://www.w3.org/2000/svg" xmlns:xlink="http://www.w3.org/1999/xlink">
<g id="graph0" class="graph" transform="scale(1 1) rotate(0) translate(4 205.5)">
<title>xeno_rat_server.Forms.WebCam.SetQuality</title>
<!-- Node1 -->
<g id="Node000001" class="node">
<title>Node1</title>
<g id="a_Node000001"><a xlink:title="Sets the quality of the client and sends the quality value to the server.">
<polygon fill="#999999" stroke="#666666" points="138.25,-150.5 0,-150.5 0,-120 138.25,-120 138.25,-150.5"/>
<text text-anchor="start" x="8" y="-137" font-family="Helvetica,sans-Serif" font-size="10.00">xeno_rat_server.Forms.Web</text>
<text text-anchor="middle" x="69.12" y="-125.75" font-family="Helvetica,sans-Serif" font-size="10.00">Cam.SetQuality</text>
</a>
</g>
</g>
<!-- Node2 -->
<g id="Node000002" class="node">
<title>Node2</title>
<g id="a_Node000002"><a xlink:href="classxeno__rat__server_1_1_socket_handler.html#a7d019c5e4cbd0138d155156c7a7c5a8f" target="_top" xlink:title="Converts an integer to a byte array.">
<polygon fill="white" stroke="#666666" points="701.5,-178.5 546.75,-178.5 546.75,-148 701.5,-148 701.5,-178.5"/>
<text text-anchor="start" x="554.75" y="-165" font-family="Helvetica,sans-Serif" font-size="10.00">xeno_rat_server.SocketHandler.</text>
<text text-anchor="middle" x="624.12" y="-153.75" font-family="Helvetica,sans-Serif" font-size="10.00">IntToBytes</text>
</a>
</g>
</g>
<!-- Node1&#45;&gt;Node2 -->
<g id="edge1_Node000001_Node000002" class="edge">
<title>Node1&#45;&gt;Node2</title>
<g id="a_edge1_Node000001_Node000002"><a xlink:title=" ">
<path fill="none" stroke="#63b8ff" d="M138.49,-138.71C238.55,-143.78 424.91,-153.21 535.09,-158.79"/>
<polygon fill="#63b8ff" stroke="#63b8ff" points="534.82,-162.28 544.99,-159.29 535.18,-155.29 534.82,-162.28"/>
</a>
</g>
</g>
<!-- Node3 -->
<g id="Node000003" class="node">
<title>Node3</title>
<g id="a_Node000003"><a xlink:href="classxeno__rat__server_1_1_node.html#a816e267eb31862d38c21e5faaae3061d" target="_top" xlink:title="Sends the provided data asynchronously and returns a boolean indicating the success of the operation.">
<polygon fill="white" stroke="#666666" points="311,-122.5 174.25,-122.5 174.25,-92 311,-92 311,-122.5"/>
<text text-anchor="start" x="182.25" y="-109" font-family="Helvetica,sans-Serif" font-size="10.00">xeno_rat_server.Node.Send</text>
<text text-anchor="middle" x="242.62" y="-97.75" font-family="Helvetica,sans-Serif" font-size="10.00">Async</text>
</a>
</g>
</g>
<!-- Node1&#45;&gt;Node3 -->
<g id="edge2_Node000001_Node000003" class="edge">
<title>Node1&#45;&gt;Node3</title>
<g id="a_edge2_Node000001_Node000003"><a xlink:title=" ">
<path fill="none" stroke="#63b8ff" d="M138.4,-124.1C146.34,-122.81 154.48,-121.48 162.55,-120.16"/>
<polygon fill="#63b8ff" stroke="#63b8ff" points="163.07,-123.62 172.37,-118.56 161.94,-116.71 163.07,-123.62"/>
</a>
</g>
</g>
<!-- Node4 -->
<g id="Node000004" class="node">
<title>Node4</title>
<g id="a_Node000004"><a xlink:href="classxeno__rat__server_1_1_node.html#a8814edd98b6463f49812be32d5928763" target="_top" xlink:title="Sets the isDisposed flag to true and disconnects the socket, disposes resources, and triggers the OnD...">
<polygon fill="white" stroke="#666666" points="510.75,-116.88 347,-116.88 347,-97.62 510.75,-97.62 510.75,-116.88"/>
<text text-anchor="middle" x="428.88" y="-103.38" font-family="Helvetica,sans-Serif" font-size="10.00">xeno_rat_server.Node.Disconnect</text>
</a>
</g>
</g>
<!-- Node3&#45;&gt;Node4 -->
<g id="edge3_Node000003_Node000004" class="edge">
<title>Node3&#45;&gt;Node4</title>
<g id="a_edge3_Node000003_Node000004"><a xlink:title=" ">
<path fill="none" stroke="#63b8ff" d="M311.45,-107.25C319.26,-107.25 327.32,-107.25 335.39,-107.25"/>
<polygon fill="#63b8ff" stroke="#63b8ff" points="335.25,-110.75 345.25,-107.25 335.25,-103.75 335.25,-110.75"/>
</a>
</g>
</g>
<!-- Node5 -->
<g id="Node000005" class="node">
<title>Node5</title>
<g id="a_Node000005"><a xlink:href="classxeno__rat__server_1_1_socket_handler.html#a85ca8385d023521cdb86ff8ae688adee" target="_top" xlink:title="Sends the provided data asynchronously over the socket.">
<polygon fill="white" stroke="#666666" points="506.25,-79.5 351.5,-79.5 351.5,-49 506.25,-49 506.25,-79.5"/>
<text text-anchor="start" x="359.5" y="-66" font-family="Helvetica,sans-Serif" font-size="10.00">xeno_rat_server.SocketHandler.</text>
<text text-anchor="middle" x="428.88" y="-54.75" font-family="Helvetica,sans-Serif" font-size="10.00">SendAsync</text>
</a>
</g>
</g>
<!-- Node3&#45;&gt;Node5 -->
<g id="edge5_Node000003_Node000005" class="edge">
<title>Node3&#45;&gt;Node5</title>
<g id="a_edge5_Node000003_Node000005"><a xlink:title=" ">
<path fill="none" stroke="#63b8ff" d="M310.93,-91.54C323.41,-88.63 336.55,-85.56 349.33,-82.58"/>
<polygon fill="#63b8ff" stroke="#63b8ff" points="350.03,-86.01 358.97,-80.33 348.44,-79.19 350.03,-86.01"/>
</a>
</g>
</g>
<!-- Node4&#45;&gt;Node4 -->
<g id="edge4_Node000004_Node000004" class="edge">
<title>Node4&#45;&gt;Node4</title>
<g id="a_edge4_Node000004_Node000004"><a xlink:title=" ">
<path fill="none" stroke="#63b8ff" d="M399.72,-117.16C386.42,-125.77 396.14,-134.88 428.88,-134.88 447.8,-134.88 459.04,-131.83 462.58,-127.6"/>
<polygon fill="#63b8ff" stroke="#63b8ff" points="465.84,-126.32 458.64,-118.55 459.42,-129.12 465.84,-126.32"/>
</a>
</g>
</g>
<!-- Node5&#45;&gt;Node2 -->
<g id="edge13_Node000005_Node000002" class="edge">
<title>Node5&#45;&gt;Node2</title>
<g id="a_edge13_Node000005_Node000002"><a xlink:title=" ">
<path fill="none" stroke="#63b8ff" d="M496.03,-79.86C501.21,-82.27 506.2,-85.05 510.75,-88.25 532.86,-103.79 524.96,-121.27 546.75,-137.25 549.21,-139.05 551.8,-140.73 554.48,-142.31"/>
<polygon fill="#63b8ff" stroke="#63b8ff" points="552.7,-145.33 563.19,-146.83 555.93,-139.11 552.7,-145.33"/>
</a>
</g>
</g>
<!-- Node6 -->
<g id="Node000006" class="node">
<title>Node6</title>
<g id="a_Node000006"><a xlink:href="classxeno__rat__server_1_1_compression.html#a0f3f31a2fe34d92bf04538b2fdf529e0" target="_top" xlink:title="Compresses the input buffer using the LZNT1 compression format and returns the compressed data.">
<polygon fill="white" stroke="#666666" points="698.5,-128.5 549.75,-128.5 549.75,-98 698.5,-98 698.5,-128.5"/>
<text text-anchor="start" x="557.75" y="-115" font-family="Helvetica,sans-Serif" font-size="10.00">xeno_rat_server.Compression.</text>
<text text-anchor="middle" x="624.12" y="-103.75" font-family="Helvetica,sans-Serif" font-size="10.00">Compress</text>
</a>
</g>
</g>
<!-- Node5&#45;&gt;Node6 -->
<g id="edge6_Node000005_Node000006" class="edge">
<title>Node5&#45;&gt;Node6</title>
<g id="a_edge6_Node000005_Node000006"><a xlink:title=" ">
<path fill="none" stroke="#63b8ff" d="M491.82,-79.96C510.37,-84.66 530.88,-89.86 550.08,-94.73"/>
<polygon fill="#63b8ff" stroke="#63b8ff" points="549.18,-98.11 559.73,-97.18 550.9,-91.33 549.18,-98.11"/>
</a>
</g>
</g>
<!-- Node11 -->
<g id="Node000011" class="node">
<title>Node11</title>
<g id="a_Node000011"><a xlink:href="classxeno__rat__server_1_1_socket_handler.html#a4f2e993b63cf1bba877781c9be2ed496" target="_top" xlink:title="Concatenates two byte arrays and returns the result.">
<polygon fill="white" stroke="#666666" points="701.5,-79.5 546.75,-79.5 546.75,-49 701.5,-49 701.5,-79.5"/>
<text text-anchor="start" x="554.75" y="-66" font-family="Helvetica,sans-Serif" font-size="10.00">xeno_rat_server.SocketHandler.</text>
<text text-anchor="middle" x="624.12" y="-54.75" font-family="Helvetica,sans-Serif" font-size="10.00">Concat</text>
</a>
</g>
</g>
<!-- Node5&#45;&gt;Node11 -->
<g id="edge11_Node000005_Node000011" class="edge">
<title>Node5&#45;&gt;Node11</title>
<g id="a_edge11_Node000005_Node000011"><a xlink:title=" ">
<path fill="none" stroke="#63b8ff" d="M506.53,-64.25C516,-64.25 525.73,-64.25 535.35,-64.25"/>
<polygon fill="#63b8ff" stroke="#63b8ff" points="535.05,-67.75 545.05,-64.25 535.05,-60.75 535.05,-67.75"/>
</a>
</g>
</g>
<!-- Node12 -->
<g id="Node000012" class="node">
<title>Node12</title>
<g id="a_Node000012"><a xlink:href="classxeno__rat__server_1_1_encryption.html#a0fafecaba804cb57663bdbb4dcc4e93f" target="_top" xlink:title="Encrypts the input data using the provided key and returns the encrypted result.">
<polygon fill="white" stroke="#666666" points="692.88,-30.5 555.38,-30.5 555.38,0 692.88,0 692.88,-30.5"/>
<text text-anchor="start" x="563.38" y="-17" font-family="Helvetica,sans-Serif" font-size="10.00">xeno_rat_server.Encryption.</text>
<text text-anchor="middle" x="624.12" y="-5.75" font-family="Helvetica,sans-Serif" font-size="10.00">Encrypt</text>
</a>
</g>
</g>
<!-- Node5&#45;&gt;Node12 -->
<g id="edge12_Node000005_Node000012" class="edge">
<title>Node5&#45;&gt;Node12</title>
<g id="a_edge12_Node000005_Node000012"><a xlink:title=" ">
<path fill="none" stroke="#63b8ff" d="M491.82,-48.54C510.37,-43.84 530.88,-38.64 550.08,-33.77"/>
<polygon fill="#63b8ff" stroke="#63b8ff" points="550.9,-37.17 559.73,-31.32 549.18,-30.39 550.9,-37.17"/>
</a>
</g>
</g>
<!-- Node7 -->
<g id="Node000007" class="node">
<title>Node7</title>
<g id="a_Node000007"><a xlink:href="classxeno__rat__server_1_1_compression.html#ae86c8cb19fb340173e6b06816907c485" target="_top" xlink:title="Allocates the specified number of bytes in the local heap and returns a pointer to the allocated memo...">
<polygon fill="white" stroke="#666666" points="897.88,-201.5 749.12,-201.5 749.12,-171 897.88,-171 897.88,-201.5"/>
<text text-anchor="start" x="757.12" y="-188" font-family="Helvetica,sans-Serif" font-size="10.00">xeno_rat_server.Compression.</text>
<text text-anchor="middle" x="823.5" y="-176.75" font-family="Helvetica,sans-Serif" font-size="10.00">LocalAlloc</text>
</a>
</g>
</g>
<!-- Node6&#45;&gt;Node7 -->
<g id="edge7_Node000006_Node000007" class="edge">
<title>Node6&#45;&gt;Node7</title>
<g id="a_edge7_Node000006_Node000007"><a xlink:title=" ">
<path fill="none" stroke="#63b8ff" d="M676.28,-128.91C684.83,-132.03 693.51,-135.5 701.5,-139.25 718.48,-147.21 720.36,-153.65 737.5,-161.25 741.97,-163.23 746.64,-165.11 751.4,-166.87"/>
<polygon fill="#63b8ff" stroke="#63b8ff" points="749.87,-170.04 760.46,-170.06 752.18,-163.44 749.87,-170.04"/>
</a>
</g>
</g>
<!-- Node8 -->
<g id="Node000008" class="node">
<title>Node8</title>
<g id="a_Node000008"><a xlink:href="classxeno__rat__server_1_1_compression.html#ab527e0a594d96bbaa1a4b1541888aa74" target="_top" xlink:title="Frees the memory block allocated by LocalAlloc and LocalReAlloc and invalidates the handle.">
<polygon fill="white" stroke="#666666" points="897.88,-152.5 749.12,-152.5 749.12,-122 897.88,-122 897.88,-152.5"/>
<text text-anchor="start" x="757.12" y="-139" font-family="Helvetica,sans-Serif" font-size="10.00">xeno_rat_server.Compression.</text>
<text text-anchor="middle" x="823.5" y="-127.75" font-family="Helvetica,sans-Serif" font-size="10.00">LocalFree</text>
</a>
</g>
</g>
<!-- Node6&#45;&gt;Node8 -->
<g id="edge8_Node000006_Node000008" class="edge">
<title>Node6&#45;&gt;Node8</title>
<g id="a_edge8_Node000006_Node000008"><a xlink:title=" ">
<path fill="none" stroke="#63b8ff" d="M698.9,-122.22C711.52,-123.76 724.72,-125.36 737.6,-126.93"/>
<polygon fill="#63b8ff" stroke="#63b8ff" points="736.96,-130.37 747.31,-128.11 737.81,-123.43 736.96,-130.37"/>
</a>
</g>
</g>
<!-- Node9 -->
<g id="Node000009" class="node">
<title>Node9</title>
<g id="a_Node000009"><a xlink:href="classxeno__rat__server_1_1_compression.html#a1f9bb20d96d13bdc4d0f90e2b68d4343" target="_top" xlink:title="Compresses the input buffer using the specified compression format and returns the compressed data in...">
<polygon fill="white" stroke="#666666" points="897.88,-103.5 749.12,-103.5 749.12,-73 897.88,-73 897.88,-103.5"/>
<text text-anchor="start" x="757.12" y="-90" font-family="Helvetica,sans-Serif" font-size="10.00">xeno_rat_server.Compression.</text>
<text text-anchor="middle" x="823.5" y="-78.75" font-family="Helvetica,sans-Serif" font-size="10.00">RtlCompressBuffer</text>
</a>
</g>
</g>
<!-- Node6&#45;&gt;Node9 -->
<g id="edge9_Node000006_Node000009" class="edge">
<title>Node6&#45;&gt;Node9</title>
<g id="a_edge9_Node000006_Node000009"><a xlink:title=" ">
<path fill="none" stroke="#63b8ff" d="M698.9,-103.91C711.52,-102.31 724.72,-100.64 737.6,-99"/>
<polygon fill="#63b8ff" stroke="#63b8ff" points="737.83,-102.5 747.31,-97.77 736.95,-95.56 737.83,-102.5"/>
</a>
</g>
</g>
<!-- Node10 -->
<g id="Node000010" class="node">
<title>Node10</title>
<g id="a_Node000010"><a xlink:href="classxeno__rat__server_1_1_compression.html#a5ca090d7b0887e40753bad9800c321e7" target="_top" xlink:title="Retrieves the size of the workspace required for compression.">
<polygon fill="white" stroke="#666666" points="909.5,-54.5 737.5,-54.5 737.5,-24 909.5,-24 909.5,-54.5"/>
<text text-anchor="start" x="745.5" y="-41" font-family="Helvetica,sans-Serif" font-size="10.00">xeno_rat_server.Compression.</text>
<text text-anchor="middle" x="823.5" y="-29.75" font-family="Helvetica,sans-Serif" font-size="10.00">RtlGetCompressionWorkSpaceSize</text>
</a>
</g>
</g>
<!-- Node6&#45;&gt;Node10 -->
<g id="edge10_Node000006_Node000010" class="edge">
<title>Node6&#45;&gt;Node10</title>
<g id="a_edge10_Node000006_Node000010"><a xlink:title=" ">
<path fill="none" stroke="#63b8ff" d="M679.27,-97.57C686.86,-94.78 694.47,-91.66 701.5,-88.25 718.8,-79.85 720.08,-72.39 737.5,-64.25 741.54,-62.36 745.75,-60.58 750.05,-58.91"/>
<polygon fill="#63b8ff" stroke="#63b8ff" points="751.24,-62.2 759.43,-55.49 748.84,-55.63 751.24,-62.2"/>
</a>
</g>
</g>
</g>
</svg>
