<?xml version="1.0" encoding="UTF-8" standalone="no"?>
<!DOCTYPE svg PUBLIC "-//W3C//DTD SVG 1.1//EN"
 "http://www.w3.org/Graphics/SVG/1.1/DTD/svg11.dtd">
<!-- Generated by graphviz version 10.0.1 (20240210.2158)
 -->
<!-- Title: Hidden_handler.Imaging_handler.DrawTopDown Pages: 1 -->
<svg width="811pt" height="382pt"
 viewBox="0.00 0.00 811.00 381.50" xmlns="http://www.w3.org/2000/svg" xmlns:xlink="http://www.w3.org/1999/xlink">
<g id="graph0" class="graph" transform="scale(1 1) rotate(0) translate(4 377.5)">
<title>Hidden_handler.Imaging_handler.DrawTopDown</title>
<!-- Node1 -->
<g id="Node000001" class="node">
<title>Node1</title>
<g id="a_Node000001"><a xlink:title="Draws the windows from top to bottom on the screen.">
<polygon fill="#999999" stroke="#666666" points="120.25,-152.5 0,-152.5 0,-122 120.25,-122 120.25,-152.5"/>
<text text-anchor="start" x="8" y="-139" font-family="Helvetica,sans-Serif" font-size="10.00">Hidden_handler.Imaging</text>
<text text-anchor="middle" x="60.12" y="-127.75" font-family="Helvetica,sans-Serif" font-size="10.00">_handler.DrawTopDown</text>
</a>
</g>
</g>
<!-- Node2 -->
<g id="Node000002" class="node">
<title>Node2</title>
<g id="a_Node000002"><a xlink:href="class_hidden__handler_1_1_imaging__handler.html#ad1ec219b3d1d6eae2f45680a731d7a5e" target="_top" xlink:title="Draws the specified window on the given graphics object using the provided device context.">
<polygon fill="white" stroke="#666666" points="277.25,-177.5 157,-177.5 157,-147 277.25,-147 277.25,-177.5"/>
<text text-anchor="start" x="165" y="-164" font-family="Helvetica,sans-Serif" font-size="10.00">Hidden_handler.Imaging</text>
<text text-anchor="middle" x="217.12" y="-152.75" font-family="Helvetica,sans-Serif" font-size="10.00">_handler.DrawHwnd</text>
</a>
</g>
</g>
<!-- Node1&#45;&gt;Node2 -->
<g id="edge1_Node000001_Node000002" class="edge">
<title>Node1&#45;&gt;Node2</title>
<g id="a_edge1_Node000001_Node000002"><a xlink:title=" ">
<path fill="none" stroke="#63b8ff" d="M120.61,-140.26C129.49,-141.53 138.71,-142.97 147.76,-144.52"/>
<polygon fill="#63b8ff" stroke="#63b8ff" points="147.15,-147.96 157.61,-146.25 148.37,-141.07 147.15,-147.96"/>
</a>
</g>
</g>
<!-- Node14 -->
<g id="Node000014" class="node">
<title>Node14</title>
<g id="a_Node000014"><a xlink:href="class_hidden__handler_1_1_imaging__handler.html#af38e63731e3d6f51a9c6e7f430ecce57" target="_top" xlink:title="Retrieves a handle to the top&#45;level window whose class name and window name match the specified strin...">
<polygon fill="white" stroke="#666666" points="278,-128.5 156.25,-128.5 156.25,-98 278,-98 278,-128.5"/>
<text text-anchor="start" x="164.25" y="-115" font-family="Helvetica,sans-Serif" font-size="10.00">Hidden_handler.Imaging</text>
<text text-anchor="middle" x="217.12" y="-103.75" font-family="Helvetica,sans-Serif" font-size="10.00">_handler.GetTopWindow</text>
</a>
</g>
</g>
<!-- Node1&#45;&gt;Node14 -->
<g id="edge14_Node000001_Node000014" class="edge">
<title>Node1&#45;&gt;Node14</title>
<g id="a_edge14_Node000001_Node000014"><a xlink:title=" ">
<path fill="none" stroke="#63b8ff" d="M120.61,-128.04C128.44,-126.83 136.54,-125.57 144.54,-124.33"/>
<polygon fill="#63b8ff" stroke="#63b8ff" points="144.93,-127.82 154.28,-122.83 143.86,-120.9 144.93,-127.82"/>
</a>
</g>
</g>
<!-- Node15 -->
<g id="Node000015" class="node">
<title>Node15</title>
<g id="a_Node000015"><a xlink:href="class_hidden__handler_1_1_imaging__handler.html#a3ea770aadfb2f9ab97d587d2d3ac2cb5" target="_top" xlink:title="Retrieves a handle to the window that has the specified relationship to the specified window.">
<polygon fill="white" stroke="#666666" points="277.25,-79.5 157,-79.5 157,-49 277.25,-49 277.25,-79.5"/>
<text text-anchor="start" x="165" y="-66" font-family="Helvetica,sans-Serif" font-size="10.00">Hidden_handler.Imaging</text>
<text text-anchor="middle" x="217.12" y="-54.75" font-family="Helvetica,sans-Serif" font-size="10.00">_handler.GetWindow</text>
</a>
</g>
</g>
<!-- Node1&#45;&gt;Node15 -->
<g id="edge15_Node000001_Node000015" class="edge">
<title>Node1&#45;&gt;Node15</title>
<g id="a_edge15_Node000001_Node000015"><a xlink:title=" ">
<path fill="none" stroke="#63b8ff" d="M90.85,-121.56C109.47,-111.9 134.07,-99.46 156.25,-89.25 159.73,-87.65 163.35,-86.03 167,-84.43"/>
<polygon fill="#63b8ff" stroke="#63b8ff" points="168.11,-87.76 175.91,-80.58 165.34,-81.33 168.11,-87.76"/>
</a>
</g>
</g>
<!-- Node2&#45;&gt;Node1 -->
<g id="edge12_Node000002_Node000001" class="edge">
<title>Node2&#45;&gt;Node1</title>
<g id="a_edge12_Node000002_Node000001"><a xlink:title=" ">
<path fill="none" stroke="#63b8ff" d="M156.69,-159.25C147.65,-157.96 138.27,-156.49 129.06,-154.91"/>
<polygon fill="#63b8ff" stroke="#63b8ff" points="129.91,-151.51 119.45,-153.21 128.69,-158.4 129.91,-151.51"/>
</a>
</g>
</g>
<!-- Node3 -->
<g id="Node000003" class="node">
<title>Node3</title>
<g id="a_Node000003"><a xlink:href="class_hidden__handler_1_1_imaging__handler.html#a308aeab0144edcbab28c19b3eb965e13" target="_top" xlink:title="Captures the application window and draws it on the specified graphics object.">
<polygon fill="white" stroke="#666666" points="441,-201.5 314.75,-201.5 314.75,-171 441,-171 441,-201.5"/>
<text text-anchor="start" x="322.75" y="-188" font-family="Helvetica,sans-Serif" font-size="10.00">Hidden_handler.Imaging</text>
<text text-anchor="middle" x="377.88" y="-176.75" font-family="Helvetica,sans-Serif" font-size="10.00">_handler.DrawApplication</text>
</a>
</g>
</g>
<!-- Node2&#45;&gt;Node3 -->
<g id="edge2_Node000002_Node000003" class="edge">
<title>Node2&#45;&gt;Node3</title>
<g id="a_edge2_Node000002_Node000003"><a xlink:title=" ">
<path fill="none" stroke="#63b8ff" d="M277.69,-171.25C286.01,-172.51 294.64,-173.82 303.18,-175.11"/>
<polygon fill="#63b8ff" stroke="#63b8ff" points="302.42,-178.53 312.83,-176.57 303.46,-171.61 302.42,-178.53"/>
</a>
</g>
</g>
<!-- Node13 -->
<g id="Node000013" class="node">
<title>Node13</title>
<g id="a_Node000013"><a xlink:href="class_hidden__handler_1_1_imaging__handler.html#a0f031ac030a56919b1e75d2b43ccd62a" target="_top" xlink:title="Determines whether the specified window is visible.">
<polygon fill="white" stroke="#666666" points="441.75,-152.5 314,-152.5 314,-122 441.75,-122 441.75,-152.5"/>
<text text-anchor="start" x="322" y="-139" font-family="Helvetica,sans-Serif" font-size="10.00">Hidden_handler.Imaging</text>
<text text-anchor="middle" x="377.88" y="-127.75" font-family="Helvetica,sans-Serif" font-size="10.00">_handler.IsWindowVisible</text>
</a>
</g>
</g>
<!-- Node2&#45;&gt;Node13 -->
<g id="edge13_Node000002_Node000013" class="edge">
<title>Node2&#45;&gt;Node13</title>
<g id="a_edge13_Node000002_Node000013"><a xlink:title=" ">
<path fill="none" stroke="#63b8ff" d="M277.69,-152.87C285.73,-151.6 294.07,-150.29 302.33,-148.99"/>
<polygon fill="#63b8ff" stroke="#63b8ff" points="302.7,-152.47 312.03,-147.46 301.61,-145.56 302.7,-152.47"/>
</a>
</g>
</g>
<!-- Node4 -->
<g id="Node000004" class="node">
<title>Node4</title>
<g id="a_Node000004"><a xlink:href="class_hidden__handler_1_1_imaging__handler.html#a5a96cd1b6915e0c57764258d7991400d" target="_top" xlink:title="Creates a bitmap compatible with the specified device context (DC) and returns a handle to the bitmap...">
<polygon fill="white" stroke="#666666" points="642.25,-373.5 477.75,-373.5 477.75,-343 642.25,-343 642.25,-373.5"/>
<text text-anchor="start" x="485.75" y="-360" font-family="Helvetica,sans-Serif" font-size="10.00">Hidden_handler.Imaging</text>
<text text-anchor="middle" x="560" y="-348.75" font-family="Helvetica,sans-Serif" font-size="10.00">_handler.CreateCompatibleBitmap</text>
</a>
</g>
</g>
<!-- Node3&#45;&gt;Node4 -->
<g id="edge3_Node000003_Node000004" class="edge">
<title>Node3&#45;&gt;Node4</title>
<g id="a_edge3_Node000003_Node000004"><a xlink:title=" ">
<path fill="none" stroke="#63b8ff" d="M385.03,-201.68C397.76,-231.6 429.84,-297.68 477.75,-333.25 479.72,-334.72 481.78,-336.1 483.91,-337.4"/>
<polygon fill="#63b8ff" stroke="#63b8ff" points="481.81,-340.24 492.28,-341.88 485.12,-334.07 481.81,-340.24"/>
</a>
</g>
</g>
<!-- Node5 -->
<g id="Node000005" class="node">
<title>Node5</title>
<g id="a_Node000005"><a xlink:href="class_hidden__handler_1_1_imaging__handler.html#a3d94ca24043ce806736e58d4811271ab" target="_top" xlink:title="Creates a memory device context (DC) compatible with the specified device.">
<polygon fill="white" stroke="#666666" points="634.38,-324.5 485.62,-324.5 485.62,-294 634.38,-294 634.38,-324.5"/>
<text text-anchor="start" x="493.62" y="-311" font-family="Helvetica,sans-Serif" font-size="10.00">Hidden_handler.Imaging</text>
<text text-anchor="middle" x="560" y="-299.75" font-family="Helvetica,sans-Serif" font-size="10.00">_handler.CreateCompatibleDC</text>
</a>
</g>
</g>
<!-- Node3&#45;&gt;Node5 -->
<g id="edge4_Node000003_Node000005" class="edge">
<title>Node3&#45;&gt;Node5</title>
<g id="a_edge4_Node000003_Node000005"><a xlink:title=" ">
<path fill="none" stroke="#63b8ff" d="M390.54,-201.84C407.46,-223.4 440.84,-262.14 477.75,-284.25 480.54,-285.92 483.45,-287.49 486.44,-288.96"/>
<polygon fill="#63b8ff" stroke="#63b8ff" points="484.92,-292.11 495.48,-292.98 487.76,-285.72 484.92,-292.11"/>
</a>
</g>
</g>
<!-- Node6 -->
<g id="Node000006" class="node">
<title>Node6</title>
<g id="a_Node000006"><a xlink:href="class_hidden__handler_1_1_imaging__handler.html#a710b3498588a623c512330e944b2418f" target="_top" xlink:title="Deletes a device context (DC) from memory.">
<polygon fill="white" stroke="#666666" points="620.12,-275.5 499.88,-275.5 499.88,-245 620.12,-245 620.12,-275.5"/>
<text text-anchor="start" x="507.88" y="-262" font-family="Helvetica,sans-Serif" font-size="10.00">Hidden_handler.Imaging</text>
<text text-anchor="middle" x="560" y="-250.75" font-family="Helvetica,sans-Serif" font-size="10.00">_handler.DeleteDC</text>
</a>
</g>
</g>
<!-- Node3&#45;&gt;Node6 -->
<g id="edge5_Node000003_Node000006" class="edge">
<title>Node3&#45;&gt;Node6</title>
<g id="a_edge5_Node000003_Node000006"><a xlink:title=" ">
<path fill="none" stroke="#63b8ff" d="M407.3,-201.87C426.77,-212.18 453.37,-225.53 477.75,-235.25 482.72,-237.23 487.9,-239.15 493.15,-240.99"/>
<polygon fill="#63b8ff" stroke="#63b8ff" points="491.92,-244.27 502.51,-244.15 494.16,-237.63 491.92,-244.27"/>
</a>
</g>
</g>
<!-- Node7 -->
<g id="Node000007" class="node">
<title>Node7</title>
<g id="a_Node000007"><a xlink:href="class_hidden__handler_1_1_imaging__handler.html#a29d9c92b2313978def8aa7554370559b" target="_top" xlink:title="Deletes a logical pen, brush, font, bitmap, region, or palette, freeing all system resources associat...">
<polygon fill="white" stroke="#666666" points="620.12,-226.5 499.88,-226.5 499.88,-196 620.12,-196 620.12,-226.5"/>
<text text-anchor="start" x="507.88" y="-213" font-family="Helvetica,sans-Serif" font-size="10.00">Hidden_handler.Imaging</text>
<text text-anchor="middle" x="560" y="-201.75" font-family="Helvetica,sans-Serif" font-size="10.00">_handler.DeleteObject</text>
</a>
</g>
</g>
<!-- Node3&#45;&gt;Node7 -->
<g id="edge6_Node000003_Node000007" class="edge">
<title>Node3&#45;&gt;Node7</title>
<g id="a_edge6_Node000003_Node000007"><a xlink:title=" ">
<path fill="none" stroke="#63b8ff" d="M441.37,-194.92C456.58,-197.03 472.95,-199.31 488.5,-201.46"/>
<polygon fill="#63b8ff" stroke="#63b8ff" points="487.76,-204.9 498.15,-202.8 488.72,-197.96 487.76,-204.9"/>
</a>
</g>
</g>
<!-- Node8 -->
<g id="Node000008" class="node">
<title>Node8</title>
<g id="a_Node000008"><a xlink:href="class_hidden__handler_1_1_imaging__handler.html#a5eb3f0ab3d4467c9299b4ba662bbf8cf" target="_top" xlink:title="Retrieves the scaling factor of the screen.">
<polygon fill="white" stroke="#666666" points="625.38,-177.5 494.62,-177.5 494.62,-147 625.38,-147 625.38,-177.5"/>
<text text-anchor="start" x="502.62" y="-164" font-family="Helvetica,sans-Serif" font-size="10.00">Hidden_handler.Imaging</text>
<text text-anchor="middle" x="560" y="-152.75" font-family="Helvetica,sans-Serif" font-size="10.00">_handler.GetScalingFactor</text>
</a>
</g>
</g>
<!-- Node3&#45;&gt;Node8 -->
<g id="edge7_Node000003_Node000008" class="edge">
<title>Node3&#45;&gt;Node8</title>
<g id="a_edge7_Node000003_Node000008"><a xlink:title=" ">
<path fill="none" stroke="#63b8ff" d="M441.37,-177.92C454.84,-176.13 469.22,-174.21 483.13,-172.36"/>
<polygon fill="#63b8ff" stroke="#63b8ff" points="483.22,-175.88 492.67,-171.09 482.29,-168.94 483.22,-175.88"/>
</a>
</g>
</g>
<!-- Node10 -->
<g id="Node000010" class="node">
<title>Node10</title>
<g id="a_Node000010"><a xlink:href="class_hidden__handler_1_1_imaging__handler.html#a5fb4ec825aebc883b9708b78b3ac9722" target="_top" xlink:title="Retrieves the dimensions of the bounding rectangle of the specified window.">
<polygon fill="white" stroke="#666666" points="623.5,-128.5 496.5,-128.5 496.5,-98 623.5,-98 623.5,-128.5"/>
<text text-anchor="start" x="504.5" y="-115" font-family="Helvetica,sans-Serif" font-size="10.00">Hidden_handler.Imaging</text>
<text text-anchor="middle" x="560" y="-103.75" font-family="Helvetica,sans-Serif" font-size="10.00">_handler.GetWindowRect</text>
</a>
</g>
</g>
<!-- Node3&#45;&gt;Node10 -->
<g id="edge9_Node000003_Node000010" class="edge">
<title>Node3&#45;&gt;Node10</title>
<g id="a_edge9_Node000003_Node000010"><a xlink:title=" ">
<path fill="none" stroke="#63b8ff" d="M421.64,-170.52C428.46,-167.65 435.37,-164.52 441.75,-161.25 458.65,-152.59 460.52,-146.23 477.75,-138.25 481.78,-136.39 485.98,-134.61 490.26,-132.94"/>
<polygon fill="#63b8ff" stroke="#63b8ff" points="491.42,-136.24 499.59,-129.5 489,-129.67 491.42,-136.24"/>
</a>
</g>
</g>
<!-- Node11 -->
<g id="Node000011" class="node">
<title>Node11</title>
<g id="a_Node000011"><a xlink:href="class_hidden__handler_1_1_imaging__handler.html#acd1f4e35f963cec5a44ac001712cb0e1" target="_top" xlink:title="The PrintWindow function retrieves the contents of a window or control that is currently being displa...">
<polygon fill="white" stroke="#666666" points="620.12,-79.5 499.88,-79.5 499.88,-49 620.12,-49 620.12,-79.5"/>
<text text-anchor="start" x="507.88" y="-66" font-family="Helvetica,sans-Serif" font-size="10.00">Hidden_handler.Imaging</text>
<text text-anchor="middle" x="560" y="-54.75" font-family="Helvetica,sans-Serif" font-size="10.00">_handler.PrintWindow</text>
</a>
</g>
</g>
<!-- Node3&#45;&gt;Node11 -->
<g id="edge10_Node000003_Node000011" class="edge">
<title>Node3&#45;&gt;Node11</title>
<g id="a_edge10_Node000003_Node000011"><a xlink:title=" ">
<path fill="none" stroke="#63b8ff" d="M428.67,-170.58C433.39,-167.92 437.86,-164.83 441.75,-161.25 468.1,-137.05 450.45,-112.38 477.75,-89.25 481.36,-86.19 485.34,-83.51 489.54,-81.15"/>
<polygon fill="#63b8ff" stroke="#63b8ff" points="490.85,-84.41 498.31,-76.89 487.79,-78.11 490.85,-84.41"/>
</a>
</g>
</g>
<!-- Node12 -->
<g id="Node000012" class="node">
<title>Node12</title>
<g id="a_Node000012"><a xlink:href="class_hidden__handler_1_1_imaging__handler.html#a202738e4e2e349732fc644d3036171f1" target="_top" xlink:title="Selects an object into the specified device context (DC).">
<polygon fill="white" stroke="#666666" points="620.12,-30.5 499.88,-30.5 499.88,0 620.12,0 620.12,-30.5"/>
<text text-anchor="start" x="507.88" y="-17" font-family="Helvetica,sans-Serif" font-size="10.00">Hidden_handler.Imaging</text>
<text text-anchor="middle" x="560" y="-5.75" font-family="Helvetica,sans-Serif" font-size="10.00">_handler.SelectObject</text>
</a>
</g>
</g>
<!-- Node3&#45;&gt;Node12 -->
<g id="edge11_Node000003_Node000012" class="edge">
<title>Node3&#45;&gt;Node12</title>
<g id="a_edge11_Node000003_Node000012"><a xlink:title=" ">
<path fill="none" stroke="#63b8ff" d="M430.25,-170.68C434.49,-168.01 438.42,-164.89 441.75,-161.25 479.61,-119.85 438.26,-80.11 477.75,-40.25 481.29,-36.67 485.33,-33.61 489.68,-30.98"/>
<polygon fill="#63b8ff" stroke="#63b8ff" points="490.95,-34.26 498.25,-26.58 487.75,-28.03 490.95,-34.26"/>
</a>
</g>
</g>
<!-- Node9 -->
<g id="Node000009" class="node">
<title>Node9</title>
<g id="a_Node000009"><a xlink:href="class_hidden__handler_1_1_imaging__handler.html#af9e0279905915bf2dc2627a039993d7b" target="_top" xlink:title="Retrieves device&#45;specific information for the specified device.">
<polygon fill="white" stroke="#666666" points="803,-177.5 678.25,-177.5 678.25,-147 803,-147 803,-177.5"/>
<text text-anchor="start" x="686.25" y="-164" font-family="Helvetica,sans-Serif" font-size="10.00">Hidden_handler.Imaging</text>
<text text-anchor="middle" x="740.62" y="-152.75" font-family="Helvetica,sans-Serif" font-size="10.00">_handler.GetDeviceCaps</text>
</a>
</g>
</g>
<!-- Node8&#45;&gt;Node9 -->
<g id="edge8_Node000008_Node000009" class="edge">
<title>Node8&#45;&gt;Node9</title>
<g id="a_edge8_Node000008_Node000009"><a xlink:title=" ">
<path fill="none" stroke="#63b8ff" d="M625.74,-162.25C639,-162.25 653.04,-162.25 666.57,-162.25"/>
<polygon fill="#63b8ff" stroke="#63b8ff" points="666.27,-165.75 676.27,-162.25 666.27,-158.75 666.27,-165.75"/>
</a>
</g>
</g>
</g>
</svg>
