<?xml version="1.0" encoding="UTF-8" standalone="no"?>
<!DOCTYPE svg PUBLIC "-//W3C//DTD SVG 1.1//EN"
 "http://www.w3.org/Graphics/SVG/1.1/DTD/svg11.dtd">
<!-- Generated by graphviz version 10.0.1 (20240210.2158)
 -->
<!-- Title: xeno_rat_server.Forms.Registry_Manager.button1_Click Pages: 1 -->
<!--zoomable 492 -->

<svg id="main" version="1.1" xmlns="http://www.w3.org/2000/svg" xmlns:xlink="http://www.w3.org/1999/xlink" xml:space="preserve" onload="init(evt)">
<style type="text/css"><![CDATA[
.node, .edge {opacity: 0.7;}
.node.selected, .edge.selected {opacity: 1;}
.edge:hover path { stroke: red; }
.edge:hover polygon { stroke: red; fill: red; }
]]></style>

<defs>
  <circle id="rim" cx="0" cy="0" r="7"/>
  <circle id="rim2" cx="0" cy="0" r="3.5"/>
  <g id="zoomPlus">
    <use xlink:href="#rim" fill="#404040"><set attributeName="fill" to="#808080" begin="zoomplus.mouseover" end="zoomplus.mouseout"/></use>
    <path d="M-4,0h8M0,-4v8" fill="none" stroke="white" stroke-width="1.5" pointer-events="none"/>
  </g>
  <g id="zoomMin">
    <use xlink:href="#rim" fill="#404040"><set attributeName="fill" to="#808080" begin="zoomminus.mouseover" end="zoomminus.mouseout"/></use>
    <path d="M-4,0h8" fill="none" stroke="white" stroke-width="1.5" pointer-events="none"/>
  </g>
  <g id="arrowUp" transform="translate(30 24)">
    <use xlink:href="#rim"/>
    <path pointer-events="none" fill="none" stroke="white" stroke-width="1.5" d="M0,-3.0v7 M-2.5,-0.5L0,-3.0L2.5,-0.5"/>
  </g>
  <g id="arrowRight" transform="rotate(90) translate(36 -43)">
    <use xlink:href="#rim"/>
    <path pointer-events="none" fill="none" stroke="white" stroke-width="1.5" d="M0,-3.0v7 M-2.5,-0.5L0,-3.0L2.5,-0.5"/>
  </g>
  <g id="arrowDown" transform="rotate(180) translate(-30 -48)">
    <use xlink:href="#rim"/>
    <path pointer-events="none" fill="none" stroke="white" stroke-width="1.5" d="M0,-3.0v7 M-2.5,-0.5L0,-3.0L2.5,-0.5"/>
  </g>
  <g id="arrowLeft" transform="rotate(270) translate(-36 17)">
    <use xlink:href="#rim"/>
    <path pointer-events="none" fill="none" stroke="white" stroke-width="1.5" d="M0,-3.0v7 M-2.5,-0.5L0,-3.0L2.5,-0.5"/>
  </g>
  <g id="resetDef">
    <use xlink:href="#rim2" fill="#404040"><set attributeName="fill" to="#808080" begin="reset.mouseover" end="reset.mouseout"/></use>
  </g>
</defs>
<script type="application/ecmascript">
var viewWidth = 1337;
var viewHeight = 492;
var sectionId = 'dynsection-3';
</script>
<script type="application/ecmascript" xlink:href="svg.min.js"/>
<svg id="graph" class="graph">
<g id="viewport">
<title>xeno_rat_server.Forms.Registry_Manager.button1_Click</title>
<!-- Node1 -->
<g id="Node000001" class="node">
<title>Node1</title>
<g id="a_Node000001"><a xlink:title="Clears the text in textBox1, clears the items in listView1, clears the nodes in treeView1,...">
<polygon fill="#999999" stroke="#666666" points="155.5,-259.5 0,-259.5 0,-229 155.5,-229 155.5,-259.5"/>
<text text-anchor="start" x="8" y="-246" font-family="Helvetica,sans-Serif" font-size="10.00">xeno_rat_server.Forms.Registry</text>
<text text-anchor="middle" x="77.75" y="-234.75" font-family="Helvetica,sans-Serif" font-size="10.00">_Manager.button1_Click</text>
</a>
</g>
</g>
<!-- Node2 -->
<g id="Node000002" class="node">
<title>Node2</title>
<g id="a_Node000002"><a xlink:href="classxeno__rat__server_1_1_forms_1_1_registry___manager.html#a5c85e48cc9a980538c39527ce84be05c" target="_top" xlink:title="Asynchronously starts the process of adding registry information to the tree view.">
<polygon fill="white" stroke="#666666" points="347,-259.5 191.5,-259.5 191.5,-229 347,-229 347,-259.5"/>
<text text-anchor="start" x="199.5" y="-246" font-family="Helvetica,sans-Serif" font-size="10.00">xeno_rat_server.Forms.Registry</text>
<text text-anchor="middle" x="269.25" y="-234.75" font-family="Helvetica,sans-Serif" font-size="10.00">_Manager.StartAdd</text>
</a>
</g>
</g>
<!-- Node1&#45;&gt;Node2 -->
<g id="edge1_Node000001_Node000002" class="edge">
<title>Node1&#45;&gt;Node2</title>
<g id="a_edge1_Node000001_Node000002"><a xlink:title=" ">
<path fill="none" stroke="#63b8ff" d="M155.83,-244.25C163.77,-244.25 171.88,-244.25 179.93,-244.25"/>
<polygon fill="#63b8ff" stroke="#63b8ff" points="179.73,-247.75 189.73,-244.25 179.73,-240.75 179.73,-247.75"/>
</a>
</g>
</g>
<!-- Node3 -->
<g id="Node000003" class="node">
<title>Node3</title>
<g id="a_Node000003"><a xlink:href="classxeno__rat__server_1_1_forms_1_1_registry___manager.html#a97b5f56b06afdcc095ec2e85b5701bb7" target="_top" xlink:title="Retrieves registration information for the specified path.">
<polygon fill="white" stroke="#666666" points="538.5,-259.5 383,-259.5 383,-229 538.5,-229 538.5,-259.5"/>
<text text-anchor="start" x="391" y="-246" font-family="Helvetica,sans-Serif" font-size="10.00">xeno_rat_server.Forms.Registry</text>
<text text-anchor="middle" x="460.75" y="-234.75" font-family="Helvetica,sans-Serif" font-size="10.00">_Manager.GetRegInfo</text>
</a>
</g>
</g>
<!-- Node2&#45;&gt;Node3 -->
<g id="edge2_Node000002_Node000003" class="edge">
<title>Node2&#45;&gt;Node3</title>
<g id="a_edge2_Node000002_Node000003"><a xlink:title=" ">
<path fill="none" stroke="#63b8ff" d="M347.33,-244.25C355.27,-244.25 363.38,-244.25 371.43,-244.25"/>
<polygon fill="#63b8ff" stroke="#63b8ff" points="371.23,-247.75 381.23,-244.25 371.23,-240.75 371.23,-247.75"/>
</a>
</g>
</g>
<!-- Node4 -->
<g id="Node000004" class="node">
<title>Node4</title>
<g id="a_Node000004"><a xlink:href="classxeno__rat__server_1_1_forms_1_1_registry___manager.html#a322a45337d6b38f55cda2b208d4fd55f" target="_top" xlink:title="Deserializes the byte array data into a RegInfo object.">
<polygon fill="white" stroke="#666666" points="730,-308.5 574.5,-308.5 574.5,-278 730,-278 730,-308.5"/>
<text text-anchor="start" x="582.5" y="-295" font-family="Helvetica,sans-Serif" font-size="10.00">xeno_rat_server.Forms.Registry</text>
<text text-anchor="middle" x="652.25" y="-283.75" font-family="Helvetica,sans-Serif" font-size="10.00">_Manager.DeserializeRegInfo</text>
</a>
</g>
</g>
<!-- Node3&#45;&gt;Node4 -->
<g id="edge3_Node000003_Node000004" class="edge">
<title>Node3&#45;&gt;Node4</title>
<g id="a_edge3_Node000003_Node000004"><a xlink:title=" ">
<path fill="none" stroke="#63b8ff" d="M522.49,-259.96C540.68,-264.66 560.8,-269.86 579.62,-274.73"/>
<polygon fill="#63b8ff" stroke="#63b8ff" points="578.5,-278.05 589.06,-277.17 580.26,-271.28 578.5,-278.05"/>
</a>
</g>
</g>
<!-- Node5 -->
<g id="Node000005" class="node">
<title>Node5</title>
<g id="a_Node000005"><a xlink:href="classxeno__rat__server_1_1_node.html#a3dcb832502d4cd1dd580897265b2da7b" target="_top" xlink:title="Asynchronously receives data from the socket and returns the received data as a byte array.">
<polygon fill="white" stroke="#666666" points="727.38,-259.5 577.12,-259.5 577.12,-229 727.38,-229 727.38,-259.5"/>
<text text-anchor="start" x="585.12" y="-246" font-family="Helvetica,sans-Serif" font-size="10.00">xeno_rat_server.Node.Receive</text>
<text text-anchor="middle" x="652.25" y="-234.75" font-family="Helvetica,sans-Serif" font-size="10.00">Async</text>
</a>
</g>
</g>
<!-- Node3&#45;&gt;Node5 -->
<g id="edge4_Node000003_Node000005" class="edge">
<title>Node3&#45;&gt;Node5</title>
<g id="a_edge4_Node000003_Node000005"><a xlink:title=" ">
<path fill="none" stroke="#63b8ff" d="M538.83,-244.25C547.52,-244.25 556.42,-244.25 565.21,-244.25"/>
<polygon fill="#63b8ff" stroke="#63b8ff" points="565.18,-247.75 575.18,-244.25 565.18,-240.75 565.18,-247.75"/>
</a>
</g>
</g>
<!-- Node15 -->
<g id="Node000015" class="node">
<title>Node15</title>
<g id="a_Node000015"><a xlink:href="classxeno__rat__server_1_1_node.html#a816e267eb31862d38c21e5faaae3061d" target="_top" xlink:title="Sends the provided data asynchronously and returns a boolean indicating the success of the operation.">
<polygon fill="white" stroke="#666666" points="720.62,-210.5 583.88,-210.5 583.88,-180 720.62,-180 720.62,-210.5"/>
<text text-anchor="start" x="591.88" y="-197" font-family="Helvetica,sans-Serif" font-size="10.00">xeno_rat_server.Node.Send</text>
<text text-anchor="middle" x="652.25" y="-185.75" font-family="Helvetica,sans-Serif" font-size="10.00">Async</text>
</a>
</g>
</g>
<!-- Node3&#45;&gt;Node15 -->
<g id="edge16_Node000003_Node000015" class="edge">
<title>Node3&#45;&gt;Node15</title>
<g id="a_edge16_Node000003_Node000015"><a xlink:title=" ">
<path fill="none" stroke="#63b8ff" d="M522.49,-228.54C540.68,-223.84 560.8,-218.64 579.62,-213.77"/>
<polygon fill="#63b8ff" stroke="#63b8ff" points="580.26,-217.22 589.06,-211.33 578.5,-210.45 580.26,-217.22"/>
</a>
</g>
</g>
<!-- Node6 -->
<g id="Node000006" class="node">
<title>Node6</title>
<g id="a_Node000006"><a xlink:href="classxeno__rat__server_1_1_node.html#a8814edd98b6463f49812be32d5928763" target="_top" xlink:title="Sets the isDisposed flag to true and disconnects the socket, disposes resources, and triggers the OnD...">
<polygon fill="white" stroke="#666666" points="929.75,-229.88 766,-229.88 766,-210.62 929.75,-210.62 929.75,-229.88"/>
<text text-anchor="middle" x="847.88" y="-216.38" font-family="Helvetica,sans-Serif" font-size="10.00">xeno_rat_server.Node.Disconnect</text>
</a>
</g>
</g>
<!-- Node5&#45;&gt;Node6 -->
<g id="edge5_Node000005_Node000006" class="edge">
<title>Node5&#45;&gt;Node6</title>
<g id="a_edge5_Node000005_Node000006"><a xlink:title=" ">
<path fill="none" stroke="#63b8ff" d="M727.83,-235.01C736.52,-233.93 745.46,-232.82 754.36,-231.72"/>
<polygon fill="#63b8ff" stroke="#63b8ff" points="754.58,-235.22 764.07,-230.51 753.72,-228.27 754.58,-235.22"/>
</a>
</g>
</g>
<!-- Node7 -->
<g id="Node000007" class="node">
<title>Node7</title>
<g id="a_Node000007"><a xlink:href="classxeno__rat__server_1_1_socket_handler.html#a40a6f3b7eb555e8d688ea5c0074ffa2c" target="_top" xlink:title="Asynchronously receives data and processes it according to the protocol, then returns the processed d...">
<polygon fill="white" stroke="#666666" points="925.25,-336.5 770.5,-336.5 770.5,-306 925.25,-306 925.25,-336.5"/>
<text text-anchor="start" x="778.5" y="-323" font-family="Helvetica,sans-Serif" font-size="10.00">xeno_rat_server.SocketHandler.</text>
<text text-anchor="middle" x="847.88" y="-311.75" font-family="Helvetica,sans-Serif" font-size="10.00">ReceiveAsync</text>
</a>
</g>
</g>
<!-- Node5&#45;&gt;Node7 -->
<g id="edge7_Node000005_Node000007" class="edge">
<title>Node5&#45;&gt;Node7</title>
<g id="a_edge7_Node000005_Node000007"><a xlink:title=" ">
<path fill="none" stroke="#63b8ff" d="M703.88,-259.92C712.64,-262.86 721.63,-266.03 730,-269.25 754.76,-278.76 781.87,-290.72 803.73,-300.77"/>
<polygon fill="#63b8ff" stroke="#63b8ff" points="802.09,-303.87 812.64,-304.89 805.03,-297.52 802.09,-303.87"/>
</a>
</g>
</g>
<!-- Node6&#45;&gt;Node6 -->
<g id="edge6_Node000006_Node000006" class="edge">
<title>Node6&#45;&gt;Node6</title>
<g id="a_edge6_Node000006_Node000006"><a xlink:title=" ">
<path fill="none" stroke="#63b8ff" d="M817.31,-230.16C803.36,-238.77 813.55,-247.88 847.88,-247.88 867.72,-247.88 879.49,-244.83 883.2,-240.6"/>
<polygon fill="#63b8ff" stroke="#63b8ff" points="886.41,-239.19 879.07,-231.54 880.04,-242.09 886.41,-239.19"/>
</a>
</g>
</g>
<!-- Node8 -->
<g id="Node000008" class="node">
<title>Node8</title>
<g id="a_Node000008"><a xlink:href="classxeno__rat__server_1_1_socket_handler.html#a53169a2098514698865b69c8fab12f77" target="_top" xlink:title="Truncates the input byte array starting from the specified offset and returns the truncated byte arra...">
<polygon fill="white" stroke="#666666" points="1120.5,-287.5 965.75,-287.5 965.75,-257 1120.5,-257 1120.5,-287.5"/>
<text text-anchor="start" x="973.75" y="-274" font-family="Helvetica,sans-Serif" font-size="10.00">xeno_rat_server.SocketHandler.</text>
<text text-anchor="middle" x="1043.12" y="-262.75" font-family="Helvetica,sans-Serif" font-size="10.00">BTruncate</text>
</a>
</g>
</g>
<!-- Node7&#45;&gt;Node8 -->
<g id="edge8_Node000007_Node000008" class="edge">
<title>Node7&#45;&gt;Node8</title>
<g id="a_edge8_Node000007_Node000008"><a xlink:title=" ">
<path fill="none" stroke="#63b8ff" d="M910.82,-305.54C929.37,-300.84 949.88,-295.64 969.08,-290.77"/>
<polygon fill="#63b8ff" stroke="#63b8ff" points="969.9,-294.17 978.73,-288.32 968.18,-287.39 969.9,-294.17"/>
</a>
</g>
</g>
<!-- Node9 -->
<g id="Node000009" class="node">
<title>Node9</title>
<g id="a_Node000009"><a xlink:href="classxeno__rat__server_1_1_socket_handler.html#a68836e871124cbda8a644223a73421d0" target="_top" xlink:title="Converts the specified byte array to an integer value.">
<polygon fill="white" stroke="#666666" points="1319.88,-318.5 1165.12,-318.5 1165.12,-288 1319.88,-288 1319.88,-318.5"/>
<text text-anchor="start" x="1173.12" y="-305" font-family="Helvetica,sans-Serif" font-size="10.00">xeno_rat_server.SocketHandler.</text>
<text text-anchor="middle" x="1242.5" y="-293.75" font-family="Helvetica,sans-Serif" font-size="10.00">BytesToInt</text>
</a>
</g>
</g>
<!-- Node7&#45;&gt;Node9 -->
<g id="edge9_Node000007_Node000009" class="edge">
<title>Node7&#45;&gt;Node9</title>
<g id="a_edge9_Node000007_Node000009"><a xlink:title=" ">
<path fill="none" stroke="#63b8ff" d="M866.73,-305.55C888.4,-287.64 926.88,-259.39 965.75,-248.25 1031.87,-229.3 1053.28,-233.69 1120.5,-248.25 1150.75,-254.8 1182.53,-269.59 1205.92,-282.18"/>
<polygon fill="#63b8ff" stroke="#63b8ff" points="1203.95,-285.1 1214.4,-286.86 1207.33,-278.97 1203.95,-285.1"/>
</a>
</g>
</g>
<!-- Node10 -->
<g id="Node000010" class="node">
<title>Node10</title>
<g id="a_Node000010"><a xlink:href="classxeno__rat__server_1_1_compression.html#ad992bb75126d7c346fe7884dbbcf8ad8" target="_top" xlink:title="Decompresses the input buffer using the LZNT1 compression format and returns the decompressed data.">
<polygon fill="white" stroke="#666666" points="1117.5,-483.5 968.75,-483.5 968.75,-453 1117.5,-453 1117.5,-483.5"/>
<text text-anchor="start" x="976.75" y="-470" font-family="Helvetica,sans-Serif" font-size="10.00">xeno_rat_server.Compression.</text>
<text text-anchor="middle" x="1043.12" y="-458.75" font-family="Helvetica,sans-Serif" font-size="10.00">Decompress</text>
</a>
</g>
</g>
<!-- Node7&#45;&gt;Node10 -->
<g id="edge10_Node000007_Node000010" class="edge">
<title>Node7&#45;&gt;Node10</title>
<g id="a_edge10_Node000007_Node000010"><a xlink:title=" ">
<path fill="none" stroke="#63b8ff" d="M859.65,-336.7C878.36,-362.41 919.32,-414.04 965.75,-443.25 968.32,-444.87 971,-446.39 973.76,-447.82"/>
<polygon fill="#63b8ff" stroke="#63b8ff" points="972.11,-450.91 982.65,-451.98 975.08,-444.57 972.11,-450.91"/>
</a>
</g>
</g>
<!-- Node12 -->
<g id="Node000012" class="node">
<title>Node12</title>
<g id="a_Node000012"><a xlink:href="classxeno__rat__server_1_1_encryption.html#ae2a6537578e2140511afe92f8ad5e964" target="_top" xlink:title="Decrypts the input data using the provided key and returns the decrypted result.">
<polygon fill="white" stroke="#666666" points="1111.88,-434.5 974.38,-434.5 974.38,-404 1111.88,-404 1111.88,-434.5"/>
<text text-anchor="start" x="982.38" y="-421" font-family="Helvetica,sans-Serif" font-size="10.00">xeno_rat_server.Encryption.</text>
<text text-anchor="middle" x="1043.12" y="-409.75" font-family="Helvetica,sans-Serif" font-size="10.00">Decrypt</text>
</a>
</g>
</g>
<!-- Node7&#45;&gt;Node12 -->
<g id="edge12_Node000007_Node000012" class="edge">
<title>Node7&#45;&gt;Node12</title>
<g id="a_edge12_Node000007_Node000012"><a xlink:title=" ">
<path fill="none" stroke="#63b8ff" d="M870.38,-336.91C893.16,-352.96 930.64,-377.84 965.75,-394.25 969.69,-396.09 973.8,-397.86 977.99,-399.53"/>
<polygon fill="#63b8ff" stroke="#63b8ff" points="976.48,-402.7 987.07,-402.98 978.96,-396.16 976.48,-402.7"/>
</a>
</g>
</g>
<!-- Node13 -->
<g id="Node000013" class="node">
<title>Node13</title>
<g id="a_Node000013"><a xlink:href="classxeno__rat__server_1_1_socket_handler.html#aeefcafd750efab21954bd772b8ae565d" target="_top" xlink:title="Parses the header from the provided byte array and returns the parsed header object.">
<polygon fill="white" stroke="#666666" points="1120.5,-385.5 965.75,-385.5 965.75,-355 1120.5,-355 1120.5,-385.5"/>
<text text-anchor="start" x="973.75" y="-372" font-family="Helvetica,sans-Serif" font-size="10.00">xeno_rat_server.SocketHandler.</text>
<text text-anchor="middle" x="1043.12" y="-360.75" font-family="Helvetica,sans-Serif" font-size="10.00">ParseHeader</text>
</a>
</g>
</g>
<!-- Node7&#45;&gt;Node13 -->
<g id="edge13_Node000007_Node000013" class="edge">
<title>Node7&#45;&gt;Node13</title>
<g id="a_edge13_Node000007_Node000013"><a xlink:title=" ">
<path fill="none" stroke="#63b8ff" d="M910.82,-336.96C929.37,-341.66 949.88,-346.86 969.08,-351.73"/>
<polygon fill="#63b8ff" stroke="#63b8ff" points="968.18,-355.11 978.73,-354.18 969.9,-348.33 968.18,-355.11"/>
</a>
</g>
</g>
<!-- Node14 -->
<g id="Node000014" class="node">
<title>Node14</title>
<g id="a_Node000014"><a xlink:href="classxeno__rat__server_1_1_socket_handler.html#acc7e34649fee5060867a2321dd15d854" target="_top" xlink:title="Asynchronously receives all the data of the specified size from the connected socket and returns the ...">
<polygon fill="white" stroke="#666666" points="1120.5,-336.5 965.75,-336.5 965.75,-306 1120.5,-306 1120.5,-336.5"/>
<text text-anchor="start" x="973.75" y="-323" font-family="Helvetica,sans-Serif" font-size="10.00">xeno_rat_server.SocketHandler.</text>
<text text-anchor="middle" x="1043.12" y="-311.75" font-family="Helvetica,sans-Serif" font-size="10.00">RecvAllAsync_ddos_unsafer</text>
</a>
</g>
</g>
<!-- Node7&#45;&gt;Node14 -->
<g id="edge15_Node000007_Node000014" class="edge">
<title>Node7&#45;&gt;Node14</title>
<g id="a_edge15_Node000007_Node000014"><a xlink:title=" ">
<path fill="none" stroke="#63b8ff" d="M925.53,-321.25C935,-321.25 944.73,-321.25 954.35,-321.25"/>
<polygon fill="#63b8ff" stroke="#63b8ff" points="954.05,-324.75 964.05,-321.25 954.05,-317.75 954.05,-324.75"/>
</a>
</g>
</g>
<!-- Node11 -->
<g id="Node000011" class="node">
<title>Node11</title>
<g id="a_Node000011"><a xlink:href="classxeno__rat__server_1_1_compression.html#a1c901d319793d3855012549e6a18fe53" target="_top" xlink:title="Decompresses a buffer using the specified compression format and returns the decompressed data.">
<polygon fill="white" stroke="#666666" points="1316.88,-483.5 1168.12,-483.5 1168.12,-453 1316.88,-453 1316.88,-483.5"/>
<text text-anchor="start" x="1176.12" y="-470" font-family="Helvetica,sans-Serif" font-size="10.00">xeno_rat_server.Compression.</text>
<text text-anchor="middle" x="1242.5" y="-458.75" font-family="Helvetica,sans-Serif" font-size="10.00">RtlDecompressBuffer</text>
</a>
</g>
</g>
<!-- Node10&#45;&gt;Node11 -->
<g id="edge11_Node000010_Node000011" class="edge">
<title>Node10&#45;&gt;Node11</title>
<g id="a_edge11_Node000010_Node000011"><a xlink:title=" ">
<path fill="none" stroke="#63b8ff" d="M1117.9,-468.25C1130.52,-468.25 1143.72,-468.25 1156.6,-468.25"/>
<polygon fill="#63b8ff" stroke="#63b8ff" points="1156.3,-471.75 1166.3,-468.25 1156.3,-464.75 1156.3,-471.75"/>
</a>
</g>
</g>
<!-- Node13&#45;&gt;Node9 -->
<g id="edge14_Node000013_Node000009" class="edge">
<title>Node13&#45;&gt;Node9</title>
<g id="a_edge14_Node000013_Node000009"><a xlink:title=" ">
<path fill="none" stroke="#63b8ff" d="M1092.65,-354.51C1101.91,-351.47 1111.51,-348.28 1120.5,-345.25 1141.93,-338.02 1165.44,-329.91 1185.98,-322.75"/>
<polygon fill="#63b8ff" stroke="#63b8ff" points="1187.03,-326.1 1195.31,-319.5 1184.72,-319.49 1187.03,-326.1"/>
</a>
</g>
</g>
<!-- Node15&#45;&gt;Node6 -->
<g id="edge17_Node000015_Node000006" class="edge">
<title>Node15&#45;&gt;Node6</title>
<g id="a_edge17_Node000015_Node000006"><a xlink:title=" ">
<path fill="none" stroke="#63b8ff" d="M720.97,-203.99C732.74,-205.51 745.15,-207.12 757.4,-208.7"/>
<polygon fill="#63b8ff" stroke="#63b8ff" points="756.71,-212.14 767.08,-209.95 757.61,-205.2 756.71,-212.14"/>
</a>
</g>
</g>
<!-- Node16 -->
<g id="Node000016" class="node">
<title>Node16</title>
<g id="a_Node000016"><a xlink:href="classxeno__rat__server_1_1_socket_handler.html#a85ca8385d023521cdb86ff8ae688adee" target="_top" xlink:title="Sends the provided data asynchronously over the socket.">
<polygon fill="white" stroke="#666666" points="925.25,-152.5 770.5,-152.5 770.5,-122 925.25,-122 925.25,-152.5"/>
<text text-anchor="start" x="778.5" y="-139" font-family="Helvetica,sans-Serif" font-size="10.00">xeno_rat_server.SocketHandler.</text>
<text text-anchor="middle" x="847.88" y="-127.75" font-family="Helvetica,sans-Serif" font-size="10.00">SendAsync</text>
</a>
</g>
</g>
<!-- Node15&#45;&gt;Node16 -->
<g id="edge18_Node000015_Node000016" class="edge">
<title>Node15&#45;&gt;Node16</title>
<g id="a_edge18_Node000015_Node000016"><a xlink:title=" ">
<path fill="none" stroke="#63b8ff" d="M705.65,-179.55C729.65,-172.37 758.3,-163.78 783.5,-156.23"/>
<polygon fill="#63b8ff" stroke="#63b8ff" points="784.41,-159.61 792.99,-153.39 782.4,-152.91 784.41,-159.61"/>
</a>
</g>
</g>
<!-- Node17 -->
<g id="Node000017" class="node">
<title>Node17</title>
<g id="a_Node000017"><a xlink:href="classxeno__rat__server_1_1_compression.html#a0f3f31a2fe34d92bf04538b2fdf529e0" target="_top" xlink:title="Compresses the input buffer using the LZNT1 compression format and returns the compressed data.">
<polygon fill="white" stroke="#666666" points="1117.5,-103.5 968.75,-103.5 968.75,-73 1117.5,-73 1117.5,-103.5"/>
<text text-anchor="start" x="976.75" y="-90" font-family="Helvetica,sans-Serif" font-size="10.00">xeno_rat_server.Compression.</text>
<text text-anchor="middle" x="1043.12" y="-78.75" font-family="Helvetica,sans-Serif" font-size="10.00">Compress</text>
</a>
</g>
</g>
<!-- Node16&#45;&gt;Node17 -->
<g id="edge19_Node000016_Node000017" class="edge">
<title>Node16&#45;&gt;Node17</title>
<g id="a_edge19_Node000016_Node000017"><a xlink:title=" ">
<path fill="none" stroke="#63b8ff" d="M910.82,-121.54C929.37,-116.84 949.88,-111.64 969.08,-106.77"/>
<polygon fill="#63b8ff" stroke="#63b8ff" points="969.9,-110.17 978.73,-104.32 968.18,-103.39 969.9,-110.17"/>
</a>
</g>
</g>
<!-- Node22 -->
<g id="Node000022" class="node">
<title>Node22</title>
<g id="a_Node000022"><a xlink:href="classxeno__rat__server_1_1_socket_handler.html#a4f2e993b63cf1bba877781c9be2ed496" target="_top" xlink:title="Concatenates two byte arrays and returns the result.">
<polygon fill="white" stroke="#666666" points="1120.5,-54.5 965.75,-54.5 965.75,-24 1120.5,-24 1120.5,-54.5"/>
<text text-anchor="start" x="973.75" y="-41" font-family="Helvetica,sans-Serif" font-size="10.00">xeno_rat_server.SocketHandler.</text>
<text text-anchor="middle" x="1043.12" y="-29.75" font-family="Helvetica,sans-Serif" font-size="10.00">Concat</text>
</a>
</g>
</g>
<!-- Node16&#45;&gt;Node22 -->
<g id="edge24_Node000016_Node000022" class="edge">
<title>Node16&#45;&gt;Node22</title>
<g id="a_edge24_Node000016_Node000022"><a xlink:title=" ">
<path fill="none" stroke="#63b8ff" d="M870.38,-121.59C893.16,-105.54 930.64,-80.66 965.75,-64.25 969.69,-62.41 973.8,-60.64 977.99,-58.97"/>
<polygon fill="#63b8ff" stroke="#63b8ff" points="978.96,-62.34 987.07,-55.52 976.48,-55.8 978.96,-62.34"/>
</a>
</g>
</g>
<!-- Node23 -->
<g id="Node000023" class="node">
<title>Node23</title>
<g id="a_Node000023"><a xlink:href="classxeno__rat__server_1_1_encryption.html#a0fafecaba804cb57663bdbb4dcc4e93f" target="_top" xlink:title="Encrypts the input data using the provided key and returns the encrypted result.">
<polygon fill="white" stroke="#666666" points="1111.88,-201.5 974.38,-201.5 974.38,-171 1111.88,-171 1111.88,-201.5"/>
<text text-anchor="start" x="982.38" y="-188" font-family="Helvetica,sans-Serif" font-size="10.00">xeno_rat_server.Encryption.</text>
<text text-anchor="middle" x="1043.12" y="-176.75" font-family="Helvetica,sans-Serif" font-size="10.00">Encrypt</text>
</a>
</g>
</g>
<!-- Node16&#45;&gt;Node23 -->
<g id="edge25_Node000016_Node000023" class="edge">
<title>Node16&#45;&gt;Node23</title>
<g id="a_edge25_Node000016_Node000023"><a xlink:title=" ">
<path fill="none" stroke="#63b8ff" d="M910.82,-152.96C929.37,-157.66 949.88,-162.86 969.08,-167.73"/>
<polygon fill="#63b8ff" stroke="#63b8ff" points="968.18,-171.11 978.73,-170.18 969.9,-164.33 968.18,-171.11"/>
</a>
</g>
</g>
<!-- Node24 -->
<g id="Node000024" class="node">
<title>Node24</title>
<g id="a_Node000024"><a xlink:href="classxeno__rat__server_1_1_socket_handler.html#a7d019c5e4cbd0138d155156c7a7c5a8f" target="_top" xlink:title="Converts an integer to a byte array.">
<polygon fill="white" stroke="#666666" points="1120.5,-152.5 965.75,-152.5 965.75,-122 1120.5,-122 1120.5,-152.5"/>
<text text-anchor="start" x="973.75" y="-139" font-family="Helvetica,sans-Serif" font-size="10.00">xeno_rat_server.SocketHandler.</text>
<text text-anchor="middle" x="1043.12" y="-127.75" font-family="Helvetica,sans-Serif" font-size="10.00">IntToBytes</text>
</a>
</g>
</g>
<!-- Node16&#45;&gt;Node24 -->
<g id="edge26_Node000016_Node000024" class="edge">
<title>Node16&#45;&gt;Node24</title>
<g id="a_edge26_Node000016_Node000024"><a xlink:title=" ">
<path fill="none" stroke="#63b8ff" d="M925.53,-137.25C935,-137.25 944.73,-137.25 954.35,-137.25"/>
<polygon fill="#63b8ff" stroke="#63b8ff" points="954.05,-140.75 964.05,-137.25 954.05,-133.75 954.05,-140.75"/>
</a>
</g>
</g>
<!-- Node18 -->
<g id="Node000018" class="node">
<title>Node18</title>
<g id="a_Node000018"><a xlink:href="classxeno__rat__server_1_1_compression.html#ae86c8cb19fb340173e6b06816907c485" target="_top" xlink:title="Allocates the specified number of bytes in the local heap and returns a pointer to the allocated memo...">
<polygon fill="white" stroke="#666666" points="1316.88,-79.5 1168.12,-79.5 1168.12,-49 1316.88,-49 1316.88,-79.5"/>
<text text-anchor="start" x="1176.12" y="-66" font-family="Helvetica,sans-Serif" font-size="10.00">xeno_rat_server.Compression.</text>
<text text-anchor="middle" x="1242.5" y="-54.75" font-family="Helvetica,sans-Serif" font-size="10.00">LocalAlloc</text>
</a>
</g>
</g>
<!-- Node17&#45;&gt;Node18 -->
<g id="edge20_Node000017_Node000018" class="edge">
<title>Node17&#45;&gt;Node18</title>
<g id="a_edge20_Node000017_Node000018"><a xlink:title=" ">
<path fill="none" stroke="#63b8ff" d="M1117.9,-79.28C1130.52,-77.74 1143.72,-76.14 1156.6,-74.57"/>
<polygon fill="#63b8ff" stroke="#63b8ff" points="1156.81,-78.07 1166.31,-73.39 1155.96,-71.13 1156.81,-78.07"/>
</a>
</g>
</g>
<!-- Node19 -->
<g id="Node000019" class="node">
<title>Node19</title>
<g id="a_Node000019"><a xlink:href="classxeno__rat__server_1_1_compression.html#ab527e0a594d96bbaa1a4b1541888aa74" target="_top" xlink:title="Frees the memory block allocated by LocalAlloc and LocalReAlloc and invalidates the handle.">
<polygon fill="white" stroke="#666666" points="1316.88,-30.5 1168.12,-30.5 1168.12,0 1316.88,0 1316.88,-30.5"/>
<text text-anchor="start" x="1176.12" y="-17" font-family="Helvetica,sans-Serif" font-size="10.00">xeno_rat_server.Compression.</text>
<text text-anchor="middle" x="1242.5" y="-5.75" font-family="Helvetica,sans-Serif" font-size="10.00">LocalFree</text>
</a>
</g>
</g>
<!-- Node17&#45;&gt;Node19 -->
<g id="edge21_Node000017_Node000019" class="edge">
<title>Node17&#45;&gt;Node19</title>
<g id="a_edge21_Node000017_Node000019"><a xlink:title=" ">
<path fill="none" stroke="#63b8ff" d="M1097.8,-72.59C1105.54,-69.78 1113.31,-66.65 1120.5,-63.25 1137.66,-55.12 1139.22,-48.12 1156.5,-40.25 1160.75,-38.31 1165.19,-36.49 1169.72,-34.77"/>
<polygon fill="#63b8ff" stroke="#63b8ff" points="1170.71,-38.13 1178.95,-31.46 1168.35,-31.54 1170.71,-38.13"/>
</a>
</g>
</g>
<!-- Node20 -->
<g id="Node000020" class="node">
<title>Node20</title>
<g id="a_Node000020"><a xlink:href="classxeno__rat__server_1_1_compression.html#a1f9bb20d96d13bdc4d0f90e2b68d4343" target="_top" xlink:title="Compresses the input buffer using the specified compression format and returns the compressed data in...">
<polygon fill="white" stroke="#666666" points="1316.88,-177.5 1168.12,-177.5 1168.12,-147 1316.88,-147 1316.88,-177.5"/>
<text text-anchor="start" x="1176.12" y="-164" font-family="Helvetica,sans-Serif" font-size="10.00">xeno_rat_server.Compression.</text>
<text text-anchor="middle" x="1242.5" y="-152.75" font-family="Helvetica,sans-Serif" font-size="10.00">RtlCompressBuffer</text>
</a>
</g>
</g>
<!-- Node17&#45;&gt;Node20 -->
<g id="edge22_Node000017_Node000020" class="edge">
<title>Node17&#45;&gt;Node20</title>
<g id="a_edge22_Node000017_Node000020"><a xlink:title=" ">
<path fill="none" stroke="#63b8ff" d="M1098.27,-103.93C1105.86,-106.72 1113.47,-109.84 1120.5,-113.25 1137.8,-121.65 1139.08,-129.11 1156.5,-137.25 1160.54,-139.14 1164.75,-140.92 1169.05,-142.59"/>
<polygon fill="#63b8ff" stroke="#63b8ff" points="1167.84,-145.87 1178.43,-146.01 1170.24,-139.3 1167.84,-145.87"/>
</a>
</g>
</g>
<!-- Node21 -->
<g id="Node000021" class="node">
<title>Node21</title>
<g id="a_Node000021"><a xlink:href="classxeno__rat__server_1_1_compression.html#a5ca090d7b0887e40753bad9800c321e7" target="_top" xlink:title="Retrieves the size of the workspace required for compression.">
<polygon fill="white" stroke="#666666" points="1328.5,-128.5 1156.5,-128.5 1156.5,-98 1328.5,-98 1328.5,-128.5"/>
<text text-anchor="start" x="1164.5" y="-115" font-family="Helvetica,sans-Serif" font-size="10.00">xeno_rat_server.Compression.</text>
<text text-anchor="middle" x="1242.5" y="-103.75" font-family="Helvetica,sans-Serif" font-size="10.00">RtlGetCompressionWorkSpaceSize</text>
</a>
</g>
</g>
<!-- Node17&#45;&gt;Node21 -->
<g id="edge23_Node000017_Node000021" class="edge">
<title>Node17&#45;&gt;Node21</title>
<g id="a_edge23_Node000017_Node000021"><a xlink:title=" ">
<path fill="none" stroke="#63b8ff" d="M1117.9,-97.59C1126.68,-98.71 1135.74,-99.85 1144.77,-101"/>
<polygon fill="#63b8ff" stroke="#63b8ff" points="1144.32,-104.47 1154.68,-102.25 1145.2,-97.52 1144.32,-104.47"/>
</a>
</g>
</g>
</g>
</svg>

<g id="navigator" transform="translate(0 0)" fill="#404254">
  <rect fill="#f2f5e9" fill-opacity="0.5" stroke="#606060" stroke-width=".5" x="0" y="0" width="60" height="60"/>
  <use id="zoomplus" xlink:href="#zoomPlus" x="17" y="9" onmousedown="handleZoom(evt,'in')"/>
  <use id="zoomminus" xlink:href="#zoomMin" x="42" y="9" onmousedown="handleZoom(evt,'out')"/>
  <use id="reset" xlink:href="#resetDef" x="30" y="36" onmousedown="handleReset()"/>
   <use id="arrowup" xlink:href="#arrowUp" x="0" y="0" onmousedown="handlePan(0,-1)"/>
  <use id="arrowright" xlink:href="#arrowRight" x="0" y="0" onmousedown="handlePan(1,0)"/>
  <use id="arrowdown" xlink:href="#arrowDown" x="0" y="0" onmousedown="handlePan(0,1)"/>
  <use id="arrowleft" xlink:href="#arrowLeft" x="0" y="0" onmousedown="handlePan(-1,0)"/>
</g>
<svg viewBox="0 0 15 15" width="100%" height="30px" preserveAspectRatio="xMaxYMin meet">
 <g id="arrow_out" transform="scale(0.3 0.3)">
  <a xlink:href="classxeno__rat__server_1_1_forms_1_1_registry___manager_a08fce7cf1593b0345876938460a9424f_cgraph_org.svg" target="_base">
   <rect id="button" ry="5" rx="5" y="6" x="6" height="38" width="38"
        fill="#f2f5e9" fill-opacity="0.5" stroke="#606060" stroke-width="1.0"/>
   <path id="arrow"
     d="M 11.500037,31.436501 C 11.940474,20.09759 22.043105,11.32322 32.158766,21.979434 L 37.068811,17.246167 C 37.068811,17.246167 37.088388,32 37.088388,32 L 22.160133,31.978069 C 22.160133,31.978069 26.997745,27.140456 26.997745,27.140456 C 18.528582,18.264221 13.291696,25.230495 11.500037,31.436501 z"
     style="fill:#404040;"/>
  </a>
 </g>
</svg>

<style type='text/css'>
<![CDATA[
[data-mouse-over-selected='false'] { opacity: 0.7; }
[data-mouse-over-selected='true']  { opacity: 1.0; }
]]>
</style>
<script type="application/ecmascript"><![CDATA[
document.addEventListener('DOMContentLoaded', (event) => {
  highlightEdges();
  highlightAdjacentNodes();
});
]]></script>
</svg>
