<?xml version="1.0" encoding="UTF-8" standalone="no"?>
<!DOCTYPE svg PUBLIC "-//W3C//DTD SVG 1.1//EN"
 "http://www.w3.org/Graphics/SVG/1.1/DTD/svg11.dtd">
<!-- Generated by graphviz version 10.0.1 (20240210.2158)
 -->
<!-- Title: NAudio.Wave.AiffFileWriter.CreateCommChunk Pages: 1 -->
<svg width="488pt" height="131pt"
 viewBox="0.00 0.00 488.00 130.50" xmlns="http://www.w3.org/2000/svg" xmlns:xlink="http://www.w3.org/1999/xlink">
<g id="graph0" class="graph" transform="scale(1 1) rotate(0) translate(4 126.5)">
<title>NAudio.Wave.AiffFileWriter.CreateCommChunk</title>
<!-- Node1 -->
<g id="Node000001" class="node">
<title>Node1</title>
<g id="a_Node000001"><a xlink:title="Creates a &#39;COMM&#39; chunk in the WAV file.">
<polygon fill="#999999" stroke="#666666" points="137.5,-54.5 0,-54.5 0,-24 137.5,-24 137.5,-54.5"/>
<text text-anchor="start" x="8" y="-41" font-family="Helvetica,sans-Serif" font-size="10.00">NAudio.Wave.AiffFileWriter.</text>
<text text-anchor="middle" x="68.75" y="-29.75" font-family="Helvetica,sans-Serif" font-size="10.00">CreateCommChunk</text>
</a>
</g>
</g>
<!-- Node2 -->
<g id="Node000002" class="node">
<title>Node2</title>
<g id="a_Node000002"><a xlink:href="class_n_audio_1_1_utils_1_1_i_e_e_e.html#a5d1b37528c6a93f7bc6bf65c36fa1e3e" target="_top" xlink:title="Converts a double&#45;precision floating&#45;point number to its IEEE 754 extended precision representation.">
<polygon fill="white" stroke="#666666" points="309.88,-79.5 174.62,-79.5 174.62,-49 309.88,-49 309.88,-79.5"/>
<text text-anchor="start" x="182.62" y="-66" font-family="Helvetica,sans-Serif" font-size="10.00">NAudio.Utils.IEEE.Convert</text>
<text text-anchor="middle" x="242.25" y="-54.75" font-family="Helvetica,sans-Serif" font-size="10.00">ToIeeeExtended</text>
</a>
</g>
</g>
<!-- Node1&#45;&gt;Node2 -->
<g id="edge1_Node000001_Node000002" class="edge">
<title>Node1&#45;&gt;Node2</title>
<g id="a_edge1_Node000001_Node000002"><a xlink:title=" ">
<path fill="none" stroke="#63b8ff" d="M137.53,-49.13C145.93,-50.35 154.57,-51.61 163.11,-52.86"/>
<polygon fill="#63b8ff" stroke="#63b8ff" points="162.34,-56.28 172.74,-54.26 163.35,-49.36 162.34,-56.28"/>
</a>
</g>
</g>
<!-- Node6 -->
<g id="Node000006" class="node">
<title>Node6</title>
<g id="a_Node000006"><a xlink:href="class_n_audio_1_1_wave_1_1_aiff_file_writer.html#aa752886f7a9c0749b5d62c10cbed4e3c" target="_top" xlink:title="Swaps the endianness of the input integer and returns the result as a byte array.">
<polygon fill="white" stroke="#666666" points="311,-30.5 173.5,-30.5 173.5,0 311,0 311,-30.5"/>
<text text-anchor="start" x="181.5" y="-17" font-family="Helvetica,sans-Serif" font-size="10.00">NAudio.Wave.AiffFileWriter.</text>
<text text-anchor="middle" x="242.25" y="-5.75" font-family="Helvetica,sans-Serif" font-size="10.00">SwapEndian</text>
</a>
</g>
</g>
<!-- Node1&#45;&gt;Node6 -->
<g id="edge5_Node000001_Node000006" class="edge">
<title>Node1&#45;&gt;Node6</title>
<g id="a_edge5_Node000001_Node000006"><a xlink:title=" ">
<path fill="none" stroke="#63b8ff" d="M137.53,-29.76C145.49,-28.65 153.66,-27.51 161.75,-26.37"/>
<polygon fill="#63b8ff" stroke="#63b8ff" points="162.2,-29.85 171.62,-24.99 161.23,-22.91 162.2,-29.85"/>
</a>
</g>
</g>
<!-- Node3 -->
<g id="Node000003" class="node">
<title>Node3</title>
<g id="a_Node000003"><a xlink:href="class_n_audio_1_1_utils_1_1_i_e_e_e.html#acd9d9c5307c2b8226f36934ae3d38d4d" target="_top" xlink:title="Converts a floating&#45;point number to an unsigned long integer.">
<polygon fill="white" stroke="#666666" points="480,-122.5 347,-122.5 347,-92 480,-92 480,-122.5"/>
<text text-anchor="start" x="355" y="-109" font-family="Helvetica,sans-Serif" font-size="10.00">NAudio.Utils.IEEE.FloatTo</text>
<text text-anchor="middle" x="413.5" y="-97.75" font-family="Helvetica,sans-Serif" font-size="10.00">Unsigned</text>
</a>
</g>
</g>
<!-- Node2&#45;&gt;Node3 -->
<g id="edge2_Node000002_Node000003" class="edge">
<title>Node2&#45;&gt;Node3</title>
<g id="a_edge2_Node000002_Node000003"><a xlink:title=" ">
<path fill="none" stroke="#63b8ff" d="M304.83,-79.9C316.15,-82.77 328.06,-85.8 339.67,-88.75"/>
<polygon fill="#63b8ff" stroke="#63b8ff" points="338.66,-92.1 349.21,-91.17 340.38,-85.32 338.66,-92.1"/>
</a>
</g>
</g>
<!-- Node4 -->
<g id="Node000004" class="node">
<title>Node4</title>
<g id="a_Node000004"><a xlink:href="class_n_audio_1_1_utils_1_1_i_e_e_e.html#a29c46ad0fe2e6a53381f430342f06120" target="_top" xlink:title="Splits a double&#45;precision floating&#45;point value into a normalized fraction and an integral power of 2.">
<polygon fill="white" stroke="#666666" points="474.75,-73.88 352.25,-73.88 352.25,-54.62 474.75,-54.62 474.75,-73.88"/>
<text text-anchor="middle" x="413.5" y="-60.38" font-family="Helvetica,sans-Serif" font-size="10.00">NAudio.Utils.IEEE.frexp</text>
</a>
</g>
</g>
<!-- Node2&#45;&gt;Node4 -->
<g id="edge3_Node000002_Node000004" class="edge">
<title>Node2&#45;&gt;Node4</title>
<g id="a_edge3_Node000002_Node000004"><a xlink:title=" ">
<path fill="none" stroke="#63b8ff" d="M310.14,-64.25C320.14,-64.25 330.49,-64.25 340.6,-64.25"/>
<polygon fill="#63b8ff" stroke="#63b8ff" points="340.35,-67.75 350.35,-64.25 340.35,-60.75 340.35,-67.75"/>
</a>
</g>
</g>
<!-- Node5 -->
<g id="Node000005" class="node">
<title>Node5</title>
<g id="a_Node000005"><a xlink:href="class_n_audio_1_1_utils_1_1_i_e_e_e.html#a581705619f4fe799b9005f0a91e2cb6c" target="_top" xlink:title="Returns x multiplied by 2 raised to the power of exp.">
<polygon fill="white" stroke="#666666" points="475.5,-36.88 351.5,-36.88 351.5,-17.62 475.5,-17.62 475.5,-36.88"/>
<text text-anchor="middle" x="413.5" y="-23.38" font-family="Helvetica,sans-Serif" font-size="10.00">NAudio.Utils.IEEE.ldexp</text>
</a>
</g>
</g>
<!-- Node2&#45;&gt;Node5 -->
<g id="edge4_Node000002_Node000005" class="edge">
<title>Node2&#45;&gt;Node5</title>
<g id="a_edge4_Node000002_Node000005"><a xlink:title=" ">
<path fill="none" stroke="#63b8ff" d="M310.14,-49.63C325.16,-46.34 340.96,-42.89 355.54,-39.7"/>
<polygon fill="#63b8ff" stroke="#63b8ff" points="355.91,-43.21 364.93,-37.65 354.41,-36.37 355.91,-43.21"/>
</a>
</g>
</g>
</g>
</svg>
