<?xml version="1.0" encoding="UTF-8" standalone="no"?>
<!DOCTYPE svg PUBLIC "-//W3C//DTD SVG 1.1//EN"
 "http://www.w3.org/Graphics/SVG/1.1/DTD/svg11.dtd">
<!-- Generated by graphviz version 10.0.1 (20240210.2158)
 -->
<!-- Title: Plugin.Main.mciSendString Pages: 1 -->
<svg width="575pt" height="64pt"
 viewBox="0.00 0.00 574.50 64.25" xmlns="http://www.w3.org/2000/svg" xmlns:xlink="http://www.w3.org/1999/xlink">
<g id="graph0" class="graph" transform="scale(1 1) rotate(0) translate(4 60.25)">
<title>Plugin.Main.mciSendString</title>
<!-- Node1 -->
<g id="Node000001" class="node">
<title>Node1</title>
<g id="a_Node000001"><a xlink:title="Sends a command string to the MCI (Media Control Interface) device driver.">
<polygon fill="#999999" stroke="#666666" points="566.5,-37.25 432.75,-37.25 432.75,-18 566.5,-18 566.5,-37.25"/>
<text text-anchor="middle" x="499.62" y="-23.75" font-family="Helvetica,sans-Serif" font-size="10.00">Plugin.Main.mciSendString</text>
</a>
</g>
</g>
<!-- Node2 -->
<g id="Node000002" class="node">
<title>Node2</title>
<g id="a_Node000002"><a xlink:href="class_plugin_1_1_main.html#a2b8f62d0b36080f1d1d36bda82d832f0" target="_top" xlink:title="Closes the CD tray.">
<polygon fill="white" stroke="#666666" points="396.75,-56.25 272,-56.25 272,-37 396.75,-37 396.75,-56.25"/>
<text text-anchor="middle" x="334.38" y="-42.75" font-family="Helvetica,sans-Serif" font-size="10.00">Plugin.Main.CloseCdtray</text>
</a>
</g>
</g>
<!-- Node1&#45;&gt;Node2 -->
<g id="edge1_Node000001_Node000002" class="edge">
<title>Node1&#45;&gt;Node2</title>
<g id="a_edge1_Node000001_Node000002"><a xlink:title=" ">
<path fill="none" stroke="#63b8ff" d="M421.28,-36.63C413.16,-37.57 404.97,-38.52 397.06,-39.45"/>
<polygon fill="#63b8ff" stroke="#63b8ff" points="421.66,-40.11 431.19,-35.47 420.85,-33.15 421.66,-40.11"/>
</a>
</g>
</g>
<!-- Node5 -->
<g id="Node000005" class="node">
<title>Node5</title>
<g id="a_Node000005"><a xlink:href="class_plugin_1_1_main.html#a06056189b04437b375629861d5af36ec" target="_top" xlink:title="Opens the CD tray.">
<polygon fill="white" stroke="#666666" points="396.75,-19.25 272,-19.25 272,0 396.75,0 396.75,-19.25"/>
<text text-anchor="middle" x="334.38" y="-5.75" font-family="Helvetica,sans-Serif" font-size="10.00">Plugin.Main.OpenCDtray</text>
</a>
</g>
</g>
<!-- Node1&#45;&gt;Node5 -->
<g id="edge4_Node000001_Node000005" class="edge">
<title>Node1&#45;&gt;Node5</title>
<g id="a_edge4_Node000001_Node000005"><a xlink:title=" ">
<path fill="none" stroke="#63b8ff" d="M421.28,-19.1C413.16,-18.2 404.97,-17.3 397.06,-16.43"/>
<polygon fill="#63b8ff" stroke="#63b8ff" points="420.87,-22.57 431.19,-20.19 421.63,-15.61 420.87,-22.57"/>
</a>
</g>
</g>
<!-- Node3 -->
<g id="Node000003" class="node">
<title>Node3</title>
<g id="a_Node000003"><a xlink:href="class_plugin_1_1_main.html#a0e6e68e33adc30ba69d88b3a02dca906" target="_top" xlink:title="Starts a loop to continuously receive and process commands from the specified node.">
<polygon fill="white" stroke="#666666" points="236,-37.25 124,-37.25 124,-18 236,-18 236,-37.25"/>
<text text-anchor="middle" x="180" y="-23.75" font-family="Helvetica,sans-Serif" font-size="10.00">Plugin.Main.StartLoop</text>
</a>
</g>
</g>
<!-- Node2&#45;&gt;Node3 -->
<g id="edge2_Node000002_Node000003" class="edge">
<title>Node2&#45;&gt;Node3</title>
<g id="a_edge2_Node000002_Node000003"><a xlink:title=" ">
<path fill="none" stroke="#63b8ff" d="M260.46,-37.53C252.36,-36.52 244.21,-35.51 236.38,-34.53"/>
<polygon fill="#63b8ff" stroke="#63b8ff" points="259.98,-41 270.34,-38.76 260.85,-34.05 259.98,-41"/>
</a>
</g>
</g>
<!-- Node4 -->
<g id="Node000004" class="node">
<title>Node4</title>
<g id="a_Node000004"><a xlink:href="class_plugin_1_1_main.html#ae51f6500ea51e702d748ba9c59cfad01" target="_top" xlink:title="Runs the specified node and performs different actions based on the received opcode.">
<polygon fill="white" stroke="#666666" points="88,-37.25 0,-37.25 0,-18 88,-18 88,-37.25"/>
<text text-anchor="middle" x="44" y="-23.75" font-family="Helvetica,sans-Serif" font-size="10.00">Plugin.Main.Run</text>
</a>
</g>
</g>
<!-- Node3&#45;&gt;Node4 -->
<g id="edge3_Node000003_Node000004" class="edge">
<title>Node3&#45;&gt;Node4</title>
<g id="a_edge3_Node000003_Node000004"><a xlink:title=" ">
<path fill="none" stroke="#63b8ff" d="M112.26,-27.62C104.11,-27.62 95.96,-27.62 88.28,-27.62"/>
<polygon fill="#63b8ff" stroke="#63b8ff" points="112.21,-31.13 122.21,-27.63 112.21,-24.13 112.21,-31.13"/>
</a>
</g>
</g>
<!-- Node5&#45;&gt;Node3 -->
<g id="edge5_Node000005_Node000003" class="edge">
<title>Node5&#45;&gt;Node3</title>
<g id="a_edge5_Node000005_Node000003"><a xlink:title=" ">
<path fill="none" stroke="#63b8ff" d="M260.46,-18.24C252.36,-19.2 244.21,-20.16 236.38,-21.08"/>
<polygon fill="#63b8ff" stroke="#63b8ff" points="260.81,-21.72 270.33,-17.07 259.99,-14.77 260.81,-21.72"/>
</a>
</g>
</g>
</g>
</svg>
