<?xml version="1.0" encoding="UTF-8" standalone="no"?>
<!DOCTYPE svg PUBLIC "-//W3C//DTD SVG 1.1//EN"
 "http://www.w3.org/Graphics/SVG/1.1/DTD/svg11.dtd">
<!-- Generated by graphviz version 10.0.1 (20240210.2158)
 -->
<!-- Title: InfoGrab.SQLiteHandler.GetValue Pages: 1 -->
<svg width="343pt" height="236pt"
 viewBox="0.00 0.00 343.00 236.25" xmlns="http://www.w3.org/2000/svg" xmlns:xlink="http://www.w3.org/1999/xlink">

<svg id="main" version="1.1" xmlns="http://www.w3.org/2000/svg" xmlns:xlink="http://www.w3.org/1999/xlink" xml:space="preserve" onload="init(evt)">
<style type="text/css"><![CDATA[
.node, .edge {opacity: 0.7;}
.node.selected, .edge.selected {opacity: 1;}
.edge:hover path { stroke: red; }
.edge:hover polygon { stroke: red; fill: red; }
]]></style>
<script type="application/ecmascript" xlink:href="svg.min.js"/>
<svg id="graph" class="graph">
<g id="graph0" class="graph" transform="scale(1 1) rotate(0) translate(4 232.25)">
<title>InfoGrab.SQLiteHandler.GetValue</title>
<!-- Node1 -->
<g id="Node000001" class="node">
<title>Node1</title>
<g id="a_Node000001"><a xlink:title="Retrieves the value at the specified row and field.">
<polygon fill="#999999" stroke="#666666" points="335,-128.88 196.75,-128.88 196.75,-98.38 335,-98.38 335,-128.88"/>
<text text-anchor="start" x="204.75" y="-115.38" font-family="Helvetica,sans-Serif" font-size="10.00">InfoGrab.SQLiteHandler.Get</text>
<text text-anchor="middle" x="265.88" y="-104.12" font-family="Helvetica,sans-Serif" font-size="10.00">Value</text>
</a>
</g>
</g>
<!-- Node2 -->
<g id="Node000002" class="node">
<title>Node2</title>
<g id="a_Node000002"><a xlink:href="class_plugin_1_1_chromium.html#a4d1c5e452ea006c9af2e6f07698fc53f" target="_top" xlink:title=" ">
<polygon fill="white" stroke="#666666" points="153.25,-228.25 7.5,-228.25 7.5,-209 153.25,-209 153.25,-228.25"/>
<text text-anchor="middle" x="80.38" y="-214.75" font-family="Helvetica,sans-Serif" font-size="10.00">Plugin.Chromium.GetCookies</text>
</a>
</g>
</g>
<!-- Node1&#45;&gt;Node2 -->
<g id="edge1_Node000001_Node000002" class="edge">
<title>Node1&#45;&gt;Node2</title>
<g id="a_edge1_Node000001_Node000002"><a xlink:title=" ">
<path fill="none" stroke="#63b8ff" d="M242.57,-137.3C222.84,-156.85 192.37,-183.86 160.75,-199.62 153.52,-203.23 145.58,-206.17 137.59,-208.57"/>
<polygon fill="#63b8ff" stroke="#63b8ff" points="244.99,-139.83 249.52,-130.25 240.01,-134.91 244.99,-139.83"/>
</a>
</g>
</g>
<!-- Node3 -->
<g id="Node000003" class="node">
<title>Node3</title>
<g id="a_Node000003"><a xlink:href="class_plugin_1_1_chromium.html#a83d5541d95f12fe32767b63d8a0dbd63" target="_top" xlink:title=" ">
<polygon fill="white" stroke="#666666" points="148.38,-190.88 12.38,-190.88 12.38,-160.38 148.38,-160.38 148.38,-190.88"/>
<text text-anchor="start" x="20.38" y="-177.38" font-family="Helvetica,sans-Serif" font-size="10.00">Plugin.Chromium.GetCredit</text>
<text text-anchor="middle" x="80.38" y="-166.12" font-family="Helvetica,sans-Serif" font-size="10.00">Cards</text>
</a>
</g>
</g>
<!-- Node1&#45;&gt;Node3 -->
<g id="edge2_Node000001_Node000003" class="edge">
<title>Node1&#45;&gt;Node3</title>
<g id="a_edge2_Node000001_Node000003"><a xlink:title=" ">
<path fill="none" stroke="#63b8ff" d="M212.91,-133.24C196.32,-139.33 177.82,-145.93 160.75,-151.62 152.42,-154.4 143.55,-157.22 134.88,-159.9"/>
<polygon fill="#63b8ff" stroke="#63b8ff" points="213.93,-136.6 222.1,-129.85 211.5,-130.03 213.93,-136.6"/>
</a>
</g>
</g>
<!-- Node4 -->
<g id="Node000004" class="node">
<title>Node4</title>
<g id="a_Node000004"><a xlink:href="class_plugin_1_1_chromium.html#a65cc1bbba4c38f823713af851ad80eb4" target="_top" xlink:title=" ">
<polygon fill="white" stroke="#666666" points="159.62,-142.25 1.12,-142.25 1.12,-123 159.62,-123 159.62,-142.25"/>
<text text-anchor="middle" x="80.38" y="-128.75" font-family="Helvetica,sans-Serif" font-size="10.00">Plugin.Chromium.GetDownloads</text>
</a>
</g>
</g>
<!-- Node1&#45;&gt;Node4 -->
<g id="edge3_Node000001_Node000004" class="edge">
<title>Node1&#45;&gt;Node4</title>
<g id="a_edge3_Node000001_Node000004"><a xlink:title=" ">
<path fill="none" stroke="#63b8ff" d="M185.08,-121.89C176.78,-122.75 168.36,-123.62 160.07,-124.48"/>
<polygon fill="#63b8ff" stroke="#63b8ff" points="185.19,-125.39 194.78,-120.88 184.47,-118.43 185.19,-125.39"/>
</a>
</g>
</g>
<!-- Node5 -->
<g id="Node000005" class="node">
<title>Node5</title>
<g id="a_Node000005"><a xlink:href="class_plugin_1_1_chromium.html#ac52e16e02ad95b11b537359fc964ed58" target="_top" xlink:title=" ">
<polygon fill="white" stroke="#666666" points="157.38,-105.25 3.38,-105.25 3.38,-86 157.38,-86 157.38,-105.25"/>
<text text-anchor="middle" x="80.38" y="-91.75" font-family="Helvetica,sans-Serif" font-size="10.00">Plugin.Chromium.GetLoginData</text>
</a>
</g>
</g>
<!-- Node1&#45;&gt;Node5 -->
<g id="edge4_Node000001_Node000005" class="edge">
<title>Node1&#45;&gt;Node5</title>
<g id="a_edge4_Node000001_Node000005"><a xlink:title=" ">
<path fill="none" stroke="#63b8ff" d="M184.9,-105.78C175.83,-104.89 166.6,-103.99 157.58,-103.1"/>
<polygon fill="#63b8ff" stroke="#63b8ff" points="184.49,-109.26 194.78,-106.75 185.17,-102.29 184.49,-109.26"/>
</a>
</g>
</g>
<!-- Node6 -->
<g id="Node000006" class="node">
<title>Node6</title>
<g id="a_Node000006"><a xlink:href="class_info_grab_1_1_s_q_lite_handler.html#a83fe5d75d556576c3bf7aa0f1e60f509" target="_top" xlink:title=" ">
<polygon fill="white" stroke="#666666" points="149.5,-67.88 11.25,-67.88 11.25,-37.38 149.5,-37.38 149.5,-67.88"/>
<text text-anchor="start" x="19.25" y="-54.38" font-family="Helvetica,sans-Serif" font-size="10.00">InfoGrab.SQLiteHandler.Get</text>
<text text-anchor="middle" x="80.38" y="-43.12" font-family="Helvetica,sans-Serif" font-size="10.00">Value</text>
</a>
</g>
</g>
<!-- Node1&#45;&gt;Node6 -->
<g id="edge5_Node000001_Node000006" class="edge">
<title>Node1&#45;&gt;Node6</title>
<g id="a_edge5_Node000001_Node000006"><a xlink:title=" ">
<path fill="none" stroke="#63b8ff" d="M211.79,-94.21C195.47,-88.39 177.42,-82.1 160.75,-76.62 152.27,-73.84 143.24,-70.99 134.43,-68.28"/>
<polygon fill="#63b8ff" stroke="#63b8ff" points="210.21,-97.36 220.8,-97.44 212.57,-90.77 210.21,-97.36"/>
</a>
</g>
</g>
<!-- Node7 -->
<g id="Node000007" class="node">
<title>Node7</title>
<g id="a_Node000007"><a xlink:href="class_plugin_1_1_chromium.html#aae704fa742e5a23774102fb6ffb7d8f2" target="_top" xlink:title=" ">
<polygon fill="white" stroke="#666666" points="160.75,-19.25 0,-19.25 0,0 160.75,0 160.75,-19.25"/>
<text text-anchor="middle" x="80.38" y="-5.75" font-family="Helvetica,sans-Serif" font-size="10.00">Plugin.Chromium.GetWebHistory</text>
</a>
</g>
</g>
<!-- Node1&#45;&gt;Node7 -->
<g id="edge6_Node000001_Node000007" class="edge">
<title>Node1&#45;&gt;Node7</title>
<g id="a_edge6_Node000001_Node000007"><a xlink:title=" ">
<path fill="none" stroke="#63b8ff" d="M242.17,-89.9C222.41,-70.61 192.08,-44.14 160.75,-28.62 153.51,-25.04 145.56,-22.11 137.58,-19.72"/>
<polygon fill="#63b8ff" stroke="#63b8ff" points="239.6,-92.27 249.15,-96.86 244.54,-87.32 239.6,-92.27"/>
</a>
</g>
</g>
</g>
</svg>
</svg>

<style type='text/css'>
<![CDATA[
[data-mouse-over-selected='false'] { opacity: 0.7; }
[data-mouse-over-selected='true']  { opacity: 1.0; }
]]>
</style>
<script type="application/ecmascript"><![CDATA[
document.addEventListener('DOMContentLoaded', (event) => {
  highlightEdges();
  highlightAdjacentNodes();
});
]]></script>
</svg>
