<?xml version="1.0" encoding="UTF-8" standalone="no"?>
<!DOCTYPE svg PUBLIC "-//W3C//DTD SVG 1.1//EN"
 "http://www.w3.org/Graphics/SVG/1.1/DTD/svg11.dtd">
<!-- Generated by graphviz version 10.0.1 (20240210.2158)
 -->
<!-- Title: NAudio.Wave.WaveInEvent.Dispose Pages: 1 -->
<svg width="731pt" height="241pt"
 viewBox="0.00 0.00 731.25 240.50" xmlns="http://www.w3.org/2000/svg" xmlns:xlink="http://www.w3.org/1999/xlink">
<g id="graph0" class="graph" transform="scale(1 1) rotate(0) translate(4 236.5)">
<title>NAudio.Wave.WaveInEvent.Dispose</title>
<!-- Node1 -->
<g id="Node000001" class="node">
<title>Node1</title>
<g id="a_Node000001"><a xlink:title="Performs application&#45;defined tasks associated with freeing, releasing, or resetting unmanaged resourc...">
<polygon fill="#999999" stroke="#666666" points="140.5,-118.5 0,-118.5 0,-88 140.5,-88 140.5,-118.5"/>
<text text-anchor="start" x="8" y="-105" font-family="Helvetica,sans-Serif" font-size="10.00">NAudio.Wave.WaveInEvent.</text>
<text text-anchor="middle" x="70.25" y="-93.75" font-family="Helvetica,sans-Serif" font-size="10.00">Dispose</text>
</a>
</g>
</g>
<!-- Node2 -->
<g id="Node000002" class="node">
<title>Node2</title>
<g id="a_Node000002"><a xlink:href="class_n_audio_1_1_wave_1_1_wave_in_event.html#a4350bf5d2ccaac7bc0f5c702345df4c2" target="_top" xlink:title="Closes the wave input device and releases associated resources.">
<polygon fill="white" stroke="#666666" points="317,-154.5 176.5,-154.5 176.5,-124 317,-124 317,-154.5"/>
<text text-anchor="start" x="184.5" y="-141" font-family="Helvetica,sans-Serif" font-size="10.00">NAudio.Wave.WaveInEvent.</text>
<text text-anchor="middle" x="246.75" y="-129.75" font-family="Helvetica,sans-Serif" font-size="10.00">CloseWaveInDevice</text>
</a>
</g>
</g>
<!-- Node1&#45;&gt;Node2 -->
<g id="edge1_Node000001_Node000002" class="edge">
<title>Node1&#45;&gt;Node2</title>
<g id="a_edge1_Node000001_Node000002"><a xlink:title=" ">
<path fill="none" stroke="#63b8ff" d="M140.97,-117.63C148.84,-119.26 156.91,-120.92 164.91,-122.57"/>
<polygon fill="#63b8ff" stroke="#63b8ff" points="164.16,-125.99 174.66,-124.58 165.57,-119.14 164.16,-125.99"/>
</a>
</g>
</g>
<!-- Node6 -->
<g id="Node000006" class="node">
<title>Node6</title>
<g id="a_Node000006"><a xlink:href="class_n_audio_1_1_wave_1_1_wave_in_event.html#ae1ebb94727fb6b5a87db6b1f6e7be21e" target="_top" xlink:title="Stops the audio recording if it is currently in progress.">
<polygon fill="white" stroke="#666666" points="317,-94.5 176.5,-94.5 176.5,-64 317,-64 317,-94.5"/>
<text text-anchor="start" x="184.5" y="-81" font-family="Helvetica,sans-Serif" font-size="10.00">NAudio.Wave.WaveInEvent.</text>
<text text-anchor="middle" x="246.75" y="-69.75" font-family="Helvetica,sans-Serif" font-size="10.00">StopRecording</text>
</a>
</g>
</g>
<!-- Node1&#45;&gt;Node6 -->
<g id="edge6_Node000001_Node000006" class="edge">
<title>Node1&#45;&gt;Node6</title>
<g id="a_edge6_Node000001_Node000006"><a xlink:title=" ">
<path fill="none" stroke="#63b8ff" d="M140.97,-93.66C148.84,-92.58 156.91,-91.47 164.91,-90.37"/>
<polygon fill="#63b8ff" stroke="#63b8ff" points="165.21,-93.86 174.64,-89.03 164.26,-86.93 165.21,-93.86"/>
</a>
</g>
</g>
<!-- Node3 -->
<g id="Node000003" class="node">
<title>Node3</title>
<g id="a_Node000003"><a xlink:href="class_n_audio_1_1_wave_1_1_wave_in_buffer.html#aa64a1d38381ae46017fdd67388405d1c" target="_top" xlink:title="Releases the managed and unmanaged resources used by the WaveInRecorder.">
<polygon fill="white" stroke="#666666" points="503.25,-214.5 362.75,-214.5 362.75,-184 503.25,-184 503.25,-214.5"/>
<text text-anchor="start" x="370.75" y="-201" font-family="Helvetica,sans-Serif" font-size="10.00">NAudio.Wave.WaveInBuffer.</text>
<text text-anchor="middle" x="433" y="-189.75" font-family="Helvetica,sans-Serif" font-size="10.00">Dispose</text>
</a>
</g>
</g>
<!-- Node2&#45;&gt;Node3 -->
<g id="edge2_Node000002_Node000003" class="edge">
<title>Node2&#45;&gt;Node3</title>
<g id="a_edge2_Node000002_Node000003"><a xlink:title=" ">
<path fill="none" stroke="#63b8ff" d="M294.59,-154.99C312.81,-161.07 333.86,-168.04 353,-174.25 359.05,-176.21 365.36,-178.24 371.67,-180.26"/>
<polygon fill="#63b8ff" stroke="#63b8ff" points="370.2,-183.46 380.79,-183.16 372.33,-176.79 370.2,-183.46"/>
</a>
</g>
</g>
<!-- Node4 -->
<g id="Node000004" class="node">
<title>Node4</title>
<g id="a_Node000004"><a xlink:href="class_n_audio_1_1_wave_1_1_wave_interop.html#a700f666e57095399600aeb93c05150e2" target="_top" xlink:title="Closes the specified waveform&#45;audio input device.">
<polygon fill="white" stroke="#666666" points="513,-165.5 353,-165.5 353,-135 513,-135 513,-165.5"/>
<text text-anchor="start" x="361" y="-152" font-family="Helvetica,sans-Serif" font-size="10.00">NAudio.Wave.WaveInterop.wave</text>
<text text-anchor="middle" x="433" y="-140.75" font-family="Helvetica,sans-Serif" font-size="10.00">InClose</text>
</a>
</g>
</g>
<!-- Node2&#45;&gt;Node4 -->
<g id="edge4_Node000002_Node000004" class="edge">
<title>Node2&#45;&gt;Node4</title>
<g id="a_edge4_Node000002_Node000004"><a xlink:title=" ">
<path fill="none" stroke="#63b8ff" d="M317.41,-143.41C325.23,-143.88 333.29,-144.36 341.33,-144.84"/>
<polygon fill="#63b8ff" stroke="#63b8ff" points="340.97,-148.32 351.16,-145.42 341.38,-141.33 340.97,-148.32"/>
</a>
</g>
</g>
<!-- Node5 -->
<g id="Node000005" class="node">
<title>Node5</title>
<g id="a_Node000005"><a xlink:href="class_n_audio_1_1_wave_1_1_wave_interop.html#af3d2e5654fc9d1235350d9867e429293" target="_top" xlink:title="Resets the specified waveform&#45;audio input device.">
<polygon fill="white" stroke="#666666" points="513,-116.5 353,-116.5 353,-86 513,-86 513,-116.5"/>
<text text-anchor="start" x="361" y="-103" font-family="Helvetica,sans-Serif" font-size="10.00">NAudio.Wave.WaveInterop.wave</text>
<text text-anchor="middle" x="433" y="-91.75" font-family="Helvetica,sans-Serif" font-size="10.00">InReset</text>
</a>
</g>
</g>
<!-- Node2&#45;&gt;Node5 -->
<g id="edge5_Node000002_Node000005" class="edge">
<title>Node2&#45;&gt;Node5</title>
<g id="a_edge5_Node000002_Node000005"><a xlink:title=" ">
<path fill="none" stroke="#63b8ff" d="M317.41,-124.88C326.32,-123.05 335.53,-121.15 344.68,-119.26"/>
<polygon fill="#63b8ff" stroke="#63b8ff" points="345.21,-122.72 354.29,-117.28 343.79,-115.87 345.21,-122.72"/>
</a>
</g>
</g>
<!-- Node3&#45;&gt;Node3 -->
<g id="edge3_Node000003_Node000003" class="edge">
<title>Node3&#45;&gt;Node3</title>
<g id="a_edge3_Node000003_Node000003"><a xlink:title=" ">
<path fill="none" stroke="#63b8ff" d="M400,-214.99C393.26,-224.06 404.26,-232.5 433,-232.5 448.72,-232.5 459.13,-229.97 464.23,-226.2"/>
<polygon fill="#63b8ff" stroke="#63b8ff" points="467.67,-226.9 465.77,-216.48 460.75,-225.81 467.67,-226.9"/>
</a>
</g>
</g>
<!-- Node6&#45;&gt;Node5 -->
<g id="edge9_Node000006_Node000005" class="edge">
<title>Node6&#45;&gt;Node5</title>
<g id="a_edge9_Node000006_Node000005"><a xlink:title=" ">
<path fill="none" stroke="#63b8ff" d="M317.41,-87.57C325.23,-88.5 333.29,-89.46 341.33,-90.42"/>
<polygon fill="#63b8ff" stroke="#63b8ff" points="340.82,-93.89 351.17,-91.6 341.65,-86.94 340.82,-93.89"/>
</a>
</g>
</g>
<!-- Node7 -->
<g id="Node000007" class="node">
<title>Node7</title>
<g id="a_Node000007"><a xlink:href="class_n_audio_1_1_mm_exception.html#a1ca263e295226b2dff8fda80043242d2" target="_top" xlink:title="Throws an exception if the specified result is not equal to MmResult.NoError.">
<polygon fill="white" stroke="#666666" points="497.25,-67.88 368.75,-67.88 368.75,-48.62 497.25,-48.62 497.25,-67.88"/>
<text text-anchor="middle" x="433" y="-54.38" font-family="Helvetica,sans-Serif" font-size="10.00">NAudio.MmException.Try</text>
</a>
</g>
</g>
<!-- Node6&#45;&gt;Node7 -->
<g id="edge7_Node000006_Node000007" class="edge">
<title>Node6&#45;&gt;Node7</title>
<g id="a_edge7_Node000006_Node000007"><a xlink:title=" ">
<path fill="none" stroke="#63b8ff" d="M317.41,-71.31C330.33,-69.84 343.89,-68.29 356.97,-66.8"/>
<polygon fill="#63b8ff" stroke="#63b8ff" points="357.27,-70.29 366.81,-65.68 356.47,-63.34 357.27,-70.29"/>
</a>
</g>
</g>
<!-- Node9 -->
<g id="Node000009" class="node">
<title>Node9</title>
<g id="a_Node000009"><a xlink:href="class_n_audio_1_1_wave_1_1_wave_interop.html#a699a79d317473f9e255d783622dc8cac" target="_top" xlink:title="Stops audio input on the specified waveform&#45;audio input device.">
<polygon fill="white" stroke="#666666" points="513,-30.5 353,-30.5 353,0 513,0 513,-30.5"/>
<text text-anchor="start" x="361" y="-17" font-family="Helvetica,sans-Serif" font-size="10.00">NAudio.Wave.WaveInterop.wave</text>
<text text-anchor="middle" x="433" y="-5.75" font-family="Helvetica,sans-Serif" font-size="10.00">InStop</text>
</a>
</g>
</g>
<!-- Node6&#45;&gt;Node9 -->
<g id="edge10_Node000006_Node000009" class="edge">
<title>Node6&#45;&gt;Node9</title>
<g id="a_edge10_Node000006_Node000009"><a xlink:title=" ">
<path fill="none" stroke="#63b8ff" d="M287,-63.6C306.7,-55.94 330.99,-46.77 353,-39.25 357.78,-37.62 362.75,-35.98 367.75,-34.37"/>
<polygon fill="#63b8ff" stroke="#63b8ff" points="368.8,-37.71 377.28,-31.35 366.69,-31.03 368.8,-37.71"/>
</a>
</g>
</g>
<!-- Node8 -->
<g id="Node000008" class="node">
<title>Node8</title>
<g id="a_Node000008"><a xlink:href="class_n_audio_1_1_mm_exception.html#a674e0bb89c4e2aeb1f4ea96514710947" target="_top" xlink:title="Creates a new MmException.">
<polygon fill="white" stroke="#666666" points="723.25,-67.88 549,-67.88 549,-48.62 723.25,-48.62 723.25,-67.88"/>
<text text-anchor="middle" x="636.12" y="-54.38" font-family="Helvetica,sans-Serif" font-size="10.00">NAudio.MmException.MmException</text>
</a>
</g>
</g>
<!-- Node7&#45;&gt;Node8 -->
<g id="edge8_Node000007_Node000008" class="edge">
<title>Node7&#45;&gt;Node8</title>
<g id="a_edge8_Node000007_Node000008"><a xlink:title=" ">
<path fill="none" stroke="#63b8ff" d="M497.64,-58.25C510.31,-58.25 523.9,-58.25 537.42,-58.25"/>
<polygon fill="#63b8ff" stroke="#63b8ff" points="537.22,-61.75 547.22,-58.25 537.22,-54.75 537.22,-61.75"/>
</a>
</g>
</g>
</g>
</svg>
