<?xml version="1.0" encoding="UTF-8" standalone="no"?>
<!DOCTYPE svg PUBLIC "-//W3C//DTD SVG 1.1//EN"
 "http://www.w3.org/Graphics/SVG/1.1/DTD/svg11.dtd">
<!-- Generated by graphviz version 10.0.1 (20240210.2158)
 -->
<!-- Title: NAudio.Wave.WaveOut.Callback Pages: 1 -->
<svg width="753pt" height="103pt"
 viewBox="0.00 0.00 753.00 102.88" xmlns="http://www.w3.org/2000/svg" xmlns:xlink="http://www.w3.org/1999/xlink">
<g id="graph0" class="graph" transform="scale(1 1) rotate(0) translate(4 98.88)">
<title>NAudio.Wave.WaveOut.Callback</title>
<!-- Node1 -->
<g id="Node000001" class="node">
<title>Node1</title>
<g id="a_Node000001"><a xlink:title="Callback method for the wave out function.">
<polygon fill="#999999" stroke="#666666" points="160.75,-48.88 0,-48.88 0,-29.62 160.75,-29.62 160.75,-48.88"/>
<text text-anchor="middle" x="80.38" y="-35.38" font-family="Helvetica,sans-Serif" font-size="10.00">NAudio.Wave.WaveOut.Callback</text>
</a>
</g>
</g>
<!-- Node2 -->
<g id="Node000002" class="node">
<title>Node2</title>
<g id="a_Node000002"><a xlink:href="class_n_audio_1_1_wave_1_1_wave_out_buffer.html#a5a93e8b859a1c05cf8ac5ec2aee73f15" target="_top" xlink:title="Reads data from the wave stream, writes it to the output, and returns a boolean value indicating whet...">
<polygon fill="white" stroke="#666666" points="344.75,-79.5 196.75,-79.5 196.75,-49 344.75,-49 344.75,-79.5"/>
<text text-anchor="start" x="204.75" y="-66" font-family="Helvetica,sans-Serif" font-size="10.00">NAudio.Wave.WaveOutBuffer.</text>
<text text-anchor="middle" x="270.75" y="-54.75" font-family="Helvetica,sans-Serif" font-size="10.00">OnDone</text>
</a>
</g>
</g>
<!-- Node1&#45;&gt;Node2 -->
<g id="edge1_Node000001_Node000002" class="edge">
<title>Node1&#45;&gt;Node2</title>
<g id="a_edge1_Node000001_Node000002"><a xlink:title=" ">
<path fill="none" stroke="#63b8ff" d="M157.45,-49.35C166.6,-50.56 175.98,-51.81 185.24,-53.03"/>
<polygon fill="#63b8ff" stroke="#63b8ff" points="184.57,-56.48 194.94,-54.32 185.49,-49.54 184.57,-56.48"/>
</a>
</g>
</g>
<!-- Node6 -->
<g id="Node000006" class="node">
<title>Node6</title>
<g id="a_Node000006"><a xlink:href="class_n_audio_1_1_wave_1_1_wave_out.html#a7933f2b948f28376c221b862555586ac" target="_top" xlink:title="Raises the PlaybackStopped event with the specified exception.">
<polygon fill="white" stroke="#666666" points="344.75,-30.5 196.75,-30.5 196.75,0 344.75,0 344.75,-30.5"/>
<text text-anchor="start" x="204.75" y="-17" font-family="Helvetica,sans-Serif" font-size="10.00">NAudio.Wave.WaveOut.Raise</text>
<text text-anchor="middle" x="270.75" y="-5.75" font-family="Helvetica,sans-Serif" font-size="10.00">PlaybackStoppedEvent</text>
</a>
</g>
</g>
<!-- Node1&#45;&gt;Node6 -->
<g id="edge5_Node000001_Node000006" class="edge">
<title>Node1&#45;&gt;Node6</title>
<g id="a_edge5_Node000001_Node000006"><a xlink:title=" ">
<path fill="none" stroke="#63b8ff" d="M160.72,-29.14C168.78,-28.11 176.99,-27.07 185.11,-26.03"/>
<polygon fill="#63b8ff" stroke="#63b8ff" points="185.52,-29.51 195,-24.77 184.64,-22.57 185.52,-29.51"/>
</a>
</g>
</g>
<!-- Node3 -->
<g id="Node000003" class="node">
<title>Node3</title>
<g id="a_Node000003"><a xlink:href="interface_n_audio_1_1_wave_1_1_i_wave_provider.html#a1592be8cd7da05cc1a773b8d4ed979c0" target="_top" xlink:title="Fill the specified buffer with wave data.">
<polygon fill="white" stroke="#666666" points="549,-94.88 380.75,-94.88 380.75,-75.62 549,-75.62 549,-94.88"/>
<text text-anchor="middle" x="464.88" y="-81.38" font-family="Helvetica,sans-Serif" font-size="10.00">NAudio.Wave.IWaveProvider.Read</text>
</a>
</g>
</g>
<!-- Node2&#45;&gt;Node3 -->
<g id="edge2_Node000002_Node000003" class="edge">
<title>Node2&#45;&gt;Node3</title>
<g id="a_edge2_Node000002_Node000003"><a xlink:title=" ">
<path fill="none" stroke="#63b8ff" d="M345.21,-72.28C353.05,-73.14 361.12,-74.02 369.17,-74.9"/>
<polygon fill="#63b8ff" stroke="#63b8ff" points="368.69,-78.37 379.01,-75.97 369.45,-71.41 368.69,-78.37"/>
</a>
</g>
</g>
<!-- Node4 -->
<g id="Node000004" class="node">
<title>Node4</title>
<g id="a_Node000004"><a xlink:href="class_n_audio_1_1_wave_1_1_wave_out_buffer.html#ae6f9c36274c950e639fe0d97ab673423" target="_top" xlink:title="Writes the audio data to the WaveOut device for playback.">
<polygon fill="white" stroke="#666666" points="538.88,-57.5 390.88,-57.5 390.88,-27 538.88,-27 538.88,-57.5"/>
<text text-anchor="start" x="398.88" y="-44" font-family="Helvetica,sans-Serif" font-size="10.00">NAudio.Wave.WaveOutBuffer.</text>
<text text-anchor="middle" x="464.88" y="-32.75" font-family="Helvetica,sans-Serif" font-size="10.00">WriteToWaveOut</text>
</a>
</g>
</g>
<!-- Node2&#45;&gt;Node4 -->
<g id="edge3_Node000002_Node000004" class="edge">
<title>Node2&#45;&gt;Node4</title>
<g id="a_edge3_Node000002_Node000004"><a xlink:title=" ">
<path fill="none" stroke="#63b8ff" d="M345.21,-55.84C356.33,-54.56 367.88,-53.24 379.22,-51.94"/>
<polygon fill="#63b8ff" stroke="#63b8ff" points="379.42,-55.44 388.96,-50.83 378.62,-48.49 379.42,-55.44"/>
</a>
</g>
</g>
<!-- Node5 -->
<g id="Node000005" class="node">
<title>Node5</title>
<g id="a_Node000005"><a xlink:href="class_n_audio_1_1_wave_1_1_wave_interop.html#ab3c605e4c71d004f248d7760c6f69704" target="_top" xlink:title="Sends a data block to the specified waveform&#45;audio output device.">
<polygon fill="white" stroke="#666666" points="745,-57.5 585,-57.5 585,-27 745,-27 745,-57.5"/>
<text text-anchor="start" x="593" y="-44" font-family="Helvetica,sans-Serif" font-size="10.00">NAudio.Wave.WaveInterop.wave</text>
<text text-anchor="middle" x="665" y="-32.75" font-family="Helvetica,sans-Serif" font-size="10.00">OutWrite</text>
</a>
</g>
</g>
<!-- Node4&#45;&gt;Node5 -->
<g id="edge4_Node000004_Node000005" class="edge">
<title>Node4&#45;&gt;Node5</title>
<g id="a_edge4_Node000004_Node000005"><a xlink:title=" ">
<path fill="none" stroke="#63b8ff" d="M539.37,-42.25C550.44,-42.25 561.96,-42.25 573.34,-42.25"/>
<polygon fill="#63b8ff" stroke="#63b8ff" points="573.13,-45.75 583.13,-42.25 573.13,-38.75 573.13,-45.75"/>
</a>
</g>
</g>
</g>
</svg>
