<?xml version="1.0" encoding="UTF-8" standalone="no"?>
<!DOCTYPE svg PUBLIC "-//W3C//DTD SVG 1.1//EN"
 "http://www.w3.org/Graphics/SVG/1.1/DTD/svg11.dtd">
<!-- Generated by graphviz version 10.0.1 (20240210.2158)
 -->
<!-- Title: Plugin.InputHandler.SetCursorPos Pages: 1 -->
<svg width="475pt" height="382pt"
 viewBox="0.00 0.00 475.25 381.50" xmlns="http://www.w3.org/2000/svg" xmlns:xlink="http://www.w3.org/1999/xlink">

<svg id="main" version="1.1" xmlns="http://www.w3.org/2000/svg" xmlns:xlink="http://www.w3.org/1999/xlink" xml:space="preserve" onload="init(evt)">
<style type="text/css"><![CDATA[
.node, .edge {opacity: 0.7;}
.node.selected, .edge.selected {opacity: 1;}
.edge:hover path { stroke: red; }
.edge:hover polygon { stroke: red; fill: red; }
]]></style>
<script type="application/ecmascript" xlink:href="svg.min.js"/>
<svg id="graph" class="graph">
<g id="graph0" class="graph" transform="scale(1 1) rotate(0) translate(4 377.5)">
<title>Plugin.InputHandler.SetCursorPos</title>
<!-- Node1 -->
<g id="Node000001" class="node">
<title>Node1</title>
<g id="a_Node000001"><a xlink:title="Sets the cursor position to the specified coordinates.">
<polygon fill="#999999" stroke="#666666" points="467.25,-195.88 302,-195.88 302,-176.62 467.25,-176.62 467.25,-195.88"/>
<text text-anchor="middle" x="384.62" y="-182.38" font-family="Helvetica,sans-Serif" font-size="10.00">Plugin.InputHandler.SetCursorPos</text>
</a>
</g>
</g>
<!-- Node2 -->
<g id="Node000002" class="node">
<title>Node2</title>
<g id="a_Node000002"><a xlink:href="class_plugin_1_1_input_handler.html#afab2bce758da051316e17c1d54228b54" target="_top" xlink:title="Simulates a mouse click at the specified screen coordinates.">
<polygon fill="white" stroke="#666666" points="266,-373.5 124,-373.5 124,-343 266,-343 266,-373.5"/>
<text text-anchor="start" x="132" y="-360" font-family="Helvetica,sans-Serif" font-size="10.00">Plugin.InputHandler.Simulate</text>
<text text-anchor="middle" x="195" y="-348.75" font-family="Helvetica,sans-Serif" font-size="10.00">MouseClick</text>
</a>
</g>
</g>
<!-- Node1&#45;&gt;Node2 -->
<g id="edge1_Node000001_Node000002" class="edge">
<title>Node1&#45;&gt;Node2</title>
<g id="a_edge1_Node000001_Node000002"><a xlink:title=" ">
<path fill="none" stroke="#63b8ff" d="M372.91,-205.71C354.81,-236.9 315.28,-298.11 266,-333.25 261.06,-336.77 255.58,-339.84 249.91,-342.51"/>
<polygon fill="#63b8ff" stroke="#63b8ff" points="375.77,-207.77 377.65,-197.34 369.68,-204.32 375.77,-207.77"/>
</a>
</g>
</g>
<!-- Node4 -->
<g id="Node000004" class="node">
<title>Node4</title>
<g id="a_Node000004"><a xlink:href="class_plugin_1_1_input_handler.html#a6dfdfe9039ce19353dfc228ad16c7c4e" target="_top" xlink:title="Simulates a double click of the left mouse button at the specified screen coordinates.">
<polygon fill="white" stroke="#666666" points="266,-324.5 124,-324.5 124,-294 266,-294 266,-324.5"/>
<text text-anchor="start" x="132" y="-311" font-family="Helvetica,sans-Serif" font-size="10.00">Plugin.InputHandler.Simulate</text>
<text text-anchor="middle" x="195" y="-299.75" font-family="Helvetica,sans-Serif" font-size="10.00">MouseDoubleClick</text>
</a>
</g>
</g>
<!-- Node1&#45;&gt;Node4 -->
<g id="edge3_Node000001_Node000004" class="edge">
<title>Node1&#45;&gt;Node4</title>
<g id="a_edge3_Node000001_Node000004"><a xlink:title=" ">
<path fill="none" stroke="#63b8ff" d="M366.2,-204.22C344.47,-225.77 305.36,-261.78 266,-284.25 259.95,-287.71 253.34,-290.82 246.67,-293.57"/>
<polygon fill="#63b8ff" stroke="#63b8ff" points="368.52,-206.85 373.08,-197.29 363.55,-201.92 368.52,-206.85"/>
</a>
</g>
</g>
<!-- Node5 -->
<g id="Node000005" class="node">
<title>Node5</title>
<g id="a_Node000005"><a xlink:href="class_plugin_1_1_input_handler.html#a8baefc6bceb74d8a621ab3f18aa74335" target="_top" xlink:title="Simulates a mouse button press at the specified screen coordinates.">
<polygon fill="white" stroke="#666666" points="266,-275.5 124,-275.5 124,-245 266,-245 266,-275.5"/>
<text text-anchor="start" x="132" y="-262" font-family="Helvetica,sans-Serif" font-size="10.00">Plugin.InputHandler.Simulate</text>
<text text-anchor="middle" x="195" y="-250.75" font-family="Helvetica,sans-Serif" font-size="10.00">MouseDown</text>
</a>
</g>
</g>
<!-- Node1&#45;&gt;Node5 -->
<g id="edge5_Node000001_Node000005" class="edge">
<title>Node1&#45;&gt;Node5</title>
<g id="a_edge5_Node000001_Node000005"><a xlink:title=" ">
<path fill="none" stroke="#63b8ff" d="M349.9,-200.84C326.49,-210.84 294.5,-224.23 266,-235.25 257.94,-238.37 249.3,-241.57 240.94,-244.59"/>
<polygon fill="#63b8ff" stroke="#63b8ff" points="351.13,-204.12 358.94,-196.97 348.37,-197.69 351.13,-204.12"/>
</a>
</g>
</g>
<!-- Node6 -->
<g id="Node000006" class="node">
<title>Node6</title>
<g id="a_Node000006"><a xlink:href="class_plugin_1_1_input_handler.html#a9a9579d4111881fe138fa78c539972b4" target="_top" xlink:title="Simulates a middle mouse click at the specified screen coordinates.">
<polygon fill="white" stroke="#666666" points="266,-226.5 124,-226.5 124,-196 266,-196 266,-226.5"/>
<text text-anchor="start" x="132" y="-213" font-family="Helvetica,sans-Serif" font-size="10.00">Plugin.InputHandler.Simulate</text>
<text text-anchor="middle" x="195" y="-201.75" font-family="Helvetica,sans-Serif" font-size="10.00">MouseMiddleClick</text>
</a>
</g>
</g>
<!-- Node1&#45;&gt;Node6 -->
<g id="edge7_Node000001_Node000006" class="edge">
<title>Node1&#45;&gt;Node6</title>
<g id="a_edge7_Node000001_Node000006"><a xlink:title=" ">
<path fill="none" stroke="#63b8ff" d="M296.49,-197.86C286.37,-199.21 276.15,-200.57 266.29,-201.88"/>
<polygon fill="#63b8ff" stroke="#63b8ff" points="296.9,-201.34 306.35,-196.55 295.98,-194.4 296.9,-201.34"/>
</a>
</g>
</g>
<!-- Node7 -->
<g id="Node000007" class="node">
<title>Node7</title>
<g id="a_Node000007"><a xlink:href="class_plugin_1_1_input_handler.html#a52abda6836869d2cecd658427eb9f628" target="_top" xlink:title="Simulates a mouse move to the specified screen coordinates.">
<polygon fill="white" stroke="#666666" points="266,-177.5 124,-177.5 124,-147 266,-147 266,-177.5"/>
<text text-anchor="start" x="132" y="-164" font-family="Helvetica,sans-Serif" font-size="10.00">Plugin.InputHandler.Simulate</text>
<text text-anchor="middle" x="195" y="-152.75" font-family="Helvetica,sans-Serif" font-size="10.00">MouseMove</text>
</a>
</g>
</g>
<!-- Node1&#45;&gt;Node7 -->
<g id="edge9_Node000001_Node000007" class="edge">
<title>Node1&#45;&gt;Node7</title>
<g id="a_edge9_Node000001_Node000007"><a xlink:title=" ">
<path fill="none" stroke="#63b8ff" d="M293.2,-174.68C284.16,-173.53 275.08,-172.37 266.29,-171.24"/>
<polygon fill="#63b8ff" stroke="#63b8ff" points="292.73,-178.15 303.1,-175.95 293.62,-171.21 292.73,-178.15"/>
</a>
</g>
</g>
<!-- Node8 -->
<g id="Node000008" class="node">
<title>Node8</title>
<g id="a_Node000008"><a xlink:href="class_plugin_1_1_input_handler.html#a8630517bf45edf4db614156ced6f1a6a" target="_top" xlink:title="Simulates a right&#45;click of the mouse at the specified screen coordinates.">
<polygon fill="white" stroke="#666666" points="266,-128.5 124,-128.5 124,-98 266,-98 266,-128.5"/>
<text text-anchor="start" x="132" y="-115" font-family="Helvetica,sans-Serif" font-size="10.00">Plugin.InputHandler.Simulate</text>
<text text-anchor="middle" x="195" y="-103.75" font-family="Helvetica,sans-Serif" font-size="10.00">MouseRightClick</text>
</a>
</g>
</g>
<!-- Node1&#45;&gt;Node8 -->
<g id="edge11_Node000001_Node000008" class="edge">
<title>Node1&#45;&gt;Node8</title>
<g id="a_edge11_Node000001_Node000008"><a xlink:title=" ">
<path fill="none" stroke="#63b8ff" d="M349.43,-171.83C326.05,-162.08 294.28,-149.06 266,-138.25 257.92,-135.16 249.28,-131.98 240.92,-128.96"/>
<polygon fill="#63b8ff" stroke="#63b8ff" points="347.9,-174.98 358.47,-175.61 350.6,-168.52 347.9,-174.98"/>
</a>
</g>
</g>
<!-- Node9 -->
<g id="Node000009" class="node">
<title>Node9</title>
<g id="a_Node000009"><a xlink:href="class_plugin_1_1_input_handler.html#acf5e76a7be18c26c96d62f4af03135d0" target="_top" xlink:title="Simulates mouse scrolling at the specified screen coordinates by the given scroll amount.">
<polygon fill="white" stroke="#666666" points="266,-79.5 124,-79.5 124,-49 266,-49 266,-79.5"/>
<text text-anchor="start" x="132" y="-66" font-family="Helvetica,sans-Serif" font-size="10.00">Plugin.InputHandler.Simulate</text>
<text text-anchor="middle" x="195" y="-54.75" font-family="Helvetica,sans-Serif" font-size="10.00">MouseScroll</text>
</a>
</g>
</g>
<!-- Node1&#45;&gt;Node9 -->
<g id="edge13_Node000001_Node000009" class="edge">
<title>Node1&#45;&gt;Node9</title>
<g id="a_edge13_Node000001_Node000009"><a xlink:title=" ">
<path fill="none" stroke="#63b8ff" d="M366.16,-168.48C344.4,-147.16 305.25,-111.53 266,-89.25 259.94,-85.81 253.32,-82.71 246.65,-79.96"/>
<polygon fill="#63b8ff" stroke="#63b8ff" points="363.5,-170.76 373.05,-175.33 368.43,-165.8 363.5,-170.76"/>
</a>
</g>
</g>
<!-- Node10 -->
<g id="Node000010" class="node">
<title>Node10</title>
<g id="a_Node000010"><a xlink:href="class_plugin_1_1_input_handler.html#a2287281b323d701947ab1c398f21cc71" target="_top" xlink:title="Simulates a mouse up event at the specified screen coordinates.">
<polygon fill="white" stroke="#666666" points="266,-30.5 124,-30.5 124,0 266,0 266,-30.5"/>
<text text-anchor="start" x="132" y="-17" font-family="Helvetica,sans-Serif" font-size="10.00">Plugin.InputHandler.Simulate</text>
<text text-anchor="middle" x="195" y="-5.75" font-family="Helvetica,sans-Serif" font-size="10.00">MouseUp</text>
</a>
</g>
</g>
<!-- Node1&#45;&gt;Node10 -->
<g id="edge14_Node000001_Node000010" class="edge">
<title>Node1&#45;&gt;Node10</title>
<g id="a_edge14_Node000001_Node000010"><a xlink:title=" ">
<path fill="none" stroke="#63b8ff" d="M372.61,-166.47C354.34,-135.37 314.89,-74.99 266,-40.25 260.95,-36.66 255.33,-33.54 249.54,-30.84"/>
<polygon fill="#63b8ff" stroke="#63b8ff" points="369.41,-167.92 377.42,-174.85 375.48,-164.43 369.41,-167.92"/>
</a>
</g>
</g>
<!-- Node3 -->
<g id="Node000003" class="node">
<title>Node3</title>
<g id="a_Node000003"><a xlink:href="class_plugin_1_1_main.html#ae51f6500ea51e702d748ba9c59cfad01" target="_top" xlink:title="Asynchronously runs the specified node and performs various actions based on the received data.">
<polygon fill="white" stroke="#666666" points="88,-220.88 0,-220.88 0,-201.62 88,-201.62 88,-220.88"/>
<text text-anchor="middle" x="44" y="-207.38" font-family="Helvetica,sans-Serif" font-size="10.00">Plugin.Main.Run</text>
</a>
</g>
</g>
<!-- Node2&#45;&gt;Node3 -->
<g id="edge2_Node000002_Node000003" class="edge">
<title>Node2&#45;&gt;Node3</title>
<g id="a_edge2_Node000002_Node000003"><a xlink:title=" ">
<path fill="none" stroke="#63b8ff" d="M129.34,-337.1C127.49,-335.88 125.71,-334.6 124,-333.25 84.23,-301.77 58.21,-244.51 48.87,-221.37"/>
<polygon fill="#63b8ff" stroke="#63b8ff" points="127.28,-339.95 137.69,-341.89 130.76,-333.88 127.28,-339.95"/>
</a>
</g>
</g>
<!-- Node4&#45;&gt;Node3 -->
<g id="edge4_Node000004_Node000003" class="edge">
<title>Node4&#45;&gt;Node3</title>
<g id="a_edge4_Node000004_Node000003"><a xlink:title=" ">
<path fill="none" stroke="#63b8ff" d="M132.1,-288.74C129.32,-287.32 126.6,-285.82 124,-284.25 94.77,-266.55 66.96,-236.85 53.48,-221.35"/>
<polygon fill="#63b8ff" stroke="#63b8ff" points="130.51,-291.86 141.05,-292.91 133.46,-285.52 130.51,-291.86"/>
</a>
</g>
</g>
<!-- Node5&#45;&gt;Node3 -->
<g id="edge6_Node000005_Node000003" class="edge">
<title>Node5&#45;&gt;Node3</title>
<g id="a_edge6_Node000005_Node000003"><a xlink:title=" ">
<path fill="none" stroke="#63b8ff" d="M135.62,-241.05C115.16,-234.32 92.99,-227.03 75.7,-221.35"/>
<polygon fill="#63b8ff" stroke="#63b8ff" points="134.42,-244.34 145.01,-244.14 136.6,-237.69 134.42,-244.34"/>
</a>
</g>
</g>
<!-- Node6&#45;&gt;Node3 -->
<g id="edge8_Node000006_Node000003" class="edge">
<title>Node6&#45;&gt;Node3</title>
<g id="a_edge8_Node000006_Node000003"><a xlink:title=" ">
<path fill="none" stroke="#63b8ff" d="M112.53,-211.25C104.25,-211.25 96.08,-211.25 88.45,-211.25"/>
<polygon fill="#63b8ff" stroke="#63b8ff" points="112.35,-214.75 122.35,-211.25 112.35,-207.75 112.35,-214.75"/>
</a>
</g>
</g>
<!-- Node7&#45;&gt;Node3 -->
<g id="edge10_Node000007_Node000003" class="edge">
<title>Node7&#45;&gt;Node3</title>
<g id="a_edge10_Node000007_Node000003"><a xlink:title=" ">
<path fill="none" stroke="#63b8ff" d="M135.62,-181.45C115.16,-188.18 92.99,-195.47 75.7,-201.15"/>
<polygon fill="#63b8ff" stroke="#63b8ff" points="136.6,-184.81 145.01,-178.36 134.42,-178.16 136.6,-184.81"/>
</a>
</g>
</g>
<!-- Node8&#45;&gt;Node3 -->
<g id="edge12_Node000008_Node000003" class="edge">
<title>Node8&#45;&gt;Node3</title>
<g id="a_edge12_Node000008_Node000003"><a xlink:title=" ">
<path fill="none" stroke="#63b8ff" d="M132.1,-133.76C129.32,-135.18 126.6,-136.68 124,-138.25 94.77,-155.95 66.96,-185.65 53.48,-201.15"/>
<polygon fill="#63b8ff" stroke="#63b8ff" points="133.46,-136.98 141.05,-129.59 130.51,-130.64 133.46,-136.98"/>
</a>
</g>
</g>
<!-- Node10&#45;&gt;Node3 -->
<g id="edge15_Node000010_Node000003" class="edge">
<title>Node10&#45;&gt;Node3</title>
<g id="a_edge15_Node000010_Node000003"><a xlink:title=" ">
<path fill="none" stroke="#63b8ff" d="M127.81,-37.05C126.49,-38.07 125.22,-39.13 124,-40.25 73.31,-86.58 52.62,-171.97 46.83,-201.16"/>
<polygon fill="#63b8ff" stroke="#63b8ff" points="129.36,-40.22 135.81,-31.81 125.53,-34.36 129.36,-40.22"/>
</a>
</g>
</g>
</g>
</svg>
</svg>

<style type='text/css'>
<![CDATA[
[data-mouse-over-selected='false'] { opacity: 0.7; }
[data-mouse-over-selected='true']  { opacity: 1.0; }
]]>
</style>
<script type="application/ecmascript"><![CDATA[
document.addEventListener('DOMContentLoaded', (event) => {
  highlightEdges();
  highlightAdjacentNodes();
});
]]></script>
</svg>
