<?xml version="1.0" encoding="UTF-8" standalone="no"?>
<!DOCTYPE svg PUBLIC "-//W3C//DTD SVG 1.1//EN"
 "http://www.w3.org/Graphics/SVG/1.1/DTD/svg11.dtd">
<!-- Generated by graphviz version 10.0.1 (20240210.2158)
 -->
<!-- Title: NAudio.Wave.SampleProviders.MeteringSampleProvider Pages: 1 -->
<svg width="158pt" height="273pt"
 viewBox="0.00 0.00 158.00 273.00" xmlns="http://www.w3.org/2000/svg" xmlns:xlink="http://www.w3.org/1999/xlink">
<g id="graph0" class="graph" transform="scale(1 1) rotate(0) translate(4 269)">
<title>NAudio.Wave.SampleProviders.MeteringSampleProvider</title>
<!-- Node1 -->
<g id="Node000001" class="node">
<title>Node1</title>
<g id="a_Node000001"><a xlink:title="Simple SampleProvider that passes through audio unchanged and raises an event every n samples with th...">
<polygon fill="#999999" stroke="none" points="150,-180 0,-180 0,0 150,0 150,-180"/>
<text text-anchor="start" x="4.88" y="-166.5" font-family="Helvetica,sans-Serif" font-size="10.00">NAudio.Wave.SampleProviders.</text>
<text text-anchor="start" x="21.75" y="-155.25" font-family="Helvetica,sans-Serif" font-size="10.00">MeteringSampleProvider</text>
<text text-anchor="start" x="9" y="-140.5" font-family="Helvetica,sans-Serif" font-size="10.00">+</text>
<text text-anchor="start" x="24" y="-140.5" font-family="Helvetica,sans-Serif" font-size="10.00">SamplesPerNotification</text>
<text text-anchor="start" x="9" y="-125.5" font-family="Helvetica,sans-Serif" font-size="10.00">+</text>
<text text-anchor="start" x="24" y="-125.5" font-family="Helvetica,sans-Serif" font-size="10.00">WaveFormat</text>
<text text-anchor="start" x="10.5" y="-110.5" font-family="Helvetica,sans-Serif" font-size="10.00">&#45;</text>
<text text-anchor="start" x="24" y="-110.5" font-family="Helvetica,sans-Serif" font-size="10.00">source</text>
<text text-anchor="start" x="10.5" y="-95.5" font-family="Helvetica,sans-Serif" font-size="10.00">&#45;</text>
<text text-anchor="start" x="24" y="-95.5" font-family="Helvetica,sans-Serif" font-size="10.00">maxSamples</text>
<text text-anchor="start" x="10.5" y="-80.5" font-family="Helvetica,sans-Serif" font-size="10.00">&#45;</text>
<text text-anchor="start" x="24" y="-80.5" font-family="Helvetica,sans-Serif" font-size="10.00">sampleCount</text>
<text text-anchor="start" x="10.5" y="-65.5" font-family="Helvetica,sans-Serif" font-size="10.00">&#45;</text>
<text text-anchor="start" x="24" y="-65.5" font-family="Helvetica,sans-Serif" font-size="10.00">channels</text>
<text text-anchor="start" x="10.5" y="-50.5" font-family="Helvetica,sans-Serif" font-size="10.00">&#45;</text>
<text text-anchor="start" x="24" y="-50.5" font-family="Helvetica,sans-Serif" font-size="10.00">args</text>
<text text-anchor="start" x="9" y="-35.5" font-family="Helvetica,sans-Serif" font-size="10.00">+</text>
<text text-anchor="start" x="24" y="-35.5" font-family="Helvetica,sans-Serif" font-size="10.00">MeteringSampleProvider()</text>
<text text-anchor="start" x="9" y="-20.5" font-family="Helvetica,sans-Serif" font-size="10.00">+</text>
<text text-anchor="start" x="24" y="-20.5" font-family="Helvetica,sans-Serif" font-size="10.00">MeteringSampleProvider()</text>
<text text-anchor="start" x="9" y="-5.5" font-family="Helvetica,sans-Serif" font-size="10.00">+</text>
<text text-anchor="start" x="24" y="-5.5" font-family="Helvetica,sans-Serif" font-size="10.00">Read()</text>
<polygon fill="#666666" stroke="#666666" points="0,-152 0,-152 150,-152 150,-152 0,-152"/>
<polygon fill="#666666" stroke="#666666" points="0,-47 0,-47 22,-47 22,-47 0,-47"/>
<polygon fill="#666666" stroke="#666666" points="22,-47 22,-47 150,-47 150,-47 22,-47"/>
<polygon fill="none" stroke="#666666" points="0,0 0,-180 150,-180 150,0 0,0"/>
</a>
</g>
</g>
<!-- Node2 -->
<g id="Node000002" class="node">
<title>Node2</title>
<g id="a_Node000002"><a xlink:href="interface_n_audio_1_1_wave_1_1_i_sample_provider.html" target="_top" xlink:title="Like IWaveProvider, but makes it much simpler to put together a 32 bit floating point mixing engine.">
<polygon fill="white" stroke="none" points="116,-265 34,-265 34,-216 116,-216 116,-265"/>
<text text-anchor="start" x="39" y="-251.5" font-family="Helvetica,sans-Serif" font-size="10.00">ISampleProvider</text>
<text text-anchor="start" x="40" y="-236.5" font-family="Helvetica,sans-Serif" font-size="10.00">+</text>
<text text-anchor="start" x="52" y="-236.5" font-family="Helvetica,sans-Serif" font-size="10.00">WaveFormat</text>
<text text-anchor="start" x="40" y="-221.5" font-family="Helvetica,sans-Serif" font-size="10.00">+</text>
<text text-anchor="start" x="52" y="-221.5" font-family="Helvetica,sans-Serif" font-size="10.00">Read()</text>
<polygon fill="#666666" stroke="#666666" points="34,-248 34,-248 116,-248 116,-248 34,-248"/>
<polygon fill="#666666" stroke="#666666" points="34,-233 34,-233 50,-233 50,-233 34,-233"/>
<polygon fill="#666666" stroke="#666666" points="50,-233 50,-233 116,-233 116,-233 50,-233"/>
<polygon fill="none" stroke="#666666" points="34,-216 34,-265 116,-265 116,-216 34,-216"/>
</a>
</g>
</g>
<!-- Node2&#45;&gt;Node1 -->
<g id="edge1_Node000001_Node000002" class="edge">
<title>Node2&#45;&gt;Node1</title>
<g id="a_edge1_Node000001_Node000002"><a xlink:title=" ">
<path fill="none" stroke="#63b8ff" d="M75,-204.88C75,-197.14 75,-188.58 75,-179.74"/>
<polygon fill="none" stroke="#63b8ff" points="71.5,-204.78 75,-214.78 78.5,-204.78 71.5,-204.78"/>
</a>
</g>
</g>
</g>
</svg>
