<?xml version="1.0" encoding="UTF-8" standalone="no"?>
<!DOCTYPE svg PUBLIC "-//W3C//DTD SVG 1.1//EN"
 "http://www.w3.org/Graphics/SVG/1.1/DTD/svg11.dtd">
<!-- Generated by graphviz version 10.0.1 (20240210.2158)
 -->
<!-- Title: Plugin.Main.Process32Next Pages: 1 -->
<!--zoomable 76 -->

<svg id="main" version="1.1" xmlns="http://www.w3.org/2000/svg" xmlns:xlink="http://www.w3.org/1999/xlink" xml:space="preserve" onload="init(evt)">
<style type="text/css"><![CDATA[
.node, .edge {opacity: 0.7;}
.node.selected, .edge.selected {opacity: 1;}
.edge:hover path { stroke: red; }
.edge:hover polygon { stroke: red; fill: red; }
]]></style>

<defs>
  <circle id="rim" cx="0" cy="0" r="7"/>
  <circle id="rim2" cx="0" cy="0" r="3.5"/>
  <g id="zoomPlus">
    <use xlink:href="#rim" fill="#404040"><set attributeName="fill" to="#808080" begin="zoomplus.mouseover" end="zoomplus.mouseout"/></use>
    <path d="M-4,0h8M0,-4v8" fill="none" stroke="white" stroke-width="1.5" pointer-events="none"/>
  </g>
  <g id="zoomMin">
    <use xlink:href="#rim" fill="#404040"><set attributeName="fill" to="#808080" begin="zoomminus.mouseover" end="zoomminus.mouseout"/></use>
    <path d="M-4,0h8" fill="none" stroke="white" stroke-width="1.5" pointer-events="none"/>
  </g>
  <g id="arrowUp" transform="translate(30 24)">
    <use xlink:href="#rim"/>
    <path pointer-events="none" fill="none" stroke="white" stroke-width="1.5" d="M0,-3.0v7 M-2.5,-0.5L0,-3.0L2.5,-0.5"/>
  </g>
  <g id="arrowRight" transform="rotate(90) translate(36 -43)">
    <use xlink:href="#rim"/>
    <path pointer-events="none" fill="none" stroke="white" stroke-width="1.5" d="M0,-3.0v7 M-2.5,-0.5L0,-3.0L2.5,-0.5"/>
  </g>
  <g id="arrowDown" transform="rotate(180) translate(-30 -48)">
    <use xlink:href="#rim"/>
    <path pointer-events="none" fill="none" stroke="white" stroke-width="1.5" d="M0,-3.0v7 M-2.5,-0.5L0,-3.0L2.5,-0.5"/>
  </g>
  <g id="arrowLeft" transform="rotate(270) translate(-36 17)">
    <use xlink:href="#rim"/>
    <path pointer-events="none" fill="none" stroke="white" stroke-width="1.5" d="M0,-3.0v7 M-2.5,-0.5L0,-3.0L2.5,-0.5"/>
  </g>
  <g id="resetDef">
    <use xlink:href="#rim2" fill="#404040"><set attributeName="fill" to="#808080" begin="reset.mouseover" end="reset.mouseout"/></use>
  </g>
</defs>
<script type="application/ecmascript">
var viewWidth = 653;
var viewHeight = 76;
var sectionId = 'dynsection-85';
</script>
<script type="application/ecmascript" xlink:href="svg.min.js"/>
<svg id="graph" class="graph">
<g id="viewport">
<title>Plugin.Main.Process32Next</title>
<!-- Node1 -->
<g id="Node000001" class="node">
<title>Node1</title>
<g id="a_Node000001"><a xlink:title="Retrieves information about the next process recorded in a system snapshot.">
<polygon fill="#999999" stroke="#666666" points="645.25,-45.88 507.75,-45.88 507.75,-26.62 645.25,-26.62 645.25,-45.88"/>
<text text-anchor="middle" x="576.5" y="-32.38" font-family="Helvetica,sans-Serif" font-size="10.00">Plugin.Main.Process32Next</text>
</a>
</g>
</g>
<!-- Node2 -->
<g id="Node000002" class="node">
<title>Node2</title>
<g id="a_Node000002"><a xlink:href="class_plugin_1_1_main.html#abfd21cc1bbcaeaf43a475ce2bf42eadf" target="_top" xlink:title="Retrieves the parent process ID of the specified process.">
<polygon fill="white" stroke="#666666" points="471.75,-67.88 313.25,-67.88 313.25,-48.62 471.75,-48.62 471.75,-67.88"/>
<text text-anchor="middle" x="392.5" y="-54.38" font-family="Helvetica,sans-Serif" font-size="10.00">Plugin.Main.GetParentProcessId</text>
</a>
</g>
</g>
<!-- Node1&#45;&gt;Node2 -->
<g id="edge1_Node000001_Node000002" class="edge">
<title>Node1&#45;&gt;Node2</title>
<g id="a_edge1_Node000001_Node000002"><a xlink:title=" ">
<path fill="none" stroke="#63b8ff" d="M496.28,-45.83C488.28,-46.79 480.16,-47.77 472.17,-48.74"/>
<polygon fill="#63b8ff" stroke="#63b8ff" points="496.46,-49.33 505.97,-44.65 495.62,-42.38 496.46,-49.33"/>
</a>
</g>
</g>
<!-- Node5 -->
<g id="Node000005" class="node">
<title>Node5</title>
<g id="a_Node000005"><a xlink:href="class_plugin_1_1_main.html#ad18960a3d5a0e2918abea431a5d494a8" target="_top" xlink:title="Asynchronously retrieves the parent process ID for the given process.">
<polygon fill="white" stroke="#666666" points="467.62,-30.5 317.38,-30.5 317.38,0 467.62,0 467.62,-30.5"/>
<text text-anchor="start" x="325.38" y="-17" font-family="Helvetica,sans-Serif" font-size="10.00">Plugin.Main.GetParentProcess</text>
<text text-anchor="middle" x="392.5" y="-5.75" font-family="Helvetica,sans-Serif" font-size="10.00">IdAsync</text>
</a>
</g>
</g>
<!-- Node1&#45;&gt;Node5 -->
<g id="edge4_Node000001_Node000005" class="edge">
<title>Node1&#45;&gt;Node5</title>
<g id="a_edge4_Node000001_Node000005"><a xlink:title=" ">
<path fill="none" stroke="#63b8ff" d="M496.13,-27.09C486.73,-26.01 477.17,-24.9 467.85,-23.83"/>
<polygon fill="#63b8ff" stroke="#63b8ff" points="495.63,-30.56 505.97,-28.23 496.43,-23.6 495.63,-30.56"/>
</a>
</g>
</g>
<!-- Node3 -->
<g id="Node000003" class="node">
<title>Node3</title>
<g id="a_Node000003"><a xlink:href="class_plugin_1_1_main.html#a095a0b17c37ef329196f6aa0363a5567" target="_top" xlink:title="Gets the root processes from the provided process map.">
<polygon fill="white" stroke="#666666" points="277.25,-65.88 124,-65.88 124,-46.62 277.25,-46.62 277.25,-65.88"/>
<text text-anchor="middle" x="200.62" y="-52.38" font-family="Helvetica,sans-Serif" font-size="10.00">Plugin.Main.GetRootProcesses</text>
</a>
</g>
</g>
<!-- Node2&#45;&gt;Node3 -->
<g id="edge2_Node000002_Node000003" class="edge">
<title>Node2&#45;&gt;Node3</title>
<g id="a_edge2_Node000002_Node000003"><a xlink:title=" ">
<path fill="none" stroke="#63b8ff" d="M301.64,-57.3C293.64,-57.22 285.59,-57.13 277.72,-57.05"/>
<polygon fill="#63b8ff" stroke="#63b8ff" points="301.35,-60.8 311.39,-57.41 301.42,-53.8 301.35,-60.8"/>
</a>
</g>
</g>
<!-- Node4 -->
<g id="Node000004" class="node">
<title>Node4</title>
<g id="a_Node000004"><a xlink:href="class_plugin_1_1_main.html#ae51f6500ea51e702d748ba9c59cfad01" target="_top" xlink:title="Asynchronously runs the node and sends process information to the connected node.">
<polygon fill="white" stroke="#666666" points="88,-45.88 0,-45.88 0,-26.62 88,-26.62 88,-45.88"/>
<text text-anchor="middle" x="44" y="-32.38" font-family="Helvetica,sans-Serif" font-size="10.00">Plugin.Main.Run</text>
</a>
</g>
</g>
<!-- Node3&#45;&gt;Node4 -->
<g id="edge3_Node000003_Node000004" class="edge">
<title>Node3&#45;&gt;Node4</title>
<g id="a_edge3_Node000003_Node000004"><a xlink:title=" ">
<path fill="none" stroke="#63b8ff" d="M112.52,-44.98C104.09,-43.89 95.81,-42.82 88.1,-41.82"/>
<polygon fill="#63b8ff" stroke="#63b8ff" points="111.8,-48.42 122.17,-46.23 112.7,-41.48 111.8,-48.42"/>
</a>
</g>
</g>
<!-- Node6 -->
<g id="Node000006" class="node">
<title>Node6</title>
<g id="a_Node000006"><a xlink:href="class_plugin_1_1_main.html#a23ee008309bb72c7d78568c8d7de7716" target="_top" xlink:title="Builds a process tree based on the input processes and their file paths.">
<polygon fill="white" stroke="#666666" points="274.25,-27.88 127,-27.88 127,-8.62 274.25,-8.62 274.25,-27.88"/>
<text text-anchor="middle" x="200.62" y="-14.38" font-family="Helvetica,sans-Serif" font-size="10.00">Plugin.Main.BuildProcessTree</text>
</a>
</g>
</g>
<!-- Node5&#45;&gt;Node6 -->
<g id="edge5_Node000005_Node000006" class="edge">
<title>Node5&#45;&gt;Node6</title>
<g id="a_edge5_Node000005_Node000006"><a xlink:title=" ">
<path fill="none" stroke="#63b8ff" d="M305.8,-16.6C295.4,-16.77 284.86,-16.93 274.66,-17.1"/>
<polygon fill="#63b8ff" stroke="#63b8ff" points="305.54,-20.11 315.49,-16.45 305.43,-13.11 305.54,-20.11"/>
</a>
</g>
</g>
<!-- Node6&#45;&gt;Node4 -->
<g id="edge6_Node000006_Node000004" class="edge">
<title>Node6&#45;&gt;Node4</title>
<g id="a_edge6_Node000006_Node000004"><a xlink:title=" ">
<path fill="none" stroke="#63b8ff" d="M115.42,-28.05C106.08,-29.14 96.88,-30.21 88.37,-31.2"/>
<polygon fill="#63b8ff" stroke="#63b8ff" points="115.81,-31.53 125.34,-26.9 115,-24.58 115.81,-31.53"/>
</a>
</g>
</g>
</g>
</svg>

<g id="navigator" transform="translate(0 0)" fill="#404254">
  <rect fill="#f2f5e9" fill-opacity="0.5" stroke="#606060" stroke-width=".5" x="0" y="0" width="60" height="60"/>
  <use id="zoomplus" xlink:href="#zoomPlus" x="17" y="9" onmousedown="handleZoom(evt,'in')"/>
  <use id="zoomminus" xlink:href="#zoomMin" x="42" y="9" onmousedown="handleZoom(evt,'out')"/>
  <use id="reset" xlink:href="#resetDef" x="30" y="36" onmousedown="handleReset()"/>
   <use id="arrowup" xlink:href="#arrowUp" x="0" y="0" onmousedown="handlePan(0,-1)"/>
  <use id="arrowright" xlink:href="#arrowRight" x="0" y="0" onmousedown="handlePan(1,0)"/>
  <use id="arrowdown" xlink:href="#arrowDown" x="0" y="0" onmousedown="handlePan(0,1)"/>
  <use id="arrowleft" xlink:href="#arrowLeft" x="0" y="0" onmousedown="handlePan(-1,0)"/>
</g>
<svg viewBox="0 0 15 15" width="100%" height="30px" preserveAspectRatio="xMaxYMin meet">
 <g id="arrow_out" transform="scale(0.3 0.3)">
  <a xlink:href="class_plugin_1_1_main_ad1a696a6d1d4ed486b50e461b89ee463_icgraph_org.svg" target="_base">
   <rect id="button" ry="5" rx="5" y="6" x="6" height="38" width="38"
        fill="#f2f5e9" fill-opacity="0.5" stroke="#606060" stroke-width="1.0"/>
   <path id="arrow"
     d="M 11.500037,31.436501 C 11.940474,20.09759 22.043105,11.32322 32.158766,21.979434 L 37.068811,17.246167 C 37.068811,17.246167 37.088388,32 37.088388,32 L 22.160133,31.978069 C 22.160133,31.978069 26.997745,27.140456 26.997745,27.140456 C 18.528582,18.264221 13.291696,25.230495 11.500037,31.436501 z"
     style="fill:#404040;"/>
  </a>
 </g>
</svg>

<style type='text/css'>
<![CDATA[
[data-mouse-over-selected='false'] { opacity: 0.7; }
[data-mouse-over-selected='true']  { opacity: 1.0; }
]]>
</style>
<script type="application/ecmascript"><![CDATA[
document.addEventListener('DOMContentLoaded', (event) => {
  highlightEdges();
  highlightAdjacentNodes();
});
]]></script>
</svg>
