<?xml version="1.0" encoding="UTF-8" standalone="no"?>
<!DOCTYPE svg PUBLIC "-//W3C//DTD SVG 1.1//EN"
 "http://www.w3.org/Graphics/SVG/1.1/DTD/svg11.dtd">
<!-- Generated by graphviz version 10.0.1 (20240210.2158)
 -->
<!-- Title: xeno_rat_server.Forms.Live_Microphone.button1_Click Pages: 1 -->
<!--zoomable 478 -->

<svg id="main" version="1.1" xmlns="http://www.w3.org/2000/svg" xmlns:xlink="http://www.w3.org/1999/xlink" xml:space="preserve" onload="init(evt)">
<style type="text/css"><![CDATA[
.node, .edge {opacity: 0.7;}
.node.selected, .edge.selected {opacity: 1;}
.edge:hover path { stroke: red; }
.edge:hover polygon { stroke: red; fill: red; }
]]></style>

<defs>
  <circle id="rim" cx="0" cy="0" r="7"/>
  <circle id="rim2" cx="0" cy="0" r="3.5"/>
  <g id="zoomPlus">
    <use xlink:href="#rim" fill="#404040"><set attributeName="fill" to="#808080" begin="zoomplus.mouseover" end="zoomplus.mouseout"/></use>
    <path d="M-4,0h8M0,-4v8" fill="none" stroke="white" stroke-width="1.5" pointer-events="none"/>
  </g>
  <g id="zoomMin">
    <use xlink:href="#rim" fill="#404040"><set attributeName="fill" to="#808080" begin="zoomminus.mouseover" end="zoomminus.mouseout"/></use>
    <path d="M-4,0h8" fill="none" stroke="white" stroke-width="1.5" pointer-events="none"/>
  </g>
  <g id="arrowUp" transform="translate(30 24)">
    <use xlink:href="#rim"/>
    <path pointer-events="none" fill="none" stroke="white" stroke-width="1.5" d="M0,-3.0v7 M-2.5,-0.5L0,-3.0L2.5,-0.5"/>
  </g>
  <g id="arrowRight" transform="rotate(90) translate(36 -43)">
    <use xlink:href="#rim"/>
    <path pointer-events="none" fill="none" stroke="white" stroke-width="1.5" d="M0,-3.0v7 M-2.5,-0.5L0,-3.0L2.5,-0.5"/>
  </g>
  <g id="arrowDown" transform="rotate(180) translate(-30 -48)">
    <use xlink:href="#rim"/>
    <path pointer-events="none" fill="none" stroke="white" stroke-width="1.5" d="M0,-3.0v7 M-2.5,-0.5L0,-3.0L2.5,-0.5"/>
  </g>
  <g id="arrowLeft" transform="rotate(270) translate(-36 17)">
    <use xlink:href="#rim"/>
    <path pointer-events="none" fill="none" stroke="white" stroke-width="1.5" d="M0,-3.0v7 M-2.5,-0.5L0,-3.0L2.5,-0.5"/>
  </g>
  <g id="resetDef">
    <use xlink:href="#rim2" fill="#404040"><set attributeName="fill" to="#808080" begin="reset.mouseover" end="reset.mouseout"/></use>
  </g>
</defs>
<script type="application/ecmascript">
var viewWidth = 1286;
var viewHeight = 478;
var sectionId = 'dynsection-3';
</script>
<script type="application/ecmascript" xlink:href="svg.min.js"/>
<svg id="graph" class="graph">
<g id="viewport">
<title>xeno_rat_server.Forms.Live_Microphone.button1_Click</title>
<!-- Node1 -->
<g id="Node000001" class="node">
<title>Node1</title>
<g id="a_Node000001"><a xlink:title="Asynchronously refreshes the microphones and updates the UI.">
<polygon fill="#999999" stroke="#666666" points="136.75,-196.5 0,-196.5 0,-166 136.75,-166 136.75,-196.5"/>
<text text-anchor="start" x="8" y="-183" font-family="Helvetica,sans-Serif" font-size="10.00">xeno_rat_server.Forms.Live</text>
<text text-anchor="middle" x="68.38" y="-171.75" font-family="Helvetica,sans-Serif" font-size="10.00">_Microphone.button1_Click</text>
</a>
</g>
</g>
<!-- Node2 -->
<g id="Node000002" class="node">
<title>Node2</title>
<g id="a_Node000002"><a xlink:href="classxeno__rat__server_1_1_forms_1_1_live___microphone.html#a5e81cad83ca14167353288b458bfe122" target="_top" xlink:title="Asynchronously refreshes the list of microphones and updates the UI components accordingly.">
<polygon fill="white" stroke="#666666" points="309.5,-196.5 172.75,-196.5 172.75,-166 309.5,-166 309.5,-196.5"/>
<text text-anchor="start" x="180.75" y="-183" font-family="Helvetica,sans-Serif" font-size="10.00">xeno_rat_server.Forms.Live</text>
<text text-anchor="middle" x="241.12" y="-171.75" font-family="Helvetica,sans-Serif" font-size="10.00">_Microphone.RefreshMics</text>
</a>
</g>
</g>
<!-- Node1&#45;&gt;Node2 -->
<g id="edge1_Node000001_Node000002" class="edge">
<title>Node1&#45;&gt;Node2</title>
<g id="a_edge1_Node000001_Node000002"><a xlink:title=" ">
<path fill="none" stroke="#63b8ff" d="M136.86,-181.25C144.78,-181.25 152.91,-181.25 160.98,-181.25"/>
<polygon fill="#63b8ff" stroke="#63b8ff" points="160.78,-184.75 170.78,-181.25 160.78,-177.75 160.78,-184.75"/>
</a>
</g>
</g>
<!-- Node3 -->
<g id="Node000003" class="node">
<title>Node3</title>
<g id="a_Node000003"><a xlink:href="classxeno__rat__server_1_1_forms_1_1_live___microphone.html#aaa834a3161771b0cef700e7bc34a4749" target="_top" xlink:title="Asynchronously retrieves the list of microphones available from the client and returns the result.">
<polygon fill="white" stroke="#666666" points="492.75,-221.5 345.5,-221.5 345.5,-191 492.75,-191 492.75,-221.5"/>
<text text-anchor="start" x="353.5" y="-208" font-family="Helvetica,sans-Serif" font-size="10.00">xeno_rat_server.Forms.Live</text>
<text text-anchor="middle" x="419.12" y="-196.75" font-family="Helvetica,sans-Serif" font-size="10.00">_Microphone.GetMicroPhones</text>
</a>
</g>
</g>
<!-- Node2&#45;&gt;Node3 -->
<g id="edge2_Node000002_Node000003" class="edge">
<title>Node2&#45;&gt;Node3</title>
<g id="a_edge2_Node000002_Node000003"><a xlink:title=" ">
<path fill="none" stroke="#63b8ff" d="M309.92,-190.88C317.75,-191.99 325.81,-193.14 333.83,-194.28"/>
<polygon fill="#63b8ff" stroke="#63b8ff" points="333.21,-197.72 343.61,-195.67 334.2,-190.79 333.21,-197.72"/>
</a>
</g>
</g>
<!-- Node24 -->
<g id="Node000024" class="node">
<title>Node24</title>
<g id="a_Node000024"><a xlink:href="classxeno__rat__server_1_1_forms_1_1_live___microphone.html#a191e91bd975e3ccefbed538fdfe2fdd0" target="_top" xlink:title="Sets the microphone using the specified index.">
<polygon fill="white" stroke="#666666" points="489.75,-172.5 348.5,-172.5 348.5,-142 489.75,-142 489.75,-172.5"/>
<text text-anchor="start" x="356.5" y="-159" font-family="Helvetica,sans-Serif" font-size="10.00">xeno_rat_server.Forms.Live</text>
<text text-anchor="middle" x="419.12" y="-147.75" font-family="Helvetica,sans-Serif" font-size="10.00">_Microphone.SetMicroPhone</text>
</a>
</g>
</g>
<!-- Node2&#45;&gt;Node24 -->
<g id="edge27_Node000002_Node000024" class="edge">
<title>Node2&#45;&gt;Node24</title>
<g id="a_edge27_Node000002_Node000024"><a xlink:title=" ">
<path fill="none" stroke="#63b8ff" d="M309.92,-172.01C318.7,-170.81 327.77,-169.57 336.74,-168.35"/>
<polygon fill="#63b8ff" stroke="#63b8ff" points="337.1,-171.83 346.54,-167.01 336.15,-164.9 337.1,-171.83"/>
</a>
</g>
</g>
<!-- Node4 -->
<g id="Node000004" class="node">
<title>Node4</title>
<g id="a_Node000004"><a xlink:href="classxeno__rat__server_1_1_socket_handler.html#a68836e871124cbda8a644223a73421d0" target="_top" xlink:title="Converts the specified byte array to an integer value.">
<polygon fill="white" stroke="#666666" points="1268.88,-465.5 1114.12,-465.5 1114.12,-435 1268.88,-435 1268.88,-465.5"/>
<text text-anchor="start" x="1122.12" y="-452" font-family="Helvetica,sans-Serif" font-size="10.00">xeno_rat_server.SocketHandler.</text>
<text text-anchor="middle" x="1191.5" y="-440.75" font-family="Helvetica,sans-Serif" font-size="10.00">BytesToInt</text>
</a>
</g>
</g>
<!-- Node3&#45;&gt;Node4 -->
<g id="edge3_Node000003_Node000004" class="edge">
<title>Node3&#45;&gt;Node4</title>
<g id="a_edge3_Node000003_Node000004"><a xlink:title=" ">
<path fill="none" stroke="#63b8ff" d="M441.32,-221.86C507.2,-269.28 715.96,-411.36 914.75,-459.25 976.27,-474.07 1047.72,-471.2 1102.48,-464.95"/>
<polygon fill="#63b8ff" stroke="#63b8ff" points="1102.89,-468.42 1112.4,-463.75 1102.05,-461.47 1102.89,-468.42"/>
</a>
</g>
</g>
<!-- Node5 -->
<g id="Node000005" class="node">
<title>Node5</title>
<g id="a_Node000005"><a xlink:href="classxeno__rat__server_1_1_node.html#a3dcb832502d4cd1dd580897265b2da7b" target="_top" xlink:title="Asynchronously receives data from the socket and returns the received data as a byte array.">
<polygon fill="white" stroke="#666666" points="679,-221.5 528.75,-221.5 528.75,-191 679,-191 679,-221.5"/>
<text text-anchor="start" x="536.75" y="-208" font-family="Helvetica,sans-Serif" font-size="10.00">xeno_rat_server.Node.Receive</text>
<text text-anchor="middle" x="603.88" y="-196.75" font-family="Helvetica,sans-Serif" font-size="10.00">Async</text>
</a>
</g>
</g>
<!-- Node3&#45;&gt;Node5 -->
<g id="edge4_Node000003_Node000005" class="edge">
<title>Node3&#45;&gt;Node5</title>
<g id="a_edge4_Node000003_Node000005"><a xlink:title=" ">
<path fill="none" stroke="#63b8ff" d="M493.14,-206.25C501.05,-206.25 509.14,-206.25 517.18,-206.25"/>
<polygon fill="#63b8ff" stroke="#63b8ff" points="516.97,-209.75 526.97,-206.25 516.97,-202.75 516.97,-209.75"/>
</a>
</g>
</g>
<!-- Node14 -->
<g id="Node000014" class="node">
<title>Node14</title>
<g id="a_Node000014"><a xlink:href="classxeno__rat__server_1_1_node.html#a816e267eb31862d38c21e5faaae3061d" target="_top" xlink:title="Sends the provided data asynchronously and returns a boolean indicating the success of the operation.">
<polygon fill="white" stroke="#666666" points="672.25,-172.5 535.5,-172.5 535.5,-142 672.25,-142 672.25,-172.5"/>
<text text-anchor="start" x="543.5" y="-159" font-family="Helvetica,sans-Serif" font-size="10.00">xeno_rat_server.Node.Send</text>
<text text-anchor="middle" x="603.88" y="-147.75" font-family="Helvetica,sans-Serif" font-size="10.00">Async</text>
</a>
</g>
</g>
<!-- Node3&#45;&gt;Node14 -->
<g id="edge16_Node000003_Node000014" class="edge">
<title>Node3&#45;&gt;Node14</title>
<g id="a_edge16_Node000003_Node000014"><a xlink:title=" ">
<path fill="none" stroke="#63b8ff" d="M478.7,-190.54C496.08,-185.88 515.28,-180.74 533.29,-175.91"/>
<polygon fill="#63b8ff" stroke="#63b8ff" points="534.1,-179.31 542.85,-173.34 532.29,-172.55 534.1,-179.31"/>
</a>
</g>
</g>
<!-- Node6 -->
<g id="Node000006" class="node">
<title>Node6</title>
<g id="a_Node000006"><a xlink:href="classxeno__rat__server_1_1_node.html#a8814edd98b6463f49812be32d5928763" target="_top" xlink:title="Sets the isDisposed flag to true and disconnects the socket, disposes resources, and triggers the OnD...">
<polygon fill="white" stroke="#666666" points="878.75,-212.88 715,-212.88 715,-193.62 878.75,-193.62 878.75,-212.88"/>
<text text-anchor="middle" x="796.88" y="-199.38" font-family="Helvetica,sans-Serif" font-size="10.00">xeno_rat_server.Node.Disconnect</text>
</a>
</g>
</g>
<!-- Node5&#45;&gt;Node6 -->
<g id="edge5_Node000005_Node000006" class="edge">
<title>Node5&#45;&gt;Node6</title>
<g id="a_edge5_Node000005_Node000006"><a xlink:title=" ">
<path fill="none" stroke="#63b8ff" d="M679.27,-205.08C687.17,-204.96 695.28,-204.83 703.35,-204.7"/>
<polygon fill="#63b8ff" stroke="#63b8ff" points="703.27,-208.21 713.22,-204.55 703.16,-201.21 703.27,-208.21"/>
</a>
</g>
</g>
<!-- Node7 -->
<g id="Node000007" class="node">
<title>Node7</title>
<g id="a_Node000007"><a xlink:href="classxeno__rat__server_1_1_socket_handler.html#a40a6f3b7eb555e8d688ea5c0074ffa2c" target="_top" xlink:title="Asynchronously receives data and processes it according to the protocol, then returns the processed d...">
<polygon fill="white" stroke="#666666" points="874.25,-324.5 719.5,-324.5 719.5,-294 874.25,-294 874.25,-324.5"/>
<text text-anchor="start" x="727.5" y="-311" font-family="Helvetica,sans-Serif" font-size="10.00">xeno_rat_server.SocketHandler.</text>
<text text-anchor="middle" x="796.88" y="-299.75" font-family="Helvetica,sans-Serif" font-size="10.00">ReceiveAsync</text>
</a>
</g>
</g>
<!-- Node5&#45;&gt;Node7 -->
<g id="edge7_Node000005_Node000007" class="edge">
<title>Node5&#45;&gt;Node7</title>
<g id="a_edge7_Node000005_Node000007"><a xlink:title=" ">
<path fill="none" stroke="#63b8ff" d="M633.88,-221.89C666.79,-239.64 720.62,-268.67 757.11,-288.34"/>
<polygon fill="#63b8ff" stroke="#63b8ff" points="755.11,-291.24 765.57,-292.91 758.43,-285.08 755.11,-291.24"/>
</a>
</g>
</g>
<!-- Node6&#45;&gt;Node6 -->
<g id="edge6_Node000006_Node000006" class="edge">
<title>Node6&#45;&gt;Node6</title>
<g id="a_edge6_Node000006_Node000006"><a xlink:title=" ">
<path fill="none" stroke="#63b8ff" d="M766.66,-213.16C752.88,-221.77 762.95,-230.88 796.88,-230.88 816.49,-230.88 828.13,-227.83 831.8,-223.6"/>
<polygon fill="#63b8ff" stroke="#63b8ff" points="835.01,-222.22 827.71,-214.54 828.63,-225.1 835.01,-222.22"/>
</a>
</g>
</g>
<!-- Node7&#45;&gt;Node4 -->
<g id="edge9_Node000007_Node000004" class="edge">
<title>Node7&#45;&gt;Node4</title>
<g id="a_edge9_Node000007_Node000004"><a xlink:title=" ">
<path fill="none" stroke="#63b8ff" d="M807.11,-324.68C824.35,-351.86 864.28,-407.62 914.75,-431.25 973.1,-458.56 1046.08,-462.45 1102.31,-459.98"/>
<polygon fill="#63b8ff" stroke="#63b8ff" points="1102.36,-463.48 1112.17,-459.46 1102,-456.49 1102.36,-463.48"/>
</a>
</g>
</g>
<!-- Node8 -->
<g id="Node000008" class="node">
<title>Node8</title>
<g id="a_Node000008"><a xlink:href="classxeno__rat__server_1_1_socket_handler.html#a53169a2098514698865b69c8fab12f77" target="_top" xlink:title="Truncates the input byte array starting from the specified offset and returns the truncated byte arra...">
<polygon fill="white" stroke="#666666" points="1069.5,-373.5 914.75,-373.5 914.75,-343 1069.5,-343 1069.5,-373.5"/>
<text text-anchor="start" x="922.75" y="-360" font-family="Helvetica,sans-Serif" font-size="10.00">xeno_rat_server.SocketHandler.</text>
<text text-anchor="middle" x="992.12" y="-348.75" font-family="Helvetica,sans-Serif" font-size="10.00">BTruncate</text>
</a>
</g>
</g>
<!-- Node7&#45;&gt;Node8 -->
<g id="edge8_Node000007_Node000008" class="edge">
<title>Node7&#45;&gt;Node8</title>
<g id="a_edge8_Node000007_Node000008"><a xlink:title=" ">
<path fill="none" stroke="#63b8ff" d="M859.82,-324.96C878.37,-329.66 898.88,-334.86 918.08,-339.73"/>
<polygon fill="#63b8ff" stroke="#63b8ff" points="917.18,-343.11 927.73,-342.18 918.9,-336.33 917.18,-343.11"/>
</a>
</g>
</g>
<!-- Node9 -->
<g id="Node000009" class="node">
<title>Node9</title>
<g id="a_Node000009"><a xlink:href="classxeno__rat__server_1_1_compression.html#ad992bb75126d7c346fe7884dbbcf8ad8" target="_top" xlink:title="Decompresses the input buffer using the LZNT1 compression format and returns the decompressed data.">
<polygon fill="white" stroke="#666666" points="1066.5,-324.5 917.75,-324.5 917.75,-294 1066.5,-294 1066.5,-324.5"/>
<text text-anchor="start" x="925.75" y="-311" font-family="Helvetica,sans-Serif" font-size="10.00">xeno_rat_server.Compression.</text>
<text text-anchor="middle" x="992.12" y="-299.75" font-family="Helvetica,sans-Serif" font-size="10.00">Decompress</text>
</a>
</g>
</g>
<!-- Node7&#45;&gt;Node9 -->
<g id="edge10_Node000007_Node000009" class="edge">
<title>Node7&#45;&gt;Node9</title>
<g id="a_edge10_Node000007_Node000009"><a xlink:title=" ">
<path fill="none" stroke="#63b8ff" d="M874.53,-309.25C884.9,-309.25 895.59,-309.25 906.1,-309.25"/>
<polygon fill="#63b8ff" stroke="#63b8ff" points="905.89,-312.75 915.89,-309.25 905.89,-305.75 905.89,-312.75"/>
</a>
</g>
</g>
<!-- Node11 -->
<g id="Node000011" class="node">
<title>Node11</title>
<g id="a_Node000011"><a xlink:href="classxeno__rat__server_1_1_encryption.html#ae2a6537578e2140511afe92f8ad5e964" target="_top" xlink:title="Decrypts the input data using the provided key and returns the decrypted result.">
<polygon fill="white" stroke="#666666" points="1060.88,-275.5 923.38,-275.5 923.38,-245 1060.88,-245 1060.88,-275.5"/>
<text text-anchor="start" x="931.38" y="-262" font-family="Helvetica,sans-Serif" font-size="10.00">xeno_rat_server.Encryption.</text>
<text text-anchor="middle" x="992.12" y="-250.75" font-family="Helvetica,sans-Serif" font-size="10.00">Decrypt</text>
</a>
</g>
</g>
<!-- Node7&#45;&gt;Node11 -->
<g id="edge12_Node000007_Node000011" class="edge">
<title>Node7&#45;&gt;Node11</title>
<g id="a_edge12_Node000007_Node000011"><a xlink:title=" ">
<path fill="none" stroke="#63b8ff" d="M859.82,-293.54C878.37,-288.84 898.88,-283.64 918.08,-278.77"/>
<polygon fill="#63b8ff" stroke="#63b8ff" points="918.9,-282.17 927.73,-276.32 917.18,-275.39 918.9,-282.17"/>
</a>
</g>
</g>
<!-- Node12 -->
<g id="Node000012" class="node">
<title>Node12</title>
<g id="a_Node000012"><a xlink:href="classxeno__rat__server_1_1_socket_handler.html#aeefcafd750efab21954bd772b8ae565d" target="_top" xlink:title="Parses the header from the provided byte array and returns the parsed header object.">
<polygon fill="white" stroke="#666666" points="1069.5,-422.5 914.75,-422.5 914.75,-392 1069.5,-392 1069.5,-422.5"/>
<text text-anchor="start" x="922.75" y="-409" font-family="Helvetica,sans-Serif" font-size="10.00">xeno_rat_server.SocketHandler.</text>
<text text-anchor="middle" x="992.12" y="-397.75" font-family="Helvetica,sans-Serif" font-size="10.00">ParseHeader</text>
</a>
</g>
</g>
<!-- Node7&#45;&gt;Node12 -->
<g id="edge13_Node000007_Node000012" class="edge">
<title>Node7&#45;&gt;Node12</title>
<g id="a_edge13_Node000007_Node000012"><a xlink:title=" ">
<path fill="none" stroke="#63b8ff" d="M819.38,-324.91C842.16,-340.96 879.64,-365.84 914.75,-382.25 918.69,-384.09 922.8,-385.86 926.99,-387.53"/>
<polygon fill="#63b8ff" stroke="#63b8ff" points="925.48,-390.7 936.07,-390.98 927.96,-384.16 925.48,-390.7"/>
</a>
</g>
</g>
<!-- Node13 -->
<g id="Node000013" class="node">
<title>Node13</title>
<g id="a_Node000013"><a xlink:href="classxeno__rat__server_1_1_socket_handler.html#acc7e34649fee5060867a2321dd15d854" target="_top" xlink:title="Asynchronously receives all the data of the specified size from the connected socket and returns the ...">
<polygon fill="white" stroke="#666666" points="1069.5,-226.5 914.75,-226.5 914.75,-196 1069.5,-196 1069.5,-226.5"/>
<text text-anchor="start" x="922.75" y="-213" font-family="Helvetica,sans-Serif" font-size="10.00">xeno_rat_server.SocketHandler.</text>
<text text-anchor="middle" x="992.12" y="-201.75" font-family="Helvetica,sans-Serif" font-size="10.00">RecvAllAsync_ddos_unsafer</text>
</a>
</g>
</g>
<!-- Node7&#45;&gt;Node13 -->
<g id="edge15_Node000007_Node000013" class="edge">
<title>Node7&#45;&gt;Node13</title>
<g id="a_edge15_Node000007_Node000013"><a xlink:title=" ">
<path fill="none" stroke="#63b8ff" d="M819.38,-293.59C842.16,-277.54 879.64,-252.66 914.75,-236.25 918.69,-234.41 922.8,-232.64 926.99,-230.97"/>
<polygon fill="#63b8ff" stroke="#63b8ff" points="927.96,-234.34 936.07,-227.52 925.48,-227.8 927.96,-234.34"/>
</a>
</g>
</g>
<!-- Node10 -->
<g id="Node000010" class="node">
<title>Node10</title>
<g id="a_Node000010"><a xlink:href="classxeno__rat__server_1_1_compression.html#a1c901d319793d3855012549e6a18fe53" target="_top" xlink:title="Decompresses a buffer using the specified compression format and returns the decompressed data.">
<polygon fill="white" stroke="#666666" points="1265.88,-324.5 1117.12,-324.5 1117.12,-294 1265.88,-294 1265.88,-324.5"/>
<text text-anchor="start" x="1125.12" y="-311" font-family="Helvetica,sans-Serif" font-size="10.00">xeno_rat_server.Compression.</text>
<text text-anchor="middle" x="1191.5" y="-299.75" font-family="Helvetica,sans-Serif" font-size="10.00">RtlDecompressBuffer</text>
</a>
</g>
</g>
<!-- Node9&#45;&gt;Node10 -->
<g id="edge11_Node000009_Node000010" class="edge">
<title>Node9&#45;&gt;Node10</title>
<g id="a_edge11_Node000009_Node000010"><a xlink:title=" ">
<path fill="none" stroke="#63b8ff" d="M1066.9,-309.25C1079.52,-309.25 1092.72,-309.25 1105.6,-309.25"/>
<polygon fill="#63b8ff" stroke="#63b8ff" points="1105.3,-312.75 1115.3,-309.25 1105.3,-305.75 1105.3,-312.75"/>
</a>
</g>
</g>
<!-- Node12&#45;&gt;Node4 -->
<g id="edge14_Node000012_Node000004" class="edge">
<title>Node12&#45;&gt;Node4</title>
<g id="a_edge14_Node000012_Node000004"><a xlink:title=" ">
<path fill="none" stroke="#63b8ff" d="M1065.22,-422.96C1078.86,-425.93 1093.24,-429.06 1107.19,-432.1"/>
<polygon fill="#63b8ff" stroke="#63b8ff" points="1106.28,-435.48 1116.79,-434.19 1107.77,-428.64 1106.28,-435.48"/>
</a>
</g>
</g>
<!-- Node14&#45;&gt;Node6 -->
<g id="edge17_Node000014_Node000006" class="edge">
<title>Node14&#45;&gt;Node6</title>
<g id="a_edge17_Node000014_Node000006"><a xlink:title=" ">
<path fill="none" stroke="#63b8ff" d="M670.07,-172.95C693.83,-178.67 720.38,-185.07 742.95,-190.5"/>
<polygon fill="#63b8ff" stroke="#63b8ff" points="742,-193.87 752.54,-192.81 743.64,-187.07 742,-193.87"/>
</a>
</g>
</g>
<!-- Node15 -->
<g id="Node000015" class="node">
<title>Node15</title>
<g id="a_Node000015"><a xlink:href="classxeno__rat__server_1_1_socket_handler.html#a85ca8385d023521cdb86ff8ae688adee" target="_top" xlink:title="Sends the provided data asynchronously over the socket.">
<polygon fill="white" stroke="#666666" points="874.25,-128.5 719.5,-128.5 719.5,-98 874.25,-98 874.25,-128.5"/>
<text text-anchor="start" x="727.5" y="-115" font-family="Helvetica,sans-Serif" font-size="10.00">xeno_rat_server.SocketHandler.</text>
<text text-anchor="middle" x="796.88" y="-103.75" font-family="Helvetica,sans-Serif" font-size="10.00">SendAsync</text>
</a>
</g>
</g>
<!-- Node14&#45;&gt;Node15 -->
<g id="edge18_Node000014_Node000015" class="edge">
<title>Node14&#45;&gt;Node15</title>
<g id="a_edge18_Node000014_Node000015"><a xlink:title=" ">
<path fill="none" stroke="#63b8ff" d="M672.48,-141.68C686.76,-138.39 701.96,-134.89 716.62,-131.51"/>
<polygon fill="#63b8ff" stroke="#63b8ff" points="717.28,-134.95 726.24,-129.29 715.71,-128.13 717.28,-134.95"/>
</a>
</g>
</g>
<!-- Node16 -->
<g id="Node000016" class="node">
<title>Node16</title>
<g id="a_Node000016"><a xlink:href="classxeno__rat__server_1_1_compression.html#a0f3f31a2fe34d92bf04538b2fdf529e0" target="_top" xlink:title="Compresses the input buffer using the LZNT1 compression format and returns the compressed data.">
<polygon fill="white" stroke="#666666" points="1066.5,-177.5 917.75,-177.5 917.75,-147 1066.5,-147 1066.5,-177.5"/>
<text text-anchor="start" x="925.75" y="-164" font-family="Helvetica,sans-Serif" font-size="10.00">xeno_rat_server.Compression.</text>
<text text-anchor="middle" x="992.12" y="-152.75" font-family="Helvetica,sans-Serif" font-size="10.00">Compress</text>
</a>
</g>
</g>
<!-- Node15&#45;&gt;Node16 -->
<g id="edge19_Node000015_Node000016" class="edge">
<title>Node15&#45;&gt;Node16</title>
<g id="a_edge19_Node000015_Node000016"><a xlink:title=" ">
<path fill="none" stroke="#63b8ff" d="M859.82,-128.96C878.37,-133.66 898.88,-138.86 918.08,-143.73"/>
<polygon fill="#63b8ff" stroke="#63b8ff" points="917.18,-147.11 927.73,-146.18 918.9,-140.33 917.18,-147.11"/>
</a>
</g>
</g>
<!-- Node21 -->
<g id="Node000021" class="node">
<title>Node21</title>
<g id="a_Node000021"><a xlink:href="classxeno__rat__server_1_1_socket_handler.html#a4f2e993b63cf1bba877781c9be2ed496" target="_top" xlink:title="Concatenates two byte arrays and returns the result.">
<polygon fill="white" stroke="#666666" points="1069.5,-128.5 914.75,-128.5 914.75,-98 1069.5,-98 1069.5,-128.5"/>
<text text-anchor="start" x="922.75" y="-115" font-family="Helvetica,sans-Serif" font-size="10.00">xeno_rat_server.SocketHandler.</text>
<text text-anchor="middle" x="992.12" y="-103.75" font-family="Helvetica,sans-Serif" font-size="10.00">Concat</text>
</a>
</g>
</g>
<!-- Node15&#45;&gt;Node21 -->
<g id="edge24_Node000015_Node000021" class="edge">
<title>Node15&#45;&gt;Node21</title>
<g id="a_edge24_Node000015_Node000021"><a xlink:title=" ">
<path fill="none" stroke="#63b8ff" d="M874.53,-113.25C884,-113.25 893.73,-113.25 903.35,-113.25"/>
<polygon fill="#63b8ff" stroke="#63b8ff" points="903.05,-116.75 913.05,-113.25 903.05,-109.75 903.05,-116.75"/>
</a>
</g>
</g>
<!-- Node22 -->
<g id="Node000022" class="node">
<title>Node22</title>
<g id="a_Node000022"><a xlink:href="classxeno__rat__server_1_1_encryption.html#a0fafecaba804cb57663bdbb4dcc4e93f" target="_top" xlink:title="Encrypts the input data using the provided key and returns the encrypted result.">
<polygon fill="white" stroke="#666666" points="1060.88,-79.5 923.38,-79.5 923.38,-49 1060.88,-49 1060.88,-79.5"/>
<text text-anchor="start" x="931.38" y="-66" font-family="Helvetica,sans-Serif" font-size="10.00">xeno_rat_server.Encryption.</text>
<text text-anchor="middle" x="992.12" y="-54.75" font-family="Helvetica,sans-Serif" font-size="10.00">Encrypt</text>
</a>
</g>
</g>
<!-- Node15&#45;&gt;Node22 -->
<g id="edge25_Node000015_Node000022" class="edge">
<title>Node15&#45;&gt;Node22</title>
<g id="a_edge25_Node000015_Node000022"><a xlink:title=" ">
<path fill="none" stroke="#63b8ff" d="M859.82,-97.54C878.37,-92.84 898.88,-87.64 918.08,-82.77"/>
<polygon fill="#63b8ff" stroke="#63b8ff" points="918.9,-86.17 927.73,-80.32 917.18,-79.39 918.9,-86.17"/>
</a>
</g>
</g>
<!-- Node23 -->
<g id="Node000023" class="node">
<title>Node23</title>
<g id="a_Node000023"><a xlink:href="classxeno__rat__server_1_1_socket_handler.html#a7d019c5e4cbd0138d155156c7a7c5a8f" target="_top" xlink:title="Converts an integer to a byte array.">
<polygon fill="white" stroke="#666666" points="1069.5,-30.5 914.75,-30.5 914.75,0 1069.5,0 1069.5,-30.5"/>
<text text-anchor="start" x="922.75" y="-17" font-family="Helvetica,sans-Serif" font-size="10.00">xeno_rat_server.SocketHandler.</text>
<text text-anchor="middle" x="992.12" y="-5.75" font-family="Helvetica,sans-Serif" font-size="10.00">IntToBytes</text>
</a>
</g>
</g>
<!-- Node15&#45;&gt;Node23 -->
<g id="edge26_Node000015_Node000023" class="edge">
<title>Node15&#45;&gt;Node23</title>
<g id="a_edge26_Node000015_Node000023"><a xlink:title=" ">
<path fill="none" stroke="#63b8ff" d="M819.38,-97.59C842.16,-81.54 879.64,-56.66 914.75,-40.25 918.69,-38.41 922.8,-36.64 926.99,-34.97"/>
<polygon fill="#63b8ff" stroke="#63b8ff" points="927.96,-38.34 936.07,-31.52 925.48,-31.8 927.96,-38.34"/>
</a>
</g>
</g>
<!-- Node17 -->
<g id="Node000017" class="node">
<title>Node17</title>
<g id="a_Node000017"><a xlink:href="classxeno__rat__server_1_1_compression.html#ae86c8cb19fb340173e6b06816907c485" target="_top" xlink:title="Allocates the specified number of bytes in the local heap and returns a pointer to the allocated memo...">
<polygon fill="white" stroke="#666666" points="1265.88,-250.5 1117.12,-250.5 1117.12,-220 1265.88,-220 1265.88,-250.5"/>
<text text-anchor="start" x="1125.12" y="-237" font-family="Helvetica,sans-Serif" font-size="10.00">xeno_rat_server.Compression.</text>
<text text-anchor="middle" x="1191.5" y="-225.75" font-family="Helvetica,sans-Serif" font-size="10.00">LocalAlloc</text>
</a>
</g>
</g>
<!-- Node16&#45;&gt;Node17 -->
<g id="edge20_Node000016_Node000017" class="edge">
<title>Node16&#45;&gt;Node17</title>
<g id="a_edge20_Node000016_Node000017"><a xlink:title=" ">
<path fill="none" stroke="#63b8ff" d="M1046.8,-177.91C1054.54,-180.72 1062.31,-183.85 1069.5,-187.25 1086.66,-195.38 1088.22,-202.38 1105.5,-210.25 1109.75,-212.19 1114.19,-214.01 1118.72,-215.73"/>
<polygon fill="#63b8ff" stroke="#63b8ff" points="1117.35,-218.96 1127.95,-219.04 1119.71,-212.37 1117.35,-218.96"/>
</a>
</g>
</g>
<!-- Node18 -->
<g id="Node000018" class="node">
<title>Node18</title>
<g id="a_Node000018"><a xlink:href="classxeno__rat__server_1_1_compression.html#ab527e0a594d96bbaa1a4b1541888aa74" target="_top" xlink:title="Frees the memory block allocated by LocalAlloc and LocalReAlloc and invalidates the handle.">
<polygon fill="white" stroke="#666666" points="1265.88,-201.5 1117.12,-201.5 1117.12,-171 1265.88,-171 1265.88,-201.5"/>
<text text-anchor="start" x="1125.12" y="-188" font-family="Helvetica,sans-Serif" font-size="10.00">xeno_rat_server.Compression.</text>
<text text-anchor="middle" x="1191.5" y="-176.75" font-family="Helvetica,sans-Serif" font-size="10.00">LocalFree</text>
</a>
</g>
</g>
<!-- Node16&#45;&gt;Node18 -->
<g id="edge21_Node000016_Node000018" class="edge">
<title>Node16&#45;&gt;Node18</title>
<g id="a_edge21_Node000016_Node000018"><a xlink:title=" ">
<path fill="none" stroke="#63b8ff" d="M1066.9,-171.22C1079.52,-172.76 1092.72,-174.36 1105.6,-175.93"/>
<polygon fill="#63b8ff" stroke="#63b8ff" points="1104.96,-179.37 1115.31,-177.11 1105.81,-172.43 1104.96,-179.37"/>
</a>
</g>
</g>
<!-- Node19 -->
<g id="Node000019" class="node">
<title>Node19</title>
<g id="a_Node000019"><a xlink:href="classxeno__rat__server_1_1_compression.html#a1f9bb20d96d13bdc4d0f90e2b68d4343" target="_top" xlink:title="Compresses the input buffer using the specified compression format and returns the compressed data in...">
<polygon fill="white" stroke="#666666" points="1265.88,-152.5 1117.12,-152.5 1117.12,-122 1265.88,-122 1265.88,-152.5"/>
<text text-anchor="start" x="1125.12" y="-139" font-family="Helvetica,sans-Serif" font-size="10.00">xeno_rat_server.Compression.</text>
<text text-anchor="middle" x="1191.5" y="-127.75" font-family="Helvetica,sans-Serif" font-size="10.00">RtlCompressBuffer</text>
</a>
</g>
</g>
<!-- Node16&#45;&gt;Node19 -->
<g id="edge22_Node000016_Node000019" class="edge">
<title>Node16&#45;&gt;Node19</title>
<g id="a_edge22_Node000016_Node000019"><a xlink:title=" ">
<path fill="none" stroke="#63b8ff" d="M1066.9,-152.91C1079.52,-151.31 1092.72,-149.64 1105.6,-148"/>
<polygon fill="#63b8ff" stroke="#63b8ff" points="1105.83,-151.5 1115.31,-146.77 1104.95,-144.56 1105.83,-151.5"/>
</a>
</g>
</g>
<!-- Node20 -->
<g id="Node000020" class="node">
<title>Node20</title>
<g id="a_Node000020"><a xlink:href="classxeno__rat__server_1_1_compression.html#a5ca090d7b0887e40753bad9800c321e7" target="_top" xlink:title="Retrieves the size of the workspace required for compression.">
<polygon fill="white" stroke="#666666" points="1277.5,-103.5 1105.5,-103.5 1105.5,-73 1277.5,-73 1277.5,-103.5"/>
<text text-anchor="start" x="1113.5" y="-90" font-family="Helvetica,sans-Serif" font-size="10.00">xeno_rat_server.Compression.</text>
<text text-anchor="middle" x="1191.5" y="-78.75" font-family="Helvetica,sans-Serif" font-size="10.00">RtlGetCompressionWorkSpaceSize</text>
</a>
</g>
</g>
<!-- Node16&#45;&gt;Node20 -->
<g id="edge23_Node000016_Node000020" class="edge">
<title>Node16&#45;&gt;Node20</title>
<g id="a_edge23_Node000016_Node000020"><a xlink:title=" ">
<path fill="none" stroke="#63b8ff" d="M1047.27,-146.57C1054.86,-143.78 1062.47,-140.66 1069.5,-137.25 1086.8,-128.85 1088.08,-121.39 1105.5,-113.25 1109.54,-111.36 1113.75,-109.58 1118.05,-107.91"/>
<polygon fill="#63b8ff" stroke="#63b8ff" points="1119.24,-111.2 1127.43,-104.49 1116.84,-104.63 1119.24,-111.2"/>
</a>
</g>
</g>
<!-- Node24&#45;&gt;Node14 -->
<g id="edge29_Node000024_Node000014" class="edge">
<title>Node24&#45;&gt;Node14</title>
<g id="a_edge29_Node000024_Node000014"><a xlink:title=" ">
<path fill="none" stroke="#63b8ff" d="M490,-157.25C501.11,-157.25 512.67,-157.25 523.96,-157.25"/>
<polygon fill="#63b8ff" stroke="#63b8ff" points="523.64,-160.75 533.64,-157.25 523.64,-153.75 523.64,-160.75"/>
</a>
</g>
</g>
<!-- Node24&#45;&gt;Node23 -->
<g id="edge28_Node000024_Node000023" class="edge">
<title>Node24&#45;&gt;Node23</title>
<g id="a_edge28_Node000024_Node000023"><a xlink:title=" ">
<path fill="none" stroke="#63b8ff" d="M483.41,-141.51C589.77,-115.06 803.82,-61.83 917.02,-33.68"/>
<polygon fill="#63b8ff" stroke="#63b8ff" points="917.66,-37.13 926.52,-31.32 915.97,-30.33 917.66,-37.13"/>
</a>
</g>
</g>
</g>
</svg>

<g id="navigator" transform="translate(0 0)" fill="#404254">
  <rect fill="#f2f5e9" fill-opacity="0.5" stroke="#606060" stroke-width=".5" x="0" y="0" width="60" height="60"/>
  <use id="zoomplus" xlink:href="#zoomPlus" x="17" y="9" onmousedown="handleZoom(evt,'in')"/>
  <use id="zoomminus" xlink:href="#zoomMin" x="42" y="9" onmousedown="handleZoom(evt,'out')"/>
  <use id="reset" xlink:href="#resetDef" x="30" y="36" onmousedown="handleReset()"/>
   <use id="arrowup" xlink:href="#arrowUp" x="0" y="0" onmousedown="handlePan(0,-1)"/>
  <use id="arrowright" xlink:href="#arrowRight" x="0" y="0" onmousedown="handlePan(1,0)"/>
  <use id="arrowdown" xlink:href="#arrowDown" x="0" y="0" onmousedown="handlePan(0,1)"/>
  <use id="arrowleft" xlink:href="#arrowLeft" x="0" y="0" onmousedown="handlePan(-1,0)"/>
</g>
<svg viewBox="0 0 15 15" width="100%" height="30px" preserveAspectRatio="xMaxYMin meet">
 <g id="arrow_out" transform="scale(0.3 0.3)">
  <a xlink:href="classxeno__rat__server_1_1_forms_1_1_live___microphone_a0601340bcdbbfdfc4e34746cf391a6d0_cgraph_org.svg" target="_base">
   <rect id="button" ry="5" rx="5" y="6" x="6" height="38" width="38"
        fill="#f2f5e9" fill-opacity="0.5" stroke="#606060" stroke-width="1.0"/>
   <path id="arrow"
     d="M 11.500037,31.436501 C 11.940474,20.09759 22.043105,11.32322 32.158766,21.979434 L 37.068811,17.246167 C 37.068811,17.246167 37.088388,32 37.088388,32 L 22.160133,31.978069 C 22.160133,31.978069 26.997745,27.140456 26.997745,27.140456 C 18.528582,18.264221 13.291696,25.230495 11.500037,31.436501 z"
     style="fill:#404040;"/>
  </a>
 </g>
</svg>

<style type='text/css'>
<![CDATA[
[data-mouse-over-selected='false'] { opacity: 0.7; }
[data-mouse-over-selected='true']  { opacity: 1.0; }
]]>
</style>
<script type="application/ecmascript"><![CDATA[
document.addEventListener('DOMContentLoaded', (event) => {
  highlightEdges();
  highlightAdjacentNodes();
});
]]></script>
</svg>
