<?xml version="1.0" encoding="UTF-8" standalone="no"?>
<!DOCTYPE svg PUBLIC "-//W3C//DTD SVG 1.1//EN"
 "http://www.w3.org/Graphics/SVG/1.1/DTD/svg11.dtd">
<!-- Generated by graphviz version 10.0.1 (20240210.2158)
 -->
<!-- Title: NAudio.Wave.SampleProviders.MixingSampleProvider Pages: 1 -->
<svg width="158pt" height="318pt"
 viewBox="0.00 0.00 158.00 318.00" xmlns="http://www.w3.org/2000/svg" xmlns:xlink="http://www.w3.org/1999/xlink">
<g id="graph0" class="graph" transform="scale(1 1) rotate(0) translate(4 314)">
<title>NAudio.Wave.SampleProviders.MixingSampleProvider</title>
<!-- Node1 -->
<g id="Node000001" class="node">
<title>Node1</title>
<g id="a_Node000001"><a xlink:title="A sample provider mixer, allowing inputs to be added and removed.">
<polygon fill="#999999" stroke="none" points="150,-225 0,-225 0,0 150,0 150,-225"/>
<text text-anchor="start" x="4.88" y="-211.5" font-family="Helvetica,sans-Serif" font-size="10.00">NAudio.Wave.SampleProviders.</text>
<text text-anchor="start" x="26.25" y="-200.25" font-family="Helvetica,sans-Serif" font-size="10.00">MixingSampleProvider</text>
<text text-anchor="start" x="10.5" y="-185.5" font-family="Helvetica,sans-Serif" font-size="10.00">+</text>
<text text-anchor="start" x="27" y="-185.5" font-family="Helvetica,sans-Serif" font-size="10.00">MixerInputs</text>
<text text-anchor="start" x="10.5" y="-170.5" font-family="Helvetica,sans-Serif" font-size="10.00">+</text>
<text text-anchor="start" x="27" y="-170.5" font-family="Helvetica,sans-Serif" font-size="10.00">ReadFully</text>
<text text-anchor="start" x="10.5" y="-155.5" font-family="Helvetica,sans-Serif" font-size="10.00">+</text>
<text text-anchor="start" x="27" y="-155.5" font-family="Helvetica,sans-Serif" font-size="10.00">WaveFormat</text>
<text text-anchor="start" x="12" y="-140.5" font-family="Helvetica,sans-Serif" font-size="10.00">&#45;</text>
<text text-anchor="start" x="27" y="-140.5" font-family="Helvetica,sans-Serif" font-size="10.00">sources</text>
<text text-anchor="start" x="12" y="-125.5" font-family="Helvetica,sans-Serif" font-size="10.00">&#45;</text>
<text text-anchor="start" x="27" y="-125.5" font-family="Helvetica,sans-Serif" font-size="10.00">sourceBuffer</text>
<text text-anchor="start" x="12" y="-110.5" font-family="Helvetica,sans-Serif" font-size="10.00">&#45;</text>
<text text-anchor="start" x="27" y="-110.5" font-family="Helvetica,sans-Serif" font-size="10.00">MaxInputs</text>
<text text-anchor="start" x="10.5" y="-95.5" font-family="Helvetica,sans-Serif" font-size="10.00">+</text>
<text text-anchor="start" x="27" y="-95.5" font-family="Helvetica,sans-Serif" font-size="10.00">MixingSampleProvider()</text>
<text text-anchor="start" x="10.5" y="-80.5" font-family="Helvetica,sans-Serif" font-size="10.00">+</text>
<text text-anchor="start" x="27" y="-80.5" font-family="Helvetica,sans-Serif" font-size="10.00">MixingSampleProvider()</text>
<text text-anchor="start" x="10.5" y="-65.5" font-family="Helvetica,sans-Serif" font-size="10.00">+</text>
<text text-anchor="start" x="27" y="-65.5" font-family="Helvetica,sans-Serif" font-size="10.00">AddMixerInput()</text>
<text text-anchor="start" x="10.5" y="-50.5" font-family="Helvetica,sans-Serif" font-size="10.00">+</text>
<text text-anchor="start" x="27" y="-50.5" font-family="Helvetica,sans-Serif" font-size="10.00">AddMixerInput()</text>
<text text-anchor="start" x="10.5" y="-35.5" font-family="Helvetica,sans-Serif" font-size="10.00">+</text>
<text text-anchor="start" x="27" y="-35.5" font-family="Helvetica,sans-Serif" font-size="10.00">RemoveMixerInput()</text>
<text text-anchor="start" x="10.5" y="-20.5" font-family="Helvetica,sans-Serif" font-size="10.00">+</text>
<text text-anchor="start" x="27" y="-20.5" font-family="Helvetica,sans-Serif" font-size="10.00">RemoveAllMixerInputs()</text>
<text text-anchor="start" x="10.5" y="-5.5" font-family="Helvetica,sans-Serif" font-size="10.00">+</text>
<text text-anchor="start" x="27" y="-5.5" font-family="Helvetica,sans-Serif" font-size="10.00">Read()</text>
<polygon fill="#666666" stroke="#666666" points="0,-197 0,-197 150,-197 150,-197 0,-197"/>
<polygon fill="#666666" stroke="#666666" points="0,-107 0,-107 25,-107 25,-107 0,-107"/>
<polygon fill="#666666" stroke="#666666" points="25,-107 25,-107 150,-107 150,-107 25,-107"/>
<polygon fill="none" stroke="#666666" points="0,0 0,-225 150,-225 150,0 0,0"/>
</a>
</g>
</g>
<!-- Node2 -->
<g id="Node000002" class="node">
<title>Node2</title>
<g id="a_Node000002"><a xlink:href="interface_n_audio_1_1_wave_1_1_i_sample_provider.html" target="_top" xlink:title="Like IWaveProvider, but makes it much simpler to put together a 32 bit floating point mixing engine.">
<polygon fill="white" stroke="none" points="116,-310 34,-310 34,-261 116,-261 116,-310"/>
<text text-anchor="start" x="39" y="-296.5" font-family="Helvetica,sans-Serif" font-size="10.00">ISampleProvider</text>
<text text-anchor="start" x="40" y="-281.5" font-family="Helvetica,sans-Serif" font-size="10.00">+</text>
<text text-anchor="start" x="52" y="-281.5" font-family="Helvetica,sans-Serif" font-size="10.00">WaveFormat</text>
<text text-anchor="start" x="40" y="-266.5" font-family="Helvetica,sans-Serif" font-size="10.00">+</text>
<text text-anchor="start" x="52" y="-266.5" font-family="Helvetica,sans-Serif" font-size="10.00">Read()</text>
<polygon fill="#666666" stroke="#666666" points="34,-293 34,-293 116,-293 116,-293 34,-293"/>
<polygon fill="#666666" stroke="#666666" points="34,-278 34,-278 50,-278 50,-278 34,-278"/>
<polygon fill="#666666" stroke="#666666" points="50,-278 50,-278 116,-278 116,-278 50,-278"/>
<polygon fill="none" stroke="#666666" points="34,-261 34,-310 116,-310 116,-261 34,-261"/>
</a>
</g>
</g>
<!-- Node2&#45;&gt;Node1 -->
<g id="edge1_Node000001_Node000002" class="edge">
<title>Node2&#45;&gt;Node1</title>
<g id="a_edge1_Node000001_Node000002"><a xlink:title=" ">
<path fill="none" stroke="#63b8ff" d="M75,-249.61C75,-242.08 75,-233.72 75,-224.96"/>
<polygon fill="none" stroke="#63b8ff" points="71.5,-249.57 75,-259.57 78.5,-249.57 71.5,-249.57"/>
</a>
</g>
</g>
</g>
</svg>
