<?xml version="1.0" encoding="UTF-8" standalone="no"?>
<!DOCTYPE svg PUBLIC "-//W3C//DTD SVG 1.1//EN"
 "http://www.w3.org/Graphics/SVG/1.1/DTD/svg11.dtd">
<!-- Generated by graphviz version 10.0.1 (20240210.2158)
 -->
<!-- Title: xeno_rat_server.Forms.Hvnc Pages: 1 -->
<svg width="144pt" height="562pt"
 viewBox="0.00 0.00 144.00 562.00" xmlns="http://www.w3.org/2000/svg" xmlns:xlink="http://www.w3.org/1999/xlink">
<g id="graph0" class="graph" transform="scale(1 1) rotate(0) translate(4 558)">
<title>xeno_rat_server.Forms.Hvnc</title>
<!-- Node1 -->
<g id="Node000001" class="node">
<title>Node1</title>
<g id="a_Node000001"><a xlink:title=" ">
<polygon fill="#999999" stroke="none" points="136,-469 0,-469 0,0 136,0 136,-469"/>
<text text-anchor="start" x="5" y="-455.5" font-family="Helvetica,sans-Serif" font-size="10.00">xeno_rat_server.Forms.Hvnc</text>
<text text-anchor="start" x="10" y="-440.5" font-family="Helvetica,sans-Serif" font-size="10.00">&#45;</text>
<text text-anchor="start" x="23" y="-440.5" font-family="Helvetica,sans-Serif" font-size="10.00">client</text>
<text text-anchor="start" x="10" y="-425.5" font-family="Helvetica,sans-Serif" font-size="10.00">&#45;</text>
<text text-anchor="start" x="23" y="-425.5" font-family="Helvetica,sans-Serif" font-size="10.00">ImageNode</text>
<text text-anchor="start" x="10" y="-410.5" font-family="Helvetica,sans-Serif" font-size="10.00">&#45;</text>
<text text-anchor="start" x="23" y="-410.5" font-family="Helvetica,sans-Serif" font-size="10.00">DesktopName</text>
<text text-anchor="start" x="10" y="-395.5" font-family="Helvetica,sans-Serif" font-size="10.00">&#45;</text>
<text text-anchor="start" x="23" y="-395.5" font-family="Helvetica,sans-Serif" font-size="10.00">playing</text>
<text text-anchor="start" x="10" y="-380.5" font-family="Helvetica,sans-Serif" font-size="10.00">&#45;</text>
<text text-anchor="start" x="23" y="-380.5" font-family="Helvetica,sans-Serif" font-size="10.00">is_cloning_browser</text>
<text text-anchor="start" x="10" y="-365.5" font-family="Helvetica,sans-Serif" font-size="10.00">&#45;</text>
<text text-anchor="start" x="23" y="-365.5" font-family="Helvetica,sans-Serif" font-size="10.00">qualitys</text>
<text text-anchor="start" x="10" y="-350.5" font-family="Helvetica,sans-Serif" font-size="10.00">&#45;</text>
<text text-anchor="start" x="23" y="-350.5" font-family="Helvetica,sans-Serif" font-size="10.00">customPictureBox1</text>
<text text-anchor="start" x="10" y="-335.5" font-family="Helvetica,sans-Serif" font-size="10.00">&#45;</text>
<text text-anchor="start" x="23" y="-335.5" font-family="Helvetica,sans-Serif" font-size="10.00">components</text>
<text text-anchor="start" x="10" y="-320.5" font-family="Helvetica,sans-Serif" font-size="10.00">&#45;</text>
<text text-anchor="start" x="23" y="-320.5" font-family="Helvetica,sans-Serif" font-size="10.00">pictureBox1</text>
<text text-anchor="start" x="10" y="-305.5" font-family="Helvetica,sans-Serif" font-size="10.00">&#45;</text>
<text text-anchor="start" x="23" y="-305.5" font-family="Helvetica,sans-Serif" font-size="10.00">button1</text>
<text text-anchor="start" x="23" y="-290.5" font-family="Helvetica,sans-Serif" font-size="10.00">and 13 more...</text>
<text text-anchor="start" x="8.5" y="-275.5" font-family="Helvetica,sans-Serif" font-size="10.00">+</text>
<text text-anchor="start" x="23" y="-275.5" font-family="Helvetica,sans-Serif" font-size="10.00">Hvnc()</text>
<text text-anchor="start" x="8.5" y="-260.5" font-family="Helvetica,sans-Serif" font-size="10.00">+</text>
<text text-anchor="start" x="23" y="-260.5" font-family="Helvetica,sans-Serif" font-size="10.00">start()</text>
<text text-anchor="start" x="8.5" y="-245.5" font-family="Helvetica,sans-Serif" font-size="10.00">+</text>
<text text-anchor="start" x="23" y="-245.5" font-family="Helvetica,sans-Serif" font-size="10.00">stop()</text>
<text text-anchor="start" x="8.5" y="-230.5" font-family="Helvetica,sans-Serif" font-size="10.00">+</text>
<text text-anchor="start" x="23" y="-230.5" font-family="Helvetica,sans-Serif" font-size="10.00">SetQuality()</text>
<text text-anchor="start" x="8.5" y="-215.5" font-family="Helvetica,sans-Serif" font-size="10.00">+</text>
<text text-anchor="start" x="23" y="-215.5" font-family="Helvetica,sans-Serif" font-size="10.00">TempOnDisconnect()</text>
<text text-anchor="start" x="8.5" y="-200.5" font-family="Helvetica,sans-Serif" font-size="10.00">+</text>
<text text-anchor="start" x="23" y="-200.5" font-family="Helvetica,sans-Serif" font-size="10.00">RecvThread()</text>
<text text-anchor="start" x="8.88" y="-185.5" font-family="Helvetica,sans-Serif" font-size="10.00">#</text>
<text text-anchor="start" x="23" y="-185.5" font-family="Helvetica,sans-Serif" font-size="10.00">ProcessCmdKey()</text>
<text text-anchor="start" x="8.88" y="-170.5" font-family="Helvetica,sans-Serif" font-size="10.00">#</text>
<text text-anchor="start" x="23" y="-170.5" font-family="Helvetica,sans-Serif" font-size="10.00">Dispose()</text>
<text text-anchor="start" x="10" y="-155.5" font-family="Helvetica,sans-Serif" font-size="10.00">&#45;</text>
<text text-anchor="start" x="23" y="-155.5" font-family="Helvetica,sans-Serif" font-size="10.00">InitializeAsync()</text>
<text text-anchor="start" x="10" y="-140.5" font-family="Helvetica,sans-Serif" font-size="10.00">&#45;</text>
<text text-anchor="start" x="23" y="-140.5" font-family="Helvetica,sans-Serif" font-size="10.00">StartProc()</text>
<text text-anchor="start" x="10" y="-125.5" font-family="Helvetica,sans-Serif" font-size="10.00">&#45;</text>
<text text-anchor="start" x="23" y="-125.5" font-family="Helvetica,sans-Serif" font-size="10.00">EnableBrowserClone()</text>
<text text-anchor="start" x="10" y="-110.5" font-family="Helvetica,sans-Serif" font-size="10.00">&#45;</text>
<text text-anchor="start" x="23" y="-110.5" font-family="Helvetica,sans-Serif" font-size="10.00">DisableBrowserClone()</text>
<text text-anchor="start" x="10" y="-95.5" font-family="Helvetica,sans-Serif" font-size="10.00">&#45;</text>
<text text-anchor="start" x="23" y="-95.5" font-family="Helvetica,sans-Serif" font-size="10.00">StartChrome()</text>
<text text-anchor="start" x="10" y="-80.5" font-family="Helvetica,sans-Serif" font-size="10.00">&#45;</text>
<text text-anchor="start" x="23" y="-80.5" font-family="Helvetica,sans-Serif" font-size="10.00">StartFirefox()</text>
<text text-anchor="start" x="10" y="-65.5" font-family="Helvetica,sans-Serif" font-size="10.00">&#45;</text>
<text text-anchor="start" x="23" y="-65.5" font-family="Helvetica,sans-Serif" font-size="10.00">StartEdge()</text>
<text text-anchor="start" x="10" y="-50.5" font-family="Helvetica,sans-Serif" font-size="10.00">&#45;</text>
<text text-anchor="start" x="23" y="-50.5" font-family="Helvetica,sans-Serif" font-size="10.00">StartOpera()</text>
<text text-anchor="start" x="10" y="-35.5" font-family="Helvetica,sans-Serif" font-size="10.00">&#45;</text>
<text text-anchor="start" x="23" y="-35.5" font-family="Helvetica,sans-Serif" font-size="10.00">StartOperaGX()</text>
<text text-anchor="start" x="10" y="-20.5" font-family="Helvetica,sans-Serif" font-size="10.00">&#45;</text>
<text text-anchor="start" x="23" y="-20.5" font-family="Helvetica,sans-Serif" font-size="10.00">StartBrave()</text>
<text text-anchor="start" x="23" y="-5.5" font-family="Helvetica,sans-Serif" font-size="10.00">and 18 more...</text>
<polygon fill="#666666" stroke="#666666" points="0,-452 0,-452 136,-452 136,-452 0,-452"/>
<polygon fill="#666666" stroke="#666666" points="0,-287 0,-287 21,-287 21,-287 0,-287"/>
<polygon fill="#666666" stroke="#666666" points="21,-287 21,-287 136,-287 136,-287 21,-287"/>
<polygon fill="none" stroke="#666666" points="0,0 0,-469 136,-469 136,0 0,0"/>
</a>
</g>
</g>
<!-- Node2 -->
<g id="Node000002" class="node">
<title>Node2</title>
<g id="a_Node000002"><a xlink:href="class_form.html" target="_top" xlink:title=" ">
<polygon fill="white" stroke="none" points="84,-554 52,-554 52,-505 84,-505 84,-554"/>
<text text-anchor="start" x="56.75" y="-540.5" font-family="Helvetica,sans-Serif" font-size="10.00">Form</text>
<text text-anchor="start" x="66.5" y="-525.5" font-family="Helvetica,sans-Serif" font-size="10.00"> </text>
<text text-anchor="start" x="66.5" y="-510.5" font-family="Helvetica,sans-Serif" font-size="10.00"> </text>
<polygon fill="#666666" stroke="#666666" points="52,-537 52,-537 84,-537 84,-537 52,-537"/>
<polygon fill="#666666" stroke="#666666" points="52,-522 52,-522 84,-522 84,-522 52,-522"/>
<polygon fill="none" stroke="#666666" points="52,-505 52,-554 84,-554 84,-505 52,-505"/>
</a>
</g>
</g>
<!-- Node2&#45;&gt;Node1 -->
<g id="edge1_Node000001_Node000002" class="edge">
<title>Node2&#45;&gt;Node1</title>
<g id="a_edge1_Node000001_Node000002"><a xlink:title=" ">
<path fill="none" stroke="#63b8ff" d="M68,-493.52C68,-486.14 68,-477.85 68,-468.86"/>
<polygon fill="none" stroke="#63b8ff" points="64.5,-493.5 68,-503.5 71.5,-493.5 64.5,-493.5"/>
</a>
</g>
</g>
</g>
</svg>
