<?xml version="1.0" encoding="UTF-8" standalone="no"?>
<!DOCTYPE svg PUBLIC "-//W3C//DTD SVG 1.1//EN"
 "http://www.w3.org/Graphics/SVG/1.1/DTD/svg11.dtd">
<!-- Generated by graphviz version 10.0.1 (20240210.2158)
 -->
<!-- Title: NAudio.CoreAudioApi.DeviceTopology Pages: 1 -->
<svg width="197pt" height="295pt"
 viewBox="0.00 0.00 196.75 295.25" xmlns="http://www.w3.org/2000/svg" xmlns:xlink="http://www.w3.org/1999/xlink">

<svg id="main" version="1.1" xmlns="http://www.w3.org/2000/svg" xmlns:xlink="http://www.w3.org/1999/xlink" xml:space="preserve" onload="init(evt)">
<style type="text/css"><![CDATA[
.node, .edge {opacity: 0.7;}
.node.selected, .edge.selected {opacity: 1;}
.edge:hover path { stroke: red; }
.edge:hover polygon { stroke: red; fill: red; }
]]></style>
<script type="application/ecmascript" xlink:href="svg.min.js"/>
<svg id="graph" class="graph">
<g id="graph0" class="graph" transform="scale(1 1) rotate(0) translate(4 291.25)">
<title>NAudio.CoreAudioApi.DeviceTopology</title>
<!-- Node1 -->
<g id="Node000001" class="node">
<title>Node1</title>
<g id="a_Node000001"><a xlink:title="Windows CoreAudio DeviceTopology.">
<polygon fill="#999999" stroke="none" points="146.5,-90 7.5,-90 7.5,0 146.5,0 146.5,-90"/>
<text text-anchor="start" x="12.5" y="-76.5" font-family="Helvetica,sans-Serif" font-size="10.00">NAudio.CoreAudioApi.Device</text>
<text text-anchor="start" x="57.5" y="-65.25" font-family="Helvetica,sans-Serif" font-size="10.00">Topology</text>
<text text-anchor="start" x="23" y="-50.5" font-family="Helvetica,sans-Serif" font-size="10.00">+</text>
<text text-anchor="start" x="44.5" y="-50.5" font-family="Helvetica,sans-Serif" font-size="10.00">ConnectorCount</text>
<text text-anchor="start" x="23" y="-35.5" font-family="Helvetica,sans-Serif" font-size="10.00">+</text>
<text text-anchor="start" x="44.5" y="-35.5" font-family="Helvetica,sans-Serif" font-size="10.00">DeviceId</text>
<text text-anchor="start" x="23" y="-20.5" font-family="Helvetica,sans-Serif" font-size="10.00">+</text>
<text text-anchor="start" x="44.5" y="-20.5" font-family="Helvetica,sans-Serif" font-size="10.00">GetConnector()</text>
<text text-anchor="start" x="23" y="-5.5" font-family="Helvetica,sans-Serif" font-size="10.00">~</text>
<text text-anchor="start" x="44.5" y="-5.5" font-family="Helvetica,sans-Serif" font-size="10.00">DeviceTopology()</text>
<polygon fill="#666666" stroke="#666666" points="7.5,-62 7.5,-62 146.5,-62 146.5,-62 7.5,-62"/>
<polygon fill="#666666" stroke="#666666" points="7.5,-32 7.5,-32 42.5,-32 42.5,-32 7.5,-32"/>
<polygon fill="#666666" stroke="#666666" points="42.5,-32 42.5,-32 146.5,-32 146.5,-32 42.5,-32"/>
<polygon fill="none" stroke="#666666" points="7.5,0 7.5,-90 146.5,-90 146.5,0 7.5,0"/>
</a>
</g>
</g>
<!-- Node2 -->
<g id="Node000002" class="node">
<title>Node2</title>
<g id="a_Node000002"><a xlink:title=" ">
<polygon fill="white" stroke="none" points="154,-287.25 0,-287.25 0,-137.25 154,-137.25 154,-287.25"/>
<text text-anchor="start" x="4.62" y="-273.75" font-family="Helvetica,sans-Serif" font-size="10.00">NAudio.CoreAudioApi.Interfaces.</text>
<text text-anchor="start" x="40.62" y="-262.5" font-family="Helvetica,sans-Serif" font-size="10.00">IDeviceTopology</text>
<text text-anchor="start" x="75.5" y="-247.75" font-family="Helvetica,sans-Serif" font-size="10.00"> </text>
<text text-anchor="start" x="14.5" y="-232.75" font-family="Helvetica,sans-Serif" font-size="10.00">+</text>
<text text-anchor="start" x="35" y="-232.75" font-family="Helvetica,sans-Serif" font-size="10.00">GetConnectorCount()</text>
<text text-anchor="start" x="14.5" y="-217.75" font-family="Helvetica,sans-Serif" font-size="10.00">+</text>
<text text-anchor="start" x="35" y="-217.75" font-family="Helvetica,sans-Serif" font-size="10.00">GetConnector()</text>
<text text-anchor="start" x="14.5" y="-202.75" font-family="Helvetica,sans-Serif" font-size="10.00">+</text>
<text text-anchor="start" x="35" y="-202.75" font-family="Helvetica,sans-Serif" font-size="10.00">GetSubunitCount()</text>
<text text-anchor="start" x="14.5" y="-187.75" font-family="Helvetica,sans-Serif" font-size="10.00">+</text>
<text text-anchor="start" x="35" y="-187.75" font-family="Helvetica,sans-Serif" font-size="10.00">GetSubunit()</text>
<text text-anchor="start" x="14.5" y="-172.75" font-family="Helvetica,sans-Serif" font-size="10.00">+</text>
<text text-anchor="start" x="35" y="-172.75" font-family="Helvetica,sans-Serif" font-size="10.00">GetPartById()</text>
<text text-anchor="start" x="14.5" y="-157.75" font-family="Helvetica,sans-Serif" font-size="10.00">+</text>
<text text-anchor="start" x="35" y="-157.75" font-family="Helvetica,sans-Serif" font-size="10.00">GetDeviceId()</text>
<text text-anchor="start" x="14.5" y="-142.75" font-family="Helvetica,sans-Serif" font-size="10.00">+</text>
<text text-anchor="start" x="35" y="-142.75" font-family="Helvetica,sans-Serif" font-size="10.00">GetSignalPath()</text>
<polygon fill="#666666" stroke="#666666" points="0,-259.25 0,-259.25 154,-259.25 154,-259.25 0,-259.25"/>
<polygon fill="#666666" stroke="#666666" points="0,-244.25 0,-244.25 154,-244.25 154,-244.25 0,-244.25"/>
<polygon fill="none" stroke="#666666" points="0,-137.25 0,-287.25 154,-287.25 154,-137.25 0,-137.25"/>
</a>
</g>
</g>
<!-- Node2&#45;&gt;Node1 -->
<g id="edge1_Node000001_Node000002" class="edge">
<title>Node2&#45;&gt;Node1</title>
<g id="a_edge1_Node000001_Node000002"><a xlink:title=" ">
<path fill="none" stroke="#63b8ff" d="M77,-137.32C77,-125.59 77,-113.62 77,-102.37"/>
<polygon fill="none" stroke="#63b8ff" points="77,-102.46 73,-96.46 77,-90.46 81,-96.46 77,-102.46"/>
</a>
</g>
<text text-anchor="middle" x="132.88" y="-109.75" font-family="Helvetica,sans-Serif" font-size="10.00" fill="grey"> &#45;deviceTopologyInterface</text>
</g>
</g>
</svg>
</svg>

<style type='text/css'>
<![CDATA[
[data-mouse-over-selected='false'] { opacity: 0.7; }
[data-mouse-over-selected='true']  { opacity: 1.0; }
]]>
</style>
<script type="application/ecmascript"><![CDATA[
document.addEventListener('DOMContentLoaded', (event) => {
  highlightEdges();
  highlightAdjacentNodes();
});
]]></script>
</svg>
