<?xml version="1.0" encoding="UTF-8" standalone="no"?>
<!DOCTYPE svg PUBLIC "-//W3C//DTD SVG 1.1//EN"
 "http://www.w3.org/Graphics/SVG/1.1/DTD/svg11.dtd">
<!-- Generated by graphviz version 10.0.1 (20240210.2158)
 -->
<!-- Title: NAudio.Wave.WaveIn.CreateBuffers Pages: 1 -->
<svg width="523pt" height="39pt"
 viewBox="0.00 0.00 523.25 38.50" xmlns="http://www.w3.org/2000/svg" xmlns:xlink="http://www.w3.org/1999/xlink">
<g id="graph0" class="graph" transform="scale(1 1) rotate(0) translate(4 34.5)">
<title>NAudio.Wave.WaveIn.CreateBuffers</title>
<!-- Node1 -->
<g id="Node000001" class="node">
<title>Node1</title>
<g id="a_Node000001"><a xlink:title="Creates audio buffers for capturing audio data.">
<polygon fill="#999999" stroke="#666666" points="515.25,-30.5 371,-30.5 371,0 515.25,0 515.25,-30.5"/>
<text text-anchor="start" x="379" y="-17" font-family="Helvetica,sans-Serif" font-size="10.00">NAudio.Wave.WaveIn.Create</text>
<text text-anchor="middle" x="443.12" y="-5.75" font-family="Helvetica,sans-Serif" font-size="10.00">Buffers</text>
</a>
</g>
</g>
<!-- Node2 -->
<g id="Node000002" class="node">
<title>Node2</title>
<g id="a_Node000002"><a xlink:href="class_n_audio_1_1_wave_1_1_wave_in.html#a7028a5b04609d26c7ce802dab87147f1" target="_top" xlink:title="Opens the wave input device and creates necessary buffers.">
<polygon fill="white" stroke="#666666" points="335,-30.5 172,-30.5 172,0 335,0 335,-30.5"/>
<text text-anchor="start" x="180" y="-17" font-family="Helvetica,sans-Serif" font-size="10.00">NAudio.Wave.WaveIn.OpenWave</text>
<text text-anchor="middle" x="253.5" y="-5.75" font-family="Helvetica,sans-Serif" font-size="10.00">InDevice</text>
</a>
</g>
</g>
<!-- Node1&#45;&gt;Node2 -->
<g id="edge1_Node000001_Node000002" class="edge">
<title>Node1&#45;&gt;Node2</title>
<g id="a_edge1_Node000001_Node000002"><a xlink:title=" ">
<path fill="none" stroke="#63b8ff" d="M359.21,-15.25C351.34,-15.25 343.35,-15.25 335.49,-15.25"/>
<polygon fill="#63b8ff" stroke="#63b8ff" points="359.14,-18.75 369.14,-15.25 359.14,-11.75 359.14,-18.75"/>
</a>
</g>
</g>
<!-- Node3 -->
<g id="Node000003" class="node">
<title>Node3</title>
<g id="a_Node000003"><a xlink:href="class_n_audio_1_1_wave_1_1_wave_in.html#ac73083af2ea40dab1577caf35c79c7cd" target="_top" xlink:title="Starts the audio recording process.">
<polygon fill="white" stroke="#666666" points="136,-30.5 0,-30.5 0,0 136,0 136,-30.5"/>
<text text-anchor="start" x="8" y="-17" font-family="Helvetica,sans-Serif" font-size="10.00">NAudio.Wave.WaveIn.Start</text>
<text text-anchor="middle" x="68" y="-5.75" font-family="Helvetica,sans-Serif" font-size="10.00">Recording</text>
</a>
</g>
</g>
<!-- Node2&#45;&gt;Node3 -->
<g id="edge2_Node000002_Node000003" class="edge">
<title>Node2&#45;&gt;Node3</title>
<g id="a_edge2_Node000002_Node000003"><a xlink:title=" ">
<path fill="none" stroke="#63b8ff" d="M160.33,-15.25C152.24,-15.25 144.16,-15.25 136.33,-15.25"/>
<polygon fill="#63b8ff" stroke="#63b8ff" points="160.23,-18.75 170.23,-15.25 160.23,-11.75 160.23,-18.75"/>
</a>
</g>
</g>
</g>
</svg>
