<?xml version="1.0" encoding="UTF-8" standalone="no"?>
<!DOCTYPE svg PUBLIC "-//W3C//DTD SVG 1.1//EN"
 "http://www.w3.org/Graphics/SVG/1.1/DTD/svg11.dtd">
<!-- Generated by graphviz version 10.0.1 (20240210.2158)
 -->
<!-- Title: NAudio.Mixer.UnsignedMixerControl Pages: 1 -->
<!--zoomable 849 -->

<svg id="main" version="1.1" xmlns="http://www.w3.org/2000/svg" xmlns:xlink="http://www.w3.org/1999/xlink" xml:space="preserve" onload="init(evt)">
<style type="text/css"><![CDATA[
.node, .edge {opacity: 0.7;}
.node.selected, .edge.selected {opacity: 1;}
.edge:hover path { stroke: red; }
.edge:hover polygon { stroke: red; fill: red; }
]]></style>

<defs>
  <circle id="rim" cx="0" cy="0" r="7"/>
  <circle id="rim2" cx="0" cy="0" r="3.5"/>
  <g id="zoomPlus">
    <use xlink:href="#rim" fill="#404040"><set attributeName="fill" to="#808080" begin="zoomplus.mouseover" end="zoomplus.mouseout"/></use>
    <path d="M-4,0h8M0,-4v8" fill="none" stroke="white" stroke-width="1.5" pointer-events="none"/>
  </g>
  <g id="zoomMin">
    <use xlink:href="#rim" fill="#404040"><set attributeName="fill" to="#808080" begin="zoomminus.mouseover" end="zoomminus.mouseout"/></use>
    <path d="M-4,0h8" fill="none" stroke="white" stroke-width="1.5" pointer-events="none"/>
  </g>
  <g id="arrowUp" transform="translate(30 24)">
    <use xlink:href="#rim"/>
    <path pointer-events="none" fill="none" stroke="white" stroke-width="1.5" d="M0,-3.0v7 M-2.5,-0.5L0,-3.0L2.5,-0.5"/>
  </g>
  <g id="arrowRight" transform="rotate(90) translate(36 -43)">
    <use xlink:href="#rim"/>
    <path pointer-events="none" fill="none" stroke="white" stroke-width="1.5" d="M0,-3.0v7 M-2.5,-0.5L0,-3.0L2.5,-0.5"/>
  </g>
  <g id="arrowDown" transform="rotate(180) translate(-30 -48)">
    <use xlink:href="#rim"/>
    <path pointer-events="none" fill="none" stroke="white" stroke-width="1.5" d="M0,-3.0v7 M-2.5,-0.5L0,-3.0L2.5,-0.5"/>
  </g>
  <g id="arrowLeft" transform="rotate(270) translate(-36 17)">
    <use xlink:href="#rim"/>
    <path pointer-events="none" fill="none" stroke="white" stroke-width="1.5" d="M0,-3.0v7 M-2.5,-0.5L0,-3.0L2.5,-0.5"/>
  </g>
  <g id="resetDef">
    <use xlink:href="#rim2" fill="#404040"><set attributeName="fill" to="#808080" begin="reset.mouseover" end="reset.mouseout"/></use>
  </g>
</defs>
<script type="application/ecmascript">
var viewWidth = 467;
var viewHeight = 849;
var sectionId = 'dynsection-1';
</script>
<script type="application/ecmascript" xlink:href="svg.min.js"/>
<svg id="graph" class="graph">
<g id="viewport">
<title>NAudio.Mixer.UnsignedMixerControl</title>
<!-- Node1 -->
<g id="Node000001" class="node">
<title>Node1</title>
<g id="a_Node000001"><a xlink:title="Represents an unsigned mixer control.">
<polygon fill="#999999" stroke="none" points="168.5,-135 32.5,-135 32.5,0 168.5,0 168.5,-135"/>
<text text-anchor="start" x="37.12" y="-121.5" font-family="Helvetica,sans-Serif" font-size="10.00">NAudio.Mixer.UnsignedMixer</text>
<text text-anchor="start" x="84.75" y="-110.25" font-family="Helvetica,sans-Serif" font-size="10.00">Control</text>
<text text-anchor="start" x="40.5" y="-95.5" font-family="Helvetica,sans-Serif" font-size="10.00">+</text>
<text text-anchor="start" x="54.5" y="-95.5" font-family="Helvetica,sans-Serif" font-size="10.00">Value</text>
<text text-anchor="start" x="40.5" y="-80.5" font-family="Helvetica,sans-Serif" font-size="10.00">+</text>
<text text-anchor="start" x="54.5" y="-80.5" font-family="Helvetica,sans-Serif" font-size="10.00">MinValue</text>
<text text-anchor="start" x="40.5" y="-65.5" font-family="Helvetica,sans-Serif" font-size="10.00">+</text>
<text text-anchor="start" x="54.5" y="-65.5" font-family="Helvetica,sans-Serif" font-size="10.00">MaxValue</text>
<text text-anchor="start" x="40.5" y="-50.5" font-family="Helvetica,sans-Serif" font-size="10.00">+</text>
<text text-anchor="start" x="54.5" y="-50.5" font-family="Helvetica,sans-Serif" font-size="10.00">Percent</text>
<text text-anchor="start" x="40.5" y="-35.5" font-family="Helvetica,sans-Serif" font-size="10.00">+</text>
<text text-anchor="start" x="54.5" y="-35.5" font-family="Helvetica,sans-Serif" font-size="10.00">ToString()</text>
<text text-anchor="start" x="40.5" y="-20.5" font-family="Helvetica,sans-Serif" font-size="10.00">~</text>
<text text-anchor="start" x="54.5" y="-20.5" font-family="Helvetica,sans-Serif" font-size="10.00">UnsignedMixerControl()</text>
<text text-anchor="start" x="40.88" y="-5.5" font-family="Helvetica,sans-Serif" font-size="10.00">#</text>
<text text-anchor="start" x="54.5" y="-5.5" font-family="Helvetica,sans-Serif" font-size="10.00">GetDetails()</text>
<polygon fill="#666666" stroke="#666666" points="32.5,-107 32.5,-107 168.5,-107 168.5,-107 32.5,-107"/>
<polygon fill="#666666" stroke="#666666" points="32.5,-47 32.5,-47 52.5,-47 52.5,-47 32.5,-47"/>
<polygon fill="#666666" stroke="#666666" points="52.5,-47 52.5,-47 168.5,-47 168.5,-47 52.5,-47"/>
<polygon fill="none" stroke="#666666" points="32.5,0 32.5,-135 168.5,-135 168.5,0 32.5,0"/>
</a>
</g>
</g>
<!-- Node2 -->
<g id="Node000002" class="node">
<title>Node2</title>
<g id="a_Node000002"><a xlink:href="class_n_audio_1_1_mixer_1_1_mixer_control.html" target="_top" xlink:title="Represents a mixer control.">
<polygon fill="white" stroke="none" points="289,-446 184,-446 184,-172 289,-172 289,-446"/>
<text text-anchor="start" x="208.75" y="-432.5" font-family="Helvetica,sans-Serif" font-size="10.00">MixerControl</text>
<text text-anchor="start" x="188" y="-417.5" font-family="Helvetica,sans-Serif" font-size="10.00">+</text>
<text text-anchor="start" x="198" y="-417.5" font-family="Helvetica,sans-Serif" font-size="10.00">Name</text>
<text text-anchor="start" x="188" y="-402.5" font-family="Helvetica,sans-Serif" font-size="10.00">+</text>
<text text-anchor="start" x="198" y="-402.5" font-family="Helvetica,sans-Serif" font-size="10.00">ControlType</text>
<text text-anchor="start" x="188" y="-387.5" font-family="Helvetica,sans-Serif" font-size="10.00">+</text>
<text text-anchor="start" x="198" y="-387.5" font-family="Helvetica,sans-Serif" font-size="10.00">IsBoolean</text>
<text text-anchor="start" x="188" y="-372.5" font-family="Helvetica,sans-Serif" font-size="10.00">+</text>
<text text-anchor="start" x="198" y="-372.5" font-family="Helvetica,sans-Serif" font-size="10.00">IsListText</text>
<text text-anchor="start" x="188" y="-357.5" font-family="Helvetica,sans-Serif" font-size="10.00">+</text>
<text text-anchor="start" x="198" y="-357.5" font-family="Helvetica,sans-Serif" font-size="10.00">IsSigned</text>
<text text-anchor="start" x="188" y="-342.5" font-family="Helvetica,sans-Serif" font-size="10.00">+</text>
<text text-anchor="start" x="198" y="-342.5" font-family="Helvetica,sans-Serif" font-size="10.00">IsUnsigned</text>
<text text-anchor="start" x="188" y="-327.5" font-family="Helvetica,sans-Serif" font-size="10.00">+</text>
<text text-anchor="start" x="198" y="-327.5" font-family="Helvetica,sans-Serif" font-size="10.00">IsCustom</text>
<text text-anchor="start" x="188" y="-312.5" font-family="Helvetica,sans-Serif" font-size="10.00">+</text>
<text text-anchor="start" x="198" y="-312.5" font-family="Helvetica,sans-Serif" font-size="10.00">ToString()</text>
<text text-anchor="start" x="188" y="-297.5" font-family="Helvetica,sans-Serif" font-size="10.00">+</text>
<text text-anchor="start" x="198" y="-297.5" font-family="Helvetica,sans-Serif" font-size="10.00">GetMixerControls()</text>
<text text-anchor="start" x="188" y="-282.5" font-family="Helvetica,sans-Serif" font-size="10.00">+</text>
<text text-anchor="start" x="198" y="-282.5" font-family="Helvetica,sans-Serif" font-size="10.00">GetMixerControl()</text>
<text text-anchor="start" x="188.38" y="-267.5" font-family="Helvetica,sans-Serif" font-size="10.00">#</text>
<text text-anchor="start" x="198" y="-267.5" font-family="Helvetica,sans-Serif" font-size="10.00">GetControlDetails()</text>
<text text-anchor="start" x="188.38" y="-252.5" font-family="Helvetica,sans-Serif" font-size="10.00">#</text>
<text text-anchor="start" x="198" y="-252.5" font-family="Helvetica,sans-Serif" font-size="10.00">GetDetails()</text>
<text text-anchor="start" x="189.5" y="-237.5" font-family="Helvetica,sans-Serif" font-size="10.00">&#45;</text>
<text text-anchor="start" x="198" y="-237.5" font-family="Helvetica,sans-Serif" font-size="10.00">IsControlBoolean()</text>
<text text-anchor="start" x="189.5" y="-222.5" font-family="Helvetica,sans-Serif" font-size="10.00">&#45;</text>
<text text-anchor="start" x="198" y="-222.5" font-family="Helvetica,sans-Serif" font-size="10.00">IsControlListText()</text>
<text text-anchor="start" x="189.5" y="-207.5" font-family="Helvetica,sans-Serif" font-size="10.00">&#45;</text>
<text text-anchor="start" x="198" y="-207.5" font-family="Helvetica,sans-Serif" font-size="10.00">IsControlSigned()</text>
<text text-anchor="start" x="189.5" y="-192.5" font-family="Helvetica,sans-Serif" font-size="10.00">&#45;</text>
<text text-anchor="start" x="198" y="-192.5" font-family="Helvetica,sans-Serif" font-size="10.00">IsControlUnsigned()</text>
<text text-anchor="start" x="189.5" y="-177.5" font-family="Helvetica,sans-Serif" font-size="10.00">&#45;</text>
<text text-anchor="start" x="198" y="-177.5" font-family="Helvetica,sans-Serif" font-size="10.00">IsControlCustom()</text>
<polygon fill="#666666" stroke="#666666" points="184,-429 184,-429 289,-429 289,-429 184,-429"/>
<polygon fill="#666666" stroke="#666666" points="184,-324 184,-324 196,-324 196,-324 184,-324"/>
<polygon fill="#666666" stroke="#666666" points="196,-324 196,-324 289,-324 289,-324 196,-324"/>
<polygon fill="none" stroke="#666666" points="184,-172 184,-446 289,-446 289,-172 184,-172"/>
</a>
</g>
</g>
<!-- Node2&#45;&gt;Node1 -->
<g id="edge1_Node000001_Node000002" class="edge">
<title>Node2&#45;&gt;Node1</title>
<g id="a_edge1_Node000001_Node000002"><a xlink:title=" ">
<path fill="none" stroke="#63b8ff" d="M178.73,-190.27C175.34,-184.05 171.91,-177.93 168.5,-172 161.47,-159.8 153.59,-147.06 145.75,-134.87"/>
<polygon fill="none" stroke="#63b8ff" points="175.48,-191.63 183.3,-198.77 181.64,-188.31 175.48,-191.63"/>
</a>
</g>
</g>
<!-- Node3 -->
<g id="Node000003" class="node">
<title>Node3</title>
<g id="a_Node000003"><a xlink:href="class_n_audio_1_1_mixer_1_1_mixer_interop.html" target="_top" xlink:title=" ">
<polygon fill="white" stroke="none" points="168.5,-688.5 42.5,-688.5 42.5,-504.5 168.5,-504.5 168.5,-688.5"/>
<text text-anchor="start" x="47.75" y="-675" font-family="Helvetica,sans-Serif" font-size="10.00">NAudio.Mixer.MixerInterop</text>
<text text-anchor="start" x="104" y="-660" font-family="Helvetica,sans-Serif" font-size="10.00"> </text>
<text text-anchor="start" x="46.5" y="-645" font-family="Helvetica,sans-Serif" font-size="10.00">+</text>
<text text-anchor="start" x="56.5" y="-645" font-family="Helvetica,sans-Serif" font-size="10.00">mixerGetNumDevs()</text>
<text text-anchor="start" x="46.5" y="-630" font-family="Helvetica,sans-Serif" font-size="10.00">+</text>
<text text-anchor="start" x="56.5" y="-630" font-family="Helvetica,sans-Serif" font-size="10.00">mixerOpen()</text>
<text text-anchor="start" x="46.5" y="-615" font-family="Helvetica,sans-Serif" font-size="10.00">+</text>
<text text-anchor="start" x="56.5" y="-615" font-family="Helvetica,sans-Serif" font-size="10.00">mixerClose()</text>
<text text-anchor="start" x="46.5" y="-600" font-family="Helvetica,sans-Serif" font-size="10.00">+</text>
<text text-anchor="start" x="56.5" y="-600" font-family="Helvetica,sans-Serif" font-size="10.00">mixerGetControlDetails()</text>
<text text-anchor="start" x="46.5" y="-585" font-family="Helvetica,sans-Serif" font-size="10.00">+</text>
<text text-anchor="start" x="56.5" y="-585" font-family="Helvetica,sans-Serif" font-size="10.00">mixerGetDevCaps()</text>
<text text-anchor="start" x="46.5" y="-570" font-family="Helvetica,sans-Serif" font-size="10.00">+</text>
<text text-anchor="start" x="56.5" y="-570" font-family="Helvetica,sans-Serif" font-size="10.00">mixerGetID()</text>
<text text-anchor="start" x="46.5" y="-555" font-family="Helvetica,sans-Serif" font-size="10.00">+</text>
<text text-anchor="start" x="56.5" y="-555" font-family="Helvetica,sans-Serif" font-size="10.00">mixerGetLineControls()</text>
<text text-anchor="start" x="46.5" y="-540" font-family="Helvetica,sans-Serif" font-size="10.00">+</text>
<text text-anchor="start" x="56.5" y="-540" font-family="Helvetica,sans-Serif" font-size="10.00">mixerGetLineInfo()</text>
<text text-anchor="start" x="46.5" y="-525" font-family="Helvetica,sans-Serif" font-size="10.00">+</text>
<text text-anchor="start" x="56.5" y="-525" font-family="Helvetica,sans-Serif" font-size="10.00">mixerMessage()</text>
<text text-anchor="start" x="46.5" y="-510" font-family="Helvetica,sans-Serif" font-size="10.00">+</text>
<text text-anchor="start" x="56.5" y="-510" font-family="Helvetica,sans-Serif" font-size="10.00">mixerSetControlDetails()</text>
<polygon fill="#666666" stroke="#666666" points="42.5,-671.5 42.5,-671.5 168.5,-671.5 168.5,-671.5 42.5,-671.5"/>
<polygon fill="#666666" stroke="#666666" points="42.5,-656.5 42.5,-656.5 168.5,-656.5 168.5,-656.5 42.5,-656.5"/>
<polygon fill="none" stroke="#666666" points="42.5,-504.5 42.5,-688.5 168.5,-688.5 168.5,-504.5 42.5,-504.5"/>
</a>
</g>
</g>
<!-- Node3&#45;&gt;Node1 -->
<g id="edge8_Node000001_Node000003" class="edge">
<title>Node3&#45;&gt;Node1</title>
<g id="a_edge8_Node000001_Node000003"><a xlink:title=" ">
<path fill="none" stroke="#63b8ff" d="M100.74,-504.6C99.91,-485.27 99.18,-464.96 98.75,-446 96,-324.25 97.72,-293.77 98.75,-172 98.82,-164.1 98.91,-155.86 99.02,-147.63"/>
<polygon fill="none" stroke="#63b8ff" points="99.02,-147.65 95.11,-141.6 99.2,-135.66 103.11,-141.71 99.02,-147.65"/>
</a>
</g>
<text text-anchor="middle" x="137.38" y="-305.12" font-family="Helvetica,sans-Serif" font-size="10.00" fill="grey"> &#45;unsignedDetails</text>
</g>
<!-- Node3&#45;&gt;Node2 -->
<g id="edge2_Node000002_Node000003" class="edge">
<title>Node3&#45;&gt;Node2</title>
<g id="a_edge2_Node000002_Node000003"><a xlink:title=" ">
<path fill="none" stroke="#63b8ff" d="M119.89,-504.8C124.81,-490.3 131.4,-476.11 140.25,-464 149.03,-451.98 158.53,-457.06 168.5,-446 171.28,-442.91 173.98,-439.69 176.6,-436.36"/>
<polygon fill="none" stroke="#63b8ff" points="176.52,-436.46 176.86,-429.26 183.64,-426.8 183.3,-434.01 176.52,-436.46"/>
</a>
</g>
<text text-anchor="middle" x="186.62" y="-477" font-family="Helvetica,sans-Serif" font-size="10.00" fill="grey"> ~mixerControl</text>
<text text-anchor="middle" x="186.62" y="-465.75" font-family="Helvetica,sans-Serif" font-size="10.00" fill="grey">~mixerControlDetails</text>
</g>
<!-- Node4 -->
<g id="Node000004" class="node">
<title>Node4</title>
<g id="a_Node000004"><a xlink:title=" ">
<polygon fill="white" stroke="none" points="39,-841 0,-841 0,-792 39,-792 39,-841"/>
<text text-anchor="start" x="4.88" y="-827.5" font-family="Helvetica,sans-Serif" font-size="10.00">UInt32</text>
<text text-anchor="start" x="18" y="-812.5" font-family="Helvetica,sans-Serif" font-size="10.00"> </text>
<text text-anchor="start" x="18" y="-797.5" font-family="Helvetica,sans-Serif" font-size="10.00"> </text>
<polygon fill="#666666" stroke="#666666" points="0,-824 0,-824 39,-824 39,-824 0,-824"/>
<polygon fill="#666666" stroke="#666666" points="0,-809 0,-809 39,-809 39,-809 0,-809"/>
<polygon fill="none" stroke="#666666" points="0,-792 0,-841 39,-841 39,-792 0,-792"/>
</a>
</g>
</g>
<!-- Node4&#45;&gt;Node3 -->
<g id="edge3_Node000003_Node000004" class="edge">
<title>Node4&#45;&gt;Node3</title>
<g id="a_edge3_Node000003_Node000004"><a xlink:title=" ">
<path fill="none" stroke="#63b8ff" d="M15.5,-792.22C12.58,-769.63 10.65,-734.73 20.5,-706.5 24.21,-695.88 29.4,-685.5 35.42,-675.62"/>
<polygon fill="none" stroke="#63b8ff" points="35.49,-675.51 35.41,-668.3 42.04,-665.45 42.12,-672.66 35.49,-675.51"/>
</a>
</g>
<text text-anchor="start" x="20.5" y="-764.5" font-family="Helvetica,sans-Serif" font-size="10.00" fill="grey"> +MIXERCONTROL_CONTROLF</text>
<text text-anchor="middle" x="95.5" y="-753.25" font-family="Helvetica,sans-Serif" font-size="10.00" fill="grey">_DISABLED</text>
<text text-anchor="start" x="20.5" y="-742" font-family="Helvetica,sans-Serif" font-size="10.00" fill="grey">+MIXERCONTROL_CONTROLF</text>
<text text-anchor="middle" x="95.5" y="-730.75" font-family="Helvetica,sans-Serif" font-size="10.00" fill="grey">_MULTIPLE</text>
<text text-anchor="start" x="20.5" y="-719.5" font-family="Helvetica,sans-Serif" font-size="10.00" fill="grey">+MIXERCONTROL_CONTROLF</text>
<text text-anchor="middle" x="95.5" y="-708.25" font-family="Helvetica,sans-Serif" font-size="10.00" fill="grey">_UNIFORM</text>
</g>
<!-- Node5 -->
<g id="Node000005" class="node">
<title>Node5</title>
<g id="a_Node000005"><a xlink:title=" ">
<polygon fill="white" stroke="none" points="208,-841 177,-841 177,-792 208,-792 208,-841"/>
<text text-anchor="start" x="181.62" y="-827.5" font-family="Helvetica,sans-Serif" font-size="10.00">Int32</text>
<text text-anchor="start" x="191" y="-812.5" font-family="Helvetica,sans-Serif" font-size="10.00"> </text>
<text text-anchor="start" x="191" y="-797.5" font-family="Helvetica,sans-Serif" font-size="10.00"> </text>
<polygon fill="#666666" stroke="#666666" points="177,-824 177,-824 208,-824 208,-824 177,-824"/>
<polygon fill="#666666" stroke="#666666" points="177,-809 177,-809 208,-809 208,-809 177,-809"/>
<polygon fill="none" stroke="#666666" points="177,-792 177,-841 208,-841 208,-792 177,-792"/>
</a>
</g>
</g>
<!-- Node5&#45;&gt;Node3 -->
<g id="edge4_Node000003_Node000005" class="edge">
<title>Node5&#45;&gt;Node3</title>
<g id="a_edge4_Node000003_Node000005"><a xlink:title=" ">
<path fill="none" stroke="#63b8ff" d="M190.13,-792.32C187.29,-769.81 181.49,-734.96 170.5,-706.5 169.66,-704.32 168.78,-702.14 167.86,-699.95"/>
<polygon fill="none" stroke="#63b8ff" points="167.89,-700.02 161.79,-696.19 162.98,-689.07 169.09,-692.91 167.89,-700.02"/>
</a>
</g>
<text text-anchor="middle" x="244.12" y="-758.88" font-family="Helvetica,sans-Serif" font-size="10.00" fill="grey"> +MAXPNAMELEN</text>
<text text-anchor="start" x="187.5" y="-747.62" font-family="Helvetica,sans-Serif" font-size="10.00" fill="grey">+MIXER_LONG_NAME</text>
<text text-anchor="middle" x="244.12" y="-736.38" font-family="Helvetica,sans-Serif" font-size="10.00" fill="grey">_CHARS</text>
<text text-anchor="start" x="187.5" y="-725.12" font-family="Helvetica,sans-Serif" font-size="10.00" fill="grey">+MIXER_SHORT_NAME</text>
<text text-anchor="middle" x="244.12" y="-713.88" font-family="Helvetica,sans-Serif" font-size="10.00" fill="grey">_CHARS</text>
</g>
<!-- Node6 -->
<g id="Node000006" class="node">
<title>Node6</title>
<g id="a_Node000006"><a xlink:title=" ">
<polygon fill="white" stroke="none" points="253.5,-621 219.5,-621 219.5,-572 253.5,-572 253.5,-621"/>
<text text-anchor="start" x="224.5" y="-607.5" font-family="Helvetica,sans-Serif" font-size="10.00">IntPtr</text>
<text text-anchor="start" x="235" y="-592.5" font-family="Helvetica,sans-Serif" font-size="10.00"> </text>
<text text-anchor="start" x="235" y="-577.5" font-family="Helvetica,sans-Serif" font-size="10.00"> </text>
<polygon fill="#666666" stroke="#666666" points="219.5,-604 219.5,-604 253.5,-604 253.5,-604 219.5,-604"/>
<polygon fill="#666666" stroke="#666666" points="219.5,-589 219.5,-589 253.5,-589 253.5,-589 219.5,-589"/>
<polygon fill="none" stroke="#666666" points="219.5,-572 219.5,-621 253.5,-621 253.5,-572 219.5,-572"/>
</a>
</g>
</g>
<!-- Node6&#45;&gt;Node2 -->
<g id="edge5_Node000002_Node000006" class="edge">
<title>Node6&#45;&gt;Node2</title>
<g id="a_edge5_Node000002_Node000006"><a xlink:title=" ">
<path fill="none" stroke="#63b8ff" d="M236.5,-572.14C236.5,-546.45 236.5,-502.9 236.5,-458.6"/>
<polygon fill="none" stroke="#63b8ff" points="236.5,-458.69 232.5,-452.69 236.5,-446.69 240.5,-452.69 236.5,-458.69"/>
</a>
</g>
<text text-anchor="middle" x="268" y="-471.38" font-family="Helvetica,sans-Serif" font-size="10.00" fill="grey"> #mixerHandle</text>
</g>
<!-- Node7 -->
<g id="Node000007" class="node">
<title>Node7</title>
<g id="a_Node000007"><a xlink:title=" ">
<polygon fill="white" stroke="none" points="332.5,-621 312.5,-621 312.5,-572 332.5,-572 332.5,-621"/>
<text text-anchor="start" x="317.25" y="-607.5" font-family="Helvetica,sans-Serif" font-size="10.00">int</text>
<text text-anchor="start" x="321" y="-592.5" font-family="Helvetica,sans-Serif" font-size="10.00"> </text>
<text text-anchor="start" x="321" y="-577.5" font-family="Helvetica,sans-Serif" font-size="10.00"> </text>
<polygon fill="#666666" stroke="#666666" points="312.5,-604 312.5,-604 332.5,-604 332.5,-604 312.5,-604"/>
<polygon fill="#666666" stroke="#666666" points="312.5,-589 312.5,-589 332.5,-589 332.5,-589 312.5,-589"/>
<polygon fill="none" stroke="#666666" points="312.5,-572 312.5,-621 332.5,-621 332.5,-572 312.5,-572"/>
</a>
</g>
</g>
<!-- Node7&#45;&gt;Node2 -->
<g id="edge6_Node000002_Node000007" class="edge">
<title>Node7&#45;&gt;Node2</title>
<g id="a_edge6_Node000002_Node000007"><a xlink:title=" ">
<path fill="none" stroke="#63b8ff" d="M320.24,-572.34C317.29,-545.79 311.18,-501.15 300.5,-464 298.3,-456.33 295.82,-448.53 293.17,-440.71"/>
<polygon fill="none" stroke="#63b8ff" points="293.13,-440.6 287.37,-436.26 289.16,-429.27 294.92,-433.61 293.13,-440.6"/>
</a>
</g>
<text text-anchor="middle" x="333.88" y="-471.38" font-family="Helvetica,sans-Serif" font-size="10.00" fill="grey"> #nChannels</text>
</g>
<!-- Node8 -->
<g id="Node000008" class="node">
<title>Node8</title>
<g id="a_Node000008"><a xlink:title=" ">
<polygon fill="white" stroke="none" points="429.5,-621 371.5,-621 371.5,-572 429.5,-572 429.5,-621"/>
<text text-anchor="start" x="376.5" y="-607.5" font-family="Helvetica,sans-Serif" font-size="10.00">MixerFlags</text>
<text text-anchor="start" x="399" y="-592.5" font-family="Helvetica,sans-Serif" font-size="10.00"> </text>
<text text-anchor="start" x="399" y="-577.5" font-family="Helvetica,sans-Serif" font-size="10.00"> </text>
<polygon fill="#666666" stroke="#666666" points="371.5,-604 371.5,-604 429.5,-604 429.5,-604 371.5,-604"/>
<polygon fill="#666666" stroke="#666666" points="371.5,-589 371.5,-589 429.5,-589 429.5,-589 371.5,-589"/>
<polygon fill="none" stroke="#666666" points="371.5,-572 371.5,-621 429.5,-621 429.5,-572 371.5,-572"/>
</a>
</g>
</g>
<!-- Node8&#45;&gt;Node2 -->
<g id="edge7_Node000002_Node000008" class="edge">
<title>Node8&#45;&gt;Node2</title>
<g id="a_edge7_Node000002_Node000008"><a xlink:title=" ">
<path fill="none" stroke="#63b8ff" d="M397.42,-572.06C393.14,-544.85 383.78,-499.23 365.5,-464 347.9,-430.09 321.74,-397 297.57,-370.24"/>
<polygon fill="none" stroke="#63b8ff" points="297.51,-370.17 290.5,-368.46 289.39,-361.34 296.39,-363.05 297.51,-370.17"/>
</a>
</g>
<text text-anchor="middle" x="416.5" y="-471.38" font-family="Helvetica,sans-Serif" font-size="10.00" fill="grey"> #mixerHandleType</text>
</g>
</g>
</svg>

<g id="navigator" transform="translate(0 0)" fill="#404254">
  <rect fill="#f2f5e9" fill-opacity="0.5" stroke="#606060" stroke-width=".5" x="0" y="0" width="60" height="60"/>
  <use id="zoomplus" xlink:href="#zoomPlus" x="17" y="9" onmousedown="handleZoom(evt,'in')"/>
  <use id="zoomminus" xlink:href="#zoomMin" x="42" y="9" onmousedown="handleZoom(evt,'out')"/>
  <use id="reset" xlink:href="#resetDef" x="30" y="36" onmousedown="handleReset()"/>
   <use id="arrowup" xlink:href="#arrowUp" x="0" y="0" onmousedown="handlePan(0,-1)"/>
  <use id="arrowright" xlink:href="#arrowRight" x="0" y="0" onmousedown="handlePan(1,0)"/>
  <use id="arrowdown" xlink:href="#arrowDown" x="0" y="0" onmousedown="handlePan(0,1)"/>
  <use id="arrowleft" xlink:href="#arrowLeft" x="0" y="0" onmousedown="handlePan(-1,0)"/>
</g>
<svg viewBox="0 0 15 15" width="100%" height="30px" preserveAspectRatio="xMaxYMin meet">
 <g id="arrow_out" transform="scale(0.3 0.3)">
  <a xlink:href="class_n_audio_1_1_mixer_1_1_unsigned_mixer_control__coll__graph_org.svg" target="_base">
   <rect id="button" ry="5" rx="5" y="6" x="6" height="38" width="38"
        fill="#f2f5e9" fill-opacity="0.5" stroke="#606060" stroke-width="1.0"/>
   <path id="arrow"
     d="M 11.500037,31.436501 C 11.940474,20.09759 22.043105,11.32322 32.158766,21.979434 L 37.068811,17.246167 C 37.068811,17.246167 37.088388,32 37.088388,32 L 22.160133,31.978069 C 22.160133,31.978069 26.997745,27.140456 26.997745,27.140456 C 18.528582,18.264221 13.291696,25.230495 11.500037,31.436501 z"
     style="fill:#404040;"/>
  </a>
 </g>
</svg>

<style type='text/css'>
<![CDATA[
[data-mouse-over-selected='false'] { opacity: 0.7; }
[data-mouse-over-selected='true']  { opacity: 1.0; }
]]>
</style>
<script type="application/ecmascript"><![CDATA[
document.addEventListener('DOMContentLoaded', (event) => {
  highlightEdges();
  highlightAdjacentNodes();
});
]]></script>
</svg>
