<?xml version="1.0" encoding="UTF-8" standalone="no"?>
<!DOCTYPE svg PUBLIC "-//W3C//DTD SVG 1.1//EN"
 "http://www.w3.org/Graphics/SVG/1.1/DTD/svg11.dtd">
<!-- Generated by graphviz version 10.0.1 (20240210.2158)
 -->
<!-- Title: InfoGrab.SQLiteHandler Pages: 1 -->
<svg width="621pt" height="602pt"
 viewBox="0.00 0.00 621.00 602.00" xmlns="http://www.w3.org/2000/svg" xmlns:xlink="http://www.w3.org/1999/xlink">
<g id="graph0" class="graph" transform="scale(1 1) rotate(0) translate(4 598)">
<title>InfoGrab.SQLiteHandler</title>
<!-- Node1 -->
<g id="Node000001" class="node">
<title>Node1</title>
<g id="a_Node000001"><a xlink:title=" ">
<polygon fill="#999999" stroke="none" points="317.5,-214 197.5,-214 197.5,0 317.5,0 317.5,-214"/>
<text text-anchor="start" x="205.38" y="-200.5" font-family="Helvetica,sans-Serif" font-size="10.00">InfoGrab.SQLiteHandler</text>
<text text-anchor="start" x="256" y="-185.5" font-family="Helvetica,sans-Serif" font-size="10.00"> </text>
<text text-anchor="start" x="201.5" y="-170.5" font-family="Helvetica,sans-Serif" font-size="10.00">+</text>
<text text-anchor="start" x="211.5" y="-170.5" font-family="Helvetica,sans-Serif" font-size="10.00">SQLiteHandler()</text>
<text text-anchor="start" x="201.5" y="-155.5" font-family="Helvetica,sans-Serif" font-size="10.00">+</text>
<text text-anchor="start" x="211.5" y="-155.5" font-family="Helvetica,sans-Serif" font-size="10.00">GetRowCount()</text>
<text text-anchor="start" x="201.5" y="-140.5" font-family="Helvetica,sans-Serif" font-size="10.00">+</text>
<text text-anchor="start" x="211.5" y="-140.5" font-family="Helvetica,sans-Serif" font-size="10.00">GetTableNames()</text>
<text text-anchor="start" x="201.5" y="-125.5" font-family="Helvetica,sans-Serif" font-size="10.00">+</text>
<text text-anchor="start" x="211.5" y="-125.5" font-family="Helvetica,sans-Serif" font-size="10.00">GetValue()</text>
<text text-anchor="start" x="201.5" y="-110.5" font-family="Helvetica,sans-Serif" font-size="10.00">+</text>
<text text-anchor="start" x="211.5" y="-110.5" font-family="Helvetica,sans-Serif" font-size="10.00">GetValue()</text>
<text text-anchor="start" x="201.5" y="-95.5" font-family="Helvetica,sans-Serif" font-size="10.00">+</text>
<text text-anchor="start" x="211.5" y="-95.5" font-family="Helvetica,sans-Serif" font-size="10.00">ReadTable()</text>
<text text-anchor="start" x="203" y="-80.5" font-family="Helvetica,sans-Serif" font-size="10.00">&#45;</text>
<text text-anchor="start" x="211.5" y="-80.5" font-family="Helvetica,sans-Serif" font-size="10.00">ConvertToInteger()</text>
<text text-anchor="start" x="203" y="-65.5" font-family="Helvetica,sans-Serif" font-size="10.00">&#45;</text>
<text text-anchor="start" x="211.5" y="-65.5" font-family="Helvetica,sans-Serif" font-size="10.00">CVL()</text>
<text text-anchor="start" x="203" y="-50.5" font-family="Helvetica,sans-Serif" font-size="10.00">&#45;</text>
<text text-anchor="start" x="211.5" y="-50.5" font-family="Helvetica,sans-Serif" font-size="10.00">GVL()</text>
<text text-anchor="start" x="203" y="-35.5" font-family="Helvetica,sans-Serif" font-size="10.00">&#45;</text>
<text text-anchor="start" x="211.5" y="-35.5" font-family="Helvetica,sans-Serif" font-size="10.00">IsOdd()</text>
<text text-anchor="start" x="203" y="-20.5" font-family="Helvetica,sans-Serif" font-size="10.00">&#45;</text>
<text text-anchor="start" x="211.5" y="-20.5" font-family="Helvetica,sans-Serif" font-size="10.00">ReadMasterTable()</text>
<text text-anchor="start" x="203" y="-5.5" font-family="Helvetica,sans-Serif" font-size="10.00">&#45;</text>
<text text-anchor="start" x="211.5" y="-5.5" font-family="Helvetica,sans-Serif" font-size="10.00">ReadTableFromOffset()</text>
<polygon fill="#666666" stroke="#666666" points="197.5,-197 197.5,-197 317.5,-197 317.5,-197 197.5,-197"/>
<polygon fill="#666666" stroke="#666666" points="197.5,-182 197.5,-182 317.5,-182 317.5,-182 197.5,-182"/>
<polygon fill="none" stroke="#666666" points="197.5,0 197.5,-214 317.5,-214 317.5,0 197.5,0"/>
</a>
</g>
</g>
<!-- Node2 -->
<g id="Node000002" class="node">
<title>Node2</title>
<g id="a_Node000002"><a xlink:title=" ">
<polygon fill="white" stroke="none" points="131.5,-594 97.5,-594 97.5,-545 131.5,-545 131.5,-594"/>
<text text-anchor="start" x="102.12" y="-580.5" font-family="Helvetica,sans-Serif" font-size="10.00">byte[]</text>
<text text-anchor="start" x="113" y="-565.5" font-family="Helvetica,sans-Serif" font-size="10.00"> </text>
<text text-anchor="start" x="113" y="-550.5" font-family="Helvetica,sans-Serif" font-size="10.00"> </text>
<polygon fill="#666666" stroke="#666666" points="97.5,-577 97.5,-577 131.5,-577 131.5,-577 97.5,-577"/>
<polygon fill="#666666" stroke="#666666" points="97.5,-562 97.5,-562 131.5,-562 131.5,-562 97.5,-562"/>
<polygon fill="none" stroke="#666666" points="97.5,-545 97.5,-594 131.5,-594 131.5,-545 97.5,-545"/>
</a>
</g>
</g>
<!-- Node2&#45;&gt;Node1 -->
<g id="edge1_Node000001_Node000002" class="edge">
<title>Node2&#45;&gt;Node1</title>
<g id="a_edge1_Node000001_Node000002"><a xlink:title=" ">
<path fill="none" stroke="#63b8ff" d="M107.21,-545.15C92.47,-493.7 63.58,-367.58 101.5,-272.5 119.21,-228.08 155.26,-188.77 188.24,-159.72"/>
<polygon fill="none" stroke="#63b8ff" points="188.11,-159.83 190.05,-152.89 197.21,-152.01 195.27,-158.96 188.11,-159.83"/>
</a>
</g>
<text text-anchor="middle" x="145" y="-381.25" font-family="Helvetica,sans-Serif" font-size="10.00" fill="grey"> &#45;SQLDataTypeSize</text>
<text text-anchor="middle" x="145" y="-370" font-family="Helvetica,sans-Serif" font-size="10.00" fill="grey">&#45;db_bytes</text>
</g>
<!-- Node5 -->
<g id="Node000005" class="node">
<title>Node5</title>
<g id="a_Node000005"><a xlink:href="class_info_grab_1_1_s_q_lite_handler.html" target="_top" xlink:title=" ">
<polygon fill="white" stroke="none" points="317.5,-486.5 197.5,-486.5 197.5,-272.5 317.5,-272.5 317.5,-486.5"/>
<text text-anchor="start" x="205.38" y="-473" font-family="Helvetica,sans-Serif" font-size="10.00">InfoGrab.SQLiteHandler</text>
<text text-anchor="start" x="256" y="-458" font-family="Helvetica,sans-Serif" font-size="10.00"> </text>
<text text-anchor="start" x="201.5" y="-443" font-family="Helvetica,sans-Serif" font-size="10.00">+</text>
<text text-anchor="start" x="211.5" y="-443" font-family="Helvetica,sans-Serif" font-size="10.00">SQLiteHandler()</text>
<text text-anchor="start" x="201.5" y="-428" font-family="Helvetica,sans-Serif" font-size="10.00">+</text>
<text text-anchor="start" x="211.5" y="-428" font-family="Helvetica,sans-Serif" font-size="10.00">GetRowCount()</text>
<text text-anchor="start" x="201.5" y="-413" font-family="Helvetica,sans-Serif" font-size="10.00">+</text>
<text text-anchor="start" x="211.5" y="-413" font-family="Helvetica,sans-Serif" font-size="10.00">GetTableNames()</text>
<text text-anchor="start" x="201.5" y="-398" font-family="Helvetica,sans-Serif" font-size="10.00">+</text>
<text text-anchor="start" x="211.5" y="-398" font-family="Helvetica,sans-Serif" font-size="10.00">GetValue()</text>
<text text-anchor="start" x="201.5" y="-383" font-family="Helvetica,sans-Serif" font-size="10.00">+</text>
<text text-anchor="start" x="211.5" y="-383" font-family="Helvetica,sans-Serif" font-size="10.00">GetValue()</text>
<text text-anchor="start" x="201.5" y="-368" font-family="Helvetica,sans-Serif" font-size="10.00">+</text>
<text text-anchor="start" x="211.5" y="-368" font-family="Helvetica,sans-Serif" font-size="10.00">ReadTable()</text>
<text text-anchor="start" x="203" y="-353" font-family="Helvetica,sans-Serif" font-size="10.00">&#45;</text>
<text text-anchor="start" x="211.5" y="-353" font-family="Helvetica,sans-Serif" font-size="10.00">ConvertToInteger()</text>
<text text-anchor="start" x="203" y="-338" font-family="Helvetica,sans-Serif" font-size="10.00">&#45;</text>
<text text-anchor="start" x="211.5" y="-338" font-family="Helvetica,sans-Serif" font-size="10.00">CVL()</text>
<text text-anchor="start" x="203" y="-323" font-family="Helvetica,sans-Serif" font-size="10.00">&#45;</text>
<text text-anchor="start" x="211.5" y="-323" font-family="Helvetica,sans-Serif" font-size="10.00">GVL()</text>
<text text-anchor="start" x="203" y="-308" font-family="Helvetica,sans-Serif" font-size="10.00">&#45;</text>
<text text-anchor="start" x="211.5" y="-308" font-family="Helvetica,sans-Serif" font-size="10.00">IsOdd()</text>
<text text-anchor="start" x="203" y="-293" font-family="Helvetica,sans-Serif" font-size="10.00">&#45;</text>
<text text-anchor="start" x="211.5" y="-293" font-family="Helvetica,sans-Serif" font-size="10.00">ReadMasterTable()</text>
<text text-anchor="start" x="203" y="-278" font-family="Helvetica,sans-Serif" font-size="10.00">&#45;</text>
<text text-anchor="start" x="211.5" y="-278" font-family="Helvetica,sans-Serif" font-size="10.00">ReadTableFromOffset()</text>
<polygon fill="#666666" stroke="#666666" points="197.5,-469.5 197.5,-469.5 317.5,-469.5 317.5,-469.5 197.5,-469.5"/>
<polygon fill="#666666" stroke="#666666" points="197.5,-454.5 197.5,-454.5 317.5,-454.5 317.5,-454.5 197.5,-454.5"/>
<polygon fill="none" stroke="#666666" points="197.5,-272.5 197.5,-486.5 317.5,-486.5 317.5,-272.5 197.5,-272.5"/>
</a>
</g>
</g>
<!-- Node2&#45;&gt;Node5 -->
<g id="edge5_Node000005_Node000002" class="edge">
<title>Node2&#45;&gt;Node5</title>
<g id="a_edge5_Node000005_Node000002"><a xlink:title=" ">
<path fill="none" stroke="#63b8ff" d="M131.45,-549.35C145.74,-532.99 166.51,-508.64 183.5,-486.5 185.6,-483.76 187.72,-480.96 189.85,-478.13"/>
<polygon fill="none" stroke="#63b8ff" points="189.87,-478.1 190.23,-470.89 197.01,-468.45 196.66,-475.66 189.87,-478.1"/>
</a>
</g>
<text text-anchor="middle" x="213" y="-517.5" font-family="Helvetica,sans-Serif" font-size="10.00" fill="grey"> &#45;SQLDataTypeSize</text>
<text text-anchor="middle" x="213" y="-506.25" font-family="Helvetica,sans-Serif" font-size="10.00" fill="grey">&#45;db_bytes</text>
</g>
<!-- Node3 -->
<g id="Node000003" class="node">
<title>Node3</title>
<g id="a_Node000003"><a xlink:title=" ">
<polygon fill="white" stroke="none" points="33,-594 0,-594 0,-545 33,-545 33,-594"/>
<text text-anchor="start" x="4.88" y="-580.5" font-family="Helvetica,sans-Serif" font-size="10.00">ulong</text>
<text text-anchor="start" x="15" y="-565.5" font-family="Helvetica,sans-Serif" font-size="10.00"> </text>
<text text-anchor="start" x="15" y="-550.5" font-family="Helvetica,sans-Serif" font-size="10.00"> </text>
<polygon fill="#666666" stroke="#666666" points="0,-577 0,-577 33,-577 33,-577 0,-577"/>
<polygon fill="#666666" stroke="#666666" points="0,-562 0,-562 33,-562 33,-562 0,-562"/>
<polygon fill="none" stroke="#666666" points="0,-545 0,-594 33,-594 33,-545 0,-545"/>
</a>
</g>
</g>
<!-- Node3&#45;&gt;Node1 -->
<g id="edge2_Node000001_Node000003" class="edge">
<title>Node3&#45;&gt;Node1</title>
<g id="a_edge2_Node000001_Node000003"><a xlink:title=" ">
<path fill="none" stroke="#63b8ff" d="M11.65,-545.19C2,-492.74 -14.68,-362.96 34.5,-272.5 67.67,-211.5 134.32,-166.99 186.16,-139.77"/>
<polygon fill="none" stroke="#63b8ff" points="186.16,-139.77 189.68,-133.48 196.84,-134.3 193.32,-140.6 186.16,-139.77"/>
</a>
</g>
<text text-anchor="middle" x="57" y="-375.62" font-family="Helvetica,sans-Serif" font-size="10.00" fill="grey"> &#45;encoding</text>
</g>
<!-- Node3&#45;&gt;Node5 -->
<g id="edge6_Node000005_Node000003" class="edge">
<title>Node3&#45;&gt;Node5</title>
<g id="a_edge6_Node000005_Node000003"><a xlink:title=" ">
<path fill="none" stroke="#63b8ff" d="M32.82,-553.22C49.38,-538.56 76.37,-516.87 103.5,-504.5 136.66,-489.38 153.24,-506.82 183.5,-486.5 184.89,-485.57 186.26,-484.6 187.61,-483.6"/>
<polygon fill="none" stroke="#63b8ff" points="187.67,-483.55 189.75,-476.64 196.92,-475.91 194.85,-482.81 187.67,-483.55"/>
</a>
</g>
<text text-anchor="middle" x="126" y="-511.88" font-family="Helvetica,sans-Serif" font-size="10.00" fill="grey"> &#45;encoding</text>
</g>
<!-- Node4 -->
<g id="Node000004" class="node">
<title>Node4</title>
<g id="a_Node000004"><a xlink:title=" ">
<polygon fill="white" stroke="none" points="555.5,-594 521.5,-594 521.5,-545 555.5,-545 555.5,-594"/>
<text text-anchor="start" x="526.5" y="-580.5" font-family="Helvetica,sans-Serif" font-size="10.00">string</text>
<text text-anchor="start" x="537" y="-565.5" font-family="Helvetica,sans-Serif" font-size="10.00"> </text>
<text text-anchor="start" x="537" y="-550.5" font-family="Helvetica,sans-Serif" font-size="10.00"> </text>
<polygon fill="#666666" stroke="#666666" points="521.5,-577 521.5,-577 555.5,-577 555.5,-577 521.5,-577"/>
<polygon fill="#666666" stroke="#666666" points="521.5,-562 521.5,-562 555.5,-562 555.5,-562 521.5,-562"/>
<polygon fill="none" stroke="#666666" points="521.5,-545 521.5,-594 555.5,-594 555.5,-545 521.5,-545"/>
</a>
</g>
</g>
<!-- Node4&#45;&gt;Node1 -->
<g id="edge3_Node000001_Node000004" class="edge">
<title>Node4&#45;&gt;Node1</title>
<g id="a_edge3_Node000001_Node000004"><a xlink:title=" ">
<path fill="none" stroke="#63b8ff" d="M543.66,-545.3C554.06,-492.53 572.33,-361.21 519.5,-272.5 477.25,-201.55 391.24,-156.49 329.28,-131.81"/>
<polygon fill="none" stroke="#63b8ff" points="329.26,-131.8 322.22,-133.37 318.07,-127.47 325.11,-125.91 329.26,-131.8"/>
</a>
</g>
<text text-anchor="middle" x="583.75" y="-375.62" font-family="Helvetica,sans-Serif" font-size="10.00" fill="grey"> &#45;field_names</text>
</g>
<!-- Node4&#45;&gt;Node5 -->
<g id="edge7_Node000005_Node000004" class="edge">
<title>Node4&#45;&gt;Node5</title>
<g id="a_edge7_Node000005_Node000004"><a xlink:title=" ">
<path fill="none" stroke="#63b8ff" d="M521.76,-557.3C484.49,-532.37 392.84,-471.05 327.96,-427.64"/>
<polygon fill="none" stroke="#63b8ff" points="328.11,-427.74 320.9,-427.73 318.14,-421.07 325.35,-421.08 328.11,-427.74"/>
</a>
</g>
<text text-anchor="middle" x="499.75" y="-511.88" font-family="Helvetica,sans-Serif" font-size="10.00" fill="grey"> &#45;field_names</text>
</g>
<!-- Node5&#45;&gt;Node1 -->
<g id="edge4_Node000001_Node000005" class="edge">
<title>Node5&#45;&gt;Node1</title>
<g id="a_edge4_Node000001_Node000005"><a xlink:title=" ">
<path fill="none" stroke="#63b8ff" d="M257.5,-272.76C257.5,-257.59 257.5,-241.9 257.5,-226.51"/>
<polygon fill="none" stroke="#63b8ff" points="257.5,-226.57 253.5,-220.57 257.5,-214.57 261.5,-220.57 257.5,-226.57"/>
</a>
</g>
<text text-anchor="middle" x="305.88" y="-245" font-family="Helvetica,sans-Serif" font-size="10.00" fill="grey"> &#45;master_table_entries</text>
<text text-anchor="middle" x="305.88" y="-233.75" font-family="Helvetica,sans-Serif" font-size="10.00" fill="grey">&#45;table_entries</text>
</g>
<!-- Node5&#45;&gt;Node5 -->
<g id="edge8_Node000005_Node000005" class="edge">
<title>Node5&#45;&gt;Node5</title>
<g id="a_edge8_Node000005_Node000005"><a xlink:title=" ">
<path fill="none" stroke="#63b8ff" d="M317.35,-403.55C328.03,-400.42 335.5,-392.41 335.5,-379.5 335.5,-371.84 332.87,-365.9 328.49,-361.68"/>
<polygon fill="none" stroke="#63b8ff" points="328.61,-361.75 321.42,-362.31 318.13,-355.89 325.32,-355.33 328.61,-361.75"/>
</a>
</g>
<text text-anchor="middle" x="383.88" y="-381.25" font-family="Helvetica,sans-Serif" font-size="10.00" fill="grey"> &#45;master_table_entries</text>
<text text-anchor="middle" x="383.88" y="-370" font-family="Helvetica,sans-Serif" font-size="10.00" fill="grey">&#45;table_entries</text>
</g>
<!-- Node6 -->
<g id="Node000006" class="node">
<title>Node6</title>
<g id="a_Node000006"><a xlink:title=" ">
<polygon fill="white" stroke="none" points="411,-594 374,-594 374,-545 411,-545 411,-594"/>
<text text-anchor="start" x="379" y="-580.5" font-family="Helvetica,sans-Serif" font-size="10.00">ushort</text>
<text text-anchor="start" x="391" y="-565.5" font-family="Helvetica,sans-Serif" font-size="10.00"> </text>
<text text-anchor="start" x="391" y="-550.5" font-family="Helvetica,sans-Serif" font-size="10.00"> </text>
<polygon fill="#666666" stroke="#666666" points="374,-577 374,-577 411,-577 411,-577 374,-577"/>
<polygon fill="#666666" stroke="#666666" points="374,-562 374,-562 411,-562 411,-562 374,-562"/>
<polygon fill="none" stroke="#666666" points="374,-545 374,-594 411,-594 411,-545 374,-545"/>
</a>
</g>
</g>
<!-- Node6&#45;&gt;Node1 -->
<g id="edge10_Node000001_Node000006" class="edge">
<title>Node6&#45;&gt;Node1</title>
<g id="a_edge10_Node000001_Node000006"><a xlink:title=" ">
<path fill="none" stroke="#63b8ff" d="M411,-545.32C422.24,-529.7 435.54,-508.08 441.5,-486.5 466.81,-394.82 480.34,-359.32 441.5,-272.5 418.24,-220.51 369.53,-178.16 328.06,-149.45"/>
<polygon fill="none" stroke="#63b8ff" points="328.11,-149.49 320.9,-149.45 318.17,-142.77 325.38,-142.81 328.11,-149.49"/>
</a>
</g>
<text text-anchor="middle" x="490.62" y="-375.62" font-family="Helvetica,sans-Serif" font-size="10.00" fill="grey"> &#45;page_size</text>
</g>
<!-- Node6&#45;&gt;Node5 -->
<g id="edge9_Node000005_Node000006" class="edge">
<title>Node6&#45;&gt;Node5</title>
<g id="a_edge9_Node000005_Node000006"><a xlink:title=" ">
<path fill="none" stroke="#63b8ff" d="M375.68,-545.07C362.7,-527 343.83,-500.72 324.96,-474.45"/>
<polygon fill="none" stroke="#63b8ff" points="324.99,-474.48 318.24,-471.94 317.99,-464.74 324.74,-467.28 324.99,-474.48"/>
</a>
</g>
<text text-anchor="middle" x="385.62" y="-511.88" font-family="Helvetica,sans-Serif" font-size="10.00" fill="grey"> &#45;page_size</text>
</g>
</g>
</svg>
