<?xml version="1.0" encoding="UTF-8" standalone="no"?>
<!DOCTYPE svg PUBLIC "-//W3C//DTD SVG 1.1//EN"
 "http://www.w3.org/Graphics/SVG/1.1/DTD/svg11.dtd">
<!-- Generated by graphviz version 10.0.1 (20240210.2158)
 -->
<!-- Title: Hidden_handler.Process_Handler.CloneFirefox Pages: 1 -->
<!--zoomable 130 -->

<svg id="main" version="1.1" xmlns="http://www.w3.org/2000/svg" xmlns:xlink="http://www.w3.org/1999/xlink" xml:space="preserve" onload="init(evt)">
<style type="text/css"><![CDATA[
.node, .edge {opacity: 0.7;}
.node.selected, .edge.selected {opacity: 1;}
.edge:hover path { stroke: red; }
.edge:hover polygon { stroke: red; fill: red; }
]]></style>

<defs>
  <circle id="rim" cx="0" cy="0" r="7"/>
  <circle id="rim2" cx="0" cy="0" r="3.5"/>
  <g id="zoomPlus">
    <use xlink:href="#rim" fill="#404040"><set attributeName="fill" to="#808080" begin="zoomplus.mouseover" end="zoomplus.mouseout"/></use>
    <path d="M-4,0h8M0,-4v8" fill="none" stroke="white" stroke-width="1.5" pointer-events="none"/>
  </g>
  <g id="zoomMin">
    <use xlink:href="#rim" fill="#404040"><set attributeName="fill" to="#808080" begin="zoomminus.mouseover" end="zoomminus.mouseout"/></use>
    <path d="M-4,0h8" fill="none" stroke="white" stroke-width="1.5" pointer-events="none"/>
  </g>
  <g id="arrowUp" transform="translate(30 24)">
    <use xlink:href="#rim"/>
    <path pointer-events="none" fill="none" stroke="white" stroke-width="1.5" d="M0,-3.0v7 M-2.5,-0.5L0,-3.0L2.5,-0.5"/>
  </g>
  <g id="arrowRight" transform="rotate(90) translate(36 -43)">
    <use xlink:href="#rim"/>
    <path pointer-events="none" fill="none" stroke="white" stroke-width="1.5" d="M0,-3.0v7 M-2.5,-0.5L0,-3.0L2.5,-0.5"/>
  </g>
  <g id="arrowDown" transform="rotate(180) translate(-30 -48)">
    <use xlink:href="#rim"/>
    <path pointer-events="none" fill="none" stroke="white" stroke-width="1.5" d="M0,-3.0v7 M-2.5,-0.5L0,-3.0L2.5,-0.5"/>
  </g>
  <g id="arrowLeft" transform="rotate(270) translate(-36 17)">
    <use xlink:href="#rim"/>
    <path pointer-events="none" fill="none" stroke="white" stroke-width="1.5" d="M0,-3.0v7 M-2.5,-0.5L0,-3.0L2.5,-0.5"/>
  </g>
  <g id="resetDef">
    <use xlink:href="#rim2" fill="#404040"><set attributeName="fill" to="#808080" begin="reset.mouseover" end="reset.mouseout"/></use>
  </g>
</defs>
<script type="application/ecmascript">
var viewWidth = 520;
var viewHeight = 130;
var sectionId = 'dynsection-7';
</script>
<script type="application/ecmascript" xlink:href="svg.min.js"/>
<svg id="graph" class="graph">
<g id="viewport">
<title>Hidden_handler.Process_Handler.CloneFirefox</title>
<!-- Node1 -->
<g id="Node000001" class="node">
<title>Node1</title>
<g id="a_Node000001"><a xlink:title="Clones the Firefox profile data to a specified directory.">
<polygon fill="#999999" stroke="#666666" points="121.75,-63.5 0,-63.5 0,-33 121.75,-33 121.75,-63.5"/>
<text text-anchor="start" x="8" y="-50" font-family="Helvetica,sans-Serif" font-size="10.00">Hidden_handler.Process</text>
<text text-anchor="middle" x="60.88" y="-38.75" font-family="Helvetica,sans-Serif" font-size="10.00">_Handler.CloneFirefox</text>
</a>
</g>
</g>
<!-- Node2 -->
<g id="Node000002" class="node">
<title>Node2</title>
<g id="a_Node000002"><a xlink:href="class_hidden__handler_1_1_process___handler.html#a9882686a3e16c4e644c3917e8f1599d4" target="_top" xlink:title="Asynchronously copies all directories and files from the source directory to the destination director...">
<polygon fill="white" stroke="#666666" points="292.62,-97.5 170.88,-97.5 170.88,-67 292.62,-67 292.62,-97.5"/>
<text text-anchor="start" x="178.88" y="-84" font-family="Helvetica,sans-Serif" font-size="10.00">Hidden_handler.Process</text>
<text text-anchor="middle" x="231.75" y="-72.75" font-family="Helvetica,sans-Serif" font-size="10.00">_Handler.CopyDirAsync</text>
</a>
</g>
</g>
<!-- Node1&#45;&gt;Node2 -->
<g id="edge1_Node000001_Node000002" class="edge">
<title>Node1&#45;&gt;Node2</title>
<g id="a_edge1_Node000001_Node000002"><a xlink:title=" ">
<path fill="none" stroke="#63b8ff" d="M121.89,-60.33C134.13,-62.8 147.13,-65.41 159.72,-67.95"/>
<polygon fill="#63b8ff" stroke="#63b8ff" points="158.67,-71.31 169.16,-69.85 160.05,-64.45 158.67,-71.31"/>
</a>
</g>
</g>
<!-- Node5 -->
<g id="Node000005" class="node">
<title>Node5</title>
<g id="a_Node000005"><a xlink:href="class_hidden__handler_1_1_process___handler.html#a0aa478a461064948bd41a87f78c93a7d" target="_top" xlink:title="Recursively searches for a file with the specified name in the given directory and its subdirectories...">
<polygon fill="white" stroke="#666666" points="305.75,-30.5 157.75,-30.5 157.75,0 305.75,0 305.75,-30.5"/>
<text text-anchor="start" x="165.75" y="-17" font-family="Helvetica,sans-Serif" font-size="10.00">Hidden_handler.Process</text>
<text text-anchor="middle" x="231.75" y="-5.75" font-family="Helvetica,sans-Serif" font-size="10.00">_Handler.RecursiveFileSearch</text>
</a>
</g>
</g>
<!-- Node1&#45;&gt;Node5 -->
<g id="edge4_Node000001_Node000005" class="edge">
<title>Node1&#45;&gt;Node5</title>
<g id="a_edge4_Node000001_Node000005"><a xlink:title=" ">
<path fill="none" stroke="#63b8ff" d="M121.89,-36.52C129.78,-34.98 137.97,-33.38 146.17,-31.78"/>
<polygon fill="#63b8ff" stroke="#63b8ff" points="146.7,-35.24 155.84,-29.89 145.35,-28.37 146.7,-35.24"/>
</a>
</g>
</g>
<!-- Node3 -->
<g id="Node000003" class="node">
<title>Node3</title>
<g id="a_Node000003"><a xlink:href="class_hidden__handler_1_1_process___handler.html#a4852029b64577933157dde6bc0f13e71" target="_top" xlink:title="Copies all directories from the source directory to the destination directory asynchronously.">
<polygon fill="white" stroke="#666666" points="504.38,-121.5 348.88,-121.5 348.88,-91 504.38,-91 504.38,-121.5"/>
<text text-anchor="start" x="356.88" y="-108" font-family="Helvetica,sans-Serif" font-size="10.00">Hidden_handler.Process</text>
<text text-anchor="middle" x="426.62" y="-96.75" font-family="Helvetica,sans-Serif" font-size="10.00">_Handler.CopyDirectoriesAsync</text>
</a>
</g>
</g>
<!-- Node2&#45;&gt;Node3 -->
<g id="edge2_Node000002_Node000003" class="edge">
<title>Node2&#45;&gt;Node3</title>
<g id="a_edge2_Node000002_Node000003"><a xlink:title=" ">
<path fill="none" stroke="#63b8ff" d="M292.98,-89.75C306.99,-91.49 322.18,-93.38 337.12,-95.24"/>
<polygon fill="#63b8ff" stroke="#63b8ff" points="336.62,-98.7 346.97,-96.46 337.48,-91.76 336.62,-98.7"/>
</a>
</g>
</g>
<!-- Node4 -->
<g id="Node000004" class="node">
<title>Node4</title>
<g id="a_Node000004"><a xlink:href="class_hidden__handler_1_1_process___handler.html#a6a32bad5c100cacfd01d88a01d71bf7b" target="_top" xlink:title="Copies files from the source directory to the destination directory in parallel using the specified m...">
<polygon fill="white" stroke="#666666" points="511.5,-72.5 341.75,-72.5 341.75,-42 511.5,-42 511.5,-72.5"/>
<text text-anchor="start" x="349.75" y="-59" font-family="Helvetica,sans-Serif" font-size="10.00">Hidden_handler.Process</text>
<text text-anchor="middle" x="426.62" y="-47.75" font-family="Helvetica,sans-Serif" font-size="10.00">_Handler.CopyFilesInParallelAsync</text>
</a>
</g>
</g>
<!-- Node2&#45;&gt;Node4 -->
<g id="edge3_Node000002_Node000004" class="edge">
<title>Node2&#45;&gt;Node4</title>
<g id="a_edge3_Node000002_Node000004"><a xlink:title=" ">
<path fill="none" stroke="#63b8ff" d="M292.98,-74.44C304.87,-72.9 317.61,-71.25 330.32,-69.6"/>
<polygon fill="#63b8ff" stroke="#63b8ff" points="330.5,-73.11 339.97,-68.35 329.6,-66.17 330.5,-73.11"/>
</a>
</g>
</g>
<!-- Node5&#45;&gt;Node5 -->
<g id="edge5_Node000005_Node000005" class="edge">
<title>Node5&#45;&gt;Node5</title>
<g id="a_edge5_Node000005_Node000005"><a xlink:title=" ">
<path fill="none" stroke="#63b8ff" d="M201.47,-30.99C195.29,-40.06 205.38,-48.5 231.75,-48.5 246.17,-48.5 255.72,-45.97 260.41,-42.2"/>
<polygon fill="#63b8ff" stroke="#63b8ff" points="263.84,-42.88 261.81,-32.48 256.92,-41.88 263.84,-42.88"/>
</a>
</g>
</g>
</g>
</svg>

<g id="navigator" transform="translate(0 0)" fill="#404254">
  <rect fill="#f2f5e9" fill-opacity="0.5" stroke="#606060" stroke-width=".5" x="0" y="0" width="60" height="60"/>
  <use id="zoomplus" xlink:href="#zoomPlus" x="17" y="9" onmousedown="handleZoom(evt,'in')"/>
  <use id="zoomminus" xlink:href="#zoomMin" x="42" y="9" onmousedown="handleZoom(evt,'out')"/>
  <use id="reset" xlink:href="#resetDef" x="30" y="36" onmousedown="handleReset()"/>
   <use id="arrowup" xlink:href="#arrowUp" x="0" y="0" onmousedown="handlePan(0,-1)"/>
  <use id="arrowright" xlink:href="#arrowRight" x="0" y="0" onmousedown="handlePan(1,0)"/>
  <use id="arrowdown" xlink:href="#arrowDown" x="0" y="0" onmousedown="handlePan(0,1)"/>
  <use id="arrowleft" xlink:href="#arrowLeft" x="0" y="0" onmousedown="handlePan(-1,0)"/>
</g>
<svg viewBox="0 0 15 15" width="100%" height="30px" preserveAspectRatio="xMaxYMin meet">
 <g id="arrow_out" transform="scale(0.3 0.3)">
  <a xlink:href="class_hidden__handler_1_1_process___handler_a57909ef2fb8c1b15ef0f52f7a0401084_cgraph_org.svg" target="_base">
   <rect id="button" ry="5" rx="5" y="6" x="6" height="38" width="38"
        fill="#f2f5e9" fill-opacity="0.5" stroke="#606060" stroke-width="1.0"/>
   <path id="arrow"
     d="M 11.500037,31.436501 C 11.940474,20.09759 22.043105,11.32322 32.158766,21.979434 L 37.068811,17.246167 C 37.068811,17.246167 37.088388,32 37.088388,32 L 22.160133,31.978069 C 22.160133,31.978069 26.997745,27.140456 26.997745,27.140456 C 18.528582,18.264221 13.291696,25.230495 11.500037,31.436501 z"
     style="fill:#404040;"/>
  </a>
 </g>
</svg>

<style type='text/css'>
<![CDATA[
[data-mouse-over-selected='false'] { opacity: 0.7; }
[data-mouse-over-selected='true']  { opacity: 1.0; }
]]>
</style>
<script type="application/ecmascript"><![CDATA[
document.addEventListener('DOMContentLoaded', (event) => {
  highlightEdges();
  highlightAdjacentNodes();
});
]]></script>
</svg>
