<?xml version="1.0" encoding="UTF-8" standalone="no"?>
<!DOCTYPE svg PUBLIC "-//W3C//DTD SVG 1.1//EN"
 "http://www.w3.org/Graphics/SVG/1.1/DTD/svg11.dtd">
<!-- Generated by graphviz version 10.0.1 (20240210.2158)
 -->
<!-- Title: xeno_rat_server.Forms.Login.ToString Pages: 1 -->
<svg width="667pt" height="235pt"
 viewBox="0.00 0.00 666.75 234.50" xmlns="http://www.w3.org/2000/svg" xmlns:xlink="http://www.w3.org/1999/xlink">
<g id="graph0" class="graph" transform="scale(1 1) rotate(0) translate(4 230.5)">
<title>xeno_rat_server.Forms.Login.ToString</title>
<!-- Node1 -->
<g id="Node000001" class="node">
<title>Node1</title>
<g id="a_Node000001"><a xlink:title="Returns a string representation of the object.">
<polygon fill="#999999" stroke="#666666" points="658.75,-128.5 513.75,-128.5 513.75,-98 658.75,-98 658.75,-128.5"/>
<text text-anchor="start" x="521.75" y="-115" font-family="Helvetica,sans-Serif" font-size="10.00">xeno_rat_server.Forms.Login.</text>
<text text-anchor="middle" x="586.25" y="-103.75" font-family="Helvetica,sans-Serif" font-size="10.00">ToString</text>
</a>
</g>
</g>
<!-- Node2 -->
<g id="Node000002" class="node">
<title>Node2</title>
<g id="a_Node000002"><a xlink:href="classxeno__rat__server_1_1_forms_1_1_info_grab.html#a35179a45a5d0c4a11cecd5048f33016f" target="_top" xlink:title="Disables all buttons, sends a byte array to the client, receives a byte array from the client,...">
<polygon fill="white" stroke="#666666" points="477.75,-226.5 342.5,-226.5 342.5,-196 477.75,-196 477.75,-226.5"/>
<text text-anchor="start" x="350.5" y="-213" font-family="Helvetica,sans-Serif" font-size="10.00">xeno_rat_server.Forms.Info</text>
<text text-anchor="middle" x="410.12" y="-201.75" font-family="Helvetica,sans-Serif" font-size="10.00">Grab.button1_Click</text>
</a>
</g>
</g>
<!-- Node1&#45;&gt;Node2 -->
<g id="edge1_Node000001_Node000002" class="edge">
<title>Node1&#45;&gt;Node2</title>
<g id="a_edge1_Node000001_Node000002"><a xlink:title=" ">
<path fill="none" stroke="#63b8ff" d="M556.53,-135.53C535.52,-151.12 505.89,-171.68 477.75,-186.25 471.28,-189.6 464.25,-192.74 457.27,-195.58"/>
<polygon fill="#63b8ff" stroke="#63b8ff" points="558.44,-138.47 564.33,-129.66 554.23,-132.87 558.44,-138.47"/>
</a>
</g>
</g>
<!-- Node5 -->
<g id="Node000005" class="node">
<title>Node5</title>
<g id="a_Node000005"><a xlink:href="classxeno__rat__server_1_1_forms_1_1_info_grab.html#a2de8e8fabe82dca320dbc28b342c9875" target="_top" xlink:title="Handles the button click event by sending a byte to the client and receiving data asynchronously.">
<polygon fill="white" stroke="#666666" points="477.75,-177.5 342.5,-177.5 342.5,-147 477.75,-147 477.75,-177.5"/>
<text text-anchor="start" x="350.5" y="-164" font-family="Helvetica,sans-Serif" font-size="10.00">xeno_rat_server.Forms.Info</text>
<text text-anchor="middle" x="410.12" y="-152.75" font-family="Helvetica,sans-Serif" font-size="10.00">Grab.button3_Click</text>
</a>
</g>
</g>
<!-- Node1&#45;&gt;Node5 -->
<g id="edge4_Node000001_Node000005" class="edge">
<title>Node1&#45;&gt;Node5</title>
<g id="a_edge4_Node000001_Node000005"><a xlink:title=" ">
<path fill="none" stroke="#63b8ff" d="M518.67,-131.98C501.64,-136.78 483.5,-141.88 467.07,-146.51"/>
<polygon fill="#63b8ff" stroke="#63b8ff" points="519.54,-135.38 528.22,-129.3 517.65,-128.64 519.54,-135.38"/>
</a>
</g>
</g>
<!-- Node6 -->
<g id="Node000006" class="node">
<title>Node6</title>
<g id="a_Node000006"><a xlink:href="classxeno__rat__server_1_1_forms_1_1_info_grab.html#ae1a965e3a6a7c1feadd1b41a06e4292c" target="_top" xlink:title="Sends a request to the client and displays the received data in richTextBox3.">
<polygon fill="white" stroke="#666666" points="477.75,-128.5 342.5,-128.5 342.5,-98 477.75,-98 477.75,-128.5"/>
<text text-anchor="start" x="350.5" y="-115" font-family="Helvetica,sans-Serif" font-size="10.00">xeno_rat_server.Forms.Info</text>
<text text-anchor="middle" x="410.12" y="-103.75" font-family="Helvetica,sans-Serif" font-size="10.00">Grab.button5_Click</text>
</a>
</g>
</g>
<!-- Node1&#45;&gt;Node6 -->
<g id="edge6_Node000001_Node000006" class="edge">
<title>Node1&#45;&gt;Node6</title>
<g id="a_edge6_Node000001_Node000006"><a xlink:title=" ">
<path fill="none" stroke="#63b8ff" d="M502.08,-113.25C494.02,-113.25 485.91,-113.25 478.04,-113.25"/>
<polygon fill="#63b8ff" stroke="#63b8ff" points="501.91,-116.75 511.91,-113.25 501.91,-109.75 501.91,-116.75"/>
</a>
</g>
</g>
<!-- Node7 -->
<g id="Node000007" class="node">
<title>Node7</title>
<g id="a_Node000007"><a xlink:href="classxeno__rat__server_1_1_forms_1_1_info_grab.html#ae3b674b6565d59d838881f6d827557ef" target="_top" xlink:title="Disables all buttons, sends a byte array to the client, receives a byte array from the client,...">
<polygon fill="white" stroke="#666666" points="477.75,-79.5 342.5,-79.5 342.5,-49 477.75,-49 477.75,-79.5"/>
<text text-anchor="start" x="350.5" y="-66" font-family="Helvetica,sans-Serif" font-size="10.00">xeno_rat_server.Forms.Info</text>
<text text-anchor="middle" x="410.12" y="-54.75" font-family="Helvetica,sans-Serif" font-size="10.00">Grab.button7_Click</text>
</a>
</g>
</g>
<!-- Node1&#45;&gt;Node7 -->
<g id="edge8_Node000001_Node000007" class="edge">
<title>Node1&#45;&gt;Node7</title>
<g id="a_edge8_Node000001_Node000007"><a xlink:title=" ">
<path fill="none" stroke="#63b8ff" d="M518.67,-94.52C501.64,-89.72 483.5,-84.62 467.07,-79.99"/>
<polygon fill="#63b8ff" stroke="#63b8ff" points="517.65,-97.86 528.22,-97.2 519.54,-91.12 517.65,-97.86"/>
</a>
</g>
</g>
<!-- Node8 -->
<g id="Node000008" class="node">
<title>Node8</title>
<g id="a_Node000008"><a xlink:href="classxeno__rat__server_1_1_forms_1_1_info_grab.html#a65b50fdc3ce678dd2de2841a6da67bfa" target="_top" xlink:title="Sends a request to the client and displays the received data in a rich text box.">
<polygon fill="white" stroke="#666666" points="477.75,-30.5 342.5,-30.5 342.5,0 477.75,0 477.75,-30.5"/>
<text text-anchor="start" x="350.5" y="-17" font-family="Helvetica,sans-Serif" font-size="10.00">xeno_rat_server.Forms.Info</text>
<text text-anchor="middle" x="410.12" y="-5.75" font-family="Helvetica,sans-Serif" font-size="10.00">Grab.button9_Click</text>
</a>
</g>
</g>
<!-- Node1&#45;&gt;Node8 -->
<g id="edge10_Node000001_Node000008" class="edge">
<title>Node1&#45;&gt;Node8</title>
<g id="a_edge10_Node000001_Node000008"><a xlink:title=" ">
<path fill="none" stroke="#63b8ff" d="M556.53,-90.97C535.52,-75.38 505.89,-54.82 477.75,-40.25 471.28,-36.9 464.25,-33.76 457.27,-30.92"/>
<polygon fill="#63b8ff" stroke="#63b8ff" points="554.23,-93.63 564.33,-96.84 558.44,-88.03 554.23,-93.63"/>
</a>
</g>
</g>
<!-- Node3 -->
<g id="Node000003" class="node">
<title>Node3</title>
<g id="a_Node000003"><a xlink:href="classxeno__rat__server_1_1_forms_1_1_info_grab.html#a4d2a351c38d239200fcbb840d6bb45af" target="_top" xlink:title="Initializes the components of the form.">
<polygon fill="white" stroke="#666666" points="306.5,-128.5 171.25,-128.5 171.25,-98 306.5,-98 306.5,-128.5"/>
<text text-anchor="start" x="179.25" y="-115" font-family="Helvetica,sans-Serif" font-size="10.00">xeno_rat_server.Forms.Info</text>
<text text-anchor="middle" x="238.88" y="-103.75" font-family="Helvetica,sans-Serif" font-size="10.00">Grab.InitializeComponent</text>
</a>
</g>
</g>
<!-- Node2&#45;&gt;Node3 -->
<g id="edge2_Node000002_Node000003" class="edge">
<title>Node2&#45;&gt;Node3</title>
<g id="a_edge2_Node000002_Node000003"><a xlink:title=" ">
<path fill="none" stroke="#63b8ff" d="M352.02,-190.96C348.76,-189.45 345.56,-187.88 342.5,-186.25 311.22,-169.62 278.44,-144.81 258.57,-128.82"/>
<polygon fill="#63b8ff" stroke="#63b8ff" points="350.61,-194.17 361.18,-194.95 353.41,-187.75 350.61,-194.17"/>
</a>
</g>
</g>
<!-- Node4 -->
<g id="Node000004" class="node">
<title>Node4</title>
<g id="a_Node000004"><a xlink:href="classxeno__rat__server_1_1_forms_1_1_info_grab.html#ada9eaf7fdd60b9f454b68a93da59a024" target="_top" xlink:title=" ">
<polygon fill="white" stroke="#666666" points="135.25,-128.5 0,-128.5 0,-98 135.25,-98 135.25,-128.5"/>
<text text-anchor="start" x="8" y="-115" font-family="Helvetica,sans-Serif" font-size="10.00">xeno_rat_server.Forms.Info</text>
<text text-anchor="middle" x="67.62" y="-103.75" font-family="Helvetica,sans-Serif" font-size="10.00">Grab.InfoGrab</text>
</a>
</g>
</g>
<!-- Node3&#45;&gt;Node4 -->
<g id="edge3_Node000003_Node000004" class="edge">
<title>Node3&#45;&gt;Node4</title>
<g id="a_edge3_Node000003_Node000004"><a xlink:title=" ">
<path fill="none" stroke="#63b8ff" d="M159.68,-113.25C151.63,-113.25 143.5,-113.25 135.59,-113.25"/>
<polygon fill="#63b8ff" stroke="#63b8ff" points="159.47,-116.75 169.47,-113.25 159.47,-109.75 159.47,-116.75"/>
</a>
</g>
</g>
<!-- Node5&#45;&gt;Node3 -->
<g id="edge5_Node000005_Node000003" class="edge">
<title>Node5&#45;&gt;Node3</title>
<g id="a_edge5_Node000005_Node000003"><a xlink:title=" ">
<path fill="none" stroke="#63b8ff" d="M344.41,-143.52C327.86,-138.72 310.23,-133.62 294.25,-128.99"/>
<polygon fill="#63b8ff" stroke="#63b8ff" points="343.08,-146.77 353.65,-146.19 345.02,-140.05 343.08,-146.77"/>
</a>
</g>
</g>
<!-- Node6&#45;&gt;Node3 -->
<g id="edge7_Node000006_Node000003" class="edge">
<title>Node6&#45;&gt;Node3</title>
<g id="a_edge7_Node000006_Node000003"><a xlink:title=" ">
<path fill="none" stroke="#63b8ff" d="M330.93,-113.25C322.88,-113.25 314.75,-113.25 306.84,-113.25"/>
<polygon fill="#63b8ff" stroke="#63b8ff" points="330.72,-116.75 340.72,-113.25 330.72,-109.75 330.72,-116.75"/>
</a>
</g>
</g>
<!-- Node7&#45;&gt;Node3 -->
<g id="edge9_Node000007_Node000003" class="edge">
<title>Node7&#45;&gt;Node3</title>
<g id="a_edge9_Node000007_Node000003"><a xlink:title=" ">
<path fill="none" stroke="#63b8ff" d="M344.41,-82.98C327.86,-87.78 310.23,-92.88 294.25,-97.51"/>
<polygon fill="#63b8ff" stroke="#63b8ff" points="345.02,-86.45 353.65,-80.31 343.08,-79.73 345.02,-86.45"/>
</a>
</g>
</g>
<!-- Node8&#45;&gt;Node3 -->
<g id="edge11_Node000008_Node000003" class="edge">
<title>Node8&#45;&gt;Node3</title>
<g id="a_edge11_Node000008_Node000003"><a xlink:title=" ">
<path fill="none" stroke="#63b8ff" d="M352.02,-35.54C348.76,-37.05 345.56,-38.62 342.5,-40.25 311.22,-56.88 278.44,-81.69 258.57,-97.68"/>
<polygon fill="#63b8ff" stroke="#63b8ff" points="353.41,-38.75 361.18,-31.55 350.61,-32.33 353.41,-38.75"/>
</a>
</g>
</g>
</g>
</svg>
