<?xml version="1.0" encoding="UTF-8" standalone="no"?>
<!DOCTYPE svg PUBLIC "-//W3C//DTD SVG 1.1//EN"
 "http://www.w3.org/Graphics/SVG/1.1/DTD/svg11.dtd">
<!-- Generated by graphviz version 10.0.1 (20240210.2158)
 -->
<!-- Title: NAudio.Wave.ResamplerDmoStream.Read Pages: 1 -->
<!--zoomable 358 -->

<svg id="main" version="1.1" xmlns="http://www.w3.org/2000/svg" xmlns:xlink="http://www.w3.org/1999/xlink" xml:space="preserve" onload="init(evt)">
<style type="text/css"><![CDATA[
.node, .edge {opacity: 0.7;}
.node.selected, .edge.selected {opacity: 1;}
.edge:hover path { stroke: red; }
.edge:hover polygon { stroke: red; fill: red; }
]]></style>

<defs>
  <circle id="rim" cx="0" cy="0" r="7"/>
  <circle id="rim2" cx="0" cy="0" r="3.5"/>
  <g id="zoomPlus">
    <use xlink:href="#rim" fill="#404040"><set attributeName="fill" to="#808080" begin="zoomplus.mouseover" end="zoomplus.mouseout"/></use>
    <path d="M-4,0h8M0,-4v8" fill="none" stroke="white" stroke-width="1.5" pointer-events="none"/>
  </g>
  <g id="zoomMin">
    <use xlink:href="#rim" fill="#404040"><set attributeName="fill" to="#808080" begin="zoomminus.mouseover" end="zoomminus.mouseout"/></use>
    <path d="M-4,0h8" fill="none" stroke="white" stroke-width="1.5" pointer-events="none"/>
  </g>
  <g id="arrowUp" transform="translate(30 24)">
    <use xlink:href="#rim"/>
    <path pointer-events="none" fill="none" stroke="white" stroke-width="1.5" d="M0,-3.0v7 M-2.5,-0.5L0,-3.0L2.5,-0.5"/>
  </g>
  <g id="arrowRight" transform="rotate(90) translate(36 -43)">
    <use xlink:href="#rim"/>
    <path pointer-events="none" fill="none" stroke="white" stroke-width="1.5" d="M0,-3.0v7 M-2.5,-0.5L0,-3.0L2.5,-0.5"/>
  </g>
  <g id="arrowDown" transform="rotate(180) translate(-30 -48)">
    <use xlink:href="#rim"/>
    <path pointer-events="none" fill="none" stroke="white" stroke-width="1.5" d="M0,-3.0v7 M-2.5,-0.5L0,-3.0L2.5,-0.5"/>
  </g>
  <g id="arrowLeft" transform="rotate(270) translate(-36 17)">
    <use xlink:href="#rim"/>
    <path pointer-events="none" fill="none" stroke="white" stroke-width="1.5" d="M0,-3.0v7 M-2.5,-0.5L0,-3.0L2.5,-0.5"/>
  </g>
  <g id="resetDef">
    <use xlink:href="#rim2" fill="#404040"><set attributeName="fill" to="#808080" begin="reset.mouseover" end="reset.mouseout"/></use>
  </g>
</defs>
<script type="application/ecmascript">
var viewWidth = 535;
var viewHeight = 358;
var sectionId = 'dynsection-6';
</script>
<script type="application/ecmascript" xlink:href="svg.min.js"/>
<svg id="graph" class="graph">
<g id="viewport">
<title>NAudio.Wave.ResamplerDmoStream.Read</title>
<!-- Node1 -->
<g id="Node000001" class="node">
<title>Node1</title>
<g id="a_Node000001"><a xlink:title="Reads a specified number of bytes from the input stream and writes them to the buffer.">
<polygon fill="#999999" stroke="#666666" points="147.25,-189.5 0,-189.5 0,-159 147.25,-159 147.25,-189.5"/>
<text text-anchor="start" x="8" y="-176" font-family="Helvetica,sans-Serif" font-size="10.00">NAudio.Wave.ResamplerDmo</text>
<text text-anchor="middle" x="73.62" y="-164.75" font-family="Helvetica,sans-Serif" font-size="10.00">Stream.Read</text>
</a>
</g>
</g>
<!-- Node2 -->
<g id="Node000002" class="node">
<title>Node2</title>
<g id="a_Node000002"><a xlink:href="class_n_audio_1_1_dmo_1_1_media_object.html#a9d335bbaf2b94e2b46636b66bca6b3ec" target="_top" xlink:title="Checks if the specified input stream is accepting data.">
<polygon fill="white" stroke="#666666" points="339.88,-349.5 198.62,-349.5 198.62,-319 339.88,-319 339.88,-349.5"/>
<text text-anchor="start" x="206.62" y="-336" font-family="Helvetica,sans-Serif" font-size="10.00">NAudio.Dmo.MediaObject.Is</text>
<text text-anchor="middle" x="269.25" y="-324.75" font-family="Helvetica,sans-Serif" font-size="10.00">AcceptingData</text>
</a>
</g>
</g>
<!-- Node1&#45;&gt;Node2 -->
<g id="edge1_Node000001_Node000002" class="edge">
<title>Node1&#45;&gt;Node2</title>
<g id="a_edge1_Node000001_Node000002"><a xlink:title=" ">
<path fill="none" stroke="#63b8ff" d="M82.78,-189.93C98.36,-218.34 135.16,-278.33 183.25,-310.25 185.07,-311.46 186.95,-312.61 188.88,-313.7"/>
<polygon fill="#63b8ff" stroke="#63b8ff" points="187.01,-316.68 197.52,-318.01 190.14,-310.41 187.01,-316.68"/>
</a>
</g>
</g>
<!-- Node4 -->
<g id="Node000004" class="node">
<title>Node4</title>
<g id="a_Node000004"><a xlink:href="class_n_audio_1_1_dmo_1_1_media_buffer.html#a639d33e8eed3756ae99fca61288cbe85" target="_top" xlink:title="Loads the specified data into the buffer.">
<polygon fill="white" stroke="#666666" points="355.25,-300.88 183.25,-300.88 183.25,-281.62 355.25,-281.62 355.25,-300.88"/>
<text text-anchor="middle" x="269.25" y="-287.38" font-family="Helvetica,sans-Serif" font-size="10.00">NAudio.Dmo.MediaBuffer.LoadData</text>
</a>
</g>
</g>
<!-- Node1&#45;&gt;Node4 -->
<g id="edge3_Node000001_Node000004" class="edge">
<title>Node1&#45;&gt;Node4</title>
<g id="a_edge3_Node000001_Node000004"><a xlink:title=" ">
<path fill="none" stroke="#63b8ff" d="M87.23,-189.85C105.85,-211.78 142.86,-251.38 183.25,-272.25 186.96,-274.17 190.86,-275.89 194.87,-277.44"/>
<polygon fill="#63b8ff" stroke="#63b8ff" points="193.63,-280.72 204.22,-280.67 195.91,-274.1 193.63,-280.72"/>
</a>
</g>
</g>
<!-- Node5 -->
<g id="Node000005" class="node">
<title>Node5</title>
<g id="a_Node000005"><a xlink:href="class_n_audio_1_1_wave_1_1_resampler_dmo_stream.html#a21ffac8bc56d8dca8c215cb9b627359d" target="_top" xlink:title="Converts the output position to the corresponding input position based on the audio format ratios.">
<polygon fill="white" stroke="#666666" points="342.88,-263.5 195.62,-263.5 195.62,-233 342.88,-233 342.88,-263.5"/>
<text text-anchor="start" x="203.62" y="-250" font-family="Helvetica,sans-Serif" font-size="10.00">NAudio.Wave.ResamplerDmo</text>
<text text-anchor="middle" x="269.25" y="-238.75" font-family="Helvetica,sans-Serif" font-size="10.00">Stream.OutputToInputPosition</text>
</a>
</g>
</g>
<!-- Node1&#45;&gt;Node5 -->
<g id="edge4_Node000001_Node000005" class="edge">
<title>Node1&#45;&gt;Node5</title>
<g id="a_edge4_Node000001_Node000005"><a xlink:title=" ">
<path fill="none" stroke="#63b8ff" d="M105.99,-189.79C127.43,-200.06 156.67,-213.4 183.25,-223.25 188.61,-225.24 194.21,-227.17 199.86,-229.03"/>
<polygon fill="#63b8ff" stroke="#63b8ff" points="198.71,-232.34 209.3,-232.05 200.84,-225.67 198.71,-232.34"/>
</a>
</g>
</g>
<!-- Node6 -->
<g id="Node000006" class="node">
<title>Node6</title>
<g id="a_Node000006"><a xlink:href="class_n_audio_1_1_dmo_1_1_media_object.html#a3f2053ae18a4f1057cf67e9fd1c9c74b" target="_top" xlink:title="Processes the input data using the specified media buffer and flags.">
<polygon fill="white" stroke="#666666" points="353.75,-214.5 184.75,-214.5 184.75,-184 353.75,-184 353.75,-214.5"/>
<text text-anchor="start" x="192.75" y="-201" font-family="Helvetica,sans-Serif" font-size="10.00">NAudio.Dmo.MediaObject.Process</text>
<text text-anchor="middle" x="269.25" y="-189.75" font-family="Helvetica,sans-Serif" font-size="10.00">Input</text>
</a>
</g>
</g>
<!-- Node1&#45;&gt;Node6 -->
<g id="edge5_Node000001_Node000006" class="edge">
<title>Node1&#45;&gt;Node6</title>
<g id="a_edge5_Node000001_Node000006"><a xlink:title=" ">
<path fill="none" stroke="#63b8ff" d="M147.55,-183.67C155.9,-184.74 164.5,-185.85 173.08,-186.96"/>
<polygon fill="#63b8ff" stroke="#63b8ff" points="172.47,-190.41 182.83,-188.22 173.36,-183.47 172.47,-190.41"/>
</a>
</g>
</g>
<!-- Node8 -->
<g id="Node000008" class="node">
<title>Node8</title>
<g id="a_Node000008"><a xlink:href="class_n_audio_1_1_dmo_1_1_media_object.html#a4916561a92ee170b63630c61870ebe7b" target="_top" xlink:title="Processes the output data buffers using the specified flags and output buffer count.">
<polygon fill="white" stroke="#666666" points="353.75,-165.5 184.75,-165.5 184.75,-135 353.75,-135 353.75,-165.5"/>
<text text-anchor="start" x="192.75" y="-152" font-family="Helvetica,sans-Serif" font-size="10.00">NAudio.Dmo.MediaObject.Process</text>
<text text-anchor="middle" x="269.25" y="-140.75" font-family="Helvetica,sans-Serif" font-size="10.00">Output</text>
</a>
</g>
</g>
<!-- Node1&#45;&gt;Node8 -->
<g id="edge7_Node000001_Node000008" class="edge">
<title>Node1&#45;&gt;Node8</title>
<g id="a_edge7_Node000001_Node000008"><a xlink:title=" ">
<path fill="none" stroke="#63b8ff" d="M147.55,-165.21C155.9,-164.18 164.5,-163.11 173.08,-162.05"/>
<polygon fill="#63b8ff" stroke="#63b8ff" points="173.34,-165.54 182.83,-160.84 172.48,-158.59 173.34,-165.54"/>
</a>
</g>
</g>
<!-- Node10 -->
<g id="Node000010" class="node">
<title>Node10</title>
<g id="a_Node000010"><a xlink:href="interface_n_audio_1_1_wave_1_1_i_wave_provider.html#a1592be8cd7da05cc1a773b8d4ed979c0" target="_top" xlink:title="Fill the specified buffer with wave data.">
<polygon fill="white" stroke="#666666" points="353.38,-116.88 185.12,-116.88 185.12,-97.62 353.38,-97.62 353.38,-116.88"/>
<text text-anchor="middle" x="269.25" y="-103.38" font-family="Helvetica,sans-Serif" font-size="10.00">NAudio.Wave.IWaveProvider.Read</text>
</a>
</g>
</g>
<!-- Node1&#45;&gt;Node10 -->
<g id="edge9_Node000001_Node000010" class="edge">
<title>Node1&#45;&gt;Node10</title>
<g id="a_edge9_Node000001_Node000010"><a xlink:title=" ">
<path fill="none" stroke="#63b8ff" d="M105.83,-158.5C127.2,-148.21 156.42,-135.08 183.25,-126.25 190.12,-123.99 197.38,-121.91 204.66,-120.02"/>
<polygon fill="#63b8ff" stroke="#63b8ff" points="205.33,-123.47 214.2,-117.67 203.65,-116.67 205.33,-123.47"/>
</a>
</g>
</g>
<!-- Node11 -->
<g id="Node000011" class="node">
<title>Node11</title>
<g id="a_Node000011"><a xlink:href="struct_n_audio_1_1_dmo_1_1_dmo_output_data_buffer.html#a277dfdb5791407f8450807fbe0f4366f" target="_top" xlink:title="Retrives the data in this buffer.">
<polygon fill="white" stroke="#666666" points="342.5,-79.5 196,-79.5 196,-49 342.5,-49 342.5,-79.5"/>
<text text-anchor="start" x="204" y="-66" font-family="Helvetica,sans-Serif" font-size="10.00">NAudio.Dmo.DmoOutputData</text>
<text text-anchor="middle" x="269.25" y="-54.75" font-family="Helvetica,sans-Serif" font-size="10.00">Buffer.RetrieveData</text>
</a>
</g>
</g>
<!-- Node1&#45;&gt;Node11 -->
<g id="edge10_Node000001_Node000011" class="edge">
<title>Node1&#45;&gt;Node11</title>
<g id="a_edge10_Node000001_Node000011"><a xlink:title=" ">
<path fill="none" stroke="#63b8ff" d="M90.14,-158.63C110.04,-139.43 146.41,-107.08 183.25,-88.25 186.13,-86.78 189.11,-85.39 192.16,-84.07"/>
<polygon fill="#63b8ff" stroke="#63b8ff" points="193.31,-87.38 201.32,-80.44 190.73,-80.87 193.31,-87.38"/>
</a>
</g>
</g>
<!-- Node12 -->
<g id="Node000012" class="node">
<title>Node12</title>
<g id="a_Node000012"><a xlink:href="interface_n_audio_1_1_dmo_1_1_i_media_buffer.html#a1837680ffafa52f4f380aef32acf7c44" target="_top" xlink:title="Set Length.">
<polygon fill="white" stroke="#666666" points="335.75,-30.5 202.75,-30.5 202.75,0 335.75,0 335.75,-30.5"/>
<text text-anchor="start" x="210.75" y="-17" font-family="Helvetica,sans-Serif" font-size="10.00">NAudio.Dmo.IMediaBuffer.</text>
<text text-anchor="middle" x="269.25" y="-5.75" font-family="Helvetica,sans-Serif" font-size="10.00">SetLength</text>
</a>
</g>
</g>
<!-- Node1&#45;&gt;Node12 -->
<g id="edge11_Node000001_Node000012" class="edge">
<title>Node1&#45;&gt;Node12</title>
<g id="a_edge11_Node000001_Node000012"><a xlink:title=" ">
<path fill="none" stroke="#63b8ff" d="M82.87,-158.86C98.61,-130.95 135.65,-71.97 183.25,-40.25 186.1,-38.35 189.1,-36.59 192.2,-34.96"/>
<polygon fill="#63b8ff" stroke="#63b8ff" points="193.44,-38.25 201.01,-30.84 190.47,-31.91 193.44,-38.25"/>
</a>
</g>
</g>
<!-- Node3 -->
<g id="Node000003" class="node">
<title>Node3</title>
<g id="a_Node000003"><a xlink:href="interface_n_audio_1_1_dmo_1_1_i_media_object.html#a521f4273882c9ecd2d1211908df367ea" target="_top" xlink:title=" ">
<polygon fill="white" stroke="#666666" points="527.25,-349.5 391.25,-349.5 391.25,-319 527.25,-319 527.25,-349.5"/>
<text text-anchor="start" x="399.25" y="-336" font-family="Helvetica,sans-Serif" font-size="10.00">NAudio.Dmo.IMediaObject.</text>
<text text-anchor="middle" x="459.25" y="-324.75" font-family="Helvetica,sans-Serif" font-size="10.00">GetInputStatus</text>
</a>
</g>
</g>
<!-- Node2&#45;&gt;Node3 -->
<g id="edge2_Node000002_Node000003" class="edge">
<title>Node2&#45;&gt;Node3</title>
<g id="a_edge2_Node000002_Node000003"><a xlink:title=" ">
<path fill="none" stroke="#63b8ff" d="M340.25,-334.25C353.09,-334.25 366.57,-334.25 379.64,-334.25"/>
<polygon fill="#63b8ff" stroke="#63b8ff" points="379.48,-337.75 389.48,-334.25 379.48,-330.75 379.48,-337.75"/>
</a>
</g>
</g>
<!-- Node7 -->
<g id="Node000007" class="node">
<title>Node7</title>
<g id="a_Node000007"><a xlink:href="interface_n_audio_1_1_dmo_1_1_i_media_object.html#a94cd0f652c020cfff0f32c8909ed465c" target="_top" xlink:title=" ">
<polygon fill="white" stroke="#666666" points="527.25,-214.5 391.25,-214.5 391.25,-184 527.25,-184 527.25,-214.5"/>
<text text-anchor="start" x="399.25" y="-201" font-family="Helvetica,sans-Serif" font-size="10.00">NAudio.Dmo.IMediaObject.</text>
<text text-anchor="middle" x="459.25" y="-189.75" font-family="Helvetica,sans-Serif" font-size="10.00">ProcessInput</text>
</a>
</g>
</g>
<!-- Node6&#45;&gt;Node7 -->
<g id="edge6_Node000006_Node000007" class="edge">
<title>Node6&#45;&gt;Node7</title>
<g id="a_edge6_Node000006_Node000007"><a xlink:title=" ">
<path fill="none" stroke="#63b8ff" d="M354.08,-199.25C362.56,-199.25 371.15,-199.25 379.58,-199.25"/>
<polygon fill="#63b8ff" stroke="#63b8ff" points="379.42,-202.75 389.42,-199.25 379.42,-195.75 379.42,-202.75"/>
</a>
</g>
</g>
<!-- Node9 -->
<g id="Node000009" class="node">
<title>Node9</title>
<g id="a_Node000009"><a xlink:href="interface_n_audio_1_1_dmo_1_1_i_media_object.html#a535cbed25d31e3b076fe38953258d59f" target="_top" xlink:title=" ">
<polygon fill="white" stroke="#666666" points="527.25,-165.5 391.25,-165.5 391.25,-135 527.25,-135 527.25,-165.5"/>
<text text-anchor="start" x="399.25" y="-152" font-family="Helvetica,sans-Serif" font-size="10.00">NAudio.Dmo.IMediaObject.</text>
<text text-anchor="middle" x="459.25" y="-140.75" font-family="Helvetica,sans-Serif" font-size="10.00">ProcessOutput</text>
</a>
</g>
</g>
<!-- Node8&#45;&gt;Node9 -->
<g id="edge8_Node000008_Node000009" class="edge">
<title>Node8&#45;&gt;Node9</title>
<g id="a_edge8_Node000008_Node000009"><a xlink:title=" ">
<path fill="none" stroke="#63b8ff" d="M354.08,-150.25C362.56,-150.25 371.15,-150.25 379.58,-150.25"/>
<polygon fill="#63b8ff" stroke="#63b8ff" points="379.42,-153.75 389.42,-150.25 379.42,-146.75 379.42,-153.75"/>
</a>
</g>
</g>
</g>
</svg>

<g id="navigator" transform="translate(0 0)" fill="#404254">
  <rect fill="#f2f5e9" fill-opacity="0.5" stroke="#606060" stroke-width=".5" x="0" y="0" width="60" height="60"/>
  <use id="zoomplus" xlink:href="#zoomPlus" x="17" y="9" onmousedown="handleZoom(evt,'in')"/>
  <use id="zoomminus" xlink:href="#zoomMin" x="42" y="9" onmousedown="handleZoom(evt,'out')"/>
  <use id="reset" xlink:href="#resetDef" x="30" y="36" onmousedown="handleReset()"/>
   <use id="arrowup" xlink:href="#arrowUp" x="0" y="0" onmousedown="handlePan(0,-1)"/>
  <use id="arrowright" xlink:href="#arrowRight" x="0" y="0" onmousedown="handlePan(1,0)"/>
  <use id="arrowdown" xlink:href="#arrowDown" x="0" y="0" onmousedown="handlePan(0,1)"/>
  <use id="arrowleft" xlink:href="#arrowLeft" x="0" y="0" onmousedown="handlePan(-1,0)"/>
</g>
<svg viewBox="0 0 15 15" width="100%" height="30px" preserveAspectRatio="xMaxYMin meet">
 <g id="arrow_out" transform="scale(0.3 0.3)">
  <a xlink:href="class_n_audio_1_1_wave_1_1_resampler_dmo_stream_ab6da9d010e62d3a6b41ce8a06525f333_cgraph_org.svg" target="_base">
   <rect id="button" ry="5" rx="5" y="6" x="6" height="38" width="38"
        fill="#f2f5e9" fill-opacity="0.5" stroke="#606060" stroke-width="1.0"/>
   <path id="arrow"
     d="M 11.500037,31.436501 C 11.940474,20.09759 22.043105,11.32322 32.158766,21.979434 L 37.068811,17.246167 C 37.068811,17.246167 37.088388,32 37.088388,32 L 22.160133,31.978069 C 22.160133,31.978069 26.997745,27.140456 26.997745,27.140456 C 18.528582,18.264221 13.291696,25.230495 11.500037,31.436501 z"
     style="fill:#404040;"/>
  </a>
 </g>
</svg>

<style type='text/css'>
<![CDATA[
[data-mouse-over-selected='false'] { opacity: 0.7; }
[data-mouse-over-selected='true']  { opacity: 1.0; }
]]>
</style>
<script type="application/ecmascript"><![CDATA[
document.addEventListener('DOMContentLoaded', (event) => {
  highlightEdges();
  highlightAdjacentNodes();
});
]]></script>
</svg>
