<?xml version="1.0" encoding="UTF-8" standalone="no"?>
<!DOCTYPE svg PUBLIC "-//W3C//DTD SVG 1.1//EN"
 "http://www.w3.org/Graphics/SVG/1.1/DTD/svg11.dtd">
<!-- Generated by graphviz version 10.0.1 (20240210.2158)
 -->
<!-- Title: NAudio.SoundFont.SFVersionBuilder Pages: 1 -->
<svg width="151pt" height="325pt"
 viewBox="0.00 0.00 151.00 325.25" xmlns="http://www.w3.org/2000/svg" xmlns:xlink="http://www.w3.org/1999/xlink">
<g id="graph0" class="graph" transform="scale(1 1) rotate(0) translate(4 321.25)">
<title>NAudio.SoundFont.SFVersionBuilder</title>
<!-- Node1 -->
<g id="Node000001" class="node">
<title>Node1</title>
<g id="a_Node000001"><a xlink:title="Builds a SoundFont version.">
<polygon fill="#999999" stroke="none" points="142,-75 1,-75 1,0 142,0 142,-75"/>
<text text-anchor="start" x="5.88" y="-61.5" font-family="Helvetica,sans-Serif" font-size="10.00">NAudio.SoundFont.SFVersion</text>
<text text-anchor="start" x="56.5" y="-50.25" font-family="Helvetica,sans-Serif" font-size="10.00">Builder</text>
<text text-anchor="start" x="28.5" y="-35.5" font-family="Helvetica,sans-Serif" font-size="10.00">+</text>
<text text-anchor="start" x="62" y="-35.5" font-family="Helvetica,sans-Serif" font-size="10.00">Length</text>
<text text-anchor="start" x="28.5" y="-20.5" font-family="Helvetica,sans-Serif" font-size="10.00">+</text>
<text text-anchor="start" x="62" y="-20.5" font-family="Helvetica,sans-Serif" font-size="10.00">Read()</text>
<text text-anchor="start" x="28.5" y="-5.5" font-family="Helvetica,sans-Serif" font-size="10.00">+</text>
<text text-anchor="start" x="62" y="-5.5" font-family="Helvetica,sans-Serif" font-size="10.00">Write()</text>
<polygon fill="#666666" stroke="#666666" points="1,-47 1,-47 142,-47 142,-47 1,-47"/>
<polygon fill="#666666" stroke="#666666" points="1,-32 1,-32 60,-32 60,-32 1,-32"/>
<polygon fill="#666666" stroke="#666666" points="60,-32 60,-32 142,-32 142,-32 60,-32"/>
<polygon fill="none" stroke="#666666" points="1,0 1,-75 142,-75 142,0 1,0"/>
</a>
</g>
</g>
<!-- Node2 -->
<g id="Node000002" class="node">
<title>Node2</title>
<g id="a_Node000002"><a xlink:title=" ">
<polygon fill="white" stroke="none" points="143,-221 0,-221 0,-112 143,-112 143,-221"/>
<text text-anchor="start" x="4.75" y="-207.5" font-family="Helvetica,sans-Serif" font-size="10.00">StructureBuilder&lt; SFVersion &gt;</text>
<text text-anchor="start" x="16.5" y="-192.5" font-family="Helvetica,sans-Serif" font-size="10.00">+</text>
<text text-anchor="start" x="39" y="-192.5" font-family="Helvetica,sans-Serif" font-size="10.00">Length</text>
<text text-anchor="start" x="16.5" y="-177.5" font-family="Helvetica,sans-Serif" font-size="10.00">+</text>
<text text-anchor="start" x="39" y="-177.5" font-family="Helvetica,sans-Serif" font-size="10.00">Data</text>
<text text-anchor="start" x="16.5" y="-162.5" font-family="Helvetica,sans-Serif" font-size="10.00">+</text>
<text text-anchor="start" x="39" y="-162.5" font-family="Helvetica,sans-Serif" font-size="10.00">StructureBuilder()</text>
<text text-anchor="start" x="16.5" y="-147.5" font-family="Helvetica,sans-Serif" font-size="10.00">+</text>
<text text-anchor="start" x="39" y="-147.5" font-family="Helvetica,sans-Serif" font-size="10.00">Read()</text>
<text text-anchor="start" x="16.5" y="-132.5" font-family="Helvetica,sans-Serif" font-size="10.00">+</text>
<text text-anchor="start" x="39" y="-132.5" font-family="Helvetica,sans-Serif" font-size="10.00">Write()</text>
<text text-anchor="start" x="16.5" y="-117.5" font-family="Helvetica,sans-Serif" font-size="10.00">+</text>
<text text-anchor="start" x="39" y="-117.5" font-family="Helvetica,sans-Serif" font-size="10.00">Reset()</text>
<polygon fill="#666666" stroke="#666666" points="0,-204 0,-204 143,-204 143,-204 0,-204"/>
<polygon fill="#666666" stroke="#666666" points="0,-174 0,-174 37,-174 37,-174 0,-174"/>
<polygon fill="#666666" stroke="#666666" points="37,-174 37,-174 143,-174 143,-174 37,-174"/>
<polygon fill="none" stroke="#666666" points="0,-112 0,-221 143,-221 143,-112 0,-112"/>
</a>
</g>
</g>
<!-- Node2&#45;&gt;Node1 -->
<g id="edge1_Node000001_Node000002" class="edge">
<title>Node2&#45;&gt;Node1</title>
<g id="a_edge1_Node000001_Node000002"><a xlink:title=" ">
<path fill="none" stroke="#63b8ff" d="M71.5,-100.52C71.5,-91.75 71.5,-83.02 71.5,-74.99"/>
<polygon fill="none" stroke="#63b8ff" points="68,-100.5 71.5,-110.5 75,-100.5 68,-100.5"/>
</a>
</g>
</g>
<!-- Node3 -->
<g id="Node000003" class="node">
<title>Node3</title>
<g id="a_Node000003"><a xlink:title=" ">
<polygon fill="white" stroke="none" points="96,-317.25 47,-317.25 47,-268.25 96,-268.25 96,-317.25"/>
<text text-anchor="start" x="51.62" y="-303.75" font-family="Helvetica,sans-Serif" font-size="10.00">List&lt; T &gt;</text>
<text text-anchor="start" x="70" y="-288.75" font-family="Helvetica,sans-Serif" font-size="10.00"> </text>
<text text-anchor="start" x="70" y="-273.75" font-family="Helvetica,sans-Serif" font-size="10.00"> </text>
<polygon fill="#666666" stroke="#666666" points="47,-300.25 47,-300.25 96,-300.25 96,-300.25 47,-300.25"/>
<polygon fill="#666666" stroke="#666666" points="47,-285.25 47,-285.25 96,-285.25 96,-285.25 47,-285.25"/>
<polygon fill="none" stroke="#666666" points="47,-268.25 47,-317.25 96,-317.25 96,-268.25 47,-268.25"/>
</a>
</g>
</g>
<!-- Node3&#45;&gt;Node2 -->
<g id="edge2_Node000002_Node000003" class="edge">
<title>Node3&#45;&gt;Node2</title>
<g id="a_edge2_Node000002_Node000003"><a xlink:title=" ">
<path fill="none" stroke="#63b8ff" d="M71.5,-268.38C71.5,-258.41 71.5,-246.23 71.5,-233.83"/>
<polygon fill="none" stroke="#63b8ff" points="71.5,-233.81 67.5,-227.81 71.5,-221.81 75.5,-227.81 71.5,-233.81"/>
</a>
</g>
<text text-anchor="middle" x="85" y="-240.75" font-family="Helvetica,sans-Serif" font-size="10.00" fill="grey"> #data</text>
</g>
</g>
</svg>
