<?xml version="1.0" encoding="UTF-8" standalone="no"?>
<!DOCTYPE svg PUBLIC "-//W3C//DTD SVG 1.1//EN"
 "http://www.w3.org/Graphics/SVG/1.1/DTD/svg11.dtd">
<!-- Generated by graphviz version 10.0.1 (20240210.2158)
 -->
<!-- Title: NAudio.Wave.AcmMp3FrameDecompressor Pages: 1 -->
<svg width="895pt" height="1151pt"
 viewBox="0.00 0.00 895.33 1150.50" xmlns="http://www.w3.org/2000/svg" xmlns:xlink="http://www.w3.org/1999/xlink">
<g id="graph0" class="graph" transform="scale(1 1) rotate(0) translate(4 1146.5)">
<title>NAudio.Wave.AcmMp3FrameDecompressor</title>
<!-- Node1 -->
<g id="Node000001" class="node">
<title>Node1</title>
<g id="a_Node000001"><a xlink:title="MP3 Frame Decompressor using ACM.">
<polygon fill="#999999" stroke="none" points="485.63,-109 282.63,-109 282.63,0 485.63,0 485.63,-109"/>
<text text-anchor="start" x="287.38" y="-95.5" font-family="Helvetica,sans-Serif" font-size="10.00">NAudio.Wave.AcmMp3FrameDecompressor</text>
<text text-anchor="start" x="297.13" y="-80.5" font-family="Helvetica,sans-Serif" font-size="10.00">+</text>
<text text-anchor="start" x="317.63" y="-80.5" font-family="Helvetica,sans-Serif" font-size="10.00">OutputFormat</text>
<text text-anchor="start" x="297.13" y="-65.5" font-family="Helvetica,sans-Serif" font-size="10.00">+</text>
<text text-anchor="start" x="317.63" y="-65.5" font-family="Helvetica,sans-Serif" font-size="10.00">AcmMp3FrameDecompressor()</text>
<text text-anchor="start" x="297.13" y="-50.5" font-family="Helvetica,sans-Serif" font-size="10.00">+</text>
<text text-anchor="start" x="317.63" y="-50.5" font-family="Helvetica,sans-Serif" font-size="10.00">DecompressFrame()</text>
<text text-anchor="start" x="297.13" y="-35.5" font-family="Helvetica,sans-Serif" font-size="10.00">+</text>
<text text-anchor="start" x="317.63" y="-35.5" font-family="Helvetica,sans-Serif" font-size="10.00">Reset()</text>
<text text-anchor="start" x="297.13" y="-20.5" font-family="Helvetica,sans-Serif" font-size="10.00">+</text>
<text text-anchor="start" x="317.63" y="-20.5" font-family="Helvetica,sans-Serif" font-size="10.00">Dispose()</text>
<text text-anchor="start" x="298.63" y="-5.5" font-family="Helvetica,sans-Serif" font-size="10.00">&#45;</text>
<text text-anchor="start" x="317.63" y="-5.5" font-family="Helvetica,sans-Serif" font-size="10.00">~AcmMp3FrameDecompressor()</text>
<polygon fill="#666666" stroke="#666666" points="282.63,-92 282.63,-92 485.63,-92 485.63,-92 282.63,-92"/>
<polygon fill="#666666" stroke="#666666" points="282.63,-77 282.63,-77 315.63,-77 315.63,-77 282.63,-77"/>
<polygon fill="#666666" stroke="#666666" points="315.63,-77 315.63,-77 485.63,-77 485.63,-77 315.63,-77"/>
<polygon fill="none" stroke="#666666" points="282.63,0 282.63,-109 485.63,-109 485.63,0 282.63,0"/>
</a>
</g>
</g>
<!-- Node2 -->
<g id="Node000002" class="node">
<title>Node2</title>
<g id="a_Node000002"><a xlink:href="interface_n_audio_1_1_wave_1_1_i_mp3_frame_decompressor.html" target="_top" xlink:title="Interface for MP3 frame by frame decoder.">
<polygon fill="white" stroke="none" points="398.63,-463.25 275.63,-463.25 275.63,-399.25 398.63,-399.25 398.63,-463.25"/>
<text text-anchor="start" x="280.5" y="-449.75" font-family="Helvetica,sans-Serif" font-size="10.00">IMp3FrameDecompressor</text>
<text text-anchor="start" x="283.63" y="-434.75" font-family="Helvetica,sans-Serif" font-size="10.00">+</text>
<text text-anchor="start" x="297.63" y="-434.75" font-family="Helvetica,sans-Serif" font-size="10.00">OutputFormat</text>
<text text-anchor="start" x="283.63" y="-419.75" font-family="Helvetica,sans-Serif" font-size="10.00">+</text>
<text text-anchor="start" x="297.63" y="-419.75" font-family="Helvetica,sans-Serif" font-size="10.00">DecompressFrame()</text>
<text text-anchor="start" x="283.63" y="-404.75" font-family="Helvetica,sans-Serif" font-size="10.00">+</text>
<text text-anchor="start" x="297.63" y="-404.75" font-family="Helvetica,sans-Serif" font-size="10.00">Reset()</text>
<polygon fill="#666666" stroke="#666666" points="275.63,-446.25 275.63,-446.25 398.63,-446.25 398.63,-446.25 275.63,-446.25"/>
<polygon fill="#666666" stroke="#666666" points="275.63,-431.25 275.63,-431.25 295.63,-431.25 295.63,-431.25 275.63,-431.25"/>
<polygon fill="#666666" stroke="#666666" points="295.63,-431.25 295.63,-431.25 398.63,-431.25 398.63,-431.25 295.63,-431.25"/>
<polygon fill="none" stroke="#666666" points="275.63,-399.25 275.63,-463.25 398.63,-463.25 398.63,-399.25 275.63,-399.25"/>
</a>
</g>
</g>
<!-- Node2&#45;&gt;Node1 -->
<g id="edge1_Node000001_Node000002" class="edge">
<title>Node2&#45;&gt;Node1</title>
<g id="a_edge1_Node000001_Node000002"><a xlink:title=" ">
<path fill="none" stroke="#63b8ff" d="M337.42,-388.43C338.38,-334.42 342.14,-237.69 356.13,-156.25 358.8,-140.68 362.89,-124.06 367.13,-108.9"/>
<polygon fill="none" stroke="#63b8ff" points="333.92,-388.04 337.27,-398.09 340.92,-388.14 333.92,-388.04"/>
</a>
</g>
</g>
<!-- Node3 -->
<g id="Node000003" class="node">
<title>Node3</title>
<g id="a_Node000003"><a xlink:href="class_i_disposable.html" target="_top" xlink:title=" ">
<polygon fill="white" stroke="none" points="395.63,-995.75 334.63,-995.75 334.63,-946.75 395.63,-946.75 395.63,-995.75"/>
<text text-anchor="start" x="339.25" y="-982.25" font-family="Helvetica,sans-Serif" font-size="10.00">IDisposable</text>
<text text-anchor="start" x="363.63" y="-967.25" font-family="Helvetica,sans-Serif" font-size="10.00"> </text>
<text text-anchor="start" x="363.63" y="-952.25" font-family="Helvetica,sans-Serif" font-size="10.00"> </text>
<polygon fill="#666666" stroke="#666666" points="334.63,-978.75 334.63,-978.75 395.63,-978.75 395.63,-978.75 334.63,-978.75"/>
<polygon fill="#666666" stroke="#666666" points="334.63,-963.75 334.63,-963.75 395.63,-963.75 395.63,-963.75 334.63,-963.75"/>
<polygon fill="none" stroke="#666666" points="334.63,-946.75 334.63,-995.75 395.63,-995.75 395.63,-946.75 334.63,-946.75"/>
</a>
</g>
</g>
<!-- Node3&#45;&gt;Node2 -->
<g id="edge2_Node000002_Node000003" class="edge">
<title>Node3&#45;&gt;Node2</title>
<g id="a_edge2_Node000002_Node000003"><a xlink:title=" ">
<path fill="none" stroke="#63b8ff" d="M363.32,-935.41C358.18,-836.71 343.59,-556.34 338.73,-462.94"/>
<polygon fill="none" stroke="#63b8ff" points="359.81,-935.47 363.83,-945.28 366.8,-935.11 359.81,-935.47"/>
</a>
</g>
</g>
<!-- Node4 -->
<g id="Node000004" class="node">
<title>Node4</title>
<g id="a_Node000004"><a xlink:href="class_n_audio_1_1_wave_1_1_compression_1_1_acm_stream.html" target="_top" xlink:title="AcmStream encapsulates an Audio Compression Manager Stream used to convert audio from one format to a...">
<polygon fill="white" stroke="none" points="498.63,-381.25 365.63,-381.25 365.63,-156.25 498.63,-156.25 498.63,-381.25"/>
<text text-anchor="start" x="370.25" y="-367.75" font-family="Helvetica,sans-Serif" font-size="10.00">NAudio.Wave.Compression.</text>
<text text-anchor="start" x="406.25" y="-356.5" font-family="Helvetica,sans-Serif" font-size="10.00">AcmStream</text>
<text text-anchor="start" x="375.13" y="-341.75" font-family="Helvetica,sans-Serif" font-size="10.00">+</text>
<text text-anchor="start" x="390.63" y="-341.75" font-family="Helvetica,sans-Serif" font-size="10.00">SourceBuffer</text>
<text text-anchor="start" x="375.13" y="-326.75" font-family="Helvetica,sans-Serif" font-size="10.00">+</text>
<text text-anchor="start" x="390.63" y="-326.75" font-family="Helvetica,sans-Serif" font-size="10.00">DestBuffer</text>
<text text-anchor="start" x="375.13" y="-311.75" font-family="Helvetica,sans-Serif" font-size="10.00">+</text>
<text text-anchor="start" x="390.63" y="-311.75" font-family="Helvetica,sans-Serif" font-size="10.00">AcmStream()</text>
<text text-anchor="start" x="375.13" y="-296.75" font-family="Helvetica,sans-Serif" font-size="10.00">+</text>
<text text-anchor="start" x="390.63" y="-296.75" font-family="Helvetica,sans-Serif" font-size="10.00">AcmStream()</text>
<text text-anchor="start" x="375.13" y="-281.75" font-family="Helvetica,sans-Serif" font-size="10.00">+</text>
<text text-anchor="start" x="390.63" y="-281.75" font-family="Helvetica,sans-Serif" font-size="10.00">SourceToDest()</text>
<text text-anchor="start" x="375.13" y="-266.75" font-family="Helvetica,sans-Serif" font-size="10.00">+</text>
<text text-anchor="start" x="390.63" y="-266.75" font-family="Helvetica,sans-Serif" font-size="10.00">DestToSource()</text>
<text text-anchor="start" x="375.13" y="-251.75" font-family="Helvetica,sans-Serif" font-size="10.00">+</text>
<text text-anchor="start" x="390.63" y="-251.75" font-family="Helvetica,sans-Serif" font-size="10.00">Reposition()</text>
<text text-anchor="start" x="375.13" y="-236.75" font-family="Helvetica,sans-Serif" font-size="10.00">+</text>
<text text-anchor="start" x="390.63" y="-236.75" font-family="Helvetica,sans-Serif" font-size="10.00">Convert()</text>
<text text-anchor="start" x="375.13" y="-221.75" font-family="Helvetica,sans-Serif" font-size="10.00">+</text>
<text text-anchor="start" x="390.63" y="-221.75" font-family="Helvetica,sans-Serif" font-size="10.00">Convert()</text>
<text text-anchor="start" x="375.13" y="-206.75" font-family="Helvetica,sans-Serif" font-size="10.00">+</text>
<text text-anchor="start" x="390.63" y="-206.75" font-family="Helvetica,sans-Serif" font-size="10.00">Dispose()</text>
<text text-anchor="start" x="375.13" y="-191.75" font-family="Helvetica,sans-Serif" font-size="10.00">+</text>
<text text-anchor="start" x="390.63" y="-191.75" font-family="Helvetica,sans-Serif" font-size="10.00">SuggestPcmFormat()</text>
<text text-anchor="start" x="375.5" y="-176.75" font-family="Helvetica,sans-Serif" font-size="10.00">#</text>
<text text-anchor="start" x="390.63" y="-176.75" font-family="Helvetica,sans-Serif" font-size="10.00">Dispose()</text>
<text text-anchor="start" x="376.63" y="-161.75" font-family="Helvetica,sans-Serif" font-size="10.00">&#45;</text>
<text text-anchor="start" x="390.63" y="-161.75" font-family="Helvetica,sans-Serif" font-size="10.00">~AcmStream()</text>
<polygon fill="#666666" stroke="#666666" points="365.63,-353.25 365.63,-353.25 498.63,-353.25 498.63,-353.25 365.63,-353.25"/>
<polygon fill="#666666" stroke="#666666" points="365.63,-323.25 365.63,-323.25 388.63,-323.25 388.63,-323.25 365.63,-323.25"/>
<polygon fill="#666666" stroke="#666666" points="388.63,-323.25 388.63,-323.25 498.63,-323.25 498.63,-323.25 388.63,-323.25"/>
<polygon fill="none" stroke="#666666" points="365.63,-156.25 365.63,-381.25 498.63,-381.25 498.63,-156.25 365.63,-156.25"/>
</a>
</g>
</g>
<!-- Node3&#45;&gt;Node4 -->
<g id="edge4_Node000004_Node000003" class="edge">
<title>Node3&#45;&gt;Node4</title>
<g id="a_edge4_Node000004_Node000003"><a xlink:title=" ">
<path fill="none" stroke="#63b8ff" d="M373.76,-935.95C374.65,-931.69 375.47,-927.38 376.13,-923.25 406.19,-734.18 420.92,-511.59 427.49,-381.06"/>
<polygon fill="none" stroke="#63b8ff" points="370.4,-934.95 371.61,-945.48 377.23,-936.49 370.4,-934.95"/>
</a>
</g>
</g>
<!-- Node6 -->
<g id="Node000006" class="node">
<title>Node6</title>
<g id="a_Node000006"><a xlink:href="class_n_audio_1_1_wave_1_1_compression_1_1_acm_stream_header.html" target="_top" xlink:title=" ">
<polygon fill="white" stroke="none" points="598.63,-760.75 465.63,-760.75 465.63,-580.75 598.63,-580.75 598.63,-760.75"/>
<text text-anchor="start" x="470.25" y="-747.25" font-family="Helvetica,sans-Serif" font-size="10.00">NAudio.Wave.Compression.</text>
<text text-anchor="start" x="490.5" y="-736" font-family="Helvetica,sans-Serif" font-size="10.00">AcmStreamHeader</text>
<text text-anchor="start" x="474.63" y="-721.25" font-family="Helvetica,sans-Serif" font-size="10.00">+</text>
<text text-anchor="start" x="489.63" y="-721.25" font-family="Helvetica,sans-Serif" font-size="10.00">SourceBuffer</text>
<text text-anchor="start" x="474.63" y="-706.25" font-family="Helvetica,sans-Serif" font-size="10.00">+</text>
<text text-anchor="start" x="489.63" y="-706.25" font-family="Helvetica,sans-Serif" font-size="10.00">DestBuffer</text>
<text text-anchor="start" x="474.63" y="-691.25" font-family="Helvetica,sans-Serif" font-size="10.00">+</text>
<text text-anchor="start" x="489.63" y="-691.25" font-family="Helvetica,sans-Serif" font-size="10.00">AcmStreamHeader()</text>
<text text-anchor="start" x="474.63" y="-676.25" font-family="Helvetica,sans-Serif" font-size="10.00">+</text>
<text text-anchor="start" x="489.63" y="-676.25" font-family="Helvetica,sans-Serif" font-size="10.00">Reposition()</text>
<text text-anchor="start" x="474.63" y="-661.25" font-family="Helvetica,sans-Serif" font-size="10.00">+</text>
<text text-anchor="start" x="489.63" y="-661.25" font-family="Helvetica,sans-Serif" font-size="10.00">Convert()</text>
<text text-anchor="start" x="474.63" y="-646.25" font-family="Helvetica,sans-Serif" font-size="10.00">+</text>
<text text-anchor="start" x="489.63" y="-646.25" font-family="Helvetica,sans-Serif" font-size="10.00">Dispose()</text>
<text text-anchor="start" x="475" y="-631.25" font-family="Helvetica,sans-Serif" font-size="10.00">#</text>
<text text-anchor="start" x="489.63" y="-631.25" font-family="Helvetica,sans-Serif" font-size="10.00">Dispose()</text>
<text text-anchor="start" x="476.13" y="-616.25" font-family="Helvetica,sans-Serif" font-size="10.00">&#45;</text>
<text text-anchor="start" x="489.63" y="-616.25" font-family="Helvetica,sans-Serif" font-size="10.00">Prepare()</text>
<text text-anchor="start" x="476.13" y="-601.25" font-family="Helvetica,sans-Serif" font-size="10.00">&#45;</text>
<text text-anchor="start" x="489.63" y="-601.25" font-family="Helvetica,sans-Serif" font-size="10.00">Unprepare()</text>
<text text-anchor="start" x="476.13" y="-586.25" font-family="Helvetica,sans-Serif" font-size="10.00">&#45;</text>
<text text-anchor="start" x="489.63" y="-586.25" font-family="Helvetica,sans-Serif" font-size="10.00">~AcmStreamHeader()</text>
<polygon fill="#666666" stroke="#666666" points="465.63,-732.75 465.63,-732.75 598.63,-732.75 598.63,-732.75 465.63,-732.75"/>
<polygon fill="#666666" stroke="#666666" points="465.63,-702.75 465.63,-702.75 487.63,-702.75 487.63,-702.75 465.63,-702.75"/>
<polygon fill="#666666" stroke="#666666" points="487.63,-702.75 487.63,-702.75 598.63,-702.75 598.63,-702.75 487.63,-702.75"/>
<polygon fill="none" stroke="#666666" points="465.63,-580.75 465.63,-760.75 598.63,-760.75 598.63,-580.75 465.63,-580.75"/>
</a>
</g>
</g>
<!-- Node3&#45;&gt;Node6 -->
<g id="edge7_Node000006_Node000003" class="edge">
<title>Node3&#45;&gt;Node6</title>
<g id="a_edge7_Node000006_Node000003"><a xlink:title=" ">
<path fill="none" stroke="#63b8ff" d="M404.01,-939.74C411.58,-933.32 418.11,-927.27 421.13,-923.25 457.88,-874.3 485.67,-811.28 504.25,-760.57"/>
<polygon fill="none" stroke="#63b8ff" points="402.15,-936.74 396.68,-945.82 406.61,-942.13 402.15,-936.74"/>
</a>
</g>
</g>
<!-- Node4&#45;&gt;Node1 -->
<g id="edge3_Node000001_Node000004" class="edge">
<title>Node4&#45;&gt;Node1</title>
<g id="a_edge3_Node000001_Node000004"><a xlink:title=" ">
<path fill="none" stroke="#63b8ff" d="M406.93,-156.34C404.25,-144.47 401.59,-132.69 399.08,-121.59"/>
<polygon fill="none" stroke="#63b8ff" points="399.05,-121.5 393.83,-116.53 396.41,-109.8 401.63,-114.77 399.05,-121.5"/>
</a>
</g>
<text text-anchor="middle" x="445.5" y="-128.75" font-family="Helvetica,sans-Serif" font-size="10.00" fill="grey"> &#45;conversionStream</text>
</g>
<!-- Node5 -->
<g id="Node000005" class="node">
<title>Node5</title>
<g id="a_Node000005"><a xlink:title=" ">
<polygon fill="white" stroke="none" points="673.13,-1142.5 639.13,-1142.5 639.13,-1093.5 673.13,-1093.5 673.13,-1142.5"/>
<text text-anchor="start" x="644.13" y="-1129" font-family="Helvetica,sans-Serif" font-size="10.00">IntPtr</text>
<text text-anchor="start" x="654.63" y="-1114" font-family="Helvetica,sans-Serif" font-size="10.00"> </text>
<text text-anchor="start" x="654.63" y="-1099" font-family="Helvetica,sans-Serif" font-size="10.00"> </text>
<polygon fill="#666666" stroke="#666666" points="639.13,-1125.5 639.13,-1125.5 673.13,-1125.5 673.13,-1125.5 639.13,-1125.5"/>
<polygon fill="#666666" stroke="#666666" points="639.13,-1110.5 639.13,-1110.5 673.13,-1110.5 673.13,-1110.5 639.13,-1110.5"/>
<polygon fill="none" stroke="#666666" points="639.13,-1093.5 639.13,-1142.5 673.13,-1142.5 673.13,-1093.5 639.13,-1093.5"/>
</a>
</g>
</g>
<!-- Node5&#45;&gt;Node4 -->
<g id="edge5_Node000004_Node000005" class="edge">
<title>Node5&#45;&gt;Node4</title>
<g id="a_edge5_Node000004_Node000005"><a xlink:title=" ">
<path fill="none" stroke="#63b8ff" d="M670.73,-1093.71C683.99,-1071.07 702.59,-1035.24 710.13,-1001.25 715.9,-975.22 713.03,-967.76 710.13,-941.25 687.33,-733.08 691.35,-673.41 608.13,-481.25 584.93,-427.68 543.77,-377.06 507.09,-338.78"/>
<polygon fill="none" stroke="#63b8ff" points="507.37,-339.06 500.31,-337.55 499,-330.46 506.05,-331.97 507.37,-339.06"/>
</a>
</g>
<text text-anchor="middle" x="739" y="-902.5" font-family="Helvetica,sans-Serif" font-size="10.00" fill="grey"> &#45;driverHandle</text>
<text text-anchor="middle" x="739" y="-891.25" font-family="Helvetica,sans-Serif" font-size="10.00" fill="grey">&#45;streamHandle</text>
</g>
<!-- Node5&#45;&gt;Node6 -->
<g id="edge13_Node000006_Node000005" class="edge">
<title>Node5&#45;&gt;Node6</title>
<g id="a_edge13_Node000006_Node000005"><a xlink:title=" ">
<path fill="none" stroke="#63b8ff" d="M652.83,-1093.69C650.01,-1073.88 645.85,-1044.7 642.13,-1019.25 632.97,-956.56 638.48,-939.19 621.13,-878.25 611.02,-842.73 596.22,-805.27 581.59,-772.14"/>
<polygon fill="none" stroke="#63b8ff" points="581.7,-772.39 575.6,-768.55 576.8,-761.44 582.9,-765.28 581.7,-772.39"/>
</a>
</g>
<text text-anchor="middle" x="672.5" y="-967.38" font-family="Helvetica,sans-Serif" font-size="10.00" fill="grey"> &#45;streamHandle</text>
</g>
<!-- Node7 -->
<g id="Node000007" class="node">
<title>Node7</title>
<g id="a_Node000007"><a xlink:href="class_n_audio_1_1_wave_1_1_compression_1_1_acm_stream_header_struct.html" target="_top" xlink:title="Interop structure for ACM stream headers. ACMSTREAMHEADER http://msdn.microsoft.com/en&#45;us/library/dd7...">
<polygon fill="white" stroke="none" points="619.63,-1001.25 486.63,-1001.25 486.63,-941.25 619.63,-941.25 619.63,-1001.25"/>
<text text-anchor="start" x="491.25" y="-987.75" font-family="Helvetica,sans-Serif" font-size="10.00">NAudio.Wave.Compression.</text>
<text text-anchor="start" x="498.38" y="-976.5" font-family="Helvetica,sans-Serif" font-size="10.00">AcmStreamHeaderStruct</text>
<text text-anchor="start" x="551.63" y="-961.75" font-family="Helvetica,sans-Serif" font-size="10.00"> </text>
<text text-anchor="start" x="551.63" y="-946.75" font-family="Helvetica,sans-Serif" font-size="10.00"> </text>
<polygon fill="#666666" stroke="#666666" points="486.63,-973.25 486.63,-973.25 619.63,-973.25 619.63,-973.25 486.63,-973.25"/>
<polygon fill="#666666" stroke="#666666" points="486.63,-958.25 486.63,-958.25 619.63,-958.25 619.63,-958.25 486.63,-958.25"/>
<polygon fill="none" stroke="#666666" points="486.63,-941.25 486.63,-1001.25 619.63,-1001.25 619.63,-941.25 486.63,-941.25"/>
</a>
</g>
</g>
<!-- Node5&#45;&gt;Node7 -->
<g id="edge11_Node000007_Node000005" class="edge">
<title>Node5&#45;&gt;Node7</title>
<g id="a_edge11_Node000007_Node000005"><a xlink:title=" ">
<path fill="none" stroke="#63b8ff" d="M639.32,-1116.02C614.84,-1113.59 570.09,-1105.1 549.88,-1075.5 537.76,-1057.76 537.7,-1034.02 541.05,-1013.78"/>
<polygon fill="none" stroke="#63b8ff" points="541.07,-1013.72 538.36,-1007.04 543.48,-1001.96 546.19,-1008.65 541.07,-1013.72"/>
</a>
</g>
<text text-anchor="middle" x="595.25" y="-1066" font-family="Helvetica,sans-Serif" font-size="10.00" fill="grey"> +destBufferPointer</text>
<text text-anchor="middle" x="595.25" y="-1054.75" font-family="Helvetica,sans-Serif" font-size="10.00" fill="grey">+destUserData</text>
<text text-anchor="middle" x="595.25" y="-1043.5" font-family="Helvetica,sans-Serif" font-size="10.00" fill="grey">+sourceBufferPointer</text>
<text text-anchor="middle" x="595.25" y="-1032.25" font-family="Helvetica,sans-Serif" font-size="10.00" fill="grey">+sourceUserData</text>
<text text-anchor="middle" x="595.25" y="-1021" font-family="Helvetica,sans-Serif" font-size="10.00" fill="grey">+userData</text>
</g>
<!-- Node6&#45;&gt;Node4 -->
<g id="edge6_Node000004_Node000006" class="edge">
<title>Node6&#45;&gt;Node4</title>
<g id="a_edge6_Node000004_Node000006"><a xlink:title=" ">
<path fill="none" stroke="#63b8ff" d="M509.94,-580.98C496.15,-525.85 478.24,-454.2 463.08,-393.54"/>
<polygon fill="none" stroke="#63b8ff" points="463.11,-393.69 457.78,-388.84 460.2,-382.05 465.54,-386.9 463.11,-393.69"/>
</a>
</g>
<text text-anchor="middle" x="513.88" y="-427.38" font-family="Helvetica,sans-Serif" font-size="10.00" fill="grey"> &#45;streamHeader</text>
</g>
<!-- Node7&#45;&gt;Node6 -->
<g id="edge8_Node000006_Node000007" class="edge">
<title>Node7&#45;&gt;Node6</title>
<g id="a_edge8_Node000006_Node000007"><a xlink:title=" ">
<path fill="none" stroke="#63b8ff" d="M551.1,-941.36C548.38,-902.78 543.43,-832.44 539.27,-773.28"/>
<polygon fill="none" stroke="#63b8ff" points="539.27,-773.33 534.86,-767.62 538.43,-761.36 542.84,-767.06 539.27,-773.33"/>
</a>
</g>
<text text-anchor="middle" x="582.88" y="-896.88" font-family="Helvetica,sans-Serif" font-size="10.00" fill="grey"> &#45;streamHeader</text>
</g>
<!-- Node8 -->
<g id="Node000008" class="node">
<title>Node8</title>
<g id="a_Node000008"><a xlink:title=" ">
<polygon fill="white" stroke="none" points="97.13,-1142.5 77.13,-1142.5 77.13,-1093.5 97.13,-1093.5 97.13,-1142.5"/>
<text text-anchor="start" x="81.88" y="-1129" font-family="Helvetica,sans-Serif" font-size="10.00">int</text>
<text text-anchor="start" x="85.63" y="-1114" font-family="Helvetica,sans-Serif" font-size="10.00"> </text>
<text text-anchor="start" x="85.63" y="-1099" font-family="Helvetica,sans-Serif" font-size="10.00"> </text>
<polygon fill="#666666" stroke="#666666" points="77.13,-1125.5 77.13,-1125.5 97.13,-1125.5 97.13,-1125.5 77.13,-1125.5"/>
<polygon fill="#666666" stroke="#666666" points="77.13,-1110.5 77.13,-1110.5 97.13,-1110.5 97.13,-1110.5 77.13,-1110.5"/>
<polygon fill="none" stroke="#666666" points="77.13,-1093.5 77.13,-1142.5 97.13,-1142.5 97.13,-1093.5 77.13,-1093.5"/>
</a>
</g>
</g>
<!-- Node8&#45;&gt;Node7 -->
<g id="edge9_Node000007_Node000008" class="edge">
<title>Node8&#45;&gt;Node7</title>
<g id="a_edge9_Node000007_Node000008"><a xlink:title=" ">
<path fill="none" stroke="#63b8ff" d="M96.75,-1112.46C130.3,-1096.83 245.51,-1044.8 346.13,-1019.25 399.31,-1005.74 417.75,-1014.47 474.06,-1001.66"/>
<polygon fill="none" stroke="#63b8ff" points="474.14,-1001.64 479.03,-996.34 485.8,-998.8 480.92,-1004.11 474.14,-1001.64"/>
</a>
</g>
<text text-anchor="middle" x="403.13" y="-1066" font-family="Helvetica,sans-Serif" font-size="10.00" fill="grey"> +cbStruct</text>
<text text-anchor="middle" x="403.13" y="-1054.75" font-family="Helvetica,sans-Serif" font-size="10.00" fill="grey">+destBufferLength</text>
<text text-anchor="middle" x="403.13" y="-1043.5" font-family="Helvetica,sans-Serif" font-size="10.00" fill="grey">+destBufferLengthUsed</text>
<text text-anchor="middle" x="403.13" y="-1032.25" font-family="Helvetica,sans-Serif" font-size="10.00" fill="grey">+sourceBufferLength</text>
<text text-anchor="middle" x="403.13" y="-1021" font-family="Helvetica,sans-Serif" font-size="10.00" fill="grey">+sourceBufferLengthUsed</text>
</g>
<!-- Node12 -->
<g id="Node000012" class="node">
<title>Node12</title>
<g id="a_Node000012"><a xlink:href="class_n_audio_1_1_wave_1_1_wave_format.html" target="_top" xlink:title="Represents a Wave file format.">
<polygon fill="white" stroke="none" points="251.63,-860.25 102.63,-860.25 102.63,-481.25 251.63,-481.25 251.63,-860.25"/>
<text text-anchor="start" x="117.88" y="-846.75" font-family="Helvetica,sans-Serif" font-size="10.00">NAudio.Wave.WaveFormat</text>
<text text-anchor="start" x="106.63" y="-831.75" font-family="Helvetica,sans-Serif" font-size="10.00">+</text>
<text text-anchor="start" x="116.63" y="-831.75" font-family="Helvetica,sans-Serif" font-size="10.00">Encoding</text>
<text text-anchor="start" x="106.63" y="-816.75" font-family="Helvetica,sans-Serif" font-size="10.00">+</text>
<text text-anchor="start" x="116.63" y="-816.75" font-family="Helvetica,sans-Serif" font-size="10.00">Channels</text>
<text text-anchor="start" x="106.63" y="-801.75" font-family="Helvetica,sans-Serif" font-size="10.00">+</text>
<text text-anchor="start" x="116.63" y="-801.75" font-family="Helvetica,sans-Serif" font-size="10.00">SampleRate</text>
<text text-anchor="start" x="106.63" y="-786.75" font-family="Helvetica,sans-Serif" font-size="10.00">+</text>
<text text-anchor="start" x="116.63" y="-786.75" font-family="Helvetica,sans-Serif" font-size="10.00">AverageBytesPerSecond</text>
<text text-anchor="start" x="106.63" y="-771.75" font-family="Helvetica,sans-Serif" font-size="10.00">+</text>
<text text-anchor="start" x="116.63" y="-771.75" font-family="Helvetica,sans-Serif" font-size="10.00">BlockAlign</text>
<text text-anchor="start" x="106.63" y="-756.75" font-family="Helvetica,sans-Serif" font-size="10.00">+</text>
<text text-anchor="start" x="116.63" y="-756.75" font-family="Helvetica,sans-Serif" font-size="10.00">BitsPerSample</text>
<text text-anchor="start" x="106.63" y="-741.75" font-family="Helvetica,sans-Serif" font-size="10.00">+</text>
<text text-anchor="start" x="116.63" y="-741.75" font-family="Helvetica,sans-Serif" font-size="10.00">ExtraSize</text>
<text text-anchor="start" x="106.63" y="-726.75" font-family="Helvetica,sans-Serif" font-size="10.00">+</text>
<text text-anchor="start" x="116.63" y="-726.75" font-family="Helvetica,sans-Serif" font-size="10.00">WaveFormat()</text>
<text text-anchor="start" x="106.63" y="-711.75" font-family="Helvetica,sans-Serif" font-size="10.00">+</text>
<text text-anchor="start" x="116.63" y="-711.75" font-family="Helvetica,sans-Serif" font-size="10.00">WaveFormat()</text>
<text text-anchor="start" x="106.63" y="-696.75" font-family="Helvetica,sans-Serif" font-size="10.00">+</text>
<text text-anchor="start" x="116.63" y="-696.75" font-family="Helvetica,sans-Serif" font-size="10.00">ConvertLatencyToByteSize()</text>
<text text-anchor="start" x="106.63" y="-681.75" font-family="Helvetica,sans-Serif" font-size="10.00">+</text>
<text text-anchor="start" x="116.63" y="-681.75" font-family="Helvetica,sans-Serif" font-size="10.00">WaveFormat()</text>
<text text-anchor="start" x="106.63" y="-666.75" font-family="Helvetica,sans-Serif" font-size="10.00">+</text>
<text text-anchor="start" x="116.63" y="-666.75" font-family="Helvetica,sans-Serif" font-size="10.00">WaveFormat()</text>
<text text-anchor="start" x="106.63" y="-651.75" font-family="Helvetica,sans-Serif" font-size="10.00">+</text>
<text text-anchor="start" x="116.63" y="-651.75" font-family="Helvetica,sans-Serif" font-size="10.00">ToString()</text>
<text text-anchor="start" x="106.63" y="-636.75" font-family="Helvetica,sans-Serif" font-size="10.00">+</text>
<text text-anchor="start" x="116.63" y="-636.75" font-family="Helvetica,sans-Serif" font-size="10.00">Equals()</text>
<text text-anchor="start" x="106.63" y="-621.75" font-family="Helvetica,sans-Serif" font-size="10.00">+</text>
<text text-anchor="start" x="116.63" y="-621.75" font-family="Helvetica,sans-Serif" font-size="10.00">GetHashCode()</text>
<text text-anchor="start" x="106.63" y="-606.75" font-family="Helvetica,sans-Serif" font-size="10.00">+</text>
<text text-anchor="start" x="116.63" y="-606.75" font-family="Helvetica,sans-Serif" font-size="10.00">Serialize()</text>
<text text-anchor="start" x="106.63" y="-591.75" font-family="Helvetica,sans-Serif" font-size="10.00">+</text>
<text text-anchor="start" x="116.63" y="-591.75" font-family="Helvetica,sans-Serif" font-size="10.00">CreateCustomFormat()</text>
<text text-anchor="start" x="106.63" y="-576.75" font-family="Helvetica,sans-Serif" font-size="10.00">+</text>
<text text-anchor="start" x="116.63" y="-576.75" font-family="Helvetica,sans-Serif" font-size="10.00">CreateALawFormat()</text>
<text text-anchor="start" x="106.63" y="-561.75" font-family="Helvetica,sans-Serif" font-size="10.00">+</text>
<text text-anchor="start" x="116.63" y="-561.75" font-family="Helvetica,sans-Serif" font-size="10.00">CreateMuLawFormat()</text>
<text text-anchor="start" x="106.63" y="-546.75" font-family="Helvetica,sans-Serif" font-size="10.00">+</text>
<text text-anchor="start" x="116.63" y="-546.75" font-family="Helvetica,sans-Serif" font-size="10.00">CreateIeeeFloatWaveFormat()</text>
<text text-anchor="start" x="106.63" y="-531.75" font-family="Helvetica,sans-Serif" font-size="10.00">+</text>
<text text-anchor="start" x="116.63" y="-531.75" font-family="Helvetica,sans-Serif" font-size="10.00">MarshalFromPtr()</text>
<text text-anchor="start" x="106.63" y="-516.75" font-family="Helvetica,sans-Serif" font-size="10.00">+</text>
<text text-anchor="start" x="116.63" y="-516.75" font-family="Helvetica,sans-Serif" font-size="10.00">MarshalToPtr()</text>
<text text-anchor="start" x="106.63" y="-501.75" font-family="Helvetica,sans-Serif" font-size="10.00">+</text>
<text text-anchor="start" x="116.63" y="-501.75" font-family="Helvetica,sans-Serif" font-size="10.00">FromFormatChunk()</text>
<text text-anchor="start" x="108.13" y="-486.75" font-family="Helvetica,sans-Serif" font-size="10.00">&#45;</text>
<text text-anchor="start" x="116.63" y="-486.75" font-family="Helvetica,sans-Serif" font-size="10.00">ReadWaveFormat()</text>
<polygon fill="#666666" stroke="#666666" points="102.63,-843.25 102.63,-843.25 251.63,-843.25 251.63,-843.25 102.63,-843.25"/>
<polygon fill="#666666" stroke="#666666" points="102.63,-738.25 102.63,-738.25 114.63,-738.25 114.63,-738.25 102.63,-738.25"/>
<polygon fill="#666666" stroke="#666666" points="114.63,-738.25 114.63,-738.25 251.63,-738.25 251.63,-738.25 114.63,-738.25"/>
<polygon fill="none" stroke="#666666" points="102.63,-481.25 102.63,-860.25 251.63,-860.25 251.63,-481.25 102.63,-481.25"/>
</a>
</g>
</g>
<!-- Node8&#45;&gt;Node12 -->
<g id="edge18_Node000012_Node000008" class="edge">
<title>Node8&#45;&gt;Node12</title>
<g id="a_edge18_Node000012_Node000008"><a xlink:title=" ">
<path fill="none" stroke="#63b8ff" d="M77.38,-1107.63C59.09,-1089.28 20.15,-1046.43 5.88,-1001.25 -2.16,-975.82 -1.57,-966.86 5.88,-941.25 23.76,-879.76 60.38,-818.88 95.18,-770.59"/>
<polygon fill="none" stroke="#63b8ff" points="95.19,-770.58 95.5,-763.38 102.27,-760.9 101.96,-768.1 95.19,-770.58"/>
</a>
</g>
<text text-anchor="middle" x="64.25" y="-973" font-family="Helvetica,sans-Serif" font-size="10.00" fill="grey"> #averageBytesPerSecond</text>
<text text-anchor="middle" x="64.25" y="-961.75" font-family="Helvetica,sans-Serif" font-size="10.00" fill="grey">#sampleRate</text>
</g>
<!-- Node9 -->
<g id="Node000009" class="node">
<title>Node9</title>
<g id="a_Node000009"><a xlink:title=" ">
<polygon fill="white" stroke="none" points="545.63,-1142.5 400.63,-1142.5 400.63,-1093.5 545.63,-1093.5 545.63,-1142.5"/>
<text text-anchor="start" x="405.25" y="-1129" font-family="Helvetica,sans-Serif" font-size="10.00">AcmStreamHeaderStatusFlags</text>
<text text-anchor="start" x="471.63" y="-1114" font-family="Helvetica,sans-Serif" font-size="10.00"> </text>
<text text-anchor="start" x="471.63" y="-1099" font-family="Helvetica,sans-Serif" font-size="10.00"> </text>
<polygon fill="#666666" stroke="#666666" points="400.63,-1125.5 400.63,-1125.5 545.63,-1125.5 545.63,-1125.5 400.63,-1125.5"/>
<polygon fill="#666666" stroke="#666666" points="400.63,-1110.5 400.63,-1110.5 545.63,-1110.5 545.63,-1110.5 400.63,-1110.5"/>
<polygon fill="none" stroke="#666666" points="400.63,-1093.5 400.63,-1142.5 545.63,-1142.5 545.63,-1093.5 400.63,-1093.5"/>
</a>
</g>
</g>
<!-- Node9&#45;&gt;Node7 -->
<g id="edge10_Node000007_Node000009" class="edge">
<title>Node9&#45;&gt;Node7</title>
<g id="a_edge10_Node000007_Node000009"><a xlink:title=" ">
<path fill="none" stroke="#63b8ff" d="M467.19,-1093.6C463.23,-1072.68 460.86,-1041.91 473.88,-1019.25 475.75,-1016 477.94,-1012.95 480.37,-1010.09"/>
<polygon fill="none" stroke="#63b8ff" points="480.31,-1010.15 481.78,-1003.09 488.87,-1001.73 487.4,-1008.79 480.31,-1010.15"/>
</a>
</g>
<text text-anchor="middle" x="500.75" y="-1043.5" font-family="Helvetica,sans-Serif" font-size="10.00" fill="grey"> +fdwStatus</text>
</g>
<!-- Node10 -->
<g id="Node000010" class="node">
<title>Node10</title>
<g id="a_Node000010"><a xlink:title=" ">
<polygon fill="white" stroke="none" points="468.63,-995.75 413.63,-995.75 413.63,-946.75 468.63,-946.75 468.63,-995.75"/>
<text text-anchor="start" x="418.25" y="-982.25" font-family="Helvetica,sans-Serif" font-size="10.00">GCHandle</text>
<text text-anchor="start" x="439.63" y="-967.25" font-family="Helvetica,sans-Serif" font-size="10.00"> </text>
<text text-anchor="start" x="439.63" y="-952.25" font-family="Helvetica,sans-Serif" font-size="10.00"> </text>
<polygon fill="#666666" stroke="#666666" points="413.63,-978.75 413.63,-978.75 468.63,-978.75 468.63,-978.75 413.63,-978.75"/>
<polygon fill="#666666" stroke="#666666" points="413.63,-963.75 413.63,-963.75 468.63,-963.75 468.63,-963.75 413.63,-963.75"/>
<polygon fill="none" stroke="#666666" points="413.63,-946.75 413.63,-995.75 468.63,-995.75 468.63,-946.75 413.63,-946.75"/>
</a>
</g>
</g>
<!-- Node10&#45;&gt;Node6 -->
<g id="edge12_Node000006_Node000010" class="edge">
<title>Node10&#45;&gt;Node6</title>
<g id="a_edge12_Node000006_Node000010"><a xlink:title=" ">
<path fill="none" stroke="#63b8ff" d="M448.27,-946.83C459.6,-909.65 482.36,-834.99 501.32,-772.82"/>
<polygon fill="none" stroke="#63b8ff" points="501.29,-772.91 499.21,-766.01 504.79,-761.43 506.86,-768.34 501.29,-772.91"/>
</a>
</g>
<text text-anchor="middle" x="500.75" y="-902.5" font-family="Helvetica,sans-Serif" font-size="10.00" fill="grey"> &#45;hDestBuffer</text>
<text text-anchor="middle" x="500.75" y="-891.25" font-family="Helvetica,sans-Serif" font-size="10.00" fill="grey">&#45;hSourceBuffer</text>
</g>
<!-- Node11 -->
<g id="Node000011" class="node">
<title>Node11</title>
<g id="a_Node000011"><a xlink:title=" ">
<polygon fill="white" stroke="none" points="882.13,-995.75 854.13,-995.75 854.13,-946.75 882.13,-946.75 882.13,-995.75"/>
<text text-anchor="start" x="859.13" y="-982.25" font-family="Helvetica,sans-Serif" font-size="10.00">bool</text>
<text text-anchor="start" x="866.63" y="-967.25" font-family="Helvetica,sans-Serif" font-size="10.00"> </text>
<text text-anchor="start" x="866.63" y="-952.25" font-family="Helvetica,sans-Serif" font-size="10.00"> </text>
<polygon fill="#666666" stroke="#666666" points="854.13,-978.75 854.13,-978.75 882.13,-978.75 882.13,-978.75 854.13,-978.75"/>
<polygon fill="#666666" stroke="#666666" points="854.13,-963.75 854.13,-963.75 882.13,-963.75 882.13,-963.75 854.13,-963.75"/>
<polygon fill="none" stroke="#666666" points="854.13,-946.75 854.13,-995.75 882.13,-995.75 882.13,-946.75 854.13,-946.75"/>
</a>
</g>
</g>
<!-- Node11&#45;&gt;Node1 -->
<g id="edge20_Node000001_Node000011" class="edge">
<title>Node11&#45;&gt;Node1</title>
<g id="a_edge20_Node000001_Node000011"><a xlink:title=" ">
<path fill="none" stroke="#63b8ff" d="M877.65,-947.21C880.3,-939.7 882.81,-931.24 884.13,-923.25 887.4,-903.52 888.89,-897.67 884.13,-878.25 794.44,-512.48 744.25,-406.77 492.13,-127 489.18,-123.73 486.05,-120.54 482.78,-117.43"/>
<polygon fill="none" stroke="#63b8ff" points="482.88,-117.52 475.74,-116.51 473.92,-109.53 481.06,-110.54 482.88,-117.52"/>
</a>
</g>
<text text-anchor="middle" x="765.63" y="-427.38" font-family="Helvetica,sans-Serif" font-size="10.00" fill="grey"> &#45;disposed</text>
</g>
<!-- Node11&#45;&gt;Node6 -->
<g id="edge14_Node000006_Node000011" class="edge">
<title>Node11&#45;&gt;Node6</title>
<g id="a_edge14_Node000006_Node000011"><a xlink:title=" ">
<path fill="none" stroke="#63b8ff" d="M854.19,-948.47C849.29,-940.6 843.83,-931.61 839.13,-923.25 828.11,-903.68 830.72,-895.32 816.13,-878.25 757.37,-809.51 671.34,-751.1 609.39,-714.12"/>
<polygon fill="none" stroke="#63b8ff" points="609.61,-714.25 602.41,-714.65 599.27,-708.16 606.47,-707.76 609.61,-714.25"/>
</a>
</g>
<text text-anchor="middle" x="861.63" y="-902.5" font-family="Helvetica,sans-Serif" font-size="10.00" fill="grey"> &#45;disposed</text>
<text text-anchor="middle" x="861.63" y="-891.25" font-family="Helvetica,sans-Serif" font-size="10.00" fill="grey">&#45;firstTime</text>
</g>
<!-- Node12&#45;&gt;Node1 -->
<g id="edge19_Node000001_Node000012" class="edge">
<title>Node12&#45;&gt;Node1</title>
<g id="a_edge19_Node000001_Node000012"><a xlink:title=" ">
<path fill="none" stroke="#63b8ff" d="M174.52,-481.47C176.5,-453.72 179.83,-425.62 185.13,-399.25 207.94,-285.8 214.45,-252.54 278.63,-156.25 287.58,-142.81 298.62,-129.82 310.15,-117.89"/>
<polygon fill="none" stroke="#63b8ff" points="309.92,-118.11 311.33,-111.04 318.39,-109.61 316.99,-116.69 309.92,-118.11"/>
</a>
</g>
<text text-anchor="middle" x="306.88" y="-264.88" font-family="Helvetica,sans-Serif" font-size="10.00" fill="grey"> &#45;pcmFormat</text>
</g>
<!-- Node12&#45;&gt;Node4 -->
<g id="edge15_Node000004_Node000012" class="edge">
<title>Node12&#45;&gt;Node4</title>
<g id="a_edge15_Node000004_Node000012"><a xlink:title=" ">
<path fill="none" stroke="#63b8ff" d="M180.6,-481.34C184.17,-445.64 190.19,-414.64 200.13,-399.25 201.35,-397.36 287.47,-349.56 354.42,-312.58"/>
<polygon fill="none" stroke="#63b8ff" points="354.53,-312.51 357.85,-306.11 365.03,-306.71 361.71,-313.12 354.53,-312.51"/>
</a>
</g>
<text text-anchor="middle" x="233.13" y="-427.38" font-family="Helvetica,sans-Serif" font-size="10.00" fill="grey"> &#45;sourceFormat</text>
</g>
<!-- Node13 -->
<g id="Node000013" class="node">
<title>Node13</title>
<g id="a_Node000013"><a xlink:title=" ">
<polygon fill="white" stroke="none" points="237.13,-995.75 131.13,-995.75 131.13,-946.75 237.13,-946.75 237.13,-995.75"/>
<text text-anchor="start" x="136.13" y="-982.25" font-family="Helvetica,sans-Serif" font-size="10.00">WaveFormatEncoding</text>
<text text-anchor="start" x="182.63" y="-967.25" font-family="Helvetica,sans-Serif" font-size="10.00"> </text>
<text text-anchor="start" x="182.63" y="-952.25" font-family="Helvetica,sans-Serif" font-size="10.00"> </text>
<polygon fill="#666666" stroke="#666666" points="131.13,-978.75 131.13,-978.75 237.13,-978.75 237.13,-978.75 131.13,-978.75"/>
<polygon fill="#666666" stroke="#666666" points="131.13,-963.75 131.13,-963.75 237.13,-963.75 237.13,-963.75 131.13,-963.75"/>
<polygon fill="none" stroke="#666666" points="131.13,-946.75 131.13,-995.75 237.13,-995.75 237.13,-946.75 131.13,-946.75"/>
</a>
</g>
</g>
<!-- Node13&#45;&gt;Node12 -->
<g id="edge16_Node000012_Node000013" class="edge">
<title>Node13&#45;&gt;Node12</title>
<g id="a_edge16_Node000012_Node000013"><a xlink:title=" ">
<path fill="none" stroke="#63b8ff" d="M180.57,-946.88C179.58,-939.35 178.63,-930.97 178.13,-923.25 177.06,-906.93 176.28,-890.01 175.73,-873"/>
<polygon fill="none" stroke="#63b8ff" points="175.73,-872.88 171.56,-867 175.38,-860.89 179.55,-866.77 175.73,-872.88"/>
</a>
</g>
<text text-anchor="middle" x="217.13" y="-896.88" font-family="Helvetica,sans-Serif" font-size="10.00" fill="grey"> #waveFormatTag</text>
</g>
<!-- Node14 -->
<g id="Node000014" class="node">
<title>Node14</title>
<g id="a_Node000014"><a xlink:title=" ">
<polygon fill="white" stroke="none" points="293.63,-995.75 262.63,-995.75 262.63,-946.75 293.63,-946.75 293.63,-995.75"/>
<text text-anchor="start" x="267.25" y="-982.25" font-family="Helvetica,sans-Serif" font-size="10.00">short</text>
<text text-anchor="start" x="276.63" y="-967.25" font-family="Helvetica,sans-Serif" font-size="10.00"> </text>
<text text-anchor="start" x="276.63" y="-952.25" font-family="Helvetica,sans-Serif" font-size="10.00"> </text>
<polygon fill="#666666" stroke="#666666" points="262.63,-978.75 262.63,-978.75 293.63,-978.75 293.63,-978.75 262.63,-978.75"/>
<polygon fill="#666666" stroke="#666666" points="262.63,-963.75 262.63,-963.75 293.63,-963.75 293.63,-963.75 262.63,-963.75"/>
<polygon fill="none" stroke="#666666" points="262.63,-946.75 262.63,-995.75 293.63,-995.75 293.63,-946.75 262.63,-946.75"/>
</a>
</g>
</g>
<!-- Node14&#45;&gt;Node12 -->
<g id="edge17_Node000012_Node000014" class="edge">
<title>Node14&#45;&gt;Node12</title>
<g id="a_edge17_Node000012_Node000014"><a xlink:title=" ">
<path fill="none" stroke="#63b8ff" d="M273.44,-946.96C269.46,-928.22 263.26,-901.31 256.13,-878.25 255.52,-876.29 254.91,-874.33 254.29,-872.36"/>
<polygon fill="none" stroke="#63b8ff" points="254.32,-872.46 248.67,-867.98 250.64,-861.04 256.29,-865.52 254.32,-872.46"/>
</a>
</g>
<text text-anchor="middle" x="304.13" y="-913.75" font-family="Helvetica,sans-Serif" font-size="10.00" fill="grey"> #bitsPerSample</text>
<text text-anchor="middle" x="304.13" y="-902.5" font-family="Helvetica,sans-Serif" font-size="10.00" fill="grey">#blockAlign</text>
<text text-anchor="middle" x="304.13" y="-891.25" font-family="Helvetica,sans-Serif" font-size="10.00" fill="grey">#channels</text>
<text text-anchor="middle" x="304.13" y="-880" font-family="Helvetica,sans-Serif" font-size="10.00" fill="grey">#extraSize</text>
</g>
</g>
</svg>
