<?xml version="1.0" encoding="UTF-8" standalone="no"?>
<!DOCTYPE svg PUBLIC "-//W3C//DTD SVG 1.1//EN"
 "http://www.w3.org/Graphics/SVG/1.1/DTD/svg11.dtd">
<!-- Generated by graphviz version 10.0.1 (20240210.2158)
 -->
<!-- Title: NAudio.Wave.AiffFileWriter.CreateAiffFile Pages: 1 -->
<!--zoomable 144 -->

<svg id="main" version="1.1" xmlns="http://www.w3.org/2000/svg" xmlns:xlink="http://www.w3.org/1999/xlink" xml:space="preserve" onload="init(evt)">
<style type="text/css"><![CDATA[
.node, .edge {opacity: 0.7;}
.node.selected, .edge.selected {opacity: 1;}
.edge:hover path { stroke: red; }
.edge:hover polygon { stroke: red; fill: red; }
]]></style>

<defs>
  <circle id="rim" cx="0" cy="0" r="7"/>
  <circle id="rim2" cx="0" cy="0" r="3.5"/>
  <g id="zoomPlus">
    <use xlink:href="#rim" fill="#404040"><set attributeName="fill" to="#808080" begin="zoomplus.mouseover" end="zoomplus.mouseout"/></use>
    <path d="M-4,0h8M0,-4v8" fill="none" stroke="white" stroke-width="1.5" pointer-events="none"/>
  </g>
  <g id="zoomMin">
    <use xlink:href="#rim" fill="#404040"><set attributeName="fill" to="#808080" begin="zoomminus.mouseover" end="zoomminus.mouseout"/></use>
    <path d="M-4,0h8" fill="none" stroke="white" stroke-width="1.5" pointer-events="none"/>
  </g>
  <g id="arrowUp" transform="translate(30 24)">
    <use xlink:href="#rim"/>
    <path pointer-events="none" fill="none" stroke="white" stroke-width="1.5" d="M0,-3.0v7 M-2.5,-0.5L0,-3.0L2.5,-0.5"/>
  </g>
  <g id="arrowRight" transform="rotate(90) translate(36 -43)">
    <use xlink:href="#rim"/>
    <path pointer-events="none" fill="none" stroke="white" stroke-width="1.5" d="M0,-3.0v7 M-2.5,-0.5L0,-3.0L2.5,-0.5"/>
  </g>
  <g id="arrowDown" transform="rotate(180) translate(-30 -48)">
    <use xlink:href="#rim"/>
    <path pointer-events="none" fill="none" stroke="white" stroke-width="1.5" d="M0,-3.0v7 M-2.5,-0.5L0,-3.0L2.5,-0.5"/>
  </g>
  <g id="arrowLeft" transform="rotate(270) translate(-36 17)">
    <use xlink:href="#rim"/>
    <path pointer-events="none" fill="none" stroke="white" stroke-width="1.5" d="M0,-3.0v7 M-2.5,-0.5L0,-3.0L2.5,-0.5"/>
  </g>
  <g id="resetDef">
    <use xlink:href="#rim2" fill="#404040"><set attributeName="fill" to="#808080" begin="reset.mouseover" end="reset.mouseout"/></use>
  </g>
</defs>
<script type="application/ecmascript">
var viewWidth = 866;
var viewHeight = 144;
var sectionId = 'dynsection-5';
</script>
<script type="application/ecmascript" xlink:href="svg.min.js"/>
<svg id="graph" class="graph">
<g id="viewport">
<title>NAudio.Wave.AiffFileWriter.CreateAiffFile</title>
<!-- Node1 -->
<g id="Node000001" class="node">
<title>Node1</title>
<g id="a_Node000001"><a xlink:title="Creates an AIFF audio file from the provided WaveStream.">
<polygon fill="#999999" stroke="#666666" points="137.5,-45.88 0,-45.88 0,-15.37 137.5,-15.37 137.5,-45.88"/>
<text text-anchor="start" x="8" y="-32.38" font-family="Helvetica,sans-Serif" font-size="10.00">NAudio.Wave.AiffFileWriter.</text>
<text text-anchor="middle" x="68.75" y="-21.12" font-family="Helvetica,sans-Serif" font-size="10.00">CreateAiffFile</text>
</a>
</g>
</g>
<!-- Node2 -->
<g id="Node000002" class="node">
<title>Node2</title>
<g id="a_Node000002"><a xlink:href="class_n_audio_1_1_wave_1_1_aiff_file_writer.html#a38debf484e59f64adfcbf0bf57b6b5ec" target="_top" xlink:title="AiffFileWriter that actually writes to a stream.">
<polygon fill="white" stroke="#666666" points="326.38,-67.88 188.88,-67.88 188.88,-37.38 326.38,-37.38 326.38,-67.88"/>
<text text-anchor="start" x="196.88" y="-54.38" font-family="Helvetica,sans-Serif" font-size="10.00">NAudio.Wave.AiffFileWriter.</text>
<text text-anchor="middle" x="257.62" y="-43.12" font-family="Helvetica,sans-Serif" font-size="10.00">AiffFileWriter</text>
</a>
</g>
</g>
<!-- Node1&#45;&gt;Node2 -->
<g id="edge1_Node000001_Node000002" class="edge">
<title>Node1&#45;&gt;Node2</title>
<g id="a_edge1_Node000001_Node000002"><a xlink:title=" ">
<path fill="none" stroke="#63b8ff" d="M137.74,-38.63C150.58,-40.14 164.11,-41.73 177.25,-43.28"/>
<polygon fill="#63b8ff" stroke="#63b8ff" points="176.84,-46.76 187.18,-44.45 177.66,-39.8 176.84,-46.76"/>
</a>
</g>
</g>
<!-- Node10 -->
<g id="Node000010" class="node">
<title>Node10</title>
<g id="a_Node000010"><a xlink:href="interface_n_audio_1_1_wave_1_1_i_wave_provider.html#a1592be8cd7da05cc1a773b8d4ed979c0" target="_top" xlink:title="Fill the specified buffer with wave data.">
<polygon fill="white" stroke="#666666" points="341.75,-19.25 173.5,-19.25 173.5,0 341.75,0 341.75,-19.25"/>
<text text-anchor="middle" x="257.62" y="-5.75" font-family="Helvetica,sans-Serif" font-size="10.00">NAudio.Wave.IWaveProvider.Read</text>
</a>
</g>
</g>
<!-- Node1&#45;&gt;Node10 -->
<g id="edge10_Node000001_Node000010" class="edge">
<title>Node1&#45;&gt;Node10</title>
<g id="a_edge10_Node000001_Node000010"><a xlink:title=" ">
<path fill="none" stroke="#63b8ff" d="M137.74,-22.98C145.55,-22.11 153.61,-21.2 161.68,-20.29"/>
<polygon fill="#63b8ff" stroke="#63b8ff" points="162.03,-23.78 171.58,-19.18 161.25,-16.82 162.03,-23.78"/>
</a>
</g>
</g>
<!-- Node3 -->
<g id="Node000003" class="node">
<title>Node3</title>
<g id="a_Node000003"><a xlink:href="class_n_audio_1_1_wave_1_1_aiff_file_writer.html#aa4e2a77e28e7c0348c06d8b6150a5f21" target="_top" xlink:title="Creates a &#39;COMM&#39; chunk in the WAV file.">
<polygon fill="white" stroke="#666666" points="515.25,-92.88 377.75,-92.88 377.75,-62.38 515.25,-62.38 515.25,-92.88"/>
<text text-anchor="start" x="385.75" y="-79.38" font-family="Helvetica,sans-Serif" font-size="10.00">NAudio.Wave.AiffFileWriter.</text>
<text text-anchor="middle" x="446.5" y="-68.12" font-family="Helvetica,sans-Serif" font-size="10.00">CreateCommChunk</text>
</a>
</g>
</g>
<!-- Node2&#45;&gt;Node3 -->
<g id="edge2_Node000002_Node000003" class="edge">
<title>Node2&#45;&gt;Node3</title>
<g id="a_edge2_Node000002_Node000003"><a xlink:title=" ">
<path fill="none" stroke="#63b8ff" d="M326.62,-61.72C339.58,-63.46 353.25,-65.28 366.53,-67.06"/>
<polygon fill="#63b8ff" stroke="#63b8ff" points="365.68,-70.48 376.06,-68.33 366.61,-63.54 365.68,-70.48"/>
</a>
</g>
</g>
<!-- Node9 -->
<g id="Node000009" class="node">
<title>Node9</title>
<g id="a_Node000009"><a xlink:href="class_n_audio_1_1_wave_1_1_aiff_file_writer.html#a53b7a367eeb8f26c253b7b8bbb9f489b" target="_top" xlink:title="Writes the SSND chunk header to the output stream.">
<polygon fill="white" stroke="#666666" points="515.25,-43.88 377.75,-43.88 377.75,-13.37 515.25,-13.37 515.25,-43.88"/>
<text text-anchor="start" x="385.75" y="-30.38" font-family="Helvetica,sans-Serif" font-size="10.00">NAudio.Wave.AiffFileWriter.</text>
<text text-anchor="middle" x="446.5" y="-19.12" font-family="Helvetica,sans-Serif" font-size="10.00">WriteSsndChunkHeader</text>
</a>
</g>
</g>
<!-- Node2&#45;&gt;Node9 -->
<g id="edge8_Node000002_Node000009" class="edge">
<title>Node2&#45;&gt;Node9</title>
<g id="a_edge8_Node000002_Node000009"><a xlink:title=" ">
<path fill="none" stroke="#63b8ff" d="M326.62,-43.89C339.58,-42.23 353.25,-40.47 366.53,-38.77"/>
<polygon fill="#63b8ff" stroke="#63b8ff" points="366.58,-42.29 376.05,-37.54 365.69,-35.35 366.58,-42.29"/>
</a>
</g>
</g>
<!-- Node4 -->
<g id="Node000004" class="node">
<title>Node4</title>
<g id="a_Node000004"><a xlink:href="class_n_audio_1_1_utils_1_1_i_e_e_e.html#a5d1b37528c6a93f7bc6bf65c36fa1e3e" target="_top" xlink:title="Converts a double&#45;precision floating&#45;point number to its IEEE 754 extended precision representation.">
<polygon fill="white" stroke="#666666" points="687.62,-92.88 552.38,-92.88 552.38,-62.38 687.62,-62.38 687.62,-92.88"/>
<text text-anchor="start" x="560.38" y="-79.38" font-family="Helvetica,sans-Serif" font-size="10.00">NAudio.Utils.IEEE.Convert</text>
<text text-anchor="middle" x="620" y="-68.12" font-family="Helvetica,sans-Serif" font-size="10.00">ToIeeeExtended</text>
</a>
</g>
</g>
<!-- Node3&#45;&gt;Node4 -->
<g id="edge3_Node000003_Node000004" class="edge">
<title>Node3&#45;&gt;Node4</title>
<g id="a_edge3_Node000003_Node000004"><a xlink:title=" ">
<path fill="none" stroke="#63b8ff" d="M515.28,-77.62C523.58,-77.62 532.12,-77.62 540.57,-77.62"/>
<polygon fill="#63b8ff" stroke="#63b8ff" points="540.48,-81.13 550.48,-77.63 540.48,-74.13 540.48,-81.13"/>
</a>
</g>
</g>
<!-- Node8 -->
<g id="Node000008" class="node">
<title>Node8</title>
<g id="a_Node000008"><a xlink:href="class_n_audio_1_1_wave_1_1_aiff_file_writer.html#aa752886f7a9c0749b5d62c10cbed4e3c" target="_top" xlink:title="Swaps the endianness of the input integer and returns the result as a byte array.">
<polygon fill="white" stroke="#666666" points="688.75,-43.88 551.25,-43.88 551.25,-13.37 688.75,-13.37 688.75,-43.88"/>
<text text-anchor="start" x="559.25" y="-30.38" font-family="Helvetica,sans-Serif" font-size="10.00">NAudio.Wave.AiffFileWriter.</text>
<text text-anchor="middle" x="620" y="-19.12" font-family="Helvetica,sans-Serif" font-size="10.00">SwapEndian</text>
</a>
</g>
</g>
<!-- Node3&#45;&gt;Node8 -->
<g id="edge7_Node000003_Node000008" class="edge">
<title>Node3&#45;&gt;Node8</title>
<g id="a_edge7_Node000003_Node000008"><a xlink:title=" ">
<path fill="none" stroke="#63b8ff" d="M502.24,-61.99C518.4,-57.37 536.26,-52.26 553.05,-47.47"/>
<polygon fill="#63b8ff" stroke="#63b8ff" points="553.79,-50.9 562.45,-44.78 551.87,-44.16 553.79,-50.9"/>
</a>
</g>
</g>
<!-- Node5 -->
<g id="Node000005" class="node">
<title>Node5</title>
<g id="a_Node000005"><a xlink:href="class_n_audio_1_1_utils_1_1_i_e_e_e.html#acd9d9c5307c2b8226f36934ae3d38d4d" target="_top" xlink:title="Converts a floating&#45;point number to an unsigned long integer.">
<polygon fill="white" stroke="#666666" points="857.75,-135.88 724.75,-135.88 724.75,-105.38 857.75,-105.38 857.75,-135.88"/>
<text text-anchor="start" x="732.75" y="-122.38" font-family="Helvetica,sans-Serif" font-size="10.00">NAudio.Utils.IEEE.FloatTo</text>
<text text-anchor="middle" x="791.25" y="-111.12" font-family="Helvetica,sans-Serif" font-size="10.00">Unsigned</text>
</a>
</g>
</g>
<!-- Node4&#45;&gt;Node5 -->
<g id="edge4_Node000004_Node000005" class="edge">
<title>Node4&#45;&gt;Node5</title>
<g id="a_edge4_Node000004_Node000005"><a xlink:title=" ">
<path fill="none" stroke="#63b8ff" d="M682.58,-93.27C693.9,-96.15 705.81,-99.17 717.42,-102.12"/>
<polygon fill="#63b8ff" stroke="#63b8ff" points="716.41,-105.48 726.96,-104.55 718.13,-98.69 716.41,-105.48"/>
</a>
</g>
</g>
<!-- Node6 -->
<g id="Node000006" class="node">
<title>Node6</title>
<g id="a_Node000006"><a xlink:href="class_n_audio_1_1_utils_1_1_i_e_e_e.html#a29c46ad0fe2e6a53381f430342f06120" target="_top" xlink:title="Splits a double&#45;precision floating&#45;point value into a normalized fraction and an integral power of 2.">
<polygon fill="white" stroke="#666666" points="852.5,-87.25 730,-87.25 730,-68 852.5,-68 852.5,-87.25"/>
<text text-anchor="middle" x="791.25" y="-73.75" font-family="Helvetica,sans-Serif" font-size="10.00">NAudio.Utils.IEEE.frexp</text>
</a>
</g>
</g>
<!-- Node4&#45;&gt;Node6 -->
<g id="edge5_Node000004_Node000006" class="edge">
<title>Node4&#45;&gt;Node6</title>
<g id="a_edge5_Node000004_Node000006"><a xlink:title=" ">
<path fill="none" stroke="#63b8ff" d="M687.89,-77.62C697.89,-77.62 708.24,-77.62 718.35,-77.62"/>
<polygon fill="#63b8ff" stroke="#63b8ff" points="718.1,-81.13 728.1,-77.63 718.1,-74.13 718.1,-81.13"/>
</a>
</g>
</g>
<!-- Node7 -->
<g id="Node000007" class="node">
<title>Node7</title>
<g id="a_Node000007"><a xlink:href="class_n_audio_1_1_utils_1_1_i_e_e_e.html#a581705619f4fe799b9005f0a91e2cb6c" target="_top" xlink:title="Returns x multiplied by 2 raised to the power of exp.">
<polygon fill="white" stroke="#666666" points="853.25,-50.25 729.25,-50.25 729.25,-31 853.25,-31 853.25,-50.25"/>
<text text-anchor="middle" x="791.25" y="-36.75" font-family="Helvetica,sans-Serif" font-size="10.00">NAudio.Utils.IEEE.ldexp</text>
</a>
</g>
</g>
<!-- Node4&#45;&gt;Node7 -->
<g id="edge6_Node000004_Node000007" class="edge">
<title>Node4&#45;&gt;Node7</title>
<g id="a_edge6_Node000004_Node000007"><a xlink:title=" ">
<path fill="none" stroke="#63b8ff" d="M687.89,-63C702.91,-59.72 718.71,-56.26 733.29,-53.08"/>
<polygon fill="#63b8ff" stroke="#63b8ff" points="733.66,-56.58 742.68,-51.03 732.16,-49.74 733.66,-56.58"/>
</a>
</g>
</g>
<!-- Node9&#45;&gt;Node8 -->
<g id="edge9_Node000009_Node000008" class="edge">
<title>Node9&#45;&gt;Node8</title>
<g id="a_edge9_Node000009_Node000008"><a xlink:title=" ">
<path fill="none" stroke="#63b8ff" d="M515.28,-28.62C523.24,-28.62 531.41,-28.62 539.5,-28.62"/>
<polygon fill="#63b8ff" stroke="#63b8ff" points="539.35,-32.13 549.35,-28.63 539.35,-25.13 539.35,-32.13"/>
</a>
</g>
</g>
</g>
</svg>

<g id="navigator" transform="translate(0 0)" fill="#404254">
  <rect fill="#f2f5e9" fill-opacity="0.5" stroke="#606060" stroke-width=".5" x="0" y="0" width="60" height="60"/>
  <use id="zoomplus" xlink:href="#zoomPlus" x="17" y="9" onmousedown="handleZoom(evt,'in')"/>
  <use id="zoomminus" xlink:href="#zoomMin" x="42" y="9" onmousedown="handleZoom(evt,'out')"/>
  <use id="reset" xlink:href="#resetDef" x="30" y="36" onmousedown="handleReset()"/>
   <use id="arrowup" xlink:href="#arrowUp" x="0" y="0" onmousedown="handlePan(0,-1)"/>
  <use id="arrowright" xlink:href="#arrowRight" x="0" y="0" onmousedown="handlePan(1,0)"/>
  <use id="arrowdown" xlink:href="#arrowDown" x="0" y="0" onmousedown="handlePan(0,1)"/>
  <use id="arrowleft" xlink:href="#arrowLeft" x="0" y="0" onmousedown="handlePan(-1,0)"/>
</g>
<svg viewBox="0 0 15 15" width="100%" height="30px" preserveAspectRatio="xMaxYMin meet">
 <g id="arrow_out" transform="scale(0.3 0.3)">
  <a xlink:href="class_n_audio_1_1_wave_1_1_aiff_file_writer_ac0f55bd7ae4da4df57bd11fc1dab79fb_cgraph_org.svg" target="_base">
   <rect id="button" ry="5" rx="5" y="6" x="6" height="38" width="38"
        fill="#f2f5e9" fill-opacity="0.5" stroke="#606060" stroke-width="1.0"/>
   <path id="arrow"
     d="M 11.500037,31.436501 C 11.940474,20.09759 22.043105,11.32322 32.158766,21.979434 L 37.068811,17.246167 C 37.068811,17.246167 37.088388,32 37.088388,32 L 22.160133,31.978069 C 22.160133,31.978069 26.997745,27.140456 26.997745,27.140456 C 18.528582,18.264221 13.291696,25.230495 11.500037,31.436501 z"
     style="fill:#404040;"/>
  </a>
 </g>
</svg>

<style type='text/css'>
<![CDATA[
[data-mouse-over-selected='false'] { opacity: 0.7; }
[data-mouse-over-selected='true']  { opacity: 1.0; }
]]>
</style>
<script type="application/ecmascript"><![CDATA[
document.addEventListener('DOMContentLoaded', (event) => {
  highlightEdges();
  highlightAdjacentNodes();
});
]]></script>
</svg>
