<?xml version="1.0" encoding="UTF-8" standalone="no"?>
<!DOCTYPE svg PUBLIC "-//W3C//DTD SVG 1.1//EN"
 "http://www.w3.org/Graphics/SVG/1.1/DTD/svg11.dtd">
<!-- Generated by graphviz version 10.0.1 (20240210.2158)
 -->
<!-- Title: NAudio.Wave.WaveFormat.MarshalToPtr Pages: 1 -->
<svg width="638pt" height="210pt"
 viewBox="0.00 0.00 638.00 209.50" xmlns="http://www.w3.org/2000/svg" xmlns:xlink="http://www.w3.org/1999/xlink">
<g id="graph0" class="graph" transform="scale(1 1) rotate(0) translate(4 205.5)">
<title>NAudio.Wave.WaveFormat.MarshalToPtr</title>
<!-- Node1 -->
<g id="Node000001" class="node">
<title>Node1</title>
<g id="a_Node000001"><a xlink:title="Marshals the WaveFormat structure to a pointer.">
<polygon fill="#999999" stroke="#666666" points="630,-127.5 458,-127.5 458,-97 630,-97 630,-127.5"/>
<text text-anchor="start" x="466" y="-114" font-family="Helvetica,sans-Serif" font-size="10.00">NAudio.Wave.WaveFormat.Marshal</text>
<text text-anchor="middle" x="544" y="-102.75" font-family="Helvetica,sans-Serif" font-size="10.00">ToPtr</text>
</a>
</g>
</g>
<!-- Node2 -->
<g id="Node000002" class="node">
<title>Node2</title>
<g id="a_Node000002"><a xlink:href="class_n_audio_1_1_wave_1_1_compression_1_1_acm_stream.html#a809f3ad304af60f6b601c319ae6c4afc" target="_top" xlink:title="Creates a new ACM stream to convert one format to another, using a specified driver identifier and wa...">
<polygon fill="white" stroke="#666666" points="404.75,-201.5 265,-201.5 265,-171 404.75,-171 404.75,-201.5"/>
<text text-anchor="start" x="273" y="-188" font-family="Helvetica,sans-Serif" font-size="10.00">NAudio.Wave.Compression.</text>
<text text-anchor="middle" x="334.88" y="-176.75" font-family="Helvetica,sans-Serif" font-size="10.00">AcmStream.AcmStream</text>
</a>
</g>
</g>
<!-- Node1&#45;&gt;Node2 -->
<g id="edge1_Node000001_Node000002" class="edge">
<title>Node1&#45;&gt;Node2</title>
<g id="a_edge1_Node000001_Node000002"><a xlink:title=" ">
<path fill="none" stroke="#63b8ff" d="M496.56,-132.35C474.22,-141.69 446.94,-152.61 422,-161.25 412.73,-164.46 402.81,-167.61 393.12,-170.52"/>
<polygon fill="#63b8ff" stroke="#63b8ff" points="497.85,-135.61 505.7,-128.5 495.13,-129.16 497.85,-135.61"/>
</a>
</g>
</g>
<!-- Node3 -->
<g id="Node000003" class="node">
<title>Node3</title>
<g id="a_Node000003"><a xlink:href="class_n_audio_1_1_wave_1_1_compression_1_1_acm_stream.html#a63db5a6e10bee35b5796bf199cc5e203" target="_top" xlink:title="Creates a new ACM stream to convert one format to another. Note that not all conversions can be done ...">
<polygon fill="white" stroke="#666666" points="404.75,-152.5 265,-152.5 265,-122 404.75,-122 404.75,-152.5"/>
<text text-anchor="start" x="273" y="-139" font-family="Helvetica,sans-Serif" font-size="10.00">NAudio.Wave.Compression.</text>
<text text-anchor="middle" x="334.88" y="-127.75" font-family="Helvetica,sans-Serif" font-size="10.00">AcmStream.AcmStream</text>
</a>
</g>
</g>
<!-- Node1&#45;&gt;Node3 -->
<g id="edge2_Node000001_Node000003" class="edge">
<title>Node1&#45;&gt;Node3</title>
<g id="a_edge2_Node000001_Node000003"><a xlink:title=" ">
<path fill="none" stroke="#63b8ff" d="M446.41,-123.91C432.44,-125.59 418.3,-127.3 405.02,-128.9"/>
<polygon fill="#63b8ff" stroke="#63b8ff" points="446.55,-127.42 456.06,-122.74 445.71,-120.47 446.55,-127.42"/>
</a>
</g>
</g>
<!-- Node4 -->
<g id="Node000004" class="node">
<title>Node4</title>
<g id="a_Node000004"><a xlink:href="class_n_audio_1_1_wave_1_1_wave_format_custom_marshaler.html#a32e10256f22b4aed730563e14d6f657e" target="_top" xlink:title="Marshals a managed object to its native representation.">
<polygon fill="white" stroke="#666666" points="422,-103.5 247.75,-103.5 247.75,-73 422,-73 422,-103.5"/>
<text text-anchor="start" x="255.75" y="-90" font-family="Helvetica,sans-Serif" font-size="10.00">NAudio.Wave.WaveFormatCustom</text>
<text text-anchor="middle" x="334.88" y="-78.75" font-family="Helvetica,sans-Serif" font-size="10.00">Marshaler.MarshalManagedToNative</text>
</a>
</g>
</g>
<!-- Node1&#45;&gt;Node4 -->
<g id="edge3_Node000001_Node000004" class="edge">
<title>Node1&#45;&gt;Node4</title>
<g id="a_edge3_Node000001_Node000004"><a xlink:title=" ">
<path fill="none" stroke="#63b8ff" d="M446.35,-101.05C438.37,-100.13 430.35,-99.2 422.46,-98.28"/>
<polygon fill="#63b8ff" stroke="#63b8ff" points="445.72,-104.5 456.06,-102.18 446.52,-97.55 445.72,-104.5"/>
</a>
</g>
</g>
<!-- Node5 -->
<g id="Node000005" class="node">
<title>Node5</title>
<g id="a_Node000005"><a xlink:href="class_n_audio_1_1_wave_1_1_compression_1_1_acm_stream.html#a8560106a6c931d00eca5a850b6cb8fb7" target="_top" xlink:title="Suggests a PCM format based on the given compressed format.">
<polygon fill="white" stroke="#666666" points="413.75,-54.5 256,-54.5 256,-24 413.75,-24 413.75,-54.5"/>
<text text-anchor="start" x="264" y="-41" font-family="Helvetica,sans-Serif" font-size="10.00">NAudio.Wave.Compression.</text>
<text text-anchor="middle" x="334.88" y="-29.75" font-family="Helvetica,sans-Serif" font-size="10.00">AcmStream.SuggestPcmFormat</text>
</a>
</g>
</g>
<!-- Node1&#45;&gt;Node5 -->
<g id="edge4_Node000001_Node000005" class="edge">
<title>Node1&#45;&gt;Node5</title>
<g id="a_edge4_Node000001_Node000005"><a xlink:title=" ">
<path fill="none" stroke="#63b8ff" d="M495.53,-92.21C473.37,-83.17 446.53,-72.65 422,-64.25 412.57,-61.02 402.48,-57.84 392.64,-54.89"/>
<polygon fill="#63b8ff" stroke="#63b8ff" points="494.02,-95.37 504.6,-95.94 496.69,-88.9 494.02,-95.37"/>
</a>
</g>
</g>
<!-- Node6 -->
<g id="Node000006" class="node">
<title>Node6</title>
<g id="a_Node000006"><a xlink:href="class_n_audio_1_1_wave_1_1_acm_mp3_frame_decompressor.html#ad3e5eb993d92babbfe51b30952e086bf" target="_top" xlink:title="Creates a new ACM frame decompressor.">
<polygon fill="white" stroke="#666666" points="211.75,-79.5 0,-79.5 0,-49 211.75,-49 211.75,-79.5"/>
<text text-anchor="start" x="8" y="-66" font-family="Helvetica,sans-Serif" font-size="10.00">NAudio.Wave.AcmMp3FrameDecompressor.</text>
<text text-anchor="middle" x="105.88" y="-54.75" font-family="Helvetica,sans-Serif" font-size="10.00">AcmMp3FrameDecompressor</text>
</a>
</g>
</g>
<!-- Node5&#45;&gt;Node6 -->
<g id="edge5_Node000005_Node000006" class="edge">
<title>Node5&#45;&gt;Node6</title>
<g id="a_edge5_Node000005_Node000006"><a xlink:title=" ">
<path fill="none" stroke="#63b8ff" d="M244.36,-49.11C233.74,-50.28 222.82,-51.48 212,-52.67"/>
<polygon fill="#63b8ff" stroke="#63b8ff" points="244.69,-52.59 254.25,-48.02 243.93,-45.64 244.69,-52.59"/>
</a>
</g>
</g>
<!-- Node7 -->
<g id="Node000007" class="node">
<title>Node7</title>
<g id="a_Node000007"><a xlink:href="class_n_audio_1_1_wave_1_1_wave_format_conversion_stream.html#a1d996e11940523e891d0fbe86731daca" target="_top" xlink:title="Creates a PCM stream from the given source stream.">
<polygon fill="white" stroke="#666666" points="197.88,-30.5 13.88,-30.5 13.88,0 197.88,0 197.88,-30.5"/>
<text text-anchor="start" x="21.88" y="-17" font-family="Helvetica,sans-Serif" font-size="10.00">NAudio.Wave.WaveFormatConversion</text>
<text text-anchor="middle" x="105.88" y="-5.75" font-family="Helvetica,sans-Serif" font-size="10.00">Stream.CreatePcmStream</text>
</a>
</g>
</g>
<!-- Node5&#45;&gt;Node7 -->
<g id="edge6_Node000005_Node000007" class="edge">
<title>Node5&#45;&gt;Node7</title>
<g id="a_edge6_Node000005_Node000007"><a xlink:title=" ">
<path fill="none" stroke="#63b8ff" d="M244.71,-29.82C229.38,-28.2 213.42,-26.51 198.03,-24.89"/>
<polygon fill="#63b8ff" stroke="#63b8ff" points="243.94,-33.26 254.25,-30.83 244.67,-26.3 243.94,-33.26"/>
</a>
</g>
</g>
</g>
</svg>
