<?xml version="1.0" encoding="UTF-8" standalone="no"?>
<!DOCTYPE svg PUBLIC "-//W3C//DTD SVG 1.1//EN"
 "http://www.w3.org/Graphics/SVG/1.1/DTD/svg11.dtd">
<!-- Generated by graphviz version 10.0.1 (20240210.2158)
 -->
<!-- Title: NAudio.CoreAudioApi.AudioSessionManager.UnregisterNotifications Pages: 1 -->
<svg width="832pt" height="112pt"
 viewBox="0.00 0.00 831.75 111.50" xmlns="http://www.w3.org/2000/svg" xmlns:xlink="http://www.w3.org/1999/xlink">
<g id="graph0" class="graph" transform="scale(1 1) rotate(0) translate(4 107.5)">
<title>NAudio.CoreAudioApi.AudioSessionManager.UnregisterNotifications</title>
<!-- Node1 -->
<g id="Node000001" class="node">
<title>Node1</title>
<g id="a_Node000001"><a xlink:title="Unregisters the notifications for audio sessions and sets the sessions to null.">
<polygon fill="#999999" stroke="#666666" points="823.75,-54.5 633,-54.5 633,-24 823.75,-24 823.75,-54.5"/>
<text text-anchor="start" x="641" y="-41" font-family="Helvetica,sans-Serif" font-size="10.00">NAudio.CoreAudioApi.Audio</text>
<text text-anchor="middle" x="728.38" y="-29.75" font-family="Helvetica,sans-Serif" font-size="10.00">SessionManager.UnregisterNotifications</text>
</a>
</g>
</g>
<!-- Node2 -->
<g id="Node000002" class="node">
<title>Node2</title>
<g id="a_Node000002"><a xlink:href="class_n_audio_1_1_core_audio_api_1_1_audio_session_manager.html#abffe8651b4e968b2e301b3db07cadc8f" target="_top" xlink:title="Performs application&#45;defined tasks associated with freeing, releasing, or resetting unmanaged resourc...">
<polygon fill="white" stroke="#666666" points="583.5,-79.5 444.5,-79.5 444.5,-49 583.5,-49 583.5,-79.5"/>
<text text-anchor="start" x="452.5" y="-66" font-family="Helvetica,sans-Serif" font-size="10.00">NAudio.CoreAudioApi.Audio</text>
<text text-anchor="middle" x="514" y="-54.75" font-family="Helvetica,sans-Serif" font-size="10.00">SessionManager.Dispose</text>
</a>
</g>
</g>
<!-- Node1&#45;&gt;Node2 -->
<g id="edge1_Node000001_Node000002" class="edge">
<title>Node1&#45;&gt;Node2</title>
<g id="a_edge1_Node000001_Node000002"><a xlink:title=" ">
<path fill="none" stroke="#63b8ff" d="M621.44,-51.72C608.62,-53.23 595.8,-54.74 583.73,-56.16"/>
<polygon fill="#63b8ff" stroke="#63b8ff" points="621.65,-55.22 631.17,-50.57 620.83,-48.27 621.65,-55.22"/>
</a>
</g>
</g>
<!-- Node6 -->
<g id="Node000006" class="node">
<title>Node6</title>
<g id="a_Node000006"><a xlink:href="class_n_audio_1_1_core_audio_api_1_1_audio_session_manager.html#adc5e673760805a49b77f04ce86cb8a5e" target="_top" xlink:title="Refreshes the audio sessions and registers for notifications.">
<polygon fill="white" stroke="#666666" points="597,-30.5 431,-30.5 431,0 597,0 597,-30.5"/>
<text text-anchor="start" x="439" y="-17" font-family="Helvetica,sans-Serif" font-size="10.00">NAudio.CoreAudioApi.Audio</text>
<text text-anchor="middle" x="514" y="-5.75" font-family="Helvetica,sans-Serif" font-size="10.00">SessionManager.RefreshSessions</text>
</a>
</g>
</g>
<!-- Node1&#45;&gt;Node6 -->
<g id="edge5_Node000001_Node000006" class="edge">
<title>Node1&#45;&gt;Node6</title>
<g id="a_edge5_Node000001_Node000006"><a xlink:title=" ">
<path fill="none" stroke="#63b8ff" d="M621.27,-27.26C613.18,-26.34 605.09,-25.43 597.19,-24.54"/>
<polygon fill="#63b8ff" stroke="#63b8ff" points="620.84,-30.73 631.17,-28.38 621.63,-23.78 620.84,-30.73"/>
</a>
</g>
</g>
<!-- Node3 -->
<g id="Node000003" class="node">
<title>Node3</title>
<g id="a_Node000003"><a xlink:href="class_n_audio_1_1_core_audio_api_1_1_m_m_device.html#ac05387903a1ee66c2f48e646da582df1" target="_top" xlink:title="Performs application&#45;defined tasks associated with freeing, releasing, or resetting unmanaged resourc...">
<polygon fill="white" stroke="#666666" points="380,-103.5 215.5,-103.5 215.5,-73 380,-73 380,-103.5"/>
<text text-anchor="start" x="223.5" y="-90" font-family="Helvetica,sans-Serif" font-size="10.00">NAudio.CoreAudioApi.MMDevice.</text>
<text text-anchor="middle" x="297.75" y="-78.75" font-family="Helvetica,sans-Serif" font-size="10.00">Dispose</text>
</a>
</g>
</g>
<!-- Node2&#45;&gt;Node3 -->
<g id="edge2_Node000002_Node000003" class="edge">
<title>Node2&#45;&gt;Node3</title>
<g id="a_edge2_Node000002_Node000003"><a xlink:title=" ">
<path fill="none" stroke="#63b8ff" d="M432.9,-73.22C415.72,-75.15 397.54,-77.18 380.3,-79.12"/>
<polygon fill="#63b8ff" stroke="#63b8ff" points="432.98,-76.74 442.53,-72.14 432.2,-69.78 432.98,-76.74"/>
</a>
</g>
</g>
<!-- Node5 -->
<g id="Node000005" class="node">
<title>Node5</title>
<g id="a_Node000005"><a xlink:href="class_n_audio_1_1_core_audio_api_1_1_audio_session_manager.html#ab2702609da38eb4308b5b2343052957c" target="_top" xlink:title="Finalizer.">
<polygon fill="white" stroke="#666666" points="395,-54.5 200.5,-54.5 200.5,-24 395,-24 395,-54.5"/>
<text text-anchor="start" x="208.5" y="-41" font-family="Helvetica,sans-Serif" font-size="10.00">NAudio.CoreAudioApi.Audio</text>
<text text-anchor="middle" x="297.75" y="-29.75" font-family="Helvetica,sans-Serif" font-size="10.00">SessionManager.~AudioSessionManager</text>
</a>
</g>
</g>
<!-- Node2&#45;&gt;Node5 -->
<g id="edge4_Node000002_Node000005" class="edge">
<title>Node2&#45;&gt;Node5</title>
<g id="a_edge4_Node000002_Node000005"><a xlink:title=" ">
<path fill="none" stroke="#63b8ff" d="M432.92,-54.91C420.65,-53.47 407.88,-51.98 395.3,-50.52"/>
<polygon fill="#63b8ff" stroke="#63b8ff" points="432.19,-58.34 442.53,-56.03 433,-51.39 432.19,-58.34"/>
</a>
</g>
</g>
<!-- Node4 -->
<g id="Node000004" class="node">
<title>Node4</title>
<g id="a_Node000004"><a xlink:href="class_n_audio_1_1_core_audio_api_1_1_m_m_device.html#a95c24da223ab4d8e0af8945e33629c24" target="_top" xlink:title="Finalizer.">
<polygon fill="white" stroke="#666666" points="164.5,-103.5 0,-103.5 0,-73 164.5,-73 164.5,-103.5"/>
<text text-anchor="start" x="8" y="-90" font-family="Helvetica,sans-Serif" font-size="10.00">NAudio.CoreAudioApi.MMDevice.</text>
<text text-anchor="middle" x="82.25" y="-78.75" font-family="Helvetica,sans-Serif" font-size="10.00">~MMDevice</text>
</a>
</g>
</g>
<!-- Node3&#45;&gt;Node4 -->
<g id="edge3_Node000003_Node000004" class="edge">
<title>Node3&#45;&gt;Node4</title>
<g id="a_edge3_Node000003_Node000004"><a xlink:title=" ">
<path fill="none" stroke="#63b8ff" d="M203.81,-88.25C190.83,-88.25 177.58,-88.25 164.83,-88.25"/>
<polygon fill="#63b8ff" stroke="#63b8ff" points="203.61,-91.75 213.61,-88.25 203.61,-84.75 203.61,-91.75"/>
</a>
</g>
</g>
</g>
</svg>
