<?xml version="1.0" encoding="UTF-8" standalone="no"?>
<!DOCTYPE svg PUBLIC "-//W3C//DTD SVG 1.1//EN"
 "http://www.w3.org/Graphics/SVG/1.1/DTD/svg11.dtd">
<!-- Generated by graphviz version 10.0.1 (20240210.2158)
 -->
<!-- Title: Plugin.Main.FileManagerHandler Pages: 1 -->
<svg width="1126pt" height="521pt"
 viewBox="0.00 0.00 1125.50 520.86" xmlns="http://www.w3.org/2000/svg" xmlns:xlink="http://www.w3.org/1999/xlink">
<g id="graph0" class="graph" transform="scale(1 1) rotate(0) translate(4 516.86)">
<title>Plugin.Main.FileManagerHandler</title>
<!-- Node1 -->
<g id="Node000001" class="node">
<title>Node1</title>
<g id="a_Node000001"><a xlink:title="Handles file management operations based on the type of request received from the node.">
<polygon fill="#999999" stroke="#666666" points="157,-328.85 0,-328.85 0,-309.6 157,-309.6 157,-328.85"/>
<text text-anchor="middle" x="78.5" y="-315.35" font-family="Helvetica,sans-Serif" font-size="10.00">Plugin.Main.FileManagerHandler</text>
</a>
</g>
</g>
<!-- Node2 -->
<g id="Node000002" class="node">
<title>Node2</title>
<g id="a_Node000002"><a xlink:href="class_plugin_1_1_main.html#a4bde254856f1641e9514ad25ef538962" target="_top" xlink:title="Asynchronously deletes a file from the specified path and sends a success signal if the operation is ...">
<polygon fill="white" stroke="#666666" points="318.88,-366.85 204.62,-366.85 204.62,-347.6 318.88,-347.6 318.88,-366.85"/>
<text text-anchor="middle" x="261.75" y="-353.35" font-family="Helvetica,sans-Serif" font-size="10.00">Plugin.Main.DeleteFile</text>
</a>
</g>
</g>
<!-- Node1&#45;&gt;Node2 -->
<g id="edge1_Node000001_Node000002" class="edge">
<title>Node1&#45;&gt;Node2</title>
<g id="a_edge1_Node000001_Node000002"><a xlink:title=" ">
<path fill="none" stroke="#63b8ff" d="M127.6,-329.31C150.32,-334.07 177.66,-339.8 201.64,-344.83"/>
<polygon fill="#63b8ff" stroke="#63b8ff" points="200.76,-348.22 211.26,-346.85 202.19,-341.37 200.76,-348.22"/>
</a>
</g>
</g>
<!-- Node3 -->
<g id="Node000003" class="node">
<title>Node3</title>
<g id="a_Node000003"><a xlink:href="classxeno__rat__client_1_1_node.html#aed8a6b3de6ee0efa48945c8b1e6c763e" target="_top" xlink:title="Disconnects the current socket and clears the subNodes list, and invokes the OnDisconnect event if it...">
<polygon fill="white" stroke="#666666" points="721.75,-307.85 561,-307.85 561,-288.6 721.75,-288.6 721.75,-307.85"/>
<text text-anchor="middle" x="641.38" y="-294.35" font-family="Helvetica,sans-Serif" font-size="10.00">xeno_rat_client.Node.Disconnect</text>
</a>
</g>
</g>
<!-- Node1&#45;&gt;Node3 -->
<g id="edge26_Node000001_Node000003" class="edge">
<title>Node1&#45;&gt;Node3</title>
<g id="a_edge26_Node000001_Node000003"><a xlink:title=" ">
<path fill="none" stroke="#63b8ff" d="M89.69,-329.34C141.4,-379.43 377.96,-594.03 525,-479.22 577,-438.63 519.02,-386.11 561,-335.22 569,-325.53 580.11,-318.23 591.49,-312.8"/>
<polygon fill="#63b8ff" stroke="#63b8ff" points="592.74,-316.08 600.55,-308.92 589.98,-309.65 592.74,-316.08"/>
</a>
</g>
</g>
<!-- Node4 -->
<g id="Node000004" class="node">
<title>Node4</title>
<g id="a_Node000004"><a xlink:href="classxeno__rat__client_1_1_node.html#a5e2f1397fe3500c1f49ae17e4b91cde4" target="_top" xlink:title="Asynchronously receives data from the socket and returns the received data as a byte array.">
<polygon fill="white" stroke="#666666" points="519.38,-356.47 372.12,-356.47 372.12,-325.97 519.38,-325.97 519.38,-356.47"/>
<text text-anchor="start" x="380.12" y="-342.97" font-family="Helvetica,sans-Serif" font-size="10.00">xeno_rat_client.Node.Receive</text>
<text text-anchor="middle" x="445.75" y="-331.72" font-family="Helvetica,sans-Serif" font-size="10.00">Async</text>
</a>
</g>
</g>
<!-- Node1&#45;&gt;Node4 -->
<g id="edge44_Node000001_Node000004" class="edge">
<title>Node1&#45;&gt;Node4</title>
<g id="a_edge44_Node000001_Node000004"><a xlink:title=" ">
<path fill="none" stroke="#63b8ff" d="M157.41,-323.92C217.07,-327.51 299.26,-332.46 360.45,-336.15"/>
<polygon fill="#63b8ff" stroke="#63b8ff" points="359.92,-339.62 370.12,-336.73 360.34,-332.63 359.92,-339.62"/>
</a>
</g>
</g>
<!-- Node23 -->
<g id="Node000023" class="node">
<title>Node23</title>
<g id="a_Node000023"><a xlink:href="class_plugin_1_1_main.html#aaa393e2cb3b72c100332f223fb64e352" target="_top" xlink:title="Downloads a file from the specified node and saves it to the specified path.">
<polygon fill="white" stroke="#666666" points="330.5,-403.85 193,-403.85 193,-384.6 330.5,-384.6 330.5,-403.85"/>
<text text-anchor="middle" x="261.75" y="-390.35" font-family="Helvetica,sans-Serif" font-size="10.00">Plugin.Main.FileDownloader</text>
</a>
</g>
</g>
<!-- Node1&#45;&gt;Node23 -->
<g id="edge27_Node000001_Node000023" class="edge">
<title>Node1&#45;&gt;Node23</title>
<g id="a_edge27_Node000001_Node000023"><a xlink:title=" ">
<path fill="none" stroke="#63b8ff" d="M96.69,-329.26C118.49,-341.67 157.54,-362.77 193,-376.22 197.35,-377.88 201.92,-379.43 206.53,-380.89"/>
<polygon fill="#63b8ff" stroke="#63b8ff" points="205.29,-384.17 215.87,-383.68 207.29,-377.47 205.29,-384.17"/>
</a>
</g>
</g>
<!-- Node25 -->
<g id="Node000025" class="node">
<title>Node25</title>
<g id="a_Node000025"><a xlink:href="class_plugin_1_1_main.html#a9cefbf6142aea997fd2ebfe27847d8d3" target="_top" xlink:title="Asynchronously uploads a file to the specified node.">
<polygon fill="white" stroke="#666666" points="324.12,-245.85 199.38,-245.85 199.38,-226.6 324.12,-226.6 324.12,-245.85"/>
<text text-anchor="middle" x="261.75" y="-232.35" font-family="Helvetica,sans-Serif" font-size="10.00">Plugin.Main.FileUploader</text>
</a>
</g>
</g>
<!-- Node1&#45;&gt;Node25 -->
<g id="edge32_Node000001_Node000025" class="edge">
<title>Node1&#45;&gt;Node25</title>
<g id="a_edge32_Node000001_Node000025"><a xlink:title=" ">
<path fill="none" stroke="#63b8ff" d="M98.11,-309.17C120.37,-297.3 158.91,-277.28 193,-262.22 202.38,-258.08 212.64,-253.95 222.28,-250.23"/>
<polygon fill="#63b8ff" stroke="#63b8ff" points="223.28,-253.59 231.39,-246.77 220.8,-247.05 223.28,-253.59"/>
</a>
</g>
</g>
<!-- Node28 -->
<g id="Node000028" class="node">
<title>Node28</title>
<g id="a_Node000028"><a xlink:href="class_plugin_1_1_main.html#af9b221ceac69986fcf58eeee66b687cf" target="_top" xlink:title="Asynchronously retrieves and sends directory and file information to the connected node.">
<polygon fill="white" stroke="#666666" points="319.62,-162.85 203.88,-162.85 203.88,-143.6 319.62,-143.6 319.62,-162.85"/>
<text text-anchor="middle" x="261.75" y="-149.35" font-family="Helvetica,sans-Serif" font-size="10.00">Plugin.Main.FileViewer</text>
</a>
</g>
</g>
<!-- Node1&#45;&gt;Node28 -->
<g id="edge38_Node000001_Node000028" class="edge">
<title>Node1&#45;&gt;Node28</title>
<g id="a_edge38_Node000001_Node000028"><a xlink:title=" ">
<path fill="none" stroke="#63b8ff" d="M90.3,-309.34C120.07,-282.07 203.65,-205.52 241.59,-170.77"/>
<polygon fill="#63b8ff" stroke="#63b8ff" points="243.66,-173.63 248.67,-164.29 238.93,-168.46 243.66,-173.63"/>
</a>
</g>
</g>
<!-- Node30 -->
<g id="Node000030" class="node">
<title>Node30</title>
<g id="a_Node000030"><a xlink:href="class_plugin_1_1_main.html#a3b39782a6964bd214686773f154a5bb9" target="_top" xlink:title="Asynchronously starts a file specified by the path received from the node and sends a success signal ...">
<polygon fill="white" stroke="#666666" points="315.12,-290.85 208.38,-290.85 208.38,-271.6 315.12,-271.6 315.12,-290.85"/>
<text text-anchor="middle" x="261.75" y="-277.35" font-family="Helvetica,sans-Serif" font-size="10.00">Plugin.Main.StartFile</text>
</a>
</g>
</g>
<!-- Node1&#45;&gt;Node30 -->
<g id="edge45_Node000001_Node000030" class="edge">
<title>Node1&#45;&gt;Node30</title>
<g id="a_edge45_Node000001_Node000030"><a xlink:title=" ">
<path fill="none" stroke="#63b8ff" d="M127.6,-309.14C150.32,-304.38 177.66,-298.64 201.64,-293.62"/>
<polygon fill="#63b8ff" stroke="#63b8ff" points="202.19,-297.08 211.26,-291.6 200.76,-290.23 202.19,-297.08"/>
</a>
</g>
</g>
<!-- Node2&#45;&gt;Node3 -->
<g id="edge2_Node000002_Node000003" class="edge">
<title>Node2&#45;&gt;Node3</title>
<g id="a_edge2_Node000002_Node000003"><a xlink:title=" ">
<path fill="none" stroke="#63b8ff" d="M302.39,-367.27C355.02,-378.66 450.05,-392.36 525,-365.22 544.58,-358.13 543.41,-346.38 561,-335.22 574.5,-326.66 590.31,-318.88 604.25,-312.7"/>
<polygon fill="#63b8ff" stroke="#63b8ff" points="605.29,-316.06 613.08,-308.89 602.52,-309.63 605.29,-316.06"/>
</a>
</g>
</g>
<!-- Node2&#45;&gt;Node4 -->
<g id="edge4_Node000002_Node000004" class="edge">
<title>Node2&#45;&gt;Node4</title>
<g id="a_edge4_Node000002_Node000004"><a xlink:title=" ">
<path fill="none" stroke="#63b8ff" d="M319.34,-352.25C332.43,-351.1 346.64,-349.85 360.62,-348.62"/>
<polygon fill="#63b8ff" stroke="#63b8ff" points="360.61,-352.13 370.26,-347.77 359.99,-345.16 360.61,-352.13"/>
</a>
</g>
</g>
<!-- Node13 -->
<g id="Node000013" class="node">
<title>Node13</title>
<g id="a_Node000013"><a xlink:href="classxeno__rat__client_1_1_node.html#afe8db11f190f0a3b146e16a7b14ef490" target="_top" xlink:title="Asynchronously sends the specified data over the socket connection.">
<polygon fill="white" stroke="#666666" points="512.62,-270.47 378.88,-270.47 378.88,-239.97 512.62,-239.97 512.62,-270.47"/>
<text text-anchor="start" x="386.88" y="-256.97" font-family="Helvetica,sans-Serif" font-size="10.00">xeno_rat_client.Node.Send</text>
<text text-anchor="middle" x="445.75" y="-245.72" font-family="Helvetica,sans-Serif" font-size="10.00">Async</text>
</a>
</g>
</g>
<!-- Node2&#45;&gt;Node13 -->
<g id="edge15_Node000002_Node000013" class="edge">
<title>Node2&#45;&gt;Node13</title>
<g id="a_edge15_Node000002_Node000013"><a xlink:title=" ">
<path fill="none" stroke="#63b8ff" d="M280.53,-347.26C309.68,-330.92 368.25,-298.1 406.98,-276.39"/>
<polygon fill="#63b8ff" stroke="#63b8ff" points="408.52,-279.54 415.53,-271.6 405.1,-273.43 408.52,-279.54"/>
</a>
</g>
</g>
<!-- Node3&#45;&gt;Node3 -->
<g id="edge3_Node000003_Node000003" class="edge">
<title>Node3&#45;&gt;Node3</title>
<g id="a_edge3_Node000003_Node000003"><a xlink:title=" ">
<path fill="none" stroke="#63b8ff" d="M611.28,-308.14C597.55,-316.74 607.58,-325.85 641.38,-325.85 660.91,-325.85 672.51,-322.81 676.16,-318.58"/>
<polygon fill="#63b8ff" stroke="#63b8ff" points="679.38,-317.21 672.09,-309.52 673,-320.07 679.38,-317.21"/>
</a>
</g>
</g>
<!-- Node4&#45;&gt;Node3 -->
<g id="edge5_Node000004_Node000003" class="edge">
<title>Node4&#45;&gt;Node3</title>
<g id="a_edge5_Node000004_Node000003"><a xlink:title=" ">
<path fill="none" stroke="#63b8ff" d="M517.47,-325.52C539.26,-320.68 562.95,-315.42 583.66,-310.82"/>
<polygon fill="#63b8ff" stroke="#63b8ff" points="584.35,-314.25 593.36,-308.67 582.84,-307.42 584.35,-314.25"/>
</a>
</g>
</g>
<!-- Node5 -->
<g id="Node000005" class="node">
<title>Node5</title>
<g id="a_Node000005"><a xlink:href="classxeno__rat__client_1_1_socket_handler.html#ac05e4943d4ffdb6a72fa80e8f4bbede6" target="_top" xlink:title="Asynchronously receives data and performs various operations on it, such as decryption,...">
<polygon fill="white" stroke="#666666" points="717.25,-374.47 565.5,-374.47 565.5,-343.97 717.25,-343.97 717.25,-374.47"/>
<text text-anchor="start" x="573.5" y="-360.97" font-family="Helvetica,sans-Serif" font-size="10.00">xeno_rat_client.SocketHandler.</text>
<text text-anchor="middle" x="641.38" y="-349.72" font-family="Helvetica,sans-Serif" font-size="10.00">ReceiveAsync</text>
</a>
</g>
</g>
<!-- Node4&#45;&gt;Node5 -->
<g id="edge6_Node000004_Node000005" class="edge">
<title>Node4&#45;&gt;Node5</title>
<g id="a_edge6_Node000004_Node000005"><a xlink:title=" ">
<path fill="none" stroke="#63b8ff" d="M519.68,-348C530.85,-349.04 542.48,-350.12 553.91,-351.19"/>
<polygon fill="#63b8ff" stroke="#63b8ff" points="553.47,-354.66 563.75,-352.1 554.12,-347.69 553.47,-354.66"/>
</a>
</g>
</g>
<!-- Node6 -->
<g id="Node000006" class="node">
<title>Node6</title>
<g id="a_Node000006"><a xlink:href="classxeno__rat__client_1_1_socket_handler.html#a08263821429a6c263085688a2b716f44" target="_top" xlink:title="Truncates the input byte array from the specified offset and returns the truncated byte array.">
<polygon fill="white" stroke="#666666" points="909.5,-504.47 757.75,-504.47 757.75,-473.97 909.5,-473.97 909.5,-504.47"/>
<text text-anchor="start" x="765.75" y="-490.97" font-family="Helvetica,sans-Serif" font-size="10.00">xeno_rat_client.SocketHandler.</text>
<text text-anchor="middle" x="833.62" y="-479.72" font-family="Helvetica,sans-Serif" font-size="10.00">BTruncate</text>
</a>
</g>
</g>
<!-- Node5&#45;&gt;Node6 -->
<g id="edge7_Node000005_Node000006" class="edge">
<title>Node5&#45;&gt;Node6</title>
<g id="a_edge7_Node000005_Node000006"><a xlink:title=" ">
<path fill="none" stroke="#63b8ff" d="M655.72,-374.97C675.74,-397.67 715.7,-439.57 757.75,-464.22 760.67,-465.94 763.72,-467.55 766.86,-469.07"/>
<polygon fill="#63b8ff" stroke="#63b8ff" points="765.14,-472.14 775.7,-472.99 767.98,-465.74 765.14,-472.14"/>
</a>
</g>
</g>
<!-- Node7 -->
<g id="Node000007" class="node">
<title>Node7</title>
<g id="a_Node000007"><a xlink:href="classxeno__rat__client_1_1_socket_handler.html#a14771b2d7d9b62c512e15fbd3f7eed2d" target="_top" xlink:title="Converts the specified byte array to an integer.">
<polygon fill="white" stroke="#666666" points="1107.38,-342.47 955.62,-342.47 955.62,-311.97 1107.38,-311.97 1107.38,-342.47"/>
<text text-anchor="start" x="963.62" y="-328.97" font-family="Helvetica,sans-Serif" font-size="10.00">xeno_rat_client.SocketHandler.</text>
<text text-anchor="middle" x="1031.5" y="-317.72" font-family="Helvetica,sans-Serif" font-size="10.00">BytesToInt</text>
</a>
</g>
</g>
<!-- Node5&#45;&gt;Node7 -->
<g id="edge8_Node000005_Node000007" class="edge">
<title>Node5&#45;&gt;Node7</title>
<g id="a_edge8_Node000005_Node000007"><a xlink:title=" ">
<path fill="none" stroke="#63b8ff" d="M715.61,-374.95C769.68,-384.03 844.79,-391.3 909.5,-378.22 938.57,-372.35 969.33,-359.28 992.57,-347.84"/>
<polygon fill="#63b8ff" stroke="#63b8ff" points="993.98,-351.05 1001.33,-343.41 990.83,-344.8 993.98,-351.05"/>
</a>
</g>
</g>
<!-- Node8 -->
<g id="Node000008" class="node">
<title>Node8</title>
<g id="a_Node000008"><a xlink:href="classxeno__rat__client_1_1_compression.html#a77db1a3658cab9e1ded20775b02584ad" target="_top" xlink:title="Decompresses the input buffer using the LZNT1 compression format and returns the decompressed data.">
<polygon fill="white" stroke="#666666" points="906.5,-455.47 760.75,-455.47 760.75,-424.97 906.5,-424.97 906.5,-455.47"/>
<text text-anchor="start" x="768.75" y="-441.97" font-family="Helvetica,sans-Serif" font-size="10.00">xeno_rat_client.Compression.</text>
<text text-anchor="middle" x="833.62" y="-430.72" font-family="Helvetica,sans-Serif" font-size="10.00">Decompress</text>
</a>
</g>
</g>
<!-- Node5&#45;&gt;Node8 -->
<g id="edge9_Node000005_Node000008" class="edge">
<title>Node5&#45;&gt;Node8</title>
<g id="a_edge9_Node000005_Node000008"><a xlink:title=" ">
<path fill="none" stroke="#63b8ff" d="M675.99,-374.95C698.89,-385.53 729.98,-399.6 757.75,-411.22 765,-414.26 772.7,-417.37 780.28,-420.37"/>
<polygon fill="#63b8ff" stroke="#63b8ff" points="778.88,-423.58 789.47,-423.96 781.43,-417.06 778.88,-423.58"/>
</a>
</g>
</g>
<!-- Node10 -->
<g id="Node000010" class="node">
<title>Node10</title>
<g id="a_Node000010"><a xlink:href="classxeno__rat__client_1_1_encryption.html#ae86cb9fa23f767be0a3c99e369ecbd30" target="_top" xlink:title="Decrypts the input data using the provided key and returns the decrypted result.">
<polygon fill="white" stroke="#666666" points="900.88,-369.47 766.38,-369.47 766.38,-338.97 900.88,-338.97 900.88,-369.47"/>
<text text-anchor="start" x="774.38" y="-355.97" font-family="Helvetica,sans-Serif" font-size="10.00">xeno_rat_client.Encryption.</text>
<text text-anchor="middle" x="833.62" y="-344.72" font-family="Helvetica,sans-Serif" font-size="10.00">Decrypt</text>
</a>
</g>
</g>
<!-- Node5&#45;&gt;Node10 -->
<g id="edge11_Node000005_Node000010" class="edge">
<title>Node5&#45;&gt;Node10</title>
<g id="a_edge11_Node000005_Node000010"><a xlink:title=" ">
<path fill="none" stroke="#63b8ff" d="M717.57,-357.25C729.81,-356.93 742.52,-356.59 754.83,-356.27"/>
<polygon fill="#63b8ff" stroke="#63b8ff" points="754.58,-359.78 764.48,-356.02 754.39,-352.78 754.58,-359.78"/>
</a>
</g>
</g>
<!-- Node11 -->
<g id="Node000011" class="node">
<title>Node11</title>
<g id="a_Node000011"><a xlink:href="classxeno__rat__client_1_1_socket_handler.html#a77529cf89708fc6f487cd2aaac7e9bac" target="_top" xlink:title="Parses the header from the given byte array and returns the header information.">
<polygon fill="white" stroke="#666666" points="909.5,-320.47 757.75,-320.47 757.75,-289.97 909.5,-289.97 909.5,-320.47"/>
<text text-anchor="start" x="765.75" y="-306.97" font-family="Helvetica,sans-Serif" font-size="10.00">xeno_rat_client.SocketHandler.</text>
<text text-anchor="middle" x="833.62" y="-295.72" font-family="Helvetica,sans-Serif" font-size="10.00">ParseHeader</text>
</a>
</g>
</g>
<!-- Node5&#45;&gt;Node11 -->
<g id="edge12_Node000005_Node000011" class="edge">
<title>Node5&#45;&gt;Node11</title>
<g id="a_edge12_Node000005_Node000011"><a xlink:title=" ">
<path fill="none" stroke="#63b8ff" d="M697.66,-343.53C719.16,-337.43 743.96,-330.39 766.4,-324.02"/>
<polygon fill="#63b8ff" stroke="#63b8ff" points="767.08,-327.47 775.75,-321.37 765.17,-320.73 767.08,-327.47"/>
</a>
</g>
</g>
<!-- Node12 -->
<g id="Node000012" class="node">
<title>Node12</title>
<g id="a_Node000012"><a xlink:href="classxeno__rat__client_1_1_socket_handler.html#a8be64178ac717030dea4dbcea7937a83" target="_top" xlink:title="Asynchronously receives all the data of the specified size from the connected socket and returns it a...">
<polygon fill="white" stroke="#666666" points="909.5,-271.47 757.75,-271.47 757.75,-240.97 909.5,-240.97 909.5,-271.47"/>
<text text-anchor="start" x="765.75" y="-257.97" font-family="Helvetica,sans-Serif" font-size="10.00">xeno_rat_client.SocketHandler.</text>
<text text-anchor="middle" x="833.62" y="-246.72" font-family="Helvetica,sans-Serif" font-size="10.00">RecvAllAsync_ddos_unsafer</text>
</a>
</g>
</g>
<!-- Node5&#45;&gt;Node12 -->
<g id="edge14_Node000005_Node000012" class="edge">
<title>Node5&#45;&gt;Node12</title>
<g id="a_edge14_Node000005_Node000012"><a xlink:title=" ">
<path fill="none" stroke="#63b8ff" d="M707.86,-343.55C712.77,-341.16 717.47,-338.4 721.75,-335.22 744.92,-318.04 734.83,-298.74 757.75,-281.22 759.51,-279.88 761.34,-278.61 763.23,-277.4"/>
<polygon fill="#63b8ff" stroke="#63b8ff" points="764.74,-280.57 771.78,-272.65 761.34,-274.45 764.74,-280.57"/>
</a>
</g>
</g>
<!-- Node9 -->
<g id="Node000009" class="node">
<title>Node9</title>
<g id="a_Node000009"><a xlink:href="classxeno__rat__client_1_1_compression.html#a9fe0a6ed3a221d799c7e1a7ba004d5fd" target="_top" xlink:title="Decompresses a buffer using the specified compression format and returns the decompressed data.">
<polygon fill="white" stroke="#666666" points="1104.38,-455.47 958.62,-455.47 958.62,-424.97 1104.38,-424.97 1104.38,-455.47"/>
<text text-anchor="start" x="966.62" y="-441.97" font-family="Helvetica,sans-Serif" font-size="10.00">xeno_rat_client.Compression.</text>
<text text-anchor="middle" x="1031.5" y="-430.72" font-family="Helvetica,sans-Serif" font-size="10.00">RtlDecompressBuffer</text>
</a>
</g>
</g>
<!-- Node8&#45;&gt;Node9 -->
<g id="edge10_Node000008_Node000009" class="edge">
<title>Node8&#45;&gt;Node9</title>
<g id="a_edge10_Node000008_Node000009"><a xlink:title=" ">
<path fill="none" stroke="#63b8ff" d="M906.73,-440.22C919.85,-440.22 933.64,-440.22 947.06,-440.22"/>
<polygon fill="#63b8ff" stroke="#63b8ff" points="946.71,-443.72 956.71,-440.22 946.71,-436.72 946.71,-443.72"/>
</a>
</g>
</g>
<!-- Node11&#45;&gt;Node7 -->
<g id="edge13_Node000011_Node000007" class="edge">
<title>Node11&#45;&gt;Node7</title>
<g id="a_edge13_Node000011_Node000007"><a xlink:title=" ">
<path fill="none" stroke="#63b8ff" d="M909.8,-313.67C920.96,-314.92 932.55,-316.22 943.92,-317.5"/>
<polygon fill="#63b8ff" stroke="#63b8ff" points="943.38,-320.96 953.7,-318.6 944.16,-314 943.38,-320.96"/>
</a>
</g>
</g>
<!-- Node13&#45;&gt;Node3 -->
<g id="edge16_Node000013_Node000003" class="edge">
<title>Node13&#45;&gt;Node3</title>
<g id="a_edge16_Node000013_Node000003"><a xlink:title=" ">
<path fill="none" stroke="#63b8ff" d="M513.11,-269.96C536.05,-275.06 561.52,-280.71 583.61,-285.62"/>
<polygon fill="#63b8ff" stroke="#63b8ff" points="582.83,-289.03 593.35,-287.78 584.34,-282.2 582.83,-289.03"/>
</a>
</g>
</g>
<!-- Node14 -->
<g id="Node000014" class="node">
<title>Node14</title>
<g id="a_Node000014"><a xlink:href="classxeno__rat__client_1_1_socket_handler.html#a4970cfbc960dd288436a9fe80814531d" target="_top" xlink:title="Asynchronously sends the specified data over the socket after compressing, encrypting,...">
<polygon fill="white" stroke="#666666" points="717.25,-163.47 565.5,-163.47 565.5,-132.97 717.25,-132.97 717.25,-163.47"/>
<text text-anchor="start" x="573.5" y="-149.97" font-family="Helvetica,sans-Serif" font-size="10.00">xeno_rat_client.SocketHandler.</text>
<text text-anchor="middle" x="641.38" y="-138.72" font-family="Helvetica,sans-Serif" font-size="10.00">SendAsync</text>
</a>
</g>
</g>
<!-- Node13&#45;&gt;Node14 -->
<g id="edge17_Node000013_Node000014" class="edge">
<title>Node13&#45;&gt;Node14</title>
<g id="a_edge17_Node000013_Node000014"><a xlink:title=" ">
<path fill="none" stroke="#63b8ff" d="M474.9,-239.67C508.46,-221.12 564.69,-190.05 602.15,-169.35"/>
<polygon fill="#63b8ff" stroke="#63b8ff" points="603.8,-172.43 610.86,-164.53 600.42,-166.31 603.8,-172.43"/>
</a>
</g>
</g>
<!-- Node15 -->
<g id="Node000015" class="node">
<title>Node15</title>
<g id="a_Node000015"><a xlink:href="classxeno__rat__client_1_1_compression.html#ab25c4ae61c5c162bdb353676a7d01ca6" target="_top" xlink:title="Compresses the input buffer using the LZNT1 compression format and returns the compressed data.">
<polygon fill="white" stroke="#666666" points="906.5,-212.47 760.75,-212.47 760.75,-181.97 906.5,-181.97 906.5,-212.47"/>
<text text-anchor="start" x="768.75" y="-198.97" font-family="Helvetica,sans-Serif" font-size="10.00">xeno_rat_client.Compression.</text>
<text text-anchor="middle" x="833.62" y="-187.72" font-family="Helvetica,sans-Serif" font-size="10.00">Compress</text>
</a>
</g>
</g>
<!-- Node14&#45;&gt;Node15 -->
<g id="edge18_Node000014_Node000015" class="edge">
<title>Node14&#45;&gt;Node15</title>
<g id="a_edge18_Node000014_Node000015"><a xlink:title=" ">
<path fill="none" stroke="#63b8ff" d="M703.36,-163.93C721.62,-168.63 741.82,-173.84 760.71,-178.7"/>
<polygon fill="#63b8ff" stroke="#63b8ff" points="759.64,-182.04 770.2,-181.15 761.39,-175.26 759.64,-182.04"/>
</a>
</g>
</g>
<!-- Node20 -->
<g id="Node000020" class="node">
<title>Node20</title>
<g id="a_Node000020"><a xlink:href="classxeno__rat__client_1_1_socket_handler.html#aff56eb3e00bf2bb85e2d7696318b4468" target="_top" xlink:title="Concatenates two byte arrays and returns the result.">
<polygon fill="white" stroke="#666666" points="909.5,-163.47 757.75,-163.47 757.75,-132.97 909.5,-132.97 909.5,-163.47"/>
<text text-anchor="start" x="765.75" y="-149.97" font-family="Helvetica,sans-Serif" font-size="10.00">xeno_rat_client.SocketHandler.</text>
<text text-anchor="middle" x="833.62" y="-138.72" font-family="Helvetica,sans-Serif" font-size="10.00">Concat</text>
</a>
</g>
</g>
<!-- Node14&#45;&gt;Node20 -->
<g id="edge23_Node000014_Node000020" class="edge">
<title>Node14&#45;&gt;Node20</title>
<g id="a_edge23_Node000014_Node000020"><a xlink:title=" ">
<path fill="none" stroke="#63b8ff" d="M717.57,-148.22C726.87,-148.22 736.44,-148.22 745.9,-148.22"/>
<polygon fill="#63b8ff" stroke="#63b8ff" points="745.84,-151.72 755.84,-148.22 745.84,-144.72 745.84,-151.72"/>
</a>
</g>
</g>
<!-- Node21 -->
<g id="Node000021" class="node">
<title>Node21</title>
<g id="a_Node000021"><a xlink:href="classxeno__rat__client_1_1_encryption.html#a807a6407c09f993138a2684be0899cb3" target="_top" xlink:title="Encrypts the input data using the provided key and returns the encrypted result.">
<polygon fill="white" stroke="#666666" points="900.88,-114.47 766.38,-114.47 766.38,-83.97 900.88,-83.97 900.88,-114.47"/>
<text text-anchor="start" x="774.38" y="-100.97" font-family="Helvetica,sans-Serif" font-size="10.00">xeno_rat_client.Encryption.</text>
<text text-anchor="middle" x="833.62" y="-89.72" font-family="Helvetica,sans-Serif" font-size="10.00">Encrypt</text>
</a>
</g>
</g>
<!-- Node14&#45;&gt;Node21 -->
<g id="edge24_Node000014_Node000021" class="edge">
<title>Node14&#45;&gt;Node21</title>
<g id="a_edge24_Node000014_Node000021"><a xlink:title=" ">
<path fill="none" stroke="#63b8ff" d="M703.36,-132.52C721.62,-127.81 741.82,-122.61 760.71,-117.75"/>
<polygon fill="#63b8ff" stroke="#63b8ff" points="761.39,-121.19 770.2,-115.3 759.64,-114.41 761.39,-121.19"/>
</a>
</g>
</g>
<!-- Node22 -->
<g id="Node000022" class="node">
<title>Node22</title>
<g id="a_Node000022"><a xlink:href="classxeno__rat__client_1_1_socket_handler.html#a9b4df15d86fe97e366771e3c0568761d" target="_top" xlink:title="Converts an integer to a byte array.">
<polygon fill="white" stroke="#666666" points="909.5,-44.47 757.75,-44.47 757.75,-13.97 909.5,-13.97 909.5,-44.47"/>
<text text-anchor="start" x="765.75" y="-30.97" font-family="Helvetica,sans-Serif" font-size="10.00">xeno_rat_client.SocketHandler.</text>
<text text-anchor="middle" x="833.62" y="-19.72" font-family="Helvetica,sans-Serif" font-size="10.00">IntToBytes</text>
</a>
</g>
</g>
<!-- Node14&#45;&gt;Node22 -->
<g id="edge25_Node000014_Node000022" class="edge">
<title>Node14&#45;&gt;Node22</title>
<g id="a_edge25_Node000014_Node000022"><a xlink:title=" ">
<path fill="none" stroke="#63b8ff" d="M666.63,-132.75C689.93,-117.91 726.17,-94.91 757.75,-75.22 770.62,-67.2 784.79,-58.47 797.3,-50.79"/>
<polygon fill="#63b8ff" stroke="#63b8ff" points="798.94,-53.89 805.64,-45.69 795.28,-47.93 798.94,-53.89"/>
</a>
</g>
</g>
<!-- Node16 -->
<g id="Node000016" class="node">
<title>Node16</title>
<g id="a_Node000016"><a xlink:href="classxeno__rat__client_1_1_compression.html#abc065f053d0258dd1a7acae93f8332d0" target="_top" xlink:title="Allocates memory in the local heap.">
<polygon fill="white" stroke="#666666" points="1104.38,-190.47 958.62,-190.47 958.62,-159.97 1104.38,-159.97 1104.38,-190.47"/>
<text text-anchor="start" x="966.62" y="-176.97" font-family="Helvetica,sans-Serif" font-size="10.00">xeno_rat_client.Compression.</text>
<text text-anchor="middle" x="1031.5" y="-165.72" font-family="Helvetica,sans-Serif" font-size="10.00">LocalAlloc</text>
</a>
</g>
</g>
<!-- Node15&#45;&gt;Node16 -->
<g id="edge19_Node000015_Node000016" class="edge">
<title>Node15&#45;&gt;Node16</title>
<g id="a_edge19_Node000015_Node000016"><a xlink:title=" ">
<path fill="none" stroke="#63b8ff" d="M906.73,-189.13C919.85,-187.65 933.64,-186.1 947.06,-184.6"/>
<polygon fill="#63b8ff" stroke="#63b8ff" points="947.17,-188.11 956.72,-183.51 946.39,-181.15 947.17,-188.11"/>
</a>
</g>
</g>
<!-- Node17 -->
<g id="Node000017" class="node">
<title>Node17</title>
<g id="a_Node000017"><a xlink:href="classxeno__rat__client_1_1_compression.html#a0d2aafc746f145f698a8f1d310ccfbb2" target="_top" xlink:title="Frees the memory block allocated by the LocalAlloc or LocalReAlloc function.">
<polygon fill="white" stroke="#666666" points="1104.38,-141.47 958.62,-141.47 958.62,-110.97 1104.38,-110.97 1104.38,-141.47"/>
<text text-anchor="start" x="966.62" y="-127.97" font-family="Helvetica,sans-Serif" font-size="10.00">xeno_rat_client.Compression.</text>
<text text-anchor="middle" x="1031.5" y="-116.72" font-family="Helvetica,sans-Serif" font-size="10.00">LocalFree</text>
</a>
</g>
</g>
<!-- Node15&#45;&gt;Node17 -->
<g id="edge20_Node000015_Node000017" class="edge">
<title>Node15&#45;&gt;Node17</title>
<g id="a_edge20_Node000015_Node000017"><a xlink:title=" ">
<path fill="none" stroke="#63b8ff" d="M886.32,-181.52C894.19,-178.69 902.13,-175.56 909.5,-172.22 926.37,-164.58 928.49,-158.56 945.5,-151.22 950.07,-149.25 954.85,-147.38 959.7,-145.61"/>
<polygon fill="#63b8ff" stroke="#63b8ff" points="960.67,-148.98 968.98,-142.41 958.38,-142.37 960.67,-148.98"/>
</a>
</g>
</g>
<!-- Node18 -->
<g id="Node000018" class="node">
<title>Node18</title>
<g id="a_Node000018"><a xlink:href="classxeno__rat__client_1_1_compression.html#a9f7d50afed4c3c988eb3e7691cb94581" target="_top" xlink:title="Compresses the input buffer using the specified compression format and returns the compressed data in...">
<polygon fill="white" stroke="#666666" points="1104.38,-288.47 958.62,-288.47 958.62,-257.97 1104.38,-257.97 1104.38,-288.47"/>
<text text-anchor="start" x="966.62" y="-274.97" font-family="Helvetica,sans-Serif" font-size="10.00">xeno_rat_client.Compression.</text>
<text text-anchor="middle" x="1031.5" y="-263.72" font-family="Helvetica,sans-Serif" font-size="10.00">RtlCompressBuffer</text>
</a>
</g>
</g>
<!-- Node15&#45;&gt;Node18 -->
<g id="edge21_Node000015_Node000018" class="edge">
<title>Node15&#45;&gt;Node18</title>
<g id="a_edge21_Node000015_Node000018"><a xlink:title=" ">
<path fill="none" stroke="#63b8ff" d="M868.05,-212.9C897.78,-226.79 937.71,-245.31 945.5,-248.22 950.85,-250.23 956.45,-252.18 962.09,-254.05"/>
<polygon fill="#63b8ff" stroke="#63b8ff" points="960.94,-257.36 971.53,-257.08 963.08,-250.69 960.94,-257.36"/>
</a>
</g>
</g>
<!-- Node19 -->
<g id="Node000019" class="node">
<title>Node19</title>
<g id="a_Node000019"><a xlink:href="classxeno__rat__client_1_1_compression.html#ae6d3ee0c8538f67cd80635e6bc1bad03" target="_top" xlink:title="Retrieves the size of the workspace required for compression.">
<polygon fill="white" stroke="#666666" points="1117.5,-239.47 945.5,-239.47 945.5,-208.97 1117.5,-208.97 1117.5,-239.47"/>
<text text-anchor="start" x="953.5" y="-225.97" font-family="Helvetica,sans-Serif" font-size="10.00">xeno_rat_client.Compression.</text>
<text text-anchor="middle" x="1031.5" y="-214.72" font-family="Helvetica,sans-Serif" font-size="10.00">RtlGetCompressionWorkSpaceSize</text>
</a>
</g>
</g>
<!-- Node15&#45;&gt;Node19 -->
<g id="edge22_Node000015_Node000019" class="edge">
<title>Node15&#45;&gt;Node19</title>
<g id="a_edge22_Node000015_Node000019"><a xlink:title=" ">
<path fill="none" stroke="#63b8ff" d="M906.73,-207.16C915.65,-208.39 924.87,-209.66 934.08,-210.93"/>
<polygon fill="#63b8ff" stroke="#63b8ff" points="933.4,-214.37 943.78,-212.27 934.35,-207.44 933.4,-214.37"/>
</a>
</g>
</g>
<!-- Node23&#45;&gt;Node3 -->
<g id="edge29_Node000023_Node000003" class="edge">
<title>Node23&#45;&gt;Node3</title>
<g id="a_edge29_Node000023_Node000003"><a xlink:title=" ">
<path fill="none" stroke="#63b8ff" d="M307.12,-404.28C361.88,-414.24 456.19,-423.22 525,-386.22 549.44,-373.09 539.71,-353.02 561,-335.22 572.23,-325.84 586.24,-318.28 599.35,-312.5"/>
<polygon fill="#63b8ff" stroke="#63b8ff" points="600.31,-315.89 608.2,-308.83 597.62,-309.43 600.31,-315.89"/>
</a>
</g>
</g>
<!-- Node23&#45;&gt;Node4 -->
<g id="edge30_Node000023_Node000004" class="edge">
<title>Node23&#45;&gt;Node4</title>
<g id="a_edge30_Node000023_Node000004"><a xlink:title=" ">
<path fill="none" stroke="#63b8ff" d="M301.51,-384.19C311.01,-381.66 321.14,-378.9 330.5,-376.22 348.01,-371.22 366.94,-365.53 384.27,-360.22"/>
<polygon fill="#63b8ff" stroke="#63b8ff" points="384.85,-363.7 393.37,-357.41 382.78,-357.01 384.85,-363.7"/>
</a>
</g>
</g>
<!-- Node23&#45;&gt;Node13 -->
<g id="edge31_Node000023_Node000013" class="edge">
<title>Node23&#45;&gt;Node13</title>
<g id="a_edge31_Node000023_Node000013"><a xlink:title=" ">
<path fill="none" stroke="#63b8ff" d="M316.36,-384.23C321.39,-382.06 326.21,-379.43 330.5,-376.22 355.11,-357.85 346.15,-340.23 366.5,-317.22 379.6,-302.42 396.55,-288.51 411.33,-277.62"/>
<polygon fill="#63b8ff" stroke="#63b8ff" points="413.34,-280.48 419.43,-271.81 409.26,-274.8 413.34,-280.48"/>
</a>
</g>
</g>
<!-- Node24 -->
<g id="Node000024" class="node">
<title>Node24</title>
<g id="a_Node000024"><a xlink:href="class_plugin_1_1_main.html#ab09cd14fd2441975bcc5290e06b52131" target="_top" xlink:title="Checks if the specified path is writable.">
<polygon fill="white" stroke="#666666" points="501,-469.85 390.5,-469.85 390.5,-450.6 501,-450.6 501,-469.85"/>
<text text-anchor="middle" x="445.75" y="-456.35" font-family="Helvetica,sans-Serif" font-size="10.00">Plugin.Main.CanWrite</text>
</a>
</g>
</g>
<!-- Node23&#45;&gt;Node24 -->
<g id="edge28_Node000023_Node000024" class="edge">
<title>Node23&#45;&gt;Node24</title>
<g id="a_edge28_Node000023_Node000024"><a xlink:title=" ">
<path fill="none" stroke="#63b8ff" d="M286.01,-404.32C306.9,-413.22 338.48,-426.28 366.5,-436.22 376.84,-439.89 388.05,-443.53 398.68,-446.82"/>
<polygon fill="#63b8ff" stroke="#63b8ff" points="397.45,-450.11 408.03,-449.68 399.49,-443.41 397.45,-450.11"/>
</a>
</g>
</g>
<!-- Node25&#45;&gt;Node3 -->
<g id="edge34_Node000025_Node000003" class="edge">
<title>Node25&#45;&gt;Node3</title>
<g id="a_edge34_Node000025_Node000003"><a xlink:title=" ">
<path fill="none" stroke="#63b8ff" d="M319.88,-226.11C373.76,-218.67 456.29,-212.72 525,-231.22 560.88,-240.89 597.1,-264.75 619.14,-281.22"/>
<polygon fill="#63b8ff" stroke="#63b8ff" points="616.96,-283.96 627.02,-287.27 621.22,-278.41 616.96,-283.96"/>
</a>
</g>
</g>
<!-- Node25&#45;&gt;Node4 -->
<g id="edge36_Node000025_Node000004" class="edge">
<title>Node25&#45;&gt;Node4</title>
<g id="a_edge36_Node000025_Node000004"><a xlink:title=" ">
<path fill="none" stroke="#63b8ff" d="M293.45,-246.24C305.3,-250.57 318.8,-256.05 330.5,-262.22 361.48,-278.58 394.08,-301.8 416.5,-318.84"/>
<polygon fill="#63b8ff" stroke="#63b8ff" points="414.18,-321.48 424.24,-324.8 418.45,-315.93 414.18,-321.48"/>
</a>
</g>
</g>
<!-- Node25&#45;&gt;Node13 -->
<g id="edge37_Node000025_Node000013" class="edge">
<title>Node25&#45;&gt;Node13</title>
<g id="a_edge37_Node000025_Node000013"><a xlink:title=" ">
<path fill="none" stroke="#63b8ff" d="M324.62,-242.68C338.28,-244.11 352.92,-245.64 367.12,-247.12"/>
<polygon fill="#63b8ff" stroke="#63b8ff" points="366.57,-250.58 376.87,-248.14 367.29,-243.62 366.57,-250.58"/>
</a>
</g>
</g>
<!-- Node26 -->
<g id="Node000026" class="node">
<title>Node26</title>
<g id="a_Node000026"><a xlink:href="class_plugin_1_1_main.html#a9c46e8cb2b4b86e00e0c49c3ce31b081" target="_top" xlink:title="Checks if the specified file can be read.">
<polygon fill="white" stroke="#666666" points="501.38,-146.85 390.12,-146.85 390.12,-127.6 501.38,-127.6 501.38,-146.85"/>
<text text-anchor="middle" x="445.75" y="-133.35" font-family="Helvetica,sans-Serif" font-size="10.00">Plugin.Main.CanRead</text>
</a>
</g>
</g>
<!-- Node25&#45;&gt;Node26 -->
<g id="edge33_Node000025_Node000026" class="edge">
<title>Node25&#45;&gt;Node26</title>
<g id="a_edge33_Node000025_Node000026"><a xlink:title=" ">
<path fill="none" stroke="#63b8ff" d="M272.34,-226.3C289.54,-209.09 327.51,-173.8 366.5,-155.22 370.49,-153.32 374.7,-151.62 379,-150.09"/>
<polygon fill="#63b8ff" stroke="#63b8ff" points="379.92,-153.46 388.39,-147.09 377.8,-146.8 379.92,-153.46"/>
</a>
</g>
</g>
<!-- Node27 -->
<g id="Node000027" class="node">
<title>Node27</title>
<g id="a_Node000027"><a xlink:href="class_plugin_1_1_main.html#a22f330351bde825eb151cf392e87cd83" target="_top" xlink:title="Converts a long integer to an array of bytes.">
<polygon fill="white" stroke="#666666" points="509.25,-183.85 382.25,-183.85 382.25,-164.6 509.25,-164.6 509.25,-183.85"/>
<text text-anchor="middle" x="445.75" y="-170.35" font-family="Helvetica,sans-Serif" font-size="10.00">Plugin.Main.LongToBytes</text>
</a>
</g>
</g>
<!-- Node25&#45;&gt;Node27 -->
<g id="edge35_Node000025_Node000027" class="edge">
<title>Node25&#45;&gt;Node27</title>
<g id="a_edge35_Node000025_Node000027"><a xlink:title=" ">
<path fill="none" stroke="#63b8ff" d="M289.05,-226.15C309.94,-218.25 339.95,-207.15 366.5,-198.22 377.1,-194.66 388.57,-191.02 399.38,-187.69"/>
<polygon fill="#63b8ff" stroke="#63b8ff" points="400.35,-191.05 408.89,-184.79 398.31,-184.36 400.35,-191.05"/>
</a>
</g>
</g>
<!-- Node28&#45;&gt;Node3 -->
<g id="edge40_Node000028_Node000003" class="edge">
<title>Node28&#45;&gt;Node3</title>
<g id="a_edge40_Node000028_Node000003"><a xlink:title=" ">
<path fill="none" stroke="#63b8ff" d="M282.31,-143.1C327.95,-121 443.79,-73.82 525,-118.22 527.07,-119.35 598.53,-232.07 627.93,-278.54"/>
<polygon fill="#63b8ff" stroke="#63b8ff" points="624.87,-280.25 633.17,-286.83 630.78,-276.51 624.87,-280.25"/>
</a>
</g>
</g>
<!-- Node28&#45;&gt;Node4 -->
<g id="edge42_Node000028_Node000004" class="edge">
<title>Node28&#45;&gt;Node4</title>
<g id="a_edge42_Node000028_Node000004"><a xlink:title=" ">
<path fill="none" stroke="#63b8ff" d="M275.28,-163.16C289.72,-175.01 313.62,-195.92 330.5,-217.22 350.29,-242.2 345.65,-255.13 366.5,-279.22 379.43,-294.17 396.37,-308.1 411.18,-318.96"/>
<polygon fill="#63b8ff" stroke="#63b8ff" points="409.13,-321.79 419.3,-324.75 413.19,-316.09 409.13,-321.79"/>
</a>
</g>
</g>
<!-- Node28&#45;&gt;Node13 -->
<g id="edge43_Node000028_Node000013" class="edge">
<title>Node28&#45;&gt;Node13</title>
<g id="a_edge43_Node000028_Node000013"><a xlink:title=" ">
<path fill="none" stroke="#63b8ff" d="M280.53,-163.19C309.68,-179.53 368.25,-212.35 406.98,-234.06"/>
<polygon fill="#63b8ff" stroke="#63b8ff" points="405.1,-237.01 415.53,-238.85 408.52,-230.91 405.1,-237.01"/>
</a>
</g>
</g>
<!-- Node28&#45;&gt;Node22 -->
<g id="edge41_Node000028_Node000022" class="edge">
<title>Node28&#45;&gt;Node22</title>
<g id="a_edge41_Node000028_Node000022"><a xlink:title=" ">
<path fill="none" stroke="#63b8ff" d="M268.17,-143.41C281.41,-120.57 317.92,-64.12 366.5,-42.22 489.14,13.06 648.96,2.05 746.03,-12.48"/>
<polygon fill="#63b8ff" stroke="#63b8ff" points="745.34,-15.92 755.76,-13.99 746.41,-9 745.34,-15.92"/>
</a>
</g>
</g>
<!-- Node29 -->
<g id="Node000029" class="node">
<title>Node29</title>
<g id="a_Node000029"><a xlink:href="classxeno__rat__client_1_1_node.html#ae4ae581752fcdbda5191a2a55270e88b" target="_top" xlink:title="Checks if the socket is connected and returns a boolean value indicating the connection status.">
<polygon fill="white" stroke="#666666" points="525,-70.85 366.5,-70.85 366.5,-51.6 525,-51.6 525,-70.85"/>
<text text-anchor="middle" x="445.75" y="-57.35" font-family="Helvetica,sans-Serif" font-size="10.00">xeno_rat_client.Node.Connected</text>
</a>
</g>
</g>
<!-- Node28&#45;&gt;Node29 -->
<g id="edge39_Node000028_Node000029" class="edge">
<title>Node28&#45;&gt;Node29</title>
<g id="a_edge39_Node000028_Node000029"><a xlink:title=" ">
<path fill="none" stroke="#63b8ff" d="M275.47,-143.16C294.37,-128.62 331.41,-101.7 366.5,-85.22 374.91,-81.27 384.14,-77.78 393.2,-74.76"/>
<polygon fill="#63b8ff" stroke="#63b8ff" points="394.2,-78.11 402.68,-71.77 392.09,-71.44 394.2,-78.11"/>
</a>
</g>
</g>
<!-- Node30&#45;&gt;Node3 -->
<g id="edge46_Node000030_Node000003" class="edge">
<title>Node30&#45;&gt;Node3</title>
<g id="a_edge46_Node000030_Node000003"><a xlink:title=" ">
<path fill="none" stroke="#63b8ff" d="M315.26,-283.59C375.78,-286.31 476.33,-290.84 549.61,-294.14"/>
<polygon fill="#63b8ff" stroke="#63b8ff" points="549.01,-297.61 559.15,-294.57 549.32,-290.62 549.01,-297.61"/>
</a>
</g>
</g>
<!-- Node30&#45;&gt;Node4 -->
<g id="edge47_Node000030_Node000004" class="edge">
<title>Node30&#45;&gt;Node4</title>
<g id="a_edge47_Node000030_Node000004"><a xlink:title=" ">
<path fill="none" stroke="#63b8ff" d="M293.21,-291.27C318.56,-299.62 355.37,-311.76 386.37,-321.98"/>
<polygon fill="#63b8ff" stroke="#63b8ff" points="385.03,-325.22 395.62,-325.03 387.22,-318.57 385.03,-325.22"/>
</a>
</g>
</g>
<!-- Node30&#45;&gt;Node13 -->
<g id="edge48_Node000030_Node000013" class="edge">
<title>Node30&#45;&gt;Node13</title>
<g id="a_edge48_Node000030_Node000013"><a xlink:title=" ">
<path fill="none" stroke="#63b8ff" d="M315.39,-273.7C331.58,-271.39 349.76,-268.79 367.25,-266.3"/>
<polygon fill="#63b8ff" stroke="#63b8ff" points="367.71,-269.76 377.12,-264.89 366.72,-262.84 367.71,-269.76"/>
</a>
</g>
</g>
</g>
</svg>
