<?xml version="1.0" encoding="UTF-8" standalone="no"?>
<!DOCTYPE svg PUBLIC "-//W3C//DTD SVG 1.1//EN"
 "http://www.w3.org/Graphics/SVG/1.1/DTD/svg11.dtd">
<!-- Generated by graphviz version 10.0.1 (20240210.2158)
 -->
<!-- Title: AForge.Video.VideoSourceErrorEventArgs Pages: 1 -->
<svg width="154pt" height="168pt"
 viewBox="0.00 0.00 154.00 168.00" xmlns="http://www.w3.org/2000/svg" xmlns:xlink="http://www.w3.org/1999/xlink">
<g id="graph0" class="graph" transform="scale(1 1) rotate(0) translate(4 164)">
<title>AForge.Video.VideoSourceErrorEventArgs</title>
<!-- Node1 -->
<g id="Node000001" class="node">
<title>Node1</title>
<g id="a_Node000001"><a xlink:title="Arguments for video source error event from video source.">
<polygon fill="#999999" stroke="none" points="146,-75 0,-75 0,0 146,0 146,-75"/>
<text text-anchor="start" x="14.12" y="-61.5" font-family="Helvetica,sans-Serif" font-size="10.00">AForge.Video.VideoSource</text>
<text text-anchor="start" x="39.62" y="-50.25" font-family="Helvetica,sans-Serif" font-size="10.00">ErrorEventArgs</text>
<text text-anchor="start" x="4" y="-35.5" font-family="Helvetica,sans-Serif" font-size="10.00">+</text>
<text text-anchor="start" x="14" y="-35.5" font-family="Helvetica,sans-Serif" font-size="10.00">Description</text>
<text text-anchor="start" x="5.5" y="-20.5" font-family="Helvetica,sans-Serif" font-size="10.00">&#45;</text>
<text text-anchor="start" x="14" y="-20.5" font-family="Helvetica,sans-Serif" font-size="10.00">description</text>
<text text-anchor="start" x="4" y="-5.5" font-family="Helvetica,sans-Serif" font-size="10.00">+</text>
<text text-anchor="start" x="14" y="-5.5" font-family="Helvetica,sans-Serif" font-size="10.00">VideoSourceErrorEventArgs()</text>
<polygon fill="#666666" stroke="#666666" points="0,-47 0,-47 146,-47 146,-47 0,-47"/>
<polygon fill="#666666" stroke="#666666" points="0,-17 0,-17 12,-17 12,-17 0,-17"/>
<polygon fill="#666666" stroke="#666666" points="12,-17 12,-17 146,-17 146,-17 12,-17"/>
<polygon fill="none" stroke="#666666" points="0,0 0,-75 146,-75 146,0 0,0"/>
</a>
</g>
</g>
<!-- Node2 -->
<g id="Node000002" class="node">
<title>Node2</title>
<g id="a_Node000002"><a xlink:href="class_event_args.html" target="_top" xlink:title=" ">
<polygon fill="white" stroke="none" points="100.5,-160 45.5,-160 45.5,-111 100.5,-111 100.5,-160"/>
<text text-anchor="start" x="50.12" y="-146.5" font-family="Helvetica,sans-Serif" font-size="10.00">EventArgs</text>
<text text-anchor="start" x="71.5" y="-131.5" font-family="Helvetica,sans-Serif" font-size="10.00"> </text>
<text text-anchor="start" x="71.5" y="-116.5" font-family="Helvetica,sans-Serif" font-size="10.00"> </text>
<polygon fill="#666666" stroke="#666666" points="45.5,-143 45.5,-143 100.5,-143 100.5,-143 45.5,-143"/>
<polygon fill="#666666" stroke="#666666" points="45.5,-128 45.5,-128 100.5,-128 100.5,-128 45.5,-128"/>
<polygon fill="none" stroke="#666666" points="45.5,-111 45.5,-160 100.5,-160 100.5,-111 45.5,-111"/>
</a>
</g>
</g>
<!-- Node2&#45;&gt;Node1 -->
<g id="edge1_Node000001_Node000002" class="edge">
<title>Node2&#45;&gt;Node1</title>
<g id="a_edge1_Node000001_Node000002"><a xlink:title=" ">
<path fill="none" stroke="#63b8ff" d="M73,-99.8C73,-91.62 73,-82.88 73,-74.64"/>
<polygon fill="none" stroke="#63b8ff" points="69.5,-99.75 73,-109.75 76.5,-99.75 69.5,-99.75"/>
</a>
</g>
</g>
</g>
</svg>
