<?xml version="1.0" encoding="UTF-8" standalone="no"?>
<!DOCTYPE svg PUBLIC "-//W3C//DTD SVG 1.1//EN"
 "http://www.w3.org/Graphics/SVG/1.1/DTD/svg11.dtd">
<!-- Generated by graphviz version 10.0.1 (20240210.2158)
 -->
<!-- Title: NAudio.Wave.MediaFoundationReader.MediaFoundationReader Pages: 1 -->
<!--zoomable 478 -->

<svg id="main" version="1.1" xmlns="http://www.w3.org/2000/svg" xmlns:xlink="http://www.w3.org/1999/xlink" xml:space="preserve" onload="init(evt)">
<style type="text/css"><![CDATA[
.node, .edge {opacity: 0.7;}
.node.selected, .edge.selected {opacity: 1;}
.edge:hover path { stroke: red; }
.edge:hover polygon { stroke: red; fill: red; }
]]></style>

<defs>
  <circle id="rim" cx="0" cy="0" r="7"/>
  <circle id="rim2" cx="0" cy="0" r="3.5"/>
  <g id="zoomPlus">
    <use xlink:href="#rim" fill="#404040"><set attributeName="fill" to="#808080" begin="zoomplus.mouseover" end="zoomplus.mouseout"/></use>
    <path d="M-4,0h8M0,-4v8" fill="none" stroke="white" stroke-width="1.5" pointer-events="none"/>
  </g>
  <g id="zoomMin">
    <use xlink:href="#rim" fill="#404040"><set attributeName="fill" to="#808080" begin="zoomminus.mouseover" end="zoomminus.mouseout"/></use>
    <path d="M-4,0h8" fill="none" stroke="white" stroke-width="1.5" pointer-events="none"/>
  </g>
  <g id="arrowUp" transform="translate(30 24)">
    <use xlink:href="#rim"/>
    <path pointer-events="none" fill="none" stroke="white" stroke-width="1.5" d="M0,-3.0v7 M-2.5,-0.5L0,-3.0L2.5,-0.5"/>
  </g>
  <g id="arrowRight" transform="rotate(90) translate(36 -43)">
    <use xlink:href="#rim"/>
    <path pointer-events="none" fill="none" stroke="white" stroke-width="1.5" d="M0,-3.0v7 M-2.5,-0.5L0,-3.0L2.5,-0.5"/>
  </g>
  <g id="arrowDown" transform="rotate(180) translate(-30 -48)">
    <use xlink:href="#rim"/>
    <path pointer-events="none" fill="none" stroke="white" stroke-width="1.5" d="M0,-3.0v7 M-2.5,-0.5L0,-3.0L2.5,-0.5"/>
  </g>
  <g id="arrowLeft" transform="rotate(270) translate(-36 17)">
    <use xlink:href="#rim"/>
    <path pointer-events="none" fill="none" stroke="white" stroke-width="1.5" d="M0,-3.0v7 M-2.5,-0.5L0,-3.0L2.5,-0.5"/>
  </g>
  <g id="resetDef">
    <use xlink:href="#rim2" fill="#404040"><set attributeName="fill" to="#808080" begin="reset.mouseover" end="reset.mouseout"/></use>
  </g>
</defs>
<script type="application/ecmascript">
var viewWidth = 969;
var viewHeight = 478;
var sectionId = 'dynsection-2';
</script>
<script type="application/ecmascript" xlink:href="svg.min.js"/>
<svg id="graph" class="graph">
<g id="viewport">
<title>NAudio.Wave.MediaFoundationReader.MediaFoundationReader</title>
<!-- Node1 -->
<g id="Node000001" class="node">
<title>Node1</title>
<g id="a_Node000001"><a xlink:title="Creates a new MediaFoundationReader based on the supplied file.">
<polygon fill="#999999" stroke="#666666" points="155.5,-177.5 0,-177.5 0,-147 155.5,-147 155.5,-177.5"/>
<text text-anchor="start" x="8" y="-164" font-family="Helvetica,sans-Serif" font-size="10.00">NAudio.Wave.MediaFoundation</text>
<text text-anchor="middle" x="77.75" y="-152.75" font-family="Helvetica,sans-Serif" font-size="10.00">Reader.MediaFoundationReader</text>
</a>
</g>
</g>
<!-- Node2 -->
<g id="Node000002" class="node">
<title>Node2</title>
<g id="a_Node000002"><a xlink:href="class_n_audio_1_1_wave_1_1_media_foundation_reader.html#a030e2baaaa4d3a16ebe5430fdc06332f" target="_top" xlink:title="Initializes the MediaFoundationReader with the specified settings.">
<polygon fill="white" stroke="#666666" points="344.75,-177.5 191.5,-177.5 191.5,-147 344.75,-147 344.75,-177.5"/>
<text text-anchor="start" x="199.5" y="-164" font-family="Helvetica,sans-Serif" font-size="10.00">NAudio.Wave.MediaFoundation</text>
<text text-anchor="middle" x="268.12" y="-152.75" font-family="Helvetica,sans-Serif" font-size="10.00">Reader.Init</text>
</a>
</g>
</g>
<!-- Node1&#45;&gt;Node2 -->
<g id="edge1_Node000001_Node000002" class="edge">
<title>Node1&#45;&gt;Node2</title>
<g id="a_edge1_Node000001_Node000002"><a xlink:title=" ">
<path fill="none" stroke="#63b8ff" d="M155.91,-162.25C163.85,-162.25 171.96,-162.25 180,-162.25"/>
<polygon fill="#63b8ff" stroke="#63b8ff" points="179.79,-165.75 189.79,-162.25 179.79,-158.75 179.79,-165.75"/>
</a>
</g>
</g>
<!-- Node3 -->
<g id="Node000003" class="node">
<title>Node3</title>
<g id="a_Node000003"><a xlink:href="class_n_audio_1_1_wave_1_1_media_foundation_reader.html#a545925036e89d986fb8b2e7c873b07ed" target="_top" xlink:title="Creates a Media Foundation source reader with the specified settings.">
<polygon fill="white" stroke="#666666" points="534.75,-361.5 381.5,-361.5 381.5,-331 534.75,-331 534.75,-361.5"/>
<text text-anchor="start" x="389.5" y="-348" font-family="Helvetica,sans-Serif" font-size="10.00">NAudio.Wave.MediaFoundation</text>
<text text-anchor="middle" x="458.12" y="-336.75" font-family="Helvetica,sans-Serif" font-size="10.00">Reader.CreateReader</text>
</a>
</g>
</g>
<!-- Node2&#45;&gt;Node3 -->
<g id="edge2_Node000002_Node000003" class="edge">
<title>Node2&#45;&gt;Node3</title>
<g id="a_edge2_Node000002_Node000003"><a xlink:title=" ">
<path fill="none" stroke="#63b8ff" d="M285.15,-177.94C318.17,-210.26 393.95,-284.42 432.95,-322.59"/>
<polygon fill="#63b8ff" stroke="#63b8ff" points="430.46,-325.05 440.06,-329.54 435.36,-320.05 430.46,-325.05"/>
</a>
</g>
</g>
<!-- Node9 -->
<g id="Node000009" class="node">
<title>Node9</title>
<g id="a_Node000009"><a xlink:href="class_n_audio_1_1_wave_1_1_media_foundation_reader.html#aaa3e900d0b52b1ab72e069196676e99e" target="_top" xlink:title="Retrieves the current wave format from the specified IMFSourceReader.">
<polygon fill="white" stroke="#666666" points="534.75,-202.5 381.5,-202.5 381.5,-172 534.75,-172 534.75,-202.5"/>
<text text-anchor="start" x="389.5" y="-189" font-family="Helvetica,sans-Serif" font-size="10.00">NAudio.Wave.MediaFoundation</text>
<text text-anchor="middle" x="458.12" y="-177.75" font-family="Helvetica,sans-Serif" font-size="10.00">Reader.GetCurrentWaveFormat</text>
</a>
</g>
</g>
<!-- Node2&#45;&gt;Node9 -->
<g id="edge8_Node000002_Node000009" class="edge">
<title>Node2&#45;&gt;Node9</title>
<g id="a_edge8_Node000002_Node000009"><a xlink:title=" ">
<path fill="none" stroke="#63b8ff" d="M345.05,-172.35C353.25,-173.44 361.63,-174.55 369.95,-175.66"/>
<polygon fill="#63b8ff" stroke="#63b8ff" points="369.35,-179.11 379.72,-176.96 370.27,-172.17 369.35,-179.11"/>
</a>
</g>
</g>
<!-- Node13 -->
<g id="Node000013" class="node">
<title>Node13</title>
<g id="a_Node000013"><a xlink:href="class_n_audio_1_1_wave_1_1_media_foundation_reader.html#aec0b9df0bfcef23ad09d66c288ff2d67" target="_top" xlink:title="Gets the length of the media source in bytes.">
<polygon fill="white" stroke="#666666" points="534.75,-128.5 381.5,-128.5 381.5,-98 534.75,-98 534.75,-128.5"/>
<text text-anchor="start" x="389.5" y="-115" font-family="Helvetica,sans-Serif" font-size="10.00">NAudio.Wave.MediaFoundation</text>
<text text-anchor="middle" x="458.12" y="-103.75" font-family="Helvetica,sans-Serif" font-size="10.00">Reader.GetLength</text>
</a>
</g>
</g>
<!-- Node2&#45;&gt;Node13 -->
<g id="edge13_Node000002_Node000013" class="edge">
<title>Node2&#45;&gt;Node13</title>
<g id="a_edge13_Node000002_Node000013"><a xlink:title=" ">
<path fill="none" stroke="#63b8ff" d="M329.39,-146.54C347.35,-141.86 367.2,-136.69 385.8,-131.84"/>
<polygon fill="#63b8ff" stroke="#63b8ff" points="386.63,-135.24 395.42,-129.33 384.86,-128.47 386.63,-135.24"/>
</a>
</g>
</g>
<!-- Node16 -->
<g id="Node000016" class="node">
<title>Node16</title>
<g id="a_Node000016"><a xlink:href="class_n_audio_1_1_media_foundation_1_1_media_foundation_api.html#a64dbbb824199204c5a8cf57515732a0f" target="_top" xlink:title="Initializes the Media Foundation platform if not already initialized.">
<polygon fill="white" stroke="#666666" points="535.5,-55.5 380.75,-55.5 380.75,-25 535.5,-25 535.5,-55.5"/>
<text text-anchor="start" x="388.75" y="-42" font-family="Helvetica,sans-Serif" font-size="10.00">NAudio.MediaFoundation.Media</text>
<text text-anchor="middle" x="458.12" y="-30.75" font-family="Helvetica,sans-Serif" font-size="10.00">FoundationApi.Startup</text>
</a>
</g>
</g>
<!-- Node2&#45;&gt;Node16 -->
<g id="edge16_Node000002_Node000016" class="edge">
<title>Node2&#45;&gt;Node16</title>
<g id="a_edge16_Node000002_Node000016"><a xlink:title=" ">
<path fill="none" stroke="#63b8ff" d="M293.04,-146.53C315.61,-131.7 350.43,-108.89 380.75,-89.25 394.55,-80.31 409.8,-70.51 423.02,-62.04"/>
<polygon fill="#63b8ff" stroke="#63b8ff" points="424.86,-65.02 431.39,-56.68 421.09,-59.12 424.86,-65.02"/>
</a>
</g>
</g>
<!-- Node4 -->
<g id="Node000004" class="node">
<title>Node4</title>
<g id="a_Node000004"><a xlink:href="class_n_audio_1_1_wave_1_1_media_foundation_reader.html#af100e70d37e5e06dc98c12438a97ef95" target="_top" xlink:title="Retrieves the current media type of the specified IMFSourceReader.">
<polygon fill="white" stroke="#666666" points="736.38,-469.5 583.12,-469.5 583.12,-439 736.38,-439 736.38,-469.5"/>
<text text-anchor="start" x="591.12" y="-456" font-family="Helvetica,sans-Serif" font-size="10.00">NAudio.Wave.MediaFoundation</text>
<text text-anchor="middle" x="659.75" y="-444.75" font-family="Helvetica,sans-Serif" font-size="10.00">Reader.GetCurrentMediaType</text>
</a>
</g>
</g>
<!-- Node3&#45;&gt;Node4 -->
<g id="edge3_Node000003_Node000004" class="edge">
<title>Node3&#45;&gt;Node4</title>
<g id="a_edge3_Node000003_Node000004"><a xlink:title=" ">
<path fill="none" stroke="#63b8ff" d="M475.69,-361.83C496.52,-380.61 534.09,-411.94 571.5,-430.25 574.58,-431.76 577.76,-433.18 581.01,-434.52"/>
<polygon fill="#63b8ff" stroke="#63b8ff" points="579.58,-437.72 590.17,-438.01 582.07,-431.18 579.58,-437.72"/>
</a>
</g>
</g>
<!-- Node6 -->
<g id="Node000006" class="node">
<title>Node6</title>
<g id="a_Node000006"><a xlink:href="class_n_audio_1_1_media_foundation_1_1_media_foundation_interop.html#a6ab02f16483d543c14965fa4cead64b0" target="_top" xlink:title="Creates a source reader from the specified URL.">
<polygon fill="white" stroke="#666666" points="745.38,-421.12 574.12,-421.12 574.12,-379.38 745.38,-379.38 745.38,-421.12"/>
<text text-anchor="start" x="582.12" y="-407.62" font-family="Helvetica,sans-Serif" font-size="10.00">NAudio.MediaFoundation.Media</text>
<text text-anchor="start" x="582.12" y="-396.38" font-family="Helvetica,sans-Serif" font-size="10.00">FoundationInterop.MFCreateSource</text>
<text text-anchor="middle" x="659.75" y="-385.12" font-family="Helvetica,sans-Serif" font-size="10.00">ReaderFromURL</text>
</a>
</g>
</g>
<!-- Node3&#45;&gt;Node6 -->
<g id="edge5_Node000003_Node000006" class="edge">
<title>Node3&#45;&gt;Node6</title>
<g id="a_edge5_Node000003_Node000006"><a xlink:title=" ">
<path fill="none" stroke="#63b8ff" d="M517.13,-361.94C533.34,-366.33 551.34,-371.19 568.92,-375.95"/>
<polygon fill="#63b8ff" stroke="#63b8ff" points="567.77,-379.26 578.34,-378.5 569.6,-372.51 567.77,-379.26"/>
</a>
</g>
</g>
<!-- Node7 -->
<g id="Node000007" class="node">
<title>Node7</title>
<g id="a_Node000007"><a xlink:href="interface_n_audio_1_1_media_foundation_1_1_i_m_f_source_reader.html#a5b00b00820c7ac4618200172d47b5f1f" target="_top" xlink:title="Sets the media type for a stream.">
<polygon fill="white" stroke="#666666" points="748,-361.5 571.5,-361.5 571.5,-331 748,-331 748,-361.5"/>
<text text-anchor="start" x="579.5" y="-348" font-family="Helvetica,sans-Serif" font-size="10.00">NAudio.MediaFoundation.IMFSource</text>
<text text-anchor="middle" x="659.75" y="-336.75" font-family="Helvetica,sans-Serif" font-size="10.00">Reader.SetCurrentMediaType</text>
</a>
</g>
</g>
<!-- Node3&#45;&gt;Node7 -->
<g id="edge6_Node000003_Node000007" class="edge">
<title>Node3&#45;&gt;Node7</title>
<g id="a_edge6_Node000003_Node000007"><a xlink:title=" ">
<path fill="none" stroke="#63b8ff" d="M535.16,-346.25C543.27,-346.25 551.6,-346.25 559.92,-346.25"/>
<polygon fill="#63b8ff" stroke="#63b8ff" points="559.72,-349.75 569.72,-346.25 559.72,-342.75 559.72,-349.75"/>
</a>
</g>
</g>
<!-- Node8 -->
<g id="Node000008" class="node">
<title>Node8</title>
<g id="a_Node000008"><a xlink:href="interface_n_audio_1_1_media_foundation_1_1_i_m_f_source_reader.html#a898cb9f72e0a0a5ea26cdc7f429ebeb9" target="_top" xlink:title="Selects or deselects one or more streams.">
<polygon fill="white" stroke="#666666" points="748,-312.5 571.5,-312.5 571.5,-282 748,-282 748,-312.5"/>
<text text-anchor="start" x="579.5" y="-299" font-family="Helvetica,sans-Serif" font-size="10.00">NAudio.MediaFoundation.IMFSource</text>
<text text-anchor="middle" x="659.75" y="-287.75" font-family="Helvetica,sans-Serif" font-size="10.00">Reader.SetStreamSelection</text>
</a>
</g>
</g>
<!-- Node3&#45;&gt;Node8 -->
<g id="edge7_Node000003_Node000008" class="edge">
<title>Node3&#45;&gt;Node8</title>
<g id="a_edge7_Node000003_Node000008"><a xlink:title=" ">
<path fill="none" stroke="#63b8ff" d="M523.11,-330.54C542.45,-325.8 563.86,-320.54 583.85,-315.64"/>
<polygon fill="#63b8ff" stroke="#63b8ff" points="584.44,-319.1 593.31,-313.31 582.77,-312.3 584.44,-319.1"/>
</a>
</g>
</g>
<!-- Node5 -->
<g id="Node000005" class="node">
<title>Node5</title>
<g id="a_Node000005"><a xlink:href="interface_n_audio_1_1_media_foundation_1_1_i_m_f_source_reader.html#a0e3bd0837ba349cde674dc590edd19f8" target="_top" xlink:title="Gets the current media type for a stream.">
<polygon fill="white" stroke="#666666" points="960.5,-372.5 784,-372.5 784,-342 960.5,-342 960.5,-372.5"/>
<text text-anchor="start" x="792" y="-359" font-family="Helvetica,sans-Serif" font-size="10.00">NAudio.MediaFoundation.IMFSource</text>
<text text-anchor="middle" x="872.25" y="-347.75" font-family="Helvetica,sans-Serif" font-size="10.00">Reader.GetCurrentMediaType</text>
</a>
</g>
</g>
<!-- Node4&#45;&gt;Node5 -->
<g id="edge4_Node000004_Node000005" class="edge">
<title>Node4&#45;&gt;Node5</title>
<g id="a_edge4_Node000004_Node000005"><a xlink:title=" ">
<path fill="none" stroke="#63b8ff" d="M725.27,-438.6C733.04,-436.11 740.77,-433.32 748,-430.25 780.79,-416.32 815.48,-395.12 839.67,-379.15"/>
<polygon fill="#63b8ff" stroke="#63b8ff" points="841.42,-382.19 847.79,-373.72 837.53,-376.37 841.42,-382.19"/>
</a>
</g>
</g>
<!-- Node9&#45;&gt;Node5 -->
<g id="edge12_Node000009_Node000005" class="edge">
<title>Node9&#45;&gt;Node5</title>
<g id="a_edge12_Node000009_Node000005"><a xlink:title=" ">
<path fill="none" stroke="#63b8ff" d="M490.96,-202.79C513.12,-213.12 543.6,-226.38 571.5,-235.25 647.97,-259.57 674.25,-241.62 748,-273.25 784.14,-288.75 820.77,-315.41 844.59,-334.55"/>
<polygon fill="#63b8ff" stroke="#63b8ff" points="842.24,-337.15 852.2,-340.77 846.67,-331.73 842.24,-337.15"/>
</a>
</g>
</g>
<!-- Node10 -->
<g id="Node000010" class="node">
<title>Node10</title>
<g id="a_Node000010"><a xlink:href="class_n_audio_1_1_wave_1_1_wave_format.html#a2dd0e9ea4097e54981725d6ad7c3290d" target="_top" xlink:title="Creates a new IEEE float wave format with the specified sample rate and number of channels.">
<polygon fill="white" stroke="#666666" points="743.12,-226.5 576.38,-226.5 576.38,-196 743.12,-196 743.12,-226.5"/>
<text text-anchor="start" x="584.38" y="-213" font-family="Helvetica,sans-Serif" font-size="10.00">NAudio.Wave.WaveFormat.Create</text>
<text text-anchor="middle" x="659.75" y="-201.75" font-family="Helvetica,sans-Serif" font-size="10.00">IeeeFloatWaveFormat</text>
</a>
</g>
</g>
<!-- Node9&#45;&gt;Node10 -->
<g id="edge9_Node000009_Node000010" class="edge">
<title>Node9&#45;&gt;Node10</title>
<g id="a_edge9_Node000009_Node000010"><a xlink:title=" ">
<path fill="none" stroke="#63b8ff" d="M535.16,-196.39C544.85,-197.56 554.85,-198.76 564.78,-199.95"/>
<polygon fill="#63b8ff" stroke="#63b8ff" points="564.09,-203.39 574.43,-201.11 564.92,-196.44 564.09,-203.39"/>
</a>
</g>
</g>
<!-- Node12 -->
<g id="Node000012" class="node">
<title>Node12</title>
<g id="a_Node000012"><a xlink:href="class_n_audio_1_1_utils_1_1_field_description_helper.html#a168ee1e61eb75be5fe4641c4533c6207" target="_top" xlink:title="Describes the specified type and GUID by retrieving the description from the FieldDescriptionAttribut...">
<polygon fill="white" stroke="#666666" points="732.25,-177.5 587.25,-177.5 587.25,-147 732.25,-147 732.25,-177.5"/>
<text text-anchor="start" x="595.25" y="-164" font-family="Helvetica,sans-Serif" font-size="10.00">NAudio.Utils.FieldDescription</text>
<text text-anchor="middle" x="659.75" y="-152.75" font-family="Helvetica,sans-Serif" font-size="10.00">Helper.Describe</text>
</a>
</g>
</g>
<!-- Node9&#45;&gt;Node12 -->
<g id="edge11_Node000009_Node000012" class="edge">
<title>Node9&#45;&gt;Node12</title>
<g id="a_edge11_Node000009_Node000012"><a xlink:title=" ">
<path fill="none" stroke="#63b8ff" d="M535.16,-177.73C548.42,-176.07 562.27,-174.33 575.7,-172.65"/>
<polygon fill="#63b8ff" stroke="#63b8ff" points="575.88,-176.16 585.37,-171.44 575.01,-169.21 575.88,-176.16"/>
</a>
</g>
</g>
<!-- Node11 -->
<g id="Node000011" class="node">
<title>Node11</title>
<g id="a_Node000011"><a xlink:href="class_n_audio_1_1_wave_1_1_wave_format.html#a9efee93326fe1770b4e474c7afa3dc72" target="_top" xlink:title="Creates a new PCM 44.1Khz stereo 16 bit format.">
<polygon fill="white" stroke="#666666" points="953.38,-226.5 791.12,-226.5 791.12,-196 953.38,-196 953.38,-226.5"/>
<text text-anchor="start" x="799.12" y="-213" font-family="Helvetica,sans-Serif" font-size="10.00">NAudio.Wave.WaveFormat.Wave</text>
<text text-anchor="middle" x="872.25" y="-201.75" font-family="Helvetica,sans-Serif" font-size="10.00">Format</text>
</a>
</g>
</g>
<!-- Node10&#45;&gt;Node11 -->
<g id="edge10_Node000010_Node000011" class="edge">
<title>Node10&#45;&gt;Node11</title>
<g id="a_edge10_Node000010_Node000011"><a xlink:title=" ">
<path fill="none" stroke="#63b8ff" d="M743.34,-211.25C755.21,-211.25 767.49,-211.25 779.52,-211.25"/>
<polygon fill="#63b8ff" stroke="#63b8ff" points="779.45,-214.75 789.45,-211.25 779.45,-207.75 779.45,-214.75"/>
</a>
</g>
</g>
<!-- Node14 -->
<g id="Node000014" class="node">
<title>Node14</title>
<g id="a_Node000014"><a xlink:href="struct_n_audio_1_1_core_audio_api_1_1_interfaces_1_1_prop_variant.html#a70608f457331ee21beb67258f2f53315" target="_top" xlink:title="Clears with a known pointer.">
<polygon fill="white" stroke="#666666" points="740.12,-128.5 579.38,-128.5 579.38,-98 740.12,-98 740.12,-128.5"/>
<text text-anchor="start" x="587.38" y="-115" font-family="Helvetica,sans-Serif" font-size="10.00">NAudio.CoreAudioApi.Interfaces.</text>
<text text-anchor="middle" x="659.75" y="-103.75" font-family="Helvetica,sans-Serif" font-size="10.00">PropVariant.Clear</text>
</a>
</g>
</g>
<!-- Node13&#45;&gt;Node14 -->
<g id="edge14_Node000013_Node000014" class="edge">
<title>Node13&#45;&gt;Node14</title>
<g id="a_edge14_Node000013_Node000014"><a xlink:title=" ">
<path fill="none" stroke="#63b8ff" d="M535.16,-113.25C545.8,-113.25 556.81,-113.25 567.68,-113.25"/>
<polygon fill="#63b8ff" stroke="#63b8ff" points="567.43,-116.75 577.43,-113.25 567.43,-109.75 567.43,-116.75"/>
</a>
</g>
</g>
<!-- Node15 -->
<g id="Node000015" class="node">
<title>Node15</title>
<g id="a_Node000015"><a xlink:href="interface_n_audio_1_1_media_foundation_1_1_i_m_f_source_reader.html#adb0c62b11e936e200027f81192c730a3" target="_top" xlink:title="Gets an attribute from the underlying media source.">
<polygon fill="white" stroke="#666666" points="748,-79.5 571.5,-79.5 571.5,-49 748,-49 748,-79.5"/>
<text text-anchor="start" x="579.5" y="-66" font-family="Helvetica,sans-Serif" font-size="10.00">NAudio.MediaFoundation.IMFSource</text>
<text text-anchor="middle" x="659.75" y="-54.75" font-family="Helvetica,sans-Serif" font-size="10.00">Reader.GetPresentationAttribute</text>
</a>
</g>
</g>
<!-- Node13&#45;&gt;Node15 -->
<g id="edge15_Node000013_Node000015" class="edge">
<title>Node13&#45;&gt;Node15</title>
<g id="a_edge15_Node000013_Node000015"><a xlink:title=" ">
<path fill="none" stroke="#63b8ff" d="M523.11,-97.54C542.45,-92.8 563.86,-87.54 583.85,-82.64"/>
<polygon fill="#63b8ff" stroke="#63b8ff" points="584.44,-86.1 593.31,-80.31 582.77,-79.3 584.44,-86.1"/>
</a>
</g>
</g>
<!-- Node17 -->
<g id="Node000017" class="node">
<title>Node17</title>
<g id="a_Node000017"><a xlink:href="class_n_audio_1_1_media_foundation_1_1_media_foundation_interop.html#a97a12e88647b8859903e5be40b3c6b1c" target="_top" xlink:title="Initializes the Media Foundation platform.">
<polygon fill="white" stroke="#666666" points="737.12,-30.5 582.38,-30.5 582.38,0 737.12,0 737.12,-30.5"/>
<text text-anchor="start" x="590.38" y="-17" font-family="Helvetica,sans-Serif" font-size="10.00">NAudio.MediaFoundation.Media</text>
<text text-anchor="middle" x="659.75" y="-5.75" font-family="Helvetica,sans-Serif" font-size="10.00">FoundationInterop.MFStartup</text>
</a>
</g>
</g>
<!-- Node16&#45;&gt;Node17 -->
<g id="edge17_Node000016_Node000017" class="edge">
<title>Node16&#45;&gt;Node17</title>
<g id="a_edge17_Node000016_Node000017"><a xlink:title=" ">
<path fill="none" stroke="#63b8ff" d="M535.73,-30.66C547.23,-29.22 559.17,-27.72 570.88,-26.25"/>
<polygon fill="#63b8ff" stroke="#63b8ff" points="571.03,-29.76 580.51,-25.05 570.16,-22.82 571.03,-29.76"/>
</a>
</g>
</g>
</g>
</svg>

<g id="navigator" transform="translate(0 0)" fill="#404254">
  <rect fill="#f2f5e9" fill-opacity="0.5" stroke="#606060" stroke-width=".5" x="0" y="0" width="60" height="60"/>
  <use id="zoomplus" xlink:href="#zoomPlus" x="17" y="9" onmousedown="handleZoom(evt,'in')"/>
  <use id="zoomminus" xlink:href="#zoomMin" x="42" y="9" onmousedown="handleZoom(evt,'out')"/>
  <use id="reset" xlink:href="#resetDef" x="30" y="36" onmousedown="handleReset()"/>
   <use id="arrowup" xlink:href="#arrowUp" x="0" y="0" onmousedown="handlePan(0,-1)"/>
  <use id="arrowright" xlink:href="#arrowRight" x="0" y="0" onmousedown="handlePan(1,0)"/>
  <use id="arrowdown" xlink:href="#arrowDown" x="0" y="0" onmousedown="handlePan(0,1)"/>
  <use id="arrowleft" xlink:href="#arrowLeft" x="0" y="0" onmousedown="handlePan(-1,0)"/>
</g>
<svg viewBox="0 0 15 15" width="100%" height="30px" preserveAspectRatio="xMaxYMin meet">
 <g id="arrow_out" transform="scale(0.3 0.3)">
  <a xlink:href="class_n_audio_1_1_wave_1_1_media_foundation_reader_a478c60af06406213cd899a93ec6c51ab_cgraph_org.svg" target="_base">
   <rect id="button" ry="5" rx="5" y="6" x="6" height="38" width="38"
        fill="#f2f5e9" fill-opacity="0.5" stroke="#606060" stroke-width="1.0"/>
   <path id="arrow"
     d="M 11.500037,31.436501 C 11.940474,20.09759 22.043105,11.32322 32.158766,21.979434 L 37.068811,17.246167 C 37.068811,17.246167 37.088388,32 37.088388,32 L 22.160133,31.978069 C 22.160133,31.978069 26.997745,27.140456 26.997745,27.140456 C 18.528582,18.264221 13.291696,25.230495 11.500037,31.436501 z"
     style="fill:#404040;"/>
  </a>
 </g>
</svg>

<style type='text/css'>
<![CDATA[
[data-mouse-over-selected='false'] { opacity: 0.7; }
[data-mouse-over-selected='true']  { opacity: 1.0; }
]]>
</style>
<script type="application/ecmascript"><![CDATA[
document.addEventListener('DOMContentLoaded', (event) => {
  highlightEdges();
  highlightAdjacentNodes();
});
]]></script>
</svg>
