<?xml version="1.0" encoding="UTF-8" standalone="no"?>
<!DOCTYPE svg PUBLIC "-//W3C//DTD SVG 1.1//EN"
 "http://www.w3.org/Graphics/SVG/1.1/DTD/svg11.dtd">
<!-- Generated by graphviz version 10.0.1 (20240210.2158)
 -->
<!-- Title: NAudio.Wave.Compression.AcmDriver.DriverEnumCallback Pages: 1 -->
<!--zoomable 76 -->

<svg id="main" version="1.1" xmlns="http://www.w3.org/2000/svg" xmlns:xlink="http://www.w3.org/1999/xlink" xml:space="preserve" onload="init(evt)">
<style type="text/css"><![CDATA[
.node, .edge {opacity: 0.7;}
.node.selected, .edge.selected {opacity: 1;}
.edge:hover path { stroke: red; }
.edge:hover polygon { stroke: red; fill: red; }
]]></style>

<defs>
  <circle id="rim" cx="0" cy="0" r="7"/>
  <circle id="rim2" cx="0" cy="0" r="3.5"/>
  <g id="zoomPlus">
    <use xlink:href="#rim" fill="#404040"><set attributeName="fill" to="#808080" begin="zoomplus.mouseover" end="zoomplus.mouseout"/></use>
    <path d="M-4,0h8M0,-4v8" fill="none" stroke="white" stroke-width="1.5" pointer-events="none"/>
  </g>
  <g id="zoomMin">
    <use xlink:href="#rim" fill="#404040"><set attributeName="fill" to="#808080" begin="zoomminus.mouseover" end="zoomminus.mouseout"/></use>
    <path d="M-4,0h8" fill="none" stroke="white" stroke-width="1.5" pointer-events="none"/>
  </g>
  <g id="arrowUp" transform="translate(30 24)">
    <use xlink:href="#rim"/>
    <path pointer-events="none" fill="none" stroke="white" stroke-width="1.5" d="M0,-3.0v7 M-2.5,-0.5L0,-3.0L2.5,-0.5"/>
  </g>
  <g id="arrowRight" transform="rotate(90) translate(36 -43)">
    <use xlink:href="#rim"/>
    <path pointer-events="none" fill="none" stroke="white" stroke-width="1.5" d="M0,-3.0v7 M-2.5,-0.5L0,-3.0L2.5,-0.5"/>
  </g>
  <g id="arrowDown" transform="rotate(180) translate(-30 -48)">
    <use xlink:href="#rim"/>
    <path pointer-events="none" fill="none" stroke="white" stroke-width="1.5" d="M0,-3.0v7 M-2.5,-0.5L0,-3.0L2.5,-0.5"/>
  </g>
  <g id="arrowLeft" transform="rotate(270) translate(-36 17)">
    <use xlink:href="#rim"/>
    <path pointer-events="none" fill="none" stroke="white" stroke-width="1.5" d="M0,-3.0v7 M-2.5,-0.5L0,-3.0L2.5,-0.5"/>
  </g>
  <g id="resetDef">
    <use xlink:href="#rim2" fill="#404040"><set attributeName="fill" to="#808080" begin="reset.mouseover" end="reset.mouseout"/></use>
  </g>
</defs>
<script type="application/ecmascript">
var viewWidth = 730;
var viewHeight = 76;
var sectionId = 'dynsection-9';
</script>
<script type="application/ecmascript" xlink:href="svg.min.js"/>
<svg id="graph" class="graph">
<g id="viewport">
<title>NAudio.Wave.Compression.AcmDriver.DriverEnumCallback</title>
<!-- Node1 -->
<g id="Node000001" class="node">
<title>Node1</title>
<g id="a_Node000001"><a xlink:title="Callback function for enumerating ACM drivers.">
<polygon fill="#999999" stroke="#666666" points="154.75,-45.88 0,-45.88 0,-15.37 154.75,-15.37 154.75,-45.88"/>
<text text-anchor="start" x="8" y="-32.38" font-family="Helvetica,sans-Serif" font-size="10.00">NAudio.Wave.Compression.</text>
<text text-anchor="middle" x="77.38" y="-21.12" font-family="Helvetica,sans-Serif" font-size="10.00">AcmDriver.DriverEnumCallback</text>
</a>
</g>
</g>
<!-- Node2 -->
<g id="Node000002" class="node">
<title>Node2</title>
<g id="a_Node000002"><a xlink:href="class_n_audio_1_1_wave_1_1_compression_1_1_acm_driver.html#aa4d323709deb552385d8c28c195ceb01" target="_top" xlink:title="Creates a new ACM Driver object.">
<polygon fill="white" stroke="#666666" points="330.5,-45.88 190.75,-45.88 190.75,-15.37 330.5,-15.37 330.5,-45.88"/>
<text text-anchor="start" x="198.75" y="-32.38" font-family="Helvetica,sans-Serif" font-size="10.00">NAudio.Wave.Compression.</text>
<text text-anchor="middle" x="260.62" y="-21.12" font-family="Helvetica,sans-Serif" font-size="10.00">AcmDriver.AcmDriver</text>
</a>
</g>
</g>
<!-- Node1&#45;&gt;Node2 -->
<g id="edge1_Node000001_Node000002" class="edge">
<title>Node1&#45;&gt;Node2</title>
<g id="a_edge1_Node000001_Node000002"><a xlink:title=" ">
<path fill="none" stroke="#63b8ff" d="M155.24,-30.62C163.09,-30.62 171.07,-30.62 178.95,-30.62"/>
<polygon fill="#63b8ff" stroke="#63b8ff" points="178.89,-34.13 188.89,-30.63 178.89,-27.13 178.89,-34.13"/>
</a>
</g>
</g>
<!-- Node3 -->
<g id="Node000003" class="node">
<title>Node3</title>
<g id="a_Node000003"><a xlink:href="class_n_audio_1_1_wave_1_1_compression_1_1_acm_interop.html#a274a894b0cc0ec82be0cfd6b620d41a6" target="_top" xlink:title="Retrieves details about an Audio Compression Manager (ACM) driver.">
<polygon fill="white" stroke="#666666" points="511.5,-67.88 366.5,-67.88 366.5,-37.38 511.5,-37.38 511.5,-67.88"/>
<text text-anchor="start" x="374.5" y="-54.38" font-family="Helvetica,sans-Serif" font-size="10.00">NAudio.Wave.Compression.</text>
<text text-anchor="middle" x="439" y="-43.12" font-family="Helvetica,sans-Serif" font-size="10.00">AcmInterop.acmDriverDetails</text>
</a>
</g>
</g>
<!-- Node2&#45;&gt;Node3 -->
<g id="edge2_Node000002_Node000003" class="edge">
<title>Node2&#45;&gt;Node3</title>
<g id="a_edge2_Node000002_Node000003"><a xlink:title=" ">
<path fill="none" stroke="#63b8ff" d="M330.83,-39.26C338.7,-40.24 346.78,-41.25 354.81,-42.25"/>
<polygon fill="#63b8ff" stroke="#63b8ff" points="354.24,-45.7 364.59,-43.47 355.1,-38.76 354.24,-45.7"/>
</a>
</g>
</g>
<!-- Node4 -->
<g id="Node000004" class="node">
<title>Node4</title>
<g id="a_Node000004"><a xlink:href="class_n_audio_1_1_mm_exception.html#a1ca263e295226b2dff8fda80043242d2" target="_top" xlink:title="Throws an exception if the specified result is not equal to MmResult.NoError.">
<polygon fill="white" stroke="#666666" points="503.25,-19.25 374.75,-19.25 374.75,0 503.25,0 503.25,-19.25"/>
<text text-anchor="middle" x="439" y="-5.75" font-family="Helvetica,sans-Serif" font-size="10.00">NAudio.MmException.Try</text>
</a>
</g>
</g>
<!-- Node2&#45;&gt;Node4 -->
<g id="edge3_Node000002_Node000004" class="edge">
<title>Node2&#45;&gt;Node4</title>
<g id="a_edge3_Node000002_Node000004"><a xlink:title=" ">
<path fill="none" stroke="#63b8ff" d="M330.83,-22.39C341.5,-21.11 352.56,-19.8 363.35,-18.51"/>
<polygon fill="#63b8ff" stroke="#63b8ff" points="363.44,-22.03 372.96,-17.37 362.61,-15.08 363.44,-22.03"/>
</a>
</g>
</g>
<!-- Node5 -->
<g id="Node000005" class="node">
<title>Node5</title>
<g id="a_Node000005"><a xlink:href="class_n_audio_1_1_mm_exception.html#a674e0bb89c4e2aeb1f4ea96514710947" target="_top" xlink:title="Creates a new MmException.">
<polygon fill="white" stroke="#666666" points="721.75,-19.25 547.5,-19.25 547.5,0 721.75,0 721.75,-19.25"/>
<text text-anchor="middle" x="634.62" y="-5.75" font-family="Helvetica,sans-Serif" font-size="10.00">NAudio.MmException.MmException</text>
</a>
</g>
</g>
<!-- Node4&#45;&gt;Node5 -->
<g id="edge4_Node000004_Node000005" class="edge">
<title>Node4&#45;&gt;Node5</title>
<g id="a_edge4_Node000004_Node000005"><a xlink:title=" ">
<path fill="none" stroke="#63b8ff" d="M503.67,-9.62C513.98,-9.62 524.85,-9.62 535.75,-9.62"/>
<polygon fill="#63b8ff" stroke="#63b8ff" points="535.57,-13.13 545.57,-9.63 535.57,-6.13 535.57,-13.13"/>
</a>
</g>
</g>
</g>
</svg>

<g id="navigator" transform="translate(0 0)" fill="#404254">
  <rect fill="#f2f5e9" fill-opacity="0.5" stroke="#606060" stroke-width=".5" x="0" y="0" width="60" height="60"/>
  <use id="zoomplus" xlink:href="#zoomPlus" x="17" y="9" onmousedown="handleZoom(evt,'in')"/>
  <use id="zoomminus" xlink:href="#zoomMin" x="42" y="9" onmousedown="handleZoom(evt,'out')"/>
  <use id="reset" xlink:href="#resetDef" x="30" y="36" onmousedown="handleReset()"/>
   <use id="arrowup" xlink:href="#arrowUp" x="0" y="0" onmousedown="handlePan(0,-1)"/>
  <use id="arrowright" xlink:href="#arrowRight" x="0" y="0" onmousedown="handlePan(1,0)"/>
  <use id="arrowdown" xlink:href="#arrowDown" x="0" y="0" onmousedown="handlePan(0,1)"/>
  <use id="arrowleft" xlink:href="#arrowLeft" x="0" y="0" onmousedown="handlePan(-1,0)"/>
</g>
<svg viewBox="0 0 15 15" width="100%" height="30px" preserveAspectRatio="xMaxYMin meet">
 <g id="arrow_out" transform="scale(0.3 0.3)">
  <a xlink:href="class_n_audio_1_1_wave_1_1_compression_1_1_acm_driver_a6c0962b932d6f66efd1c05f869cf4007_cgraph_org.svg" target="_base">
   <rect id="button" ry="5" rx="5" y="6" x="6" height="38" width="38"
        fill="#f2f5e9" fill-opacity="0.5" stroke="#606060" stroke-width="1.0"/>
   <path id="arrow"
     d="M 11.500037,31.436501 C 11.940474,20.09759 22.043105,11.32322 32.158766,21.979434 L 37.068811,17.246167 C 37.068811,17.246167 37.088388,32 37.088388,32 L 22.160133,31.978069 C 22.160133,31.978069 26.997745,27.140456 26.997745,27.140456 C 18.528582,18.264221 13.291696,25.230495 11.500037,31.436501 z"
     style="fill:#404040;"/>
  </a>
 </g>
</svg>

<style type='text/css'>
<![CDATA[
[data-mouse-over-selected='false'] { opacity: 0.7; }
[data-mouse-over-selected='true']  { opacity: 1.0; }
]]>
</style>
<script type="application/ecmascript"><![CDATA[
document.addEventListener('DOMContentLoaded', (event) => {
  highlightEdges();
  highlightAdjacentNodes();
});
]]></script>
</svg>
