<?xml version="1.0" encoding="UTF-8" standalone="no"?>
<!DOCTYPE svg PUBLIC "-//W3C//DTD SVG 1.1//EN"
 "http://www.w3.org/Graphics/SVG/1.1/DTD/svg11.dtd">
<!-- Generated by graphviz version 10.0.1 (20240210.2158)
 -->
<!-- Title: NAudio.Wave.BufferedWaveProvider Pages: 1 -->
<!--zoomable 759 -->

<svg id="main" version="1.1" xmlns="http://www.w3.org/2000/svg" xmlns:xlink="http://www.w3.org/1999/xlink" xml:space="preserve" onload="init(evt)">
<style type="text/css"><![CDATA[
.node, .edge {opacity: 0.7;}
.node.selected, .edge.selected {opacity: 1;}
.edge:hover path { stroke: red; }
.edge:hover polygon { stroke: red; fill: red; }
]]></style>

<defs>
  <circle id="rim" cx="0" cy="0" r="7"/>
  <circle id="rim2" cx="0" cy="0" r="3.5"/>
  <g id="zoomPlus">
    <use xlink:href="#rim" fill="#404040"><set attributeName="fill" to="#808080" begin="zoomplus.mouseover" end="zoomplus.mouseout"/></use>
    <path d="M-4,0h8M0,-4v8" fill="none" stroke="white" stroke-width="1.5" pointer-events="none"/>
  </g>
  <g id="zoomMin">
    <use xlink:href="#rim" fill="#404040"><set attributeName="fill" to="#808080" begin="zoomminus.mouseover" end="zoomminus.mouseout"/></use>
    <path d="M-4,0h8" fill="none" stroke="white" stroke-width="1.5" pointer-events="none"/>
  </g>
  <g id="arrowUp" transform="translate(30 24)">
    <use xlink:href="#rim"/>
    <path pointer-events="none" fill="none" stroke="white" stroke-width="1.5" d="M0,-3.0v7 M-2.5,-0.5L0,-3.0L2.5,-0.5"/>
  </g>
  <g id="arrowRight" transform="rotate(90) translate(36 -43)">
    <use xlink:href="#rim"/>
    <path pointer-events="none" fill="none" stroke="white" stroke-width="1.5" d="M0,-3.0v7 M-2.5,-0.5L0,-3.0L2.5,-0.5"/>
  </g>
  <g id="arrowDown" transform="rotate(180) translate(-30 -48)">
    <use xlink:href="#rim"/>
    <path pointer-events="none" fill="none" stroke="white" stroke-width="1.5" d="M0,-3.0v7 M-2.5,-0.5L0,-3.0L2.5,-0.5"/>
  </g>
  <g id="arrowLeft" transform="rotate(270) translate(-36 17)">
    <use xlink:href="#rim"/>
    <path pointer-events="none" fill="none" stroke="white" stroke-width="1.5" d="M0,-3.0v7 M-2.5,-0.5L0,-3.0L2.5,-0.5"/>
  </g>
  <g id="resetDef">
    <use xlink:href="#rim2" fill="#404040"><set attributeName="fill" to="#808080" begin="reset.mouseover" end="reset.mouseout"/></use>
  </g>
</defs>
<script type="application/ecmascript">
var viewWidth = 585;
var viewHeight = 759;
var sectionId = 'dynsection-1';
</script>
<script type="application/ecmascript" xlink:href="svg.min.js"/>
<svg id="graph" class="graph">
<g id="viewport">
<title>NAudio.Wave.BufferedWaveProvider</title>
<!-- Node1 -->
<g id="Node000001" class="node">
<title>Node1</title>
<g id="a_Node000001"><a xlink:title="Provides a buffered store of samples Read method will return queued samples or fill buffer with zeroe...">
<polygon fill="#999999" stroke="none" points="222.5,-195 88.5,-195 88.5,0 222.5,0 222.5,-195"/>
<text text-anchor="start" x="93.25" y="-181.5" font-family="Helvetica,sans-Serif" font-size="10.00">NAudio.Wave.BufferedWave</text>
<text text-anchor="start" x="137.5" y="-170.25" font-family="Helvetica,sans-Serif" font-size="10.00">Provider</text>
<text text-anchor="start" x="93.5" y="-155.5" font-family="Helvetica,sans-Serif" font-size="10.00">+</text>
<text text-anchor="start" x="104.5" y="-155.5" font-family="Helvetica,sans-Serif" font-size="10.00">ReadFully</text>
<text text-anchor="start" x="93.5" y="-140.5" font-family="Helvetica,sans-Serif" font-size="10.00">+</text>
<text text-anchor="start" x="104.5" y="-140.5" font-family="Helvetica,sans-Serif" font-size="10.00">BufferLength</text>
<text text-anchor="start" x="93.5" y="-125.5" font-family="Helvetica,sans-Serif" font-size="10.00">+</text>
<text text-anchor="start" x="104.5" y="-125.5" font-family="Helvetica,sans-Serif" font-size="10.00">BufferDuration</text>
<text text-anchor="start" x="93.5" y="-110.5" font-family="Helvetica,sans-Serif" font-size="10.00">+</text>
<text text-anchor="start" x="104.5" y="-110.5" font-family="Helvetica,sans-Serif" font-size="10.00">DiscardOnBufferOverflow</text>
<text text-anchor="start" x="93.5" y="-95.5" font-family="Helvetica,sans-Serif" font-size="10.00">+</text>
<text text-anchor="start" x="104.5" y="-95.5" font-family="Helvetica,sans-Serif" font-size="10.00">BufferedBytes</text>
<text text-anchor="start" x="93.5" y="-80.5" font-family="Helvetica,sans-Serif" font-size="10.00">+</text>
<text text-anchor="start" x="104.5" y="-80.5" font-family="Helvetica,sans-Serif" font-size="10.00">BufferedDuration</text>
<text text-anchor="start" x="93.5" y="-65.5" font-family="Helvetica,sans-Serif" font-size="10.00">+</text>
<text text-anchor="start" x="104.5" y="-65.5" font-family="Helvetica,sans-Serif" font-size="10.00">WaveFormat</text>
<text text-anchor="start" x="93.5" y="-50.5" font-family="Helvetica,sans-Serif" font-size="10.00">+</text>
<text text-anchor="start" x="104.5" y="-50.5" font-family="Helvetica,sans-Serif" font-size="10.00">BufferedWaveProvider()</text>
<text text-anchor="start" x="93.5" y="-35.5" font-family="Helvetica,sans-Serif" font-size="10.00">+</text>
<text text-anchor="start" x="104.5" y="-35.5" font-family="Helvetica,sans-Serif" font-size="10.00">AddSamples()</text>
<text text-anchor="start" x="93.5" y="-20.5" font-family="Helvetica,sans-Serif" font-size="10.00">+</text>
<text text-anchor="start" x="104.5" y="-20.5" font-family="Helvetica,sans-Serif" font-size="10.00">Read()</text>
<text text-anchor="start" x="93.5" y="-5.5" font-family="Helvetica,sans-Serif" font-size="10.00">+</text>
<text text-anchor="start" x="104.5" y="-5.5" font-family="Helvetica,sans-Serif" font-size="10.00">ClearBuffer()</text>
<polygon fill="#666666" stroke="#666666" points="88.5,-167 88.5,-167 222.5,-167 222.5,-167 88.5,-167"/>
<polygon fill="#666666" stroke="#666666" points="88.5,-62 88.5,-62 102.5,-62 102.5,-62 88.5,-62"/>
<polygon fill="#666666" stroke="#666666" points="102.5,-62 102.5,-62 222.5,-62 222.5,-62 102.5,-62"/>
<polygon fill="none" stroke="#666666" points="88.5,0 88.5,-195 222.5,-195 222.5,0 88.5,0"/>
</a>
</g>
</g>
<!-- Node2 -->
<g id="Node000002" class="node">
<title>Node2</title>
<g id="a_Node000002"><a xlink:href="interface_n_audio_1_1_wave_1_1_i_wave_provider.html" target="_top" xlink:title="Generic interface for all WaveProviders.">
<polygon fill="white" stroke="none" points="73,-456.25 0,-456.25 0,-407.25 73,-407.25 73,-456.25"/>
<text text-anchor="start" x="4.62" y="-442.75" font-family="Helvetica,sans-Serif" font-size="10.00">IWaveProvider</text>
<text text-anchor="start" x="4" y="-427.75" font-family="Helvetica,sans-Serif" font-size="10.00">+</text>
<text text-anchor="start" x="14" y="-427.75" font-family="Helvetica,sans-Serif" font-size="10.00">WaveFormat</text>
<text text-anchor="start" x="4" y="-412.75" font-family="Helvetica,sans-Serif" font-size="10.00">+</text>
<text text-anchor="start" x="14" y="-412.75" font-family="Helvetica,sans-Serif" font-size="10.00">Read()</text>
<polygon fill="#666666" stroke="#666666" points="0,-439.25 0,-439.25 73,-439.25 73,-439.25 0,-439.25"/>
<polygon fill="#666666" stroke="#666666" points="0,-424.25 0,-424.25 12,-424.25 12,-424.25 0,-424.25"/>
<polygon fill="#666666" stroke="#666666" points="12,-424.25 12,-424.25 73,-424.25 73,-424.25 12,-424.25"/>
<polygon fill="none" stroke="#666666" points="0,-407.25 0,-456.25 73,-456.25 73,-407.25 0,-407.25"/>
</a>
</g>
</g>
<!-- Node2&#45;&gt;Node1 -->
<g id="edge1_Node000001_Node000002" class="edge">
<title>Node2&#45;&gt;Node1</title>
<g id="a_edge1_Node000001_Node000002"><a xlink:title=" ">
<path fill="none" stroke="#63b8ff" d="M42.48,-396.01C49.66,-357.64 63.2,-294.38 82.5,-242.25 88.28,-226.63 95.32,-210.51 102.72,-194.96"/>
<polygon fill="none" stroke="#63b8ff" points="39.05,-395.36 40.69,-405.83 45.93,-396.62 39.05,-395.36"/>
</a>
</g>
</g>
<!-- Node3 -->
<g id="Node000003" class="node">
<title>Node3</title>
<g id="a_Node000003"><a xlink:href="class_n_audio_1_1_utils_1_1_circular_buffer.html" target="_top" xlink:title="A very basic circular buffer implementation.">
<polygon fill="white" stroke="none" points="219.5,-501.25 91.5,-501.25 91.5,-362.25 219.5,-362.25 219.5,-501.25"/>
<text text-anchor="start" x="96.25" y="-487.75" font-family="Helvetica,sans-Serif" font-size="10.00">NAudio.Utils.CircularBuffer</text>
<text text-anchor="start" x="106.5" y="-472.75" font-family="Helvetica,sans-Serif" font-size="10.00">+</text>
<text text-anchor="start" x="127.5" y="-472.75" font-family="Helvetica,sans-Serif" font-size="10.00">MaxLength</text>
<text text-anchor="start" x="106.5" y="-457.75" font-family="Helvetica,sans-Serif" font-size="10.00">+</text>
<text text-anchor="start" x="127.5" y="-457.75" font-family="Helvetica,sans-Serif" font-size="10.00">Count</text>
<text text-anchor="start" x="106.5" y="-442.75" font-family="Helvetica,sans-Serif" font-size="10.00">+</text>
<text text-anchor="start" x="127.5" y="-442.75" font-family="Helvetica,sans-Serif" font-size="10.00">CircularBuffer()</text>
<text text-anchor="start" x="106.5" y="-427.75" font-family="Helvetica,sans-Serif" font-size="10.00">+</text>
<text text-anchor="start" x="127.5" y="-427.75" font-family="Helvetica,sans-Serif" font-size="10.00">Write()</text>
<text text-anchor="start" x="106.5" y="-412.75" font-family="Helvetica,sans-Serif" font-size="10.00">+</text>
<text text-anchor="start" x="127.5" y="-412.75" font-family="Helvetica,sans-Serif" font-size="10.00">Read()</text>
<text text-anchor="start" x="106.5" y="-397.75" font-family="Helvetica,sans-Serif" font-size="10.00">+</text>
<text text-anchor="start" x="127.5" y="-397.75" font-family="Helvetica,sans-Serif" font-size="10.00">Reset()</text>
<text text-anchor="start" x="106.5" y="-382.75" font-family="Helvetica,sans-Serif" font-size="10.00">+</text>
<text text-anchor="start" x="127.5" y="-382.75" font-family="Helvetica,sans-Serif" font-size="10.00">Advance()</text>
<text text-anchor="start" x="108" y="-367.75" font-family="Helvetica,sans-Serif" font-size="10.00">&#45;</text>
<text text-anchor="start" x="127.5" y="-367.75" font-family="Helvetica,sans-Serif" font-size="10.00">ResetInner()</text>
<polygon fill="#666666" stroke="#666666" points="91.5,-484.25 91.5,-484.25 219.5,-484.25 219.5,-484.25 91.5,-484.25"/>
<polygon fill="#666666" stroke="#666666" points="91.5,-454.25 91.5,-454.25 125.5,-454.25 125.5,-454.25 91.5,-454.25"/>
<polygon fill="#666666" stroke="#666666" points="125.5,-454.25 125.5,-454.25 219.5,-454.25 219.5,-454.25 125.5,-454.25"/>
<polygon fill="none" stroke="#666666" points="91.5,-362.25 91.5,-501.25 219.5,-501.25 219.5,-362.25 91.5,-362.25"/>
</a>
</g>
</g>
<!-- Node3&#45;&gt;Node1 -->
<g id="edge2_Node000001_Node000003" class="edge">
<title>Node3&#45;&gt;Node1</title>
<g id="a_edge2_Node000001_Node000003"><a xlink:title=" ">
<path fill="none" stroke="#63b8ff" d="M155.5,-362.31C155.5,-317.74 155.5,-258.62 155.5,-207.65"/>
<polygon fill="none" stroke="#63b8ff" points="155.5,-207.78 151.5,-201.78 155.5,-195.78 159.5,-201.78 155.5,-207.78"/>
</a>
</g>
<text text-anchor="middle" x="187.38" y="-214.75" font-family="Helvetica,sans-Serif" font-size="10.00" fill="grey"> &#45;circularBuffer</text>
</g>
<!-- Node4 -->
<g id="Node000004" class="node">
<title>Node4</title>
<g id="a_Node000004"><a xlink:title=" ">
<polygon fill="white" stroke="none" points="77.5,-751.25 49.5,-751.25 49.5,-702.25 77.5,-702.25 77.5,-751.25"/>
<text text-anchor="start" x="54.12" y="-737.75" font-family="Helvetica,sans-Serif" font-size="10.00">byte</text>
<text text-anchor="start" x="62" y="-722.75" font-family="Helvetica,sans-Serif" font-size="10.00"> </text>
<text text-anchor="start" x="62" y="-707.75" font-family="Helvetica,sans-Serif" font-size="10.00"> </text>
<polygon fill="#666666" stroke="#666666" points="49.5,-734.25 49.5,-734.25 77.5,-734.25 77.5,-734.25 49.5,-734.25"/>
<polygon fill="#666666" stroke="#666666" points="49.5,-719.25 49.5,-719.25 77.5,-719.25 77.5,-719.25 49.5,-719.25"/>
<polygon fill="none" stroke="#666666" points="49.5,-702.25 49.5,-751.25 77.5,-751.25 77.5,-702.25 49.5,-702.25"/>
</a>
</g>
</g>
<!-- Node4&#45;&gt;Node3 -->
<g id="edge3_Node000003_Node000004" class="edge">
<title>Node4&#45;&gt;Node3</title>
<g id="a_edge3_Node000003_Node000004"><a xlink:title=" ">
<path fill="none" stroke="#63b8ff" d="M67.9,-702.43C71.4,-684.91 76.69,-660.4 82.75,-639.25 94.83,-597.04 110.82,-550.89 124.73,-512.94"/>
<polygon fill="none" stroke="#63b8ff" points="124.7,-513.02 123.03,-506.01 128.86,-501.77 130.53,-508.78 124.7,-513.02"/>
</a>
</g>
<text text-anchor="middle" x="98.88" y="-657.88" font-family="Helvetica,sans-Serif" font-size="10.00" fill="grey"> &#45;buffer</text>
</g>
<!-- Node5 -->
<g id="Node000005" class="node">
<title>Node5</title>
<g id="a_Node000005"><a xlink:title=" ">
<polygon fill="white" stroke="none" points="135.5,-751.25 99.5,-751.25 99.5,-702.25 135.5,-702.25 135.5,-751.25"/>
<text text-anchor="start" x="104.38" y="-737.75" font-family="Helvetica,sans-Serif" font-size="10.00">object</text>
<text text-anchor="start" x="116" y="-722.75" font-family="Helvetica,sans-Serif" font-size="10.00"> </text>
<text text-anchor="start" x="116" y="-707.75" font-family="Helvetica,sans-Serif" font-size="10.00"> </text>
<polygon fill="#666666" stroke="#666666" points="99.5,-734.25 99.5,-734.25 135.5,-734.25 135.5,-734.25 99.5,-734.25"/>
<polygon fill="#666666" stroke="#666666" points="99.5,-719.25 99.5,-719.25 135.5,-719.25 135.5,-719.25 99.5,-719.25"/>
<polygon fill="none" stroke="#666666" points="99.5,-702.25 99.5,-751.25 135.5,-751.25 135.5,-702.25 99.5,-702.25"/>
</a>
</g>
</g>
<!-- Node5&#45;&gt;Node3 -->
<g id="edge4_Node000003_Node000005" class="edge">
<title>Node5&#45;&gt;Node3</title>
<g id="a_edge4_Node000003_Node000005"><a xlink:title=" ">
<path fill="none" stroke="#63b8ff" d="M116.91,-702.56C116.71,-685.11 116.94,-660.63 119,-639.25 123.02,-597.58 130.79,-551.67 138.14,-513.75"/>
<polygon fill="none" stroke="#63b8ff" points="138.11,-513.87 135.35,-507.21 140.43,-502.1 143.2,-508.76 138.11,-513.87"/>
</a>
</g>
<text text-anchor="middle" x="145.75" y="-657.88" font-family="Helvetica,sans-Serif" font-size="10.00" fill="grey"> &#45;lockObject</text>
</g>
<!-- Node6 -->
<g id="Node000006" class="node">
<title>Node6</title>
<g id="a_Node000006"><a xlink:title=" ">
<polygon fill="white" stroke="none" points="244.5,-751.25 224.5,-751.25 224.5,-702.25 244.5,-702.25 244.5,-751.25"/>
<text text-anchor="start" x="229.25" y="-737.75" font-family="Helvetica,sans-Serif" font-size="10.00">int</text>
<text text-anchor="start" x="233" y="-722.75" font-family="Helvetica,sans-Serif" font-size="10.00"> </text>
<text text-anchor="start" x="233" y="-707.75" font-family="Helvetica,sans-Serif" font-size="10.00"> </text>
<polygon fill="#666666" stroke="#666666" points="224.5,-734.25 224.5,-734.25 244.5,-734.25 244.5,-734.25 224.5,-734.25"/>
<polygon fill="#666666" stroke="#666666" points="224.5,-719.25 224.5,-719.25 244.5,-719.25 244.5,-719.25 224.5,-719.25"/>
<polygon fill="none" stroke="#666666" points="224.5,-702.25 224.5,-751.25 244.5,-751.25 244.5,-702.25 224.5,-702.25"/>
</a>
</g>
</g>
<!-- Node6&#45;&gt;Node3 -->
<g id="edge5_Node000003_Node000006" class="edge">
<title>Node6&#45;&gt;Node3</title>
<g id="a_edge5_Node000003_Node000006"><a xlink:title=" ">
<path fill="none" stroke="#63b8ff" d="M224.78,-718.69C215.34,-711.25 201.4,-698.63 194.25,-684.25 168.01,-631.49 158.59,-565.43 155.59,-514.25"/>
<polygon fill="none" stroke="#63b8ff" points="155.59,-514.13 151.3,-508.34 154.99,-502.15 159.29,-507.94 155.59,-514.13"/>
</a>
</g>
<text text-anchor="middle" x="224.12" y="-669.12" font-family="Helvetica,sans-Serif" font-size="10.00" fill="grey"> &#45;byteCount</text>
<text text-anchor="middle" x="224.12" y="-657.88" font-family="Helvetica,sans-Serif" font-size="10.00" fill="grey">&#45;readPosition</text>
<text text-anchor="middle" x="224.12" y="-646.62" font-family="Helvetica,sans-Serif" font-size="10.00" fill="grey">&#45;writePosition</text>
</g>
<!-- Node7 -->
<g id="Node000007" class="node">
<title>Node7</title>
<g id="a_Node000007"><a xlink:href="class_n_audio_1_1_wave_1_1_wave_format.html" target="_top" xlink:title="Represents a Wave file format.">
<polygon fill="white" stroke="none" points="419,-621.25 270,-621.25 270,-242.25 419,-242.25 419,-621.25"/>
<text text-anchor="start" x="285.25" y="-607.75" font-family="Helvetica,sans-Serif" font-size="10.00">NAudio.Wave.WaveFormat</text>
<text text-anchor="start" x="274" y="-592.75" font-family="Helvetica,sans-Serif" font-size="10.00">+</text>
<text text-anchor="start" x="284" y="-592.75" font-family="Helvetica,sans-Serif" font-size="10.00">Encoding</text>
<text text-anchor="start" x="274" y="-577.75" font-family="Helvetica,sans-Serif" font-size="10.00">+</text>
<text text-anchor="start" x="284" y="-577.75" font-family="Helvetica,sans-Serif" font-size="10.00">Channels</text>
<text text-anchor="start" x="274" y="-562.75" font-family="Helvetica,sans-Serif" font-size="10.00">+</text>
<text text-anchor="start" x="284" y="-562.75" font-family="Helvetica,sans-Serif" font-size="10.00">SampleRate</text>
<text text-anchor="start" x="274" y="-547.75" font-family="Helvetica,sans-Serif" font-size="10.00">+</text>
<text text-anchor="start" x="284" y="-547.75" font-family="Helvetica,sans-Serif" font-size="10.00">AverageBytesPerSecond</text>
<text text-anchor="start" x="274" y="-532.75" font-family="Helvetica,sans-Serif" font-size="10.00">+</text>
<text text-anchor="start" x="284" y="-532.75" font-family="Helvetica,sans-Serif" font-size="10.00">BlockAlign</text>
<text text-anchor="start" x="274" y="-517.75" font-family="Helvetica,sans-Serif" font-size="10.00">+</text>
<text text-anchor="start" x="284" y="-517.75" font-family="Helvetica,sans-Serif" font-size="10.00">BitsPerSample</text>
<text text-anchor="start" x="274" y="-502.75" font-family="Helvetica,sans-Serif" font-size="10.00">+</text>
<text text-anchor="start" x="284" y="-502.75" font-family="Helvetica,sans-Serif" font-size="10.00">ExtraSize</text>
<text text-anchor="start" x="274" y="-487.75" font-family="Helvetica,sans-Serif" font-size="10.00">+</text>
<text text-anchor="start" x="284" y="-487.75" font-family="Helvetica,sans-Serif" font-size="10.00">WaveFormat()</text>
<text text-anchor="start" x="274" y="-472.75" font-family="Helvetica,sans-Serif" font-size="10.00">+</text>
<text text-anchor="start" x="284" y="-472.75" font-family="Helvetica,sans-Serif" font-size="10.00">WaveFormat()</text>
<text text-anchor="start" x="274" y="-457.75" font-family="Helvetica,sans-Serif" font-size="10.00">+</text>
<text text-anchor="start" x="284" y="-457.75" font-family="Helvetica,sans-Serif" font-size="10.00">ConvertLatencyToByteSize()</text>
<text text-anchor="start" x="274" y="-442.75" font-family="Helvetica,sans-Serif" font-size="10.00">+</text>
<text text-anchor="start" x="284" y="-442.75" font-family="Helvetica,sans-Serif" font-size="10.00">WaveFormat()</text>
<text text-anchor="start" x="274" y="-427.75" font-family="Helvetica,sans-Serif" font-size="10.00">+</text>
<text text-anchor="start" x="284" y="-427.75" font-family="Helvetica,sans-Serif" font-size="10.00">WaveFormat()</text>
<text text-anchor="start" x="274" y="-412.75" font-family="Helvetica,sans-Serif" font-size="10.00">+</text>
<text text-anchor="start" x="284" y="-412.75" font-family="Helvetica,sans-Serif" font-size="10.00">ToString()</text>
<text text-anchor="start" x="274" y="-397.75" font-family="Helvetica,sans-Serif" font-size="10.00">+</text>
<text text-anchor="start" x="284" y="-397.75" font-family="Helvetica,sans-Serif" font-size="10.00">Equals()</text>
<text text-anchor="start" x="274" y="-382.75" font-family="Helvetica,sans-Serif" font-size="10.00">+</text>
<text text-anchor="start" x="284" y="-382.75" font-family="Helvetica,sans-Serif" font-size="10.00">GetHashCode()</text>
<text text-anchor="start" x="274" y="-367.75" font-family="Helvetica,sans-Serif" font-size="10.00">+</text>
<text text-anchor="start" x="284" y="-367.75" font-family="Helvetica,sans-Serif" font-size="10.00">Serialize()</text>
<text text-anchor="start" x="274" y="-352.75" font-family="Helvetica,sans-Serif" font-size="10.00">+</text>
<text text-anchor="start" x="284" y="-352.75" font-family="Helvetica,sans-Serif" font-size="10.00">CreateCustomFormat()</text>
<text text-anchor="start" x="274" y="-337.75" font-family="Helvetica,sans-Serif" font-size="10.00">+</text>
<text text-anchor="start" x="284" y="-337.75" font-family="Helvetica,sans-Serif" font-size="10.00">CreateALawFormat()</text>
<text text-anchor="start" x="274" y="-322.75" font-family="Helvetica,sans-Serif" font-size="10.00">+</text>
<text text-anchor="start" x="284" y="-322.75" font-family="Helvetica,sans-Serif" font-size="10.00">CreateMuLawFormat()</text>
<text text-anchor="start" x="274" y="-307.75" font-family="Helvetica,sans-Serif" font-size="10.00">+</text>
<text text-anchor="start" x="284" y="-307.75" font-family="Helvetica,sans-Serif" font-size="10.00">CreateIeeeFloatWaveFormat()</text>
<text text-anchor="start" x="274" y="-292.75" font-family="Helvetica,sans-Serif" font-size="10.00">+</text>
<text text-anchor="start" x="284" y="-292.75" font-family="Helvetica,sans-Serif" font-size="10.00">MarshalFromPtr()</text>
<text text-anchor="start" x="274" y="-277.75" font-family="Helvetica,sans-Serif" font-size="10.00">+</text>
<text text-anchor="start" x="284" y="-277.75" font-family="Helvetica,sans-Serif" font-size="10.00">MarshalToPtr()</text>
<text text-anchor="start" x="274" y="-262.75" font-family="Helvetica,sans-Serif" font-size="10.00">+</text>
<text text-anchor="start" x="284" y="-262.75" font-family="Helvetica,sans-Serif" font-size="10.00">FromFormatChunk()</text>
<text text-anchor="start" x="275.5" y="-247.75" font-family="Helvetica,sans-Serif" font-size="10.00">&#45;</text>
<text text-anchor="start" x="284" y="-247.75" font-family="Helvetica,sans-Serif" font-size="10.00">ReadWaveFormat()</text>
<polygon fill="#666666" stroke="#666666" points="270,-604.25 270,-604.25 419,-604.25 419,-604.25 270,-604.25"/>
<polygon fill="#666666" stroke="#666666" points="270,-499.25 270,-499.25 282,-499.25 282,-499.25 270,-499.25"/>
<polygon fill="#666666" stroke="#666666" points="282,-499.25 282,-499.25 419,-499.25 419,-499.25 282,-499.25"/>
<polygon fill="none" stroke="#666666" points="270,-242.25 270,-621.25 419,-621.25 419,-242.25 270,-242.25"/>
</a>
</g>
</g>
<!-- Node6&#45;&gt;Node7 -->
<g id="edge9_Node000007_Node000006" class="edge">
<title>Node6&#45;&gt;Node7</title>
<g id="a_edge9_Node000007_Node000006"><a xlink:title=" ">
<path fill="none" stroke="#63b8ff" d="M244.31,-705.21C247.37,-698.57 250.68,-691.14 253.5,-684.25 260.25,-667.75 267.02,-650.54 273.65,-633.21"/>
<polygon fill="none" stroke="#63b8ff" points="273.64,-633.26 272.03,-626.23 277.9,-622.04 279.51,-629.07 273.64,-633.26"/>
</a>
</g>
<text text-anchor="middle" x="328.62" y="-663.5" font-family="Helvetica,sans-Serif" font-size="10.00" fill="grey"> #averageBytesPerSecond</text>
<text text-anchor="middle" x="328.62" y="-652.25" font-family="Helvetica,sans-Serif" font-size="10.00" fill="grey">#sampleRate</text>
</g>
<!-- Node7&#45;&gt;Node1 -->
<g id="edge6_Node000001_Node000007" class="edge">
<title>Node7&#45;&gt;Node1</title>
<g id="a_edge6_Node000001_Node000007"><a xlink:title=" ">
<path fill="none" stroke="#63b8ff" d="M270.07,-295.38C254.81,-268.03 238.74,-239.53 223.5,-213 222.17,-210.69 220.83,-208.36 219.47,-206"/>
<polygon fill="none" stroke="#63b8ff" points="219.5,-206.06 213.03,-202.88 213.47,-195.68 219.94,-198.86 219.5,-206.06"/>
</a>
</g>
<text text-anchor="middle" x="257.5" y="-214.75" font-family="Helvetica,sans-Serif" font-size="10.00" fill="grey"> &#45;waveFormat</text>
</g>
<!-- Node8 -->
<g id="Node000008" class="node">
<title>Node8</title>
<g id="a_Node000008"><a xlink:title=" ">
<polygon fill="white" stroke="none" points="467.5,-751.25 361.5,-751.25 361.5,-702.25 467.5,-702.25 467.5,-751.25"/>
<text text-anchor="start" x="366.5" y="-737.75" font-family="Helvetica,sans-Serif" font-size="10.00">WaveFormatEncoding</text>
<text text-anchor="start" x="413" y="-722.75" font-family="Helvetica,sans-Serif" font-size="10.00"> </text>
<text text-anchor="start" x="413" y="-707.75" font-family="Helvetica,sans-Serif" font-size="10.00"> </text>
<polygon fill="#666666" stroke="#666666" points="361.5,-734.25 361.5,-734.25 467.5,-734.25 467.5,-734.25 361.5,-734.25"/>
<polygon fill="#666666" stroke="#666666" points="361.5,-719.25 361.5,-719.25 467.5,-719.25 467.5,-719.25 361.5,-719.25"/>
<polygon fill="none" stroke="#666666" points="361.5,-702.25 361.5,-751.25 467.5,-751.25 467.5,-702.25 361.5,-702.25"/>
</a>
</g>
</g>
<!-- Node8&#45;&gt;Node7 -->
<g id="edge7_Node000007_Node000008" class="edge">
<title>Node8&#45;&gt;Node7</title>
<g id="a_edge7_Node000007_Node000008"><a xlink:title=" ">
<path fill="none" stroke="#63b8ff" d="M408.89,-702.27C404.86,-685.41 399,-660.89 392.44,-633.4"/>
<polygon fill="none" stroke="#63b8ff" points="392.48,-633.57 387.19,-628.66 389.69,-621.9 394.97,-626.8 392.48,-633.57"/>
</a>
</g>
<text text-anchor="middle" x="443.5" y="-657.88" font-family="Helvetica,sans-Serif" font-size="10.00" fill="grey"> #waveFormatTag</text>
</g>
<!-- Node9 -->
<g id="Node000009" class="node">
<title>Node9</title>
<g id="a_Node000009"><a xlink:title=" ">
<polygon fill="white" stroke="none" points="531,-751.25 500,-751.25 500,-702.25 531,-702.25 531,-751.25"/>
<text text-anchor="start" x="504.62" y="-737.75" font-family="Helvetica,sans-Serif" font-size="10.00">short</text>
<text text-anchor="start" x="514" y="-722.75" font-family="Helvetica,sans-Serif" font-size="10.00"> </text>
<text text-anchor="start" x="514" y="-707.75" font-family="Helvetica,sans-Serif" font-size="10.00"> </text>
<polygon fill="#666666" stroke="#666666" points="500,-734.25 500,-734.25 531,-734.25 531,-734.25 500,-734.25"/>
<polygon fill="#666666" stroke="#666666" points="500,-719.25 500,-719.25 531,-719.25 531,-719.25 500,-719.25"/>
<polygon fill="none" stroke="#666666" points="500,-702.25 500,-751.25 531,-751.25 531,-702.25 500,-702.25"/>
</a>
</g>
</g>
<!-- Node9&#45;&gt;Node7 -->
<g id="edge8_Node000007_Node000009" class="edge">
<title>Node9&#45;&gt;Node7</title>
<g id="a_edge8_Node000007_Node000009"><a xlink:title=" ">
<path fill="none" stroke="#63b8ff" d="M509.55,-702.29C504.59,-684.48 496.69,-659.66 486.5,-639.25 469.57,-605.32 447.71,-570.56 426.24,-539.47"/>
<polygon fill="none" stroke="#63b8ff" points="426.36,-539.65 419.65,-537.02 419.49,-529.81 426.21,-532.44 426.36,-539.65"/>
</a>
</g>
<text text-anchor="middle" x="540.5" y="-674.75" font-family="Helvetica,sans-Serif" font-size="10.00" fill="grey"> #bitsPerSample</text>
<text text-anchor="middle" x="540.5" y="-663.5" font-family="Helvetica,sans-Serif" font-size="10.00" fill="grey">#blockAlign</text>
<text text-anchor="middle" x="540.5" y="-652.25" font-family="Helvetica,sans-Serif" font-size="10.00" fill="grey">#channels</text>
<text text-anchor="middle" x="540.5" y="-641" font-family="Helvetica,sans-Serif" font-size="10.00" fill="grey">#extraSize</text>
</g>
</g>
</svg>

<g id="navigator" transform="translate(0 0)" fill="#404254">
  <rect fill="#f2f5e9" fill-opacity="0.5" stroke="#606060" stroke-width=".5" x="0" y="0" width="60" height="60"/>
  <use id="zoomplus" xlink:href="#zoomPlus" x="17" y="9" onmousedown="handleZoom(evt,'in')"/>
  <use id="zoomminus" xlink:href="#zoomMin" x="42" y="9" onmousedown="handleZoom(evt,'out')"/>
  <use id="reset" xlink:href="#resetDef" x="30" y="36" onmousedown="handleReset()"/>
   <use id="arrowup" xlink:href="#arrowUp" x="0" y="0" onmousedown="handlePan(0,-1)"/>
  <use id="arrowright" xlink:href="#arrowRight" x="0" y="0" onmousedown="handlePan(1,0)"/>
  <use id="arrowdown" xlink:href="#arrowDown" x="0" y="0" onmousedown="handlePan(0,1)"/>
  <use id="arrowleft" xlink:href="#arrowLeft" x="0" y="0" onmousedown="handlePan(-1,0)"/>
</g>
<svg viewBox="0 0 15 15" width="100%" height="30px" preserveAspectRatio="xMaxYMin meet">
 <g id="arrow_out" transform="scale(0.3 0.3)">
  <a xlink:href="class_n_audio_1_1_wave_1_1_buffered_wave_provider__coll__graph_org.svg" target="_base">
   <rect id="button" ry="5" rx="5" y="6" x="6" height="38" width="38"
        fill="#f2f5e9" fill-opacity="0.5" stroke="#606060" stroke-width="1.0"/>
   <path id="arrow"
     d="M 11.500037,31.436501 C 11.940474,20.09759 22.043105,11.32322 32.158766,21.979434 L 37.068811,17.246167 C 37.068811,17.246167 37.088388,32 37.088388,32 L 22.160133,31.978069 C 22.160133,31.978069 26.997745,27.140456 26.997745,27.140456 C 18.528582,18.264221 13.291696,25.230495 11.500037,31.436501 z"
     style="fill:#404040;"/>
  </a>
 </g>
</svg>

<style type='text/css'>
<![CDATA[
[data-mouse-over-selected='false'] { opacity: 0.7; }
[data-mouse-over-selected='true']  { opacity: 1.0; }
]]>
</style>
<script type="application/ecmascript"><![CDATA[
document.addEventListener('DOMContentLoaded', (event) => {
  highlightEdges();
  highlightAdjacentNodes();
});
]]></script>
</svg>
