<?xml version="1.0" encoding="UTF-8" standalone="no"?>
<!DOCTYPE svg PUBLIC "-//W3C//DTD SVG 1.1//EN"
 "http://www.w3.org/Graphics/SVG/1.1/DTD/svg11.dtd">
<!-- Generated by graphviz version 10.0.1 (20240210.2158)
 -->
<!-- Title: InfoGrab.SQLiteHandler.ConvertToInteger Pages: 1 -->
<!--zoomable 229 -->

<svg id="main" version="1.1" xmlns="http://www.w3.org/2000/svg" xmlns:xlink="http://www.w3.org/1999/xlink" xml:space="preserve" onload="init(evt)">
<style type="text/css"><![CDATA[
.node, .edge {opacity: 0.7;}
.node.selected, .edge.selected {opacity: 1;}
.edge:hover path { stroke: red; }
.edge:hover polygon { stroke: red; fill: red; }
]]></style>

<defs>
  <circle id="rim" cx="0" cy="0" r="7"/>
  <circle id="rim2" cx="0" cy="0" r="3.5"/>
  <g id="zoomPlus">
    <use xlink:href="#rim" fill="#404040"><set attributeName="fill" to="#808080" begin="zoomplus.mouseover" end="zoomplus.mouseout"/></use>
    <path d="M-4,0h8M0,-4v8" fill="none" stroke="white" stroke-width="1.5" pointer-events="none"/>
  </g>
  <g id="zoomMin">
    <use xlink:href="#rim" fill="#404040"><set attributeName="fill" to="#808080" begin="zoomminus.mouseover" end="zoomminus.mouseout"/></use>
    <path d="M-4,0h8" fill="none" stroke="white" stroke-width="1.5" pointer-events="none"/>
  </g>
  <g id="arrowUp" transform="translate(30 24)">
    <use xlink:href="#rim"/>
    <path pointer-events="none" fill="none" stroke="white" stroke-width="1.5" d="M0,-3.0v7 M-2.5,-0.5L0,-3.0L2.5,-0.5"/>
  </g>
  <g id="arrowRight" transform="rotate(90) translate(36 -43)">
    <use xlink:href="#rim"/>
    <path pointer-events="none" fill="none" stroke="white" stroke-width="1.5" d="M0,-3.0v7 M-2.5,-0.5L0,-3.0L2.5,-0.5"/>
  </g>
  <g id="arrowDown" transform="rotate(180) translate(-30 -48)">
    <use xlink:href="#rim"/>
    <path pointer-events="none" fill="none" stroke="white" stroke-width="1.5" d="M0,-3.0v7 M-2.5,-0.5L0,-3.0L2.5,-0.5"/>
  </g>
  <g id="arrowLeft" transform="rotate(270) translate(-36 17)">
    <use xlink:href="#rim"/>
    <path pointer-events="none" fill="none" stroke="white" stroke-width="1.5" d="M0,-3.0v7 M-2.5,-0.5L0,-3.0L2.5,-0.5"/>
  </g>
  <g id="resetDef">
    <use xlink:href="#rim2" fill="#404040"><set attributeName="fill" to="#808080" begin="reset.mouseover" end="reset.mouseout"/></use>
  </g>
</defs>
<script type="application/ecmascript">
var viewWidth = 732;
var viewHeight = 229;
var sectionId = 'dynsection-2';
</script>
<script type="application/ecmascript" xlink:href="svg.min.js"/>
<svg id="graph" class="graph">
<g id="viewport">
<title>InfoGrab.SQLiteHandler.ConvertToInteger</title>
<!-- Node1 -->
<g id="Node000001" class="node">
<title>Node1</title>
<g id="a_Node000001"><a xlink:title="Converts a sequence of bytes to an unsigned integer.">
<polygon fill="#999999" stroke="#666666" points="724,-159.88 567,-159.88 567,-129.38 724,-129.38 724,-159.88"/>
<text text-anchor="start" x="575" y="-146.38" font-family="Helvetica,sans-Serif" font-size="10.00">InfoGrab.SQLiteHandler.Convert</text>
<text text-anchor="middle" x="645.5" y="-135.12" font-family="Helvetica,sans-Serif" font-size="10.00">ToInteger</text>
</a>
</g>
</g>
<!-- Node2 -->
<g id="Node000002" class="node">
<title>Node2</title>
<g id="a_Node000002"><a xlink:href="class_info_grab_1_1_s_q_lite_handler.html#a2c6ff6fde0c04236c90848265eec1492" target="_top" xlink:title="Reads the master table from the specified offset.">
<polygon fill="white" stroke="#666666" points="531,-202.88 385.25,-202.88 385.25,-172.38 531,-172.38 531,-202.88"/>
<text text-anchor="start" x="393.25" y="-189.38" font-family="Helvetica,sans-Serif" font-size="10.00">InfoGrab.SQLiteHandler.Read</text>
<text text-anchor="middle" x="458.12" y="-178.12" font-family="Helvetica,sans-Serif" font-size="10.00">MasterTable</text>
</a>
</g>
</g>
<!-- Node1&#45;&gt;Node2 -->
<g id="edge1_Node000001_Node000002" class="edge">
<title>Node1&#45;&gt;Node2</title>
<g id="a_edge1_Node000001_Node000002"><a xlink:title=" ">
<path fill="none" stroke="#63b8ff" d="M565.61,-162.93C552.75,-165.91 539.53,-168.97 526.96,-171.89"/>
<polygon fill="#63b8ff" stroke="#63b8ff" points="566.36,-166.34 575.31,-160.67 564.78,-159.52 566.36,-166.34"/>
</a>
</g>
</g>
<!-- Node3 -->
<g id="Node000003" class="node">
<title>Node3</title>
<g id="a_Node000003"><a xlink:href="class_info_grab_1_1_s_q_lite_handler.html#abd8513b1722207e2467a1087b69d3806" target="_top" xlink:title=" ">
<polygon fill="white" stroke="#666666" points="349.25,-180.88 196.75,-180.88 196.75,-150.38 349.25,-150.38 349.25,-180.88"/>
<text text-anchor="start" x="204.75" y="-167.38" font-family="Helvetica,sans-Serif" font-size="10.00">InfoGrab.SQLiteHandler.SQLite</text>
<text text-anchor="middle" x="273" y="-156.12" font-family="Helvetica,sans-Serif" font-size="10.00">Handler</text>
</a>
</g>
</g>
<!-- Node1&#45;&gt;Node3 -->
<g id="edge12_Node000001_Node000003" class="edge">
<title>Node1&#45;&gt;Node3</title>
<g id="a_edge12_Node000001_Node000003"><a xlink:title=" ">
<path fill="none" stroke="#63b8ff" d="M555.35,-149.68C492.51,-153.24 409.27,-157.96 349.67,-161.34"/>
<polygon fill="#63b8ff" stroke="#63b8ff" points="555.53,-153.17 565.32,-149.11 555.14,-146.18 555.53,-153.17"/>
</a>
</g>
</g>
<!-- Node4 -->
<g id="Node000004" class="node">
<title>Node4</title>
<g id="a_Node000004"><a xlink:href="class_info_grab_1_1_s_q_lite_handler.html#a50ac748c0c8463acd55e8767c2abfaf6" target="_top" xlink:title="Reads a table from the specified offset and populates the table entries.">
<polygon fill="white" stroke="#666666" points="531,-98.88 385.25,-98.88 385.25,-68.38 531,-68.38 531,-98.88"/>
<text text-anchor="start" x="393.25" y="-85.38" font-family="Helvetica,sans-Serif" font-size="10.00">InfoGrab.SQLiteHandler.Read</text>
<text text-anchor="middle" x="458.12" y="-74.12" font-family="Helvetica,sans-Serif" font-size="10.00">TableFromOffset</text>
</a>
</g>
</g>
<!-- Node1&#45;&gt;Node4 -->
<g id="edge4_Node000001_Node000004" class="edge">
<title>Node1&#45;&gt;Node4</title>
<g id="a_edge4_Node000001_Node000004"><a xlink:title=" ">
<path fill="none" stroke="#63b8ff" d="M586.08,-125.4C560.51,-116.99 530.9,-107.24 506.7,-99.28"/>
<polygon fill="#63b8ff" stroke="#63b8ff" points="584.73,-128.64 595.32,-128.44 586.92,-121.99 584.73,-128.64"/>
</a>
</g>
</g>
<!-- Node2&#45;&gt;Node2 -->
<g id="edge2_Node000002_Node000002" class="edge">
<title>Node2&#45;&gt;Node2</title>
<g id="a_edge2_Node000002_Node000002"><a xlink:title=" ">
<path fill="none" stroke="#63b8ff" d="M489.17,-214.58C484.09,-218.35 473.75,-220.88 458.12,-220.88 429.56,-220.88 418.63,-212.43 425.32,-203.36"/>
<polygon fill="#63b8ff" stroke="#63b8ff" points="492.6,-215.28 490.69,-204.86 485.69,-214.19 492.6,-215.28"/>
</a>
</g>
</g>
<!-- Node2&#45;&gt;Node3 -->
<g id="edge3_Node000002_Node000003" class="edge">
<title>Node2&#45;&gt;Node3</title>
<g id="a_edge3_Node000002_Node000003"><a xlink:title=" ">
<path fill="none" stroke="#63b8ff" d="M373.75,-177.61C365.72,-176.64 357.61,-175.67 349.66,-174.71"/>
<polygon fill="#63b8ff" stroke="#63b8ff" points="373.16,-181.06 383.51,-178.78 374,-174.11 373.16,-181.06"/>
</a>
</g>
</g>
<!-- Node4&#45;&gt;Node4 -->
<g id="edge11_Node000004_Node000004" class="edge">
<title>Node4&#45;&gt;Node4</title>
<g id="a_edge11_Node000004_Node000004"><a xlink:title=" ">
<path fill="none" stroke="#63b8ff" d="M489.17,-110.58C484.09,-114.35 473.75,-116.88 458.12,-116.88 429.56,-116.88 418.63,-108.43 425.32,-99.36"/>
<polygon fill="#63b8ff" stroke="#63b8ff" points="492.6,-111.28 490.69,-100.86 485.69,-110.19 492.6,-111.28"/>
</a>
</g>
</g>
<!-- Node5 -->
<g id="Node000005" class="node">
<title>Node5</title>
<g id="a_Node000005"><a xlink:href="class_info_grab_1_1_s_q_lite_handler.html#a2ede45dfc58996a373e0159446a881e2" target="_top" xlink:title="Reads the specified table and returns a boolean indicating success or failure.">
<polygon fill="white" stroke="#666666" points="345.88,-98.88 200.12,-98.88 200.12,-68.38 345.88,-68.38 345.88,-98.88"/>
<text text-anchor="start" x="208.12" y="-85.38" font-family="Helvetica,sans-Serif" font-size="10.00">InfoGrab.SQLiteHandler.Read</text>
<text text-anchor="middle" x="273" y="-74.12" font-family="Helvetica,sans-Serif" font-size="10.00">Table</text>
</a>
</g>
</g>
<!-- Node4&#45;&gt;Node5 -->
<g id="edge5_Node000004_Node000005" class="edge">
<title>Node4&#45;&gt;Node5</title>
<g id="a_edge5_Node000004_Node000005"><a xlink:title=" ">
<path fill="none" stroke="#63b8ff" d="M373.58,-83.62C364.49,-83.62 355.29,-83.62 346.35,-83.62"/>
<polygon fill="#63b8ff" stroke="#63b8ff" points="373.5,-87.13 383.5,-83.63 373.5,-80.13 373.5,-87.13"/>
</a>
</g>
</g>
<!-- Node6 -->
<g id="Node000006" class="node">
<title>Node6</title>
<g id="a_Node000006"><a xlink:href="class_plugin_1_1_chromium.html#a4d1c5e452ea006c9af2e6f07698fc53f" target="_top" xlink:title=" ">
<polygon fill="white" stroke="#666666" points="153.25,-179.25 7.5,-179.25 7.5,-160 153.25,-160 153.25,-179.25"/>
<text text-anchor="middle" x="80.38" y="-165.75" font-family="Helvetica,sans-Serif" font-size="10.00">Plugin.Chromium.GetCookies</text>
</a>
</g>
</g>
<!-- Node5&#45;&gt;Node6 -->
<g id="edge6_Node000005_Node000006" class="edge">
<title>Node5&#45;&gt;Node6</title>
<g id="a_edge6_Node000005_Node000006"><a xlink:title=" ">
<path fill="none" stroke="#63b8ff" d="M241.18,-105.73C219.57,-120.32 189.52,-138.85 160.75,-150.62 152.23,-154.11 142.91,-157.06 133.76,-159.5"/>
<polygon fill="#63b8ff" stroke="#63b8ff" points="242.97,-108.75 249.23,-100.2 239.01,-102.98 242.97,-108.75"/>
</a>
</g>
</g>
<!-- Node7 -->
<g id="Node000007" class="node">
<title>Node7</title>
<g id="a_Node000007"><a xlink:href="class_plugin_1_1_chromium.html#a83d5541d95f12fe32767b63d8a0dbd63" target="_top" xlink:title=" ">
<polygon fill="white" stroke="#666666" points="148.38,-141.88 12.38,-141.88 12.38,-111.38 148.38,-111.38 148.38,-141.88"/>
<text text-anchor="start" x="20.38" y="-128.38" font-family="Helvetica,sans-Serif" font-size="10.00">Plugin.Chromium.GetCredit</text>
<text text-anchor="middle" x="80.38" y="-117.12" font-family="Helvetica,sans-Serif" font-size="10.00">Cards</text>
</a>
</g>
</g>
<!-- Node5&#45;&gt;Node7 -->
<g id="edge7_Node000005_Node000007" class="edge">
<title>Node5&#45;&gt;Node7</title>
<g id="a_edge7_Node000005_Node000007"><a xlink:title=" ">
<path fill="none" stroke="#63b8ff" d="M191.54,-101.77C177.24,-105 162.48,-108.33 148.59,-111.46"/>
<polygon fill="#63b8ff" stroke="#63b8ff" points="191.91,-105.28 200.89,-99.66 190.37,-98.45 191.91,-105.28"/>
</a>
</g>
</g>
<!-- Node8 -->
<g id="Node000008" class="node">
<title>Node8</title>
<g id="a_Node000008"><a xlink:href="class_plugin_1_1_chromium.html#a65cc1bbba4c38f823713af851ad80eb4" target="_top" xlink:title=" ">
<polygon fill="white" stroke="#666666" points="159.62,-93.25 1.12,-93.25 1.12,-74 159.62,-74 159.62,-93.25"/>
<text text-anchor="middle" x="80.38" y="-79.75" font-family="Helvetica,sans-Serif" font-size="10.00">Plugin.Chromium.GetDownloads</text>
</a>
</g>
</g>
<!-- Node5&#45;&gt;Node8 -->
<g id="edge8_Node000005_Node000008" class="edge">
<title>Node5&#45;&gt;Node8</title>
<g id="a_edge8_Node000005_Node000008"><a xlink:title=" ">
<path fill="none" stroke="#63b8ff" d="M188.3,-83.62C178.9,-83.62 169.36,-83.62 160.03,-83.62"/>
<polygon fill="#63b8ff" stroke="#63b8ff" points="188.15,-87.13 198.15,-83.63 188.15,-80.13 188.15,-87.13"/>
</a>
</g>
</g>
<!-- Node9 -->
<g id="Node000009" class="node">
<title>Node9</title>
<g id="a_Node000009"><a xlink:href="class_plugin_1_1_chromium.html#ac52e16e02ad95b11b537359fc964ed58" target="_top" xlink:title=" ">
<polygon fill="white" stroke="#666666" points="157.38,-56.25 3.38,-56.25 3.38,-37 157.38,-37 157.38,-56.25"/>
<text text-anchor="middle" x="80.38" y="-42.75" font-family="Helvetica,sans-Serif" font-size="10.00">Plugin.Chromium.GetLoginData</text>
</a>
</g>
</g>
<!-- Node5&#45;&gt;Node9 -->
<g id="edge9_Node000005_Node000009" class="edge">
<title>Node5&#45;&gt;Node9</title>
<g id="a_edge9_Node000005_Node000009"><a xlink:title=" ">
<path fill="none" stroke="#63b8ff" d="M188.45,-67.41C169.76,-63.78 150.47,-60.04 133.49,-56.74"/>
<polygon fill="#63b8ff" stroke="#63b8ff" points="187.69,-70.83 198.18,-69.3 189.03,-63.95 187.69,-70.83"/>
</a>
</g>
</g>
<!-- Node10 -->
<g id="Node000010" class="node">
<title>Node10</title>
<g id="a_Node000010"><a xlink:href="class_plugin_1_1_chromium.html#aae704fa742e5a23774102fb6ffb7d8f2" target="_top" xlink:title=" ">
<polygon fill="white" stroke="#666666" points="160.75,-19.25 0,-19.25 0,0 160.75,0 160.75,-19.25"/>
<text text-anchor="middle" x="80.38" y="-5.75" font-family="Helvetica,sans-Serif" font-size="10.00">Plugin.Chromium.GetWebHistory</text>
</a>
</g>
</g>
<!-- Node5&#45;&gt;Node10 -->
<g id="edge10_Node000005_Node000010" class="edge">
<title>Node5&#45;&gt;Node10</title>
<g id="a_edge10_Node000005_Node000010"><a xlink:title=" ">
<path fill="none" stroke="#63b8ff" d="M235.51,-62.42C214.26,-50.8 186.63,-36.92 160.75,-27.62 152.24,-24.57 143.02,-21.92 133.98,-19.66"/>
<polygon fill="#63b8ff" stroke="#63b8ff" points="233.62,-65.37 244.07,-67.17 237.02,-59.26 233.62,-65.37"/>
</a>
</g>
</g>
</g>
</svg>

<g id="navigator" transform="translate(0 0)" fill="#404254">
  <rect fill="#f2f5e9" fill-opacity="0.5" stroke="#606060" stroke-width=".5" x="0" y="0" width="60" height="60"/>
  <use id="zoomplus" xlink:href="#zoomPlus" x="17" y="9" onmousedown="handleZoom(evt,'in')"/>
  <use id="zoomminus" xlink:href="#zoomMin" x="42" y="9" onmousedown="handleZoom(evt,'out')"/>
  <use id="reset" xlink:href="#resetDef" x="30" y="36" onmousedown="handleReset()"/>
   <use id="arrowup" xlink:href="#arrowUp" x="0" y="0" onmousedown="handlePan(0,-1)"/>
  <use id="arrowright" xlink:href="#arrowRight" x="0" y="0" onmousedown="handlePan(1,0)"/>
  <use id="arrowdown" xlink:href="#arrowDown" x="0" y="0" onmousedown="handlePan(0,1)"/>
  <use id="arrowleft" xlink:href="#arrowLeft" x="0" y="0" onmousedown="handlePan(-1,0)"/>
</g>
<svg viewBox="0 0 15 15" width="100%" height="30px" preserveAspectRatio="xMaxYMin meet">
 <g id="arrow_out" transform="scale(0.3 0.3)">
  <a xlink:href="class_info_grab_1_1_s_q_lite_handler_a49875eb1d8c88c7c501d4f6cdf231f2b_icgraph_org.svg" target="_base">
   <rect id="button" ry="5" rx="5" y="6" x="6" height="38" width="38"
        fill="#f2f5e9" fill-opacity="0.5" stroke="#606060" stroke-width="1.0"/>
   <path id="arrow"
     d="M 11.500037,31.436501 C 11.940474,20.09759 22.043105,11.32322 32.158766,21.979434 L 37.068811,17.246167 C 37.068811,17.246167 37.088388,32 37.088388,32 L 22.160133,31.978069 C 22.160133,31.978069 26.997745,27.140456 26.997745,27.140456 C 18.528582,18.264221 13.291696,25.230495 11.500037,31.436501 z"
     style="fill:#404040;"/>
  </a>
 </g>
</svg>

<style type='text/css'>
<![CDATA[
[data-mouse-over-selected='false'] { opacity: 0.7; }
[data-mouse-over-selected='true']  { opacity: 1.0; }
]]>
</style>
<script type="application/ecmascript"><![CDATA[
document.addEventListener('DOMContentLoaded', (event) => {
  highlightEdges();
  highlightAdjacentNodes();
});
]]></script>
</svg>
