<?xml version="1.0" encoding="UTF-8" standalone="no"?>
<!DOCTYPE svg PUBLIC "-//W3C//DTD SVG 1.1//EN"
 "http://www.w3.org/Graphics/SVG/1.1/DTD/svg11.dtd">
<!-- Generated by graphviz version 10.0.1 (20240210.2158)
 -->
<!-- Title: NAudio.MediaFoundation.MediaFoundationTransform.Reposition Pages: 1 -->
<svg width="871pt" height="333pt"
 viewBox="0.00 0.00 870.75 332.50" xmlns="http://www.w3.org/2000/svg" xmlns:xlink="http://www.w3.org/1999/xlink">
<g id="graph0" class="graph" transform="scale(1 1) rotate(0) translate(4 328.5)">
<title>NAudio.MediaFoundation.MediaFoundationTransform.Reposition</title>
<!-- Node1 -->
<g id="Node000001" class="node">
<title>Node1</title>
<g id="a_Node000001"><a xlink:title="Repositions the object for streaming if it is initialized for streaming, by ending the stream and dra...">
<polygon fill="#999999" stroke="#666666" points="157.75,-231.5 0,-231.5 0,-201 157.75,-201 157.75,-231.5"/>
<text text-anchor="start" x="8" y="-218" font-family="Helvetica,sans-Serif" font-size="10.00">NAudio.MediaFoundation.Media</text>
<text text-anchor="middle" x="78.88" y="-206.75" font-family="Helvetica,sans-Serif" font-size="10.00">FoundationTransform.Reposition</text>
</a>
</g>
</g>
<!-- Node2 -->
<g id="Node000002" class="node">
<title>Node2</title>
<g id="a_Node000002"><a xlink:href="class_n_audio_1_1_media_foundation_1_1_media_foundation_transform.html#adfd1a9a41d78fd6898c0ae3fbba98d2c" target="_top" xlink:title="Clears the output buffer by resetting the count and offset to zero.">
<polygon fill="white" stroke="#666666" points="375.88,-297.12 212.12,-297.12 212.12,-255.38 375.88,-255.38 375.88,-297.12"/>
<text text-anchor="start" x="220.12" y="-283.62" font-family="Helvetica,sans-Serif" font-size="10.00">NAudio.MediaFoundation.Media</text>
<text text-anchor="start" x="220.12" y="-272.38" font-family="Helvetica,sans-Serif" font-size="10.00">FoundationTransform.ClearOutput</text>
<text text-anchor="middle" x="294" y="-261.12" font-family="Helvetica,sans-Serif" font-size="10.00">Buffer</text>
</a>
</g>
</g>
<!-- Node1&#45;&gt;Node2 -->
<g id="edge1_Node000001_Node000002" class="edge">
<title>Node1&#45;&gt;Node2</title>
<g id="a_edge1_Node000001_Node000002"><a xlink:title=" ">
<path fill="none" stroke="#63b8ff" d="M135.59,-231.94C157.2,-238.02 182.44,-245.13 206.31,-251.85"/>
<polygon fill="#63b8ff" stroke="#63b8ff" points="205.13,-255.15 215.71,-254.49 207.03,-248.41 205.13,-255.15"/>
</a>
</g>
</g>
<!-- Node3 -->
<g id="Node000003" class="node">
<title>Node3</title>
<g id="a_Node000003"><a xlink:href="class_n_audio_1_1_media_foundation_1_1_media_foundation_transform.html#a4e0410a804ef3b6d090a6f4e4f04d1a7" target="_top" xlink:title="Ends the stream and drains the transform.">
<polygon fill="white" stroke="#666666" points="394.25,-177.5 193.75,-177.5 193.75,-147 394.25,-147 394.25,-177.5"/>
<text text-anchor="start" x="201.75" y="-164" font-family="Helvetica,sans-Serif" font-size="10.00">NAudio.MediaFoundation.Media</text>
<text text-anchor="middle" x="294" y="-152.75" font-family="Helvetica,sans-Serif" font-size="10.00">FoundationTransform.EndStreamAndDrain</text>
</a>
</g>
</g>
<!-- Node1&#45;&gt;Node3 -->
<g id="edge2_Node000001_Node000003" class="edge">
<title>Node1&#45;&gt;Node3</title>
<g id="a_edge2_Node000001_Node000003"><a xlink:title=" ">
<path fill="none" stroke="#63b8ff" d="M138.63,-200.53C156.32,-195.86 175.81,-190.78 193.75,-186.25 201.03,-184.41 208.61,-182.53 216.2,-180.66"/>
<polygon fill="#63b8ff" stroke="#63b8ff" points="216.94,-184.08 225.82,-178.3 215.27,-177.28 216.94,-184.08"/>
</a>
</g>
</g>
<!-- Node13 -->
<g id="Node000013" class="node">
<title>Node13</title>
<g id="a_Node000013"><a xlink:href="class_n_audio_1_1_media_foundation_1_1_media_foundation_transform.html#ac0e0c080dbb0cce7bfb5b0a4041769d7" target="_top" xlink:title="Initializes the transform for streaming by processing specific messages and setting the initializedFo...">
<polygon fill="white" stroke="#666666" points="389.75,-237.12 198.25,-237.12 198.25,-195.38 389.75,-195.38 389.75,-237.12"/>
<text text-anchor="start" x="206.25" y="-223.62" font-family="Helvetica,sans-Serif" font-size="10.00">NAudio.MediaFoundation.Media</text>
<text text-anchor="start" x="206.25" y="-212.38" font-family="Helvetica,sans-Serif" font-size="10.00">FoundationTransform.InitializeTransform</text>
<text text-anchor="middle" x="294" y="-201.12" font-family="Helvetica,sans-Serif" font-size="10.00">ForStreaming</text>
</a>
</g>
</g>
<!-- Node1&#45;&gt;Node13 -->
<g id="edge12_Node000001_Node000013" class="edge">
<title>Node1&#45;&gt;Node13</title>
<g id="a_edge12_Node000001_Node000013"><a xlink:title=" ">
<path fill="none" stroke="#63b8ff" d="M158.02,-216.25C167.33,-216.25 176.95,-216.25 186.57,-216.25"/>
<polygon fill="#63b8ff" stroke="#63b8ff" points="186.33,-219.75 196.33,-216.25 186.33,-212.75 186.33,-219.75"/>
</a>
</g>
</g>
<!-- Node4 -->
<g id="Node000004" class="node">
<title>Node4</title>
<g id="a_Node000004"><a xlink:href="interface_n_audio_1_1_media_foundation_1_1_i_m_f_transform.html#a3a72ff2388586a9855c48aedc86acf62" target="_top" xlink:title="Sends a message to the Media Foundation transform (MFT).">
<polygon fill="white" stroke="#666666" points="627.38,-228.5 434.38,-228.5 434.38,-198 627.38,-198 627.38,-228.5"/>
<text text-anchor="start" x="442.38" y="-215" font-family="Helvetica,sans-Serif" font-size="10.00">NAudio.MediaFoundation.IMFTransform.</text>
<text text-anchor="middle" x="530.88" y="-203.75" font-family="Helvetica,sans-Serif" font-size="10.00">ProcessMessage</text>
</a>
</g>
</g>
<!-- Node3&#45;&gt;Node4 -->
<g id="edge3_Node000003_Node000004" class="edge">
<title>Node3&#45;&gt;Node4</title>
<g id="a_edge3_Node000003_Node000004"><a xlink:title=" ">
<path fill="none" stroke="#63b8ff" d="M367.39,-177.97C392.51,-183.42 420.87,-189.58 446.79,-195.21"/>
<polygon fill="#63b8ff" stroke="#63b8ff" points="445.73,-198.56 456.25,-197.26 447.22,-191.72 445.73,-198.56"/>
</a>
</g>
</g>
<!-- Node5 -->
<g id="Node000005" class="node">
<title>Node5</title>
<g id="a_Node000005"><a xlink:href="class_n_audio_1_1_media_foundation_1_1_media_foundation_transform.html#adf0d8d3679e677e3ea3b64dbef65b195" target="_top" xlink:title="Reads data from the transform and returns the length of the output buffer.">
<polygon fill="white" stroke="#666666" points="631.5,-177.5 430.25,-177.5 430.25,-147 631.5,-147 631.5,-177.5"/>
<text text-anchor="start" x="438.25" y="-164" font-family="Helvetica,sans-Serif" font-size="10.00">NAudio.MediaFoundation.Media</text>
<text text-anchor="middle" x="530.88" y="-152.75" font-family="Helvetica,sans-Serif" font-size="10.00">FoundationTransform.ReadFromTransform</text>
</a>
</g>
</g>
<!-- Node3&#45;&gt;Node5 -->
<g id="edge4_Node000003_Node000005" class="edge">
<title>Node3&#45;&gt;Node5</title>
<g id="a_edge4_Node000003_Node000005"><a xlink:title=" ">
<path fill="none" stroke="#63b8ff" d="M394.61,-162.25C402.6,-162.25 410.7,-162.25 418.76,-162.25"/>
<polygon fill="#63b8ff" stroke="#63b8ff" points="418.6,-165.75 428.6,-162.25 418.6,-158.75 418.6,-165.75"/>
</a>
</g>
</g>
<!-- Node6 -->
<g id="Node000006" class="node">
<title>Node6</title>
<g id="a_Node000006"><a xlink:href="class_n_audio_1_1_media_foundation_1_1_media_foundation_transform.html#a6db3bcdd706d2be46cda93d7be46e3cc" target="_top" xlink:title="Converts the given number of bytes to the corresponding position in nanoseconds based on the provided...">
<polygon fill="white" stroke="#666666" points="862.75,-324.5 667.5,-324.5 667.5,-294 862.75,-294 862.75,-324.5"/>
<text text-anchor="start" x="675.5" y="-311" font-family="Helvetica,sans-Serif" font-size="10.00">NAudio.MediaFoundation.Media</text>
<text text-anchor="middle" x="765.12" y="-299.75" font-family="Helvetica,sans-Serif" font-size="10.00">FoundationTransform.BytesToNsPosition</text>
</a>
</g>
</g>
<!-- Node5&#45;&gt;Node6 -->
<g id="edge5_Node000005_Node000006" class="edge">
<title>Node5&#45;&gt;Node6</title>
<g id="a_edge5_Node000005_Node000006"><a xlink:title=" ">
<path fill="none" stroke="#63b8ff" d="M615.08,-177.94C621.02,-181.07 626.59,-184.8 631.5,-189.25 664.95,-219.58 633.88,-254.11 667.5,-284.25 668.75,-285.37 670.04,-286.44 671.38,-287.47"/>
<polygon fill="#63b8ff" stroke="#63b8ff" points="669.13,-290.18 679.41,-292.74 672.97,-284.33 669.13,-290.18"/>
</a>
</g>
</g>
<!-- Node7 -->
<g id="Node000007" class="node">
<title>Node7</title>
<g id="a_Node000007"><a xlink:href="class_n_audio_1_1_media_foundation_1_1_media_foundation_api.html#a10e796baf1844183c986b2c88397228a" target="_top" xlink:title="Creates a memory buffer of the specified size and returns it.">
<polygon fill="white" stroke="#666666" points="851.12,-275.5 679.12,-275.5 679.12,-245 851.12,-245 851.12,-275.5"/>
<text text-anchor="start" x="687.12" y="-262" font-family="Helvetica,sans-Serif" font-size="10.00">NAudio.MediaFoundation.Media</text>
<text text-anchor="middle" x="765.12" y="-250.75" font-family="Helvetica,sans-Serif" font-size="10.00">FoundationApi.CreateMemoryBuffer</text>
</a>
</g>
</g>
<!-- Node5&#45;&gt;Node7 -->
<g id="edge6_Node000005_Node000007" class="edge">
<title>Node5&#45;&gt;Node7</title>
<g id="a_edge6_Node000005_Node000007"><a xlink:title=" ">
<path fill="none" stroke="#63b8ff" d="M609.65,-177.96C617.34,-181.07 624.78,-184.79 631.5,-189.25 653.13,-203.6 645.78,-221.02 667.5,-235.25 669.91,-236.83 672.41,-238.31 674.99,-239.69"/>
<polygon fill="#63b8ff" stroke="#63b8ff" points="673.34,-242.78 683.87,-243.94 676.36,-236.47 673.34,-242.78"/>
</a>
</g>
</g>
<!-- Node8 -->
<g id="Node000008" class="node">
<title>Node8</title>
<g id="a_Node000008"><a xlink:href="class_n_audio_1_1_media_foundation_1_1_media_foundation_api.html#acf45f8cc1d8dbc17ee152df0c7ffef34" target="_top" xlink:title="Creates a new Media Foundation sample.">
<polygon fill="white" stroke="#666666" points="842.5,-226.5 687.75,-226.5 687.75,-196 842.5,-196 842.5,-226.5"/>
<text text-anchor="start" x="695.75" y="-213" font-family="Helvetica,sans-Serif" font-size="10.00">NAudio.MediaFoundation.Media</text>
<text text-anchor="middle" x="765.12" y="-201.75" font-family="Helvetica,sans-Serif" font-size="10.00">FoundationApi.CreateSample</text>
</a>
</g>
</g>
<!-- Node5&#45;&gt;Node8 -->
<g id="edge7_Node000005_Node000008" class="edge">
<title>Node5&#45;&gt;Node8</title>
<g id="a_edge7_Node000005_Node000008"><a xlink:title=" ">
<path fill="none" stroke="#63b8ff" d="M606.32,-177.96C629.34,-182.81 654.88,-188.2 678.59,-193.2"/>
<polygon fill="#63b8ff" stroke="#63b8ff" points="677.72,-196.6 688.22,-195.24 679.16,-189.75 677.72,-196.6"/>
</a>
</g>
</g>
<!-- Node9 -->
<g id="Node000009" class="node">
<title>Node9</title>
<g id="a_Node000009"><a xlink:href="class_n_audio_1_1_utils_1_1_buffer_helpers.html#a6fcf5a452e6779e71f5dfa9b51a74f1e" target="_top" xlink:title="Ensures that the input buffer has at least the specified number of samples and returns the buffer.">
<polygon fill="white" stroke="#666666" points="833.88,-177.5 696.38,-177.5 696.38,-147 833.88,-147 833.88,-177.5"/>
<text text-anchor="start" x="704.38" y="-164" font-family="Helvetica,sans-Serif" font-size="10.00">NAudio.Utils.BufferHelpers.</text>
<text text-anchor="middle" x="765.12" y="-152.75" font-family="Helvetica,sans-Serif" font-size="10.00">Ensure</text>
</a>
</g>
</g>
<!-- Node5&#45;&gt;Node9 -->
<g id="edge8_Node000005_Node000009" class="edge">
<title>Node5&#45;&gt;Node9</title>
<g id="a_edge8_Node000005_Node000009"><a xlink:title=" ">
<path fill="none" stroke="#63b8ff" d="M631.72,-162.25C649.57,-162.25 667.94,-162.25 685.11,-162.25"/>
<polygon fill="#63b8ff" stroke="#63b8ff" points="684.68,-165.75 694.68,-162.25 684.68,-158.75 684.68,-165.75"/>
</a>
</g>
</g>
<!-- Node10 -->
<g id="Node000010" class="node">
<title>Node10</title>
<g id="a_Node000010"><a xlink:href="interface_n_audio_1_1_media_foundation_1_1_i_m_f_media_buffer.html#a1af64854b06c4a042646213b10832302" target="_top" xlink:title="Gives the caller access to the memory in the buffer.">
<polygon fill="white" stroke="#666666" points="851.12,-128.5 679.12,-128.5 679.12,-98 851.12,-98 851.12,-128.5"/>
<text text-anchor="start" x="687.12" y="-115" font-family="Helvetica,sans-Serif" font-size="10.00">NAudio.MediaFoundation.IMFMedia</text>
<text text-anchor="middle" x="765.12" y="-103.75" font-family="Helvetica,sans-Serif" font-size="10.00">Buffer.Lock</text>
</a>
</g>
</g>
<!-- Node5&#45;&gt;Node10 -->
<g id="edge9_Node000005_Node000010" class="edge">
<title>Node5&#45;&gt;Node10</title>
<g id="a_edge9_Node000005_Node000010"><a xlink:title=" ">
<path fill="none" stroke="#63b8ff" d="M606.32,-146.54C629.34,-141.69 654.88,-136.3 678.59,-131.3"/>
<polygon fill="#63b8ff" stroke="#63b8ff" points="679.16,-134.75 688.22,-129.26 677.72,-127.9 679.16,-134.75"/>
</a>
</g>
</g>
<!-- Node11 -->
<g id="Node000011" class="node">
<title>Node11</title>
<g id="a_Node000011"><a xlink:href="interface_n_audio_1_1_media_foundation_1_1_i_m_f_transform.html#ae38bc27a19d67ebc4d8cc275bfe2de3f" target="_top" xlink:title="Generates output from the current input data.">
<polygon fill="white" stroke="#666666" points="861.62,-79.5 668.62,-79.5 668.62,-49 861.62,-49 861.62,-79.5"/>
<text text-anchor="start" x="676.62" y="-66" font-family="Helvetica,sans-Serif" font-size="10.00">NAudio.MediaFoundation.IMFTransform.</text>
<text text-anchor="middle" x="765.12" y="-54.75" font-family="Helvetica,sans-Serif" font-size="10.00">ProcessOutput</text>
</a>
</g>
</g>
<!-- Node5&#45;&gt;Node11 -->
<g id="edge10_Node000005_Node000011" class="edge">
<title>Node5&#45;&gt;Node11</title>
<g id="a_edge10_Node000005_Node000011"><a xlink:title=" ">
<path fill="none" stroke="#63b8ff" d="M556.5,-146.64C583.03,-130.4 626.92,-105.15 667.5,-89.25 672.86,-87.15 678.45,-85.17 684.13,-83.33"/>
<polygon fill="#63b8ff" stroke="#63b8ff" points="685.15,-86.67 693.67,-80.38 683.08,-79.99 685.15,-86.67"/>
</a>
</g>
</g>
<!-- Node12 -->
<g id="Node000012" class="node">
<title>Node12</title>
<g id="a_Node000012"><a xlink:href="interface_n_audio_1_1_media_foundation_1_1_i_m_f_media_buffer.html#a0d299795ca9afd20128108c9d6522557" target="_top" xlink:title="Unlocks a buffer that was previously locked.">
<polygon fill="white" stroke="#666666" points="851.12,-30.5 679.12,-30.5 679.12,0 851.12,0 851.12,-30.5"/>
<text text-anchor="start" x="687.12" y="-17" font-family="Helvetica,sans-Serif" font-size="10.00">NAudio.MediaFoundation.IMFMedia</text>
<text text-anchor="middle" x="765.12" y="-5.75" font-family="Helvetica,sans-Serif" font-size="10.00">Buffer.Unlock</text>
</a>
</g>
</g>
<!-- Node5&#45;&gt;Node12 -->
<g id="edge11_Node000005_Node000012" class="edge">
<title>Node5&#45;&gt;Node12</title>
<g id="a_edge11_Node000005_Node000012"><a xlink:title=" ">
<path fill="none" stroke="#63b8ff" d="M544.75,-146.55C567.01,-120.45 615.32,-68.27 667.5,-40.25 670.92,-38.41 674.49,-36.7 678.15,-35.12"/>
<polygon fill="#63b8ff" stroke="#63b8ff" points="679.23,-38.45 687.24,-31.51 676.65,-31.94 679.23,-38.45"/>
</a>
</g>
</g>
<!-- Node13&#45;&gt;Node4 -->
<g id="edge13_Node000013_Node000004" class="edge">
<title>Node13&#45;&gt;Node4</title>
<g id="a_edge13_Node000013_Node000004"><a xlink:title=" ">
<path fill="none" stroke="#63b8ff" d="M390.19,-215.03C400.95,-214.9 411.97,-214.76 422.87,-214.62"/>
<polygon fill="#63b8ff" stroke="#63b8ff" points="422.7,-218.12 432.65,-214.49 422.61,-211.12 422.7,-218.12"/>
</a>
</g>
</g>
</g>
</svg>
