<?xml version="1.0" encoding="UTF-8" standalone="no"?>
<!DOCTYPE svg PUBLIC "-//W3C//DTD SVG 1.1//EN"
 "http://www.w3.org/Graphics/SVG/1.1/DTD/svg11.dtd">
<!-- Generated by graphviz version 10.0.1 (20240210.2158)
 -->
<!-- Title: xeno_rat_server.Node.ResetRecvTimeout Pages: 1 -->
<!--zoomable 1264 -->

<svg id="main" version="1.1" xmlns="http://www.w3.org/2000/svg" xmlns:xlink="http://www.w3.org/1999/xlink" xml:space="preserve" onload="init(evt)">
<style type="text/css"><![CDATA[
.node, .edge {opacity: 0.7;}
.node.selected, .edge.selected {opacity: 1;}
.edge:hover path { stroke: red; }
.edge:hover polygon { stroke: red; fill: red; }
]]></style>

<defs>
  <circle id="rim" cx="0" cy="0" r="7"/>
  <circle id="rim2" cx="0" cy="0" r="3.5"/>
  <g id="zoomPlus">
    <use xlink:href="#rim" fill="#404040"><set attributeName="fill" to="#808080" begin="zoomplus.mouseover" end="zoomplus.mouseout"/></use>
    <path d="M-4,0h8M0,-4v8" fill="none" stroke="white" stroke-width="1.5" pointer-events="none"/>
  </g>
  <g id="zoomMin">
    <use xlink:href="#rim" fill="#404040"><set attributeName="fill" to="#808080" begin="zoomminus.mouseover" end="zoomminus.mouseout"/></use>
    <path d="M-4,0h8" fill="none" stroke="white" stroke-width="1.5" pointer-events="none"/>
  </g>
  <g id="arrowUp" transform="translate(30 24)">
    <use xlink:href="#rim"/>
    <path pointer-events="none" fill="none" stroke="white" stroke-width="1.5" d="M0,-3.0v7 M-2.5,-0.5L0,-3.0L2.5,-0.5"/>
  </g>
  <g id="arrowRight" transform="rotate(90) translate(36 -43)">
    <use xlink:href="#rim"/>
    <path pointer-events="none" fill="none" stroke="white" stroke-width="1.5" d="M0,-3.0v7 M-2.5,-0.5L0,-3.0L2.5,-0.5"/>
  </g>
  <g id="arrowDown" transform="rotate(180) translate(-30 -48)">
    <use xlink:href="#rim"/>
    <path pointer-events="none" fill="none" stroke="white" stroke-width="1.5" d="M0,-3.0v7 M-2.5,-0.5L0,-3.0L2.5,-0.5"/>
  </g>
  <g id="arrowLeft" transform="rotate(270) translate(-36 17)">
    <use xlink:href="#rim"/>
    <path pointer-events="none" fill="none" stroke="white" stroke-width="1.5" d="M0,-3.0v7 M-2.5,-0.5L0,-3.0L2.5,-0.5"/>
  </g>
  <g id="resetDef">
    <use xlink:href="#rim2" fill="#404040"><set attributeName="fill" to="#808080" begin="reset.mouseover" end="reset.mouseout"/></use>
  </g>
</defs>
<script type="application/ecmascript">
var viewWidth = 487;
var viewHeight = 1264;
var sectionId = 'dynsection-18';
</script>
<script type="application/ecmascript" xlink:href="svg.min.js"/>
<svg id="graph" class="graph">
<g id="viewport">
<title>xeno_rat_server.Node.ResetRecvTimeout</title>
<!-- Node1 -->
<g id="Node000001" class="node">
<title>Node1</title>
<g id="a_Node000001"><a xlink:title="Resets the receive timeout for the socket.">
<polygon fill="#999999" stroke="#666666" points="479.25,-642.5 338.75,-642.5 338.75,-612 479.25,-612 479.25,-642.5"/>
<text text-anchor="start" x="346.75" y="-629" font-family="Helvetica,sans-Serif" font-size="10.00">xeno_rat_server.Node.Reset</text>
<text text-anchor="middle" x="409" y="-617.75" font-family="Helvetica,sans-Serif" font-size="10.00">RecvTimeout</text>
</a>
</g>
</g>
<!-- Node2 -->
<g id="Node000002" class="node">
<title>Node2</title>
<g id="a_Node000002"><a xlink:href="classxeno__rat__server_1_1_utils.html#a0f72f1a55c5355b598dbc0adbad14b5d" target="_top" xlink:title="Asynchronously loads a DLL into the specified node and returns a boolean indicating the success of th...">
<polygon fill="white" stroke="#666666" points="302.75,-642.5 170.5,-642.5 170.5,-612 302.75,-612 302.75,-642.5"/>
<text text-anchor="start" x="178.5" y="-629" font-family="Helvetica,sans-Serif" font-size="10.00">xeno_rat_server.Utils.Load</text>
<text text-anchor="middle" x="236.62" y="-617.75" font-family="Helvetica,sans-Serif" font-size="10.00">DllAsync</text>
</a>
</g>
</g>
<!-- Node1&#45;&gt;Node2 -->
<g id="edge1_Node000001_Node000002" class="edge">
<title>Node1&#45;&gt;Node2</title>
<g id="a_edge1_Node000001_Node000002"><a xlink:title=" ">
<path fill="none" stroke="#63b8ff" d="M327.27,-627.25C319.14,-627.25 310.95,-627.25 303.01,-627.25"/>
<polygon fill="#63b8ff" stroke="#63b8ff" points="327.19,-630.75 337.19,-627.25 327.19,-623.75 327.19,-630.75"/>
</a>
</g>
</g>
<!-- Node3 -->
<g id="Node000003" class="node">
<title>Node3</title>
<g id="a_Node000003"><a xlink:href="classxeno__rat__server_1_1_main_form.html#abc2d48f76d2ce066f2c2e2f852cb64ac" target="_top" xlink:title="Completes tasks on connection with the client node.">
<polygon fill="white" stroke="#666666" points="134.5,-1255.5 0,-1255.5 0,-1225 134.5,-1225 134.5,-1255.5"/>
<text text-anchor="start" x="8" y="-1242" font-family="Helvetica,sans-Serif" font-size="10.00">xeno_rat_server.MainForm.</text>
<text text-anchor="middle" x="67.25" y="-1230.75" font-family="Helvetica,sans-Serif" font-size="10.00">CompleteOnConnectTasks</text>
</a>
</g>
</g>
<!-- Node2&#45;&gt;Node3 -->
<g id="edge2_Node000002_Node000003" class="edge">
<title>Node2&#45;&gt;Node3</title>
<g id="a_edge2_Node000002_Node000003"><a xlink:title=" ">
<path fill="none" stroke="#63b8ff" d="M234.46,-654.25C229.5,-757.72 206.9,-1127.55 134.5,-1215.25 131.53,-1218.85 127.98,-1221.94 124.08,-1224.58"/>
<polygon fill="#63b8ff" stroke="#63b8ff" points="237.95,-654.65 234.91,-644.5 230.96,-654.33 237.95,-654.65"/>
</a>
</g>
</g>
<!-- Node4 -->
<g id="Node000004" class="node">
<title>Node4</title>
<g id="a_Node000004"><a xlink:href="classxeno__rat__server_1_1_main_form.html#a4573557fdb061bfa1a1e523f45fa0a62" target="_top" xlink:title="Displays a message box using the provided client and message text.">
<polygon fill="white" stroke="#666666" points="134.5,-1206.5 0,-1206.5 0,-1176 134.5,-1176 134.5,-1206.5"/>
<text text-anchor="start" x="8" y="-1193" font-family="Helvetica,sans-Serif" font-size="10.00">xeno_rat_server.MainForm.</text>
<text text-anchor="middle" x="67.25" y="-1181.75" font-family="Helvetica,sans-Serif" font-size="10.00">DisplayMsgBox</text>
</a>
</g>
</g>
<!-- Node2&#45;&gt;Node4 -->
<g id="edge3_Node000002_Node000004" class="edge">
<title>Node2&#45;&gt;Node4</title>
<g id="a_edge3_Node000002_Node000004"><a xlink:title=" ">
<path fill="none" stroke="#63b8ff" d="M234,-654.19C227.61,-752 201.15,-1086.75 134.5,-1166.25 131.5,-1169.83 127.93,-1172.9 124.02,-1175.53"/>
<polygon fill="#63b8ff" stroke="#63b8ff" points="237.48,-654.69 234.62,-644.49 230.49,-654.25 237.48,-654.69"/>
</a>
</g>
</g>
<!-- Node5 -->
<g id="Node000005" class="node">
<title>Node5</title>
<g id="a_Node000005"><a xlink:href="classxeno__rat__server_1_1_main_form.html#aff9859727471e4ef338d149f1dfe02d0" target="_top" xlink:title="Starts the blue screen process by creating a subnode, loading a DLL, and sending a byte array.">
<polygon fill="white" stroke="#666666" points="134.5,-1157.5 0,-1157.5 0,-1127 134.5,-1127 134.5,-1157.5"/>
<text text-anchor="start" x="8" y="-1144" font-family="Helvetica,sans-Serif" font-size="10.00">xeno_rat_server.MainForm.</text>
<text text-anchor="middle" x="67.25" y="-1132.75" font-family="Helvetica,sans-Serif" font-size="10.00">StartBlueScreen</text>
</a>
</g>
</g>
<!-- Node2&#45;&gt;Node5 -->
<g id="edge4_Node000002_Node000005" class="edge">
<title>Node2&#45;&gt;Node5</title>
<g id="a_edge4_Node000002_Node000005"><a xlink:title=" ">
<path fill="none" stroke="#63b8ff" d="M233.46,-654.09C225.55,-745.93 195.44,-1045.89 134.5,-1117.25 131.39,-1120.9 127.68,-1124.01 123.64,-1126.67"/>
<polygon fill="#63b8ff" stroke="#63b8ff" points="236.93,-654.55 234.28,-644.29 229.96,-653.96 236.93,-654.55"/>
</a>
</g>
</g>
<!-- Node6 -->
<g id="Node000006" class="node">
<title>Node6</title>
<g id="a_Node000006"><a xlink:href="classxeno__rat__server_1_1_main_form.html#aea3aded3d8fe69ac2863a1cf2201a697" target="_top" xlink:title="Starts a chat with the specified client node.">
<polygon fill="white" stroke="#666666" points="134.5,-1108.5 0,-1108.5 0,-1078 134.5,-1078 134.5,-1108.5"/>
<text text-anchor="start" x="8" y="-1095" font-family="Helvetica,sans-Serif" font-size="10.00">xeno_rat_server.MainForm.</text>
<text text-anchor="middle" x="67.25" y="-1083.75" font-family="Helvetica,sans-Serif" font-size="10.00">StartChat</text>
</a>
</g>
</g>
<!-- Node2&#45;&gt;Node6 -->
<g id="edge5_Node000002_Node000006" class="edge">
<title>Node2&#45;&gt;Node6</title>
<g id="a_edge5_Node000002_Node000006"><a xlink:title=" ">
<path fill="none" stroke="#63b8ff" d="M232.81,-653.88C223.29,-739.37 189.77,-1004.94 134.5,-1068.25 131.35,-1071.86 127.62,-1074.95 123.56,-1077.6"/>
<polygon fill="#63b8ff" stroke="#63b8ff" points="236.27,-654.45 233.88,-644.13 229.31,-653.69 236.27,-654.45"/>
</a>
</g>
</g>
<!-- Node7 -->
<g id="Node000007" class="node">
<title>Node7</title>
<g id="a_Node000007"><a xlink:href="classxeno__rat__server_1_1_main_form.html#a651239e4b707a24f8476dd5504759eea" target="_top" xlink:title="Asynchronously starts the Cmstp UAC bypass on the specified client node.">
<polygon fill="white" stroke="#666666" points="134.5,-1059.5 0,-1059.5 0,-1029 134.5,-1029 134.5,-1059.5"/>
<text text-anchor="start" x="8" y="-1046" font-family="Helvetica,sans-Serif" font-size="10.00">xeno_rat_server.MainForm.</text>
<text text-anchor="middle" x="67.25" y="-1034.75" font-family="Helvetica,sans-Serif" font-size="10.00">StartCmstpUacBypass</text>
</a>
</g>
</g>
<!-- Node2&#45;&gt;Node7 -->
<g id="edge6_Node000002_Node000007" class="edge">
<title>Node2&#45;&gt;Node7</title>
<g id="a_edge6_Node000002_Node000007"><a xlink:title=" ">
<path fill="none" stroke="#63b8ff" d="M231.97,-653.99C220.68,-733.11 184.06,-964 134.5,-1019.25 131.3,-1022.82 127.53,-1025.88 123.45,-1028.51"/>
<polygon fill="#63b8ff" stroke="#63b8ff" points="235.43,-654.53 233.35,-644.14 228.5,-653.56 235.43,-654.53"/>
</a>
</g>
</g>
<!-- Node8 -->
<g id="Node000008" class="node">
<title>Node8</title>
<g id="a_Node000008"><a xlink:href="classxeno__rat__server_1_1_main_form.html#a21e23474595712331670ab5f8ee49ce7" target="_top" xlink:title="Asynchronously starts the de&#45;escalation of permissions for the specified client node.">
<polygon fill="white" stroke="#666666" points="134.5,-1010.5 0,-1010.5 0,-980 134.5,-980 134.5,-1010.5"/>
<text text-anchor="start" x="8" y="-997" font-family="Helvetica,sans-Serif" font-size="10.00">xeno_rat_server.MainForm.</text>
<text text-anchor="middle" x="67.25" y="-985.75" font-family="Helvetica,sans-Serif" font-size="10.00">StartDeescalateperms</text>
</a>
</g>
</g>
<!-- Node2&#45;&gt;Node8 -->
<g id="edge7_Node000002_Node000008" class="edge">
<title>Node2&#45;&gt;Node8</title>
<g id="a_edge7_Node000002_Node000008"><a xlink:title=" ">
<path fill="none" stroke="#63b8ff" d="M235.42,-654.3C233.46,-717.87 219.84,-878.33 134.5,-970.25 131.15,-973.85 127.24,-976.94 123.01,-979.59"/>
<polygon fill="#63b8ff" stroke="#63b8ff" points="238.91,-654.51 235.63,-644.44 231.91,-654.36 238.91,-654.51"/>
</a>
</g>
</g>
<!-- Node9 -->
<g id="Node000009" class="node">
<title>Node9</title>
<g id="a_Node000009"><a xlink:href="classxeno__rat__server_1_1_main_form.html#a89a375593c10726517bcf9688e05cfcc" target="_top" xlink:title="Asynchronously starts the file manager for the specified client node.">
<polygon fill="white" stroke="#666666" points="134.5,-961.5 0,-961.5 0,-931 134.5,-931 134.5,-961.5"/>
<text text-anchor="start" x="8" y="-948" font-family="Helvetica,sans-Serif" font-size="10.00">xeno_rat_server.MainForm.</text>
<text text-anchor="middle" x="67.25" y="-936.75" font-family="Helvetica,sans-Serif" font-size="10.00">StartFileManager</text>
</a>
</g>
</g>
<!-- Node2&#45;&gt;Node9 -->
<g id="edge8_Node000002_Node000009" class="edge">
<title>Node2&#45;&gt;Node9</title>
<g id="a_edge8_Node000002_Node000009"><a xlink:title=" ">
<path fill="none" stroke="#63b8ff" d="M233.87,-653.9C228.72,-710.67 208.94,-844.58 134.5,-921.25 130.99,-924.87 126.9,-927.97 122.52,-930.62"/>
<polygon fill="#63b8ff" stroke="#63b8ff" points="237.33,-654.46 234.66,-644.21 230.36,-653.89 237.33,-654.46"/>
</a>
</g>
</g>
<!-- Node10 -->
<g id="Node000010" class="node">
<title>Node10</title>
<g id="a_Node000010"><a xlink:href="classxeno__rat__server_1_1_main_form.html#a2b362826734f4d02bfad578e5d989303" target="_top" xlink:title="Starts the FodHelper Bypass process using the specified client node.">
<polygon fill="white" stroke="#666666" points="134.5,-912.5 0,-912.5 0,-882 134.5,-882 134.5,-912.5"/>
<text text-anchor="start" x="8" y="-899" font-family="Helvetica,sans-Serif" font-size="10.00">xeno_rat_server.MainForm.</text>
<text text-anchor="middle" x="67.25" y="-887.75" font-family="Helvetica,sans-Serif" font-size="10.00">StartFodHelperBypass</text>
</a>
</g>
</g>
<!-- Node2&#45;&gt;Node10 -->
<g id="edge9_Node000002_Node000010" class="edge">
<title>Node2&#45;&gt;Node10</title>
<g id="a_edge9_Node000002_Node000010"><a xlink:title=" ">
<path fill="none" stroke="#63b8ff" d="M231.68,-654.19C223.03,-703.96 197.84,-810.82 134.5,-872.25 130.79,-875.84 126.52,-878.93 121.97,-881.58"/>
<polygon fill="#63b8ff" stroke="#63b8ff" points="235.14,-654.76 233.29,-644.33 228.23,-653.63 235.14,-654.76"/>
</a>
</g>
</g>
<!-- Node11 -->
<g id="Node000011" class="node">
<title>Node11</title>
<g id="a_Node000011"><a xlink:href="classxeno__rat__server_1_1_main_form.html#a5f4c1b812f599f3bff874c2e812a2b36" target="_top" xlink:title="Asynchronously starts the FunMenu for the specified client node.">
<polygon fill="white" stroke="#666666" points="134.5,-863.5 0,-863.5 0,-833 134.5,-833 134.5,-863.5"/>
<text text-anchor="start" x="8" y="-850" font-family="Helvetica,sans-Serif" font-size="10.00">xeno_rat_server.MainForm.</text>
<text text-anchor="middle" x="67.25" y="-838.75" font-family="Helvetica,sans-Serif" font-size="10.00">StartFunMenu</text>
</a>
</g>
</g>
<!-- Node2&#45;&gt;Node11 -->
<g id="edge10_Node000002_Node000011" class="edge">
<title>Node2&#45;&gt;Node11</title>
<g id="a_edge10_Node000002_Node000011"><a xlink:title=" ">
<path fill="none" stroke="#63b8ff" d="M228.66,-653.75C216.41,-695.42 187.18,-776.33 134.5,-823.25 130.46,-826.85 125.85,-829.95 120.99,-832.61"/>
<polygon fill="#63b8ff" stroke="#63b8ff" points="231.97,-654.9 231.32,-644.32 225.24,-653 231.97,-654.9"/>
</a>
</g>
</g>
<!-- Node12 -->
<g id="Node000012" class="node">
<title>Node12</title>
<g id="a_Node000012"><a xlink:href="classxeno__rat__server_1_1_main_form.html#a810bcfa72d1d6b33964218bdd348e1aa" target="_top" xlink:title="Asynchronously starts the HVNC (Hidden VNC) functionality for the specified client node.">
<polygon fill="white" stroke="#666666" points="134.5,-814.5 0,-814.5 0,-784 134.5,-784 134.5,-814.5"/>
<text text-anchor="start" x="8" y="-801" font-family="Helvetica,sans-Serif" font-size="10.00">xeno_rat_server.MainForm.</text>
<text text-anchor="middle" x="67.25" y="-789.75" font-family="Helvetica,sans-Serif" font-size="10.00">StartHvnc</text>
</a>
</g>
</g>
<!-- Node2&#45;&gt;Node12 -->
<g id="edge11_Node000002_Node000012" class="edge">
<title>Node2&#45;&gt;Node12</title>
<g id="a_edge11_Node000002_Node000012"><a xlink:title=" ">
<path fill="none" stroke="#63b8ff" d="M224.04,-652.94C208.18,-685.43 176.78,-741.13 134.5,-774.25 129.95,-777.81 124.84,-780.91 119.53,-783.59"/>
<polygon fill="#63b8ff" stroke="#63b8ff" points="227.04,-654.78 228.17,-644.24 220.72,-651.78 227.04,-654.78"/>
</a>
</g>
</g>
<!-- Node13 -->
<g id="Node000013" class="node">
<title>Node13</title>
<g id="a_Node000013"><a xlink:href="classxeno__rat__server_1_1_main_form.html#a0680d2dda8896b373cc6a501322728dd" target="_top" xlink:title="Asynchronously starts the information grabbing process using the provided client .">
<polygon fill="white" stroke="#666666" points="134.5,-765.5 0,-765.5 0,-735 134.5,-735 134.5,-765.5"/>
<text text-anchor="start" x="8" y="-752" font-family="Helvetica,sans-Serif" font-size="10.00">xeno_rat_server.MainForm.</text>
<text text-anchor="middle" x="67.25" y="-740.75" font-family="Helvetica,sans-Serif" font-size="10.00">StartInfoGrab</text>
</a>
</g>
</g>
<!-- Node2&#45;&gt;Node13 -->
<g id="edge12_Node000002_Node000013" class="edge">
<title>Node2&#45;&gt;Node13</title>
<g id="a_edge12_Node000002_Node000013"><a xlink:title=" ">
<path fill="none" stroke="#63b8ff" d="M215.72,-651.55C196.77,-673.36 166.47,-704.97 134.5,-725.25 129,-728.74 122.93,-731.86 116.78,-734.6"/>
<polygon fill="#63b8ff" stroke="#63b8ff" points="218.32,-653.9 222.14,-644.02 212.99,-649.36 218.32,-653.9"/>
</a>
</g>
</g>
<!-- Node14 -->
<g id="Node000014" class="node">
<title>Node14</title>
<g id="a_Node000014"><a xlink:href="classxeno__rat__server_1_1_main_form.html#aa8edea5ebf056213ec21c6133c5c8a2d" target="_top" xlink:title="Asynchronously starts the key logger for the specified client node.">
<polygon fill="white" stroke="#666666" points="134.5,-716.5 0,-716.5 0,-686 134.5,-686 134.5,-716.5"/>
<text text-anchor="start" x="8" y="-703" font-family="Helvetica,sans-Serif" font-size="10.00">xeno_rat_server.MainForm.</text>
<text text-anchor="middle" x="67.25" y="-691.75" font-family="Helvetica,sans-Serif" font-size="10.00">StartKeyLogger</text>
</a>
</g>
</g>
<!-- Node2&#45;&gt;Node14 -->
<g id="edge13_Node000002_Node000014" class="edge">
<title>Node2&#45;&gt;Node14</title>
<g id="a_edge13_Node000002_Node000014"><a xlink:title=" ">
<path fill="none" stroke="#63b8ff" d="M194.69,-648.12C176.44,-657.16 154.58,-667.62 134.5,-676.25 127.16,-679.41 119.27,-682.57 111.6,-685.54"/>
<polygon fill="#63b8ff" stroke="#63b8ff" points="196.24,-651.27 203.62,-643.67 193.11,-645 196.24,-651.27"/>
</a>
</g>
</g>
<!-- Node15 -->
<g id="Node000015" class="node">
<title>Node15</title>
<g id="a_Node000015"><a xlink:href="classxeno__rat__server_1_1_main_form.html#a826a8db645ae8c08992769a858fd94b7" target="_top" xlink:title="Asynchronously starts the live microphone functionality for the specified client node.">
<polygon fill="white" stroke="#666666" points="134.5,-667.5 0,-667.5 0,-637 134.5,-637 134.5,-667.5"/>
<text text-anchor="start" x="8" y="-654" font-family="Helvetica,sans-Serif" font-size="10.00">xeno_rat_server.MainForm.</text>
<text text-anchor="middle" x="67.25" y="-642.75" font-family="Helvetica,sans-Serif" font-size="10.00">StartLiveMicrophone</text>
</a>
</g>
</g>
<!-- Node2&#45;&gt;Node15 -->
<g id="edge14_Node000002_Node000015" class="edge">
<title>Node2&#45;&gt;Node15</title>
<g id="a_edge14_Node000002_Node000015"><a xlink:title=" ">
<path fill="none" stroke="#63b8ff" d="M159.11,-638.68C151.03,-639.89 142.87,-641.1 134.92,-642.29"/>
<polygon fill="#63b8ff" stroke="#63b8ff" points="159.56,-642.15 168.94,-637.21 158.53,-635.23 159.56,-642.15"/>
</a>
</g>
</g>
<!-- Node16 -->
<g id="Node000016" class="node">
<title>Node16</title>
<g id="a_Node000016"><a xlink:href="classxeno__rat__server_1_1_main_form.html#a13db169027d7d28675d6a43fe03b51ea" target="_top" xlink:title="Asynchronously starts the offline keylogger for the specified client node.">
<polygon fill="white" stroke="#666666" points="134.5,-618.5 0,-618.5 0,-588 134.5,-588 134.5,-618.5"/>
<text text-anchor="start" x="8" y="-605" font-family="Helvetica,sans-Serif" font-size="10.00">xeno_rat_server.MainForm.</text>
<text text-anchor="middle" x="67.25" y="-593.75" font-family="Helvetica,sans-Serif" font-size="10.00">StartOfflineKeyLogger</text>
</a>
</g>
</g>
<!-- Node2&#45;&gt;Node16 -->
<g id="edge15_Node000002_Node000016" class="edge">
<title>Node2&#45;&gt;Node16</title>
<g id="a_edge15_Node000002_Node000016"><a xlink:title=" ">
<path fill="none" stroke="#63b8ff" d="M159.11,-616.28C151.03,-615.12 142.87,-613.95 134.92,-612.81"/>
<polygon fill="#63b8ff" stroke="#63b8ff" points="158.54,-619.73 168.94,-617.69 159.53,-612.8 158.54,-619.73"/>
</a>
</g>
</g>
<!-- Node17 -->
<g id="Node000017" class="node">
<title>Node17</title>
<g id="a_Node000017"><a xlink:href="classxeno__rat__server_1_1_main_form.html#afdd8e5316ffdbf8c9bcaae0a1aaf54e3" target="_top" xlink:title="Starts the process manager for the specified client node.">
<polygon fill="white" stroke="#666666" points="134.5,-569.5 0,-569.5 0,-539 134.5,-539 134.5,-569.5"/>
<text text-anchor="start" x="8" y="-556" font-family="Helvetica,sans-Serif" font-size="10.00">xeno_rat_server.MainForm.</text>
<text text-anchor="middle" x="67.25" y="-544.75" font-family="Helvetica,sans-Serif" font-size="10.00">StartProcessManager</text>
</a>
</g>
</g>
<!-- Node2&#45;&gt;Node17 -->
<g id="edge16_Node000002_Node000017" class="edge">
<title>Node2&#45;&gt;Node17</title>
<g id="a_edge16_Node000002_Node000017"><a xlink:title=" ">
<path fill="none" stroke="#63b8ff" d="M194.24,-606.66C176.07,-597.87 154.38,-587.7 134.5,-579.25 127.03,-576.08 119.01,-572.88 111.22,-569.88"/>
<polygon fill="#63b8ff" stroke="#63b8ff" points="192.61,-609.76 203.14,-611 195.68,-603.47 192.61,-609.76"/>
</a>
</g>
</g>
<!-- Node18 -->
<g id="Node000018" class="node">
<title>Node18</title>
<g id="a_Node000018"><a xlink:href="classxeno__rat__server_1_1_main_form.html#ac5e9e4b94257b2984ee8073a4b51c968" target="_top" xlink:title="Asynchronously starts the registry manager for the specified client .">
<polygon fill="white" stroke="#666666" points="134.5,-520.5 0,-520.5 0,-490 134.5,-490 134.5,-520.5"/>
<text text-anchor="start" x="8" y="-507" font-family="Helvetica,sans-Serif" font-size="10.00">xeno_rat_server.MainForm.</text>
<text text-anchor="middle" x="67.25" y="-495.75" font-family="Helvetica,sans-Serif" font-size="10.00">StartRegistryManager</text>
</a>
</g>
</g>
<!-- Node2&#45;&gt;Node18 -->
<g id="edge17_Node000002_Node000018" class="edge">
<title>Node2&#45;&gt;Node18</title>
<g id="a_edge17_Node000002_Node000018"><a xlink:title=" ">
<path fill="none" stroke="#63b8ff" d="M215.67,-603.21C196.69,-581.63 166.37,-550.35 134.5,-530.25 128.99,-526.77 122.92,-523.67 116.76,-520.92"/>
<polygon fill="#63b8ff" stroke="#63b8ff" points="212.91,-605.37 222.09,-610.66 218.21,-600.8 212.91,-605.37"/>
</a>
</g>
</g>
<!-- Node19 -->
<g id="Node000019" class="node">
<title>Node19</title>
<g id="a_Node000019"><a xlink:href="classxeno__rat__server_1_1_main_form.html#ae988a50a028d8a4bb571a9bd9e3a7794" target="_top" xlink:title="Asynchronously starts the process of removing the startup using the provided client .">
<polygon fill="white" stroke="#666666" points="134.5,-471.5 0,-471.5 0,-441 134.5,-441 134.5,-471.5"/>
<text text-anchor="start" x="8" y="-458" font-family="Helvetica,sans-Serif" font-size="10.00">xeno_rat_server.MainForm.</text>
<text text-anchor="middle" x="67.25" y="-446.75" font-family="Helvetica,sans-Serif" font-size="10.00">StartRemoveStartup</text>
</a>
</g>
</g>
<!-- Node2&#45;&gt;Node19 -->
<g id="edge18_Node000002_Node000019" class="edge">
<title>Node2&#45;&gt;Node19</title>
<g id="a_edge18_Node000002_Node000019"><a xlink:title=" ">
<path fill="none" stroke="#63b8ff" d="M224,-601.74C208.09,-569.47 176.64,-514.15 134.5,-481.25 129.95,-477.69 124.83,-474.6 119.51,-471.92"/>
<polygon fill="#63b8ff" stroke="#63b8ff" points="220.65,-602.86 228.13,-610.36 226.97,-599.83 220.65,-602.86"/>
</a>
</g>
</g>
<!-- Node20 -->
<g id="Node000020" class="node">
<title>Node20</title>
<g id="a_Node000020"><a xlink:href="classxeno__rat__server_1_1_main_form.html#a386f78d100d1def239d9e0adc7b365d9" target="_top" xlink:title="Initiates a request for admin privileges using the Uacbypass plugin.">
<polygon fill="white" stroke="#666666" points="134.5,-422.5 0,-422.5 0,-392 134.5,-392 134.5,-422.5"/>
<text text-anchor="start" x="8" y="-409" font-family="Helvetica,sans-Serif" font-size="10.00">xeno_rat_server.MainForm.</text>
<text text-anchor="middle" x="67.25" y="-397.75" font-family="Helvetica,sans-Serif" font-size="10.00">StartRequestForAdmin</text>
</a>
</g>
</g>
<!-- Node2&#45;&gt;Node20 -->
<g id="edge19_Node000002_Node000020" class="edge">
<title>Node2&#45;&gt;Node20</title>
<g id="a_edge19_Node000002_Node000020"><a xlink:title=" ">
<path fill="none" stroke="#63b8ff" d="M228.62,-600.88C216.32,-559.42 187.02,-478.93 134.5,-432.25 130.46,-428.66 125.85,-425.56 120.98,-422.9"/>
<polygon fill="#63b8ff" stroke="#63b8ff" points="225.19,-601.6 231.3,-610.26 231.92,-599.68 225.19,-601.6"/>
</a>
</g>
</g>
<!-- Node21 -->
<g id="Node000021" class="node">
<title>Node21</title>
<g id="a_Node000021"><a xlink:href="classxeno__rat__server_1_1_main_form.html#acf363790f854fbaab52c2bbb6478f7e2" target="_top" xlink:title="Asynchronously starts or restarts the specified client node.">
<polygon fill="white" stroke="#666666" points="134.5,-373.5 0,-373.5 0,-343 134.5,-343 134.5,-373.5"/>
<text text-anchor="start" x="8" y="-360" font-family="Helvetica,sans-Serif" font-size="10.00">xeno_rat_server.MainForm.</text>
<text text-anchor="middle" x="67.25" y="-348.75" font-family="Helvetica,sans-Serif" font-size="10.00">StartRestart</text>
</a>
</g>
</g>
<!-- Node2&#45;&gt;Node21 -->
<g id="edge20_Node000002_Node000021" class="edge">
<title>Node2&#45;&gt;Node21</title>
<g id="a_edge20_Node000002_Node000021"><a xlink:title=" ">
<path fill="none" stroke="#63b8ff" d="M231.65,-600.42C222.94,-550.85 197.66,-444.42 134.5,-383.25 130.79,-379.66 126.52,-376.57 121.96,-373.92"/>
<polygon fill="#63b8ff" stroke="#63b8ff" points="228.19,-600.94 233.27,-610.24 235.09,-599.8 228.19,-600.94"/>
</a>
</g>
</g>
<!-- Node22 -->
<g id="Node000022" class="node">
<title>Node22</title>
<g id="a_Node000022"><a xlink:href="classxeno__rat__server_1_1_main_form.html#a899ea8731655cb84f056b3a31a9fa640" target="_top" xlink:title="Asynchronously starts a reverse proxy using the provided client node.">
<polygon fill="white" stroke="#666666" points="134.5,-324.5 0,-324.5 0,-294 134.5,-294 134.5,-324.5"/>
<text text-anchor="start" x="8" y="-311" font-family="Helvetica,sans-Serif" font-size="10.00">xeno_rat_server.MainForm.</text>
<text text-anchor="middle" x="67.25" y="-299.75" font-family="Helvetica,sans-Serif" font-size="10.00">StartReverseProxy</text>
</a>
</g>
</g>
<!-- Node2&#45;&gt;Node22 -->
<g id="edge21_Node000002_Node000022" class="edge">
<title>Node2&#45;&gt;Node22</title>
<g id="a_edge21_Node000002_Node000022"><a xlink:title=" ">
<path fill="none" stroke="#63b8ff" d="M233.8,-600.29C228.54,-543.48 208.58,-410.47 134.5,-334.25 130.99,-330.64 126.9,-327.54 122.51,-324.88"/>
<polygon fill="#63b8ff" stroke="#63b8ff" points="230.29,-600.33 234.61,-610 237.27,-599.74 230.29,-600.33"/>
</a>
</g>
</g>
<!-- Node23 -->
<g id="Node000023" class="node">
<title>Node23</title>
<g id="a_Node000023"><a xlink:href="classxeno__rat__server_1_1_main_form.html#a93fe6efd32c628fc6a65bb4e73a8eb4d" target="_top" xlink:title="Asynchronously starts the screen control for the specified client node.">
<polygon fill="white" stroke="#666666" points="134.5,-275.5 0,-275.5 0,-245 134.5,-245 134.5,-275.5"/>
<text text-anchor="start" x="8" y="-262" font-family="Helvetica,sans-Serif" font-size="10.00">xeno_rat_server.MainForm.</text>
<text text-anchor="middle" x="67.25" y="-250.75" font-family="Helvetica,sans-Serif" font-size="10.00">StartScreenControl</text>
</a>
</g>
</g>
<!-- Node2&#45;&gt;Node23 -->
<g id="edge22_Node000002_Node000023" class="edge">
<title>Node2&#45;&gt;Node23</title>
<g id="a_edge22_Node000002_Node000023"><a xlink:title=" ">
<path fill="none" stroke="#63b8ff" d="M235.39,-600.28C233.38,-536.89 219.65,-376.89 134.5,-285.25 131.15,-281.65 127.23,-278.56 123,-275.92"/>
<polygon fill="#63b8ff" stroke="#63b8ff" points="231.89,-600.19 235.62,-610.11 238.89,-600.03 231.89,-600.19"/>
</a>
</g>
</g>
<!-- Node24 -->
<g id="Node000024" class="node">
<title>Node24</title>
<g id="a_Node000024"><a xlink:href="classxeno__rat__server_1_1_main_form.html#a2b1fe21cd6f4771c8110859c3f537199" target="_top" xlink:title="Asynchronously starts the shell for the specified client.">
<polygon fill="white" stroke="#666666" points="134.5,-226.5 0,-226.5 0,-196 134.5,-196 134.5,-226.5"/>
<text text-anchor="start" x="8" y="-213" font-family="Helvetica,sans-Serif" font-size="10.00">xeno_rat_server.MainForm.</text>
<text text-anchor="middle" x="67.25" y="-201.75" font-family="Helvetica,sans-Serif" font-size="10.00">StartShell</text>
</a>
</g>
</g>
<!-- Node2&#45;&gt;Node24 -->
<g id="edge23_Node000002_Node000024" class="edge">
<title>Node2&#45;&gt;Node24</title>
<g id="a_edge23_Node000002_Node000024"><a xlink:title=" ">
<path fill="none" stroke="#63b8ff" d="M231.96,-600.58C220.64,-521.66 183.96,-291.35 134.5,-236.25 131.3,-232.68 127.53,-229.62 123.45,-227"/>
<polygon fill="#63b8ff" stroke="#63b8ff" points="228.48,-600.99 233.35,-610.4 235.42,-600.01 228.48,-600.99"/>
</a>
</g>
</g>
<!-- Node25 -->
<g id="Node000025" class="node">
<title>Node25</title>
<g id="a_Node000025"><a xlink:href="classxeno__rat__server_1_1_main_form.html#ad2a2e667b6e0108be3959743a7ec83d3" target="_top" xlink:title="Initiates the shutdown process for the specified client &#160;node by performing the following steps:">
<polygon fill="white" stroke="#666666" points="134.5,-177.5 0,-177.5 0,-147 134.5,-147 134.5,-177.5"/>
<text text-anchor="start" x="8" y="-164" font-family="Helvetica,sans-Serif" font-size="10.00">xeno_rat_server.MainForm.</text>
<text text-anchor="middle" x="67.25" y="-152.75" font-family="Helvetica,sans-Serif" font-size="10.00">StartShutdown</text>
</a>
</g>
</g>
<!-- Node2&#45;&gt;Node25 -->
<g id="edge24_Node000002_Node000025" class="edge">
<title>Node2&#45;&gt;Node25</title>
<g id="a_edge24_Node000002_Node000025"><a xlink:title=" ">
<path fill="none" stroke="#63b8ff" d="M232.8,-600.68C223.26,-515.39 189.66,-250.41 134.5,-187.25 131.35,-183.64 127.62,-180.55 123.56,-177.9"/>
<polygon fill="#63b8ff" stroke="#63b8ff" points="229.3,-600.85 233.87,-610.41 236.26,-600.09 229.3,-600.85"/>
</a>
</g>
</g>
<!-- Node26 -->
<g id="Node000026" class="node">
<title>Node26</title>
<g id="a_Node000026"><a xlink:href="classxeno__rat__server_1_1_main_form.html#a51a16d9169605628d34f1518581814eb" target="_top" xlink:title="Asynchronously starts the startup process for the provided client node.">
<polygon fill="white" stroke="#666666" points="134.5,-128.5 0,-128.5 0,-98 134.5,-98 134.5,-128.5"/>
<text text-anchor="start" x="8" y="-115" font-family="Helvetica,sans-Serif" font-size="10.00">xeno_rat_server.MainForm.</text>
<text text-anchor="middle" x="67.25" y="-103.75" font-family="Helvetica,sans-Serif" font-size="10.00">StartStartup</text>
</a>
</g>
</g>
<!-- Node2&#45;&gt;Node26 -->
<g id="edge25_Node000002_Node000026" class="edge">
<title>Node2&#45;&gt;Node26</title>
<g id="a_edge25_Node000002_Node000026"><a xlink:title=" ">
<path fill="none" stroke="#63b8ff" d="M233.45,-600.47C225.52,-508.81 195.33,-209.46 134.5,-138.25 131.39,-134.6 127.68,-131.49 123.64,-128.83"/>
<polygon fill="#63b8ff" stroke="#63b8ff" points="229.95,-600.57 234.28,-610.24 236.92,-599.98 229.95,-600.57"/>
</a>
</g>
</g>
<!-- Node27 -->
<g id="Node000027" class="node">
<title>Node27</title>
<g id="a_Node000027"><a xlink:href="classxeno__rat__server_1_1_main_form.html#aa881835cbfa46f24822e36cdb9b3f93c" target="_top" xlink:title="Asynchronously starts the webcam functionality for the specified client node.">
<polygon fill="white" stroke="#666666" points="134.5,-79.5 0,-79.5 0,-49 134.5,-49 134.5,-79.5"/>
<text text-anchor="start" x="8" y="-66" font-family="Helvetica,sans-Serif" font-size="10.00">xeno_rat_server.MainForm.</text>
<text text-anchor="middle" x="67.25" y="-54.75" font-family="Helvetica,sans-Serif" font-size="10.00">StartWebCam</text>
</a>
</g>
</g>
<!-- Node2&#45;&gt;Node27 -->
<g id="edge26_Node000002_Node000027" class="edge">
<title>Node2&#45;&gt;Node27</title>
<g id="a_edge26_Node000002_Node000027"><a xlink:title=" ">
<path fill="none" stroke="#63b8ff" d="M233.98,-600.06C227.52,-502.05 200.98,-168.52 134.5,-89.25 131.5,-85.67 127.93,-82.6 124.02,-79.97"/>
<polygon fill="#63b8ff" stroke="#63b8ff" points="230.48,-600.28 234.61,-610.04 237.47,-599.83 230.48,-600.28"/>
</a>
</g>
</g>
<!-- Node28 -->
<g id="Node000028" class="node">
<title>Node28</title>
<g id="a_Node000028"><a xlink:href="classxeno__rat__server_1_1_main_form.html#aef1af183341ff26312747a5aeb8da7da" target="_top" xlink:title="Asynchronously starts the WinDirBypass process using the provided client .">
<polygon fill="white" stroke="#666666" points="134.5,-30.5 0,-30.5 0,0 134.5,0 134.5,-30.5"/>
<text text-anchor="start" x="8" y="-17" font-family="Helvetica,sans-Serif" font-size="10.00">xeno_rat_server.MainForm.</text>
<text text-anchor="middle" x="67.25" y="-5.75" font-family="Helvetica,sans-Serif" font-size="10.00">StartWinDirBypass</text>
</a>
</g>
</g>
<!-- Node2&#45;&gt;Node28 -->
<g id="edge27_Node000002_Node000028" class="edge">
<title>Node2&#45;&gt;Node28</title>
<g id="a_edge27_Node000002_Node000028"><a xlink:title=" ">
<path fill="none" stroke="#63b8ff" d="M234.46,-600.3C229.47,-497 206.79,-127.79 134.5,-40.25 131.53,-36.65 127.97,-33.56 124.08,-30.92"/>
<polygon fill="#63b8ff" stroke="#63b8ff" points="230.95,-600.2 234.91,-610.03 237.94,-599.87 230.95,-600.2"/>
</a>
</g>
</g>
</g>
</svg>

<g id="navigator" transform="translate(0 0)" fill="#404254">
  <rect fill="#f2f5e9" fill-opacity="0.5" stroke="#606060" stroke-width=".5" x="0" y="0" width="60" height="60"/>
  <use id="zoomplus" xlink:href="#zoomPlus" x="17" y="9" onmousedown="handleZoom(evt,'in')"/>
  <use id="zoomminus" xlink:href="#zoomMin" x="42" y="9" onmousedown="handleZoom(evt,'out')"/>
  <use id="reset" xlink:href="#resetDef" x="30" y="36" onmousedown="handleReset()"/>
   <use id="arrowup" xlink:href="#arrowUp" x="0" y="0" onmousedown="handlePan(0,-1)"/>
  <use id="arrowright" xlink:href="#arrowRight" x="0" y="0" onmousedown="handlePan(1,0)"/>
  <use id="arrowdown" xlink:href="#arrowDown" x="0" y="0" onmousedown="handlePan(0,1)"/>
  <use id="arrowleft" xlink:href="#arrowLeft" x="0" y="0" onmousedown="handlePan(-1,0)"/>
</g>
<svg viewBox="0 0 15 15" width="100%" height="30px" preserveAspectRatio="xMaxYMin meet">
 <g id="arrow_out" transform="scale(0.3 0.3)">
  <a xlink:href="classxeno__rat__server_1_1_node_aba8851268895033d5d6c03791de3c351_icgraph_org.svg" target="_base">
   <rect id="button" ry="5" rx="5" y="6" x="6" height="38" width="38"
        fill="#f2f5e9" fill-opacity="0.5" stroke="#606060" stroke-width="1.0"/>
   <path id="arrow"
     d="M 11.500037,31.436501 C 11.940474,20.09759 22.043105,11.32322 32.158766,21.979434 L 37.068811,17.246167 C 37.068811,17.246167 37.088388,32 37.088388,32 L 22.160133,31.978069 C 22.160133,31.978069 26.997745,27.140456 26.997745,27.140456 C 18.528582,18.264221 13.291696,25.230495 11.500037,31.436501 z"
     style="fill:#404040;"/>
  </a>
 </g>
</svg>

<style type='text/css'>
<![CDATA[
[data-mouse-over-selected='false'] { opacity: 0.7; }
[data-mouse-over-selected='true']  { opacity: 1.0; }
]]>
</style>
<script type="application/ecmascript"><![CDATA[
document.addEventListener('DOMContentLoaded', (event) => {
  highlightEdges();
  highlightAdjacentNodes();
});
]]></script>
</svg>
