<?xml version="1.0" encoding="UTF-8" standalone="no"?>
<!DOCTYPE svg PUBLIC "-//W3C//DTD SVG 1.1//EN"
 "http://www.w3.org/Graphics/SVG/1.1/DTD/svg11.dtd">
<!-- Generated by graphviz version 10.0.1 (20240210.2158)
 -->
<!-- Title: NAudio.Mixer.MixerControl Pages: 1 -->
<svg width="447pt" height="677pt"
 viewBox="0.00 0.00 446.50 677.00" xmlns="http://www.w3.org/2000/svg" xmlns:xlink="http://www.w3.org/1999/xlink">
<g id="graph0" class="graph" transform="scale(1 1) rotate(0) translate(4 673)">
<title>NAudio.Mixer.MixerControl</title>
<!-- Node1 -->
<g id="Node000001" class="node">
<title>Node1</title>
<g id="a_Node000001"><a xlink:title="Represents a mixer control.">
<polygon fill="#999999" stroke="none" points="327,-274 200,-274 200,0 327,0 327,-274"/>
<text text-anchor="start" x="205" y="-260.5" font-family="Helvetica,sans-Serif" font-size="10.00">NAudio.Mixer.MixerControl</text>
<text text-anchor="start" x="209.5" y="-245.5" font-family="Helvetica,sans-Serif" font-size="10.00">+</text>
<text text-anchor="start" x="225" y="-245.5" font-family="Helvetica,sans-Serif" font-size="10.00">Name</text>
<text text-anchor="start" x="209.5" y="-230.5" font-family="Helvetica,sans-Serif" font-size="10.00">+</text>
<text text-anchor="start" x="225" y="-230.5" font-family="Helvetica,sans-Serif" font-size="10.00">ControlType</text>
<text text-anchor="start" x="209.5" y="-215.5" font-family="Helvetica,sans-Serif" font-size="10.00">+</text>
<text text-anchor="start" x="225" y="-215.5" font-family="Helvetica,sans-Serif" font-size="10.00">IsBoolean</text>
<text text-anchor="start" x="209.5" y="-200.5" font-family="Helvetica,sans-Serif" font-size="10.00">+</text>
<text text-anchor="start" x="225" y="-200.5" font-family="Helvetica,sans-Serif" font-size="10.00">IsListText</text>
<text text-anchor="start" x="209.5" y="-185.5" font-family="Helvetica,sans-Serif" font-size="10.00">+</text>
<text text-anchor="start" x="225" y="-185.5" font-family="Helvetica,sans-Serif" font-size="10.00">IsSigned</text>
<text text-anchor="start" x="209.5" y="-170.5" font-family="Helvetica,sans-Serif" font-size="10.00">+</text>
<text text-anchor="start" x="225" y="-170.5" font-family="Helvetica,sans-Serif" font-size="10.00">IsUnsigned</text>
<text text-anchor="start" x="209.5" y="-155.5" font-family="Helvetica,sans-Serif" font-size="10.00">+</text>
<text text-anchor="start" x="225" y="-155.5" font-family="Helvetica,sans-Serif" font-size="10.00">IsCustom</text>
<text text-anchor="start" x="209.5" y="-140.5" font-family="Helvetica,sans-Serif" font-size="10.00">+</text>
<text text-anchor="start" x="225" y="-140.5" font-family="Helvetica,sans-Serif" font-size="10.00">ToString()</text>
<text text-anchor="start" x="209.5" y="-125.5" font-family="Helvetica,sans-Serif" font-size="10.00">+</text>
<text text-anchor="start" x="225" y="-125.5" font-family="Helvetica,sans-Serif" font-size="10.00">GetMixerControls()</text>
<text text-anchor="start" x="209.5" y="-110.5" font-family="Helvetica,sans-Serif" font-size="10.00">+</text>
<text text-anchor="start" x="225" y="-110.5" font-family="Helvetica,sans-Serif" font-size="10.00">GetMixerControl()</text>
<text text-anchor="start" x="209.88" y="-95.5" font-family="Helvetica,sans-Serif" font-size="10.00">#</text>
<text text-anchor="start" x="225" y="-95.5" font-family="Helvetica,sans-Serif" font-size="10.00">GetControlDetails()</text>
<text text-anchor="start" x="209.88" y="-80.5" font-family="Helvetica,sans-Serif" font-size="10.00">#</text>
<text text-anchor="start" x="225" y="-80.5" font-family="Helvetica,sans-Serif" font-size="10.00">GetDetails()</text>
<text text-anchor="start" x="211" y="-65.5" font-family="Helvetica,sans-Serif" font-size="10.00">&#45;</text>
<text text-anchor="start" x="225" y="-65.5" font-family="Helvetica,sans-Serif" font-size="10.00">IsControlBoolean()</text>
<text text-anchor="start" x="211" y="-50.5" font-family="Helvetica,sans-Serif" font-size="10.00">&#45;</text>
<text text-anchor="start" x="225" y="-50.5" font-family="Helvetica,sans-Serif" font-size="10.00">IsControlListText()</text>
<text text-anchor="start" x="211" y="-35.5" font-family="Helvetica,sans-Serif" font-size="10.00">&#45;</text>
<text text-anchor="start" x="225" y="-35.5" font-family="Helvetica,sans-Serif" font-size="10.00">IsControlSigned()</text>
<text text-anchor="start" x="211" y="-20.5" font-family="Helvetica,sans-Serif" font-size="10.00">&#45;</text>
<text text-anchor="start" x="225" y="-20.5" font-family="Helvetica,sans-Serif" font-size="10.00">IsControlUnsigned()</text>
<text text-anchor="start" x="211" y="-5.5" font-family="Helvetica,sans-Serif" font-size="10.00">&#45;</text>
<text text-anchor="start" x="225" y="-5.5" font-family="Helvetica,sans-Serif" font-size="10.00">IsControlCustom()</text>
<polygon fill="#666666" stroke="#666666" points="200,-257 200,-257 327,-257 327,-257 200,-257"/>
<polygon fill="#666666" stroke="#666666" points="200,-152 200,-152 223,-152 223,-152 200,-152"/>
<polygon fill="#666666" stroke="#666666" points="223,-152 223,-152 327,-152 327,-152 223,-152"/>
<polygon fill="none" stroke="#666666" points="200,0 200,-274 327,-274 327,0 200,0"/>
</a>
</g>
</g>
<!-- Node2 -->
<g id="Node000002" class="node">
<title>Node2</title>
<g id="a_Node000002"><a xlink:href="class_n_audio_1_1_mixer_1_1_mixer_interop.html" target="_top" xlink:title=" ">
<polygon fill="white" stroke="none" points="168.5,-516.5 42.5,-516.5 42.5,-332.5 168.5,-332.5 168.5,-516.5"/>
<text text-anchor="start" x="47.75" y="-503" font-family="Helvetica,sans-Serif" font-size="10.00">NAudio.Mixer.MixerInterop</text>
<text text-anchor="start" x="104" y="-488" font-family="Helvetica,sans-Serif" font-size="10.00"> </text>
<text text-anchor="start" x="46.5" y="-473" font-family="Helvetica,sans-Serif" font-size="10.00">+</text>
<text text-anchor="start" x="56.5" y="-473" font-family="Helvetica,sans-Serif" font-size="10.00">mixerGetNumDevs()</text>
<text text-anchor="start" x="46.5" y="-458" font-family="Helvetica,sans-Serif" font-size="10.00">+</text>
<text text-anchor="start" x="56.5" y="-458" font-family="Helvetica,sans-Serif" font-size="10.00">mixerOpen()</text>
<text text-anchor="start" x="46.5" y="-443" font-family="Helvetica,sans-Serif" font-size="10.00">+</text>
<text text-anchor="start" x="56.5" y="-443" font-family="Helvetica,sans-Serif" font-size="10.00">mixerClose()</text>
<text text-anchor="start" x="46.5" y="-428" font-family="Helvetica,sans-Serif" font-size="10.00">+</text>
<text text-anchor="start" x="56.5" y="-428" font-family="Helvetica,sans-Serif" font-size="10.00">mixerGetControlDetails()</text>
<text text-anchor="start" x="46.5" y="-413" font-family="Helvetica,sans-Serif" font-size="10.00">+</text>
<text text-anchor="start" x="56.5" y="-413" font-family="Helvetica,sans-Serif" font-size="10.00">mixerGetDevCaps()</text>
<text text-anchor="start" x="46.5" y="-398" font-family="Helvetica,sans-Serif" font-size="10.00">+</text>
<text text-anchor="start" x="56.5" y="-398" font-family="Helvetica,sans-Serif" font-size="10.00">mixerGetID()</text>
<text text-anchor="start" x="46.5" y="-383" font-family="Helvetica,sans-Serif" font-size="10.00">+</text>
<text text-anchor="start" x="56.5" y="-383" font-family="Helvetica,sans-Serif" font-size="10.00">mixerGetLineControls()</text>
<text text-anchor="start" x="46.5" y="-368" font-family="Helvetica,sans-Serif" font-size="10.00">+</text>
<text text-anchor="start" x="56.5" y="-368" font-family="Helvetica,sans-Serif" font-size="10.00">mixerGetLineInfo()</text>
<text text-anchor="start" x="46.5" y="-353" font-family="Helvetica,sans-Serif" font-size="10.00">+</text>
<text text-anchor="start" x="56.5" y="-353" font-family="Helvetica,sans-Serif" font-size="10.00">mixerMessage()</text>
<text text-anchor="start" x="46.5" y="-338" font-family="Helvetica,sans-Serif" font-size="10.00">+</text>
<text text-anchor="start" x="56.5" y="-338" font-family="Helvetica,sans-Serif" font-size="10.00">mixerSetControlDetails()</text>
<polygon fill="#666666" stroke="#666666" points="42.5,-499.5 42.5,-499.5 168.5,-499.5 168.5,-499.5 42.5,-499.5"/>
<polygon fill="#666666" stroke="#666666" points="42.5,-484.5 42.5,-484.5 168.5,-484.5 168.5,-484.5 42.5,-484.5"/>
<polygon fill="none" stroke="#666666" points="42.5,-332.5 42.5,-516.5 168.5,-516.5 168.5,-332.5 42.5,-332.5"/>
</a>
</g>
</g>
<!-- Node2&#45;&gt;Node1 -->
<g id="edge1_Node000001_Node000002" class="edge">
<title>Node2&#45;&gt;Node1</title>
<g id="a_edge1_Node000001_Node000002"><a xlink:title=" ">
<path fill="none" stroke="#63b8ff" d="M109.63,-332.66C112.36,-318.63 116.39,-304.63 122.25,-292 138.37,-257.26 165.21,-224.99 191.19,-199.06"/>
<polygon fill="none" stroke="#63b8ff" points="191.09,-199.16 192.59,-192.1 199.68,-190.78 198.17,-197.83 191.09,-199.16"/>
</a>
</g>
<text text-anchor="middle" x="168.62" y="-305" font-family="Helvetica,sans-Serif" font-size="10.00" fill="grey"> ~mixerControl</text>
<text text-anchor="middle" x="168.62" y="-293.75" font-family="Helvetica,sans-Serif" font-size="10.00" fill="grey">~mixerControlDetails</text>
</g>
<!-- Node3 -->
<g id="Node000003" class="node">
<title>Node3</title>
<g id="a_Node000003"><a xlink:title=" ">
<polygon fill="white" stroke="none" points="39,-669 0,-669 0,-620 39,-620 39,-669"/>
<text text-anchor="start" x="4.88" y="-655.5" font-family="Helvetica,sans-Serif" font-size="10.00">UInt32</text>
<text text-anchor="start" x="18" y="-640.5" font-family="Helvetica,sans-Serif" font-size="10.00"> </text>
<text text-anchor="start" x="18" y="-625.5" font-family="Helvetica,sans-Serif" font-size="10.00"> </text>
<polygon fill="#666666" stroke="#666666" points="0,-652 0,-652 39,-652 39,-652 0,-652"/>
<polygon fill="#666666" stroke="#666666" points="0,-637 0,-637 39,-637 39,-637 0,-637"/>
<polygon fill="none" stroke="#666666" points="0,-620 0,-669 39,-669 39,-620 0,-620"/>
</a>
</g>
</g>
<!-- Node3&#45;&gt;Node2 -->
<g id="edge2_Node000002_Node000003" class="edge">
<title>Node3&#45;&gt;Node2</title>
<g id="a_edge2_Node000002_Node000003"><a xlink:title=" ">
<path fill="none" stroke="#63b8ff" d="M15.5,-620.22C12.58,-597.63 10.65,-562.73 20.5,-534.5 24.21,-523.88 29.4,-513.5 35.42,-503.62"/>
<polygon fill="none" stroke="#63b8ff" points="35.49,-503.51 35.41,-496.3 42.04,-493.45 42.12,-500.66 35.49,-503.51"/>
</a>
</g>
<text text-anchor="start" x="20.5" y="-592.5" font-family="Helvetica,sans-Serif" font-size="10.00" fill="grey"> +MIXERCONTROL_CONTROLF</text>
<text text-anchor="middle" x="95.5" y="-581.25" font-family="Helvetica,sans-Serif" font-size="10.00" fill="grey">_DISABLED</text>
<text text-anchor="start" x="20.5" y="-570" font-family="Helvetica,sans-Serif" font-size="10.00" fill="grey">+MIXERCONTROL_CONTROLF</text>
<text text-anchor="middle" x="95.5" y="-558.75" font-family="Helvetica,sans-Serif" font-size="10.00" fill="grey">_MULTIPLE</text>
<text text-anchor="start" x="20.5" y="-547.5" font-family="Helvetica,sans-Serif" font-size="10.00" fill="grey">+MIXERCONTROL_CONTROLF</text>
<text text-anchor="middle" x="95.5" y="-536.25" font-family="Helvetica,sans-Serif" font-size="10.00" fill="grey">_UNIFORM</text>
</g>
<!-- Node4 -->
<g id="Node000004" class="node">
<title>Node4</title>
<g id="a_Node000004"><a xlink:title=" ">
<polygon fill="white" stroke="none" points="208,-669 177,-669 177,-620 208,-620 208,-669"/>
<text text-anchor="start" x="181.62" y="-655.5" font-family="Helvetica,sans-Serif" font-size="10.00">Int32</text>
<text text-anchor="start" x="191" y="-640.5" font-family="Helvetica,sans-Serif" font-size="10.00"> </text>
<text text-anchor="start" x="191" y="-625.5" font-family="Helvetica,sans-Serif" font-size="10.00"> </text>
<polygon fill="#666666" stroke="#666666" points="177,-652 177,-652 208,-652 208,-652 177,-652"/>
<polygon fill="#666666" stroke="#666666" points="177,-637 177,-637 208,-637 208,-637 177,-637"/>
<polygon fill="none" stroke="#666666" points="177,-620 177,-669 208,-669 208,-620 177,-620"/>
</a>
</g>
</g>
<!-- Node4&#45;&gt;Node2 -->
<g id="edge3_Node000002_Node000004" class="edge">
<title>Node4&#45;&gt;Node2</title>
<g id="a_edge3_Node000002_Node000004"><a xlink:title=" ">
<path fill="none" stroke="#63b8ff" d="M190.13,-620.32C187.29,-597.81 181.49,-562.96 170.5,-534.5 169.66,-532.32 168.78,-530.14 167.86,-527.95"/>
<polygon fill="none" stroke="#63b8ff" points="167.89,-528.02 161.79,-524.19 162.98,-517.07 169.09,-520.91 167.89,-528.02"/>
</a>
</g>
<text text-anchor="middle" x="243.12" y="-586.88" font-family="Helvetica,sans-Serif" font-size="10.00" fill="grey"> +MAXPNAMELEN</text>
<text text-anchor="start" x="186.5" y="-575.62" font-family="Helvetica,sans-Serif" font-size="10.00" fill="grey">+MIXER_LONG_NAME</text>
<text text-anchor="middle" x="243.12" y="-564.38" font-family="Helvetica,sans-Serif" font-size="10.00" fill="grey">_CHARS</text>
<text text-anchor="start" x="186.5" y="-553.12" font-family="Helvetica,sans-Serif" font-size="10.00" fill="grey">+MIXER_SHORT_NAME</text>
<text text-anchor="middle" x="243.12" y="-541.88" font-family="Helvetica,sans-Serif" font-size="10.00" fill="grey">_CHARS</text>
</g>
<!-- Node5 -->
<g id="Node000005" class="node">
<title>Node5</title>
<g id="a_Node000005"><a xlink:title=" ">
<polygon fill="white" stroke="none" points="237.5,-449 203.5,-449 203.5,-400 237.5,-400 237.5,-449"/>
<text text-anchor="start" x="208.5" y="-435.5" font-family="Helvetica,sans-Serif" font-size="10.00">IntPtr</text>
<text text-anchor="start" x="219" y="-420.5" font-family="Helvetica,sans-Serif" font-size="10.00"> </text>
<text text-anchor="start" x="219" y="-405.5" font-family="Helvetica,sans-Serif" font-size="10.00"> </text>
<polygon fill="#666666" stroke="#666666" points="203.5,-432 203.5,-432 237.5,-432 237.5,-432 203.5,-432"/>
<polygon fill="#666666" stroke="#666666" points="203.5,-417 203.5,-417 237.5,-417 237.5,-417 203.5,-417"/>
<polygon fill="none" stroke="#666666" points="203.5,-400 203.5,-449 237.5,-449 237.5,-400 203.5,-400"/>
</a>
</g>
</g>
<!-- Node5&#45;&gt;Node1 -->
<g id="edge4_Node000001_Node000005" class="edge">
<title>Node5&#45;&gt;Node1</title>
<g id="a_edge4_Node000001_Node000005"><a xlink:title=" ">
<path fill="none" stroke="#63b8ff" d="M218.87,-400.09C217.44,-373.69 216.33,-329.54 221.5,-292 221.76,-290.11 222.04,-288.22 222.33,-286.31"/>
<polygon fill="none" stroke="#63b8ff" points="222.32,-286.37 219.37,-279.79 224.31,-274.53 227.26,-281.12 222.32,-286.37"/>
</a>
</g>
<text text-anchor="middle" x="253" y="-299.38" font-family="Helvetica,sans-Serif" font-size="10.00" fill="grey"> #mixerHandle</text>
</g>
<!-- Node6 -->
<g id="Node000006" class="node">
<title>Node6</title>
<g id="a_Node000006"><a xlink:title=" ">
<polygon fill="white" stroke="none" points="316.5,-449 296.5,-449 296.5,-400 316.5,-400 316.5,-449"/>
<text text-anchor="start" x="301.25" y="-435.5" font-family="Helvetica,sans-Serif" font-size="10.00">int</text>
<text text-anchor="start" x="305" y="-420.5" font-family="Helvetica,sans-Serif" font-size="10.00"> </text>
<text text-anchor="start" x="305" y="-405.5" font-family="Helvetica,sans-Serif" font-size="10.00"> </text>
<polygon fill="#666666" stroke="#666666" points="296.5,-432 296.5,-432 316.5,-432 316.5,-432 296.5,-432"/>
<polygon fill="#666666" stroke="#666666" points="296.5,-417 296.5,-417 316.5,-417 316.5,-417 296.5,-417"/>
<polygon fill="none" stroke="#666666" points="296.5,-400 296.5,-449 316.5,-449 316.5,-400 296.5,-400"/>
</a>
</g>
</g>
<!-- Node6&#45;&gt;Node1 -->
<g id="edge5_Node000001_Node000006" class="edge">
<title>Node6&#45;&gt;Node1</title>
<g id="a_edge5_Node000001_Node000006"><a xlink:title=" ">
<path fill="none" stroke="#63b8ff" d="M302.98,-400.14C299.11,-374.45 292.55,-330.9 285.88,-286.6"/>
<polygon fill="none" stroke="#63b8ff" points="285.87,-286.55 281.02,-281.21 284.09,-274.68 288.94,-280.02 285.87,-286.55"/>
</a>
</g>
<text text-anchor="middle" x="315.88" y="-299.38" font-family="Helvetica,sans-Serif" font-size="10.00" fill="grey"> #nChannels</text>
</g>
<!-- Node7 -->
<g id="Node000007" class="node">
<title>Node7</title>
<g id="a_Node000007"><a xlink:title=" ">
<polygon fill="white" stroke="none" points="413.5,-449 355.5,-449 355.5,-400 413.5,-400 413.5,-449"/>
<text text-anchor="start" x="360.5" y="-435.5" font-family="Helvetica,sans-Serif" font-size="10.00">MixerFlags</text>
<text text-anchor="start" x="383" y="-420.5" font-family="Helvetica,sans-Serif" font-size="10.00"> </text>
<text text-anchor="start" x="383" y="-405.5" font-family="Helvetica,sans-Serif" font-size="10.00"> </text>
<polygon fill="#666666" stroke="#666666" points="355.5,-432 355.5,-432 413.5,-432 413.5,-432 355.5,-432"/>
<polygon fill="#666666" stroke="#666666" points="355.5,-417 355.5,-417 413.5,-417 413.5,-417 355.5,-417"/>
<polygon fill="none" stroke="#666666" points="355.5,-400 355.5,-449 413.5,-449 413.5,-400 355.5,-400"/>
</a>
</g>
</g>
<!-- Node7&#45;&gt;Node1 -->
<g id="edge6_Node000001_Node000007" class="edge">
<title>Node7&#45;&gt;Node1</title>
<g id="a_edge6_Node000001_Node000007"><a xlink:title=" ">
<path fill="none" stroke="#63b8ff" d="M379.61,-400.17C373.63,-373.46 362.44,-328.68 347.5,-292 343.02,-281.01 337.96,-269.8 332.6,-258.69"/>
<polygon fill="none" stroke="#63b8ff" points="332.62,-258.73 326.38,-255.11 327.32,-247.96 333.56,-251.58 332.62,-258.73"/>
</a>
</g>
<text text-anchor="middle" x="396.5" y="-299.38" font-family="Helvetica,sans-Serif" font-size="10.00" fill="grey"> #mixerHandleType</text>
</g>
</g>
</svg>
