<?xml version="1.0" encoding="UTF-8" standalone="no"?>
<!DOCTYPE svg PUBLIC "-//W3C//DTD SVG 1.1//EN"
 "http://www.w3.org/Graphics/SVG/1.1/DTD/svg11.dtd">
<!-- Generated by graphviz version 10.0.1 (20240210.2158)
 -->
<!-- Title: NAudio.Wave.WaveInProvider.Read Pages: 1 -->
<svg width="554pt" height="39pt"
 viewBox="0.00 0.00 554.00 38.50" xmlns="http://www.w3.org/2000/svg" xmlns:xlink="http://www.w3.org/1999/xlink">
<g id="graph0" class="graph" transform="scale(1 1) rotate(0) translate(4 34.5)">
<title>NAudio.Wave.WaveInProvider.Read</title>
<!-- Node1 -->
<g id="Node000001" class="node">
<title>Node1</title>
<g id="a_Node000001"><a xlink:title="Reads a sequence of bytes from the current BufferedWaveProvider and advances the position within the ...">
<polygon fill="#999999" stroke="#666666" points="173.5,-24.88 0,-24.88 0,-5.63 173.5,-5.63 173.5,-24.88"/>
<text text-anchor="middle" x="86.75" y="-11.38" font-family="Helvetica,sans-Serif" font-size="10.00">NAudio.Wave.WaveInProvider.Read</text>
</a>
</g>
</g>
<!-- Node2 -->
<g id="Node000002" class="node">
<title>Node2</title>
<g id="a_Node000002"><a xlink:href="class_n_audio_1_1_wave_1_1_buffered_wave_provider.html#a18921a539166e5867f7e397d5c714fc3" target="_top" xlink:title="Reads data from the circular buffer into the specified byte array.">
<polygon fill="white" stroke="#666666" points="350,-30.5 209.5,-30.5 209.5,0 350,0 350,-30.5"/>
<text text-anchor="start" x="217.5" y="-17" font-family="Helvetica,sans-Serif" font-size="10.00">NAudio.Wave.BufferedWave</text>
<text text-anchor="middle" x="279.75" y="-5.75" font-family="Helvetica,sans-Serif" font-size="10.00">Provider.Read</text>
</a>
</g>
</g>
<!-- Node1&#45;&gt;Node2 -->
<g id="edge1_Node000001_Node000002" class="edge">
<title>Node1&#45;&gt;Node2</title>
<g id="a_edge1_Node000001_Node000002"><a xlink:title=" ">
<path fill="none" stroke="#63b8ff" d="M173.75,-15.25C181.73,-15.25 189.81,-15.25 197.74,-15.25"/>
<polygon fill="#63b8ff" stroke="#63b8ff" points="197.73,-18.75 207.73,-15.25 197.73,-11.75 197.73,-18.75"/>
</a>
</g>
</g>
<!-- Node3 -->
<g id="Node000003" class="node">
<title>Node3</title>
<g id="a_Node000003"><a xlink:href="class_n_audio_1_1_utils_1_1_circular_buffer.html#a931afd5040c689e3b1062ac05db8a6cb" target="_top" xlink:title="Reads data from the buffer into the specified byte array.">
<polygon fill="white" stroke="#666666" points="546,-24.88 386,-24.88 386,-5.63 546,-5.63 546,-24.88"/>
<text text-anchor="middle" x="466" y="-11.38" font-family="Helvetica,sans-Serif" font-size="10.00">NAudio.Utils.CircularBuffer.Read</text>
</a>
</g>
</g>
<!-- Node2&#45;&gt;Node3 -->
<g id="edge2_Node000002_Node000003" class="edge">
<title>Node2&#45;&gt;Node3</title>
<g id="a_edge2_Node000002_Node000003"><a xlink:title=" ">
<path fill="none" stroke="#63b8ff" d="M350.41,-15.25C358.23,-15.25 366.29,-15.25 374.33,-15.25"/>
<polygon fill="#63b8ff" stroke="#63b8ff" points="374.16,-18.75 384.16,-15.25 374.16,-11.75 374.16,-18.75"/>
</a>
</g>
</g>
</g>
</svg>
