<?xml version="1.0" encoding="UTF-8" standalone="no"?>
<!DOCTYPE svg PUBLIC "-//W3C//DTD SVG 1.1//EN"
 "http://www.w3.org/Graphics/SVG/1.1/DTD/svg11.dtd">
<!-- Generated by graphviz version 10.0.1 (20240210.2158)
 -->
<!-- Title: NAudio.CoreAudioApi.AudioMeterInformationChannels Pages: 1 -->
<svg width="192pt" height="235pt"
 viewBox="0.00 0.00 192.25 235.25" xmlns="http://www.w3.org/2000/svg" xmlns:xlink="http://www.w3.org/1999/xlink">
<g id="graph0" class="graph" transform="scale(1 1) rotate(0) translate(4 231.25)">
<title>NAudio.CoreAudioApi.AudioMeterInformationChannels</title>
<!-- Node1 -->
<g id="Node000001" class="node">
<title>Node1</title>
<g id="a_Node000001"><a xlink:title="Audio Meter Information Channels.">
<polygon fill="#999999" stroke="none" points="163,-75 0,-75 0,0 163,0 163,-75"/>
<text text-anchor="start" x="20" y="-61.5" font-family="Helvetica,sans-Serif" font-size="10.00">NAudio.CoreAudioApi.Audio</text>
<text text-anchor="start" x="24.12" y="-50.25" font-family="Helvetica,sans-Serif" font-size="10.00">MeterInformationChannels</text>
<text text-anchor="start" x="4" y="-35.5" font-family="Helvetica,sans-Serif" font-size="10.00">+</text>
<text text-anchor="start" x="14" y="-35.5" font-family="Helvetica,sans-Serif" font-size="10.00">Count</text>
<text text-anchor="start" x="4" y="-20.5" font-family="Helvetica,sans-Serif" font-size="10.00">+</text>
<text text-anchor="start" x="14" y="-20.5" font-family="Helvetica,sans-Serif" font-size="10.00">this[int index]</text>
<text text-anchor="start" x="4" y="-5.5" font-family="Helvetica,sans-Serif" font-size="10.00">~</text>
<text text-anchor="start" x="14" y="-5.5" font-family="Helvetica,sans-Serif" font-size="10.00">AudioMeterInformationChannels()</text>
<polygon fill="#666666" stroke="#666666" points="0,-47 0,-47 163,-47 163,-47 0,-47"/>
<polygon fill="#666666" stroke="#666666" points="0,-17 0,-17 12,-17 12,-17 0,-17"/>
<polygon fill="#666666" stroke="#666666" points="12,-17 12,-17 163,-17 163,-17 12,-17"/>
<polygon fill="none" stroke="#666666" points="0,0 0,-75 163,-75 163,0 0,0"/>
</a>
</g>
</g>
<!-- Node2 -->
<g id="Node000002" class="node">
<title>Node2</title>
<g id="a_Node000002"><a xlink:title=" ">
<polygon fill="white" stroke="none" points="158.5,-227.25 4.5,-227.25 4.5,-122.25 158.5,-122.25 158.5,-227.25"/>
<text text-anchor="start" x="9.12" y="-213.75" font-family="Helvetica,sans-Serif" font-size="10.00">NAudio.CoreAudioApi.Interfaces.</text>
<text text-anchor="start" x="30.88" y="-202.5" font-family="Helvetica,sans-Serif" font-size="10.00">IAudioMeterInformation</text>
<text text-anchor="start" x="80" y="-187.75" font-family="Helvetica,sans-Serif" font-size="10.00"> </text>
<text text-anchor="start" x="12" y="-172.75" font-family="Helvetica,sans-Serif" font-size="10.00">+</text>
<text text-anchor="start" x="25.5" y="-172.75" font-family="Helvetica,sans-Serif" font-size="10.00">GetPeakValue()</text>
<text text-anchor="start" x="12" y="-157.75" font-family="Helvetica,sans-Serif" font-size="10.00">+</text>
<text text-anchor="start" x="25.5" y="-157.75" font-family="Helvetica,sans-Serif" font-size="10.00">GetMeteringChannelCount()</text>
<text text-anchor="start" x="12" y="-142.75" font-family="Helvetica,sans-Serif" font-size="10.00">+</text>
<text text-anchor="start" x="25.5" y="-142.75" font-family="Helvetica,sans-Serif" font-size="10.00">GetChannelsPeakValues()</text>
<text text-anchor="start" x="12" y="-127.75" font-family="Helvetica,sans-Serif" font-size="10.00">+</text>
<text text-anchor="start" x="25.5" y="-127.75" font-family="Helvetica,sans-Serif" font-size="10.00">QueryHardwareSupport()</text>
<polygon fill="#666666" stroke="#666666" points="4.5,-199.25 4.5,-199.25 158.5,-199.25 158.5,-199.25 4.5,-199.25"/>
<polygon fill="#666666" stroke="#666666" points="4.5,-184.25 4.5,-184.25 158.5,-184.25 158.5,-184.25 4.5,-184.25"/>
<polygon fill="none" stroke="#666666" points="4.5,-122.25 4.5,-227.25 158.5,-227.25 158.5,-122.25 4.5,-122.25"/>
</a>
</g>
</g>
<!-- Node2&#45;&gt;Node1 -->
<g id="edge1_Node000001_Node000002" class="edge">
<title>Node2&#45;&gt;Node1</title>
<g id="a_edge1_Node000001_Node000002"><a xlink:title=" ">
<path fill="none" stroke="#63b8ff" d="M81.5,-122.62C81.5,-111.22 81.5,-99.16 81.5,-87.83"/>
<polygon fill="none" stroke="#63b8ff" points="81.5,-87.86 77.5,-81.86 81.5,-75.86 85.5,-81.86 81.5,-87.86"/>
</a>
</g>
<text text-anchor="middle" x="132.88" y="-94.75" font-family="Helvetica,sans-Serif" font-size="10.00" fill="grey"> &#45;audioMeterInformation</text>
</g>
</g>
</svg>
