<?xml version="1.0" encoding="UTF-8" standalone="no"?>
<!DOCTYPE svg PUBLIC "-//W3C//DTD SVG 1.1//EN"
 "http://www.w3.org/Graphics/SVG/1.1/DTD/svg11.dtd">
<!-- Generated by graphviz version 10.0.1 (20240210.2158)
 -->
<!-- Title: AForge.Video.DirectShow.VideoCaptureDevice.WorkerThread Pages: 1 -->
<svg width="556pt" height="98pt"
 viewBox="0.00 0.00 556.25 98.12" xmlns="http://www.w3.org/2000/svg" xmlns:xlink="http://www.w3.org/1999/xlink">
<g id="graph0" class="graph" transform="scale(1 1) rotate(0) translate(4 94.12)">
<title>AForge.Video.DirectShow.VideoCaptureDevice.WorkerThread</title>
<!-- Node1 -->
<g id="Node000001" class="node">
<title>Node1</title>
<g id="a_Node000001"><a xlink:title="Worker thread for capturing video and snapshots from a device.">
<polygon fill="#999999" stroke="#666666" points="548.25,-57.5 378.5,-57.5 378.5,-27 548.25,-27 548.25,-57.5"/>
<text text-anchor="start" x="386.5" y="-44" font-family="Helvetica,sans-Serif" font-size="10.00">AForge.Video.DirectShow.</text>
<text text-anchor="middle" x="463.38" y="-32.75" font-family="Helvetica,sans-Serif" font-size="10.00">VideoCaptureDevice.WorkerThread</text>
</a>
</g>
</g>
<!-- Node1&#45;&gt;Node1 -->
<g id="edge4_Node000001_Node000001" class="edge">
<title>Node1&#45;&gt;Node1</title>
<g id="a_edge4_Node000001_Node000001"><a xlink:title=" ">
<path fill="none" stroke="#63b8ff" d="M499.01,-69.2C493.18,-72.97 481.31,-75.5 463.38,-75.5 430.59,-75.5 418.04,-67.06 425.72,-57.99"/>
<polygon fill="#63b8ff" stroke="#63b8ff" points="502.44,-69.94 500.76,-59.48 495.55,-68.7 502.44,-69.94"/>
</a>
</g>
</g>
<!-- Node2 -->
<g id="Node000002" class="node">
<title>Node2</title>
<g id="a_Node000002"><a xlink:href="class_a_forge_1_1_video_1_1_direct_show_1_1_video_capture_device.html#af44099a936b1c6795c9e90347d7ec987" target="_top" xlink:title="Checks if the crossbar is available and returns the result.">
<polygon fill="white" stroke="#666666" points="342.5,-90.12 159.25,-90.12 159.25,-48.38 342.5,-48.38 342.5,-90.12"/>
<text text-anchor="start" x="167.25" y="-76.62" font-family="Helvetica,sans-Serif" font-size="10.00">AForge.Video.DirectShow.</text>
<text text-anchor="start" x="167.25" y="-65.38" font-family="Helvetica,sans-Serif" font-size="10.00">VideoCaptureDevice.CheckIfCrossbar</text>
<text text-anchor="middle" x="250.88" y="-54.12" font-family="Helvetica,sans-Serif" font-size="10.00">Available</text>
</a>
</g>
</g>
<!-- Node1&#45;&gt;Node2 -->
<g id="edge1_Node000001_Node000002" class="edge">
<title>Node1&#45;&gt;Node2</title>
<g id="a_edge1_Node000001_Node000002"><a xlink:title=" ">
<path fill="none" stroke="#63b8ff" d="M366.96,-54.49C358.9,-55.52 350.77,-56.57 342.75,-57.59"/>
<polygon fill="#63b8ff" stroke="#63b8ff" points="367.3,-57.97 376.77,-53.23 366.41,-51.03 367.3,-57.97"/>
</a>
</g>
</g>
<!-- Node3 -->
<g id="Node000003" class="node">
<title>Node3</title>
<g id="a_Node000003"><a xlink:href="class_a_forge_1_1_video_1_1_direct_show_1_1_video_capture_device.html#ab3c665b4d2e664d067321b2a43edd01b" target="_top" xlink:title="Starts the video capture process.">
<polygon fill="white" stroke="#666666" points="316.25,-30.5 185.5,-30.5 185.5,0 316.25,0 316.25,-30.5"/>
<text text-anchor="start" x="193.5" y="-17" font-family="Helvetica,sans-Serif" font-size="10.00">AForge.Video.DirectShow.</text>
<text text-anchor="middle" x="250.88" y="-5.75" font-family="Helvetica,sans-Serif" font-size="10.00">VideoCaptureDevice.Start</text>
</a>
</g>
</g>
<!-- Node1&#45;&gt;Node3 -->
<g id="edge2_Node000001_Node000003" class="edge">
<title>Node1&#45;&gt;Node3</title>
<g id="a_edge2_Node000001_Node000003"><a xlink:title=" ">
<path fill="none" stroke="#63b8ff" d="M367.13,-30.03C350.08,-27.85 332.67,-25.61 316.71,-23.57"/>
<polygon fill="#63b8ff" stroke="#63b8ff" points="366.41,-33.47 376.77,-31.27 367.3,-26.53 366.41,-33.47"/>
</a>
</g>
</g>
<!-- Node4 -->
<g id="Node000004" class="node">
<title>Node4</title>
<g id="a_Node000004"><a xlink:href="class_plugin_1_1_main.html#a3b672ab007c36dceaf59d07b7e6b8698" target="_top" xlink:title="Asynchronous method to handle receiving data from a node.">
<polygon fill="white" stroke="#666666" points="123.25,-24.88 0,-24.88 0,-5.63 123.25,-5.63 123.25,-24.88"/>
<text text-anchor="middle" x="61.62" y="-11.38" font-family="Helvetica,sans-Serif" font-size="10.00">Plugin.Main.RecvThread</text>
</a>
</g>
</g>
<!-- Node3&#45;&gt;Node4 -->
<g id="edge3_Node000003_Node000004" class="edge">
<title>Node3&#45;&gt;Node4</title>
<g id="a_edge3_Node000003_Node000004"><a xlink:title=" ">
<path fill="none" stroke="#63b8ff" d="M173.76,-15.25C157.05,-15.25 139.57,-15.25 123.55,-15.25"/>
<polygon fill="#63b8ff" stroke="#63b8ff" points="173.66,-18.75 183.66,-15.25 173.66,-11.75 173.66,-18.75"/>
</a>
</g>
</g>
</g>
</svg>
