<?xml version="1.0" encoding="UTF-8" standalone="no"?>
<!DOCTYPE svg PUBLIC "-//W3C//DTD SVG 1.1//EN"
 "http://www.w3.org/Graphics/SVG/1.1/DTD/svg11.dtd">
<!-- Generated by graphviz version 10.0.1 (20240210.2158)
 -->
<!-- Title: xeno_rat_server.Forms.Live_Microphone.comboBox1_SelectedIndexChanged Pages: 1 -->
<svg width="1150pt" height="210pt"
 viewBox="0.00 0.00 1150.25 209.50" xmlns="http://www.w3.org/2000/svg" xmlns:xlink="http://www.w3.org/1999/xlink">
<g id="graph0" class="graph" transform="scale(1 1) rotate(0) translate(4 205.5)">
<title>xeno_rat_server.Forms.Live_Microphone.comboBox1_SelectedIndexChanged</title>
<!-- Node1 -->
<g id="Node000001" class="node">
<title>Node1</title>
<g id="a_Node000001"><a xlink:title="Handles the SelectedIndexChanged event of comboBox1.">
<polygon fill="#999999" stroke="#666666" points="193.75,-156.12 0,-156.12 0,-114.38 193.75,-114.38 193.75,-156.12"/>
<text text-anchor="start" x="8" y="-142.62" font-family="Helvetica,sans-Serif" font-size="10.00">xeno_rat_server.Forms.Live</text>
<text text-anchor="start" x="8" y="-131.38" font-family="Helvetica,sans-Serif" font-size="10.00">_Microphone.comboBox1_SelectedIndex</text>
<text text-anchor="middle" x="96.88" y="-120.12" font-family="Helvetica,sans-Serif" font-size="10.00">Changed</text>
</a>
</g>
</g>
<!-- Node2 -->
<g id="Node000002" class="node">
<title>Node2</title>
<g id="a_Node000002"><a xlink:href="classxeno__rat__server_1_1_forms_1_1_live___microphone.html#a191e91bd975e3ccefbed538fdfe2fdd0" target="_top" xlink:title="Sets the microphone using the specified index.">
<polygon fill="white" stroke="#666666" points="371,-150.5 229.75,-150.5 229.75,-120 371,-120 371,-150.5"/>
<text text-anchor="start" x="237.75" y="-137" font-family="Helvetica,sans-Serif" font-size="10.00">xeno_rat_server.Forms.Live</text>
<text text-anchor="middle" x="300.38" y="-125.75" font-family="Helvetica,sans-Serif" font-size="10.00">_Microphone.SetMicroPhone</text>
</a>
</g>
</g>
<!-- Node1&#45;&gt;Node2 -->
<g id="edge1_Node000001_Node000002" class="edge">
<title>Node1&#45;&gt;Node2</title>
<g id="a_edge1_Node000001_Node000002"><a xlink:title=" ">
<path fill="none" stroke="#63b8ff" d="M194.2,-135.25C202.15,-135.25 210.14,-135.25 217.97,-135.25"/>
<polygon fill="#63b8ff" stroke="#63b8ff" points="217.79,-138.75 227.79,-135.25 217.79,-131.75 217.79,-138.75"/>
</a>
</g>
</g>
<!-- Node3 -->
<g id="Node000003" class="node">
<title>Node3</title>
<g id="a_Node000003"><a xlink:href="classxeno__rat__server_1_1_socket_handler.html#a7d019c5e4cbd0138d155156c7a7c5a8f" target="_top" xlink:title="Converts an integer to a byte array.">
<polygon fill="white" stroke="#666666" points="934.25,-178.5 779.5,-178.5 779.5,-148 934.25,-148 934.25,-178.5"/>
<text text-anchor="start" x="787.5" y="-165" font-family="Helvetica,sans-Serif" font-size="10.00">xeno_rat_server.SocketHandler.</text>
<text text-anchor="middle" x="856.88" y="-153.75" font-family="Helvetica,sans-Serif" font-size="10.00">IntToBytes</text>
</a>
</g>
</g>
<!-- Node2&#45;&gt;Node3 -->
<g id="edge2_Node000002_Node000003" class="edge">
<title>Node2&#45;&gt;Node3</title>
<g id="a_edge2_Node000002_Node000003"><a xlink:title=" ">
<path fill="none" stroke="#63b8ff" d="M371.32,-138.78C471.99,-143.87 657.68,-153.24 767.64,-158.79"/>
<polygon fill="#63b8ff" stroke="#63b8ff" points="767.35,-162.28 777.51,-159.29 767.7,-155.29 767.35,-162.28"/>
</a>
</g>
</g>
<!-- Node4 -->
<g id="Node000004" class="node">
<title>Node4</title>
<g id="a_Node000004"><a xlink:href="classxeno__rat__server_1_1_node.html#a816e267eb31862d38c21e5faaae3061d" target="_top" xlink:title="Sends the provided data asynchronously and returns a boolean indicating the success of the operation.">
<polygon fill="white" stroke="#666666" points="543.75,-122.5 407,-122.5 407,-92 543.75,-92 543.75,-122.5"/>
<text text-anchor="start" x="415" y="-109" font-family="Helvetica,sans-Serif" font-size="10.00">xeno_rat_server.Node.Send</text>
<text text-anchor="middle" x="475.38" y="-97.75" font-family="Helvetica,sans-Serif" font-size="10.00">Async</text>
</a>
</g>
</g>
<!-- Node2&#45;&gt;Node4 -->
<g id="edge3_Node000002_Node000004" class="edge">
<title>Node2&#45;&gt;Node4</title>
<g id="a_edge3_Node000002_Node000004"><a xlink:title=" ">
<path fill="none" stroke="#63b8ff" d="M371.24,-123.94C379.21,-122.65 387.37,-121.33 395.45,-120.02"/>
<polygon fill="#63b8ff" stroke="#63b8ff" points="395.97,-123.49 405.28,-118.43 394.85,-116.58 395.97,-123.49"/>
</a>
</g>
</g>
<!-- Node5 -->
<g id="Node000005" class="node">
<title>Node5</title>
<g id="a_Node000005"><a xlink:href="classxeno__rat__server_1_1_node.html#a8814edd98b6463f49812be32d5928763" target="_top" xlink:title="Sets the isDisposed flag to true and disconnects the socket, disposes resources, and triggers the OnD...">
<polygon fill="white" stroke="#666666" points="743.5,-116.88 579.75,-116.88 579.75,-97.62 743.5,-97.62 743.5,-116.88"/>
<text text-anchor="middle" x="661.62" y="-103.38" font-family="Helvetica,sans-Serif" font-size="10.00">xeno_rat_server.Node.Disconnect</text>
</a>
</g>
</g>
<!-- Node4&#45;&gt;Node5 -->
<g id="edge4_Node000004_Node000005" class="edge">
<title>Node4&#45;&gt;Node5</title>
<g id="a_edge4_Node000004_Node000005"><a xlink:title=" ">
<path fill="none" stroke="#63b8ff" d="M544.2,-107.25C552.01,-107.25 560.07,-107.25 568.14,-107.25"/>
<polygon fill="#63b8ff" stroke="#63b8ff" points="568,-110.75 578,-107.25 568,-103.75 568,-110.75"/>
</a>
</g>
</g>
<!-- Node6 -->
<g id="Node000006" class="node">
<title>Node6</title>
<g id="a_Node000006"><a xlink:href="classxeno__rat__server_1_1_socket_handler.html#a85ca8385d023521cdb86ff8ae688adee" target="_top" xlink:title="Sends the provided data asynchronously over the socket.">
<polygon fill="white" stroke="#666666" points="739,-79.5 584.25,-79.5 584.25,-49 739,-49 739,-79.5"/>
<text text-anchor="start" x="592.25" y="-66" font-family="Helvetica,sans-Serif" font-size="10.00">xeno_rat_server.SocketHandler.</text>
<text text-anchor="middle" x="661.62" y="-54.75" font-family="Helvetica,sans-Serif" font-size="10.00">SendAsync</text>
</a>
</g>
</g>
<!-- Node4&#45;&gt;Node6 -->
<g id="edge6_Node000004_Node000006" class="edge">
<title>Node4&#45;&gt;Node6</title>
<g id="a_edge6_Node000004_Node000006"><a xlink:title=" ">
<path fill="none" stroke="#63b8ff" d="M543.68,-91.54C556.16,-88.63 569.3,-85.56 582.08,-82.58"/>
<polygon fill="#63b8ff" stroke="#63b8ff" points="582.78,-86.01 591.72,-80.33 581.19,-79.19 582.78,-86.01"/>
</a>
</g>
</g>
<!-- Node5&#45;&gt;Node5 -->
<g id="edge5_Node000005_Node000005" class="edge">
<title>Node5&#45;&gt;Node5</title>
<g id="a_edge5_Node000005_Node000005"><a xlink:title=" ">
<path fill="none" stroke="#63b8ff" d="M632.47,-117.16C619.17,-125.77 628.89,-134.88 661.62,-134.88 680.55,-134.88 691.79,-131.83 695.33,-127.6"/>
<polygon fill="#63b8ff" stroke="#63b8ff" points="698.59,-126.32 691.39,-118.55 692.17,-129.12 698.59,-126.32"/>
</a>
</g>
</g>
<!-- Node6&#45;&gt;Node3 -->
<g id="edge14_Node000006_Node000003" class="edge">
<title>Node6&#45;&gt;Node3</title>
<g id="a_edge14_Node000006_Node000003"><a xlink:title=" ">
<path fill="none" stroke="#63b8ff" d="M728.78,-79.86C733.96,-82.27 738.95,-85.05 743.5,-88.25 765.61,-103.79 757.71,-121.27 779.5,-137.25 781.96,-139.05 784.55,-140.73 787.23,-142.31"/>
<polygon fill="#63b8ff" stroke="#63b8ff" points="785.45,-145.33 795.94,-146.83 788.68,-139.11 785.45,-145.33"/>
</a>
</g>
</g>
<!-- Node7 -->
<g id="Node000007" class="node">
<title>Node7</title>
<g id="a_Node000007"><a xlink:href="classxeno__rat__server_1_1_compression.html#a0f3f31a2fe34d92bf04538b2fdf529e0" target="_top" xlink:title="Compresses the input buffer using the LZNT1 compression format and returns the compressed data.">
<polygon fill="white" stroke="#666666" points="931.25,-128.5 782.5,-128.5 782.5,-98 931.25,-98 931.25,-128.5"/>
<text text-anchor="start" x="790.5" y="-115" font-family="Helvetica,sans-Serif" font-size="10.00">xeno_rat_server.Compression.</text>
<text text-anchor="middle" x="856.88" y="-103.75" font-family="Helvetica,sans-Serif" font-size="10.00">Compress</text>
</a>
</g>
</g>
<!-- Node6&#45;&gt;Node7 -->
<g id="edge7_Node000006_Node000007" class="edge">
<title>Node6&#45;&gt;Node7</title>
<g id="a_edge7_Node000006_Node000007"><a xlink:title=" ">
<path fill="none" stroke="#63b8ff" d="M724.57,-79.96C743.12,-84.66 763.63,-89.86 782.83,-94.73"/>
<polygon fill="#63b8ff" stroke="#63b8ff" points="781.93,-98.11 792.48,-97.18 783.65,-91.33 781.93,-98.11"/>
</a>
</g>
</g>
<!-- Node12 -->
<g id="Node000012" class="node">
<title>Node12</title>
<g id="a_Node000012"><a xlink:href="classxeno__rat__server_1_1_socket_handler.html#a4f2e993b63cf1bba877781c9be2ed496" target="_top" xlink:title="Concatenates two byte arrays and returns the result.">
<polygon fill="white" stroke="#666666" points="934.25,-79.5 779.5,-79.5 779.5,-49 934.25,-49 934.25,-79.5"/>
<text text-anchor="start" x="787.5" y="-66" font-family="Helvetica,sans-Serif" font-size="10.00">xeno_rat_server.SocketHandler.</text>
<text text-anchor="middle" x="856.88" y="-54.75" font-family="Helvetica,sans-Serif" font-size="10.00">Concat</text>
</a>
</g>
</g>
<!-- Node6&#45;&gt;Node12 -->
<g id="edge12_Node000006_Node000012" class="edge">
<title>Node6&#45;&gt;Node12</title>
<g id="a_edge12_Node000006_Node000012"><a xlink:title=" ">
<path fill="none" stroke="#63b8ff" d="M739.28,-64.25C748.75,-64.25 758.48,-64.25 768.1,-64.25"/>
<polygon fill="#63b8ff" stroke="#63b8ff" points="767.8,-67.75 777.8,-64.25 767.8,-60.75 767.8,-67.75"/>
</a>
</g>
</g>
<!-- Node13 -->
<g id="Node000013" class="node">
<title>Node13</title>
<g id="a_Node000013"><a xlink:href="classxeno__rat__server_1_1_encryption.html#a0fafecaba804cb57663bdbb4dcc4e93f" target="_top" xlink:title="Encrypts the input data using the provided key and returns the encrypted result.">
<polygon fill="white" stroke="#666666" points="925.62,-30.5 788.12,-30.5 788.12,0 925.62,0 925.62,-30.5"/>
<text text-anchor="start" x="796.12" y="-17" font-family="Helvetica,sans-Serif" font-size="10.00">xeno_rat_server.Encryption.</text>
<text text-anchor="middle" x="856.88" y="-5.75" font-family="Helvetica,sans-Serif" font-size="10.00">Encrypt</text>
</a>
</g>
</g>
<!-- Node6&#45;&gt;Node13 -->
<g id="edge13_Node000006_Node000013" class="edge">
<title>Node6&#45;&gt;Node13</title>
<g id="a_edge13_Node000006_Node000013"><a xlink:title=" ">
<path fill="none" stroke="#63b8ff" d="M724.57,-48.54C743.12,-43.84 763.63,-38.64 782.83,-33.77"/>
<polygon fill="#63b8ff" stroke="#63b8ff" points="783.65,-37.17 792.48,-31.32 781.93,-30.39 783.65,-37.17"/>
</a>
</g>
</g>
<!-- Node8 -->
<g id="Node000008" class="node">
<title>Node8</title>
<g id="a_Node000008"><a xlink:href="classxeno__rat__server_1_1_compression.html#ae86c8cb19fb340173e6b06816907c485" target="_top" xlink:title="Allocates the specified number of bytes in the local heap and returns a pointer to the allocated memo...">
<polygon fill="white" stroke="#666666" points="1130.62,-201.5 981.88,-201.5 981.88,-171 1130.62,-171 1130.62,-201.5"/>
<text text-anchor="start" x="989.88" y="-188" font-family="Helvetica,sans-Serif" font-size="10.00">xeno_rat_server.Compression.</text>
<text text-anchor="middle" x="1056.25" y="-176.75" font-family="Helvetica,sans-Serif" font-size="10.00">LocalAlloc</text>
</a>
</g>
</g>
<!-- Node7&#45;&gt;Node8 -->
<g id="edge8_Node000007_Node000008" class="edge">
<title>Node7&#45;&gt;Node8</title>
<g id="a_edge8_Node000007_Node000008"><a xlink:title=" ">
<path fill="none" stroke="#63b8ff" d="M909.03,-128.91C917.58,-132.03 926.26,-135.5 934.25,-139.25 951.23,-147.21 953.11,-153.65 970.25,-161.25 974.72,-163.23 979.39,-165.11 984.15,-166.87"/>
<polygon fill="#63b8ff" stroke="#63b8ff" points="982.62,-170.04 993.21,-170.06 984.93,-163.44 982.62,-170.04"/>
</a>
</g>
</g>
<!-- Node9 -->
<g id="Node000009" class="node">
<title>Node9</title>
<g id="a_Node000009"><a xlink:href="classxeno__rat__server_1_1_compression.html#ab527e0a594d96bbaa1a4b1541888aa74" target="_top" xlink:title="Frees the memory block allocated by LocalAlloc and LocalReAlloc and invalidates the handle.">
<polygon fill="white" stroke="#666666" points="1130.62,-152.5 981.88,-152.5 981.88,-122 1130.62,-122 1130.62,-152.5"/>
<text text-anchor="start" x="989.88" y="-139" font-family="Helvetica,sans-Serif" font-size="10.00">xeno_rat_server.Compression.</text>
<text text-anchor="middle" x="1056.25" y="-127.75" font-family="Helvetica,sans-Serif" font-size="10.00">LocalFree</text>
</a>
</g>
</g>
<!-- Node7&#45;&gt;Node9 -->
<g id="edge9_Node000007_Node000009" class="edge">
<title>Node7&#45;&gt;Node9</title>
<g id="a_edge9_Node000007_Node000009"><a xlink:title=" ">
<path fill="none" stroke="#63b8ff" d="M931.65,-122.22C944.27,-123.76 957.47,-125.36 970.35,-126.93"/>
<polygon fill="#63b8ff" stroke="#63b8ff" points="969.71,-130.37 980.06,-128.11 970.56,-123.43 969.71,-130.37"/>
</a>
</g>
</g>
<!-- Node10 -->
<g id="Node000010" class="node">
<title>Node10</title>
<g id="a_Node000010"><a xlink:href="classxeno__rat__server_1_1_compression.html#a1f9bb20d96d13bdc4d0f90e2b68d4343" target="_top" xlink:title="Compresses the input buffer using the specified compression format and returns the compressed data in...">
<polygon fill="white" stroke="#666666" points="1130.62,-103.5 981.88,-103.5 981.88,-73 1130.62,-73 1130.62,-103.5"/>
<text text-anchor="start" x="989.88" y="-90" font-family="Helvetica,sans-Serif" font-size="10.00">xeno_rat_server.Compression.</text>
<text text-anchor="middle" x="1056.25" y="-78.75" font-family="Helvetica,sans-Serif" font-size="10.00">RtlCompressBuffer</text>
</a>
</g>
</g>
<!-- Node7&#45;&gt;Node10 -->
<g id="edge10_Node000007_Node000010" class="edge">
<title>Node7&#45;&gt;Node10</title>
<g id="a_edge10_Node000007_Node000010"><a xlink:title=" ">
<path fill="none" stroke="#63b8ff" d="M931.65,-103.91C944.27,-102.31 957.47,-100.64 970.35,-99"/>
<polygon fill="#63b8ff" stroke="#63b8ff" points="970.58,-102.5 980.06,-97.77 969.7,-95.56 970.58,-102.5"/>
</a>
</g>
</g>
<!-- Node11 -->
<g id="Node000011" class="node">
<title>Node11</title>
<g id="a_Node000011"><a xlink:href="classxeno__rat__server_1_1_compression.html#a5ca090d7b0887e40753bad9800c321e7" target="_top" xlink:title="Retrieves the size of the workspace required for compression.">
<polygon fill="white" stroke="#666666" points="1142.25,-54.5 970.25,-54.5 970.25,-24 1142.25,-24 1142.25,-54.5"/>
<text text-anchor="start" x="978.25" y="-41" font-family="Helvetica,sans-Serif" font-size="10.00">xeno_rat_server.Compression.</text>
<text text-anchor="middle" x="1056.25" y="-29.75" font-family="Helvetica,sans-Serif" font-size="10.00">RtlGetCompressionWorkSpaceSize</text>
</a>
</g>
</g>
<!-- Node7&#45;&gt;Node11 -->
<g id="edge11_Node000007_Node000011" class="edge">
<title>Node7&#45;&gt;Node11</title>
<g id="a_edge11_Node000007_Node000011"><a xlink:title=" ">
<path fill="none" stroke="#63b8ff" d="M912.02,-97.57C919.61,-94.78 927.22,-91.66 934.25,-88.25 951.55,-79.85 952.83,-72.39 970.25,-64.25 974.29,-62.36 978.5,-60.58 982.8,-58.91"/>
<polygon fill="#63b8ff" stroke="#63b8ff" points="983.99,-62.2 992.18,-55.49 981.59,-55.63 983.99,-62.2"/>
</a>
</g>
</g>
</g>
</svg>
