<?xml version="1.0" encoding="UTF-8" standalone="no"?>
<!DOCTYPE svg PUBLIC "-//W3C//DTD SVG 1.1//EN"
 "http://www.w3.org/Graphics/SVG/1.1/DTD/svg11.dtd">
<!-- Generated by graphviz version 10.0.1 (20240210.2158)
 -->
<!-- Title: xeno_rat_client.SocketHandler.ResetRecvTimeout Pages: 1 -->
<!--zoomable 110 -->

<svg id="main" version="1.1" xmlns="http://www.w3.org/2000/svg" xmlns:xlink="http://www.w3.org/1999/xlink" xml:space="preserve" onload="init(evt)">
<style type="text/css"><![CDATA[
.node, .edge {opacity: 0.7;}
.node.selected, .edge.selected {opacity: 1;}
.edge:hover path { stroke: red; }
.edge:hover polygon { stroke: red; fill: red; }
]]></style>

<defs>
  <circle id="rim" cx="0" cy="0" r="7"/>
  <circle id="rim2" cx="0" cy="0" r="3.5"/>
  <g id="zoomPlus">
    <use xlink:href="#rim" fill="#404040"><set attributeName="fill" to="#808080" begin="zoomplus.mouseover" end="zoomplus.mouseout"/></use>
    <path d="M-4,0h8M0,-4v8" fill="none" stroke="white" stroke-width="1.5" pointer-events="none"/>
  </g>
  <g id="zoomMin">
    <use xlink:href="#rim" fill="#404040"><set attributeName="fill" to="#808080" begin="zoomminus.mouseover" end="zoomminus.mouseout"/></use>
    <path d="M-4,0h8" fill="none" stroke="white" stroke-width="1.5" pointer-events="none"/>
  </g>
  <g id="arrowUp" transform="translate(30 24)">
    <use xlink:href="#rim"/>
    <path pointer-events="none" fill="none" stroke="white" stroke-width="1.5" d="M0,-3.0v7 M-2.5,-0.5L0,-3.0L2.5,-0.5"/>
  </g>
  <g id="arrowRight" transform="rotate(90) translate(36 -43)">
    <use xlink:href="#rim"/>
    <path pointer-events="none" fill="none" stroke="white" stroke-width="1.5" d="M0,-3.0v7 M-2.5,-0.5L0,-3.0L2.5,-0.5"/>
  </g>
  <g id="arrowDown" transform="rotate(180) translate(-30 -48)">
    <use xlink:href="#rim"/>
    <path pointer-events="none" fill="none" stroke="white" stroke-width="1.5" d="M0,-3.0v7 M-2.5,-0.5L0,-3.0L2.5,-0.5"/>
  </g>
  <g id="arrowLeft" transform="rotate(270) translate(-36 17)">
    <use xlink:href="#rim"/>
    <path pointer-events="none" fill="none" stroke="white" stroke-width="1.5" d="M0,-3.0v7 M-2.5,-0.5L0,-3.0L2.5,-0.5"/>
  </g>
  <g id="resetDef">
    <use xlink:href="#rim2" fill="#404040"><set attributeName="fill" to="#808080" begin="reset.mouseover" end="reset.mouseout"/></use>
  </g>
</defs>
<script type="application/ecmascript">
var viewWidth = 1223;
var viewHeight = 110;
var sectionId = 'dynsection-10';
</script>
<script type="application/ecmascript" xlink:href="svg.min.js"/>
<svg id="graph" class="graph">
<g id="viewport">
<title>xeno_rat_client.SocketHandler.ResetRecvTimeout</title>
<!-- Node1 -->
<g id="Node000001" class="node">
<title>Node1</title>
<g id="a_Node000001"><a xlink:title="Resets the receive timeout for the socket to zero.">
<polygon fill="#999999" stroke="#666666" points="1214.5,-54.5 1062.75,-54.5 1062.75,-24 1214.5,-24 1214.5,-54.5"/>
<text text-anchor="start" x="1070.75" y="-41" font-family="Helvetica,sans-Serif" font-size="10.00">xeno_rat_client.SocketHandler.</text>
<text text-anchor="middle" x="1138.62" y="-29.75" font-family="Helvetica,sans-Serif" font-size="10.00">ResetRecvTimeout</text>
</a>
</g>
</g>
<!-- Node2 -->
<g id="Node000002" class="node">
<title>Node2</title>
<g id="a_Node000002"><a xlink:href="classxeno__rat__client_1_1_node.html#a1921e91abd598cf2ea5580bee86a89f2" target="_top" xlink:title="Authenticates the connection based on the specified type and optional ID.">
<polygon fill="white" stroke="#666666" points="1026.75,-79.5 860.75,-79.5 860.75,-49 1026.75,-49 1026.75,-79.5"/>
<text text-anchor="start" x="868.75" y="-66" font-family="Helvetica,sans-Serif" font-size="10.00">xeno_rat_client.Node.Authenticate</text>
<text text-anchor="middle" x="943.75" y="-54.75" font-family="Helvetica,sans-Serif" font-size="10.00">Async</text>
</a>
</g>
</g>
<!-- Node1&#45;&gt;Node2 -->
<g id="edge1_Node000001_Node000002" class="edge">
<title>Node1&#45;&gt;Node2</title>
<g id="a_edge1_Node000001_Node000002"><a xlink:title=" ">
<path fill="none" stroke="#63b8ff" d="M1051.21,-50.45C1043.16,-51.49 1035.02,-52.55 1027.01,-53.59"/>
<polygon fill="#63b8ff" stroke="#63b8ff" points="1051.53,-53.94 1061,-49.18 1050.63,-47 1051.53,-53.94"/>
</a>
</g>
</g>
<!-- Node8 -->
<g id="Node000008" class="node">
<title>Node8</title>
<g id="a_Node000008"><a xlink:href="classxeno__rat__client_1_1_node.html#a92cae78c429c2e8e9d3222107ca471bc" target="_top" xlink:title="Resets the receive timeout for the socket.">
<polygon fill="white" stroke="#666666" points="1012.5,-30.5 875,-30.5 875,0 1012.5,0 1012.5,-30.5"/>
<text text-anchor="start" x="883" y="-17" font-family="Helvetica,sans-Serif" font-size="10.00">xeno_rat_client.Node.Reset</text>
<text text-anchor="middle" x="943.75" y="-5.75" font-family="Helvetica,sans-Serif" font-size="10.00">RecvTimeout</text>
</a>
</g>
</g>
<!-- Node1&#45;&gt;Node8 -->
<g id="edge8_Node000001_Node000008" class="edge">
<title>Node1&#45;&gt;Node8</title>
<g id="a_edge8_Node000001_Node000008"><a xlink:title=" ">
<path fill="none" stroke="#63b8ff" d="M1051.25,-28.5C1038.35,-26.9 1025.2,-25.26 1012.75,-23.71"/>
<polygon fill="#63b8ff" stroke="#63b8ff" points="1050.64,-31.95 1061,-29.72 1051.51,-25.01 1050.64,-31.95"/>
</a>
</g>
</g>
<!-- Node3 -->
<g id="Node000003" class="node">
<title>Node3</title>
<g id="a_Node000003"><a xlink:href="classxeno__rat__client_1_1_utils.html#a1b80c734536096188c0fd2f6140ad285" target="_top" xlink:title="Connects to a socket, sets up a node, and authenticates it asynchronously.">
<polygon fill="white" stroke="#666666" points="824.75,-79.5 679.75,-79.5 679.75,-49 824.75,-49 824.75,-79.5"/>
<text text-anchor="start" x="687.75" y="-66" font-family="Helvetica,sans-Serif" font-size="10.00">xeno_rat_client.Utils.Connect</text>
<text text-anchor="middle" x="752.25" y="-54.75" font-family="Helvetica,sans-Serif" font-size="10.00">AndSetupAsync</text>
</a>
</g>
</g>
<!-- Node2&#45;&gt;Node3 -->
<g id="edge2_Node000002_Node000003" class="edge">
<title>Node2&#45;&gt;Node3</title>
<g id="a_edge2_Node000002_Node000003"><a xlink:title=" ">
<path fill="none" stroke="#63b8ff" d="M849.08,-64.25C841,-64.25 832.92,-64.25 825.06,-64.25"/>
<polygon fill="#63b8ff" stroke="#63b8ff" points="848.95,-67.75 858.95,-64.25 848.95,-60.75 848.95,-67.75"/>
</a>
</g>
</g>
<!-- Node4 -->
<g id="Node000004" class="node">
<title>Node4</title>
<g id="a_Node000004"><a xlink:href="classxeno__rat__client_1_1_node.html#a8cd530137de59c6bc9f192e779dc26f3" target="_top" xlink:title="Asynchronously connects a sub socket and sets up the connection with the specified parameters.">
<polygon fill="white" stroke="#666666" points="643.75,-101.5 495.75,-101.5 495.75,-71 643.75,-71 643.75,-101.5"/>
<text text-anchor="start" x="503.75" y="-88" font-family="Helvetica,sans-Serif" font-size="10.00">xeno_rat_client.Node.Connect</text>
<text text-anchor="middle" x="569.75" y="-76.75" font-family="Helvetica,sans-Serif" font-size="10.00">SubSockAsync</text>
</a>
</g>
</g>
<!-- Node3&#45;&gt;Node4 -->
<g id="edge3_Node000003_Node000004" class="edge">
<title>Node3&#45;&gt;Node4</title>
<g id="a_edge3_Node000003_Node000004"><a xlink:title=" ">
<path fill="none" stroke="#63b8ff" d="M668.14,-74.38C660.13,-75.36 652.04,-76.34 644.13,-77.31"/>
<polygon fill="#63b8ff" stroke="#63b8ff" points="668.39,-77.88 677.89,-73.19 667.54,-70.93 668.39,-77.88"/>
</a>
</g>
</g>
<!-- Node7 -->
<g id="Node000007" class="node">
<title>Node7</title>
<g id="a_Node000007"><a xlink:href="classxeno__rat__client_1_1_program.html#a8e01c4689de41166b75a03fda71d12f0" target="_top" xlink:title="Main function for the XenoUpdateManager application.">
<polygon fill="white" stroke="#666666" points="145.75,-73.88 0,-73.88 0,-54.62 145.75,-54.62 145.75,-73.88"/>
<text text-anchor="middle" x="72.88" y="-60.38" font-family="Helvetica,sans-Serif" font-size="10.00">xeno_rat_client.Program.Main</text>
</a>
</g>
</g>
<!-- Node3&#45;&gt;Node7 -->
<g id="edge7_Node000003_Node000007" class="edge">
<title>Node3&#45;&gt;Node7</title>
<g id="a_edge7_Node000003_Node000007"><a xlink:title=" ">
<path fill="none" stroke="#63b8ff" d="M667.8,-62.54C659.67,-62.42 651.55,-62.32 643.75,-62.25 438.43,-60.34 387.07,-60.35 181.75,-62.25 170.23,-62.36 158.02,-62.53 146.12,-62.73"/>
<polygon fill="#63b8ff" stroke="#63b8ff" points="667.69,-66.04 677.75,-62.7 667.8,-59.04 667.69,-66.04"/>
</a>
</g>
</g>
<!-- Node5 -->
<g id="Node000005" class="node">
<title>Node5</title>
<g id="a_Node000005"><a xlink:href="classxeno__rat__client_1_1_handler.html#ad71391058f264e78c9c31d0dcbc19007" target="_top" xlink:title="Asynchronously creates a sub socket based on the provided data.">
<polygon fill="white" stroke="#666666" points="459.75,-101.5 338.75,-101.5 338.75,-71 459.75,-71 459.75,-101.5"/>
<text text-anchor="start" x="346.75" y="-88" font-family="Helvetica,sans-Serif" font-size="10.00">xeno_rat_client.Handler.</text>
<text text-anchor="middle" x="399.25" y="-76.75" font-family="Helvetica,sans-Serif" font-size="10.00">CreateSubSock</text>
</a>
</g>
</g>
<!-- Node4&#45;&gt;Node5 -->
<g id="edge4_Node000004_Node000005" class="edge">
<title>Node4&#45;&gt;Node5</title>
<g id="a_edge4_Node000004_Node000005"><a xlink:title=" ">
<path fill="none" stroke="#63b8ff" d="M483.94,-86.25C475.86,-86.25 467.8,-86.25 460.03,-86.25"/>
<polygon fill="#63b8ff" stroke="#63b8ff" points="483.82,-89.75 493.82,-86.25 483.82,-82.75 483.82,-89.75"/>
</a>
</g>
</g>
<!-- Node6 -->
<g id="Node000006" class="node">
<title>Node6</title>
<g id="a_Node000006"><a xlink:href="classxeno__rat__client_1_1_handler.html#af958615880e2daf8a8d0ede5f4c53363" target="_top" xlink:title="Asynchronously receives data and performs different actions based on the received opcode.">
<polygon fill="white" stroke="#666666" points="302.75,-101.5 181.75,-101.5 181.75,-71 302.75,-71 302.75,-101.5"/>
<text text-anchor="start" x="189.75" y="-88" font-family="Helvetica,sans-Serif" font-size="10.00">xeno_rat_client.Handler.</text>
<text text-anchor="middle" x="242.25" y="-76.75" font-family="Helvetica,sans-Serif" font-size="10.00">Type0Receive</text>
</a>
</g>
</g>
<!-- Node5&#45;&gt;Node6 -->
<g id="edge5_Node000005_Node000006" class="edge">
<title>Node5&#45;&gt;Node6</title>
<g id="a_edge5_Node000005_Node000006"><a xlink:title=" ">
<path fill="none" stroke="#63b8ff" d="M327.06,-86.25C319.02,-86.25 310.89,-86.25 303.02,-86.25"/>
<polygon fill="#63b8ff" stroke="#63b8ff" points="326.81,-89.75 336.81,-86.25 326.81,-82.75 326.81,-89.75"/>
</a>
</g>
</g>
<!-- Node6&#45;&gt;Node7 -->
<g id="edge6_Node000006_Node000007" class="edge">
<title>Node6&#45;&gt;Node7</title>
<g id="a_edge6_Node000006_Node000007"><a xlink:title=" ">
<path fill="none" stroke="#63b8ff" d="M170.13,-76.9C162.14,-75.85 153.99,-74.78 145.99,-73.73"/>
<polygon fill="#63b8ff" stroke="#63b8ff" points="169.43,-80.34 179.8,-78.17 170.34,-73.4 169.43,-80.34"/>
</a>
</g>
</g>
</g>
</svg>

<g id="navigator" transform="translate(0 0)" fill="#404254">
  <rect fill="#f2f5e9" fill-opacity="0.5" stroke="#606060" stroke-width=".5" x="0" y="0" width="60" height="60"/>
  <use id="zoomplus" xlink:href="#zoomPlus" x="17" y="9" onmousedown="handleZoom(evt,'in')"/>
  <use id="zoomminus" xlink:href="#zoomMin" x="42" y="9" onmousedown="handleZoom(evt,'out')"/>
  <use id="reset" xlink:href="#resetDef" x="30" y="36" onmousedown="handleReset()"/>
   <use id="arrowup" xlink:href="#arrowUp" x="0" y="0" onmousedown="handlePan(0,-1)"/>
  <use id="arrowright" xlink:href="#arrowRight" x="0" y="0" onmousedown="handlePan(1,0)"/>
  <use id="arrowdown" xlink:href="#arrowDown" x="0" y="0" onmousedown="handlePan(0,1)"/>
  <use id="arrowleft" xlink:href="#arrowLeft" x="0" y="0" onmousedown="handlePan(-1,0)"/>
</g>
<svg viewBox="0 0 15 15" width="100%" height="30px" preserveAspectRatio="xMaxYMin meet">
 <g id="arrow_out" transform="scale(0.3 0.3)">
  <a xlink:href="classxeno__rat__client_1_1_socket_handler_a2c3dc90eeab43d3b2af30769d2143ef3_icgraph_org.svg" target="_base">
   <rect id="button" ry="5" rx="5" y="6" x="6" height="38" width="38"
        fill="#f2f5e9" fill-opacity="0.5" stroke="#606060" stroke-width="1.0"/>
   <path id="arrow"
     d="M 11.500037,31.436501 C 11.940474,20.09759 22.043105,11.32322 32.158766,21.979434 L 37.068811,17.246167 C 37.068811,17.246167 37.088388,32 37.088388,32 L 22.160133,31.978069 C 22.160133,31.978069 26.997745,27.140456 26.997745,27.140456 C 18.528582,18.264221 13.291696,25.230495 11.500037,31.436501 z"
     style="fill:#404040;"/>
  </a>
 </g>
</svg>

<style type='text/css'>
<![CDATA[
[data-mouse-over-selected='false'] { opacity: 0.7; }
[data-mouse-over-selected='true']  { opacity: 1.0; }
]]>
</style>
<script type="application/ecmascript"><![CDATA[
document.addEventListener('DOMContentLoaded', (event) => {
  highlightEdges();
  highlightAdjacentNodes();
});
]]></script>
</svg>
