<?xml version="1.0" encoding="UTF-8" standalone="no"?>
<!DOCTYPE svg PUBLIC "-//W3C//DTD SVG 1.1//EN"
 "http://www.w3.org/Graphics/SVG/1.1/DTD/svg11.dtd">
<!-- Generated by graphviz version 10.0.1 (20240210.2158)
 -->
<!-- Title: NAudio.Wave.WaveProvider32 Pages: 1 -->
<!--zoomable 673 -->

<svg id="main" version="1.1" xmlns="http://www.w3.org/2000/svg" xmlns:xlink="http://www.w3.org/1999/xlink" xml:space="preserve" onload="init(evt)">
<style type="text/css"><![CDATA[
.node, .edge {opacity: 0.7;}
.node.selected, .edge.selected {opacity: 1;}
.edge:hover path { stroke: red; }
.edge:hover polygon { stroke: red; fill: red; }
]]></style>

<defs>
  <circle id="rim" cx="0" cy="0" r="7"/>
  <circle id="rim2" cx="0" cy="0" r="3.5"/>
  <g id="zoomPlus">
    <use xlink:href="#rim" fill="#404040"><set attributeName="fill" to="#808080" begin="zoomplus.mouseover" end="zoomplus.mouseout"/></use>
    <path d="M-4,0h8M0,-4v8" fill="none" stroke="white" stroke-width="1.5" pointer-events="none"/>
  </g>
  <g id="zoomMin">
    <use xlink:href="#rim" fill="#404040"><set attributeName="fill" to="#808080" begin="zoomminus.mouseover" end="zoomminus.mouseout"/></use>
    <path d="M-4,0h8" fill="none" stroke="white" stroke-width="1.5" pointer-events="none"/>
  </g>
  <g id="arrowUp" transform="translate(30 24)">
    <use xlink:href="#rim"/>
    <path pointer-events="none" fill="none" stroke="white" stroke-width="1.5" d="M0,-3.0v7 M-2.5,-0.5L0,-3.0L2.5,-0.5"/>
  </g>
  <g id="arrowRight" transform="rotate(90) translate(36 -43)">
    <use xlink:href="#rim"/>
    <path pointer-events="none" fill="none" stroke="white" stroke-width="1.5" d="M0,-3.0v7 M-2.5,-0.5L0,-3.0L2.5,-0.5"/>
  </g>
  <g id="arrowDown" transform="rotate(180) translate(-30 -48)">
    <use xlink:href="#rim"/>
    <path pointer-events="none" fill="none" stroke="white" stroke-width="1.5" d="M0,-3.0v7 M-2.5,-0.5L0,-3.0L2.5,-0.5"/>
  </g>
  <g id="arrowLeft" transform="rotate(270) translate(-36 17)">
    <use xlink:href="#rim"/>
    <path pointer-events="none" fill="none" stroke="white" stroke-width="1.5" d="M0,-3.0v7 M-2.5,-0.5L0,-3.0L2.5,-0.5"/>
  </g>
  <g id="resetDef">
    <use xlink:href="#rim2" fill="#404040"><set attributeName="fill" to="#808080" begin="reset.mouseover" end="reset.mouseout"/></use>
  </g>
</defs>
<script type="application/ecmascript">
var viewWidth = 476;
var viewHeight = 673;
var sectionId = 'dynsection-1';
</script>
<script type="application/ecmascript" xlink:href="svg.min.js"/>
<svg id="graph" class="graph">
<g id="viewport">
<title>NAudio.Wave.WaveProvider32</title>
<!-- Node1 -->
<g id="Node000001" class="node">
<title>Node1</title>
<g id="a_Node000001"><a xlink:title="Base class for creating a 32 bit floating point wave provider Can also be used as a base class for an...">
<polygon fill="#999999" stroke="none" points="204.5,-109 60.5,-109 60.5,0 204.5,0 204.5,-109"/>
<text text-anchor="start" x="65.38" y="-95.5" font-family="Helvetica,sans-Serif" font-size="10.00">NAudio.Wave.WaveProvider32</text>
<text text-anchor="start" x="76.5" y="-80.5" font-family="Helvetica,sans-Serif" font-size="10.00">+</text>
<text text-anchor="start" x="98.5" y="-80.5" font-family="Helvetica,sans-Serif" font-size="10.00">WaveFormat</text>
<text text-anchor="start" x="76.5" y="-65.5" font-family="Helvetica,sans-Serif" font-size="10.00">+</text>
<text text-anchor="start" x="98.5" y="-65.5" font-family="Helvetica,sans-Serif" font-size="10.00">WaveProvider32()</text>
<text text-anchor="start" x="76.5" y="-50.5" font-family="Helvetica,sans-Serif" font-size="10.00">+</text>
<text text-anchor="start" x="98.5" y="-50.5" font-family="Helvetica,sans-Serif" font-size="10.00">WaveProvider32()</text>
<text text-anchor="start" x="76.5" y="-35.5" font-family="Helvetica,sans-Serif" font-size="10.00">+</text>
<text text-anchor="start" x="98.5" y="-35.5" font-family="Helvetica,sans-Serif" font-size="10.00">SetWaveFormat()</text>
<text text-anchor="start" x="76.5" y="-20.5" font-family="Helvetica,sans-Serif" font-size="10.00">+</text>
<text text-anchor="start" x="98.5" y="-20.5" font-family="Helvetica,sans-Serif" font-size="10.00">Read()</text>
<text text-anchor="start" x="76.5" y="-5.5" font-family="Helvetica,sans-Serif" font-size="10.00">+</text>
<text text-anchor="start" x="98.5" y="-5.5" font-family="Helvetica,sans-Serif" font-size="10.00">Read()</text>
<polygon fill="#666666" stroke="#666666" points="60.5,-92 60.5,-92 204.5,-92 204.5,-92 60.5,-92"/>
<polygon fill="#666666" stroke="#666666" points="60.5,-77 60.5,-77 96.5,-77 96.5,-77 60.5,-77"/>
<polygon fill="#666666" stroke="#666666" points="96.5,-77 96.5,-77 204.5,-77 204.5,-77 96.5,-77"/>
<polygon fill="none" stroke="#666666" points="60.5,0 60.5,-109 204.5,-109 204.5,0 60.5,0"/>
</a>
</g>
</g>
<!-- Node2 -->
<g id="Node000002" class="node">
<title>Node2</title>
<g id="a_Node000002"><a xlink:href="interface_n_audio_1_1_wave_1_1_i_wave_provider.html" target="_top" xlink:title="Generic interface for all WaveProviders.">
<polygon fill="white" stroke="none" points="73,-370.25 0,-370.25 0,-321.25 73,-321.25 73,-370.25"/>
<text text-anchor="start" x="4.62" y="-356.75" font-family="Helvetica,sans-Serif" font-size="10.00">IWaveProvider</text>
<text text-anchor="start" x="4" y="-341.75" font-family="Helvetica,sans-Serif" font-size="10.00">+</text>
<text text-anchor="start" x="14" y="-341.75" font-family="Helvetica,sans-Serif" font-size="10.00">WaveFormat</text>
<text text-anchor="start" x="4" y="-326.75" font-family="Helvetica,sans-Serif" font-size="10.00">+</text>
<text text-anchor="start" x="14" y="-326.75" font-family="Helvetica,sans-Serif" font-size="10.00">Read()</text>
<polygon fill="#666666" stroke="#666666" points="0,-353.25 0,-353.25 73,-353.25 73,-353.25 0,-353.25"/>
<polygon fill="#666666" stroke="#666666" points="0,-338.25 0,-338.25 12,-338.25 12,-338.25 0,-338.25"/>
<polygon fill="#666666" stroke="#666666" points="12,-338.25 12,-338.25 73,-338.25 73,-338.25 12,-338.25"/>
<polygon fill="none" stroke="#666666" points="0,-321.25 0,-370.25 73,-370.25 73,-321.25 0,-321.25"/>
</a>
</g>
</g>
<!-- Node2&#45;&gt;Node1 -->
<g id="edge1_Node000001_Node000002" class="edge">
<title>Node2&#45;&gt;Node1</title>
<g id="a_edge1_Node000001_Node000002"><a xlink:title=" ">
<path fill="none" stroke="#63b8ff" d="M42.53,-310.29C49.78,-271.98 63.4,-208.59 82.5,-156.25 88.26,-140.48 95.79,-123.93 103.26,-108.91"/>
<polygon fill="none" stroke="#63b8ff" points="39.14,-309.38 40.76,-319.85 46.02,-310.65 39.14,-309.38"/>
</a>
</g>
</g>
<!-- Node3 -->
<g id="Node000003" class="node">
<title>Node3</title>
<g id="a_Node000003"><a xlink:href="interface_n_audio_1_1_wave_1_1_i_sample_provider.html" target="_top" xlink:title="Like IWaveProvider, but makes it much simpler to put together a 32 bit floating point mixing engine.">
<polygon fill="white" stroke="none" points="173.5,-370.25 91.5,-370.25 91.5,-321.25 173.5,-321.25 173.5,-370.25"/>
<text text-anchor="start" x="96.5" y="-356.75" font-family="Helvetica,sans-Serif" font-size="10.00">ISampleProvider</text>
<text text-anchor="start" x="97.5" y="-341.75" font-family="Helvetica,sans-Serif" font-size="10.00">+</text>
<text text-anchor="start" x="109.5" y="-341.75" font-family="Helvetica,sans-Serif" font-size="10.00">WaveFormat</text>
<text text-anchor="start" x="97.5" y="-326.75" font-family="Helvetica,sans-Serif" font-size="10.00">+</text>
<text text-anchor="start" x="109.5" y="-326.75" font-family="Helvetica,sans-Serif" font-size="10.00">Read()</text>
<polygon fill="#666666" stroke="#666666" points="91.5,-353.25 91.5,-353.25 173.5,-353.25 173.5,-353.25 91.5,-353.25"/>
<polygon fill="#666666" stroke="#666666" points="91.5,-338.25 91.5,-338.25 107.5,-338.25 107.5,-338.25 91.5,-338.25"/>
<polygon fill="#666666" stroke="#666666" points="107.5,-338.25 107.5,-338.25 173.5,-338.25 173.5,-338.25 107.5,-338.25"/>
<polygon fill="none" stroke="#666666" points="91.5,-321.25 91.5,-370.25 173.5,-370.25 173.5,-321.25 91.5,-321.25"/>
</a>
</g>
</g>
<!-- Node3&#45;&gt;Node1 -->
<g id="edge2_Node000001_Node000003" class="edge">
<title>Node3&#45;&gt;Node1</title>
<g id="a_edge2_Node000001_Node000003"><a xlink:title=" ">
<path fill="none" stroke="#63b8ff" d="M132.5,-310.13C132.5,-260.21 132.5,-167.57 132.5,-108.86"/>
<polygon fill="none" stroke="#63b8ff" points="129,-310.05 132.5,-320.05 136,-310.05 129,-310.05"/>
</a>
</g>
</g>
<!-- Node4 -->
<g id="Node000004" class="node">
<title>Node4</title>
<g id="a_Node000004"><a xlink:href="class_n_audio_1_1_wave_1_1_wave_format.html" target="_top" xlink:title="Represents a Wave file format.">
<polygon fill="white" stroke="none" points="341,-535.25 192,-535.25 192,-156.25 341,-156.25 341,-535.25"/>
<text text-anchor="start" x="207.25" y="-521.75" font-family="Helvetica,sans-Serif" font-size="10.00">NAudio.Wave.WaveFormat</text>
<text text-anchor="start" x="196" y="-506.75" font-family="Helvetica,sans-Serif" font-size="10.00">+</text>
<text text-anchor="start" x="206" y="-506.75" font-family="Helvetica,sans-Serif" font-size="10.00">Encoding</text>
<text text-anchor="start" x="196" y="-491.75" font-family="Helvetica,sans-Serif" font-size="10.00">+</text>
<text text-anchor="start" x="206" y="-491.75" font-family="Helvetica,sans-Serif" font-size="10.00">Channels</text>
<text text-anchor="start" x="196" y="-476.75" font-family="Helvetica,sans-Serif" font-size="10.00">+</text>
<text text-anchor="start" x="206" y="-476.75" font-family="Helvetica,sans-Serif" font-size="10.00">SampleRate</text>
<text text-anchor="start" x="196" y="-461.75" font-family="Helvetica,sans-Serif" font-size="10.00">+</text>
<text text-anchor="start" x="206" y="-461.75" font-family="Helvetica,sans-Serif" font-size="10.00">AverageBytesPerSecond</text>
<text text-anchor="start" x="196" y="-446.75" font-family="Helvetica,sans-Serif" font-size="10.00">+</text>
<text text-anchor="start" x="206" y="-446.75" font-family="Helvetica,sans-Serif" font-size="10.00">BlockAlign</text>
<text text-anchor="start" x="196" y="-431.75" font-family="Helvetica,sans-Serif" font-size="10.00">+</text>
<text text-anchor="start" x="206" y="-431.75" font-family="Helvetica,sans-Serif" font-size="10.00">BitsPerSample</text>
<text text-anchor="start" x="196" y="-416.75" font-family="Helvetica,sans-Serif" font-size="10.00">+</text>
<text text-anchor="start" x="206" y="-416.75" font-family="Helvetica,sans-Serif" font-size="10.00">ExtraSize</text>
<text text-anchor="start" x="196" y="-401.75" font-family="Helvetica,sans-Serif" font-size="10.00">+</text>
<text text-anchor="start" x="206" y="-401.75" font-family="Helvetica,sans-Serif" font-size="10.00">WaveFormat()</text>
<text text-anchor="start" x="196" y="-386.75" font-family="Helvetica,sans-Serif" font-size="10.00">+</text>
<text text-anchor="start" x="206" y="-386.75" font-family="Helvetica,sans-Serif" font-size="10.00">WaveFormat()</text>
<text text-anchor="start" x="196" y="-371.75" font-family="Helvetica,sans-Serif" font-size="10.00">+</text>
<text text-anchor="start" x="206" y="-371.75" font-family="Helvetica,sans-Serif" font-size="10.00">ConvertLatencyToByteSize()</text>
<text text-anchor="start" x="196" y="-356.75" font-family="Helvetica,sans-Serif" font-size="10.00">+</text>
<text text-anchor="start" x="206" y="-356.75" font-family="Helvetica,sans-Serif" font-size="10.00">WaveFormat()</text>
<text text-anchor="start" x="196" y="-341.75" font-family="Helvetica,sans-Serif" font-size="10.00">+</text>
<text text-anchor="start" x="206" y="-341.75" font-family="Helvetica,sans-Serif" font-size="10.00">WaveFormat()</text>
<text text-anchor="start" x="196" y="-326.75" font-family="Helvetica,sans-Serif" font-size="10.00">+</text>
<text text-anchor="start" x="206" y="-326.75" font-family="Helvetica,sans-Serif" font-size="10.00">ToString()</text>
<text text-anchor="start" x="196" y="-311.75" font-family="Helvetica,sans-Serif" font-size="10.00">+</text>
<text text-anchor="start" x="206" y="-311.75" font-family="Helvetica,sans-Serif" font-size="10.00">Equals()</text>
<text text-anchor="start" x="196" y="-296.75" font-family="Helvetica,sans-Serif" font-size="10.00">+</text>
<text text-anchor="start" x="206" y="-296.75" font-family="Helvetica,sans-Serif" font-size="10.00">GetHashCode()</text>
<text text-anchor="start" x="196" y="-281.75" font-family="Helvetica,sans-Serif" font-size="10.00">+</text>
<text text-anchor="start" x="206" y="-281.75" font-family="Helvetica,sans-Serif" font-size="10.00">Serialize()</text>
<text text-anchor="start" x="196" y="-266.75" font-family="Helvetica,sans-Serif" font-size="10.00">+</text>
<text text-anchor="start" x="206" y="-266.75" font-family="Helvetica,sans-Serif" font-size="10.00">CreateCustomFormat()</text>
<text text-anchor="start" x="196" y="-251.75" font-family="Helvetica,sans-Serif" font-size="10.00">+</text>
<text text-anchor="start" x="206" y="-251.75" font-family="Helvetica,sans-Serif" font-size="10.00">CreateALawFormat()</text>
<text text-anchor="start" x="196" y="-236.75" font-family="Helvetica,sans-Serif" font-size="10.00">+</text>
<text text-anchor="start" x="206" y="-236.75" font-family="Helvetica,sans-Serif" font-size="10.00">CreateMuLawFormat()</text>
<text text-anchor="start" x="196" y="-221.75" font-family="Helvetica,sans-Serif" font-size="10.00">+</text>
<text text-anchor="start" x="206" y="-221.75" font-family="Helvetica,sans-Serif" font-size="10.00">CreateIeeeFloatWaveFormat()</text>
<text text-anchor="start" x="196" y="-206.75" font-family="Helvetica,sans-Serif" font-size="10.00">+</text>
<text text-anchor="start" x="206" y="-206.75" font-family="Helvetica,sans-Serif" font-size="10.00">MarshalFromPtr()</text>
<text text-anchor="start" x="196" y="-191.75" font-family="Helvetica,sans-Serif" font-size="10.00">+</text>
<text text-anchor="start" x="206" y="-191.75" font-family="Helvetica,sans-Serif" font-size="10.00">MarshalToPtr()</text>
<text text-anchor="start" x="196" y="-176.75" font-family="Helvetica,sans-Serif" font-size="10.00">+</text>
<text text-anchor="start" x="206" y="-176.75" font-family="Helvetica,sans-Serif" font-size="10.00">FromFormatChunk()</text>
<text text-anchor="start" x="197.5" y="-161.75" font-family="Helvetica,sans-Serif" font-size="10.00">&#45;</text>
<text text-anchor="start" x="206" y="-161.75" font-family="Helvetica,sans-Serif" font-size="10.00">ReadWaveFormat()</text>
<polygon fill="#666666" stroke="#666666" points="192,-518.25 192,-518.25 341,-518.25 341,-518.25 192,-518.25"/>
<polygon fill="#666666" stroke="#666666" points="192,-413.25 192,-413.25 204,-413.25 204,-413.25 192,-413.25"/>
<polygon fill="#666666" stroke="#666666" points="204,-413.25 204,-413.25 341,-413.25 341,-413.25 204,-413.25"/>
<polygon fill="none" stroke="#666666" points="192,-156.25 192,-535.25 341,-535.25 341,-156.25 192,-156.25"/>
</a>
</g>
</g>
<!-- Node4&#45;&gt;Node1 -->
<g id="edge3_Node000001_Node000004" class="edge">
<title>Node4&#45;&gt;Node1</title>
<g id="a_edge3_Node000001_Node000004"><a xlink:title=" ">
<path fill="none" stroke="#63b8ff" d="M192.09,-176.81C188.87,-169.85 185.67,-162.98 182.5,-156.25 177.04,-144.66 171.1,-132.39 165.27,-120.55"/>
<polygon fill="none" stroke="#63b8ff" points="165.23,-120.46 158.98,-116.85 159.91,-109.7 166.16,-113.31 165.23,-120.46"/>
</a>
</g>
<text text-anchor="middle" x="203.5" y="-128.75" font-family="Helvetica,sans-Serif" font-size="10.00" fill="grey"> &#45;waveFormat</text>
</g>
<!-- Node5 -->
<g id="Node000005" class="node">
<title>Node5</title>
<g id="a_Node000005"><a xlink:title=" ">
<polygon fill="white" stroke="none" points="218.5,-665.25 112.5,-665.25 112.5,-616.25 218.5,-616.25 218.5,-665.25"/>
<text text-anchor="start" x="117.5" y="-651.75" font-family="Helvetica,sans-Serif" font-size="10.00">WaveFormatEncoding</text>
<text text-anchor="start" x="164" y="-636.75" font-family="Helvetica,sans-Serif" font-size="10.00"> </text>
<text text-anchor="start" x="164" y="-621.75" font-family="Helvetica,sans-Serif" font-size="10.00"> </text>
<polygon fill="#666666" stroke="#666666" points="112.5,-648.25 112.5,-648.25 218.5,-648.25 218.5,-648.25 112.5,-648.25"/>
<polygon fill="#666666" stroke="#666666" points="112.5,-633.25 112.5,-633.25 218.5,-633.25 218.5,-633.25 112.5,-633.25"/>
<polygon fill="none" stroke="#666666" points="112.5,-616.25 112.5,-665.25 218.5,-665.25 218.5,-616.25 112.5,-616.25"/>
</a>
</g>
</g>
<!-- Node5&#45;&gt;Node4 -->
<g id="edge4_Node000004_Node000005" class="edge">
<title>Node5&#45;&gt;Node4</title>
<g id="a_edge4_Node000004_Node000005"><a xlink:title=" ">
<path fill="none" stroke="#63b8ff" d="M169.58,-616.36C172.89,-598.8 178.06,-574.27 184.5,-553.25 185.65,-549.5 186.84,-545.72 188.06,-541.92"/>
<polygon fill="none" stroke="#63b8ff" points="188.03,-541.99 186.11,-535.04 191.78,-530.58 193.71,-537.53 188.03,-541.99"/>
</a>
</g>
<text text-anchor="middle" x="223.5" y="-571.88" font-family="Helvetica,sans-Serif" font-size="10.00" fill="grey"> #waveFormatTag</text>
</g>
<!-- Node6 -->
<g id="Node000006" class="node">
<title>Node6</title>
<g id="a_Node000006"><a xlink:title=" ">
<polygon fill="white" stroke="none" points="282,-665.25 251,-665.25 251,-616.25 282,-616.25 282,-665.25"/>
<text text-anchor="start" x="255.62" y="-651.75" font-family="Helvetica,sans-Serif" font-size="10.00">short</text>
<text text-anchor="start" x="265" y="-636.75" font-family="Helvetica,sans-Serif" font-size="10.00"> </text>
<text text-anchor="start" x="265" y="-621.75" font-family="Helvetica,sans-Serif" font-size="10.00"> </text>
<polygon fill="#666666" stroke="#666666" points="251,-648.25 251,-648.25 282,-648.25 282,-648.25 251,-648.25"/>
<polygon fill="#666666" stroke="#666666" points="251,-633.25 251,-633.25 282,-633.25 282,-633.25 251,-633.25"/>
<polygon fill="none" stroke="#666666" points="251,-616.25 251,-665.25 282,-665.25 282,-616.25 251,-616.25"/>
</a>
</g>
</g>
<!-- Node6&#45;&gt;Node4 -->
<g id="edge5_Node000004_Node000006" class="edge">
<title>Node6&#45;&gt;Node4</title>
<g id="a_edge5_Node000004_Node000006"><a xlink:title=" ">
<path fill="none" stroke="#63b8ff" d="M266.5,-616.27C266.5,-599.49 266.5,-575.11 266.5,-547.77"/>
<polygon fill="none" stroke="#63b8ff" points="266.5,-547.92 262.5,-541.92 266.5,-535.92 270.5,-541.92 266.5,-547.92"/>
</a>
</g>
<text text-anchor="middle" x="302.5" y="-588.75" font-family="Helvetica,sans-Serif" font-size="10.00" fill="grey"> #bitsPerSample</text>
<text text-anchor="middle" x="302.5" y="-577.5" font-family="Helvetica,sans-Serif" font-size="10.00" fill="grey">#blockAlign</text>
<text text-anchor="middle" x="302.5" y="-566.25" font-family="Helvetica,sans-Serif" font-size="10.00" fill="grey">#channels</text>
<text text-anchor="middle" x="302.5" y="-555" font-family="Helvetica,sans-Serif" font-size="10.00" fill="grey">#extraSize</text>
</g>
<!-- Node7 -->
<g id="Node000007" class="node">
<title>Node7</title>
<g id="a_Node000007"><a xlink:title=" ">
<polygon fill="white" stroke="none" points="371.5,-665.25 351.5,-665.25 351.5,-616.25 371.5,-616.25 371.5,-665.25"/>
<text text-anchor="start" x="356.25" y="-651.75" font-family="Helvetica,sans-Serif" font-size="10.00">int</text>
<text text-anchor="start" x="360" y="-636.75" font-family="Helvetica,sans-Serif" font-size="10.00"> </text>
<text text-anchor="start" x="360" y="-621.75" font-family="Helvetica,sans-Serif" font-size="10.00"> </text>
<polygon fill="#666666" stroke="#666666" points="351.5,-648.25 351.5,-648.25 371.5,-648.25 371.5,-648.25 351.5,-648.25"/>
<polygon fill="#666666" stroke="#666666" points="351.5,-633.25 351.5,-633.25 371.5,-633.25 371.5,-633.25 351.5,-633.25"/>
<polygon fill="none" stroke="#666666" points="351.5,-616.25 351.5,-665.25 371.5,-665.25 371.5,-616.25 351.5,-616.25"/>
</a>
</g>
</g>
<!-- Node7&#45;&gt;Node4 -->
<g id="edge6_Node000004_Node000007" class="edge">
<title>Node7&#45;&gt;Node4</title>
<g id="a_edge6_Node000004_Node000007"><a xlink:title=" ">
<path fill="none" stroke="#63b8ff" d="M356.18,-616.46C352.04,-598.96 345.93,-574.45 339.5,-553.25 338.9,-551.28 338.3,-549.3 337.69,-547.31"/>
<polygon fill="none" stroke="#63b8ff" points="337.69,-547.34 332.09,-542.8 334.12,-535.88 339.72,-540.42 337.69,-547.34"/>
</a>
</g>
<text text-anchor="middle" x="409.62" y="-577.5" font-family="Helvetica,sans-Serif" font-size="10.00" fill="grey"> #averageBytesPerSecond</text>
<text text-anchor="middle" x="409.62" y="-566.25" font-family="Helvetica,sans-Serif" font-size="10.00" fill="grey">#sampleRate</text>
</g>
</g>
</svg>

<g id="navigator" transform="translate(0 0)" fill="#404254">
  <rect fill="#f2f5e9" fill-opacity="0.5" stroke="#606060" stroke-width=".5" x="0" y="0" width="60" height="60"/>
  <use id="zoomplus" xlink:href="#zoomPlus" x="17" y="9" onmousedown="handleZoom(evt,'in')"/>
  <use id="zoomminus" xlink:href="#zoomMin" x="42" y="9" onmousedown="handleZoom(evt,'out')"/>
  <use id="reset" xlink:href="#resetDef" x="30" y="36" onmousedown="handleReset()"/>
   <use id="arrowup" xlink:href="#arrowUp" x="0" y="0" onmousedown="handlePan(0,-1)"/>
  <use id="arrowright" xlink:href="#arrowRight" x="0" y="0" onmousedown="handlePan(1,0)"/>
  <use id="arrowdown" xlink:href="#arrowDown" x="0" y="0" onmousedown="handlePan(0,1)"/>
  <use id="arrowleft" xlink:href="#arrowLeft" x="0" y="0" onmousedown="handlePan(-1,0)"/>
</g>
<svg viewBox="0 0 15 15" width="100%" height="30px" preserveAspectRatio="xMaxYMin meet">
 <g id="arrow_out" transform="scale(0.3 0.3)">
  <a xlink:href="class_n_audio_1_1_wave_1_1_wave_provider32__coll__graph_org.svg" target="_base">
   <rect id="button" ry="5" rx="5" y="6" x="6" height="38" width="38"
        fill="#f2f5e9" fill-opacity="0.5" stroke="#606060" stroke-width="1.0"/>
   <path id="arrow"
     d="M 11.500037,31.436501 C 11.940474,20.09759 22.043105,11.32322 32.158766,21.979434 L 37.068811,17.246167 C 37.068811,17.246167 37.088388,32 37.088388,32 L 22.160133,31.978069 C 22.160133,31.978069 26.997745,27.140456 26.997745,27.140456 C 18.528582,18.264221 13.291696,25.230495 11.500037,31.436501 z"
     style="fill:#404040;"/>
  </a>
 </g>
</svg>

<style type='text/css'>
<![CDATA[
[data-mouse-over-selected='false'] { opacity: 0.7; }
[data-mouse-over-selected='true']  { opacity: 1.0; }
]]>
</style>
<script type="application/ecmascript"><![CDATA[
document.addEventListener('DOMContentLoaded', (event) => {
  highlightEdges();
  highlightAdjacentNodes();
});
]]></script>
</svg>
