<?xml version="1.0" encoding="UTF-8" standalone="no"?>
<!DOCTYPE svg PUBLIC "-//W3C//DTD SVG 1.1//EN"
 "http://www.w3.org/Graphics/SVG/1.1/DTD/svg11.dtd">
<!-- Generated by graphviz version 10.0.1 (20240210.2158)
 -->
<!-- Title: NAudio.Dmo.MediaObjectInPlace Pages: 1 -->
<svg width="140pt" height="228pt"
 viewBox="0.00 0.00 140.00 228.00" xmlns="http://www.w3.org/2000/svg" xmlns:xlink="http://www.w3.org/1999/xlink">
<g id="graph0" class="graph" transform="scale(1 1) rotate(0) translate(4 224)">
<title>NAudio.Dmo.MediaObjectInPlace</title>
<!-- Node1 -->
<g id="Node000001" class="node">
<title>Node1</title>
<g id="a_Node000001"><a xlink:title="Media Object InPlace.">
<polygon fill="#999999" stroke="none" points="132,-135 0,-135 0,0 132,0 132,-135"/>
<text text-anchor="start" x="4.88" y="-121.5" font-family="Helvetica,sans-Serif" font-size="10.00">NAudio.Dmo.MediaObjectIn</text>
<text text-anchor="start" x="53.62" y="-110.25" font-family="Helvetica,sans-Serif" font-size="10.00">Place</text>
<text text-anchor="start" x="10.5" y="-95.5" font-family="Helvetica,sans-Serif" font-size="10.00">&#45;</text>
<text text-anchor="start" x="24" y="-95.5" font-family="Helvetica,sans-Serif" font-size="10.00">mediaObjectInPlace</text>
<text text-anchor="start" x="9" y="-80.5" font-family="Helvetica,sans-Serif" font-size="10.00">+</text>
<text text-anchor="start" x="24" y="-80.5" font-family="Helvetica,sans-Serif" font-size="10.00">Process()</text>
<text text-anchor="start" x="9" y="-65.5" font-family="Helvetica,sans-Serif" font-size="10.00">+</text>
<text text-anchor="start" x="24" y="-65.5" font-family="Helvetica,sans-Serif" font-size="10.00">Clone()</text>
<text text-anchor="start" x="9" y="-50.5" font-family="Helvetica,sans-Serif" font-size="10.00">+</text>
<text text-anchor="start" x="24" y="-50.5" font-family="Helvetica,sans-Serif" font-size="10.00">GetLatency()</text>
<text text-anchor="start" x="9" y="-35.5" font-family="Helvetica,sans-Serif" font-size="10.00">+</text>
<text text-anchor="start" x="24" y="-35.5" font-family="Helvetica,sans-Serif" font-size="10.00">GetMediaObject()</text>
<text text-anchor="start" x="9" y="-20.5" font-family="Helvetica,sans-Serif" font-size="10.00">+</text>
<text text-anchor="start" x="24" y="-20.5" font-family="Helvetica,sans-Serif" font-size="10.00">Dispose()</text>
<text text-anchor="start" x="9" y="-5.5" font-family="Helvetica,sans-Serif" font-size="10.00">~</text>
<text text-anchor="start" x="24" y="-5.5" font-family="Helvetica,sans-Serif" font-size="10.00">MediaObjectInPlace()</text>
<polygon fill="#666666" stroke="#666666" points="0,-107 0,-107 132,-107 132,-107 0,-107"/>
<polygon fill="#666666" stroke="#666666" points="0,-92 0,-92 22,-92 22,-92 0,-92"/>
<polygon fill="#666666" stroke="#666666" points="22,-92 22,-92 132,-92 132,-92 22,-92"/>
<polygon fill="none" stroke="#666666" points="0,0 0,-135 132,-135 132,0 0,0"/>
</a>
</g>
</g>
<!-- Node2 -->
<g id="Node000002" class="node">
<title>Node2</title>
<g id="a_Node000002"><a xlink:href="class_i_disposable.html" target="_top" xlink:title=" ">
<polygon fill="white" stroke="none" points="96.5,-220 35.5,-220 35.5,-171 96.5,-171 96.5,-220"/>
<text text-anchor="start" x="40.12" y="-206.5" font-family="Helvetica,sans-Serif" font-size="10.00">IDisposable</text>
<text text-anchor="start" x="64.5" y="-191.5" font-family="Helvetica,sans-Serif" font-size="10.00"> </text>
<text text-anchor="start" x="64.5" y="-176.5" font-family="Helvetica,sans-Serif" font-size="10.00"> </text>
<polygon fill="#666666" stroke="#666666" points="35.5,-203 35.5,-203 96.5,-203 96.5,-203 35.5,-203"/>
<polygon fill="#666666" stroke="#666666" points="35.5,-188 35.5,-188 96.5,-188 96.5,-188 35.5,-188"/>
<polygon fill="none" stroke="#666666" points="35.5,-171 35.5,-220 96.5,-220 96.5,-171 35.5,-171"/>
</a>
</g>
</g>
<!-- Node2&#45;&gt;Node1 -->
<g id="edge1_Node000001_Node000002" class="edge">
<title>Node2&#45;&gt;Node1</title>
<g id="a_edge1_Node000001_Node000002"><a xlink:title=" ">
<path fill="none" stroke="#63b8ff" d="M66,-159.61C66,-151.88 66,-143.43 66,-134.9"/>
<polygon fill="none" stroke="#63b8ff" points="62.5,-159.58 66,-169.58 69.5,-159.58 62.5,-159.58"/>
</a>
</g>
</g>
</g>
</svg>
