<?xml version="1.0" encoding="UTF-8" standalone="no"?>
<!DOCTYPE svg PUBLIC "-//W3C//DTD SVG 1.1//EN"
 "http://www.w3.org/Graphics/SVG/1.1/DTD/svg11.dtd">
<!-- Generated by graphviz version 10.0.1 (20240210.2158)
 -->
<!-- Title: NAudio.CoreAudioApi.AudioMeterInformation Pages: 1 -->
<svg width="188pt" height="250pt"
 viewBox="0.00 0.00 187.75 250.25" xmlns="http://www.w3.org/2000/svg" xmlns:xlink="http://www.w3.org/1999/xlink">
<g id="graph0" class="graph" transform="scale(1 1) rotate(0) translate(4 246.25)">
<title>NAudio.CoreAudioApi.AudioMeterInformation</title>
<!-- Node1 -->
<g id="Node000001" class="node">
<title>Node1</title>
<g id="a_Node000001"><a xlink:title="Audio Meter Information.">
<polygon fill="#999999" stroke="none" points="143.5,-90 10.5,-90 10.5,0 143.5,0 143.5,-90"/>
<text text-anchor="start" x="15.5" y="-76.5" font-family="Helvetica,sans-Serif" font-size="10.00">NAudio.CoreAudioApi.Audio</text>
<text text-anchor="start" x="40.25" y="-65.25" font-family="Helvetica,sans-Serif" font-size="10.00">MeterInformation</text>
<text text-anchor="start" x="17" y="-50.5" font-family="Helvetica,sans-Serif" font-size="10.00">+</text>
<text text-anchor="start" x="29.5" y="-50.5" font-family="Helvetica,sans-Serif" font-size="10.00">PeakValues</text>
<text text-anchor="start" x="17" y="-35.5" font-family="Helvetica,sans-Serif" font-size="10.00">+</text>
<text text-anchor="start" x="29.5" y="-35.5" font-family="Helvetica,sans-Serif" font-size="10.00">HardwareSupport</text>
<text text-anchor="start" x="17" y="-20.5" font-family="Helvetica,sans-Serif" font-size="10.00">+</text>
<text text-anchor="start" x="29.5" y="-20.5" font-family="Helvetica,sans-Serif" font-size="10.00">MasterPeakValue</text>
<text text-anchor="start" x="17" y="-5.5" font-family="Helvetica,sans-Serif" font-size="10.00">~</text>
<text text-anchor="start" x="29.5" y="-5.5" font-family="Helvetica,sans-Serif" font-size="10.00">AudioMeterInformation()</text>
<polygon fill="#666666" stroke="#666666" points="10.5,-62 10.5,-62 143.5,-62 143.5,-62 10.5,-62"/>
<polygon fill="#666666" stroke="#666666" points="10.5,-17 10.5,-17 27.5,-17 27.5,-17 10.5,-17"/>
<polygon fill="#666666" stroke="#666666" points="27.5,-17 27.5,-17 143.5,-17 143.5,-17 27.5,-17"/>
<polygon fill="none" stroke="#666666" points="10.5,0 10.5,-90 143.5,-90 143.5,0 10.5,0"/>
</a>
</g>
</g>
<!-- Node2 -->
<g id="Node000002" class="node">
<title>Node2</title>
<g id="a_Node000002"><a xlink:title=" ">
<polygon fill="white" stroke="none" points="154,-242.25 0,-242.25 0,-137.25 154,-137.25 154,-242.25"/>
<text text-anchor="start" x="4.62" y="-228.75" font-family="Helvetica,sans-Serif" font-size="10.00">NAudio.CoreAudioApi.Interfaces.</text>
<text text-anchor="start" x="26.38" y="-217.5" font-family="Helvetica,sans-Serif" font-size="10.00">IAudioMeterInformation</text>
<text text-anchor="start" x="75.5" y="-202.75" font-family="Helvetica,sans-Serif" font-size="10.00"> </text>
<text text-anchor="start" x="7.5" y="-187.75" font-family="Helvetica,sans-Serif" font-size="10.00">+</text>
<text text-anchor="start" x="21" y="-187.75" font-family="Helvetica,sans-Serif" font-size="10.00">GetPeakValue()</text>
<text text-anchor="start" x="7.5" y="-172.75" font-family="Helvetica,sans-Serif" font-size="10.00">+</text>
<text text-anchor="start" x="21" y="-172.75" font-family="Helvetica,sans-Serif" font-size="10.00">GetMeteringChannelCount()</text>
<text text-anchor="start" x="7.5" y="-157.75" font-family="Helvetica,sans-Serif" font-size="10.00">+</text>
<text text-anchor="start" x="21" y="-157.75" font-family="Helvetica,sans-Serif" font-size="10.00">GetChannelsPeakValues()</text>
<text text-anchor="start" x="7.5" y="-142.75" font-family="Helvetica,sans-Serif" font-size="10.00">+</text>
<text text-anchor="start" x="21" y="-142.75" font-family="Helvetica,sans-Serif" font-size="10.00">QueryHardwareSupport()</text>
<polygon fill="#666666" stroke="#666666" points="0,-214.25 0,-214.25 154,-214.25 154,-214.25 0,-214.25"/>
<polygon fill="#666666" stroke="#666666" points="0,-199.25 0,-199.25 154,-199.25 154,-199.25 0,-199.25"/>
<polygon fill="none" stroke="#666666" points="0,-137.25 0,-242.25 154,-242.25 154,-137.25 0,-137.25"/>
</a>
</g>
</g>
<!-- Node2&#45;&gt;Node1 -->
<g id="edge1_Node000001_Node000002" class="edge">
<title>Node2&#45;&gt;Node1</title>
<g id="a_edge1_Node000001_Node000002"><a xlink:title=" ">
<path fill="none" stroke="#63b8ff" d="M77,-137.62C77,-126.22 77,-114.08 77,-102.49"/>
<polygon fill="none" stroke="#63b8ff" points="77,-102.6 73,-96.6 77,-90.6 81,-96.6 77,-102.6"/>
</a>
</g>
<text text-anchor="middle" x="128.38" y="-109.75" font-family="Helvetica,sans-Serif" font-size="10.00" fill="grey"> &#45;audioMeterInformation</text>
</g>
</g>
</svg>
