<?xml version="1.0" encoding="UTF-8" standalone="no"?>
<!DOCTYPE svg PUBLIC "-//W3C//DTD SVG 1.1//EN"
 "http://www.w3.org/Graphics/SVG/1.1/DTD/svg11.dtd">
<!-- Generated by graphviz version 10.0.1 (20240210.2158)
 -->
<!-- Title: NAudio.CoreAudioApi.MMDevice Pages: 1 -->
<!--zoomable 622 -->

<svg id="main" version="1.1" xmlns="http://www.w3.org/2000/svg" xmlns:xlink="http://www.w3.org/1999/xlink" xml:space="preserve" onload="init(evt)">
<style type="text/css"><![CDATA[
.node, .edge {opacity: 0.7;}
.node.selected, .edge.selected {opacity: 1;}
.edge:hover path { stroke: red; }
.edge:hover polygon { stroke: red; fill: red; }
]]></style>

<defs>
  <circle id="rim" cx="0" cy="0" r="7"/>
  <circle id="rim2" cx="0" cy="0" r="3.5"/>
  <g id="zoomPlus">
    <use xlink:href="#rim" fill="#404040"><set attributeName="fill" to="#808080" begin="zoomplus.mouseover" end="zoomplus.mouseout"/></use>
    <path d="M-4,0h8M0,-4v8" fill="none" stroke="white" stroke-width="1.5" pointer-events="none"/>
  </g>
  <g id="zoomMin">
    <use xlink:href="#rim" fill="#404040"><set attributeName="fill" to="#808080" begin="zoomminus.mouseover" end="zoomminus.mouseout"/></use>
    <path d="M-4,0h8" fill="none" stroke="white" stroke-width="1.5" pointer-events="none"/>
  </g>
  <g id="arrowUp" transform="translate(30 24)">
    <use xlink:href="#rim"/>
    <path pointer-events="none" fill="none" stroke="white" stroke-width="1.5" d="M0,-3.0v7 M-2.5,-0.5L0,-3.0L2.5,-0.5"/>
  </g>
  <g id="arrowRight" transform="rotate(90) translate(36 -43)">
    <use xlink:href="#rim"/>
    <path pointer-events="none" fill="none" stroke="white" stroke-width="1.5" d="M0,-3.0v7 M-2.5,-0.5L0,-3.0L2.5,-0.5"/>
  </g>
  <g id="arrowDown" transform="rotate(180) translate(-30 -48)">
    <use xlink:href="#rim"/>
    <path pointer-events="none" fill="none" stroke="white" stroke-width="1.5" d="M0,-3.0v7 M-2.5,-0.5L0,-3.0L2.5,-0.5"/>
  </g>
  <g id="arrowLeft" transform="rotate(270) translate(-36 17)">
    <use xlink:href="#rim"/>
    <path pointer-events="none" fill="none" stroke="white" stroke-width="1.5" d="M0,-3.0v7 M-2.5,-0.5L0,-3.0L2.5,-0.5"/>
  </g>
  <g id="resetDef">
    <use xlink:href="#rim2" fill="#404040"><set attributeName="fill" to="#808080" begin="reset.mouseover" end="reset.mouseout"/></use>
  </g>
</defs>
<script type="application/ecmascript">
var viewWidth = 163;
var viewHeight = 622;
var sectionId = 'dynsection-0';
</script>
<script type="application/ecmascript" xlink:href="svg.min.js"/>
<svg id="graph" class="graph">
<g id="viewport">
<title>NAudio.CoreAudioApi.MMDevice</title>
<!-- Node1 -->
<g id="Node000001" class="node">
<title>Node1</title>
<g id="a_Node000001"><a xlink:title="MM Device.">
<polygon fill="#999999" stroke="none" points="155,-529 0,-529 0,0 155,0 155,-529"/>
<text text-anchor="start" x="4.75" y="-515.5" font-family="Helvetica,sans-Serif" font-size="10.00">NAudio.CoreAudioApi.MMDevice</text>
<text text-anchor="start" x="7.5" y="-500.5" font-family="Helvetica,sans-Serif" font-size="10.00">+</text>
<text text-anchor="start" x="21" y="-500.5" font-family="Helvetica,sans-Serif" font-size="10.00">AudioClient</text>
<text text-anchor="start" x="7.5" y="-485.5" font-family="Helvetica,sans-Serif" font-size="10.00">+</text>
<text text-anchor="start" x="21" y="-485.5" font-family="Helvetica,sans-Serif" font-size="10.00">AudioMeterInformation</text>
<text text-anchor="start" x="7.5" y="-470.5" font-family="Helvetica,sans-Serif" font-size="10.00">+</text>
<text text-anchor="start" x="21" y="-470.5" font-family="Helvetica,sans-Serif" font-size="10.00">AudioEndpointVolume</text>
<text text-anchor="start" x="7.5" y="-455.5" font-family="Helvetica,sans-Serif" font-size="10.00">+</text>
<text text-anchor="start" x="21" y="-455.5" font-family="Helvetica,sans-Serif" font-size="10.00">AudioSessionManager</text>
<text text-anchor="start" x="7.5" y="-440.5" font-family="Helvetica,sans-Serif" font-size="10.00">+</text>
<text text-anchor="start" x="21" y="-440.5" font-family="Helvetica,sans-Serif" font-size="10.00">DeviceTopology</text>
<text text-anchor="start" x="7.5" y="-425.5" font-family="Helvetica,sans-Serif" font-size="10.00">+</text>
<text text-anchor="start" x="21" y="-425.5" font-family="Helvetica,sans-Serif" font-size="10.00">Properties</text>
<text text-anchor="start" x="7.5" y="-410.5" font-family="Helvetica,sans-Serif" font-size="10.00">+</text>
<text text-anchor="start" x="21" y="-410.5" font-family="Helvetica,sans-Serif" font-size="10.00">FriendlyName</text>
<text text-anchor="start" x="7.5" y="-395.5" font-family="Helvetica,sans-Serif" font-size="10.00">+</text>
<text text-anchor="start" x="21" y="-395.5" font-family="Helvetica,sans-Serif" font-size="10.00">DeviceFriendlyName</text>
<text text-anchor="start" x="7.5" y="-380.5" font-family="Helvetica,sans-Serif" font-size="10.00">+</text>
<text text-anchor="start" x="21" y="-380.5" font-family="Helvetica,sans-Serif" font-size="10.00">IconPath</text>
<text text-anchor="start" x="7.5" y="-365.5" font-family="Helvetica,sans-Serif" font-size="10.00">+</text>
<text text-anchor="start" x="21" y="-365.5" font-family="Helvetica,sans-Serif" font-size="10.00">InstanceId</text>
<text text-anchor="start" x="7.5" y="-350.5" font-family="Helvetica,sans-Serif" font-size="10.00">+</text>
<text text-anchor="start" x="21" y="-350.5" font-family="Helvetica,sans-Serif" font-size="10.00">ID</text>
<text text-anchor="start" x="7.5" y="-335.5" font-family="Helvetica,sans-Serif" font-size="10.00">+</text>
<text text-anchor="start" x="21" y="-335.5" font-family="Helvetica,sans-Serif" font-size="10.00">DataFlow</text>
<text text-anchor="start" x="7.5" y="-320.5" font-family="Helvetica,sans-Serif" font-size="10.00">+</text>
<text text-anchor="start" x="21" y="-320.5" font-family="Helvetica,sans-Serif" font-size="10.00">State</text>
<text text-anchor="start" x="9" y="-305.5" font-family="Helvetica,sans-Serif" font-size="10.00">&#45;</text>
<text text-anchor="start" x="21" y="-305.5" font-family="Helvetica,sans-Serif" font-size="10.00">deviceInterface</text>
<text text-anchor="start" x="9" y="-290.5" font-family="Helvetica,sans-Serif" font-size="10.00">&#45;</text>
<text text-anchor="start" x="21" y="-290.5" font-family="Helvetica,sans-Serif" font-size="10.00">propertyStore</text>
<text text-anchor="start" x="9" y="-275.5" font-family="Helvetica,sans-Serif" font-size="10.00">&#45;</text>
<text text-anchor="start" x="21" y="-275.5" font-family="Helvetica,sans-Serif" font-size="10.00">audioMeterInformation</text>
<text text-anchor="start" x="9" y="-260.5" font-family="Helvetica,sans-Serif" font-size="10.00">&#45;</text>
<text text-anchor="start" x="21" y="-260.5" font-family="Helvetica,sans-Serif" font-size="10.00">audioEndpointVolume</text>
<text text-anchor="start" x="9" y="-245.5" font-family="Helvetica,sans-Serif" font-size="10.00">&#45;</text>
<text text-anchor="start" x="21" y="-245.5" font-family="Helvetica,sans-Serif" font-size="10.00">audioSessionManager</text>
<text text-anchor="start" x="9" y="-230.5" font-family="Helvetica,sans-Serif" font-size="10.00">&#45;</text>
<text text-anchor="start" x="21" y="-230.5" font-family="Helvetica,sans-Serif" font-size="10.00">deviceTopology</text>
<text text-anchor="start" x="9" y="-215.5" font-family="Helvetica,sans-Serif" font-size="10.00">&#45;</text>
<text text-anchor="start" x="21" y="-215.5" font-family="Helvetica,sans-Serif" font-size="10.00">IID_IAudioMeterInformation</text>
<text text-anchor="start" x="9" y="-200.5" font-family="Helvetica,sans-Serif" font-size="10.00">&#45;</text>
<text text-anchor="start" x="21" y="-200.5" font-family="Helvetica,sans-Serif" font-size="10.00">IID_IAudioEndpointVolume</text>
<text text-anchor="start" x="9" y="-185.5" font-family="Helvetica,sans-Serif" font-size="10.00">&#45;</text>
<text text-anchor="start" x="21" y="-185.5" font-family="Helvetica,sans-Serif" font-size="10.00">IID_IAudioClient</text>
<text text-anchor="start" x="9" y="-170.5" font-family="Helvetica,sans-Serif" font-size="10.00">&#45;</text>
<text text-anchor="start" x="21" y="-170.5" font-family="Helvetica,sans-Serif" font-size="10.00">IDD_IAudioSessionManager</text>
<text text-anchor="start" x="9" y="-155.5" font-family="Helvetica,sans-Serif" font-size="10.00">&#45;</text>
<text text-anchor="start" x="21" y="-155.5" font-family="Helvetica,sans-Serif" font-size="10.00">IDD_IDeviceTopology</text>
<text text-anchor="start" x="7.5" y="-140.5" font-family="Helvetica,sans-Serif" font-size="10.00">+</text>
<text text-anchor="start" x="21" y="-140.5" font-family="Helvetica,sans-Serif" font-size="10.00">GetPropertyInformation()</text>
<text text-anchor="start" x="7.5" y="-125.5" font-family="Helvetica,sans-Serif" font-size="10.00">+</text>
<text text-anchor="start" x="21" y="-125.5" font-family="Helvetica,sans-Serif" font-size="10.00">ToString()</text>
<text text-anchor="start" x="7.5" y="-110.5" font-family="Helvetica,sans-Serif" font-size="10.00">+</text>
<text text-anchor="start" x="21" y="-110.5" font-family="Helvetica,sans-Serif" font-size="10.00">Dispose()</text>
<text text-anchor="start" x="7.5" y="-95.5" font-family="Helvetica,sans-Serif" font-size="10.00">~</text>
<text text-anchor="start" x="21" y="-95.5" font-family="Helvetica,sans-Serif" font-size="10.00">MMDevice()</text>
<text text-anchor="start" x="9" y="-80.5" font-family="Helvetica,sans-Serif" font-size="10.00">&#45;</text>
<text text-anchor="start" x="21" y="-80.5" font-family="Helvetica,sans-Serif" font-size="10.00">GetAudioClient()</text>
<text text-anchor="start" x="9" y="-65.5" font-family="Helvetica,sans-Serif" font-size="10.00">&#45;</text>
<text text-anchor="start" x="21" y="-65.5" font-family="Helvetica,sans-Serif" font-size="10.00">GetAudioMeterInformation()</text>
<text text-anchor="start" x="9" y="-50.5" font-family="Helvetica,sans-Serif" font-size="10.00">&#45;</text>
<text text-anchor="start" x="21" y="-50.5" font-family="Helvetica,sans-Serif" font-size="10.00">GetAudioEndpointVolume()</text>
<text text-anchor="start" x="9" y="-35.5" font-family="Helvetica,sans-Serif" font-size="10.00">&#45;</text>
<text text-anchor="start" x="21" y="-35.5" font-family="Helvetica,sans-Serif" font-size="10.00">GetAudioSessionManager()</text>
<text text-anchor="start" x="9" y="-20.5" font-family="Helvetica,sans-Serif" font-size="10.00">&#45;</text>
<text text-anchor="start" x="21" y="-20.5" font-family="Helvetica,sans-Serif" font-size="10.00">GetDeviceTopology()</text>
<text text-anchor="start" x="9" y="-5.5" font-family="Helvetica,sans-Serif" font-size="10.00">&#45;</text>
<text text-anchor="start" x="21" y="-5.5" font-family="Helvetica,sans-Serif" font-size="10.00">~MMDevice()</text>
<polygon fill="#666666" stroke="#666666" points="0,-512 0,-512 155,-512 155,-512 0,-512"/>
<polygon fill="#666666" stroke="#666666" points="0,-152 0,-152 19,-152 19,-152 0,-152"/>
<polygon fill="#666666" stroke="#666666" points="19,-152 19,-152 155,-152 155,-152 19,-152"/>
<polygon fill="none" stroke="#666666" points="0,0 0,-529 155,-529 155,0 0,0"/>
</a>
</g>
</g>
<!-- Node2 -->
<g id="Node000002" class="node">
<title>Node2</title>
<g id="a_Node000002"><a xlink:href="class_i_disposable.html" target="_top" xlink:title=" ">
<polygon fill="white" stroke="none" points="108,-614 47,-614 47,-565 108,-565 108,-614"/>
<text text-anchor="start" x="51.62" y="-600.5" font-family="Helvetica,sans-Serif" font-size="10.00">IDisposable</text>
<text text-anchor="start" x="76" y="-585.5" font-family="Helvetica,sans-Serif" font-size="10.00"> </text>
<text text-anchor="start" x="76" y="-570.5" font-family="Helvetica,sans-Serif" font-size="10.00"> </text>
<polygon fill="#666666" stroke="#666666" points="47,-597 47,-597 108,-597 108,-597 47,-597"/>
<polygon fill="#666666" stroke="#666666" points="47,-582 47,-582 108,-582 108,-582 47,-582"/>
<polygon fill="none" stroke="#666666" points="47,-565 47,-614 108,-614 108,-565 47,-565"/>
</a>
</g>
</g>
<!-- Node2&#45;&gt;Node1 -->
<g id="edge1_Node000001_Node000002" class="edge">
<title>Node2&#45;&gt;Node1</title>
<g id="a_edge1_Node000001_Node000002"><a xlink:title=" ">
<path fill="none" stroke="#63b8ff" d="M77.5,-553.56C77.5,-546.21 77.5,-537.92 77.5,-528.92"/>
<polygon fill="none" stroke="#63b8ff" points="74,-553.5 77.5,-563.5 81,-553.5 74,-553.5"/>
</a>
</g>
</g>
</g>
</svg>

<g id="navigator" transform="translate(0 0)" fill="#404254">
  <rect fill="#f2f5e9" fill-opacity="0.5" stroke="#606060" stroke-width=".5" x="0" y="0" width="60" height="60"/>
  <use id="zoomplus" xlink:href="#zoomPlus" x="17" y="9" onmousedown="handleZoom(evt,'in')"/>
  <use id="zoomminus" xlink:href="#zoomMin" x="42" y="9" onmousedown="handleZoom(evt,'out')"/>
  <use id="reset" xlink:href="#resetDef" x="30" y="36" onmousedown="handleReset()"/>
   <use id="arrowup" xlink:href="#arrowUp" x="0" y="0" onmousedown="handlePan(0,-1)"/>
  <use id="arrowright" xlink:href="#arrowRight" x="0" y="0" onmousedown="handlePan(1,0)"/>
  <use id="arrowdown" xlink:href="#arrowDown" x="0" y="0" onmousedown="handlePan(0,1)"/>
  <use id="arrowleft" xlink:href="#arrowLeft" x="0" y="0" onmousedown="handlePan(-1,0)"/>
</g>
<svg viewBox="0 0 15 15" width="100%" height="30px" preserveAspectRatio="xMaxYMin meet">
 <g id="arrow_out" transform="scale(0.3 0.3)">
  <a xlink:href="class_n_audio_1_1_core_audio_api_1_1_m_m_device__inherit__graph_org.svg" target="_base">
   <rect id="button" ry="5" rx="5" y="6" x="6" height="38" width="38"
        fill="#f2f5e9" fill-opacity="0.5" stroke="#606060" stroke-width="1.0"/>
   <path id="arrow"
     d="M 11.500037,31.436501 C 11.940474,20.09759 22.043105,11.32322 32.158766,21.979434 L 37.068811,17.246167 C 37.068811,17.246167 37.088388,32 37.088388,32 L 22.160133,31.978069 C 22.160133,31.978069 26.997745,27.140456 26.997745,27.140456 C 18.528582,18.264221 13.291696,25.230495 11.500037,31.436501 z"
     style="fill:#404040;"/>
  </a>
 </g>
</svg>

<style type='text/css'>
<![CDATA[
[data-mouse-over-selected='false'] { opacity: 0.7; }
[data-mouse-over-selected='true']  { opacity: 1.0; }
]]>
</style>
<script type="application/ecmascript"><![CDATA[
document.addEventListener('DOMContentLoaded', (event) => {
  highlightEdges();
  highlightAdjacentNodes();
});
]]></script>
</svg>
