<?xml version="1.0" encoding="UTF-8" standalone="no"?>
<!DOCTYPE svg PUBLIC "-//W3C//DTD SVG 1.1//EN"
 "http://www.w3.org/Graphics/SVG/1.1/DTD/svg11.dtd">
<!-- Generated by graphviz version 10.0.1 (20240210.2158)
 -->
<!-- Title: NAudio.CoreAudioApi.MMDevice.~MMDevice Pages: 1 -->
<svg width="775pt" height="88pt"
 viewBox="0.00 0.00 774.75 87.50" xmlns="http://www.w3.org/2000/svg" xmlns:xlink="http://www.w3.org/1999/xlink">
<g id="graph0" class="graph" transform="scale(1 1) rotate(0) translate(4 83.5)">
<title>NAudio.CoreAudioApi.MMDevice.~MMDevice</title>
<!-- Node1 -->
<g id="Node000001" class="node">
<title>Node1</title>
<g id="a_Node000001"><a xlink:title="Finalizer.">
<polygon fill="#999999" stroke="#666666" points="164.5,-54.5 0,-54.5 0,-24 164.5,-24 164.5,-54.5"/>
<text text-anchor="start" x="8" y="-41" font-family="Helvetica,sans-Serif" font-size="10.00">NAudio.CoreAudioApi.MMDevice.</text>
<text text-anchor="middle" x="82.25" y="-29.75" font-family="Helvetica,sans-Serif" font-size="10.00">~MMDevice</text>
</a>
</g>
</g>
<!-- Node2 -->
<g id="Node000002" class="node">
<title>Node2</title>
<g id="a_Node000002"><a xlink:href="class_n_audio_1_1_core_audio_api_1_1_m_m_device.html#ac05387903a1ee66c2f48e646da582df1" target="_top" xlink:title="Performs application&#45;defined tasks associated with freeing, releasing, or resetting unmanaged resourc...">
<polygon fill="white" stroke="#666666" points="365,-54.5 200.5,-54.5 200.5,-24 365,-24 365,-54.5"/>
<text text-anchor="start" x="208.5" y="-41" font-family="Helvetica,sans-Serif" font-size="10.00">NAudio.CoreAudioApi.MMDevice.</text>
<text text-anchor="middle" x="282.75" y="-29.75" font-family="Helvetica,sans-Serif" font-size="10.00">Dispose</text>
</a>
</g>
</g>
<!-- Node1&#45;&gt;Node2 -->
<g id="edge1_Node000001_Node000002" class="edge">
<title>Node1&#45;&gt;Node2</title>
<g id="a_edge1_Node000001_Node000002"><a xlink:title=" ">
<path fill="none" stroke="#63b8ff" d="M164.85,-39.25C172.77,-39.25 180.85,-39.25 188.87,-39.25"/>
<polygon fill="#63b8ff" stroke="#63b8ff" points="188.64,-42.75 198.64,-39.25 188.64,-35.75 188.64,-42.75"/>
</a>
</g>
</g>
<!-- Node3 -->
<g id="Node000003" class="node">
<title>Node3</title>
<g id="a_Node000003"><a xlink:href="class_n_audio_1_1_core_audio_api_1_1_audio_endpoint_volume.html#abbf08880fde3f2f0eb30bd8b7b5aab32" target="_top" xlink:title="Performs application&#45;defined tasks associated with freeing, releasing, or resetting unmanaged resourc...">
<polygon fill="white" stroke="#666666" points="540,-79.5 401,-79.5 401,-49 540,-49 540,-79.5"/>
<text text-anchor="start" x="409" y="-66" font-family="Helvetica,sans-Serif" font-size="10.00">NAudio.CoreAudioApi.Audio</text>
<text text-anchor="middle" x="470.5" y="-54.75" font-family="Helvetica,sans-Serif" font-size="10.00">EndpointVolume.Dispose</text>
</a>
</g>
</g>
<!-- Node2&#45;&gt;Node3 -->
<g id="edge2_Node000002_Node000003" class="edge">
<title>Node2&#45;&gt;Node3</title>
<g id="a_edge2_Node000002_Node000003"><a xlink:title=" ">
<path fill="none" stroke="#63b8ff" d="M365.49,-50.25C373.5,-51.33 381.61,-52.42 389.6,-53.5"/>
<polygon fill="#63b8ff" stroke="#63b8ff" points="388.9,-56.93 399.28,-54.8 389.84,-50 388.9,-56.93"/>
</a>
</g>
</g>
<!-- Node4 -->
<g id="Node000004" class="node">
<title>Node4</title>
<g id="a_Node000004"><a xlink:href="class_n_audio_1_1_core_audio_api_1_1_audio_session_manager.html#abffe8651b4e968b2e301b3db07cadc8f" target="_top" xlink:title="Performs application&#45;defined tasks associated with freeing, releasing, or resetting unmanaged resourc...">
<polygon fill="white" stroke="#666666" points="540,-30.5 401,-30.5 401,0 540,0 540,-30.5"/>
<text text-anchor="start" x="409" y="-17" font-family="Helvetica,sans-Serif" font-size="10.00">NAudio.CoreAudioApi.Audio</text>
<text text-anchor="middle" x="470.5" y="-5.75" font-family="Helvetica,sans-Serif" font-size="10.00">SessionManager.Dispose</text>
</a>
</g>
</g>
<!-- Node2&#45;&gt;Node4 -->
<g id="edge3_Node000002_Node000004" class="edge">
<title>Node2&#45;&gt;Node4</title>
<g id="a_edge3_Node000002_Node000004"><a xlink:title=" ">
<path fill="none" stroke="#63b8ff" d="M365.49,-28.69C373.5,-27.65 381.61,-26.61 389.6,-25.57"/>
<polygon fill="#63b8ff" stroke="#63b8ff" points="389.81,-29.08 399.28,-24.32 388.91,-22.13 389.81,-29.08"/>
</a>
</g>
</g>
<!-- Node5 -->
<g id="Node000005" class="node">
<title>Node5</title>
<g id="a_Node000005"><a xlink:href="class_n_audio_1_1_core_audio_api_1_1_audio_session_manager.html#ad6aa53b32989f2761edc48b0d43b131d" target="_top" xlink:title="Unregisters the notifications for audio sessions and sets the sessions to null.">
<polygon fill="white" stroke="#666666" points="766.75,-30.5 576,-30.5 576,0 766.75,0 766.75,-30.5"/>
<text text-anchor="start" x="584" y="-17" font-family="Helvetica,sans-Serif" font-size="10.00">NAudio.CoreAudioApi.Audio</text>
<text text-anchor="middle" x="671.38" y="-5.75" font-family="Helvetica,sans-Serif" font-size="10.00">SessionManager.UnregisterNotifications</text>
</a>
</g>
</g>
<!-- Node4&#45;&gt;Node5 -->
<g id="edge4_Node000004_Node000005" class="edge">
<title>Node4&#45;&gt;Node5</title>
<g id="a_edge4_Node000004_Node000005"><a xlink:title=" ">
<path fill="none" stroke="#63b8ff" d="M540.5,-15.25C548.2,-15.25 556.17,-15.25 564.2,-15.25"/>
<polygon fill="#63b8ff" stroke="#63b8ff" points="564.06,-18.75 574.06,-15.25 564.06,-11.75 564.06,-18.75"/>
</a>
</g>
</g>
</g>
</svg>
