<?xml version="1.0" encoding="UTF-8" standalone="no"?>
<!DOCTYPE svg PUBLIC "-//W3C//DTD SVG 1.1//EN"
 "http://www.w3.org/Graphics/SVG/1.1/DTD/svg11.dtd">
<!-- Generated by graphviz version 10.0.1 (20240210.2158)
 -->
<!-- Title: NAudio.SoundFont.Zone Pages: 1 -->
<svg width="142pt" height="202pt"
 viewBox="0.00 0.00 142.25 202.00" xmlns="http://www.w3.org/2000/svg" xmlns:xlink="http://www.w3.org/1999/xlink">
<g id="graph0" class="graph" transform="scale(1 1) rotate(0) translate(4 198)">
<title>NAudio.SoundFont.Zone</title>
<!-- Node1 -->
<g id="Node000001" class="node">
<title>Node1</title>
<g id="a_Node000001"><a xlink:title="A SoundFont zone.">
<polygon fill="#999999" stroke="none" points="117,-64 0,-64 0,0 117,0 117,-64"/>
<text text-anchor="start" x="4.88" y="-50.5" font-family="Helvetica,sans-Serif" font-size="10.00">NAudio.SoundFont.Zone</text>
<text text-anchor="start" x="16.5" y="-35.5" font-family="Helvetica,sans-Serif" font-size="10.00">+</text>
<text text-anchor="start" x="39" y="-35.5" font-family="Helvetica,sans-Serif" font-size="10.00">Modulators</text>
<text text-anchor="start" x="16.5" y="-20.5" font-family="Helvetica,sans-Serif" font-size="10.00">+</text>
<text text-anchor="start" x="39" y="-20.5" font-family="Helvetica,sans-Serif" font-size="10.00">Generators</text>
<text text-anchor="start" x="16.5" y="-5.5" font-family="Helvetica,sans-Serif" font-size="10.00">+</text>
<text text-anchor="start" x="39" y="-5.5" font-family="Helvetica,sans-Serif" font-size="10.00">ToString()</text>
<polygon fill="#666666" stroke="#666666" points="0,-47 0,-47 117,-47 117,-47 0,-47"/>
<polygon fill="#666666" stroke="#666666" points="0,-17 0,-17 37,-17 37,-17 0,-17"/>
<polygon fill="#666666" stroke="#666666" points="37,-17 37,-17 117,-17 117,-17 37,-17"/>
<polygon fill="none" stroke="#666666" points="0,0 0,-64 117,-64 117,0 0,0"/>
</a>
</g>
</g>
<!-- Node2 -->
<g id="Node000002" class="node">
<title>Node2</title>
<g id="a_Node000002"><a xlink:title=" ">
<polygon fill="white" stroke="none" points="77,-194 40,-194 40,-145 77,-145 77,-194"/>
<text text-anchor="start" x="45" y="-180.5" font-family="Helvetica,sans-Serif" font-size="10.00">ushort</text>
<text text-anchor="start" x="57" y="-165.5" font-family="Helvetica,sans-Serif" font-size="10.00"> </text>
<text text-anchor="start" x="57" y="-150.5" font-family="Helvetica,sans-Serif" font-size="10.00"> </text>
<polygon fill="#666666" stroke="#666666" points="40,-177 40,-177 77,-177 77,-177 40,-177"/>
<polygon fill="#666666" stroke="#666666" points="40,-162 40,-162 77,-162 77,-162 40,-162"/>
<polygon fill="none" stroke="#666666" points="40,-145 40,-194 77,-194 77,-145 40,-145"/>
</a>
</g>
</g>
<!-- Node2&#45;&gt;Node1 -->
<g id="edge1_Node000001_Node000002" class="edge">
<title>Node2&#45;&gt;Node1</title>
<g id="a_edge1_Node000001_Node000002"><a xlink:title=" ">
<path fill="none" stroke="#63b8ff" d="M58.5,-145.21C58.5,-126.36 58.5,-99.29 58.5,-76.46"/>
<polygon fill="none" stroke="#63b8ff" points="58.5,-76.5 54.5,-70.5 58.5,-64.5 62.5,-70.5 58.5,-76.5"/>
</a>
</g>
<text text-anchor="middle" x="96.38" y="-117.5" font-family="Helvetica,sans-Serif" font-size="10.00" fill="grey"> ~generatorCount</text>
<text text-anchor="middle" x="96.38" y="-106.25" font-family="Helvetica,sans-Serif" font-size="10.00" fill="grey">~generatorIndex</text>
<text text-anchor="middle" x="96.38" y="-95" font-family="Helvetica,sans-Serif" font-size="10.00" fill="grey">~modulatorCount</text>
<text text-anchor="middle" x="96.38" y="-83.75" font-family="Helvetica,sans-Serif" font-size="10.00" fill="grey">~modulatorIndex</text>
</g>
</g>
</svg>
