<?xml version="1.0" encoding="UTF-8" standalone="no"?>
<!DOCTYPE svg PUBLIC "-//W3C//DTD SVG 1.1//EN"
 "http://www.w3.org/Graphics/SVG/1.1/DTD/svg11.dtd">
<!-- Generated by graphviz version 10.0.1 (20240210.2158)
 -->
<!-- Title: Graphical Class Hierarchy Pages: 1 -->
<svg width="359pt" height="359pt"
 viewBox="0.00 0.00 358.75 358.88" xmlns="http://www.w3.org/2000/svg" xmlns:xlink="http://www.w3.org/1999/xlink">
<g id="graph0" class="graph" transform="scale(1 1) rotate(0) translate(4 354.88)">
<title>Graphical Class Hierarchy</title>
<!-- Node0 -->
<g id="Node000000" class="node">
<title>Node0</title>
<g id="a_Node000000"><a xlink:href="class_n_audio_1_1_wave_1_1_wave_format.html" target="_top" xlink:title="Represents a Wave file format.">
<polygon fill="white" stroke="#666666" points="134.5,-190.88 0,-190.88 0,-171.62 134.5,-171.62 134.5,-190.88"/>
<text text-anchor="middle" x="67.25" y="-177.38" font-family="Helvetica,sans-Serif" font-size="10.00">NAudio.Wave.WaveFormat</text>
</a>
</g>
</g>
<!-- Node1 -->
<g id="Node000001" class="node">
<title>Node1</title>
<g id="a_Node000001"><a xlink:href="class_n_audio_1_1_wave_1_1_adpcm_wave_format.html" target="_top" xlink:title="Microsoft ADPCM See http://icculus.org/SDL_sound/downloads/external_documentation/wavecomp....">
<polygon fill="white" stroke="#666666" points="343.25,-350.88 178,-350.88 178,-331.62 343.25,-331.62 343.25,-350.88"/>
<text text-anchor="middle" x="260.62" y="-337.38" font-family="Helvetica,sans-Serif" font-size="10.00">NAudio.Wave.AdpcmWaveFormat</text>
</a>
</g>
</g>
<!-- Node0&#45;&gt;Node1 -->
<g id="edge210_Node000000_Node000001" class="edge">
<title>Node0&#45;&gt;Node1</title>
<g id="a_edge210_Node000000_Node000001"><a xlink:title=" ">
<path fill="none" stroke="#63b8ff" d="M76.73,-201.25C91.13,-232.61 123.44,-292.89 170.5,-323.25 175.41,-326.42 180.76,-329.04 186.32,-331.22"/>
<polygon fill="#63b8ff" stroke="#63b8ff" points="80.11,-200.23 72.86,-192.5 73.71,-203.06 80.11,-200.23"/>
</a>
</g>
</g>
<!-- Node2 -->
<g id="Node000002" class="node">
<title>Node2</title>
<g id="a_Node000002"><a xlink:href="class_n_audio_1_1_wave_1_1_gsm610_wave_format.html" target="_top" xlink:title="GSM 610.">
<polygon fill="white" stroke="#666666" points="346.25,-313.88 175,-313.88 175,-294.62 346.25,-294.62 346.25,-313.88"/>
<text text-anchor="middle" x="260.62" y="-300.38" font-family="Helvetica,sans-Serif" font-size="10.00">NAudio.Wave.Gsm610WaveFormat</text>
</a>
</g>
</g>
<!-- Node0&#45;&gt;Node2 -->
<g id="edge211_Node000000_Node000002" class="edge">
<title>Node0&#45;&gt;Node2</title>
<g id="a_edge211_Node000000_Node000002"><a xlink:title=" ">
<path fill="none" stroke="#63b8ff" d="M81.34,-200.21C98.81,-223.97 132.04,-264.14 170.5,-285.25 177.16,-288.9 184.45,-291.86 191.91,-294.24"/>
<polygon fill="#63b8ff" stroke="#63b8ff" points="84.39,-198.46 75.73,-192.36 78.7,-202.53 84.39,-198.46"/>
</a>
</g>
</g>
<!-- Node3 -->
<g id="Node000003" class="node">
<title>Node3</title>
<g id="a_Node000003"><a xlink:href="class_n_audio_1_1_wave_1_1_ima_adpcm_wave_format.html" target="_top" xlink:title="IMA/DVI ADPCM Wave Format Work in progress.">
<polygon fill="white" stroke="#666666" points="336.12,-276.5 185.12,-276.5 185.12,-246 336.12,-246 336.12,-276.5"/>
<text text-anchor="start" x="193.12" y="-263" font-family="Helvetica,sans-Serif" font-size="10.00">NAudio.Wave.ImaAdpcmWave</text>
<text text-anchor="middle" x="260.62" y="-251.75" font-family="Helvetica,sans-Serif" font-size="10.00">Format</text>
</a>
</g>
</g>
<!-- Node0&#45;&gt;Node3 -->
<g id="edge212_Node000000_Node000003" class="edge">
<title>Node0&#45;&gt;Node3</title>
<g id="a_edge212_Node000000_Node000003"><a xlink:title=" ">
<path fill="none" stroke="#63b8ff" d="M93.28,-197.16C113.49,-209.46 142.99,-226.2 170.5,-237.25 178.08,-240.3 186.18,-243.08 194.29,-245.59"/>
<polygon fill="#63b8ff" stroke="#63b8ff" points="95.25,-194.27 84.91,-191.98 91.57,-200.22 95.25,-194.27"/>
</a>
</g>
</g>
<!-- Node4 -->
<g id="Node000004" class="node">
<title>Node4</title>
<g id="a_Node000004"><a xlink:href="class_n_audio_1_1_wave_1_1_mp3_wave_format.html" target="_top" xlink:title="MP3 WaveFormat, MPEGLAYER3WAVEFORMAT from mmreg.h.">
<polygon fill="white" stroke="#666666" points="337.25,-227.88 184,-227.88 184,-208.62 337.25,-208.62 337.25,-227.88"/>
<text text-anchor="middle" x="260.62" y="-214.38" font-family="Helvetica,sans-Serif" font-size="10.00">NAudio.Wave.Mp3WaveFormat</text>
</a>
</g>
</g>
<!-- Node0&#45;&gt;Node4 -->
<g id="edge213_Node000000_Node000004" class="edge">
<title>Node0&#45;&gt;Node4</title>
<g id="a_edge213_Node000000_Node000004"><a xlink:title=" ">
<path fill="none" stroke="#63b8ff" d="M131.59,-193.5C156.17,-198.25 183.99,-203.63 207.39,-208.15"/>
<polygon fill="#63b8ff" stroke="#63b8ff" points="132.51,-190.11 122.03,-191.65 131.18,-196.98 132.51,-190.11"/>
</a>
</g>
</g>
<!-- Node5 -->
<g id="Node000005" class="node">
<title>Node5</title>
<g id="a_Node000005"><a xlink:href="class_n_audio_1_1_wave_1_1_ogg_wave_format.html" target="_top" xlink:title=" ">
<polygon fill="white" stroke="#666666" points="336.88,-190.88 184.38,-190.88 184.38,-171.62 336.88,-171.62 336.88,-190.88"/>
<text text-anchor="middle" x="260.62" y="-177.38" font-family="Helvetica,sans-Serif" font-size="10.00">NAudio.Wave.OggWaveFormat</text>
</a>
</g>
</g>
<!-- Node0&#45;&gt;Node5 -->
<g id="edge214_Node000000_Node000005" class="edge">
<title>Node0&#45;&gt;Node5</title>
<g id="a_edge214_Node000000_Node000005"><a xlink:title=" ">
<path fill="none" stroke="#63b8ff" d="M146.23,-181.25C158.71,-181.25 171.61,-181.25 184.03,-181.25"/>
<polygon fill="#63b8ff" stroke="#63b8ff" points="146.43,-177.75 136.43,-181.25 146.43,-184.75 146.43,-177.75"/>
</a>
</g>
</g>
<!-- Node6 -->
<g id="Node000006" class="node">
<title>Node6</title>
<g id="a_Node000006"><a xlink:href="class_n_audio_1_1_wave_1_1_true_speech_wave_format.html" target="_top" xlink:title="DSP Group TrueSpeech.">
<polygon fill="white" stroke="#666666" points="338.75,-153.5 182.5,-153.5 182.5,-123 338.75,-123 338.75,-153.5"/>
<text text-anchor="start" x="190.5" y="-140" font-family="Helvetica,sans-Serif" font-size="10.00">NAudio.Wave.TrueSpeechWave</text>
<text text-anchor="middle" x="260.62" y="-128.75" font-family="Helvetica,sans-Serif" font-size="10.00">Format</text>
</a>
</g>
</g>
<!-- Node0&#45;&gt;Node6 -->
<g id="edge215_Node000000_Node000006" class="edge">
<title>Node0&#45;&gt;Node6</title>
<g id="a_edge215_Node000000_Node000006"><a xlink:title=" ">
<path fill="none" stroke="#63b8ff" d="M124.15,-168.69C144.61,-164.09 168.03,-158.83 189.57,-153.99"/>
<polygon fill="#63b8ff" stroke="#63b8ff" points="123.59,-165.23 114.6,-170.84 125.12,-172.06 123.59,-165.23"/>
</a>
</g>
</g>
<!-- Node7 -->
<g id="Node000007" class="node">
<title>Node7</title>
<g id="a_Node000007"><a xlink:href="class_n_audio_1_1_wave_1_1_wave_format_extensible.html" target="_top" xlink:title="WaveFormatExtensible http://www.microsoft.com/whdc/device/audio/multichaud.mspx.">
<polygon fill="white" stroke="#666666" points="350.75,-104.88 170.5,-104.88 170.5,-85.62 350.75,-85.62 350.75,-104.88"/>
<text text-anchor="middle" x="260.62" y="-91.38" font-family="Helvetica,sans-Serif" font-size="10.00">NAudio.Wave.WaveFormatExtensible</text>
</a>
</g>
</g>
<!-- Node0&#45;&gt;Node7 -->
<g id="edge216_Node000000_Node000007" class="edge">
<title>Node0&#45;&gt;Node7</title>
<g id="a_edge216_Node000000_Node000007"><a xlink:title=" ">
<path fill="none" stroke="#63b8ff" d="M89.32,-164.06C109.12,-148.76 140.17,-126.9 170.5,-114.25 179.12,-110.66 188.49,-107.71 197.83,-105.31"/>
<polygon fill="#63b8ff" stroke="#63b8ff" points="87.17,-161.29 81.49,-170.24 91.51,-166.79 87.17,-161.29"/>
</a>
</g>
</g>
<!-- Node8 -->
<g id="Node000008" class="node">
<title>Node8</title>
<g id="a_Node000008"><a xlink:href="class_n_audio_1_1_wave_1_1_wave_format_extra_data.html" target="_top" xlink:title="This class used for marshalling from unmanaged code.">
<polygon fill="white" stroke="#666666" points="350,-67.88 171.25,-67.88 171.25,-48.62 350,-48.62 350,-67.88"/>
<text text-anchor="middle" x="260.62" y="-54.38" font-family="Helvetica,sans-Serif" font-size="10.00">NAudio.Wave.WaveFormatExtraData</text>
</a>
</g>
</g>
<!-- Node0&#45;&gt;Node8 -->
<g id="edge217_Node000000_Node000008" class="edge">
<title>Node0&#45;&gt;Node8</title>
<g id="a_edge217_Node000000_Node000008"><a xlink:title=" ">
<path fill="none" stroke="#63b8ff" d="M81.26,-162.04C98.65,-137.98 131.79,-97.34 170.5,-76.25 176.32,-73.08 182.63,-70.46 189.11,-68.3"/>
<polygon fill="#63b8ff" stroke="#63b8ff" points="78.56,-159.8 75.67,-170 84.29,-163.82 78.56,-159.8"/>
</a>
</g>
</g>
<!-- Node9 -->
<g id="Node000009" class="node">
<title>Node9</title>
<g id="a_Node000009"><a xlink:href="class_n_audio_1_1_wave_1_1_wave_formats_1_1_wma_wave_format.html" target="_top" xlink:title="The WMA wave format. May not be much use because WMA codec is a DirectShow DMO not an ACM.">
<polygon fill="white" stroke="#666666" points="332,-30.5 189.25,-30.5 189.25,0 332,0 332,-30.5"/>
<text text-anchor="start" x="197.25" y="-17" font-family="Helvetica,sans-Serif" font-size="10.00">NAudio.Wave.WaveFormats.</text>
<text text-anchor="middle" x="260.62" y="-5.75" font-family="Helvetica,sans-Serif" font-size="10.00">WmaWaveFormat</text>
</a>
</g>
</g>
<!-- Node0&#45;&gt;Node9 -->
<g id="edge218_Node000000_Node000009" class="edge">
<title>Node0&#45;&gt;Node9</title>
<g id="a_edge218_Node000000_Node000009"><a xlink:title=" ">
<path fill="none" stroke="#63b8ff" d="M77.18,-161.15C92,-130.14 124.65,-70.95 170.5,-39.25 176.17,-35.33 182.45,-32.05 188.97,-29.31"/>
<polygon fill="#63b8ff" stroke="#63b8ff" points="74.19,-159.27 73.17,-169.81 80.55,-162.21 74.19,-159.27"/>
</a>
</g>
</g>
</g>
</svg>
