<?xml version="1.0" encoding="UTF-8" standalone="no"?>
<!DOCTYPE svg PUBLIC "-//W3C//DTD SVG 1.1//EN"
 "http://www.w3.org/Graphics/SVG/1.1/DTD/svg11.dtd">
<!-- Generated by graphviz version 10.0.1 (20240210.2158)
 -->
<!-- Title: NAudio.MediaFoundation.IMFSourceReader.GetCurrentMediaType Pages: 1 -->
<svg width="975pt" height="112pt"
 viewBox="0.00 0.00 975.25 111.50" xmlns="http://www.w3.org/2000/svg" xmlns:xlink="http://www.w3.org/1999/xlink">
<g id="graph0" class="graph" transform="scale(1 1) rotate(0) translate(4 107.5)">
<title>NAudio.MediaFoundation.IMFSourceReader.GetCurrentMediaType</title>
<!-- Node1 -->
<g id="Node000001" class="node">
<title>Node1</title>
<g id="a_Node000001"><a xlink:title="Gets the current media type for a stream.">
<polygon fill="#999999" stroke="#666666" points="967.25,-54.5 790.75,-54.5 790.75,-24 967.25,-24 967.25,-54.5"/>
<text text-anchor="start" x="798.75" y="-41" font-family="Helvetica,sans-Serif" font-size="10.00">NAudio.MediaFoundation.IMFSource</text>
<text text-anchor="middle" x="879" y="-29.75" font-family="Helvetica,sans-Serif" font-size="10.00">Reader.GetCurrentMediaType</text>
</a>
</g>
</g>
<!-- Node2 -->
<g id="Node000002" class="node">
<title>Node2</title>
<g id="a_Node000002"><a xlink:href="class_n_audio_1_1_wave_1_1_media_foundation_reader.html#af100e70d37e5e06dc98c12438a97ef95" target="_top" xlink:title="Retrieves the current media type of the specified IMFSourceReader.">
<polygon fill="white" stroke="#666666" points="754.75,-77.5 601.5,-77.5 601.5,-47 754.75,-47 754.75,-77.5"/>
<text text-anchor="start" x="609.5" y="-64" font-family="Helvetica,sans-Serif" font-size="10.00">NAudio.Wave.MediaFoundation</text>
<text text-anchor="middle" x="678.12" y="-52.75" font-family="Helvetica,sans-Serif" font-size="10.00">Reader.GetCurrentMediaType</text>
</a>
</g>
</g>
<!-- Node1&#45;&gt;Node2 -->
<g id="edge1_Node000001_Node000002" class="edge">
<title>Node1&#45;&gt;Node2</title>
<g id="a_edge1_Node000001_Node000002"><a xlink:title=" ">
<path fill="none" stroke="#63b8ff" d="M779.12,-50.69C771.06,-51.62 763,-52.55 755.15,-53.46"/>
<polygon fill="#63b8ff" stroke="#63b8ff" points="779.45,-54.17 788.98,-49.55 778.64,-47.22 779.45,-54.17"/>
</a>
</g>
</g>
<!-- Node8 -->
<g id="Node000008" class="node">
<title>Node8</title>
<g id="a_Node000008"><a xlink:href="class_n_audio_1_1_wave_1_1_media_foundation_reader.html#aaa3e900d0b52b1ab72e069196676e99e" target="_top" xlink:title="Retrieves the current wave format from the specified IMFSourceReader.">
<polygon fill="white" stroke="#666666" points="565.5,-30.5 412.25,-30.5 412.25,0 565.5,0 565.5,-30.5"/>
<text text-anchor="start" x="420.25" y="-17" font-family="Helvetica,sans-Serif" font-size="10.00">NAudio.Wave.MediaFoundation</text>
<text text-anchor="middle" x="488.88" y="-5.75" font-family="Helvetica,sans-Serif" font-size="10.00">Reader.GetCurrentWaveFormat</text>
</a>
</g>
</g>
<!-- Node1&#45;&gt;Node8 -->
<g id="edge7_Node000001_Node000008" class="edge">
<title>Node1&#45;&gt;Node8</title>
<g id="a_edge7_Node000001_Node000008"><a xlink:title=" ">
<path fill="none" stroke="#63b8ff" d="M779.1,-33.13C712.73,-29.03 626.63,-23.71 565.68,-19.94"/>
<polygon fill="#63b8ff" stroke="#63b8ff" points="778.71,-36.62 788.9,-33.74 779.14,-29.63 778.71,-36.62"/>
</a>
</g>
</g>
<!-- Node3 -->
<g id="Node000003" class="node">
<title>Node3</title>
<g id="a_Node000003"><a xlink:href="class_n_audio_1_1_wave_1_1_media_foundation_reader.html#a545925036e89d986fb8b2e7c873b07ed" target="_top" xlink:title="Creates a Media Foundation source reader with the specified settings.">
<polygon fill="white" stroke="#666666" points="565.5,-79.5 412.25,-79.5 412.25,-49 565.5,-49 565.5,-79.5"/>
<text text-anchor="start" x="420.25" y="-66" font-family="Helvetica,sans-Serif" font-size="10.00">NAudio.Wave.MediaFoundation</text>
<text text-anchor="middle" x="488.88" y="-54.75" font-family="Helvetica,sans-Serif" font-size="10.00">Reader.CreateReader</text>
</a>
</g>
</g>
<!-- Node2&#45;&gt;Node3 -->
<g id="edge2_Node000002_Node000003" class="edge">
<title>Node2&#45;&gt;Node3</title>
<g id="a_edge2_Node000002_Node000003"><a xlink:title=" ">
<path fill="none" stroke="#63b8ff" d="M589.94,-63.18C581.9,-63.27 573.8,-63.35 565.87,-63.44"/>
<polygon fill="#63b8ff" stroke="#63b8ff" points="589.76,-66.68 599.72,-63.08 589.68,-59.68 589.76,-66.68"/>
</a>
</g>
</g>
<!-- Node4 -->
<g id="Node000004" class="node">
<title>Node4</title>
<g id="a_Node000004"><a xlink:href="class_n_audio_1_1_wave_1_1_media_foundation_reader.html#a030e2baaaa4d3a16ebe5430fdc06332f" target="_top" xlink:title="Initializes the MediaFoundationReader with the specified settings.">
<polygon fill="white" stroke="#666666" points="376.25,-79.5 223,-79.5 223,-49 376.25,-49 376.25,-79.5"/>
<text text-anchor="start" x="231" y="-66" font-family="Helvetica,sans-Serif" font-size="10.00">NAudio.Wave.MediaFoundation</text>
<text text-anchor="middle" x="299.62" y="-54.75" font-family="Helvetica,sans-Serif" font-size="10.00">Reader.Init</text>
</a>
</g>
</g>
<!-- Node3&#45;&gt;Node4 -->
<g id="edge3_Node000003_Node000004" class="edge">
<title>Node3&#45;&gt;Node4</title>
<g id="a_edge3_Node000003_Node000004"><a xlink:title=" ">
<path fill="none" stroke="#63b8ff" d="M400.69,-64.25C392.65,-64.25 384.55,-64.25 376.62,-64.25"/>
<polygon fill="#63b8ff" stroke="#63b8ff" points="400.47,-67.75 410.47,-64.25 400.47,-60.75 400.47,-67.75"/>
</a>
</g>
</g>
<!-- Node7 -->
<g id="Node000007" class="node">
<title>Node7</title>
<g id="a_Node000007"><a xlink:href="class_n_audio_1_1_wave_1_1_media_foundation_reader.html#afaf4f9f9600398af89c9f57a52d78653" target="_top" xlink:title="Reads a sequence of bytes from the current stream and advances the position within the stream by the ...">
<polygon fill="white" stroke="#666666" points="376.25,-30.5 223,-30.5 223,0 376.25,0 376.25,-30.5"/>
<text text-anchor="start" x="231" y="-17" font-family="Helvetica,sans-Serif" font-size="10.00">NAudio.Wave.MediaFoundation</text>
<text text-anchor="middle" x="299.62" y="-5.75" font-family="Helvetica,sans-Serif" font-size="10.00">Reader.Read</text>
</a>
</g>
</g>
<!-- Node3&#45;&gt;Node7 -->
<g id="edge6_Node000003_Node000007" class="edge">
<title>Node3&#45;&gt;Node7</title>
<g id="a_edge6_Node000003_Node000007"><a xlink:title=" ">
<path fill="none" stroke="#63b8ff" d="M416.82,-45.66C398.29,-40.81 378.51,-35.63 360.63,-30.95"/>
<polygon fill="#63b8ff" stroke="#63b8ff" points="415.83,-49.02 426.39,-48.16 417.6,-42.24 415.83,-49.02"/>
</a>
</g>
</g>
<!-- Node5 -->
<g id="Node000005" class="node">
<title>Node5</title>
<g id="a_Node000005"><a xlink:href="class_n_audio_1_1_wave_1_1_media_foundation_reader.html#a478c60af06406213cd899a93ec6c51ab" target="_top" xlink:title="Creates a new MediaFoundationReader based on the supplied file.">
<polygon fill="white" stroke="#666666" points="171.25,-103.5 15.75,-103.5 15.75,-73 171.25,-73 171.25,-103.5"/>
<text text-anchor="start" x="23.75" y="-90" font-family="Helvetica,sans-Serif" font-size="10.00">NAudio.Wave.MediaFoundation</text>
<text text-anchor="middle" x="93.5" y="-78.75" font-family="Helvetica,sans-Serif" font-size="10.00">Reader.MediaFoundationReader</text>
</a>
</g>
</g>
<!-- Node4&#45;&gt;Node5 -->
<g id="edge4_Node000004_Node000005" class="edge">
<title>Node4&#45;&gt;Node5</title>
<g id="a_edge4_Node000004_Node000005"><a xlink:title=" ">
<path fill="none" stroke="#63b8ff" d="M211.56,-74.49C198.28,-76.05 184.64,-77.65 171.59,-79.19"/>
<polygon fill="#63b8ff" stroke="#63b8ff" points="211.59,-78.01 221.11,-73.36 210.77,-71.06 211.59,-78.01"/>
</a>
</g>
</g>
<!-- Node6 -->
<g id="Node000006" class="node">
<title>Node6</title>
<g id="a_Node000006"><a xlink:href="class_n_audio_1_1_wave_1_1_stream_media_foundation_reader.html#ad4b042f9d2fb5e83ae115deac0a104ac" target="_top" xlink:title="Constructs a new media foundation reader from a stream.">
<polygon fill="white" stroke="#666666" points="187,-54.5 0,-54.5 0,-24 187,-24 187,-54.5"/>
<text text-anchor="start" x="8" y="-41" font-family="Helvetica,sans-Serif" font-size="10.00">NAudio.Wave.StreamMediaFoundation</text>
<text text-anchor="middle" x="93.5" y="-29.75" font-family="Helvetica,sans-Serif" font-size="10.00">Reader.StreamMediaFoundationReader</text>
</a>
</g>
</g>
<!-- Node4&#45;&gt;Node6 -->
<g id="edge5_Node000004_Node000006" class="edge">
<title>Node4&#45;&gt;Node6</title>
<g id="a_edge5_Node000004_Node000006"><a xlink:title=" ">
<path fill="none" stroke="#63b8ff" d="M211.22,-53.54C203.36,-52.58 195.39,-51.61 187.5,-50.64"/>
<polygon fill="#63b8ff" stroke="#63b8ff" points="210.76,-57.02 221.11,-54.76 211.61,-50.07 210.76,-57.02"/>
</a>
</g>
</g>
<!-- Node8&#45;&gt;Node4 -->
<g id="edge8_Node000008_Node000004" class="edge">
<title>Node8&#45;&gt;Node4</title>
<g id="a_edge8_Node000008_Node000004"><a xlink:title=" ">
<path fill="none" stroke="#63b8ff" d="M416.82,-33.84C398.29,-38.69 378.51,-43.87 360.63,-48.55"/>
<polygon fill="#63b8ff" stroke="#63b8ff" points="417.6,-37.26 426.39,-31.34 415.83,-30.48 417.6,-37.26"/>
</a>
</g>
</g>
<!-- Node8&#45;&gt;Node7 -->
<g id="edge9_Node000008_Node000007" class="edge">
<title>Node8&#45;&gt;Node7</title>
<g id="a_edge9_Node000008_Node000007"><a xlink:title=" ">
<path fill="none" stroke="#63b8ff" d="M400.69,-15.25C392.65,-15.25 384.55,-15.25 376.62,-15.25"/>
<polygon fill="#63b8ff" stroke="#63b8ff" points="400.47,-18.75 410.47,-15.25 400.47,-11.75 400.47,-18.75"/>
</a>
</g>
</g>
</g>
</svg>
