<?xml version="1.0" encoding="UTF-8" standalone="no"?>
<!DOCTYPE svg PUBLIC "-//W3C//DTD SVG 1.1//EN"
 "http://www.w3.org/Graphics/SVG/1.1/DTD/svg11.dtd">
<!-- Generated by graphviz version 10.0.1 (20240210.2158)
 -->
<!-- Title: NAudio.CoreAudioApi.Interfaces.IMMDevice.Activate Pages: 1 -->
<svg width="369pt" height="235pt"
 viewBox="0.00 0.00 369.25 234.50" xmlns="http://www.w3.org/2000/svg" xmlns:xlink="http://www.w3.org/1999/xlink">
<g id="graph0" class="graph" transform="scale(1 1) rotate(0) translate(4 230.5)">
<title>NAudio.CoreAudioApi.Interfaces.IMMDevice.Activate</title>
<!-- Node1 -->
<g id="Node000001" class="node">
<title>Node1</title>
<g id="a_Node000001"><a xlink:title=" ">
<polygon fill="#999999" stroke="#666666" points="361.25,-128.5 200.5,-128.5 200.5,-98 361.25,-98 361.25,-128.5"/>
<text text-anchor="start" x="208.5" y="-115" font-family="Helvetica,sans-Serif" font-size="10.00">NAudio.CoreAudioApi.Interfaces.</text>
<text text-anchor="middle" x="280.88" y="-103.75" font-family="Helvetica,sans-Serif" font-size="10.00">IMMDevice.Activate</text>
</a>
</g>
</g>
<!-- Node2 -->
<g id="Node000002" class="node">
<title>Node2</title>
<g id="a_Node000002"><a xlink:href="class_n_audio_1_1_core_audio_api_1_1_m_m_device.html#ac1e66c8fa090bb8fe781f44e36f5d9ca" target="_top" xlink:title="Retrieves the audio client associated with the device interface.">
<polygon fill="white" stroke="#666666" points="164.5,-226.5 0,-226.5 0,-196 164.5,-196 164.5,-226.5"/>
<text text-anchor="start" x="8" y="-213" font-family="Helvetica,sans-Serif" font-size="10.00">NAudio.CoreAudioApi.MMDevice.</text>
<text text-anchor="middle" x="82.25" y="-201.75" font-family="Helvetica,sans-Serif" font-size="10.00">GetAudioClient</text>
</a>
</g>
</g>
<!-- Node1&#45;&gt;Node2 -->
<g id="edge1_Node000001_Node000002" class="edge">
<title>Node1&#45;&gt;Node2</title>
<g id="a_edge1_Node000001_Node000002"><a xlink:title=" ">
<path fill="none" stroke="#63b8ff" d="M249.8,-135.42C227.22,-151.26 195.07,-172.18 164.5,-186.25 156.99,-189.71 148.88,-192.85 140.79,-195.64"/>
<polygon fill="#63b8ff" stroke="#63b8ff" points="251.81,-138.29 257.92,-129.64 247.75,-132.58 251.81,-138.29"/>
</a>
</g>
</g>
<!-- Node3 -->
<g id="Node000003" class="node">
<title>Node3</title>
<g id="a_Node000003"><a xlink:href="class_n_audio_1_1_core_audio_api_1_1_m_m_device.html#a8fbf40ed5e79465f626cf970cd9a66fc" target="_top" xlink:title="Retrieves the audio endpoint volume.">
<polygon fill="white" stroke="#666666" points="164.5,-177.5 0,-177.5 0,-147 164.5,-147 164.5,-177.5"/>
<text text-anchor="start" x="8" y="-164" font-family="Helvetica,sans-Serif" font-size="10.00">NAudio.CoreAudioApi.MMDevice.</text>
<text text-anchor="middle" x="82.25" y="-152.75" font-family="Helvetica,sans-Serif" font-size="10.00">GetAudioEndpointVolume</text>
</a>
</g>
</g>
<!-- Node1&#45;&gt;Node3 -->
<g id="edge2_Node000001_Node000003" class="edge">
<title>Node1&#45;&gt;Node3</title>
<g id="a_edge2_Node000001_Node000003"><a xlink:title=" ">
<path fill="none" stroke="#63b8ff" d="M205.81,-131.71C186.2,-136.6 165.22,-141.82 146.26,-146.55"/>
<polygon fill="#63b8ff" stroke="#63b8ff" points="206.52,-135.14 215.38,-129.32 204.83,-128.34 206.52,-135.14"/>
</a>
</g>
</g>
<!-- Node4 -->
<g id="Node000004" class="node">
<title>Node4</title>
<g id="a_Node000004"><a xlink:href="class_n_audio_1_1_core_audio_api_1_1_m_m_device.html#a5133d8a7039b802a7394cf3b6ced5b3e" target="_top" xlink:title="Retrieves the audio meter information from the device interface and initializes the AudioMeterInforma...">
<polygon fill="white" stroke="#666666" points="164.5,-128.5 0,-128.5 0,-98 164.5,-98 164.5,-128.5"/>
<text text-anchor="start" x="8" y="-115" font-family="Helvetica,sans-Serif" font-size="10.00">NAudio.CoreAudioApi.MMDevice.</text>
<text text-anchor="middle" x="82.25" y="-103.75" font-family="Helvetica,sans-Serif" font-size="10.00">GetAudioMeterInformation</text>
</a>
</g>
</g>
<!-- Node1&#45;&gt;Node4 -->
<g id="edge3_Node000001_Node000004" class="edge">
<title>Node1&#45;&gt;Node4</title>
<g id="a_edge3_Node000001_Node000004"><a xlink:title=" ">
<path fill="none" stroke="#63b8ff" d="M188.95,-113.25C180.95,-113.25 172.89,-113.25 164.97,-113.25"/>
<polygon fill="#63b8ff" stroke="#63b8ff" points="188.67,-116.75 198.67,-113.25 188.67,-109.75 188.67,-116.75"/>
</a>
</g>
</g>
<!-- Node5 -->
<g id="Node000005" class="node">
<title>Node5</title>
<g id="a_Node000005"><a xlink:href="class_n_audio_1_1_core_audio_api_1_1_m_m_device.html#aaf4316a8b90c2af69c9a4e5c71173f9c" target="_top" xlink:title="Retrieves the audio session manager for the device interface.">
<polygon fill="white" stroke="#666666" points="164.5,-79.5 0,-79.5 0,-49 164.5,-49 164.5,-79.5"/>
<text text-anchor="start" x="8" y="-66" font-family="Helvetica,sans-Serif" font-size="10.00">NAudio.CoreAudioApi.MMDevice.</text>
<text text-anchor="middle" x="82.25" y="-54.75" font-family="Helvetica,sans-Serif" font-size="10.00">GetAudioSessionManager</text>
</a>
</g>
</g>
<!-- Node1&#45;&gt;Node5 -->
<g id="edge4_Node000001_Node000005" class="edge">
<title>Node1&#45;&gt;Node5</title>
<g id="a_edge4_Node000001_Node000005"><a xlink:title=" ">
<path fill="none" stroke="#63b8ff" d="M205.81,-94.79C186.2,-89.9 165.22,-84.68 146.26,-79.95"/>
<polygon fill="#63b8ff" stroke="#63b8ff" points="204.83,-98.16 215.38,-97.18 206.52,-91.36 204.83,-98.16"/>
</a>
</g>
</g>
<!-- Node6 -->
<g id="Node000006" class="node">
<title>Node6</title>
<g id="a_Node000006"><a xlink:href="class_n_audio_1_1_core_audio_api_1_1_m_m_device.html#a5ba0f6c3c5e9714f6600077a91710d16" target="_top" xlink:title="Retrieves the device topology and initializes the DeviceTopology object.">
<polygon fill="white" stroke="#666666" points="164.5,-30.5 0,-30.5 0,0 164.5,0 164.5,-30.5"/>
<text text-anchor="start" x="8" y="-17" font-family="Helvetica,sans-Serif" font-size="10.00">NAudio.CoreAudioApi.MMDevice.</text>
<text text-anchor="middle" x="82.25" y="-5.75" font-family="Helvetica,sans-Serif" font-size="10.00">GetDeviceTopology</text>
</a>
</g>
</g>
<!-- Node1&#45;&gt;Node6 -->
<g id="edge5_Node000001_Node000006" class="edge">
<title>Node1&#45;&gt;Node6</title>
<g id="a_edge5_Node000001_Node000006"><a xlink:title=" ">
<path fill="none" stroke="#63b8ff" d="M249.8,-91.08C227.22,-75.24 195.07,-54.32 164.5,-40.25 156.99,-36.79 148.88,-33.65 140.79,-30.86"/>
<polygon fill="#63b8ff" stroke="#63b8ff" points="247.75,-93.92 257.92,-96.86 251.81,-88.21 247.75,-93.92"/>
</a>
</g>
</g>
</g>
</svg>
