<?xml version="1.0" encoding="UTF-8" standalone="no"?>
<!DOCTYPE svg PUBLIC "-//W3C//DTD SVG 1.1//EN"
 "http://www.w3.org/Graphics/SVG/1.1/DTD/svg11.dtd">
<!-- Generated by graphviz version 10.0.1 (20240210.2158)
 -->
<!-- Title: NAudio.MediaFoundation.IMFAttributes Pages: 1 -->
<!--zoomable 453 -->

<svg id="main" version="1.1" xmlns="http://www.w3.org/2000/svg" xmlns:xlink="http://www.w3.org/1999/xlink" xml:space="preserve" onload="init(evt)">
<style type="text/css"><![CDATA[
.node, .edge {opacity: 0.7;}
.node.selected, .edge.selected {opacity: 1;}
.edge:hover path { stroke: red; }
.edge:hover polygon { stroke: red; fill: red; }
]]></style>

<defs>
  <circle id="rim" cx="0" cy="0" r="7"/>
  <circle id="rim2" cx="0" cy="0" r="3.5"/>
  <g id="zoomPlus">
    <use xlink:href="#rim" fill="#404040"><set attributeName="fill" to="#808080" begin="zoomplus.mouseover" end="zoomplus.mouseout"/></use>
    <path d="M-4,0h8M0,-4v8" fill="none" stroke="white" stroke-width="1.5" pointer-events="none"/>
  </g>
  <g id="zoomMin">
    <use xlink:href="#rim" fill="#404040"><set attributeName="fill" to="#808080" begin="zoomminus.mouseover" end="zoomminus.mouseout"/></use>
    <path d="M-4,0h8" fill="none" stroke="white" stroke-width="1.5" pointer-events="none"/>
  </g>
  <g id="arrowUp" transform="translate(30 24)">
    <use xlink:href="#rim"/>
    <path pointer-events="none" fill="none" stroke="white" stroke-width="1.5" d="M0,-3.0v7 M-2.5,-0.5L0,-3.0L2.5,-0.5"/>
  </g>
  <g id="arrowRight" transform="rotate(90) translate(36 -43)">
    <use xlink:href="#rim"/>
    <path pointer-events="none" fill="none" stroke="white" stroke-width="1.5" d="M0,-3.0v7 M-2.5,-0.5L0,-3.0L2.5,-0.5"/>
  </g>
  <g id="arrowDown" transform="rotate(180) translate(-30 -48)">
    <use xlink:href="#rim"/>
    <path pointer-events="none" fill="none" stroke="white" stroke-width="1.5" d="M0,-3.0v7 M-2.5,-0.5L0,-3.0L2.5,-0.5"/>
  </g>
  <g id="arrowLeft" transform="rotate(270) translate(-36 17)">
    <use xlink:href="#rim"/>
    <path pointer-events="none" fill="none" stroke="white" stroke-width="1.5" d="M0,-3.0v7 M-2.5,-0.5L0,-3.0L2.5,-0.5"/>
  </g>
  <g id="resetDef">
    <use xlink:href="#rim2" fill="#404040"><set attributeName="fill" to="#808080" begin="reset.mouseover" end="reset.mouseout"/></use>
  </g>
</defs>
<script type="application/ecmascript">
var viewWidth = 764;
var viewHeight = 453;
var sectionId = 'dynsection-0';
</script>
<script type="application/ecmascript" xlink:href="svg.min.js"/>
<svg id="graph" class="graph">
<g id="viewport">
<title>NAudio.MediaFoundation.IMFAttributes</title>
<!-- Node1 -->
<g id="Node000001" class="node">
<title>Node1</title>
<g id="a_Node000001"><a xlink:title="Provides a generic way to store key/value pairs on an object. http://msdn.microsoft....">
<polygon fill="#999999" stroke="none" points="464,-445 283,-445 283,-246 464,-246 464,-445"/>
<text text-anchor="start" x="287.62" y="-431.5" font-family="Helvetica,sans-Serif" font-size="10.00">NAudio.MediaFoundation.IMFAttributes</text>
<text text-anchor="start" x="372" y="-416.5" font-family="Helvetica,sans-Serif" font-size="10.00"> </text>
<text text-anchor="start" x="308.5" y="-401.5" font-family="Helvetica,sans-Serif" font-size="10.00">+</text>
<text text-anchor="start" x="340" y="-401.5" font-family="Helvetica,sans-Serif" font-size="10.00">GetItem()</text>
<text text-anchor="start" x="308.5" y="-386.5" font-family="Helvetica,sans-Serif" font-size="10.00">+</text>
<text text-anchor="start" x="340" y="-386.5" font-family="Helvetica,sans-Serif" font-size="10.00">GetItemType()</text>
<text text-anchor="start" x="308.5" y="-371.5" font-family="Helvetica,sans-Serif" font-size="10.00">+</text>
<text text-anchor="start" x="340" y="-371.5" font-family="Helvetica,sans-Serif" font-size="10.00">CompareItem()</text>
<text text-anchor="start" x="308.5" y="-356.5" font-family="Helvetica,sans-Serif" font-size="10.00">+</text>
<text text-anchor="start" x="340" y="-356.5" font-family="Helvetica,sans-Serif" font-size="10.00">Compare()</text>
<text text-anchor="start" x="308.5" y="-341.5" font-family="Helvetica,sans-Serif" font-size="10.00">+</text>
<text text-anchor="start" x="340" y="-341.5" font-family="Helvetica,sans-Serif" font-size="10.00">GetUINT32()</text>
<text text-anchor="start" x="308.5" y="-326.5" font-family="Helvetica,sans-Serif" font-size="10.00">+</text>
<text text-anchor="start" x="340" y="-326.5" font-family="Helvetica,sans-Serif" font-size="10.00">GetUINT64()</text>
<text text-anchor="start" x="308.5" y="-311.5" font-family="Helvetica,sans-Serif" font-size="10.00">+</text>
<text text-anchor="start" x="340" y="-311.5" font-family="Helvetica,sans-Serif" font-size="10.00">GetDouble()</text>
<text text-anchor="start" x="308.5" y="-296.5" font-family="Helvetica,sans-Serif" font-size="10.00">+</text>
<text text-anchor="start" x="340" y="-296.5" font-family="Helvetica,sans-Serif" font-size="10.00">GetGUID()</text>
<text text-anchor="start" x="308.5" y="-281.5" font-family="Helvetica,sans-Serif" font-size="10.00">+</text>
<text text-anchor="start" x="340" y="-281.5" font-family="Helvetica,sans-Serif" font-size="10.00">GetStringLength()</text>
<text text-anchor="start" x="308.5" y="-266.5" font-family="Helvetica,sans-Serif" font-size="10.00">+</text>
<text text-anchor="start" x="340" y="-266.5" font-family="Helvetica,sans-Serif" font-size="10.00">GetString()</text>
<text text-anchor="start" x="340" y="-251.5" font-family="Helvetica,sans-Serif" font-size="10.00">and 20 more...</text>
<polygon fill="#666666" stroke="#666666" points="283,-428 283,-428 464,-428 464,-428 283,-428"/>
<polygon fill="#666666" stroke="#666666" points="283,-413 283,-413 464,-413 464,-413 283,-413"/>
<polygon fill="none" stroke="#666666" points="283,-246 283,-445 464,-445 464,-246 283,-246"/>
</a>
</g>
</g>
<!-- Node2 -->
<g id="Node000002" class="node">
<title>Node2</title>
<g id="a_Node000002"><a xlink:href="interface_n_audio_1_1_media_foundation_1_1_i_m_f_activate.html" target="_top" xlink:title="IMFActivate, defined in mfobjects.h.">
<polygon fill="white" stroke="none" points="175,-204.5 0,-204.5 0,-5.5 175,-5.5 175,-204.5"/>
<text text-anchor="start" x="4.62" y="-191" font-family="Helvetica,sans-Serif" font-size="10.00">NAudio.MediaFoundation.IMFActivate</text>
<text text-anchor="start" x="86" y="-176" font-family="Helvetica,sans-Serif" font-size="10.00"> </text>
<text text-anchor="start" x="24" y="-161" font-family="Helvetica,sans-Serif" font-size="10.00">+</text>
<text text-anchor="start" x="54" y="-161" font-family="Helvetica,sans-Serif" font-size="10.00">GetItem()</text>
<text text-anchor="start" x="24" y="-146" font-family="Helvetica,sans-Serif" font-size="10.00">+</text>
<text text-anchor="start" x="54" y="-146" font-family="Helvetica,sans-Serif" font-size="10.00">GetItemType()</text>
<text text-anchor="start" x="24" y="-131" font-family="Helvetica,sans-Serif" font-size="10.00">+</text>
<text text-anchor="start" x="54" y="-131" font-family="Helvetica,sans-Serif" font-size="10.00">CompareItem()</text>
<text text-anchor="start" x="24" y="-116" font-family="Helvetica,sans-Serif" font-size="10.00">+</text>
<text text-anchor="start" x="54" y="-116" font-family="Helvetica,sans-Serif" font-size="10.00">Compare()</text>
<text text-anchor="start" x="24" y="-101" font-family="Helvetica,sans-Serif" font-size="10.00">+</text>
<text text-anchor="start" x="54" y="-101" font-family="Helvetica,sans-Serif" font-size="10.00">GetUINT32()</text>
<text text-anchor="start" x="24" y="-86" font-family="Helvetica,sans-Serif" font-size="10.00">+</text>
<text text-anchor="start" x="54" y="-86" font-family="Helvetica,sans-Serif" font-size="10.00">GetUINT64()</text>
<text text-anchor="start" x="24" y="-71" font-family="Helvetica,sans-Serif" font-size="10.00">+</text>
<text text-anchor="start" x="54" y="-71" font-family="Helvetica,sans-Serif" font-size="10.00">GetDouble()</text>
<text text-anchor="start" x="24" y="-56" font-family="Helvetica,sans-Serif" font-size="10.00">+</text>
<text text-anchor="start" x="54" y="-56" font-family="Helvetica,sans-Serif" font-size="10.00">GetGUID()</text>
<text text-anchor="start" x="24" y="-41" font-family="Helvetica,sans-Serif" font-size="10.00">+</text>
<text text-anchor="start" x="54" y="-41" font-family="Helvetica,sans-Serif" font-size="10.00">GetStringLength()</text>
<text text-anchor="start" x="24" y="-26" font-family="Helvetica,sans-Serif" font-size="10.00">+</text>
<text text-anchor="start" x="54" y="-26" font-family="Helvetica,sans-Serif" font-size="10.00">GetString()</text>
<text text-anchor="start" x="54" y="-11" font-family="Helvetica,sans-Serif" font-size="10.00">and 23 more...</text>
<polygon fill="#666666" stroke="#666666" points="0,-187.5 0,-187.5 175,-187.5 175,-187.5 0,-187.5"/>
<polygon fill="#666666" stroke="#666666" points="0,-172.5 0,-172.5 175,-172.5 175,-172.5 0,-172.5"/>
<polygon fill="none" stroke="#666666" points="0,-5.5 0,-204.5 175,-204.5 175,-5.5 0,-5.5"/>
</a>
</g>
</g>
<!-- Node1&#45;&gt;Node2 -->
<g id="edge1_Node000001_Node000002" class="edge">
<title>Node1&#45;&gt;Node2</title>
<g id="a_edge1_Node000001_Node000002"><a xlink:title=" ">
<path fill="none" stroke="#63b8ff" d="M274.04,-279.36C244.29,-258.4 212.23,-234.29 184.5,-210 181.25,-207.15 177.99,-204.21 174.74,-201.2"/>
<polygon fill="none" stroke="#63b8ff" points="271.75,-282.03 281.95,-284.9 275.76,-276.3 271.75,-282.03"/>
</a>
</g>
</g>
<!-- Node3 -->
<g id="Node000003" class="node">
<title>Node3</title>
<g id="a_Node000003"><a xlink:href="interface_n_audio_1_1_media_foundation_1_1_i_m_f_media_event.html" target="_top" xlink:title="IMFMediaEvent &#45; Represents an event generated by a Media Foundation object. Use this interface to get...">
<polygon fill="white" stroke="none" points="359.5,-210 193.5,-210 193.5,0 359.5,0 359.5,-210"/>
<text text-anchor="start" x="198.5" y="-196.5" font-family="Helvetica,sans-Serif" font-size="10.00">NAudio.MediaFoundation.IMFMedia</text>
<text text-anchor="start" x="263.75" y="-185.25" font-family="Helvetica,sans-Serif" font-size="10.00">Event</text>
<text text-anchor="start" x="275" y="-170.5" font-family="Helvetica,sans-Serif" font-size="10.00"> </text>
<text text-anchor="start" x="215.5" y="-155.5" font-family="Helvetica,sans-Serif" font-size="10.00">+</text>
<text text-anchor="start" x="243.5" y="-155.5" font-family="Helvetica,sans-Serif" font-size="10.00">GetItem()</text>
<text text-anchor="start" x="215.5" y="-140.5" font-family="Helvetica,sans-Serif" font-size="10.00">+</text>
<text text-anchor="start" x="243.5" y="-140.5" font-family="Helvetica,sans-Serif" font-size="10.00">GetItemType()</text>
<text text-anchor="start" x="215.5" y="-125.5" font-family="Helvetica,sans-Serif" font-size="10.00">+</text>
<text text-anchor="start" x="243.5" y="-125.5" font-family="Helvetica,sans-Serif" font-size="10.00">CompareItem()</text>
<text text-anchor="start" x="215.5" y="-110.5" font-family="Helvetica,sans-Serif" font-size="10.00">+</text>
<text text-anchor="start" x="243.5" y="-110.5" font-family="Helvetica,sans-Serif" font-size="10.00">Compare()</text>
<text text-anchor="start" x="215.5" y="-95.5" font-family="Helvetica,sans-Serif" font-size="10.00">+</text>
<text text-anchor="start" x="243.5" y="-95.5" font-family="Helvetica,sans-Serif" font-size="10.00">GetUINT32()</text>
<text text-anchor="start" x="215.5" y="-80.5" font-family="Helvetica,sans-Serif" font-size="10.00">+</text>
<text text-anchor="start" x="243.5" y="-80.5" font-family="Helvetica,sans-Serif" font-size="10.00">GetUINT64()</text>
<text text-anchor="start" x="215.5" y="-65.5" font-family="Helvetica,sans-Serif" font-size="10.00">+</text>
<text text-anchor="start" x="243.5" y="-65.5" font-family="Helvetica,sans-Serif" font-size="10.00">GetDouble()</text>
<text text-anchor="start" x="215.5" y="-50.5" font-family="Helvetica,sans-Serif" font-size="10.00">+</text>
<text text-anchor="start" x="243.5" y="-50.5" font-family="Helvetica,sans-Serif" font-size="10.00">GetGUID()</text>
<text text-anchor="start" x="215.5" y="-35.5" font-family="Helvetica,sans-Serif" font-size="10.00">+</text>
<text text-anchor="start" x="243.5" y="-35.5" font-family="Helvetica,sans-Serif" font-size="10.00">GetStringLength()</text>
<text text-anchor="start" x="215.5" y="-20.5" font-family="Helvetica,sans-Serif" font-size="10.00">+</text>
<text text-anchor="start" x="243.5" y="-20.5" font-family="Helvetica,sans-Serif" font-size="10.00">GetString()</text>
<text text-anchor="start" x="243.5" y="-5.5" font-family="Helvetica,sans-Serif" font-size="10.00">and 24 more...</text>
<polygon fill="#666666" stroke="#666666" points="193.5,-182 193.5,-182 359.5,-182 359.5,-182 193.5,-182"/>
<polygon fill="#666666" stroke="#666666" points="193.5,-167 193.5,-167 359.5,-167 359.5,-167 193.5,-167"/>
<polygon fill="none" stroke="#666666" points="193.5,0 193.5,-210 359.5,-210 359.5,0 193.5,0"/>
</a>
</g>
</g>
<!-- Node1&#45;&gt;Node3 -->
<g id="edge2_Node000001_Node000003" class="edge">
<title>Node1&#45;&gt;Node3</title>
<g id="a_edge2_Node000001_Node000003"><a xlink:title=" ">
<path fill="none" stroke="#63b8ff" d="M329.25,-235.71C325.77,-227.13 322.25,-218.49 318.78,-209.95"/>
<polygon fill="none" stroke="#63b8ff" points="325.91,-236.77 332.92,-244.71 332.39,-234.13 325.91,-236.77"/>
</a>
</g>
</g>
<!-- Node4 -->
<g id="Node000004" class="node">
<title>Node4</title>
<g id="a_Node000004"><a xlink:href="interface_n_audio_1_1_media_foundation_1_1_i_m_f_media_type.html" target="_top" xlink:title="Represents a description of a media format. http://msdn.microsoft.com/en&#45;us/library/windows/desktop/m...">
<polygon fill="white" stroke="none" points="565,-204.5 378,-204.5 378,-5.5 565,-5.5 565,-204.5"/>
<text text-anchor="start" x="383" y="-191" font-family="Helvetica,sans-Serif" font-size="10.00">NAudio.MediaFoundation.IMFMediaType</text>
<text text-anchor="start" x="470" y="-176" font-family="Helvetica,sans-Serif" font-size="10.00"> </text>
<text text-anchor="start" x="405" y="-161" font-family="Helvetica,sans-Serif" font-size="10.00">+</text>
<text text-anchor="start" x="438" y="-161" font-family="Helvetica,sans-Serif" font-size="10.00">GetItem()</text>
<text text-anchor="start" x="405" y="-146" font-family="Helvetica,sans-Serif" font-size="10.00">+</text>
<text text-anchor="start" x="438" y="-146" font-family="Helvetica,sans-Serif" font-size="10.00">GetItemType()</text>
<text text-anchor="start" x="405" y="-131" font-family="Helvetica,sans-Serif" font-size="10.00">+</text>
<text text-anchor="start" x="438" y="-131" font-family="Helvetica,sans-Serif" font-size="10.00">CompareItem()</text>
<text text-anchor="start" x="405" y="-116" font-family="Helvetica,sans-Serif" font-size="10.00">+</text>
<text text-anchor="start" x="438" y="-116" font-family="Helvetica,sans-Serif" font-size="10.00">Compare()</text>
<text text-anchor="start" x="405" y="-101" font-family="Helvetica,sans-Serif" font-size="10.00">+</text>
<text text-anchor="start" x="438" y="-101" font-family="Helvetica,sans-Serif" font-size="10.00">GetUINT32()</text>
<text text-anchor="start" x="405" y="-86" font-family="Helvetica,sans-Serif" font-size="10.00">+</text>
<text text-anchor="start" x="438" y="-86" font-family="Helvetica,sans-Serif" font-size="10.00">GetUINT64()</text>
<text text-anchor="start" x="405" y="-71" font-family="Helvetica,sans-Serif" font-size="10.00">+</text>
<text text-anchor="start" x="438" y="-71" font-family="Helvetica,sans-Serif" font-size="10.00">GetDouble()</text>
<text text-anchor="start" x="405" y="-56" font-family="Helvetica,sans-Serif" font-size="10.00">+</text>
<text text-anchor="start" x="438" y="-56" font-family="Helvetica,sans-Serif" font-size="10.00">GetGUID()</text>
<text text-anchor="start" x="405" y="-41" font-family="Helvetica,sans-Serif" font-size="10.00">+</text>
<text text-anchor="start" x="438" y="-41" font-family="Helvetica,sans-Serif" font-size="10.00">GetStringLength()</text>
<text text-anchor="start" x="405" y="-26" font-family="Helvetica,sans-Serif" font-size="10.00">+</text>
<text text-anchor="start" x="438" y="-26" font-family="Helvetica,sans-Serif" font-size="10.00">GetString()</text>
<text text-anchor="start" x="438" y="-11" font-family="Helvetica,sans-Serif" font-size="10.00">and 25 more...</text>
<polygon fill="#666666" stroke="#666666" points="378,-187.5 378,-187.5 565,-187.5 565,-187.5 378,-187.5"/>
<polygon fill="#666666" stroke="#666666" points="378,-172.5 378,-172.5 565,-172.5 565,-172.5 378,-172.5"/>
<polygon fill="none" stroke="#666666" points="378,-5.5 378,-204.5 565,-204.5 565,-5.5 378,-5.5"/>
</a>
</g>
</g>
<!-- Node1&#45;&gt;Node4 -->
<g id="edge3_Node000001_Node000004" class="edge">
<title>Node1&#45;&gt;Node4</title>
<g id="a_edge3_Node000001_Node000004"><a xlink:title=" ">
<path fill="none" stroke="#63b8ff" d="M418.22,-235.66C422.54,-225.16 426.9,-214.55 431.17,-204.16"/>
<polygon fill="none" stroke="#63b8ff" points="415.06,-234.14 414.5,-244.72 421.54,-236.8 415.06,-234.14"/>
</a>
</g>
</g>
<!-- Node5 -->
<g id="Node000005" class="node">
<title>Node5</title>
<g id="a_Node000005"><a xlink:href="interface_n_audio_1_1_media_foundation_1_1_i_m_f_sample.html" target="_top" xlink:title="http://msdn.microsoft.com/en&#45;gb/library/windows/desktop/ms702192%28v=vs.85%29.aspx">
<polygon fill="white" stroke="none" points="755.5,-204.5 583.5,-204.5 583.5,-5.5 755.5,-5.5 755.5,-204.5"/>
<text text-anchor="start" x="588.12" y="-191" font-family="Helvetica,sans-Serif" font-size="10.00">NAudio.MediaFoundation.IMFSample</text>
<text text-anchor="start" x="668" y="-176" font-family="Helvetica,sans-Serif" font-size="10.00"> </text>
<text text-anchor="start" x="607" y="-161" font-family="Helvetica,sans-Serif" font-size="10.00">+</text>
<text text-anchor="start" x="636.5" y="-161" font-family="Helvetica,sans-Serif" font-size="10.00">GetItem()</text>
<text text-anchor="start" x="607" y="-146" font-family="Helvetica,sans-Serif" font-size="10.00">+</text>
<text text-anchor="start" x="636.5" y="-146" font-family="Helvetica,sans-Serif" font-size="10.00">GetItemType()</text>
<text text-anchor="start" x="607" y="-131" font-family="Helvetica,sans-Serif" font-size="10.00">+</text>
<text text-anchor="start" x="636.5" y="-131" font-family="Helvetica,sans-Serif" font-size="10.00">CompareItem()</text>
<text text-anchor="start" x="607" y="-116" font-family="Helvetica,sans-Serif" font-size="10.00">+</text>
<text text-anchor="start" x="636.5" y="-116" font-family="Helvetica,sans-Serif" font-size="10.00">Compare()</text>
<text text-anchor="start" x="607" y="-101" font-family="Helvetica,sans-Serif" font-size="10.00">+</text>
<text text-anchor="start" x="636.5" y="-101" font-family="Helvetica,sans-Serif" font-size="10.00">GetUINT32()</text>
<text text-anchor="start" x="607" y="-86" font-family="Helvetica,sans-Serif" font-size="10.00">+</text>
<text text-anchor="start" x="636.5" y="-86" font-family="Helvetica,sans-Serif" font-size="10.00">GetUINT64()</text>
<text text-anchor="start" x="607" y="-71" font-family="Helvetica,sans-Serif" font-size="10.00">+</text>
<text text-anchor="start" x="636.5" y="-71" font-family="Helvetica,sans-Serif" font-size="10.00">GetDouble()</text>
<text text-anchor="start" x="607" y="-56" font-family="Helvetica,sans-Serif" font-size="10.00">+</text>
<text text-anchor="start" x="636.5" y="-56" font-family="Helvetica,sans-Serif" font-size="10.00">GetGUID()</text>
<text text-anchor="start" x="607" y="-41" font-family="Helvetica,sans-Serif" font-size="10.00">+</text>
<text text-anchor="start" x="636.5" y="-41" font-family="Helvetica,sans-Serif" font-size="10.00">GetStringLength()</text>
<text text-anchor="start" x="607" y="-26" font-family="Helvetica,sans-Serif" font-size="10.00">+</text>
<text text-anchor="start" x="636.5" y="-26" font-family="Helvetica,sans-Serif" font-size="10.00">GetString()</text>
<text text-anchor="start" x="636.5" y="-11" font-family="Helvetica,sans-Serif" font-size="10.00">and 34 more...</text>
<polygon fill="#666666" stroke="#666666" points="583.5,-187.5 583.5,-187.5 755.5,-187.5 755.5,-187.5 583.5,-187.5"/>
<polygon fill="#666666" stroke="#666666" points="583.5,-172.5 583.5,-172.5 755.5,-172.5 755.5,-172.5 583.5,-172.5"/>
<polygon fill="none" stroke="#666666" points="583.5,-5.5 583.5,-204.5 755.5,-204.5 755.5,-5.5 583.5,-5.5"/>
</a>
</g>
</g>
<!-- Node1&#45;&gt;Node5 -->
<g id="edge4_Node000001_Node000005" class="edge">
<title>Node1&#45;&gt;Node5</title>
<g id="a_edge4_Node000001_Node000005"><a xlink:title=" ">
<path fill="none" stroke="#63b8ff" d="M473.23,-284.57C506.68,-262.72 543.36,-236.77 574.5,-210 577.56,-207.37 580.62,-204.65 583.67,-201.85"/>
<polygon fill="none" stroke="#63b8ff" points="471.65,-281.42 465.16,-289.79 475.46,-287.29 471.65,-281.42"/>
</a>
</g>
</g>
</g>
</svg>

<g id="navigator" transform="translate(0 0)" fill="#404254">
  <rect fill="#f2f5e9" fill-opacity="0.5" stroke="#606060" stroke-width=".5" x="0" y="0" width="60" height="60"/>
  <use id="zoomplus" xlink:href="#zoomPlus" x="17" y="9" onmousedown="handleZoom(evt,'in')"/>
  <use id="zoomminus" xlink:href="#zoomMin" x="42" y="9" onmousedown="handleZoom(evt,'out')"/>
  <use id="reset" xlink:href="#resetDef" x="30" y="36" onmousedown="handleReset()"/>
   <use id="arrowup" xlink:href="#arrowUp" x="0" y="0" onmousedown="handlePan(0,-1)"/>
  <use id="arrowright" xlink:href="#arrowRight" x="0" y="0" onmousedown="handlePan(1,0)"/>
  <use id="arrowdown" xlink:href="#arrowDown" x="0" y="0" onmousedown="handlePan(0,1)"/>
  <use id="arrowleft" xlink:href="#arrowLeft" x="0" y="0" onmousedown="handlePan(-1,0)"/>
</g>
<svg viewBox="0 0 15 15" width="100%" height="30px" preserveAspectRatio="xMaxYMin meet">
 <g id="arrow_out" transform="scale(0.3 0.3)">
  <a xlink:href="interface_n_audio_1_1_media_foundation_1_1_i_m_f_attributes__inherit__graph_org.svg" target="_base">
   <rect id="button" ry="5" rx="5" y="6" x="6" height="38" width="38"
        fill="#f2f5e9" fill-opacity="0.5" stroke="#606060" stroke-width="1.0"/>
   <path id="arrow"
     d="M 11.500037,31.436501 C 11.940474,20.09759 22.043105,11.32322 32.158766,21.979434 L 37.068811,17.246167 C 37.068811,17.246167 37.088388,32 37.088388,32 L 22.160133,31.978069 C 22.160133,31.978069 26.997745,27.140456 26.997745,27.140456 C 18.528582,18.264221 13.291696,25.230495 11.500037,31.436501 z"
     style="fill:#404040;"/>
  </a>
 </g>
</svg>

<style type='text/css'>
<![CDATA[
[data-mouse-over-selected='false'] { opacity: 0.7; }
[data-mouse-over-selected='true']  { opacity: 1.0; }
]]>
</style>
<script type="application/ecmascript"><![CDATA[
document.addEventListener('DOMContentLoaded', (event) => {
  highlightEdges();
  highlightAdjacentNodes();
});
]]></script>
</svg>
