<?xml version="1.0" encoding="UTF-8" standalone="no"?>
<!DOCTYPE svg PUBLIC "-//W3C//DTD SVG 1.1//EN"
 "http://www.w3.org/Graphics/SVG/1.1/DTD/svg11.dtd">
<!-- Generated by graphviz version 10.0.1 (20240210.2158)
 -->
<!-- Title: NAudio.CoreAudioApi.Interfaces.IAudioCaptureClient.GetBuffer Pages: 1 -->
<svg width="1074pt" height="88pt"
 viewBox="0.00 0.00 1073.75 87.50" xmlns="http://www.w3.org/2000/svg" xmlns:xlink="http://www.w3.org/1999/xlink">
<g id="graph0" class="graph" transform="scale(1 1) rotate(0) translate(4 83.5)">
<title>NAudio.CoreAudioApi.Interfaces.IAudioCaptureClient.GetBuffer</title>
<!-- Node1 -->
<g id="Node000001" class="node">
<title>Node1</title>
<g id="a_Node000001"><a xlink:title=" ">
<polygon fill="#999999" stroke="#666666" points="1065.75,-54.5 905,-54.5 905,-24 1065.75,-24 1065.75,-54.5"/>
<text text-anchor="start" x="913" y="-41" font-family="Helvetica,sans-Serif" font-size="10.00">NAudio.CoreAudioApi.Interfaces.</text>
<text text-anchor="middle" x="985.38" y="-29.75" font-family="Helvetica,sans-Serif" font-size="10.00">IAudioCaptureClient.GetBuffer</text>
</a>
</g>
</g>
<!-- Node2 -->
<g id="Node000002" class="node">
<title>Node2</title>
<g id="a_Node000002"><a xlink:href="class_n_audio_1_1_core_audio_api_1_1_audio_capture_client.html#ab06f6d8180612a63fa6808bb35751106" target="_top" xlink:title="Gets a pointer to the buffer.">
<polygon fill="white" stroke="#666666" points="869,-79.5 730,-79.5 730,-49 869,-49 869,-79.5"/>
<text text-anchor="start" x="738" y="-66" font-family="Helvetica,sans-Serif" font-size="10.00">NAudio.CoreAudioApi.Audio</text>
<text text-anchor="middle" x="799.5" y="-54.75" font-family="Helvetica,sans-Serif" font-size="10.00">CaptureClient.GetBuffer</text>
</a>
</g>
</g>
<!-- Node1&#45;&gt;Node2 -->
<g id="edge1_Node000001_Node000002" class="edge">
<title>Node1&#45;&gt;Node2</title>
<g id="a_edge1_Node000001_Node000002"><a xlink:title=" ">
<path fill="none" stroke="#63b8ff" d="M893.2,-51.65C885.17,-52.74 877.13,-53.83 869.33,-54.89"/>
<polygon fill="#63b8ff" stroke="#63b8ff" points="893.59,-55.13 903.03,-50.31 892.65,-48.19 893.59,-55.13"/>
</a>
</g>
</g>
<!-- Node3 -->
<g id="Node000003" class="node">
<title>Node3</title>
<g id="a_Node000003"><a xlink:href="class_n_audio_1_1_core_audio_api_1_1_audio_capture_client.html#ae74d4bb48eebb73044d484c5ddce295e" target="_top" xlink:title="Retrieves a pointer to the buffer that is ready for the next capture.">
<polygon fill="white" stroke="#666666" points="869,-30.5 730,-30.5 730,0 869,0 869,-30.5"/>
<text text-anchor="start" x="738" y="-17" font-family="Helvetica,sans-Serif" font-size="10.00">NAudio.CoreAudioApi.Audio</text>
<text text-anchor="middle" x="799.5" y="-5.75" font-family="Helvetica,sans-Serif" font-size="10.00">CaptureClient.GetBuffer</text>
</a>
</g>
</g>
<!-- Node1&#45;&gt;Node3 -->
<g id="edge2_Node000001_Node000003" class="edge">
<title>Node1&#45;&gt;Node3</title>
<g id="a_edge2_Node000001_Node000003"><a xlink:title=" ">
<path fill="none" stroke="#63b8ff" d="M893.2,-27.35C885.17,-26.3 877.13,-25.25 869.33,-24.23"/>
<polygon fill="#63b8ff" stroke="#63b8ff" points="892.66,-30.81 903.03,-28.63 893.56,-23.87 892.66,-30.81"/>
</a>
</g>
</g>
<!-- Node4 -->
<g id="Node000004" class="node">
<title>Node4</title>
<g id="a_Node000004"><a xlink:href="class_n_audio_1_1_core_audio_api_1_1_wasapi_capture.html#a2216734b29bace018dea78a20c0a1d29" target="_top" xlink:title="Reads the next packet from the AudioCaptureClient and invokes the DataAvailable event with the captur...">
<polygon fill="white" stroke="#666666" points="694,-30.5 547.5,-30.5 547.5,0 694,0 694,-30.5"/>
<text text-anchor="start" x="555.5" y="-17" font-family="Helvetica,sans-Serif" font-size="10.00">NAudio.CoreAudioApi.Wasapi</text>
<text text-anchor="middle" x="620.75" y="-5.75" font-family="Helvetica,sans-Serif" font-size="10.00">Capture.ReadNextPacket</text>
</a>
</g>
</g>
<!-- Node3&#45;&gt;Node4 -->
<g id="edge3_Node000003_Node000004" class="edge">
<title>Node3&#45;&gt;Node4</title>
<g id="a_edge3_Node000003_Node000004"><a xlink:title=" ">
<path fill="none" stroke="#63b8ff" d="M718.18,-15.25C710.29,-15.25 702.31,-15.25 694.49,-15.25"/>
<polygon fill="#63b8ff" stroke="#63b8ff" points="718.14,-18.75 728.14,-15.25 718.14,-11.75 718.14,-18.75"/>
</a>
</g>
</g>
<!-- Node5 -->
<g id="Node000005" class="node">
<title>Node5</title>
<g id="a_Node000005"><a xlink:href="class_n_audio_1_1_core_audio_api_1_1_wasapi_capture.html#a7cb69793688b5fe4ed40f72ea54f17a8" target="_top" xlink:title="Records audio using the provided client &#160;and manages the capture state.">
<polygon fill="white" stroke="#666666" points="511.5,-30.5 365,-30.5 365,0 511.5,0 511.5,-30.5"/>
<text text-anchor="start" x="373" y="-17" font-family="Helvetica,sans-Serif" font-size="10.00">NAudio.CoreAudioApi.Wasapi</text>
<text text-anchor="middle" x="438.25" y="-5.75" font-family="Helvetica,sans-Serif" font-size="10.00">Capture.DoRecording</text>
</a>
</g>
</g>
<!-- Node4&#45;&gt;Node5 -->
<g id="edge4_Node000004_Node000005" class="edge">
<title>Node4&#45;&gt;Node5</title>
<g id="a_edge4_Node000004_Node000005"><a xlink:title=" ">
<path fill="none" stroke="#63b8ff" d="M535.81,-15.25C527.77,-15.25 519.66,-15.25 511.74,-15.25"/>
<polygon fill="#63b8ff" stroke="#63b8ff" points="535.6,-18.75 545.6,-15.25 535.6,-11.75 535.6,-18.75"/>
</a>
</g>
</g>
<!-- Node6 -->
<g id="Node000006" class="node">
<title>Node6</title>
<g id="a_Node000006"><a xlink:href="class_n_audio_1_1_core_audio_api_1_1_wasapi_capture.html#af5115bd377ab8a0c1d17ab0b5146bafd" target="_top" xlink:title="Captures audio using the provided AudioClient and raises an event when recording is stopped.">
<polygon fill="white" stroke="#666666" points="329,-30.5 182.5,-30.5 182.5,0 329,0 329,-30.5"/>
<text text-anchor="start" x="190.5" y="-17" font-family="Helvetica,sans-Serif" font-size="10.00">NAudio.CoreAudioApi.Wasapi</text>
<text text-anchor="middle" x="255.75" y="-5.75" font-family="Helvetica,sans-Serif" font-size="10.00">Capture.CaptureThread</text>
</a>
</g>
</g>
<!-- Node5&#45;&gt;Node6 -->
<g id="edge5_Node000005_Node000006" class="edge">
<title>Node5&#45;&gt;Node6</title>
<g id="a_edge5_Node000005_Node000006"><a xlink:title=" ">
<path fill="none" stroke="#63b8ff" d="M353.31,-15.25C345.27,-15.25 337.16,-15.25 329.24,-15.25"/>
<polygon fill="#63b8ff" stroke="#63b8ff" points="353.1,-18.75 363.1,-15.25 353.1,-11.75 353.1,-18.75"/>
</a>
</g>
</g>
<!-- Node7 -->
<g id="Node000007" class="node">
<title>Node7</title>
<g id="a_Node000007"><a xlink:href="class_n_audio_1_1_core_audio_api_1_1_wasapi_capture.html#a9eb95d2da72e384fefe2e071c64784ee" target="_top" xlink:title="Starts the recording process.">
<polygon fill="white" stroke="#666666" points="146.5,-30.5 0,-30.5 0,0 146.5,0 146.5,-30.5"/>
<text text-anchor="start" x="8" y="-17" font-family="Helvetica,sans-Serif" font-size="10.00">NAudio.CoreAudioApi.Wasapi</text>
<text text-anchor="middle" x="73.25" y="-5.75" font-family="Helvetica,sans-Serif" font-size="10.00">Capture.StartRecording</text>
</a>
</g>
</g>
<!-- Node6&#45;&gt;Node7 -->
<g id="edge6_Node000006_Node000007" class="edge">
<title>Node6&#45;&gt;Node7</title>
<g id="a_edge6_Node000006_Node000007"><a xlink:title=" ">
<path fill="none" stroke="#63b8ff" d="M170.81,-15.25C162.77,-15.25 154.66,-15.25 146.74,-15.25"/>
<polygon fill="#63b8ff" stroke="#63b8ff" points="170.6,-18.75 180.6,-15.25 170.6,-11.75 170.6,-18.75"/>
</a>
</g>
</g>
</g>
</svg>
