<?xml version="1.0" encoding="UTF-8" standalone="no"?>
<!DOCTYPE svg PUBLIC "-//W3C//DTD SVG 1.1//EN"
 "http://www.w3.org/Graphics/SVG/1.1/DTD/svg11.dtd">
<!-- Generated by graphviz version 10.0.1 (20240210.2158)
 -->
<!-- Title: NAudio.Wave.SampleProviders.ISampleChunkConverter Pages: 1 -->
<svg width="1365pt" height="269pt"
 viewBox="0.00 0.00 1365.00 269.00" xmlns="http://www.w3.org/2000/svg" xmlns:xlink="http://www.w3.org/1999/xlink">
<g id="graph0" class="graph" transform="scale(1 1) rotate(0) translate(4 265)">
<title>NAudio.Wave.SampleProviders.ISampleChunkConverter</title>
<!-- Node1 -->
<g id="Node000001" class="node">
<title>Node1</title>
<g id="a_Node000001"><a xlink:title="Sample provider interface to make WaveChannel32 extensible Still a bit ugly, hence internal at the mo...">
<polygon fill="#999999" stroke="none" points="746,-261 596,-261 596,-171 746,-171 746,-261"/>
<text text-anchor="start" x="600.88" y="-247.5" font-family="Helvetica,sans-Serif" font-size="10.00">NAudio.Wave.SampleProviders.</text>
<text text-anchor="start" x="617.38" y="-236.25" font-family="Helvetica,sans-Serif" font-size="10.00">ISampleChunkConverter</text>
<text text-anchor="start" x="669.5" y="-221.5" font-family="Helvetica,sans-Serif" font-size="10.00"> </text>
<text text-anchor="start" x="614" y="-206.5" font-family="Helvetica,sans-Serif" font-size="10.00">+</text>
<text text-anchor="start" x="638" y="-206.5" font-family="Helvetica,sans-Serif" font-size="10.00">Supports()</text>
<text text-anchor="start" x="614" y="-191.5" font-family="Helvetica,sans-Serif" font-size="10.00">+</text>
<text text-anchor="start" x="638" y="-191.5" font-family="Helvetica,sans-Serif" font-size="10.00">LoadNextChunk()</text>
<text text-anchor="start" x="614" y="-176.5" font-family="Helvetica,sans-Serif" font-size="10.00">+</text>
<text text-anchor="start" x="638" y="-176.5" font-family="Helvetica,sans-Serif" font-size="10.00">GetNextSample()</text>
<polygon fill="#666666" stroke="#666666" points="596,-233 596,-233 746,-233 746,-233 596,-233"/>
<polygon fill="#666666" stroke="#666666" points="596,-218 596,-218 746,-218 746,-218 596,-218"/>
<polygon fill="none" stroke="#666666" points="596,-171 596,-261 746,-261 746,-171 596,-171"/>
</a>
</g>
</g>
<!-- Node2 -->
<g id="Node000002" class="node">
<title>Node2</title>
<g id="a_Node000002"><a xlink:href="class_n_audio_1_1_wave_1_1_sample_providers_1_1_mono16_sample_chunk_converter.html" target="_top" xlink:title=" ">
<polygon fill="white" stroke="none" points="150,-135 0,-135 0,0 150,0 150,-135"/>
<text text-anchor="start" x="4.88" y="-121.5" font-family="Helvetica,sans-Serif" font-size="10.00">NAudio.Wave.SampleProviders.</text>
<text text-anchor="start" x="5.62" y="-110.25" font-family="Helvetica,sans-Serif" font-size="10.00">Mono16SampleChunkConverter</text>
<text text-anchor="start" x="18.5" y="-95.5" font-family="Helvetica,sans-Serif" font-size="10.00">&#45;</text>
<text text-anchor="start" x="40" y="-95.5" font-family="Helvetica,sans-Serif" font-size="10.00">sourceSample</text>
<text text-anchor="start" x="18.5" y="-80.5" font-family="Helvetica,sans-Serif" font-size="10.00">&#45;</text>
<text text-anchor="start" x="40" y="-80.5" font-family="Helvetica,sans-Serif" font-size="10.00">sourceBuffer</text>
<text text-anchor="start" x="18.5" y="-65.5" font-family="Helvetica,sans-Serif" font-size="10.00">&#45;</text>
<text text-anchor="start" x="40" y="-65.5" font-family="Helvetica,sans-Serif" font-size="10.00">sourceWaveBuffer</text>
<text text-anchor="start" x="18.5" y="-50.5" font-family="Helvetica,sans-Serif" font-size="10.00">&#45;</text>
<text text-anchor="start" x="40" y="-50.5" font-family="Helvetica,sans-Serif" font-size="10.00">sourceSamples</text>
<text text-anchor="start" x="17" y="-35.5" font-family="Helvetica,sans-Serif" font-size="10.00">+</text>
<text text-anchor="start" x="40" y="-35.5" font-family="Helvetica,sans-Serif" font-size="10.00">Supports()</text>
<text text-anchor="start" x="17" y="-20.5" font-family="Helvetica,sans-Serif" font-size="10.00">+</text>
<text text-anchor="start" x="40" y="-20.5" font-family="Helvetica,sans-Serif" font-size="10.00">LoadNextChunk()</text>
<text text-anchor="start" x="17" y="-5.5" font-family="Helvetica,sans-Serif" font-size="10.00">+</text>
<text text-anchor="start" x="40" y="-5.5" font-family="Helvetica,sans-Serif" font-size="10.00">GetNextSample()</text>
<polygon fill="#666666" stroke="#666666" points="0,-107 0,-107 150,-107 150,-107 0,-107"/>
<polygon fill="#666666" stroke="#666666" points="0,-47 0,-47 38,-47 38,-47 0,-47"/>
<polygon fill="#666666" stroke="#666666" points="38,-47 38,-47 150,-47 150,-47 38,-47"/>
<polygon fill="none" stroke="#666666" points="0,0 0,-135 150,-135 150,0 0,0"/>
</a>
</g>
</g>
<!-- Node1&#45;&gt;Node2 -->
<g id="edge1_Node000001_Node000002" class="edge">
<title>Node1&#45;&gt;Node2</title>
<g id="a_edge1_Node000001_Node000002"><a xlink:title=" ">
<path fill="none" stroke="#63b8ff" d="M584.59,-214.75C479.7,-211.52 299.43,-196.42 159,-135 155.93,-133.66 152.88,-132.18 149.86,-130.58"/>
<polygon fill="none" stroke="#63b8ff" points="584.46,-218.25 594.55,-215.03 584.65,-211.25 584.46,-218.25"/>
</a>
</g>
</g>
<!-- Node3 -->
<g id="Node000003" class="node">
<title>Node3</title>
<g id="a_Node000003"><a xlink:href="class_n_audio_1_1_wave_1_1_sample_providers_1_1_mono24_sample_chunk_converter.html" target="_top" xlink:title=" ">
<polygon fill="white" stroke="none" points="318,-127.5 168,-127.5 168,-7.5 318,-7.5 318,-127.5"/>
<text text-anchor="start" x="172.88" y="-114" font-family="Helvetica,sans-Serif" font-size="10.00">NAudio.Wave.SampleProviders.</text>
<text text-anchor="start" x="173.62" y="-102.75" font-family="Helvetica,sans-Serif" font-size="10.00">Mono24SampleChunkConverter</text>
<text text-anchor="start" x="187.5" y="-88" font-family="Helvetica,sans-Serif" font-size="10.00">&#45;</text>
<text text-anchor="start" x="210" y="-88" font-family="Helvetica,sans-Serif" font-size="10.00">offset</text>
<text text-anchor="start" x="187.5" y="-73" font-family="Helvetica,sans-Serif" font-size="10.00">&#45;</text>
<text text-anchor="start" x="210" y="-73" font-family="Helvetica,sans-Serif" font-size="10.00">sourceBuffer</text>
<text text-anchor="start" x="187.5" y="-58" font-family="Helvetica,sans-Serif" font-size="10.00">&#45;</text>
<text text-anchor="start" x="210" y="-58" font-family="Helvetica,sans-Serif" font-size="10.00">sourceBytes</text>
<text text-anchor="start" x="186" y="-43" font-family="Helvetica,sans-Serif" font-size="10.00">+</text>
<text text-anchor="start" x="210" y="-43" font-family="Helvetica,sans-Serif" font-size="10.00">Supports()</text>
<text text-anchor="start" x="186" y="-28" font-family="Helvetica,sans-Serif" font-size="10.00">+</text>
<text text-anchor="start" x="210" y="-28" font-family="Helvetica,sans-Serif" font-size="10.00">LoadNextChunk()</text>
<text text-anchor="start" x="186" y="-13" font-family="Helvetica,sans-Serif" font-size="10.00">+</text>
<text text-anchor="start" x="210" y="-13" font-family="Helvetica,sans-Serif" font-size="10.00">GetNextSample()</text>
<polygon fill="#666666" stroke="#666666" points="168,-99.5 168,-99.5 318,-99.5 318,-99.5 168,-99.5"/>
<polygon fill="#666666" stroke="#666666" points="168,-54.5 168,-54.5 208,-54.5 208,-54.5 168,-54.5"/>
<polygon fill="#666666" stroke="#666666" points="208,-54.5 208,-54.5 318,-54.5 318,-54.5 208,-54.5"/>
<polygon fill="none" stroke="#666666" points="168,-7.5 168,-127.5 318,-127.5 318,-7.5 168,-7.5"/>
</a>
</g>
</g>
<!-- Node1&#45;&gt;Node3 -->
<g id="edge2_Node000001_Node000003" class="edge">
<title>Node1&#45;&gt;Node3</title>
<g id="a_edge2_Node000001_Node000003"><a xlink:title=" ">
<path fill="none" stroke="#63b8ff" d="M584.81,-205.65C513.03,-195.39 409.58,-174.8 327,-135 322.31,-132.74 317.64,-130.18 313.04,-127.41"/>
<polygon fill="none" stroke="#63b8ff" points="584.16,-209.09 594.55,-207 585.12,-202.16 584.16,-209.09"/>
</a>
</g>
</g>
<!-- Node4 -->
<g id="Node000004" class="node">
<title>Node4</title>
<g id="a_Node000004"><a xlink:href="class_n_audio_1_1_wave_1_1_sample_providers_1_1_mono8_sample_chunk_converter.html" target="_top" xlink:title=" ">
<polygon fill="white" stroke="none" points="486,-127.5 336,-127.5 336,-7.5 486,-7.5 486,-127.5"/>
<text text-anchor="start" x="340.88" y="-114" font-family="Helvetica,sans-Serif" font-size="10.00">NAudio.Wave.SampleProviders.</text>
<text text-anchor="start" x="344.25" y="-102.75" font-family="Helvetica,sans-Serif" font-size="10.00">Mono8SampleChunkConverter</text>
<text text-anchor="start" x="355.5" y="-88" font-family="Helvetica,sans-Serif" font-size="10.00">&#45;</text>
<text text-anchor="start" x="378" y="-88" font-family="Helvetica,sans-Serif" font-size="10.00">offset</text>
<text text-anchor="start" x="355.5" y="-73" font-family="Helvetica,sans-Serif" font-size="10.00">&#45;</text>
<text text-anchor="start" x="378" y="-73" font-family="Helvetica,sans-Serif" font-size="10.00">sourceBuffer</text>
<text text-anchor="start" x="355.5" y="-58" font-family="Helvetica,sans-Serif" font-size="10.00">&#45;</text>
<text text-anchor="start" x="378" y="-58" font-family="Helvetica,sans-Serif" font-size="10.00">sourceBytes</text>
<text text-anchor="start" x="354" y="-43" font-family="Helvetica,sans-Serif" font-size="10.00">+</text>
<text text-anchor="start" x="378" y="-43" font-family="Helvetica,sans-Serif" font-size="10.00">Supports()</text>
<text text-anchor="start" x="354" y="-28" font-family="Helvetica,sans-Serif" font-size="10.00">+</text>
<text text-anchor="start" x="378" y="-28" font-family="Helvetica,sans-Serif" font-size="10.00">LoadNextChunk()</text>
<text text-anchor="start" x="354" y="-13" font-family="Helvetica,sans-Serif" font-size="10.00">+</text>
<text text-anchor="start" x="378" y="-13" font-family="Helvetica,sans-Serif" font-size="10.00">GetNextSample()</text>
<polygon fill="#666666" stroke="#666666" points="336,-99.5 336,-99.5 486,-99.5 486,-99.5 336,-99.5"/>
<polygon fill="#666666" stroke="#666666" points="336,-54.5 336,-54.5 376,-54.5 376,-54.5 336,-54.5"/>
<polygon fill="#666666" stroke="#666666" points="376,-54.5 376,-54.5 486,-54.5 486,-54.5 376,-54.5"/>
<polygon fill="none" stroke="#666666" points="336,-7.5 336,-127.5 486,-127.5 486,-7.5 336,-7.5"/>
</a>
</g>
</g>
<!-- Node1&#45;&gt;Node4 -->
<g id="edge3_Node000001_Node000004" class="edge">
<title>Node1&#45;&gt;Node4</title>
<g id="a_edge3_Node000001_Node000004"><a xlink:title=" ">
<path fill="none" stroke="#63b8ff" d="M585.87,-181.29C556.3,-168.3 523.44,-152.37 495,-135 491.03,-132.58 487.04,-129.99 483.06,-127.3"/>
<polygon fill="none" stroke="#63b8ff" points="584.22,-184.39 594.79,-185.16 587.01,-177.97 584.22,-184.39"/>
</a>
</g>
</g>
<!-- Node5 -->
<g id="Node000005" class="node">
<title>Node5</title>
<g id="a_Node000005"><a xlink:href="class_n_audio_1_1_wave_1_1_sample_providers_1_1_mono_float_sample_chunk_converter.html" target="_top" xlink:title=" ">
<polygon fill="white" stroke="none" points="664,-135 504,-135 504,0 664,0 664,-135"/>
<text text-anchor="start" x="509" y="-121.5" font-family="Helvetica,sans-Serif" font-size="10.00">NAudio.Wave.SampleProviders.</text>
<text text-anchor="start" x="509" y="-110.25" font-family="Helvetica,sans-Serif" font-size="10.00">MonoFloatSampleChunkConverter</text>
<text text-anchor="start" x="525" y="-95.5" font-family="Helvetica,sans-Serif" font-size="10.00">&#45;</text>
<text text-anchor="start" x="549" y="-95.5" font-family="Helvetica,sans-Serif" font-size="10.00">sourceSample</text>
<text text-anchor="start" x="525" y="-80.5" font-family="Helvetica,sans-Serif" font-size="10.00">&#45;</text>
<text text-anchor="start" x="549" y="-80.5" font-family="Helvetica,sans-Serif" font-size="10.00">sourceBuffer</text>
<text text-anchor="start" x="525" y="-65.5" font-family="Helvetica,sans-Serif" font-size="10.00">&#45;</text>
<text text-anchor="start" x="549" y="-65.5" font-family="Helvetica,sans-Serif" font-size="10.00">sourceWaveBuffer</text>
<text text-anchor="start" x="525" y="-50.5" font-family="Helvetica,sans-Serif" font-size="10.00">&#45;</text>
<text text-anchor="start" x="549" y="-50.5" font-family="Helvetica,sans-Serif" font-size="10.00">sourceSamples</text>
<text text-anchor="start" x="523.5" y="-35.5" font-family="Helvetica,sans-Serif" font-size="10.00">+</text>
<text text-anchor="start" x="549" y="-35.5" font-family="Helvetica,sans-Serif" font-size="10.00">Supports()</text>
<text text-anchor="start" x="523.5" y="-20.5" font-family="Helvetica,sans-Serif" font-size="10.00">+</text>
<text text-anchor="start" x="549" y="-20.5" font-family="Helvetica,sans-Serif" font-size="10.00">LoadNextChunk()</text>
<text text-anchor="start" x="523.5" y="-5.5" font-family="Helvetica,sans-Serif" font-size="10.00">+</text>
<text text-anchor="start" x="549" y="-5.5" font-family="Helvetica,sans-Serif" font-size="10.00">GetNextSample()</text>
<polygon fill="#666666" stroke="#666666" points="504,-107 504,-107 664,-107 664,-107 504,-107"/>
<polygon fill="#666666" stroke="#666666" points="504,-47 504,-47 547,-47 547,-47 504,-47"/>
<polygon fill="#666666" stroke="#666666" points="547,-47 547,-47 664,-47 664,-47 547,-47"/>
<polygon fill="none" stroke="#666666" points="504,0 504,-135 664,-135 664,0 504,0"/>
</a>
</g>
</g>
<!-- Node1&#45;&gt;Node5 -->
<g id="edge4_Node000001_Node000005" class="edge">
<title>Node1&#45;&gt;Node5</title>
<g id="a_edge4_Node000001_Node000005"><a xlink:title=" ">
<path fill="none" stroke="#63b8ff" d="M639.06,-161.21C633.97,-152.65 628.67,-143.71 623.44,-134.91"/>
<polygon fill="none" stroke="#63b8ff" points="636.01,-162.93 644.12,-169.74 642.03,-159.36 636.01,-162.93"/>
</a>
</g>
</g>
<!-- Node6 -->
<g id="Node000006" class="node">
<title>Node6</title>
<g id="a_Node000006"><a xlink:href="class_n_audio_1_1_wave_1_1_sample_providers_1_1_stereo16_sample_chunk_converter.html" target="_top" xlink:title=" ">
<polygon fill="white" stroke="none" points="835.5,-135 682.5,-135 682.5,0 835.5,0 835.5,-135"/>
<text text-anchor="start" x="687.38" y="-121.5" font-family="Helvetica,sans-Serif" font-size="10.00">NAudio.Wave.SampleProviders.</text>
<text text-anchor="start" x="687.38" y="-110.25" font-family="Helvetica,sans-Serif" font-size="10.00">Stereo16SampleChunkConverter</text>
<text text-anchor="start" x="701.5" y="-95.5" font-family="Helvetica,sans-Serif" font-size="10.00">&#45;</text>
<text text-anchor="start" x="723.5" y="-95.5" font-family="Helvetica,sans-Serif" font-size="10.00">sourceSample</text>
<text text-anchor="start" x="701.5" y="-80.5" font-family="Helvetica,sans-Serif" font-size="10.00">&#45;</text>
<text text-anchor="start" x="723.5" y="-80.5" font-family="Helvetica,sans-Serif" font-size="10.00">sourceBuffer</text>
<text text-anchor="start" x="701.5" y="-65.5" font-family="Helvetica,sans-Serif" font-size="10.00">&#45;</text>
<text text-anchor="start" x="723.5" y="-65.5" font-family="Helvetica,sans-Serif" font-size="10.00">sourceWaveBuffer</text>
<text text-anchor="start" x="701.5" y="-50.5" font-family="Helvetica,sans-Serif" font-size="10.00">&#45;</text>
<text text-anchor="start" x="723.5" y="-50.5" font-family="Helvetica,sans-Serif" font-size="10.00">sourceSamples</text>
<text text-anchor="start" x="700" y="-35.5" font-family="Helvetica,sans-Serif" font-size="10.00">+</text>
<text text-anchor="start" x="723.5" y="-35.5" font-family="Helvetica,sans-Serif" font-size="10.00">Supports()</text>
<text text-anchor="start" x="700" y="-20.5" font-family="Helvetica,sans-Serif" font-size="10.00">+</text>
<text text-anchor="start" x="723.5" y="-20.5" font-family="Helvetica,sans-Serif" font-size="10.00">LoadNextChunk()</text>
<text text-anchor="start" x="700" y="-5.5" font-family="Helvetica,sans-Serif" font-size="10.00">+</text>
<text text-anchor="start" x="723.5" y="-5.5" font-family="Helvetica,sans-Serif" font-size="10.00">GetNextSample()</text>
<polygon fill="#666666" stroke="#666666" points="682.5,-107 682.5,-107 835.5,-107 835.5,-107 682.5,-107"/>
<polygon fill="#666666" stroke="#666666" points="682.5,-47 682.5,-47 721.5,-47 721.5,-47 682.5,-47"/>
<polygon fill="#666666" stroke="#666666" points="721.5,-47 721.5,-47 835.5,-47 835.5,-47 721.5,-47"/>
<polygon fill="none" stroke="#666666" points="682.5,0 682.5,-135 835.5,-135 835.5,0 682.5,0"/>
</a>
</g>
</g>
<!-- Node1&#45;&gt;Node6 -->
<g id="edge5_Node000001_Node000006" class="edge">
<title>Node1&#45;&gt;Node6</title>
<g id="a_edge5_Node000001_Node000006"><a xlink:title=" ">
<path fill="none" stroke="#63b8ff" d="M703.31,-161.21C708.45,-152.65 713.82,-143.71 719.11,-134.91"/>
<polygon fill="none" stroke="#63b8ff" points="700.33,-159.37 698.18,-169.75 706.33,-162.98 700.33,-159.37"/>
</a>
</g>
</g>
<!-- Node7 -->
<g id="Node000007" class="node">
<title>Node7</title>
<g id="a_Node000007"><a xlink:href="class_n_audio_1_1_wave_1_1_sample_providers_1_1_stereo24_sample_chunk_converter.html" target="_top" xlink:title=" ">
<polygon fill="white" stroke="none" points="1006.5,-127.5 853.5,-127.5 853.5,-7.5 1006.5,-7.5 1006.5,-127.5"/>
<text text-anchor="start" x="858.38" y="-114" font-family="Helvetica,sans-Serif" font-size="10.00">NAudio.Wave.SampleProviders.</text>
<text text-anchor="start" x="858.38" y="-102.75" font-family="Helvetica,sans-Serif" font-size="10.00">Stereo24SampleChunkConverter</text>
<text text-anchor="start" x="873.5" y="-88" font-family="Helvetica,sans-Serif" font-size="10.00">&#45;</text>
<text text-anchor="start" x="896.5" y="-88" font-family="Helvetica,sans-Serif" font-size="10.00">offset</text>
<text text-anchor="start" x="873.5" y="-73" font-family="Helvetica,sans-Serif" font-size="10.00">&#45;</text>
<text text-anchor="start" x="896.5" y="-73" font-family="Helvetica,sans-Serif" font-size="10.00">sourceBuffer</text>
<text text-anchor="start" x="873.5" y="-58" font-family="Helvetica,sans-Serif" font-size="10.00">&#45;</text>
<text text-anchor="start" x="896.5" y="-58" font-family="Helvetica,sans-Serif" font-size="10.00">sourceBytes</text>
<text text-anchor="start" x="872" y="-43" font-family="Helvetica,sans-Serif" font-size="10.00">+</text>
<text text-anchor="start" x="896.5" y="-43" font-family="Helvetica,sans-Serif" font-size="10.00">Supports()</text>
<text text-anchor="start" x="872" y="-28" font-family="Helvetica,sans-Serif" font-size="10.00">+</text>
<text text-anchor="start" x="896.5" y="-28" font-family="Helvetica,sans-Serif" font-size="10.00">LoadNextChunk()</text>
<text text-anchor="start" x="872" y="-13" font-family="Helvetica,sans-Serif" font-size="10.00">+</text>
<text text-anchor="start" x="896.5" y="-13" font-family="Helvetica,sans-Serif" font-size="10.00">GetNextSample()</text>
<polygon fill="#666666" stroke="#666666" points="853.5,-99.5 853.5,-99.5 1006.5,-99.5 1006.5,-99.5 853.5,-99.5"/>
<polygon fill="#666666" stroke="#666666" points="853.5,-54.5 853.5,-54.5 894.5,-54.5 894.5,-54.5 853.5,-54.5"/>
<polygon fill="#666666" stroke="#666666" points="894.5,-54.5 894.5,-54.5 1006.5,-54.5 1006.5,-54.5 894.5,-54.5"/>
<polygon fill="none" stroke="#666666" points="853.5,-7.5 853.5,-127.5 1006.5,-127.5 1006.5,-7.5 853.5,-7.5"/>
</a>
</g>
</g>
<!-- Node1&#45;&gt;Node7 -->
<g id="edge6_Node000001_Node000007" class="edge">
<title>Node1&#45;&gt;Node7</title>
<g id="a_edge6_Node000001_Node000007"><a xlink:title=" ">
<path fill="none" stroke="#63b8ff" d="M756.26,-180.56C785.18,-167.65 817.19,-151.95 845,-135 849,-132.56 853.03,-129.97 857.04,-127.27"/>
<polygon fill="none" stroke="#63b8ff" points="754.88,-177.35 747.14,-184.58 757.71,-183.75 754.88,-177.35"/>
</a>
</g>
</g>
<!-- Node8 -->
<g id="Node000008" class="node">
<title>Node8</title>
<g id="a_Node000008"><a xlink:href="class_n_audio_1_1_wave_1_1_sample_providers_1_1_stereo8_sample_chunk_converter.html" target="_top" xlink:title=" ">
<polygon fill="white" stroke="none" points="1175,-127.5 1025,-127.5 1025,-7.5 1175,-7.5 1175,-127.5"/>
<text text-anchor="start" x="1029.88" y="-114" font-family="Helvetica,sans-Serif" font-size="10.00">NAudio.Wave.SampleProviders.</text>
<text text-anchor="start" x="1031" y="-102.75" font-family="Helvetica,sans-Serif" font-size="10.00">Stereo8SampleChunkConverter</text>
<text text-anchor="start" x="1044.5" y="-88" font-family="Helvetica,sans-Serif" font-size="10.00">&#45;</text>
<text text-anchor="start" x="1067" y="-88" font-family="Helvetica,sans-Serif" font-size="10.00">offset</text>
<text text-anchor="start" x="1044.5" y="-73" font-family="Helvetica,sans-Serif" font-size="10.00">&#45;</text>
<text text-anchor="start" x="1067" y="-73" font-family="Helvetica,sans-Serif" font-size="10.00">sourceBuffer</text>
<text text-anchor="start" x="1044.5" y="-58" font-family="Helvetica,sans-Serif" font-size="10.00">&#45;</text>
<text text-anchor="start" x="1067" y="-58" font-family="Helvetica,sans-Serif" font-size="10.00">sourceBytes</text>
<text text-anchor="start" x="1043" y="-43" font-family="Helvetica,sans-Serif" font-size="10.00">+</text>
<text text-anchor="start" x="1067" y="-43" font-family="Helvetica,sans-Serif" font-size="10.00">Supports()</text>
<text text-anchor="start" x="1043" y="-28" font-family="Helvetica,sans-Serif" font-size="10.00">+</text>
<text text-anchor="start" x="1067" y="-28" font-family="Helvetica,sans-Serif" font-size="10.00">LoadNextChunk()</text>
<text text-anchor="start" x="1043" y="-13" font-family="Helvetica,sans-Serif" font-size="10.00">+</text>
<text text-anchor="start" x="1067" y="-13" font-family="Helvetica,sans-Serif" font-size="10.00">GetNextSample()</text>
<polygon fill="#666666" stroke="#666666" points="1025,-99.5 1025,-99.5 1175,-99.5 1175,-99.5 1025,-99.5"/>
<polygon fill="#666666" stroke="#666666" points="1025,-54.5 1025,-54.5 1065,-54.5 1065,-54.5 1025,-54.5"/>
<polygon fill="#666666" stroke="#666666" points="1065,-54.5 1065,-54.5 1175,-54.5 1175,-54.5 1065,-54.5"/>
<polygon fill="none" stroke="#666666" points="1025,-7.5 1025,-127.5 1175,-127.5 1175,-7.5 1025,-7.5"/>
</a>
</g>
</g>
<!-- Node1&#45;&gt;Node8 -->
<g id="edge7_Node000001_Node000008" class="edge">
<title>Node1&#45;&gt;Node8</title>
<g id="a_edge7_Node000001_Node000008"><a xlink:title=" ">
<path fill="none" stroke="#63b8ff" d="M757.1,-205.74C829.1,-195.53 933.05,-174.94 1016,-135 1020.69,-132.74 1025.36,-130.18 1029.96,-127.41"/>
<polygon fill="none" stroke="#63b8ff" points="756.76,-202.25 747.33,-207.08 757.71,-209.19 756.76,-202.25"/>
</a>
</g>
</g>
<!-- Node9 -->
<g id="Node000009" class="node">
<title>Node9</title>
<g id="a_Node000009"><a xlink:href="class_n_audio_1_1_wave_1_1_sample_providers_1_1_stereo_float_sample_chunk_converter.html" target="_top" xlink:title=" ">
<polygon fill="white" stroke="none" points="1357,-135 1193,-135 1193,0 1357,0 1357,-135"/>
<text text-anchor="start" x="1197.75" y="-121.5" font-family="Helvetica,sans-Serif" font-size="10.00">NAudio.Wave.SampleProviders.</text>
<text text-anchor="start" x="1197.75" y="-110.25" font-family="Helvetica,sans-Serif" font-size="10.00">StereoFloatSampleChunkConverter</text>
<text text-anchor="start" x="1215" y="-95.5" font-family="Helvetica,sans-Serif" font-size="10.00">&#45;</text>
<text text-anchor="start" x="1240" y="-95.5" font-family="Helvetica,sans-Serif" font-size="10.00">sourceSample</text>
<text text-anchor="start" x="1215" y="-80.5" font-family="Helvetica,sans-Serif" font-size="10.00">&#45;</text>
<text text-anchor="start" x="1240" y="-80.5" font-family="Helvetica,sans-Serif" font-size="10.00">sourceBuffer</text>
<text text-anchor="start" x="1215" y="-65.5" font-family="Helvetica,sans-Serif" font-size="10.00">&#45;</text>
<text text-anchor="start" x="1240" y="-65.5" font-family="Helvetica,sans-Serif" font-size="10.00">sourceWaveBuffer</text>
<text text-anchor="start" x="1215" y="-50.5" font-family="Helvetica,sans-Serif" font-size="10.00">&#45;</text>
<text text-anchor="start" x="1240" y="-50.5" font-family="Helvetica,sans-Serif" font-size="10.00">sourceSamples</text>
<text text-anchor="start" x="1213.5" y="-35.5" font-family="Helvetica,sans-Serif" font-size="10.00">+</text>
<text text-anchor="start" x="1240" y="-35.5" font-family="Helvetica,sans-Serif" font-size="10.00">Supports()</text>
<text text-anchor="start" x="1213.5" y="-20.5" font-family="Helvetica,sans-Serif" font-size="10.00">+</text>
<text text-anchor="start" x="1240" y="-20.5" font-family="Helvetica,sans-Serif" font-size="10.00">LoadNextChunk()</text>
<text text-anchor="start" x="1213.5" y="-5.5" font-family="Helvetica,sans-Serif" font-size="10.00">+</text>
<text text-anchor="start" x="1240" y="-5.5" font-family="Helvetica,sans-Serif" font-size="10.00">GetNextSample()</text>
<polygon fill="#666666" stroke="#666666" points="1193,-107 1193,-107 1357,-107 1357,-107 1193,-107"/>
<polygon fill="#666666" stroke="#666666" points="1193,-47 1193,-47 1238,-47 1238,-47 1193,-47"/>
<polygon fill="#666666" stroke="#666666" points="1238,-47 1238,-47 1357,-47 1357,-47 1238,-47"/>
<polygon fill="none" stroke="#666666" points="1193,0 1193,-135 1357,-135 1357,0 1193,0"/>
</a>
</g>
</g>
<!-- Node1&#45;&gt;Node9 -->
<g id="edge8_Node000001_Node000009" class="edge">
<title>Node1&#45;&gt;Node9</title>
<g id="a_edge8_Node000001_Node000009"><a xlink:title=" ">
<path fill="none" stroke="#63b8ff" d="M757.19,-213.87C861.9,-209.76 1042.14,-193.79 1184,-135 1187.07,-133.73 1190.14,-132.33 1193.19,-130.83"/>
<polygon fill="none" stroke="#63b8ff" points="757.11,-210.37 747.25,-214.23 757.37,-217.37 757.11,-210.37"/>
</a>
</g>
</g>
</g>
</svg>
