<?xml version="1.0" encoding="UTF-8" standalone="no"?>
<!DOCTYPE svg PUBLIC "-//W3C//DTD SVG 1.1//EN"
 "http://www.w3.org/Graphics/SVG/1.1/DTD/svg11.dtd">
<!-- Generated by graphviz version 10.0.1 (20240210.2158)
 -->
<!-- Title: NAudio.Wave.IWaveIn Pages: 1 -->
<svg width="479pt" height="825pt"
 viewBox="0.00 0.00 478.50 825.00" xmlns="http://www.w3.org/2000/svg" xmlns:xlink="http://www.w3.org/1999/xlink">
<g id="graph0" class="graph" transform="scale(1 1) rotate(0) translate(4 821)">
<title>NAudio.Wave.IWaveIn</title>
<!-- Node1 -->
<g id="Node000001" class="node">
<title>Node1</title>
<g id="a_Node000001"><a xlink:title="Generic interface for wave recording.">
<polygon fill="#999999" stroke="none" points="287.5,-732 178.5,-732 178.5,-668 287.5,-668 287.5,-732"/>
<text text-anchor="start" x="183.5" y="-718.5" font-family="Helvetica,sans-Serif" font-size="10.00">NAudio.Wave.IWaveIn</text>
<text text-anchor="start" x="187.5" y="-703.5" font-family="Helvetica,sans-Serif" font-size="10.00">+</text>
<text text-anchor="start" x="202.5" y="-703.5" font-family="Helvetica,sans-Serif" font-size="10.00">WaveFormat</text>
<text text-anchor="start" x="187.5" y="-688.5" font-family="Helvetica,sans-Serif" font-size="10.00">+</text>
<text text-anchor="start" x="202.5" y="-688.5" font-family="Helvetica,sans-Serif" font-size="10.00">StartRecording()</text>
<text text-anchor="start" x="187.5" y="-673.5" font-family="Helvetica,sans-Serif" font-size="10.00">+</text>
<text text-anchor="start" x="202.5" y="-673.5" font-family="Helvetica,sans-Serif" font-size="10.00">StopRecording()</text>
<polygon fill="#666666" stroke="#666666" points="178.5,-715 178.5,-715 287.5,-715 287.5,-715 178.5,-715"/>
<polygon fill="#666666" stroke="#666666" points="178.5,-700 178.5,-700 200.5,-700 200.5,-700 178.5,-700"/>
<polygon fill="#666666" stroke="#666666" points="200.5,-700 200.5,-700 287.5,-700 287.5,-700 200.5,-700"/>
<polygon fill="none" stroke="#666666" points="178.5,-668 178.5,-732 287.5,-732 287.5,-668 178.5,-668"/>
</a>
</g>
</g>
<!-- Node3 -->
<g id="Node000003" class="node">
<title>Node3</title>
<g id="a_Node000003"><a xlink:href="class_n_audio_1_1_core_audio_api_1_1_wasapi_capture.html" target="_top" xlink:title="Audio Capture using Wasapi See http://msdn.microsoft.com/en&#45;us/library/dd370800%28VS....">
<polygon fill="white" stroke="none" points="150,-632 0,-632 0,-152 150,-152 150,-632"/>
<text text-anchor="start" x="9.75" y="-618.5" font-family="Helvetica,sans-Serif" font-size="10.00">NAudio.CoreAudioApi.Wasapi</text>
<text text-anchor="start" x="57.75" y="-607.25" font-family="Helvetica,sans-Serif" font-size="10.00">Capture</text>
<text text-anchor="start" x="4" y="-592.5" font-family="Helvetica,sans-Serif" font-size="10.00">+</text>
<text text-anchor="start" x="14" y="-592.5" font-family="Helvetica,sans-Serif" font-size="10.00">ShareMode</text>
<text text-anchor="start" x="4" y="-577.5" font-family="Helvetica,sans-Serif" font-size="10.00">+</text>
<text text-anchor="start" x="14" y="-577.5" font-family="Helvetica,sans-Serif" font-size="10.00">CaptureState</text>
<text text-anchor="start" x="4" y="-562.5" font-family="Helvetica,sans-Serif" font-size="10.00">+</text>
<text text-anchor="start" x="14" y="-562.5" font-family="Helvetica,sans-Serif" font-size="10.00">WaveFormat</text>
<text text-anchor="start" x="5.5" y="-547.5" font-family="Helvetica,sans-Serif" font-size="10.00">&#45;</text>
<text text-anchor="start" x="14" y="-547.5" font-family="Helvetica,sans-Serif" font-size="10.00">captureState</text>
<text text-anchor="start" x="5.5" y="-532.5" font-family="Helvetica,sans-Serif" font-size="10.00">&#45;</text>
<text text-anchor="start" x="14" y="-532.5" font-family="Helvetica,sans-Serif" font-size="10.00">recordBuffer</text>
<text text-anchor="start" x="5.5" y="-517.5" font-family="Helvetica,sans-Serif" font-size="10.00">&#45;</text>
<text text-anchor="start" x="14" y="-517.5" font-family="Helvetica,sans-Serif" font-size="10.00">captureThread</text>
<text text-anchor="start" x="5.5" y="-502.5" font-family="Helvetica,sans-Serif" font-size="10.00">&#45;</text>
<text text-anchor="start" x="14" y="-502.5" font-family="Helvetica,sans-Serif" font-size="10.00">audioClient</text>
<text text-anchor="start" x="5.5" y="-487.5" font-family="Helvetica,sans-Serif" font-size="10.00">&#45;</text>
<text text-anchor="start" x="14" y="-487.5" font-family="Helvetica,sans-Serif" font-size="10.00">bytesPerFrame</text>
<text text-anchor="start" x="5.5" y="-472.5" font-family="Helvetica,sans-Serif" font-size="10.00">&#45;</text>
<text text-anchor="start" x="14" y="-472.5" font-family="Helvetica,sans-Serif" font-size="10.00">waveFormat</text>
<text text-anchor="start" x="5.5" y="-457.5" font-family="Helvetica,sans-Serif" font-size="10.00">&#45;</text>
<text text-anchor="start" x="14" y="-457.5" font-family="Helvetica,sans-Serif" font-size="10.00">initialized</text>
<text text-anchor="start" x="5.5" y="-442.5" font-family="Helvetica,sans-Serif" font-size="10.00">&#45;</text>
<text text-anchor="start" x="14" y="-442.5" font-family="Helvetica,sans-Serif" font-size="10.00">syncContext</text>
<text text-anchor="start" x="5.5" y="-427.5" font-family="Helvetica,sans-Serif" font-size="10.00">&#45;</text>
<text text-anchor="start" x="14" y="-427.5" font-family="Helvetica,sans-Serif" font-size="10.00">isUsingEventSync</text>
<text text-anchor="start" x="5.5" y="-412.5" font-family="Helvetica,sans-Serif" font-size="10.00">&#45;</text>
<text text-anchor="start" x="14" y="-412.5" font-family="Helvetica,sans-Serif" font-size="10.00">frameEventWaitHandle</text>
<text text-anchor="start" x="5.5" y="-397.5" font-family="Helvetica,sans-Serif" font-size="10.00">&#45;</text>
<text text-anchor="start" x="14" y="-397.5" font-family="Helvetica,sans-Serif" font-size="10.00">audioBufferMillisecondsLength</text>
<text text-anchor="start" x="5.5" y="-382.5" font-family="Helvetica,sans-Serif" font-size="10.00">&#45;</text>
<text text-anchor="start" x="14" y="-382.5" font-family="Helvetica,sans-Serif" font-size="10.00">ReftimesPerSec</text>
<text text-anchor="start" x="5.5" y="-367.5" font-family="Helvetica,sans-Serif" font-size="10.00">&#45;</text>
<text text-anchor="start" x="14" y="-367.5" font-family="Helvetica,sans-Serif" font-size="10.00">ReftimesPerMillisec</text>
<text text-anchor="start" x="4" y="-352.5" font-family="Helvetica,sans-Serif" font-size="10.00">+</text>
<text text-anchor="start" x="14" y="-352.5" font-family="Helvetica,sans-Serif" font-size="10.00">WasapiCapture()</text>
<text text-anchor="start" x="4" y="-337.5" font-family="Helvetica,sans-Serif" font-size="10.00">+</text>
<text text-anchor="start" x="14" y="-337.5" font-family="Helvetica,sans-Serif" font-size="10.00">WasapiCapture()</text>
<text text-anchor="start" x="4" y="-322.5" font-family="Helvetica,sans-Serif" font-size="10.00">+</text>
<text text-anchor="start" x="14" y="-322.5" font-family="Helvetica,sans-Serif" font-size="10.00">WasapiCapture()</text>
<text text-anchor="start" x="4" y="-307.5" font-family="Helvetica,sans-Serif" font-size="10.00">+</text>
<text text-anchor="start" x="14" y="-307.5" font-family="Helvetica,sans-Serif" font-size="10.00">WasapiCapture()</text>
<text text-anchor="start" x="4" y="-292.5" font-family="Helvetica,sans-Serif" font-size="10.00">+</text>
<text text-anchor="start" x="14" y="-292.5" font-family="Helvetica,sans-Serif" font-size="10.00">StartRecording()</text>
<text text-anchor="start" x="4" y="-277.5" font-family="Helvetica,sans-Serif" font-size="10.00">+</text>
<text text-anchor="start" x="14" y="-277.5" font-family="Helvetica,sans-Serif" font-size="10.00">StopRecording()</text>
<text text-anchor="start" x="4" y="-262.5" font-family="Helvetica,sans-Serif" font-size="10.00">+</text>
<text text-anchor="start" x="14" y="-262.5" font-family="Helvetica,sans-Serif" font-size="10.00">Dispose()</text>
<text text-anchor="start" x="4" y="-247.5" font-family="Helvetica,sans-Serif" font-size="10.00">+</text>
<text text-anchor="start" x="14" y="-247.5" font-family="Helvetica,sans-Serif" font-size="10.00">GetDefaultCaptureDevice()</text>
<text text-anchor="start" x="4.38" y="-232.5" font-family="Helvetica,sans-Serif" font-size="10.00">#</text>
<text text-anchor="start" x="14" y="-232.5" font-family="Helvetica,sans-Serif" font-size="10.00">GetAudioClientStreamFlags()</text>
<text text-anchor="start" x="5.5" y="-217.5" font-family="Helvetica,sans-Serif" font-size="10.00">&#45;</text>
<text text-anchor="start" x="14" y="-217.5" font-family="Helvetica,sans-Serif" font-size="10.00">InitializeCaptureDevice()</text>
<text text-anchor="start" x="5.5" y="-202.5" font-family="Helvetica,sans-Serif" font-size="10.00">&#45;</text>
<text text-anchor="start" x="14" y="-202.5" font-family="Helvetica,sans-Serif" font-size="10.00">CaptureThread()</text>
<text text-anchor="start" x="5.5" y="-187.5" font-family="Helvetica,sans-Serif" font-size="10.00">&#45;</text>
<text text-anchor="start" x="14" y="-187.5" font-family="Helvetica,sans-Serif" font-size="10.00">DoRecording()</text>
<text text-anchor="start" x="5.5" y="-172.5" font-family="Helvetica,sans-Serif" font-size="10.00">&#45;</text>
<text text-anchor="start" x="14" y="-172.5" font-family="Helvetica,sans-Serif" font-size="10.00">RaiseRecordingStopped()</text>
<text text-anchor="start" x="5.5" y="-157.5" font-family="Helvetica,sans-Serif" font-size="10.00">&#45;</text>
<text text-anchor="start" x="14" y="-157.5" font-family="Helvetica,sans-Serif" font-size="10.00">ReadNextPacket()</text>
<polygon fill="#666666" stroke="#666666" points="0,-604 0,-604 150,-604 150,-604 0,-604"/>
<polygon fill="#666666" stroke="#666666" points="0,-364 0,-364 12,-364 12,-364 0,-364"/>
<polygon fill="#666666" stroke="#666666" points="12,-364 12,-364 150,-364 150,-364 12,-364"/>
<polygon fill="none" stroke="#666666" points="0,-152 0,-632 150,-632 150,-152 0,-152"/>
</a>
</g>
</g>
<!-- Node1&#45;&gt;Node3 -->
<g id="edge2_Node000001_Node000003" class="edge">
<title>Node1&#45;&gt;Node3</title>
<g id="a_edge2_Node000001_Node000003"><a xlink:title=" ">
<path fill="none" stroke="#63b8ff" d="M183.37,-660.45C174.4,-651.81 165.76,-642.17 159,-632 155.9,-627.33 152.89,-622.53 149.99,-617.63"/>
<polygon fill="none" stroke="#63b8ff" points="180.83,-662.86 190.55,-667.06 185.57,-657.72 180.83,-662.86"/>
</a>
</g>
</g>
<!-- Node5 -->
<g id="Node000005" class="node">
<title>Node5</title>
<g id="a_Node000005"><a xlink:href="class_n_audio_1_1_wave_1_1_wave_in.html" target="_top" xlink:title="Allows recording using the Windows waveIn APIs Events are raised as recorded buffers are made availab...">
<polygon fill="white" stroke="none" points="297.5,-619 168.5,-619 168.5,-165 297.5,-165 297.5,-619"/>
<text text-anchor="start" x="185" y="-605.5" font-family="Helvetica,sans-Serif" font-size="10.00">NAudio.Wave.WaveIn</text>
<text text-anchor="start" x="172.5" y="-590.5" font-family="Helvetica,sans-Serif" font-size="10.00">+</text>
<text text-anchor="start" x="182.5" y="-590.5" font-family="Helvetica,sans-Serif" font-size="10.00">DeviceCount</text>
<text text-anchor="start" x="172.5" y="-575.5" font-family="Helvetica,sans-Serif" font-size="10.00">+</text>
<text text-anchor="start" x="182.5" y="-575.5" font-family="Helvetica,sans-Serif" font-size="10.00">BufferMilliseconds</text>
<text text-anchor="start" x="172.5" y="-560.5" font-family="Helvetica,sans-Serif" font-size="10.00">+</text>
<text text-anchor="start" x="182.5" y="-560.5" font-family="Helvetica,sans-Serif" font-size="10.00">NumberOfBuffers</text>
<text text-anchor="start" x="172.5" y="-545.5" font-family="Helvetica,sans-Serif" font-size="10.00">+</text>
<text text-anchor="start" x="182.5" y="-545.5" font-family="Helvetica,sans-Serif" font-size="10.00">DeviceNumber</text>
<text text-anchor="start" x="172.5" y="-530.5" font-family="Helvetica,sans-Serif" font-size="10.00">+</text>
<text text-anchor="start" x="182.5" y="-530.5" font-family="Helvetica,sans-Serif" font-size="10.00">WaveFormat</text>
<text text-anchor="start" x="174" y="-515.5" font-family="Helvetica,sans-Serif" font-size="10.00">&#45;</text>
<text text-anchor="start" x="182.5" y="-515.5" font-family="Helvetica,sans-Serif" font-size="10.00">waveInHandle</text>
<text text-anchor="start" x="174" y="-500.5" font-family="Helvetica,sans-Serif" font-size="10.00">&#45;</text>
<text text-anchor="start" x="182.5" y="-500.5" font-family="Helvetica,sans-Serif" font-size="10.00">recording</text>
<text text-anchor="start" x="174" y="-485.5" font-family="Helvetica,sans-Serif" font-size="10.00">&#45;</text>
<text text-anchor="start" x="182.5" y="-485.5" font-family="Helvetica,sans-Serif" font-size="10.00">buffers</text>
<text text-anchor="start" x="174" y="-470.5" font-family="Helvetica,sans-Serif" font-size="10.00">&#45;</text>
<text text-anchor="start" x="182.5" y="-470.5" font-family="Helvetica,sans-Serif" font-size="10.00">callback</text>
<text text-anchor="start" x="174" y="-455.5" font-family="Helvetica,sans-Serif" font-size="10.00">&#45;</text>
<text text-anchor="start" x="182.5" y="-455.5" font-family="Helvetica,sans-Serif" font-size="10.00">callbackInfo</text>
<text text-anchor="start" x="174" y="-440.5" font-family="Helvetica,sans-Serif" font-size="10.00">&#45;</text>
<text text-anchor="start" x="182.5" y="-440.5" font-family="Helvetica,sans-Serif" font-size="10.00">syncContext</text>
<text text-anchor="start" x="174" y="-425.5" font-family="Helvetica,sans-Serif" font-size="10.00">&#45;</text>
<text text-anchor="start" x="182.5" y="-425.5" font-family="Helvetica,sans-Serif" font-size="10.00">lastReturnedBufferIndex</text>
<text text-anchor="start" x="172.5" y="-410.5" font-family="Helvetica,sans-Serif" font-size="10.00">+</text>
<text text-anchor="start" x="182.5" y="-410.5" font-family="Helvetica,sans-Serif" font-size="10.00">WaveIn()</text>
<text text-anchor="start" x="172.5" y="-395.5" font-family="Helvetica,sans-Serif" font-size="10.00">+</text>
<text text-anchor="start" x="182.5" y="-395.5" font-family="Helvetica,sans-Serif" font-size="10.00">WaveIn()</text>
<text text-anchor="start" x="172.5" y="-380.5" font-family="Helvetica,sans-Serif" font-size="10.00">+</text>
<text text-anchor="start" x="182.5" y="-380.5" font-family="Helvetica,sans-Serif" font-size="10.00">WaveIn()</text>
<text text-anchor="start" x="172.5" y="-365.5" font-family="Helvetica,sans-Serif" font-size="10.00">+</text>
<text text-anchor="start" x="182.5" y="-365.5" font-family="Helvetica,sans-Serif" font-size="10.00">StartRecording()</text>
<text text-anchor="start" x="172.5" y="-350.5" font-family="Helvetica,sans-Serif" font-size="10.00">+</text>
<text text-anchor="start" x="182.5" y="-350.5" font-family="Helvetica,sans-Serif" font-size="10.00">StopRecording()</text>
<text text-anchor="start" x="172.5" y="-335.5" font-family="Helvetica,sans-Serif" font-size="10.00">+</text>
<text text-anchor="start" x="182.5" y="-335.5" font-family="Helvetica,sans-Serif" font-size="10.00">GetPosition()</text>
<text text-anchor="start" x="172.5" y="-320.5" font-family="Helvetica,sans-Serif" font-size="10.00">+</text>
<text text-anchor="start" x="182.5" y="-320.5" font-family="Helvetica,sans-Serif" font-size="10.00">GetMixerLine()</text>
<text text-anchor="start" x="172.5" y="-305.5" font-family="Helvetica,sans-Serif" font-size="10.00">+</text>
<text text-anchor="start" x="182.5" y="-305.5" font-family="Helvetica,sans-Serif" font-size="10.00">Dispose()</text>
<text text-anchor="start" x="172.5" y="-290.5" font-family="Helvetica,sans-Serif" font-size="10.00">+</text>
<text text-anchor="start" x="182.5" y="-290.5" font-family="Helvetica,sans-Serif" font-size="10.00">GetCapabilities()</text>
<text text-anchor="start" x="172.88" y="-275.5" font-family="Helvetica,sans-Serif" font-size="10.00">#</text>
<text text-anchor="start" x="182.5" y="-275.5" font-family="Helvetica,sans-Serif" font-size="10.00">Dispose()</text>
<text text-anchor="start" x="174" y="-260.5" font-family="Helvetica,sans-Serif" font-size="10.00">&#45;</text>
<text text-anchor="start" x="182.5" y="-260.5" font-family="Helvetica,sans-Serif" font-size="10.00">CreateBuffers()</text>
<text text-anchor="start" x="174" y="-245.5" font-family="Helvetica,sans-Serif" font-size="10.00">&#45;</text>
<text text-anchor="start" x="182.5" y="-245.5" font-family="Helvetica,sans-Serif" font-size="10.00">Callback()</text>
<text text-anchor="start" x="174" y="-230.5" font-family="Helvetica,sans-Serif" font-size="10.00">&#45;</text>
<text text-anchor="start" x="182.5" y="-230.5" font-family="Helvetica,sans-Serif" font-size="10.00">RaiseDataAvailable()</text>
<text text-anchor="start" x="174" y="-215.5" font-family="Helvetica,sans-Serif" font-size="10.00">&#45;</text>
<text text-anchor="start" x="182.5" y="-215.5" font-family="Helvetica,sans-Serif" font-size="10.00">RaiseRecordingStopped()</text>
<text text-anchor="start" x="174" y="-200.5" font-family="Helvetica,sans-Serif" font-size="10.00">&#45;</text>
<text text-anchor="start" x="182.5" y="-200.5" font-family="Helvetica,sans-Serif" font-size="10.00">OpenWaveInDevice()</text>
<text text-anchor="start" x="174" y="-185.5" font-family="Helvetica,sans-Serif" font-size="10.00">&#45;</text>
<text text-anchor="start" x="182.5" y="-185.5" font-family="Helvetica,sans-Serif" font-size="10.00">EnqueueBuffers()</text>
<text text-anchor="start" x="174" y="-170.5" font-family="Helvetica,sans-Serif" font-size="10.00">&#45;</text>
<text text-anchor="start" x="182.5" y="-170.5" font-family="Helvetica,sans-Serif" font-size="10.00">CloseWaveInDevice()</text>
<polygon fill="#666666" stroke="#666666" points="168.5,-602 168.5,-602 297.5,-602 297.5,-602 168.5,-602"/>
<polygon fill="#666666" stroke="#666666" points="168.5,-422 168.5,-422 180.5,-422 180.5,-422 168.5,-422"/>
<polygon fill="#666666" stroke="#666666" points="180.5,-422 180.5,-422 297.5,-422 297.5,-422 180.5,-422"/>
<polygon fill="none" stroke="#666666" points="168.5,-165 168.5,-619 297.5,-619 297.5,-165 168.5,-165"/>
</a>
</g>
</g>
<!-- Node1&#45;&gt;Node5 -->
<g id="edge4_Node000001_Node000005" class="edge">
<title>Node1&#45;&gt;Node5</title>
<g id="a_edge4_Node000001_Node000005"><a xlink:title=" ">
<path fill="none" stroke="#63b8ff" d="M233,-656.84C233,-645.68 233,-632.81 233,-618.9"/>
<polygon fill="none" stroke="#63b8ff" points="229.5,-656.74 233,-666.74 236.5,-656.74 229.5,-656.74"/>
</a>
</g>
</g>
<!-- Node6 -->
<g id="Node000006" class="node">
<title>Node6</title>
<g id="a_Node000006"><a xlink:href="class_n_audio_1_1_wave_1_1_wave_in_event.html" target="_top" xlink:title="Recording using waveIn api with event callbacks. Use this for recording in non&#45;gui applications Event...">
<polygon fill="white" stroke="none" points="470.5,-581.5 315.5,-581.5 315.5,-202.5 470.5,-202.5 470.5,-581.5"/>
<text text-anchor="start" x="332.25" y="-568" font-family="Helvetica,sans-Serif" font-size="10.00">NAudio.Wave.WaveInEvent</text>
<text text-anchor="start" x="319.5" y="-553" font-family="Helvetica,sans-Serif" font-size="10.00">+</text>
<text text-anchor="start" x="329.5" y="-553" font-family="Helvetica,sans-Serif" font-size="10.00">DeviceCount</text>
<text text-anchor="start" x="319.5" y="-538" font-family="Helvetica,sans-Serif" font-size="10.00">+</text>
<text text-anchor="start" x="329.5" y="-538" font-family="Helvetica,sans-Serif" font-size="10.00">BufferMilliseconds</text>
<text text-anchor="start" x="319.5" y="-523" font-family="Helvetica,sans-Serif" font-size="10.00">+</text>
<text text-anchor="start" x="329.5" y="-523" font-family="Helvetica,sans-Serif" font-size="10.00">NumberOfBuffers</text>
<text text-anchor="start" x="319.5" y="-508" font-family="Helvetica,sans-Serif" font-size="10.00">+</text>
<text text-anchor="start" x="329.5" y="-508" font-family="Helvetica,sans-Serif" font-size="10.00">DeviceNumber</text>
<text text-anchor="start" x="319.5" y="-493" font-family="Helvetica,sans-Serif" font-size="10.00">+</text>
<text text-anchor="start" x="329.5" y="-493" font-family="Helvetica,sans-Serif" font-size="10.00">WaveFormat</text>
<text text-anchor="start" x="321" y="-478" font-family="Helvetica,sans-Serif" font-size="10.00">&#45;</text>
<text text-anchor="start" x="329.5" y="-478" font-family="Helvetica,sans-Serif" font-size="10.00">callbackEvent</text>
<text text-anchor="start" x="321" y="-463" font-family="Helvetica,sans-Serif" font-size="10.00">&#45;</text>
<text text-anchor="start" x="329.5" y="-463" font-family="Helvetica,sans-Serif" font-size="10.00">syncContext</text>
<text text-anchor="start" x="321" y="-448" font-family="Helvetica,sans-Serif" font-size="10.00">&#45;</text>
<text text-anchor="start" x="329.5" y="-448" font-family="Helvetica,sans-Serif" font-size="10.00">waveInHandle</text>
<text text-anchor="start" x="321" y="-433" font-family="Helvetica,sans-Serif" font-size="10.00">&#45;</text>
<text text-anchor="start" x="329.5" y="-433" font-family="Helvetica,sans-Serif" font-size="10.00">captureState</text>
<text text-anchor="start" x="321" y="-418" font-family="Helvetica,sans-Serif" font-size="10.00">&#45;</text>
<text text-anchor="start" x="329.5" y="-418" font-family="Helvetica,sans-Serif" font-size="10.00">buffers</text>
<text text-anchor="start" x="319.5" y="-403" font-family="Helvetica,sans-Serif" font-size="10.00">+</text>
<text text-anchor="start" x="329.5" y="-403" font-family="Helvetica,sans-Serif" font-size="10.00">WaveInEvent()</text>
<text text-anchor="start" x="319.5" y="-388" font-family="Helvetica,sans-Serif" font-size="10.00">+</text>
<text text-anchor="start" x="329.5" y="-388" font-family="Helvetica,sans-Serif" font-size="10.00">StartRecording()</text>
<text text-anchor="start" x="319.5" y="-373" font-family="Helvetica,sans-Serif" font-size="10.00">+</text>
<text text-anchor="start" x="329.5" y="-373" font-family="Helvetica,sans-Serif" font-size="10.00">StopRecording()</text>
<text text-anchor="start" x="319.5" y="-358" font-family="Helvetica,sans-Serif" font-size="10.00">+</text>
<text text-anchor="start" x="329.5" y="-358" font-family="Helvetica,sans-Serif" font-size="10.00">GetPosition()</text>
<text text-anchor="start" x="319.5" y="-343" font-family="Helvetica,sans-Serif" font-size="10.00">+</text>
<text text-anchor="start" x="329.5" y="-343" font-family="Helvetica,sans-Serif" font-size="10.00">GetMixerLine()</text>
<text text-anchor="start" x="319.5" y="-328" font-family="Helvetica,sans-Serif" font-size="10.00">+</text>
<text text-anchor="start" x="329.5" y="-328" font-family="Helvetica,sans-Serif" font-size="10.00">Dispose()</text>
<text text-anchor="start" x="319.5" y="-313" font-family="Helvetica,sans-Serif" font-size="10.00">+</text>
<text text-anchor="start" x="329.5" y="-313" font-family="Helvetica,sans-Serif" font-size="10.00">GetCapabilities()</text>
<text text-anchor="start" x="319.88" y="-298" font-family="Helvetica,sans-Serif" font-size="10.00">#</text>
<text text-anchor="start" x="329.5" y="-298" font-family="Helvetica,sans-Serif" font-size="10.00">Dispose()</text>
<text text-anchor="start" x="321" y="-283" font-family="Helvetica,sans-Serif" font-size="10.00">&#45;</text>
<text text-anchor="start" x="329.5" y="-283" font-family="Helvetica,sans-Serif" font-size="10.00">CreateBuffers()</text>
<text text-anchor="start" x="321" y="-268" font-family="Helvetica,sans-Serif" font-size="10.00">&#45;</text>
<text text-anchor="start" x="329.5" y="-268" font-family="Helvetica,sans-Serif" font-size="10.00">OpenWaveInDevice()</text>
<text text-anchor="start" x="321" y="-253" font-family="Helvetica,sans-Serif" font-size="10.00">&#45;</text>
<text text-anchor="start" x="329.5" y="-253" font-family="Helvetica,sans-Serif" font-size="10.00">RecordThread()</text>
<text text-anchor="start" x="321" y="-238" font-family="Helvetica,sans-Serif" font-size="10.00">&#45;</text>
<text text-anchor="start" x="329.5" y="-238" font-family="Helvetica,sans-Serif" font-size="10.00">DoRecording()</text>
<text text-anchor="start" x="321" y="-223" font-family="Helvetica,sans-Serif" font-size="10.00">&#45;</text>
<text text-anchor="start" x="329.5" y="-223" font-family="Helvetica,sans-Serif" font-size="10.00">RaiseRecordingStoppedEvent()</text>
<text text-anchor="start" x="321" y="-208" font-family="Helvetica,sans-Serif" font-size="10.00">&#45;</text>
<text text-anchor="start" x="329.5" y="-208" font-family="Helvetica,sans-Serif" font-size="10.00">CloseWaveInDevice()</text>
<polygon fill="#666666" stroke="#666666" points="315.5,-564.5 315.5,-564.5 470.5,-564.5 470.5,-564.5 315.5,-564.5"/>
<polygon fill="#666666" stroke="#666666" points="315.5,-414.5 315.5,-414.5 327.5,-414.5 327.5,-414.5 315.5,-414.5"/>
<polygon fill="#666666" stroke="#666666" points="327.5,-414.5 327.5,-414.5 470.5,-414.5 470.5,-414.5 327.5,-414.5"/>
<polygon fill="none" stroke="#666666" points="315.5,-202.5 315.5,-581.5 470.5,-581.5 470.5,-202.5 315.5,-202.5"/>
</a>
</g>
</g>
<!-- Node1&#45;&gt;Node6 -->
<g id="edge5_Node000001_Node000006" class="edge">
<title>Node1&#45;&gt;Node6</title>
<g id="a_edge5_Node000001_Node000006"><a xlink:title=" ">
<path fill="none" stroke="#63b8ff" d="M282.57,-660.41C291.55,-651.78 300.21,-642.14 307,-632 317.55,-616.25 326.99,-599.04 335.38,-581.32"/>
<polygon fill="none" stroke="#63b8ff" points="280.37,-657.68 275.39,-667.02 285.11,-662.83 280.37,-657.68"/>
</a>
</g>
</g>
<!-- Node2 -->
<g id="Node000002" class="node">
<title>Node2</title>
<g id="a_Node000002"><a xlink:href="class_i_disposable.html" target="_top" xlink:title=" ">
<polygon fill="white" stroke="none" points="263.5,-817 202.5,-817 202.5,-768 263.5,-768 263.5,-817"/>
<text text-anchor="start" x="207.12" y="-803.5" font-family="Helvetica,sans-Serif" font-size="10.00">IDisposable</text>
<text text-anchor="start" x="231.5" y="-788.5" font-family="Helvetica,sans-Serif" font-size="10.00"> </text>
<text text-anchor="start" x="231.5" y="-773.5" font-family="Helvetica,sans-Serif" font-size="10.00"> </text>
<polygon fill="#666666" stroke="#666666" points="202.5,-800 202.5,-800 263.5,-800 263.5,-800 202.5,-800"/>
<polygon fill="#666666" stroke="#666666" points="202.5,-785 202.5,-785 263.5,-785 263.5,-785 202.5,-785"/>
<polygon fill="none" stroke="#666666" points="202.5,-768 202.5,-817 263.5,-817 263.5,-768 202.5,-768"/>
</a>
</g>
</g>
<!-- Node2&#45;&gt;Node1 -->
<g id="edge1_Node000001_Node000002" class="edge">
<title>Node2&#45;&gt;Node1</title>
<g id="a_edge1_Node000001_Node000002"><a xlink:title=" ">
<path fill="none" stroke="#63b8ff" d="M233,-756.93C233,-748.64 233,-739.84 233,-731.74"/>
<polygon fill="none" stroke="#63b8ff" points="229.5,-756.68 233,-766.68 236.5,-756.68 229.5,-756.68"/>
</a>
</g>
</g>
<!-- Node4 -->
<g id="Node000004" class="node">
<title>Node4</title>
<g id="a_Node000004"><a xlink:href="class_n_audio_1_1_wave_1_1_wasapi_loopback_capture.html" target="_top" xlink:title="WASAPI Loopback Capture based on a contribution from &quot;Pygmy&quot; &#45; http://naudio.codeplex....">
<polygon fill="white" stroke="none" points="148.5,-116 1.5,-116 1.5,0 148.5,0 148.5,-116"/>
<text text-anchor="start" x="6.38" y="-102.5" font-family="Helvetica,sans-Serif" font-size="10.00">NAudio.Wave.WasapiLoopback</text>
<text text-anchor="start" x="57.75" y="-91.25" font-family="Helvetica,sans-Serif" font-size="10.00">Capture</text>
<text text-anchor="start" x="73.5" y="-76.5" font-family="Helvetica,sans-Serif" font-size="10.00"> </text>
<text text-anchor="start" x="6" y="-61.5" font-family="Helvetica,sans-Serif" font-size="10.00">+</text>
<text text-anchor="start" x="16.5" y="-61.5" font-family="Helvetica,sans-Serif" font-size="10.00">WasapiLoopbackCapture()</text>
<text text-anchor="start" x="6" y="-46.5" font-family="Helvetica,sans-Serif" font-size="10.00">+</text>
<text text-anchor="start" x="16.5" y="-46.5" font-family="Helvetica,sans-Serif" font-size="10.00">WasapiLoopbackCapture()</text>
<text text-anchor="start" x="6" y="-31.5" font-family="Helvetica,sans-Serif" font-size="10.00">+</text>
<text text-anchor="start" x="16.5" y="-31.5" font-family="Helvetica,sans-Serif" font-size="10.00">GetDefaultLoopbackCapture</text>
<text text-anchor="start" x="16.5" y="-20.25" font-family="Helvetica,sans-Serif" font-size="10.00">Device()</text>
<text text-anchor="start" x="6.38" y="-5.5" font-family="Helvetica,sans-Serif" font-size="10.00">#</text>
<text text-anchor="start" x="16.5" y="-5.5" font-family="Helvetica,sans-Serif" font-size="10.00">GetAudioClientStreamFlags()</text>
<polygon fill="#666666" stroke="#666666" points="1.5,-88 1.5,-88 148.5,-88 148.5,-88 1.5,-88"/>
<polygon fill="#666666" stroke="#666666" points="1.5,-73 1.5,-73 148.5,-73 148.5,-73 1.5,-73"/>
<polygon fill="none" stroke="#666666" points="1.5,0 1.5,-116 148.5,-116 148.5,0 1.5,0"/>
</a>
</g>
</g>
<!-- Node3&#45;&gt;Node4 -->
<g id="edge3_Node000003_Node000004" class="edge">
<title>Node3&#45;&gt;Node4</title>
<g id="a_edge3_Node000003_Node000004"><a xlink:title=" ">
<path fill="none" stroke="#63b8ff" d="M75,-140.91C75,-132.05 75,-123.62 75,-115.77"/>
<polygon fill="none" stroke="#63b8ff" points="71.5,-140.85 75,-150.85 78.5,-140.85 71.5,-140.85"/>
</a>
</g>
</g>
</g>
</svg>
