<?xml version="1.0" encoding="UTF-8" standalone="no"?>
<!DOCTYPE svg PUBLIC "-//W3C//DTD SVG 1.1//EN"
 "http://www.w3.org/Graphics/SVG/1.1/DTD/svg11.dtd">
<!-- Generated by graphviz version 10.0.1 (20240210.2158)
 -->
<!-- Title: NAudio.Wave.IWaveBuffer Pages: 1 -->
<svg width="135pt" height="177pt"
 viewBox="0.00 0.00 135.00 177.00" xmlns="http://www.w3.org/2000/svg" xmlns:xlink="http://www.w3.org/1999/xlink">
<g id="graph0" class="graph" transform="scale(1 1) rotate(0) translate(4 173)">
<title>NAudio.Wave.IWaveBuffer</title>
<!-- Node1 -->
<g id="Node000001" class="node">
<title>Node1</title>
<g id="a_Node000001"><a xlink:title="IWaveBuffer interface use to store wave datas. Data can be manipulated with arrays (ByteBuffer,...">
<polygon fill="#999999" stroke="none" points="127,-169 0,-169 0,0 127,0 127,-169"/>
<text text-anchor="start" x="5" y="-155.5" font-family="Helvetica,sans-Serif" font-size="10.00">NAudio.Wave.IWaveBuffer</text>
<text text-anchor="start" x="12.5" y="-140.5" font-family="Helvetica,sans-Serif" font-size="10.00">+</text>
<text text-anchor="start" x="31" y="-140.5" font-family="Helvetica,sans-Serif" font-size="10.00">ByteBuffer</text>
<text text-anchor="start" x="12.5" y="-125.5" font-family="Helvetica,sans-Serif" font-size="10.00">+</text>
<text text-anchor="start" x="31" y="-125.5" font-family="Helvetica,sans-Serif" font-size="10.00">FloatBuffer</text>
<text text-anchor="start" x="12.5" y="-110.5" font-family="Helvetica,sans-Serif" font-size="10.00">+</text>
<text text-anchor="start" x="31" y="-110.5" font-family="Helvetica,sans-Serif" font-size="10.00">ShortBuffer</text>
<text text-anchor="start" x="12.5" y="-95.5" font-family="Helvetica,sans-Serif" font-size="10.00">+</text>
<text text-anchor="start" x="31" y="-95.5" font-family="Helvetica,sans-Serif" font-size="10.00">IntBuffer</text>
<text text-anchor="start" x="12.5" y="-80.5" font-family="Helvetica,sans-Serif" font-size="10.00">+</text>
<text text-anchor="start" x="31" y="-80.5" font-family="Helvetica,sans-Serif" font-size="10.00">MaxSize</text>
<text text-anchor="start" x="12.5" y="-65.5" font-family="Helvetica,sans-Serif" font-size="10.00">+</text>
<text text-anchor="start" x="31" y="-65.5" font-family="Helvetica,sans-Serif" font-size="10.00">ByteBufferCount</text>
<text text-anchor="start" x="12.5" y="-50.5" font-family="Helvetica,sans-Serif" font-size="10.00">+</text>
<text text-anchor="start" x="31" y="-50.5" font-family="Helvetica,sans-Serif" font-size="10.00">FloatBufferCount</text>
<text text-anchor="start" x="12.5" y="-35.5" font-family="Helvetica,sans-Serif" font-size="10.00">+</text>
<text text-anchor="start" x="31" y="-35.5" font-family="Helvetica,sans-Serif" font-size="10.00">ShortBufferCount</text>
<text text-anchor="start" x="12.5" y="-20.5" font-family="Helvetica,sans-Serif" font-size="10.00">+</text>
<text text-anchor="start" x="31" y="-20.5" font-family="Helvetica,sans-Serif" font-size="10.00">IntBufferCount</text>
<text text-anchor="start" x="62" y="-5.5" font-family="Helvetica,sans-Serif" font-size="10.00"> </text>
<polygon fill="#666666" stroke="#666666" points="0,-152 0,-152 127,-152 127,-152 0,-152"/>
<polygon fill="#666666" stroke="#666666" points="0,-17 0,-17 29,-17 29,-17 0,-17"/>
<polygon fill="#666666" stroke="#666666" points="29,-17 29,-17 127,-17 127,-17 29,-17"/>
<polygon fill="none" stroke="#666666" points="0,0 0,-169 127,-169 127,0 0,0"/>
</a>
</g>
</g>
</g>
</svg>
