<?xml version="1.0" encoding="UTF-8" standalone="no"?>
<!DOCTYPE svg PUBLIC "-//W3C//DTD SVG 1.1//EN"
 "http://www.w3.org/Graphics/SVG/1.1/DTD/svg11.dtd">
<!-- Generated by graphviz version 10.0.1 (20240210.2158)
 -->
<!-- Title: NAudio.MediaFoundation.IMFMediaBuffer Pages: 1 -->
<svg width="174pt" height="128pt"
 viewBox="0.00 0.00 174.00 128.00" xmlns="http://www.w3.org/2000/svg" xmlns:xlink="http://www.w3.org/1999/xlink">
<g id="graph0" class="graph" transform="scale(1 1) rotate(0) translate(4 124)">
<title>NAudio.MediaFoundation.IMFMediaBuffer</title>
<!-- Node1 -->
<g id="Node000001" class="node">
<title>Node1</title>
<g id="a_Node000001"><a xlink:title="IMFMediaBuffer http://msdn.microsoft.com/en&#45;gb/library/windows/desktop/ms696261%28v=vs....">
<polygon fill="#999999" stroke="none" points="166,-120 0,-120 0,0 166,0 166,-120"/>
<text text-anchor="start" x="5" y="-106.5" font-family="Helvetica,sans-Serif" font-size="10.00">NAudio.MediaFoundation.IMFMedia</text>
<text text-anchor="start" x="69.88" y="-95.25" font-family="Helvetica,sans-Serif" font-size="10.00">Buffer</text>
<text text-anchor="start" x="81.5" y="-80.5" font-family="Helvetica,sans-Serif" font-size="10.00"> </text>
<text text-anchor="start" x="20" y="-65.5" font-family="Helvetica,sans-Serif" font-size="10.00">+</text>
<text text-anchor="start" x="46" y="-65.5" font-family="Helvetica,sans-Serif" font-size="10.00">Lock()</text>
<text text-anchor="start" x="20" y="-50.5" font-family="Helvetica,sans-Serif" font-size="10.00">+</text>
<text text-anchor="start" x="46" y="-50.5" font-family="Helvetica,sans-Serif" font-size="10.00">Unlock()</text>
<text text-anchor="start" x="20" y="-35.5" font-family="Helvetica,sans-Serif" font-size="10.00">+</text>
<text text-anchor="start" x="46" y="-35.5" font-family="Helvetica,sans-Serif" font-size="10.00">GetCurrentLength()</text>
<text text-anchor="start" x="20" y="-20.5" font-family="Helvetica,sans-Serif" font-size="10.00">+</text>
<text text-anchor="start" x="46" y="-20.5" font-family="Helvetica,sans-Serif" font-size="10.00">SetCurrentLength()</text>
<text text-anchor="start" x="20" y="-5.5" font-family="Helvetica,sans-Serif" font-size="10.00">+</text>
<text text-anchor="start" x="46" y="-5.5" font-family="Helvetica,sans-Serif" font-size="10.00">GetMaxLength()</text>
<polygon fill="#666666" stroke="#666666" points="0,-92 0,-92 166,-92 166,-92 0,-92"/>
<polygon fill="#666666" stroke="#666666" points="0,-77 0,-77 166,-77 166,-77 0,-77"/>
<polygon fill="none" stroke="#666666" points="0,0 0,-120 166,-120 166,0 0,0"/>
</a>
</g>
</g>
</g>
</svg>
