<?xml version="1.0" encoding="UTF-8" standalone="no"?>
<!DOCTYPE svg PUBLIC "-//W3C//DTD SVG 1.1//EN"
 "http://www.w3.org/Graphics/SVG/1.1/DTD/svg11.dtd">
<!-- Generated by graphviz version 10.0.1 (20240210.2158)
 -->
<!-- Title: xeno_rat_server.IconInjector.BITMAPINFOHEADER Pages: 1 -->
<svg width="247pt" height="209pt"
 viewBox="0.00 0.00 246.75 209.25" xmlns="http://www.w3.org/2000/svg" xmlns:xlink="http://www.w3.org/1999/xlink">
<g id="graph0" class="graph" transform="scale(1 1) rotate(0) translate(4 205.25)">
<title>xeno_rat_server.IconInjector.BITMAPINFOHEADER</title>
<!-- Node1 -->
<g id="Node000001" class="node">
<title>Node1</title>
<g id="a_Node000001"><a xlink:title=" ">
<polygon fill="#999999" stroke="none" points="167,-60 32,-60 32,0 167,0 167,-60"/>
<text text-anchor="start" x="36.88" y="-46.5" font-family="Helvetica,sans-Serif" font-size="10.00">xeno_rat_server.IconInjector.</text>
<text text-anchor="start" x="47.38" y="-35.25" font-family="Helvetica,sans-Serif" font-size="10.00">BITMAPINFOHEADER</text>
<text text-anchor="start" x="98" y="-20.5" font-family="Helvetica,sans-Serif" font-size="10.00"> </text>
<text text-anchor="start" x="98" y="-5.5" font-family="Helvetica,sans-Serif" font-size="10.00"> </text>
<polygon fill="#666666" stroke="#666666" points="32,-32 32,-32 167,-32 167,-32 32,-32"/>
<polygon fill="#666666" stroke="#666666" points="32,-17 32,-17 167,-17 167,-17 32,-17"/>
<polygon fill="none" stroke="#666666" points="32,0 32,-60 167,-60 167,0 32,0"/>
</a>
</g>
</g>
<!-- Node2 -->
<g id="Node000002" class="node">
<title>Node2</title>
<g id="a_Node000002"><a xlink:title=" ">
<polygon fill="white" stroke="none" points="25,-201.25 0,-201.25 0,-152.25 25,-152.25 25,-201.25"/>
<text text-anchor="start" x="4.62" y="-187.75" font-family="Helvetica,sans-Serif" font-size="10.00">uint</text>
<text text-anchor="start" x="11" y="-172.75" font-family="Helvetica,sans-Serif" font-size="10.00"> </text>
<text text-anchor="start" x="11" y="-157.75" font-family="Helvetica,sans-Serif" font-size="10.00"> </text>
<polygon fill="#666666" stroke="#666666" points="0,-184.25 0,-184.25 25,-184.25 25,-184.25 0,-184.25"/>
<polygon fill="#666666" stroke="#666666" points="0,-169.25 0,-169.25 25,-169.25 25,-169.25 0,-169.25"/>
<polygon fill="none" stroke="#666666" points="0,-152.25 0,-201.25 25,-201.25 25,-152.25 0,-152.25"/>
</a>
</g>
</g>
<!-- Node2&#45;&gt;Node1 -->
<g id="edge1_Node000001_Node000002" class="edge">
<title>Node2&#45;&gt;Node1</title>
<g id="a_edge1_Node000001_Node000002"><a xlink:title=" ">
<path fill="none" stroke="#63b8ff" d="M12.27,-152.59C13.11,-131.54 17.07,-100.43 31.75,-78 33.81,-74.86 36.16,-71.86 38.71,-69.02"/>
<polygon fill="none" stroke="#63b8ff" points="38.82,-68.92 40.35,-61.87 47.45,-60.58 45.91,-67.63 38.82,-68.92"/>
</a>
</g>
<text text-anchor="middle" x="64.38" y="-124.75" font-family="Helvetica,sans-Serif" font-size="10.00" fill="grey"> +ClrImportant</text>
<text text-anchor="middle" x="64.38" y="-113.5" font-family="Helvetica,sans-Serif" font-size="10.00" fill="grey">+ClrUsed</text>
<text text-anchor="middle" x="64.38" y="-102.25" font-family="Helvetica,sans-Serif" font-size="10.00" fill="grey">+Compression</text>
<text text-anchor="middle" x="64.38" y="-91" font-family="Helvetica,sans-Serif" font-size="10.00" fill="grey">+Size</text>
<text text-anchor="middle" x="64.38" y="-79.75" font-family="Helvetica,sans-Serif" font-size="10.00" fill="grey">+SizeImage</text>
</g>
<!-- Node3 -->
<g id="Node000003" class="node">
<title>Node3</title>
<g id="a_Node000003"><a xlink:title=" ">
<polygon fill="white" stroke="none" points="109.5,-201.25 89.5,-201.25 89.5,-152.25 109.5,-152.25 109.5,-201.25"/>
<text text-anchor="start" x="94.25" y="-187.75" font-family="Helvetica,sans-Serif" font-size="10.00">int</text>
<text text-anchor="start" x="98" y="-172.75" font-family="Helvetica,sans-Serif" font-size="10.00"> </text>
<text text-anchor="start" x="98" y="-157.75" font-family="Helvetica,sans-Serif" font-size="10.00"> </text>
<polygon fill="#666666" stroke="#666666" points="89.5,-184.25 89.5,-184.25 109.5,-184.25 109.5,-184.25 89.5,-184.25"/>
<polygon fill="#666666" stroke="#666666" points="89.5,-169.25 89.5,-169.25 109.5,-169.25 109.5,-169.25 89.5,-169.25"/>
<polygon fill="none" stroke="#666666" points="89.5,-152.25 89.5,-201.25 109.5,-201.25 109.5,-152.25 89.5,-152.25"/>
</a>
</g>
</g>
<!-- Node3&#45;&gt;Node1 -->
<g id="edge2_Node000001_Node000003" class="edge">
<title>Node3&#45;&gt;Node1</title>
<g id="a_edge2_Node000001_Node000003"><a xlink:title=" ">
<path fill="none" stroke="#63b8ff" d="M99.5,-152.49C99.5,-131.06 99.5,-98.73 99.5,-72.82"/>
<polygon fill="none" stroke="#63b8ff" points="99.5,-72.84 95.5,-66.84 99.5,-60.84 103.5,-66.84 99.5,-72.84"/>
</a>
</g>
<text text-anchor="middle" x="135.5" y="-119.12" font-family="Helvetica,sans-Serif" font-size="10.00" fill="grey"> +Height</text>
<text text-anchor="middle" x="135.5" y="-107.88" font-family="Helvetica,sans-Serif" font-size="10.00" fill="grey">+Width</text>
<text text-anchor="middle" x="135.5" y="-96.62" font-family="Helvetica,sans-Serif" font-size="10.00" fill="grey">+XPelsPerMeter</text>
<text text-anchor="middle" x="135.5" y="-85.38" font-family="Helvetica,sans-Serif" font-size="10.00" fill="grey">+YPelsPerMeter</text>
</g>
<!-- Node4 -->
<g id="Node000004" class="node">
<title>Node4</title>
<g id="a_Node000004"><a xlink:title=" ">
<polygon fill="white" stroke="none" points="213,-201.25 176,-201.25 176,-152.25 213,-152.25 213,-201.25"/>
<text text-anchor="start" x="181" y="-187.75" font-family="Helvetica,sans-Serif" font-size="10.00">ushort</text>
<text text-anchor="start" x="193" y="-172.75" font-family="Helvetica,sans-Serif" font-size="10.00"> </text>
<text text-anchor="start" x="193" y="-157.75" font-family="Helvetica,sans-Serif" font-size="10.00"> </text>
<polygon fill="#666666" stroke="#666666" points="176,-184.25 176,-184.25 213,-184.25 213,-184.25 176,-184.25"/>
<polygon fill="#666666" stroke="#666666" points="176,-169.25 176,-169.25 213,-169.25 213,-169.25 176,-169.25"/>
<polygon fill="none" stroke="#666666" points="176,-152.25 176,-201.25 213,-201.25 213,-152.25 176,-152.25"/>
</a>
</g>
</g>
<!-- Node4&#45;&gt;Node1 -->
<g id="edge3_Node000001_Node000004" class="edge">
<title>Node4&#45;&gt;Node1</title>
<g id="a_edge3_Node000001_Node000004"><a xlink:title=" ">
<path fill="none" stroke="#63b8ff" d="M194.14,-152.43C192.75,-131.27 187.95,-100.1 172.5,-78 170.13,-74.6 167.42,-71.39 164.48,-68.37"/>
<polygon fill="none" stroke="#63b8ff" points="164.63,-68.51 157.5,-67.45 155.72,-60.46 162.86,-61.52 164.63,-68.51"/>
</a>
</g>
<text text-anchor="middle" x="215.12" y="-107.88" font-family="Helvetica,sans-Serif" font-size="10.00" fill="grey"> +BitCount</text>
<text text-anchor="middle" x="215.12" y="-96.62" font-family="Helvetica,sans-Serif" font-size="10.00" fill="grey">+Planes</text>
</g>
</g>
</svg>
