<?xml version="1.0" encoding="UTF-8" standalone="no"?>
<!DOCTYPE svg PUBLIC "-//W3C//DTD SVG 1.1//EN"
 "http://www.w3.org/Graphics/SVG/1.1/DTD/svg11.dtd">
<!-- Generated by graphviz version 10.0.1 (20240210.2158)
 -->
<!-- Title: NAudio.Dmo.DmoPartialMediaType Pages: 1 -->
<svg width="173pt" height="180pt"
 viewBox="0.00 0.00 173.00 179.50" xmlns="http://www.w3.org/2000/svg" xmlns:xlink="http://www.w3.org/1999/xlink">
<g id="graph0" class="graph" transform="scale(1 1) rotate(0) translate(4 175.5)">
<title>NAudio.Dmo.DmoPartialMediaType</title>
<!-- Node1 -->
<g id="Node000001" class="node">
<title>Node1</title>
<g id="a_Node000001"><a xlink:title="DMO_PARTIAL_MEDIATYPE.">
<polygon fill="#999999" stroke="none" points="165,-64 0,-64 0,0 165,0 165,-64"/>
<text text-anchor="start" x="4.88" y="-50.5" font-family="Helvetica,sans-Serif" font-size="10.00">NAudio.Dmo.DmoPartialMediaType</text>
<text text-anchor="start" x="31.5" y="-35.5" font-family="Helvetica,sans-Serif" font-size="10.00">+</text>
<text text-anchor="start" x="69" y="-35.5" font-family="Helvetica,sans-Serif" font-size="10.00">Type</text>
<text text-anchor="start" x="31.5" y="-20.5" font-family="Helvetica,sans-Serif" font-size="10.00">+</text>
<text text-anchor="start" x="69" y="-20.5" font-family="Helvetica,sans-Serif" font-size="10.00">Subtype</text>
<text text-anchor="start" x="81" y="-5.5" font-family="Helvetica,sans-Serif" font-size="10.00"> </text>
<polygon fill="#666666" stroke="#666666" points="0,-47 0,-47 165,-47 165,-47 0,-47"/>
<polygon fill="#666666" stroke="#666666" points="0,-17 0,-17 67,-17 67,-17 0,-17"/>
<polygon fill="#666666" stroke="#666666" points="67,-17 67,-17 165,-17 165,-17 67,-17"/>
<polygon fill="none" stroke="#666666" points="0,0 0,-64 165,-64 165,0 0,0"/>
</a>
</g>
</g>
<!-- Node2 -->
<g id="Node000002" class="node">
<title>Node2</title>
<g id="a_Node000002"><a xlink:title=" ">
<polygon fill="white" stroke="none" points="97.5,-171.5 67.5,-171.5 67.5,-122.5 97.5,-122.5 97.5,-171.5"/>
<text text-anchor="start" x="72.38" y="-158" font-family="Helvetica,sans-Serif" font-size="10.00">Guid</text>
<text text-anchor="start" x="81" y="-143" font-family="Helvetica,sans-Serif" font-size="10.00"> </text>
<text text-anchor="start" x="81" y="-128" font-family="Helvetica,sans-Serif" font-size="10.00"> </text>
<polygon fill="#666666" stroke="#666666" points="67.5,-154.5 67.5,-154.5 97.5,-154.5 97.5,-154.5 67.5,-154.5"/>
<polygon fill="#666666" stroke="#666666" points="67.5,-139.5 67.5,-139.5 97.5,-139.5 97.5,-139.5 67.5,-139.5"/>
<polygon fill="none" stroke="#666666" points="67.5,-122.5 67.5,-171.5 97.5,-171.5 97.5,-122.5 67.5,-122.5"/>
</a>
</g>
</g>
<!-- Node2&#45;&gt;Node1 -->
<g id="edge1_Node000001_Node000002" class="edge">
<title>Node2&#45;&gt;Node1</title>
<g id="a_edge1_Node000001_Node000002"><a xlink:title=" ">
<path fill="none" stroke="#63b8ff" d="M82.5,-122.59C82.5,-109.25 82.5,-92.12 82.5,-76.42"/>
<polygon fill="none" stroke="#63b8ff" points="82.5,-76.58 78.5,-70.58 82.5,-64.58 86.5,-70.58 82.5,-76.58"/>
</a>
</g>
<text text-anchor="middle" x="104.25" y="-95" font-family="Helvetica,sans-Serif" font-size="10.00" fill="grey"> +subtype</text>
<text text-anchor="middle" x="104.25" y="-83.75" font-family="Helvetica,sans-Serif" font-size="10.00" fill="grey">+type</text>
</g>
</g>
</svg>
