<?xml version="1.0" encoding="UTF-8" standalone="no"?>
<!DOCTYPE svg PUBLIC "-//W3C//DTD SVG 1.1//EN"
 "http://www.w3.org/Graphics/SVG/1.1/DTD/svg11.dtd">
<!-- Generated by graphviz version 10.0.1 (20240210.2158)
 -->
<!-- Title: NAudio.Dmo.Effect.DmoI3DL2Reverb.Params Pages: 1 -->
<!--zoomable 768 -->

<svg id="main" version="1.1" xmlns="http://www.w3.org/2000/svg" xmlns:xlink="http://www.w3.org/1999/xlink" xml:space="preserve" onload="init(evt)">
<style type="text/css"><![CDATA[
.node, .edge {opacity: 0.7;}
.node.selected, .edge.selected {opacity: 1;}
.edge:hover path { stroke: red; }
.edge:hover polygon { stroke: red; fill: red; }
]]></style>

<defs>
  <circle id="rim" cx="0" cy="0" r="7"/>
  <circle id="rim2" cx="0" cy="0" r="3.5"/>
  <g id="zoomPlus">
    <use xlink:href="#rim" fill="#404040"><set attributeName="fill" to="#808080" begin="zoomplus.mouseover" end="zoomplus.mouseout"/></use>
    <path d="M-4,0h8M0,-4v8" fill="none" stroke="white" stroke-width="1.5" pointer-events="none"/>
  </g>
  <g id="zoomMin">
    <use xlink:href="#rim" fill="#404040"><set attributeName="fill" to="#808080" begin="zoomminus.mouseover" end="zoomminus.mouseout"/></use>
    <path d="M-4,0h8" fill="none" stroke="white" stroke-width="1.5" pointer-events="none"/>
  </g>
  <g id="arrowUp" transform="translate(30 24)">
    <use xlink:href="#rim"/>
    <path pointer-events="none" fill="none" stroke="white" stroke-width="1.5" d="M0,-3.0v7 M-2.5,-0.5L0,-3.0L2.5,-0.5"/>
  </g>
  <g id="arrowRight" transform="rotate(90) translate(36 -43)">
    <use xlink:href="#rim"/>
    <path pointer-events="none" fill="none" stroke="white" stroke-width="1.5" d="M0,-3.0v7 M-2.5,-0.5L0,-3.0L2.5,-0.5"/>
  </g>
  <g id="arrowDown" transform="rotate(180) translate(-30 -48)">
    <use xlink:href="#rim"/>
    <path pointer-events="none" fill="none" stroke="white" stroke-width="1.5" d="M0,-3.0v7 M-2.5,-0.5L0,-3.0L2.5,-0.5"/>
  </g>
  <g id="arrowLeft" transform="rotate(270) translate(-36 17)">
    <use xlink:href="#rim"/>
    <path pointer-events="none" fill="none" stroke="white" stroke-width="1.5" d="M0,-3.0v7 M-2.5,-0.5L0,-3.0L2.5,-0.5"/>
  </g>
  <g id="resetDef">
    <use xlink:href="#rim2" fill="#404040"><set attributeName="fill" to="#808080" begin="reset.mouseover" end="reset.mouseout"/></use>
  </g>
</defs>
<script type="application/ecmascript">
var viewWidth = 319;
var viewHeight = 768;
var sectionId = 'dynsection-0';
</script>
<script type="application/ecmascript" xlink:href="svg.min.js"/>
<svg id="graph" class="graph">
<g id="viewport">
<title>NAudio.Dmo.Effect.DmoI3DL2Reverb.Params</title>
<!-- Node1 -->
<g id="Node000001" class="node">
<title>Node1</title>
<g id="a_Node000001"><a xlink:title="DMO I3DL2Reverb Params.">
<polygon fill="#999999" stroke="none" points="192.5,-465 47.5,-465 47.5,0 192.5,0 192.5,-465"/>
<text text-anchor="start" x="52.12" y="-451.5" font-family="Helvetica,sans-Serif" font-size="10.00">NAudio.Dmo.Effect.DmoI3DL2</text>
<text text-anchor="start" x="85.88" y="-440.25" font-family="Helvetica,sans-Serif" font-size="10.00">Reverb.Params</text>
<text text-anchor="start" x="54" y="-425.5" font-family="Helvetica,sans-Serif" font-size="10.00">+</text>
<text text-anchor="start" x="66.5" y="-425.5" font-family="Helvetica,sans-Serif" font-size="10.00">RoomMin</text>
<text text-anchor="start" x="54" y="-410.5" font-family="Helvetica,sans-Serif" font-size="10.00">+</text>
<text text-anchor="start" x="66.5" y="-410.5" font-family="Helvetica,sans-Serif" font-size="10.00">RoomMax</text>
<text text-anchor="start" x="54" y="-395.5" font-family="Helvetica,sans-Serif" font-size="10.00">+</text>
<text text-anchor="start" x="66.5" y="-395.5" font-family="Helvetica,sans-Serif" font-size="10.00">RoomHfMin</text>
<text text-anchor="start" x="54" y="-380.5" font-family="Helvetica,sans-Serif" font-size="10.00">+</text>
<text text-anchor="start" x="66.5" y="-380.5" font-family="Helvetica,sans-Serif" font-size="10.00">RoomHfMax</text>
<text text-anchor="start" x="54" y="-365.5" font-family="Helvetica,sans-Serif" font-size="10.00">+</text>
<text text-anchor="start" x="66.5" y="-365.5" font-family="Helvetica,sans-Serif" font-size="10.00">RoomHfDefault</text>
<text text-anchor="start" x="54" y="-350.5" font-family="Helvetica,sans-Serif" font-size="10.00">+</text>
<text text-anchor="start" x="66.5" y="-350.5" font-family="Helvetica,sans-Serif" font-size="10.00">RoomRollOffFactorMin</text>
<text text-anchor="start" x="54" y="-335.5" font-family="Helvetica,sans-Serif" font-size="10.00">+</text>
<text text-anchor="start" x="66.5" y="-335.5" font-family="Helvetica,sans-Serif" font-size="10.00">RoomRollOffFactorMax</text>
<text text-anchor="start" x="54" y="-320.5" font-family="Helvetica,sans-Serif" font-size="10.00">+</text>
<text text-anchor="start" x="66.5" y="-320.5" font-family="Helvetica,sans-Serif" font-size="10.00">RoomRollOffFactorDefault</text>
<text text-anchor="start" x="54" y="-305.5" font-family="Helvetica,sans-Serif" font-size="10.00">+</text>
<text text-anchor="start" x="66.5" y="-305.5" font-family="Helvetica,sans-Serif" font-size="10.00">ReflectionsDelayMin</text>
<text text-anchor="start" x="54" y="-290.5" font-family="Helvetica,sans-Serif" font-size="10.00">+</text>
<text text-anchor="start" x="66.5" y="-290.5" font-family="Helvetica,sans-Serif" font-size="10.00">ReflectionsDelayMax</text>
<text text-anchor="start" x="66.5" y="-275.5" font-family="Helvetica,sans-Serif" font-size="10.00">and 9 more...</text>
<text text-anchor="start" x="54" y="-260.5" font-family="Helvetica,sans-Serif" font-size="10.00">+</text>
<text text-anchor="start" x="66.5" y="-260.5" font-family="Helvetica,sans-Serif" font-size="10.00">Room</text>
<text text-anchor="start" x="54" y="-245.5" font-family="Helvetica,sans-Serif" font-size="10.00">+</text>
<text text-anchor="start" x="66.5" y="-245.5" font-family="Helvetica,sans-Serif" font-size="10.00">RoomHf</text>
<text text-anchor="start" x="54" y="-230.5" font-family="Helvetica,sans-Serif" font-size="10.00">+</text>
<text text-anchor="start" x="66.5" y="-230.5" font-family="Helvetica,sans-Serif" font-size="10.00">RoomRollOffFactor</text>
<text text-anchor="start" x="54" y="-215.5" font-family="Helvetica,sans-Serif" font-size="10.00">+</text>
<text text-anchor="start" x="66.5" y="-215.5" font-family="Helvetica,sans-Serif" font-size="10.00">DecayTime</text>
<text text-anchor="start" x="54" y="-200.5" font-family="Helvetica,sans-Serif" font-size="10.00">+</text>
<text text-anchor="start" x="66.5" y="-200.5" font-family="Helvetica,sans-Serif" font-size="10.00">DecayHfRatio</text>
<text text-anchor="start" x="54" y="-185.5" font-family="Helvetica,sans-Serif" font-size="10.00">+</text>
<text text-anchor="start" x="66.5" y="-185.5" font-family="Helvetica,sans-Serif" font-size="10.00">Reflections</text>
<text text-anchor="start" x="54" y="-170.5" font-family="Helvetica,sans-Serif" font-size="10.00">+</text>
<text text-anchor="start" x="66.5" y="-170.5" font-family="Helvetica,sans-Serif" font-size="10.00">ReflectionsDelay</text>
<text text-anchor="start" x="54" y="-155.5" font-family="Helvetica,sans-Serif" font-size="10.00">+</text>
<text text-anchor="start" x="66.5" y="-155.5" font-family="Helvetica,sans-Serif" font-size="10.00">Reverb</text>
<text text-anchor="start" x="54" y="-140.5" font-family="Helvetica,sans-Serif" font-size="10.00">+</text>
<text text-anchor="start" x="66.5" y="-140.5" font-family="Helvetica,sans-Serif" font-size="10.00">ReverbDelay</text>
<text text-anchor="start" x="54" y="-125.5" font-family="Helvetica,sans-Serif" font-size="10.00">+</text>
<text text-anchor="start" x="66.5" y="-125.5" font-family="Helvetica,sans-Serif" font-size="10.00">Diffusion</text>
<text text-anchor="start" x="54" y="-110.5" font-family="Helvetica,sans-Serif" font-size="10.00">+</text>
<text text-anchor="start" x="66.5" y="-110.5" font-family="Helvetica,sans-Serif" font-size="10.00">Density</text>
<text text-anchor="start" x="54" y="-95.5" font-family="Helvetica,sans-Serif" font-size="10.00">+</text>
<text text-anchor="start" x="66.5" y="-95.5" font-family="Helvetica,sans-Serif" font-size="10.00">HfReference</text>
<text text-anchor="start" x="54" y="-80.5" font-family="Helvetica,sans-Serif" font-size="10.00">+</text>
<text text-anchor="start" x="66.5" y="-80.5" font-family="Helvetica,sans-Serif" font-size="10.00">Quality</text>
<text text-anchor="start" x="54" y="-65.5" font-family="Helvetica,sans-Serif" font-size="10.00">+</text>
<text text-anchor="start" x="66.5" y="-65.5" font-family="Helvetica,sans-Serif" font-size="10.00">SetPreset()</text>
<text text-anchor="start" x="54" y="-50.5" font-family="Helvetica,sans-Serif" font-size="10.00">+</text>
<text text-anchor="start" x="66.5" y="-50.5" font-family="Helvetica,sans-Serif" font-size="10.00">GetPreset()</text>
<text text-anchor="start" x="54" y="-35.5" font-family="Helvetica,sans-Serif" font-size="10.00">~</text>
<text text-anchor="start" x="66.5" y="-35.5" font-family="Helvetica,sans-Serif" font-size="10.00">Params()</text>
<text text-anchor="start" x="55.5" y="-20.5" font-family="Helvetica,sans-Serif" font-size="10.00">&#45;</text>
<text text-anchor="start" x="66.5" y="-20.5" font-family="Helvetica,sans-Serif" font-size="10.00">SetAllParameters()</text>
<text text-anchor="start" x="55.5" y="-5.5" font-family="Helvetica,sans-Serif" font-size="10.00">&#45;</text>
<text text-anchor="start" x="66.5" y="-5.5" font-family="Helvetica,sans-Serif" font-size="10.00">GetAllParameters()</text>
<polygon fill="#666666" stroke="#666666" points="47.5,-437 47.5,-437 192.5,-437 192.5,-437 47.5,-437"/>
<polygon fill="#666666" stroke="#666666" points="47.5,-77 47.5,-77 64.5,-77 64.5,-77 47.5,-77"/>
<polygon fill="#666666" stroke="#666666" points="64.5,-77 64.5,-77 192.5,-77 192.5,-77 64.5,-77"/>
<polygon fill="none" stroke="#666666" points="47.5,0 47.5,-465 192.5,-465 192.5,0 47.5,0"/>
</a>
</g>
</g>
<!-- Node2 -->
<g id="Node000002" class="node">
<title>Node2</title>
<g id="a_Node000002"><a xlink:title=" ">
<polygon fill="white" stroke="none" points="20,-716.75 0,-716.75 0,-667.75 20,-667.75 20,-716.75"/>
<text text-anchor="start" x="4.75" y="-703.25" font-family="Helvetica,sans-Serif" font-size="10.00">int</text>
<text text-anchor="start" x="8.5" y="-688.25" font-family="Helvetica,sans-Serif" font-size="10.00"> </text>
<text text-anchor="start" x="8.5" y="-673.25" font-family="Helvetica,sans-Serif" font-size="10.00"> </text>
<polygon fill="#666666" stroke="#666666" points="0,-699.75 0,-699.75 20,-699.75 20,-699.75 0,-699.75"/>
<polygon fill="#666666" stroke="#666666" points="0,-684.75 0,-684.75 20,-684.75 20,-684.75 0,-684.75"/>
<polygon fill="none" stroke="#666666" points="0,-667.75 0,-716.75 20,-716.75 20,-667.75 0,-667.75"/>
</a>
</g>
</g>
<!-- Node2&#45;&gt;Node1 -->
<g id="edge1_Node000001_Node000002" class="edge">
<title>Node2&#45;&gt;Node1</title>
<g id="a_edge1_Node000001_Node000002"><a xlink:title=" ">
<path fill="none" stroke="#63b8ff" d="M10.17,-667.83C10.9,-628.97 14.24,-548.89 29,-483 33.05,-464.91 38.08,-446.35 43.67,-427.91"/>
<polygon fill="none" stroke="#63b8ff" points="43.7,-427.81 41.65,-420.9 47.25,-416.35 49.29,-423.27 43.7,-427.81"/>
</a>
</g>
<text text-anchor="middle" x="72.5" y="-597.25" font-family="Helvetica,sans-Serif" font-size="10.00" fill="grey"> +QualityDefault</text>
<text text-anchor="middle" x="72.5" y="-586" font-family="Helvetica,sans-Serif" font-size="10.00" fill="grey">+QualityMax</text>
<text text-anchor="middle" x="72.5" y="-574.75" font-family="Helvetica,sans-Serif" font-size="10.00" fill="grey">+QualityMin</text>
<text text-anchor="middle" x="72.5" y="-563.5" font-family="Helvetica,sans-Serif" font-size="10.00" fill="grey">+ReflectionsDefault</text>
<text text-anchor="middle" x="72.5" y="-552.25" font-family="Helvetica,sans-Serif" font-size="10.00" fill="grey">+ReflectionsMax</text>
<text text-anchor="middle" x="72.5" y="-541" font-family="Helvetica,sans-Serif" font-size="10.00" fill="grey">+ReflectionsMin</text>
<text text-anchor="middle" x="72.5" y="-529.75" font-family="Helvetica,sans-Serif" font-size="10.00" fill="grey">+ReverbDefault</text>
<text text-anchor="middle" x="72.5" y="-518.5" font-family="Helvetica,sans-Serif" font-size="10.00" fill="grey">+ReverbMax</text>
<text text-anchor="middle" x="72.5" y="-507.25" font-family="Helvetica,sans-Serif" font-size="10.00" fill="grey">+ReverbMin</text>
<text text-anchor="middle" x="72.5" y="-496" font-family="Helvetica,sans-Serif" font-size="10.00" fill="grey">+RoomDefault</text>
<text text-anchor="middle" x="72.5" y="-484.75" font-family="Helvetica,sans-Serif" font-size="10.00" fill="grey">...</text>
</g>
<!-- Node3 -->
<g id="Node000003" class="node">
<title>Node3</title>
<g id="a_Node000003"><a xlink:title=" ">
<polygon fill="white" stroke="none" points="134,-716.75 106,-716.75 106,-667.75 134,-667.75 134,-716.75"/>
<text text-anchor="start" x="110.62" y="-703.25" font-family="Helvetica,sans-Serif" font-size="10.00">float</text>
<text text-anchor="start" x="118.5" y="-688.25" font-family="Helvetica,sans-Serif" font-size="10.00"> </text>
<text text-anchor="start" x="118.5" y="-673.25" font-family="Helvetica,sans-Serif" font-size="10.00"> </text>
<polygon fill="#666666" stroke="#666666" points="106,-699.75 106,-699.75 134,-699.75 134,-699.75 106,-699.75"/>
<polygon fill="#666666" stroke="#666666" points="106,-684.75 106,-684.75 134,-684.75 134,-684.75 106,-684.75"/>
<polygon fill="none" stroke="#666666" points="106,-667.75 106,-716.75 134,-716.75 134,-667.75 106,-667.75"/>
</a>
</g>
</g>
<!-- Node3&#45;&gt;Node1 -->
<g id="edge2_Node000001_Node000003" class="edge">
<title>Node3&#45;&gt;Node1</title>
<g id="a_edge2_Node000001_Node000003"><a xlink:title=" ">
<path fill="none" stroke="#63b8ff" d="M120,-667.92C120,-631.12 120,-555.73 120,-477.94"/>
<polygon fill="none" stroke="#63b8ff" points="120,-477.83 116,-471.83 120,-465.83 124,-471.83 120,-477.83"/>
</a>
</g>
<text text-anchor="middle" x="171.38" y="-597.25" font-family="Helvetica,sans-Serif" font-size="10.00" fill="grey"> +DecayHfRatioDefault</text>
<text text-anchor="middle" x="171.38" y="-586" font-family="Helvetica,sans-Serif" font-size="10.00" fill="grey">+DecayHfRatioMax</text>
<text text-anchor="middle" x="171.38" y="-574.75" font-family="Helvetica,sans-Serif" font-size="10.00" fill="grey">+DecayHfRatioMin</text>
<text text-anchor="middle" x="171.38" y="-563.5" font-family="Helvetica,sans-Serif" font-size="10.00" fill="grey">+DecayTimeDefault</text>
<text text-anchor="middle" x="171.38" y="-552.25" font-family="Helvetica,sans-Serif" font-size="10.00" fill="grey">+DecayTimeMax</text>
<text text-anchor="middle" x="171.38" y="-541" font-family="Helvetica,sans-Serif" font-size="10.00" fill="grey">+DecayTimeMin</text>
<text text-anchor="middle" x="171.38" y="-529.75" font-family="Helvetica,sans-Serif" font-size="10.00" fill="grey">+DensityDefault</text>
<text text-anchor="middle" x="171.38" y="-518.5" font-family="Helvetica,sans-Serif" font-size="10.00" fill="grey">+DensityMax</text>
<text text-anchor="middle" x="171.38" y="-507.25" font-family="Helvetica,sans-Serif" font-size="10.00" fill="grey">+DensityMin</text>
<text text-anchor="middle" x="171.38" y="-496" font-family="Helvetica,sans-Serif" font-size="10.00" fill="grey">+DiffusionDefault</text>
<text text-anchor="middle" x="171.38" y="-484.75" font-family="Helvetica,sans-Serif" font-size="10.00" fill="grey">...</text>
</g>
<!-- Node4 -->
<g id="Node000004" class="node">
<title>Node4</title>
<g id="a_Node000004"><a xlink:href="interface_n_audio_1_1_dmo_1_1_effect_1_1_i_direct_sound_f_x_i3_d_l2_reverb.html" target="_top" xlink:title=" ">
<polygon fill="white" stroke="none" points="309.5,-759.75 182.5,-759.75 182.5,-624.75 309.5,-624.75 309.5,-759.75"/>
<text text-anchor="start" x="187.12" y="-746.25" font-family="Helvetica,sans-Serif" font-size="10.00">NAudio.Dmo.Effect.IDirect</text>
<text text-anchor="start" x="196.88" y="-735" font-family="Helvetica,sans-Serif" font-size="10.00">SoundFXI3DL2Reverb</text>
<text text-anchor="start" x="244.5" y="-720.25" font-family="Helvetica,sans-Serif" font-size="10.00"> </text>
<text text-anchor="start" x="193" y="-705.25" font-family="Helvetica,sans-Serif" font-size="10.00">+</text>
<text text-anchor="start" x="209.5" y="-705.25" font-family="Helvetica,sans-Serif" font-size="10.00">SetAllParameters()</text>
<text text-anchor="start" x="193" y="-690.25" font-family="Helvetica,sans-Serif" font-size="10.00">+</text>
<text text-anchor="start" x="209.5" y="-690.25" font-family="Helvetica,sans-Serif" font-size="10.00">GetAllParameters()</text>
<text text-anchor="start" x="193" y="-675.25" font-family="Helvetica,sans-Serif" font-size="10.00">+</text>
<text text-anchor="start" x="209.5" y="-675.25" font-family="Helvetica,sans-Serif" font-size="10.00">SetPreset()</text>
<text text-anchor="start" x="193" y="-660.25" font-family="Helvetica,sans-Serif" font-size="10.00">+</text>
<text text-anchor="start" x="209.5" y="-660.25" font-family="Helvetica,sans-Serif" font-size="10.00">GetPreset()</text>
<text text-anchor="start" x="193" y="-645.25" font-family="Helvetica,sans-Serif" font-size="10.00">+</text>
<text text-anchor="start" x="209.5" y="-645.25" font-family="Helvetica,sans-Serif" font-size="10.00">SetQuality()</text>
<text text-anchor="start" x="193" y="-630.25" font-family="Helvetica,sans-Serif" font-size="10.00">+</text>
<text text-anchor="start" x="209.5" y="-630.25" font-family="Helvetica,sans-Serif" font-size="10.00">GetQuality()</text>
<polygon fill="#666666" stroke="#666666" points="182.5,-731.75 182.5,-731.75 309.5,-731.75 309.5,-731.75 182.5,-731.75"/>
<polygon fill="#666666" stroke="#666666" points="182.5,-716.75 182.5,-716.75 309.5,-716.75 309.5,-716.75 182.5,-716.75"/>
<polygon fill="none" stroke="#666666" points="182.5,-624.75 182.5,-759.75 309.5,-759.75 309.5,-624.75 182.5,-624.75"/>
</a>
</g>
</g>
<!-- Node4&#45;&gt;Node1 -->
<g id="edge3_Node000001_Node000004" class="edge">
<title>Node4&#45;&gt;Node1</title>
<g id="a_edge3_Node000001_Node000004"><a xlink:title=" ">
<path fill="none" stroke="#63b8ff" d="M243.9,-625.2C241.4,-583.82 235.92,-529.67 224,-483 216.99,-455.57 207.51,-427.22 197.12,-399.89"/>
<polygon fill="none" stroke="#63b8ff" points="197.11,-399.87 191.21,-395.72 192.77,-388.68 198.67,-392.83 197.11,-399.87"/>
</a>
</g>
<text text-anchor="middle" x="276.5" y="-541" font-family="Helvetica,sans-Serif" font-size="10.00" fill="grey"> &#45;fxI3Dl2Reverb</text>
</g>
</g>
</svg>

<g id="navigator" transform="translate(0 0)" fill="#404254">
  <rect fill="#f2f5e9" fill-opacity="0.5" stroke="#606060" stroke-width=".5" x="0" y="0" width="60" height="60"/>
  <use id="zoomplus" xlink:href="#zoomPlus" x="17" y="9" onmousedown="handleZoom(evt,'in')"/>
  <use id="zoomminus" xlink:href="#zoomMin" x="42" y="9" onmousedown="handleZoom(evt,'out')"/>
  <use id="reset" xlink:href="#resetDef" x="30" y="36" onmousedown="handleReset()"/>
   <use id="arrowup" xlink:href="#arrowUp" x="0" y="0" onmousedown="handlePan(0,-1)"/>
  <use id="arrowright" xlink:href="#arrowRight" x="0" y="0" onmousedown="handlePan(1,0)"/>
  <use id="arrowdown" xlink:href="#arrowDown" x="0" y="0" onmousedown="handlePan(0,1)"/>
  <use id="arrowleft" xlink:href="#arrowLeft" x="0" y="0" onmousedown="handlePan(-1,0)"/>
</g>
<svg viewBox="0 0 15 15" width="100%" height="30px" preserveAspectRatio="xMaxYMin meet">
 <g id="arrow_out" transform="scale(0.3 0.3)">
  <a xlink:href="struct_n_audio_1_1_dmo_1_1_effect_1_1_dmo_i3_d_l2_reverb_1_1_params__coll__graph_org.svg" target="_base">
   <rect id="button" ry="5" rx="5" y="6" x="6" height="38" width="38"
        fill="#f2f5e9" fill-opacity="0.5" stroke="#606060" stroke-width="1.0"/>
   <path id="arrow"
     d="M 11.500037,31.436501 C 11.940474,20.09759 22.043105,11.32322 32.158766,21.979434 L 37.068811,17.246167 C 37.068811,17.246167 37.088388,32 37.088388,32 L 22.160133,31.978069 C 22.160133,31.978069 26.997745,27.140456 26.997745,27.140456 C 18.528582,18.264221 13.291696,25.230495 11.500037,31.436501 z"
     style="fill:#404040;"/>
  </a>
 </g>
</svg>

<style type='text/css'>
<![CDATA[
[data-mouse-over-selected='false'] { opacity: 0.7; }
[data-mouse-over-selected='true']  { opacity: 1.0; }
]]>
</style>
<script type="application/ecmascript"><![CDATA[
document.addEventListener('DOMContentLoaded', (event) => {
  highlightEdges();
  highlightAdjacentNodes();
});
]]></script>
</svg>
