<?xml version="1.0" encoding="UTF-8" standalone="no"?>
<!DOCTYPE svg PUBLIC "-//W3C//DTD SVG 1.1//EN"
 "http://www.w3.org/Graphics/SVG/1.1/DTD/svg11.dtd">
<!-- Generated by graphviz version 10.0.1 (20240210.2158)
 -->
<!-- Title: InfoGrab.SQLiteHandler.record_header_field Pages: 1 -->
<svg width="151pt" height="176pt"
 viewBox="0.00 0.00 151.00 175.50" xmlns="http://www.w3.org/2000/svg" xmlns:xlink="http://www.w3.org/1999/xlink">
<g id="graph0" class="graph" transform="scale(1 1) rotate(0) translate(4 171.5)">
<title>InfoGrab.SQLiteHandler.record_header_field</title>
<!-- Node1 -->
<g id="Node000001" class="node">
<title>Node1</title>
<g id="a_Node000001"><a xlink:title=" ">
<polygon fill="#999999" stroke="none" points="143,-60 0,-60 0,0 143,0 143,-60"/>
<text text-anchor="start" x="4.75" y="-46.5" font-family="Helvetica,sans-Serif" font-size="10.00">InfoGrab.SQLiteHandler.record</text>
<text text-anchor="start" x="42.62" y="-35.25" font-family="Helvetica,sans-Serif" font-size="10.00">_header_field</text>
<text text-anchor="start" x="70" y="-20.5" font-family="Helvetica,sans-Serif" font-size="10.00"> </text>
<text text-anchor="start" x="70" y="-5.5" font-family="Helvetica,sans-Serif" font-size="10.00"> </text>
<polygon fill="#666666" stroke="#666666" points="0,-32 0,-32 143,-32 143,-32 0,-32"/>
<polygon fill="#666666" stroke="#666666" points="0,-17 0,-17 143,-17 143,-17 0,-17"/>
<polygon fill="none" stroke="#666666" points="0,0 0,-60 143,-60 143,0 0,0"/>
</a>
</g>
</g>
<!-- Node2 -->
<g id="Node000002" class="node">
<title>Node2</title>
<g id="a_Node000002"><a xlink:title=" ">
<polygon fill="white" stroke="none" points="85.5,-167.5 57.5,-167.5 57.5,-118.5 85.5,-118.5 85.5,-167.5"/>
<text text-anchor="start" x="62.5" y="-154" font-family="Helvetica,sans-Serif" font-size="10.00">long</text>
<text text-anchor="start" x="70" y="-139" font-family="Helvetica,sans-Serif" font-size="10.00"> </text>
<text text-anchor="start" x="70" y="-124" font-family="Helvetica,sans-Serif" font-size="10.00"> </text>
<polygon fill="#666666" stroke="#666666" points="57.5,-150.5 57.5,-150.5 85.5,-150.5 85.5,-150.5 57.5,-150.5"/>
<polygon fill="#666666" stroke="#666666" points="57.5,-135.5 57.5,-135.5 85.5,-135.5 85.5,-135.5 57.5,-135.5"/>
<polygon fill="none" stroke="#666666" points="57.5,-118.5 57.5,-167.5 85.5,-167.5 85.5,-118.5 57.5,-118.5"/>
</a>
</g>
</g>
<!-- Node2&#45;&gt;Node1 -->
<g id="edge1_Node000001_Node000002" class="edge">
<title>Node2&#45;&gt;Node1</title>
<g id="a_edge1_Node000001_Node000002"><a xlink:title=" ">
<path fill="none" stroke="#63b8ff" d="M71.5,-118.73C71.5,-105.32 71.5,-88.07 71.5,-72.42"/>
<polygon fill="none" stroke="#63b8ff" points="71.5,-72.67 67.5,-66.67 71.5,-60.67 75.5,-66.67 71.5,-72.67"/>
</a>
</g>
<text text-anchor="middle" x="85" y="-91" font-family="Helvetica,sans-Serif" font-size="10.00" fill="grey"> +size</text>
<text text-anchor="middle" x="85" y="-79.75" font-family="Helvetica,sans-Serif" font-size="10.00" fill="grey">+type</text>
</g>
</g>
</svg>
