<?xml version="1.0" encoding="UTF-8" standalone="no"?>
<!DOCTYPE svg PUBLIC "-//W3C//DTD SVG 1.1//EN"
 "http://www.w3.org/Graphics/SVG/1.1/DTD/svg11.dtd">
<!-- Generated by graphviz version 10.0.1 (20240210.2158)
 -->
<!-- Title: Hidden_handler.Imaging_handler.RECT Pages: 1 -->
<svg width="122pt" height="198pt"
 viewBox="0.00 0.00 122.00 198.00" xmlns="http://www.w3.org/2000/svg" xmlns:xlink="http://www.w3.org/1999/xlink">

<svg id="main" version="1.1" xmlns="http://www.w3.org/2000/svg" xmlns:xlink="http://www.w3.org/1999/xlink" xml:space="preserve" onload="init(evt)">
<style type="text/css"><![CDATA[
.node, .edge {opacity: 0.7;}
.node.selected, .edge.selected {opacity: 1;}
.edge:hover path { stroke: red; }
.edge:hover polygon { stroke: red; fill: red; }
]]></style>
<script type="application/ecmascript" xlink:href="svg.min.js"/>
<svg id="graph" class="graph">
<g id="graph0" class="graph" transform="scale(1 1) rotate(0) translate(4 194)">
<title>Hidden_handler.Imaging_handler.RECT</title>
<!-- Node1 -->
<g id="Node000001" class="node">
<title>Node1</title>
<g id="a_Node000001"><a xlink:title=" ">
<polygon fill="#999999" stroke="none" points="114,-60 0,-60 0,0 114,0 114,-60"/>
<text text-anchor="start" x="4.88" y="-46.5" font-family="Helvetica,sans-Serif" font-size="10.00">Hidden_handler.Imaging</text>
<text text-anchor="start" x="23.62" y="-35.25" font-family="Helvetica,sans-Serif" font-size="10.00">_handler.RECT</text>
<text text-anchor="start" x="55.5" y="-20.5" font-family="Helvetica,sans-Serif" font-size="10.00"> </text>
<text text-anchor="start" x="55.5" y="-5.5" font-family="Helvetica,sans-Serif" font-size="10.00"> </text>
<polygon fill="#666666" stroke="#666666" points="0,-32 0,-32 114,-32 114,-32 0,-32"/>
<polygon fill="#666666" stroke="#666666" points="0,-17 0,-17 114,-17 114,-17 0,-17"/>
<polygon fill="none" stroke="#666666" points="0,0 0,-60 114,-60 114,0 0,0"/>
</a>
</g>
</g>
<!-- Node2 -->
<g id="Node000002" class="node">
<title>Node2</title>
<g id="a_Node000002"><a xlink:title=" ">
<polygon fill="white" stroke="none" points="67,-190 47,-190 47,-141 67,-141 67,-190"/>
<text text-anchor="start" x="51.75" y="-176.5" font-family="Helvetica,sans-Serif" font-size="10.00">int</text>
<text text-anchor="start" x="55.5" y="-161.5" font-family="Helvetica,sans-Serif" font-size="10.00"> </text>
<text text-anchor="start" x="55.5" y="-146.5" font-family="Helvetica,sans-Serif" font-size="10.00"> </text>
<polygon fill="#666666" stroke="#666666" points="47,-173 47,-173 67,-173 67,-173 47,-173"/>
<polygon fill="#666666" stroke="#666666" points="47,-158 47,-158 67,-158 67,-158 47,-158"/>
<polygon fill="none" stroke="#666666" points="47,-141 47,-190 67,-190 67,-141 47,-141"/>
</a>
</g>
</g>
<!-- Node2&#45;&gt;Node1 -->
<g id="edge1_Node000001_Node000002" class="edge">
<title>Node2&#45;&gt;Node1</title>
<g id="a_edge1_Node000001_Node000002"><a xlink:title=" ">
<path fill="none" stroke="#63b8ff" d="M57,-141.25C57,-122.35 57,-95.22 57,-72.6"/>
<polygon fill="none" stroke="#63b8ff" points="57,-72.46 53,-66.46 57,-60.46 61,-66.46 57,-72.46"/>
</a>
</g>
<text text-anchor="middle" x="77.25" y="-113.5" font-family="Helvetica,sans-Serif" font-size="10.00" fill="grey"> +Bottom</text>
<text text-anchor="middle" x="77.25" y="-102.25" font-family="Helvetica,sans-Serif" font-size="10.00" fill="grey">+Left</text>
<text text-anchor="middle" x="77.25" y="-91" font-family="Helvetica,sans-Serif" font-size="10.00" fill="grey">+Right</text>
<text text-anchor="middle" x="77.25" y="-79.75" font-family="Helvetica,sans-Serif" font-size="10.00" fill="grey">+Top</text>
</g>
</g>
</svg>
</svg>

<style type='text/css'>
<![CDATA[
[data-mouse-over-selected='false'] { opacity: 0.7; }
[data-mouse-over-selected='true']  { opacity: 1.0; }
]]>
</style>
<script type="application/ecmascript"><![CDATA[
document.addEventListener('DOMContentLoaded', (event) => {
  highlightEdges();
  highlightAdjacentNodes();
});
]]></script>
</svg>
