<?xml version="1.0" encoding="UTF-8" standalone="no"?>
<!DOCTYPE svg PUBLIC "-//W3C//DTD SVG 1.1//EN"
 "http://www.w3.org/Graphics/SVG/1.1/DTD/svg11.dtd">
<!-- Generated by graphviz version 10.0.1 (20240210.2158)
 -->
<!-- Title: Hidden_handler.input_handler.WINDOWPLACEMENT Pages: 1 -->
<svg width="301pt" height="317pt"
 viewBox="0.00 0.00 300.58 316.50" xmlns="http://www.w3.org/2000/svg" xmlns:xlink="http://www.w3.org/1999/xlink">
<g id="graph0" class="graph" transform="scale(1 1) rotate(0) translate(4 312.5)">
<title>Hidden_handler.input_handler.WINDOWPLACEMENT</title>
<!-- Node1 -->
<g id="Node000001" class="node">
<title>Node1</title>
<g id="a_Node000001"><a xlink:title=" ">
<polygon fill="#999999" stroke="none" points="195.08,-60 40.08,-60 40.08,0 195.08,0 195.08,-60"/>
<text text-anchor="start" x="44.83" y="-46.5" font-family="Helvetica,sans-Serif" font-size="10.00">Hidden_handler.input</text>
<text text-anchor="start" x="44.83" y="-35.25" font-family="Helvetica,sans-Serif" font-size="10.00">_handler.WINDOWPLACEMENT</text>
<text text-anchor="start" x="116.08" y="-20.5" font-family="Helvetica,sans-Serif" font-size="10.00"> </text>
<text text-anchor="start" x="116.08" y="-5.5" font-family="Helvetica,sans-Serif" font-size="10.00"> </text>
<polygon fill="#666666" stroke="#666666" points="40.08,-32 40.08,-32 195.08,-32 195.08,-32 40.08,-32"/>
<polygon fill="#666666" stroke="#666666" points="40.08,-17 40.08,-17 195.08,-17 195.08,-17 40.08,-17"/>
<polygon fill="none" stroke="#666666" points="40.08,0 40.08,-60 195.08,-60 195.08,0 40.08,0"/>
</a>
</g>
</g>
<!-- Node2 -->
<g id="Node000002" class="node">
<title>Node2</title>
<g id="a_Node000002"><a xlink:title=" ">
<polygon fill="white" stroke="none" points="127.58,-308.5 107.58,-308.5 107.58,-259.5 127.58,-259.5 127.58,-308.5"/>
<text text-anchor="start" x="112.33" y="-295" font-family="Helvetica,sans-Serif" font-size="10.00">int</text>
<text text-anchor="start" x="116.08" y="-280" font-family="Helvetica,sans-Serif" font-size="10.00"> </text>
<text text-anchor="start" x="116.08" y="-265" font-family="Helvetica,sans-Serif" font-size="10.00"> </text>
<polygon fill="#666666" stroke="#666666" points="107.58,-291.5 107.58,-291.5 127.58,-291.5 127.58,-291.5 107.58,-291.5"/>
<polygon fill="#666666" stroke="#666666" points="107.58,-276.5 107.58,-276.5 127.58,-276.5 127.58,-276.5 107.58,-276.5"/>
<polygon fill="none" stroke="#666666" points="107.58,-259.5 107.58,-308.5 127.58,-308.5 127.58,-259.5 107.58,-259.5"/>
</a>
</g>
</g>
<!-- Node2&#45;&gt;Node1 -->
<g id="edge1_Node000001_Node000002" class="edge">
<title>Node2&#45;&gt;Node1</title>
<g id="a_edge1_Node000001_Node000002"><a xlink:title=" ">
<path fill="none" stroke="#63b8ff" d="M107.82,-277.52C85.14,-264.13 29.16,-227.25 8.33,-178.5 -2.15,-153.98 -3.22,-142.54 8.33,-118.5 18.13,-98.08 35.28,-80.93 53.12,-67.38"/>
<polygon fill="none" stroke="#63b8ff" points="53.18,-67.34 55.72,-60.59 62.93,-60.34 60.38,-67.09 53.18,-67.34"/>
</a>
</g>
<text text-anchor="middle" x="33.7" y="-155.88" font-family="Helvetica,sans-Serif" font-size="10.00" fill="grey"> +flags</text>
<text text-anchor="middle" x="33.7" y="-144.62" font-family="Helvetica,sans-Serif" font-size="10.00" fill="grey">+length</text>
<text text-anchor="middle" x="33.7" y="-133.38" font-family="Helvetica,sans-Serif" font-size="10.00" fill="grey">+showCmd</text>
</g>
<!-- Node3 -->
<g id="Node000003" class="node">
<title>Node3</title>
<g id="a_Node000003"><a xlink:href="struct_hidden__handler_1_1input__handler_1_1_p_o_i_n_t.html" target="_top" xlink:title=" ">
<polygon fill="white" stroke="none" points="167.58,-178.5 67.58,-178.5 67.58,-118.5 167.58,-118.5 167.58,-178.5"/>
<text text-anchor="start" x="72.2" y="-165" font-family="Helvetica,sans-Serif" font-size="10.00">Hidden_handler.input</text>
<text text-anchor="start" x="82.7" y="-153.75" font-family="Helvetica,sans-Serif" font-size="10.00">_handler.POINT</text>
<text text-anchor="start" x="116.08" y="-139" font-family="Helvetica,sans-Serif" font-size="10.00"> </text>
<text text-anchor="start" x="116.08" y="-124" font-family="Helvetica,sans-Serif" font-size="10.00"> </text>
<polygon fill="#666666" stroke="#666666" points="67.58,-150.5 67.58,-150.5 167.58,-150.5 167.58,-150.5 67.58,-150.5"/>
<polygon fill="#666666" stroke="#666666" points="67.58,-135.5 67.58,-135.5 167.58,-135.5 167.58,-135.5 67.58,-135.5"/>
<polygon fill="none" stroke="#666666" points="67.58,-118.5 67.58,-178.5 167.58,-178.5 167.58,-118.5 67.58,-118.5"/>
</a>
</g>
</g>
<!-- Node2&#45;&gt;Node3 -->
<g id="edge3_Node000003_Node000002" class="edge">
<title>Node2&#45;&gt;Node3</title>
<g id="a_edge3_Node000003_Node000002"><a xlink:title=" ">
<path fill="none" stroke="#63b8ff" d="M117.58,-259.75C117.58,-240.85 117.58,-213.72 117.58,-191.1"/>
<polygon fill="none" stroke="#63b8ff" points="117.58,-190.96 113.58,-184.96 117.58,-178.96 121.58,-184.96 117.58,-190.96"/>
</a>
</g>
<text text-anchor="middle" x="124.7" y="-220.75" font-family="Helvetica,sans-Serif" font-size="10.00" fill="grey"> +x</text>
<text text-anchor="middle" x="124.7" y="-209.5" font-family="Helvetica,sans-Serif" font-size="10.00" fill="grey">+y</text>
</g>
<!-- Node4 -->
<g id="Node000004" class="node">
<title>Node4</title>
<g id="a_Node000004"><a xlink:href="struct_hidden__handler_1_1input__handler_1_1_r_e_c_t.html" target="_top" xlink:title=" ">
<polygon fill="white" stroke="none" points="285.58,-178.5 185.58,-178.5 185.58,-118.5 285.58,-118.5 285.58,-178.5"/>
<text text-anchor="start" x="190.2" y="-165" font-family="Helvetica,sans-Serif" font-size="10.00">Hidden_handler.input</text>
<text text-anchor="start" x="202.2" y="-153.75" font-family="Helvetica,sans-Serif" font-size="10.00">_handler.RECT</text>
<text text-anchor="start" x="234.08" y="-139" font-family="Helvetica,sans-Serif" font-size="10.00"> </text>
<text text-anchor="start" x="234.08" y="-124" font-family="Helvetica,sans-Serif" font-size="10.00"> </text>
<polygon fill="#666666" stroke="#666666" points="185.58,-150.5 185.58,-150.5 285.58,-150.5 285.58,-150.5 185.58,-150.5"/>
<polygon fill="#666666" stroke="#666666" points="185.58,-135.5 185.58,-135.5 285.58,-135.5 285.58,-135.5 185.58,-135.5"/>
<polygon fill="none" stroke="#666666" points="185.58,-118.5 185.58,-178.5 285.58,-178.5 285.58,-118.5 185.58,-118.5"/>
</a>
</g>
</g>
<!-- Node2&#45;&gt;Node4 -->
<g id="edge5_Node000004_Node000002" class="edge">
<title>Node2&#45;&gt;Node4</title>
<g id="a_edge5_Node000004_Node000002"><a xlink:title=" ">
<path fill="none" stroke="#63b8ff" d="M127.23,-272.08C143.28,-253.92 176.2,-216.68 201.56,-187.99"/>
<polygon fill="none" stroke="#63b8ff" points="201.63,-187.91 202.61,-180.76 209.58,-178.91 208.6,-186.06 201.63,-187.91"/>
</a>
</g>
<text text-anchor="middle" x="210.08" y="-232" font-family="Helvetica,sans-Serif" font-size="10.00" fill="grey"> +bottom</text>
<text text-anchor="middle" x="210.08" y="-220.75" font-family="Helvetica,sans-Serif" font-size="10.00" fill="grey">+left</text>
<text text-anchor="middle" x="210.08" y="-209.5" font-family="Helvetica,sans-Serif" font-size="10.00" fill="grey">+right</text>
<text text-anchor="middle" x="210.08" y="-198.25" font-family="Helvetica,sans-Serif" font-size="10.00" fill="grey">+top</text>
</g>
<!-- Node3&#45;&gt;Node1 -->
<g id="edge2_Node000001_Node000003" class="edge">
<title>Node3&#45;&gt;Node1</title>
<g id="a_edge2_Node000001_Node000003"><a xlink:title=" ">
<path fill="none" stroke="#63b8ff" d="M117.58,-118.7C117.58,-104.84 117.58,-87.96 117.58,-72.72"/>
<polygon fill="none" stroke="#63b8ff" points="117.58,-72.77 113.58,-66.77 117.58,-60.77 121.58,-66.77 117.58,-72.77"/>
</a>
</g>
<text text-anchor="middle" x="153.2" y="-91" font-family="Helvetica,sans-Serif" font-size="10.00" fill="grey"> +ptMaxPosition</text>
<text text-anchor="middle" x="153.2" y="-79.75" font-family="Helvetica,sans-Serif" font-size="10.00" fill="grey">+ptMinPosition</text>
</g>
<!-- Node4&#45;&gt;Node1 -->
<g id="edge4_Node000001_Node000004" class="edge">
<title>Node4&#45;&gt;Node1</title>
<g id="a_edge4_Node000001_Node000004"><a xlink:title=" ">
<path fill="none" stroke="#63b8ff" d="M221.66,-118.69C214.27,-105.3 204.28,-89.77 192.58,-78 189.02,-74.42 185.14,-70.99 181.09,-67.73"/>
<polygon fill="none" stroke="#63b8ff" points="181.05,-67.7 173.84,-67.3 171.44,-60.51 178.64,-60.9 181.05,-67.7"/>
</a>
</g>
<text text-anchor="middle" x="250.58" y="-85.38" font-family="Helvetica,sans-Serif" font-size="10.00" fill="grey"> +rcNormalPosition</text>
</g>
</g>
</svg>
