<?xml version="1.0" encoding="UTF-8" standalone="no"?>
<!DOCTYPE svg PUBLIC "-//W3C//DTD SVG 1.1//EN"
 "http://www.w3.org/Graphics/SVG/1.1/DTD/svg11.dtd">
<!-- Generated by graphviz version 10.0.1 (20240210.2158)
 -->
<!-- Title: xeno_rat_server.IconInjector.ICONDIRENTRY Pages: 1 -->
<svg width="228pt" height="198pt"
 viewBox="0.00 0.00 227.75 198.00" xmlns="http://www.w3.org/2000/svg" xmlns:xlink="http://www.w3.org/1999/xlink">
<g id="graph0" class="graph" transform="scale(1 1) rotate(0) translate(4 194)">
<title>xeno_rat_server.IconInjector.ICONDIRENTRY</title>
<!-- Node1 -->
<g id="Node000001" class="node">
<title>Node1</title>
<g id="a_Node000001"><a xlink:title=" ">
<polygon fill="#999999" stroke="none" points="163.5,-60 28.5,-60 28.5,0 163.5,0 163.5,-60"/>
<text text-anchor="start" x="33.38" y="-46.5" font-family="Helvetica,sans-Serif" font-size="10.00">xeno_rat_server.IconInjector.</text>
<text text-anchor="start" x="57" y="-35.25" font-family="Helvetica,sans-Serif" font-size="10.00">ICONDIRENTRY</text>
<text text-anchor="start" x="94.5" y="-20.5" font-family="Helvetica,sans-Serif" font-size="10.00"> </text>
<text text-anchor="start" x="94.5" y="-5.5" font-family="Helvetica,sans-Serif" font-size="10.00"> </text>
<polygon fill="#666666" stroke="#666666" points="28.5,-32 28.5,-32 163.5,-32 163.5,-32 28.5,-32"/>
<polygon fill="#666666" stroke="#666666" points="28.5,-17 28.5,-17 163.5,-17 163.5,-17 28.5,-17"/>
<polygon fill="none" stroke="#666666" points="28.5,0 28.5,-60 163.5,-60 163.5,0 28.5,0"/>
</a>
</g>
</g>
<!-- Node2 -->
<g id="Node000002" class="node">
<title>Node2</title>
<g id="a_Node000002"><a xlink:title=" ">
<polygon fill="white" stroke="none" points="28,-190 0,-190 0,-141 28,-141 28,-190"/>
<text text-anchor="start" x="4.62" y="-176.5" font-family="Helvetica,sans-Serif" font-size="10.00">byte</text>
<text text-anchor="start" x="12.5" y="-161.5" font-family="Helvetica,sans-Serif" font-size="10.00"> </text>
<text text-anchor="start" x="12.5" y="-146.5" font-family="Helvetica,sans-Serif" font-size="10.00"> </text>
<polygon fill="#666666" stroke="#666666" points="0,-173 0,-173 28,-173 28,-173 0,-173"/>
<polygon fill="#666666" stroke="#666666" points="0,-158 0,-158 28,-158 28,-158 0,-158"/>
<polygon fill="none" stroke="#666666" points="0,-141 0,-190 28,-190 28,-141 0,-141"/>
</a>
</g>
</g>
<!-- Node2&#45;&gt;Node1 -->
<g id="edge1_Node000001_Node000002" class="edge">
<title>Node2&#45;&gt;Node1</title>
<g id="a_edge1_Node000001_Node000002"><a xlink:title=" ">
<path fill="none" stroke="#63b8ff" d="M14.91,-141.15C16.61,-122.7 21.21,-97 33.5,-78 35.5,-74.9 37.79,-71.93 40.27,-69.09"/>
<polygon fill="none" stroke="#63b8ff" points="40.24,-69.13 41.64,-62.05 48.71,-60.63 47.3,-67.7 40.24,-69.13"/>
</a>
</g>
<text text-anchor="middle" x="63.25" y="-113.5" font-family="Helvetica,sans-Serif" font-size="10.00" fill="grey"> +ColorCount</text>
<text text-anchor="middle" x="63.25" y="-102.25" font-family="Helvetica,sans-Serif" font-size="10.00" fill="grey">+Height</text>
<text text-anchor="middle" x="63.25" y="-91" font-family="Helvetica,sans-Serif" font-size="10.00" fill="grey">+Reserved</text>
<text text-anchor="middle" x="63.25" y="-79.75" font-family="Helvetica,sans-Serif" font-size="10.00" fill="grey">+Width</text>
</g>
<!-- Node3 -->
<g id="Node000003" class="node">
<title>Node3</title>
<g id="a_Node000003"><a xlink:title=" ">
<polygon fill="white" stroke="none" points="114.5,-190 77.5,-190 77.5,-141 114.5,-141 114.5,-190"/>
<text text-anchor="start" x="82.5" y="-176.5" font-family="Helvetica,sans-Serif" font-size="10.00">ushort</text>
<text text-anchor="start" x="94.5" y="-161.5" font-family="Helvetica,sans-Serif" font-size="10.00"> </text>
<text text-anchor="start" x="94.5" y="-146.5" font-family="Helvetica,sans-Serif" font-size="10.00"> </text>
<polygon fill="#666666" stroke="#666666" points="77.5,-173 77.5,-173 114.5,-173 114.5,-173 77.5,-173"/>
<polygon fill="#666666" stroke="#666666" points="77.5,-158 77.5,-158 114.5,-158 114.5,-158 77.5,-158"/>
<polygon fill="none" stroke="#666666" points="77.5,-141 77.5,-190 114.5,-190 114.5,-141 77.5,-141"/>
</a>
</g>
</g>
<!-- Node3&#45;&gt;Node1 -->
<g id="edge2_Node000001_Node000003" class="edge">
<title>Node3&#45;&gt;Node1</title>
<g id="a_edge2_Node000001_Node000003"><a xlink:title=" ">
<path fill="none" stroke="#63b8ff" d="M96,-141.25C96,-122.35 96,-95.22 96,-72.6"/>
<polygon fill="none" stroke="#63b8ff" points="96,-72.46 92,-66.46 96,-60.46 100,-66.46 96,-72.46"/>
</a>
</g>
<text text-anchor="middle" x="119.62" y="-102.25" font-family="Helvetica,sans-Serif" font-size="10.00" fill="grey"> +BitCount</text>
<text text-anchor="middle" x="119.62" y="-91" font-family="Helvetica,sans-Serif" font-size="10.00" fill="grey">+Planes</text>
</g>
<!-- Node4 -->
<g id="Node000004" class="node">
<title>Node4</title>
<g id="a_Node000004"><a xlink:title=" ">
<polygon fill="white" stroke="none" points="176,-190 156,-190 156,-141 176,-141 176,-190"/>
<text text-anchor="start" x="160.75" y="-176.5" font-family="Helvetica,sans-Serif" font-size="10.00">int</text>
<text text-anchor="start" x="164.5" y="-161.5" font-family="Helvetica,sans-Serif" font-size="10.00"> </text>
<text text-anchor="start" x="164.5" y="-146.5" font-family="Helvetica,sans-Serif" font-size="10.00"> </text>
<polygon fill="#666666" stroke="#666666" points="156,-173 156,-173 176,-173 176,-173 156,-173"/>
<polygon fill="#666666" stroke="#666666" points="156,-158 156,-158 176,-158 176,-158 156,-158"/>
<polygon fill="none" stroke="#666666" points="156,-141 156,-190 176,-190 176,-141 156,-141"/>
</a>
</g>
</g>
<!-- Node4&#45;&gt;Node1 -->
<g id="edge3_Node000001_Node000004" class="edge">
<title>Node4&#45;&gt;Node1</title>
<g id="a_edge3_Node000001_Node000004"><a xlink:title=" ">
<path fill="none" stroke="#63b8ff" d="M163.56,-141.17C160.86,-122.98 155.29,-97.6 144,-78 142.37,-75.17 140.52,-72.4 138.52,-69.7"/>
<polygon fill="none" stroke="#63b8ff" points="138.48,-69.65 131.56,-67.6 130.79,-60.43 137.71,-62.48 138.48,-69.65"/>
</a>
</g>
<text text-anchor="middle" x="189.38" y="-102.25" font-family="Helvetica,sans-Serif" font-size="10.00" fill="grey"> +BytesInRes</text>
<text text-anchor="middle" x="189.38" y="-91" font-family="Helvetica,sans-Serif" font-size="10.00" fill="grey">+ImageOffset</text>
</g>
</g>
</svg>
