<?xml version="1.0" encoding="UTF-8" standalone="no"?>
<!DOCTYPE svg PUBLIC "-//W3C//DTD SVG 1.1//EN"
 "http://www.w3.org/Graphics/SVG/1.1/DTD/svg11.dtd">
<!-- Generated by graphviz version 10.0.1 (20240210.2158)
 -->
<!-- Title: NAudio.Dmo.Effect.DmoCompressor.Params Pages: 1 -->
<svg width="210pt" height="528pt"
 viewBox="0.00 0.00 210.00 527.75" xmlns="http://www.w3.org/2000/svg" xmlns:xlink="http://www.w3.org/1999/xlink">
<g id="graph0" class="graph" transform="scale(1 1) rotate(0) translate(4 523.75)">
<title>NAudio.Dmo.Effect.DmoCompressor.Params</title>
<!-- Node1 -->
<g id="Node000001" class="node">
<title>Node1</title>
<g id="a_Node000001"><a xlink:title="DMO Compressor Params.">
<polygon fill="#999999" stroke="none" points="175,-285 0,-285 0,0 175,0 175,-285"/>
<text text-anchor="start" x="5" y="-271.5" font-family="Helvetica,sans-Serif" font-size="10.00">NAudio.Dmo.Effect.DmoCompressor.</text>
<text text-anchor="start" x="70.62" y="-260.25" font-family="Helvetica,sans-Serif" font-size="10.00">Params</text>
<text text-anchor="start" x="22.5" y="-245.5" font-family="Helvetica,sans-Serif" font-size="10.00">+</text>
<text text-anchor="start" x="51" y="-245.5" font-family="Helvetica,sans-Serif" font-size="10.00">ReleaseMin</text>
<text text-anchor="start" x="22.5" y="-230.5" font-family="Helvetica,sans-Serif" font-size="10.00">+</text>
<text text-anchor="start" x="51" y="-230.5" font-family="Helvetica,sans-Serif" font-size="10.00">ReleaseMax</text>
<text text-anchor="start" x="22.5" y="-215.5" font-family="Helvetica,sans-Serif" font-size="10.00">+</text>
<text text-anchor="start" x="51" y="-215.5" font-family="Helvetica,sans-Serif" font-size="10.00">ReleaseDefault</text>
<text text-anchor="start" x="22.5" y="-200.5" font-family="Helvetica,sans-Serif" font-size="10.00">+</text>
<text text-anchor="start" x="51" y="-200.5" font-family="Helvetica,sans-Serif" font-size="10.00">ThresholdMin</text>
<text text-anchor="start" x="22.5" y="-185.5" font-family="Helvetica,sans-Serif" font-size="10.00">+</text>
<text text-anchor="start" x="51" y="-185.5" font-family="Helvetica,sans-Serif" font-size="10.00">ThresholdMax</text>
<text text-anchor="start" x="22.5" y="-170.5" font-family="Helvetica,sans-Serif" font-size="10.00">+</text>
<text text-anchor="start" x="51" y="-170.5" font-family="Helvetica,sans-Serif" font-size="10.00">TjresholdDefault</text>
<text text-anchor="start" x="22.5" y="-155.5" font-family="Helvetica,sans-Serif" font-size="10.00">+</text>
<text text-anchor="start" x="51" y="-155.5" font-family="Helvetica,sans-Serif" font-size="10.00">RatioMin</text>
<text text-anchor="start" x="22.5" y="-140.5" font-family="Helvetica,sans-Serif" font-size="10.00">+</text>
<text text-anchor="start" x="51" y="-140.5" font-family="Helvetica,sans-Serif" font-size="10.00">RatioMax</text>
<text text-anchor="start" x="22.5" y="-125.5" font-family="Helvetica,sans-Serif" font-size="10.00">+</text>
<text text-anchor="start" x="51" y="-125.5" font-family="Helvetica,sans-Serif" font-size="10.00">Gain</text>
<text text-anchor="start" x="22.5" y="-110.5" font-family="Helvetica,sans-Serif" font-size="10.00">+</text>
<text text-anchor="start" x="51" y="-110.5" font-family="Helvetica,sans-Serif" font-size="10.00">Attack</text>
<text text-anchor="start" x="22.5" y="-95.5" font-family="Helvetica,sans-Serif" font-size="10.00">+</text>
<text text-anchor="start" x="51" y="-95.5" font-family="Helvetica,sans-Serif" font-size="10.00">Release</text>
<text text-anchor="start" x="22.5" y="-80.5" font-family="Helvetica,sans-Serif" font-size="10.00">+</text>
<text text-anchor="start" x="51" y="-80.5" font-family="Helvetica,sans-Serif" font-size="10.00">Threshold</text>
<text text-anchor="start" x="22.5" y="-65.5" font-family="Helvetica,sans-Serif" font-size="10.00">+</text>
<text text-anchor="start" x="51" y="-65.5" font-family="Helvetica,sans-Serif" font-size="10.00">Ratio</text>
<text text-anchor="start" x="22.5" y="-50.5" font-family="Helvetica,sans-Serif" font-size="10.00">+</text>
<text text-anchor="start" x="51" y="-50.5" font-family="Helvetica,sans-Serif" font-size="10.00">PreDelay</text>
<text text-anchor="start" x="22.5" y="-35.5" font-family="Helvetica,sans-Serif" font-size="10.00">~</text>
<text text-anchor="start" x="51" y="-35.5" font-family="Helvetica,sans-Serif" font-size="10.00">Params()</text>
<text text-anchor="start" x="24" y="-20.5" font-family="Helvetica,sans-Serif" font-size="10.00">&#45;</text>
<text text-anchor="start" x="51" y="-20.5" font-family="Helvetica,sans-Serif" font-size="10.00">SetAllParameters()</text>
<text text-anchor="start" x="24" y="-5.5" font-family="Helvetica,sans-Serif" font-size="10.00">&#45;</text>
<text text-anchor="start" x="51" y="-5.5" font-family="Helvetica,sans-Serif" font-size="10.00">GetAllParameters()</text>
<polygon fill="#666666" stroke="#666666" points="0,-257 0,-257 175,-257 175,-257 0,-257"/>
<polygon fill="#666666" stroke="#666666" points="0,-47 0,-47 49,-47 49,-47 0,-47"/>
<polygon fill="#666666" stroke="#666666" points="49,-47 49,-47 175,-47 175,-47 49,-47"/>
<polygon fill="none" stroke="#666666" points="0,0 0,-285 175,-285 175,0 0,0"/>
</a>
</g>
</g>
<!-- Node2 -->
<g id="Node000002" class="node">
<title>Node2</title>
<g id="a_Node000002"><a xlink:title=" ">
<polygon fill="white" stroke="none" points="51.5,-506.75 23.5,-506.75 23.5,-457.75 51.5,-457.75 51.5,-506.75"/>
<text text-anchor="start" x="28.12" y="-493.25" font-family="Helvetica,sans-Serif" font-size="10.00">float</text>
<text text-anchor="start" x="36" y="-478.25" font-family="Helvetica,sans-Serif" font-size="10.00"> </text>
<text text-anchor="start" x="36" y="-463.25" font-family="Helvetica,sans-Serif" font-size="10.00"> </text>
<polygon fill="#666666" stroke="#666666" points="23.5,-489.75 23.5,-489.75 51.5,-489.75 51.5,-489.75 23.5,-489.75"/>
<polygon fill="#666666" stroke="#666666" points="23.5,-474.75 23.5,-474.75 51.5,-474.75 51.5,-474.75 23.5,-474.75"/>
<polygon fill="none" stroke="#666666" points="23.5,-457.75 23.5,-506.75 51.5,-506.75 51.5,-457.75 23.5,-457.75"/>
</a>
</g>
</g>
<!-- Node2&#45;&gt;Node1 -->
<g id="edge1_Node000001_Node000002" class="edge">
<title>Node2&#45;&gt;Node1</title>
<g id="a_edge1_Node000001_Node000002"><a xlink:title=" ">
<path fill="none" stroke="#63b8ff" d="M35.48,-458.01C33,-423.82 30.07,-358.06 38.5,-303 38.79,-301.12 39.09,-299.23 39.41,-297.34"/>
<polygon fill="none" stroke="#63b8ff" points="39.4,-297.44 36.56,-290.81 41.6,-285.64 44.43,-292.27 39.4,-297.44"/>
</a>
</g>
<text text-anchor="middle" x="77.5" y="-417.25" font-family="Helvetica,sans-Serif" font-size="10.00" fill="grey"> +AttackDefault</text>
<text text-anchor="middle" x="77.5" y="-406" font-family="Helvetica,sans-Serif" font-size="10.00" fill="grey">+AttackMax</text>
<text text-anchor="middle" x="77.5" y="-394.75" font-family="Helvetica,sans-Serif" font-size="10.00" fill="grey">+AttackMin</text>
<text text-anchor="middle" x="77.5" y="-383.5" font-family="Helvetica,sans-Serif" font-size="10.00" fill="grey">+GainDefault</text>
<text text-anchor="middle" x="77.5" y="-372.25" font-family="Helvetica,sans-Serif" font-size="10.00" fill="grey">+GainMax</text>
<text text-anchor="middle" x="77.5" y="-361" font-family="Helvetica,sans-Serif" font-size="10.00" fill="grey">+GainMin</text>
<text text-anchor="middle" x="77.5" y="-349.75" font-family="Helvetica,sans-Serif" font-size="10.00" fill="grey">+PreDelayDefault</text>
<text text-anchor="middle" x="77.5" y="-338.5" font-family="Helvetica,sans-Serif" font-size="10.00" fill="grey">+PreDelayMax</text>
<text text-anchor="middle" x="77.5" y="-327.25" font-family="Helvetica,sans-Serif" font-size="10.00" fill="grey">+PreDelayMin</text>
<text text-anchor="middle" x="77.5" y="-316" font-family="Helvetica,sans-Serif" font-size="10.00" fill="grey">+RatioDefault</text>
<text text-anchor="middle" x="77.5" y="-304.75" font-family="Helvetica,sans-Serif" font-size="10.00" fill="grey">...</text>
</g>
<!-- Node3 -->
<g id="Node000003" class="node">
<title>Node3</title>
<g id="a_Node000003"><a xlink:href="interface_n_audio_1_1_dmo_1_1_effect_1_1_i_direct_sound_f_x_compressor.html" target="_top" xlink:title=" ">
<polygon fill="white" stroke="none" points="202,-519.75 75,-519.75 75,-444.75 202,-444.75 202,-519.75"/>
<text text-anchor="start" x="79.62" y="-506.25" font-family="Helvetica,sans-Serif" font-size="10.00">NAudio.Dmo.Effect.IDirect</text>
<text text-anchor="start" x="91.62" y="-495" font-family="Helvetica,sans-Serif" font-size="10.00">SoundFXCompressor</text>
<text text-anchor="start" x="137" y="-480.25" font-family="Helvetica,sans-Serif" font-size="10.00"> </text>
<text text-anchor="start" x="85.5" y="-465.25" font-family="Helvetica,sans-Serif" font-size="10.00">+</text>
<text text-anchor="start" x="102" y="-465.25" font-family="Helvetica,sans-Serif" font-size="10.00">SetAllParameters()</text>
<text text-anchor="start" x="85.5" y="-450.25" font-family="Helvetica,sans-Serif" font-size="10.00">+</text>
<text text-anchor="start" x="102" y="-450.25" font-family="Helvetica,sans-Serif" font-size="10.00">GetAllParameters()</text>
<polygon fill="#666666" stroke="#666666" points="75,-491.75 75,-491.75 202,-491.75 202,-491.75 75,-491.75"/>
<polygon fill="#666666" stroke="#666666" points="75,-476.75 75,-476.75 202,-476.75 202,-476.75 75,-476.75"/>
<polygon fill="none" stroke="#666666" points="75,-444.75 75,-519.75 202,-519.75 202,-444.75 75,-444.75"/>
</a>
</g>
</g>
<!-- Node3&#45;&gt;Node1 -->
<g id="edge2_Node000001_Node000003" class="edge">
<title>Node3&#45;&gt;Node1</title>
<g id="a_edge2_Node000001_Node000003"><a xlink:title=" ">
<path fill="none" stroke="#63b8ff" d="M134.64,-444.98C130.65,-408.9 123.97,-352.01 116.5,-303 116.23,-301.22 115.95,-299.44 115.67,-297.64"/>
<polygon fill="none" stroke="#63b8ff" points="115.65,-297.5 110.76,-292.2 113.77,-285.65 118.66,-290.94 115.65,-297.5"/>
</a>
</g>
<text text-anchor="middle" x="165.25" y="-361" font-family="Helvetica,sans-Serif" font-size="10.00" fill="grey"> &#45;fxCompressor</text>
</g>
</g>
</svg>
