<?xml version="1.0" encoding="UTF-8" standalone="no"?>
<!DOCTYPE svg PUBLIC "-//W3C//DTD SVG 1.1//EN"
 "http://www.w3.org/Graphics/SVG/1.1/DTD/svg11.dtd">
<!-- Generated by graphviz version 10.0.1 (20240210.2158)
 -->
<!-- Title: Hidden_handler.Process_Handler.STARTUPINFO Pages: 1 -->
<svg width="364pt" height="254pt"
 viewBox="0.00 0.00 364.25 254.25" xmlns="http://www.w3.org/2000/svg" xmlns:xlink="http://www.w3.org/1999/xlink">

<svg id="main" version="1.1" xmlns="http://www.w3.org/2000/svg" xmlns:xlink="http://www.w3.org/1999/xlink" xml:space="preserve" onload="init(evt)">
<style type="text/css"><![CDATA[
.node, .edge {opacity: 0.7;}
.node.selected, .edge.selected {opacity: 1;}
.edge:hover path { stroke: red; }
.edge:hover polygon { stroke: red; fill: red; }
]]></style>
<script type="application/ecmascript" xlink:href="svg.min.js"/>
<svg id="graph" class="graph">
<g id="graph0" class="graph" transform="scale(1 1) rotate(0) translate(4 250.25)">
<title>Hidden_handler.Process_Handler.STARTUPINFO</title>
<!-- Node1 -->
<g id="Node000001" class="node">
<title>Node1</title>
<g id="a_Node000001"><a xlink:title=" ">
<polygon fill="#999999" stroke="none" points="216,-60 95,-60 95,0 216,0 216,-60"/>
<text text-anchor="start" x="99.62" y="-46.5" font-family="Helvetica,sans-Serif" font-size="10.00">Hidden_handler.Process</text>
<text text-anchor="start" x="99.62" y="-35.25" font-family="Helvetica,sans-Serif" font-size="10.00">_Handler.STARTUPINFO</text>
<text text-anchor="start" x="154" y="-20.5" font-family="Helvetica,sans-Serif" font-size="10.00"> </text>
<text text-anchor="start" x="154" y="-5.5" font-family="Helvetica,sans-Serif" font-size="10.00"> </text>
<polygon fill="#666666" stroke="#666666" points="95,-32 95,-32 216,-32 216,-32 95,-32"/>
<polygon fill="#666666" stroke="#666666" points="95,-17 95,-17 216,-17 216,-17 95,-17"/>
<polygon fill="none" stroke="#666666" points="95,0 95,-60 216,-60 216,0 95,0"/>
</a>
</g>
</g>
<!-- Node2 -->
<g id="Node000002" class="node">
<title>Node2</title>
<g id="a_Node000002"><a xlink:title=" ">
<polygon fill="white" stroke="none" points="31,-246.25 0,-246.25 0,-197.25 31,-197.25 31,-246.25"/>
<text text-anchor="start" x="4.62" y="-232.75" font-family="Helvetica,sans-Serif" font-size="10.00">Int32</text>
<text text-anchor="start" x="14" y="-217.75" font-family="Helvetica,sans-Serif" font-size="10.00"> </text>
<text text-anchor="start" x="14" y="-202.75" font-family="Helvetica,sans-Serif" font-size="10.00"> </text>
<polygon fill="#666666" stroke="#666666" points="0,-229.25 0,-229.25 31,-229.25 31,-229.25 0,-229.25"/>
<polygon fill="#666666" stroke="#666666" points="0,-214.25 0,-214.25 31,-214.25 31,-214.25 0,-214.25"/>
<polygon fill="none" stroke="#666666" points="0,-197.25 0,-246.25 31,-246.25 31,-197.25 0,-197.25"/>
</a>
</g>
</g>
<!-- Node2&#45;&gt;Node1 -->
<g id="edge1_Node000001_Node000002" class="edge">
<title>Node2&#45;&gt;Node1</title>
<g id="a_edge1_Node000001_Node000002"><a xlink:title=" ">
<path fill="none" stroke="#63b8ff" d="M10.21,-197.33C4.72,-166.63 0.2,-112.65 26.5,-78 40.17,-59.98 61.43,-48.87 82.77,-42.01"/>
<polygon fill="none" stroke="#63b8ff" points="82.88,-41.98 87.56,-36.49 94.42,-38.69 89.75,-44.18 82.88,-41.98"/>
</a>
</g>
<text text-anchor="middle" x="65.5" y="-169.75" font-family="Helvetica,sans-Serif" font-size="10.00" fill="grey"> +cb</text>
<text text-anchor="middle" x="65.5" y="-158.5" font-family="Helvetica,sans-Serif" font-size="10.00" fill="grey">+dwFillAttribute</text>
<text text-anchor="middle" x="65.5" y="-147.25" font-family="Helvetica,sans-Serif" font-size="10.00" fill="grey">+dwFlags</text>
<text text-anchor="middle" x="65.5" y="-136" font-family="Helvetica,sans-Serif" font-size="10.00" fill="grey">+dwX</text>
<text text-anchor="middle" x="65.5" y="-124.75" font-family="Helvetica,sans-Serif" font-size="10.00" fill="grey">+dwXCountChars</text>
<text text-anchor="middle" x="65.5" y="-113.5" font-family="Helvetica,sans-Serif" font-size="10.00" fill="grey">+dwXSize</text>
<text text-anchor="middle" x="65.5" y="-102.25" font-family="Helvetica,sans-Serif" font-size="10.00" fill="grey">+dwY</text>
<text text-anchor="middle" x="65.5" y="-91" font-family="Helvetica,sans-Serif" font-size="10.00" fill="grey">+dwYCountChars</text>
<text text-anchor="middle" x="65.5" y="-79.75" font-family="Helvetica,sans-Serif" font-size="10.00" fill="grey">+dwYSize</text>
</g>
<!-- Node3 -->
<g id="Node000003" class="node">
<title>Node3</title>
<g id="a_Node000003"><a xlink:title=" ">
<polygon fill="white" stroke="none" points="133.5,-246.25 99.5,-246.25 99.5,-197.25 133.5,-197.25 133.5,-246.25"/>
<text text-anchor="start" x="104.5" y="-232.75" font-family="Helvetica,sans-Serif" font-size="10.00">string</text>
<text text-anchor="start" x="115" y="-217.75" font-family="Helvetica,sans-Serif" font-size="10.00"> </text>
<text text-anchor="start" x="115" y="-202.75" font-family="Helvetica,sans-Serif" font-size="10.00"> </text>
<polygon fill="#666666" stroke="#666666" points="99.5,-229.25 99.5,-229.25 133.5,-229.25 133.5,-229.25 99.5,-229.25"/>
<polygon fill="#666666" stroke="#666666" points="99.5,-214.25 99.5,-214.25 133.5,-214.25 133.5,-214.25 99.5,-214.25"/>
<polygon fill="none" stroke="#666666" points="99.5,-197.25 99.5,-246.25 133.5,-246.25 133.5,-197.25 99.5,-197.25"/>
</a>
</g>
</g>
<!-- Node3&#45;&gt;Node1 -->
<g id="edge2_Node000001_Node000003" class="edge">
<title>Node3&#45;&gt;Node1</title>
<g id="a_edge2_Node000001_Node000003"><a xlink:title=" ">
<path fill="none" stroke="#63b8ff" d="M112.22,-197.45C107.92,-168.5 103.75,-118.04 118,-78 118.85,-75.6 119.88,-73.24 121.05,-70.92"/>
<polygon fill="none" stroke="#63b8ff" points="121.12,-70.8 120.82,-63.59 127.36,-60.54 127.66,-67.75 121.12,-70.8"/>
</a>
</g>
<text text-anchor="middle" x="146.25" y="-136" font-family="Helvetica,sans-Serif" font-size="10.00" fill="grey"> +lpDesktop</text>
<text text-anchor="middle" x="146.25" y="-124.75" font-family="Helvetica,sans-Serif" font-size="10.00" fill="grey">+lpReserved</text>
<text text-anchor="middle" x="146.25" y="-113.5" font-family="Helvetica,sans-Serif" font-size="10.00" fill="grey">+lpTitle</text>
</g>
<!-- Node4 -->
<g id="Node000004" class="node">
<title>Node4</title>
<g id="a_Node000004"><a xlink:title=" ">
<polygon fill="white" stroke="none" points="211,-246.25 180,-246.25 180,-197.25 211,-197.25 211,-246.25"/>
<text text-anchor="start" x="184.62" y="-232.75" font-family="Helvetica,sans-Serif" font-size="10.00">Int16</text>
<text text-anchor="start" x="194" y="-217.75" font-family="Helvetica,sans-Serif" font-size="10.00"> </text>
<text text-anchor="start" x="194" y="-202.75" font-family="Helvetica,sans-Serif" font-size="10.00"> </text>
<polygon fill="#666666" stroke="#666666" points="180,-229.25 180,-229.25 211,-229.25 211,-229.25 180,-229.25"/>
<polygon fill="#666666" stroke="#666666" points="180,-214.25 180,-214.25 211,-214.25 211,-214.25 180,-214.25"/>
<polygon fill="none" stroke="#666666" points="180,-197.25 180,-246.25 211,-246.25 211,-197.25 180,-197.25"/>
</a>
</g>
</g>
<!-- Node4&#45;&gt;Node1 -->
<g id="edge3_Node000001_Node000004" class="edge">
<title>Node4&#45;&gt;Node1</title>
<g id="a_edge3_Node000001_Node000004"><a xlink:title=" ">
<path fill="none" stroke="#63b8ff" d="M193.45,-197.45C190.58,-168.92 184.46,-119.32 173.5,-78 172.98,-76.03 172.4,-74.03 171.79,-72.03"/>
<polygon fill="none" stroke="#63b8ff" points="171.77,-71.98 166.05,-67.59 167.91,-60.62 173.63,-65.01 171.77,-71.98"/>
</a>
</g>
<text text-anchor="middle" x="227.25" y="-130.38" font-family="Helvetica,sans-Serif" font-size="10.00" fill="grey"> +cbReserved2</text>
<text text-anchor="middle" x="227.25" y="-119.12" font-family="Helvetica,sans-Serif" font-size="10.00" fill="grey">+wShowWindow</text>
</g>
<!-- Node5 -->
<g id="Node000005" class="node">
<title>Node5</title>
<g id="a_Node000005"><a xlink:title=" ">
<polygon fill="white" stroke="none" points="309.5,-246.25 275.5,-246.25 275.5,-197.25 309.5,-197.25 309.5,-246.25"/>
<text text-anchor="start" x="280.5" y="-232.75" font-family="Helvetica,sans-Serif" font-size="10.00">IntPtr</text>
<text text-anchor="start" x="291" y="-217.75" font-family="Helvetica,sans-Serif" font-size="10.00"> </text>
<text text-anchor="start" x="291" y="-202.75" font-family="Helvetica,sans-Serif" font-size="10.00"> </text>
<polygon fill="#666666" stroke="#666666" points="275.5,-229.25 275.5,-229.25 309.5,-229.25 309.5,-229.25 275.5,-229.25"/>
<polygon fill="#666666" stroke="#666666" points="275.5,-214.25 275.5,-214.25 309.5,-214.25 309.5,-214.25 275.5,-214.25"/>
<polygon fill="none" stroke="#666666" points="275.5,-197.25 275.5,-246.25 309.5,-246.25 309.5,-197.25 275.5,-197.25"/>
</a>
</g>
</g>
<!-- Node5&#45;&gt;Node1 -->
<g id="edge4_Node000001_Node000005" class="edge">
<title>Node5&#45;&gt;Node1</title>
<g id="a_edge4_Node000001_Node000005"><a xlink:title=" ">
<path fill="none" stroke="#63b8ff" d="M295.03,-197.26C297.03,-166.49 295.87,-112.43 268.5,-78 258.02,-64.81 243.19,-55.28 227.71,-48.42"/>
<polygon fill="none" stroke="#63b8ff" points="227.79,-48.45 220.74,-49.94 216.65,-44 223.7,-42.51 227.79,-48.45"/>
</a>
</g>
<text text-anchor="middle" x="325.88" y="-141.62" font-family="Helvetica,sans-Serif" font-size="10.00" fill="grey"> +hStdError</text>
<text text-anchor="middle" x="325.88" y="-130.38" font-family="Helvetica,sans-Serif" font-size="10.00" fill="grey">+hStdInput</text>
<text text-anchor="middle" x="325.88" y="-119.12" font-family="Helvetica,sans-Serif" font-size="10.00" fill="grey">+hStdOutput</text>
<text text-anchor="middle" x="325.88" y="-107.88" font-family="Helvetica,sans-Serif" font-size="10.00" fill="grey">+lpReserved2</text>
</g>
</g>
</svg>
</svg>

<style type='text/css'>
<![CDATA[
[data-mouse-over-selected='false'] { opacity: 0.7; }
[data-mouse-over-selected='true']  { opacity: 1.0; }
]]>
</style>
<script type="application/ecmascript"><![CDATA[
document.addEventListener('DOMContentLoaded', (event) => {
  highlightEdges();
  highlightAdjacentNodes();
});
]]></script>
</svg>
