<?xml version="1.0" encoding="UTF-8" standalone="no"?>
<!DOCTYPE svg PUBLIC "-//W3C//DTD SVG 1.1//EN"
 "http://www.w3.org/Graphics/SVG/1.1/DTD/svg11.dtd">
<!-- Generated by graphviz version 10.0.1 (20240210.2158)
 -->
<!-- Title: NAudio.MediaFoundation.MFT_OUTPUT_STREAM_INFO Pages: 1 -->
<svg width="214pt" height="187pt"
 viewBox="0.00 0.00 213.50 186.50" xmlns="http://www.w3.org/2000/svg" xmlns:xlink="http://www.w3.org/1999/xlink">
<g id="graph0" class="graph" transform="scale(1 1) rotate(0) translate(4 182.5)">
<title>NAudio.MediaFoundation.MFT_OUTPUT_STREAM_INFO</title>
<!-- Node1 -->
<g id="Node000001" class="node">
<title>Node1</title>
<g id="a_Node000001"><a xlink:title="Contains information about an output stream on a Media Foundation transform (MFT).">
<polygon fill="#999999" stroke="none" points="181.5,-60 39.5,-60 39.5,0 181.5,0 181.5,-60"/>
<text text-anchor="start" x="44.12" y="-46.5" font-family="Helvetica,sans-Serif" font-size="10.00">NAudio.MediaFoundation.MFT</text>
<text text-anchor="start" x="49" y="-35.25" font-family="Helvetica,sans-Serif" font-size="10.00">_OUTPUT_STREAM_INFO</text>
<text text-anchor="start" x="109" y="-20.5" font-family="Helvetica,sans-Serif" font-size="10.00"> </text>
<text text-anchor="start" x="109" y="-5.5" font-family="Helvetica,sans-Serif" font-size="10.00"> </text>
<polygon fill="#666666" stroke="#666666" points="39.5,-32 39.5,-32 181.5,-32 181.5,-32 39.5,-32"/>
<polygon fill="#666666" stroke="#666666" points="39.5,-17 39.5,-17 181.5,-17 181.5,-17 39.5,-17"/>
<polygon fill="none" stroke="#666666" points="39.5,0 39.5,-60 181.5,-60 181.5,0 39.5,0"/>
</a>
</g>
</g>
<!-- Node2 -->
<g id="Node000002" class="node">
<title>Node2</title>
<g id="a_Node000002"><a xlink:title=" ">
<polygon fill="white" stroke="none" points="129,-178.5 0,-178.5 0,-118.5 129,-118.5 129,-178.5"/>
<text text-anchor="start" x="4.88" y="-165" font-family="Helvetica,sans-Serif" font-size="10.00">_MFT_OUTPUT_STREAM</text>
<text text-anchor="start" x="31.12" y="-153.75" font-family="Helvetica,sans-Serif" font-size="10.00">_INFO_FLAGS</text>
<text text-anchor="start" x="63" y="-139" font-family="Helvetica,sans-Serif" font-size="10.00"> </text>
<text text-anchor="start" x="63" y="-124" font-family="Helvetica,sans-Serif" font-size="10.00"> </text>
<polygon fill="#666666" stroke="#666666" points="0,-150.5 0,-150.5 129,-150.5 129,-150.5 0,-150.5"/>
<polygon fill="#666666" stroke="#666666" points="0,-135.5 0,-135.5 129,-135.5 129,-135.5 0,-135.5"/>
<polygon fill="none" stroke="#666666" points="0,-118.5 0,-178.5 129,-178.5 129,-118.5 0,-118.5"/>
</a>
</g>
</g>
<!-- Node2&#45;&gt;Node1 -->
<g id="edge1_Node000001_Node000002" class="edge">
<title>Node2&#45;&gt;Node1</title>
<g id="a_edge1_Node000001_Node000002"><a xlink:title=" ">
<path fill="none" stroke="#63b8ff" d="M74.51,-118.59C78.98,-106.04 84.44,-91.22 89.75,-78 90.56,-75.98 91.41,-73.92 92.27,-71.84"/>
<polygon fill="none" stroke="#63b8ff" points="92.28,-71.82 90.96,-64.73 97,-60.78 98.32,-67.87 92.28,-71.82"/>
</a>
</g>
<text text-anchor="middle" x="112.38" y="-85.38" font-family="Helvetica,sans-Serif" font-size="10.00" fill="grey"> +dwFlags</text>
</g>
<!-- Node3 -->
<g id="Node000003" class="node">
<title>Node3</title>
<g id="a_Node000003"><a xlink:title=" ">
<polygon fill="white" stroke="none" points="167.5,-173 147.5,-173 147.5,-124 167.5,-124 167.5,-173"/>
<text text-anchor="start" x="152.25" y="-159.5" font-family="Helvetica,sans-Serif" font-size="10.00">int</text>
<text text-anchor="start" x="156" y="-144.5" font-family="Helvetica,sans-Serif" font-size="10.00"> </text>
<text text-anchor="start" x="156" y="-129.5" font-family="Helvetica,sans-Serif" font-size="10.00"> </text>
<polygon fill="#666666" stroke="#666666" points="147.5,-156 147.5,-156 167.5,-156 167.5,-156 147.5,-156"/>
<polygon fill="#666666" stroke="#666666" points="147.5,-141 147.5,-141 167.5,-141 167.5,-141 147.5,-141"/>
<polygon fill="none" stroke="#666666" points="147.5,-124 147.5,-173 167.5,-173 167.5,-124 147.5,-124"/>
</a>
</g>
</g>
<!-- Node3&#45;&gt;Node1 -->
<g id="edge2_Node000001_Node000003" class="edge">
<title>Node3&#45;&gt;Node1</title>
<g id="a_edge2_Node000001_Node000003"><a xlink:title=" ">
<path fill="none" stroke="#63b8ff" d="M151.3,-124.27C147.36,-110.58 141.82,-93.05 135.5,-78 134.6,-75.86 133.63,-73.68 132.63,-71.5"/>
<polygon fill="none" stroke="#63b8ff" points="132.63,-71.51 126.4,-67.89 127.34,-60.74 133.58,-64.36 132.63,-71.51"/>
</a>
</g>
<text text-anchor="middle" x="174" y="-91" font-family="Helvetica,sans-Serif" font-size="10.00" fill="grey"> +cbAlignment</text>
<text text-anchor="middle" x="174" y="-79.75" font-family="Helvetica,sans-Serif" font-size="10.00" fill="grey">+cbSize</text>
</g>
</g>
</svg>
