<?xml version="1.0" encoding="UTF-8" standalone="no"?>
<!DOCTYPE svg PUBLIC "-//W3C//DTD SVG 1.1//EN"
 "http://www.w3.org/Graphics/SVG/1.1/DTD/svg11.dtd">
<!-- Generated by graphviz version 10.0.1 (20240210.2158)
 -->
<!-- Title: NAudio.MediaFoundation.MFT_INPUT_STREAM_INFO Pages: 1 -->
<svg width="284pt" height="198pt"
 viewBox="0.00 0.00 283.50 197.75" xmlns="http://www.w3.org/2000/svg" xmlns:xlink="http://www.w3.org/1999/xlink">

<svg id="main" version="1.1" xmlns="http://www.w3.org/2000/svg" xmlns:xlink="http://www.w3.org/1999/xlink" xml:space="preserve" onload="init(evt)">
<style type="text/css"><![CDATA[
.node, .edge {opacity: 0.7;}
.node.selected, .edge.selected {opacity: 1;}
.edge:hover path { stroke: red; }
.edge:hover polygon { stroke: red; fill: red; }
]]></style>
<script type="application/ecmascript" xlink:href="svg.min.js"/>
<svg id="graph" class="graph">
<g id="graph0" class="graph" transform="scale(1 1) rotate(0) translate(4 193.75)">
<title>NAudio.MediaFoundation.MFT_INPUT_STREAM_INFO</title>
<!-- Node1 -->
<g id="Node000001" class="node">
<title>Node1</title>
<g id="a_Node000001"><a xlink:title="Contains information about an input stream on a Media Foundation transform (MFT)">
<polygon fill="#999999" stroke="none" points="191,-60 49,-60 49,0 191,0 191,-60"/>
<text text-anchor="start" x="53.62" y="-46.5" font-family="Helvetica,sans-Serif" font-size="10.00">NAudio.MediaFoundation.MFT</text>
<text text-anchor="start" x="63.75" y="-35.25" font-family="Helvetica,sans-Serif" font-size="10.00">_INPUT_STREAM_INFO</text>
<text text-anchor="start" x="118.5" y="-20.5" font-family="Helvetica,sans-Serif" font-size="10.00"> </text>
<text text-anchor="start" x="118.5" y="-5.5" font-family="Helvetica,sans-Serif" font-size="10.00"> </text>
<polygon fill="#666666" stroke="#666666" points="49,-32 49,-32 191,-32 191,-32 49,-32"/>
<polygon fill="#666666" stroke="#666666" points="49,-17 49,-17 191,-17 191,-17 49,-17"/>
<polygon fill="none" stroke="#666666" points="49,0 49,-60 191,-60 191,0 49,0"/>
</a>
</g>
</g>
<!-- Node2 -->
<g id="Node000002" class="node">
<title>Node2</title>
<g id="a_Node000002"><a xlink:title=" ">
<polygon fill="white" stroke="none" points="28,-184.25 0,-184.25 0,-135.25 28,-135.25 28,-184.25"/>
<text text-anchor="start" x="5" y="-170.75" font-family="Helvetica,sans-Serif" font-size="10.00">long</text>
<text text-anchor="start" x="12.5" y="-155.75" font-family="Helvetica,sans-Serif" font-size="10.00"> </text>
<text text-anchor="start" x="12.5" y="-140.75" font-family="Helvetica,sans-Serif" font-size="10.00"> </text>
<polygon fill="#666666" stroke="#666666" points="0,-167.25 0,-167.25 28,-167.25 28,-167.25 0,-167.25"/>
<polygon fill="#666666" stroke="#666666" points="0,-152.25 0,-152.25 28,-152.25 28,-152.25 0,-152.25"/>
<polygon fill="none" stroke="#666666" points="0,-135.25 0,-184.25 28,-184.25 28,-135.25 0,-135.25"/>
</a>
</g>
</g>
<!-- Node2&#45;&gt;Node1 -->
<g id="edge1_Node000001_Node000002" class="edge">
<title>Node2&#45;&gt;Node1</title>
<g id="a_edge1_Node000001_Node000002"><a xlink:title=" ">
<path fill="none" stroke="#63b8ff" d="M16.26,-135.39C18.97,-118 24.93,-94.51 38,-78 40.78,-74.48 43.91,-71.18 47.27,-68.09"/>
<polygon fill="none" stroke="#63b8ff" points="47.28,-68.08 49.4,-61.19 56.57,-60.5 54.45,-67.39 47.28,-68.08"/>
</a>
</g>
<text text-anchor="middle" x="77" y="-91" font-family="Helvetica,sans-Serif" font-size="10.00" fill="grey"> +hnsMaxLatency</text>
</g>
<!-- Node3 -->
<g id="Node000003" class="node">
<title>Node3</title>
<g id="a_Node000003"><a xlink:title=" ">
<polygon fill="white" stroke="none" points="194,-189.75 46,-189.75 46,-129.75 194,-129.75 194,-189.75"/>
<text text-anchor="start" x="51" y="-176.25" font-family="Helvetica,sans-Serif" font-size="10.00">_MFT_INPUT_STREAM_INFO</text>
<text text-anchor="start" x="101.25" y="-165" font-family="Helvetica,sans-Serif" font-size="10.00">_FLAGS</text>
<text text-anchor="start" x="118.5" y="-150.25" font-family="Helvetica,sans-Serif" font-size="10.00"> </text>
<text text-anchor="start" x="118.5" y="-135.25" font-family="Helvetica,sans-Serif" font-size="10.00"> </text>
<polygon fill="#666666" stroke="#666666" points="46,-161.75 46,-161.75 194,-161.75 194,-161.75 46,-161.75"/>
<polygon fill="#666666" stroke="#666666" points="46,-146.75 46,-146.75 194,-146.75 194,-146.75 46,-146.75"/>
<polygon fill="none" stroke="#666666" points="46,-129.75 46,-189.75 194,-189.75 194,-129.75 46,-129.75"/>
</a>
</g>
</g>
<!-- Node3&#45;&gt;Node1 -->
<g id="edge2_Node000001_Node000003" class="edge">
<title>Node3&#45;&gt;Node1</title>
<g id="a_edge2_Node000001_Node000003"><a xlink:title=" ">
<path fill="none" stroke="#63b8ff" d="M120,-129.76C120,-112.94 120,-91.46 120,-72.83"/>
<polygon fill="none" stroke="#63b8ff" points="120,-72.78 116,-66.78 120,-60.78 124,-66.78 120,-72.78"/>
</a>
</g>
<text text-anchor="middle" x="142.88" y="-91" font-family="Helvetica,sans-Serif" font-size="10.00" fill="grey"> +dwFlags</text>
</g>
<!-- Node4 -->
<g id="Node000004" class="node">
<title>Node4</title>
<g id="a_Node000004"><a xlink:title=" ">
<polygon fill="white" stroke="none" points="232,-184.25 212,-184.25 212,-135.25 232,-135.25 232,-184.25"/>
<text text-anchor="start" x="216.75" y="-170.75" font-family="Helvetica,sans-Serif" font-size="10.00">int</text>
<text text-anchor="start" x="220.5" y="-155.75" font-family="Helvetica,sans-Serif" font-size="10.00"> </text>
<text text-anchor="start" x="220.5" y="-140.75" font-family="Helvetica,sans-Serif" font-size="10.00"> </text>
<polygon fill="#666666" stroke="#666666" points="212,-167.25 212,-167.25 232,-167.25 232,-167.25 212,-167.25"/>
<polygon fill="#666666" stroke="#666666" points="212,-152.25 212,-152.25 232,-152.25 232,-152.25 212,-152.25"/>
<polygon fill="none" stroke="#666666" points="212,-135.25 212,-184.25 232,-184.25 232,-135.25 212,-135.25"/>
</a>
</g>
</g>
<!-- Node4&#45;&gt;Node1 -->
<g id="edge3_Node000001_Node000004" class="edge">
<title>Node4&#45;&gt;Node1</title>
<g id="a_edge3_Node000001_Node000004"><a xlink:title=" ">
<path fill="none" stroke="#63b8ff" d="M212.01,-140.56C202.31,-123.6 186.64,-97.99 170,-78 167.53,-75.03 164.88,-72.06 162.13,-69.13"/>
<polygon fill="none" stroke="#63b8ff" points="162.21,-69.2 155.15,-67.72 153.8,-60.64 160.86,-62.12 162.21,-69.2"/>
</a>
</g>
<text text-anchor="middle" x="234.25" y="-102.25" font-family="Helvetica,sans-Serif" font-size="10.00" fill="grey"> +cbAlignment</text>
<text text-anchor="middle" x="234.25" y="-91" font-family="Helvetica,sans-Serif" font-size="10.00" fill="grey">+cbMaxLookahead</text>
<text text-anchor="middle" x="234.25" y="-79.75" font-family="Helvetica,sans-Serif" font-size="10.00" fill="grey">+cbSize</text>
</g>
</g>
</svg>
</svg>

<style type='text/css'>
<![CDATA[
[data-mouse-over-selected='false'] { opacity: 0.7; }
[data-mouse-over-selected='true']  { opacity: 1.0; }
]]>
</style>
<script type="application/ecmascript"><![CDATA[
document.addEventListener('DOMContentLoaded', (event) => {
  highlightEdges();
  highlightAdjacentNodes();
});
]]></script>
</svg>
