<?xml version="1.0" encoding="UTF-8" standalone="no"?>
<!DOCTYPE svg PUBLIC "-//W3C//DTD SVG 1.1//EN"
 "http://www.w3.org/Graphics/SVG/1.1/DTD/svg11.dtd">
<!-- Generated by graphviz version 10.0.1 (20240210.2158)
 -->
<!-- Title: NAudio.Wave.Asio.Asio64Bit Pages: 1 -->
<svg width="145pt" height="165pt"
 viewBox="0.00 0.00 145.00 164.50" xmlns="http://www.w3.org/2000/svg" xmlns:xlink="http://www.w3.org/1999/xlink">

<svg id="main" version="1.1" xmlns="http://www.w3.org/2000/svg" xmlns:xlink="http://www.w3.org/1999/xlink" xml:space="preserve" onload="init(evt)">
<style type="text/css"><![CDATA[
.node, .edge {opacity: 0.7;}
.node.selected, .edge.selected {opacity: 1;}
.edge:hover path { stroke: red; }
.edge:hover polygon { stroke: red; fill: red; }
]]></style>
<script type="application/ecmascript" xlink:href="svg.min.js"/>
<svg id="graph" class="graph">
<g id="graph0" class="graph" transform="scale(1 1) rotate(0) translate(4 160.5)">
<title>NAudio.Wave.Asio.Asio64Bit</title>
<!-- Node1 -->
<g id="Node000001" class="node">
<title>Node1</title>
<g id="a_Node000001"><a xlink:title="ASIO 64 bit value Unfortunately the ASIO API was implemented it before compiler supported consistentl...">
<polygon fill="#999999" stroke="none" points="137,-49 0,-49 0,0 137,0 137,-49"/>
<text text-anchor="start" x="4.75" y="-35.5" font-family="Helvetica,sans-Serif" font-size="10.00">NAudio.Wave.Asio.Asio64Bit</text>
<text text-anchor="start" x="67" y="-20.5" font-family="Helvetica,sans-Serif" font-size="10.00"> </text>
<text text-anchor="start" x="67" y="-5.5" font-family="Helvetica,sans-Serif" font-size="10.00"> </text>
<polygon fill="#666666" stroke="#666666" points="0,-32 0,-32 137,-32 137,-32 0,-32"/>
<polygon fill="#666666" stroke="#666666" points="0,-17 0,-17 137,-17 137,-17 0,-17"/>
<polygon fill="none" stroke="#666666" points="0,0 0,-49 137,-49 137,0 0,0"/>
</a>
</g>
</g>
<!-- Node2 -->
<g id="Node000002" class="node">
<title>Node2</title>
<g id="a_Node000002"><a xlink:title=" ">
<polygon fill="white" stroke="none" points="81,-156.5 56,-156.5 56,-107.5 81,-107.5 81,-156.5"/>
<text text-anchor="start" x="60.62" y="-143" font-family="Helvetica,sans-Serif" font-size="10.00">uint</text>
<text text-anchor="start" x="67" y="-128" font-family="Helvetica,sans-Serif" font-size="10.00"> </text>
<text text-anchor="start" x="67" y="-113" font-family="Helvetica,sans-Serif" font-size="10.00"> </text>
<polygon fill="#666666" stroke="#666666" points="56,-139.5 56,-139.5 81,-139.5 81,-139.5 56,-139.5"/>
<polygon fill="#666666" stroke="#666666" points="56,-124.5 56,-124.5 81,-124.5 81,-124.5 56,-124.5"/>
<polygon fill="none" stroke="#666666" points="56,-107.5 56,-156.5 81,-156.5 81,-107.5 56,-107.5"/>
</a>
</g>
</g>
<!-- Node2&#45;&gt;Node1 -->
<g id="edge1_Node000001_Node000002" class="edge">
<title>Node2&#45;&gt;Node1</title>
<g id="a_edge1_Node000001_Node000002"><a xlink:title=" ">
<path fill="none" stroke="#63b8ff" d="M68.5,-107.59C68.5,-94.06 68.5,-76.77 68.5,-61.55"/>
<polygon fill="none" stroke="#63b8ff" points="68.5,-61.75 64.5,-55.75 68.5,-49.75 72.5,-55.75 68.5,-61.75"/>
</a>
</g>
<text text-anchor="middle" x="76.75" y="-80" font-family="Helvetica,sans-Serif" font-size="10.00" fill="grey"> +hi</text>
<text text-anchor="middle" x="76.75" y="-68.75" font-family="Helvetica,sans-Serif" font-size="10.00" fill="grey">+lo</text>
</g>
</g>
</svg>
</svg>

<style type='text/css'>
<![CDATA[
[data-mouse-over-selected='false'] { opacity: 0.7; }
[data-mouse-over-selected='true']  { opacity: 1.0; }
]]>
</style>
<script type="application/ecmascript"><![CDATA[
document.addEventListener('DOMContentLoaded', (event) => {
  highlightEdges();
  highlightAdjacentNodes();
});
]]></script>
</svg>
